<?xml version="1.0" encoding="UTF-8" standalone="no"?>
<!DOCTYPE svg PUBLIC "-//W3C//DTD SVG 1.1//EN"
 "http://www.w3.org/Graphics/SVG/1.1/DTD/svg11.dtd">
<!-- Generated by graphviz version 12.2.1 (20241206.2353)
 -->
<!-- Title: /__w/dpsim/dpsim/dpsim&#45;models/include/dpsim&#45;models/Solver/PFSolverInterfaceBus.h Pages: 1 -->
<svg width="1303pt" height="815pt"
 viewBox="0.00 0.00 1302.75 814.75" xmlns="http://www.w3.org/2000/svg" xmlns:xlink="http://www.w3.org/1999/xlink">
<g id="graph0" class="graph" transform="scale(1 1) rotate(0) translate(4 810.75)">
<title>/__w/dpsim/dpsim/dpsim&#45;models/include/dpsim&#45;models/Solver/PFSolverInterfaceBus.h</title>
<!-- Node1 -->
<g id="Node000001" class="node">
<title>Node1</title>
<g id="a_Node000001"><a xlink:title=" ">
<polygon fill="#999999" stroke="#666666" points="426.62,-806.75 226.88,-806.75 226.88,-756 426.62,-756 426.62,-806.75"/>
<text text-anchor="start" x="234.88" y="-793.25" font-family="Helvetica,sans-Serif" font-size="10.00">/__w/dpsim/dpsim/dpsim</text>
<text text-anchor="start" x="234.88" y="-779" font-family="Helvetica,sans-Serif" font-size="10.00">&#45;models/include/dpsim</text>
<text text-anchor="middle" x="326.75" y="-764.75" font-family="Helvetica,sans-Serif" font-size="10.00">&#45;models/Solver/PFSolverInterfaceBus.h</text>
</a>
</g>
</g>
<!-- Node2 -->
<g id="Node000002" class="node">
<title>Node2</title>
<g id="a_Node000002"><a xlink:href="_attribute_list_8h.html" target="_top" xlink:title=" ">
<polygon fill="white" stroke="#666666" points="474.62,-255.25 322.88,-255.25 322.88,-233 474.62,-233 474.62,-255.25"/>
<text text-anchor="middle" x="398.75" y="-241.75" font-family="Helvetica,sans-Serif" font-size="10.00">dpsim&#45;models/AttributeList.h</text>
</a>
</g>
</g>
<!-- Node1&#45;&gt;Node2 -->
<g id="edge1_Node000001_Node000002" class="edge">
<title>Node1&#45;&gt;Node2</title>
<g id="a_edge1_Node000001_Node000002"><a xlink:title=" ">
<path fill="none" stroke="#63b8ff" d="M274.45,-755.68C232.56,-731.87 180.75,-691.48 180.75,-637.38 180.75,-637.38 180.75,-637.38 180.75,-425 180.75,-336.17 289.76,-283.03 353.61,-259.52"/>
<polygon fill="#63b8ff" stroke="#63b8ff" points="354.54,-262.9 362.78,-256.24 352.19,-256.31 354.54,-262.9"/>
</a>
</g>
</g>
<!-- Node8 -->
<g id="Node000008" class="node">
<title>Node8</title>
<g id="a_Node000008"><a xlink:title=" ">
<polygon fill="#e0e0e0" stroke="#999999" points="346.38,-138.75 223.12,-138.75 223.12,-116.5 346.38,-116.5 346.38,-138.75"/>
<text text-anchor="middle" x="284.75" y="-125.25" font-family="Helvetica,sans-Serif" font-size="10.00">dpsim&#45;models/Config.h</text>
</a>
</g>
</g>
<!-- Node1&#45;&gt;Node8 -->
<g id="edge26_Node000001_Node000008" class="edge">
<title>Node1&#45;&gt;Node8</title>
<g id="a_edge26_Node000001_Node000008"><a xlink:title=" ">
<path fill="none" stroke="#63b8ff" d="M226.72,-769.29C147.73,-754.32 50.75,-719.27 50.75,-637.38 50.75,-637.38 50.75,-637.38 50.75,-243.12 50.75,-170.51 142.8,-143.94 211.43,-134.22"/>
<polygon fill="#63b8ff" stroke="#63b8ff" points="211.7,-137.72 221.16,-132.95 210.79,-130.78 211.7,-137.72"/>
</a>
</g>
</g>
<!-- Node9 -->
<g id="Node000009" class="node">
<title>Node9</title>
<g id="a_Node000009"><a xlink:href="dpsim-models_2include_2dpsim-models_2_definitions_8h.html" target="_top" xlink:title=" ">
<polygon fill="white" stroke="#666666" points="337.5,-80.5 194,-80.5 194,-58.25 337.5,-58.25 337.5,-80.5"/>
<text text-anchor="middle" x="265.75" y="-67" font-family="Helvetica,sans-Serif" font-size="10.00">dpsim&#45;models/Definitions.h</text>
</a>
</g>
</g>
<!-- Node1&#45;&gt;Node9 -->
<g id="edge27_Node000001_Node000009" class="edge">
<title>Node1&#45;&gt;Node9</title>
<g id="a_edge27_Node000001_Node000009"><a xlink:title=" ">
<path fill="none" stroke="#63b8ff" d="M226.54,-775.46C134.64,-764.92 12.75,-732.92 12.75,-637.38 12.75,-637.38 12.75,-637.38 12.75,-184.88 12.75,-108.86 108.7,-83.05 182.43,-74.43"/>
<polygon fill="#63b8ff" stroke="#63b8ff" points="182.51,-77.94 192.08,-73.4 181.77,-70.98 182.51,-77.94"/>
</a>
</g>
</g>
<!-- Node18 -->
<g id="Node000018" class="node">
<title>Node18</title>
<g id="a_Node000018"><a xlink:href="_math_utils_8h.html" target="_top" xlink:title=" ">
<polygon fill="white" stroke="#666666" points="788.5,-138.75 651,-138.75 651,-116.5 788.5,-116.5 788.5,-138.75"/>
<text text-anchor="middle" x="719.75" y="-125.25" font-family="Helvetica,sans-Serif" font-size="10.00">dpsim&#45;models/MathUtils.h</text>
</a>
</g>
</g>
<!-- Node1&#45;&gt;Node18 -->
<g id="edge36_Node000001_Node000018" class="edge">
<title>Node1&#45;&gt;Node18</title>
<g id="a_edge36_Node000001_Node000018"><a xlink:title=" ">
<path fill="none" stroke="#63b8ff" d="M426.81,-773.16C644.7,-756.12 1142.75,-709.29 1142.75,-637.38 1142.75,-637.38 1142.75,-637.38 1142.75,-243.12 1142.75,-203.56 1120.46,-193.74 1085.75,-174.75 1038.08,-148.67 892.82,-136.9 800.28,-131.93"/>
<polygon fill="#63b8ff" stroke="#63b8ff" points="800.66,-128.44 790.5,-131.42 800.3,-135.43 800.66,-128.44"/>
</a>
</g>
</g>
<!-- Node20 -->
<g id="Node000020" class="node">
<title>Node20</title>
<g id="a_Node000020"><a xlink:href="_ptr_factory_8h.html" target="_top" xlink:title=" ">
<polygon fill="white" stroke="#666666" points="1266.38,-138.75 1125.12,-138.75 1125.12,-116.5 1266.38,-116.5 1266.38,-138.75"/>
<text text-anchor="middle" x="1195.75" y="-125.25" font-family="Helvetica,sans-Serif" font-size="10.00">dpsim&#45;models/PtrFactory.h</text>
</a>
</g>
</g>
<!-- Node1&#45;&gt;Node20 -->
<g id="edge37_Node000001_Node000020" class="edge">
<title>Node1&#45;&gt;Node20</title>
<g id="a_edge37_Node000001_Node000020"><a xlink:title=" ">
<path fill="none" stroke="#63b8ff" d="M426.72,-775.36C666.91,-761.98 1256.75,-720.64 1256.75,-637.38 1256.75,-637.38 1256.75,-637.38 1256.75,-243.12 1256.75,-205.85 1231.25,-168.91 1213.23,-147.46"/>
<polygon fill="#63b8ff" stroke="#63b8ff" points="1216.04,-145.36 1206.82,-140.14 1210.77,-149.97 1216.04,-145.36"/>
</a>
</g>
</g>
<!-- Node21 -->
<g id="Node000021" class="node">
<title>Node21</title>
<g id="a_Node000021"><a xlink:href="_logger_8h.html" target="_top" xlink:title=" ">
<polygon fill="white" stroke="#666666" points="838.12,-255.25 713.38,-255.25 713.38,-233 838.12,-233 838.12,-255.25"/>
<text text-anchor="middle" x="775.75" y="-241.75" font-family="Helvetica,sans-Serif" font-size="10.00">dpsim&#45;models/Logger.h</text>
</a>
</g>
</g>
<!-- Node1&#45;&gt;Node21 -->
<g id="edge28_Node000001_Node000021" class="edge">
<title>Node1&#45;&gt;Node21</title>
<g id="a_edge28_Node000001_Node000021"><a xlink:title=" ">
<path fill="none" stroke="#63b8ff" d="M426.81,-774.15C582.17,-761.7 863.75,-726.8 863.75,-637.38 863.75,-637.38 863.75,-637.38 863.75,-359.62 863.75,-318.09 826.9,-282.37 800.89,-262.32"/>
<polygon fill="#63b8ff" stroke="#63b8ff" points="803.23,-259.7 793.11,-256.57 799.07,-265.33 803.23,-259.7"/>
</a>
</g>
</g>
<!-- Node25 -->
<g id="Node000025" class="node">
<title>Node25</title>
<g id="a_Node000025"><a xlink:href="_s_p___ph1___p_q_node_8h.html" target="_top" xlink:title=" ">
<polygon fill="white" stroke="#666666" points="424,-720 313.5,-720 313.5,-683.5 424,-683.5 424,-720"/>
<text text-anchor="start" x="321.5" y="-706.5" font-family="Helvetica,sans-Serif" font-size="10.00">dpsim&#45;models/SP/SP</text>
<text text-anchor="middle" x="368.75" y="-692.25" font-family="Helvetica,sans-Serif" font-size="10.00">_Ph1_PQNode.h</text>
</a>
</g>
</g>
<!-- Node1&#45;&gt;Node25 -->
<g id="edge38_Node000001_Node000025" class="edge">
<title>Node1&#45;&gt;Node25</title>
<g id="a_edge38_Node000001_Node000025"><a xlink:title=" ">
<path fill="none" stroke="#63b8ff" d="M340.04,-755.81C344.43,-747.69 349.35,-738.61 353.85,-730.28"/>
<polygon fill="#63b8ff" stroke="#63b8ff" points="356.87,-732.06 358.55,-721.6 350.71,-728.73 356.87,-732.06"/>
</a>
</g>
</g>
<!-- Node27 -->
<g id="Node000027" class="node">
<title>Node27</title>
<g id="a_Node000027"><a xlink:href="_sim_node_8h.html" target="_top" xlink:title=" ">
<polygon fill="white" stroke="#666666" points="344.38,-509.62 209.12,-509.62 209.12,-487.38 344.38,-487.38 344.38,-509.62"/>
<text text-anchor="middle" x="276.75" y="-496.12" font-family="Helvetica,sans-Serif" font-size="10.00">dpsim&#45;models/SimNode.h</text>
</a>
</g>
</g>
<!-- Node1&#45;&gt;Node27 -->
<g id="edge74_Node000001_Node000027" class="edge">
<title>Node1&#45;&gt;Node27</title>
<g id="a_edge74_Node000001_Node000027"><a xlink:title=" ">
<path fill="none" stroke="#63b8ff" d="M313.66,-755.65C308.41,-744.93 302.69,-732.08 298.75,-720 275.42,-648.48 269.93,-627.92 272.75,-552.75 273.14,-542.44 273.94,-531.04 274.73,-521.44"/>
<polygon fill="#63b8ff" stroke="#63b8ff" points="278.21,-521.87 275.59,-511.6 271.23,-521.26 278.21,-521.87"/>
</a>
</g>
</g>
<!-- Node28 -->
<g id="Node000028" class="node">
<title>Node28</title>
<g id="a_Node000028"><a xlink:href="_task_8h.html" target="_top" xlink:title=" ">
<polygon fill="white" stroke="#666666" points="229.12,-255.25 116.38,-255.25 116.38,-233 229.12,-233 229.12,-255.25"/>
<text text-anchor="middle" x="172.75" y="-241.75" font-family="Helvetica,sans-Serif" font-size="10.00">dpsim&#45;models/Task.h</text>
</a>
</g>
</g>
<!-- Node1&#45;&gt;Node28 -->
<g id="edge76_Node000001_Node000028" class="edge">
<title>Node1&#45;&gt;Node28</title>
<g id="a_edge76_Node000001_Node000028"><a xlink:title=" ">
<path fill="none" stroke="#63b8ff" d="M251.64,-755.55C200.77,-733.47 142.75,-695.53 142.75,-637.38 142.75,-637.38 142.75,-637.38 142.75,-359.62 142.75,-326.03 154.99,-288.64 163.83,-266.01"/>
<polygon fill="#63b8ff" stroke="#63b8ff" points="166.96,-267.6 167.49,-257.02 160.48,-264.96 166.96,-267.6"/>
</a>
</g>
</g>
<!-- Node32 -->
<g id="Node000032" class="node">
<title>Node32</title>
<g id="a_Node000032"><a xlink:href="_sim_terminal_8h.html" target="_top" xlink:title=" ">
<polygon fill="white" stroke="#666666" points="431.5,-582.12 282,-582.12 282,-559.88 431.5,-559.88 431.5,-582.12"/>
<text text-anchor="middle" x="356.75" y="-568.62" font-family="Helvetica,sans-Serif" font-size="10.00">dpsim&#45;models/SimTerminal.h</text>
</a>
</g>
</g>
<!-- Node1&#45;&gt;Node32 -->
<g id="edge75_Node000001_Node000032" class="edge">
<title>Node1&#45;&gt;Node32</title>
<g id="a_edge75_Node000001_Node000032"><a xlink:title=" ">
<path fill="none" stroke="#63b8ff" d="M315.04,-755.7C307.22,-736.14 299.3,-708.08 304.75,-683.5 312.27,-649.61 331.2,-613.8 344.02,-592.18"/>
<polygon fill="#63b8ff" stroke="#63b8ff" points="346.91,-594.16 349.13,-583.8 340.93,-590.52 346.91,-594.16"/>
</a>
</g>
</g>
<!-- Node36 -->
<g id="Node000036" class="node">
<title>Node36</title>
<g id="a_Node000036"><a xlink:href="_s_p___ph1___p_v_node_8h.html" target="_top" xlink:title=" ">
<polygon fill="white" stroke="#666666" points="553,-720 442.5,-720 442.5,-683.5 553,-683.5 553,-720"/>
<text text-anchor="start" x="450.5" y="-706.5" font-family="Helvetica,sans-Serif" font-size="10.00">dpsim&#45;models/SP/SP</text>
<text text-anchor="middle" x="497.75" y="-692.25" font-family="Helvetica,sans-Serif" font-size="10.00">_Ph1_PVNode.h</text>
</a>
</g>
</g>
<!-- Node1&#45;&gt;Node36 -->
<g id="edge70_Node000001_Node000036" class="edge">
<title>Node1&#45;&gt;Node36</title>
<g id="a_edge70_Node000001_Node000036"><a xlink:title=" ">
<path fill="none" stroke="#63b8ff" d="M381.33,-755.6C402.9,-745.81 427.51,-734.64 448.53,-725.1"/>
<polygon fill="#63b8ff" stroke="#63b8ff" points="449.8,-728.36 457.46,-721.04 446.91,-721.99 449.8,-728.36"/>
</a>
</g>
</g>
<!-- Node37 -->
<g id="Node000037" class="node">
<title>Node37</title>
<g id="a_Node000037"><a xlink:href="_s_p___ph1___v_d_node_8h.html" target="_top" xlink:title=" ">
<polygon fill="white" stroke="#666666" points="682,-720 571.5,-720 571.5,-683.5 682,-683.5 682,-720"/>
<text text-anchor="start" x="579.5" y="-706.5" font-family="Helvetica,sans-Serif" font-size="10.00">dpsim&#45;models/SP/SP</text>
<text text-anchor="middle" x="626.75" y="-692.25" font-family="Helvetica,sans-Serif" font-size="10.00">_Ph1_VDNode.h</text>
</a>
</g>
</g>
<!-- Node1&#45;&gt;Node37 -->
<g id="edge72_Node000001_Node000037" class="edge">
<title>Node1&#45;&gt;Node37</title>
<g id="a_edge72_Node000001_Node000037"><a xlink:title=" ">
<path fill="none" stroke="#63b8ff" d="M424.27,-755.51C463.66,-745.42 509.8,-733.54 559.98,-720.45"/>
<polygon fill="#63b8ff" stroke="#63b8ff" points="560.83,-723.85 569.62,-717.94 559.06,-717.07 560.83,-723.85"/>
</a>
</g>
</g>
<!-- Node3 -->
<g id="Node000003" class="node">
<title>Node3</title>
<g id="a_Node000003"><a xlink:title=" ">
<polygon fill="#e0e0e0" stroke="#999999" points="507,-138.75 450.5,-138.75 450.5,-116.5 507,-116.5 507,-138.75"/>
<text text-anchor="middle" x="478.75" y="-125.25" font-family="Helvetica,sans-Serif" font-size="10.00">iostream</text>
</a>
</g>
</g>
<!-- Node2&#45;&gt;Node3 -->
<g id="edge2_Node000002_Node000003" class="edge">
<title>Node2&#45;&gt;Node3</title>
<g id="a_edge2_Node000002_Node000003"><a xlink:title=" ">
<path fill="none" stroke="#63b8ff" d="M414.48,-232.6C426.11,-224.14 441.61,-211.34 451.75,-197 461.88,-182.67 468.92,-164.01 473.26,-149.8"/>
<polygon fill="#63b8ff" stroke="#63b8ff" points="476.52,-151.14 475.87,-140.57 469.78,-149.24 476.52,-151.14"/>
</a>
</g>
</g>
<!-- Node4 -->
<g id="Node000004" class="node">
<title>Node4</title>
<g id="a_Node000004"><a xlink:title=" ">
<polygon fill="#e0e0e0" stroke="#999999" points="902.62,-22.25 846.88,-22.25 846.88,0 902.62,0 902.62,-22.25"/>
<text text-anchor="middle" x="874.75" y="-8.75" font-family="Helvetica,sans-Serif" font-size="10.00">memory</text>
</a>
</g>
</g>
<!-- Node2&#45;&gt;Node4 -->
<g id="edge3_Node000002_Node000004" class="edge">
<title>Node2&#45;&gt;Node4</title>
<g id="a_edge3_Node000002_Node000004"><a xlink:title=" ">
<path fill="none" stroke="#63b8ff" d="M418.08,-232.55C458.97,-210.3 557.39,-157.33 641.75,-116.5 711.04,-82.96 793.56,-46.89 839.46,-27.16"/>
<polygon fill="#63b8ff" stroke="#63b8ff" points="840.84,-30.38 848.65,-23.22 838.08,-23.94 840.84,-30.38"/>
</a>
</g>
</g>
<!-- Node5 -->
<g id="Node000005" class="node">
<title>Node5</title>
<g id="a_Node000005"><a xlink:title=" ">
<polygon fill="#e0e0e0" stroke="#999999" points="174.75,-197 128.75,-197 128.75,-174.75 174.75,-174.75 174.75,-197"/>
<text text-anchor="middle" x="151.75" y="-183.5" font-family="Helvetica,sans-Serif" font-size="10.00">vector</text>
</a>
</g>
</g>
<!-- Node2&#45;&gt;Node5 -->
<g id="edge4_Node000002_Node000005" class="edge">
<title>Node2&#45;&gt;Node5</title>
<g id="a_edge4_Node000002_Node000005"><a xlink:title=" ">
<path fill="none" stroke="#63b8ff" d="M352.29,-232.54C304.03,-221.55 229.64,-204.61 186.32,-194.75"/>
<polygon fill="#63b8ff" stroke="#63b8ff" points="187.24,-191.37 176.71,-192.56 185.68,-198.19 187.24,-191.37"/>
</a>
</g>
</g>
<!-- Node6 -->
<g id="Node000006" class="node">
<title>Node6</title>
<g id="a_Node000006"><a xlink:href="_attribute_8h.html" target="_top" xlink:title=" ">
<polygon fill="white" stroke="#666666" points="442.75,-197 306.75,-197 306.75,-174.75 442.75,-174.75 442.75,-197"/>
<text text-anchor="middle" x="374.75" y="-183.5" font-family="Helvetica,sans-Serif" font-size="10.00">dpsim&#45;models/Attribute.h</text>
</a>
</g>
</g>
<!-- Node2&#45;&gt;Node6 -->
<g id="edge5_Node000002_Node000006" class="edge">
<title>Node2&#45;&gt;Node6</title>
<g id="a_edge5_Node000002_Node000006"><a xlink:title=" ">
<path fill="none" stroke="#63b8ff" d="M394.24,-232.54C391.29,-225.63 387.33,-216.36 383.76,-207.98"/>
<polygon fill="#63b8ff" stroke="#63b8ff" points="386.98,-206.62 379.84,-198.8 380.54,-209.37 386.98,-206.62"/>
</a>
</g>
</g>
<!-- Node2&#45;&gt;Node8 -->
<g id="edge25_Node000002_Node000008" class="edge">
<title>Node2&#45;&gt;Node8</title>
<g id="a_edge25_Node000002_Node000008"><a xlink:title=" ">
<path fill="none" stroke="#63b8ff" d="M353.29,-232.53C333.39,-225.62 311.49,-214.52 297.75,-197 287.48,-183.91 284.5,-165.13 283.93,-150.56"/>
<polygon fill="#63b8ff" stroke="#63b8ff" points="287.43,-150.6 283.94,-140.6 280.43,-150.6 287.43,-150.6"/>
</a>
</g>
</g>
<!-- Node6&#45;&gt;Node3 -->
<g id="edge6_Node000006_Node000003" class="edge">
<title>Node6&#45;&gt;Node3</title>
<g id="a_edge6_Node000006_Node000003"><a xlink:title=" ">
<path fill="none" stroke="#63b8ff" d="M394.31,-174.29C409.85,-165.89 431.84,-154 449.47,-144.46"/>
<polygon fill="#63b8ff" stroke="#63b8ff" points="450.81,-147.71 457.94,-139.88 447.48,-141.56 450.81,-147.71"/>
</a>
</g>
</g>
<!-- Node7 -->
<g id="Node000007" class="node">
<title>Node7</title>
<g id="a_Node000007"><a xlink:title=" ">
<polygon fill="#e0e0e0" stroke="#999999" points="432.88,-138.75 402.62,-138.75 402.62,-116.5 432.88,-116.5 432.88,-138.75"/>
<text text-anchor="middle" x="417.75" y="-125.25" font-family="Helvetica,sans-Serif" font-size="10.00">set</text>
</a>
</g>
</g>
<!-- Node6&#45;&gt;Node7 -->
<g id="edge7_Node000006_Node000007" class="edge">
<title>Node6&#45;&gt;Node7</title>
<g id="a_edge7_Node000006_Node000007"><a xlink:title=" ">
<path fill="none" stroke="#63b8ff" d="M382.84,-174.29C388.48,-166.91 396.18,-156.84 402.92,-148.03"/>
<polygon fill="#63b8ff" stroke="#63b8ff" points="405.49,-150.43 408.78,-140.36 399.93,-146.18 405.49,-150.43"/>
</a>
</g>
</g>
<!-- Node6&#45;&gt;Node8 -->
<g id="edge8_Node000006_Node000008" class="edge">
<title>Node6&#45;&gt;Node8</title>
<g id="a_edge8_Node000006_Node000008"><a xlink:title=" ">
<path fill="none" stroke="#63b8ff" d="M357.82,-174.29C344.62,-166.05 326.06,-154.44 310.94,-145"/>
<polygon fill="#63b8ff" stroke="#63b8ff" points="313.22,-142.29 302.89,-139.96 309.51,-148.23 313.22,-142.29"/>
</a>
</g>
</g>
<!-- Node6&#45;&gt;Node9 -->
<g id="edge9_Node000006_Node000009" class="edge">
<title>Node6&#45;&gt;Node9</title>
<g id="a_edge9_Node000006_Node000009"><a xlink:title=" ">
<path fill="none" stroke="#63b8ff" d="M374.39,-174.43C373.38,-159.91 369.61,-133.5 355.75,-116.5 344.37,-102.55 327.67,-92.37 311.73,-85.19"/>
<polygon fill="#63b8ff" stroke="#63b8ff" points="313.41,-82.09 302.83,-81.47 310.71,-88.55 313.41,-82.09"/>
</a>
</g>
</g>
<!-- Node6&#45;&gt;Node18 -->
<g id="edge19_Node000006_Node000018" class="edge">
<title>Node6&#45;&gt;Node18</title>
<g id="a_edge19_Node000006_Node000018"><a xlink:title=" ">
<path fill="none" stroke="#63b8ff" d="M439.64,-174.29C497.62,-164.84 582.59,-150.99 643.73,-141.02"/>
<polygon fill="#63b8ff" stroke="#63b8ff" points="644.06,-144.51 653.36,-139.45 642.93,-137.6 644.06,-144.51"/>
</a>
</g>
</g>
<!-- Node6&#45;&gt;Node20 -->
<g id="edge22_Node000006_Node000020" class="edge">
<title>Node6&#45;&gt;Node20</title>
<g id="a_edge22_Node000006_Node000020"><a xlink:title=" ">
<path fill="none" stroke="#63b8ff" d="M442.98,-180.2C593.01,-169.92 951.07,-145.39 1113.32,-134.27"/>
<polygon fill="#63b8ff" stroke="#63b8ff" points="1113.42,-137.77 1123.15,-133.6 1112.94,-130.79 1113.42,-137.77"/>
</a>
</g>
</g>
<!-- Node9&#45;&gt;Node4 -->
<g id="edge14_Node000009_Node000004" class="edge">
<title>Node9&#45;&gt;Node4</title>
<g id="a_edge14_Node000009_Node000004"><a xlink:title=" ">
<path fill="none" stroke="#63b8ff" d="M337.99,-59.71C342.65,-59.2 347.26,-58.71 351.75,-58.25 532.06,-39.69 747.83,-22.13 835.16,-15.22"/>
<polygon fill="#63b8ff" stroke="#63b8ff" points="835.17,-18.73 844.87,-14.45 834.62,-11.75 835.17,-18.73"/>
</a>
</g>
</g>
<!-- Node10 -->
<g id="Node000010" class="node">
<title>Node10</title>
<g id="a_Node000010"><a xlink:title=" ">
<polygon fill="#e0e0e0" stroke="#999999" points="47.5,-22.25 0,-22.25 0,0 47.5,0 47.5,-22.25"/>
<text text-anchor="middle" x="23.75" y="-8.75" font-family="Helvetica,sans-Serif" font-size="10.00">cerrno</text>
</a>
</g>
</g>
<!-- Node9&#45;&gt;Node10 -->
<g id="edge10_Node000009_Node000010" class="edge">
<title>Node9&#45;&gt;Node10</title>
<g id="a_edge10_Node000009_Node000010"><a xlink:title=" ">
<path fill="none" stroke="#63b8ff" d="M212.21,-57.8C172.3,-49.63 116.25,-37.58 58.61,-22.59"/>
<polygon fill="#63b8ff" stroke="#63b8ff" points="59.86,-19.3 49.3,-20.14 58.08,-26.07 59.86,-19.3"/>
</a>
</g>
</g>
<!-- Node11 -->
<g id="Node000011" class="node">
<title>Node11</title>
<g id="a_Node000011"><a xlink:title=" ">
<polygon fill="#e0e0e0" stroke="#999999" points="110,-22.25 65.5,-22.25 65.5,0 110,0 110,-22.25"/>
<text text-anchor="middle" x="87.75" y="-8.75" font-family="Helvetica,sans-Serif" font-size="10.00">cmath</text>
</a>
</g>
</g>
<!-- Node9&#45;&gt;Node11 -->
<g id="edge11_Node000009_Node000011" class="edge">
<title>Node9&#45;&gt;Node11</title>
<g id="a_edge11_Node000009_Node000011"><a xlink:title=" ">
<path fill="none" stroke="#63b8ff" d="M231.56,-57.77C204.07,-49.22 164.19,-36.75 121.37,-23.07"/>
<polygon fill="#63b8ff" stroke="#63b8ff" points="122.46,-19.74 111.87,-20.03 120.33,-26.41 122.46,-19.74"/>
</a>
</g>
</g>
<!-- Node12 -->
<g id="Node000012" class="node">
<title>Node12</title>
<g id="a_Node000012"><a xlink:title=" ">
<polygon fill="#e0e0e0" stroke="#999999" points="181.88,-22.25 127.62,-22.25 127.62,0 181.88,0 181.88,-22.25"/>
<text text-anchor="middle" x="154.75" y="-8.75" font-family="Helvetica,sans-Serif" font-size="10.00">complex</text>
</a>
</g>
</g>
<!-- Node9&#45;&gt;Node12 -->
<g id="edge12_Node000009_Node000012" class="edge">
<title>Node9&#45;&gt;Node12</title>
<g id="a_edge12_Node000009_Node000012"><a xlink:title=" ">
<path fill="none" stroke="#63b8ff" d="M244.87,-57.79C228.21,-49.35 204.6,-37.39 185.73,-27.83"/>
<polygon fill="#63b8ff" stroke="#63b8ff" points="187.39,-24.74 176.88,-23.34 184.22,-30.98 187.39,-24.74"/>
</a>
</g>
</g>
<!-- Node13 -->
<g id="Node000013" class="node">
<title>Node13</title>
<g id="a_Node000013"><a xlink:title=" ">
<polygon fill="#e0e0e0" stroke="#999999" points="261.25,-22.25 200.25,-22.25 200.25,0 261.25,0 261.25,-22.25"/>
<text text-anchor="middle" x="230.75" y="-8.75" font-family="Helvetica,sans-Serif" font-size="10.00">exception</text>
</a>
</g>
</g>
<!-- Node9&#45;&gt;Node13 -->
<g id="edge13_Node000009_Node000013" class="edge">
<title>Node9&#45;&gt;Node13</title>
<g id="a_edge13_Node000009_Node000013"><a xlink:title=" ">
<path fill="none" stroke="#63b8ff" d="M259.17,-57.79C254.72,-50.65 248.7,-40.98 243.35,-32.38"/>
<polygon fill="#63b8ff" stroke="#63b8ff" points="246.36,-30.58 238.1,-23.94 240.41,-34.28 246.36,-30.58"/>
</a>
</g>
</g>
<!-- Node14 -->
<g id="Node000014" class="node">
<title>Node14</title>
<g id="a_Node000014"><a xlink:title=" ">
<polygon fill="#e0e0e0" stroke="#999999" points="322.25,-22.25 279.25,-22.25 279.25,0 322.25,0 322.25,-22.25"/>
<text text-anchor="middle" x="300.75" y="-8.75" font-family="Helvetica,sans-Serif" font-size="10.00">string</text>
</a>
</g>
</g>
<!-- Node9&#45;&gt;Node14 -->
<g id="edge15_Node000009_Node000014" class="edge">
<title>Node9&#45;&gt;Node14</title>
<g id="a_edge15_Node000009_Node000014"><a xlink:title=" ">
<path fill="none" stroke="#63b8ff" d="M272.33,-57.79C276.78,-50.65 282.8,-40.98 288.15,-32.38"/>
<polygon fill="#63b8ff" stroke="#63b8ff" points="291.09,-34.28 293.4,-23.94 285.14,-30.58 291.09,-34.28"/>
</a>
</g>
</g>
<!-- Node15 -->
<g id="Node000015" class="node">
<title>Node15</title>
<g id="a_Node000015"><a xlink:title=" ">
<polygon fill="#e0e0e0" stroke="#999999" points="418.88,-22.25 340.62,-22.25 340.62,0 418.88,0 418.88,-22.25"/>
<text text-anchor="middle" x="379.75" y="-8.75" font-family="Helvetica,sans-Serif" font-size="10.00">system_error</text>
</a>
</g>
</g>
<!-- Node9&#45;&gt;Node15 -->
<g id="edge16_Node000009_Node000015" class="edge">
<title>Node9&#45;&gt;Node15</title>
<g id="a_edge16_Node000009_Node000015"><a xlink:title=" ">
<path fill="none" stroke="#63b8ff" d="M287.19,-57.79C304.39,-49.31 328.78,-37.28 348.2,-27.69"/>
<polygon fill="#63b8ff" stroke="#63b8ff" points="349.63,-30.89 357.05,-23.33 346.53,-24.61 349.63,-30.89"/>
</a>
</g>
</g>
<!-- Node16 -->
<g id="Node000016" class="node">
<title>Node16</title>
<g id="a_Node000016"><a xlink:title=" ">
<polygon fill="#e0e0e0" stroke="#999999" points="512.38,-22.25 437.12,-22.25 437.12,0 512.38,0 512.38,-22.25"/>
<text text-anchor="middle" x="474.75" y="-8.75" font-family="Helvetica,sans-Serif" font-size="10.00">Eigen/Dense</text>
</a>
</g>
</g>
<!-- Node9&#45;&gt;Node16 -->
<g id="edge17_Node000009_Node000016" class="edge">
<title>Node9&#45;&gt;Node16</title>
<g id="a_edge17_Node000009_Node000016"><a xlink:title=" ">
<path fill="none" stroke="#63b8ff" d="M305.06,-57.79C339.25,-48.59 388.93,-35.22 425.7,-25.33"/>
<polygon fill="#63b8ff" stroke="#63b8ff" points="426.46,-28.75 435.21,-22.77 424.64,-21.99 426.46,-28.75"/>
</a>
</g>
</g>
<!-- Node17 -->
<g id="Node000017" class="node">
<title>Node17</title>
<g id="a_Node000017"><a xlink:title=" ">
<polygon fill="#e0e0e0" stroke="#999999" points="607.12,-22.25 530.38,-22.25 530.38,0 607.12,0 607.12,-22.25"/>
<text text-anchor="middle" x="568.75" y="-8.75" font-family="Helvetica,sans-Serif" font-size="10.00">Eigen/Sparse</text>
</a>
</g>
</g>
<!-- Node9&#45;&gt;Node17 -->
<g id="edge18_Node000009_Node000017" class="edge">
<title>Node9&#45;&gt;Node17</title>
<g id="a_edge18_Node000009_Node000017"><a xlink:title=" ">
<path fill="none" stroke="#63b8ff" d="M327.94,-57.78C377.31,-49.23 448.39,-36.61 519.15,-22.72"/>
<polygon fill="#63b8ff" stroke="#63b8ff" points="519.42,-26.23 528.56,-20.87 518.07,-19.37 519.42,-26.23"/>
</a>
</g>
</g>
<!-- Node18&#45;&gt;Node9 -->
<g id="edge21_Node000018_Node000009" class="edge">
<title>Node18&#45;&gt;Node9</title>
<g id="a_edge21_Node000018_Node000009"><a xlink:title=" ">
<path fill="none" stroke="#63b8ff" d="M650.8,-118.08C569.96,-108.07 436.05,-91.47 349.36,-80.73"/>
<polygon fill="#63b8ff" stroke="#63b8ff" points="349.84,-77.27 339.49,-79.51 348.98,-84.21 349.84,-77.27"/>
</a>
</g>
</g>
<!-- Node19 -->
<g id="Node000019" class="node">
<title>Node19</title>
<g id="a_Node000019"><a xlink:title=" ">
<polygon fill="#e0e0e0" stroke="#999999" points="1167.5,-80.5 1126,-80.5 1126,-58.25 1167.5,-58.25 1167.5,-80.5"/>
<text text-anchor="middle" x="1146.75" y="-67" font-family="Helvetica,sans-Serif" font-size="10.00">utility</text>
</a>
</g>
</g>
<!-- Node18&#45;&gt;Node19 -->
<g id="edge20_Node000018_Node000019" class="edge">
<title>Node18&#45;&gt;Node19</title>
<g id="a_edge20_Node000018_Node000019"><a xlink:title=" ">
<path fill="none" stroke="#63b8ff" d="M788.83,-117.52C882.35,-105.21 1045.47,-83.72 1114.46,-74.63"/>
<polygon fill="#63b8ff" stroke="#63b8ff" points="1114.88,-78.1 1124.34,-73.33 1113.96,-71.16 1114.88,-78.1"/>
</a>
</g>
</g>
<!-- Node20&#45;&gt;Node4 -->
<g id="edge23_Node000020_Node000004" class="edge">
<title>Node20&#45;&gt;Node4</title>
<g id="a_edge23_Node000020_Node000004"><a xlink:title=" ">
<path fill="none" stroke="#63b8ff" d="M1196.11,-116.02C1195.99,-100.79 1193.34,-72.97 1176.75,-58.25 1138.6,-24.41 987.37,-15.38 914.46,-12.99"/>
<polygon fill="#63b8ff" stroke="#63b8ff" points="914.66,-9.49 904.56,-12.69 914.45,-16.49 914.66,-9.49"/>
</a>
</g>
</g>
<!-- Node20&#45;&gt;Node19 -->
<g id="edge24_Node000020_Node000019" class="edge">
<title>Node20&#45;&gt;Node19</title>
<g id="a_edge24_Node000020_Node000019"><a xlink:title=" ">
<path fill="none" stroke="#63b8ff" d="M1186.53,-116.04C1180.03,-108.58 1171.14,-98.37 1163.41,-89.5"/>
<polygon fill="#63b8ff" stroke="#63b8ff" points="1166.13,-87.29 1156.92,-82.05 1160.85,-91.89 1166.13,-87.29"/>
</a>
</g>
</g>
<!-- Node21&#45;&gt;Node4 -->
<g id="edge29_Node000021_Node000004" class="edge">
<title>Node21&#45;&gt;Node4</title>
<g id="a_edge29_Node000021_Node000004"><a xlink:title=" ">
<path fill="none" stroke="#63b8ff" d="M838.34,-238.15C924.22,-230.69 1069.83,-215.47 1085.75,-197 1148.27,-124.49 990.35,-54.33 913.68,-25.66"/>
<polygon fill="#63b8ff" stroke="#63b8ff" points="915.01,-22.42 904.41,-22.26 912.59,-28.99 915.01,-22.42"/>
</a>
</g>
</g>
<!-- Node21&#45;&gt;Node6 -->
<g id="edge33_Node000021_Node000006" class="edge">
<title>Node21&#45;&gt;Node6</title>
<g id="a_edge33_Node000021_Node000006"><a xlink:title=" ">
<path fill="none" stroke="#63b8ff" d="M713.09,-234.34C643.32,-224.55 530.39,-208.71 454.4,-198.05"/>
<polygon fill="#63b8ff" stroke="#63b8ff" points="454.89,-194.58 444.5,-196.66 453.92,-201.51 454.89,-194.58"/>
</a>
</g>
</g>
<!-- Node21&#45;&gt;Node9 -->
<g id="edge34_Node000021_Node000009" class="edge">
<title>Node21&#45;&gt;Node9</title>
<g id="a_edge34_Node000021_Node000009"><a xlink:title=" ">
<path fill="none" stroke="#63b8ff" d="M760.23,-232.62C746.59,-223.36 726.25,-209.43 708.75,-197 659.35,-161.93 654.9,-139.24 598.75,-116.5 518.04,-83.82 418.3,-73.57 349.13,-70.7"/>
<polygon fill="#63b8ff" stroke="#63b8ff" points="349.5,-67.21 339.38,-70.34 349.24,-74.2 349.5,-67.21"/>
</a>
</g>
</g>
<!-- Node21&#45;&gt;Node18 -->
<g id="edge35_Node000021_Node000018" class="edge">
<title>Node21&#45;&gt;Node18</title>
<g id="a_edge35_Node000021_Node000018"><a xlink:title=" ">
<path fill="none" stroke="#63b8ff" d="M754.48,-232.61C741.25,-224.79 725.35,-212.76 717.75,-197 710.73,-182.44 711.74,-164.03 714.22,-149.98"/>
<polygon fill="#63b8ff" stroke="#63b8ff" points="717.59,-150.96 716.3,-140.45 710.75,-149.47 717.59,-150.96"/>
</a>
</g>
</g>
<!-- Node22 -->
<g id="Node000022" class="node">
<title>Node22</title>
<g id="a_Node000022"><a xlink:title=" ">
<polygon fill="#e0e0e0" stroke="#999999" points="816.88,-197 726.62,-197 726.62,-174.75 816.88,-174.75 816.88,-197"/>
<text text-anchor="middle" x="771.75" y="-183.5" font-family="Helvetica,sans-Serif" font-size="10.00">spdlog/spdlog.h</text>
</a>
</g>
</g>
<!-- Node21&#45;&gt;Node22 -->
<g id="edge30_Node000021_Node000022" class="edge">
<title>Node21&#45;&gt;Node22</title>
<g id="a_edge30_Node000021_Node000022"><a xlink:title=" ">
<path fill="none" stroke="#63b8ff" d="M775,-232.54C774.52,-225.87 773.89,-216.99 773.31,-208.84"/>
<polygon fill="#63b8ff" stroke="#63b8ff" points="776.81,-208.64 772.61,-198.92 769.82,-209.14 776.81,-208.64"/>
</a>
</g>
</g>
<!-- Node23 -->
<g id="Node000023" class="node">
<title>Node23</title>
<g id="a_Node000023"><a xlink:title=" ">
<polygon fill="#e0e0e0" stroke="#999999" points="962.25,-197 835.25,-197 835.25,-174.75 962.25,-174.75 962.25,-197"/>
<text text-anchor="middle" x="898.75" y="-183.5" font-family="Helvetica,sans-Serif" font-size="10.00">spdlog/sinks/file_sinks.h</text>
</a>
</g>
</g>
<!-- Node21&#45;&gt;Node23 -->
<g id="edge31_Node000021_Node000023" class="edge">
<title>Node21&#45;&gt;Node23</title>
<g id="a_edge31_Node000021_Node000023"><a xlink:title=" ">
<path fill="none" stroke="#63b8ff" d="M798.89,-232.54C817.61,-223.98 844.24,-211.8 865.29,-202.18"/>
<polygon fill="#63b8ff" stroke="#63b8ff" points="866.7,-205.38 874.34,-198.04 863.79,-199.01 866.7,-205.38"/>
</a>
</g>
</g>
<!-- Node24 -->
<g id="Node000024" class="node">
<title>Node24</title>
<g id="a_Node000024"><a xlink:title=" ">
<polygon fill="#e0e0e0" stroke="#999999" points="1076.88,-197 980.62,-197 980.62,-174.75 1076.88,-174.75 1076.88,-197"/>
<text text-anchor="middle" x="1028.75" y="-183.5" font-family="Helvetica,sans-Serif" font-size="10.00">spdlog/fmt/ostr.h</text>
</a>
</g>
</g>
<!-- Node21&#45;&gt;Node24 -->
<g id="edge32_Node000021_Node000024" class="edge">
<title>Node21&#45;&gt;Node24</title>
<g id="a_edge32_Node000021_Node000024"><a xlink:title=" ">
<path fill="none" stroke="#63b8ff" d="M823.34,-232.54C865.04,-223.27 925.78,-209.77 970.4,-199.85"/>
<polygon fill="#63b8ff" stroke="#63b8ff" points="970.9,-203.32 979.9,-197.74 969.38,-196.49 970.9,-203.32"/>
</a>
</g>
</g>
<!-- Node26 -->
<g id="Node000026" class="node">
<title>Node26</title>
<g id="a_Node000026"><a xlink:href="_sim_power_comp_8h.html" target="_top" xlink:title=" ">
<polygon fill="white" stroke="#666666" points="559.12,-647.5 392.38,-647.5 392.38,-625.25 559.12,-625.25 559.12,-647.5"/>
<text text-anchor="middle" x="475.75" y="-634" font-family="Helvetica,sans-Serif" font-size="10.00">dpsim&#45;models/SimPowerComp.h</text>
</a>
</g>
</g>
<!-- Node25&#45;&gt;Node26 -->
<g id="edge39_Node000025_Node000026" class="edge">
<title>Node25&#45;&gt;Node26</title>
<g id="a_edge39_Node000025_Node000026"><a xlink:title=" ">
<path fill="none" stroke="#63b8ff" d="M398.56,-683.1C414.03,-673.93 432.82,-662.8 447.99,-653.82"/>
<polygon fill="#63b8ff" stroke="#63b8ff" points="449.7,-656.87 456.52,-648.77 446.13,-650.85 449.7,-656.87"/>
</a>
</g>
</g>
<!-- Node26&#45;&gt;Node27 -->
<g id="edge40_Node000026_Node000027" class="edge">
<title>Node26&#45;&gt;Node27</title>
<g id="a_edge40_Node000026_Node000027"><a xlink:title=" ">
<path fill="none" stroke="#63b8ff" d="M474.17,-624.89C471,-607.45 462.22,-572.44 440.75,-552.75 424.92,-538.23 375.3,-523.26 334.75,-512.9"/>
<polygon fill="#63b8ff" stroke="#63b8ff" points="335.61,-509.51 325.06,-510.47 333.91,-516.3 335.61,-509.51"/>
</a>
</g>
</g>
<!-- Node26&#45;&gt;Node32 -->
<g id="edge55_Node000026_Node000032" class="edge">
<title>Node26&#45;&gt;Node32</title>
<g id="a_edge55_Node000026_Node000032"><a xlink:title=" ">
<path fill="none" stroke="#63b8ff" d="M455.83,-624.77C436.84,-614.65 408,-599.3 386.33,-587.75"/>
<polygon fill="#63b8ff" stroke="#63b8ff" points="388.14,-584.75 377.67,-583.14 384.85,-590.93 388.14,-584.75"/>
</a>
</g>
</g>
<!-- Node34 -->
<g id="Node000034" class="node">
<title>Node34</title>
<g id="a_Node000034"><a xlink:href="_topological_power_comp_8h.html" target="_top" xlink:title=" ">
<polygon fill="white" stroke="#666666" points="686.38,-589.25 551.12,-589.25 551.12,-552.75 686.38,-552.75 686.38,-589.25"/>
<text text-anchor="start" x="559.12" y="-575.75" font-family="Helvetica,sans-Serif" font-size="10.00">dpsim&#45;models/Topological</text>
<text text-anchor="middle" x="618.75" y="-561.5" font-family="Helvetica,sans-Serif" font-size="10.00">PowerComp.h</text>
</a>
</g>
</g>
<!-- Node26&#45;&gt;Node34 -->
<g id="edge61_Node000026_Node000034" class="edge">
<title>Node26&#45;&gt;Node34</title>
<g id="a_edge61_Node000026_Node000034"><a xlink:title=" ">
<path fill="none" stroke="#63b8ff" d="M499.68,-624.77C518.37,-616.49 544.99,-604.69 568.32,-594.35"/>
<polygon fill="#63b8ff" stroke="#63b8ff" points="569.66,-597.59 577.38,-590.33 566.82,-591.19 569.66,-597.59"/>
</a>
</g>
</g>
<!-- Node27&#45;&gt;Node28 -->
<g id="edge41_Node000027_Node000028" class="edge">
<title>Node27&#45;&gt;Node28</title>
<g id="a_edge41_Node000027_Node000028"><a xlink:title=" ">
<path fill="none" stroke="#63b8ff" d="M272.41,-486.98C256.72,-448.9 202.7,-317.81 181.44,-266.22"/>
<polygon fill="#63b8ff" stroke="#63b8ff" points="184.73,-265 177.68,-257.09 178.26,-267.67 184.73,-265"/>
</a>
</g>
</g>
<!-- Node29 -->
<g id="Node000029" class="node">
<title>Node29</title>
<g id="a_Node000029"><a xlink:href="_topological_node_8h.html" target="_top" xlink:title=" ">
<polygon fill="white" stroke="#666666" points="609.38,-444.25 474.12,-444.25 474.12,-407.75 609.38,-407.75 609.38,-444.25"/>
<text text-anchor="start" x="482.12" y="-430.75" font-family="Helvetica,sans-Serif" font-size="10.00">dpsim&#45;models/Topological</text>
<text text-anchor="middle" x="541.75" y="-416.5" font-family="Helvetica,sans-Serif" font-size="10.00">Node.h</text>
</a>
</g>
</g>
<!-- Node27&#45;&gt;Node29 -->
<g id="edge45_Node000027_Node000029" class="edge">
<title>Node27&#45;&gt;Node29</title>
<g id="a_edge45_Node000027_Node000029"><a xlink:title=" ">
<path fill="none" stroke="#63b8ff" d="M316.42,-486.95C355.34,-476.59 415.72,-460.53 464.18,-447.64"/>
<polygon fill="#63b8ff" stroke="#63b8ff" points="465.05,-451.03 473.81,-445.07 463.25,-444.26 465.05,-451.03"/>
</a>
</g>
</g>
<!-- Node28&#45;&gt;Node4 -->
<g id="edge42_Node000028_Node000004" class="edge">
<title>Node28&#45;&gt;Node4</title>
<g id="a_edge42_Node000028_Node000004"><a xlink:title=" ">
<path fill="none" stroke="#63b8ff" d="M154.62,-232.71C134.78,-219.89 107.33,-197.06 119.75,-174.75 143.66,-131.81 167.68,-133.62 213.75,-116.5 329.94,-73.34 711.62,-29.62 835.53,-16.25"/>
<polygon fill="#63b8ff" stroke="#63b8ff" points="835.62,-19.76 845.19,-15.22 834.87,-12.8 835.62,-19.76"/>
</a>
</g>
</g>
<!-- Node28&#45;&gt;Node5 -->
<g id="edge43_Node000028_Node000005" class="edge">
<title>Node28&#45;&gt;Node5</title>
<g id="a_edge43_Node000028_Node000005"><a xlink:title=" ">
<path fill="none" stroke="#63b8ff" d="M168.8,-232.54C166.22,-225.63 162.76,-216.36 159.63,-207.98"/>
<polygon fill="#63b8ff" stroke="#63b8ff" points="162.99,-206.97 156.21,-198.83 156.43,-209.42 162.99,-206.97"/>
</a>
</g>
</g>
<!-- Node28&#45;&gt;Node6 -->
<g id="edge44_Node000028_Node000006" class="edge">
<title>Node28&#45;&gt;Node6</title>
<g id="a_edge44_Node000028_Node000006"><a xlink:title=" ">
<path fill="none" stroke="#63b8ff" d="M210.74,-232.54C243.33,-223.47 290.49,-210.34 325.88,-200.48"/>
<polygon fill="#63b8ff" stroke="#63b8ff" points="326.77,-203.87 335.47,-197.81 324.9,-197.12 326.77,-203.87"/>
</a>
</g>
</g>
<!-- Node29&#45;&gt;Node18 -->
<g id="edge53_Node000029_Node000018" class="edge">
<title>Node29&#45;&gt;Node18</title>
<g id="a_edge53_Node000029_Node000018"><a xlink:title=" ">
<path fill="none" stroke="#63b8ff" d="M566.95,-407.29C593.57,-387.34 635.05,-352.57 659.75,-313.5 677.39,-285.59 703.12,-192.33 714.27,-149.93"/>
<polygon fill="#63b8ff" stroke="#63b8ff" points="717.6,-151 716.74,-140.44 710.83,-149.23 717.6,-151"/>
</a>
</g>
</g>
<!-- Node29&#45;&gt;Node20 -->
<g id="edge54_Node000029_Node000020" class="edge">
<title>Node29&#45;&gt;Node20</title>
<g id="a_edge54_Node000029_Node000020"><a xlink:title=" ">
<path fill="none" stroke="#63b8ff" d="M599.68,-407.26C704.53,-373.93 931.07,-296.3 1105.75,-197 1131.46,-182.38 1158.1,-161.28 1175.65,-146.39"/>
<polygon fill="#63b8ff" stroke="#63b8ff" points="1177.52,-149.4 1182.81,-140.22 1172.95,-144.1 1177.52,-149.4"/>
</a>
</g>
</g>
<!-- Node30 -->
<g id="Node000030" class="node">
<title>Node30</title>
<g id="a_Node000030"><a xlink:href="_identified_object_8h.html" target="_top" xlink:title=" ">
<polygon fill="white" stroke="#666666" points="492.25,-371.75 323.25,-371.75 323.25,-349.5 492.25,-349.5 492.25,-371.75"/>
<text text-anchor="middle" x="407.75" y="-358.25" font-family="Helvetica,sans-Serif" font-size="10.00">dpsim&#45;models/IdentifiedObject.h</text>
</a>
</g>
</g>
<!-- Node29&#45;&gt;Node30 -->
<g id="edge46_Node000029_Node000030" class="edge">
<title>Node29&#45;&gt;Node30</title>
<g id="a_edge46_Node000029_Node000030"><a xlink:title=" ">
<path fill="none" stroke="#63b8ff" d="M504.42,-407.35C484.3,-397.83 459.7,-386.19 440.35,-377.04"/>
<polygon fill="#63b8ff" stroke="#63b8ff" points="442.11,-374 431.57,-372.89 439.11,-380.33 442.11,-374"/>
</a>
</g>
</g>
<!-- Node30&#45;&gt;Node2 -->
<g id="edge47_Node000030_Node000002" class="edge">
<title>Node30&#45;&gt;Node2</title>
<g id="a_edge47_Node000030_Node000002"><a xlink:title=" ">
<path fill="none" stroke="#63b8ff" d="M406.92,-349.06C405.46,-330.48 402.4,-291.62 400.47,-267.04"/>
<polygon fill="#63b8ff" stroke="#63b8ff" points="403.97,-266.87 399.7,-257.18 396.99,-267.42 403.97,-266.87"/>
</a>
</g>
</g>
<!-- Node30&#45;&gt;Node8 -->
<g id="edge48_Node000030_Node000008" class="edge">
<title>Node30&#45;&gt;Node8</title>
<g id="a_edge48_Node000030_Node000008"><a xlink:title=" ">
<path fill="none" stroke="#63b8ff" d="M394.52,-349.24C366.09,-325.85 300.39,-265.67 283.75,-197 280.02,-181.63 280.45,-163.74 281.71,-150.12"/>
<polygon fill="#63b8ff" stroke="#63b8ff" points="285.15,-150.84 282.83,-140.5 278.2,-150.03 285.15,-150.84"/>
</a>
</g>
</g>
<!-- Node30&#45;&gt;Node9 -->
<g id="edge49_Node000030_Node000009" class="edge">
<title>Node30&#45;&gt;Node9</title>
<g id="a_edge49_Node000030_Node000009"><a xlink:title=" ">
<path fill="none" stroke="#63b8ff" d="M385.38,-349.07C369.51,-340.86 348.34,-328.38 332.75,-313.5 264.78,-248.62 241.42,-228.55 213.75,-138.75 210.84,-129.3 209.69,-125.52 213.75,-116.5 218.96,-104.91 228.69,-95.04 238.33,-87.45"/>
<polygon fill="#63b8ff" stroke="#63b8ff" points="240.13,-90.47 246.18,-81.77 236.03,-84.8 240.13,-90.47"/>
</a>
</g>
</g>
<!-- Node31 -->
<g id="Node000031" class="node">
<title>Node31</title>
<g id="a_Node000031"><a xlink:href="dpsim-models_2include_2dpsim-models_2_utils_8h.html" target="_top" xlink:title=" ">
<polygon fill="white" stroke="#666666" points="650.5,-313.5 537,-313.5 537,-291.25 650.5,-291.25 650.5,-313.5"/>
<text text-anchor="middle" x="593.75" y="-300" font-family="Helvetica,sans-Serif" font-size="10.00">dpsim&#45;models/Utils.h</text>
</a>
</g>
</g>
<!-- Node30&#45;&gt;Node31 -->
<g id="edge50_Node000030_Node000031" class="edge">
<title>Node30&#45;&gt;Node31</title>
<g id="a_edge50_Node000030_Node000031"><a xlink:title=" ">
<path fill="none" stroke="#63b8ff" d="M442.74,-349.04C472.48,-340.05 515.41,-327.07 547.9,-317.24"/>
<polygon fill="#63b8ff" stroke="#63b8ff" points="548.91,-320.59 557.47,-314.35 546.89,-313.89 548.91,-320.59"/>
</a>
</g>
</g>
<!-- Node31&#45;&gt;Node9 -->
<g id="edge51_Node000031_Node000009" class="edge">
<title>Node31&#45;&gt;Node9</title>
<g id="a_edge51_Node000031_Node000009"><a xlink:title=" ">
<path fill="none" stroke="#63b8ff" d="M592.73,-290.97C589.03,-259.19 573.31,-162.77 515.75,-116.5 490.45,-96.17 411.68,-83.97 349.25,-77.27"/>
<polygon fill="#63b8ff" stroke="#63b8ff" points="349.61,-73.79 339.3,-76.24 348.89,-80.76 349.61,-73.79"/>
</a>
</g>
</g>
<!-- Node31&#45;&gt;Node21 -->
<g id="edge52_Node000031_Node000021" class="edge">
<title>Node31&#45;&gt;Node21</title>
<g id="a_edge52_Node000031_Node000021"><a xlink:title=" ">
<path fill="none" stroke="#63b8ff" d="M627.98,-290.79C657.09,-281.8 699.1,-268.82 730.89,-258.99"/>
<polygon fill="#63b8ff" stroke="#63b8ff" points="731.7,-262.4 740.22,-256.1 729.64,-255.71 731.7,-262.4"/>
</a>
</g>
</g>
<!-- Node32&#45;&gt;Node27 -->
<g id="edge56_Node000032_Node000027" class="edge">
<title>Node32&#45;&gt;Node27</title>
<g id="a_edge56_Node000032_Node000027"><a xlink:title=" ">
<path fill="none" stroke="#63b8ff" d="M344.95,-559.6C332.3,-548.46 312.01,-530.57 296.84,-517.21"/>
<polygon fill="#63b8ff" stroke="#63b8ff" points="299.55,-514.93 289.74,-510.95 294.93,-520.18 299.55,-514.93"/>
</a>
</g>
</g>
<!-- Node33 -->
<g id="Node000033" class="node">
<title>Node33</title>
<g id="a_Node000033"><a xlink:href="_topological_terminal_8h.html" target="_top" xlink:title=" ">
<polygon fill="white" stroke="#666666" points="590.38,-516.75 455.12,-516.75 455.12,-480.25 590.38,-480.25 590.38,-516.75"/>
<text text-anchor="start" x="463.12" y="-503.25" font-family="Helvetica,sans-Serif" font-size="10.00">dpsim&#45;models/Topological</text>
<text text-anchor="middle" x="522.75" y="-489" font-family="Helvetica,sans-Serif" font-size="10.00">Terminal.h</text>
</a>
</g>
</g>
<!-- Node32&#45;&gt;Node33 -->
<g id="edge57_Node000032_Node000033" class="edge">
<title>Node32&#45;&gt;Node33</title>
<g id="a_edge57_Node000032_Node000033"><a xlink:title=" ">
<path fill="none" stroke="#63b8ff" d="M381.6,-559.45C405.15,-549.45 441.23,-534.12 471.03,-521.47"/>
<polygon fill="#63b8ff" stroke="#63b8ff" points="472.04,-524.84 479.88,-517.71 469.3,-518.4 472.04,-524.84"/>
</a>
</g>
</g>
<!-- Node33&#45;&gt;Node20 -->
<g id="edge59_Node000033_Node000020" class="edge">
<title>Node33&#45;&gt;Node20</title>
<g id="a_edge59_Node000033_Node000020"><a xlink:title=" ">
<path fill="none" stroke="#63b8ff" d="M561.57,-479.8C646.93,-440.7 857.08,-343.43 1029.75,-255.25 1077.97,-230.63 1094.6,-230.99 1136.75,-197 1154.4,-182.76 1170.94,-162.79 1181.99,-148.11"/>
<polygon fill="#63b8ff" stroke="#63b8ff" points="1184.73,-150.28 1187.81,-140.14 1179.08,-146.15 1184.73,-150.28"/>
</a>
</g>
</g>
<!-- Node33&#45;&gt;Node29 -->
<g id="edge60_Node000033_Node000029" class="edge">
<title>Node33&#45;&gt;Node29</title>
<g id="a_edge60_Node000033_Node000029"><a xlink:title=" ">
<path fill="none" stroke="#63b8ff" d="M527.45,-480.07C529.42,-472.76 531.77,-464.05 533.98,-455.83"/>
<polygon fill="#63b8ff" stroke="#63b8ff" points="537.36,-456.74 536.58,-446.18 530.6,-454.92 537.36,-456.74"/>
</a>
</g>
</g>
<!-- Node33&#45;&gt;Node30 -->
<g id="edge58_Node000033_Node000030" class="edge">
<title>Node33&#45;&gt;Node30</title>
<g id="a_edge58_Node000033_Node000030"><a xlink:title=" ">
<path fill="none" stroke="#63b8ff" d="M501.26,-479.83C489.83,-469.93 475.88,-457.04 464.75,-444.25 447.42,-424.33 430.63,-399.04 419.82,-381.71"/>
<polygon fill="#63b8ff" stroke="#63b8ff" points="422.91,-380.06 414.7,-373.37 416.94,-383.72 422.91,-380.06"/>
</a>
</g>
</g>
<!-- Node34&#45;&gt;Node3 -->
<g id="edge62_Node000034_Node000003" class="edge">
<title>Node34&#45;&gt;Node3</title>
<g id="a_edge62_Node000034_Node000003"><a xlink:title=" ">
<path fill="none" stroke="#63b8ff" d="M622.99,-552.56C629.54,-521.88 639.37,-456.83 618.75,-407.75 596.2,-354.07 556.35,-364.22 527.75,-313.5 497.26,-259.43 485.17,-185.73 480.87,-149.91"/>
<polygon fill="#63b8ff" stroke="#63b8ff" points="484.39,-149.98 479.82,-140.42 477.44,-150.75 484.39,-149.98"/>
</a>
</g>
</g>
<!-- Node34&#45;&gt;Node4 -->
<g id="edge63_Node000034_Node000004" class="edge">
<title>Node34&#45;&gt;Node4</title>
<g id="a_edge63_Node000034_Node000004"><a xlink:title=" ">
<path fill="none" stroke="#63b8ff" d="M686.66,-563.59C858.09,-543.32 1294.75,-464.43 1294.75,-186.88 1294.75,-186.88 1294.75,-186.88 1294.75,-126.62 1294.75,-48.21 1018.81,-21.69 914.26,-14.45"/>
<polygon fill="#63b8ff" stroke="#63b8ff" points="914.68,-10.97 904.47,-13.8 914.22,-17.96 914.68,-10.97"/>
</a>
</g>
</g>
<!-- Node34&#45;&gt;Node5 -->
<g id="edge65_Node000034_Node000005" class="edge">
<title>Node34&#45;&gt;Node5</title>
<g id="a_edge65_Node000034_Node000005"><a xlink:title=" ">
<path fill="none" stroke="#63b8ff" d="M550.95,-558.13C511.23,-549.68 460.77,-536.32 418.75,-516.75 383.08,-500.14 152.65,-344.76 128.75,-313.5 106.29,-284.13 94,-267.32 107.75,-233 112.04,-222.29 120.14,-212.65 128.23,-204.99"/>
<polygon fill="#63b8ff" stroke="#63b8ff" points="130.44,-207.7 135.68,-198.48 125.84,-202.42 130.44,-207.7"/>
</a>
</g>
</g>
<!-- Node34&#45;&gt;Node21 -->
<g id="edge67_Node000034_Node000021" class="edge">
<title>Node34&#45;&gt;Node21</title>
<g id="a_edge67_Node000034_Node000021"><a xlink:title=" ">
<path fill="none" stroke="#63b8ff" d="M686.85,-560.9C715.98,-553.6 748,-540.45 768.75,-516.75 795.61,-486.07 787.75,-467.77 787.75,-427 787.75,-427 787.75,-427 787.75,-359.62 787.75,-327.08 782.89,-289.61 779.36,-266.65"/>
<polygon fill="#63b8ff" stroke="#63b8ff" points="782.85,-266.32 777.81,-257 775.94,-267.43 782.85,-266.32"/>
</a>
</g>
</g>
<!-- Node34&#45;&gt;Node29 -->
<g id="edge68_Node000034_Node000029" class="edge">
<title>Node34&#45;&gt;Node29</title>
<g id="a_edge68_Node000034_Node000029"><a xlink:title=" ">
<path fill="none" stroke="#63b8ff" d="M618.17,-552.35C616.85,-533.39 612.69,-502.94 599.75,-480.25 593.69,-469.63 584.79,-459.93 575.77,-451.81"/>
<polygon fill="#63b8ff" stroke="#63b8ff" points="578.22,-449.3 568.33,-445.5 573.69,-454.64 578.22,-449.3"/>
</a>
</g>
</g>
<!-- Node34&#45;&gt;Node30 -->
<g id="edge66_Node000034_Node000030" class="edge">
<title>Node34&#45;&gt;Node30</title>
<g id="a_edge66_Node000034_Node000030"><a xlink:title=" ">
<path fill="none" stroke="#63b8ff" d="M550.81,-564.96C514.92,-558.8 472.81,-545.44 445.75,-516.75 410.98,-479.89 406.49,-416.61 406.76,-383.41"/>
<polygon fill="#63b8ff" stroke="#63b8ff" points="410.26,-383.51 407.03,-373.42 403.26,-383.33 410.26,-383.51"/>
</a>
</g>
</g>
<!-- Node34&#45;&gt;Node33 -->
<g id="edge69_Node000034_Node000033" class="edge">
<title>Node34&#45;&gt;Node33</title>
<g id="a_edge69_Node000034_Node000033"><a xlink:title=" ">
<path fill="none" stroke="#63b8ff" d="M595.02,-552.57C583.22,-543.91 568.78,-533.3 555.91,-523.85"/>
<polygon fill="#63b8ff" stroke="#63b8ff" points="558.23,-521.21 548.09,-518.11 554.08,-526.85 558.23,-521.21"/>
</a>
</g>
</g>
<!-- Node35 -->
<g id="Node000035" class="node">
<title>Node35</title>
<g id="a_Node000035"><a xlink:title=" ">
<polygon fill="#e0e0e0" stroke="#999999" points="759.25,-509.62 704.25,-509.62 704.25,-487.38 759.25,-487.38 759.25,-509.62"/>
<text text-anchor="middle" x="731.75" y="-496.12" font-family="Helvetica,sans-Serif" font-size="10.00">typeinfo</text>
</a>
</g>
</g>
<!-- Node34&#45;&gt;Node35 -->
<g id="edge64_Node000034_Node000035" class="edge">
<title>Node34&#45;&gt;Node35</title>
<g id="a_edge64_Node000034_Node000035"><a xlink:title=" ">
<path fill="none" stroke="#63b8ff" d="M646.97,-552.39C664.79,-541.28 687.66,-527.01 705.15,-516.1"/>
<polygon fill="#63b8ff" stroke="#63b8ff" points="706.84,-519.17 713.47,-510.91 703.13,-513.23 706.84,-519.17"/>
</a>
</g>
</g>
<!-- Node36&#45;&gt;Node26 -->
<g id="edge71_Node000036_Node000026" class="edge">
<title>Node36&#45;&gt;Node26</title>
<g id="a_edge71_Node000036_Node000026"><a xlink:title=" ">
<path fill="none" stroke="#63b8ff" d="M491.62,-683.1C488.99,-675.52 485.89,-666.6 483.14,-658.66"/>
<polygon fill="#63b8ff" stroke="#63b8ff" points="486.52,-657.72 479.93,-649.42 479.91,-660.02 486.52,-657.72"/>
</a>
</g>
</g>
<!-- Node37&#45;&gt;Node26 -->
<g id="edge73_Node000037_Node000026" class="edge">
<title>Node37&#45;&gt;Node26</title>
<g id="a_edge73_Node000037_Node000026"><a xlink:title=" ">
<path fill="none" stroke="#63b8ff" d="M584.69,-683.1C561.7,-673.45 533.52,-661.62 511.58,-652.41"/>
<polygon fill="#63b8ff" stroke="#63b8ff" points="513.02,-649.22 502.45,-648.58 510.31,-655.68 513.02,-649.22"/>
</a>
</g>
</g>
</g>
</svg>
