<?xml version="1.0" encoding="UTF-8" standalone="no"?>
<!DOCTYPE svg PUBLIC "-//W3C//DTD SVG 1.1//EN"
 "http://www.w3.org/Graphics/SVG/1.1/DTD/svg11.dtd">
<!-- Generated by graphviz version 12.2.1 (20241206.2353)
 -->
<!-- Title: /__w/dpsim/dpsim/dpsim/include/dpsim/Scheduler.h Pages: 1 -->
<!--zoomable 336 -->

<svg id="main" version="1.1" xmlns="http://www.w3.org/2000/svg" xmlns:xlink="http://www.w3.org/1999/xlink" xml:space="preserve" onload="init(evt)">

<style type="text/css"><![CDATA[
.node, .edge {opacity: 0.7;}
.node.selected, .edge.selected {opacity: 1;}
.edge:hover path { stroke: red; }
.edge:hover polygon { stroke: red; fill: red; }
]]></style>

<defs>
  <circle id="rim" cx="0" cy="0" r="7"/>
  <circle id="rim2" cx="0" cy="0" r="3.5"/>
  <g id="zoomPlus">
    <use xlink:href="#rim" fill="#404040"><set attributeName="fill" to="#808080" begin="zoomplus.mouseover" end="zoomplus.mouseout"/></use>
    <path d="M-4,0h8M0,-4v8" fill="none" stroke="white" stroke-width="1.5" pointer-events="none"/>
  </g>
  <g id="zoomMin">
    <use xlink:href="#rim" fill="#404040"><set attributeName="fill" to="#808080" begin="zoomminus.mouseover" end="zoomminus.mouseout"/></use>
    <path d="M-4,0h8" fill="none" stroke="white" stroke-width="1.5" pointer-events="none"/>
  </g>
  <g id="arrowUp" transform="translate(30 24)">
    <use xlink:href="#rim"/>
    <path pointer-events="none" fill="none" stroke="white" stroke-width="1.5" d="M0,-3.0v7 M-2.5,-0.5L0,-3.0L2.5,-0.5"/>
  </g>
  <g id="arrowRight" transform="rotate(90) translate(36 -43)">
    <use xlink:href="#rim"/>
    <path pointer-events="none" fill="none" stroke="white" stroke-width="1.5" d="M0,-3.0v7 M-2.5,-0.5L0,-3.0L2.5,-0.5"/>
  </g>
  <g id="arrowDown" transform="rotate(180) translate(-30 -48)">
    <use xlink:href="#rim"/>
    <path pointer-events="none" fill="none" stroke="white" stroke-width="1.5" d="M0,-3.0v7 M-2.5,-0.5L0,-3.0L2.5,-0.5"/>
  </g>
  <g id="arrowLeft" transform="rotate(270) translate(-36 17)">
    <use xlink:href="#rim"/>
    <path pointer-events="none" fill="none" stroke="white" stroke-width="1.5" d="M0,-3.0v7 M-2.5,-0.5L0,-3.0L2.5,-0.5"/>
  </g>
  <g id="resetDef">
    <use xlink:href="#rim2" fill="#404040"><set attributeName="fill" to="#808080" begin="reset.mouseover" end="reset.mouseout"/></use>
  </g>
</defs>
<script type="application/ecmascript">
var viewWidth = 1214;
var viewHeight = 336;
var sectionId = 'dynsection-0';
</script>
<script type="application/ecmascript" xlink:href="svg.min.js"/>
<svg id="graph" class="graph">
<g id="viewport">
<title>/__w/dpsim/dpsim/dpsim/include/dpsim/Scheduler.h</title>
<!-- Node1 -->
<g id="Node000001" class="node">
<title>Node1</title>
<g id="a_Node000001"><a xlink:title=" ">
<polygon fill="#999999" stroke="#666666" points="898.62,-327.75 757.38,-327.75 757.38,-291.25 898.62,-291.25 898.62,-327.75"/>
<text text-anchor="start" x="765.38" y="-314.25" font-family="Helvetica,sans-Serif" font-size="10.00">/__w/dpsim/dpsim/dpsim</text>
<text text-anchor="middle" x="828" y="-300" font-family="Helvetica,sans-Serif" font-size="10.00">/include/dpsim/Scheduler.h</text>
</a>
</g>
</g>
<!-- Node2 -->
<g id="Node000002" class="node">
<title>Node2</title>
<g id="a_Node000002"><a xlink:href="_task_8h.html" target="_top" xlink:title=" ">
<polygon fill="white" stroke="#666666" points="318.38,-255.25 205.62,-255.25 205.62,-233 318.38,-233 318.38,-255.25"/>
<text text-anchor="middle" x="262" y="-241.75" font-family="Helvetica,sans-Serif" font-size="10.00">dpsim&#45;models/Task.h</text>
</a>
</g>
</g>
<!-- Node1&#45;&gt;Node2 -->
<g id="edge1_Node000001_Node000002" class="edge">
<title>Node1&#45;&gt;Node2</title>
<g id="a_edge1_Node000001_Node000002"><a xlink:title=" ">
<path fill="none" stroke="#63b8ff" d="M756.89,-300.54C647.17,-288.25 438.03,-264.84 330.14,-252.75"/>
<polygon fill="#63b8ff" stroke="#63b8ff" points="330.59,-249.28 320.26,-251.65 329.81,-256.24 330.59,-249.28"/>
</a>
</g>
</g>
<!-- Node21 -->
<g id="Node000021" class="node">
<title>Node21</title>
<g id="a_Node000021"><a xlink:href="_logger_8h.html" target="_top" xlink:title=" ">
<polygon fill="white" stroke="#666666" points="683.38,-255.25 558.62,-255.25 558.62,-233 683.38,-233 683.38,-255.25"/>
<text text-anchor="middle" x="621" y="-241.75" font-family="Helvetica,sans-Serif" font-size="10.00">dpsim&#45;models/Logger.h</text>
</a>
</g>
</g>
<!-- Node1&#45;&gt;Node21 -->
<g id="edge24_Node000001_Node000021" class="edge">
<title>Node1&#45;&gt;Node21</title>
<g id="a_edge24_Node000001_Node000021"><a xlink:title=" ">
<path fill="none" stroke="#63b8ff" d="M770.06,-290.76C737.25,-280.72 696.81,-268.34 666.34,-259"/>
<polygon fill="#63b8ff" stroke="#63b8ff" points="667.62,-255.74 657.04,-256.16 665.58,-262.43 667.62,-255.74"/>
</a>
</g>
</g>
<!-- Node25 -->
<g id="Node000025" class="node">
<title>Node25</title>
<g id="a_Node000025"><a xlink:href="dpsim_2include_2dpsim_2_definitions_8h.html" target="_top" xlink:title=" ">
<polygon fill="white" stroke="#666666" points="1047.38,-197 940.62,-197 940.62,-174.75 1047.38,-174.75 1047.38,-197"/>
<text text-anchor="middle" x="994" y="-183.5" font-family="Helvetica,sans-Serif" font-size="10.00">dpsim/Definitions.h</text>
</a>
</g>
</g>
<!-- Node1&#45;&gt;Node25 -->
<g id="edge32_Node000001_Node000025" class="edge">
<title>Node1&#45;&gt;Node25</title>
<g id="a_edge32_Node000001_Node000025"><a xlink:title=" ">
<path fill="none" stroke="#63b8ff" d="M775.33,-290.81C742.68,-277.02 710.38,-256.35 730,-233 731.62,-231.07 851.6,-210.69 929.24,-197.67"/>
<polygon fill="#63b8ff" stroke="#63b8ff" points="929.59,-201.16 938.88,-196.06 928.44,-194.26 929.59,-201.16"/>
</a>
</g>
</g>
<!-- Node26 -->
<g id="Node000026" class="node">
<title>Node26</title>
<g id="a_Node000026"><a xlink:title=" ">
<polygon fill="#e0e0e0" stroke="#999999" points="785.38,-255.25 738.62,-255.25 738.62,-233 785.38,-233 785.38,-255.25"/>
<text text-anchor="middle" x="762" y="-241.75" font-family="Helvetica,sans-Serif" font-size="10.00">atomic</text>
</a>
</g>
</g>
<!-- Node1&#45;&gt;Node26 -->
<g id="edge34_Node000001_Node000026" class="edge">
<title>Node1&#45;&gt;Node26</title>
<g id="a_edge34_Node000001_Node000026"><a xlink:title=" ">
<path fill="none" stroke="#63b8ff" d="M809.62,-290.85C800.8,-282.39 790.25,-272.25 781.32,-263.68"/>
<polygon fill="#63b8ff" stroke="#63b8ff" points="783.79,-261.19 774.15,-256.79 778.94,-266.24 783.79,-261.19"/>
</a>
</g>
</g>
<!-- Node27 -->
<g id="Node000027" class="node">
<title>Node27</title>
<g id="a_Node000027"><a xlink:title=" ">
<polygon fill="#e0e0e0" stroke="#999999" points="852.12,-255.25 803.88,-255.25 803.88,-233 852.12,-233 852.12,-255.25"/>
<text text-anchor="middle" x="828" y="-241.75" font-family="Helvetica,sans-Serif" font-size="10.00">chrono</text>
</a>
</g>
</g>
<!-- Node1&#45;&gt;Node27 -->
<g id="edge35_Node000001_Node000027" class="edge">
<title>Node1&#45;&gt;Node27</title>
<g id="a_edge35_Node000001_Node000027"><a xlink:title=" ">
<path fill="none" stroke="#63b8ff" d="M828,-290.85C828,-283.53 828,-274.97 828,-267.24"/>
<polygon fill="#63b8ff" stroke="#63b8ff" points="831.5,-267.26 828,-257.26 824.5,-267.26 831.5,-267.26"/>
</a>
</g>
</g>
<!-- Node28 -->
<g id="Node000028" class="node">
<title>Node28</title>
<g id="a_Node000028"><a xlink:title=" ">
<polygon fill="#e0e0e0" stroke="#999999" points="970,-255.25 870,-255.25 870,-233 970,-233 970,-255.25"/>
<text text-anchor="middle" x="920" y="-241.75" font-family="Helvetica,sans-Serif" font-size="10.00">condition_variable</text>
</a>
</g>
</g>
<!-- Node1&#45;&gt;Node28 -->
<g id="edge36_Node000001_Node000028" class="edge">
<title>Node1&#45;&gt;Node28</title>
<g id="a_edge36_Node000001_Node000028"><a xlink:title=" ">
<path fill="none" stroke="#63b8ff" d="M853.63,-290.85C866.68,-281.86 882.47,-270.98 895.37,-262.09"/>
<polygon fill="#63b8ff" stroke="#63b8ff" points="897.09,-265.16 903.34,-256.6 893.12,-259.39 897.09,-265.16"/>
</a>
</g>
</g>
<!-- Node29 -->
<g id="Node000029" class="node">
<title>Node29</title>
<g id="a_Node000029"><a xlink:title=" ">
<polygon fill="#e0e0e0" stroke="#999999" points="1034,-255.25 988,-255.25 988,-233 1034,-233 1034,-255.25"/>
<text text-anchor="middle" x="1011" y="-241.75" font-family="Helvetica,sans-Serif" font-size="10.00">deque</text>
</a>
</g>
</g>
<!-- Node1&#45;&gt;Node29 -->
<g id="edge37_Node000001_Node000029" class="edge">
<title>Node1&#45;&gt;Node29</title>
<g id="a_edge37_Node000001_Node000029"><a xlink:title=" ">
<path fill="none" stroke="#63b8ff" d="M878.98,-290.85C910.21,-280.03 949.33,-266.48 976.86,-256.95"/>
<polygon fill="#63b8ff" stroke="#63b8ff" points="977.79,-260.33 986.09,-253.75 975.5,-253.72 977.79,-260.33"/>
</a>
</g>
</g>
<!-- Node30 -->
<g id="Node000030" class="node">
<title>Node30</title>
<g id="a_Node000030"><a xlink:title=" ">
<polygon fill="#e0e0e0" stroke="#999999" points="1097.62,-255.25 1052.38,-255.25 1052.38,-233 1097.62,-233 1097.62,-255.25"/>
<text text-anchor="middle" x="1075" y="-241.75" font-family="Helvetica,sans-Serif" font-size="10.00">mutex</text>
</a>
</g>
</g>
<!-- Node1&#45;&gt;Node30 -->
<g id="edge38_Node000001_Node000030" class="edge">
<title>Node1&#45;&gt;Node30</title>
<g id="a_edge38_Node000001_Node000030"><a xlink:title=" ">
<path fill="none" stroke="#63b8ff" d="M898.99,-292.12C938.32,-282.76 988.31,-270.42 1041.05,-255.68"/>
<polygon fill="#63b8ff" stroke="#63b8ff" points="1041.85,-259.09 1050.52,-253.01 1039.95,-252.35 1041.85,-259.09"/>
</a>
</g>
</g>
<!-- Node31 -->
<g id="Node000031" class="node">
<title>Node31</title>
<g id="a_Node000031"><a xlink:title=" ">
<polygon fill="#e0e0e0" stroke="#999999" points="1206.12,-255.25 1115.88,-255.25 1115.88,-233 1206.12,-233 1206.12,-255.25"/>
<text text-anchor="middle" x="1161" y="-241.75" font-family="Helvetica,sans-Serif" font-size="10.00">unordered_map</text>
</a>
</g>
</g>
<!-- Node1&#45;&gt;Node31 -->
<g id="edge39_Node000001_Node000031" class="edge">
<title>Node1&#45;&gt;Node31</title>
<g id="a_edge39_Node000001_Node000031"><a xlink:title=" ">
<path fill="none" stroke="#63b8ff" d="M899.03,-294.98C960.32,-283.32 1047.69,-266.69 1104.37,-255.9"/>
<polygon fill="#63b8ff" stroke="#63b8ff" points="1104.97,-259.35 1114.14,-254.04 1103.67,-252.47 1104.97,-259.35"/>
</a>
</g>
</g>
<!-- Node3 -->
<g id="Node000003" class="node">
<title>Node3</title>
<g id="a_Node000003"><a xlink:title=" ">
<polygon fill="#e0e0e0" stroke="#999999" points="259.88,-22.25 204.12,-22.25 204.12,0 259.88,0 259.88,-22.25"/>
<text text-anchor="middle" x="232" y="-8.75" font-family="Helvetica,sans-Serif" font-size="10.00">memory</text>
</a>
</g>
</g>
<!-- Node2&#45;&gt;Node3 -->
<g id="edge2_Node000002_Node000003" class="edge">
<title>Node2&#45;&gt;Node3</title>
<g id="a_edge2_Node000002_Node000003"><a xlink:title=" ">
<path fill="none" stroke="#63b8ff" d="M238.39,-232.56C207.11,-217.08 153.28,-184.99 131,-138.75 109.52,-94.18 165.28,-51.06 202.25,-28.45"/>
<polygon fill="#63b8ff" stroke="#63b8ff" points="203.97,-31.5 210.8,-23.4 200.41,-25.47 203.97,-31.5"/>
</a>
</g>
</g>
<!-- Node4 -->
<g id="Node000004" class="node">
<title>Node4</title>
<g id="a_Node000004"><a xlink:title=" ">
<polygon fill="#e0e0e0" stroke="#999999" points="46,-197 0,-197 0,-174.75 46,-174.75 46,-197"/>
<text text-anchor="middle" x="23" y="-183.5" font-family="Helvetica,sans-Serif" font-size="10.00">vector</text>
</a>
</g>
</g>
<!-- Node2&#45;&gt;Node4 -->
<g id="edge3_Node000002_Node000004" class="edge">
<title>Node2&#45;&gt;Node4</title>
<g id="a_edge3_Node000002_Node000004"><a xlink:title=" ">
<path fill="none" stroke="#63b8ff" d="M212.88,-232.52C171.89,-223.53 111.99,-210.04 60,-197 59.18,-196.79 58.34,-196.58 57.5,-196.37"/>
<polygon fill="#63b8ff" stroke="#63b8ff" points="58.47,-193 47.91,-193.84 56.69,-199.77 58.47,-193"/>
</a>
</g>
</g>
<!-- Node5 -->
<g id="Node000005" class="node">
<title>Node5</title>
<g id="a_Node000005"><a xlink:href="_attribute_8h.html" target="_top" xlink:title=" ">
<polygon fill="white" stroke="#666666" points="479,-197 343,-197 343,-174.75 479,-174.75 479,-197"/>
<text text-anchor="middle" x="411" y="-183.5" font-family="Helvetica,sans-Serif" font-size="10.00">dpsim&#45;models/Attribute.h</text>
</a>
</g>
</g>
<!-- Node2&#45;&gt;Node5 -->
<g id="edge4_Node000002_Node000005" class="edge">
<title>Node2&#45;&gt;Node5</title>
<g id="a_edge4_Node000002_Node000005"><a xlink:title=" ">
<path fill="none" stroke="#63b8ff" d="M290.03,-232.54C313.33,-223.75 346.75,-211.13 372.56,-201.39"/>
<polygon fill="#63b8ff" stroke="#63b8ff" points="373.56,-204.75 381.68,-197.94 371.09,-198.2 373.56,-204.75"/>
</a>
</g>
</g>
<!-- Node6 -->
<g id="Node000006" class="node">
<title>Node6</title>
<g id="a_Node000006"><a xlink:title=" ">
<polygon fill="#e0e0e0" stroke="#999999" points="497.25,-138.75 440.75,-138.75 440.75,-116.5 497.25,-116.5 497.25,-138.75"/>
<text text-anchor="middle" x="469" y="-125.25" font-family="Helvetica,sans-Serif" font-size="10.00">iostream</text>
</a>
</g>
</g>
<!-- Node5&#45;&gt;Node6 -->
<g id="edge5_Node000005_Node000006" class="edge">
<title>Node5&#45;&gt;Node6</title>
<g id="a_edge5_Node000005_Node000006"><a xlink:title=" ">
<path fill="none" stroke="#63b8ff" d="M421.91,-174.29C429.85,-166.6 440.8,-155.97 450.14,-146.91"/>
<polygon fill="#63b8ff" stroke="#63b8ff" points="452.31,-149.69 457.05,-140.21 447.44,-144.66 452.31,-149.69"/>
</a>
</g>
</g>
<!-- Node7 -->
<g id="Node000007" class="node">
<title>Node7</title>
<g id="a_Node000007"><a xlink:title=" ">
<polygon fill="#e0e0e0" stroke="#999999" points="545.12,-138.75 514.88,-138.75 514.88,-116.5 545.12,-116.5 545.12,-138.75"/>
<text text-anchor="middle" x="530" y="-125.25" font-family="Helvetica,sans-Serif" font-size="10.00">set</text>
</a>
</g>
</g>
<!-- Node5&#45;&gt;Node7 -->
<g id="edge6_Node000005_Node000007" class="edge">
<title>Node5&#45;&gt;Node7</title>
<g id="a_edge6_Node000005_Node000007"><a xlink:title=" ">
<path fill="none" stroke="#63b8ff" d="M433.38,-174.29C453.56,-164.76 483.23,-150.73 504.36,-140.75"/>
<polygon fill="#63b8ff" stroke="#63b8ff" points="505.62,-144.02 513.17,-136.58 502.63,-137.69 505.62,-144.02"/>
</a>
</g>
</g>
<!-- Node8 -->
<g id="Node000008" class="node">
<title>Node8</title>
<g id="a_Node000008"><a xlink:title=" ">
<polygon fill="#e0e0e0" stroke="#999999" points="263.62,-138.75 140.38,-138.75 140.38,-116.5 263.62,-116.5 263.62,-138.75"/>
<text text-anchor="middle" x="202" y="-125.25" font-family="Helvetica,sans-Serif" font-size="10.00">dpsim&#45;models/Config.h</text>
</a>
</g>
</g>
<!-- Node5&#45;&gt;Node8 -->
<g id="edge7_Node000005_Node000008" class="edge">
<title>Node5&#45;&gt;Node8</title>
<g id="a_edge7_Node000005_Node000008"><a xlink:title=" ">
<path fill="none" stroke="#63b8ff" d="M371.69,-174.29C337.83,-165.18 288.76,-151.97 252.09,-142.11"/>
<polygon fill="#63b8ff" stroke="#63b8ff" points="253.16,-138.77 242.6,-139.55 251.34,-145.53 253.16,-138.77"/>
</a>
</g>
</g>
<!-- Node9 -->
<g id="Node000009" class="node">
<title>Node9</title>
<g id="a_Node000009"><a xlink:href="dpsim-models_2include_2dpsim-models_2_definitions_8h.html" target="_top" xlink:title=" ">
<polygon fill="white" stroke="#666666" points="800.75,-80.5 657.25,-80.5 657.25,-58.25 800.75,-58.25 800.75,-80.5"/>
<text text-anchor="middle" x="729" y="-67" font-family="Helvetica,sans-Serif" font-size="10.00">dpsim&#45;models/Definitions.h</text>
</a>
</g>
</g>
<!-- Node5&#45;&gt;Node9 -->
<g id="edge8_Node000005_Node000009" class="edge">
<title>Node5&#45;&gt;Node9</title>
<g id="a_edge8_Node000005_Node000009"><a xlink:title=" ">
<path fill="none" stroke="#63b8ff" d="M479.45,-175.25C566.37,-162.89 705.69,-142.58 710,-138.75 723.08,-127.13 727.5,-107.35 728.83,-92.05"/>
<polygon fill="#63b8ff" stroke="#63b8ff" points="732.31,-92.65 729.28,-82.49 725.32,-92.32 732.31,-92.65"/>
</a>
</g>
</g>
<!-- Node18 -->
<g id="Node000018" class="node">
<title>Node18</title>
<g id="a_Node000018"><a xlink:href="_math_utils_8h.html" target="_top" xlink:title=" ">
<polygon fill="white" stroke="#666666" points="700.75,-138.75 563.25,-138.75 563.25,-116.5 700.75,-116.5 700.75,-138.75"/>
<text text-anchor="middle" x="632" y="-125.25" font-family="Helvetica,sans-Serif" font-size="10.00">dpsim&#45;models/MathUtils.h</text>
</a>
</g>
</g>
<!-- Node5&#45;&gt;Node18 -->
<g id="edge18_Node000005_Node000018" class="edge">
<title>Node5&#45;&gt;Node18</title>
<g id="a_edge18_Node000005_Node000018"><a xlink:title=" ">
<path fill="none" stroke="#63b8ff" d="M452.57,-174.29C488.53,-165.14 540.71,-151.86 579.54,-141.98"/>
<polygon fill="#63b8ff" stroke="#63b8ff" points="580.32,-145.39 589.15,-139.53 578.6,-138.61 580.32,-145.39"/>
</a>
</g>
</g>
<!-- Node20 -->
<g id="Node000020" class="node">
<title>Node20</title>
<g id="a_Node000020"><a xlink:href="_ptr_factory_8h.html" target="_top" xlink:title=" ">
<polygon fill="white" stroke="#666666" points="422.62,-138.75 281.38,-138.75 281.38,-116.5 422.62,-116.5 422.62,-138.75"/>
<text text-anchor="middle" x="352" y="-125.25" font-family="Helvetica,sans-Serif" font-size="10.00">dpsim&#45;models/PtrFactory.h</text>
</a>
</g>
</g>
<!-- Node5&#45;&gt;Node20 -->
<g id="edge21_Node000005_Node000020" class="edge">
<title>Node5&#45;&gt;Node20</title>
<g id="a_edge21_Node000005_Node000020"><a xlink:title=" ">
<path fill="none" stroke="#63b8ff" d="M399.9,-174.29C391.83,-166.6 380.69,-155.97 371.18,-146.91"/>
<polygon fill="#63b8ff" stroke="#63b8ff" points="373.8,-144.57 364.14,-140.2 368.97,-149.64 373.8,-144.57"/>
</a>
</g>
</g>
<!-- Node9&#45;&gt;Node3 -->
<g id="edge13_Node000009_Node000003" class="edge">
<title>Node9&#45;&gt;Node3</title>
<g id="a_edge13_Node000009_Node000003"><a xlink:title=" ">
<path fill="none" stroke="#63b8ff" d="M657,-60.23C550.61,-48.18 355.01,-26.05 271.49,-16.59"/>
<polygon fill="#63b8ff" stroke="#63b8ff" points="272.07,-13.14 261.74,-15.49 271.28,-20.09 272.07,-13.14"/>
</a>
</g>
</g>
<!-- Node10 -->
<g id="Node000010" class="node">
<title>Node10</title>
<g id="a_Node000010"><a xlink:title=" ">
<polygon fill="#e0e0e0" stroke="#999999" points="879.75,-22.25 832.25,-22.25 832.25,0 879.75,0 879.75,-22.25"/>
<text text-anchor="middle" x="856" y="-8.75" font-family="Helvetica,sans-Serif" font-size="10.00">cerrno</text>
</a>
</g>
</g>
<!-- Node9&#45;&gt;Node10 -->
<g id="edge9_Node000009_Node000010" class="edge">
<title>Node9&#45;&gt;Node10</title>
<g id="a_edge9_Node000009_Node000010"><a xlink:title=" ">
<path fill="none" stroke="#63b8ff" d="M752.89,-57.79C772.31,-49.19 799.97,-36.94 821.75,-27.29"/>
<polygon fill="#63b8ff" stroke="#63b8ff" points="823.11,-30.52 830.84,-23.27 820.27,-24.12 823.11,-30.52"/>
</a>
</g>
</g>
<!-- Node11 -->
<g id="Node000011" class="node">
<title>Node11</title>
<g id="a_Node000011"><a xlink:title=" ">
<polygon fill="#e0e0e0" stroke="#999999" points="942.25,-22.25 897.75,-22.25 897.75,0 942.25,0 942.25,-22.25"/>
<text text-anchor="middle" x="920" y="-8.75" font-family="Helvetica,sans-Serif" font-size="10.00">cmath</text>
</a>
</g>
</g>
<!-- Node9&#45;&gt;Node11 -->
<g id="edge10_Node000009_Node000011" class="edge">
<title>Node9&#45;&gt;Node11</title>
<g id="a_edge10_Node000009_Node000011"><a xlink:title=" ">
<path fill="none" stroke="#63b8ff" d="M767.26,-57.75C797.4,-49.29 840.72,-36.94 886.58,-22.93"/>
<polygon fill="#63b8ff" stroke="#63b8ff" points="887.36,-26.35 895.9,-20.07 885.31,-19.66 887.36,-26.35"/>
</a>
</g>
</g>
<!-- Node12 -->
<g id="Node000012" class="node">
<title>Node12</title>
<g id="a_Node000012"><a xlink:title=" ">
<polygon fill="#e0e0e0" stroke="#999999" points="1014.12,-22.25 959.88,-22.25 959.88,0 1014.12,0 1014.12,-22.25"/>
<text text-anchor="middle" x="987" y="-8.75" font-family="Helvetica,sans-Serif" font-size="10.00">complex</text>
</a>
</g>
</g>
<!-- Node9&#45;&gt;Node12 -->
<g id="edge11_Node000009_Node000012" class="edge">
<title>Node9&#45;&gt;Node12</title>
<g id="a_edge11_Node000009_Node000012"><a xlink:title=" ">
<path fill="none" stroke="#63b8ff" d="M785.35,-57.79C827.82,-49.55 887.72,-37.4 948.57,-22.73"/>
<polygon fill="#63b8ff" stroke="#63b8ff" points="949.18,-26.19 958.06,-20.42 947.52,-19.38 949.18,-26.19"/>
</a>
</g>
</g>
<!-- Node13 -->
<g id="Node000013" class="node">
<title>Node13</title>
<g id="a_Node000013"><a xlink:title=" ">
<polygon fill="#e0e0e0" stroke="#999999" points="468.5,-22.25 407.5,-22.25 407.5,0 468.5,0 468.5,-22.25"/>
<text text-anchor="middle" x="438" y="-8.75" font-family="Helvetica,sans-Serif" font-size="10.00">exception</text>
</a>
</g>
</g>
<!-- Node9&#45;&gt;Node13 -->
<g id="edge12_Node000009_Node000013" class="edge">
<title>Node9&#45;&gt;Node13</title>
<g id="a_edge12_Node000009_Node000013"><a xlink:title=" ">
<path fill="none" stroke="#63b8ff" d="M663.73,-57.77C615.3,-49.6 547.4,-37.5 479.5,-22.69"/>
<polygon fill="#63b8ff" stroke="#63b8ff" points="480.6,-19.35 470.08,-20.62 479.1,-26.19 480.6,-19.35"/>
</a>
</g>
</g>
<!-- Node14 -->
<g id="Node000014" class="node">
<title>Node14</title>
<g id="a_Node000014"><a xlink:title=" ">
<polygon fill="#e0e0e0" stroke="#999999" points="529.5,-22.25 486.5,-22.25 486.5,0 529.5,0 529.5,-22.25"/>
<text text-anchor="middle" x="508" y="-8.75" font-family="Helvetica,sans-Serif" font-size="10.00">string</text>
</a>
</g>
</g>
<!-- Node9&#45;&gt;Node14 -->
<g id="edge14_Node000009_Node000014" class="edge">
<title>Node9&#45;&gt;Node14</title>
<g id="a_edge14_Node000009_Node000014"><a xlink:title=" ">
<path fill="none" stroke="#63b8ff" d="M681.1,-57.83C645.01,-49.64 594.08,-37.57 540.96,-22.65"/>
<polygon fill="#63b8ff" stroke="#63b8ff" points="541.98,-19.3 531.41,-19.94 540.07,-26.04 541.98,-19.3"/>
</a>
</g>
</g>
<!-- Node15 -->
<g id="Node000015" class="node">
<title>Node15</title>
<g id="a_Node000015"><a xlink:title=" ">
<polygon fill="#e0e0e0" stroke="#999999" points="626.12,-22.25 547.88,-22.25 547.88,0 626.12,0 626.12,-22.25"/>
<text text-anchor="middle" x="587" y="-8.75" font-family="Helvetica,sans-Serif" font-size="10.00">system_error</text>
</a>
</g>
</g>
<!-- Node9&#45;&gt;Node15 -->
<g id="edge15_Node000009_Node000015" class="edge">
<title>Node9&#45;&gt;Node15</title>
<g id="a_edge15_Node000009_Node000015"><a xlink:title=" ">
<path fill="none" stroke="#63b8ff" d="M702.29,-57.79C680.18,-49.03 648.52,-36.49 623.97,-26.77"/>
<polygon fill="#63b8ff" stroke="#63b8ff" points="625.58,-23.64 615,-23.22 623,-30.15 625.58,-23.64"/>
</a>
</g>
</g>
<!-- Node16 -->
<g id="Node000016" class="node">
<title>Node16</title>
<g id="a_Node000016"><a xlink:title=" ">
<polygon fill="#e0e0e0" stroke="#999999" points="719.62,-22.25 644.38,-22.25 644.38,0 719.62,0 719.62,-22.25"/>
<text text-anchor="middle" x="682" y="-8.75" font-family="Helvetica,sans-Serif" font-size="10.00">Eigen/Dense</text>
</a>
</g>
</g>
<!-- Node9&#45;&gt;Node16 -->
<g id="edge16_Node000009_Node000016" class="edge">
<title>Node9&#45;&gt;Node16</title>
<g id="a_edge16_Node000009_Node000016"><a xlink:title=" ">
<path fill="none" stroke="#63b8ff" d="M720.16,-57.79C713.92,-50.33 705.39,-40.12 697.98,-31.25"/>
<polygon fill="#63b8ff" stroke="#63b8ff" points="700.87,-29.25 691.77,-23.82 695.5,-33.74 700.87,-29.25"/>
</a>
</g>
</g>
<!-- Node17 -->
<g id="Node000017" class="node">
<title>Node17</title>
<g id="a_Node000017"><a xlink:title=" ">
<polygon fill="#e0e0e0" stroke="#999999" points="814.38,-22.25 737.62,-22.25 737.62,0 814.38,0 814.38,-22.25"/>
<text text-anchor="middle" x="776" y="-8.75" font-family="Helvetica,sans-Serif" font-size="10.00">Eigen/Sparse</text>
</a>
</g>
</g>
<!-- Node9&#45;&gt;Node17 -->
<g id="edge17_Node000009_Node000017" class="edge">
<title>Node9&#45;&gt;Node17</title>
<g id="a_edge17_Node000009_Node000017"><a xlink:title=" ">
<path fill="none" stroke="#63b8ff" d="M737.84,-57.79C744.08,-50.33 752.61,-40.12 760.02,-31.25"/>
<polygon fill="#63b8ff" stroke="#63b8ff" points="762.5,-33.74 766.23,-23.82 757.13,-29.25 762.5,-33.74"/>
</a>
</g>
</g>
<!-- Node18&#45;&gt;Node9 -->
<g id="edge20_Node000018_Node000009" class="edge">
<title>Node18&#45;&gt;Node9</title>
<g id="a_edge20_Node000018_Node000009"><a xlink:title=" ">
<path fill="none" stroke="#63b8ff" d="M650.24,-116.04C664.61,-107.72 684.86,-95.97 701.23,-86.48"/>
<polygon fill="#63b8ff" stroke="#63b8ff" points="702.63,-89.71 709.53,-81.67 699.12,-83.66 702.63,-89.71"/>
</a>
</g>
</g>
<!-- Node19 -->
<g id="Node000019" class="node">
<title>Node19</title>
<g id="a_Node000019"><a xlink:title=" ">
<polygon fill="#e0e0e0" stroke="#999999" points="434.75,-80.5 393.25,-80.5 393.25,-58.25 434.75,-58.25 434.75,-80.5"/>
<text text-anchor="middle" x="414" y="-67" font-family="Helvetica,sans-Serif" font-size="10.00">utility</text>
</a>
</g>
</g>
<!-- Node18&#45;&gt;Node19 -->
<g id="edge19_Node000018_Node000019" class="edge">
<title>Node18&#45;&gt;Node19</title>
<g id="a_edge19_Node000018_Node000019"><a xlink:title=" ">
<path fill="none" stroke="#63b8ff" d="M591,-116.04C548.97,-105.2 484.49,-88.56 446.05,-78.65"/>
<polygon fill="#63b8ff" stroke="#63b8ff" points="447.04,-75.28 436.48,-76.18 445.29,-82.06 447.04,-75.28"/>
</a>
</g>
</g>
<!-- Node20&#45;&gt;Node3 -->
<g id="edge22_Node000020_Node000003" class="edge">
<title>Node20&#45;&gt;Node3</title>
<g id="a_edge22_Node000020_Node000003"><a xlink:title=" ">
<path fill="none" stroke="#63b8ff" d="M340.93,-116.06C320.48,-96.55 276.57,-54.65 251.18,-30.43"/>
<polygon fill="#63b8ff" stroke="#63b8ff" points="253.79,-28.08 244.14,-23.71 248.96,-33.15 253.79,-28.08"/>
</a>
</g>
</g>
<!-- Node20&#45;&gt;Node19 -->
<g id="edge23_Node000020_Node000019" class="edge">
<title>Node20&#45;&gt;Node19</title>
<g id="a_edge23_Node000020_Node000019"><a xlink:title=" ">
<path fill="none" stroke="#63b8ff" d="M363.66,-116.04C372.23,-108.27 384.09,-97.51 394.15,-88.39"/>
<polygon fill="#63b8ff" stroke="#63b8ff" points="396.22,-91.24 401.27,-81.92 391.51,-86.05 396.22,-91.24"/>
</a>
</g>
</g>
<!-- Node21&#45;&gt;Node3 -->
<g id="edge25_Node000021_Node000003" class="edge">
<title>Node21&#45;&gt;Node3</title>
<g id="a_edge25_Node000021_Node000003"><a xlink:title=" ">
<path fill="none" stroke="#63b8ff" d="M558.56,-239.64C438.3,-231.46 181.9,-206.31 131,-138.75 120.7,-125.08 121.36,-81.7 138,-58.25 150.99,-39.95 173.31,-28.57 192.94,-21.7"/>
<polygon fill="#63b8ff" stroke="#63b8ff" points="193.89,-25.07 202.36,-18.7 191.77,-18.4 193.89,-25.07"/>
</a>
</g>
</g>
<!-- Node21&#45;&gt;Node5 -->
<g id="edge29_Node000021_Node000005" class="edge">
<title>Node21&#45;&gt;Node5</title>
<g id="a_edge29_Node000021_Node000005"><a xlink:title=" ">
<path fill="none" stroke="#63b8ff" d="M581.5,-232.54C547.48,-223.43 498.17,-210.22 461.33,-200.36"/>
<polygon fill="#63b8ff" stroke="#63b8ff" points="462.35,-197.01 451.78,-197.8 460.54,-203.77 462.35,-197.01"/>
</a>
</g>
</g>
<!-- Node21&#45;&gt;Node9 -->
<g id="edge30_Node000021_Node000009" class="edge">
<title>Node21&#45;&gt;Node9</title>
<g id="a_edge30_Node000021_Node000009"><a xlink:title=" ">
<path fill="none" stroke="#63b8ff" d="M683.69,-235.76C707.89,-229.52 733.26,-218.04 748,-197 770.32,-165.14 753.25,-117.67 740.21,-90.81"/>
<polygon fill="#63b8ff" stroke="#63b8ff" points="743.37,-89.31 735.68,-82.02 737.15,-92.51 743.37,-89.31"/>
</a>
</g>
</g>
<!-- Node21&#45;&gt;Node18 -->
<g id="edge31_Node000021_Node000018" class="edge">
<title>Node21&#45;&gt;Node18</title>
<g id="a_edge31_Node000021_Node000018"><a xlink:title=" ">
<path fill="none" stroke="#63b8ff" d="M622.02,-232.56C623.8,-213.98 627.53,-175.12 629.89,-150.54"/>
<polygon fill="#63b8ff" stroke="#63b8ff" points="633.37,-150.96 630.84,-140.67 626.4,-150.29 633.37,-150.96"/>
</a>
</g>
</g>
<!-- Node22 -->
<g id="Node000022" class="node">
<title>Node22</title>
<g id="a_Node000022"><a xlink:title=" ">
<polygon fill="#e0e0e0" stroke="#999999" points="739.12,-197 648.88,-197 648.88,-174.75 739.12,-174.75 739.12,-197"/>
<text text-anchor="middle" x="694" y="-183.5" font-family="Helvetica,sans-Serif" font-size="10.00">spdlog/spdlog.h</text>
</a>
</g>
</g>
<!-- Node21&#45;&gt;Node22 -->
<g id="edge26_Node000021_Node000022" class="edge">
<title>Node21&#45;&gt;Node22</title>
<g id="a_edge26_Node000021_Node000022"><a xlink:title=" ">
<path fill="none" stroke="#63b8ff" d="M634.73,-232.54C645.03,-224.61 659.35,-213.57 671.34,-204.34"/>
<polygon fill="#63b8ff" stroke="#63b8ff" points="673.35,-207.21 679.13,-198.33 669.07,-201.66 673.35,-207.21"/>
</a>
</g>
</g>
<!-- Node23 -->
<g id="Node000023" class="node">
<title>Node23</title>
<g id="a_Node000023"><a xlink:title=" ">
<polygon fill="#e0e0e0" stroke="#999999" points="922.5,-197 795.5,-197 795.5,-174.75 922.5,-174.75 922.5,-197"/>
<text text-anchor="middle" x="859" y="-183.5" font-family="Helvetica,sans-Serif" font-size="10.00">spdlog/sinks/file_sinks.h</text>
</a>
</g>
</g>
<!-- Node21&#45;&gt;Node23 -->
<g id="edge27_Node000021_Node000023" class="edge">
<title>Node21&#45;&gt;Node23</title>
<g id="a_edge27_Node000021_Node000023"><a xlink:title=" ">
<path fill="none" stroke="#63b8ff" d="M665.77,-232.54C704.74,-223.33 761.41,-209.94 803.31,-200.04"/>
<polygon fill="#63b8ff" stroke="#63b8ff" points="804.03,-203.46 812.96,-197.76 802.42,-196.65 804.03,-203.46"/>
</a>
</g>
</g>
<!-- Node24 -->
<g id="Node000024" class="node">
<title>Node24</title>
<g id="a_Node000024"><a xlink:title=" ">
<polygon fill="#e0e0e0" stroke="#999999" points="593.12,-197 496.88,-197 496.88,-174.75 593.12,-174.75 593.12,-197"/>
<text text-anchor="middle" x="545" y="-183.5" font-family="Helvetica,sans-Serif" font-size="10.00">spdlog/fmt/ostr.h</text>
</a>
</g>
</g>
<!-- Node21&#45;&gt;Node24 -->
<g id="edge28_Node000021_Node000024" class="edge">
<title>Node21&#45;&gt;Node24</title>
<g id="a_edge28_Node000021_Node000024"><a xlink:title=" ">
<path fill="none" stroke="#63b8ff" d="M606.7,-232.54C595.88,-224.53 580.77,-213.35 568.22,-204.06"/>
<polygon fill="#63b8ff" stroke="#63b8ff" points="570.57,-201.44 560.45,-198.31 566.4,-207.07 570.57,-201.44"/>
</a>
</g>
</g>
<!-- Node25&#45;&gt;Node9 -->
<g id="edge33_Node000025_Node000009" class="edge">
<title>Node25&#45;&gt;Node9</title>
<g id="a_edge33_Node000025_Node000009"><a xlink:title=" ">
<path fill="none" stroke="#63b8ff" d="M969.54,-174.31C922.31,-153.9 818.41,-109.01 763.92,-85.46"/>
<polygon fill="#63b8ff" stroke="#63b8ff" points="765.35,-82.27 754.79,-81.52 762.58,-88.7 765.35,-82.27"/>
</a>
</g>
</g>
</g>
</svg>

<g id="navigator" transform="translate(0 0)" fill="#404254">
  <rect fill="#f2f5e9" fill-opacity="0.5" stroke="#606060" stroke-width=".5" x="0" y="0" width="60" height="60"/>
  <use id="zoomplus" xlink:href="#zoomPlus" x="17" y="9" onmousedown="handleZoom(evt,'in')"/>
  <use id="zoomminus" xlink:href="#zoomMin" x="42" y="9" onmousedown="handleZoom(evt,'out')"/>
  <use id="reset" xlink:href="#resetDef" x="30" y="36" onmousedown="handleReset()"/>
   <use id="arrowup" xlink:href="#arrowUp" x="0" y="0" onmousedown="handlePan(0,-1)"/>
  <use id="arrowright" xlink:href="#arrowRight" x="0" y="0" onmousedown="handlePan(1,0)"/>
  <use id="arrowdown" xlink:href="#arrowDown" x="0" y="0" onmousedown="handlePan(0,1)"/>
  <use id="arrowleft" xlink:href="#arrowLeft" x="0" y="0" onmousedown="handlePan(-1,0)"/>
</g>
<svg viewBox="0 0 15 15" width="100%" height="30px" preserveAspectRatio="xMaxYMin meet">
 <g id="arrow_out" transform="scale(0.3 0.3)">
  <a xlink:href="_scheduler_8h__incl_org.svg" target="_base">
   <rect id="button" ry="5" rx="5" y="6" x="6" height="38" width="38"
        fill="#f2f5e9" fill-opacity="0.5" stroke="#606060" stroke-width="1.0"/>
   <path id="arrow"
     d="M 11.500037,31.436501 C 11.940474,20.09759 22.043105,11.32322 32.158766,21.979434 L 37.068811,17.246167 C 37.068811,17.246167 37.088388,32 37.088388,32 L 22.160133,31.978069 C 22.160133,31.978069 26.997745,27.140456 26.997745,27.140456 C 18.528582,18.264221 13.291696,25.230495 11.500037,31.436501 z"
     style="fill:#404040;"/>
  </a>
 </g>
</svg>

<style type='text/css'>
<![CDATA[
[data-mouse-over-selected='false'] { opacity: 0.7; }
[data-mouse-over-selected='true']  { opacity: 1.0; }
]]>
</style>
<script type="application/ecmascript"><![CDATA[
document.addEventListener('DOMContentLoaded', (event) => {
  highlightEdges();
  highlightAdjacentNodes();
});
]]></script>
</svg>
