<?xml version="1.0" encoding="UTF-8" standalone="no"?>
<!DOCTYPE svg PUBLIC "-//W3C//DTD SVG 1.1//EN"
 "http://www.w3.org/Graphics/SVG/1.1/DTD/svg11.dtd">
<!-- Generated by graphviz version 12.2.1 (20241206.2353)
 -->
<!-- Title: /__w/dpsim/dpsim/dpsim&#45;models/include/dpsim&#45;models/TopologicalPowerComp.h Pages: 1 -->
<!--zoomable 612 -->

<svg id="main" version="1.1" xmlns="http://www.w3.org/2000/svg" xmlns:xlink="http://www.w3.org/1999/xlink" xml:space="preserve" onload="init(evt)">

<style type="text/css"><![CDATA[
.node, .edge {opacity: 0.7;}
.node.selected, .edge.selected {opacity: 1;}
.edge:hover path { stroke: red; }
.edge:hover polygon { stroke: red; fill: red; }
]]></style>

<defs>
  <circle id="rim" cx="0" cy="0" r="7"/>
  <circle id="rim2" cx="0" cy="0" r="3.5"/>
  <g id="zoomPlus">
    <use xlink:href="#rim" fill="#404040"><set attributeName="fill" to="#808080" begin="zoomplus.mouseover" end="zoomplus.mouseout"/></use>
    <path d="M-4,0h8M0,-4v8" fill="none" stroke="white" stroke-width="1.5" pointer-events="none"/>
  </g>
  <g id="zoomMin">
    <use xlink:href="#rim" fill="#404040"><set attributeName="fill" to="#808080" begin="zoomminus.mouseover" end="zoomminus.mouseout"/></use>
    <path d="M-4,0h8" fill="none" stroke="white" stroke-width="1.5" pointer-events="none"/>
  </g>
  <g id="arrowUp" transform="translate(30 24)">
    <use xlink:href="#rim"/>
    <path pointer-events="none" fill="none" stroke="white" stroke-width="1.5" d="M0,-3.0v7 M-2.5,-0.5L0,-3.0L2.5,-0.5"/>
  </g>
  <g id="arrowRight" transform="rotate(90) translate(36 -43)">
    <use xlink:href="#rim"/>
    <path pointer-events="none" fill="none" stroke="white" stroke-width="1.5" d="M0,-3.0v7 M-2.5,-0.5L0,-3.0L2.5,-0.5"/>
  </g>
  <g id="arrowDown" transform="rotate(180) translate(-30 -48)">
    <use xlink:href="#rim"/>
    <path pointer-events="none" fill="none" stroke="white" stroke-width="1.5" d="M0,-3.0v7 M-2.5,-0.5L0,-3.0L2.5,-0.5"/>
  </g>
  <g id="arrowLeft" transform="rotate(270) translate(-36 17)">
    <use xlink:href="#rim"/>
    <path pointer-events="none" fill="none" stroke="white" stroke-width="1.5" d="M0,-3.0v7 M-2.5,-0.5L0,-3.0L2.5,-0.5"/>
  </g>
  <g id="resetDef">
    <use xlink:href="#rim2" fill="#404040"><set attributeName="fill" to="#808080" begin="reset.mouseover" end="reset.mouseout"/></use>
  </g>
</defs>
<script type="application/ecmascript">
var viewWidth = 1090;
var viewHeight = 612;
var sectionId = 'dynsection-0';
</script>
<script type="application/ecmascript" xlink:href="svg.min.js"/>
<svg id="graph" class="graph">
<g id="viewport">
<title>/__w/dpsim/dpsim/dpsim&#45;models/include/dpsim&#45;models/TopologicalPowerComp.h</title>
<!-- Node1 -->
<g id="Node000001" class="node">
<title>Node1</title>
<g id="a_Node000001"><a xlink:title=" ">
<polygon fill="#999999" stroke="#666666" points="715.75,-603.5 542.25,-603.5 542.25,-552.75 715.75,-552.75 715.75,-603.5"/>
<text text-anchor="start" x="550.25" y="-590" font-family="Helvetica,sans-Serif" font-size="10.00">/__w/dpsim/dpsim/dpsim</text>
<text text-anchor="start" x="550.25" y="-575.75" font-family="Helvetica,sans-Serif" font-size="10.00">&#45;models/include/dpsim</text>
<text text-anchor="middle" x="629" y="-561.5" font-family="Helvetica,sans-Serif" font-size="10.00">&#45;models/TopologicalPowerComp.h</text>
</a>
</g>
</g>
<!-- Node2 -->
<g id="Node000002" class="node">
<title>Node2</title>
<g id="a_Node000002"><a xlink:title=" ">
<polygon fill="#e0e0e0" stroke="#999999" points="1052.25,-138.75 995.75,-138.75 995.75,-116.5 1052.25,-116.5 1052.25,-138.75"/>
<text text-anchor="middle" x="1024" y="-125.25" font-family="Helvetica,sans-Serif" font-size="10.00">iostream</text>
</a>
</g>
</g>
<!-- Node1&#45;&gt;Node2 -->
<g id="edge1_Node000001_Node000002" class="edge">
<title>Node1&#45;&gt;Node2</title>
<g id="a_edge1_Node000001_Node000002"><a xlink:title=" ">
<path fill="none" stroke="#63b8ff" d="M716.02,-573.64C786.9,-568.04 888.13,-553.63 969,-516.75 1026.72,-490.43 1080,-490.44 1080,-427 1080,-427 1080,-427 1080,-301.38 1080,-243.84 1051.54,-180.55 1035.2,-148.95"/>
<polygon fill="#63b8ff" stroke="#63b8ff" points="1038.49,-147.67 1030.7,-140.49 1032.31,-150.96 1038.49,-147.67"/>
</a>
</g>
</g>
<!-- Node3 -->
<g id="Node000003" class="node">
<title>Node3</title>
<g id="a_Node000003"><a xlink:title=" ">
<polygon fill="#e0e0e0" stroke="#999999" points="255.88,-22.25 200.12,-22.25 200.12,0 255.88,0 255.88,-22.25"/>
<text text-anchor="middle" x="228" y="-8.75" font-family="Helvetica,sans-Serif" font-size="10.00">memory</text>
</a>
</g>
</g>
<!-- Node1&#45;&gt;Node3 -->
<g id="edge2_Node000001_Node000003" class="edge">
<title>Node1&#45;&gt;Node3</title>
<g id="a_edge2_Node000001_Node000003"><a xlink:title=" ">
<path fill="none" stroke="#63b8ff" d="M541.87,-574.4C369.18,-566.61 0,-537.09 0,-427 0,-427 0,-427 0,-126.62 0,-43.23 123.33,-20.57 188.58,-14.42"/>
<polygon fill="#63b8ff" stroke="#63b8ff" points="188.86,-17.9 198.53,-13.57 188.28,-10.93 188.86,-17.9"/>
</a>
</g>
</g>
<!-- Node4 -->
<g id="Node000004" class="node">
<title>Node4</title>
<g id="a_Node000004"><a xlink:title=" ">
<polygon fill="#e0e0e0" stroke="#999999" points="552.5,-509.62 497.5,-509.62 497.5,-487.38 552.5,-487.38 552.5,-509.62"/>
<text text-anchor="middle" x="525" y="-496.12" font-family="Helvetica,sans-Serif" font-size="10.00">typeinfo</text>
</a>
</g>
</g>
<!-- Node1&#45;&gt;Node4 -->
<g id="edge3_Node000001_Node000004" class="edge">
<title>Node1&#45;&gt;Node4</title>
<g id="a_edge3_Node000001_Node000004"><a xlink:title=" ">
<path fill="none" stroke="#63b8ff" d="M595.81,-552.35C580.26,-540.74 562.11,-527.2 548.08,-516.73"/>
<polygon fill="#63b8ff" stroke="#63b8ff" points="550.43,-514.11 540.32,-510.94 546.24,-519.72 550.43,-514.11"/>
</a>
</g>
</g>
<!-- Node5 -->
<g id="Node000005" class="node">
<title>Node5</title>
<g id="a_Node000005"><a xlink:title=" ">
<polygon fill="#e0e0e0" stroke="#999999" points="976,-197 930,-197 930,-174.75 976,-174.75 976,-197"/>
<text text-anchor="middle" x="953" y="-183.5" font-family="Helvetica,sans-Serif" font-size="10.00">vector</text>
</a>
</g>
</g>
<!-- Node1&#45;&gt;Node5 -->
<g id="edge4_Node000001_Node000005" class="edge">
<title>Node1&#45;&gt;Node5</title>
<g id="a_edge4_Node000001_Node000005"><a xlink:title=" ">
<path fill="none" stroke="#63b8ff" d="M716.08,-563.53C837.25,-542.12 1042,-495.76 1042,-427 1042,-427 1042,-427 1042,-359.62 1042,-297.56 996.04,-235.48 970.17,-205.47"/>
<polygon fill="#63b8ff" stroke="#63b8ff" points="973.12,-203.51 963.87,-198.35 967.88,-208.16 973.12,-203.51"/>
</a>
</g>
</g>
<!-- Node6 -->
<g id="Node000006" class="node">
<title>Node6</title>
<g id="a_Node000006"><a xlink:href="_identified_object_8h.html" target="_top" xlink:title=" ">
<polygon fill="white" stroke="#666666" points="857.5,-371.75 688.5,-371.75 688.5,-349.5 857.5,-349.5 857.5,-371.75"/>
<text text-anchor="middle" x="773" y="-358.25" font-family="Helvetica,sans-Serif" font-size="10.00">dpsim&#45;models/IdentifiedObject.h</text>
</a>
</g>
</g>
<!-- Node1&#45;&gt;Node6 -->
<g id="edge5_Node000001_Node000006" class="edge">
<title>Node1&#45;&gt;Node6</title>
<g id="a_edge5_Node000001_Node000006"><a xlink:title=" ">
<path fill="none" stroke="#63b8ff" d="M710.39,-552.32C727.18,-543.61 743.06,-532.03 754,-516.75 782.72,-476.63 780.23,-415.23 776.37,-383.03"/>
<polygon fill="#63b8ff" stroke="#63b8ff" points="779.87,-382.79 775.04,-373.36 772.94,-383.75 779.87,-382.79"/>
</a>
</g>
</g>
<!-- Node24 -->
<g id="Node000024" class="node">
<title>Node24</title>
<g id="a_Node000024"><a xlink:href="_logger_8h.html" target="_top" xlink:title=" ">
<polygon fill="white" stroke="#666666" points="490.38,-255.25 365.62,-255.25 365.62,-233 490.38,-233 490.38,-255.25"/>
<text text-anchor="middle" x="428" y="-241.75" font-family="Helvetica,sans-Serif" font-size="10.00">dpsim&#45;models/Logger.h</text>
</a>
</g>
</g>
<!-- Node1&#45;&gt;Node24 -->
<g id="edge43_Node000001_Node000024" class="edge">
<title>Node1&#45;&gt;Node24</title>
<g id="a_edge43_Node000001_Node000024"><a xlink:title=" ">
<path fill="none" stroke="#63b8ff" d="M541.93,-569.77C395.08,-554.95 114,-515.07 114,-427 114,-427 114,-427 114,-359.62 114,-308.8 261.06,-273.91 353.89,-256.96"/>
<polygon fill="#63b8ff" stroke="#63b8ff" points="354.5,-260.4 363.72,-255.19 353.26,-253.51 354.5,-260.4"/>
</a>
</g>
</g>
<!-- Node28 -->
<g id="Node000028" class="node">
<title>Node28</title>
<g id="a_Node000028"><a xlink:href="_topological_node_8h.html" target="_top" xlink:title=" ">
<polygon fill="white" stroke="#666666" points="663.62,-444.25 528.38,-444.25 528.38,-407.75 663.62,-407.75 663.62,-444.25"/>
<text text-anchor="start" x="536.38" y="-430.75" font-family="Helvetica,sans-Serif" font-size="10.00">dpsim&#45;models/Topological</text>
<text text-anchor="middle" x="596" y="-416.5" font-family="Helvetica,sans-Serif" font-size="10.00">Node.h</text>
</a>
</g>
</g>
<!-- Node1&#45;&gt;Node28 -->
<g id="edge44_Node000001_Node000028" class="edge">
<title>Node1&#45;&gt;Node28</title>
<g id="a_edge44_Node000001_Node000028"><a xlink:title=" ">
<path fill="none" stroke="#63b8ff" d="M614.35,-552.43C608.8,-541.81 603.09,-529.04 600,-516.75 595,-496.84 594.08,-473.68 594.37,-455.87"/>
<polygon fill="#63b8ff" stroke="#63b8ff" points="597.87,-456.12 594.68,-446.02 590.87,-455.9 597.87,-456.12"/>
</a>
</g>
</g>
<!-- Node29 -->
<g id="Node000029" class="node">
<title>Node29</title>
<g id="a_Node000029"><a xlink:href="_topological_terminal_8h.html" target="_top" xlink:title=" ">
<polygon fill="white" stroke="#666666" points="744.62,-516.75 609.38,-516.75 609.38,-480.25 744.62,-480.25 744.62,-516.75"/>
<text text-anchor="start" x="617.38" y="-503.25" font-family="Helvetica,sans-Serif" font-size="10.00">dpsim&#45;models/Topological</text>
<text text-anchor="middle" x="677" y="-489" font-family="Helvetica,sans-Serif" font-size="10.00">Terminal.h</text>
</a>
</g>
</g>
<!-- Node1&#45;&gt;Node29 -->
<g id="edge48_Node000001_Node000029" class="edge">
<title>Node1&#45;&gt;Node29</title>
<g id="a_edge48_Node000001_Node000029"><a xlink:title=" ">
<path fill="none" stroke="#63b8ff" d="M644.19,-552.56C649.26,-544.35 654.95,-535.16 660.15,-526.75"/>
<polygon fill="#63b8ff" stroke="#63b8ff" points="663.09,-528.65 665.37,-518.3 657.14,-524.97 663.09,-528.65"/>
</a>
</g>
</g>
<!-- Node7 -->
<g id="Node000007" class="node">
<title>Node7</title>
<g id="a_Node000007"><a xlink:href="_attribute_list_8h.html" target="_top" xlink:title=" ">
<polygon fill="white" stroke="#666666" points="937.88,-255.25 786.12,-255.25 786.12,-233 937.88,-233 937.88,-255.25"/>
<text text-anchor="middle" x="862" y="-241.75" font-family="Helvetica,sans-Serif" font-size="10.00">dpsim&#45;models/AttributeList.h</text>
</a>
</g>
</g>
<!-- Node6&#45;&gt;Node7 -->
<g id="edge6_Node000006_Node000007" class="edge">
<title>Node6&#45;&gt;Node7</title>
<g id="a_edge6_Node000006_Node000007"><a xlink:title=" ">
<path fill="none" stroke="#63b8ff" d="M786.7,-349.31C797.68,-340.59 813.01,-327.33 824,-313.5 835.73,-298.73 845.92,-279.87 852.78,-265.69"/>
<polygon fill="#63b8ff" stroke="#63b8ff" points="855.84,-267.41 856.9,-256.87 849.5,-264.45 855.84,-267.41"/>
</a>
</g>
</g>
<!-- Node10 -->
<g id="Node000010" class="node">
<title>Node10</title>
<g id="a_Node000010"><a xlink:title=" ">
<polygon fill="#e0e0e0" stroke="#999999" points="977.62,-138.75 854.38,-138.75 854.38,-116.5 977.62,-116.5 977.62,-138.75"/>
<text text-anchor="middle" x="916" y="-125.25" font-family="Helvetica,sans-Serif" font-size="10.00">dpsim&#45;models/Config.h</text>
</a>
</g>
</g>
<!-- Node6&#45;&gt;Node10 -->
<g id="edge31_Node000006_Node000010" class="edge">
<title>Node6&#45;&gt;Node10</title>
<g id="a_edge31_Node000006_Node000010"><a xlink:title=" ">
<path fill="none" stroke="#63b8ff" d="M804.25,-349.15C856.92,-329.37 960.08,-280.81 985,-197 987.82,-187.52 989.66,-183.47 985,-174.75 978.03,-161.71 965.57,-151.72 953.14,-144.42"/>
<polygon fill="#63b8ff" stroke="#63b8ff" points="955.08,-141.49 944.61,-139.85 951.77,-147.66 955.08,-141.49"/>
</a>
</g>
</g>
<!-- Node11 -->
<g id="Node000011" class="node">
<title>Node11</title>
<g id="a_Node000011"><a xlink:href="dpsim-models_2include_2dpsim-models_2_definitions_8h.html" target="_top" xlink:title=" ">
<polygon fill="white" stroke="#666666" points="805.75,-80.5 662.25,-80.5 662.25,-58.25 805.75,-58.25 805.75,-80.5"/>
<text text-anchor="middle" x="734" y="-67" font-family="Helvetica,sans-Serif" font-size="10.00">dpsim&#45;models/Definitions.h</text>
</a>
</g>
</g>
<!-- Node6&#45;&gt;Node11 -->
<g id="edge32_Node000006_Node000011" class="edge">
<title>Node6&#45;&gt;Node11</title>
<g id="a_edge32_Node000006_Node000011"><a xlink:title=" ">
<path fill="none" stroke="#63b8ff" d="M820.81,-349C848.4,-341.59 883.07,-330.03 911,-313.5 1005.7,-257.45 1133.18,-199.57 1061,-116.5 1030.05,-80.88 903.7,-72 817.44,-70.19"/>
<polygon fill="#63b8ff" stroke="#63b8ff" points="817.64,-66.7 807.58,-70.02 817.52,-73.7 817.64,-66.7"/>
</a>
</g>
</g>
<!-- Node23 -->
<g id="Node000023" class="node">
<title>Node23</title>
<g id="a_Node000023"><a xlink:href="dpsim-models_2include_2dpsim-models_2_utils_8h.html" target="_top" xlink:title=" ">
<polygon fill="white" stroke="#666666" points="814.75,-313.5 701.25,-313.5 701.25,-291.25 814.75,-291.25 814.75,-313.5"/>
<text text-anchor="middle" x="758" y="-300" font-family="Helvetica,sans-Serif" font-size="10.00">dpsim&#45;models/Utils.h</text>
</a>
</g>
</g>
<!-- Node6&#45;&gt;Node23 -->
<g id="edge33_Node000006_Node000023" class="edge">
<title>Node6&#45;&gt;Node23</title>
<g id="a_edge33_Node000006_Node000023"><a xlink:title=" ">
<path fill="none" stroke="#63b8ff" d="M770.18,-349.04C768.36,-342.21 765.92,-333.07 763.7,-324.77"/>
<polygon fill="#63b8ff" stroke="#63b8ff" points="767.16,-324.13 761.2,-315.37 760.39,-325.93 767.16,-324.13"/>
</a>
</g>
</g>
<!-- Node7&#45;&gt;Node2 -->
<g id="edge7_Node000007_Node000002" class="edge">
<title>Node7&#45;&gt;Node2</title>
<g id="a_edge7_Node000007_Node000002"><a xlink:title=" ">
<path fill="none" stroke="#63b8ff" d="M868.86,-232.59C878.83,-217.96 898.61,-191.42 921,-174.75 940.23,-160.44 964.6,-149.27 984.81,-141.51"/>
<polygon fill="#63b8ff" stroke="#63b8ff" points="985.96,-144.82 994.13,-138.07 983.54,-138.25 985.96,-144.82"/>
</a>
</g>
</g>
<!-- Node7&#45;&gt;Node3 -->
<g id="edge8_Node000007_Node000003" class="edge">
<title>Node7&#45;&gt;Node3</title>
<g id="a_edge8_Node000007_Node000003"><a xlink:title=" ">
<path fill="none" stroke="#63b8ff" d="M786.03,-235.38C745.02,-229.01 694.45,-217.54 653,-197 603.41,-172.43 605.53,-144.85 558,-116.5 496.93,-80.08 476.69,-80.01 409,-58.25 360.74,-42.73 303.92,-28.97 267,-20.6"/>
<polygon fill="#63b8ff" stroke="#63b8ff" points="268.21,-17.28 257.69,-18.51 266.68,-24.11 268.21,-17.28"/>
</a>
</g>
</g>
<!-- Node7&#45;&gt;Node5 -->
<g id="edge9_Node000007_Node000005" class="edge">
<title>Node7&#45;&gt;Node5</title>
<g id="a_edge9_Node000007_Node000005"><a xlink:title=" ">
<path fill="none" stroke="#63b8ff" d="M879.12,-232.54C892.46,-224.3 911.23,-212.69 926.51,-203.25"/>
<polygon fill="#63b8ff" stroke="#63b8ff" points="928.01,-206.44 934.67,-198.2 924.33,-200.48 928.01,-206.44"/>
</a>
</g>
</g>
<!-- Node8 -->
<g id="Node000008" class="node">
<title>Node8</title>
<g id="a_Node000008"><a xlink:href="_attribute_8h.html" target="_top" xlink:title=" ">
<polygon fill="white" stroke="#666666" points="798,-197 662,-197 662,-174.75 798,-174.75 798,-197"/>
<text text-anchor="middle" x="730" y="-183.5" font-family="Helvetica,sans-Serif" font-size="10.00">dpsim&#45;models/Attribute.h</text>
</a>
</g>
</g>
<!-- Node7&#45;&gt;Node8 -->
<g id="edge10_Node000007_Node000008" class="edge">
<title>Node7&#45;&gt;Node8</title>
<g id="a_edge10_Node000007_Node000008"><a xlink:title=" ">
<path fill="none" stroke="#63b8ff" d="M837.17,-232.54C816.89,-223.9 787.97,-211.58 765.29,-201.91"/>
<polygon fill="#63b8ff" stroke="#63b8ff" points="766.68,-198.7 756.11,-198 763.94,-205.14 766.68,-198.7"/>
</a>
</g>
</g>
<!-- Node7&#45;&gt;Node10 -->
<g id="edge30_Node000007_Node000010" class="edge">
<title>Node7&#45;&gt;Node10</title>
<g id="a_edge30_Node000007_Node000010"><a xlink:title=" ">
<path fill="none" stroke="#63b8ff" d="M865.31,-232.68C869.77,-219.06 878.3,-194.6 888,-174.75 892.35,-165.85 897.88,-156.44 902.87,-148.46"/>
<polygon fill="#63b8ff" stroke="#63b8ff" points="905.71,-150.52 908.17,-140.22 899.82,-146.74 905.71,-150.52"/>
</a>
</g>
</g>
<!-- Node8&#45;&gt;Node2 -->
<g id="edge11_Node000008_Node000002" class="edge">
<title>Node8&#45;&gt;Node2</title>
<g id="a_edge11_Node000008_Node000002"><a xlink:title=" ">
<path fill="none" stroke="#63b8ff" d="M798.24,-174.34C847.59,-166.32 916.06,-154.41 984.41,-139.2"/>
<polygon fill="#63b8ff" stroke="#63b8ff" points="984.92,-142.67 993.9,-137.06 983.38,-135.84 984.92,-142.67"/>
</a>
</g>
</g>
<!-- Node9 -->
<g id="Node000009" class="node">
<title>Node9</title>
<g id="a_Node000009"><a xlink:title=" ">
<polygon fill="#e0e0e0" stroke="#999999" points="706.12,-138.75 675.88,-138.75 675.88,-116.5 706.12,-116.5 706.12,-138.75"/>
<text text-anchor="middle" x="691" y="-125.25" font-family="Helvetica,sans-Serif" font-size="10.00">set</text>
</a>
</g>
</g>
<!-- Node8&#45;&gt;Node9 -->
<g id="edge12_Node000008_Node000009" class="edge">
<title>Node8&#45;&gt;Node9</title>
<g id="a_edge12_Node000008_Node000009"><a xlink:title=" ">
<path fill="none" stroke="#63b8ff" d="M722.66,-174.29C717.65,-167.07 710.86,-157.26 704.85,-148.59"/>
<polygon fill="#63b8ff" stroke="#63b8ff" points="707.74,-146.63 699.17,-140.4 701.99,-150.61 707.74,-146.63"/>
</a>
</g>
</g>
<!-- Node8&#45;&gt;Node10 -->
<g id="edge13_Node000008_Node000010" class="edge">
<title>Node8&#45;&gt;Node10</title>
<g id="a_edge13_Node000008_Node000010"><a xlink:title=" ">
<path fill="none" stroke="#63b8ff" d="M764.99,-174.29C794.73,-165.3 837.66,-152.32 870.15,-142.49"/>
<polygon fill="#63b8ff" stroke="#63b8ff" points="871.16,-145.84 879.72,-139.6 869.14,-139.14 871.16,-145.84"/>
</a>
</g>
</g>
<!-- Node8&#45;&gt;Node11 -->
<g id="edge14_Node000008_Node000011" class="edge">
<title>Node8&#45;&gt;Node11</title>
<g id="a_edge14_Node000008_Node000011"><a xlink:title=" ">
<path fill="none" stroke="#63b8ff" d="M730.37,-174.31C731.02,-155.73 732.38,-116.87 733.23,-92.29"/>
<polygon fill="#63b8ff" stroke="#63b8ff" points="736.73,-92.54 733.58,-82.43 729.73,-92.3 736.73,-92.54"/>
</a>
</g>
</g>
<!-- Node20 -->
<g id="Node000020" class="node">
<title>Node20</title>
<g id="a_Node000020"><a xlink:href="_math_utils_8h.html" target="_top" xlink:title=" ">
<polygon fill="white" stroke="#666666" points="548.75,-138.75 411.25,-138.75 411.25,-116.5 548.75,-116.5 548.75,-138.75"/>
<text text-anchor="middle" x="480" y="-125.25" font-family="Helvetica,sans-Serif" font-size="10.00">dpsim&#45;models/MathUtils.h</text>
</a>
</g>
</g>
<!-- Node8&#45;&gt;Node20 -->
<g id="edge24_Node000008_Node000020" class="edge">
<title>Node8&#45;&gt;Node20</title>
<g id="a_edge24_Node000008_Node000020"><a xlink:title=" ">
<path fill="none" stroke="#63b8ff" d="M682.98,-174.29C641.86,-165.04 582,-151.58 537.94,-141.66"/>
<polygon fill="#63b8ff" stroke="#63b8ff" points="538.81,-138.27 528.29,-139.49 537.28,-145.1 538.81,-138.27"/>
</a>
</g>
</g>
<!-- Node22 -->
<g id="Node000022" class="node">
<title>Node22</title>
<g id="a_Node000022"><a xlink:href="_ptr_factory_8h.html" target="_top" xlink:title=" ">
<polygon fill="white" stroke="#666666" points="199.62,-138.75 58.38,-138.75 58.38,-116.5 199.62,-116.5 199.62,-138.75"/>
<text text-anchor="middle" x="129" y="-125.25" font-family="Helvetica,sans-Serif" font-size="10.00">dpsim&#45;models/PtrFactory.h</text>
</a>
</g>
</g>
<!-- Node8&#45;&gt;Node22 -->
<g id="edge27_Node000008_Node000022" class="edge">
<title>Node8&#45;&gt;Node22</title>
<g id="a_edge27_Node000008_Node000022"><a xlink:title=" ">
<path fill="none" stroke="#63b8ff" d="M661.64,-178.48C550.47,-168.07 330.92,-147.52 211.34,-136.33"/>
<polygon fill="#63b8ff" stroke="#63b8ff" points="211.87,-132.87 201.59,-135.42 211.22,-139.84 211.87,-132.87"/>
</a>
</g>
</g>
<!-- Node11&#45;&gt;Node3 -->
<g id="edge19_Node000011_Node000003" class="edge">
<title>Node11&#45;&gt;Node3</title>
<g id="a_edge19_Node000011_Node000003"><a xlink:title=" ">
<path fill="none" stroke="#63b8ff" d="M662.21,-59.88C657.4,-59.32 652.63,-58.78 648,-58.25 507.9,-42.31 341.41,-24.3 267.13,-16.32"/>
<polygon fill="#63b8ff" stroke="#63b8ff" points="267.85,-12.88 257.53,-15.29 267.1,-19.84 267.85,-12.88"/>
</a>
</g>
</g>
<!-- Node12 -->
<g id="Node000012" class="node">
<title>Node12</title>
<g id="a_Node000012"><a xlink:title=" ">
<polygon fill="#e0e0e0" stroke="#999999" points="1066.75,-22.25 1019.25,-22.25 1019.25,0 1066.75,0 1066.75,-22.25"/>
<text text-anchor="middle" x="1043" y="-8.75" font-family="Helvetica,sans-Serif" font-size="10.00">cerrno</text>
</a>
</g>
</g>
<!-- Node11&#45;&gt;Node12 -->
<g id="edge15_Node000011_Node000012" class="edge">
<title>Node11&#45;&gt;Node12</title>
<g id="a_edge15_Node000011_Node000012"><a xlink:title=" ">
<path fill="none" stroke="#63b8ff" d="M806,-59C859.37,-51.44 934.04,-39.6 1008.04,-22.47"/>
<polygon fill="#63b8ff" stroke="#63b8ff" points="1008.54,-25.95 1017.48,-20.25 1006.94,-19.13 1008.54,-25.95"/>
</a>
</g>
</g>
<!-- Node13 -->
<g id="Node000013" class="node">
<title>Node13</title>
<g id="a_Node000013"><a xlink:title=" ">
<polygon fill="#e0e0e0" stroke="#999999" points="504.25,-22.25 459.75,-22.25 459.75,0 504.25,0 504.25,-22.25"/>
<text text-anchor="middle" x="482" y="-8.75" font-family="Helvetica,sans-Serif" font-size="10.00">cmath</text>
</a>
</g>
</g>
<!-- Node11&#45;&gt;Node13 -->
<g id="edge16_Node000011_Node000013" class="edge">
<title>Node11&#45;&gt;Node13</title>
<g id="a_edge16_Node000011_Node000013"><a xlink:title=" ">
<path fill="none" stroke="#63b8ff" d="M674.49,-57.79C632.39,-49.89 574.43,-38.17 515.59,-22.75"/>
<polygon fill="#63b8ff" stroke="#63b8ff" points="516.63,-19.4 506.06,-20.21 514.83,-26.17 516.63,-19.4"/>
</a>
</g>
</g>
<!-- Node14 -->
<g id="Node000014" class="node">
<title>Node14</title>
<g id="a_Node000014"><a xlink:title=" ">
<polygon fill="#e0e0e0" stroke="#999999" points="576.12,-22.25 521.88,-22.25 521.88,0 576.12,0 576.12,-22.25"/>
<text text-anchor="middle" x="549" y="-8.75" font-family="Helvetica,sans-Serif" font-size="10.00">complex</text>
</a>
</g>
</g>
<!-- Node11&#45;&gt;Node14 -->
<g id="edge17_Node000011_Node000014" class="edge">
<title>Node11&#45;&gt;Node14</title>
<g id="a_edge17_Node000011_Node000014"><a xlink:title=" ">
<path fill="none" stroke="#63b8ff" d="M699.2,-57.79C667.37,-48.12 620.35,-33.82 587.43,-23.81"/>
<polygon fill="#63b8ff" stroke="#63b8ff" points="588.45,-20.46 577.86,-20.9 586.41,-27.16 588.45,-20.46"/>
</a>
</g>
</g>
<!-- Node15 -->
<g id="Node000015" class="node">
<title>Node15</title>
<g id="a_Node000015"><a xlink:title=" ">
<polygon fill="#e0e0e0" stroke="#999999" points="655.5,-22.25 594.5,-22.25 594.5,0 655.5,0 655.5,-22.25"/>
<text text-anchor="middle" x="625" y="-8.75" font-family="Helvetica,sans-Serif" font-size="10.00">exception</text>
</a>
</g>
</g>
<!-- Node11&#45;&gt;Node15 -->
<g id="edge18_Node000011_Node000015" class="edge">
<title>Node11&#45;&gt;Node15</title>
<g id="a_edge18_Node000011_Node000015"><a xlink:title=" ">
<path fill="none" stroke="#63b8ff" d="M713.5,-57.79C697.13,-49.35 673.95,-37.39 655.42,-27.83"/>
<polygon fill="#63b8ff" stroke="#63b8ff" points="657.25,-24.83 646.76,-23.35 654.04,-31.05 657.25,-24.83"/>
</a>
</g>
</g>
<!-- Node16 -->
<g id="Node000016" class="node">
<title>Node16</title>
<g id="a_Node000016"><a xlink:title=" ">
<polygon fill="#e0e0e0" stroke="#999999" points="716.5,-22.25 673.5,-22.25 673.5,0 716.5,0 716.5,-22.25"/>
<text text-anchor="middle" x="695" y="-8.75" font-family="Helvetica,sans-Serif" font-size="10.00">string</text>
</a>
</g>
</g>
<!-- Node11&#45;&gt;Node16 -->
<g id="edge20_Node000011_Node000016" class="edge">
<title>Node11&#45;&gt;Node16</title>
<g id="a_edge20_Node000011_Node000016"><a xlink:title=" ">
<path fill="none" stroke="#63b8ff" d="M726.66,-57.79C721.65,-50.57 714.86,-40.76 708.85,-32.09"/>
<polygon fill="#63b8ff" stroke="#63b8ff" points="711.74,-30.13 703.17,-23.9 705.99,-34.11 711.74,-30.13"/>
</a>
</g>
</g>
<!-- Node17 -->
<g id="Node000017" class="node">
<title>Node17</title>
<g id="a_Node000017"><a xlink:title=" ">
<polygon fill="#e0e0e0" stroke="#999999" points="813.12,-22.25 734.88,-22.25 734.88,0 813.12,0 813.12,-22.25"/>
<text text-anchor="middle" x="774" y="-8.75" font-family="Helvetica,sans-Serif" font-size="10.00">system_error</text>
</a>
</g>
</g>
<!-- Node11&#45;&gt;Node17 -->
<g id="edge21_Node000011_Node000017" class="edge">
<title>Node11&#45;&gt;Node17</title>
<g id="a_edge21_Node000011_Node000017"><a xlink:title=" ">
<path fill="none" stroke="#63b8ff" d="M741.52,-57.79C746.72,-50.49 753.79,-40.55 760,-31.81"/>
<polygon fill="#63b8ff" stroke="#63b8ff" points="762.69,-34.07 765.63,-23.89 756.99,-30.01 762.69,-34.07"/>
</a>
</g>
</g>
<!-- Node18 -->
<g id="Node000018" class="node">
<title>Node18</title>
<g id="a_Node000018"><a xlink:title=" ">
<polygon fill="#e0e0e0" stroke="#999999" points="906.62,-22.25 831.38,-22.25 831.38,0 906.62,0 906.62,-22.25"/>
<text text-anchor="middle" x="869" y="-8.75" font-family="Helvetica,sans-Serif" font-size="10.00">Eigen/Dense</text>
</a>
</g>
</g>
<!-- Node11&#45;&gt;Node18 -->
<g id="edge22_Node000011_Node000018" class="edge">
<title>Node11&#45;&gt;Node18</title>
<g id="a_edge22_Node000011_Node000018"><a xlink:title=" ">
<path fill="none" stroke="#63b8ff" d="M759.39,-57.79C780.23,-49.11 809.98,-36.72 833.23,-27.03"/>
<polygon fill="#63b8ff" stroke="#63b8ff" points="834.44,-30.32 842.32,-23.24 831.75,-23.86 834.44,-30.32"/>
</a>
</g>
</g>
<!-- Node19 -->
<g id="Node000019" class="node">
<title>Node19</title>
<g id="a_Node000019"><a xlink:title=" ">
<polygon fill="#e0e0e0" stroke="#999999" points="1001.38,-22.25 924.62,-22.25 924.62,0 1001.38,0 1001.38,-22.25"/>
<text text-anchor="middle" x="963" y="-8.75" font-family="Helvetica,sans-Serif" font-size="10.00">Eigen/Sparse</text>
</a>
</g>
</g>
<!-- Node11&#45;&gt;Node19 -->
<g id="edge23_Node000011_Node000019" class="edge">
<title>Node11&#45;&gt;Node19</title>
<g id="a_edge23_Node000011_Node000019"><a xlink:title=" ">
<path fill="none" stroke="#63b8ff" d="M777.07,-57.79C815.8,-48.28 872.67,-34.31 913.31,-24.33"/>
<polygon fill="#63b8ff" stroke="#63b8ff" points="913.97,-27.77 922.84,-21.99 912.3,-20.98 913.97,-27.77"/>
</a>
</g>
</g>
<!-- Node20&#45;&gt;Node11 -->
<g id="edge26_Node000020_Node000011" class="edge">
<title>Node20&#45;&gt;Node11</title>
<g id="a_edge26_Node000020_Node000011"><a xlink:title=" ">
<path fill="none" stroke="#63b8ff" d="M527.78,-116.04C569.64,-106.77 630.62,-93.27 675.42,-83.35"/>
<polygon fill="#63b8ff" stroke="#63b8ff" points="675.95,-86.81 684.96,-81.24 674.44,-79.98 675.95,-86.81"/>
</a>
</g>
</g>
<!-- Node21 -->
<g id="Node000021" class="node">
<title>Node21</title>
<g id="a_Node000021"><a xlink:title=" ">
<polygon fill="#e0e0e0" stroke="#999999" points="399.75,-80.5 358.25,-80.5 358.25,-58.25 399.75,-58.25 399.75,-80.5"/>
<text text-anchor="middle" x="379" y="-67" font-family="Helvetica,sans-Serif" font-size="10.00">utility</text>
</a>
</g>
</g>
<!-- Node20&#45;&gt;Node21 -->
<g id="edge25_Node000020_Node000021" class="edge">
<title>Node20&#45;&gt;Node21</title>
<g id="a_edge25_Node000020_Node000021"><a xlink:title=" ">
<path fill="none" stroke="#63b8ff" d="M461,-116.04C446.05,-107.72 424.96,-95.97 407.91,-86.48"/>
<polygon fill="#63b8ff" stroke="#63b8ff" points="409.67,-83.45 399.23,-81.64 406.27,-89.57 409.67,-83.45"/>
</a>
</g>
</g>
<!-- Node22&#45;&gt;Node3 -->
<g id="edge28_Node000022_Node000003" class="edge">
<title>Node22&#45;&gt;Node3</title>
<g id="a_edge28_Node000022_Node000003"><a xlink:title=" ">
<path fill="none" stroke="#63b8ff" d="M138.14,-116.06C154.86,-96.72 190.6,-55.38 211.62,-31.07"/>
<polygon fill="#63b8ff" stroke="#63b8ff" points="214,-33.66 217.9,-23.81 208.71,-29.09 214,-33.66"/>
</a>
</g>
</g>
<!-- Node22&#45;&gt;Node21 -->
<g id="edge29_Node000022_Node000021" class="edge">
<title>Node22&#45;&gt;Node21</title>
<g id="a_edge29_Node000022_Node000021"><a xlink:title=" ">
<path fill="none" stroke="#63b8ff" d="M176.02,-116.04C225.91,-104.82 303.37,-87.39 346.76,-77.63"/>
<polygon fill="#63b8ff" stroke="#63b8ff" points="347.32,-81.09 356.3,-75.48 345.78,-74.26 347.32,-81.09"/>
</a>
</g>
</g>
<!-- Node23&#45;&gt;Node11 -->
<g id="edge34_Node000023_Node000011" class="edge">
<title>Node23&#45;&gt;Node11</title>
<g id="a_edge34_Node000023_Node000011"><a xlink:title=" ">
<path fill="none" stroke="#63b8ff" d="M759.46,-291.14C761.73,-277.32 766.93,-252.2 777,-233 786.67,-214.55 799.91,-216.58 807,-197 810.37,-187.7 809.97,-184.18 807,-174.75 796.33,-140.88 770.33,-108.44 752.42,-88.96"/>
<polygon fill="#63b8ff" stroke="#63b8ff" points="755.08,-86.67 745.66,-81.82 750,-91.48 755.08,-86.67"/>
</a>
</g>
</g>
<!-- Node23&#45;&gt;Node24 -->
<g id="edge35_Node000023_Node000024" class="edge">
<title>Node23&#45;&gt;Node24</title>
<g id="a_edge35_Node000023_Node000024"><a xlink:title=" ">
<path fill="none" stroke="#63b8ff" d="M700.9,-291.64C645.7,-282.23 561.81,-267.93 501.62,-257.67"/>
<polygon fill="#63b8ff" stroke="#63b8ff" points="502.23,-254.23 491.79,-256 501.06,-261.13 502.23,-254.23"/>
</a>
</g>
</g>
<!-- Node24&#45;&gt;Node3 -->
<g id="edge36_Node000024_Node000003" class="edge">
<title>Node24&#45;&gt;Node3</title>
<g id="a_edge36_Node000024_Node000003"><a xlink:title=" ">
<path fill="none" stroke="#63b8ff" d="M365.5,-234.9C319.55,-227.49 262.52,-214.99 247,-197 207.04,-150.69 215.85,-71.59 223.1,-33.65"/>
<polygon fill="#63b8ff" stroke="#63b8ff" points="226.51,-34.46 225.12,-23.96 219.66,-33.03 226.51,-34.46"/>
</a>
</g>
</g>
<!-- Node24&#45;&gt;Node8 -->
<g id="edge40_Node000024_Node000008" class="edge">
<title>Node24&#45;&gt;Node8</title>
<g id="a_edge40_Node000024_Node000008"><a xlink:title=" ">
<path fill="none" stroke="#63b8ff" d="M484.8,-232.54C535.13,-223.17 608.7,-209.47 662.12,-199.52"/>
<polygon fill="#63b8ff" stroke="#63b8ff" points="662.52,-203 671.71,-197.73 661.23,-196.12 662.52,-203"/>
</a>
</g>
</g>
<!-- Node24&#45;&gt;Node11 -->
<g id="edge41_Node000024_Node000011" class="edge">
<title>Node24&#45;&gt;Node11</title>
<g id="a_edge41_Node000024_Node000011"><a xlink:title=" ">
<path fill="none" stroke="#63b8ff" d="M448.76,-232.57C466.68,-223.38 493.2,-209.59 516,-197 585.26,-158.76 665.4,-111.39 706.53,-86.85"/>
<polygon fill="#63b8ff" stroke="#63b8ff" points="708.26,-89.89 715.05,-81.76 704.67,-83.88 708.26,-89.89"/>
</a>
</g>
</g>
<!-- Node24&#45;&gt;Node20 -->
<g id="edge42_Node000024_Node000020" class="edge">
<title>Node24&#45;&gt;Node20</title>
<g id="a_edge42_Node000024_Node000020"><a xlink:title=" ">
<path fill="none" stroke="#63b8ff" d="M457.16,-232.57C472.88,-225.2 490.88,-213.67 500,-197 508.32,-181.78 501.52,-162.72 493.67,-148.59"/>
<polygon fill="#63b8ff" stroke="#63b8ff" points="496.72,-146.85 488.49,-140.18 490.76,-150.53 496.72,-146.85"/>
</a>
</g>
</g>
<!-- Node25 -->
<g id="Node000025" class="node">
<title>Node25</title>
<g id="a_Node000025"><a xlink:title=" ">
<polygon fill="#e0e0e0" stroke="#999999" points="346.12,-197 255.88,-197 255.88,-174.75 346.12,-174.75 346.12,-197"/>
<text text-anchor="middle" x="301" y="-183.5" font-family="Helvetica,sans-Serif" font-size="10.00">spdlog/spdlog.h</text>
</a>
</g>
</g>
<!-- Node24&#45;&gt;Node25 -->
<g id="edge37_Node000024_Node000025" class="edge">
<title>Node24&#45;&gt;Node25</title>
<g id="a_edge37_Node000024_Node000025"><a xlink:title=" ">
<path fill="none" stroke="#63b8ff" d="M404.11,-232.54C384.69,-223.94 357.03,-211.69 335.25,-202.04"/>
<polygon fill="#63b8ff" stroke="#63b8ff" points="336.73,-198.87 326.16,-198.02 333.89,-205.27 336.73,-198.87"/>
</a>
</g>
</g>
<!-- Node26 -->
<g id="Node000026" class="node">
<title>Node26</title>
<g id="a_Node000026"><a xlink:title=" ">
<polygon fill="#e0e0e0" stroke="#999999" points="491.5,-197 364.5,-197 364.5,-174.75 491.5,-174.75 491.5,-197"/>
<text text-anchor="middle" x="428" y="-183.5" font-family="Helvetica,sans-Serif" font-size="10.00">spdlog/sinks/file_sinks.h</text>
</a>
</g>
</g>
<!-- Node24&#45;&gt;Node26 -->
<g id="edge38_Node000024_Node000026" class="edge">
<title>Node24&#45;&gt;Node26</title>
<g id="a_edge38_Node000024_Node000026"><a xlink:title=" ">
<path fill="none" stroke="#63b8ff" d="M428,-232.54C428,-225.87 428,-216.99 428,-208.84"/>
<polygon fill="#63b8ff" stroke="#63b8ff" points="431.5,-208.92 428,-198.92 424.5,-208.92 431.5,-208.92"/>
</a>
</g>
</g>
<!-- Node27 -->
<g id="Node000027" class="node">
<title>Node27</title>
<g id="a_Node000027"><a xlink:title=" ">
<polygon fill="#e0e0e0" stroke="#999999" points="200.12,-197 103.88,-197 103.88,-174.75 200.12,-174.75 200.12,-197"/>
<text text-anchor="middle" x="152" y="-183.5" font-family="Helvetica,sans-Serif" font-size="10.00">spdlog/fmt/ostr.h</text>
</a>
</g>
</g>
<!-- Node24&#45;&gt;Node27 -->
<g id="edge39_Node000024_Node000027" class="edge">
<title>Node24&#45;&gt;Node27</title>
<g id="a_edge39_Node000024_Node000027"><a xlink:title=" ">
<path fill="none" stroke="#63b8ff" d="M376.09,-232.54C329.29,-223.01 260.52,-208.99 211.51,-199"/>
<polygon fill="#63b8ff" stroke="#63b8ff" points="212.42,-195.62 201.93,-197.05 211.03,-202.48 212.42,-195.62"/>
</a>
</g>
</g>
<!-- Node28&#45;&gt;Node6 -->
<g id="edge45_Node000028_Node000006" class="edge">
<title>Node28&#45;&gt;Node6</title>
<g id="a_edge45_Node000028_Node000006"><a xlink:title=" ">
<path fill="none" stroke="#63b8ff" d="M645.3,-407.35C672.87,-397.48 706.8,-385.33 732.75,-376.04"/>
<polygon fill="#63b8ff" stroke="#63b8ff" points="733.68,-379.42 741.92,-372.75 731.32,-372.83 733.68,-379.42"/>
</a>
</g>
</g>
<!-- Node28&#45;&gt;Node20 -->
<g id="edge46_Node000028_Node000020" class="edge">
<title>Node28&#45;&gt;Node20</title>
<g id="a_edge46_Node000028_Node000020"><a xlink:title=" ">
<path fill="none" stroke="#63b8ff" d="M596,-407.27C596,-383.59 596,-340.33 596,-303.38 596,-303.38 596,-303.38 596,-243.12 596,-196.71 548.38,-162.77 514.16,-144.37"/>
<polygon fill="#63b8ff" stroke="#63b8ff" points="515.87,-141.32 505.38,-139.85 512.67,-147.54 515.87,-141.32"/>
</a>
</g>
</g>
<!-- Node28&#45;&gt;Node22 -->
<g id="edge47_Node000028_Node000022" class="edge">
<title>Node28&#45;&gt;Node22</title>
<g id="a_edge47_Node000028_Node000022"><a xlink:title=" ">
<path fill="none" stroke="#63b8ff" d="M527.96,-417.06C415.06,-399.8 191.84,-347.47 95,-197 84.66,-180.94 96.73,-161.29 109.26,-147.19"/>
<polygon fill="#63b8ff" stroke="#63b8ff" points="111.48,-149.94 115.88,-140.3 106.43,-145.09 111.48,-149.94"/>
</a>
</g>
</g>
<!-- Node29&#45;&gt;Node6 -->
<g id="edge49_Node000029_Node000006" class="edge">
<title>Node29&#45;&gt;Node6</title>
<g id="a_edge49_Node000029_Node000006"><a xlink:title=" ">
<path fill="none" stroke="#63b8ff" d="M689.35,-480.01C707.32,-454.59 740.53,-407.58 759.25,-381.09"/>
<polygon fill="#63b8ff" stroke="#63b8ff" points="761.87,-383.45 764.78,-373.26 756.15,-379.41 761.87,-383.45"/>
</a>
</g>
</g>
<!-- Node29&#45;&gt;Node22 -->
<g id="edge50_Node000029_Node000022" class="edge">
<title>Node29&#45;&gt;Node22</title>
<g id="a_edge50_Node000029_Node000022"><a xlink:title=" ">
<path fill="none" stroke="#63b8ff" d="M608.92,-486.59C444.27,-459.74 38,-390.56 38,-361.62 38,-361.62 38,-361.62 38,-243.12 38,-201.06 76.1,-165.49 103,-145.62"/>
<polygon fill="#63b8ff" stroke="#63b8ff" points="104.94,-148.54 111.07,-139.91 100.89,-142.83 104.94,-148.54"/>
</a>
</g>
</g>
<!-- Node29&#45;&gt;Node28 -->
<g id="edge51_Node000029_Node000028" class="edge">
<title>Node29&#45;&gt;Node28</title>
<g id="a_edge51_Node000029_Node000028"><a xlink:title=" ">
<path fill="none" stroke="#63b8ff" d="M656.98,-480.07C647.32,-471.66 635.54,-461.42 624.93,-452.18"/>
<polygon fill="#63b8ff" stroke="#63b8ff" points="627.34,-449.64 617.5,-445.71 622.74,-454.92 627.34,-449.64"/>
</a>
</g>
</g>
</g>
</svg>

<g id="navigator" transform="translate(0 0)" fill="#404254">
  <rect fill="#f2f5e9" fill-opacity="0.5" stroke="#606060" stroke-width=".5" x="0" y="0" width="60" height="60"/>
  <use id="zoomplus" xlink:href="#zoomPlus" x="17" y="9" onmousedown="handleZoom(evt,'in')"/>
  <use id="zoomminus" xlink:href="#zoomMin" x="42" y="9" onmousedown="handleZoom(evt,'out')"/>
  <use id="reset" xlink:href="#resetDef" x="30" y="36" onmousedown="handleReset()"/>
   <use id="arrowup" xlink:href="#arrowUp" x="0" y="0" onmousedown="handlePan(0,-1)"/>
  <use id="arrowright" xlink:href="#arrowRight" x="0" y="0" onmousedown="handlePan(1,0)"/>
  <use id="arrowdown" xlink:href="#arrowDown" x="0" y="0" onmousedown="handlePan(0,1)"/>
  <use id="arrowleft" xlink:href="#arrowLeft" x="0" y="0" onmousedown="handlePan(-1,0)"/>
</g>
<svg viewBox="0 0 15 15" width="100%" height="30px" preserveAspectRatio="xMaxYMin meet">
 <g id="arrow_out" transform="scale(0.3 0.3)">
  <a xlink:href="_topological_power_comp_8h__incl_org.svg" target="_base">
   <rect id="button" ry="5" rx="5" y="6" x="6" height="38" width="38"
        fill="#f2f5e9" fill-opacity="0.5" stroke="#606060" stroke-width="1.0"/>
   <path id="arrow"
     d="M 11.500037,31.436501 C 11.940474,20.09759 22.043105,11.32322 32.158766,21.979434 L 37.068811,17.246167 C 37.068811,17.246167 37.088388,32 37.088388,32 L 22.160133,31.978069 C 22.160133,31.978069 26.997745,27.140456 26.997745,27.140456 C 18.528582,18.264221 13.291696,25.230495 11.500037,31.436501 z"
     style="fill:#404040;"/>
  </a>
 </g>
</svg>

<style type='text/css'>
<![CDATA[
[data-mouse-over-selected='false'] { opacity: 0.7; }
[data-mouse-over-selected='true']  { opacity: 1.0; }
]]>
</style>
<script type="application/ecmascript"><![CDATA[
document.addEventListener('DOMContentLoaded', (event) => {
  highlightEdges();
  highlightAdjacentNodes();
});
]]></script>
</svg>
