<?xml version="1.0" encoding="UTF-8" standalone="no"?>
<!DOCTYPE svg PUBLIC "-//W3C//DTD SVG 1.1//EN"
 "http://www.w3.org/Graphics/SVG/1.1/DTD/svg11.dtd">
<!-- Generated by graphviz version 12.2.1 (20241206.2353)
 -->
<!-- Title: CPS::TopologicalNode Pages: 1 -->
<svg width="885pt" height="243pt"
 viewBox="0.00 0.00 885.00 242.66" xmlns="http://www.w3.org/2000/svg" xmlns:xlink="http://www.w3.org/1999/xlink">
<g id="graph0" class="graph" transform="scale(1 1) rotate(0) translate(4 238.66)">
<title>CPS::TopologicalNode</title>
<!-- Node1 -->
<g id="Node000001" class="node">
<title>Node1</title>
<g id="a_Node000001"><a xlink:title=" ">
<polygon fill="#999999" stroke="#666666" points="877,-109.41 761.25,-109.41 761.25,-87.16 877,-87.16 877,-109.41"/>
<text text-anchor="middle" x="819.12" y="-95.91" font-family="Helvetica,sans-Serif" font-size="10.00">CPS::TopologicalNode</text>
</a>
</g>
</g>
<!-- Node2 -->
<g id="Node000002" class="node">
<title>Node2</title>
<g id="a_Node000002"><a xlink:href="class_c_p_s_1_1_identified_object.html" target="_top" xlink:title=" ">
<polygon fill="white" stroke="#666666" points="724.25,-147.41 609.25,-147.41 609.25,-125.16 724.25,-125.16 724.25,-147.41"/>
<text text-anchor="middle" x="666.75" y="-133.91" font-family="Helvetica,sans-Serif" font-size="10.00">CPS::IdentifiedObject</text>
</a>
</g>
</g>
<!-- Node2&#45;&gt;Node1 -->
<g id="edge1_Node000001_Node000002" class="edge">
<title>Node2&#45;&gt;Node1</title>
<g id="a_edge1_Node000001_Node000002"><a xlink:title=" ">
<path fill="none" stroke="#63b8ff" d="M724.85,-121.86C740.5,-117.9 757.27,-113.66 772.21,-109.89"/>
<polygon fill="#63b8ff" stroke="#63b8ff" points="723.99,-118.46 715.15,-124.31 725.7,-125.25 723.99,-118.46"/>
</a>
</g>
</g>
<!-- Node3 -->
<g id="Node000003" class="node">
<title>Node3</title>
<g id="a_Node000003"><a xlink:href="class_c_p_s_1_1_attribute.html" target="_top" xlink:title=" ">
<polygon fill="white" stroke="#666666" points="519.62,-152.41 393.38,-152.41 393.38,-130.16 519.62,-130.16 519.62,-152.41"/>
<text text-anchor="middle" x="456.5" y="-138.91" font-family="Helvetica,sans-Serif" font-size="10.00">CPS::Attribute&lt; String &gt;</text>
</a>
</g>
</g>
<!-- Node3&#45;&gt;Node2 -->
<g id="edge2_Node000002_Node000003" class="edge">
<title>Node3&#45;&gt;Node2</title>
<g id="a_edge2_Node000002_Node000003"><a xlink:title=" ">
<path fill="none" stroke="#9a32cd" stroke-dasharray="5,2" d="M531.48,-139.51C556.97,-138.9 585.1,-138.22 608.99,-137.65"/>
<polygon fill="#9a32cd" stroke="#9a32cd" points="531.41,-136.01 521.49,-139.75 531.58,-143.01 531.41,-136.01"/>
</a>
</g>
<text text-anchor="middle" x="571.75" y="-157.93" font-family="Helvetica,sans-Serif" font-size="10.00" fill="grey"> mName</text>
<text text-anchor="middle" x="571.75" y="-143.68" font-family="Helvetica,sans-Serif" font-size="10.00" fill="grey">mUID</text>
</g>
<!-- Node4 -->
<g id="Node000004" class="node">
<title>Node4</title>
<g id="a_Node000004"><a xlink:href="class_c_p_s_1_1_attribute_base.html" target="_top" xlink:title=" ">
<polygon fill="white" stroke="#666666" points="109.75,-149.41 5.25,-149.41 5.25,-127.16 109.75,-127.16 109.75,-149.41"/>
<text text-anchor="middle" x="57.5" y="-135.91" font-family="Helvetica,sans-Serif" font-size="10.00">CPS::AttributeBase</text>
</a>
</g>
</g>
<!-- Node4&#45;&gt;Node3 -->
<g id="edge3_Node000003_Node000004" class="edge">
<title>Node4&#45;&gt;Node3</title>
<g id="a_edge3_Node000003_Node000004"><a xlink:title=" ">
<path fill="none" stroke="#63b8ff" d="M121.7,-140.98C125.52,-141.09 129.31,-141.2 133,-141.28 223.4,-143.4 328.09,-142.85 393.06,-142.15"/>
<polygon fill="#63b8ff" stroke="#63b8ff" points="121.82,-137.48 111.71,-140.64 121.58,-144.47 121.82,-137.48"/>
</a>
</g>
</g>
<!-- Node6 -->
<g id="Node000006" class="node">
<title>Node6</title>
<g id="a_Node000006"><a xlink:href="class_c_p_s_1_1_attribute.html" target="_top" xlink:title=" ">
<polygon fill="white" stroke="#666666" points="261.38,-127.41 157.62,-127.41 157.62,-105.16 261.38,-105.16 261.38,-127.41"/>
<text text-anchor="middle" x="209.5" y="-113.91" font-family="Helvetica,sans-Serif" font-size="10.00">CPS::Attribute&lt; T &gt;</text>
</a>
</g>
</g>
<!-- Node4&#45;&gt;Node6 -->
<g id="edge6_Node000006_Node000004" class="edge">
<title>Node4&#45;&gt;Node6</title>
<g id="a_edge6_Node000006_Node000004"><a xlink:title=" ">
<path fill="none" stroke="#63b8ff" d="M121.42,-129.06C133.37,-127.3 145.75,-125.49 157.29,-123.79"/>
<polygon fill="#63b8ff" stroke="#63b8ff" points="121.01,-125.58 111.62,-130.49 122.02,-132.51 121.01,-125.58"/>
</a>
</g>
</g>
<!-- Node8 -->
<g id="Node000008" class="node">
<title>Node8</title>
<g id="a_Node000008"><a xlink:href="class_c_p_s_1_1_attribute.html" target="_top" xlink:title=" ">
<polygon fill="white" stroke="#666666" points="534.25,-84.41 378.75,-84.41 378.75,-62.16 534.25,-62.16 534.25,-84.41"/>
<text text-anchor="middle" x="456.5" y="-70.91" font-family="Helvetica,sans-Serif" font-size="10.00">CPS::Attribute&lt; MatrixComp &gt;</text>
</a>
</g>
</g>
<!-- Node4&#45;&gt;Node8 -->
<g id="edge9_Node000008_Node000004" class="edge">
<title>Node4&#45;&gt;Node8</title>
<g id="a_edge9_Node000008_Node000004"><a xlink:title=" ">
<path fill="none" stroke="#63b8ff" d="M111.14,-120.65C112.49,-119.59 113.78,-118.47 115,-117.28 146.57,-86.54 115.48,-49.96 152,-25.28 243.28,36.39 384.78,-32.67 436.08,-61.68"/>
<polygon fill="#63b8ff" stroke="#63b8ff" points="109.36,-117.63 102.8,-125.95 113.12,-123.54 109.36,-117.63"/>
</a>
</g>
</g>
<!-- Node5 -->
<g id="Node000005" class="node">
<title>Node5</title>
<g id="a_Node000005"><a xlink:title=" ">
<polygon fill="white" stroke="#bfbfbf" points="267,-234.66 152,-234.66 152,-183.91 267,-183.91 267,-234.66"/>
<text text-anchor="start" x="160" y="-221.16" font-family="Helvetica,sans-Serif" font-size="10.00">std::enable_shared</text>
<text text-anchor="start" x="160" y="-206.91" font-family="Helvetica,sans-Serif" font-size="10.00">_from_this&lt; Attribute</text>
<text text-anchor="middle" x="209.5" y="-192.66" font-family="Helvetica,sans-Serif" font-size="10.00">&lt; String &gt; &gt;</text>
</a>
</g>
</g>
<!-- Node5&#45;&gt;Node3 -->
<g id="edge4_Node000003_Node000005" class="edge">
<title>Node5&#45;&gt;Node3</title>
<g id="a_edge4_Node000003_Node000005"><a xlink:title=" ">
<path fill="none" stroke="#63b8ff" d="M278.22,-192.37C304.1,-185.73 333.86,-177.89 360.75,-170.28 380.12,-164.81 401.57,-158.28 419.16,-152.81"/>
<polygon fill="#63b8ff" stroke="#63b8ff" points="277.67,-188.9 268.84,-194.76 279.4,-195.68 277.67,-188.9"/>
</a>
</g>
</g>
<!-- Node6&#45;&gt;Node3 -->
<g id="edge5_Node000003_Node000006" class="edge">
<title>Node6&#45;&gt;Node3</title>
<g id="a_edge5_Node000003_Node000006"><a xlink:title=" ">
<path fill="none" stroke="orange" stroke-dasharray="5,2" d="M272.94,-120.31C299.98,-122.28 331.96,-124.9 360.75,-128.03 371.15,-129.17 382.17,-130.55 392.88,-131.98"/>
<polygon fill="orange" stroke="orange" points="273.42,-116.84 263.2,-119.62 272.92,-123.82 273.42,-116.84"/>
</a>
</g>
<text text-anchor="middle" x="322.88" y="-132.78" font-family="Helvetica,sans-Serif" font-size="10.00" fill="grey"> &lt; String &gt;</text>
</g>
<!-- Node6&#45;&gt;Node8 -->
<g id="edge11_Node000008_Node000006" class="edge">
<title>Node6&#45;&gt;Node8</title>
<g id="a_edge11_Node000008_Node000006"><a xlink:title=" ">
<path fill="none" stroke="orange" stroke-dasharray="5,2" d="M272.77,-105.19C276.91,-104.46 281.01,-103.74 285,-103.03 319.18,-97.01 357.22,-90.37 388.69,-84.89"/>
<polygon fill="orange" stroke="orange" points="272.52,-101.68 263.28,-106.87 273.74,-108.58 272.52,-101.68"/>
</a>
</g>
<text text-anchor="middle" x="322.88" y="-107.78" font-family="Helvetica,sans-Serif" font-size="10.00" fill="grey"> &lt; MatrixComp &gt;</text>
</g>
<!-- Node7 -->
<g id="Node000007" class="node">
<title>Node7</title>
<g id="a_Node000007"><a xlink:title=" ">
<polygon fill="white" stroke="#bfbfbf" points="115,-108.66 0,-108.66 0,-57.91 115,-57.91 115,-108.66"/>
<text text-anchor="start" x="8" y="-95.16" font-family="Helvetica,sans-Serif" font-size="10.00">std::enable_shared</text>
<text text-anchor="start" x="8" y="-80.91" font-family="Helvetica,sans-Serif" font-size="10.00">_from_this&lt; Attribute</text>
<text text-anchor="middle" x="57.5" y="-66.66" font-family="Helvetica,sans-Serif" font-size="10.00">&lt; T &gt; &gt;</text>
</a>
</g>
</g>
<!-- Node7&#45;&gt;Node6 -->
<g id="edge7_Node000006_Node000007" class="edge">
<title>Node7&#45;&gt;Node6</title>
<g id="a_edge7_Node000006_Node000007"><a xlink:title=" ">
<path fill="none" stroke="#63b8ff" d="M126.33,-98.21C136.68,-100.48 147.22,-102.8 157.14,-104.98"/>
<polygon fill="#63b8ff" stroke="#63b8ff" points="127.21,-94.82 116.69,-96.09 125.7,-101.65 127.21,-94.82"/>
</a>
</g>
</g>
<!-- Node8&#45;&gt;Node1 -->
<g id="edge8_Node000001_Node000008" class="edge">
<title>Node8&#45;&gt;Node1</title>
<g id="a_edge8_Node000001_Node000008"><a xlink:title=" ">
<path fill="none" stroke="#9a32cd" stroke-dasharray="5,2" d="M545.81,-79.41C612.81,-84.05 702.97,-90.3 760.83,-94.31"/>
<polygon fill="#9a32cd" stroke="#9a32cd" points="546.15,-75.92 535.93,-78.72 545.66,-82.9 546.15,-75.92"/>
</a>
</g>
<text text-anchor="middle" x="666.75" y="-96.37" font-family="Helvetica,sans-Serif" font-size="10.00" fill="grey"> mInitialVoltage</text>
</g>
<!-- Node9 -->
<g id="Node000009" class="node">
<title>Node9</title>
<g id="a_Node000009"><a xlink:title=" ">
<polygon fill="white" stroke="#bfbfbf" points="267,-84.66 152,-84.66 152,-33.91 267,-33.91 267,-84.66"/>
<text text-anchor="start" x="160" y="-71.16" font-family="Helvetica,sans-Serif" font-size="10.00">std::enable_shared</text>
<text text-anchor="start" x="160" y="-56.91" font-family="Helvetica,sans-Serif" font-size="10.00">_from_this&lt; Attribute</text>
<text text-anchor="middle" x="209.5" y="-42.66" font-family="Helvetica,sans-Serif" font-size="10.00">&lt; MatrixComp &gt; &gt;</text>
</a>
</g>
</g>
<!-- Node9&#45;&gt;Node8 -->
<g id="edge10_Node000008_Node000009" class="edge">
<title>Node9&#45;&gt;Node8</title>
<g id="a_edge10_Node000008_Node000009"><a xlink:title=" ">
<path fill="none" stroke="#63b8ff" d="M278.48,-63.17C309.55,-64.94 346.49,-67.06 378.57,-68.89"/>
<polygon fill="#63b8ff" stroke="#63b8ff" points="279.02,-59.69 268.83,-62.62 278.62,-66.68 279.02,-59.69"/>
</a>
</g>
</g>
</g>
</svg>
