<?xml version="1.0" encoding="UTF-8" standalone="no"?>
<!DOCTYPE svg PUBLIC "-//W3C//DTD SVG 1.1//EN"
 "http://www.w3.org/Graphics/SVG/1.1/DTD/svg11.dtd">
<!-- Generated by graphviz version 12.2.1 (20241206.2353)
 -->
<!-- Title: CPS::MNAVariableCompInterface Pages: 1 -->
<!--zoomable 1039 -->

<svg id="main" version="1.1" xmlns="http://www.w3.org/2000/svg" xmlns:xlink="http://www.w3.org/1999/xlink" xml:space="preserve" onload="init(evt)">

<style type="text/css"><![CDATA[
.node, .edge {opacity: 0.7;}
.node.selected, .edge.selected {opacity: 1;}
.edge:hover path { stroke: red; }
.edge:hover polygon { stroke: red; fill: red; }
]]></style>

<defs>
  <circle id="rim" cx="0" cy="0" r="7"/>
  <circle id="rim2" cx="0" cy="0" r="3.5"/>
  <g id="zoomPlus">
    <use xlink:href="#rim" fill="#404040"><set attributeName="fill" to="#808080" begin="zoomplus.mouseover" end="zoomplus.mouseout"/></use>
    <path d="M-4,0h8M0,-4v8" fill="none" stroke="white" stroke-width="1.5" pointer-events="none"/>
  </g>
  <g id="zoomMin">
    <use xlink:href="#rim" fill="#404040"><set attributeName="fill" to="#808080" begin="zoomminus.mouseover" end="zoomminus.mouseout"/></use>
    <path d="M-4,0h8" fill="none" stroke="white" stroke-width="1.5" pointer-events="none"/>
  </g>
  <g id="arrowUp" transform="translate(30 24)">
    <use xlink:href="#rim"/>
    <path pointer-events="none" fill="none" stroke="white" stroke-width="1.5" d="M0,-3.0v7 M-2.5,-0.5L0,-3.0L2.5,-0.5"/>
  </g>
  <g id="arrowRight" transform="rotate(90) translate(36 -43)">
    <use xlink:href="#rim"/>
    <path pointer-events="none" fill="none" stroke="white" stroke-width="1.5" d="M0,-3.0v7 M-2.5,-0.5L0,-3.0L2.5,-0.5"/>
  </g>
  <g id="arrowDown" transform="rotate(180) translate(-30 -48)">
    <use xlink:href="#rim"/>
    <path pointer-events="none" fill="none" stroke="white" stroke-width="1.5" d="M0,-3.0v7 M-2.5,-0.5L0,-3.0L2.5,-0.5"/>
  </g>
  <g id="arrowLeft" transform="rotate(270) translate(-36 17)">
    <use xlink:href="#rim"/>
    <path pointer-events="none" fill="none" stroke="white" stroke-width="1.5" d="M0,-3.0v7 M-2.5,-0.5L0,-3.0L2.5,-0.5"/>
  </g>
  <g id="resetDef">
    <use xlink:href="#rim2" fill="#404040"><set attributeName="fill" to="#808080" begin="reset.mouseover" end="reset.mouseout"/></use>
  </g>
</defs>
<script type="application/ecmascript">
var viewWidth = 827;
var viewHeight = 1039;
var sectionId = 'dynsection-0';
</script>
<script type="application/ecmascript" xlink:href="svg.min.js"/>
<svg id="graph" class="graph">
<g id="viewport">
<title>CPS::MNAVariableCompInterface</title>
<!-- Node1 -->
<g id="Node000001" class="node">
<title>Node1</title>
<g id="a_Node000001"><a xlink:title="MNA interface to be used by elements that require recomputing of the system matrix.">
<polygon fill="#999999" stroke="#666666" points="169.75,-524.38 0,-524.38 0,-502.12 169.75,-502.12 169.75,-524.38"/>
<text text-anchor="middle" x="84.88" y="-510.88" font-family="Helvetica,sans-Serif" font-size="10.00">CPS::MNAVariableCompInterface</text>
</a>
</g>
</g>
<!-- Node2 -->
<g id="Node000002" class="node">
<title>Node2</title>
<g id="a_Node000002"><a xlink:href="class_c_p_s_1_1_d_p_1_1_ph1_1_1_mixed_v_type_variable_s_s_n_comp.html" target="_top" xlink:title=" ">
<polygon fill="white" stroke="#666666" points="375.12,-975.5 235.38,-975.5 235.38,-939 375.12,-939 375.12,-975.5"/>
<text text-anchor="start" x="243.38" y="-962" font-family="Helvetica,sans-Serif" font-size="10.00">CPS::DP::Ph1::MixedVType</text>
<text text-anchor="middle" x="305.25" y="-947.75" font-family="Helvetica,sans-Serif" font-size="10.00">VariableSSNComp</text>
</a>
</g>
</g>
<!-- Node1&#45;&gt;Node2 -->
<g id="edge1_Node000001_Node000002" class="edge">
<title>Node1&#45;&gt;Node2</title>
<g id="a_edge1_Node000001_Node000002"><a xlink:title=" ">
<path fill="none" stroke="#63b8ff" d="M89.83,-535.65C100.79,-593.36 135.47,-750.38 205.75,-861.25 225.57,-892.51 257.5,-921.11 279.61,-938.81"/>
<polygon fill="#63b8ff" stroke="#63b8ff" points="93.33,-535.29 88.07,-526.09 86.44,-536.56 93.33,-535.29"/>
</a>
</g>
</g>
<!-- Node5 -->
<g id="Node000005" class="node">
<title>Node5</title>
<g id="a_Node000005"><a xlink:href="class_c_p_s_1_1_d_p_1_1_ph1_1_1_r_x_load_switch.html" target="_top" xlink:title="Constant impedance load model consisting of RLC elements.">
<polygon fill="white" stroke="#666666" points="378.5,-852.38 232,-852.38 232,-830.12 378.5,-830.12 378.5,-852.38"/>
<text text-anchor="middle" x="305.25" y="-838.88" font-family="Helvetica,sans-Serif" font-size="10.00">CPS::DP::Ph1::RXLoadSwitch</text>
</a>
</g>
</g>
<!-- Node1&#45;&gt;Node5 -->
<g id="edge4_Node000001_Node000005" class="edge">
<title>Node1&#45;&gt;Node5</title>
<g id="a_edge4_Node000001_Node000005"><a xlink:title=" ">
<path fill="none" stroke="#63b8ff" d="M87.54,-536.03C93.03,-593.56 115.78,-745.48 205.75,-821.25 213.22,-827.54 222.14,-832.04 231.51,-835.23"/>
<polygon fill="#63b8ff" stroke="#63b8ff" points="91.04,-535.85 86.7,-526.18 84.06,-536.44 91.04,-535.85"/>
</a>
</g>
</g>
<!-- Node6 -->
<g id="Node000006" class="node">
<title>Node6</title>
<g id="a_Node000006"><a xlink:href="class_c_p_s_1_1_d_p_1_1_ph1_1_1_reduced_order_synchron_generator_v_b_r.html" target="_top" xlink:title="Base class for DP VBR synchronous generator model single phase.">
<polygon fill="white" stroke="#666666" points="380.75,-812.5 229.75,-812.5 229.75,-776 380.75,-776 380.75,-812.5"/>
<text text-anchor="start" x="237.75" y="-799" font-family="Helvetica,sans-Serif" font-size="10.00">CPS::DP::Ph1::ReducedOrder</text>
<text text-anchor="middle" x="305.25" y="-784.75" font-family="Helvetica,sans-Serif" font-size="10.00">SynchronGeneratorVBR</text>
</a>
</g>
</g>
<!-- Node1&#45;&gt;Node6 -->
<g id="edge5_Node000001_Node000006" class="edge">
<title>Node1&#45;&gt;Node6</title>
<g id="a_edge5_Node000001_Node000006"><a xlink:title=" ">
<path fill="none" stroke="#63b8ff" d="M89.92,-535.7C100.04,-585.27 131.23,-704.65 205.75,-767.25 212.81,-773.18 221.07,-777.82 229.74,-781.44"/>
<polygon fill="#63b8ff" stroke="#63b8ff" points="93.41,-535.31 88.07,-526.16 86.54,-536.64 93.41,-535.31"/>
</a>
</g>
</g>
<!-- Node12 -->
<g id="Node000012" class="node">
<title>Node12</title>
<g id="a_Node000012"><a xlink:href="class_c_p_s_1_1_d_p_1_1_ph1_1_1_s_v_c.html" target="_top" xlink:title="SVC.">
<polygon fill="white" stroke="#666666" points="355.25,-758.38 255.25,-758.38 255.25,-736.12 355.25,-736.12 355.25,-758.38"/>
<text text-anchor="middle" x="305.25" y="-744.88" font-family="Helvetica,sans-Serif" font-size="10.00">CPS::DP::Ph1::SVC</text>
</a>
</g>
</g>
<!-- Node1&#45;&gt;Node12 -->
<g id="edge11_Node000001_Node000012" class="edge">
<title>Node1&#45;&gt;Node12</title>
<g id="a_edge11_Node000001_Node000012"><a xlink:title=" ">
<path fill="none" stroke="#63b8ff" d="M91.68,-535.78C104.33,-580.07 138.77,-678.39 205.75,-727.25 219.85,-737.53 237.96,-742.84 254.8,-745.48"/>
<polygon fill="#63b8ff" stroke="#63b8ff" points="95.1,-534.99 89.08,-526.27 88.34,-536.84 95.1,-534.99"/>
</a>
</g>
</g>
<!-- Node13 -->
<g id="Node000013" class="node">
<title>Node13</title>
<g id="a_Node000013"><a xlink:href="class_c_p_s_1_1_d_p_1_1_ph1_1_1_switch.html" target="_top" xlink:title="Dynamic phasor switch.">
<polygon fill="white" stroke="#666666" points="361.25,-718.38 249.25,-718.38 249.25,-696.12 361.25,-696.12 361.25,-718.38"/>
<text text-anchor="middle" x="305.25" y="-704.88" font-family="Helvetica,sans-Serif" font-size="10.00">CPS::DP::Ph1::Switch</text>
</a>
</g>
</g>
<!-- Node1&#45;&gt;Node13 -->
<g id="edge12_Node000001_Node000013" class="edge">
<title>Node1&#45;&gt;Node13</title>
<g id="a_edge12_Node000001_Node000013"><a xlink:title=" ">
<path fill="none" stroke="#63b8ff" d="M94.45,-535.21C110.33,-572.81 148.06,-649.13 205.75,-687.25 218.49,-695.67 234.03,-700.67 248.96,-703.6"/>
<polygon fill="#63b8ff" stroke="#63b8ff" points="97.82,-534.2 90.8,-526.27 91.34,-536.85 97.82,-534.2"/>
</a>
</g>
</g>
<!-- Node14 -->
<g id="Node000014" class="node">
<title>Node14</title>
<g id="a_Node000014"><a xlink:href="class_c_p_s_1_1_d_p_1_1_ph1_1_1var_res_switch.html" target="_top" xlink:title="Switch with variable resistance to avoid numerical oscillations, when an inductive current is suddenl...">
<polygon fill="white" stroke="#666666" points="377,-678.38 233.5,-678.38 233.5,-656.12 377,-656.12 377,-678.38"/>
<text text-anchor="middle" x="305.25" y="-664.88" font-family="Helvetica,sans-Serif" font-size="10.00">CPS::DP::Ph1::varResSwitch</text>
</a>
</g>
</g>
<!-- Node1&#45;&gt;Node14 -->
<g id="edge13_Node000001_Node000014" class="edge">
<title>Node1&#45;&gt;Node14</title>
<g id="a_edge13_Node000001_Node000014"><a xlink:title=" ">
<path fill="none" stroke="#63b8ff" d="M98.47,-534.38C117.63,-564.53 157.06,-619.33 205.75,-647.25 214.15,-652.07 223.54,-655.74 233.09,-658.53"/>
<polygon fill="#63b8ff" stroke="#63b8ff" points="101.6,-532.77 93.36,-526.11 95.64,-536.46 101.6,-532.77"/>
</a>
</g>
</g>
<!-- Node15 -->
<g id="Node000015" class="node">
<title>Node15</title>
<g id="a_Node000015"><a xlink:href="class_c_p_s_1_1_d_p_1_1_ph3_1_1_mixed_v_type_variable_s_s_n_comp.html" target="_top" xlink:title=" ">
<polygon fill="white" stroke="#666666" points="375.12,-638.5 235.38,-638.5 235.38,-602 375.12,-602 375.12,-638.5"/>
<text text-anchor="start" x="243.38" y="-625" font-family="Helvetica,sans-Serif" font-size="10.00">CPS::DP::Ph3::MixedVType</text>
<text text-anchor="middle" x="305.25" y="-610.75" font-family="Helvetica,sans-Serif" font-size="10.00">VariableSSNComp</text>
</a>
</g>
</g>
<!-- Node1&#45;&gt;Node15 -->
<g id="edge14_Node000001_Node000015" class="edge">
<title>Node1&#45;&gt;Node15</title>
<g id="a_edge14_Node000001_Node000015"><a xlink:title=" ">
<path fill="none" stroke="#63b8ff" d="M108.77,-531.81C131.96,-549.79 169.5,-576.71 205.75,-593.25 214.95,-597.45 224.93,-601.11 234.89,-604.27"/>
<polygon fill="#63b8ff" stroke="#63b8ff" points="110.96,-529.08 100.94,-525.64 106.63,-534.58 110.96,-529.08"/>
</a>
</g>
</g>
<!-- Node17 -->
<g id="Node000017" class="node">
<title>Node17</title>
<g id="a_Node000017"><a xlink:href="class_c_p_s_1_1_d_p_1_1_ph3_1_1_series_switch.html" target="_top" xlink:title="Dynamic phasor three&#45;phase switch.">
<polygon fill="white" stroke="#666666" points="375.5,-584.38 235,-584.38 235,-562.12 375.5,-562.12 375.5,-584.38"/>
<text text-anchor="middle" x="305.25" y="-570.88" font-family="Helvetica,sans-Serif" font-size="10.00">CPS::DP::Ph3::SeriesSwitch</text>
</a>
</g>
</g>
<!-- Node1&#45;&gt;Node17 -->
<g id="edge16_Node000001_Node000017" class="edge">
<title>Node1&#45;&gt;Node17</title>
<g id="a_edge16_Node000001_Node000017"><a xlink:title=" ">
<path fill="none" stroke="#63b8ff" d="M127.8,-528.63C150.64,-536.66 179.52,-546.24 205.75,-553.25 217.13,-556.29 229.36,-559.12 241.19,-561.64"/>
<polygon fill="#63b8ff" stroke="#63b8ff" points="129.13,-525.39 118.53,-525.34 126.78,-531.99 129.13,-525.39"/>
</a>
</g>
</g>
<!-- Node18 -->
<g id="Node000018" class="node">
<title>Node18</title>
<g id="a_Node000018"><a xlink:href="class_c_p_s_1_1_d_p_1_1_ph3_1_1_switch.html" target="_top" xlink:title="Dynamic phasor three&#45;phase switch with per&#45;phase resistance.">
<polygon fill="white" stroke="#666666" points="361.25,-544.38 249.25,-544.38 249.25,-522.12 361.25,-522.12 361.25,-544.38"/>
<text text-anchor="middle" x="305.25" y="-530.88" font-family="Helvetica,sans-Serif" font-size="10.00">CPS::DP::Ph3::Switch</text>
</a>
</g>
</g>
<!-- Node1&#45;&gt;Node18 -->
<g id="edge17_Node000001_Node000018" class="edge">
<title>Node1&#45;&gt;Node18</title>
<g id="a_edge17_Node000001_Node000018"><a xlink:title=" ">
<path fill="none" stroke="#63b8ff" d="M181.25,-521.98C204.35,-524.1 228.29,-526.29 248.85,-528.18"/>
<polygon fill="#63b8ff" stroke="#63b8ff" points="181.78,-518.52 171.5,-521.09 181.14,-525.49 181.78,-518.52"/>
</a>
</g>
</g>
<!-- Node19 -->
<g id="Node000019" class="node">
<title>Node19</title>
<g id="a_Node000019"><a xlink:href="class_c_p_s_1_1_e_m_t_1_1_ph1_1_1_switch.html" target="_top" xlink:title="One phase EMT switch.">
<polygon fill="white" stroke="#666666" points="364.25,-504.38 246.25,-504.38 246.25,-482.12 364.25,-482.12 364.25,-504.38"/>
<text text-anchor="middle" x="305.25" y="-490.88" font-family="Helvetica,sans-Serif" font-size="10.00">CPS::EMT::Ph1::Switch</text>
</a>
</g>
</g>
<!-- Node1&#45;&gt;Node19 -->
<g id="edge18_Node000001_Node000019" class="edge">
<title>Node1&#45;&gt;Node19</title>
<g id="a_edge18_Node000001_Node000019"><a xlink:title=" ">
<path fill="none" stroke="#63b8ff" d="M181.39,-504.5C203.35,-502.49 226.06,-500.41 245.89,-498.6"/>
<polygon fill="#63b8ff" stroke="#63b8ff" points="181.14,-501.01 171.5,-505.41 181.78,-507.98 181.14,-501.01"/>
</a>
</g>
</g>
<!-- Node20 -->
<g id="Node000020" class="node">
<title>Node20</title>
<g id="a_Node000020"><a xlink:href="class_c_p_s_1_1_e_m_t_1_1_ph3_1_1_reduced_order_synchron_generator_v_b_r.html" target="_top" xlink:title="Base class for EMT VBR simplefied synchronous generator models.">
<polygon fill="white" stroke="#666666" points="383.75,-464.5 226.75,-464.5 226.75,-428 383.75,-428 383.75,-464.5"/>
<text text-anchor="start" x="234.75" y="-451" font-family="Helvetica,sans-Serif" font-size="10.00">CPS::EMT::Ph3::ReducedOrder</text>
<text text-anchor="middle" x="305.25" y="-436.75" font-family="Helvetica,sans-Serif" font-size="10.00">SynchronGeneratorVBR</text>
</a>
</g>
</g>
<!-- Node1&#45;&gt;Node20 -->
<g id="edge19_Node000001_Node000020" class="edge">
<title>Node1&#45;&gt;Node20</title>
<g id="a_edge19_Node000001_Node000020"><a xlink:title=" ">
<path fill="none" stroke="#63b8ff" d="M129.68,-498C152.3,-490.28 180.4,-480.95 205.75,-473.25 214.91,-470.47 224.59,-467.66 234.16,-464.96"/>
<polygon fill="#63b8ff" stroke="#63b8ff" points="128.81,-494.6 120.48,-501.15 131.07,-501.22 128.81,-494.6"/>
</a>
</g>
</g>
<!-- Node26 -->
<g id="Node000026" class="node">
<title>Node26</title>
<g id="a_Node000026"><a xlink:href="class_c_p_s_1_1_e_m_t_1_1_ph3_1_1_series_switch.html" target="_top" xlink:title="EMT three&#45;phase switch.">
<polygon fill="white" stroke="#666666" points="378.5,-410.38 232,-410.38 232,-388.12 378.5,-388.12 378.5,-410.38"/>
<text text-anchor="middle" x="305.25" y="-396.88" font-family="Helvetica,sans-Serif" font-size="10.00">CPS::EMT::Ph3::SeriesSwitch</text>
</a>
</g>
</g>
<!-- Node1&#45;&gt;Node26 -->
<g id="edge25_Node000001_Node000026" class="edge">
<title>Node1&#45;&gt;Node26</title>
<g id="a_edge25_Node000001_Node000026"><a xlink:title=" ">
<path fill="none" stroke="#63b8ff" d="M104.44,-494.07C126.52,-472.43 165.48,-437.85 205.75,-419.25 213.91,-415.48 222.77,-412.42 231.72,-409.93"/>
<polygon fill="#63b8ff" stroke="#63b8ff" points="102.24,-491.31 97.64,-500.86 107.19,-496.26 102.24,-491.31"/>
</a>
</g>
</g>
<!-- Node27 -->
<g id="Node000027" class="node">
<title>Node27</title>
<g id="a_Node000027"><a xlink:href="class_c_p_s_1_1_e_m_t_1_1_ph3_1_1_switch.html" target="_top" xlink:title="Dynamic phasor switch.">
<polygon fill="white" stroke="#666666" points="364.25,-370.38 246.25,-370.38 246.25,-348.12 364.25,-348.12 364.25,-370.38"/>
<text text-anchor="middle" x="305.25" y="-356.88" font-family="Helvetica,sans-Serif" font-size="10.00">CPS::EMT::Ph3::Switch</text>
</a>
</g>
</g>
<!-- Node1&#45;&gt;Node27 -->
<g id="edge26_Node000001_Node000027" class="edge">
<title>Node1&#45;&gt;Node27</title>
<g id="a_edge26_Node000001_Node000027"><a xlink:title=" ">
<path fill="none" stroke="#63b8ff" d="M98.47,-492.12C117.63,-461.97 157.06,-407.17 205.75,-379.25 217.86,-372.31 232.02,-367.75 245.77,-364.76"/>
<polygon fill="#63b8ff" stroke="#63b8ff" points="95.64,-490.04 93.36,-500.39 101.6,-493.73 95.64,-490.04"/>
</a>
</g>
</g>
<!-- Node28 -->
<g id="Node000028" class="node">
<title>Node28</title>
<g id="a_Node000028"><a xlink:href="class_c_p_s_1_1_e_m_t_1_1_ph3_1_1_synchron_generator_v_b_r.html" target="_top" xlink:title=" ">
<polygon fill="white" stroke="#666666" points="404.75,-330.38 205.75,-330.38 205.75,-308.12 404.75,-308.12 404.75,-330.38"/>
<text text-anchor="middle" x="305.25" y="-316.88" font-family="Helvetica,sans-Serif" font-size="10.00">CPS::EMT::Ph3::SynchronGeneratorVBR</text>
</a>
</g>
</g>
<!-- Node1&#45;&gt;Node28 -->
<g id="edge27_Node000001_Node000028" class="edge">
<title>Node1&#45;&gt;Node28</title>
<g id="a_edge27_Node000001_Node000028"><a xlink:title=" ">
<path fill="none" stroke="#63b8ff" d="M94.45,-491.29C110.33,-453.69 148.06,-377.37 205.75,-339.25 210.85,-335.88 216.39,-333.06 222.16,-330.7"/>
<polygon fill="#63b8ff" stroke="#63b8ff" points="91.34,-489.65 90.8,-500.23 97.82,-492.3 91.34,-489.65"/>
</a>
</g>
</g>
<!-- Node29 -->
<g id="Node000029" class="node">
<title>Node29</title>
<g id="a_Node000029"><a xlink:href="class_c_p_s_1_1_e_m_t_1_1_v_type_variable_s_s_n_comp.html" target="_top" xlink:title="Abstract base class for variable EMT V&#45;type SSN components.">
<polygon fill="white" stroke="#666666" points="393.12,-290.38 217.38,-290.38 217.38,-268.12 393.12,-268.12 393.12,-290.38"/>
<text text-anchor="middle" x="305.25" y="-276.88" font-family="Helvetica,sans-Serif" font-size="10.00">CPS::EMT::VTypeVariableSSNComp</text>
</a>
</g>
</g>
<!-- Node1&#45;&gt;Node29 -->
<g id="edge28_Node000001_Node000029" class="edge">
<title>Node1&#45;&gt;Node29</title>
<g id="a_edge28_Node000001_Node000029"><a xlink:title=" ">
<path fill="none" stroke="#63b8ff" d="M91.68,-490.72C104.33,-446.43 138.77,-348.11 205.75,-299.25 210.26,-295.96 215.18,-293.18 220.34,-290.83"/>
<polygon fill="#63b8ff" stroke="#63b8ff" points="88.34,-489.66 89.08,-500.23 95.1,-491.51 88.34,-489.66"/>
</a>
</g>
</g>
<!-- Node34 -->
<g id="Node000034" class="node">
<title>Node34</title>
<g id="a_Node000034"><a xlink:href="class_c_p_s_1_1_s_p_1_1_ph1_1_1_reduced_order_synchron_generator_v_b_r.html" target="_top" xlink:title="Base class for SP VBR synchronous generator model single phase.">
<polygon fill="white" stroke="#666666" points="379.62,-224.5 230.88,-224.5 230.88,-188 379.62,-188 379.62,-224.5"/>
<text text-anchor="start" x="238.88" y="-211" font-family="Helvetica,sans-Serif" font-size="10.00">CPS::SP::Ph1::ReducedOrder</text>
<text text-anchor="middle" x="305.25" y="-196.75" font-family="Helvetica,sans-Serif" font-size="10.00">SynchronGeneratorVBR</text>
</a>
</g>
</g>
<!-- Node1&#45;&gt;Node34 -->
<g id="edge33_Node000001_Node000034" class="edge">
<title>Node1&#45;&gt;Node34</title>
<g id="a_edge33_Node000001_Node000034"><a xlink:title=" ">
<path fill="none" stroke="#63b8ff" d="M91.36,-490.67C104.01,-442.68 139.37,-329.22 205.75,-259.25 219.45,-244.81 237.97,-233.44 255.25,-224.99"/>
<polygon fill="#63b8ff" stroke="#63b8ff" points="88.01,-489.62 88.94,-500.18 94.79,-491.35 88.01,-489.62"/>
</a>
</g>
</g>
<!-- Node40 -->
<g id="Node000040" class="node">
<title>Node40</title>
<g id="a_Node000040"><a xlink:href="class_c_p_s_1_1_s_p_1_1_ph1_1_1_switch.html" target="_top" xlink:title="Dynamic phasor switch.">
<polygon fill="white" stroke="#666666" points="360.12,-170.38 250.38,-170.38 250.38,-148.12 360.12,-148.12 360.12,-170.38"/>
<text text-anchor="middle" x="305.25" y="-156.88" font-family="Helvetica,sans-Serif" font-size="10.00">CPS::SP::Ph1::Switch</text>
</a>
</g>
</g>
<!-- Node1&#45;&gt;Node40 -->
<g id="edge39_Node000001_Node000040" class="edge">
<title>Node1&#45;&gt;Node40</title>
<g id="a_edge39_Node000001_Node000040"><a xlink:title=" ">
<path fill="none" stroke="#63b8ff" d="M86.76,-490.62C90.41,-429.99 109.19,-262.8 205.75,-179.25 217.96,-168.69 234.2,-163.15 249.97,-160.38"/>
<polygon fill="#63b8ff" stroke="#63b8ff" points="83.27,-490.2 86.26,-500.36 90.26,-490.56 83.27,-490.2"/>
</a>
</g>
</g>
<!-- Node41 -->
<g id="Node000041" class="node">
<title>Node41</title>
<g id="a_Node000041"><a xlink:href="class_c_p_s_1_1_s_p_1_1_ph1_1_1var_res_switch.html" target="_top" xlink:title="Switch with variable resistance to avoid numerical oscillations, when an inductive current is suddenl...">
<polygon fill="white" stroke="#666666" points="375.88,-130.38 234.62,-130.38 234.62,-108.12 375.88,-108.12 375.88,-130.38"/>
<text text-anchor="middle" x="305.25" y="-116.88" font-family="Helvetica,sans-Serif" font-size="10.00">CPS::SP::Ph1::varResSwitch</text>
</a>
</g>
</g>
<!-- Node1&#45;&gt;Node41 -->
<g id="edge40_Node000001_Node000041" class="edge">
<title>Node1&#45;&gt;Node41</title>
<g id="a_edge40_Node000001_Node000041"><a xlink:title=" ">
<path fill="none" stroke="#63b8ff" d="M85.76,-490.62C86.76,-425.25 99.1,-234.79 205.75,-139.25 213.81,-132.03 223.74,-127.14 234.17,-123.86"/>
<polygon fill="#63b8ff" stroke="#63b8ff" points="82.27,-490.42 85.7,-500.44 89.27,-490.47 82.27,-490.42"/>
</a>
</g>
</g>
<!-- Node3 -->
<g id="Node000003" class="node">
<title>Node3</title>
<g id="a_Node000003"><a xlink:href="class_c_p_s_1_1_d_p_1_1_ph1_1_1_av_volt_source_inverter_state_space.html" target="_top" xlink:title="Averaged grid&#45;following VSI SSN port of EMT::Ph3::AvVoltSourceInverterStateSpace: 8 real control stat...">
<polygon fill="white" stroke="#666666" points="609,-1030.5 464.75,-1030.5 464.75,-994 609,-994 609,-1030.5"/>
<text text-anchor="start" x="472.75" y="-1017" font-family="Helvetica,sans-Serif" font-size="10.00">CPS::DP::Ph1::AvVoltSource</text>
<text text-anchor="middle" x="536.88" y="-1002.75" font-family="Helvetica,sans-Serif" font-size="10.00">InverterStateSpace</text>
</a>
</g>
</g>
<!-- Node2&#45;&gt;Node3 -->
<g id="edge2_Node000002_Node000003" class="edge">
<title>Node2&#45;&gt;Node3</title>
<g id="a_edge2_Node000002_Node000003"><a xlink:title=" ">
<path fill="none" stroke="#63b8ff" d="M386.53,-976.48C411.89,-982.55 439.73,-989.22 464.42,-995.14"/>
<polygon fill="#63b8ff" stroke="#63b8ff" points="387.47,-973.1 376.93,-974.18 385.84,-979.91 387.47,-973.1"/>
</a>
</g>
</g>
<!-- Node4 -->
<g id="Node000004" class="node">
<title>Node4</title>
<g id="a_Node000004"><a xlink:href="class_c_p_s_1_1_d_p_1_1_ph1_1_1_s_s_n_1_1_variable___serial___r_l_c.html" target="_top" xlink:title=" ">
<polygon fill="white" stroke="#666666" points="590.25,-975.5 483.5,-975.5 483.5,-939 590.25,-939 590.25,-975.5"/>
<text text-anchor="start" x="491.5" y="-962" font-family="Helvetica,sans-Serif" font-size="10.00">CPS::DP::Ph1::SSN::</text>
<text text-anchor="middle" x="536.88" y="-947.75" font-family="Helvetica,sans-Serif" font-size="10.00">Variable_Serial_RLC</text>
</a>
</g>
</g>
<!-- Node2&#45;&gt;Node4 -->
<g id="edge3_Node000002_Node000004" class="edge">
<title>Node2&#45;&gt;Node4</title>
<g id="a_edge3_Node000002_Node000004"><a xlink:title=" ">
<path fill="none" stroke="#63b8ff" d="M386.61,-957.25C418.64,-957.25 454.62,-957.25 483.23,-957.25"/>
<polygon fill="#63b8ff" stroke="#63b8ff" points="386.97,-953.75 376.97,-957.25 386.97,-960.75 386.97,-953.75"/>
</a>
</g>
</g>
<!-- Node7 -->
<g id="Node000007" class="node">
<title>Node7</title>
<g id="a_Node000007"><a xlink:href="class_c_p_s_1_1_d_p_1_1_ph1_1_1_synchron_generator3_order_v_b_r.html" target="_top" xlink:title="Voltage&#45;Behind&#45;Reactance (VBR) implementation of 3rd order synchronous generator model.">
<polygon fill="white" stroke="#666666" points="627,-920.5 446.75,-920.5 446.75,-884 627,-884 627,-920.5"/>
<text text-anchor="start" x="454.75" y="-907" font-family="Helvetica,sans-Serif" font-size="10.00">CPS::DP::Ph1::SynchronGenerator3</text>
<text text-anchor="middle" x="536.88" y="-892.75" font-family="Helvetica,sans-Serif" font-size="10.00">OrderVBR</text>
</a>
</g>
</g>
<!-- Node6&#45;&gt;Node7 -->
<g id="edge6_Node000006_Node000007" class="edge">
<title>Node6&#45;&gt;Node7</title>
<g id="a_edge6_Node000006_Node000007"><a xlink:title=" ">
<path fill="none" stroke="#63b8ff" d="M391.56,-813.33C396.19,-815.67 400.62,-818.3 404.75,-821.25 427.91,-837.81 417.74,-857.47 440.75,-874.25 445.62,-877.8 450.93,-880.9 456.48,-883.62"/>
<polygon fill="#63b8ff" stroke="#63b8ff" points="393.12,-810.19 382.57,-809.27 390.24,-816.57 393.12,-810.19"/>
</a>
</g>
</g>
<!-- Node8 -->
<g id="Node000008" class="node">
<title>Node8</title>
<g id="a_Node000008"><a xlink:href="class_c_p_s_1_1_d_p_1_1_ph1_1_1_synchron_generator4_order_v_b_r.html" target="_top" xlink:title="Voltage&#45;Behind&#45;Reactance (VBR) implementation of 4th order synchronous generator model.">
<polygon fill="white" stroke="#666666" points="627,-865.5 446.75,-865.5 446.75,-829 627,-829 627,-865.5"/>
<text text-anchor="start" x="454.75" y="-852" font-family="Helvetica,sans-Serif" font-size="10.00">CPS::DP::Ph1::SynchronGenerator4</text>
<text text-anchor="middle" x="536.88" y="-837.75" font-family="Helvetica,sans-Serif" font-size="10.00">OrderVBR</text>
</a>
</g>
</g>
<!-- Node6&#45;&gt;Node8 -->
<g id="edge7_Node000006_Node000008" class="edge">
<title>Node6&#45;&gt;Node8</title>
<g id="a_edge7_Node000006_Node000008"><a xlink:title=" ">
<path fill="none" stroke="#63b8ff" d="M392.33,-814.12C412.79,-818.84 434.54,-823.86 454.77,-828.53"/>
<polygon fill="#63b8ff" stroke="#63b8ff" points="393.13,-810.71 382.59,-811.87 391.55,-817.53 393.13,-810.71"/>
</a>
</g>
</g>
<!-- Node9 -->
<g id="Node000009" class="node">
<title>Node9</title>
<g id="a_Node000009"><a xlink:href="class_c_p_s_1_1_d_p_1_1_ph1_1_1_synchron_generator5_order_v_b_r.html" target="_top" xlink:title="Voltage&#45;Behind&#45;Reactance (VBR) implementation of 5th type 2 order synchronous generator model Ref: Mi...">
<polygon fill="white" stroke="#666666" points="627,-810.5 446.75,-810.5 446.75,-774 627,-774 627,-810.5"/>
<text text-anchor="start" x="454.75" y="-797" font-family="Helvetica,sans-Serif" font-size="10.00">CPS::DP::Ph1::SynchronGenerator5</text>
<text text-anchor="middle" x="536.88" y="-782.75" font-family="Helvetica,sans-Serif" font-size="10.00">OrderVBR</text>
</a>
</g>
</g>
<!-- Node6&#45;&gt;Node9 -->
<g id="edge8_Node000006_Node000009" class="edge">
<title>Node6&#45;&gt;Node9</title>
<g id="a_edge8_Node000006_Node000009"><a xlink:title=" ">
<path fill="none" stroke="#63b8ff" d="M392.51,-793.5C410.09,-793.35 428.61,-793.18 446.3,-793.03"/>
<polygon fill="#63b8ff" stroke="#63b8ff" points="392.6,-790 382.63,-793.58 392.66,-797 392.6,-790"/>
</a>
</g>
</g>
<!-- Node10 -->
<g id="Node000010" class="node">
<title>Node10</title>
<g id="a_Node000010"><a xlink:href="class_c_p_s_1_1_d_p_1_1_ph1_1_1_synchron_generator6a_order_v_b_r.html" target="_top" xlink:title="Voltage&#45;Behind&#45;Reactance (VBR) implementation of 6th order synchronous generator model Marconato&#39;s mo...">
<polygon fill="white" stroke="#666666" points="629.62,-755.5 444.12,-755.5 444.12,-719 629.62,-719 629.62,-755.5"/>
<text text-anchor="start" x="452.12" y="-742" font-family="Helvetica,sans-Serif" font-size="10.00">CPS::DP::Ph1::SynchronGenerator6a</text>
<text text-anchor="middle" x="536.88" y="-727.75" font-family="Helvetica,sans-Serif" font-size="10.00">OrderVBR</text>
</a>
</g>
</g>
<!-- Node6&#45;&gt;Node10 -->
<g id="edge9_Node000006_Node000010" class="edge">
<title>Node6&#45;&gt;Node10</title>
<g id="a_edge9_Node000006_Node000010"><a xlink:title=" ">
<path fill="none" stroke="#63b8ff" d="M392.05,-772.95C414.61,-767.35 438.76,-761.36 460.71,-755.91"/>
<polygon fill="#63b8ff" stroke="#63b8ff" points="391.45,-769.49 382.59,-775.3 393.14,-776.29 391.45,-769.49"/>
</a>
</g>
</g>
<!-- Node11 -->
<g id="Node000011" class="node">
<title>Node11</title>
<g id="a_Node000011"><a xlink:href="class_c_p_s_1_1_d_p_1_1_ph1_1_1_synchron_generator6b_order_v_b_r.html" target="_top" xlink:title="Voltage&#45;Behind&#45;Reactance (VBR) implementation of 6th order synchronous generator model Anderson &#45; Fou...">
<polygon fill="white" stroke="#666666" points="630,-700.5 443.75,-700.5 443.75,-664 630,-664 630,-700.5"/>
<text text-anchor="start" x="451.75" y="-687" font-family="Helvetica,sans-Serif" font-size="10.00">CPS::DP::Ph1::SynchronGenerator6b</text>
<text text-anchor="middle" x="536.88" y="-672.75" font-family="Helvetica,sans-Serif" font-size="10.00">OrderVBR</text>
</a>
</g>
</g>
<!-- Node6&#45;&gt;Node11 -->
<g id="edge10_Node000006_Node000011" class="edge">
<title>Node6&#45;&gt;Node11</title>
<g id="a_edge10_Node000006_Node000011"><a xlink:title=" ">
<path fill="none" stroke="#63b8ff" d="M391.54,-775.41C396.19,-773.01 400.63,-770.3 404.75,-767.25 428.83,-749.42 416.84,-728.31 440.75,-710.25 445.42,-706.72 450.53,-703.64 455.88,-700.94"/>
<polygon fill="#63b8ff" stroke="#63b8ff" points="390.12,-772.21 382.48,-779.56 393.03,-778.57 390.12,-772.21"/>
</a>
</g>
</g>
<!-- Node16 -->
<g id="Node000016" class="node">
<title>Node16</title>
<g id="a_Node000016"><a xlink:href="class_c_p_s_1_1_d_p_1_1_ph3_1_1_av_volt_source_inverter_state_space.html" target="_top" xlink:title="Averaged grid&#45;following VSI SSN port of EMT::Ph3::AvVoltSourceInverterStateSpace: 8 real control stat...">
<polygon fill="white" stroke="#666666" points="609,-641.5 464.75,-641.5 464.75,-605 609,-605 609,-641.5"/>
<text text-anchor="start" x="472.75" y="-628" font-family="Helvetica,sans-Serif" font-size="10.00">CPS::DP::Ph3::AvVoltSource</text>
<text text-anchor="middle" x="536.88" y="-613.75" font-family="Helvetica,sans-Serif" font-size="10.00">InverterStateSpace</text>
</a>
</g>
</g>
<!-- Node15&#45;&gt;Node16 -->
<g id="edge15_Node000015_Node000016" class="edge">
<title>Node15&#45;&gt;Node16</title>
<g id="a_edge15_Node000015_Node000016"><a xlink:title=" ">
<path fill="none" stroke="#63b8ff" d="M386.87,-621.3C412.14,-621.63 439.84,-622 464.42,-622.32"/>
<polygon fill="#63b8ff" stroke="#63b8ff" points="387.01,-617.8 376.97,-621.17 386.92,-624.8 387.01,-617.8"/>
</a>
</g>
</g>
<!-- Node21 -->
<g id="Node000021" class="node">
<title>Node21</title>
<g id="a_Node000021"><a xlink:href="class_c_p_s_1_1_e_m_t_1_1_ph3_1_1_synchron_generator3_order_v_b_r.html" target="_top" xlink:title="Voltage&#45;Behind&#45;Reactance (VBR) implementation of 3rd order synchronous generator model.">
<polygon fill="white" stroke="#666666" points="630,-586.5 443.75,-586.5 443.75,-550 630,-550 630,-586.5"/>
<text text-anchor="start" x="451.75" y="-573" font-family="Helvetica,sans-Serif" font-size="10.00">CPS::EMT::Ph3::SynchronGenerator3</text>
<text text-anchor="middle" x="536.88" y="-558.75" font-family="Helvetica,sans-Serif" font-size="10.00">OrderVBR</text>
</a>
</g>
</g>
<!-- Node20&#45;&gt;Node21 -->
<g id="edge20_Node000020_Node000021" class="edge">
<title>Node20&#45;&gt;Node21</title>
<g id="a_edge20_Node000020_Node000021"><a xlink:title=" ">
<path fill="none" stroke="#63b8ff" d="M394.16,-466.08C397.88,-468.23 401.43,-470.61 404.75,-473.25 431.19,-494.31 414.51,-518.94 440.75,-540.25 445.16,-543.83 450.01,-546.95 455.12,-549.68"/>
<polygon fill="#63b8ff" stroke="#63b8ff" points="395.82,-462.99 385.32,-461.59 392.66,-469.24 395.82,-462.99"/>
</a>
</g>
</g>
<!-- Node22 -->
<g id="Node000022" class="node">
<title>Node22</title>
<g id="a_Node000022"><a xlink:href="class_c_p_s_1_1_e_m_t_1_1_ph3_1_1_synchron_generator4_order_v_b_r.html" target="_top" xlink:title="Voltage&#45;Behind&#45;Reactance (VBR) implementation of 4th order synchronous generator model.">
<polygon fill="white" stroke="#666666" points="630,-531.5 443.75,-531.5 443.75,-495 630,-495 630,-531.5"/>
<text text-anchor="start" x="451.75" y="-518" font-family="Helvetica,sans-Serif" font-size="10.00">CPS::EMT::Ph3::SynchronGenerator4</text>
<text text-anchor="middle" x="536.88" y="-503.75" font-family="Helvetica,sans-Serif" font-size="10.00">OrderVBR</text>
</a>
</g>
</g>
<!-- Node20&#45;&gt;Node22 -->
<g id="edge21_Node000020_Node000022" class="edge">
<title>Node20&#45;&gt;Node22</title>
<g id="a_edge21_Node000020_Node000022"><a xlink:title=" ">
<path fill="none" stroke="#63b8ff" d="M387.12,-468.04C393.09,-469.76 399.02,-471.51 404.75,-473.25 420.89,-478.15 424.66,-480.2 440.75,-485.25 450.52,-488.32 460.89,-491.47 471.05,-494.5"/>
<polygon fill="#63b8ff" stroke="#63b8ff" points="388.37,-464.75 377.79,-465.37 386.45,-471.49 388.37,-464.75"/>
</a>
</g>
</g>
<!-- Node23 -->
<g id="Node000023" class="node">
<title>Node23</title>
<g id="a_Node000023"><a xlink:href="class_c_p_s_1_1_e_m_t_1_1_ph3_1_1_synchron_generator5_order_v_b_r.html" target="_top" xlink:title="Voltage&#45;Behind&#45;Reactance (VBR) implementation of 5th type 2 order synchronous generator model Ref: Mi...">
<polygon fill="white" stroke="#666666" points="630,-476.5 443.75,-476.5 443.75,-440 630,-440 630,-476.5"/>
<text text-anchor="start" x="451.75" y="-463" font-family="Helvetica,sans-Serif" font-size="10.00">CPS::EMT::Ph3::SynchronGenerator5</text>
<text text-anchor="middle" x="536.88" y="-448.75" font-family="Helvetica,sans-Serif" font-size="10.00">OrderVBR</text>
</a>
</g>
</g>
<!-- Node20&#45;&gt;Node23 -->
<g id="edge22_Node000020_Node000023" class="edge">
<title>Node20&#45;&gt;Node23</title>
<g id="a_edge22_Node000020_Node000023"><a xlink:title=" ">
<path fill="none" stroke="#63b8ff" d="M395.35,-450.91C411.15,-451.73 427.64,-452.59 443.52,-453.42"/>
<polygon fill="#63b8ff" stroke="#63b8ff" points="395.67,-447.42 385.5,-450.39 395.31,-454.41 395.67,-447.42"/>
</a>
</g>
</g>
<!-- Node24 -->
<g id="Node000024" class="node">
<title>Node24</title>
<g id="a_Node000024"><a xlink:href="class_c_p_s_1_1_e_m_t_1_1_ph3_1_1_synchron_generator6a_order_v_b_r.html" target="_top" xlink:title="Voltage&#45;Behind&#45;Reactance (VBR) implementation of 6th order synchronous generator model Marconato&#39;s mo...">
<polygon fill="white" stroke="#666666" points="632.62,-421.5 441.12,-421.5 441.12,-385 632.62,-385 632.62,-421.5"/>
<text text-anchor="start" x="449.12" y="-408" font-family="Helvetica,sans-Serif" font-size="10.00">CPS::EMT::Ph3::SynchronGenerator6a</text>
<text text-anchor="middle" x="536.88" y="-393.75" font-family="Helvetica,sans-Serif" font-size="10.00">OrderVBR</text>
</a>
</g>
</g>
<!-- Node20&#45;&gt;Node24 -->
<g id="edge23_Node000020_Node000024" class="edge">
<title>Node20&#45;&gt;Node24</title>
<g id="a_edge23_Node000020_Node000024"><a xlink:title=" ">
<path fill="none" stroke="#63b8ff" d="M395.25,-429.58C410.14,-426.79 425.65,-423.89 440.7,-421.07"/>
<polygon fill="#63b8ff" stroke="#63b8ff" points="394.66,-426.13 385.48,-431.41 395.95,-433.01 394.66,-426.13"/>
</a>
</g>
</g>
<!-- Node25 -->
<g id="Node000025" class="node">
<title>Node25</title>
<g id="a_Node000025"><a xlink:href="class_c_p_s_1_1_e_m_t_1_1_ph3_1_1_synchron_generator6b_order_v_b_r.html" target="_top" xlink:title="Voltage&#45;Behind&#45;Reactance (VBR) implementation of 6th order synchronous generator model Anderson &#45; Fou...">
<polygon fill="white" stroke="#666666" points="633,-366.5 440.75,-366.5 440.75,-330 633,-330 633,-366.5"/>
<text text-anchor="start" x="448.75" y="-353" font-family="Helvetica,sans-Serif" font-size="10.00">CPS::EMT::Ph3::SynchronGenerator6b</text>
<text text-anchor="middle" x="536.88" y="-338.75" font-family="Helvetica,sans-Serif" font-size="10.00">OrderVBR</text>
</a>
</g>
</g>
<!-- Node20&#45;&gt;Node25 -->
<g id="edge24_Node000020_Node000025" class="edge">
<title>Node20&#45;&gt;Node25</title>
<g id="a_edge24_Node000020_Node000025"><a xlink:title=" ">
<path fill="none" stroke="#63b8ff" d="M394.38,-425.14C397.97,-423.33 401.44,-421.37 404.75,-419.25 425.73,-405.79 419.9,-389.91 440.75,-376.25 446.22,-372.66 452.17,-369.53 458.32,-366.78"/>
<polygon fill="#63b8ff" stroke="#63b8ff" points="393.06,-421.89 385.4,-429.21 395.95,-428.27 393.06,-421.89"/>
</a>
</g>
</g>
<!-- Node30 -->
<g id="Node000030" class="node">
<title>Node30</title>
<g id="a_Node000030"><a xlink:href="class_c_p_s_1_1_e_m_t_1_1_ph3_1_1_two_terminal_v_type_variable_s_s_n_comp.html" target="_top" xlink:title="Abstract base class for three&#45;phase, two&#45;terminal, variable V&#45;type SSN components.">
<polygon fill="white" stroke="#666666" points="610.5,-311.5 463.25,-311.5 463.25,-275 610.5,-275 610.5,-311.5"/>
<text text-anchor="start" x="471.25" y="-298" font-family="Helvetica,sans-Serif" font-size="10.00">CPS::EMT::Ph3::TwoTerminal</text>
<text text-anchor="middle" x="536.88" y="-283.75" font-family="Helvetica,sans-Serif" font-size="10.00">VTypeVariableSSNComp</text>
</a>
</g>
</g>
<!-- Node29&#45;&gt;Node30 -->
<g id="edge29_Node000029_Node000030" class="edge">
<title>Node29&#45;&gt;Node30</title>
<g id="a_edge29_Node000029_Node000030"><a xlink:title=" ">
<path fill="none" stroke="#63b8ff" d="M404.8,-285.26C424.34,-286.45 444.52,-287.68 463.01,-288.81"/>
<polygon fill="#63b8ff" stroke="#63b8ff" points="405.09,-281.77 394.9,-284.65 404.67,-288.76 405.09,-281.77"/>
</a>
</g>
</g>
<!-- Node31 -->
<g id="Node000031" class="node">
<title>Node31</title>
<g id="a_Node000031"><a xlink:href="class_c_p_s_1_1_e_m_t_1_1_ph3_1_1_av_volt_source_inverter_state_space.html" target="_top" xlink:title=" ">
<polygon fill="white" stroke="#bfbfbf" points="819.25,-366.5 669,-366.5 669,-330 819.25,-330 819.25,-366.5"/>
<text text-anchor="start" x="677" y="-353" font-family="Helvetica,sans-Serif" font-size="10.00">CPS::EMT::Ph3::AvVoltSource</text>
<text text-anchor="middle" x="744.12" y="-338.75" font-family="Helvetica,sans-Serif" font-size="10.00">InverterStateSpace</text>
</a>
</g>
</g>
<!-- Node30&#45;&gt;Node31 -->
<g id="edge30_Node000030_Node000031" class="edge">
<title>Node30&#45;&gt;Node31</title>
<g id="a_edge30_Node000030_Node000031"><a xlink:title=" ">
<path fill="none" stroke="#63b8ff" d="M618.72,-314.91C636.73,-319.74 655.67,-324.82 673.19,-329.51"/>
<polygon fill="#63b8ff" stroke="#63b8ff" points="619.68,-311.55 609.11,-312.34 617.86,-318.31 619.68,-311.55"/>
</a>
</g>
</g>
<!-- Node32 -->
<g id="Node000032" class="node">
<title>Node32</title>
<g id="a_Node000032"><a xlink:href="class_c_p_s_1_1_e_m_t_1_1_ph3_1_1_piecewise_linear_inductor.html" target="_top" xlink:title="Three&#45;phase, two&#45;terminal, piecewise&#45;linear flux&#45;state inductor.">
<polygon fill="white" stroke="#666666" points="810.62,-311.5 677.62,-311.5 677.62,-275 810.62,-275 810.62,-311.5"/>
<text text-anchor="start" x="685.62" y="-298" font-family="Helvetica,sans-Serif" font-size="10.00">CPS::EMT::Ph3::Piecewise</text>
<text text-anchor="middle" x="744.12" y="-283.75" font-family="Helvetica,sans-Serif" font-size="10.00">LinearInductor</text>
</a>
</g>
</g>
<!-- Node30&#45;&gt;Node32 -->
<g id="edge31_Node000030_Node000032" class="edge">
<title>Node30&#45;&gt;Node32</title>
<g id="a_edge31_Node000030_Node000032"><a xlink:title=" ">
<path fill="none" stroke="#63b8ff" d="M622.13,-293.25C640.52,-293.25 659.71,-293.25 677.26,-293.25"/>
<polygon fill="#63b8ff" stroke="#63b8ff" points="622.33,-289.75 612.33,-293.25 622.33,-296.75 622.33,-289.75"/>
</a>
</g>
</g>
<!-- Node33 -->
<g id="Node000033" class="node">
<title>Node33</title>
<g id="a_Node000033"><a xlink:href="class_c_p_s_1_1_e_m_t_1_1_ph3_1_1_s_s_n___g_f_m.html" target="_top" xlink:title="Three&#45;phase grid&#45;forming inverter represented by a locally linearized affine state&#45;space model.">
<polygon fill="white" stroke="#666666" points="810.62,-257.38 677.62,-257.38 677.62,-235.12 810.62,-235.12 810.62,-257.38"/>
<text text-anchor="middle" x="744.12" y="-243.88" font-family="Helvetica,sans-Serif" font-size="10.00">CPS::EMT::Ph3::SSN_GFM</text>
</a>
</g>
</g>
<!-- Node30&#45;&gt;Node33 -->
<g id="edge32_Node000030_Node000033" class="edge">
<title>Node30&#45;&gt;Node33</title>
<g id="a_edge32_Node000030_Node000033"><a xlink:title=" ">
<path fill="none" stroke="#63b8ff" d="M621.74,-274.04C645.79,-268.54 671.26,-262.71 692.63,-257.81"/>
<polygon fill="#63b8ff" stroke="#63b8ff" points="621.26,-270.57 612.29,-276.21 622.82,-277.39 621.26,-270.57"/>
</a>
</g>
</g>
<!-- Node35 -->
<g id="Node000035" class="node">
<title>Node35</title>
<g id="a_Node000035"><a xlink:href="class_c_p_s_1_1_s_p_1_1_ph1_1_1_synchron_generator3_order_v_b_r.html" target="_top" xlink:title="Voltage&#45;Behind&#45;Reactance (VBR) implementation of 3rd order synchronous generator model.">
<polygon fill="white" stroke="#666666" points="625.88,-256.5 447.88,-256.5 447.88,-220 625.88,-220 625.88,-256.5"/>
<text text-anchor="start" x="455.88" y="-243" font-family="Helvetica,sans-Serif" font-size="10.00">CPS::SP::Ph1::SynchronGenerator3</text>
<text text-anchor="middle" x="536.88" y="-228.75" font-family="Helvetica,sans-Serif" font-size="10.00">OrderVBR</text>
</a>
</g>
</g>
<!-- Node34&#45;&gt;Node35 -->
<g id="edge34_Node000034_Node000035" class="edge">
<title>Node34&#45;&gt;Node35</title>
<g id="a_edge34_Node000034_Node000035"><a xlink:title=" ">
<path fill="none" stroke="#63b8ff" d="M391.12,-218.08C409.48,-220.64 428.94,-223.35 447.44,-225.93"/>
<polygon fill="#63b8ff" stroke="#63b8ff" points="391.74,-214.63 381.35,-216.72 390.77,-221.56 391.74,-214.63"/>
</a>
</g>
</g>
<!-- Node36 -->
<g id="Node000036" class="node">
<title>Node36</title>
<g id="a_Node000036"><a xlink:href="class_c_p_s_1_1_s_p_1_1_ph1_1_1_synchron_generator4_order_v_b_r.html" target="_top" xlink:title="Voltage&#45;Behind&#45;Reactance (VBR) implementation of 4th order synchronous generator model.">
<polygon fill="white" stroke="#666666" points="625.88,-201.5 447.88,-201.5 447.88,-165 625.88,-165 625.88,-201.5"/>
<text text-anchor="start" x="455.88" y="-188" font-family="Helvetica,sans-Serif" font-size="10.00">CPS::SP::Ph1::SynchronGenerator4</text>
<text text-anchor="middle" x="536.88" y="-173.75" font-family="Helvetica,sans-Serif" font-size="10.00">OrderVBR</text>
</a>
</g>
</g>
<!-- Node34&#45;&gt;Node36 -->
<g id="edge35_Node000034_Node000036" class="edge">
<title>Node34&#45;&gt;Node36</title>
<g id="a_edge35_Node000034_Node000036"><a xlink:title=" ">
<path fill="none" stroke="#63b8ff" d="M391.12,-197.75C409.48,-195.91 428.94,-193.96 447.44,-192.11"/>
<polygon fill="#63b8ff" stroke="#63b8ff" points="390.96,-194.25 381.36,-198.73 391.66,-201.21 390.96,-194.25"/>
</a>
</g>
</g>
<!-- Node37 -->
<g id="Node000037" class="node">
<title>Node37</title>
<g id="a_Node000037"><a xlink:href="class_c_p_s_1_1_s_p_1_1_ph1_1_1_synchron_generator5_order_v_b_r.html" target="_top" xlink:title="Voltage&#45;Behind&#45;Reactance (VBR) implementation of 5th type 2 order synchronous generator model Ref: Mi...">
<polygon fill="white" stroke="#666666" points="625.88,-146.5 447.88,-146.5 447.88,-110 625.88,-110 625.88,-146.5"/>
<text text-anchor="start" x="455.88" y="-133" font-family="Helvetica,sans-Serif" font-size="10.00">CPS::SP::Ph1::SynchronGenerator5</text>
<text text-anchor="middle" x="536.88" y="-118.75" font-family="Helvetica,sans-Serif" font-size="10.00">OrderVBR</text>
</a>
</g>
</g>
<!-- Node34&#45;&gt;Node37 -->
<g id="edge36_Node000034_Node000037" class="edge">
<title>Node34&#45;&gt;Node37</title>
<g id="a_edge36_Node000034_Node000037"><a xlink:title=" ">
<path fill="none" stroke="#63b8ff" d="M390.66,-184.95C395.48,-183.17 400.21,-181.27 404.75,-179.25 422.1,-171.54 423.47,-164.12 440.75,-156.25 448.19,-152.86 456.15,-149.76 464.17,-146.97"/>
<polygon fill="#63b8ff" stroke="#63b8ff" points="389.71,-181.57 381.42,-188.17 392.02,-188.18 389.71,-181.57"/>
</a>
</g>
</g>
<!-- Node38 -->
<g id="Node000038" class="node">
<title>Node38</title>
<g id="a_Node000038"><a xlink:href="class_c_p_s_1_1_s_p_1_1_ph1_1_1_synchron_generator6a_order_v_b_r.html" target="_top" xlink:title="Voltage&#45;Behind&#45;Reactance (VBR) implementation of 6th order synchronous generator model Marconato&#39;s mo...">
<polygon fill="white" stroke="#666666" points="628.5,-91.5 445.25,-91.5 445.25,-55 628.5,-55 628.5,-91.5"/>
<text text-anchor="start" x="453.25" y="-78" font-family="Helvetica,sans-Serif" font-size="10.00">CPS::SP::Ph1::SynchronGenerator6a</text>
<text text-anchor="middle" x="536.88" y="-63.75" font-family="Helvetica,sans-Serif" font-size="10.00">OrderVBR</text>
</a>
</g>
</g>
<!-- Node34&#45;&gt;Node38 -->
<g id="edge37_Node000034_Node000038" class="edge">
<title>Node34&#45;&gt;Node38</title>
<g id="a_edge37_Node000034_Node000038"><a xlink:title=" ">
<path fill="none" stroke="#63b8ff" d="M390.29,-188.99C395.46,-186.21 400.34,-182.99 404.75,-179.25 433.88,-154.57 411.85,-126.2 440.75,-101.25 444.92,-97.65 449.53,-94.51 454.41,-91.78"/>
<polygon fill="#63b8ff" stroke="#63b8ff" points="388.98,-185.74 381.43,-193.16 391.96,-192.07 388.98,-185.74"/>
</a>
</g>
</g>
<!-- Node39 -->
<g id="Node000039" class="node">
<title>Node39</title>
<g id="a_Node000039"><a xlink:href="class_c_p_s_1_1_s_p_1_1_ph1_1_1_synchron_generator6b_order_v_b_r.html" target="_top" xlink:title="Voltage&#45;Behind&#45;Reactance (VBR) implementation of 6th order synchronous generator model Anderson&#45;Fouad...">
<polygon fill="white" stroke="#666666" points="628.88,-36.5 444.88,-36.5 444.88,0 628.88,0 628.88,-36.5"/>
<text text-anchor="start" x="452.88" y="-23" font-family="Helvetica,sans-Serif" font-size="10.00">CPS::SP::Ph1::SynchronGenerator6b</text>
<text text-anchor="middle" x="536.88" y="-8.75" font-family="Helvetica,sans-Serif" font-size="10.00">OrderVBR</text>
</a>
</g>
</g>
<!-- Node34&#45;&gt;Node39 -->
<g id="edge38_Node000034_Node000039" class="edge">
<title>Node34&#45;&gt;Node39</title>
<g id="a_edge38_Node000034_Node000039"><a xlink:title=" ">
<path fill="none" stroke="#63b8ff" d="M389.93,-190.45C395.34,-187.34 400.37,-183.65 404.75,-179.25 447.98,-135.88 397.93,-90.02 440.75,-46.25 444.24,-42.68 448.16,-39.56 452.37,-36.84"/>
<polygon fill="#63b8ff" stroke="#63b8ff" points="388.61,-187.2 381.19,-194.77 391.71,-193.48 388.61,-187.2"/>
</a>
</g>
</g>
</g>
</svg>

<g id="navigator" transform="translate(0 0)" fill="#404254">
  <rect fill="#f2f5e9" fill-opacity="0.5" stroke="#606060" stroke-width=".5" x="0" y="0" width="60" height="60"/>
  <use id="zoomplus" xlink:href="#zoomPlus" x="17" y="9" onmousedown="handleZoom(evt,'in')"/>
  <use id="zoomminus" xlink:href="#zoomMin" x="42" y="9" onmousedown="handleZoom(evt,'out')"/>
  <use id="reset" xlink:href="#resetDef" x="30" y="36" onmousedown="handleReset()"/>
   <use id="arrowup" xlink:href="#arrowUp" x="0" y="0" onmousedown="handlePan(0,-1)"/>
  <use id="arrowright" xlink:href="#arrowRight" x="0" y="0" onmousedown="handlePan(1,0)"/>
  <use id="arrowdown" xlink:href="#arrowDown" x="0" y="0" onmousedown="handlePan(0,1)"/>
  <use id="arrowleft" xlink:href="#arrowLeft" x="0" y="0" onmousedown="handlePan(-1,0)"/>
</g>
<svg viewBox="0 0 15 15" width="100%" height="30px" preserveAspectRatio="xMaxYMin meet">
 <g id="arrow_out" transform="scale(0.3 0.3)">
  <a xlink:href="class_c_p_s_1_1_m_n_a_variable_comp_interface__inherit__graph_org.svg" target="_base">
   <rect id="button" ry="5" rx="5" y="6" x="6" height="38" width="38"
        fill="#f2f5e9" fill-opacity="0.5" stroke="#606060" stroke-width="1.0"/>
   <path id="arrow"
     d="M 11.500037,31.436501 C 11.940474,20.09759 22.043105,11.32322 32.158766,21.979434 L 37.068811,17.246167 C 37.068811,17.246167 37.088388,32 37.088388,32 L 22.160133,31.978069 C 22.160133,31.978069 26.997745,27.140456 26.997745,27.140456 C 18.528582,18.264221 13.291696,25.230495 11.500037,31.436501 z"
     style="fill:#404040;"/>
  </a>
 </g>
</svg>

<style type='text/css'>
<![CDATA[
[data-mouse-over-selected='false'] { opacity: 0.7; }
[data-mouse-over-selected='true']  { opacity: 1.0; }
]]>
</style>
<script type="application/ecmascript"><![CDATA[
document.addEventListener('DOMContentLoaded', (event) => {
  highlightEdges();
  highlightAdjacentNodes();
});
]]></script>
</svg>
