<?xml version="1.0" encoding="UTF-8" standalone="no"?>
<!DOCTYPE svg PUBLIC "-//W3C//DTD SVG 1.1//EN"
 "http://www.w3.org/Graphics/SVG/1.1/DTD/svg11.dtd">
<!-- Generated by graphviz version 2.50.0 (0)
 -->
<!-- Title: CPS::EMT::Ph3::VoltageSource Pages: 1 -->
<!--zoomable 531 -->
<svg id="main" version="1.1" xmlns="http://www.w3.org/2000/svg" xmlns:xlink="http://www.w3.org/1999/xlink" xml:space="preserve" onload="init(evt)">
<style type="text/css"><![CDATA[
.edge:hover path { stroke: red; }
.edge:hover polygon { stroke: red; fill: red; }
]]></style>
<script type="text/javascript"><![CDATA[
var edges = document.getElementsByTagName('g');
if (edges && edges.length) {
  for (var i=0;i<edges.length;i++) {
    if (edges[i].id.substr(0,4)=='edge') {
      edges[i].setAttribute('class','edge');
    }
  }
}
]]></script>
        <defs>
                <circle id="rim" cx="0" cy="0" r="7"/>
                <circle id="rim2" cx="0" cy="0" r="3.5"/>
                <g id="zoomPlus">
                        <use xlink:href="#rim" fill="#404040">
                                <set attributeName="fill" to="#808080" begin="zoomplus.mouseover" end="zoomplus.mouseout"/>
                        </use>
                        <path d="M-4,0h8M0,-4v8" fill="none" stroke="white" stroke-width="1.5" pointer-events="none"/>
                </g>
                <g id="zoomMin">
                        <use xlink:href="#rim" fill="#404040">
                                <set attributeName="fill" to="#808080" begin="zoomminus.mouseover" end="zoomminus.mouseout"/>
                        </use>
                        <path d="M-4,0h8" fill="none" stroke="white" stroke-width="1.5" pointer-events="none"/>
                </g>
                <g id="dirArrow">
                        <path fill="none" stroke="white" stroke-width="1.5" d="M0,-3.0v7 M-2.5,-0.5L0,-3.0L2.5,-0.5"/>
                </g>
               <g id="resetDef">
                       <use xlink:href="#rim2" fill="#404040">
                               <set attributeName="fill" to="#808080" begin="reset.mouseover" end="reset.mouseout"/>
                       </use>
               </g>
        </defs>

<script type="text/javascript">
var viewWidth = 1972;
var viewHeight = 531;
var sectionId = 'dynsection-1';
</script>
<script xlink:href="svgpan.js"/>
<svg id="graph" class="graph">
<g id="viewport">
<title>CPS::EMT::Ph3::VoltageSource</title>
<!-- Node1 -->
<g id="node1" class="node">
<title>Node1</title>
<g id="a_node1"><a xlink:title="Ideal Voltage source model.">
<polygon fill="#bfbfbf" stroke="black" points="1808,-123.5 1808,-142.5 1964,-142.5 1964,-123.5 1808,-123.5"/>
<text text-anchor="middle" x="1886" y="-130.5" font-family="Helvetica,sans-Serif" font-size="10.00">CPS::EMT::Ph3::VoltageSource</text>
</a>
</g>
</g>
<!-- Node2 -->
<g id="node2" class="node">
<title>Node2</title>
<g id="a_node2"><a xlink:href="class_c_p_s_1_1_m_n_a_sim_power_comp.html" target="_top" xlink:title=" ">
<polygon fill="none" stroke="black" points="1619,-345 1619,-375 1756,-375 1756,-345 1619,-345"/>
<text text-anchor="start" x="1627" y="-363" font-family="Helvetica,sans-Serif" font-size="10.00">CPS::MNASimPowerComp</text>
<text text-anchor="middle" x="1687.5" y="-352" font-family="Helvetica,sans-Serif" font-size="10.00">&lt; Real &gt;</text>
</a>
</g>
</g>
<!-- Node2&#45;&gt;Node1 -->
<g id="edge1" class="edge">
<title>Node2&#45;&gt;Node1</title>
<path fill="none" stroke="midnightblue" d="M1708.45,-336.95C1750.64,-288.21 1847.44,-176.39 1876.56,-142.75"/>
<polygon fill="midnightblue" stroke="midnightblue" points="1705.6,-334.9 1701.7,-344.75 1710.89,-339.48 1705.6,-334.9"/>
</g>
<!-- Node3 -->
<g id="node3" class="node">
<title>Node3</title>
<g id="a_node3"><a xlink:href="class_c_p_s_1_1_sim_power_comp.html" target="_top" xlink:title=" ">
<polygon fill="none" stroke="black" points="1354,-294 1354,-324 1473,-324 1473,-294 1354,-294"/>
<text text-anchor="start" x="1362" y="-312" font-family="Helvetica,sans-Serif" font-size="10.00">CPS::SimPowerComp&lt;</text>
<text text-anchor="middle" x="1413.5" y="-301" font-family="Helvetica,sans-Serif" font-size="10.00"> Real &gt;</text>
</a>
</g>
</g>
<!-- Node3&#45;&gt;Node2 -->
<g id="edge2" class="edge">
<title>Node3&#45;&gt;Node2</title>
<path fill="none" stroke="midnightblue" d="M1483.22,-321.88C1524.75,-329.67 1577.47,-339.56 1618.81,-347.31"/>
<polygon fill="midnightblue" stroke="midnightblue" points="1483.66,-318.41 1473.19,-320 1482.37,-325.29 1483.66,-318.41"/>
</g>
<!-- Node4 -->
<g id="node4" class="node">
<title>Node4</title>
<g id="a_node4"><a xlink:href="class_c_p_s_1_1_topological_power_comp.html" target="_top" xlink:title=" ">
<polygon fill="none" stroke="black" points="900,-266.5 900,-285.5 1048,-285.5 1048,-266.5 900,-266.5"/>
<text text-anchor="middle" x="974" y="-273.5" font-family="Helvetica,sans-Serif" font-size="10.00">CPS::TopologicalPowerComp</text>
</a>
</g>
</g>
<!-- Node4&#45;&gt;Node3 -->
<g id="edge3" class="edge">
<title>Node4&#45;&gt;Node3</title>
<path fill="none" stroke="midnightblue" d="M1058.27,-282.28C1144.72,-288.8 1277.73,-298.83 1353.77,-304.57"/>
<polygon fill="midnightblue" stroke="midnightblue" points="1058.46,-278.79 1048.23,-281.52 1057.94,-285.77 1058.46,-278.79"/>
</g>
<!-- Node11 -->
<g id="node11" class="node">
<title>Node11</title>
<g id="a_node11"><a xlink:href="class_c_p_s_1_1_sim_power_comp.html" target="_top" xlink:title="Base class for all components that are transmitting power.">
<polygon fill="none" stroke="black" points="1151,-311 1151,-341 1270,-341 1270,-311 1151,-311"/>
<text text-anchor="start" x="1159" y="-329" font-family="Helvetica,sans-Serif" font-size="10.00">CPS::SimPowerComp&lt;</text>
<text text-anchor="middle" x="1210.5" y="-318" font-family="Helvetica,sans-Serif" font-size="10.00"> VarType &gt;</text>
</a>
</g>
</g>
<!-- Node4&#45;&gt;Node11 -->
<g id="edge12" class="edge">
<title>Node4&#45;&gt;Node11</title>
<path fill="none" stroke="midnightblue" d="M1029.59,-287.64C1065.93,-295.39 1113.65,-305.56 1150.81,-313.49"/>
<polygon fill="midnightblue" stroke="midnightblue" points="1030.17,-284.18 1019.66,-285.52 1028.71,-291.03 1030.17,-284.18"/>
</g>
<!-- Node5 -->
<g id="node5" class="node">
<title>Node5</title>
<g id="a_node5"><a xlink:href="class_c_p_s_1_1_identified_object.html" target="_top" xlink:title=" ">
<polygon fill="none" stroke="black" points="683,-265.5 683,-284.5 799,-284.5 799,-265.5 683,-265.5"/>
<text text-anchor="middle" x="741" y="-272.5" font-family="Helvetica,sans-Serif" font-size="10.00">CPS::IdentifiedObject</text>
</a>
</g>
</g>
<!-- Node5&#45;&gt;Node4 -->
<g id="edge4" class="edge">
<title>Node5&#45;&gt;Node4</title>
<path fill="none" stroke="midnightblue" d="M809.34,-275.29C837.77,-275.41 870.94,-275.56 899.96,-275.68"/>
<polygon fill="midnightblue" stroke="midnightblue" points="809.12,-271.79 799.1,-275.25 809.09,-278.79 809.12,-271.79"/>
</g>
<!-- Node6 -->
<g id="node6" class="node">
<title>Node6</title>
<g id="a_node6"><a xlink:href="class_c_p_s_1_1_attribute.html" target="_top" xlink:title=" ">
<polygon fill="none" stroke="black" points="465.5,-262.5 465.5,-281.5 592.5,-281.5 592.5,-262.5 465.5,-262.5"/>
<text text-anchor="middle" x="529" y="-269.5" font-family="Helvetica,sans-Serif" font-size="10.00">CPS::Attribute&lt; String &gt;</text>
</a>
</g>
</g>
<!-- Node6&#45;&gt;Node5 -->
<g id="edge5" class="edge">
<title>Node6&#45;&gt;Node5</title>
<path fill="none" stroke="#9a32cd" stroke-dasharray="5,2" d="M602.98,-273.04C629.18,-273.42 658.32,-273.83 682.97,-274.19"/>
<polygon fill="#9a32cd" stroke="#9a32cd" points="602.77,-269.54 592.72,-272.9 602.67,-276.54 602.77,-269.54"/>
<text text-anchor="middle" x="645" y="-287" font-family="Helvetica,sans-Serif" font-size="10.00"> mName</text>
<text text-anchor="middle" x="645" y="-276" font-family="Helvetica,sans-Serif" font-size="10.00">mUID</text>
</g>
<!-- Node7 -->
<g id="node7" class="node">
<title>Node7</title>
<g id="a_node7"><a xlink:href="class_c_p_s_1_1_attribute_base.html" target="_top" xlink:title=" ">
<polygon fill="none" stroke="black" points="5.5,-210.5 5.5,-229.5 110.5,-229.5 110.5,-210.5 5.5,-210.5"/>
<text text-anchor="middle" x="58" y="-217.5" font-family="Helvetica,sans-Serif" font-size="10.00">CPS::AttributeBase</text>
</a>
</g>
</g>
<!-- Node7&#45;&gt;Node6 -->
<g id="edge6" class="edge">
<title>Node7&#45;&gt;Node6</title>
<path fill="none" stroke="midnightblue" d="M120.77,-210.37C195.93,-200.8 326.02,-191.18 433,-219 465.35,-227.41 498.38,-249.53 515.69,-262.38"/>
<polygon fill="midnightblue" stroke="midnightblue" points="120,-206.94 110.54,-211.72 120.91,-213.88 120,-206.94"/>
</g>
<!-- Node9 -->
<g id="node9" class="node">
<title>Node9</title>
<g id="a_node9"><a xlink:href="class_c_p_s_1_1_attribute.html" target="_top" xlink:title=" ">
<polygon fill="none" stroke="black" points="172,-247.5 172,-266.5 276,-266.5 276,-247.5 172,-247.5"/>
<text text-anchor="middle" x="224" y="-254.5" font-family="Helvetica,sans-Serif" font-size="10.00">CPS::Attribute&lt; T &gt;</text>
</a>
</g>
</g>
<!-- Node7&#45;&gt;Node9 -->
<g id="edge9" class="edge">
<title>Node7&#45;&gt;Node9</title>
<path fill="none" stroke="midnightblue" d="M111.25,-231.79C133.64,-236.84 159.45,-242.66 180.62,-247.44"/>
<polygon fill="midnightblue" stroke="midnightblue" points="111.76,-228.32 101.23,-229.53 110.22,-235.14 111.76,-228.32"/>
</g>
<!-- Node12 -->
<g id="node12" class="node">
<title>Node12</title>
<g id="a_node12"><a xlink:href="class_c_p_s_1_1_attribute.html" target="_top" xlink:title=" ">
<polygon fill="none" stroke="black" points="460.5,-330 460.5,-360 597.5,-360 597.5,-330 460.5,-330"/>
<text text-anchor="start" x="468.5" y="-348" font-family="Helvetica,sans-Serif" font-size="10.00">CPS::Attribute&lt; MatrixVar</text>
<text text-anchor="middle" x="529" y="-337" font-family="Helvetica,sans-Serif" font-size="10.00">&lt; VarType &gt; &gt;</text>
</a>
</g>
</g>
<!-- Node7&#45;&gt;Node12 -->
<g id="edge14" class="edge">
<title>Node7&#45;&gt;Node12</title>
<path fill="none" stroke="midnightblue" d="M62.86,-239.78C71.45,-277.78 96.06,-360.39 153,-396 258.54,-462 313.04,-435.23 433,-402 462.29,-393.89 491.61,-374.08 509.77,-360.1"/>
<polygon fill="midnightblue" stroke="midnightblue" points="66.27,-238.97 60.77,-229.92 59.42,-240.43 66.27,-238.97"/>
</g>
<!-- Node15 -->
<g id="node15" class="node">
<title>Node15</title>
<g id="a_node15"><a xlink:href="class_c_p_s_1_1_attribute.html" target="_top" xlink:title=" ">
<polygon fill="none" stroke="black" points="464.5,-439.5 464.5,-458.5 593.5,-458.5 593.5,-439.5 464.5,-439.5"/>
<text text-anchor="middle" x="529" y="-446.5" font-family="Helvetica,sans-Serif" font-size="10.00">CPS::Attribute&lt; Matrix &gt;</text>
</a>
</g>
</g>
<!-- Node7&#45;&gt;Node15 -->
<g id="edge19" class="edge">
<title>Node7&#45;&gt;Node15</title>
<path fill="none" stroke="midnightblue" d="M60.85,-239.89C66.13,-283.59 85.53,-387.51 153,-430 203.13,-461.57 371.09,-457.89 464.31,-453.1"/>
<polygon fill="midnightblue" stroke="midnightblue" points="64.33,-239.49 59.77,-229.92 57.37,-240.24 64.33,-239.49"/>
</g>
<!-- Node20 -->
<g id="node20" class="node">
<title>Node20</title>
<g id="a_node20"><a xlink:href="class_c_p_s_1_1_attribute.html" target="_top" xlink:title=" ">
<polygon fill="none" stroke="black" points="469.5,-60.5 469.5,-79.5 588.5,-79.5 588.5,-60.5 469.5,-60.5"/>
<text text-anchor="middle" x="529" y="-67.5" font-family="Helvetica,sans-Serif" font-size="10.00">CPS::Attribute&lt; Real &gt;</text>
</a>
</g>
</g>
<!-- Node7&#45;&gt;Node20 -->
<g id="edge29" class="edge">
<title>Node7&#45;&gt;Node20</title>
<path fill="none" stroke="midnightblue" d="M67.64,-200.92C81.32,-173.21 110.83,-122.66 153,-100 206.15,-71.44 377.89,-68.48 469.37,-69.04"/>
<polygon fill="midnightblue" stroke="midnightblue" points="64.3,-199.79 63.17,-210.32 70.63,-202.79 64.3,-199.79"/>
</g>
<!-- Node22 -->
<g id="node22" class="node">
<title>Node22</title>
<g id="a_node22"><a xlink:href="class_c_p_s_1_1_attribute.html" target="_top" xlink:title=" ">
<polygon fill="none" stroke="black" points="451,-136.5 451,-155.5 607,-155.5 607,-136.5 451,-136.5"/>
<text text-anchor="middle" x="529" y="-143.5" font-family="Helvetica,sans-Serif" font-size="10.00">CPS::Attribute&lt; MatrixComp &gt;</text>
</a>
</g>
</g>
<!-- Node7&#45;&gt;Node22 -->
<g id="edge33" class="edge">
<title>Node7&#45;&gt;Node22</title>
<path fill="none" stroke="midnightblue" d="M70.61,-201.83C86.2,-179.32 116.24,-142.11 153,-127 273.28,-77.55 433.83,-116.71 498.84,-136.41"/>
<polygon fill="midnightblue" stroke="midnightblue" points="67.67,-199.94 65.01,-210.2 73.48,-203.83 67.67,-199.94"/>
</g>
<!-- Node8 -->
<g id="node8" class="node">
<title>Node8</title>
<g id="a_node8"><a xlink:title=" ">
<polygon fill="none" stroke="#bfbfbf" points="166,-285.5 166,-326.5 282,-326.5 282,-285.5 166,-285.5"/>
<text text-anchor="start" x="174" y="-314.5" font-family="Helvetica,sans-Serif" font-size="10.00">std::enable_shared</text>
<text text-anchor="start" x="174" y="-303.5" font-family="Helvetica,sans-Serif" font-size="10.00">_from_this&lt; Attribute</text>
<text text-anchor="middle" x="224" y="-292.5" font-family="Helvetica,sans-Serif" font-size="10.00">&lt; String &gt; &gt;</text>
</a>
</g>
</g>
<!-- Node8&#45;&gt;Node6 -->
<g id="edge7" class="edge">
<title>Node8&#45;&gt;Node6</title>
<path fill="none" stroke="midnightblue" d="M292.14,-319.34C333.28,-325.19 386.75,-328.61 433,-318 463.54,-310.99 495.67,-292.82 513.64,-281.53"/>
<polygon fill="midnightblue" stroke="midnightblue" points="292.63,-315.88 282.22,-317.85 291.59,-322.8 292.63,-315.88"/>
</g>
<!-- Node9&#45;&gt;Node6 -->
<g id="edge8" class="edge">
<title>Node9&#45;&gt;Node6</title>
<path fill="none" stroke="orange" stroke-dasharray="5,2" d="M286.17,-260.03C338.3,-262.61 412.91,-266.3 465.44,-268.9"/>
<polygon fill="orange" stroke="orange" points="286.22,-256.53 276.06,-259.53 285.87,-263.52 286.22,-256.53"/>
<text text-anchor="middle" x="373" y="-270" font-family="Helvetica,sans-Serif" font-size="10.00"> &lt; String &gt;</text>
</g>
<!-- Node9&#45;&gt;Node12 -->
<g id="edge16" class="edge">
<title>Node9&#45;&gt;Node12</title>
<path fill="none" stroke="orange" stroke-dasharray="5,2" d="M271.58,-269.25C279.42,-271.42 287.46,-273.72 295,-276 303.07,-278.44 304.95,-279.48 313,-282 367.75,-299.14 430.78,-317.44 474.38,-329.88"/>
<polygon fill="orange" stroke="orange" points="272.37,-265.84 261.8,-266.57 270.52,-272.59 272.37,-265.84"/>
<text text-anchor="middle" x="373" y="-320" font-family="Helvetica,sans-Serif" font-size="10.00"> &lt; MatrixVar&lt; VarType &gt; &gt;</text>
</g>
<!-- Node9&#45;&gt;Node15 -->
<g id="edge21" class="edge">
<title>Node9&#45;&gt;Node15</title>
<path fill="none" stroke="orange" stroke-dasharray="5,2" d="M285.21,-268.74C288.75,-270.79 292.06,-273.19 295,-276 313.91,-294.06 296.32,-311.87 313,-332 361.38,-390.42 446.82,-424.25 494.12,-439.39"/>
<polygon fill="orange" stroke="orange" points="286.54,-265.5 276.01,-264.32 283.51,-271.81 286.54,-265.5"/>
<text text-anchor="middle" x="373" y="-417" font-family="Helvetica,sans-Serif" font-size="10.00"> &lt; Matrix &gt;</text>
</g>
<!-- Node9&#45;&gt;Node20 -->
<g id="edge31" class="edge">
<title>Node9&#45;&gt;Node20</title>
<path fill="none" stroke="orange" stroke-dasharray="5,2" d="M241.5,-240.02C258.42,-223.19 286.02,-197.35 313,-179 378.06,-134.76 463.51,-96.71 504.32,-79.62"/>
<polygon fill="orange" stroke="orange" points="238.65,-237.92 234.1,-247.48 243.62,-242.85 238.65,-237.92"/>
<text text-anchor="middle" x="373" y="-182" font-family="Helvetica,sans-Serif" font-size="10.00"> &lt; Real &gt;</text>
</g>
<!-- Node9&#45;&gt;Node22 -->
<g id="edge35" class="edge">
<title>Node9&#45;&gt;Node22</title>
<path fill="none" stroke="orange" stroke-dasharray="5,2" d="M273.49,-244.88C316.17,-233.61 379.66,-215.37 433,-194 461.3,-182.66 492.59,-166 511.25,-155.59"/>
<polygon fill="orange" stroke="orange" points="272.43,-241.54 263.64,-247.45 274.2,-248.31 272.43,-241.54"/>
<text text-anchor="middle" x="373" y="-236" font-family="Helvetica,sans-Serif" font-size="10.00"> &lt; MatrixComp &gt;</text>
</g>
<!-- Node10 -->
<g id="node10" class="node">
<title>Node10</title>
<g id="a_node10"><a xlink:title=" ">
<polygon fill="none" stroke="#bfbfbf" points="0,-457.5 0,-498.5 116,-498.5 116,-457.5 0,-457.5"/>
<text text-anchor="start" x="8" y="-486.5" font-family="Helvetica,sans-Serif" font-size="10.00">std::enable_shared</text>
<text text-anchor="start" x="8" y="-475.5" font-family="Helvetica,sans-Serif" font-size="10.00">_from_this&lt; Attribute</text>
<text text-anchor="middle" x="58" y="-464.5" font-family="Helvetica,sans-Serif" font-size="10.00">&lt; T &gt; &gt;</text>
</a>
</g>
</g>
<!-- Node10&#45;&gt;Node9 -->
<g id="edge10" class="edge">
<title>Node10&#45;&gt;Node9</title>
<path fill="none" stroke="midnightblue" d="M64.77,-447.41C74.77,-402.98 99.6,-320.99 153,-276 158.49,-271.38 165,-267.87 171.82,-265.21"/>
<polygon fill="midnightblue" stroke="midnightblue" points="61.32,-446.83 62.64,-457.34 68.16,-448.29 61.32,-446.83"/>
</g>
<!-- Node11&#45;&gt;Node3 -->
<g id="edge11" class="edge">
<title>Node11&#45;&gt;Node3</title>
<path fill="none" stroke="orange" stroke-dasharray="5,2" d="M1280.29,-310.95C1282.88,-310.59 1285.46,-310.27 1288,-310 1309.38,-307.7 1332.95,-307.04 1353.78,-307.09"/>
<polygon fill="orange" stroke="orange" points="1279.55,-307.52 1270.2,-312.5 1280.62,-314.44 1279.55,-307.52"/>
<text text-anchor="middle" x="1307.5" y="-313" font-family="Helvetica,sans-Serif" font-size="10.00"> &lt; Real &gt;</text>
</g>
<!-- Node17 -->
<g id="node17" class="node">
<title>Node17</title>
<g id="a_node17"><a xlink:href="class_c_p_s_1_1_m_n_a_sim_power_comp.html" target="_top" xlink:title="Base class for all MNA components that are transmitting power.">
<polygon fill="none" stroke="black" points="1345,-389 1345,-419 1482,-419 1482,-389 1345,-389"/>
<text text-anchor="start" x="1353" y="-407" font-family="Helvetica,sans-Serif" font-size="10.00">CPS::MNASimPowerComp</text>
<text text-anchor="middle" x="1413.5" y="-396" font-family="Helvetica,sans-Serif" font-size="10.00">&lt; VarType &gt;</text>
</a>
</g>
</g>
<!-- Node11&#45;&gt;Node17 -->
<g id="edge23" class="edge">
<title>Node11&#45;&gt;Node17</title>
<path fill="none" stroke="midnightblue" d="M1259.75,-344.72C1294.59,-358.24 1341.03,-376.26 1373.52,-388.87"/>
<polygon fill="midnightblue" stroke="midnightblue" points="1260.84,-341.39 1250.25,-341.04 1258.31,-347.92 1260.84,-341.39"/>
</g>
<!-- Node12&#45;&gt;Node11 -->
<g id="edge13" class="edge">
<title>Node12&#45;&gt;Node11</title>
<path fill="none" stroke="#9a32cd" stroke-dasharray="5,2" d="M607.68,-342.83C745.18,-338.98 1028.44,-331.06 1150.93,-327.64"/>
<polygon fill="#9a32cd" stroke="#9a32cd" points="607.54,-339.33 597.64,-343.11 607.73,-346.33 607.54,-339.33"/>
<text text-anchor="middle" x="849.5" y="-350" font-family="Helvetica,sans-Serif" font-size="10.00"> mIntfCurrent</text>
<text text-anchor="middle" x="849.5" y="-339" font-family="Helvetica,sans-Serif" font-size="10.00">mIntfVoltage</text>
</g>
<!-- Node13 -->
<g id="node13" class="node">
<title>Node13</title>
<g id="a_node13"><a xlink:title=" ">
<polygon fill="none" stroke="#bfbfbf" points="153,-345.5 153,-386.5 295,-386.5 295,-345.5 153,-345.5"/>
<text text-anchor="start" x="161" y="-374.5" font-family="Helvetica,sans-Serif" font-size="10.00">std::enable_shared</text>
<text text-anchor="start" x="161" y="-363.5" font-family="Helvetica,sans-Serif" font-size="10.00">_from_this&lt; Attribute</text>
<text text-anchor="middle" x="224" y="-352.5" font-family="Helvetica,sans-Serif" font-size="10.00">&lt; MatrixVar&lt; VarType &gt; &gt; &gt;</text>
</a>
</g>
</g>
<!-- Node13&#45;&gt;Node12 -->
<g id="edge15" class="edge">
<title>Node13&#45;&gt;Node12</title>
<path fill="none" stroke="midnightblue" d="M305.39,-360.43C353.75,-357.08 414.59,-352.86 460.45,-349.68"/>
<polygon fill="midnightblue" stroke="midnightblue" points="305.01,-356.95 295.28,-361.13 305.49,-363.93 305.01,-356.95"/>
</g>
<!-- Node14 -->
<g id="node14" class="node">
<title>Node14</title>
<g id="a_node14"><a xlink:href="class_c_p_s_1_1_m_n_a_interface.html" target="_top" xlink:title="Interface to be implemented by all models used by the MNA solver.">
<polygon fill="none" stroke="black" points="1157,-361.5 1157,-380.5 1264,-380.5 1264,-361.5 1157,-361.5"/>
<text text-anchor="middle" x="1210.5" y="-368.5" font-family="Helvetica,sans-Serif" font-size="10.00">CPS::MNAInterface</text>
</a>
</g>
</g>
<!-- Node14&#45;&gt;Node2 -->
<g id="edge17" class="edge">
<title>Node14&#45;&gt;Node2</title>
<path fill="none" stroke="midnightblue" d="M1274.41,-369.54C1363.76,-367.47 1526.78,-363.7 1618.73,-361.57"/>
<polygon fill="midnightblue" stroke="midnightblue" points="1274.06,-366.05 1264.15,-369.78 1274.23,-373.05 1274.06,-366.05"/>
</g>
<!-- Node14&#45;&gt;Node17 -->
<g id="edge24" class="edge">
<title>Node14&#45;&gt;Node17</title>
<path fill="none" stroke="midnightblue" d="M1274.12,-381.28C1296.53,-384.96 1321.89,-389.12 1344.72,-392.87"/>
<polygon fill="midnightblue" stroke="midnightblue" points="1274.48,-377.79 1264.05,-379.63 1273.35,-384.7 1274.48,-377.79"/>
</g>
<!-- Node15&#45;&gt;Node2 -->
<g id="edge18" class="edge">
<title>Node15&#45;&gt;Node2</title>
<path fill="none" stroke="#9a32cd" stroke-dasharray="5,2" d="M604.13,-449C644.33,-449 694.89,-449 740,-449 740,-449 740,-449 1414.5,-449 1508.41,-449 1611.91,-400.49 1659.66,-375.1"/>
<polygon fill="#9a32cd" stroke="#9a32cd" points="603.87,-445.5 593.87,-449 603.87,-452.5 603.87,-445.5"/>
<text text-anchor="middle" x="1099.5" y="-452" font-family="Helvetica,sans-Serif" font-size="10.00"> mRightVector</text>
</g>
<!-- Node15&#45;&gt;Node17 -->
<g id="edge25" class="edge">
<title>Node15&#45;&gt;Node17</title>
<path fill="none" stroke="#9a32cd" stroke-dasharray="5,2" d="M571.19,-436.72C613.23,-425.29 680.56,-410 740,-410 740,-410 740,-410 1211.5,-410 1255.84,-410 1305.65,-408.52 1344.6,-407.04"/>
<polygon fill="#9a32cd" stroke="#9a32cd" points="570.03,-433.41 561.33,-439.46 571.9,-440.16 570.03,-433.41"/>
<text text-anchor="middle" x="974" y="-413" font-family="Helvetica,sans-Serif" font-size="10.00"> mRightVector</text>
</g>
<!-- Node16 -->
<g id="node16" class="node">
<title>Node16</title>
<g id="a_node16"><a xlink:title=" ">
<polygon fill="none" stroke="#bfbfbf" points="166,-481.5 166,-522.5 282,-522.5 282,-481.5 166,-481.5"/>
<text text-anchor="start" x="174" y="-510.5" font-family="Helvetica,sans-Serif" font-size="10.00">std::enable_shared</text>
<text text-anchor="start" x="174" y="-499.5" font-family="Helvetica,sans-Serif" font-size="10.00">_from_this&lt; Attribute</text>
<text text-anchor="middle" x="224" y="-488.5" font-family="Helvetica,sans-Serif" font-size="10.00">&lt; Matrix &gt; &gt;</text>
</a>
</g>
</g>
<!-- Node16&#45;&gt;Node15 -->
<g id="edge20" class="edge">
<title>Node16&#45;&gt;Node15</title>
<path fill="none" stroke="midnightblue" d="M292.52,-491C333.25,-484.27 386.14,-475.38 433,-467 447.87,-464.34 464.03,-461.33 478.73,-458.53"/>
<polygon fill="midnightblue" stroke="midnightblue" points="291.74,-487.58 282.44,-492.66 292.88,-494.49 291.74,-487.58"/>
</g>
<!-- Node17&#45;&gt;Node2 -->
<g id="edge22" class="edge">
<title>Node17&#45;&gt;Node2</title>
<path fill="none" stroke="orange" stroke-dasharray="5,2" d="M1492.06,-391.45C1532.04,-384.99 1580.33,-377.17 1618.79,-370.95"/>
<polygon fill="orange" stroke="orange" points="1491.4,-388.02 1482.09,-393.07 1492.52,-394.93 1491.4,-388.02"/>
<text text-anchor="middle" x="1543" y="-392" font-family="Helvetica,sans-Serif" font-size="10.00"> &lt; Real &gt;</text>
</g>
<!-- Node18 -->
<g id="node18" class="node">
<title>Node18</title>
<g id="a_node18"><a xlink:href="class_shared_factory.html" target="_top" xlink:title=" ">
<polygon fill="none" stroke="black" points="1604,-98.5 1604,-117.5 1771,-117.5 1771,-98.5 1604,-98.5"/>
<text text-anchor="middle" x="1687.5" y="-105.5" font-family="Helvetica,sans-Serif" font-size="10.00">SharedFactory&lt; VoltageSource &gt;</text>
</a>
</g>
</g>
<!-- Node18&#45;&gt;Node1 -->
<g id="edge26" class="edge">
<title>Node18&#45;&gt;Node1</title>
<path fill="none" stroke="midnightblue" d="M1773.48,-118.81C1785.65,-120.36 1798.08,-121.94 1810.03,-123.46"/>
<polygon fill="midnightblue" stroke="midnightblue" points="1773.71,-115.31 1763.35,-117.52 1772.83,-122.26 1773.71,-115.31"/>
</g>
<!-- Node19 -->
<g id="node19" class="node">
<title>Node19</title>
<g id="a_node19"><a xlink:href="class_shared_factory.html" target="_top" xlink:title=" ">
<polygon fill="none" stroke="black" points="1361,-98.5 1361,-117.5 1466,-117.5 1466,-98.5 1361,-98.5"/>
<text text-anchor="middle" x="1413.5" y="-105.5" font-family="Helvetica,sans-Serif" font-size="10.00">SharedFactory&lt; T &gt;</text>
</a>
</g>
</g>
<!-- Node19&#45;&gt;Node18 -->
<g id="edge27" class="edge">
<title>Node19&#45;&gt;Node18</title>
<path fill="none" stroke="orange" stroke-dasharray="5,2" d="M1476.63,-108C1514.35,-108 1562.94,-108 1603.87,-108"/>
<polygon fill="orange" stroke="orange" points="1476.3,-104.5 1466.3,-108 1476.3,-111.5 1476.3,-104.5"/>
<text text-anchor="middle" x="1543" y="-111" font-family="Helvetica,sans-Serif" font-size="10.00"> &lt; VoltageSource &gt;</text>
</g>
<!-- Node20&#45;&gt;Node1 -->
<g id="edge28" class="edge">
<title>Node20&#45;&gt;Node1</title>
<path fill="none" stroke="#9a32cd" stroke-dasharray="5,2" d="M598.99,-70C639.96,-70 692.95,-70 740,-70 740,-70 740,-70 1688.5,-70 1757.64,-70 1834.22,-105.81 1867.72,-123.43"/>
<polygon fill="#9a32cd" stroke="#9a32cd" points="598.84,-66.5 588.84,-70 598.84,-73.5 598.84,-66.5"/>
<text text-anchor="middle" x="1210.5" y="-73" font-family="Helvetica,sans-Serif" font-size="10.00"> mSrcFreq</text>
</g>
<!-- Node21 -->
<g id="node21" class="node">
<title>Node21</title>
<g id="a_node21"><a xlink:title=" ">
<polygon fill="none" stroke="#bfbfbf" points="166,-0.5 166,-41.5 282,-41.5 282,-0.5 166,-0.5"/>
<text text-anchor="start" x="174" y="-29.5" font-family="Helvetica,sans-Serif" font-size="10.00">std::enable_shared</text>
<text text-anchor="start" x="174" y="-18.5" font-family="Helvetica,sans-Serif" font-size="10.00">_from_this&lt; Attribute</text>
<text text-anchor="middle" x="224" y="-7.5" font-family="Helvetica,sans-Serif" font-size="10.00">&lt; Real &gt; &gt;</text>
</a>
</g>
</g>
<!-- Node21&#45;&gt;Node20 -->
<g id="edge30" class="edge">
<title>Node21&#45;&gt;Node20</title>
<path fill="none" stroke="midnightblue" d="M292.35,-31.89C345.41,-40.47 418.65,-52.32 469.34,-60.51"/>
<polygon fill="midnightblue" stroke="midnightblue" points="292.78,-28.42 282.35,-30.27 291.66,-35.33 292.78,-28.42"/>
</g>
<!-- Node22&#45;&gt;Node1 -->
<g id="edge32" class="edge">
<title>Node22&#45;&gt;Node1</title>
<path fill="none" stroke="#9a32cd" stroke-dasharray="5,2" d="M617.72,-146C655.37,-146 699.84,-146 740,-146 740,-146 740,-146 1688.5,-146 1727.82,-146 1771.46,-143.38 1807.62,-140.49"/>
<polygon fill="#9a32cd" stroke="#9a32cd" points="617.29,-142.5 607.29,-146 617.29,-149.5 617.29,-142.5"/>
<text text-anchor="middle" x="1210.5" y="-149" font-family="Helvetica,sans-Serif" font-size="10.00"> mVoltageRef</text>
</g>
<!-- Node23 -->
<g id="node23" class="node">
<title>Node23</title>
<g id="a_node23"><a xlink:title=" ">
<polygon fill="none" stroke="#bfbfbf" points="166,-136.5 166,-177.5 282,-177.5 282,-136.5 166,-136.5"/>
<text text-anchor="start" x="174" y="-165.5" font-family="Helvetica,sans-Serif" font-size="10.00">std::enable_shared</text>
<text text-anchor="start" x="174" y="-154.5" font-family="Helvetica,sans-Serif" font-size="10.00">_from_this&lt; Attribute</text>
<text text-anchor="middle" x="224" y="-143.5" font-family="Helvetica,sans-Serif" font-size="10.00">&lt; MatrixComp &gt; &gt;</text>
</a>
</g>
</g>
<!-- Node23&#45;&gt;Node22 -->
<g id="edge34" class="edge">
<title>Node23&#45;&gt;Node22</title>
<path fill="none" stroke="midnightblue" d="M292.41,-154.55C339.31,-152.85 401.96,-150.58 450.86,-148.8"/>
<polygon fill="midnightblue" stroke="midnightblue" points="292.21,-151.06 282.35,-154.92 292.47,-158.05 292.21,-151.06"/>
</g>
</g>
</svg>
        <g id="navigator" transform="translate(0 0)" fill="#404254">
                <rect fill="#f2f5e9" fill-opacity="0.5" stroke="#606060" stroke-width=".5" x="0" y="0" width="60" height="60"/>
                <use id="zoomplus" xlink:href="#zoomPlus" x="17" y="9" onmousedown="handleZoom(evt,'in')"/>
                <use id="zoomminus" xlink:href="#zoomMin" x="42" y="9" onmousedown="handleZoom(evt,'out')"/>
                <use id="reset" xlink:href="#resetDef" x="30" y="36" onmousedown="handleReset()"/>
                <g id="arrowUp" xlink:href="#dirArrow" transform="translate(30 24)" onmousedown="handlePan(0,-1)">
                  <use xlink:href="#rim" fill="#404040">
                        <set attributeName="fill" to="#808080" begin="arrowUp.mouseover" end="arrowUp.mouseout"/>
                  </use>
                  <path fill="none" stroke="white" stroke-width="1.5" d="M0,-3.0v7 M-2.5,-0.5L0,-3.0L2.5,-0.5"/>
                </g>
                <g id="arrowRight" xlink:href="#dirArrow" transform="rotate(90) translate(36 -43)" onmousedown="handlePan(1,0)">
                  <use xlink:href="#rim" fill="#404040">
                        <set attributeName="fill" to="#808080" begin="arrowRight.mouseover" end="arrowRight.mouseout"/>
                  </use>
                  <path fill="none" stroke="white" stroke-width="1.5" d="M0,-3.0v7 M-2.5,-0.5L0,-3.0L2.5,-0.5"/>
                </g>
                <g id="arrowDown" xlink:href="#dirArrow" transform="rotate(180) translate(-30 -48)" onmousedown="handlePan(0,1)">
                  <use xlink:href="#rim" fill="#404040">
                        <set attributeName="fill" to="#808080" begin="arrowDown.mouseover" end="arrowDown.mouseout"/>
                  </use>
                  <path fill="none" stroke="white" stroke-width="1.5" d="M0,-3.0v7 M-2.5,-0.5L0,-3.0L2.5,-0.5"/>
                </g>
                <g id="arrowLeft" xlink:href="#dirArrow" transform="rotate(270) translate(-36 17)" onmousedown="handlePan(-1,0)">
                  <use xlink:href="#rim" fill="#404040">
                        <set attributeName="fill" to="#808080" begin="arrowLeft.mouseover" end="arrowLeft.mouseout"/>
                  </use>
                  <path fill="none" stroke="white" stroke-width="1.5" d="M0,-3.0v7 M-2.5,-0.5L0,-3.0L2.5,-0.5"/>
                </g>
        </g>
        <svg viewBox="0 0 15 15" width="100%" height="30px" preserveAspectRatio="xMaxYMin meet">
         <g id="arrow_out" transform="scale(0.3 0.3)">
          <a xlink:href="class_c_p_s_1_1_e_m_t_1_1_ph3_1_1_voltage_source__coll__graph_org.svg" target="_base">
           <rect id="button" ry="5" rx="5" y="6" x="6" height="38" width="38"
                fill="#f2f5e9" fill-opacity="0.5" stroke="#606060" stroke-width="1.0"/>
           <path id="arrow"
             d="M 11.500037,31.436501 C 11.940474,20.09759 22.043105,11.32322 32.158766,21.979434 L 37.068811,17.246167 C 37.068811,17.246167 37.088388,32 37.088388,32 L 22.160133,31.978069 C 22.160133,31.978069 26.997745,27.140456 26.997745,27.140456 C 18.528582,18.264221 13.291696,25.230495 11.500037,31.436501 z"
             style="fill:#404040;"/>
          </a>
         </g>
        </svg>
</svg>
