<?xml version="1.0" encoding="UTF-8" standalone="no"?>
<!DOCTYPE svg PUBLIC "-//W3C//DTD SVG 1.1//EN"
 "http://www.w3.org/Graphics/SVG/1.1/DTD/svg11.dtd">
<!-- Generated by graphviz version 2.42.4 (0)
 -->
<!-- Title: DPsim::Simulation Pages: 1 -->
<svg width="381pt" height="95pt"
 viewBox="0.00 0.00 381.00 95.00" xmlns="http://www.w3.org/2000/svg" xmlns:xlink="http://www.w3.org/1999/xlink">
<g id="graph0" class="graph" transform="scale(1 1) rotate(0) translate(4 91)">
<title>DPsim::Simulation</title>
<!-- Node1 -->
<g id="node1" class="node">
<title>Node1</title>
<g id="a_node1"><a xlink:title="The Simulation holds a SystemTopology and a Solver.">
<polygon fill="#bfbfbf" stroke="black" points="127,-0.5 127,-19.5 234,-19.5 234,-0.5 127,-0.5"/>
<text text-anchor="middle" x="180.5" y="-7.5" font-family="Helvetica,sans-Serif" font-size="10.00">DPsim::Simulation</text>
</a>
</g>
</g>
<!-- Node2 -->
<g id="node2" class="node">
<title>Node2</title>
<g id="a_node2"><a xlink:href="class_c_p_s_1_1_attribute_list.html" target="_top" xlink:title="Base class of objects having attributes to access member variables.">
<polygon fill="none" stroke="black" points="0,-67.5 0,-86.5 101,-86.5 101,-67.5 0,-67.5"/>
<text text-anchor="middle" x="50.5" y="-74.5" font-family="Helvetica,sans-Serif" font-size="10.00">CPS::AttributeList</text>
</a>
</g>
</g>
<!-- Node2&#45;&gt;Node1 -->
<g id="edge1" class="edge">
<title>Node2&#45;&gt;Node1</title>
<path fill="none" stroke="midnightblue" d="M76.95,-62.77C102.7,-49.9 141.08,-30.71 163.17,-19.67"/>
<polygon fill="midnightblue" stroke="midnightblue" points="75.14,-59.77 67.76,-67.37 78.27,-66.03 75.14,-59.77"/>
</g>
<!-- Node3 -->
<g id="node3" class="node">
<title>Node3</title>
<g id="a_node3"><a xlink:href="class_c_p_s_1_1_system_topology.html" target="_top" xlink:title=" ">
<polygon fill="none" stroke="black" points="119.5,-67.5 119.5,-86.5 241.5,-86.5 241.5,-67.5 119.5,-67.5"/>
<text text-anchor="middle" x="180.5" y="-74.5" font-family="Helvetica,sans-Serif" font-size="10.00">CPS::SystemTopology</text>
</a>
</g>
</g>
<!-- Node3&#45;&gt;Node1 -->
<g id="edge2" class="edge">
<title>Node3&#45;&gt;Node1</title>
<path fill="none" stroke="#9a32cd" stroke-dasharray="5,2" d="M180.5,-57.04C180.5,-44.67 180.5,-29.12 180.5,-19.63"/>
<polygon fill="#9a32cd" stroke="#9a32cd" points="177,-57.23 180.5,-67.23 184,-57.23 177,-57.23"/>
<text text-anchor="middle" x="205.5" y="-41" font-family="Helvetica,sans-Serif" font-size="10.00"> mSystem</text>
</g>
<!-- Node4 -->
<g id="node4" class="node">
<title>Node4</title>
<g id="a_node4"><a xlink:href="class_d_psim_1_1_event_queue.html" target="_top" xlink:title=" ">
<polygon fill="none" stroke="black" points="260,-67.5 260,-86.5 373,-86.5 373,-67.5 260,-67.5"/>
<text text-anchor="middle" x="316.5" y="-74.5" font-family="Helvetica,sans-Serif" font-size="10.00">DPsim::EventQueue</text>
</a>
</g>
</g>
<!-- Node4&#45;&gt;Node1 -->
<g id="edge3" class="edge">
<title>Node4&#45;&gt;Node1</title>
<path fill="none" stroke="#9a32cd" stroke-dasharray="5,2" d="M289.18,-62.94C262.24,-50.07 221.84,-30.76 198.63,-19.67"/>
<polygon fill="#9a32cd" stroke="#9a32cd" points="287.91,-66.21 298.44,-67.37 290.93,-59.9 287.91,-66.21"/>
<text text-anchor="middle" x="279.5" y="-41" font-family="Helvetica,sans-Serif" font-size="10.00"> mEvents</text>
</g>
</g>
</svg>
