<?xml version="1.0" encoding="UTF-8" standalone="no"?>
<!DOCTYPE svg PUBLIC "-//W3C//DTD SVG 1.1//EN"
 "http://www.w3.org/Graphics/SVG/1.1/DTD/svg11.dtd">
<!-- Generated by graphviz version 2.42.4 (0)
 -->
<!-- Title: CPS::SimNode&lt; VarType &gt; Pages: 1 -->
<svg width="1014pt" height="138pt"
 viewBox="0.00 0.00 1014.00 137.50" xmlns="http://www.w3.org/2000/svg" xmlns:xlink="http://www.w3.org/1999/xlink">
<g id="graph0" class="graph" transform="scale(1 1) rotate(0) translate(4 133.5)">
<title>CPS::SimNode&lt; VarType &gt;</title>
<!-- Node1 -->
<g id="node1" class="node">
<title>Node1</title>
<g id="a_node1"><a xlink:title=" ">
<polygon fill="#bfbfbf" stroke="black" points="602,-61 602,-80 748,-80 748,-61 602,-61"/>
<text text-anchor="middle" x="675" y="-68" font-family="Helvetica,sans-Serif" font-size="10.00">CPS::SimNode&lt; VarType &gt;</text>
</a>
</g>
</g>
<!-- Node8 -->
<g id="node8" class="node">
<title>Node8</title>
<g id="a_node8"><a xlink:href="class_c_p_s_1_1_sim_node.html" target="_top" xlink:title=" ">
<polygon fill="none" stroke="black" points="854,-80 854,-99 1006,-99 1006,-80 854,-80"/>
<text text-anchor="middle" x="930" y="-87" font-family="Helvetica,sans-Serif" font-size="10.00">CPS::SimNode&lt; Complex &gt;</text>
</a>
</g>
</g>
<!-- Node1&#45;&gt;Node8 -->
<g id="edge7" class="edge">
<title>Node1&#45;&gt;Node8</title>
<path fill="none" stroke="orange" stroke-dasharray="5,2" d="M758.39,-76.69C789.05,-78.99 823.66,-81.59 853.66,-83.84"/>
<polygon fill="orange" stroke="orange" points="758.4,-73.18 748.16,-75.92 757.87,-80.16 758.4,-73.18"/>
<text text-anchor="middle" x="801" y="-84.5" font-family="Helvetica,sans-Serif" font-size="10.00"> &lt; Complex &gt;</text>
</g>
<!-- Node9 -->
<g id="node9" class="node">
<title>Node9</title>
<g id="a_node9"><a xlink:href="class_c_p_s_1_1_sim_node.html" target="_top" xlink:title=" ">
<polygon fill="none" stroke="black" points="865,-42 865,-61 995,-61 995,-42 865,-42"/>
<text text-anchor="middle" x="930" y="-49" font-family="Helvetica,sans-Serif" font-size="10.00">CPS::SimNode&lt; Real &gt;</text>
</a>
</g>
</g>
<!-- Node1&#45;&gt;Node9 -->
<g id="edge8" class="edge">
<title>Node1&#45;&gt;Node9</title>
<path fill="none" stroke="orange" stroke-dasharray="5,2" d="M758.3,-63.11C760.9,-62.9 763.47,-62.7 766,-62.5 798.52,-59.96 834.71,-57.48 864.72,-55.52"/>
<polygon fill="orange" stroke="orange" points="757.88,-59.64 748.2,-63.95 758.45,-66.61 757.88,-59.64"/>
<text text-anchor="middle" x="801" y="-65.5" font-family="Helvetica,sans-Serif" font-size="10.00"> &lt; Real &gt;</text>
</g>
<!-- Node2 -->
<g id="node2" class="node">
<title>Node2</title>
<g id="a_node2"><a xlink:href="class_c_p_s_1_1_topological_node.html" target="_top" xlink:title=" ">
<polygon fill="none" stroke="black" points="433.5,-110 433.5,-129 555.5,-129 555.5,-110 433.5,-110"/>
<text text-anchor="middle" x="494.5" y="-117" font-family="Helvetica,sans-Serif" font-size="10.00">CPS::TopologicalNode</text>
</a>
</g>
</g>
<!-- Node2&#45;&gt;Node1 -->
<g id="edge1" class="edge">
<title>Node2&#45;&gt;Node1</title>
<path fill="none" stroke="midnightblue" d="M540.32,-107.26C548.53,-105.01 557.02,-102.69 565,-100.5 589.8,-93.7 617.76,-86 639.15,-80.11"/>
<polygon fill="midnightblue" stroke="midnightblue" points="539.23,-103.93 530.5,-109.94 541.07,-110.68 539.23,-103.93"/>
</g>
<!-- Node3 -->
<g id="node3" class="node">
<title>Node3</title>
<g id="a_node3"><a xlink:href="class_c_p_s_1_1_identified_object.html" target="_top" xlink:title=" ">
<polygon fill="none" stroke="black" points="138,-110 138,-129 257,-129 257,-110 138,-110"/>
<text text-anchor="middle" x="197.5" y="-117" font-family="Helvetica,sans-Serif" font-size="10.00">CPS::IdentifiedObject</text>
</a>
</g>
</g>
<!-- Node3&#45;&gt;Node2 -->
<g id="edge2" class="edge">
<title>Node3&#45;&gt;Node2</title>
<path fill="none" stroke="midnightblue" d="M267.28,-119.5C317.63,-119.5 385.29,-119.5 433.46,-119.5"/>
<polygon fill="midnightblue" stroke="midnightblue" points="267.14,-116 257.14,-119.5 267.14,-123 267.14,-116"/>
</g>
<!-- Node4 -->
<g id="node4" class="node">
<title>Node4</title>
<g id="a_node4"><a xlink:href="class_c_p_s_1_1_attribute_list.html" target="_top" xlink:title="Base class of objects having attributes to access member variables.">
<polygon fill="none" stroke="black" points="0,-110 0,-129 101,-129 101,-110 0,-110"/>
<text text-anchor="middle" x="50.5" y="-117" font-family="Helvetica,sans-Serif" font-size="10.00">CPS::AttributeList</text>
</a>
</g>
</g>
<!-- Node4&#45;&gt;Node3 -->
<g id="edge3" class="edge">
<title>Node4&#45;&gt;Node3</title>
<path fill="none" stroke="midnightblue" d="M111.46,-119.5C120.16,-119.5 129.1,-119.5 137.77,-119.5"/>
<polygon fill="midnightblue" stroke="midnightblue" points="111.4,-116 101.4,-119.5 111.4,-123 111.4,-116"/>
</g>
<!-- Node5 -->
<g id="node5" class="node">
<title>Node5</title>
<g id="a_node5"><a xlink:title=" ">
<polygon fill="none" stroke="#bfbfbf" points="432.5,-50 432.5,-91 556.5,-91 556.5,-50 432.5,-50"/>
<text text-anchor="start" x="440.5" y="-79" font-family="Helvetica,sans-Serif" font-size="10.00">std::enable_shared</text>
<text text-anchor="start" x="440.5" y="-68" font-family="Helvetica,sans-Serif" font-size="10.00">_from_this&lt; SimNode</text>
<text text-anchor="middle" x="494.5" y="-57" font-family="Helvetica,sans-Serif" font-size="10.00">&lt; VarType &gt; &gt;</text>
</a>
</g>
</g>
<!-- Node5&#45;&gt;Node1 -->
<g id="edge4" class="edge">
<title>Node5&#45;&gt;Node1</title>
<path fill="none" stroke="midnightblue" d="M567.22,-70.5C578.58,-70.5 590.33,-70.5 601.7,-70.5"/>
<polygon fill="midnightblue" stroke="midnightblue" points="566.93,-67 556.93,-70.5 566.93,-74 566.93,-67"/>
</g>
<!-- Node6 -->
<g id="node6" class="node">
<title>Node6</title>
<g id="a_node6"><a xlink:href="class_shared_factory.html" target="_top" xlink:title=" ">
<polygon fill="none" stroke="black" points="424,-0.5 424,-30.5 565,-30.5 565,-0.5 424,-0.5"/>
<text text-anchor="start" x="432" y="-18.5" font-family="Helvetica,sans-Serif" font-size="10.00">SharedFactory&lt; SimNode</text>
<text text-anchor="middle" x="494.5" y="-7.5" font-family="Helvetica,sans-Serif" font-size="10.00">&lt; VarType &gt; &gt;</text>
</a>
</g>
</g>
<!-- Node6&#45;&gt;Node1 -->
<g id="edge5" class="edge">
<title>Node6&#45;&gt;Node1</title>
<path fill="none" stroke="midnightblue" d="M554.11,-33.56C583.75,-42.69 618.53,-53.41 642.97,-60.94"/>
<polygon fill="midnightblue" stroke="midnightblue" points="554.86,-30.13 544.28,-30.53 552.8,-36.82 554.86,-30.13"/>
</g>
<!-- Node7 -->
<g id="node7" class="node">
<title>Node7</title>
<g id="a_node7"><a xlink:href="class_shared_factory.html" target="_top" xlink:title=" ">
<polygon fill="none" stroke="black" points="140.5,-6 140.5,-25 254.5,-25 254.5,-6 140.5,-6"/>
<text text-anchor="middle" x="197.5" y="-13" font-family="Helvetica,sans-Serif" font-size="10.00">SharedFactory&lt; T &gt;</text>
</a>
</g>
</g>
<!-- Node7&#45;&gt;Node6 -->
<g id="edge6" class="edge">
<title>Node7&#45;&gt;Node6</title>
<path fill="none" stroke="orange" stroke-dasharray="5,2" d="M264.82,-15.5C312.15,-15.5 375.66,-15.5 423.74,-15.5"/>
<polygon fill="orange" stroke="orange" points="264.68,-12 254.68,-15.5 264.68,-19 264.68,-12"/>
<text text-anchor="middle" x="340.5" y="-18.5" font-family="Helvetica,sans-Serif" font-size="10.00"> &lt; SimNode&lt; VarType &gt; &gt;</text>
</g>
</g>
</svg>
