<?xml version="1.0" encoding="UTF-8" standalone="no"?>
<!DOCTYPE svg PUBLIC "-//W3C//DTD SVG 1.1//EN"
 "http://www.w3.org/Graphics/SVG/1.1/DTD/svg11.dtd">
<!-- Generated by graphviz version 2.44.0 (0)
 -->
<!-- Title: CPS::Signal::DecouplingLineEMT Pages: 1 -->
<svg width="335pt" height="277pt"
 viewBox="0.00 0.00 335.00 277.00" xmlns="http://www.w3.org/2000/svg" xmlns:xlink="http://www.w3.org/1999/xlink">
<g id="graph0" class="graph" transform="scale(1 1) rotate(0) translate(4 273)">
<title>CPS::Signal::DecouplingLineEMT</title>
<!-- Node1 -->
<g id="node1" class="node">
<title>Node1</title>
<g id="a_node1"><a xlink:title=" ">
<polygon fill="#bfbfbf" stroke="black" points="63,-0.5 63,-19.5 227,-19.5 227,-0.5 63,-0.5"/>
<text text-anchor="middle" x="145" y="-7.5" font-family="Helvetica" font-size="10.00">CPS::Signal::DecouplingLineEMT</text>
</a>
</g>
</g>
<!-- Node2 -->
<g id="node2" class="node">
<title>Node2</title>
<g id="a_node2"><a xlink:href="class_c_p_s_1_1_sim_signal_comp.html" target="_top" xlink:title=" ">
<polygon fill="none" stroke="black" points="16,-63 16,-82 130,-82 130,-63 16,-63"/>
<text text-anchor="middle" x="73" y="-70" font-family="Helvetica" font-size="10.00">CPS::SimSignalComp</text>
</a>
</g>
</g>
<!-- Node2&#45;&gt;Node1 -->
<g id="edge1" class="edge">
<title>Node2&#45;&gt;Node1</title>
<path fill="none" stroke="midnightblue" d="M91.18,-56.22C104.96,-44.65 123.38,-29.17 134.7,-19.65"/>
<polygon fill="midnightblue" stroke="midnightblue" points="88.72,-53.72 83.32,-62.83 93.22,-59.08 88.72,-53.72"/>
</g>
<!-- Node3 -->
<g id="node3" class="node">
<title>Node3</title>
<g id="a_node3"><a xlink:href="class_c_p_s_1_1_topological_signal_comp.html" target="_top" xlink:title=" ">
<polygon fill="none" stroke="black" points="0,-135.5 0,-154.5 146,-154.5 146,-135.5 0,-135.5"/>
<text text-anchor="middle" x="73" y="-142.5" font-family="Helvetica" font-size="10.00">CPS::TopologicalSignalComp</text>
</a>
</g>
</g>
<!-- Node3&#45;&gt;Node2 -->
<g id="edge2" class="edge">
<title>Node3&#45;&gt;Node2</title>
<path fill="none" stroke="midnightblue" d="M73,-124.94C73,-111.03 73,-92.82 73,-82.22"/>
<polygon fill="midnightblue" stroke="midnightblue" points="69.5,-125.36 73,-135.36 76.5,-125.36 69.5,-125.36"/>
</g>
<!-- Node4 -->
<g id="node4" class="node">
<title>Node4</title>
<g id="a_node4"><a xlink:href="class_c_p_s_1_1_identified_object.html" target="_top" xlink:title=" ">
<polygon fill="none" stroke="black" points="17,-192.5 17,-211.5 129,-211.5 129,-192.5 17,-192.5"/>
<text text-anchor="middle" x="73" y="-199.5" font-family="Helvetica" font-size="10.00">CPS::IdentifiedObject</text>
</a>
</g>
</g>
<!-- Node4&#45;&gt;Node3 -->
<g id="edge3" class="edge">
<title>Node4&#45;&gt;Node3</title>
<path fill="none" stroke="midnightblue" d="M73,-182.12C73,-172.82 73,-162.06 73,-154.71"/>
<polygon fill="midnightblue" stroke="midnightblue" points="69.5,-182.41 73,-192.41 76.5,-182.41 69.5,-182.41"/>
</g>
<!-- Node5 -->
<g id="node5" class="node">
<title>Node5</title>
<g id="a_node5"><a xlink:href="class_c_p_s_1_1_attribute_list.html" target="_top" xlink:title="Base class of objects having attributes to access member variables.">
<polygon fill="none" stroke="black" points="25,-249.5 25,-268.5 121,-268.5 121,-249.5 25,-249.5"/>
<text text-anchor="middle" x="73" y="-256.5" font-family="Helvetica" font-size="10.00">CPS::AttributeList</text>
</a>
</g>
</g>
<!-- Node5&#45;&gt;Node4 -->
<g id="edge4" class="edge">
<title>Node5&#45;&gt;Node4</title>
<path fill="none" stroke="midnightblue" d="M73,-239.12C73,-229.82 73,-219.06 73,-211.71"/>
<polygon fill="midnightblue" stroke="midnightblue" points="69.5,-239.41 73,-249.41 76.5,-239.41 69.5,-239.41"/>
</g>
<!-- Node6 -->
<g id="node6" class="node">
<title>Node6</title>
<g id="a_node6"><a xlink:href="class_shared_factory.html" target="_top" xlink:title=" ">
<polygon fill="none" stroke="black" points="148.5,-57.5 148.5,-87.5 287.5,-87.5 287.5,-57.5 148.5,-57.5"/>
<text text-anchor="start" x="156.5" y="-75.5" font-family="Helvetica" font-size="10.00">SharedFactory&lt; Decoupling</text>
<text text-anchor="middle" x="218" y="-64.5" font-family="Helvetica" font-size="10.00">LineEMT &gt;</text>
</a>
</g>
</g>
<!-- Node6&#45;&gt;Node1 -->
<g id="edge5" class="edge">
<title>Node6&#45;&gt;Node1</title>
<path fill="none" stroke="midnightblue" d="M193.35,-51.07C180.37,-40.31 165.15,-27.7 155.3,-19.54"/>
<polygon fill="midnightblue" stroke="midnightblue" points="191.14,-53.78 201.07,-57.47 195.6,-48.39 191.14,-53.78"/>
</g>
<!-- Node7 -->
<g id="node7" class="node">
<title>Node7</title>
<g id="a_node7"><a xlink:href="class_shared_factory.html" target="_top" xlink:title=" ">
<polygon fill="none" stroke="black" points="165.5,-135.5 165.5,-154.5 270.5,-154.5 270.5,-135.5 165.5,-135.5"/>
<text text-anchor="middle" x="218" y="-142.5" font-family="Helvetica" font-size="10.00">SharedFactory&lt; T &gt;</text>
</a>
</g>
</g>
<!-- Node7&#45;&gt;Node6 -->
<g id="edge6" class="edge">
<title>Node7&#45;&gt;Node6</title>
<path fill="none" stroke="orange" stroke-dasharray="5,2" d="M218,-125.24C218,-113.41 218,-98.38 218,-87.58"/>
<polygon fill="orange" stroke="orange" points="214.5,-125.36 218,-135.36 221.5,-125.36 214.5,-125.36"/>
<text text-anchor="middle" x="272.5" y="-109" font-family="Helvetica" font-size="10.00"> &lt; DecouplingLineEMT &gt;</text>
</g>
</g>
</svg>
