<?xml version="1.0" encoding="UTF-8" standalone="no"?>
<!DOCTYPE svg PUBLIC "-//W3C//DTD SVG 1.1//EN"
 "http://www.w3.org/Graphics/SVG/1.1/DTD/svg11.dtd">
<!-- Generated by graphviz version 12.2.1 (20241206.2353)
 -->
<!-- Title: CPS::EMT::Ph3::RxLine Pages: 1 -->
<svg width="1281pt" height="216pt"
 viewBox="0.00 0.00 1281.00 216.38" xmlns="http://www.w3.org/2000/svg" xmlns:xlink="http://www.w3.org/1999/xlink">
<g id="graph0" class="graph" transform="scale(1 1) rotate(0) translate(4 212.38)">
<title>CPS::EMT::Ph3::RxLine</title>
<!-- Node1 -->
<g id="Node000001" class="node">
<title>Node1</title>
<g id="a_Node000001"><a xlink:title=" ">
<polygon fill="#999999" stroke="#666666" points="1273,-62.25 1153.5,-62.25 1153.5,-40 1273,-40 1273,-62.25"/>
<text text-anchor="middle" x="1213.25" y="-48.75" font-family="Helvetica,sans-Serif" font-size="10.00">CPS::EMT::Ph3::RxLine</text>
</a>
</g>
</g>
<!-- Node2 -->
<g id="Node000002" class="node">
<title>Node2</title>
<g id="a_Node000002"><a xlink:href="class_c_p_s_1_1_composite_power_comp.html" target="_top" xlink:title=" ">
<polygon fill="white" stroke="#666666" points="1116.5,-116.38 970.75,-116.38 970.75,-79.88 1116.5,-79.88 1116.5,-116.38"/>
<text text-anchor="start" x="978.75" y="-102.88" font-family="Helvetica,sans-Serif" font-size="10.00">CPS::CompositePowerComp</text>
<text text-anchor="middle" x="1043.62" y="-88.62" font-family="Helvetica,sans-Serif" font-size="10.00">&lt; Real &gt;</text>
</a>
</g>
</g>
<!-- Node2&#45;&gt;Node1 -->
<g id="edge1_Node000001_Node000002" class="edge">
<title>Node2&#45;&gt;Node1</title>
<g id="a_edge1_Node000001_Node000002"><a xlink:title=" ">
<path fill="none" stroke="#63b8ff" d="M1122.29,-76.35C1139.04,-71.65 1156.12,-66.86 1170.83,-62.74"/>
<polygon fill="#63b8ff" stroke="#63b8ff" points="1121.5,-72.94 1112.81,-79.01 1123.39,-79.68 1121.5,-72.94"/>
</a>
</g>
</g>
<!-- Node3 -->
<g id="Node000003" class="node">
<title>Node3</title>
<g id="a_Node000003"><a xlink:href="class_c_p_s_1_1_m_n_a_sim_power_comp.html" target="_top" xlink:title=" ">
<polygon fill="white" stroke="#666666" points="880.38,-155.38 744.38,-155.38 744.38,-118.88 880.38,-118.88 880.38,-155.38"/>
<text text-anchor="start" x="752.38" y="-141.88" font-family="Helvetica,sans-Serif" font-size="10.00">CPS::MNASimPowerComp</text>
<text text-anchor="middle" x="812.38" y="-127.62" font-family="Helvetica,sans-Serif" font-size="10.00">&lt; Real &gt;</text>
</a>
</g>
</g>
<!-- Node3&#45;&gt;Node2 -->
<g id="edge2_Node000002_Node000003" class="edge">
<title>Node3&#45;&gt;Node2</title>
<g id="a_edge2_Node000002_Node000003"><a xlink:title=" ">
<path fill="none" stroke="#63b8ff" d="M891.76,-123.79C917.31,-119.44 945.53,-114.64 970.59,-110.38"/>
<polygon fill="#63b8ff" stroke="#63b8ff" points="891.37,-120.31 882.1,-125.43 892.55,-127.21 891.37,-120.31"/>
</a>
</g>
</g>
<!-- Node4 -->
<g id="Node000004" class="node">
<title>Node4</title>
<g id="a_Node000004"><a xlink:href="class_c_p_s_1_1_sim_power_comp.html" target="_top" xlink:title=" ">
<polygon fill="white" stroke="#666666" points="656.62,-208.38 537.88,-208.38 537.88,-171.88 656.62,-171.88 656.62,-208.38"/>
<text text-anchor="start" x="545.88" y="-194.88" font-family="Helvetica,sans-Serif" font-size="10.00">CPS::SimPowerComp&lt;</text>
<text text-anchor="middle" x="597.25" y="-180.62" font-family="Helvetica,sans-Serif" font-size="10.00"> Real &gt;</text>
</a>
</g>
</g>
<!-- Node4&#45;&gt;Node3 -->
<g id="edge3_Node000003_Node000004" class="edge">
<title>Node4&#45;&gt;Node3</title>
<g id="a_edge3_Node000003_Node000004"><a xlink:title=" ">
<path fill="none" stroke="#63b8ff" d="M668.05,-172.77C692.5,-166.69 719.88,-159.88 744.11,-153.85"/>
<polygon fill="#63b8ff" stroke="#63b8ff" points="667.38,-169.33 658.52,-175.14 669.07,-176.12 667.38,-169.33"/>
</a>
</g>
</g>
<!-- Node5 -->
<g id="Node000005" class="node">
<title>Node5</title>
<g id="a_Node000005"><a xlink:href="class_c_p_s_1_1_topological_power_comp.html" target="_top" xlink:title=" ">
<polygon fill="white" stroke="#666666" points="299.25,-176.25 152,-176.25 152,-154 299.25,-154 299.25,-176.25"/>
<text text-anchor="middle" x="225.62" y="-162.75" font-family="Helvetica,sans-Serif" font-size="10.00">CPS::TopologicalPowerComp</text>
</a>
</g>
</g>
<!-- Node5&#45;&gt;Node4 -->
<g id="edge4_Node000004_Node000005" class="edge">
<title>Node5&#45;&gt;Node4</title>
<g id="a_edge4_Node000004_Node000005"><a xlink:title=" ">
<path fill="none" stroke="#63b8ff" d="M276.23,-179.63C294.88,-184.47 316.38,-189.35 336.25,-192.12 413.31,-202.91 433.51,-200.32 511.25,-197.12 519.83,-196.77 528.89,-196.22 537.76,-195.58"/>
<polygon fill="#63b8ff" stroke="#63b8ff" points="277.34,-176.3 266.78,-177.1 275.53,-183.06 277.34,-176.3"/>
</a>
</g>
</g>
<!-- Node7 -->
<g id="Node000007" class="node">
<title>Node7</title>
<g id="a_Node000007"><a xlink:href="class_c_p_s_1_1_sim_power_comp.html" target="_top" xlink:title="Base class for all components that are transmitting power.">
<polygon fill="white" stroke="#666666" points="455,-183.38 336.25,-183.38 336.25,-146.88 455,-146.88 455,-183.38"/>
<text text-anchor="start" x="344.25" y="-169.88" font-family="Helvetica,sans-Serif" font-size="10.00">CPS::SimPowerComp&lt;</text>
<text text-anchor="middle" x="395.62" y="-155.62" font-family="Helvetica,sans-Serif" font-size="10.00"> VarType &gt;</text>
</a>
</g>
</g>
<!-- Node5&#45;&gt;Node7 -->
<g id="edge7_Node000007_Node000005" class="edge">
<title>Node5&#45;&gt;Node7</title>
<g id="a_edge7_Node000007_Node000005"><a xlink:title=" ">
<path fill="none" stroke="#63b8ff" d="M310.58,-165.12C319.16,-165.12 327.74,-165.12 335.96,-165.12"/>
<polygon fill="#63b8ff" stroke="#63b8ff" points="310.85,-161.63 300.85,-165.13 310.85,-168.63 310.85,-161.63"/>
</a>
</g>
</g>
<!-- Node10 -->
<g id="Node000010" class="node">
<title>Node10</title>
<g id="a_Node000010"><a xlink:href="class_c_p_s_1_1_sim_power_comp.html" target="_top" xlink:title="Base class for all components that are transmitting power.">
<polygon fill="white" stroke="#666666" points="455,-89.38 336.25,-89.38 336.25,-52.88 455,-52.88 455,-89.38"/>
<text text-anchor="start" x="344.25" y="-75.88" font-family="Helvetica,sans-Serif" font-size="10.00">CPS::SimPowerComp&lt;</text>
<text text-anchor="middle" x="395.62" y="-61.62" font-family="Helvetica,sans-Serif" font-size="10.00"> VarType &gt;</text>
</a>
</g>
</g>
<!-- Node5&#45;&gt;Node10 -->
<g id="edge11_Node000010_Node000005" class="edge">
<title>Node5&#45;&gt;Node10</title>
<g id="a_edge11_Node000010_Node000005"><a xlink:title=" ">
<path fill="none" stroke="#63b8ff" d="M253.7,-147.37C275.58,-133.31 307.38,-113.56 336.25,-98.12 341.47,-95.34 347.03,-92.54 352.57,-89.87"/>
<polygon fill="#63b8ff" stroke="#63b8ff" points="251.87,-144.38 245.38,-152.75 255.67,-150.26 251.87,-144.38"/>
</a>
</g>
</g>
<!-- Node6 -->
<g id="Node000006" class="node">
<title>Node6</title>
<g id="a_Node000006"><a xlink:href="class_c_p_s_1_1_identified_object.html" target="_top" xlink:title=" ">
<polygon fill="white" stroke="#666666" points="115,-176.25 0,-176.25 0,-154 115,-154 115,-176.25"/>
<text text-anchor="middle" x="57.5" y="-162.75" font-family="Helvetica,sans-Serif" font-size="10.00">CPS::IdentifiedObject</text>
</a>
</g>
</g>
<!-- Node6&#45;&gt;Node5 -->
<g id="edge5_Node000005_Node000006" class="edge">
<title>Node6&#45;&gt;Node5</title>
<g id="a_edge5_Node000005_Node000006"><a xlink:title=" ">
<path fill="none" stroke="#63b8ff" d="M126.7,-165.12C134.95,-165.12 143.41,-165.12 151.73,-165.12"/>
<polygon fill="#63b8ff" stroke="#63b8ff" points="126.72,-161.63 116.72,-165.13 126.72,-168.63 126.72,-161.63"/>
</a>
</g>
</g>
<!-- Node7&#45;&gt;Node4 -->
<g id="edge6_Node000004_Node000007" class="edge">
<title>Node7&#45;&gt;Node4</title>
<g id="a_edge6_Node000004_Node000007"><a xlink:title=" ">
<path fill="none" stroke="orange" stroke-dasharray="5,2" d="M466.6,-173.89C489.76,-176.79 515.28,-179.98 537.51,-182.77"/>
<polygon fill="orange" stroke="orange" points="467.3,-170.45 456.94,-172.68 466.43,-177.39 467.3,-170.45"/>
</a>
</g>
<text text-anchor="middle" x="492.12" y="-183.87" font-family="Helvetica,sans-Serif" font-size="10.00" fill="grey"> &lt; Real &gt;</text>
</g>
<!-- Node8 -->
<g id="Node000008" class="node">
<title>Node8</title>
<g id="a_Node000008"><a xlink:href="class_c_p_s_1_1_m_n_a_interface.html" target="_top" xlink:title="Interface to be implemented by all models used by the MNA solver.">
<polygon fill="white" stroke="#666666" points="448.62,-129.25 342.62,-129.25 342.62,-107 448.62,-107 448.62,-129.25"/>
<text text-anchor="middle" x="395.62" y="-115.75" font-family="Helvetica,sans-Serif" font-size="10.00">CPS::MNAInterface</text>
</a>
</g>
</g>
<!-- Node8&#45;&gt;Node3 -->
<g id="edge8_Node000003_Node000008" class="edge">
<title>Node8&#45;&gt;Node3</title>
<g id="a_edge8_Node000003_Node000008"><a xlink:title=" ">
<path fill="none" stroke="#63b8ff" d="M460.38,-121.62C482.22,-122.79 506.8,-124.06 529.25,-125.12 602.7,-128.63 686.94,-132.14 744.1,-134.46"/>
<polygon fill="#63b8ff" stroke="#63b8ff" points="460.59,-118.13 450.41,-121.09 460.21,-125.12 460.59,-118.13"/>
</a>
</g>
</g>
<!-- Node9 -->
<g id="Node000009" class="node">
<title>Node9</title>
<g id="a_Node000009"><a xlink:href="class_c_p_s_1_1_m_n_a_sim_power_comp.html" target="_top" xlink:title="Base class for all MNA components that are transmitting power.">
<polygon fill="white" stroke="#666666" points="665.25,-116.38 529.25,-116.38 529.25,-79.88 665.25,-79.88 665.25,-116.38"/>
<text text-anchor="start" x="537.25" y="-102.88" font-family="Helvetica,sans-Serif" font-size="10.00">CPS::MNASimPowerComp</text>
<text text-anchor="middle" x="597.25" y="-88.62" font-family="Helvetica,sans-Serif" font-size="10.00">&lt; VarType &gt;</text>
</a>
</g>
</g>
<!-- Node8&#45;&gt;Node9 -->
<g id="edge12_Node000009_Node000008" class="edge">
<title>Node8&#45;&gt;Node9</title>
<g id="a_edge12_Node000009_Node000008"><a xlink:title=" ">
<path fill="none" stroke="#63b8ff" d="M460.28,-111.75C482.23,-109.55 506.88,-107.08 529.1,-104.85"/>
<polygon fill="#63b8ff" stroke="#63b8ff" points="460.18,-108.24 450.58,-112.72 460.88,-115.2 460.18,-108.24"/>
</a>
</g>
</g>
<!-- Node12 -->
<g id="Node000012" class="node">
<title>Node12</title>
<g id="a_Node000012"><a xlink:href="class_c_p_s_1_1_m_n_a_sim_power_comp.html" target="_top" xlink:title="Base class for all MNA components that are transmitting power.">
<polygon fill="white" stroke="#666666" points="665.25,-61.38 529.25,-61.38 529.25,-24.88 665.25,-24.88 665.25,-61.38"/>
<text text-anchor="start" x="537.25" y="-47.88" font-family="Helvetica,sans-Serif" font-size="10.00">CPS::MNASimPowerComp</text>
<text text-anchor="middle" x="597.25" y="-33.62" font-family="Helvetica,sans-Serif" font-size="10.00">&lt; VarType &gt;</text>
</a>
</g>
</g>
<!-- Node8&#45;&gt;Node12 -->
<g id="edge16_Node000012_Node000008" class="edge">
<title>Node8&#45;&gt;Node12</title>
<g id="a_edge16_Node000012_Node000008"><a xlink:title=" ">
<path fill="none" stroke="#63b8ff" d="M442.08,-102.76C446.46,-101.21 450.82,-99.65 455,-98.12 486.76,-86.51 522.22,-72.7 549.67,-61.82"/>
<polygon fill="#63b8ff" stroke="#63b8ff" points="441,-99.42 432.71,-106.02 443.3,-106.04 441,-99.42"/>
</a>
</g>
</g>
<!-- Node9&#45;&gt;Node3 -->
<g id="edge9_Node000003_Node000009" class="edge">
<title>Node9&#45;&gt;Node3</title>
<g id="a_edge9_Node000003_Node000009"><a xlink:title=" ">
<path fill="none" stroke="orange" stroke-dasharray="5,2" d="M676.84,-108.37C691.71,-110.62 707.11,-113.14 721.5,-115.88 728.9,-117.28 736.62,-118.89 744.28,-120.57"/>
<polygon fill="orange" stroke="orange" points="677.5,-104.93 667.09,-106.94 676.48,-111.86 677.5,-104.93"/>
</a>
</g>
<text text-anchor="middle" x="702.38" y="-120.62" font-family="Helvetica,sans-Serif" font-size="10.00" fill="grey"> &lt; Real &gt;</text>
</g>
<!-- Node10&#45;&gt;Node9 -->
<g id="edge10_Node000009_Node000010" class="edge">
<title>Node10&#45;&gt;Node9</title>
<g id="a_edge10_Node000009_Node000010"><a xlink:title=" ">
<path fill="none" stroke="#63b8ff" d="M466.79,-80.62C487.03,-83.35 509.05,-86.33 529.09,-89.04"/>
<polygon fill="#63b8ff" stroke="#63b8ff" points="467.32,-77.15 456.94,-79.28 466.38,-84.09 467.32,-77.15"/>
</a>
</g>
</g>
<!-- Node10&#45;&gt;Node12 -->
<g id="edge15_Node000012_Node000010" class="edge">
<title>Node10&#45;&gt;Node12</title>
<g id="a_edge15_Node000012_Node000010"><a xlink:title=" ">
<path fill="none" stroke="#63b8ff" d="M466.47,-58.12C468.67,-57.78 470.85,-57.44 473,-57.12 491.11,-54.44 510.78,-51.99 528.98,-49.93"/>
<polygon fill="#63b8ff" stroke="#63b8ff" points="466.15,-54.63 456.84,-59.7 467.28,-61.54 466.15,-54.63"/>
</a>
</g>
</g>
<!-- Node11 -->
<g id="Node000011" class="node">
<title>Node11</title>
<g id="a_Node000011"><a xlink:href="class_c_p_s_1_1_composite_power_comp.html" target="_top" xlink:title="Base class for composite power components.">
<polygon fill="white" stroke="#666666" points="885.25,-88.38 739.5,-88.38 739.5,-51.88 885.25,-51.88 885.25,-88.38"/>
<text text-anchor="start" x="747.5" y="-74.88" font-family="Helvetica,sans-Serif" font-size="10.00">CPS::CompositePowerComp</text>
<text text-anchor="middle" x="812.38" y="-60.62" font-family="Helvetica,sans-Serif" font-size="10.00">&lt; VarType &gt;</text>
</a>
</g>
</g>
<!-- Node11&#45;&gt;Node2 -->
<g id="edge13_Node000002_Node000011" class="edge">
<title>Node11&#45;&gt;Node2</title>
<g id="a_edge13_Node000002_Node000011"><a xlink:title=" ">
<path fill="none" stroke="orange" stroke-dasharray="5,2" d="M897.01,-80.11C915.38,-82.32 934.72,-84.66 952.75,-86.88 958.52,-87.58 964.51,-88.32 970.52,-89.07"/>
<polygon fill="orange" stroke="orange" points="897.57,-76.65 887.22,-78.93 896.73,-83.6 897.57,-76.65"/>
</a>
</g>
<text text-anchor="middle" x="928" y="-91.62" font-family="Helvetica,sans-Serif" font-size="10.00" fill="grey"> &lt; Real &gt;</text>
</g>
<!-- Node12&#45;&gt;Node11 -->
<g id="edge14_Node000011_Node000012" class="edge">
<title>Node12&#45;&gt;Node11</title>
<g id="a_edge14_Node000011_Node000012"><a xlink:title=" ">
<path fill="none" stroke="#63b8ff" d="M676.85,-53.08C697.27,-55.67 719.16,-58.44 739.22,-60.98"/>
<polygon fill="#63b8ff" stroke="#63b8ff" points="677.55,-49.64 667.19,-51.86 676.67,-56.59 677.55,-49.64"/>
</a>
</g>
</g>
<!-- Node13 -->
<g id="Node000013" class="node">
<title>Node13</title>
<g id="a_Node000013"><a xlink:href="class_c_p_s_1_1_base_1_1_ph3_1_1_pi_line.html" target="_top" xlink:title=" ">
<polygon fill="white" stroke="#bfbfbf" points="1103.38,-62.25 983.88,-62.25 983.88,-40 1103.38,-40 1103.38,-62.25"/>
<text text-anchor="middle" x="1043.62" y="-48.75" font-family="Helvetica,sans-Serif" font-size="10.00">CPS::Base::Ph3::PiLine</text>
</a>
</g>
</g>
<!-- Node13&#45;&gt;Node1 -->
<g id="edge17_Node000001_Node000013" class="edge">
<title>Node13&#45;&gt;Node1</title>
<g id="a_edge17_Node000001_Node000013"><a xlink:title=" ">
<path fill="none" stroke="#63b8ff" d="M1115.17,-51.12C1127.81,-51.12 1140.85,-51.12 1153.12,-51.12"/>
<polygon fill="#63b8ff" stroke="#63b8ff" points="1115.24,-47.63 1105.24,-51.13 1115.24,-54.63 1115.24,-47.63"/>
</a>
</g>
</g>
<!-- Node14 -->
<g id="Node000014" class="node">
<title>Node14</title>
<g id="a_Node000014"><a xlink:href="class_shared_factory.html" target="_top" xlink:title=" ">
<polygon fill="white" stroke="#666666" points="1108.62,-22.25 978.62,-22.25 978.62,0 1108.62,0 1108.62,-22.25"/>
<text text-anchor="middle" x="1043.62" y="-8.75" font-family="Helvetica,sans-Serif" font-size="10.00">SharedFactory&lt; RxLine &gt;</text>
</a>
</g>
</g>
<!-- Node14&#45;&gt;Node1 -->
<g id="edge18_Node000001_Node000014" class="edge">
<title>Node14&#45;&gt;Node1</title>
<g id="a_edge18_Node000001_Node000014"><a xlink:title=" ">
<path fill="none" stroke="#63b8ff" d="M1104.3,-25.36C1123.73,-30 1145.06,-35.09 1163.58,-39.51"/>
<polygon fill="#63b8ff" stroke="#63b8ff" points="1105.12,-21.96 1094.58,-23.05 1103.5,-28.77 1105.12,-21.96"/>
</a>
</g>
</g>
<!-- Node15 -->
<g id="Node000015" class="node">
<title>Node15</title>
<g id="a_Node000015"><a xlink:href="class_shared_factory.html" target="_top" xlink:title=" ">
<polygon fill="white" stroke="#666666" points="864.62,-22.25 760.12,-22.25 760.12,0 864.62,0 864.62,-22.25"/>
<text text-anchor="middle" x="812.38" y="-8.75" font-family="Helvetica,sans-Serif" font-size="10.00">SharedFactory&lt; T &gt;</text>
</a>
</g>
</g>
<!-- Node15&#45;&gt;Node14 -->
<g id="edge19_Node000014_Node000015" class="edge">
<title>Node15&#45;&gt;Node14</title>
<g id="a_edge19_Node000014_Node000015"><a xlink:title=" ">
<path fill="none" stroke="orange" stroke-dasharray="5,2" d="M876.46,-11.12C908.17,-11.12 946.52,-11.12 978.38,-11.12"/>
<polygon fill="orange" stroke="orange" points="876.62,-7.63 866.62,-11.13 876.62,-14.63 876.62,-7.63"/>
</a>
</g>
<text text-anchor="middle" x="928" y="-15.88" font-family="Helvetica,sans-Serif" font-size="10.00" fill="grey"> &lt; RxLine &gt;</text>
</g>
</g>
</svg>
