<?xml version="1.0" encoding="UTF-8" standalone="no"?>
<!DOCTYPE svg PUBLIC "-//W3C//DTD SVG 1.1//EN"
 "http://www.w3.org/Graphics/SVG/1.1/DTD/svg11.dtd">
<!-- Generated by graphviz version 12.2.1 (20241206.2353)
 -->
<!-- Title: CPS::EMT::Ph3::ReducedOrderSynchronGeneratorVBR Pages: 1 -->
<svg width="1603pt" height="275pt"
 viewBox="0.00 0.00 1602.50 274.50" xmlns="http://www.w3.org/2000/svg" xmlns:xlink="http://www.w3.org/1999/xlink">
<g id="graph0" class="graph" transform="scale(1 1) rotate(0) translate(4 270.5)">
<title>CPS::EMT::Ph3::ReducedOrderSynchronGeneratorVBR</title>
<!-- Node1 -->
<g id="Node000001" class="node">
<title>Node1</title>
<g id="a_Node000001"><a xlink:title="Base class for EMT VBR simplefied synchronous generator models.">
<polygon fill="#999999" stroke="#666666" points="1365.25,-146.5 1208.25,-146.5 1208.25,-110 1365.25,-110 1365.25,-146.5"/>
<text text-anchor="start" x="1216.25" y="-133" font-family="Helvetica,sans-Serif" font-size="10.00">CPS::EMT::Ph3::ReducedOrder</text>
<text text-anchor="middle" x="1286.75" y="-118.75" font-family="Helvetica,sans-Serif" font-size="10.00">SynchronGeneratorVBR</text>
</a>
</g>
</g>
<!-- Node14 -->
<g id="Node000014" class="node">
<title>Node14</title>
<g id="a_Node000014"><a xlink:href="class_c_p_s_1_1_e_m_t_1_1_ph3_1_1_synchron_generator3_order_v_b_r.html" target="_top" xlink:title="Voltage&#45;Behind&#45;Reactance (VBR) implementation of 3rd order synchronous generator model.">
<polygon fill="white" stroke="#666666" points="1591.5,-256.5 1405.25,-256.5 1405.25,-220 1591.5,-220 1591.5,-256.5"/>
<text text-anchor="start" x="1413.25" y="-243" font-family="Helvetica,sans-Serif" font-size="10.00">CPS::EMT::Ph3::SynchronGenerator3</text>
<text text-anchor="middle" x="1498.38" y="-228.75" font-family="Helvetica,sans-Serif" font-size="10.00">OrderVBR</text>
</a>
</g>
</g>
<!-- Node1&#45;&gt;Node14 -->
<g id="edge18_Node000001_Node000014" class="edge">
<title>Node1&#45;&gt;Node14</title>
<g id="a_edge18_Node000001_Node000014"><a xlink:title=" ">
<path fill="none" stroke="#63b8ff" d="M1318.02,-154.26C1340.13,-172.12 1371.49,-195.24 1402.25,-210.25 1409.29,-213.68 1416.83,-216.78 1424.48,-219.56"/>
<polygon fill="#63b8ff" stroke="#63b8ff" points="1320.26,-151.57 1310.31,-147.92 1315.82,-156.97 1320.26,-151.57"/>
</a>
</g>
</g>
<!-- Node15 -->
<g id="Node000015" class="node">
<title>Node15</title>
<g id="a_Node000015"><a xlink:href="class_c_p_s_1_1_e_m_t_1_1_ph3_1_1_synchron_generator4_order_v_b_r.html" target="_top" xlink:title="Voltage&#45;Behind&#45;Reactance (VBR) implementation of 4th order synchronous generator model.">
<polygon fill="white" stroke="#666666" points="1591.5,-201.5 1405.25,-201.5 1405.25,-165 1591.5,-165 1591.5,-201.5"/>
<text text-anchor="start" x="1413.25" y="-188" font-family="Helvetica,sans-Serif" font-size="10.00">CPS::EMT::Ph3::SynchronGenerator4</text>
<text text-anchor="middle" x="1498.38" y="-173.75" font-family="Helvetica,sans-Serif" font-size="10.00">OrderVBR</text>
</a>
</g>
</g>
<!-- Node1&#45;&gt;Node15 -->
<g id="edge19_Node000001_Node000015" class="edge">
<title>Node1&#45;&gt;Node15</title>
<g id="a_edge19_Node000001_Node000015"><a xlink:title=" ">
<path fill="none" stroke="#63b8ff" d="M1370.06,-149.85C1388.53,-154.69 1407.97,-159.79 1425.95,-164.51"/>
<polygon fill="#63b8ff" stroke="#63b8ff" points="1371.04,-146.48 1360.48,-147.33 1369.26,-153.25 1371.04,-146.48"/>
</a>
</g>
</g>
<!-- Node16 -->
<g id="Node000016" class="node">
<title>Node16</title>
<g id="a_Node000016"><a xlink:href="class_c_p_s_1_1_e_m_t_1_1_ph3_1_1_synchron_generator5_order_v_b_r.html" target="_top" xlink:title="Voltage&#45;Behind&#45;Reactance (VBR) implementation of 5th type 2 order synchronous generator model Ref: Mi...">
<polygon fill="white" stroke="#666666" points="1591.5,-146.5 1405.25,-146.5 1405.25,-110 1591.5,-110 1591.5,-146.5"/>
<text text-anchor="start" x="1413.25" y="-133" font-family="Helvetica,sans-Serif" font-size="10.00">CPS::EMT::Ph3::SynchronGenerator5</text>
<text text-anchor="middle" x="1498.38" y="-118.75" font-family="Helvetica,sans-Serif" font-size="10.00">OrderVBR</text>
</a>
</g>
</g>
<!-- Node1&#45;&gt;Node16 -->
<g id="edge20_Node000001_Node000016" class="edge">
<title>Node1&#45;&gt;Node16</title>
<g id="a_edge20_Node000001_Node000016"><a xlink:title=" ">
<path fill="none" stroke="#63b8ff" d="M1376.75,-128.25C1386.05,-128.25 1395.52,-128.25 1404.86,-128.25"/>
<polygon fill="#63b8ff" stroke="#63b8ff" points="1377.02,-124.75 1367.02,-128.25 1377.02,-131.75 1377.02,-124.75"/>
</a>
</g>
</g>
<!-- Node17 -->
<g id="Node000017" class="node">
<title>Node17</title>
<g id="a_Node000017"><a xlink:href="class_c_p_s_1_1_e_m_t_1_1_ph3_1_1_synchron_generator6a_order_v_b_r.html" target="_top" xlink:title="Voltage&#45;Behind&#45;Reactance (VBR) implementation of 6th order synchronous generator model Marconato&#39;s mo...">
<polygon fill="white" stroke="#666666" points="1594.12,-91.5 1402.62,-91.5 1402.62,-55 1594.12,-55 1594.12,-91.5"/>
<text text-anchor="start" x="1410.62" y="-78" font-family="Helvetica,sans-Serif" font-size="10.00">CPS::EMT::Ph3::SynchronGenerator6a</text>
<text text-anchor="middle" x="1498.38" y="-63.75" font-family="Helvetica,sans-Serif" font-size="10.00">OrderVBR</text>
</a>
</g>
</g>
<!-- Node1&#45;&gt;Node17 -->
<g id="edge21_Node000001_Node000017" class="edge">
<title>Node1&#45;&gt;Node17</title>
<g id="a_edge21_Node000001_Node000017"><a xlink:title=" ">
<path fill="none" stroke="#63b8ff" d="M1370.06,-106.65C1388.53,-101.81 1407.97,-96.71 1425.95,-91.99"/>
<polygon fill="#63b8ff" stroke="#63b8ff" points="1369.26,-103.25 1360.48,-109.17 1371.04,-110.02 1369.26,-103.25"/>
</a>
</g>
</g>
<!-- Node18 -->
<g id="Node000018" class="node">
<title>Node18</title>
<g id="a_Node000018"><a xlink:href="class_c_p_s_1_1_e_m_t_1_1_ph3_1_1_synchron_generator6b_order_v_b_r.html" target="_top" xlink:title="Voltage&#45;Behind&#45;Reactance (VBR) implementation of 6th order synchronous generator model Anderson &#45; Fou...">
<polygon fill="white" stroke="#666666" points="1594.5,-36.5 1402.25,-36.5 1402.25,0 1594.5,0 1594.5,-36.5"/>
<text text-anchor="start" x="1410.25" y="-23" font-family="Helvetica,sans-Serif" font-size="10.00">CPS::EMT::Ph3::SynchronGenerator6b</text>
<text text-anchor="middle" x="1498.38" y="-8.75" font-family="Helvetica,sans-Serif" font-size="10.00">OrderVBR</text>
</a>
</g>
</g>
<!-- Node1&#45;&gt;Node18 -->
<g id="edge22_Node000001_Node000018" class="edge">
<title>Node1&#45;&gt;Node18</title>
<g id="a_edge22_Node000001_Node000018"><a xlink:title=" ">
<path fill="none" stroke="#63b8ff" d="M1318.02,-102.24C1340.13,-84.38 1371.49,-61.26 1402.25,-46.25 1409.29,-42.82 1416.83,-39.72 1424.48,-36.94"/>
<polygon fill="#63b8ff" stroke="#63b8ff" points="1315.82,-99.53 1310.31,-108.58 1320.26,-104.93 1315.82,-99.53"/>
</a>
</g>
</g>
<!-- Node2 -->
<g id="Node000002" class="node">
<title>Node2</title>
<g id="a_Node000002"><a xlink:href="class_c_p_s_1_1_base_1_1_reduced_order_synchron_generator.html" target="_top" xlink:title=" ">
<polygon fill="white" stroke="#bfbfbf" points="1171.25,-181.5 992.5,-181.5 992.5,-145 1171.25,-145 1171.25,-181.5"/>
<text text-anchor="start" x="1000.5" y="-168" font-family="Helvetica,sans-Serif" font-size="10.00">CPS::Base::ReducedOrderSynchron</text>
<text text-anchor="middle" x="1081.88" y="-153.75" font-family="Helvetica,sans-Serif" font-size="10.00">Generator&lt; Real &gt;</text>
</a>
</g>
</g>
<!-- Node2&#45;&gt;Node1 -->
<g id="edge1_Node000001_Node000002" class="edge">
<title>Node2&#45;&gt;Node1</title>
<g id="a_edge1_Node000001_Node000002"><a xlink:title=" ">
<path fill="none" stroke="#63b8ff" d="M1182.72,-146.02C1191.23,-144.56 1199.76,-143.09 1208.06,-141.65"/>
<polygon fill="#63b8ff" stroke="#63b8ff" points="1182.31,-142.54 1173.06,-147.69 1183.5,-149.44 1182.31,-142.54"/>
</a>
</g>
</g>
<!-- Node3 -->
<g id="Node000003" class="node">
<title>Node3</title>
<g id="a_Node000003"><a xlink:href="class_c_p_s_1_1_m_n_a_sim_power_comp.html" target="_top" xlink:title=" ">
<polygon fill="white" stroke="#666666" points="896.88,-211.5 760.88,-211.5 760.88,-175 896.88,-175 896.88,-211.5"/>
<text text-anchor="start" x="768.88" y="-198" font-family="Helvetica,sans-Serif" font-size="10.00">CPS::MNASimPowerComp</text>
<text text-anchor="middle" x="828.88" y="-183.75" font-family="Helvetica,sans-Serif" font-size="10.00">&lt; Real &gt;</text>
</a>
</g>
</g>
<!-- Node3&#45;&gt;Node2 -->
<g id="edge2_Node000002_Node000003" class="edge">
<title>Node3&#45;&gt;Node2</title>
<g id="a_edge2_Node000002_Node000003"><a xlink:title=" ">
<path fill="none" stroke="#63b8ff" d="M908.32,-183.87C934.92,-180.69 964.82,-177.12 992.16,-173.85"/>
<polygon fill="#63b8ff" stroke="#63b8ff" points="908.16,-180.37 898.64,-185.03 908.99,-187.32 908.16,-180.37"/>
</a>
</g>
</g>
<!-- Node4 -->
<g id="Node000004" class="node">
<title>Node4</title>
<g id="a_Node000004"><a xlink:href="class_c_p_s_1_1_sim_power_comp.html" target="_top" xlink:title=" ">
<polygon fill="white" stroke="#666666" points="656.62,-266.5 537.88,-266.5 537.88,-230 656.62,-230 656.62,-266.5"/>
<text text-anchor="start" x="545.88" y="-253" font-family="Helvetica,sans-Serif" font-size="10.00">CPS::SimPowerComp&lt;</text>
<text text-anchor="middle" x="597.25" y="-238.75" font-family="Helvetica,sans-Serif" font-size="10.00"> Real &gt;</text>
</a>
</g>
</g>
<!-- Node4&#45;&gt;Node3 -->
<g id="edge3_Node000003_Node000004" class="edge">
<title>Node4&#45;&gt;Node3</title>
<g id="a_edge3_Node000003_Node000004"><a xlink:title=" ">
<path fill="none" stroke="#63b8ff" d="M668.1,-231.52C697.5,-224.48 731.56,-216.32 760.66,-209.35"/>
<polygon fill="#63b8ff" stroke="#63b8ff" points="667.47,-228.07 658.56,-233.8 669.1,-234.88 667.47,-228.07"/>
</a>
</g>
</g>
<!-- Node5 -->
<g id="Node000005" class="node">
<title>Node5</title>
<g id="a_Node000005"><a xlink:href="class_c_p_s_1_1_topological_power_comp.html" target="_top" xlink:title=" ">
<polygon fill="white" stroke="#666666" points="299.25,-232.38 152,-232.38 152,-210.12 299.25,-210.12 299.25,-232.38"/>
<text text-anchor="middle" x="225.62" y="-218.88" font-family="Helvetica,sans-Serif" font-size="10.00">CPS::TopologicalPowerComp</text>
</a>
</g>
</g>
<!-- Node5&#45;&gt;Node4 -->
<g id="edge4_Node000004_Node000005" class="edge">
<title>Node5&#45;&gt;Node4</title>
<g id="a_edge4_Node000004_Node000005"><a xlink:title=" ">
<path fill="none" stroke="#63b8ff" d="M276.23,-235.75C294.88,-240.6 316.38,-245.47 336.25,-248.25 413.31,-259.03 433.47,-255.54 511.25,-253.25 519.82,-253 528.87,-252.6 537.74,-252.14"/>
<polygon fill="#63b8ff" stroke="#63b8ff" points="277.34,-232.43 266.78,-233.23 275.53,-239.19 277.34,-232.43"/>
</a>
</g>
</g>
<!-- Node7 -->
<g id="Node000007" class="node">
<title>Node7</title>
<g id="a_Node000007"><a xlink:href="class_c_p_s_1_1_sim_power_comp.html" target="_top" xlink:title="Base class for all components that are transmitting power.">
<polygon fill="white" stroke="#666666" points="455,-239.5 336.25,-239.5 336.25,-203 455,-203 455,-239.5"/>
<text text-anchor="start" x="344.25" y="-226" font-family="Helvetica,sans-Serif" font-size="10.00">CPS::SimPowerComp&lt;</text>
<text text-anchor="middle" x="395.62" y="-211.75" font-family="Helvetica,sans-Serif" font-size="10.00"> VarType &gt;</text>
</a>
</g>
</g>
<!-- Node5&#45;&gt;Node7 -->
<g id="edge7_Node000007_Node000005" class="edge">
<title>Node5&#45;&gt;Node7</title>
<g id="a_edge7_Node000007_Node000005"><a xlink:title=" ">
<path fill="none" stroke="#63b8ff" d="M310.58,-221.25C319.16,-221.25 327.74,-221.25 335.96,-221.25"/>
<polygon fill="#63b8ff" stroke="#63b8ff" points="310.85,-217.75 300.85,-221.25 310.85,-224.75 310.85,-217.75"/>
</a>
</g>
</g>
<!-- Node10 -->
<g id="Node000010" class="node">
<title>Node10</title>
<g id="a_Node000010"><a xlink:href="class_c_p_s_1_1_sim_power_comp.html" target="_top" xlink:title="Base class for all components that are transmitting power.">
<polygon fill="white" stroke="#666666" points="455,-144.5 336.25,-144.5 336.25,-108 455,-108 455,-144.5"/>
<text text-anchor="start" x="344.25" y="-131" font-family="Helvetica,sans-Serif" font-size="10.00">CPS::SimPowerComp&lt;</text>
<text text-anchor="middle" x="395.62" y="-116.75" font-family="Helvetica,sans-Serif" font-size="10.00"> VarType &gt;</text>
</a>
</g>
</g>
<!-- Node5&#45;&gt;Node10 -->
<g id="edge11_Node000010_Node000005" class="edge">
<title>Node5&#45;&gt;Node10</title>
<g id="a_edge11_Node000010_Node000005"><a xlink:title=" ">
<path fill="none" stroke="#63b8ff" d="M253.76,-203.6C275.68,-189.61 307.49,-169.88 336.25,-154.25 342.08,-151.08 348.32,-147.89 354.47,-144.85"/>
<polygon fill="#63b8ff" stroke="#63b8ff" points="251.94,-200.61 245.42,-208.96 255.73,-206.5 251.94,-200.61"/>
</a>
</g>
</g>
<!-- Node6 -->
<g id="Node000006" class="node">
<title>Node6</title>
<g id="a_Node000006"><a xlink:href="class_c_p_s_1_1_identified_object.html" target="_top" xlink:title=" ">
<polygon fill="white" stroke="#666666" points="115,-232.38 0,-232.38 0,-210.12 115,-210.12 115,-232.38"/>
<text text-anchor="middle" x="57.5" y="-218.88" font-family="Helvetica,sans-Serif" font-size="10.00">CPS::IdentifiedObject</text>
</a>
</g>
</g>
<!-- Node6&#45;&gt;Node5 -->
<g id="edge5_Node000005_Node000006" class="edge">
<title>Node6&#45;&gt;Node5</title>
<g id="a_edge5_Node000005_Node000006"><a xlink:title=" ">
<path fill="none" stroke="#63b8ff" d="M126.7,-221.25C134.95,-221.25 143.41,-221.25 151.73,-221.25"/>
<polygon fill="#63b8ff" stroke="#63b8ff" points="126.72,-217.75 116.72,-221.25 126.72,-224.75 126.72,-217.75"/>
</a>
</g>
</g>
<!-- Node7&#45;&gt;Node4 -->
<g id="edge6_Node000004_Node000007" class="edge">
<title>Node7&#45;&gt;Node4</title>
<g id="a_edge6_Node000004_Node000007"><a xlink:title=" ">
<path fill="none" stroke="orange" stroke-dasharray="5,2" d="M466.6,-230.71C489.76,-233.85 515.28,-237.3 537.51,-240.31"/>
<polygon fill="orange" stroke="orange" points="467.32,-227.28 456.94,-229.41 466.38,-234.22 467.32,-227.28"/>
</a>
</g>
<text text-anchor="middle" x="492.12" y="-241.12" font-family="Helvetica,sans-Serif" font-size="10.00" fill="grey"> &lt; Real &gt;</text>
</g>
<!-- Node8 -->
<g id="Node000008" class="node">
<title>Node8</title>
<g id="a_Node000008"><a xlink:href="class_c_p_s_1_1_m_n_a_interface.html" target="_top" xlink:title="Interface to be implemented by all models used by the MNA solver.">
<polygon fill="white" stroke="#666666" points="448.62,-185.38 342.62,-185.38 342.62,-163.12 448.62,-163.12 448.62,-185.38"/>
<text text-anchor="middle" x="395.62" y="-171.88" font-family="Helvetica,sans-Serif" font-size="10.00">CPS::MNAInterface</text>
</a>
</g>
</g>
<!-- Node8&#45;&gt;Node3 -->
<g id="edge8_Node000003_Node000008" class="edge">
<title>Node8&#45;&gt;Node3</title>
<g id="a_edge8_Node000003_Node000008"><a xlink:title=" ">
<path fill="none" stroke="#63b8ff" d="M460.36,-179.02C482.19,-180.54 506.78,-182.11 529.25,-183.25 608.64,-187.27 700,-190.06 760.54,-191.65"/>
<polygon fill="#63b8ff" stroke="#63b8ff" points="460.61,-175.53 450.39,-178.32 460.12,-182.51 460.61,-175.53"/>
</a>
</g>
</g>
<!-- Node9 -->
<g id="Node000009" class="node">
<title>Node9</title>
<g id="a_Node000009"><a xlink:href="class_c_p_s_1_1_m_n_a_sim_power_comp.html" target="_top" xlink:title="Base class for all MNA components that are transmitting power.">
<polygon fill="white" stroke="#666666" points="665.25,-174.5 529.25,-174.5 529.25,-138 665.25,-138 665.25,-174.5"/>
<text text-anchor="start" x="537.25" y="-161" font-family="Helvetica,sans-Serif" font-size="10.00">CPS::MNASimPowerComp</text>
<text text-anchor="middle" x="597.25" y="-146.75" font-family="Helvetica,sans-Serif" font-size="10.00">&lt; VarType &gt;</text>
</a>
</g>
</g>
<!-- Node8&#45;&gt;Node9 -->
<g id="edge12_Node000009_Node000008" class="edge">
<title>Node8&#45;&gt;Node9</title>
<g id="a_edge12_Node000009_Node000008"><a xlink:title=" ">
<path fill="none" stroke="#63b8ff" d="M460.28,-168.51C482.23,-166.53 506.88,-164.31 529.1,-162.3"/>
<polygon fill="#63b8ff" stroke="#63b8ff" points="460.23,-165 450.58,-169.38 460.86,-171.97 460.23,-165"/>
</a>
</g>
</g>
<!-- Node12 -->
<g id="Node000012" class="node">
<title>Node12</title>
<g id="a_Node000012"><a xlink:href="class_c_p_s_1_1_m_n_a_sim_power_comp.html" target="_top" xlink:title="Base class for all MNA components that are transmitting power.">
<polygon fill="white" stroke="#666666" points="665.25,-119.5 529.25,-119.5 529.25,-83 665.25,-83 665.25,-119.5"/>
<text text-anchor="start" x="537.25" y="-106" font-family="Helvetica,sans-Serif" font-size="10.00">CPS::MNASimPowerComp</text>
<text text-anchor="middle" x="597.25" y="-91.75" font-family="Helvetica,sans-Serif" font-size="10.00">&lt; VarType &gt;</text>
</a>
</g>
</g>
<!-- Node8&#45;&gt;Node12 -->
<g id="edge16_Node000012_Node000008" class="edge">
<title>Node8&#45;&gt;Node12</title>
<g id="a_edge16_Node000012_Node000008"><a xlink:title=" ">
<path fill="none" stroke="#63b8ff" d="M439.59,-158.84C444.78,-156.96 450.01,-155.07 455,-153.25 485.08,-142.3 518.72,-129.93 545.62,-119.99"/>
<polygon fill="#63b8ff" stroke="#63b8ff" points="438.71,-155.43 430.49,-162.12 441.08,-162.02 438.71,-155.43"/>
</a>
</g>
</g>
<!-- Node9&#45;&gt;Node3 -->
<g id="edge9_Node000003_Node000009" class="edge">
<title>Node9&#45;&gt;Node3</title>
<g id="a_edge9_Node000003_Node000009"><a xlink:title=" ">
<path fill="none" stroke="orange" stroke-dasharray="5,2" d="M676.73,-167.12C691.61,-169.3 707.05,-171.65 721.5,-174 734.1,-176.05 747.51,-178.36 760.41,-180.66"/>
<polygon fill="orange" stroke="orange" points="677.38,-163.68 666.98,-165.7 676.37,-170.61 677.38,-163.68"/>
</a>
</g>
<text text-anchor="middle" x="702.38" y="-178.75" font-family="Helvetica,sans-Serif" font-size="10.00" fill="grey"> &lt; Real &gt;</text>
</g>
<!-- Node10&#45;&gt;Node9 -->
<g id="edge10_Node000009_Node000010" class="edge">
<title>Node10&#45;&gt;Node9</title>
<g id="a_edge10_Node000009_Node000010"><a xlink:title=" ">
<path fill="none" stroke="#63b8ff" d="M466.79,-136.8C487.03,-139.84 509.05,-143.14 529.09,-146.16"/>
<polygon fill="#63b8ff" stroke="#63b8ff" points="467.35,-133.34 456.94,-135.31 466.3,-140.26 467.35,-133.34"/>
</a>
</g>
</g>
<!-- Node10&#45;&gt;Node12 -->
<g id="edge15_Node000012_Node000010" class="edge">
<title>Node10&#45;&gt;Node12</title>
<g id="a_edge15_Node000012_Node000010"><a xlink:title=" ">
<path fill="none" stroke="#63b8ff" d="M466.76,-116.07C468.86,-115.79 470.95,-115.51 473,-115.25 491.15,-112.91 510.84,-110.58 529.04,-108.52"/>
<polygon fill="#63b8ff" stroke="#63b8ff" points="466.33,-112.59 456.89,-117.4 467.27,-119.53 466.33,-112.59"/>
</a>
</g>
</g>
<!-- Node11 -->
<g id="Node000011" class="node">
<title>Node11</title>
<g id="a_Node000011"><a xlink:href="class_c_p_s_1_1_base_1_1_reduced_order_synchron_generator.html" target="_top" xlink:title=" ">
<polygon fill="white" stroke="#bfbfbf" points="918.25,-150.5 739.5,-150.5 739.5,-114 918.25,-114 918.25,-150.5"/>
<text text-anchor="start" x="747.5" y="-137" font-family="Helvetica,sans-Serif" font-size="10.00">CPS::Base::ReducedOrderSynchron</text>
<text text-anchor="middle" x="828.88" y="-122.75" font-family="Helvetica,sans-Serif" font-size="10.00">Generator&lt; VarType &gt;</text>
</a>
</g>
</g>
<!-- Node11&#45;&gt;Node2 -->
<g id="edge13_Node000002_Node000011" class="edge">
<title>Node11&#45;&gt;Node2</title>
<g id="a_edge13_Node000002_Node000011"><a xlink:title=" ">
<path fill="none" stroke="orange" stroke-dasharray="5,2" d="M930.02,-144.62C950.56,-147.16 972.04,-149.81 992.15,-152.29"/>
<polygon fill="orange" stroke="orange" points="930.58,-141.16 920.22,-143.41 929.72,-148.11 930.58,-141.16"/>
</a>
</g>
<text text-anchor="middle" x="955.38" y="-154.36" font-family="Helvetica,sans-Serif" font-size="10.00" fill="grey"> &lt; Real &gt;</text>
</g>
<!-- Node12&#45;&gt;Node11 -->
<g id="edge14_Node000011_Node000012" class="edge">
<title>Node12&#45;&gt;Node11</title>
<g id="a_edge14_Node000011_Node000012"><a xlink:title=" ">
<path fill="none" stroke="#63b8ff" d="M676.88,-111.86C696.94,-114.57 718.65,-117.5 739.19,-120.28"/>
<polygon fill="#63b8ff" stroke="#63b8ff" points="677.47,-108.41 667.09,-110.54 676.54,-115.35 677.47,-108.41"/>
</a>
</g>
</g>
<!-- Node13 -->
<g id="Node000013" class="node">
<title>Node13</title>
<g id="a_Node000013"><a xlink:href="class_c_p_s_1_1_m_n_a_variable_comp_interface.html" target="_top" xlink:title="MNA interface to be used by elements that require recomputing of the system matrix.">
<polygon fill="white" stroke="#666666" points="1166.75,-127.38 997,-127.38 997,-105.12 1166.75,-105.12 1166.75,-127.38"/>
<text text-anchor="middle" x="1081.88" y="-113.88" font-family="Helvetica,sans-Serif" font-size="10.00">CPS::MNAVariableCompInterface</text>
</a>
</g>
</g>
<!-- Node13&#45;&gt;Node1 -->
<g id="edge17_Node000001_Node000013" class="edge">
<title>Node13&#45;&gt;Node1</title>
<g id="a_edge17_Node000001_Node000013"><a xlink:title=" ">
<path fill="none" stroke="#63b8ff" d="M1178.62,-121.91C1188.43,-122.49 1198.32,-123.08 1207.91,-123.65"/>
<polygon fill="#63b8ff" stroke="#63b8ff" points="1178.85,-118.42 1168.66,-121.32 1178.44,-125.41 1178.85,-118.42"/>
</a>
</g>
</g>
</g>
</svg>
