<?xml version="1.0" encoding="UTF-8" standalone="no"?>
<!DOCTYPE svg PUBLIC "-//W3C//DTD SVG 1.1//EN"
 "http://www.w3.org/Graphics/SVG/1.1/DTD/svg11.dtd">
<!-- Generated by graphviz version 2.42.4 (0)
 -->
<!-- Title: CPS::DP::Ph1::Resistor Pages: 1 -->
<svg width="1730pt" height="498pt"
 viewBox="0.00 0.00 1730.00 497.50" xmlns="http://www.w3.org/2000/svg" xmlns:xlink="http://www.w3.org/1999/xlink">
<g id="graph0" class="graph" transform="scale(1 1) rotate(0) translate(4 493.5)">
<title>CPS::DP::Ph1::Resistor</title>
<!-- Node1 -->
<g id="node1" class="node">
<title>Node1</title>
<g id="a_node1"><a xlink:title="Dynamic phasor resistor model.">
<polygon fill="#bfbfbf" stroke="black" points="1597,-394 1597,-413 1722,-413 1722,-394 1597,-394"/>
<text text-anchor="middle" x="1659.5" y="-401" font-family="Helvetica,sans-Serif" font-size="10.00">CPS::DP::Ph1::Resistor</text>
</a>
</g>
</g>
<!-- Node2 -->
<g id="node2" class="node">
<title>Node2</title>
<g id="a_node2"><a xlink:href="class_c_p_s_1_1_base_1_1_ph1_1_1_resistor.html" target="_top" xlink:title=" ">
<polygon fill="none" stroke="black" points="1425,-470 1425,-489 1560,-489 1560,-470 1425,-470"/>
<text text-anchor="middle" x="1492.5" y="-477" font-family="Helvetica,sans-Serif" font-size="10.00">CPS::Base::Ph1::Resistor</text>
</a>
</g>
</g>
<!-- Node2&#45;&gt;Node1 -->
<g id="edge1" class="edge">
<title>Node2&#45;&gt;Node1</title>
<path fill="none" stroke="midnightblue" d="M1547.21,-467.14C1557.96,-463.91 1569.01,-460.04 1579,-455.5 1604.68,-443.83 1631.52,-424.55 1646.52,-413.03"/>
<polygon fill="midnightblue" stroke="midnightblue" points="1546.13,-463.81 1537.47,-469.91 1548.05,-470.54 1546.13,-463.81"/>
</g>
<!-- Node3 -->
<g id="node3" class="node">
<title>Node3</title>
<g id="a_node3"><a xlink:href="class_c_p_s_1_1_m_n_a_tear_interface.html" target="_top" xlink:title=" ">
<polygon fill="none" stroke="black" points="637,-432 637,-451 765,-451 765,-432 637,-432"/>
<text text-anchor="middle" x="701" y="-439" font-family="Helvetica,sans-Serif" font-size="10.00">CPS::MNATearInterface</text>
</a>
</g>
</g>
<!-- Node3&#45;&gt;Node1 -->
<g id="edge2" class="edge">
<title>Node3&#45;&gt;Node1</title>
<path fill="none" stroke="midnightblue" d="M775.38,-441.5C846.2,-441.5 956.44,-441.5 1052,-441.5 1052,-441.5 1052,-441.5 1493.5,-441.5 1544.06,-441.5 1601.16,-424.35 1633.19,-413.09"/>
<polygon fill="midnightblue" stroke="midnightblue" points="775.23,-438 765.23,-441.5 775.23,-445 775.23,-438"/>
</g>
<!-- Node4 -->
<g id="node4" class="node">
<title>Node4</title>
<g id="a_node4"><a xlink:href="class_c_p_s_1_1_m_n_a_interface.html" target="_top" xlink:title="Interface to be implemented by all models used by the MNA solver.">
<polygon fill="none" stroke="black" points="143.5,-386 143.5,-405 251.5,-405 251.5,-386 143.5,-386"/>
<text text-anchor="middle" x="197.5" y="-393" font-family="Helvetica,sans-Serif" font-size="10.00">CPS::MNAInterface</text>
</a>
</g>
</g>
<!-- Node4&#45;&gt;Node3 -->
<g id="edge3" class="edge">
<title>Node4&#45;&gt;Node3</title>
<path fill="none" stroke="midnightblue" d="M237.3,-407.84C249.27,-411.19 262.58,-414.45 275,-416.5 402.26,-437.47 553.5,-441.47 636.9,-441.89"/>
<polygon fill="midnightblue" stroke="midnightblue" points="238.19,-404.45 227.61,-405.03 236.24,-411.18 238.19,-404.45"/>
</g>
<!-- Node5 -->
<g id="node5" class="node">
<title>Node5</title>
<g id="a_node5"><a xlink:href="class_c_p_s_1_1_attribute_list.html" target="_top" xlink:title="Base class of objects having attributes to access member variables.">
<polygon fill="none" stroke="black" points="0,-207 0,-226 101,-226 101,-207 0,-207"/>
<text text-anchor="middle" x="50.5" y="-214" font-family="Helvetica,sans-Serif" font-size="10.00">CPS::AttributeList</text>
</a>
</g>
</g>
<!-- Node5&#45;&gt;Node4 -->
<g id="edge4" class="edge">
<title>Node5&#45;&gt;Node4</title>
<path fill="none" stroke="midnightblue" d="M64.39,-234.73C80.85,-257.76 110.52,-298.38 138,-331.5 154.54,-351.42 175.26,-373.47 187.08,-385.79"/>
<polygon fill="midnightblue" stroke="midnightblue" points="67.02,-232.4 58.37,-226.28 61.32,-236.46 67.02,-232.4"/>
</g>
<!-- Node9 -->
<g id="node9" class="node">
<title>Node9</title>
<g id="a_node9"><a xlink:href="class_c_p_s_1_1_identified_object.html" target="_top" xlink:title=" ">
<polygon fill="none" stroke="black" points="138,-103 138,-122 257,-122 257,-103 138,-103"/>
<text text-anchor="middle" x="197.5" y="-110" font-family="Helvetica,sans-Serif" font-size="10.00">CPS::IdentifiedObject</text>
</a>
</g>
</g>
<!-- Node5&#45;&gt;Node9 -->
<g id="edge9" class="edge">
<title>Node5&#45;&gt;Node9</title>
<path fill="none" stroke="midnightblue" d="M73.13,-200.98C103.55,-179.17 158.03,-140.09 183.15,-122.07"/>
<polygon fill="midnightblue" stroke="midnightblue" points="70.97,-198.23 64.88,-206.9 75.05,-203.92 70.97,-198.23"/>
</g>
<!-- Node6 -->
<g id="node6" class="node">
<title>Node6</title>
<g id="a_node6"><a xlink:href="class_c_p_s_1_1_d_a_e_interface.html" target="_top" xlink:title=" ">
<polygon fill="none" stroke="black" points="1440,-394 1440,-413 1545,-413 1545,-394 1440,-394"/>
<text text-anchor="middle" x="1492.5" y="-401" font-family="Helvetica,sans-Serif" font-size="10.00">CPS::DAEInterface</text>
</a>
</g>
</g>
<!-- Node6&#45;&gt;Node1 -->
<g id="edge5" class="edge">
<title>Node6&#45;&gt;Node1</title>
<path fill="none" stroke="midnightblue" d="M1555.42,-403.5C1568.96,-403.5 1583.28,-403.5 1596.81,-403.5"/>
<polygon fill="midnightblue" stroke="midnightblue" points="1555.25,-400 1545.25,-403.5 1555.25,-407 1555.25,-400"/>
</g>
<!-- Node7 -->
<g id="node7" class="node">
<title>Node7</title>
<g id="a_node7"><a xlink:href="class_c_p_s_1_1_sim_power_comp.html" target="_top" xlink:title=" ">
<polygon fill="none" stroke="black" points="1429,-109.5 1429,-139.5 1556,-139.5 1556,-109.5 1429,-109.5"/>
<text text-anchor="start" x="1437" y="-127.5" font-family="Helvetica,sans-Serif" font-size="10.00">CPS::SimPowerComp&lt;</text>
<text text-anchor="middle" x="1492.5" y="-116.5" font-family="Helvetica,sans-Serif" font-size="10.00"> Complex &gt;</text>
</a>
</g>
</g>
<!-- Node7&#45;&gt;Node1 -->
<g id="edge6" class="edge">
<title>Node7&#45;&gt;Node1</title>
<path fill="none" stroke="midnightblue" d="M1507.63,-148.39C1542.18,-206.82 1629.82,-355.01 1652.87,-393.99"/>
<polygon fill="midnightblue" stroke="midnightblue" points="1510.47,-146.33 1502.37,-139.5 1504.45,-149.89 1510.47,-146.33"/>
</g>
<!-- Node8 -->
<g id="node8" class="node">
<title>Node8</title>
<g id="a_node8"><a xlink:href="class_c_p_s_1_1_topological_power_comp.html" target="_top" xlink:title=" ">
<polygon fill="none" stroke="black" points="802,-35 802,-54 957,-54 957,-35 802,-35"/>
<text text-anchor="middle" x="879.5" y="-42" font-family="Helvetica,sans-Serif" font-size="10.00">CPS::TopologicalPowerComp</text>
</a>
</g>
</g>
<!-- Node8&#45;&gt;Node7 -->
<g id="edge7" class="edge">
<title>Node8&#45;&gt;Node7</title>
<path fill="none" stroke="midnightblue" d="M963.48,-55.37C1087.39,-71.59 1318.02,-101.79 1428.85,-116.3"/>
<polygon fill="midnightblue" stroke="midnightblue" points="963.66,-51.86 953.29,-54.03 962.75,-58.8 963.66,-51.86"/>
</g>
<!-- Node23 -->
<g id="node23" class="node">
<title>Node23</title>
<g id="a_node23"><a xlink:href="class_c_p_s_1_1_sim_power_comp.html" target="_top" xlink:title="Base class for all components that are transmitting power.">
<polygon fill="none" stroke="black" points="1165.5,-0.5 1165.5,-30.5 1292.5,-30.5 1292.5,-0.5 1165.5,-0.5"/>
<text text-anchor="start" x="1173.5" y="-18.5" font-family="Helvetica,sans-Serif" font-size="10.00">CPS::SimPowerComp&lt;</text>
<text text-anchor="middle" x="1229" y="-7.5" font-family="Helvetica,sans-Serif" font-size="10.00"> VarType &gt;</text>
</a>
</g>
</g>
<!-- Node8&#45;&gt;Node23 -->
<g id="edge31" class="edge">
<title>Node8&#45;&gt;Node23</title>
<path fill="none" stroke="midnightblue" d="M967.29,-37.26C1028.88,-32.12 1110.11,-25.34 1165.42,-20.72"/>
<polygon fill="midnightblue" stroke="midnightblue" points="966.86,-33.78 957.19,-38.1 967.45,-40.76 966.86,-33.78"/>
</g>
<!-- Node9&#45;&gt;Node8 -->
<g id="edge8" class="edge">
<title>Node9&#45;&gt;Node8</title>
<path fill="none" stroke="midnightblue" d="M226.99,-98.73C241.12,-92.49 258.62,-85.59 275,-81.5 459.84,-35.3 685.93,-36.01 801.88,-40.34"/>
<polygon fill="midnightblue" stroke="midnightblue" points="225.46,-95.58 217.8,-102.91 228.36,-101.96 225.46,-95.58"/>
</g>
<!-- Node11 -->
<g id="node11" class="node">
<title>Node11</title>
<g id="a_node11"><a xlink:href="class_c_p_s_1_1_topological_node.html" target="_top" xlink:title=" ">
<polygon fill="none" stroke="black" points="464,-199 464,-218 586,-218 586,-199 464,-199"/>
<text text-anchor="middle" x="525" y="-206" font-family="Helvetica,sans-Serif" font-size="10.00">CPS::TopologicalNode</text>
</a>
</g>
</g>
<!-- Node9&#45;&gt;Node11 -->
<g id="edge12" class="edge">
<title>Node9&#45;&gt;Node11</title>
<path fill="none" stroke="midnightblue" d="M256.88,-124.03C262.99,-125.21 269.12,-126.39 275,-127.5 342.92,-140.37 362.89,-132.27 428,-155.5 459.02,-166.57 491.96,-186.88 510.05,-198.89"/>
<polygon fill="midnightblue" stroke="midnightblue" points="257.12,-120.51 246.64,-122.03 255.78,-127.38 257.12,-120.51"/>
</g>
<!-- Node19 -->
<g id="node19" class="node">
<title>Node19</title>
<g id="a_node19"><a xlink:href="class_c_p_s_1_1_topological_terminal.html" target="_top" xlink:title=" ">
<polygon fill="none" stroke="black" points="456,-73 456,-92 594,-92 594,-73 456,-73"/>
<text text-anchor="middle" x="525" y="-80" font-family="Helvetica,sans-Serif" font-size="10.00">CPS::TopologicalTerminal</text>
</a>
</g>
</g>
<!-- Node9&#45;&gt;Node19 -->
<g id="edge23" class="edge">
<title>Node9&#45;&gt;Node19</title>
<path fill="none" stroke="midnightblue" d="M248.25,-100.97C257.12,-99.24 266.3,-97.65 275,-96.5 335.85,-88.47 405.65,-85.04 455.84,-83.58"/>
<polygon fill="midnightblue" stroke="midnightblue" points="247.51,-97.55 238.41,-102.97 248.9,-104.41 247.51,-97.55"/>
</g>
<!-- Node10 -->
<g id="node10" class="node">
<title>Node10</title>
<g id="a_node10"><a xlink:href="class_c_p_s_1_1_sim_node.html" target="_top" xlink:title=" ">
<polygon fill="none" stroke="black" points="1153,-243 1153,-262 1305,-262 1305,-243 1153,-243"/>
<text text-anchor="middle" x="1229" y="-250" font-family="Helvetica,sans-Serif" font-size="10.00">CPS::SimNode&lt; Complex &gt;</text>
</a>
</g>
</g>
<!-- Node10&#45;&gt;Node7 -->
<g id="edge10" class="edge">
<title>Node10&#45;&gt;Node7</title>
<path fill="none" stroke="#9a32cd" stroke-dasharray="5,2" d="M1258.86,-238.37C1308.49,-214.08 1409.55,-164.61 1460.56,-139.64"/>
<polygon fill="#9a32cd" stroke="#9a32cd" points="1257.1,-235.34 1249.66,-242.88 1260.18,-241.63 1257.1,-235.34"/>
<text text-anchor="middle" x="1369" y="-203.5" font-family="Helvetica,sans-Serif" font-size="10.00"> mVirtualNodes</text>
</g>
<!-- Node11&#45;&gt;Node10 -->
<g id="edge11" class="edge">
<title>Node11&#45;&gt;Node10</title>
<path fill="none" stroke="midnightblue" d="M596.42,-209.04C682.52,-210.1 832.64,-213.24 961,-222.5 1027.65,-227.31 1103.31,-236.13 1157.03,-242.97"/>
<polygon fill="midnightblue" stroke="midnightblue" points="596.28,-205.54 586.24,-208.92 596.2,-212.54 596.28,-205.54"/>
</g>
<!-- Node15 -->
<g id="node15" class="node">
<title>Node15</title>
<g id="a_node15"><a xlink:href="class_c_p_s_1_1_sim_node.html" target="_top" xlink:title=" ">
<polygon fill="none" stroke="black" points="806.5,-292 806.5,-311 952.5,-311 952.5,-292 806.5,-292"/>
<text text-anchor="middle" x="879.5" y="-299" font-family="Helvetica,sans-Serif" font-size="10.00">CPS::SimNode&lt; VarType &gt;</text>
</a>
</g>
</g>
<!-- Node11&#45;&gt;Node15 -->
<g id="edge17" class="edge">
<title>Node11&#45;&gt;Node15</title>
<path fill="none" stroke="midnightblue" d="M596.08,-215.87C648.83,-223.49 721.74,-238.53 780,-267.5 789.32,-272.14 788.68,-277.85 798,-282.5 805.71,-286.35 814.22,-289.44 822.75,-291.91"/>
<polygon fill="midnightblue" stroke="midnightblue" points="596.53,-212.4 586.15,-214.49 595.57,-219.33 596.53,-212.4"/>
</g>
<!-- Node12 -->
<g id="node12" class="node">
<title>Node12</title>
<g id="a_node12"><a xlink:title=" ">
<polygon fill="none" stroke="#bfbfbf" points="817.5,-232 817.5,-273 941.5,-273 941.5,-232 817.5,-232"/>
<text text-anchor="start" x="825.5" y="-261" font-family="Helvetica,sans-Serif" font-size="10.00">std::enable_shared</text>
<text text-anchor="start" x="825.5" y="-250" font-family="Helvetica,sans-Serif" font-size="10.00">_from_this&lt; SimNode</text>
<text text-anchor="middle" x="879.5" y="-239" font-family="Helvetica,sans-Serif" font-size="10.00">&lt; Complex &gt; &gt;</text>
</a>
</g>
</g>
<!-- Node12&#45;&gt;Node10 -->
<g id="edge13" class="edge">
<title>Node12&#45;&gt;Node10</title>
<path fill="none" stroke="midnightblue" d="M952.1,-252.5C1010.67,-252.5 1093.23,-252.5 1152.76,-252.5"/>
<polygon fill="midnightblue" stroke="midnightblue" points="951.83,-249 941.83,-252.5 951.83,-256 951.83,-249"/>
</g>
<!-- Node13 -->
<g id="node13" class="node">
<title>Node13</title>
<g id="a_node13"><a xlink:href="class_shared_factory.html" target="_top" xlink:title=" ">
<polygon fill="none" stroke="black" points="630.5,-337.5 630.5,-367.5 771.5,-367.5 771.5,-337.5 630.5,-337.5"/>
<text text-anchor="start" x="638.5" y="-355.5" font-family="Helvetica,sans-Serif" font-size="10.00">SharedFactory&lt; SimNode</text>
<text text-anchor="middle" x="701" y="-344.5" font-family="Helvetica,sans-Serif" font-size="10.00">&lt; Complex &gt; &gt;</text>
</a>
</g>
</g>
<!-- Node13&#45;&gt;Node10 -->
<g id="edge14" class="edge">
<title>Node13&#45;&gt;Node10</title>
<path fill="none" stroke="midnightblue" d="M781.57,-351.21C868.2,-347.96 1010.01,-337.21 1127,-302.5 1159.26,-292.93 1193.77,-273.65 1212.93,-262.03"/>
<polygon fill="midnightblue" stroke="midnightblue" points="781.41,-347.71 771.54,-351.56 781.66,-354.71 781.41,-347.71"/>
</g>
<!-- Node14 -->
<g id="node14" class="node">
<title>Node14</title>
<g id="a_node14"><a xlink:href="class_shared_factory.html" target="_top" xlink:title=" ">
<polygon fill="none" stroke="black" points="140.5,-303 140.5,-322 254.5,-322 254.5,-303 140.5,-303"/>
<text text-anchor="middle" x="197.5" y="-310" font-family="Helvetica,sans-Serif" font-size="10.00">SharedFactory&lt; T &gt;</text>
</a>
</g>
</g>
<!-- Node14&#45;&gt;Node13 -->
<g id="edge15" class="edge">
<title>Node14&#45;&gt;Node13</title>
<path fill="none" stroke="orange" stroke-dasharray="5,2" d="M251.46,-323.84C259.32,-325.25 267.35,-326.53 275,-327.5 399.47,-343.29 545.74,-349.13 630.17,-351.28"/>
<polygon fill="orange" stroke="orange" points="252.1,-320.4 241.62,-322.01 250.81,-327.28 252.1,-320.4"/>
<text text-anchor="middle" x="351.5" y="-345.5" font-family="Helvetica,sans-Serif" font-size="10.00"> &lt; SimNode&lt; Complex &gt; &gt;</text>
</g>
<!-- Node17 -->
<g id="node17" class="node">
<title>Node17</title>
<g id="a_node17"><a xlink:href="class_shared_factory.html" target="_top" xlink:title=" ">
<polygon fill="none" stroke="black" points="454.5,-297.5 454.5,-327.5 595.5,-327.5 595.5,-297.5 454.5,-297.5"/>
<text text-anchor="start" x="462.5" y="-315.5" font-family="Helvetica,sans-Serif" font-size="10.00">SharedFactory&lt; SimNode</text>
<text text-anchor="middle" x="525" y="-304.5" font-family="Helvetica,sans-Serif" font-size="10.00">&lt; VarType &gt; &gt;</text>
</a>
</g>
</g>
<!-- Node14&#45;&gt;Node17 -->
<g id="edge20" class="edge">
<title>Node14&#45;&gt;Node17</title>
<path fill="none" stroke="orange" stroke-dasharray="5,2" d="M264.84,-312.5C319.96,-312.5 398.15,-312.5 454.21,-312.5"/>
<polygon fill="orange" stroke="orange" points="264.83,-309 254.83,-312.5 264.83,-316 264.83,-309"/>
<text text-anchor="middle" x="351.5" y="-315.5" font-family="Helvetica,sans-Serif" font-size="10.00"> &lt; SimNode&lt; VarType &gt; &gt;</text>
</g>
<!-- Node20 -->
<g id="node20" class="node">
<title>Node20</title>
<g id="a_node20"><a xlink:href="class_shared_factory.html" target="_top" xlink:title=" ">
<polygon fill="none" stroke="black" points="622,-152.5 622,-182.5 780,-182.5 780,-152.5 622,-152.5"/>
<text text-anchor="start" x="630" y="-170.5" font-family="Helvetica,sans-Serif" font-size="10.00">SharedFactory&lt; SimTerminal</text>
<text text-anchor="middle" x="701" y="-159.5" font-family="Helvetica,sans-Serif" font-size="10.00">&lt; Complex &gt; &gt;</text>
</a>
</g>
</g>
<!-- Node14&#45;&gt;Node20 -->
<g id="edge25" class="edge">
<title>Node14&#45;&gt;Node20</title>
<path fill="none" stroke="orange" stroke-dasharray="5,2" d="M221.21,-297.52C263.44,-270.54 357.77,-214.28 446,-189.5 503.53,-173.34 571.02,-168.11 621.96,-166.77"/>
<polygon fill="orange" stroke="orange" points="219.28,-294.6 212.78,-302.97 223.08,-300.48 219.28,-294.6"/>
<text text-anchor="middle" x="351.5" y="-266.5" font-family="Helvetica,sans-Serif" font-size="10.00"> &lt; SimTerminal&lt; Complex &gt; &gt;</text>
</g>
<!-- Node22 -->
<g id="node22" class="node">
<title>Node22</title>
<g id="a_node22"><a xlink:href="class_shared_factory.html" target="_top" xlink:title=" ">
<polygon fill="none" stroke="black" points="446,-111.5 446,-141.5 604,-141.5 604,-111.5 446,-111.5"/>
<text text-anchor="start" x="454" y="-129.5" font-family="Helvetica,sans-Serif" font-size="10.00">SharedFactory&lt; SimTerminal</text>
<text text-anchor="middle" x="525" y="-118.5" font-family="Helvetica,sans-Serif" font-size="10.00">&lt; VarType &gt; &gt;</text>
</a>
</g>
</g>
<!-- Node14&#45;&gt;Node22 -->
<g id="edge29" class="edge">
<title>Node14&#45;&gt;Node22</title>
<path fill="none" stroke="orange" stroke-dasharray="5,2" d="M200.74,-293.03C206.11,-256.29 223.37,-177.21 275,-141.5 324.33,-107.38 393.16,-105.79 445.96,-111.51"/>
<polygon fill="orange" stroke="orange" points="197.26,-292.61 199.43,-302.98 204.2,-293.52 197.26,-292.61"/>
<text text-anchor="middle" x="351.5" y="-144.5" font-family="Helvetica,sans-Serif" font-size="10.00"> &lt; SimTerminal&lt; VarType &gt; &gt;</text>
</g>
<!-- Node24 -->
<g id="node24" class="node">
<title>Node24</title>
<g id="a_node24"><a xlink:href="class_shared_factory.html" target="_top" xlink:title=" ">
<polygon fill="none" stroke="black" points="979,-377 979,-396 1127,-396 1127,-377 979,-377"/>
<text text-anchor="middle" x="1053" y="-384" font-family="Helvetica,sans-Serif" font-size="10.00">SharedFactory&lt; Resistor &gt;</text>
</a>
</g>
</g>
<!-- Node14&#45;&gt;Node24 -->
<g id="edge33" class="edge">
<title>Node14&#45;&gt;Node24</title>
<path fill="none" stroke="orange" stroke-dasharray="5,2" d="M218.95,-328.18C233.68,-338.53 254.49,-351.27 275,-357.5 523.98,-433.06 838.51,-411.28 978.74,-395.9"/>
<polygon fill="orange" stroke="orange" points="220.77,-325.18 210.62,-322.13 216.66,-330.84 220.77,-325.18"/>
<text text-anchor="middle" x="525" y="-411.5" font-family="Helvetica,sans-Serif" font-size="10.00"> &lt; Resistor &gt;</text>
</g>
<!-- Node15&#45;&gt;Node10 -->
<g id="edge16" class="edge">
<title>Node15&#45;&gt;Node10</title>
<path fill="none" stroke="orange" stroke-dasharray="5,2" d="M957.84,-290.59C1018.61,-282.03 1102.39,-270.21 1160.48,-262.02"/>
<polygon fill="orange" stroke="orange" points="957.33,-287.13 947.91,-291.99 958.3,-294.06 957.33,-287.13"/>
<text text-anchor="middle" x="1053" y="-290.5" font-family="Helvetica,sans-Serif" font-size="10.00"> &lt; Complex &gt;</text>
</g>
<!-- Node16 -->
<g id="node16" class="node">
<title>Node16</title>
<g id="a_node16"><a xlink:title=" ">
<polygon fill="none" stroke="#bfbfbf" points="463,-237 463,-278 587,-278 587,-237 463,-237"/>
<text text-anchor="start" x="471" y="-266" font-family="Helvetica,sans-Serif" font-size="10.00">std::enable_shared</text>
<text text-anchor="start" x="471" y="-255" font-family="Helvetica,sans-Serif" font-size="10.00">_from_this&lt; SimNode</text>
<text text-anchor="middle" x="525" y="-244" font-family="Helvetica,sans-Serif" font-size="10.00">&lt; VarType &gt; &gt;</text>
</a>
</g>
</g>
<!-- Node16&#45;&gt;Node15 -->
<g id="edge18" class="edge">
<title>Node16&#45;&gt;Node15</title>
<path fill="none" stroke="midnightblue" d="M597.68,-266.45C658.48,-274.04 745.29,-284.87 806.25,-292.48"/>
<polygon fill="midnightblue" stroke="midnightblue" points="597.76,-262.93 587.4,-265.16 596.89,-269.88 597.76,-262.93"/>
</g>
<!-- Node17&#45;&gt;Node15 -->
<g id="edge19" class="edge">
<title>Node17&#45;&gt;Node15</title>
<path fill="none" stroke="midnightblue" d="M605.87,-310.01C666.09,-308.13 748,-305.57 806.28,-303.75"/>
<polygon fill="midnightblue" stroke="midnightblue" points="605.53,-306.52 595.64,-310.33 605.75,-313.51 605.53,-306.52"/>
</g>
<!-- Node18 -->
<g id="node18" class="node">
<title>Node18</title>
<g id="a_node18"><a xlink:href="class_c_p_s_1_1_sim_terminal.html" target="_top" xlink:title=" ">
<polygon fill="none" stroke="black" points="1145,-115 1145,-134 1313,-134 1313,-115 1145,-115"/>
<text text-anchor="middle" x="1229" y="-122" font-family="Helvetica,sans-Serif" font-size="10.00">CPS::SimTerminal&lt; Complex &gt;</text>
</a>
</g>
</g>
<!-- Node18&#45;&gt;Node7 -->
<g id="edge21" class="edge">
<title>Node18&#45;&gt;Node7</title>
<path fill="none" stroke="#9a32cd" stroke-dasharray="5,2" d="M1323.35,-124.5C1358.4,-124.5 1397.36,-124.5 1428.95,-124.5"/>
<polygon fill="#9a32cd" stroke="#9a32cd" points="1323.1,-121 1313.1,-124.5 1323.1,-128 1323.1,-121"/>
<text text-anchor="middle" x="1369" y="-127.5" font-family="Helvetica,sans-Serif" font-size="10.00"> mTerminals</text>
</g>
<!-- Node19&#45;&gt;Node18 -->
<g id="edge22" class="edge">
<title>Node19&#45;&gt;Node18</title>
<path fill="none" stroke="midnightblue" d="M604.28,-86.21C691.38,-90.44 836.3,-97.77 961,-105.5 1022.57,-109.32 1092.08,-114.29 1144.74,-118.18"/>
<polygon fill="midnightblue" stroke="midnightblue" points="604.37,-82.71 594.21,-85.72 604.03,-89.7 604.37,-82.71"/>
</g>
<!-- Node21 -->
<g id="node21" class="node">
<title>Node21</title>
<g id="a_node21"><a xlink:href="class_c_p_s_1_1_sim_terminal.html" target="_top" xlink:title=" ">
<polygon fill="none" stroke="black" points="798,-115 798,-134 961,-134 961,-115 798,-115"/>
<text text-anchor="middle" x="879.5" y="-122" font-family="Helvetica,sans-Serif" font-size="10.00">CPS::SimTerminal&lt; VarType &gt;</text>
</a>
</g>
</g>
<!-- Node19&#45;&gt;Node21 -->
<g id="edge27" class="edge">
<title>Node19&#45;&gt;Node21</title>
<path fill="none" stroke="midnightblue" d="M604.26,-93.24C610.26,-94.02 616.23,-94.78 622,-95.5 680.82,-102.81 747.32,-110.3 797.87,-115.84"/>
<polygon fill="midnightblue" stroke="midnightblue" points="604.52,-89.75 594.15,-91.92 603.61,-96.69 604.52,-89.75"/>
</g>
<!-- Node20&#45;&gt;Node18 -->
<g id="edge24" class="edge">
<title>Node20&#45;&gt;Node18</title>
<path fill="none" stroke="midnightblue" d="M790.1,-163.8C876.18,-159.68 1010.83,-151.93 1127,-139.5 1140.75,-138.03 1155.5,-136.06 1169.36,-134.04"/>
<polygon fill="midnightblue" stroke="midnightblue" points="789.93,-160.3 780.11,-164.27 790.26,-167.29 789.93,-160.3"/>
</g>
<!-- Node21&#45;&gt;Node18 -->
<g id="edge26" class="edge">
<title>Node21&#45;&gt;Node18</title>
<path fill="none" stroke="orange" stroke-dasharray="5,2" d="M971.3,-124.5C1025,-124.5 1092.51,-124.5 1144.82,-124.5"/>
<polygon fill="orange" stroke="orange" points="971.1,-121 961.1,-124.5 971.1,-128 971.1,-121"/>
<text text-anchor="middle" x="1053" y="-127.5" font-family="Helvetica,sans-Serif" font-size="10.00"> &lt; Complex &gt;</text>
</g>
<!-- Node22&#45;&gt;Node21 -->
<g id="edge28" class="edge">
<title>Node22&#45;&gt;Node21</title>
<path fill="none" stroke="midnightblue" d="M614.54,-126C670.8,-125.68 743.05,-125.27 797.74,-124.96"/>
<polygon fill="midnightblue" stroke="midnightblue" points="614.21,-122.5 604.23,-126.06 614.25,-129.5 614.21,-122.5"/>
</g>
<!-- Node23&#45;&gt;Node7 -->
<g id="edge30" class="edge">
<title>Node23&#45;&gt;Node7</title>
<path fill="none" stroke="orange" stroke-dasharray="5,2" d="M1302.9,-12.02C1336.17,-13.21 1375.16,-18.65 1407,-34.5 1441.15,-51.5 1468.66,-88.37 1482.26,-109.26"/>
<polygon fill="orange" stroke="orange" points="1302.85,-8.52 1292.77,-11.79 1302.69,-15.52 1302.85,-8.52"/>
<text text-anchor="middle" x="1369" y="-37.5" font-family="Helvetica,sans-Serif" font-size="10.00"> &lt; Complex &gt;</text>
</g>
<!-- Node24&#45;&gt;Node1 -->
<g id="edge32" class="edge">
<title>Node24&#45;&gt;Node1</title>
<path fill="none" stroke="midnightblue" d="M1137.19,-381.13C1237.65,-375.82 1411.62,-370.32 1560,-384.5 1579.42,-386.36 1600.7,-390.22 1618.5,-393.99"/>
<polygon fill="midnightblue" stroke="midnightblue" points="1136.9,-377.64 1127.11,-381.68 1137.28,-384.63 1136.9,-377.64"/>
</g>
</g>
</svg>
