<?xml version="1.0" encoding="UTF-8" standalone="no"?>
<!DOCTYPE svg PUBLIC "-//W3C//DTD SVG 1.1//EN"
 "http://www.w3.org/Graphics/SVG/1.1/DTD/svg11.dtd">
<!-- Generated by graphviz version 2.44.0 (0)
 -->
<!-- Title: CPS::SP::Ph1::Capacitor Pages: 1 -->
<svg width="1112pt" height="192pt"
 viewBox="0.00 0.00 1112.00 192.00" xmlns="http://www.w3.org/2000/svg" xmlns:xlink="http://www.w3.org/1999/xlink">
<g id="graph0" class="graph" transform="scale(1 1) rotate(0) translate(4 188)">
<title>CPS::SP::Ph1::Capacitor</title>
<!-- Node1 -->
<g id="node1" class="node">
<title>Node1</title>
<g id="a_node1"><a xlink:title=" ">
<polygon fill="#bfbfbf" stroke="black" points="976,-82.5 976,-101.5 1104,-101.5 1104,-82.5 976,-82.5"/>
<text text-anchor="middle" x="1040" y="-89.5" font-family="Helvetica" font-size="10.00">CPS::SP::Ph1::Capacitor</text>
</a>
</g>
</g>
<!-- Node2 -->
<g id="node2" class="node">
<title>Node2</title>
<g id="a_node2"><a xlink:href="class_c_p_s_1_1_base_1_1_ph1_1_1_capacitor.html" target="_top" xlink:title=" ">
<polygon fill="none" stroke="black" points="794.5,-164.5 794.5,-183.5 931.5,-183.5 931.5,-164.5 794.5,-164.5"/>
<text text-anchor="middle" x="863" y="-171.5" font-family="Helvetica" font-size="10.00">CPS::Base::Ph1::Capacitor</text>
</a>
</g>
</g>
<!-- Node2&#45;&gt;Node1 -->
<g id="edge1" class="edge">
<title>Node2&#45;&gt;Node1</title>
<path fill="none" stroke="midnightblue" d="M925.9,-161.69C936.85,-158.54 947.95,-154.68 958,-150 985.6,-137.15 1013.53,-114.56 1028.3,-101.69"/>
<polygon fill="midnightblue" stroke="midnightblue" points="924.67,-158.4 915.93,-164.39 926.5,-165.16 924.67,-158.4"/>
</g>
<!-- Node3 -->
<g id="node3" class="node">
<title>Node3</title>
<g id="a_node3"><a xlink:href="class_c_p_s_1_1_m_n_a_interface.html" target="_top" xlink:title="Interface to be implemented by all models used by the MNA solver.">
<polygon fill="none" stroke="black" points="263,-126.5 263,-145.5 367,-145.5 367,-126.5 263,-126.5"/>
<text text-anchor="middle" x="315" y="-133.5" font-family="Helvetica" font-size="10.00">CPS::MNAInterface</text>
</a>
</g>
</g>
<!-- Node3&#45;&gt;Node1 -->
<g id="edge2" class="edge">
<title>Node3&#45;&gt;Node1</title>
<path fill="none" stroke="midnightblue" d="M377.38,-136C424.37,-136 490.77,-136 549,-136 549,-136 549,-136 864,-136 920.08,-136 983.29,-114.49 1016.25,-101.55"/>
<polygon fill="midnightblue" stroke="midnightblue" points="377.36,-132.5 367.36,-136 377.36,-139.5 377.36,-132.5"/>
</g>
<!-- Node4 -->
<g id="node4" class="node">
<title>Node4</title>
<g id="a_node4"><a xlink:href="class_c_p_s_1_1_attribute_list.html" target="_top" xlink:title="Base class of objects having attributes to access member variables.">
<polygon fill="none" stroke="black" points="0,-107.5 0,-126.5 96,-126.5 96,-107.5 0,-107.5"/>
<text text-anchor="middle" x="48" y="-114.5" font-family="Helvetica" font-size="10.00">CPS::AttributeList</text>
</a>
</g>
</g>
<!-- Node4&#45;&gt;Node3 -->
<g id="edge3" class="edge">
<title>Node4&#45;&gt;Node3</title>
<path fill="none" stroke="midnightblue" d="M106.31,-121.43C108.91,-121.62 111.48,-121.81 114,-122 164.51,-125.71 222.21,-129.73 262.61,-132.5"/>
<polygon fill="midnightblue" stroke="midnightblue" points="106.45,-117.93 96.21,-120.67 105.92,-124.91 106.45,-117.93"/>
</g>
<!-- Node7 -->
<g id="node7" class="node">
<title>Node7</title>
<g id="a_node7"><a xlink:href="class_c_p_s_1_1_identified_object.html" target="_top" xlink:title=" ">
<polygon fill="none" stroke="black" points="133,-88.5 133,-107.5 245,-107.5 245,-88.5 133,-88.5"/>
<text text-anchor="middle" x="189" y="-95.5" font-family="Helvetica" font-size="10.00">CPS::IdentifiedObject</text>
</a>
</g>
</g>
<!-- Node4&#45;&gt;Node7 -->
<g id="edge7" class="edge">
<title>Node4&#45;&gt;Node7</title>
<path fill="none" stroke="midnightblue" d="M106.22,-109.18C115.02,-107.98 124.08,-106.74 132.83,-105.54"/>
<polygon fill="midnightblue" stroke="midnightblue" points="105.49,-105.75 96.06,-110.57 106.44,-112.68 105.49,-105.75"/>
</g>
<!-- Node5 -->
<g id="node5" class="node">
<title>Node5</title>
<g id="a_node5"><a xlink:href="class_c_p_s_1_1_sim_power_comp.html" target="_top" xlink:title=" ">
<polygon fill="none" stroke="black" points="803,-77 803,-107 923,-107 923,-77 803,-77"/>
<text text-anchor="start" x="811" y="-95" font-family="Helvetica" font-size="10.00">CPS::SimPowerComp&lt;</text>
<text text-anchor="middle" x="863" y="-84" font-family="Helvetica" font-size="10.00"> Complex &gt;</text>
</a>
</g>
</g>
<!-- Node5&#45;&gt;Node1 -->
<g id="edge4" class="edge">
<title>Node5&#45;&gt;Node1</title>
<path fill="none" stroke="midnightblue" d="M933.34,-92C947.39,-92 962.1,-92 975.92,-92"/>
<polygon fill="midnightblue" stroke="midnightblue" points="933.25,-88.5 923.25,-92 933.25,-95.5 933.25,-88.5"/>
</g>
<!-- Node6 -->
<g id="node6" class="node">
<title>Node6</title>
<g id="a_node6"><a xlink:href="class_c_p_s_1_1_topological_power_comp.html" target="_top" xlink:title=" ">
<polygon fill="none" stroke="black" points="385,-88.5 385,-107.5 531,-107.5 531,-88.5 385,-88.5"/>
<text text-anchor="middle" x="458" y="-95.5" font-family="Helvetica" font-size="10.00">CPS::TopologicalPowerComp</text>
</a>
</g>
</g>
<!-- Node6&#45;&gt;Node5 -->
<g id="edge5" class="edge">
<title>Node6&#45;&gt;Node5</title>
<path fill="none" stroke="midnightblue" d="M541.28,-96.77C618.97,-95.62 733.59,-93.91 802.7,-92.88"/>
<polygon fill="midnightblue" stroke="midnightblue" points="541,-93.28 531.05,-96.93 541.1,-100.28 541,-93.28"/>
</g>
<!-- Node8 -->
<g id="node8" class="node">
<title>Node8</title>
<g id="a_node8"><a xlink:href="class_c_p_s_1_1_sim_power_comp.html" target="_top" xlink:title="Base class for all components that are transmitting power.">
<polygon fill="none" stroke="black" points="568,-39 568,-69 688,-69 688,-39 568,-39"/>
<text text-anchor="start" x="576" y="-57" font-family="Helvetica" font-size="10.00">CPS::SimPowerComp&lt;</text>
<text text-anchor="middle" x="628" y="-46" font-family="Helvetica" font-size="10.00"> VarType &gt;</text>
</a>
</g>
</g>
<!-- Node6&#45;&gt;Node8 -->
<g id="edge9" class="edge">
<title>Node6&#45;&gt;Node8</title>
<path fill="none" stroke="midnightblue" d="M505.19,-85.9C525.06,-80.7 548.5,-74.56 569.48,-69.07"/>
<polygon fill="midnightblue" stroke="midnightblue" points="504.24,-82.53 495.45,-88.45 506.01,-89.3 504.24,-82.53"/>
</g>
<!-- Node7&#45;&gt;Node6 -->
<g id="edge6" class="edge">
<title>Node7&#45;&gt;Node6</title>
<path fill="none" stroke="midnightblue" d="M255.53,-98C294.6,-98 344.26,-98 384.5,-98"/>
<polygon fill="midnightblue" stroke="midnightblue" points="255.32,-94.5 245.32,-98 255.32,-101.5 255.32,-94.5"/>
</g>
<!-- Node8&#45;&gt;Node5 -->
<g id="edge8" class="edge">
<title>Node8&#45;&gt;Node5</title>
<path fill="none" stroke="orange" stroke-dasharray="5,2" d="M698.24,-62.47C720.85,-65.48 746.04,-69.1 769,-73 779.89,-74.85 791.44,-77.03 802.58,-79.25"/>
<polygon fill="orange" stroke="orange" points="698.43,-58.96 688.05,-61.13 697.51,-65.9 698.43,-58.96"/>
<text text-anchor="middle" x="737.5" y="-76" font-family="Helvetica" font-size="10.00"> &lt; Complex &gt;</text>
</g>
<!-- Node9 -->
<g id="node9" class="node">
<title>Node9</title>
<g id="a_node9"><a xlink:href="class_shared_factory.html" target="_top" xlink:title=" ">
<polygon fill="none" stroke="black" points="793,-38.5 793,-57.5 933,-57.5 933,-38.5 793,-38.5"/>
<text text-anchor="middle" x="863" y="-45.5" font-family="Helvetica" font-size="10.00">SharedFactory&lt; Capacitor &gt;</text>
</a>
</g>
</g>
<!-- Node9&#45;&gt;Node1 -->
<g id="edge10" class="edge">
<title>Node9&#45;&gt;Node1</title>
<path fill="none" stroke="midnightblue" d="M911.97,-60.06C940.04,-67.12 974.98,-75.9 1001.1,-82.47"/>
<polygon fill="midnightblue" stroke="midnightblue" points="912.52,-56.59 901.97,-57.55 910.82,-63.38 912.52,-56.59"/>
</g>
<!-- Node10 -->
<g id="node10" class="node">
<title>Node10</title>
<g id="a_node10"><a xlink:href="class_shared_factory.html" target="_top" xlink:title=" ">
<polygon fill="none" stroke="black" points="575.5,-0.5 575.5,-19.5 680.5,-19.5 680.5,-0.5 575.5,-0.5"/>
<text text-anchor="middle" x="628" y="-7.5" font-family="Helvetica" font-size="10.00">SharedFactory&lt; T &gt;</text>
</a>
</g>
</g>
<!-- Node10&#45;&gt;Node9 -->
<g id="edge11" class="edge">
<title>Node10&#45;&gt;Node9</title>
<path fill="none" stroke="orange" stroke-dasharray="5,2" d="M690.78,-20.08C725.7,-25.77 769.1,-32.85 803.46,-38.45"/>
<polygon fill="orange" stroke="orange" points="691.14,-16.59 680.71,-18.43 690.02,-23.5 691.14,-16.59"/>
<text text-anchor="middle" x="737.5" y="-36" font-family="Helvetica" font-size="10.00"> &lt; Capacitor &gt;</text>
</g>
<!-- Node11 -->
<g id="node11" class="node">
<title>Node11</title>
<g id="a_node11"><a xlink:href="class_c_p_s_1_1_p_f_solver_interface_branch.html" target="_top" xlink:title="Common base class of all Component templates.">
<polygon fill="none" stroke="black" points="787,-0.5 787,-19.5 939,-19.5 939,-0.5 787,-0.5"/>
<text text-anchor="middle" x="863" y="-7.5" font-family="Helvetica" font-size="10.00">CPS::PFSolverInterfaceBranch</text>
</a>
</g>
</g>
<!-- Node11&#45;&gt;Node1 -->
<g id="edge12" class="edge">
<title>Node11&#45;&gt;Node1</title>
<path fill="none" stroke="midnightblue" d="M920.9,-22.39C927.11,-24.33 933.25,-26.53 939,-29 972.94,-43.56 1008.59,-68.79 1026.77,-82.49"/>
<polygon fill="midnightblue" stroke="midnightblue" points="921.74,-18.99 911.16,-19.54 919.78,-25.71 921.74,-18.99"/>
</g>
</g>
</svg>
