<?xml version="1.0" encoding="UTF-8" standalone="no"?>
<!DOCTYPE svg PUBLIC "-//W3C//DTD SVG 1.1//EN"
 "http://www.w3.org/Graphics/SVG/1.1/DTD/svg11.dtd">
<!-- Generated by graphviz version 2.50.0 (0)
 -->
<!-- Title: CPS::MNASwitchInterface Pages: 1 -->
<svg width="327pt" height="332pt"
 viewBox="0.00 0.00 327.00 332.00" xmlns="http://www.w3.org/2000/svg" xmlns:xlink="http://www.w3.org/1999/xlink">
<g id="graph0" class="graph" transform="scale(1 1) rotate(0) translate(4 328)">
<title>CPS::MNASwitchInterface</title>
<!-- Node1 -->
<g id="node1" class="node">
<title>Node1</title>
<g id="a_node1"><a xlink:title="MNA interface to be used by switching devices.">
<polygon fill="#bfbfbf" stroke="black" points="0,-152.5 0,-171.5 136,-171.5 136,-152.5 0,-152.5"/>
<text text-anchor="middle" x="68" y="-159.5" font-family="Helvetica,sans-Serif" font-size="10.00">CPS::MNASwitchInterface</text>
</a>
</g>
</g>
<!-- Node2 -->
<g id="node2" class="node">
<title>Node2</title>
<g id="a_node2"><a xlink:href="class_c_p_s_1_1_d_p_1_1_ph1_1_1_r_x_load_switch.html" target="_top" xlink:title="Constant impedance load model consisting of RLC elements.">
<polygon fill="none" stroke="black" points="172,-304.5 172,-323.5 319,-323.5 319,-304.5 172,-304.5"/>
<text text-anchor="middle" x="245.5" y="-311.5" font-family="Helvetica,sans-Serif" font-size="10.00">CPS::DP::Ph1::RXLoadSwitch</text>
</a>
</g>
</g>
<!-- Node1&#45;&gt;Node2 -->
<g id="edge1" class="edge">
<title>Node1&#45;&gt;Node2</title>
<path fill="none" stroke="midnightblue" d="M78.38,-180.91C93.8,-210 127.32,-265.47 172,-295 177.86,-298.87 184.48,-301.96 191.27,-304.42"/>
<polygon fill="midnightblue" stroke="midnightblue" points="81.38,-179.09 73.69,-171.8 75.16,-182.29 81.38,-179.09"/>
</g>
<!-- Node3 -->
<g id="node3" class="node">
<title>Node3</title>
<g id="a_node3"><a xlink:href="class_c_p_s_1_1_d_p_1_1_ph1_1_1_switch.html" target="_top" xlink:title="Dynamic phasor switch.">
<polygon fill="none" stroke="black" points="189,-266.5 189,-285.5 302,-285.5 302,-266.5 189,-266.5"/>
<text text-anchor="middle" x="245.5" y="-273.5" font-family="Helvetica,sans-Serif" font-size="10.00">CPS::DP::Ph1::Switch</text>
</a>
</g>
</g>
<!-- Node1&#45;&gt;Node3 -->
<g id="edge2" class="edge">
<title>Node1&#45;&gt;Node3</title>
<path fill="none" stroke="midnightblue" d="M83.09,-179.43C101.36,-200.87 135.26,-236.9 172,-257 179.08,-260.87 186.98,-263.98 194.89,-266.47"/>
<polygon fill="midnightblue" stroke="midnightblue" points="85.76,-177.17 76.67,-171.73 80.39,-181.65 85.76,-177.17"/>
</g>
<!-- Node4 -->
<g id="node4" class="node">
<title>Node4</title>
<g id="a_node4"><a xlink:href="class_c_p_s_1_1_d_p_1_1_ph1_1_1var_res_switch.html" target="_top" xlink:title="Switch with variable resistance to avoid numerical oscillations, when an inductive current is suddenl...">
<polygon fill="none" stroke="black" points="173.5,-228.5 173.5,-247.5 317.5,-247.5 317.5,-228.5 173.5,-228.5"/>
<text text-anchor="middle" x="245.5" y="-235.5" font-family="Helvetica,sans-Serif" font-size="10.00">CPS::DP::Ph1::varResSwitch</text>
</a>
</g>
</g>
<!-- Node1&#45;&gt;Node4 -->
<g id="edge3" class="edge">
<title>Node1&#45;&gt;Node4</title>
<path fill="none" stroke="midnightblue" d="M92,-176.92C112.36,-189.58 143.21,-207.47 172,-219 181.18,-222.68 191.3,-225.84 200.99,-228.48"/>
<polygon fill="midnightblue" stroke="midnightblue" points="93.76,-173.89 83.44,-171.52 90.03,-179.81 93.76,-173.89"/>
</g>
<!-- Node5 -->
<g id="node5" class="node">
<title>Node5</title>
<g id="a_node5"><a xlink:href="class_c_p_s_1_1_d_p_1_1_ph3_1_1_series_switch.html" target="_top" xlink:title="Dynamic phasor three&#45;phase switch.">
<polygon fill="none" stroke="black" points="175,-190.5 175,-209.5 316,-209.5 316,-190.5 175,-190.5"/>
<text text-anchor="middle" x="245.5" y="-197.5" font-family="Helvetica,sans-Serif" font-size="10.00">CPS::DP::Ph3::SeriesSwitch</text>
</a>
</g>
</g>
<!-- Node1&#45;&gt;Node5 -->
<g id="edge4" class="edge">
<title>Node1&#45;&gt;Node5</title>
<path fill="none" stroke="midnightblue" d="M123.28,-173.75C148.09,-179.13 177.11,-185.41 200.53,-190.48"/>
<polygon fill="midnightblue" stroke="midnightblue" points="123.8,-170.28 113.29,-171.59 122.32,-177.13 123.8,-170.28"/>
</g>
<!-- Node6 -->
<g id="node6" class="node">
<title>Node6</title>
<g id="a_node6"><a xlink:href="class_c_p_s_1_1_e_m_t_1_1_ph1_1_1_switch.html" target="_top" xlink:title="One phase EMT switch.">
<polygon fill="none" stroke="black" points="186,-152.5 186,-171.5 305,-171.5 305,-152.5 186,-152.5"/>
<text text-anchor="middle" x="245.5" y="-159.5" font-family="Helvetica,sans-Serif" font-size="10.00">CPS::EMT::Ph1::Switch</text>
</a>
</g>
</g>
<!-- Node1&#45;&gt;Node6 -->
<g id="edge5" class="edge">
<title>Node1&#45;&gt;Node6</title>
<path fill="none" stroke="midnightblue" d="M146.17,-162C159.45,-162 173.06,-162 185.75,-162"/>
<polygon fill="midnightblue" stroke="midnightblue" points="146.1,-158.5 136.1,-162 146.1,-165.5 146.1,-158.5"/>
</g>
<!-- Node7 -->
<g id="node7" class="node">
<title>Node7</title>
<g id="a_node7"><a xlink:href="class_c_p_s_1_1_e_m_t_1_1_ph3_1_1_series_switch.html" target="_top" xlink:title="EMT three&#45;phase switch.">
<polygon fill="none" stroke="black" points="172,-114.5 172,-133.5 319,-133.5 319,-114.5 172,-114.5"/>
<text text-anchor="middle" x="245.5" y="-121.5" font-family="Helvetica,sans-Serif" font-size="10.00">CPS::EMT::Ph3::SeriesSwitch</text>
</a>
</g>
</g>
<!-- Node1&#45;&gt;Node7 -->
<g id="edge6" class="edge">
<title>Node1&#45;&gt;Node7</title>
<path fill="none" stroke="midnightblue" d="M123.28,-150.25C148.09,-144.87 177.11,-138.59 200.53,-133.52"/>
<polygon fill="midnightblue" stroke="midnightblue" points="122.32,-146.87 113.29,-152.41 123.8,-153.72 122.32,-146.87"/>
</g>
<!-- Node8 -->
<g id="node8" class="node">
<title>Node8</title>
<g id="a_node8"><a xlink:href="class_c_p_s_1_1_e_m_t_1_1_ph3_1_1_switch.html" target="_top" xlink:title="Dynamic phasor switch.">
<polygon fill="none" stroke="black" points="186,-76.5 186,-95.5 305,-95.5 305,-76.5 186,-76.5"/>
<text text-anchor="middle" x="245.5" y="-83.5" font-family="Helvetica,sans-Serif" font-size="10.00">CPS::EMT::Ph3::Switch</text>
</a>
</g>
</g>
<!-- Node1&#45;&gt;Node8 -->
<g id="edge7" class="edge">
<title>Node1&#45;&gt;Node8</title>
<path fill="none" stroke="midnightblue" d="M92,-147.08C112.36,-134.42 143.21,-116.53 172,-105 181.18,-101.32 191.3,-98.16 200.99,-95.52"/>
<polygon fill="midnightblue" stroke="midnightblue" points="90.03,-144.19 83.44,-152.48 93.76,-150.11 90.03,-144.19"/>
</g>
<!-- Node9 -->
<g id="node9" class="node">
<title>Node9</title>
<g id="a_node9"><a xlink:href="class_c_p_s_1_1_s_p_1_1_ph1_1_1_switch.html" target="_top" xlink:title="Dynamic phasor switch.">
<polygon fill="none" stroke="black" points="190.5,-38.5 190.5,-57.5 300.5,-57.5 300.5,-38.5 190.5,-38.5"/>
<text text-anchor="middle" x="245.5" y="-45.5" font-family="Helvetica,sans-Serif" font-size="10.00">CPS::SP::Ph1::Switch</text>
</a>
</g>
</g>
<!-- Node1&#45;&gt;Node9 -->
<g id="edge8" class="edge">
<title>Node1&#45;&gt;Node9</title>
<path fill="none" stroke="midnightblue" d="M83.09,-144.57C101.36,-123.13 135.26,-87.1 172,-67 179.08,-63.13 186.98,-60.02 194.89,-57.53"/>
<polygon fill="midnightblue" stroke="midnightblue" points="80.39,-142.35 76.67,-152.27 85.76,-146.83 80.39,-142.35"/>
</g>
<!-- Node10 -->
<g id="node10" class="node">
<title>Node10</title>
<g id="a_node10"><a xlink:href="class_c_p_s_1_1_s_p_1_1_ph1_1_1var_res_switch.html" target="_top" xlink:title="Switch with variable resistance to avoid numerical oscillations, when an inductive current is suddenl...">
<polygon fill="none" stroke="black" points="174.5,-0.5 174.5,-19.5 316.5,-19.5 316.5,-0.5 174.5,-0.5"/>
<text text-anchor="middle" x="245.5" y="-7.5" font-family="Helvetica,sans-Serif" font-size="10.00">CPS::SP::Ph1::varResSwitch</text>
</a>
</g>
</g>
<!-- Node1&#45;&gt;Node10 -->
<g id="edge9" class="edge">
<title>Node1&#45;&gt;Node10</title>
<path fill="none" stroke="midnightblue" d="M78.38,-143.09C93.8,-114 127.32,-58.53 172,-29 177.86,-25.13 184.48,-22.04 191.27,-19.58"/>
<polygon fill="midnightblue" stroke="midnightblue" points="75.16,-141.71 73.69,-152.2 81.38,-144.91 75.16,-141.71"/>
</g>
</g>
</svg>
