<?xml version="1.0" encoding="UTF-8" standalone="no"?>
<!DOCTYPE svg PUBLIC "-//W3C//DTD SVG 1.1//EN"
 "http://www.w3.org/Graphics/SVG/1.1/DTD/svg11.dtd">
<!-- Generated by graphviz version 12.2.1 (20241206.2353)
 -->
<!-- Title: CPS::Signal::DecouplingIdealTransformer_EMT_Ph1 Pages: 1 -->
<!--zoomable 497 -->

<svg id="main" version="1.1" xmlns="http://www.w3.org/2000/svg" xmlns:xlink="http://www.w3.org/1999/xlink" xml:space="preserve" onload="init(evt)">

<style type="text/css"><![CDATA[
.node, .edge {opacity: 0.7;}
.node.selected, .edge.selected {opacity: 1;}
.edge:hover path { stroke: red; }
.edge:hover polygon { stroke: red; fill: red; }
]]></style>

<defs>
  <circle id="rim" cx="0" cy="0" r="7"/>
  <circle id="rim2" cx="0" cy="0" r="3.5"/>
  <g id="zoomPlus">
    <use xlink:href="#rim" fill="#404040"><set attributeName="fill" to="#808080" begin="zoomplus.mouseover" end="zoomplus.mouseout"/></use>
    <path d="M-4,0h8M0,-4v8" fill="none" stroke="white" stroke-width="1.5" pointer-events="none"/>
  </g>
  <g id="zoomMin">
    <use xlink:href="#rim" fill="#404040"><set attributeName="fill" to="#808080" begin="zoomminus.mouseover" end="zoomminus.mouseout"/></use>
    <path d="M-4,0h8" fill="none" stroke="white" stroke-width="1.5" pointer-events="none"/>
  </g>
  <g id="arrowUp" transform="translate(30 24)">
    <use xlink:href="#rim"/>
    <path pointer-events="none" fill="none" stroke="white" stroke-width="1.5" d="M0,-3.0v7 M-2.5,-0.5L0,-3.0L2.5,-0.5"/>
  </g>
  <g id="arrowRight" transform="rotate(90) translate(36 -43)">
    <use xlink:href="#rim"/>
    <path pointer-events="none" fill="none" stroke="white" stroke-width="1.5" d="M0,-3.0v7 M-2.5,-0.5L0,-3.0L2.5,-0.5"/>
  </g>
  <g id="arrowDown" transform="rotate(180) translate(-30 -48)">
    <use xlink:href="#rim"/>
    <path pointer-events="none" fill="none" stroke="white" stroke-width="1.5" d="M0,-3.0v7 M-2.5,-0.5L0,-3.0L2.5,-0.5"/>
  </g>
  <g id="arrowLeft" transform="rotate(270) translate(-36 17)">
    <use xlink:href="#rim"/>
    <path pointer-events="none" fill="none" stroke="white" stroke-width="1.5" d="M0,-3.0v7 M-2.5,-0.5L0,-3.0L2.5,-0.5"/>
  </g>
  <g id="resetDef">
    <use xlink:href="#rim2" fill="#404040"><set attributeName="fill" to="#808080" begin="reset.mouseover" end="reset.mouseout"/></use>
  </g>
</defs>
<script type="application/ecmascript">
var viewWidth = 1397;
var viewHeight = 497;
var sectionId = 'dynsection-1';
</script>
<script type="application/ecmascript" xlink:href="svg.min.js"/>
<svg id="graph" class="graph">
<g id="viewport">
<title>CPS::Signal::DecouplingIdealTransformer_EMT_Ph1</title>
<!-- Node1 -->
<g id="Node000001" class="node">
<title>Node1</title>
<g id="a_Node000001"><a xlink:title=" ">
<polygon fill="#999999" stroke="#666666" points="1389.25,-219.62 1241.25,-219.62 1241.25,-183.12 1389.25,-183.12 1389.25,-219.62"/>
<text text-anchor="start" x="1249.25" y="-206.12" font-family="Helvetica,sans-Serif" font-size="10.00">CPS::Signal::DecouplingIdeal</text>
<text text-anchor="middle" x="1315.25" y="-191.88" font-family="Helvetica,sans-Serif" font-size="10.00">Transformer_EMT_Ph1</text>
</a>
</g>
</g>
<!-- Node2 -->
<g id="Node000002" class="node">
<title>Node2</title>
<g id="a_Node000002"><a xlink:href="class_c_p_s_1_1_sim_signal_comp.html" target="_top" xlink:title=" ">
<polygon fill="white" stroke="#666666" points="1182.88,-270.5 1073.12,-270.5 1073.12,-248.25 1182.88,-248.25 1182.88,-270.5"/>
<text text-anchor="middle" x="1128" y="-257" font-family="Helvetica,sans-Serif" font-size="10.00">CPS::SimSignalComp</text>
</a>
</g>
</g>
<!-- Node2&#45;&gt;Node1 -->
<g id="edge1_Node000001_Node000002" class="edge">
<title>Node2&#45;&gt;Node1</title>
<g id="a_edge1_Node000001_Node000002"><a xlink:title=" ">
<path fill="none" stroke="#63b8ff" d="M1176.9,-244.38C1200.63,-236.95 1229.52,-227.9 1254.66,-220.03"/>
<polygon fill="#63b8ff" stroke="#63b8ff" points="1175.98,-241 1167.49,-247.32 1178.08,-247.68 1175.98,-241"/>
</a>
</g>
</g>
<!-- Node3 -->
<g id="Node000003" class="node">
<title>Node3</title>
<g id="a_Node000003"><a xlink:href="class_c_p_s_1_1_topological_signal_comp.html" target="_top" xlink:title=" ">
<polygon fill="white" stroke="#666666" points="871,-289.5 726.75,-289.5 726.75,-267.25 871,-267.25 871,-289.5"/>
<text text-anchor="middle" x="798.88" y="-276" font-family="Helvetica,sans-Serif" font-size="10.00">CPS::TopologicalSignalComp</text>
</a>
</g>
</g>
<!-- Node3&#45;&gt;Node2 -->
<g id="edge2_Node000002_Node000003" class="edge">
<title>Node3&#45;&gt;Node2</title>
<g id="a_edge2_Node000002_Node000003"><a xlink:title=" ">
<path fill="none" stroke="#63b8ff" d="M882.54,-273.57C942.16,-270.11 1020.94,-265.53 1072.75,-262.53"/>
<polygon fill="#63b8ff" stroke="#63b8ff" points="882.55,-270.07 872.77,-274.14 882.96,-277.06 882.55,-270.07"/>
</a>
</g>
</g>
<!-- Node4 -->
<g id="Node000004" class="node">
<title>Node4</title>
<g id="a_Node000004"><a xlink:href="class_c_p_s_1_1_identified_object.html" target="_top" xlink:title=" ">
<polygon fill="white" stroke="#666666" points="689.75,-303.5 574.75,-303.5 574.75,-281.25 689.75,-281.25 689.75,-303.5"/>
<text text-anchor="middle" x="632.25" y="-290" font-family="Helvetica,sans-Serif" font-size="10.00">CPS::IdentifiedObject</text>
</a>
</g>
</g>
<!-- Node4&#45;&gt;Node3 -->
<g id="edge3_Node000003_Node000004" class="edge">
<title>Node4&#45;&gt;Node3</title>
<g id="a_edge3_Node000003_Node000004"><a xlink:title=" ">
<path fill="none" stroke="#63b8ff" d="M701.37,-286.58C709.59,-285.88 718.01,-285.17 726.29,-284.46"/>
<polygon fill="#63b8ff" stroke="#63b8ff" points="701.08,-283.09 691.41,-287.43 701.67,-290.07 701.08,-283.09"/>
</a>
</g>
</g>
<!-- Node5 -->
<g id="Node000005" class="node">
<title>Node5</title>
<g id="a_Node000005"><a xlink:href="class_c_p_s_1_1_attribute.html" target="_top" xlink:title=" ">
<polygon fill="white" stroke="#666666" points="493.75,-311.5 367.5,-311.5 367.5,-289.25 493.75,-289.25 493.75,-311.5"/>
<text text-anchor="middle" x="430.62" y="-298" font-family="Helvetica,sans-Serif" font-size="10.00">CPS::Attribute&lt; String &gt;</text>
</a>
</g>
</g>
<!-- Node5&#45;&gt;Node4 -->
<g id="edge4_Node000004_Node000005" class="edge">
<title>Node5&#45;&gt;Node4</title>
<g id="a_edge4_Node000004_Node000005"><a xlink:title=" ">
<path fill="none" stroke="#9a32cd" stroke-dasharray="5,2" d="M505.56,-297.41C528.27,-296.5 552.89,-295.52 574.28,-294.66"/>
<polygon fill="#9a32cd" stroke="#9a32cd" points="505.6,-293.91 495.75,-297.81 505.88,-300.9 505.6,-293.91"/>
</a>
</g>
<text text-anchor="middle" x="537.25" y="-315.85" font-family="Helvetica,sans-Serif" font-size="10.00" fill="grey"> mName</text>
<text text-anchor="middle" x="537.25" y="-301.6" font-family="Helvetica,sans-Serif" font-size="10.00" fill="grey">mUID</text>
</g>
<!-- Node6 -->
<g id="Node000006" class="node">
<title>Node6</title>
<g id="a_Node000006"><a xlink:href="class_c_p_s_1_1_attribute_base.html" target="_top" xlink:title=" ">
<polygon fill="white" stroke="#666666" points="109.75,-277.5 5.25,-277.5 5.25,-255.25 109.75,-255.25 109.75,-277.5"/>
<text text-anchor="middle" x="57.5" y="-264" font-family="Helvetica,sans-Serif" font-size="10.00">CPS::AttributeBase</text>
</a>
</g>
</g>
<!-- Node6&#45;&gt;Node5 -->
<g id="edge5_Node000005_Node000006" class="edge">
<title>Node6&#45;&gt;Node5</title>
<g id="a_edge5_Node000005_Node000006"><a xlink:title=" ">
<path fill="none" stroke="#63b8ff" d="M73.19,-287.18C89.6,-308.43 118.33,-340.13 152,-353.38 231.29,-384.56 261.97,-369.12 343.5,-344.38 368.4,-336.82 394.72,-322.28 411.61,-311.99"/>
<polygon fill="#63b8ff" stroke="#63b8ff" points="76.03,-285.13 67.25,-279.2 70.41,-289.31 76.03,-285.13"/>
</a>
</g>
</g>
<!-- Node8 -->
<g id="Node000008" class="node">
<title>Node8</title>
<g id="a_Node000008"><a xlink:href="class_c_p_s_1_1_attribute.html" target="_top" xlink:title=" ">
<polygon fill="white" stroke="#666666" points="261.38,-238.5 157.62,-238.5 157.62,-216.25 261.38,-216.25 261.38,-238.5"/>
<text text-anchor="middle" x="209.5" y="-225" font-family="Helvetica,sans-Serif" font-size="10.00">CPS::Attribute&lt; T &gt;</text>
</a>
</g>
</g>
<!-- Node6&#45;&gt;Node8 -->
<g id="edge8_Node000008_Node000006" class="edge">
<title>Node6&#45;&gt;Node8</title>
<g id="a_edge8_Node000008_Node000006"><a xlink:title=" ">
<path fill="none" stroke="#63b8ff" d="M114.18,-251.9C130.54,-247.64 148.23,-243.05 163.81,-238.99"/>
<polygon fill="#63b8ff" stroke="#63b8ff" points="113.36,-248.49 104.56,-254.4 115.12,-255.27 113.36,-248.49"/>
</a>
</g>
</g>
<!-- Node12 -->
<g id="Node000012" class="node">
<title>Node12</title>
<g id="a_Node000012"><a xlink:href="class_c_p_s_1_1_attribute.html" target="_top" xlink:title=" ">
<polygon fill="white" stroke="#666666" points="499.75,-212.5 361.5,-212.5 361.5,-190.25 499.75,-190.25 499.75,-212.5"/>
<text text-anchor="middle" x="430.62" y="-199" font-family="Helvetica,sans-Serif" font-size="10.00">CPS::Attribute&lt; Complex &gt;</text>
</a>
</g>
</g>
<!-- Node6&#45;&gt;Node12 -->
<g id="edge13_Node000012_Node000006" class="edge">
<title>Node6&#45;&gt;Node12</title>
<g id="a_edge13_Node000012_Node000006"><a xlink:title=" ">
<path fill="none" stroke="#63b8ff" d="M121.53,-271.84C180.28,-274.94 269.67,-274.56 343.5,-252.38 370.96,-244.12 398.8,-225.32 415.12,-213"/>
<polygon fill="#63b8ff" stroke="#63b8ff" points="121.9,-268.35 111.72,-271.26 121.49,-275.34 121.9,-268.35"/>
</a>
</g>
</g>
<!-- Node14 -->
<g id="Node000014" class="node">
<title>Node14</title>
<g id="a_Node000014"><a xlink:href="class_c_p_s_1_1_attribute.html" target="_top" xlink:title=" ">
<polygon fill="white" stroke="#666666" points="489.62,-117.5 371.62,-117.5 371.62,-95.25 489.62,-95.25 489.62,-117.5"/>
<text text-anchor="middle" x="430.62" y="-104" font-family="Helvetica,sans-Serif" font-size="10.00">CPS::Attribute&lt; Real &gt;</text>
</a>
</g>
</g>
<!-- Node6&#45;&gt;Node14 -->
<g id="edge17_Node000014_Node000006" class="edge">
<title>Node6&#45;&gt;Node14</title>
<g id="a_edge17_Node000014_Node000006"><a xlink:title=" ">
<path fill="none" stroke="#63b8ff" d="M61.43,-243.85C68.36,-200.99 90.1,-108.51 152,-69.38 234.61,-17.14 358.64,-69.74 408.13,-94.75"/>
<polygon fill="#63b8ff" stroke="#63b8ff" points="57.97,-243.32 59.98,-253.72 64.9,-244.33 57.97,-243.32"/>
</a>
</g>
</g>
<!-- Node16 -->
<g id="Node000016" class="node">
<title>Node16</title>
<g id="a_Node000016"><a xlink:href="class_c_p_s_1_1_attribute.html" target="_top" xlink:title=" ">
<polygon fill="white" stroke="#666666" points="494.88,-387.5 366.38,-387.5 366.38,-365.25 494.88,-365.25 494.88,-387.5"/>
<text text-anchor="middle" x="430.62" y="-374" font-family="Helvetica,sans-Serif" font-size="10.00">CPS::Attribute&lt; Matrix &gt;</text>
</a>
</g>
</g>
<!-- Node6&#45;&gt;Node16 -->
<g id="edge21_Node000016_Node000006" class="edge">
<title>Node6&#45;&gt;Node16</title>
<g id="a_edge21_Node000016_Node000006"><a xlink:title=" ">
<path fill="none" stroke="#63b8ff" d="M68.66,-288.02C82.84,-315.2 111.48,-360.23 152,-376.38 224.76,-405.37 317.01,-397.55 374.69,-387.98"/>
<polygon fill="#63b8ff" stroke="#63b8ff" points="71.89,-286.67 64.3,-279.28 65.63,-289.79 71.89,-286.67"/>
</a>
</g>
</g>
<!-- Node7 -->
<g id="Node000007" class="node">
<title>Node7</title>
<g id="a_Node000007"><a xlink:title=" ">
<polygon fill="white" stroke="#bfbfbf" points="267,-344.75 152,-344.75 152,-294 267,-294 267,-344.75"/>
<text text-anchor="start" x="160" y="-331.25" font-family="Helvetica,sans-Serif" font-size="10.00">std::enable_shared</text>
<text text-anchor="start" x="160" y="-317" font-family="Helvetica,sans-Serif" font-size="10.00">_from_this&lt; Attribute</text>
<text text-anchor="middle" x="209.5" y="-302.75" font-family="Helvetica,sans-Serif" font-size="10.00">&lt; String &gt; &gt;</text>
</a>
</g>
</g>
<!-- Node7&#45;&gt;Node5 -->
<g id="edge6_Node000005_Node000007" class="edge">
<title>Node7&#45;&gt;Node5</title>
<g id="a_edge6_Node000005_Node000007"><a xlink:title=" ">
<path fill="none" stroke="#63b8ff" d="M278.66,-313.47C307,-311.01 339.68,-308.17 367.37,-305.77"/>
<polygon fill="#63b8ff" stroke="#63b8ff" points="278.38,-309.98 268.72,-314.33 278.99,-316.95 278.38,-309.98"/>
</a>
</g>
</g>
<!-- Node8&#45;&gt;Node5 -->
<g id="edge7_Node000005_Node000008" class="edge">
<title>Node8&#45;&gt;Node5</title>
<g id="a_edge7_Node000005_Node000008"><a xlink:title=" ">
<path fill="none" stroke="orange" stroke-dasharray="5,2" d="M256.09,-242.56C297.46,-256.34 357.55,-276.36 395.07,-288.86"/>
<polygon fill="orange" stroke="orange" points="257.25,-239.26 246.66,-239.42 255.04,-245.9 257.25,-239.26"/>
</a>
</g>
<text text-anchor="middle" x="314.25" y="-275.16" font-family="Helvetica,sans-Serif" font-size="10.00" fill="grey"> &lt; String &gt;</text>
</g>
<!-- Node8&#45;&gt;Node12 -->
<g id="edge15_Node000012_Node000008" class="edge">
<title>Node8&#45;&gt;Node12</title>
<g id="a_edge15_Node000012_Node000008"><a xlink:title=" ">
<path fill="none" stroke="orange" stroke-dasharray="5,2" d="M252.06,-212.07C267.09,-206.67 281.29,-201.76 285,-201.12 309.63,-196.91 336.96,-196.01 361.17,-196.49"/>
<polygon fill="orange" stroke="orange" points="251.27,-208.64 243.06,-215.33 253.66,-215.22 251.27,-208.64"/>
</a>
</g>
<text text-anchor="middle" x="314.25" y="-205.88" font-family="Helvetica,sans-Serif" font-size="10.00" fill="grey"> &lt; Complex &gt;</text>
</g>
<!-- Node8&#45;&gt;Node14 -->
<g id="edge19_Node000014_Node000008" class="edge">
<title>Node8&#45;&gt;Node14</title>
<g id="a_edge19_Node000014_Node000008"><a xlink:title=" ">
<path fill="none" stroke="orange" stroke-dasharray="5,2" d="M261.5,-210.33C263.42,-209.1 265.26,-207.78 267,-206.38 278.58,-197.02 273.93,-188.08 285,-178.12 316.9,-149.46 362.33,-129.43 393.72,-117.95"/>
<polygon fill="orange" stroke="orange" points="259.86,-207.24 252.76,-215.11 263.22,-213.38 259.86,-207.24"/>
</a>
</g>
<text text-anchor="middle" x="314.25" y="-182.88" font-family="Helvetica,sans-Serif" font-size="10.00" fill="grey"> &lt; Real &gt;</text>
</g>
<!-- Node8&#45;&gt;Node16 -->
<g id="edge23_Node000016_Node000008" class="edge">
<title>Node8&#45;&gt;Node16</title>
<g id="a_edge23_Node000016_Node000008"><a xlink:title=" ">
<path fill="none" stroke="orange" stroke-dasharray="5,2" d="M231.83,-246.18C246.4,-258.68 266.36,-275.17 285,-288.38 327.45,-318.45 380.34,-349 408.93,-365"/>
<polygon fill="orange" stroke="orange" points="234.51,-243.87 224.66,-239.97 229.92,-249.16 234.51,-243.87"/>
</a>
</g>
<text text-anchor="middle" x="314.25" y="-331.31" font-family="Helvetica,sans-Serif" font-size="10.00" fill="grey"> &lt; Matrix &gt;</text>
</g>
<!-- Node9 -->
<g id="Node000009" class="node">
<title>Node9</title>
<g id="a_Node000009"><a xlink:title=" ">
<polygon fill="white" stroke="#bfbfbf" points="115,-50.75 0,-50.75 0,0 115,0 115,-50.75"/>
<text text-anchor="start" x="8" y="-37.25" font-family="Helvetica,sans-Serif" font-size="10.00">std::enable_shared</text>
<text text-anchor="start" x="8" y="-23" font-family="Helvetica,sans-Serif" font-size="10.00">_from_this&lt; Attribute</text>
<text text-anchor="middle" x="57.5" y="-8.75" font-family="Helvetica,sans-Serif" font-size="10.00">&lt; T &gt; &gt;</text>
</a>
</g>
</g>
<!-- Node9&#45;&gt;Node8 -->
<g id="edge9_Node000008_Node000009" class="edge">
<title>Node9&#45;&gt;Node8</title>
<g id="a_edge9_Node000008_Node000009"><a xlink:title=" ">
<path fill="none" stroke="#63b8ff" d="M68.56,-61.73C81.53,-102.26 107.83,-167.25 152,-206.38 156.23,-210.12 161.19,-213.22 166.38,-215.78"/>
<polygon fill="#63b8ff" stroke="#63b8ff" points="71.98,-60.96 65.69,-52.43 65.29,-63.02 71.98,-60.96"/>
</a>
</g>
</g>
<!-- Node10 -->
<g id="Node000010" class="node">
<title>Node10</title>
<g id="a_Node000010"><a xlink:href="class_shared_factory.html" target="_top" xlink:title=" ">
<polygon fill="white" stroke="#666666" points="1204.25,-80.62 1051.75,-80.62 1051.75,-44.12 1204.25,-44.12 1204.25,-80.62"/>
<text text-anchor="start" x="1059.75" y="-67.12" font-family="Helvetica,sans-Serif" font-size="10.00">SharedFactory&lt; Decoupling</text>
<text text-anchor="middle" x="1128" y="-52.88" font-family="Helvetica,sans-Serif" font-size="10.00">IdealTransformer_EMT_Ph1 &gt;</text>
</a>
</g>
</g>
<!-- Node10&#45;&gt;Node1 -->
<g id="edge10_Node000001_Node000010" class="edge">
<title>Node10&#45;&gt;Node1</title>
<g id="a_edge10_Node000001_Node000010"><a xlink:title=" ">
<path fill="none" stroke="#63b8ff" d="M1208.55,-85.79C1213.68,-88.39 1218.63,-91.24 1223.25,-94.38 1258.35,-118.22 1287.78,-159.08 1303.03,-182.81"/>
<polygon fill="#63b8ff" stroke="#63b8ff" points="1210.43,-82.8 1199.88,-81.76 1207.47,-89.15 1210.43,-82.8"/>
</a>
</g>
</g>
<!-- Node11 -->
<g id="Node000011" class="node">
<title>Node11</title>
<g id="a_Node000011"><a xlink:href="class_shared_factory.html" target="_top" xlink:title=" ">
<polygon fill="white" stroke="#666666" points="851.12,-72.5 746.62,-72.5 746.62,-50.25 851.12,-50.25 851.12,-72.5"/>
<text text-anchor="middle" x="798.88" y="-59" font-family="Helvetica,sans-Serif" font-size="10.00">SharedFactory&lt; T &gt;</text>
</a>
</g>
</g>
<!-- Node11&#45;&gt;Node10 -->
<g id="edge11_Node000010_Node000011" class="edge">
<title>Node11&#45;&gt;Node10</title>
<g id="a_edge11_Node000010_Node000011"><a xlink:title=" ">
<path fill="none" stroke="orange" stroke-dasharray="5,2" d="M862.8,-61.57C916.65,-61.73 994.31,-61.97 1051.51,-62.14"/>
<polygon fill="orange" stroke="orange" points="862.87,-58.07 852.86,-61.54 862.85,-65.07 862.87,-58.07"/>
</a>
</g>
<text text-anchor="start" x="889" y="-81.08" font-family="Helvetica,sans-Serif" font-size="10.00" fill="grey"> &lt; DecouplingIdealTransformer</text>
<text text-anchor="middle" x="961.38" y="-66.83" font-family="Helvetica,sans-Serif" font-size="10.00" fill="grey">_EMT_Ph1 &gt;</text>
</g>
<!-- Node12&#45;&gt;Node1 -->
<g id="edge12_Node000001_Node000012" class="edge">
<title>Node12&#45;&gt;Node1</title>
<g id="a_edge12_Node000001_Node000012"><a xlink:title=" ">
<path fill="none" stroke="#9a32cd" stroke-dasharray="5,2" d="M511.1,-201.38C547.69,-201.38 591.68,-201.38 631.25,-201.38 631.25,-201.38 631.25,-201.38 1129,-201.38 1165.82,-201.38 1206.77,-201.38 1240.78,-201.38"/>
<polygon fill="#9a32cd" stroke="#9a32cd" points="511.51,-197.88 501.51,-201.38 511.51,-204.88 511.51,-197.88"/>
</a>
</g>
<text text-anchor="middle" x="798.88" y="-220.38" font-family="Helvetica,sans-Serif" font-size="10.00" fill="grey"> mSrcCurrent</text>
<text text-anchor="middle" x="798.88" y="-206.12" font-family="Helvetica,sans-Serif" font-size="10.00" fill="grey">mSrcVoltage</text>
</g>
<!-- Node13 -->
<g id="Node000013" class="node">
<title>Node13</title>
<g id="a_Node000013"><a xlink:title=" ">
<polygon fill="white" stroke="#bfbfbf" points="267,-197.75 152,-197.75 152,-147 267,-147 267,-197.75"/>
<text text-anchor="start" x="160" y="-184.25" font-family="Helvetica,sans-Serif" font-size="10.00">std::enable_shared</text>
<text text-anchor="start" x="160" y="-170" font-family="Helvetica,sans-Serif" font-size="10.00">_from_this&lt; Attribute</text>
<text text-anchor="middle" x="209.5" y="-155.75" font-family="Helvetica,sans-Serif" font-size="10.00">&lt; Complex &gt; &gt;</text>
</a>
</g>
</g>
<!-- Node13&#45;&gt;Node12 -->
<g id="edge14_Node000012_Node000013" class="edge">
<title>Node13&#45;&gt;Node12</title>
<g id="a_edge14_Node000012_Node000013"><a xlink:title=" ">
<path fill="none" stroke="#63b8ff" d="M278.45,-144.99C299.49,-139.99 322.62,-138.09 343.5,-144.38 373.03,-153.26 401.76,-175.94 417.43,-189.86"/>
<polygon fill="#63b8ff" stroke="#63b8ff" points="277.56,-141.6 268.8,-147.56 279.36,-148.37 277.56,-141.6"/>
</a>
</g>
</g>
<!-- Node14&#45;&gt;Node1 -->
<g id="edge16_Node000001_Node000014" class="edge">
<title>Node14&#45;&gt;Node1</title>
<g id="a_edge16_Node000001_Node000014"><a xlink:title=" ">
<path fill="none" stroke="#9a32cd" stroke-dasharray="5,2" d="M500.78,-107.41C539.2,-107.9 587.88,-108.38 631.25,-108.38 631.25,-108.38 631.25,-108.38 1129,-108.38 1194.68,-108.38 1260.86,-155.64 1293.45,-182.78"/>
<polygon fill="#9a32cd" stroke="#9a32cd" points="501.27,-103.91 491.23,-107.28 501.18,-110.91 501.27,-103.91"/>
</a>
</g>
<text text-anchor="middle" x="798.88" y="-155.88" font-family="Helvetica,sans-Serif" font-size="10.00" fill="grey"> mSourceVoltageIntfCurrent</text>
<text text-anchor="middle" x="798.88" y="-141.62" font-family="Helvetica,sans-Serif" font-size="10.00" fill="grey">mSourceVoltageIntfVoltage</text>
<text text-anchor="middle" x="798.88" y="-127.38" font-family="Helvetica,sans-Serif" font-size="10.00" fill="grey">mSrcCurrentRef</text>
<text text-anchor="middle" x="798.88" y="-113.12" font-family="Helvetica,sans-Serif" font-size="10.00" fill="grey">mSrcVoltageRef</text>
</g>
<!-- Node15 -->
<g id="Node000015" class="node">
<title>Node15</title>
<g id="a_Node000015"><a xlink:title=" ">
<polygon fill="white" stroke="#bfbfbf" points="267,-128.75 152,-128.75 152,-78 267,-78 267,-128.75"/>
<text text-anchor="start" x="160" y="-115.25" font-family="Helvetica,sans-Serif" font-size="10.00">std::enable_shared</text>
<text text-anchor="start" x="160" y="-101" font-family="Helvetica,sans-Serif" font-size="10.00">_from_this&lt; Attribute</text>
<text text-anchor="middle" x="209.5" y="-86.75" font-family="Helvetica,sans-Serif" font-size="10.00">&lt; Real &gt; &gt;</text>
</a>
</g>
</g>
<!-- Node15&#45;&gt;Node14 -->
<g id="edge18_Node000014_Node000015" class="edge">
<title>Node15&#45;&gt;Node14</title>
<g id="a_edge18_Node000014_Node000015"><a xlink:title=" ">
<path fill="none" stroke="#63b8ff" d="M278.36,-104.3C308.1,-104.71 342.66,-105.18 371.24,-105.58"/>
<polygon fill="#63b8ff" stroke="#63b8ff" points="278.78,-100.81 268.73,-104.17 278.68,-107.81 278.78,-100.81"/>
</a>
</g>
</g>
<!-- Node16&#45;&gt;Node1 -->
<g id="edge20_Node000001_Node000016" class="edge">
<title>Node16&#45;&gt;Node1</title>
<g id="a_edge20_Node000001_Node000016"><a xlink:title=" ">
<path fill="none" stroke="#9a32cd" stroke-dasharray="5,2" d="M506.34,-373.62C543.83,-372.46 589.94,-371.38 631.25,-371.38 631.25,-371.38 631.25,-371.38 1129,-371.38 1217.83,-371.38 1282.49,-263.95 1305.28,-219.89"/>
<polygon fill="#9a32cd" stroke="#9a32cd" points="506.39,-370.11 496.51,-373.93 506.62,-377.11 506.39,-370.11"/>
</a>
</g>
<text text-anchor="middle" x="798.88" y="-376.12" font-family="Helvetica,sans-Serif" font-size="10.00" fill="grey"> mStates</text>
</g>
<!-- Node17 -->
<g id="Node000017" class="node">
<title>Node17</title>
<g id="a_Node000017"><a xlink:title=" ">
<polygon fill="white" stroke="#bfbfbf" points="267,-488.75 152,-488.75 152,-438 267,-438 267,-488.75"/>
<text text-anchor="start" x="160" y="-475.25" font-family="Helvetica,sans-Serif" font-size="10.00">std::enable_shared</text>
<text text-anchor="start" x="160" y="-461" font-family="Helvetica,sans-Serif" font-size="10.00">_from_this&lt; Attribute</text>
<text text-anchor="middle" x="209.5" y="-446.75" font-family="Helvetica,sans-Serif" font-size="10.00">&lt; Matrix &gt; &gt;</text>
</a>
</g>
</g>
<!-- Node17&#45;&gt;Node16 -->
<g id="edge22_Node000016_Node000017" class="edge">
<title>Node17&#45;&gt;Node16</title>
<g id="a_edge22_Node000016_Node000017"><a xlink:title=" ">
<path fill="none" stroke="#63b8ff" d="M278.33,-446.64C299.54,-440.58 322.81,-433.05 343.5,-424.38 368.13,-414.05 394.72,-398.49 411.74,-387.9"/>
<polygon fill="#63b8ff" stroke="#63b8ff" points="277.59,-443.22 268.9,-449.28 279.47,-449.96 277.59,-443.22"/>
</a>
</g>
</g>
</g>
</svg>

<g id="navigator" transform="translate(0 0)" fill="#404254">
  <rect fill="#f2f5e9" fill-opacity="0.5" stroke="#606060" stroke-width=".5" x="0" y="0" width="60" height="60"/>
  <use id="zoomplus" xlink:href="#zoomPlus" x="17" y="9" onmousedown="handleZoom(evt,'in')"/>
  <use id="zoomminus" xlink:href="#zoomMin" x="42" y="9" onmousedown="handleZoom(evt,'out')"/>
  <use id="reset" xlink:href="#resetDef" x="30" y="36" onmousedown="handleReset()"/>
   <use id="arrowup" xlink:href="#arrowUp" x="0" y="0" onmousedown="handlePan(0,-1)"/>
  <use id="arrowright" xlink:href="#arrowRight" x="0" y="0" onmousedown="handlePan(1,0)"/>
  <use id="arrowdown" xlink:href="#arrowDown" x="0" y="0" onmousedown="handlePan(0,1)"/>
  <use id="arrowleft" xlink:href="#arrowLeft" x="0" y="0" onmousedown="handlePan(-1,0)"/>
</g>
<svg viewBox="0 0 15 15" width="100%" height="30px" preserveAspectRatio="xMaxYMin meet">
 <g id="arrow_out" transform="scale(0.3 0.3)">
  <a xlink:href="class_c_p_s_1_1_signal_1_1_decoupling_ideal_transformer___e_m_t___ph1__coll__graph_org.svg" target="_base">
   <rect id="button" ry="5" rx="5" y="6" x="6" height="38" width="38"
        fill="#f2f5e9" fill-opacity="0.5" stroke="#606060" stroke-width="1.0"/>
   <path id="arrow"
     d="M 11.500037,31.436501 C 11.940474,20.09759 22.043105,11.32322 32.158766,21.979434 L 37.068811,17.246167 C 37.068811,17.246167 37.088388,32 37.088388,32 L 22.160133,31.978069 C 22.160133,31.978069 26.997745,27.140456 26.997745,27.140456 C 18.528582,18.264221 13.291696,25.230495 11.500037,31.436501 z"
     style="fill:#404040;"/>
  </a>
 </g>
</svg>

<style type='text/css'>
<![CDATA[
[data-mouse-over-selected='false'] { opacity: 0.7; }
[data-mouse-over-selected='true']  { opacity: 1.0; }
]]>
</style>
<script type="application/ecmascript"><![CDATA[
document.addEventListener('DOMContentLoaded', (event) => {
  highlightEdges();
  highlightAdjacentNodes();
});
]]></script>
</svg>
