<?xml version="1.0" encoding="UTF-8" standalone="no"?>
<!DOCTYPE svg PUBLIC "-//W3C//DTD SVG 1.1//EN"
 "http://www.w3.org/Graphics/SVG/1.1/DTD/svg11.dtd">
<!-- Generated by graphviz version 2.50.0 (0)
 -->
<!-- Title: CPS::MNASyncGenInterface Pages: 1 -->
<svg width="694pt" height="125pt"
 viewBox="0.00 0.00 694.00 125.00" xmlns="http://www.w3.org/2000/svg" xmlns:xlink="http://www.w3.org/1999/xlink">
<g id="graph0" class="graph" transform="scale(1 1) rotate(0) translate(4 121)">
<title>CPS::MNASyncGenInterface</title>
<!-- Node1 -->
<g id="node1" class="node">
<title>Node1</title>
<g id="a_node1"><a xlink:title="Interface to be used by synchronous generators.">
<polygon fill="#bfbfbf" stroke="black" points="539,-60.5 539,-79.5 686,-79.5 686,-60.5 539,-60.5"/>
<text text-anchor="middle" x="612.5" y="-67.5" font-family="Helvetica,sans-Serif" font-size="10.00">CPS::MNASyncGenInterface</text>
</a>
</g>
</g>
<!-- Node2 -->
<g id="node2" class="node">
<title>Node2</title>
<g id="a_node2"><a xlink:href="class_c_p_s_1_1_attribute.html" target="_top" xlink:title=" ">
<polygon fill="none" stroke="black" points="338,-60.5 338,-79.5 451,-79.5 451,-60.5 338,-60.5"/>
<text text-anchor="middle" x="394.5" y="-67.5" font-family="Helvetica,sans-Serif" font-size="10.00">CPS::Attribute&lt; Int &gt;</text>
</a>
</g>
</g>
<!-- Node2&#45;&gt;Node1 -->
<g id="edge1" class="edge">
<title>Node2&#45;&gt;Node1</title>
<path fill="none" stroke="#9a32cd" stroke-dasharray="5,2" d="M461.4,-70C485.92,-70 513.86,-70 538.94,-70"/>
<polygon fill="#9a32cd" stroke="#9a32cd" points="461.13,-66.5 451.13,-70 461.13,-73.5 461.13,-66.5"/>
<text text-anchor="middle" x="495" y="-73" font-family="Helvetica,sans-Serif" font-size="10.00"> mNumIter</text>
</g>
<!-- Node3 -->
<g id="node3" class="node">
<title>Node3</title>
<g id="a_node3"><a xlink:href="class_c_p_s_1_1_attribute_base.html" target="_top" xlink:title=" ">
<polygon fill="none" stroke="black" points="5.5,-97.5 5.5,-116.5 110.5,-116.5 110.5,-97.5 5.5,-97.5"/>
<text text-anchor="middle" x="58" y="-104.5" font-family="Helvetica,sans-Serif" font-size="10.00">CPS::AttributeBase</text>
</a>
</g>
</g>
<!-- Node3&#45;&gt;Node2 -->
<g id="edge2" class="edge">
<title>Node3&#45;&gt;Node2</title>
<path fill="none" stroke="midnightblue" d="M120.96,-103.83C173.99,-100.62 252.27,-94.73 320,-85 330.06,-83.56 340.81,-81.6 350.9,-79.58"/>
<polygon fill="midnightblue" stroke="midnightblue" points="120.48,-100.35 110.71,-104.43 120.89,-107.34 120.48,-100.35"/>
</g>
<!-- Node5 -->
<g id="node5" class="node">
<title>Node5</title>
<g id="a_node5"><a xlink:href="class_c_p_s_1_1_attribute.html" target="_top" xlink:title=" ">
<polygon fill="none" stroke="black" points="159,-60.5 159,-79.5 263,-79.5 263,-60.5 159,-60.5"/>
<text text-anchor="middle" x="211" y="-67.5" font-family="Helvetica,sans-Serif" font-size="10.00">CPS::Attribute&lt; T &gt;</text>
</a>
</g>
</g>
<!-- Node3&#45;&gt;Node5 -->
<g id="edge5" class="edge">
<title>Node3&#45;&gt;Node5</title>
<path fill="none" stroke="midnightblue" d="M107.67,-95.07C128.15,-90.06 151.67,-84.29 170.98,-79.56"/>
<polygon fill="midnightblue" stroke="midnightblue" points="106.77,-91.69 97.89,-97.47 108.43,-98.49 106.77,-91.69"/>
</g>
<!-- Node4 -->
<g id="node4" class="node">
<title>Node4</title>
<g id="a_node4"><a xlink:title=" ">
<polygon fill="none" stroke="#bfbfbf" points="153,-0.5 153,-41.5 269,-41.5 269,-0.5 153,-0.5"/>
<text text-anchor="start" x="161" y="-29.5" font-family="Helvetica,sans-Serif" font-size="10.00">std::enable_shared</text>
<text text-anchor="start" x="161" y="-18.5" font-family="Helvetica,sans-Serif" font-size="10.00">_from_this&lt; Attribute</text>
<text text-anchor="middle" x="211" y="-7.5" font-family="Helvetica,sans-Serif" font-size="10.00">&lt; Int &gt; &gt;</text>
</a>
</g>
</g>
<!-- Node4&#45;&gt;Node2 -->
<g id="edge3" class="edge">
<title>Node4&#45;&gt;Node2</title>
<path fill="none" stroke="midnightblue" d="M279.14,-39.13C305.92,-46.36 335.64,-54.38 358.07,-60.44"/>
<polygon fill="midnightblue" stroke="midnightblue" points="279.99,-35.73 269.43,-36.5 278.17,-42.49 279.99,-35.73"/>
</g>
<!-- Node5&#45;&gt;Node2 -->
<g id="edge4" class="edge">
<title>Node5&#45;&gt;Node2</title>
<path fill="none" stroke="orange" stroke-dasharray="5,2" d="M273.1,-70C294.01,-70 317.29,-70 337.75,-70"/>
<polygon fill="orange" stroke="orange" points="273.04,-66.5 263.04,-70 273.04,-73.5 273.04,-66.5"/>
<text text-anchor="middle" x="303.5" y="-73" font-family="Helvetica,sans-Serif" font-size="10.00"> &lt; Int &gt;</text>
</g>
<!-- Node6 -->
<g id="node6" class="node">
<title>Node6</title>
<g id="a_node6"><a xlink:title=" ">
<polygon fill="none" stroke="#bfbfbf" points="0,-37.5 0,-78.5 116,-78.5 116,-37.5 0,-37.5"/>
<text text-anchor="start" x="8" y="-66.5" font-family="Helvetica,sans-Serif" font-size="10.00">std::enable_shared</text>
<text text-anchor="start" x="8" y="-55.5" font-family="Helvetica,sans-Serif" font-size="10.00">_from_this&lt; Attribute</text>
<text text-anchor="middle" x="58" y="-44.5" font-family="Helvetica,sans-Serif" font-size="10.00">&lt; T &gt; &gt;</text>
</a>
</g>
</g>
<!-- Node6&#45;&gt;Node5 -->
<g id="edge6" class="edge">
<title>Node6&#45;&gt;Node5</title>
<path fill="none" stroke="midnightblue" d="M126.07,-63.33C137.05,-64.2 148.27,-65.09 158.79,-65.93"/>
<polygon fill="midnightblue" stroke="midnightblue" points="126.33,-59.84 116.09,-62.54 125.78,-66.82 126.33,-59.84"/>
</g>
</g>
</svg>
