<?xml version="1.0" encoding="UTF-8" standalone="no"?>
<!DOCTYPE svg PUBLIC "-//W3C//DTD SVG 1.1//EN"
 "http://www.w3.org/Graphics/SVG/1.1/DTD/svg11.dtd">
<!-- Generated by graphviz version 2.50.0 (0)
 -->
<!-- Title: CPS::DP::Ph3::SeriesSwitch Pages: 1 -->
<svg width="1997pt" height="545pt"
 viewBox="0.00 0.00 1997.00 545.00" xmlns="http://www.w3.org/2000/svg" xmlns:xlink="http://www.w3.org/1999/xlink">
<g id="graph0" class="graph" transform="scale(1 1) rotate(0) translate(4 541)">
<title>CPS::DP::Ph3::SeriesSwitch</title>
<!-- Node1 -->
<g id="node1" class="node">
<title>Node1</title>
<g id="a_node1"><a xlink:title="Dynamic phasor three&#45;phase switch.">
<polygon fill="#bfbfbf" stroke="black" points="1848,-149.5 1848,-168.5 1989,-168.5 1989,-149.5 1848,-149.5"/>
<text text-anchor="middle" x="1918.5" y="-156.5" font-family="Helvetica,sans-Serif" font-size="10.00">CPS::DP::Ph3::SeriesSwitch</text>
</a>
</g>
</g>
<!-- Node2 -->
<g id="node2" class="node">
<title>Node2</title>
<g id="a_node2"><a xlink:href="class_c_p_s_1_1_m_n_a_sim_power_comp.html" target="_top" xlink:title=" ">
<polygon fill="none" stroke="black" points="1663.5,-247 1663.5,-277 1800.5,-277 1800.5,-247 1663.5,-247"/>
<text text-anchor="start" x="1671.5" y="-265" font-family="Helvetica,sans-Serif" font-size="10.00">CPS::MNASimPowerComp</text>
<text text-anchor="middle" x="1732" y="-254" font-family="Helvetica,sans-Serif" font-size="10.00">&lt; Complex &gt;</text>
</a>
</g>
</g>
<!-- Node2&#45;&gt;Node1 -->
<g id="edge1" class="edge">
<title>Node2&#45;&gt;Node1</title>
<path fill="none" stroke="midnightblue" d="M1769.27,-241.75C1808.79,-219.69 1870.33,-185.33 1900.14,-168.69"/>
<polygon fill="midnightblue" stroke="midnightblue" points="1767.25,-238.87 1760.22,-246.8 1770.66,-244.98 1767.25,-238.87"/>
</g>
<!-- Node3 -->
<g id="node3" class="node">
<title>Node3</title>
<g id="a_node3"><a xlink:href="class_c_p_s_1_1_sim_power_comp.html" target="_top" xlink:title=" ">
<polygon fill="none" stroke="black" points="1412,-350 1412,-380 1531,-380 1531,-350 1412,-350"/>
<text text-anchor="start" x="1420" y="-368" font-family="Helvetica,sans-Serif" font-size="10.00">CPS::SimPowerComp&lt;</text>
<text text-anchor="middle" x="1471.5" y="-357" font-family="Helvetica,sans-Serif" font-size="10.00"> Complex &gt;</text>
</a>
</g>
</g>
<!-- Node3&#45;&gt;Node2 -->
<g id="edge2" class="edge">
<title>Node3&#45;&gt;Node2</title>
<path fill="none" stroke="midnightblue" d="M1541.11,-354.11C1570.76,-348 1605.38,-338.94 1635,-326 1664.19,-313.25 1694.15,-291.65 1712.67,-277.11"/>
<polygon fill="midnightblue" stroke="midnightblue" points="1540.39,-350.69 1531.26,-356.07 1541.75,-357.55 1540.39,-350.69"/>
</g>
<!-- Node4 -->
<g id="node4" class="node">
<title>Node4</title>
<g id="a_node4"><a xlink:href="class_c_p_s_1_1_topological_power_comp.html" target="_top" xlink:title=" ">
<polygon fill="none" stroke="black" points="938,-405.5 938,-424.5 1086,-424.5 1086,-405.5 938,-405.5"/>
<text text-anchor="middle" x="1012" y="-412.5" font-family="Helvetica,sans-Serif" font-size="10.00">CPS::TopologicalPowerComp</text>
</a>
</g>
</g>
<!-- Node4&#45;&gt;Node3 -->
<g id="edge3" class="edge">
<title>Node4&#45;&gt;Node3</title>
<path fill="none" stroke="midnightblue" d="M1096.42,-409.91C1172.03,-404.64 1286.39,-395.04 1385,-380 1393.64,-378.68 1402.76,-377.19 1411.68,-375.67"/>
<polygon fill="midnightblue" stroke="midnightblue" points="1095.75,-406.45 1086.01,-410.63 1096.23,-413.43 1095.75,-406.45"/>
</g>
<!-- Node11 -->
<g id="node11" class="node">
<title>Node11</title>
<g id="a_node11"><a xlink:href="class_c_p_s_1_1_sim_power_comp.html" target="_top" xlink:title="Base class for all components that are transmitting power.">
<polygon fill="none" stroke="black" points="1189,-350 1189,-380 1308,-380 1308,-350 1189,-350"/>
<text text-anchor="start" x="1197" y="-368" font-family="Helvetica,sans-Serif" font-size="10.00">CPS::SimPowerComp&lt;</text>
<text text-anchor="middle" x="1248.5" y="-357" font-family="Helvetica,sans-Serif" font-size="10.00"> VarType &gt;</text>
</a>
</g>
</g>
<!-- Node4&#45;&gt;Node11 -->
<g id="edge12" class="edge">
<title>Node4&#45;&gt;Node11</title>
<path fill="none" stroke="midnightblue" d="M1067.59,-403.36C1103.93,-395.61 1151.65,-385.44 1188.81,-377.51"/>
<polygon fill="midnightblue" stroke="midnightblue" points="1066.71,-399.97 1057.66,-405.48 1068.17,-406.82 1066.71,-399.97"/>
</g>
<!-- Node5 -->
<g id="node5" class="node">
<title>Node5</title>
<g id="a_node5"><a xlink:href="class_c_p_s_1_1_identified_object.html" target="_top" xlink:title=" ">
<polygon fill="none" stroke="black" points="718,-410.5 718,-429.5 834,-429.5 834,-410.5 718,-410.5"/>
<text text-anchor="middle" x="776" y="-417.5" font-family="Helvetica,sans-Serif" font-size="10.00">CPS::IdentifiedObject</text>
</a>
</g>
</g>
<!-- Node5&#45;&gt;Node4 -->
<g id="edge4" class="edge">
<title>Node5&#45;&gt;Node4</title>
<path fill="none" stroke="midnightblue" d="M844.38,-418.56C873.67,-417.93 908.06,-417.2 937.96,-416.56"/>
<polygon fill="midnightblue" stroke="midnightblue" points="844.17,-415.06 834.24,-418.78 844.32,-422.06 844.17,-415.06"/>
</g>
<!-- Node6 -->
<g id="node6" class="node">
<title>Node6</title>
<g id="a_node6"><a xlink:href="class_c_p_s_1_1_attribute.html" target="_top" xlink:title=" ">
<polygon fill="none" stroke="black" points="456,-415.5 456,-434.5 583,-434.5 583,-415.5 456,-415.5"/>
<text text-anchor="middle" x="519.5" y="-422.5" font-family="Helvetica,sans-Serif" font-size="10.00">CPS::Attribute&lt; String &gt;</text>
</a>
</g>
</g>
<!-- Node6&#45;&gt;Node5 -->
<g id="edge5" class="edge">
<title>Node6&#45;&gt;Node5</title>
<path fill="none" stroke="#9a32cd" stroke-dasharray="5,2" d="M593.21,-423.57C632.78,-422.79 681.03,-421.85 717.88,-421.12"/>
<polygon fill="#9a32cd" stroke="#9a32cd" points="593.01,-420.07 583.08,-423.77 593.15,-427.07 593.01,-420.07"/>
<text text-anchor="middle" x="651.5" y="-437" font-family="Helvetica,sans-Serif" font-size="10.00"> mName</text>
<text text-anchor="middle" x="651.5" y="-426" font-family="Helvetica,sans-Serif" font-size="10.00">mUID</text>
</g>
<!-- Node7 -->
<g id="node7" class="node">
<title>Node7</title>
<g id="a_node7"><a xlink:href="class_c_p_s_1_1_attribute_base.html" target="_top" xlink:title=" ">
<polygon fill="none" stroke="black" points="5.5,-238.5 5.5,-257.5 110.5,-257.5 110.5,-238.5 5.5,-238.5"/>
<text text-anchor="middle" x="58" y="-245.5" font-family="Helvetica,sans-Serif" font-size="10.00">CPS::AttributeBase</text>
</a>
</g>
</g>
<!-- Node7&#45;&gt;Node6 -->
<g id="edge6" class="edge">
<title>Node7&#45;&gt;Node6</title>
<path fill="none" stroke="midnightblue" d="M61.43,-267.97C67.74,-310.05 88.92,-407.31 153,-448 264.64,-518.89 436.15,-459.4 496.54,-434.6"/>
<polygon fill="midnightblue" stroke="midnightblue" points="64.87,-267.3 60.04,-257.87 57.93,-268.25 64.87,-267.3"/>
</g>
<!-- Node9 -->
<g id="node9" class="node">
<title>Node9</title>
<g id="a_node9"><a xlink:href="class_c_p_s_1_1_attribute.html" target="_top" xlink:title=" ">
<polygon fill="none" stroke="black" points="172,-213.5 172,-232.5 276,-232.5 276,-213.5 172,-213.5"/>
<text text-anchor="middle" x="224" y="-220.5" font-family="Helvetica,sans-Serif" font-size="10.00">CPS::Attribute&lt; T &gt;</text>
</a>
</g>
</g>
<!-- Node7&#45;&gt;Node9 -->
<g id="edge9" class="edge">
<title>Node7&#45;&gt;Node9</title>
<path fill="none" stroke="midnightblue" d="M121.11,-238.53C137.81,-235.99 155.69,-233.26 171.73,-230.82"/>
<polygon fill="midnightblue" stroke="midnightblue" points="120.25,-235.12 110.89,-240.09 121.3,-242.04 120.25,-235.12"/>
</g>
<!-- Node12 -->
<g id="node12" class="node">
<title>Node12</title>
<g id="a_node12"><a xlink:href="class_c_p_s_1_1_attribute.html" target="_top" xlink:title=" ">
<polygon fill="none" stroke="black" points="451,-360 451,-390 588,-390 588,-360 451,-360"/>
<text text-anchor="start" x="459" y="-378" font-family="Helvetica,sans-Serif" font-size="10.00">CPS::Attribute&lt; MatrixVar</text>
<text text-anchor="middle" x="519.5" y="-367" font-family="Helvetica,sans-Serif" font-size="10.00">&lt; VarType &gt; &gt;</text>
</a>
</g>
</g>
<!-- Node7&#45;&gt;Node12 -->
<g id="edge14" class="edge">
<title>Node7&#45;&gt;Node12</title>
<path fill="none" stroke="midnightblue" d="M69.76,-266.28C84.94,-290.18 115.09,-331.22 153,-350 248.04,-397.07 374.34,-393.43 450.86,-385.17"/>
<polygon fill="midnightblue" stroke="midnightblue" points="72.74,-264.44 64.52,-257.76 66.77,-268.11 72.74,-264.44"/>
</g>
<!-- Node15 -->
<g id="node15" class="node">
<title>Node15</title>
<g id="a_node15"><a xlink:href="class_c_p_s_1_1_attribute.html" target="_top" xlink:title=" ">
<polygon fill="none" stroke="black" points="455,-252.5 455,-271.5 584,-271.5 584,-252.5 455,-252.5"/>
<text text-anchor="middle" x="519.5" y="-259.5" font-family="Helvetica,sans-Serif" font-size="10.00">CPS::Attribute&lt; Matrix &gt;</text>
</a>
</g>
</g>
<!-- Node7&#45;&gt;Node15 -->
<g id="edge19" class="edge">
<title>Node7&#45;&gt;Node15</title>
<path fill="none" stroke="midnightblue" d="M120.84,-249.88C208.08,-252.54 366.5,-257.37 454.76,-260.06"/>
<polygon fill="midnightblue" stroke="midnightblue" points="120.92,-246.39 110.82,-249.58 120.71,-253.38 120.92,-246.39"/>
</g>
<!-- Node19 -->
<g id="node19" class="node">
<title>Node19</title>
<g id="a_node19"><a xlink:href="class_c_p_s_1_1_attribute.html" target="_top" xlink:title=" ">
<polygon fill="none" stroke="black" points="460,-158.5 460,-177.5 579,-177.5 579,-158.5 460,-158.5"/>
<text text-anchor="middle" x="519.5" y="-165.5" font-family="Helvetica,sans-Serif" font-size="10.00">CPS::Attribute&lt; Real &gt;</text>
</a>
</g>
</g>
<!-- Node7&#45;&gt;Node19 -->
<g id="edge28" class="edge">
<title>Node7&#45;&gt;Node19</title>
<path fill="none" stroke="midnightblue" d="M84.31,-233.59C102.77,-223.73 128.72,-211.17 153,-204 258.03,-172.98 386.64,-167.38 459.92,-167.05"/>
<polygon fill="midnightblue" stroke="midnightblue" points="82.48,-230.6 75.38,-238.47 85.83,-236.75 82.48,-230.6"/>
</g>
<!-- Node21 -->
<g id="node21" class="node">
<title>Node21</title>
<g id="a_node21"><a xlink:href="class_c_p_s_1_1_attribute.html" target="_top" xlink:title=" ">
<polygon fill="none" stroke="black" points="459.5,-76.5 459.5,-95.5 579.5,-95.5 579.5,-76.5 459.5,-76.5"/>
<text text-anchor="middle" x="519.5" y="-83.5" font-family="Helvetica,sans-Serif" font-size="10.00">CPS::Attribute&lt; Bool &gt;</text>
</a>
</g>
</g>
<!-- Node7&#45;&gt;Node21 -->
<g id="edge32" class="edge">
<title>Node7&#45;&gt;Node21</title>
<path fill="none" stroke="midnightblue" d="M74.12,-230.59C86.4,-215.9 103.65,-193.97 116,-173 136.71,-137.85 118.92,-111.43 153,-89 201.7,-56.95 368.79,-69.36 459.23,-78.92"/>
<polygon fill="midnightblue" stroke="midnightblue" points="71.34,-228.45 67.53,-238.34 76.68,-232.98 71.34,-228.45"/>
</g>
<!-- Node8 -->
<g id="node8" class="node">
<title>Node8</title>
<g id="a_node8"><a xlink:title=" ">
<polygon fill="none" stroke="#bfbfbf" points="166,-495.5 166,-536.5 282,-536.5 282,-495.5 166,-495.5"/>
<text text-anchor="start" x="174" y="-524.5" font-family="Helvetica,sans-Serif" font-size="10.00">std::enable_shared</text>
<text text-anchor="start" x="174" y="-513.5" font-family="Helvetica,sans-Serif" font-size="10.00">_from_this&lt; Attribute</text>
<text text-anchor="middle" x="224" y="-502.5" font-family="Helvetica,sans-Serif" font-size="10.00">&lt; String &gt; &gt;</text>
</a>
</g>
</g>
<!-- Node8&#45;&gt;Node6 -->
<g id="edge7" class="edge">
<title>Node8&#45;&gt;Node6</title>
<path fill="none" stroke="midnightblue" d="M292.35,-511.74C334.01,-507.4 387.96,-498.64 433,-481 462.08,-469.61 491.59,-447.41 507.19,-434.65"/>
<polygon fill="midnightblue" stroke="midnightblue" points="291.91,-508.26 282.3,-512.72 292.6,-515.23 291.91,-508.26"/>
</g>
<!-- Node9&#45;&gt;Node6 -->
<g id="edge8" class="edge">
<title>Node9&#45;&gt;Node6</title>
<path fill="none" stroke="orange" stroke-dasharray="5,2" d="M245.68,-239C260.86,-251.58 281.17,-270.23 295,-290 306.41,-306.31 299.28,-316.58 313,-331 357.48,-377.76 429.65,-403.24 475.56,-415.48"/>
<polygon fill="orange" stroke="orange" points="247.82,-236.23 237.84,-232.67 243.42,-241.68 247.82,-236.23"/>
<text text-anchor="middle" x="373" y="-404" font-family="Helvetica,sans-Serif" font-size="10.00"> &lt; String &gt;</text>
</g>
<!-- Node9&#45;&gt;Node12 -->
<g id="edge16" class="edge">
<title>Node9&#45;&gt;Node12</title>
<path fill="none" stroke="orange" stroke-dasharray="5,2" d="M257.63,-236.58C299.16,-254.24 372.76,-286.78 433,-320 455.41,-332.36 479.86,-348.36 496.86,-359.92"/>
<polygon fill="orange" stroke="orange" points="258.85,-233.3 248.28,-232.63 256.13,-239.75 258.85,-233.3"/>
<text text-anchor="middle" x="373" y="-323" font-family="Helvetica,sans-Serif" font-size="10.00"> &lt; MatrixVar&lt; VarType &gt; &gt;</text>
</g>
<!-- Node9&#45;&gt;Node15 -->
<g id="edge21" class="edge">
<title>Node9&#45;&gt;Node15</title>
<path fill="none" stroke="orange" stroke-dasharray="5,2" d="M286.26,-223.1C327.93,-224.07 384.15,-227.17 433,-236 453.46,-239.7 475.93,-246.65 492.69,-252.43"/>
<polygon fill="orange" stroke="orange" points="286.33,-219.6 276.26,-222.9 286.19,-226.6 286.33,-219.6"/>
<text text-anchor="middle" x="373" y="-239" font-family="Helvetica,sans-Serif" font-size="10.00"> &lt; Matrix &gt;</text>
</g>
<!-- Node9&#45;&gt;Node19 -->
<g id="edge30" class="edge">
<title>Node9&#45;&gt;Node19</title>
<path fill="none" stroke="orange" stroke-dasharray="5,2" d="M285.86,-211.6C339.51,-201.54 416.82,-187.05 467.35,-177.59"/>
<polygon fill="orange" stroke="orange" points="284.97,-208.2 275.79,-213.48 286.26,-215.08 284.97,-208.2"/>
<text text-anchor="middle" x="373" y="-208" font-family="Helvetica,sans-Serif" font-size="10.00"> &lt; Real &gt;</text>
</g>
<!-- Node9&#45;&gt;Node21 -->
<g id="edge34" class="edge">
<title>Node9&#45;&gt;Node21</title>
<path fill="none" stroke="orange" stroke-dasharray="5,2" d="M247.28,-207.89C264.73,-196.42 289.83,-180.69 313,-169 374.5,-137.98 450.46,-109.76 490.6,-95.59"/>
<polygon fill="orange" stroke="orange" points="245.3,-205.01 238.91,-213.46 249.18,-210.84 245.3,-205.01"/>
<text text-anchor="middle" x="373" y="-172" font-family="Helvetica,sans-Serif" font-size="10.00"> &lt; Bool &gt;</text>
</g>
<!-- Node10 -->
<g id="node10" class="node">
<title>Node10</title>
<g id="a_node10"><a xlink:title=" ">
<polygon fill="none" stroke="#bfbfbf" points="0,-122.5 0,-163.5 116,-163.5 116,-122.5 0,-122.5"/>
<text text-anchor="start" x="8" y="-151.5" font-family="Helvetica,sans-Serif" font-size="10.00">std::enable_shared</text>
<text text-anchor="start" x="8" y="-140.5" font-family="Helvetica,sans-Serif" font-size="10.00">_from_this&lt; Attribute</text>
<text text-anchor="middle" x="58" y="-129.5" font-family="Helvetica,sans-Serif" font-size="10.00">&lt; T &gt; &gt;</text>
</a>
</g>
</g>
<!-- Node10&#45;&gt;Node9 -->
<g id="edge10" class="edge">
<title>Node10&#45;&gt;Node9</title>
<path fill="none" stroke="midnightblue" d="M110.33,-168.04C141.84,-183.41 180.39,-202.22 203.26,-213.37"/>
<polygon fill="midnightblue" stroke="midnightblue" points="111.76,-164.84 101.23,-163.6 108.69,-171.13 111.76,-164.84"/>
</g>
<!-- Node11&#45;&gt;Node3 -->
<g id="edge11" class="edge">
<title>Node11&#45;&gt;Node3</title>
<path fill="none" stroke="orange" stroke-dasharray="5,2" d="M1318.53,-365C1348.52,-365 1383.27,-365 1411.97,-365"/>
<polygon fill="orange" stroke="orange" points="1318.14,-361.5 1308.14,-365 1318.14,-368.5 1318.14,-361.5"/>
<text text-anchor="middle" x="1355.5" y="-368" font-family="Helvetica,sans-Serif" font-size="10.00"> &lt; Complex &gt;</text>
</g>
<!-- Node17 -->
<g id="node17" class="node">
<title>Node17</title>
<g id="a_node17"><a xlink:href="class_c_p_s_1_1_m_n_a_sim_power_comp.html" target="_top" xlink:title="Base class for all MNA components that are transmitting power.">
<polygon fill="none" stroke="black" points="1403,-247 1403,-277 1540,-277 1540,-247 1403,-247"/>
<text text-anchor="start" x="1411" y="-265" font-family="Helvetica,sans-Serif" font-size="10.00">CPS::MNASimPowerComp</text>
<text text-anchor="middle" x="1471.5" y="-254" font-family="Helvetica,sans-Serif" font-size="10.00">&lt; VarType &gt;</text>
</a>
</g>
</g>
<!-- Node11&#45;&gt;Node17 -->
<g id="edge23" class="edge">
<title>Node11&#45;&gt;Node17</title>
<path fill="none" stroke="midnightblue" d="M1291.38,-345.48C1334.03,-325.6 1399.26,-295.2 1438.12,-277.09"/>
<polygon fill="midnightblue" stroke="midnightblue" points="1289.69,-342.41 1282.11,-349.8 1292.65,-348.75 1289.69,-342.41"/>
</g>
<!-- Node12&#45;&gt;Node11 -->
<g id="edge13" class="edge">
<title>Node12&#45;&gt;Node11</title>
<path fill="none" stroke="#9a32cd" stroke-dasharray="5,2" d="M598.5,-373.93C745.1,-371.91 1058.67,-367.6 1188.91,-365.81"/>
<polygon fill="#9a32cd" stroke="#9a32cd" points="598.19,-370.43 588.24,-374.07 598.29,-377.43 598.19,-370.43"/>
<text text-anchor="middle" x="887.5" y="-384" font-family="Helvetica,sans-Serif" font-size="10.00"> mIntfCurrent</text>
<text text-anchor="middle" x="887.5" y="-373" font-family="Helvetica,sans-Serif" font-size="10.00">mIntfVoltage</text>
</g>
<!-- Node13 -->
<g id="node13" class="node">
<title>Node13</title>
<g id="a_node13"><a xlink:title=" ">
<polygon fill="none" stroke="#bfbfbf" points="153,-397.5 153,-438.5 295,-438.5 295,-397.5 153,-397.5"/>
<text text-anchor="start" x="161" y="-426.5" font-family="Helvetica,sans-Serif" font-size="10.00">std::enable_shared</text>
<text text-anchor="start" x="161" y="-415.5" font-family="Helvetica,sans-Serif" font-size="10.00">_from_this&lt; Attribute</text>
<text text-anchor="middle" x="224" y="-404.5" font-family="Helvetica,sans-Serif" font-size="10.00">&lt; MatrixVar&lt; VarType &gt; &gt; &gt;</text>
</a>
</g>
</g>
<!-- Node13&#45;&gt;Node12 -->
<g id="edge15" class="edge">
<title>Node13&#45;&gt;Node12</title>
<path fill="none" stroke="midnightblue" d="M305.2,-410.03C343.93,-405.75 391,-399.93 433,-393 438.84,-392.04 444.88,-390.95 450.93,-389.8"/>
<polygon fill="midnightblue" stroke="midnightblue" points="304.59,-406.57 295.03,-411.13 305.35,-413.53 304.59,-406.57"/>
</g>
<!-- Node14 -->
<g id="node14" class="node">
<title>Node14</title>
<g id="a_node14"><a xlink:href="class_c_p_s_1_1_m_n_a_interface.html" target="_top" xlink:title="Interface to be implemented by all models used by the MNA solver.">
<polygon fill="none" stroke="black" points="1195,-208.5 1195,-227.5 1302,-227.5 1302,-208.5 1195,-208.5"/>
<text text-anchor="middle" x="1248.5" y="-215.5" font-family="Helvetica,sans-Serif" font-size="10.00">CPS::MNAInterface</text>
</a>
</g>
</g>
<!-- Node14&#45;&gt;Node2 -->
<g id="edge17" class="edge">
<title>Node14&#45;&gt;Node2</title>
<path fill="none" stroke="midnightblue" d="M1312.31,-221.3C1371.21,-224.64 1461.68,-230.39 1540,-238 1581.08,-241.99 1626.98,-247.72 1663.48,-252.58"/>
<polygon fill="midnightblue" stroke="midnightblue" points="1312.23,-217.79 1302.05,-220.73 1311.84,-224.78 1312.23,-217.79"/>
</g>
<!-- Node14&#45;&gt;Node17 -->
<g id="edge24" class="edge">
<title>Node14&#45;&gt;Node17</title>
<path fill="none" stroke="midnightblue" d="M1307.52,-229.55C1336.78,-235.38 1372.44,-242.48 1402.94,-248.55"/>
<polygon fill="midnightblue" stroke="midnightblue" points="1307.94,-226.07 1297.45,-227.55 1306.58,-232.93 1307.94,-226.07"/>
</g>
<!-- Node15&#45;&gt;Node2 -->
<g id="edge18" class="edge">
<title>Node15&#45;&gt;Node2</title>
<path fill="none" stroke="#9a32cd" stroke-dasharray="5,2" d="M559.18,-274.46C608.66,-289.27 697.28,-312 775,-312 775,-312 775,-312 1472.5,-312 1547.01,-312 1631.43,-291.73 1682.94,-277"/>
<polygon fill="#9a32cd" stroke="#9a32cd" points="560.11,-271.09 549.53,-271.52 558.07,-277.78 560.11,-271.09"/>
<text text-anchor="middle" x="1137.5" y="-315" font-family="Helvetica,sans-Serif" font-size="10.00"> mRightVector</text>
</g>
<!-- Node15&#45;&gt;Node17 -->
<g id="edge25" class="edge">
<title>Node15&#45;&gt;Node17</title>
<path fill="none" stroke="#9a32cd" stroke-dasharray="5,2" d="M594.27,-262C645.08,-262 714.13,-262 775,-262 775,-262 775,-262 1249.5,-262 1300.91,-262 1359.05,-262 1402.79,-262"/>
<polygon fill="#9a32cd" stroke="#9a32cd" points="594.04,-258.5 584.04,-262 594.04,-265.5 594.04,-258.5"/>
<text text-anchor="middle" x="1012" y="-265" font-family="Helvetica,sans-Serif" font-size="10.00"> mRightVector</text>
</g>
<!-- Node16 -->
<g id="node16" class="node">
<title>Node16</title>
<g id="a_node16"><a xlink:title=" ">
<polygon fill="none" stroke="#bfbfbf" points="166,-299.5 166,-340.5 282,-340.5 282,-299.5 166,-299.5"/>
<text text-anchor="start" x="174" y="-328.5" font-family="Helvetica,sans-Serif" font-size="10.00">std::enable_shared</text>
<text text-anchor="start" x="174" y="-317.5" font-family="Helvetica,sans-Serif" font-size="10.00">_from_this&lt; Attribute</text>
<text text-anchor="middle" x="224" y="-306.5" font-family="Helvetica,sans-Serif" font-size="10.00">&lt; Matrix &gt; &gt;</text>
</a>
</g>
</g>
<!-- Node16&#45;&gt;Node15 -->
<g id="edge20" class="edge">
<title>Node16&#45;&gt;Node15</title>
<path fill="none" stroke="midnightblue" d="M292.33,-322.33C333.63,-322.09 387.19,-318.74 433,-306 459.86,-298.53 488.06,-282.08 504.42,-271.55"/>
<polygon fill="midnightblue" stroke="midnightblue" points="292.1,-318.83 282.1,-322.33 292.1,-325.83 292.1,-318.83"/>
</g>
<!-- Node17&#45;&gt;Node2 -->
<g id="edge22" class="edge">
<title>Node17&#45;&gt;Node2</title>
<path fill="none" stroke="orange" stroke-dasharray="5,2" d="M1550.53,-262C1586.5,-262 1628.78,-262 1663.37,-262"/>
<polygon fill="orange" stroke="orange" points="1550.08,-258.5 1540.08,-262 1550.08,-265.5 1550.08,-258.5"/>
<text text-anchor="middle" x="1596.5" y="-265" font-family="Helvetica,sans-Serif" font-size="10.00"> &lt; Complex &gt;</text>
</g>
<!-- Node18 -->
<g id="node18" class="node">
<title>Node18</title>
<g id="a_node18"><a xlink:href="class_c_p_s_1_1_base_1_1_ph1_1_1_switch.html" target="_top" xlink:title="Dynamic Phasor Three&#45;Phase Switch.">
<polygon fill="none" stroke="black" points="715,-158.5 715,-177.5 837,-177.5 837,-158.5 715,-158.5"/>
<text text-anchor="middle" x="776" y="-165.5" font-family="Helvetica,sans-Serif" font-size="10.00">CPS::Base::Ph1::Switch</text>
</a>
</g>
</g>
<!-- Node18&#45;&gt;Node1 -->
<g id="edge26" class="edge">
<title>Node18&#45;&gt;Node1</title>
<path fill="none" stroke="midnightblue" d="M847.37,-169.83C893.83,-170.88 956.04,-172 1011,-172 1011,-172 1011,-172 1733,-172 1771.05,-172 1813.41,-169.21 1847.93,-166.22"/>
<polygon fill="midnightblue" stroke="midnightblue" points="847.19,-166.32 837.11,-169.59 847.03,-173.32 847.19,-166.32"/>
</g>
<!-- Node19&#45;&gt;Node18 -->
<g id="edge27" class="edge">
<title>Node19&#45;&gt;Node18</title>
<path fill="none" stroke="#9a32cd" stroke-dasharray="5,2" d="M589.22,-168C628.43,-168 677.12,-168 714.82,-168"/>
<polygon fill="#9a32cd" stroke="#9a32cd" points="589.21,-164.5 579.21,-168 589.21,-171.5 589.21,-164.5"/>
<text text-anchor="middle" x="651.5" y="-182" font-family="Helvetica,sans-Serif" font-size="10.00"> mClosedResistance</text>
<text text-anchor="middle" x="651.5" y="-171" font-family="Helvetica,sans-Serif" font-size="10.00">mOpenResistance</text>
</g>
<!-- Node20 -->
<g id="node20" class="node">
<title>Node20</title>
<g id="a_node20"><a xlink:title=" ">
<polygon fill="none" stroke="#bfbfbf" points="166,-98.5 166,-139.5 282,-139.5 282,-98.5 166,-98.5"/>
<text text-anchor="start" x="174" y="-127.5" font-family="Helvetica,sans-Serif" font-size="10.00">std::enable_shared</text>
<text text-anchor="start" x="174" y="-116.5" font-family="Helvetica,sans-Serif" font-size="10.00">_from_this&lt; Attribute</text>
<text text-anchor="middle" x="224" y="-105.5" font-family="Helvetica,sans-Serif" font-size="10.00">&lt; Real &gt; &gt;</text>
</a>
</g>
</g>
<!-- Node20&#45;&gt;Node19 -->
<g id="edge29" class="edge">
<title>Node20&#45;&gt;Node19</title>
<path fill="none" stroke="midnightblue" d="M292.22,-112.51C333.49,-110.43 387.05,-111.18 433,-123 460.45,-130.06 488.92,-147.41 505.1,-158.39"/>
<polygon fill="midnightblue" stroke="midnightblue" points="291.79,-109.03 282.01,-113.1 292.19,-116.02 291.79,-109.03"/>
</g>
<!-- Node21&#45;&gt;Node18 -->
<g id="edge31" class="edge">
<title>Node21&#45;&gt;Node18</title>
<path fill="none" stroke="#9a32cd" stroke-dasharray="5,2" d="M559.93,-98.7C611.21,-115.23 699.64,-143.72 745.5,-158.49"/>
<polygon fill="#9a32cd" stroke="#9a32cd" points="560.78,-95.3 550.19,-95.57 558.64,-101.97 560.78,-95.3"/>
<text text-anchor="middle" x="651.5" y="-144" font-family="Helvetica,sans-Serif" font-size="10.00"> mIsClosed</text>
</g>
<!-- Node22 -->
<g id="node22" class="node">
<title>Node22</title>
<g id="a_node22"><a xlink:title=" ">
<polygon fill="none" stroke="#bfbfbf" points="166,-0.5 166,-41.5 282,-41.5 282,-0.5 166,-0.5"/>
<text text-anchor="start" x="174" y="-29.5" font-family="Helvetica,sans-Serif" font-size="10.00">std::enable_shared</text>
<text text-anchor="start" x="174" y="-18.5" font-family="Helvetica,sans-Serif" font-size="10.00">_from_this&lt; Attribute</text>
<text text-anchor="middle" x="224" y="-7.5" font-family="Helvetica,sans-Serif" font-size="10.00">&lt; Bool &gt; &gt;</text>
</a>
</g>
</g>
<!-- Node22&#45;&gt;Node21 -->
<g id="edge33" class="edge">
<title>Node22&#45;&gt;Node21</title>
<path fill="none" stroke="midnightblue" d="M292.21,-29.34C333.24,-35.16 386.58,-44.04 433,-56 454.33,-61.49 477.9,-69.95 494.88,-76.49"/>
<polygon fill="midnightblue" stroke="midnightblue" points="292.44,-25.84 282.05,-27.92 291.47,-32.77 292.44,-25.84"/>
</g>
<!-- Node23 -->
<g id="node23" class="node">
<title>Node23</title>
<g id="a_node23"><a xlink:href="class_shared_factory.html" target="_top" xlink:title=" ">
<polygon fill="none" stroke="black" points="1653,-124.5 1653,-143.5 1811,-143.5 1811,-124.5 1653,-124.5"/>
<text text-anchor="middle" x="1732" y="-131.5" font-family="Helvetica,sans-Serif" font-size="10.00">SharedFactory&lt; SeriesSwitch &gt;</text>
</a>
</g>
</g>
<!-- Node23&#45;&gt;Node1 -->
<g id="edge35" class="edge">
<title>Node23&#45;&gt;Node1</title>
<path fill="none" stroke="midnightblue" d="M1813.28,-144.88C1824.75,-146.43 1836.47,-148.02 1847.72,-149.55"/>
<polygon fill="midnightblue" stroke="midnightblue" points="1813.66,-141.4 1803.28,-143.52 1812.72,-148.33 1813.66,-141.4"/>
</g>
<!-- Node24 -->
<g id="node24" class="node">
<title>Node24</title>
<g id="a_node24"><a xlink:href="class_shared_factory.html" target="_top" xlink:title=" ">
<polygon fill="none" stroke="black" points="1419,-124.5 1419,-143.5 1524,-143.5 1524,-124.5 1419,-124.5"/>
<text text-anchor="middle" x="1471.5" y="-131.5" font-family="Helvetica,sans-Serif" font-size="10.00">SharedFactory&lt; T &gt;</text>
</a>
</g>
</g>
<!-- Node24&#45;&gt;Node23 -->
<g id="edge36" class="edge">
<title>Node24&#45;&gt;Node23</title>
<path fill="none" stroke="orange" stroke-dasharray="5,2" d="M1534.43,-134C1569.97,-134 1614.94,-134 1652.9,-134"/>
<polygon fill="orange" stroke="orange" points="1534.19,-130.5 1524.19,-134 1534.19,-137.5 1534.19,-130.5"/>
<text text-anchor="middle" x="1596.5" y="-137" font-family="Helvetica,sans-Serif" font-size="10.00"> &lt; SeriesSwitch &gt;</text>
</g>
<!-- Node25 -->
<g id="node25" class="node">
<title>Node25</title>
<g id="a_node25"><a xlink:href="class_c_p_s_1_1_m_n_a_switch_interface.html" target="_top" xlink:title="MNA interface to be used by switching devices.">
<polygon fill="none" stroke="black" points="1664,-86.5 1664,-105.5 1800,-105.5 1800,-86.5 1664,-86.5"/>
<text text-anchor="middle" x="1732" y="-93.5" font-family="Helvetica,sans-Serif" font-size="10.00">CPS::MNASwitchInterface</text>
</a>
</g>
</g>
<!-- Node25&#45;&gt;Node1 -->
<g id="edge37" class="edge">
<title>Node25&#45;&gt;Node1</title>
<path fill="none" stroke="midnightblue" d="M1787.18,-108.06C1795.23,-110.18 1803.37,-112.51 1811,-115 1841.62,-124.99 1875.85,-139.82 1897.04,-149.45"/>
<polygon fill="midnightblue" stroke="midnightblue" points="1788.02,-104.66 1777.47,-105.59 1786.3,-111.45 1788.02,-104.66"/>
</g>
</g>
</svg>
