<?xml version="1.0" encoding="UTF-8" standalone="no"?>
<!DOCTYPE svg PUBLIC "-//W3C//DTD SVG 1.1//EN"
 "http://www.w3.org/Graphics/SVG/1.1/DTD/svg11.dtd">
<!-- Generated by graphviz version 2.44.0 (0)
 -->
<!-- Title: CPS::DP::Ph1::RxLine Pages: 1 -->
<svg width="1078pt" height="166pt"
 viewBox="0.00 0.00 1078.00 166.08" xmlns="http://www.w3.org/2000/svg" xmlns:xlink="http://www.w3.org/1999/xlink">
<g id="graph0" class="graph" transform="scale(1 1) rotate(0) translate(4 162.08)">
<title>CPS::DP::Ph1::RxLine</title>
<!-- Node1 -->
<g id="node1" class="node">
<title>Node1</title>
<g id="a_node1"><a xlink:title=" ">
<polygon fill="#bfbfbf" stroke="black" points="952,-57.5 952,-76.5 1070,-76.5 1070,-57.5 952,-57.5"/>
<text text-anchor="middle" x="1011" y="-64.5" font-family="Helvetica" font-size="10.00">CPS::DP::Ph1::RxLine</text>
</a>
</g>
</g>
<!-- Node2 -->
<g id="node2" class="node">
<title>Node2</title>
<g id="a_node2"><a xlink:href="class_c_p_s_1_1_sim_power_comp.html" target="_top" xlink:title=" ">
<polygon fill="none" stroke="black" points="790,-115 790,-145 910,-145 910,-115 790,-115"/>
<text text-anchor="start" x="798" y="-133" font-family="Helvetica" font-size="10.00">CPS::SimPowerComp&lt;</text>
<text text-anchor="middle" x="850" y="-122" font-family="Helvetica" font-size="10.00"> Complex &gt;</text>
</a>
</g>
</g>
<!-- Node2&#45;&gt;Node1 -->
<g id="edge1" class="edge">
<title>Node2&#45;&gt;Node1</title>
<path fill="none" stroke="midnightblue" d="M903.79,-111.48C913.86,-107.79 924.29,-103.86 934,-100 952.71,-92.56 973.69,-83.39 988.86,-76.61"/>
<polygon fill="midnightblue" stroke="midnightblue" points="902.48,-108.24 894.27,-114.94 904.87,-114.82 902.48,-108.24"/>
</g>
<!-- Node3 -->
<g id="node3" class="node">
<title>Node3</title>
<g id="a_node3"><a xlink:href="class_c_p_s_1_1_topological_power_comp.html" target="_top" xlink:title=" ">
<polygon fill="none" stroke="black" points="385,-120.5 385,-139.5 531,-139.5 531,-120.5 385,-120.5"/>
<text text-anchor="middle" x="458" y="-127.5" font-family="Helvetica" font-size="10.00">CPS::TopologicalPowerComp</text>
</a>
</g>
</g>
<!-- Node3&#45;&gt;Node2 -->
<g id="edge2" class="edge">
<title>Node3&#45;&gt;Node2</title>
<path fill="none" stroke="midnightblue" d="M501.78,-142.16C521.72,-147.22 545.89,-152.5 568,-155 644.53,-163.66 733.07,-152.25 789.98,-142.16"/>
<polygon fill="midnightblue" stroke="midnightblue" points="502.62,-138.76 492.06,-139.63 500.85,-145.54 502.62,-138.76"/>
</g>
<!-- Node6 -->
<g id="node6" class="node">
<title>Node6</title>
<g id="a_node6"><a xlink:href="class_c_p_s_1_1_sim_power_comp.html" target="_top" xlink:title="Base class for all components that are transmitting power.">
<polygon fill="none" stroke="black" points="568,-115 568,-145 688,-145 688,-115 568,-115"/>
<text text-anchor="start" x="576" y="-133" font-family="Helvetica" font-size="10.00">CPS::SimPowerComp&lt;</text>
<text text-anchor="middle" x="628" y="-122" font-family="Helvetica" font-size="10.00"> VarType &gt;</text>
</a>
</g>
</g>
<!-- Node3&#45;&gt;Node6 -->
<g id="edge6" class="edge">
<title>Node3&#45;&gt;Node6</title>
<path fill="none" stroke="midnightblue" d="M541.34,-130C550.34,-130 559.36,-130 567.99,-130"/>
<polygon fill="midnightblue" stroke="midnightblue" points="541.22,-126.5 531.22,-130 541.22,-133.5 541.22,-126.5"/>
</g>
<!-- Node4 -->
<g id="node4" class="node">
<title>Node4</title>
<g id="a_node4"><a xlink:href="class_c_p_s_1_1_identified_object.html" target="_top" xlink:title=" ">
<polygon fill="none" stroke="black" points="133,-119.5 133,-138.5 245,-138.5 245,-119.5 133,-119.5"/>
<text text-anchor="middle" x="189" y="-126.5" font-family="Helvetica" font-size="10.00">CPS::IdentifiedObject</text>
</a>
</g>
</g>
<!-- Node4&#45;&gt;Node3 -->
<g id="edge3" class="edge">
<title>Node4&#45;&gt;Node3</title>
<path fill="none" stroke="midnightblue" d="M255.53,-129.25C294.6,-129.39 344.26,-129.58 384.5,-129.73"/>
<polygon fill="midnightblue" stroke="midnightblue" points="255.34,-125.74 245.32,-129.21 255.31,-132.74 255.34,-125.74"/>
</g>
<!-- Node5 -->
<g id="node5" class="node">
<title>Node5</title>
<g id="a_node5"><a xlink:href="class_c_p_s_1_1_attribute_list.html" target="_top" xlink:title="Base class of objects having attributes to access member variables.">
<polygon fill="none" stroke="black" points="0,-92.5 0,-111.5 96,-111.5 96,-92.5 0,-92.5"/>
<text text-anchor="middle" x="48" y="-99.5" font-family="Helvetica" font-size="10.00">CPS::AttributeList</text>
</a>
</g>
</g>
<!-- Node5&#45;&gt;Node4 -->
<g id="edge4" class="edge">
<title>Node5&#45;&gt;Node4</title>
<path fill="none" stroke="midnightblue" d="M105.99,-113.07C116.98,-115.2 128.39,-117.42 139.09,-119.5"/>
<polygon fill="midnightblue" stroke="midnightblue" points="106.54,-109.61 96.06,-111.14 105.21,-116.48 106.54,-109.61"/>
</g>
<!-- Node7 -->
<g id="node7" class="node">
<title>Node7</title>
<g id="a_node7"><a xlink:href="class_c_p_s_1_1_m_n_a_interface.html" target="_top" xlink:title="Interface to be implemented by all models used by the MNA solver.">
<polygon fill="none" stroke="black" points="263,-79.5 263,-98.5 367,-98.5 367,-79.5 263,-79.5"/>
<text text-anchor="middle" x="315" y="-86.5" font-family="Helvetica" font-size="10.00">CPS::MNAInterface</text>
</a>
</g>
</g>
<!-- Node5&#45;&gt;Node7 -->
<g id="edge8" class="edge">
<title>Node5&#45;&gt;Node7</title>
<path fill="none" stroke="midnightblue" d="M106.31,-99.19C152.89,-96.9 218,-93.71 262.85,-91.51"/>
<polygon fill="midnightblue" stroke="midnightblue" points="105.89,-95.7 96.07,-99.69 106.23,-102.7 105.89,-95.7"/>
</g>
<!-- Node6&#45;&gt;Node2 -->
<g id="edge5" class="edge">
<title>Node6&#45;&gt;Node2</title>
<path fill="none" stroke="orange" stroke-dasharray="5,2" d="M698.41,-130C727.73,-130 761.52,-130 789.65,-130"/>
<polygon fill="orange" stroke="orange" points="698.25,-126.5 688.25,-130 698.25,-133.5 698.25,-126.5"/>
<text text-anchor="middle" x="736.5" y="-133" font-family="Helvetica" font-size="10.00"> &lt; Complex &gt;</text>
</g>
<!-- Node7&#45;&gt;Node1 -->
<g id="edge7" class="edge">
<title>Node7&#45;&gt;Node1</title>
<path fill="none" stroke="midnightblue" d="M377.38,-87.78C424.36,-86.95 490.77,-86 549,-86 549,-86 549,-86 851,-86 886.58,-86 926.33,-81.25 957.19,-76.5"/>
<polygon fill="midnightblue" stroke="midnightblue" points="377.3,-84.28 367.36,-87.96 377.42,-91.28 377.3,-84.28"/>
</g>
<!-- Node8 -->
<g id="node8" class="node">
<title>Node8</title>
<g id="a_node8"><a xlink:href="class_c_p_s_1_1_base_1_1_ph1_1_1_pi_line.html" target="_top" xlink:title=" ">
<polygon fill="none" stroke="black" points="789,-38.5 789,-57.5 911,-57.5 911,-38.5 789,-38.5"/>
<text text-anchor="middle" x="850" y="-45.5" font-family="Helvetica" font-size="10.00">CPS::Base::Ph1::PiLine</text>
</a>
</g>
</g>
<!-- Node8&#45;&gt;Node1 -->
<g id="edge9" class="edge">
<title>Node8&#45;&gt;Node1</title>
<path fill="none" stroke="midnightblue" d="M921.26,-56.4C931.5,-57.62 941.95,-58.87 951.91,-60.06"/>
<polygon fill="midnightblue" stroke="midnightblue" points="921.46,-52.89 911.11,-55.18 920.63,-59.84 921.46,-52.89"/>
</g>
<!-- Node9 -->
<g id="node9" class="node">
<title>Node9</title>
<g id="a_node9"><a xlink:href="class_shared_factory.html" target="_top" xlink:title=" ">
<polygon fill="none" stroke="black" points="785,-0.5 785,-19.5 915,-19.5 915,-0.5 785,-0.5"/>
<text text-anchor="middle" x="850" y="-7.5" font-family="Helvetica" font-size="10.00">SharedFactory&lt; RxLine &gt;</text>
</a>
</g>
</g>
<!-- Node9&#45;&gt;Node1 -->
<g id="edge10" class="edge">
<title>Node9&#45;&gt;Node1</title>
<path fill="none" stroke="midnightblue" d="M895.08,-22.51C901.79,-24.58 908.6,-26.78 915,-29 940.17,-37.75 968.46,-49.29 987.57,-57.35"/>
<polygon fill="midnightblue" stroke="midnightblue" points="895.98,-19.12 885.4,-19.58 893.96,-25.82 895.98,-19.12"/>
</g>
<!-- Node10 -->
<g id="node10" class="node">
<title>Node10</title>
<g id="a_node10"><a xlink:href="class_shared_factory.html" target="_top" xlink:title=" ">
<polygon fill="none" stroke="black" points="575.5,-0.5 575.5,-19.5 680.5,-19.5 680.5,-0.5 575.5,-0.5"/>
<text text-anchor="middle" x="628" y="-7.5" font-family="Helvetica" font-size="10.00">SharedFactory&lt; T &gt;</text>
</a>
</g>
</g>
<!-- Node10&#45;&gt;Node9 -->
<g id="edge11" class="edge">
<title>Node10&#45;&gt;Node9</title>
<path fill="none" stroke="orange" stroke-dasharray="5,2" d="M690.7,-10C720.04,-10 755.09,-10 784.75,-10"/>
<polygon fill="orange" stroke="orange" points="690.58,-6.5 680.58,-10 690.58,-13.5 690.58,-6.5"/>
<text text-anchor="middle" x="736.5" y="-13" font-family="Helvetica" font-size="10.00"> &lt; RxLine &gt;</text>
</g>
</g>
</svg>
