<?xml version="1.0" encoding="UTF-8" standalone="no"?>
<!DOCTYPE svg PUBLIC "-//W3C//DTD SVG 1.1//EN"
 "http://www.w3.org/Graphics/SVG/1.1/DTD/svg11.dtd">
<!-- Generated by graphviz version 12.2.1 (20241206.2353)
 -->
<!-- Title: CPS::EMT::Ph3::TwoTerminalVTypeVariableSSNComp Pages: 1 -->
<!--zoomable 234 -->

<svg id="main" version="1.1" xmlns="http://www.w3.org/2000/svg" xmlns:xlink="http://www.w3.org/1999/xlink" xml:space="preserve" onload="init(evt)">

<style type="text/css"><![CDATA[
.node, .edge {opacity: 0.7;}
.node.selected, .edge.selected {opacity: 1;}
.edge:hover path { stroke: red; }
.edge:hover polygon { stroke: red; fill: red; }
]]></style>

<defs>
  <circle id="rim" cx="0" cy="0" r="7"/>
  <circle id="rim2" cx="0" cy="0" r="3.5"/>
  <g id="zoomPlus">
    <use xlink:href="#rim" fill="#404040"><set attributeName="fill" to="#808080" begin="zoomplus.mouseover" end="zoomplus.mouseout"/></use>
    <path d="M-4,0h8M0,-4v8" fill="none" stroke="white" stroke-width="1.5" pointer-events="none"/>
  </g>
  <g id="zoomMin">
    <use xlink:href="#rim" fill="#404040"><set attributeName="fill" to="#808080" begin="zoomminus.mouseover" end="zoomminus.mouseout"/></use>
    <path d="M-4,0h8" fill="none" stroke="white" stroke-width="1.5" pointer-events="none"/>
  </g>
  <g id="arrowUp" transform="translate(30 24)">
    <use xlink:href="#rim"/>
    <path pointer-events="none" fill="none" stroke="white" stroke-width="1.5" d="M0,-3.0v7 M-2.5,-0.5L0,-3.0L2.5,-0.5"/>
  </g>
  <g id="arrowRight" transform="rotate(90) translate(36 -43)">
    <use xlink:href="#rim"/>
    <path pointer-events="none" fill="none" stroke="white" stroke-width="1.5" d="M0,-3.0v7 M-2.5,-0.5L0,-3.0L2.5,-0.5"/>
  </g>
  <g id="arrowDown" transform="rotate(180) translate(-30 -48)">
    <use xlink:href="#rim"/>
    <path pointer-events="none" fill="none" stroke="white" stroke-width="1.5" d="M0,-3.0v7 M-2.5,-0.5L0,-3.0L2.5,-0.5"/>
  </g>
  <g id="arrowLeft" transform="rotate(270) translate(-36 17)">
    <use xlink:href="#rim"/>
    <path pointer-events="none" fill="none" stroke="white" stroke-width="1.5" d="M0,-3.0v7 M-2.5,-0.5L0,-3.0L2.5,-0.5"/>
  </g>
  <g id="resetDef">
    <use xlink:href="#rim2" fill="#404040"><set attributeName="fill" to="#808080" begin="reset.mouseover" end="reset.mouseout"/></use>
  </g>
</defs>
<script type="application/ecmascript">
var viewWidth = 1821;
var viewHeight = 234;
var sectionId = 'dynsection-0';
</script>
<script type="application/ecmascript" xlink:href="svg.min.js"/>
<svg id="graph" class="graph">
<g id="viewport">
<title>CPS::EMT::Ph3::TwoTerminalVTypeVariableSSNComp</title>
<!-- Node1 -->
<g id="Node000001" class="node">
<title>Node1</title>
<g id="a_Node000001"><a xlink:title="Abstract base class for three&#45;phase, two&#45;terminal, variable V&#45;type SSN components.">
<polygon fill="#999999" stroke="#666666" points="1626,-123.5 1478.75,-123.5 1478.75,-87 1626,-87 1626,-123.5"/>
<text text-anchor="start" x="1486.75" y="-110" font-family="Helvetica,sans-Serif" font-size="10.00">CPS::EMT::Ph3::TwoTerminal</text>
<text text-anchor="middle" x="1552.38" y="-95.75" font-family="Helvetica,sans-Serif" font-size="10.00">VTypeVariableSSNComp</text>
</a>
</g>
</g>
<!-- Node14 -->
<g id="Node000014" class="node">
<title>Node14</title>
<g id="a_Node000014"><a xlink:href="class_c_p_s_1_1_e_m_t_1_1_ph3_1_1_av_volt_source_inverter_state_space.html" target="_top" xlink:title=" ">
<polygon fill="white" stroke="#666666" points="1813.25,-225.5 1663,-225.5 1663,-189 1813.25,-189 1813.25,-225.5"/>
<text text-anchor="start" x="1671" y="-212" font-family="Helvetica,sans-Serif" font-size="10.00">CPS::EMT::Ph3::AvVoltSource</text>
<text text-anchor="middle" x="1738.12" y="-197.75" font-family="Helvetica,sans-Serif" font-size="10.00">InverterStateSpace</text>
</a>
</g>
</g>
<!-- Node1&#45;&gt;Node14 -->
<g id="edge16_Node000001_Node000014" class="edge">
<title>Node1&#45;&gt;Node14</title>
<g id="a_edge16_Node000001_Node000014"><a xlink:title=" ">
<path fill="none" stroke="#63b8ff" d="M1586.35,-130.48C1607.48,-145.88 1635.94,-165.25 1663,-179.25 1669.35,-182.54 1676.18,-185.64 1683.04,-188.51"/>
<polygon fill="#63b8ff" stroke="#63b8ff" points="1588.52,-127.73 1578.4,-124.61 1584.36,-133.36 1588.52,-127.73"/>
</a>
</g>
</g>
<!-- Node15 -->
<g id="Node000015" class="node">
<title>Node15</title>
<g id="a_Node000015"><a xlink:href="class_c_p_s_1_1_e_m_t_1_1_ph3_1_1_piecewise_linear_inductor.html" target="_top" xlink:title="Three&#45;phase, two&#45;terminal, piecewise&#45;linear flux&#45;state inductor.">
<polygon fill="white" stroke="#666666" points="1804.62,-170.5 1671.62,-170.5 1671.62,-134 1804.62,-134 1804.62,-170.5"/>
<text text-anchor="start" x="1679.62" y="-157" font-family="Helvetica,sans-Serif" font-size="10.00">CPS::EMT::Ph3::Piecewise</text>
<text text-anchor="middle" x="1738.12" y="-142.75" font-family="Helvetica,sans-Serif" font-size="10.00">LinearInductor</text>
</a>
</g>
</g>
<!-- Node1&#45;&gt;Node15 -->
<g id="edge17_Node000001_Node000015" class="edge">
<title>Node1&#45;&gt;Node15</title>
<g id="a_edge17_Node000001_Node000015"><a xlink:title=" ">
<path fill="none" stroke="#63b8ff" d="M1637.13,-126.67C1648.55,-129.59 1660.14,-132.56 1671.18,-135.38"/>
<polygon fill="#63b8ff" stroke="#63b8ff" points="1638.28,-123.36 1627.73,-124.27 1636.55,-130.14 1638.28,-123.36"/>
</a>
</g>
</g>
<!-- Node16 -->
<g id="Node000016" class="node">
<title>Node16</title>
<g id="a_Node000016"><a xlink:href="class_c_p_s_1_1_e_m_t_1_1_ph3_1_1_s_s_n___g_f_l.html" target="_top" xlink:title="Three&#45;phase grid&#45;following inverter represented by a locally linearized affine state&#45;space model.">
<polygon fill="white" stroke="#666666" points="1802.75,-116.38 1673.5,-116.38 1673.5,-94.12 1802.75,-94.12 1802.75,-116.38"/>
<text text-anchor="middle" x="1738.12" y="-102.88" font-family="Helvetica,sans-Serif" font-size="10.00">CPS::EMT::Ph3::SSN_GFL</text>
</a>
</g>
</g>
<!-- Node1&#45;&gt;Node16 -->
<g id="edge18_Node000001_Node000016" class="edge">
<title>Node1&#45;&gt;Node16</title>
<g id="a_edge18_Node000001_Node000016"><a xlink:title=" ">
<path fill="none" stroke="#63b8ff" d="M1637.65,-105.25C1649.62,-105.25 1661.75,-105.25 1673.24,-105.25"/>
<polygon fill="#63b8ff" stroke="#63b8ff" points="1637.78,-101.75 1627.78,-105.25 1637.78,-108.75 1637.78,-101.75"/>
</a>
</g>
</g>
<!-- Node17 -->
<g id="Node000017" class="node">
<title>Node17</title>
<g id="a_Node000017"><a xlink:href="class_c_p_s_1_1_e_m_t_1_1_ph3_1_1_s_s_n___g_f_m.html" target="_top" xlink:title="Three&#45;phase grid&#45;forming inverter represented by a locally linearized affine state&#45;space model.">
<polygon fill="white" stroke="#666666" points="1804.62,-76.38 1671.62,-76.38 1671.62,-54.12 1804.62,-54.12 1804.62,-76.38"/>
<text text-anchor="middle" x="1738.12" y="-62.88" font-family="Helvetica,sans-Serif" font-size="10.00">CPS::EMT::Ph3::SSN_GFM</text>
</a>
</g>
</g>
<!-- Node1&#45;&gt;Node17 -->
<g id="edge19_Node000001_Node000017" class="edge">
<title>Node1&#45;&gt;Node17</title>
<g id="a_edge19_Node000001_Node000017"><a xlink:title=" ">
<path fill="none" stroke="#63b8ff" d="M1637.18,-87.01C1653.06,-83.55 1669.27,-80.02 1683.88,-76.84"/>
<polygon fill="#63b8ff" stroke="#63b8ff" points="1636.77,-83.51 1627.74,-89.06 1638.26,-90.35 1636.77,-83.51"/>
</a>
</g>
</g>
<!-- Node18 -->
<g id="Node000018" class="node">
<title>Node18</title>
<g id="a_Node000018"><a xlink:href="class_c_p_s_1_1_e_m_t_1_1_ph3_1_1_s_s_n___induction_motor.html" target="_top" xlink:title="Induction machine model formulated as a variable V&#45;type SSN component.">
<polygon fill="white" stroke="#666666" points="1791.5,-36.5 1684.75,-36.5 1684.75,0 1791.5,0 1791.5,-36.5"/>
<text text-anchor="start" x="1692.75" y="-23" font-family="Helvetica,sans-Serif" font-size="10.00">CPS::EMT::Ph3::SSN</text>
<text text-anchor="middle" x="1738.12" y="-8.75" font-family="Helvetica,sans-Serif" font-size="10.00">_InductionMotor</text>
</a>
</g>
</g>
<!-- Node1&#45;&gt;Node18 -->
<g id="edge20_Node000001_Node000018" class="edge">
<title>Node1&#45;&gt;Node18</title>
<g id="a_edge20_Node000001_Node000018"><a xlink:title=" ">
<path fill="none" stroke="#63b8ff" d="M1594.24,-80.96C1614.54,-69.39 1639.67,-55.81 1663,-45.25 1669.86,-42.14 1677.2,-39.13 1684.49,-36.3"/>
<polygon fill="#63b8ff" stroke="#63b8ff" points="1592.62,-77.85 1585.7,-85.87 1596.12,-83.92 1592.62,-77.85"/>
</a>
</g>
</g>
<!-- Node2 -->
<g id="Node000002" class="node">
<title>Node2</title>
<g id="a_Node000002"><a xlink:href="class_c_p_s_1_1_e_m_t_1_1_v_type_variable_s_s_n_comp.html" target="_top" xlink:title="Abstract base class for variable EMT V&#45;type SSN components.">
<polygon fill="white" stroke="#666666" points="1441.75,-116.38 1266,-116.38 1266,-94.12 1441.75,-94.12 1441.75,-116.38"/>
<text text-anchor="middle" x="1353.88" y="-102.88" font-family="Helvetica,sans-Serif" font-size="10.00">CPS::EMT::VTypeVariableSSNComp</text>
</a>
</g>
</g>
<!-- Node2&#45;&gt;Node1 -->
<g id="edge1_Node000001_Node000002" class="edge">
<title>Node2&#45;&gt;Node1</title>
<g id="a_edge1_Node000001_Node000002"><a xlink:title=" ">
<path fill="none" stroke="#63b8ff" d="M1453.59,-105.25C1461.95,-105.25 1470.31,-105.25 1478.42,-105.25"/>
<polygon fill="#63b8ff" stroke="#63b8ff" points="1453.72,-101.75 1443.72,-105.25 1453.72,-108.75 1453.72,-101.75"/>
</a>
</g>
</g>
<!-- Node3 -->
<g id="Node000003" class="node">
<title>Node3</title>
<g id="a_Node000003"><a xlink:href="class_c_p_s_1_1_e_m_t_1_1_v_type_s_s_n_comp.html" target="_top" xlink:title="Abstract base class for EMT V&#45;type SSN components.">
<polygon fill="white" stroke="#666666" points="1213.25,-144.38 1075,-144.38 1075,-122.12 1213.25,-122.12 1213.25,-144.38"/>
<text text-anchor="middle" x="1144.12" y="-130.88" font-family="Helvetica,sans-Serif" font-size="10.00">CPS::EMT::VTypeSSNComp</text>
</a>
</g>
</g>
<!-- Node3&#45;&gt;Node2 -->
<g id="edge2_Node000002_Node000003" class="edge">
<title>Node3&#45;&gt;Node2</title>
<g id="a_edge2_Node000002_Node000003"><a xlink:title=" ">
<path fill="none" stroke="#63b8ff" d="M1225.08,-122.47C1238.78,-120.63 1253.08,-118.7 1266.93,-116.83"/>
<polygon fill="#63b8ff" stroke="#63b8ff" points="1224.67,-119 1215.23,-123.8 1225.6,-125.93 1224.67,-119"/>
</a>
</g>
</g>
<!-- Node4 -->
<g id="Node000004" class="node">
<title>Node4</title>
<g id="a_Node000004"><a xlink:href="class_c_p_s_1_1_e_m_t_1_1_s_s_n_comp.html" target="_top" xlink:title="Abstract base class for EMT state&#45;space nodal (SSN) components.">
<polygon fill="white" stroke="#666666" points="1022.25,-144.38 912.5,-144.38 912.5,-122.12 1022.25,-122.12 1022.25,-144.38"/>
<text text-anchor="middle" x="967.38" y="-130.88" font-family="Helvetica,sans-Serif" font-size="10.00">CPS::EMT::SSNComp</text>
</a>
</g>
</g>
<!-- Node4&#45;&gt;Node3 -->
<g id="edge3_Node000003_Node000004" class="edge">
<title>Node4&#45;&gt;Node3</title>
<g id="a_edge3_Node000003_Node000004"><a xlink:title=" ">
<path fill="none" stroke="#63b8ff" d="M1034.13,-133.25C1047.36,-133.25 1061.3,-133.25 1074.63,-133.25"/>
<polygon fill="#63b8ff" stroke="#63b8ff" points="1034.22,-129.75 1024.22,-133.25 1034.22,-136.75 1034.22,-129.75"/>
</a>
</g>
</g>
<!-- Node5 -->
<g id="Node000005" class="node">
<title>Node5</title>
<g id="a_Node000005"><a xlink:href="class_c_p_s_1_1_m_n_a_sim_power_comp.html" target="_top" xlink:title=" ">
<polygon fill="white" stroke="#666666" points="875.5,-151.5 739.5,-151.5 739.5,-115 875.5,-115 875.5,-151.5"/>
<text text-anchor="start" x="747.5" y="-138" font-family="Helvetica,sans-Serif" font-size="10.00">CPS::MNASimPowerComp</text>
<text text-anchor="middle" x="807.5" y="-123.75" font-family="Helvetica,sans-Serif" font-size="10.00">&lt; Real &gt;</text>
</a>
</g>
</g>
<!-- Node5&#45;&gt;Node4 -->
<g id="edge4_Node000004_Node000005" class="edge">
<title>Node5&#45;&gt;Node4</title>
<g id="a_edge4_Node000004_Node000005"><a xlink:title=" ">
<path fill="none" stroke="#63b8ff" d="M887.3,-133.25C895.67,-133.25 904.05,-133.25 912.06,-133.25"/>
<polygon fill="#63b8ff" stroke="#63b8ff" points="887.42,-129.75 877.42,-133.25 887.42,-136.75 887.42,-129.75"/>
</a>
</g>
</g>
<!-- Node6 -->
<g id="Node000006" class="node">
<title>Node6</title>
<g id="a_Node000006"><a xlink:href="class_c_p_s_1_1_sim_power_comp.html" target="_top" xlink:title=" ">
<polygon fill="white" stroke="#666666" points="656.62,-96.5 537.88,-96.5 537.88,-60 656.62,-60 656.62,-96.5"/>
<text text-anchor="start" x="545.88" y="-83" font-family="Helvetica,sans-Serif" font-size="10.00">CPS::SimPowerComp&lt;</text>
<text text-anchor="middle" x="597.25" y="-68.75" font-family="Helvetica,sans-Serif" font-size="10.00"> Real &gt;</text>
</a>
</g>
</g>
<!-- Node6&#45;&gt;Node5 -->
<g id="edge5_Node000005_Node000006" class="edge">
<title>Node6&#45;&gt;Node5</title>
<g id="a_edge5_Node000005_Node000006"><a xlink:title=" ">
<path fill="none" stroke="#63b8ff" d="M668.15,-96.71C691.12,-102.78 716.6,-109.51 739.36,-115.52"/>
<polygon fill="#63b8ff" stroke="#63b8ff" points="669.12,-93.35 658.55,-94.18 667.33,-100.11 669.12,-93.35"/>
</a>
</g>
</g>
<!-- Node7 -->
<g id="Node000007" class="node">
<title>Node7</title>
<g id="a_Node000007"><a xlink:href="class_c_p_s_1_1_topological_power_comp.html" target="_top" xlink:title=" ">
<polygon fill="white" stroke="#666666" points="299.25,-94.38 152,-94.38 152,-72.12 299.25,-72.12 299.25,-94.38"/>
<text text-anchor="middle" x="225.62" y="-80.88" font-family="Helvetica,sans-Serif" font-size="10.00">CPS::TopologicalPowerComp</text>
</a>
</g>
</g>
<!-- Node7&#45;&gt;Node6 -->
<g id="edge6_Node000006_Node000007" class="edge">
<title>Node7&#45;&gt;Node6</title>
<g id="a_edge6_Node000006_Node000007"><a xlink:title=" ">
<path fill="none" stroke="#63b8ff" d="M310.96,-82.11C380.23,-81.17 476.56,-79.87 537.66,-79.04"/>
<polygon fill="#63b8ff" stroke="#63b8ff" points="311.12,-78.61 301.16,-82.24 311.21,-85.61 311.12,-78.61"/>
</a>
</g>
</g>
<!-- Node9 -->
<g id="Node000009" class="node">
<title>Node9</title>
<g id="a_Node000009"><a xlink:href="class_c_p_s_1_1_sim_power_comp.html" target="_top" xlink:title="Base class for all components that are transmitting power.">
<polygon fill="white" stroke="#666666" points="455,-55.5 336.25,-55.5 336.25,-19 455,-19 455,-55.5"/>
<text text-anchor="start" x="344.25" y="-42" font-family="Helvetica,sans-Serif" font-size="10.00">CPS::SimPowerComp&lt;</text>
<text text-anchor="middle" x="395.62" y="-27.75" font-family="Helvetica,sans-Serif" font-size="10.00"> VarType &gt;</text>
</a>
</g>
</g>
<!-- Node7&#45;&gt;Node9 -->
<g id="edge9_Node000009_Node000007" class="edge">
<title>Node7&#45;&gt;Node9</title>
<g id="a_edge9_Node000009_Node000007"><a xlink:title=" ">
<path fill="none" stroke="#63b8ff" d="M280.1,-68.61C297.92,-63.73 317.87,-58.27 336.07,-53.28"/>
<polygon fill="#63b8ff" stroke="#63b8ff" points="279.2,-65.23 270.48,-71.24 281.05,-71.98 279.2,-65.23"/>
</a>
</g>
</g>
<!-- Node12 -->
<g id="Node000012" class="node">
<title>Node12</title>
<g id="a_Node000012"><a xlink:href="class_c_p_s_1_1_sim_power_comp.html" target="_top" xlink:title="Base class for all components that are transmitting power.">
<polygon fill="white" stroke="#666666" points="455,-147.5 336.25,-147.5 336.25,-111 455,-111 455,-147.5"/>
<text text-anchor="start" x="344.25" y="-134" font-family="Helvetica,sans-Serif" font-size="10.00">CPS::SimPowerComp&lt;</text>
<text text-anchor="middle" x="395.62" y="-119.75" font-family="Helvetica,sans-Serif" font-size="10.00"> VarType &gt;</text>
</a>
</g>
</g>
<!-- Node7&#45;&gt;Node12 -->
<g id="edge13_Node000012_Node000007" class="edge">
<title>Node7&#45;&gt;Node12</title>
<g id="a_edge13_Node000012_Node000007"><a xlink:title=" ">
<path fill="none" stroke="#63b8ff" d="M280.1,-97.89C297.92,-102.77 317.87,-108.23 336.07,-113.22"/>
<polygon fill="#63b8ff" stroke="#63b8ff" points="281.05,-94.52 270.48,-95.26 279.2,-101.27 281.05,-94.52"/>
</a>
</g>
</g>
<!-- Node8 -->
<g id="Node000008" class="node">
<title>Node8</title>
<g id="a_Node000008"><a xlink:href="class_c_p_s_1_1_identified_object.html" target="_top" xlink:title=" ">
<polygon fill="white" stroke="#666666" points="115,-94.38 0,-94.38 0,-72.12 115,-72.12 115,-94.38"/>
<text text-anchor="middle" x="57.5" y="-80.88" font-family="Helvetica,sans-Serif" font-size="10.00">CPS::IdentifiedObject</text>
</a>
</g>
</g>
<!-- Node8&#45;&gt;Node7 -->
<g id="edge7_Node000007_Node000008" class="edge">
<title>Node8&#45;&gt;Node7</title>
<g id="a_edge7_Node000007_Node000008"><a xlink:title=" ">
<path fill="none" stroke="#63b8ff" d="M126.7,-83.25C134.95,-83.25 143.41,-83.25 151.73,-83.25"/>
<polygon fill="#63b8ff" stroke="#63b8ff" points="126.72,-79.75 116.72,-83.25 126.72,-86.75 126.72,-79.75"/>
</a>
</g>
</g>
<!-- Node9&#45;&gt;Node6 -->
<g id="edge8_Node000006_Node000009" class="edge">
<title>Node9&#45;&gt;Node6</title>
<g id="a_edge8_Node000006_Node000009"><a xlink:title=" ">
<path fill="none" stroke="orange" stroke-dasharray="5,2" d="M466.62,-46.8C481.41,-49.18 496.89,-51.93 511.25,-55 519.78,-56.82 528.72,-58.98 537.48,-61.24"/>
<polygon fill="orange" stroke="orange" points="467.38,-43.37 456.96,-45.29 466.3,-50.29 467.38,-43.37"/>
</a>
</g>
<text text-anchor="middle" x="492.12" y="-59.75" font-family="Helvetica,sans-Serif" font-size="10.00" fill="grey"> &lt; Real &gt;</text>
</g>
<!-- Node10 -->
<g id="Node000010" class="node">
<title>Node10</title>
<g id="a_Node000010"><a xlink:href="class_c_p_s_1_1_m_n_a_interface.html" target="_top" xlink:title="Interface to be implemented by all models used by the MNA solver.">
<polygon fill="white" stroke="#666666" points="448.62,-189.38 342.62,-189.38 342.62,-167.12 448.62,-167.12 448.62,-189.38"/>
<text text-anchor="middle" x="395.62" y="-175.88" font-family="Helvetica,sans-Serif" font-size="10.00">CPS::MNAInterface</text>
</a>
</g>
</g>
<!-- Node10&#45;&gt;Node5 -->
<g id="edge10_Node000005_Node000010" class="edge">
<title>Node10&#45;&gt;Node5</title>
<g id="a_edge10_Node000005_Node000010"><a xlink:title=" ">
<path fill="none" stroke="#63b8ff" d="M460.23,-175.63C514.75,-173 595.33,-168.17 665.25,-160.25 690.41,-157.4 696.61,-155.87 721.5,-151.25 727.28,-150.18 733.28,-149.01 739.28,-147.81"/>
<polygon fill="#63b8ff" stroke="#63b8ff" points="460.34,-172.13 450.51,-176.09 460.67,-179.12 460.34,-172.13"/>
</a>
</g>
</g>
<!-- Node11 -->
<g id="Node000011" class="node">
<title>Node11</title>
<g id="a_Node000011"><a xlink:href="class_c_p_s_1_1_m_n_a_sim_power_comp.html" target="_top" xlink:title="Base class for all MNA components that are transmitting power.">
<polygon fill="white" stroke="#666666" points="665.25,-151.5 529.25,-151.5 529.25,-115 665.25,-115 665.25,-151.5"/>
<text text-anchor="start" x="537.25" y="-138" font-family="Helvetica,sans-Serif" font-size="10.00">CPS::MNASimPowerComp</text>
<text text-anchor="middle" x="597.25" y="-123.75" font-family="Helvetica,sans-Serif" font-size="10.00">&lt; VarType &gt;</text>
</a>
</g>
</g>
<!-- Node10&#45;&gt;Node11 -->
<g id="edge14_Node000011_Node000010" class="edge">
<title>Node10&#45;&gt;Node11</title>
<g id="a_edge14_Node000011_Node000010"><a xlink:title=" ">
<path fill="none" stroke="#63b8ff" d="M459,-164.19C481.18,-159.19 506.24,-153.54 528.82,-148.45"/>
<polygon fill="#63b8ff" stroke="#63b8ff" points="458.5,-160.72 449.51,-166.33 460.03,-167.54 458.5,-160.72"/>
</a>
</g>
</g>
<!-- Node11&#45;&gt;Node5 -->
<g id="edge11_Node000005_Node000011" class="edge">
<title>Node11&#45;&gt;Node5</title>
<g id="a_edge11_Node000005_Node000011"><a xlink:title=" ">
<path fill="none" stroke="orange" stroke-dasharray="5,2" d="M677.08,-133.25C697.49,-133.25 719.28,-133.25 739.05,-133.25"/>
<polygon fill="orange" stroke="orange" points="677.09,-129.75 667.09,-133.25 677.09,-136.75 677.09,-129.75"/>
</a>
</g>
<text text-anchor="middle" x="702.38" y="-138" font-family="Helvetica,sans-Serif" font-size="10.00" fill="grey"> &lt; Real &gt;</text>
</g>
<!-- Node12&#45;&gt;Node11 -->
<g id="edge12_Node000011_Node000012" class="edge">
<title>Node12&#45;&gt;Node11</title>
<g id="a_edge12_Node000011_Node000012"><a xlink:title=" ">
<path fill="none" stroke="#63b8ff" d="M466.79,-130.66C487.03,-131.06 509.05,-131.5 529.09,-131.9"/>
<polygon fill="#63b8ff" stroke="#63b8ff" points="467.02,-127.16 456.95,-130.46 466.88,-134.16 467.02,-127.16"/>
</a>
</g>
</g>
<!-- Node13 -->
<g id="Node000013" class="node">
<title>Node13</title>
<g id="a_Node000013"><a xlink:href="class_c_p_s_1_1_m_n_a_variable_comp_interface.html" target="_top" xlink:title="MNA interface to be used by elements that require recomputing of the system matrix.">
<polygon fill="white" stroke="#666666" points="1229,-104.38 1059.25,-104.38 1059.25,-82.12 1229,-82.12 1229,-104.38"/>
<text text-anchor="middle" x="1144.12" y="-90.88" font-family="Helvetica,sans-Serif" font-size="10.00">CPS::MNAVariableCompInterface</text>
</a>
</g>
</g>
<!-- Node13&#45;&gt;Node2 -->
<g id="edge15_Node000002_Node000013" class="edge">
<title>Node13&#45;&gt;Node2</title>
<g id="a_edge15_Node000002_Node000013"><a xlink:title=" ">
<path fill="none" stroke="#63b8ff" d="M1240.59,-98.76C1248.89,-99.24 1257.27,-99.73 1265.51,-100.2"/>
<polygon fill="#63b8ff" stroke="#63b8ff" points="1241.02,-95.28 1230.84,-98.2 1240.62,-102.27 1241.02,-95.28"/>
</a>
</g>
</g>
</g>
</svg>

<g id="navigator" transform="translate(0 0)" fill="#404254">
  <rect fill="#f2f5e9" fill-opacity="0.5" stroke="#606060" stroke-width=".5" x="0" y="0" width="60" height="60"/>
  <use id="zoomplus" xlink:href="#zoomPlus" x="17" y="9" onmousedown="handleZoom(evt,'in')"/>
  <use id="zoomminus" xlink:href="#zoomMin" x="42" y="9" onmousedown="handleZoom(evt,'out')"/>
  <use id="reset" xlink:href="#resetDef" x="30" y="36" onmousedown="handleReset()"/>
   <use id="arrowup" xlink:href="#arrowUp" x="0" y="0" onmousedown="handlePan(0,-1)"/>
  <use id="arrowright" xlink:href="#arrowRight" x="0" y="0" onmousedown="handlePan(1,0)"/>
  <use id="arrowdown" xlink:href="#arrowDown" x="0" y="0" onmousedown="handlePan(0,1)"/>
  <use id="arrowleft" xlink:href="#arrowLeft" x="0" y="0" onmousedown="handlePan(-1,0)"/>
</g>
<svg viewBox="0 0 15 15" width="100%" height="30px" preserveAspectRatio="xMaxYMin meet">
 <g id="arrow_out" transform="scale(0.3 0.3)">
  <a xlink:href="class_c_p_s_1_1_e_m_t_1_1_ph3_1_1_two_terminal_v_type_variable_s_s_n_comp__inherit__graph_org.svg" target="_base">
   <rect id="button" ry="5" rx="5" y="6" x="6" height="38" width="38"
        fill="#f2f5e9" fill-opacity="0.5" stroke="#606060" stroke-width="1.0"/>
   <path id="arrow"
     d="M 11.500037,31.436501 C 11.940474,20.09759 22.043105,11.32322 32.158766,21.979434 L 37.068811,17.246167 C 37.068811,17.246167 37.088388,32 37.088388,32 L 22.160133,31.978069 C 22.160133,31.978069 26.997745,27.140456 26.997745,27.140456 C 18.528582,18.264221 13.291696,25.230495 11.500037,31.436501 z"
     style="fill:#404040;"/>
  </a>
 </g>
</svg>

<style type='text/css'>
<![CDATA[
[data-mouse-over-selected='false'] { opacity: 0.7; }
[data-mouse-over-selected='true']  { opacity: 1.0; }
]]>
</style>
<script type="application/ecmascript"><![CDATA[
document.addEventListener('DOMContentLoaded', (event) => {
  highlightEdges();
  highlightAdjacentNodes();
});
]]></script>
</svg>
