<?xml version="1.0" encoding="UTF-8" standalone="no"?>
<!DOCTYPE svg PUBLIC "-//W3C//DTD SVG 1.1//EN"
 "http://www.w3.org/Graphics/SVG/1.1/DTD/svg11.dtd">
<!-- Generated by graphviz version 2.42.4 (0)
 -->
<!-- Title: CPS::EMT::Ph3::VoltageSourceNorton Pages: 1 -->
<svg width="1788pt" height="437pt"
 viewBox="0.00 0.00 1788.00 437.00" xmlns="http://www.w3.org/2000/svg" xmlns:xlink="http://www.w3.org/1999/xlink">
<g id="graph0" class="graph" transform="scale(1 1) rotate(0) translate(4 433)">
<title>CPS::EMT::Ph3::VoltageSourceNorton</title>
<!-- Node1 -->
<g id="node1" class="node">
<title>Node1</title>
<g id="a_node1"><a xlink:title="Voltage source with Norton equivalent model.">
<polygon fill="#bfbfbf" stroke="black" points="1619,-353 1619,-383 1780,-383 1780,-353 1619,-353"/>
<text text-anchor="start" x="1627" y="-371" font-family="Helvetica,sans-Serif" font-size="10.00">CPS::EMT::Ph3::VoltageSource</text>
<text text-anchor="middle" x="1699.5" y="-360" font-family="Helvetica,sans-Serif" font-size="10.00">Norton</text>
</a>
</g>
</g>
<!-- Node2 -->
<g id="node2" class="node">
<title>Node2</title>
<g id="a_node2"><a xlink:href="class_c_p_s_1_1_m_n_a_interface.html" target="_top" xlink:title="Interface to be implemented by all models used by the MNA solver.">
<polygon fill="none" stroke="black" points="295,-409.5 295,-428.5 403,-428.5 403,-409.5 295,-409.5"/>
<text text-anchor="middle" x="349" y="-416.5" font-family="Helvetica,sans-Serif" font-size="10.00">CPS::MNAInterface</text>
</a>
</g>
</g>
<!-- Node2&#45;&gt;Node1 -->
<g id="edge1" class="edge">
<title>Node2&#45;&gt;Node1</title>
<path fill="none" stroke="midnightblue" d="M413.48,-421.06C482.69,-423.12 596.7,-426 695,-426 695,-426 695,-426 1500.5,-426 1561.57,-426 1629.12,-400.27 1667.43,-383.09"/>
<polygon fill="midnightblue" stroke="midnightblue" points="413.29,-417.55 403.19,-420.75 413.07,-424.55 413.29,-417.55"/>
</g>
<!-- Node3 -->
<g id="node3" class="node">
<title>Node3</title>
<g id="a_node3"><a xlink:href="class_c_p_s_1_1_attribute_list.html" target="_top" xlink:title="Base class of objects having attributes to access member variables.">
<polygon fill="none" stroke="black" points="0,-269.5 0,-288.5 101,-288.5 101,-269.5 0,-269.5"/>
<text text-anchor="middle" x="50.5" y="-276.5" font-family="Helvetica,sans-Serif" font-size="10.00">CPS::AttributeList</text>
</a>
</g>
</g>
<!-- Node3&#45;&gt;Node2 -->
<g id="edge2" class="edge">
<title>Node3&#45;&gt;Node2</title>
<path fill="none" stroke="midnightblue" d="M74.37,-294.09C113.79,-319.5 197.76,-370.98 275,-401 283.39,-404.26 292.57,-407.07 301.49,-409.44"/>
<polygon fill="midnightblue" stroke="midnightblue" points="76.06,-291.02 65.77,-288.51 72.25,-296.89 76.06,-291.02"/>
</g>
<!-- Node6 -->
<g id="node6" class="node">
<title>Node6</title>
<g id="a_node6"><a xlink:href="class_c_p_s_1_1_identified_object.html" target="_top" xlink:title=" ">
<polygon fill="none" stroke="black" points="138,-93.5 138,-112.5 257,-112.5 257,-93.5 138,-93.5"/>
<text text-anchor="middle" x="197.5" y="-100.5" font-family="Helvetica,sans-Serif" font-size="10.00">CPS::IdentifiedObject</text>
</a>
</g>
</g>
<!-- Node3&#45;&gt;Node6 -->
<g id="edge6" class="edge">
<title>Node3&#45;&gt;Node6</title>
<path fill="none" stroke="midnightblue" d="M65.96,-261.45C96.09,-224.88 164.73,-141.56 188.34,-112.9"/>
<polygon fill="midnightblue" stroke="midnightblue" points="63.16,-259.34 59.5,-269.29 68.56,-263.79 63.16,-259.34"/>
</g>
<!-- Node4 -->
<g id="node4" class="node">
<title>Node4</title>
<g id="a_node4"><a xlink:href="class_c_p_s_1_1_sim_power_comp.html" target="_top" xlink:title=" ">
<polygon fill="none" stroke="black" points="1436,-117 1436,-147 1563,-147 1563,-117 1436,-117"/>
<text text-anchor="start" x="1444" y="-135" font-family="Helvetica,sans-Serif" font-size="10.00">CPS::SimPowerComp&lt;</text>
<text text-anchor="middle" x="1499.5" y="-124" font-family="Helvetica,sans-Serif" font-size="10.00"> Real &gt;</text>
</a>
</g>
</g>
<!-- Node4&#45;&gt;Node1 -->
<g id="edge3" class="edge">
<title>Node4&#45;&gt;Node1</title>
<path fill="none" stroke="midnightblue" d="M1519.85,-155.07C1560.09,-203.03 1651.83,-312.38 1685.66,-352.7"/>
<polygon fill="midnightblue" stroke="midnightblue" points="1522.3,-152.53 1513.19,-147.12 1516.93,-157.03 1522.3,-152.53"/>
</g>
<!-- Node5 -->
<g id="node5" class="node">
<title>Node5</title>
<g id="a_node5"><a xlink:href="class_c_p_s_1_1_topological_power_comp.html" target="_top" xlink:title=" ">
<polygon fill="none" stroke="black" points="797,-0.5 797,-19.5 952,-19.5 952,-0.5 797,-0.5"/>
<text text-anchor="middle" x="874.5" y="-7.5" font-family="Helvetica,sans-Serif" font-size="10.00">CPS::TopologicalPowerComp</text>
</a>
</g>
</g>
<!-- Node5&#45;&gt;Node4 -->
<g id="edge4" class="edge">
<title>Node5&#45;&gt;Node4</title>
<path fill="none" stroke="midnightblue" d="M962.54,-9.01C1050.56,-10.15 1189.7,-17.87 1305,-51 1365.03,-68.25 1431.47,-98.74 1468.79,-116.99"/>
<polygon fill="midnightblue" stroke="midnightblue" points="962.37,-5.5 952.33,-8.9 962.29,-12.5 962.37,-5.5"/>
</g>
<!-- Node20 -->
<g id="node20" class="node">
<title>Node20</title>
<g id="a_node20"><a xlink:href="class_c_p_s_1_1_sim_power_comp.html" target="_top" xlink:title="Base class for all components that are transmitting power.">
<polygon fill="none" stroke="black" points="1168.5,-61 1168.5,-91 1295.5,-91 1295.5,-61 1168.5,-61"/>
<text text-anchor="start" x="1176.5" y="-79" font-family="Helvetica,sans-Serif" font-size="10.00">CPS::SimPowerComp&lt;</text>
<text text-anchor="middle" x="1232" y="-68" font-family="Helvetica,sans-Serif" font-size="10.00"> VarType &gt;</text>
</a>
</g>
</g>
<!-- Node5&#45;&gt;Node20 -->
<g id="edge28" class="edge">
<title>Node5&#45;&gt;Node20</title>
<path fill="none" stroke="midnightblue" d="M962.36,-19.52C1014.5,-26.03 1081.95,-35.88 1141,-49 1155.65,-52.26 1171.39,-56.66 1185.55,-60.96"/>
<polygon fill="midnightblue" stroke="midnightblue" points="962.5,-16.01 952.14,-18.26 961.64,-22.96 962.5,-16.01"/>
</g>
<!-- Node6&#45;&gt;Node5 -->
<g id="edge5" class="edge">
<title>Node6&#45;&gt;Node5</title>
<path fill="none" stroke="midnightblue" d="M230.59,-89.72C244.11,-84.52 260.14,-78.89 275,-75 458.01,-27.09 681.42,-14.43 796.61,-11.13"/>
<polygon fill="midnightblue" stroke="midnightblue" points="229.26,-86.47 221.24,-93.39 231.82,-92.99 229.26,-86.47"/>
</g>
<!-- Node8 -->
<g id="node8" class="node">
<title>Node8</title>
<g id="a_node8"><a xlink:href="class_c_p_s_1_1_topological_terminal.html" target="_top" xlink:title=" ">
<polygon fill="none" stroke="black" points="451,-243.5 451,-262.5 589,-262.5 589,-243.5 451,-243.5"/>
<text text-anchor="middle" x="520" y="-250.5" font-family="Helvetica,sans-Serif" font-size="10.00">CPS::TopologicalTerminal</text>
</a>
</g>
</g>
<!-- Node6&#45;&gt;Node8 -->
<g id="edge9" class="edge">
<title>Node6&#45;&gt;Node8</title>
<path fill="none" stroke="midnightblue" d="M267.57,-101.98C316.09,-104.79 379.79,-116 423,-152 438.92,-165.26 428.23,-178.68 441,-195 457.53,-216.13 483.62,-233.39 501.01,-243.43"/>
<polygon fill="midnightblue" stroke="midnightblue" points="267.62,-98.48 257.46,-101.51 267.29,-105.48 267.62,-98.48"/>
</g>
<!-- Node14 -->
<g id="node14" class="node">
<title>Node14</title>
<g id="a_node14"><a xlink:href="class_c_p_s_1_1_topological_node.html" target="_top" xlink:title=" ">
<polygon fill="none" stroke="black" points="459,-57.5 459,-76.5 581,-76.5 581,-57.5 459,-57.5"/>
<text text-anchor="middle" x="520" y="-64.5" font-family="Helvetica,sans-Serif" font-size="10.00">CPS::TopologicalNode</text>
</a>
</g>
</g>
<!-- Node6&#45;&gt;Node14 -->
<g id="edge18" class="edge">
<title>Node6&#45;&gt;Node14</title>
<path fill="none" stroke="midnightblue" d="M267.29,-95.27C324.3,-88.87 404.51,-79.86 458.96,-73.74"/>
<polygon fill="midnightblue" stroke="midnightblue" points="266.83,-91.8 257.28,-96.4 267.61,-98.76 266.83,-91.8"/>
</g>
<!-- Node7 -->
<g id="node7" class="node">
<title>Node7</title>
<g id="a_node7"><a xlink:href="class_c_p_s_1_1_sim_terminal.html" target="_top" xlink:title=" ">
<polygon fill="none" stroke="black" points="1159,-255.5 1159,-274.5 1305,-274.5 1305,-255.5 1159,-255.5"/>
<text text-anchor="middle" x="1232" y="-262.5" font-family="Helvetica,sans-Serif" font-size="10.00">CPS::SimTerminal&lt; Real &gt;</text>
</a>
</g>
</g>
<!-- Node7&#45;&gt;Node4 -->
<g id="edge7" class="edge">
<title>Node7&#45;&gt;Node4</title>
<path fill="none" stroke="#9a32cd" stroke-dasharray="5,2" d="M1261.1,-250.92C1311.37,-225.74 1416.27,-173.19 1468.13,-147.21"/>
<polygon fill="#9a32cd" stroke="#9a32cd" points="1259.47,-247.83 1252.09,-255.43 1262.6,-254.09 1259.47,-247.83"/>
<text text-anchor="middle" x="1361" y="-222" font-family="Helvetica,sans-Serif" font-size="10.00"> mTerminals</text>
</g>
<!-- Node8&#45;&gt;Node7 -->
<g id="edge8" class="edge">
<title>Node8&#45;&gt;Node7</title>
<path fill="none" stroke="midnightblue" d="M599.2,-254.32C737.86,-256.67 1024.77,-261.51 1158.92,-263.78"/>
<polygon fill="midnightblue" stroke="midnightblue" points="599.14,-250.82 589.08,-254.15 599.02,-257.82 599.14,-250.82"/>
</g>
<!-- Node11 -->
<g id="node11" class="node">
<title>Node11</title>
<g id="a_node11"><a xlink:href="class_c_p_s_1_1_sim_terminal.html" target="_top" xlink:title=" ">
<polygon fill="none" stroke="black" points="793,-275.5 793,-294.5 956,-294.5 956,-275.5 793,-275.5"/>
<text text-anchor="middle" x="874.5" y="-282.5" font-family="Helvetica,sans-Serif" font-size="10.00">CPS::SimTerminal&lt; VarType &gt;</text>
</a>
</g>
</g>
<!-- Node8&#45;&gt;Node11 -->
<g id="edge13" class="edge">
<title>Node8&#45;&gt;Node11</title>
<path fill="none" stroke="midnightblue" d="M599.52,-260.13C657.07,-265.35 734.94,-272.42 792.96,-277.69"/>
<polygon fill="midnightblue" stroke="midnightblue" points="599.66,-256.63 589.38,-259.21 599.03,-263.6 599.66,-256.63"/>
</g>
<!-- Node9 -->
<g id="node9" class="node">
<title>Node9</title>
<g id="a_node9"><a xlink:href="class_shared_factory.html" target="_top" xlink:title=" ">
<polygon fill="none" stroke="black" points="617,-322 617,-352 775,-352 775,-322 617,-322"/>
<text text-anchor="start" x="625" y="-340" font-family="Helvetica,sans-Serif" font-size="10.00">SharedFactory&lt; SimTerminal</text>
<text text-anchor="middle" x="696" y="-329" font-family="Helvetica,sans-Serif" font-size="10.00">&lt; Real &gt; &gt;</text>
</a>
</g>
</g>
<!-- Node9&#45;&gt;Node7 -->
<g id="edge10" class="edge">
<title>Node9&#45;&gt;Node7</title>
<path fill="none" stroke="midnightblue" d="M785.4,-334.55C875.65,-330.67 1019.36,-320.68 1141,-295 1164.04,-290.14 1189.43,-281.34 1207.34,-274.53"/>
<polygon fill="midnightblue" stroke="midnightblue" points="785.05,-331.06 775.21,-334.97 785.34,-338.05 785.05,-331.06"/>
</g>
<!-- Node10 -->
<g id="node10" class="node">
<title>Node10</title>
<g id="a_node10"><a xlink:href="class_shared_factory.html" target="_top" xlink:title=" ">
<polygon fill="none" stroke="black" points="140.5,-287.5 140.5,-306.5 254.5,-306.5 254.5,-287.5 140.5,-287.5"/>
<text text-anchor="middle" x="197.5" y="-294.5" font-family="Helvetica,sans-Serif" font-size="10.00">SharedFactory&lt; T &gt;</text>
</a>
</g>
</g>
<!-- Node10&#45;&gt;Node9 -->
<g id="edge11" class="edge">
<title>Node10&#45;&gt;Node9</title>
<path fill="none" stroke="orange" stroke-dasharray="5,2" d="M251.46,-308.34C259.32,-309.74 267.35,-311.03 275,-312 393.66,-327.1 532.36,-333.11 616.91,-335.48"/>
<polygon fill="orange" stroke="orange" points="252.1,-304.9 241.62,-306.51 250.81,-311.78 252.1,-304.9"/>
<text text-anchor="middle" x="349" y="-328" font-family="Helvetica,sans-Serif" font-size="10.00"> &lt; SimTerminal&lt; Real &gt; &gt;</text>
</g>
<!-- Node12 -->
<g id="node12" class="node">
<title>Node12</title>
<g id="a_node12"><a xlink:href="class_shared_factory.html" target="_top" xlink:title=" ">
<polygon fill="none" stroke="black" points="441,-282 441,-312 599,-312 599,-282 441,-282"/>
<text text-anchor="start" x="449" y="-300" font-family="Helvetica,sans-Serif" font-size="10.00">SharedFactory&lt; SimTerminal</text>
<text text-anchor="middle" x="520" y="-289" font-family="Helvetica,sans-Serif" font-size="10.00">&lt; VarType &gt; &gt;</text>
</a>
</g>
</g>
<!-- Node10&#45;&gt;Node12 -->
<g id="edge15" class="edge">
<title>Node10&#45;&gt;Node12</title>
<path fill="none" stroke="orange" stroke-dasharray="5,2" d="M264.98,-297C316.15,-297 387.01,-297 440.89,-297"/>
<polygon fill="orange" stroke="orange" points="264.69,-293.5 254.69,-297 264.69,-300.5 264.69,-293.5"/>
<text text-anchor="middle" x="349" y="-300" font-family="Helvetica,sans-Serif" font-size="10.00"> &lt; SimTerminal&lt; VarType &gt; &gt;</text>
</g>
<!-- Node16 -->
<g id="node16" class="node">
<title>Node16</title>
<g id="a_node16"><a xlink:href="class_shared_factory.html" target="_top" xlink:title=" ">
<polygon fill="none" stroke="black" points="625.5,-197 625.5,-227 766.5,-227 766.5,-197 625.5,-197"/>
<text text-anchor="start" x="633.5" y="-215" font-family="Helvetica,sans-Serif" font-size="10.00">SharedFactory&lt; SimNode</text>
<text text-anchor="middle" x="696" y="-204" font-family="Helvetica,sans-Serif" font-size="10.00">&lt; Real &gt; &gt;</text>
</a>
</g>
</g>
<!-- Node10&#45;&gt;Node16 -->
<g id="edge21" class="edge">
<title>Node10&#45;&gt;Node16</title>
<path fill="none" stroke="orange" stroke-dasharray="5,2" d="M238.01,-284.55C285.64,-270.05 368.36,-246.49 441,-234 502.83,-223.37 574.07,-217.76 625.33,-214.88"/>
<polygon fill="orange" stroke="orange" points="236.92,-281.22 228.39,-287.5 238.98,-287.91 236.92,-281.22"/>
<text text-anchor="middle" x="349" y="-276" font-family="Helvetica,sans-Serif" font-size="10.00"> &lt; SimNode&lt; Real &gt; &gt;</text>
</g>
<!-- Node19 -->
<g id="node19" class="node">
<title>Node19</title>
<g id="a_node19"><a xlink:href="class_shared_factory.html" target="_top" xlink:title=" ">
<polygon fill="none" stroke="black" points="449.5,-156 449.5,-186 590.5,-186 590.5,-156 449.5,-156"/>
<text text-anchor="start" x="457.5" y="-174" font-family="Helvetica,sans-Serif" font-size="10.00">SharedFactory&lt; SimNode</text>
<text text-anchor="middle" x="520" y="-163" font-family="Helvetica,sans-Serif" font-size="10.00">&lt; VarType &gt; &gt;</text>
</a>
</g>
</g>
<!-- Node10&#45;&gt;Node19 -->
<g id="edge26" class="edge">
<title>Node10&#45;&gt;Node19</title>
<path fill="none" stroke="orange" stroke-dasharray="5,2" d="M204.92,-277.87C215.07,-251.04 237.59,-203.14 275,-182 327.88,-152.11 397.98,-152.23 449.47,-158.13"/>
<polygon fill="orange" stroke="orange" points="201.61,-276.74 201.53,-287.33 208.2,-279.1 201.61,-276.74"/>
<text text-anchor="middle" x="349" y="-185" font-family="Helvetica,sans-Serif" font-size="10.00"> &lt; SimNode&lt; VarType &gt; &gt;</text>
</g>
<!-- Node22 -->
<g id="node22" class="node">
<title>Node22</title>
<g id="a_node22"><a xlink:href="class_shared_factory.html" target="_top" xlink:title=" ">
<polygon fill="none" stroke="black" points="974,-372 974,-402 1141,-402 1141,-372 974,-372"/>
<text text-anchor="start" x="982" y="-390" font-family="Helvetica,sans-Serif" font-size="10.00">SharedFactory&lt; VoltageSource</text>
<text text-anchor="middle" x="1057.5" y="-379" font-family="Helvetica,sans-Serif" font-size="10.00">Norton &gt;</text>
</a>
</g>
</g>
<!-- Node10&#45;&gt;Node22 -->
<g id="edge31" class="edge">
<title>Node10&#45;&gt;Node22</title>
<path fill="none" stroke="orange" stroke-dasharray="5,2" d="M225.58,-311.46C235.52,-316.86 246.83,-323.11 257,-329 265.12,-333.7 266.06,-337.17 275,-340 519.77,-417.43 828.76,-406.19 973.97,-394.97"/>
<polygon fill="orange" stroke="orange" points="227.01,-308.26 216.55,-306.58 223.68,-314.41 227.01,-308.26"/>
<text text-anchor="middle" x="520" y="-399" font-family="Helvetica,sans-Serif" font-size="10.00"> &lt; VoltageSourceNorton &gt;</text>
</g>
<!-- Node11&#45;&gt;Node7 -->
<g id="edge12" class="edge">
<title>Node11&#45;&gt;Node7</title>
<path fill="none" stroke="orange" stroke-dasharray="5,2" d="M966.36,-279.89C1026.11,-276.53 1103.24,-272.19 1158.8,-269.06"/>
<polygon fill="orange" stroke="orange" points="965.96,-276.41 956.17,-280.46 966.35,-283.39 965.96,-276.41"/>
<text text-anchor="middle" x="1057.5" y="-283" font-family="Helvetica,sans-Serif" font-size="10.00"> &lt; Real &gt;</text>
</g>
<!-- Node12&#45;&gt;Node11 -->
<g id="edge14" class="edge">
<title>Node12&#45;&gt;Node11</title>
<path fill="none" stroke="midnightblue" d="M609.54,-293.99C665.8,-292.07 738.05,-289.61 792.74,-287.75"/>
<polygon fill="midnightblue" stroke="midnightblue" points="609.11,-290.5 599.23,-294.34 609.34,-297.49 609.11,-290.5"/>
</g>
<!-- Node13 -->
<g id="node13" class="node">
<title>Node13</title>
<g id="a_node13"><a xlink:href="class_c_p_s_1_1_sim_node.html" target="_top" xlink:title=" ">
<polygon fill="none" stroke="black" points="1167,-122.5 1167,-141.5 1297,-141.5 1297,-122.5 1167,-122.5"/>
<text text-anchor="middle" x="1232" y="-129.5" font-family="Helvetica,sans-Serif" font-size="10.00">CPS::SimNode&lt; Real &gt;</text>
</a>
</g>
</g>
<!-- Node13&#45;&gt;Node4 -->
<g id="edge16" class="edge">
<title>Node13&#45;&gt;Node4</title>
<path fill="none" stroke="#9a32cd" stroke-dasharray="5,2" d="M1307.34,-132C1347.78,-132 1397.26,-132 1435.74,-132"/>
<polygon fill="#9a32cd" stroke="#9a32cd" points="1307.27,-128.5 1297.27,-132 1307.27,-135.5 1307.27,-128.5"/>
<text text-anchor="middle" x="1361" y="-135" font-family="Helvetica,sans-Serif" font-size="10.00"> mVirtualNodes</text>
</g>
<!-- Node14&#45;&gt;Node13 -->
<g id="edge17" class="edge">
<title>Node14&#45;&gt;Node13</title>
<path fill="none" stroke="midnightblue" d="M591.28,-73.43C729.35,-86.07 1034.13,-113.98 1166.99,-126.14"/>
<polygon fill="midnightblue" stroke="midnightblue" points="591.51,-69.94 581.23,-72.51 590.87,-76.91 591.51,-69.94"/>
</g>
<!-- Node17 -->
<g id="node17" class="node">
<title>Node17</title>
<g id="a_node17"><a xlink:href="class_c_p_s_1_1_sim_node.html" target="_top" xlink:title=" ">
<polygon fill="none" stroke="black" points="801.5,-136.5 801.5,-155.5 947.5,-155.5 947.5,-136.5 801.5,-136.5"/>
<text text-anchor="middle" x="874.5" y="-143.5" font-family="Helvetica,sans-Serif" font-size="10.00">CPS::SimNode&lt; VarType &gt;</text>
</a>
</g>
</g>
<!-- Node14&#45;&gt;Node17 -->
<g id="edge23" class="edge">
<title>Node14&#45;&gt;Node17</title>
<path fill="none" stroke="midnightblue" d="M588.1,-80.34C591.89,-82.01 595.56,-83.89 599,-86 609.48,-92.43 606.25,-101.04 617,-107 632.93,-115.84 731.13,-129.08 801.27,-137.63"/>
<polygon fill="midnightblue" stroke="midnightblue" points="589.07,-76.96 578.48,-76.6 586.54,-83.48 589.07,-76.96"/>
</g>
<!-- Node15 -->
<g id="node15" class="node">
<title>Node15</title>
<g id="a_node15"><a xlink:title=" ">
<polygon fill="none" stroke="#bfbfbf" points="812.5,-38.5 812.5,-79.5 936.5,-79.5 936.5,-38.5 812.5,-38.5"/>
<text text-anchor="start" x="820.5" y="-67.5" font-family="Helvetica,sans-Serif" font-size="10.00">std::enable_shared</text>
<text text-anchor="start" x="820.5" y="-56.5" font-family="Helvetica,sans-Serif" font-size="10.00">_from_this&lt; SimNode</text>
<text text-anchor="middle" x="874.5" y="-45.5" font-family="Helvetica,sans-Serif" font-size="10.00">&lt; Real &gt; &gt;</text>
</a>
</g>
</g>
<!-- Node15&#45;&gt;Node13 -->
<g id="edge19" class="edge">
<title>Node15&#45;&gt;Node13</title>
<path fill="none" stroke="midnightblue" d="M946.69,-63.18C1000.74,-67.6 1076.51,-76.48 1141,-94 1154.5,-97.67 1187.99,-112.39 1210.09,-122.4"/>
<polygon fill="midnightblue" stroke="midnightblue" points="946.76,-59.68 936.52,-62.38 946.21,-66.65 946.76,-59.68"/>
</g>
<!-- Node16&#45;&gt;Node13 -->
<g id="edge20" class="edge">
<title>Node16&#45;&gt;Node13</title>
<path fill="none" stroke="midnightblue" d="M776.78,-205.69C866.1,-197.81 1014.85,-182.19 1141,-157 1161.2,-152.97 1183.5,-146.78 1200.86,-141.57"/>
<polygon fill="midnightblue" stroke="midnightblue" points="776.38,-202.22 766.72,-206.57 776.99,-209.19 776.38,-202.22"/>
</g>
<!-- Node17&#45;&gt;Node13 -->
<g id="edge22" class="edge">
<title>Node17&#45;&gt;Node13</title>
<path fill="none" stroke="orange" stroke-dasharray="5,2" d="M957.87,-142.76C1021.49,-140.25 1108.26,-136.83 1166.79,-134.53"/>
<polygon fill="orange" stroke="orange" points="957.72,-139.26 947.87,-143.15 958,-146.25 957.72,-139.26"/>
<text text-anchor="middle" x="1057.5" y="-145" font-family="Helvetica,sans-Serif" font-size="10.00"> &lt; Real &gt;</text>
</g>
<!-- Node18 -->
<g id="node18" class="node">
<title>Node18</title>
<g id="a_node18"><a xlink:title=" ">
<polygon fill="none" stroke="#bfbfbf" points="458,-95.5 458,-136.5 582,-136.5 582,-95.5 458,-95.5"/>
<text text-anchor="start" x="466" y="-124.5" font-family="Helvetica,sans-Serif" font-size="10.00">std::enable_shared</text>
<text text-anchor="start" x="466" y="-113.5" font-family="Helvetica,sans-Serif" font-size="10.00">_from_this&lt; SimNode</text>
<text text-anchor="middle" x="520" y="-102.5" font-family="Helvetica,sans-Serif" font-size="10.00">&lt; VarType &gt; &gt;</text>
</a>
</g>
</g>
<!-- Node18&#45;&gt;Node17 -->
<g id="edge24" class="edge">
<title>Node18&#45;&gt;Node17</title>
<path fill="none" stroke="midnightblue" d="M592.18,-128.76C600.53,-129.99 608.94,-131.11 617,-132 679.06,-138.84 749.95,-142.39 801.46,-144.2"/>
<polygon fill="midnightblue" stroke="midnightblue" points="592.47,-125.27 582.06,-127.22 591.41,-132.19 592.47,-125.27"/>
</g>
<!-- Node19&#45;&gt;Node17 -->
<g id="edge25" class="edge">
<title>Node19&#45;&gt;Node17</title>
<path fill="none" stroke="midnightblue" d="M600.73,-167.76C650.81,-165.43 716.74,-161.86 775,-157 783.57,-156.29 792.56,-155.43 801.46,-154.52"/>
<polygon fill="midnightblue" stroke="midnightblue" points="600.44,-164.26 590.61,-168.22 600.76,-171.26 600.44,-164.26"/>
</g>
<!-- Node20&#45;&gt;Node4 -->
<g id="edge27" class="edge">
<title>Node20&#45;&gt;Node4</title>
<path fill="none" stroke="orange" stroke-dasharray="5,2" d="M1305.47,-91.29C1346.3,-99.9 1396.78,-110.54 1435.88,-118.79"/>
<polygon fill="orange" stroke="orange" points="1306.09,-87.84 1295.58,-89.2 1304.65,-94.69 1306.09,-87.84"/>
<text text-anchor="middle" x="1361" y="-114" font-family="Helvetica,sans-Serif" font-size="10.00"> &lt; Real &gt;</text>
</g>
<!-- Node21 -->
<g id="node21" class="node">
<title>Node21</title>
<g id="a_node21"><a xlink:href="class_c_p_s_1_1_base_1_1_ph1_1_1_voltage_source.html" target="_top" xlink:title=" ">
<polygon fill="none" stroke="black" points="1417,-339.5 1417,-358.5 1582,-358.5 1582,-339.5 1417,-339.5"/>
<text text-anchor="middle" x="1499.5" y="-346.5" font-family="Helvetica,sans-Serif" font-size="10.00">CPS::Base::Ph1::VoltageSource</text>
</a>
</g>
</g>
<!-- Node21&#45;&gt;Node1 -->
<g id="edge29" class="edge">
<title>Node21&#45;&gt;Node1</title>
<path fill="none" stroke="midnightblue" d="M1592.2,-357.8C1601.13,-358.66 1610.13,-359.52 1618.92,-360.36"/>
<polygon fill="midnightblue" stroke="midnightblue" points="1592.47,-354.31 1582.18,-356.84 1591.8,-361.28 1592.47,-354.31"/>
</g>
<!-- Node22&#45;&gt;Node1 -->
<g id="edge30" class="edge">
<title>Node22&#45;&gt;Node1</title>
<path fill="none" stroke="midnightblue" d="M1151.45,-384.81C1259.5,-382.17 1443.19,-377.42 1601,-372 1606.84,-371.8 1612.88,-371.58 1618.95,-371.35"/>
<polygon fill="midnightblue" stroke="midnightblue" points="1151.14,-381.31 1141.23,-385.06 1151.31,-388.31 1151.14,-381.31"/>
</g>
</g>
</svg>
