<?xml version="1.0" encoding="UTF-8" standalone="no"?>
<!DOCTYPE svg PUBLIC "-//W3C//DTD SVG 1.1//EN"
 "http://www.w3.org/Graphics/SVG/1.1/DTD/svg11.dtd">
<!-- Generated by graphviz version 2.42.4 (0)
 -->
<!-- Title: CPS::DP::Ph1::PiLine Pages: 1 -->
<svg width="1142pt" height="168pt"
 viewBox="0.00 0.00 1142.00 168.22" xmlns="http://www.w3.org/2000/svg" xmlns:xlink="http://www.w3.org/1999/xlink">
<g id="graph0" class="graph" transform="scale(1 1) rotate(0) translate(4 164.22)">
<title>CPS::DP::Ph1::PiLine</title>
<!-- Node1 -->
<g id="node1" class="node">
<title>Node1</title>
<g id="a_node1"><a xlink:title="PI&#45;line dynamic phasor model.">
<polygon fill="#bfbfbf" stroke="black" points="1020,-57.5 1020,-76.5 1134,-76.5 1134,-57.5 1020,-57.5"/>
<text text-anchor="middle" x="1077" y="-64.5" font-family="Helvetica,sans-Serif" font-size="10.00">CPS::DP::Ph1::PiLine</text>
</a>
</g>
</g>
<!-- Node2 -->
<g id="node2" class="node">
<title>Node2</title>
<g id="a_node2"><a xlink:href="class_c_p_s_1_1_sim_power_comp.html" target="_top" xlink:title=" ">
<polygon fill="none" stroke="black" points="851,-115 851,-145 978,-145 978,-115 851,-115"/>
<text text-anchor="start" x="859" y="-133" font-family="Helvetica,sans-Serif" font-size="10.00">CPS::SimPowerComp&lt;</text>
<text text-anchor="middle" x="914.5" y="-122" font-family="Helvetica,sans-Serif" font-size="10.00"> Complex &gt;</text>
</a>
</g>
</g>
<!-- Node2&#45;&gt;Node1 -->
<g id="edge1" class="edge">
<title>Node2&#45;&gt;Node1</title>
<path fill="none" stroke="midnightblue" d="M970.61,-111.68C981.09,-107.97 991.93,-103.98 1002,-100 1020.44,-92.7 1041.02,-83.43 1055.78,-76.58"/>
<polygon fill="midnightblue" stroke="midnightblue" points="969.4,-108.4 961.11,-115 971.71,-115 969.4,-108.4"/>
</g>
<!-- Node3 -->
<g id="node3" class="node">
<title>Node3</title>
<g id="a_node3"><a xlink:href="class_c_p_s_1_1_topological_power_comp.html" target="_top" xlink:title=" ">
<polygon fill="none" stroke="black" points="294,-120.5 294,-139.5 449,-139.5 449,-120.5 294,-120.5"/>
<text text-anchor="middle" x="371.5" y="-127.5" font-family="Helvetica,sans-Serif" font-size="10.00">CPS::TopologicalPowerComp</text>
</a>
</g>
</g>
<!-- Node3&#45;&gt;Node2 -->
<g id="edge2" class="edge">
<title>Node3&#45;&gt;Node2</title>
<path fill="none" stroke="midnightblue" d="M442.25,-140.91C450.58,-142.04 458.97,-143.1 467,-144 626.46,-161.8 669.2,-167.93 828,-145 835.46,-143.92 843.26,-142.69 851,-141.41"/>
<polygon fill="midnightblue" stroke="midnightblue" points="442.54,-137.42 432.15,-139.5 441.57,-144.35 442.54,-137.42"/>
</g>
<!-- Node6 -->
<g id="node6" class="node">
<title>Node6</title>
<g id="a_node6"><a xlink:href="class_c_p_s_1_1_sim_power_comp.html" target="_top" xlink:title="Base class for all components that are transmitting power.">
<polygon fill="none" stroke="black" points="613,-115 613,-145 740,-145 740,-115 613,-115"/>
<text text-anchor="start" x="621" y="-133" font-family="Helvetica,sans-Serif" font-size="10.00">CPS::SimPowerComp&lt;</text>
<text text-anchor="middle" x="676.5" y="-122" font-family="Helvetica,sans-Serif" font-size="10.00"> VarType &gt;</text>
</a>
</g>
</g>
<!-- Node3&#45;&gt;Node6 -->
<g id="edge6" class="edge">
<title>Node3&#45;&gt;Node6</title>
<path fill="none" stroke="midnightblue" d="M459.6,-130C508.43,-130 568.24,-130 612.51,-130"/>
<polygon fill="midnightblue" stroke="midnightblue" points="459.35,-126.5 449.35,-130 459.35,-133.5 459.35,-126.5"/>
</g>
<!-- Node4 -->
<g id="node4" class="node">
<title>Node4</title>
<g id="a_node4"><a xlink:href="class_c_p_s_1_1_identified_object.html" target="_top" xlink:title=" ">
<polygon fill="none" stroke="black" points="138,-120.5 138,-139.5 257,-139.5 257,-120.5 138,-120.5"/>
<text text-anchor="middle" x="197.5" y="-127.5" font-family="Helvetica,sans-Serif" font-size="10.00">CPS::IdentifiedObject</text>
</a>
</g>
</g>
<!-- Node4&#45;&gt;Node3 -->
<g id="edge3" class="edge">
<title>Node4&#45;&gt;Node3</title>
<path fill="none" stroke="midnightblue" d="M267.31,-130C276.02,-130 284.98,-130 293.81,-130"/>
<polygon fill="midnightblue" stroke="midnightblue" points="267.21,-126.5 257.21,-130 267.21,-133.5 267.21,-126.5"/>
</g>
<!-- Node5 -->
<g id="node5" class="node">
<title>Node5</title>
<g id="a_node5"><a xlink:href="class_c_p_s_1_1_attribute_list.html" target="_top" xlink:title="Base class of objects having attributes to access member variables.">
<polygon fill="none" stroke="black" points="0,-99.5 0,-118.5 101,-118.5 101,-99.5 0,-99.5"/>
<text text-anchor="middle" x="50.5" y="-106.5" font-family="Helvetica,sans-Serif" font-size="10.00">CPS::AttributeList</text>
</a>
</g>
</g>
<!-- Node5&#45;&gt;Node4 -->
<g id="edge4" class="edge">
<title>Node5&#45;&gt;Node4</title>
<path fill="none" stroke="midnightblue" d="M111.46,-117.68C120.16,-118.94 129.1,-120.24 137.77,-121.49"/>
<polygon fill="midnightblue" stroke="midnightblue" points="111.8,-114.2 101.4,-116.23 110.8,-121.12 111.8,-114.2"/>
</g>
<!-- Node8 -->
<g id="node8" class="node">
<title>Node8</title>
<g id="a_node8"><a xlink:href="class_c_p_s_1_1_m_n_a_interface.html" target="_top" xlink:title="Interface to be implemented by all models used by the MNA solver.">
<polygon fill="none" stroke="black" points="143.5,-81.5 143.5,-100.5 251.5,-100.5 251.5,-81.5 143.5,-81.5"/>
<text text-anchor="middle" x="197.5" y="-88.5" font-family="Helvetica,sans-Serif" font-size="10.00">CPS::MNAInterface</text>
</a>
</g>
</g>
<!-- Node5&#45;&gt;Node8 -->
<g id="edge9" class="edge">
<title>Node5&#45;&gt;Node8</title>
<path fill="none" stroke="midnightblue" d="M111.33,-101.57C121.84,-100.27 132.72,-98.92 143.04,-97.64"/>
<polygon fill="midnightblue" stroke="midnightblue" points="110.89,-98.1 101.4,-102.81 111.76,-105.05 110.89,-98.1"/>
</g>
<!-- Node6&#45;&gt;Node2 -->
<g id="edge5" class="edge">
<title>Node6&#45;&gt;Node2</title>
<path fill="none" stroke="orange" stroke-dasharray="5,2" d="M750.38,-130C782.59,-130 820.08,-130 850.99,-130"/>
<polygon fill="orange" stroke="orange" points="750.12,-126.5 740.12,-130 750.12,-133.5 750.12,-126.5"/>
<text text-anchor="middle" x="793" y="-133" font-family="Helvetica,sans-Serif" font-size="10.00"> &lt; Complex &gt;</text>
</g>
<!-- Node7 -->
<g id="node7" class="node">
<title>Node7</title>
<g id="a_node7"><a xlink:href="class_c_p_s_1_1_m_n_a_tear_interface.html" target="_top" xlink:title=" ">
<polygon fill="none" stroke="black" points="467,-77.5 467,-96.5 595,-96.5 595,-77.5 467,-77.5"/>
<text text-anchor="middle" x="531" y="-84.5" font-family="Helvetica,sans-Serif" font-size="10.00">CPS::MNATearInterface</text>
</a>
</g>
</g>
<!-- Node7&#45;&gt;Node1 -->
<g id="edge7" class="edge">
<title>Node7&#45;&gt;Node1</title>
<path fill="none" stroke="midnightblue" d="M605.22,-85.47C697.7,-83.35 861.71,-78.98 1002,-72 1007.79,-71.71 1013.83,-71.37 1019.85,-71"/>
<polygon fill="midnightblue" stroke="midnightblue" points="605.04,-81.97 595.13,-85.7 605.2,-88.97 605.04,-81.97"/>
</g>
<!-- Node8&#45;&gt;Node7 -->
<g id="edge8" class="edge">
<title>Node8&#45;&gt;Node7</title>
<path fill="none" stroke="midnightblue" d="M262.06,-90.23C320.99,-89.52 408.2,-88.47 466.96,-87.76"/>
<polygon fill="midnightblue" stroke="midnightblue" points="261.72,-86.74 251.76,-90.36 261.8,-93.74 261.72,-86.74"/>
</g>
<!-- Node9 -->
<g id="node9" class="node">
<title>Node9</title>
<g id="a_node9"><a xlink:href="class_c_p_s_1_1_base_1_1_ph1_1_1_pi_line.html" target="_top" xlink:title=" ">
<polygon fill="none" stroke="black" points="852,-38.5 852,-57.5 977,-57.5 977,-38.5 852,-38.5"/>
<text text-anchor="middle" x="914.5" y="-45.5" font-family="Helvetica,sans-Serif" font-size="10.00">CPS::Base::Ph1::PiLine</text>
</a>
</g>
</g>
<!-- Node9&#45;&gt;Node1 -->
<g id="edge10" class="edge">
<title>Node9&#45;&gt;Node1</title>
<path fill="none" stroke="midnightblue" d="M987.09,-56.47C998.06,-57.77 1009.25,-59.1 1019.83,-60.35"/>
<polygon fill="midnightblue" stroke="midnightblue" points="987.44,-52.99 977.09,-55.29 986.61,-59.94 987.44,-52.99"/>
</g>
<!-- Node10 -->
<g id="node10" class="node">
<title>Node10</title>
<g id="a_node10"><a xlink:href="class_shared_factory.html" target="_top" xlink:title=" ">
<polygon fill="none" stroke="black" points="846,-0.5 846,-19.5 983,-19.5 983,-0.5 846,-0.5"/>
<text text-anchor="middle" x="914.5" y="-7.5" font-family="Helvetica,sans-Serif" font-size="10.00">SharedFactory&lt; PiLine &gt;</text>
</a>
</g>
</g>
<!-- Node10&#45;&gt;Node1 -->
<g id="edge11" class="edge">
<title>Node10&#45;&gt;Node1</title>
<path fill="none" stroke="midnightblue" d="M961.78,-22.28C968.93,-24.39 976.19,-26.66 983,-29 1007.91,-37.56 1035.79,-49.24 1054.47,-57.39"/>
<polygon fill="midnightblue" stroke="midnightblue" points="962.74,-18.91 952.17,-19.5 960.81,-25.64 962.74,-18.91"/>
</g>
<!-- Node11 -->
<g id="node11" class="node">
<title>Node11</title>
<g id="a_node11"><a xlink:href="class_shared_factory.html" target="_top" xlink:title=" ">
<polygon fill="none" stroke="black" points="619.5,-0.5 619.5,-19.5 733.5,-19.5 733.5,-0.5 619.5,-0.5"/>
<text text-anchor="middle" x="676.5" y="-7.5" font-family="Helvetica,sans-Serif" font-size="10.00">SharedFactory&lt; T &gt;</text>
</a>
</g>
</g>
<!-- Node11&#45;&gt;Node10 -->
<g id="edge12" class="edge">
<title>Node11&#45;&gt;Node10</title>
<path fill="none" stroke="orange" stroke-dasharray="5,2" d="M743.85,-10C775.73,-10 813.89,-10 845.94,-10"/>
<polygon fill="orange" stroke="orange" points="743.73,-6.5 733.73,-10 743.73,-13.5 743.73,-6.5"/>
<text text-anchor="middle" x="793" y="-13" font-family="Helvetica,sans-Serif" font-size="10.00"> &lt; PiLine &gt;</text>
</g>
</g>
</svg>
