<?xml version="1.0" encoding="UTF-8" standalone="no"?>
<!DOCTYPE svg PUBLIC "-//W3C//DTD SVG 1.1//EN"
 "http://www.w3.org/Graphics/SVG/1.1/DTD/svg11.dtd">
<!-- Generated by graphviz version 2.42.4 (0)
 -->
<!-- Title: DPsim::AttributeEvent&lt; T &gt; Pages: 1 -->
<svg width="303pt" height="163pt"
 viewBox="0.00 0.00 303.00 163.00" xmlns="http://www.w3.org/2000/svg" xmlns:xlink="http://www.w3.org/1999/xlink">
<g id="graph0" class="graph" transform="scale(1 1) rotate(0) translate(4 159)">
<title>DPsim::AttributeEvent&lt; T &gt;</title>
<!-- Node1 -->
<g id="node1" class="node">
<title>Node1</title>
<g id="a_node1"><a xlink:title=" ">
<polygon fill="#bfbfbf" stroke="black" points="2.5,-0.5 2.5,-19.5 155.5,-19.5 155.5,-0.5 2.5,-0.5"/>
<text text-anchor="middle" x="79" y="-7.5" font-family="Helvetica,sans-Serif" font-size="10.00">DPsim::AttributeEvent&lt; T &gt;</text>
</a>
</g>
</g>
<!-- Node2 -->
<g id="node2" class="node">
<title>Node2</title>
<g id="a_node2"><a xlink:href="class_d_psim_1_1_event.html" target="_top" xlink:title=" ">
<polygon fill="none" stroke="black" points="0,-63 0,-82 82,-82 82,-63 0,-63"/>
<text text-anchor="middle" x="41" y="-70" font-family="Helvetica,sans-Serif" font-size="10.00">DPsim::Event</text>
</a>
</g>
</g>
<!-- Node2&#45;&gt;Node1 -->
<g id="edge1" class="edge">
<title>Node2&#45;&gt;Node1</title>
<path fill="none" stroke="midnightblue" d="M51.85,-54.22C58.95,-42.92 67.93,-28.63 73.57,-19.65"/>
<polygon fill="midnightblue" stroke="midnightblue" points="48.8,-52.5 46.44,-62.83 54.73,-56.23 48.8,-52.5"/>
</g>
<!-- Node3 -->
<g id="node3" class="node">
<title>Node3</title>
<g id="a_node3"><a xlink:href="class_shared_factory.html" target="_top" xlink:title=" ">
<polygon fill="none" stroke="black" points="100,-57.5 100,-87.5 240,-87.5 240,-57.5 100,-57.5"/>
<text text-anchor="start" x="108" y="-75.5" font-family="Helvetica,sans-Serif" font-size="10.00">SharedFactory&lt; Attribute</text>
<text text-anchor="middle" x="170" y="-64.5" font-family="Helvetica,sans-Serif" font-size="10.00">Event&lt; T &gt; &gt;</text>
</a>
</g>
</g>
<!-- Node3&#45;&gt;Node1 -->
<g id="edge2" class="edge">
<title>Node3&#45;&gt;Node1</title>
<path fill="none" stroke="midnightblue" d="M140.18,-51.67C123.81,-40.79 104.35,-27.85 91.85,-19.54"/>
<polygon fill="midnightblue" stroke="midnightblue" points="138.63,-54.85 148.89,-57.47 142.5,-49.02 138.63,-54.85"/>
</g>
<!-- Node4 -->
<g id="node4" class="node">
<title>Node4</title>
<g id="a_node4"><a xlink:href="class_shared_factory.html" target="_top" xlink:title=" ">
<polygon fill="none" stroke="black" points="113,-135.5 113,-154.5 227,-154.5 227,-135.5 113,-135.5"/>
<text text-anchor="middle" x="170" y="-142.5" font-family="Helvetica,sans-Serif" font-size="10.00">SharedFactory&lt; T &gt;</text>
</a>
</g>
</g>
<!-- Node4&#45;&gt;Node3 -->
<g id="edge3" class="edge">
<title>Node4&#45;&gt;Node3</title>
<path fill="none" stroke="orange" stroke-dasharray="5,2" d="M170,-125.24C170,-113.41 170,-98.38 170,-87.58"/>
<polygon fill="orange" stroke="orange" points="166.5,-125.36 170,-135.36 173.5,-125.36 166.5,-125.36"/>
<text text-anchor="middle" x="232.5" y="-109" font-family="Helvetica,sans-Serif" font-size="10.00"> &lt; AttributeEvent&lt; T &gt; &gt;</text>
</g>
</g>
</svg>
