<?xml version="1.0" encoding="UTF-8" standalone="no"?>
<!DOCTYPE svg PUBLIC "-//W3C//DTD SVG 1.1//EN"
 "http://www.w3.org/Graphics/SVG/1.1/DTD/svg11.dtd">
<!-- Generated by graphviz version 2.42.4 (0)
 -->
<!-- Title: CPS::SimSignalComp Pages: 1 -->
<svg width="1029pt" height="300pt"
 viewBox="0.00 0.00 1029.00 300.00" xmlns="http://www.w3.org/2000/svg" xmlns:xlink="http://www.w3.org/1999/xlink">
<g id="graph0" class="graph" transform="scale(1 1) rotate(0) translate(4 296)">
<title>CPS::SimSignalComp</title>
<!-- Node1 -->
<g id="node1" class="node">
<title>Node1</title>
<g id="a_node1"><a xlink:title=" ">
<polygon fill="#bfbfbf" stroke="black" points="483,-158.5 483,-177.5 602,-177.5 602,-158.5 483,-158.5"/>
<text text-anchor="middle" x="542.5" y="-165.5" font-family="Helvetica,sans-Serif" font-size="10.00">CPS::SimSignalComp</text>
</a>
</g>
</g>
<!-- Node5 -->
<g id="node5" class="node">
<title>Node5</title>
<g id="a_node5"><a xlink:href="class_c_p_s_1_1_signal_1_1_decoupling_line.html" target="_top" xlink:title=" ">
<polygon fill="none" stroke="black" points="648.5,-272.5 648.5,-291.5 800.5,-291.5 800.5,-272.5 648.5,-272.5"/>
<text text-anchor="middle" x="724.5" y="-279.5" font-family="Helvetica,sans-Serif" font-size="10.00">CPS::Signal::DecouplingLine</text>
</a>
</g>
</g>
<!-- Node1&#45;&gt;Node5 -->
<g id="edge4" class="edge">
<title>Node1&#45;&gt;Node5</title>
<path fill="none" stroke="midnightblue" d="M556.17,-185.93C572.52,-207.66 603.05,-243.76 638,-263 645.06,-266.89 652.86,-269.98 660.79,-272.44"/>
<polygon fill="midnightblue" stroke="midnightblue" points="558.79,-183.58 550.06,-177.58 553.14,-187.72 558.79,-183.58"/>
</g>
<!-- Node6 -->
<g id="node6" class="node">
<title>Node6</title>
<g id="a_node6"><a xlink:href="class_c_p_s_1_1_signal_1_1_decoupling_line_e_m_t.html" target="_top" xlink:title=" ">
<polygon fill="none" stroke="black" points="638,-234.5 638,-253.5 811,-253.5 811,-234.5 638,-234.5"/>
<text text-anchor="middle" x="724.5" y="-241.5" font-family="Helvetica,sans-Serif" font-size="10.00">CPS::Signal::DecouplingLineEMT</text>
</a>
</g>
</g>
<!-- Node1&#45;&gt;Node6 -->
<g id="edge5" class="edge">
<title>Node1&#45;&gt;Node6</title>
<path fill="none" stroke="midnightblue" d="M564.5,-183.41C583,-196.29 611.1,-214.23 638,-225 647.46,-228.79 657.82,-231.89 667.97,-234.41"/>
<polygon fill="midnightblue" stroke="midnightblue" points="566.43,-180.48 556.25,-177.55 562.37,-186.19 566.43,-180.48"/>
</g>
<!-- Node7 -->
<g id="node7" class="node">
<title>Node7</title>
<g id="a_node7"><a xlink:href="class_c_p_s_1_1_signal_1_1_f_i_r_filter.html" target="_top" xlink:title=" ">
<polygon fill="none" stroke="black" points="665.5,-196.5 665.5,-215.5 783.5,-215.5 783.5,-196.5 665.5,-196.5"/>
<text text-anchor="middle" x="724.5" y="-203.5" font-family="Helvetica,sans-Serif" font-size="10.00">CPS::Signal::FIRFilter</text>
</a>
</g>
</g>
<!-- Node1&#45;&gt;Node7 -->
<g id="edge6" class="edge">
<title>Node1&#45;&gt;Node7</title>
<path fill="none" stroke="midnightblue" d="M598.83,-179.68C624.36,-185.07 654.28,-191.39 678.41,-196.48"/>
<polygon fill="midnightblue" stroke="midnightblue" points="599.43,-176.23 588.92,-177.59 597.98,-183.08 599.43,-176.23"/>
</g>
<!-- Node8 -->
<g id="node8" class="node">
<title>Node8</title>
<g id="a_node8"><a xlink:href="class_c_p_s_1_1_signal_1_1_integrator.html" target="_top" xlink:title=" ">
<polygon fill="none" stroke="black" points="662,-158.5 662,-177.5 787,-177.5 787,-158.5 662,-158.5"/>
<text text-anchor="middle" x="724.5" y="-165.5" font-family="Helvetica,sans-Serif" font-size="10.00">CPS::Signal::Integrator</text>
</a>
</g>
</g>
<!-- Node1&#45;&gt;Node8 -->
<g id="edge7" class="edge">
<title>Node1&#45;&gt;Node8</title>
<path fill="none" stroke="midnightblue" d="M612.44,-168C628.74,-168 646.01,-168 661.96,-168"/>
<polygon fill="midnightblue" stroke="midnightblue" points="612.44,-164.5 602.44,-168 612.44,-171.5 612.44,-164.5"/>
</g>
<!-- Node9 -->
<g id="node9" class="node">
<title>Node9</title>
<g id="a_node9"><a xlink:href="class_c_p_s_1_1_signal_1_1_p_l_l.html" target="_top" xlink:title=" ">
<polygon fill="none" stroke="black" points="677.5,-120.5 677.5,-139.5 771.5,-139.5 771.5,-120.5 677.5,-120.5"/>
<text text-anchor="middle" x="724.5" y="-127.5" font-family="Helvetica,sans-Serif" font-size="10.00">CPS::Signal::PLL</text>
</a>
</g>
</g>
<!-- Node1&#45;&gt;Node9 -->
<g id="edge8" class="edge">
<title>Node1&#45;&gt;Node9</title>
<path fill="none" stroke="midnightblue" d="M598.83,-156.32C624.36,-150.93 654.28,-144.61 678.41,-139.52"/>
<polygon fill="midnightblue" stroke="midnightblue" points="597.98,-152.92 588.92,-158.41 599.43,-159.77 597.98,-152.92"/>
</g>
<!-- Node10 -->
<g id="node10" class="node">
<title>Node10</title>
<g id="a_node10"><a xlink:href="class_c_p_s_1_1_signal_1_1_power_controller_v_s_i.html" target="_top" xlink:title=" ">
<polygon fill="none" stroke="black" points="639,-82.5 639,-101.5 810,-101.5 810,-82.5 639,-82.5"/>
<text text-anchor="middle" x="724.5" y="-89.5" font-family="Helvetica,sans-Serif" font-size="10.00">CPS::Signal::PowerControllerVSI</text>
</a>
</g>
</g>
<!-- Node1&#45;&gt;Node10 -->
<g id="edge9" class="edge">
<title>Node1&#45;&gt;Node10</title>
<path fill="none" stroke="midnightblue" d="M564.5,-152.59C583,-139.71 611.1,-121.77 638,-111 647.46,-107.21 657.82,-104.11 667.97,-101.59"/>
<polygon fill="midnightblue" stroke="midnightblue" points="562.37,-149.81 556.25,-158.45 566.43,-155.52 562.37,-149.81"/>
</g>
<!-- Node11 -->
<g id="node11" class="node">
<title>Node11</title>
<g id="a_node11"><a xlink:href="class_c_p_s_1_1_signal_1_1_signal_generator.html" target="_top" xlink:title=" ">
<polygon fill="none" stroke="black" points="646.5,-44.5 646.5,-63.5 802.5,-63.5 802.5,-44.5 646.5,-44.5"/>
<text text-anchor="middle" x="724.5" y="-51.5" font-family="Helvetica,sans-Serif" font-size="10.00">CPS::Signal::SignalGenerator</text>
</a>
</g>
</g>
<!-- Node1&#45;&gt;Node11 -->
<g id="edge10" class="edge">
<title>Node1&#45;&gt;Node11</title>
<path fill="none" stroke="midnightblue" d="M556.17,-150.07C572.52,-128.34 603.05,-92.24 638,-73 645.06,-69.11 652.86,-66.02 660.79,-63.56"/>
<polygon fill="midnightblue" stroke="midnightblue" points="553.14,-148.28 550.06,-158.42 558.79,-152.42 553.14,-148.28"/>
</g>
<!-- Node2 -->
<g id="node2" class="node">
<title>Node2</title>
<g id="a_node2"><a xlink:href="class_c_p_s_1_1_topological_signal_comp.html" target="_top" xlink:title=" ">
<polygon fill="none" stroke="black" points="292,-158.5 292,-177.5 447,-177.5 447,-158.5 292,-158.5"/>
<text text-anchor="middle" x="369.5" y="-165.5" font-family="Helvetica,sans-Serif" font-size="10.00">CPS::TopologicalSignalComp</text>
</a>
</g>
</g>
<!-- Node2&#45;&gt;Node1 -->
<g id="edge1" class="edge">
<title>Node2&#45;&gt;Node1</title>
<path fill="none" stroke="midnightblue" d="M457.55,-168C466.12,-168 474.68,-168 482.87,-168"/>
<polygon fill="midnightblue" stroke="midnightblue" points="457.5,-164.5 447.5,-168 457.5,-171.5 457.5,-164.5"/>
</g>
<!-- Node3 -->
<g id="node3" class="node">
<title>Node3</title>
<g id="a_node3"><a xlink:href="class_c_p_s_1_1_identified_object.html" target="_top" xlink:title=" ">
<polygon fill="none" stroke="black" points="137,-158.5 137,-177.5 256,-177.5 256,-158.5 137,-158.5"/>
<text text-anchor="middle" x="196.5" y="-165.5" font-family="Helvetica,sans-Serif" font-size="10.00">CPS::IdentifiedObject</text>
</a>
</g>
</g>
<!-- Node3&#45;&gt;Node2 -->
<g id="edge2" class="edge">
<title>Node3&#45;&gt;Node2</title>
<path fill="none" stroke="midnightblue" d="M266.39,-168C274.73,-168 283.28,-168 291.73,-168"/>
<polygon fill="midnightblue" stroke="midnightblue" points="266.35,-164.5 256.35,-168 266.35,-171.5 266.35,-164.5"/>
</g>
<!-- Node4 -->
<g id="node4" class="node">
<title>Node4</title>
<g id="a_node4"><a xlink:href="class_c_p_s_1_1_attribute_list.html" target="_top" xlink:title="Base class of objects having attributes to access member variables.">
<polygon fill="none" stroke="black" points="0,-158.5 0,-177.5 101,-177.5 101,-158.5 0,-158.5"/>
<text text-anchor="middle" x="50.5" y="-165.5" font-family="Helvetica,sans-Serif" font-size="10.00">CPS::AttributeList</text>
</a>
</g>
</g>
<!-- Node4&#45;&gt;Node3 -->
<g id="edge3" class="edge">
<title>Node4&#45;&gt;Node3</title>
<path fill="none" stroke="midnightblue" d="M111.26,-168C119.74,-168 128.46,-168 136.92,-168"/>
<polygon fill="midnightblue" stroke="midnightblue" points="111.06,-164.5 101.06,-168 111.06,-171.5 111.06,-164.5"/>
</g>
<!-- Node12 -->
<g id="node12" class="node">
<title>Node12</title>
<g id="a_node12"><a xlink:href="class_c_p_s_1_1_signal_1_1_cosine_f_m_generator.html" target="_top" xlink:title=" ">
<polygon fill="none" stroke="black" points="847,-88.5 847,-107.5 1021,-107.5 1021,-88.5 847,-88.5"/>
<text text-anchor="middle" x="934" y="-95.5" font-family="Helvetica,sans-Serif" font-size="10.00">CPS::Signal::CosineFMGenerator</text>
</a>
</g>
</g>
<!-- Node11&#45;&gt;Node12 -->
<g id="edge11" class="edge">
<title>Node11&#45;&gt;Node12</title>
<path fill="none" stroke="midnightblue" d="M780.64,-65.69C814.2,-72.81 856.54,-81.79 888.06,-88.47"/>
<polygon fill="midnightblue" stroke="midnightblue" points="781.03,-62.2 770.52,-63.55 779.58,-69.05 781.03,-62.2"/>
</g>
<!-- Node13 -->
<g id="node13" class="node">
<title>Node13</title>
<g id="a_node13"><a xlink:href="class_c_p_s_1_1_signal_1_1_frequency_ramp_generator.html" target="_top" xlink:title=" ">
<polygon fill="none" stroke="black" points="856,-39 856,-69 1012,-69 1012,-39 856,-39"/>
<text text-anchor="start" x="864" y="-57" font-family="Helvetica,sans-Serif" font-size="10.00">CPS::Signal::FrequencyRamp</text>
<text text-anchor="middle" x="934" y="-46" font-family="Helvetica,sans-Serif" font-size="10.00">Generator</text>
</a>
</g>
</g>
<!-- Node11&#45;&gt;Node13 -->
<g id="edge12" class="edge">
<title>Node11&#45;&gt;Node13</title>
<path fill="none" stroke="midnightblue" d="M813,-54C827.17,-54 841.76,-54 855.67,-54"/>
<polygon fill="midnightblue" stroke="midnightblue" points="812.77,-50.5 802.77,-54 812.77,-57.5 812.77,-50.5"/>
</g>
<!-- Node14 -->
<g id="node14" class="node">
<title>Node14</title>
<g id="a_node14"><a xlink:href="class_c_p_s_1_1_signal_1_1_sine_wave_generator.html" target="_top" xlink:title=" ">
<polygon fill="none" stroke="black" points="847,-0.5 847,-19.5 1021,-19.5 1021,-0.5 847,-0.5"/>
<text text-anchor="middle" x="934" y="-7.5" font-family="Helvetica,sans-Serif" font-size="10.00">CPS::Signal::SineWaveGenerator</text>
</a>
</g>
</g>
<!-- Node11&#45;&gt;Node14 -->
<g id="edge13" class="edge">
<title>Node11&#45;&gt;Node14</title>
<path fill="none" stroke="midnightblue" d="M780.64,-42.31C814.2,-35.19 856.54,-26.21 888.06,-19.53"/>
<polygon fill="midnightblue" stroke="midnightblue" points="779.58,-38.95 770.52,-44.45 781.03,-45.8 779.58,-38.95"/>
</g>
</g>
</svg>
