<?xml version="1.0" encoding="UTF-8" standalone="no"?>
<!DOCTYPE svg PUBLIC "-//W3C//DTD SVG 1.1//EN"
 "http://www.w3.org/Graphics/SVG/1.1/DTD/svg11.dtd">
<!-- Generated by graphviz version 2.44.0 (0)
 -->
<!-- Title: CPS::IdentifiedObject Pages: 1 -->
<svg width="1091pt" height="1440pt"
 viewBox="0.00 0.00 1091.00 1439.50" xmlns="http://www.w3.org/2000/svg" xmlns:xlink="http://www.w3.org/1999/xlink">
<g id="graph0" class="graph" transform="scale(1 1) rotate(0) translate(4 1435.5)">
<title>CPS::IdentifiedObject</title>
<!-- Node1 -->
<g id="node1" class="node">
<title>Node1</title>
<g id="a_node1"><a xlink:title=" ">
<polygon fill="#bfbfbf" stroke="black" points="133,-626.5 133,-645.5 245,-645.5 245,-626.5 133,-626.5"/>
<text text-anchor="middle" x="189" y="-633.5" font-family="Helvetica" font-size="10.00">CPS::IdentifiedObject</text>
</a>
</g>
</g>
<!-- Node3 -->
<g id="node3" class="node">
<title>Node3</title>
<g id="a_node3"><a xlink:href="class_c_p_s_1_1_topological_node.html" target="_top" xlink:title=" ">
<polygon fill="none" stroke="black" points="297,-756.5 297,-775.5 413,-775.5 413,-756.5 297,-756.5"/>
<text text-anchor="middle" x="355" y="-763.5" font-family="Helvetica" font-size="10.00">CPS::TopologicalNode</text>
</a>
</g>
</g>
<!-- Node1&#45;&gt;Node3 -->
<g id="edge2" class="edge">
<title>Node1&#45;&gt;Node3</title>
<path fill="none" stroke="midnightblue" d="M210.02,-651.87C244.46,-679.17 313.95,-734.25 341.92,-756.43"/>
<polygon fill="midnightblue" stroke="midnightblue" points="212.07,-649.03 202.06,-645.56 207.72,-654.51 212.07,-649.03"/>
</g>
<!-- Node6 -->
<g id="node6" class="node">
<title>Node6</title>
<g id="a_node6"><a xlink:href="class_c_p_s_1_1_topological_power_comp.html" target="_top" xlink:title=" ">
<polygon fill="none" stroke="black" points="282,-656.5 282,-675.5 428,-675.5 428,-656.5 282,-656.5"/>
<text text-anchor="middle" x="355" y="-663.5" font-family="Helvetica" font-size="10.00">CPS::TopologicalPowerComp</text>
</a>
</g>
</g>
<!-- Node1&#45;&gt;Node6 -->
<g id="edge6" class="edge">
<title>Node1&#45;&gt;Node6</title>
<path fill="none" stroke="midnightblue" d="M252.35,-647.4C268.69,-650.39 286.13,-653.58 301.87,-656.46"/>
<polygon fill="midnightblue" stroke="midnightblue" points="252.81,-643.93 242.34,-645.57 251.55,-650.82 252.81,-643.93"/>
</g>
<!-- Node118 -->
<g id="node46" class="node">
<title>Node118</title>
<g id="a_node46"><a xlink:href="class_c_p_s_1_1_topological_signal_comp.html" target="_top" xlink:title=" ">
<polygon fill="none" stroke="black" points="282,-609.5 282,-628.5 428,-628.5 428,-609.5 282,-609.5"/>
<text text-anchor="middle" x="355" y="-616.5" font-family="Helvetica" font-size="10.00">CPS::TopologicalSignalComp</text>
</a>
</g>
</g>
<!-- Node1&#45;&gt;Node118 -->
<g id="edge48" class="edge">
<title>Node1&#45;&gt;Node118</title>
<path fill="none" stroke="midnightblue" d="M255.21,-629.24C263.98,-628.33 273.02,-627.39 281.89,-626.47"/>
<polygon fill="midnightblue" stroke="midnightblue" points="254.65,-625.78 245.07,-630.29 255.37,-632.74 254.65,-625.78"/>
</g>
<!-- Node132 -->
<g id="node48" class="node">
<title>Node132</title>
<g id="a_node48"><a xlink:href="class_c_p_s_1_1_topological_terminal.html" target="_top" xlink:title=" ">
<polygon fill="none" stroke="black" points="290.5,-554.5 290.5,-573.5 419.5,-573.5 419.5,-554.5 290.5,-554.5"/>
<text text-anchor="middle" x="355" y="-561.5" font-family="Helvetica" font-size="10.00">CPS::TopologicalTerminal</text>
</a>
</g>
</g>
<!-- Node1&#45;&gt;Node132 -->
<g id="edge50" class="edge">
<title>Node1&#45;&gt;Node132</title>
<path fill="none" stroke="midnightblue" d="M221.25,-622.28C253.71,-608.03 303.66,-586.1 332.13,-573.6"/>
<polygon fill="midnightblue" stroke="midnightblue" points="219.53,-619.21 211.78,-626.44 222.34,-625.62 219.53,-619.21"/>
</g>
<!-- Node2 -->
<g id="node2" class="node">
<title>Node2</title>
<g id="a_node2"><a xlink:href="class_c_p_s_1_1_attribute_list.html" target="_top" xlink:title="Base class of objects having attributes to access member variables.">
<polygon fill="none" stroke="black" points="0,-626.5 0,-645.5 96,-645.5 96,-626.5 0,-626.5"/>
<text text-anchor="middle" x="48" y="-633.5" font-family="Helvetica" font-size="10.00">CPS::AttributeList</text>
</a>
</g>
</g>
<!-- Node2&#45;&gt;Node1 -->
<g id="edge1" class="edge">
<title>Node2&#45;&gt;Node1</title>
<path fill="none" stroke="midnightblue" d="M106.22,-636C115.02,-636 124.08,-636 132.83,-636"/>
<polygon fill="midnightblue" stroke="midnightblue" points="106.06,-632.5 96.06,-636 106.06,-639.5 106.06,-632.5"/>
</g>
<!-- Node4 -->
<g id="node4" class="node">
<title>Node4</title>
<g id="a_node4"><a xlink:href="class_c_p_s_1_1_sim_node.html" target="_top" xlink:title=" ">
<polygon fill="none" stroke="black" points="713,-773.5 713,-792.5 854,-792.5 854,-773.5 713,-773.5"/>
<text text-anchor="middle" x="783.5" y="-780.5" font-family="Helvetica" font-size="10.00">CPS::SimNode&lt; Complex &gt;</text>
</a>
</g>
</g>
<!-- Node3&#45;&gt;Node4 -->
<g id="edge3" class="edge">
<title>Node3&#45;&gt;Node4</title>
<path fill="none" stroke="midnightblue" d="M423.4,-768.69C502.39,-771.84 632.65,-777.03 712.67,-780.22"/>
<polygon fill="midnightblue" stroke="midnightblue" points="423.21,-765.18 413.08,-768.28 422.93,-772.17 423.21,-765.18"/>
</g>
<!-- Node5 -->
<g id="node5" class="node">
<title>Node5</title>
<g id="a_node5"><a xlink:href="class_c_p_s_1_1_sim_node.html" target="_top" xlink:title=" ">
<polygon fill="none" stroke="black" points="472,-794.5 472,-813.5 609,-813.5 609,-794.5 472,-794.5"/>
<text text-anchor="middle" x="540.5" y="-801.5" font-family="Helvetica" font-size="10.00">CPS::SimNode&lt; VarType &gt;</text>
</a>
</g>
</g>
<!-- Node3&#45;&gt;Node5 -->
<g id="edge4" class="edge">
<title>Node3&#45;&gt;Node5</title>
<path fill="none" stroke="midnightblue" d="M412.41,-777.68C438.43,-783.07 468.93,-789.39 493.53,-794.48"/>
<polygon fill="midnightblue" stroke="midnightblue" points="412.81,-774.19 402.3,-775.59 411.39,-781.04 412.81,-774.19"/>
</g>
<!-- Node5&#45;&gt;Node4 -->
<g id="edge5" class="edge">
<title>Node5&#45;&gt;Node4</title>
<path fill="none" stroke="orange" stroke-dasharray="5,2" d="M619.3,-797.22C649.35,-794.6 683.47,-791.63 712.72,-789.08"/>
<polygon fill="orange" stroke="orange" points="618.93,-793.74 609.27,-798.09 619.54,-800.71 618.93,-793.74"/>
<text text-anchor="middle" x="664.5" y="-798" font-family="Helvetica" font-size="10.00"> &lt; Complex &gt;</text>
</g>
<!-- Node7 -->
<g id="node7" class="node">
<title>Node7</title>
<g id="a_node7"><a xlink:href="class_c_p_s_1_1_sim_power_comp.html" target="_top" xlink:title=" ">
<polygon fill="none" stroke="red" points="723.5,-699 723.5,-729 843.5,-729 843.5,-699 723.5,-699"/>
<text text-anchor="start" x="731.5" y="-717" font-family="Helvetica" font-size="10.00">CPS::SimPowerComp&lt;</text>
<text text-anchor="middle" x="783.5" y="-706" font-family="Helvetica" font-size="10.00"> Complex &gt;</text>
</a>
</g>
</g>
<!-- Node6&#45;&gt;Node7 -->
<g id="edge7" class="edge">
<title>Node6&#45;&gt;Node7</title>
<path fill="none" stroke="midnightblue" d="M386.9,-679.34C408.38,-687.98 437.9,-698.58 465,-704 553.69,-721.73 659.05,-720.85 723.32,-717.92"/>
<polygon fill="midnightblue" stroke="midnightblue" points="388.21,-676.1 377.63,-675.54 385.55,-682.58 388.21,-676.1"/>
</g>
<!-- Node77 -->
<g id="node44" class="node">
<title>Node77</title>
<g id="a_node44"><a xlink:href="class_c_p_s_1_1_sim_power_comp.html" target="_top" xlink:title=" ">
<polygon fill="none" stroke="red" points="723.5,-641 723.5,-671 843.5,-671 843.5,-641 723.5,-641"/>
<text text-anchor="start" x="731.5" y="-659" font-family="Helvetica" font-size="10.00">CPS::SimPowerComp&lt;</text>
<text text-anchor="middle" x="783.5" y="-648" font-family="Helvetica" font-size="10.00"> Real &gt;</text>
</a>
</g>
</g>
<!-- Node6&#45;&gt;Node77 -->
<g id="edge44" class="edge">
<title>Node6&#45;&gt;Node77</title>
<path fill="none" stroke="midnightblue" d="M438.19,-655.98C447.22,-655.17 456.3,-654.48 465,-654 554.99,-649.06 659.54,-651.25 723.35,-653.47"/>
<polygon fill="midnightblue" stroke="midnightblue" points="437.65,-652.52 428.02,-656.94 438.31,-659.48 437.65,-652.52"/>
</g>
<!-- Node116 -->
<g id="node45" class="node">
<title>Node116</title>
<g id="a_node45"><a xlink:href="class_c_p_s_1_1_sim_power_comp.html" target="_top" xlink:title="Base class for all components that are transmitting power.">
<polygon fill="none" stroke="red" points="480.5,-664 480.5,-694 600.5,-694 600.5,-664 480.5,-664"/>
<text text-anchor="start" x="488.5" y="-682" font-family="Helvetica" font-size="10.00">CPS::SimPowerComp&lt;</text>
<text text-anchor="middle" x="540.5" y="-671" font-family="Helvetica" font-size="10.00"> VarType &gt;</text>
</a>
</g>
</g>
<!-- Node6&#45;&gt;Node116 -->
<g id="edge45" class="edge">
<title>Node6&#45;&gt;Node116</title>
<path fill="none" stroke="midnightblue" d="M438.46,-671.84C452.56,-672.84 466.96,-673.86 480.31,-674.81"/>
<polygon fill="midnightblue" stroke="midnightblue" points="438.48,-668.33 428.26,-671.12 437.99,-675.32 438.48,-668.33"/>
</g>
<!-- Node8 -->
<g id="node8" class="node">
<title>Node8</title>
<g id="a_node8"><a xlink:href="class_c_p_s_1_1_base_1_1_reduced_order_synchron_generator.html" target="_top" xlink:title=" ">
<polygon fill="none" stroke="red" points="899,-1401 899,-1431 1075,-1431 1075,-1401 899,-1401"/>
<text text-anchor="start" x="907" y="-1419" font-family="Helvetica" font-size="10.00">CPS::Base::ReducedOrderSynchron</text>
<text text-anchor="middle" x="987" y="-1408" font-family="Helvetica" font-size="10.00">Generator&lt; Complex &gt;</text>
</a>
</g>
</g>
<!-- Node7&#45;&gt;Node8 -->
<g id="edge8" class="edge">
<title>Node7&#45;&gt;Node8</title>
<path fill="none" stroke="midnightblue" d="M825.72,-734.51C836.85,-742.17 847.58,-751.99 854,-764 886.95,-825.65 843.42,-1340.8 891,-1392 894.13,-1395.36 897.65,-1398.29 901.45,-1400.82"/>
<polygon fill="midnightblue" stroke="midnightblue" points="827.51,-731.5 817.19,-729.08 823.74,-737.4 827.51,-731.5"/>
</g>
<!-- Node20 -->
<g id="node9" class="node">
<title>Node20</title>
<g id="a_node9"><a xlink:href="class_c_p_s_1_1_d_p_1_1_ph1_1_1_av_voltage_source_inverter_d_q.html" target="_top" xlink:title=" ">
<polygon fill="none" stroke="black" points="906.5,-1352 906.5,-1382 1067.5,-1382 1067.5,-1352 906.5,-1352"/>
<text text-anchor="start" x="914.5" y="-1370" font-family="Helvetica" font-size="10.00">CPS::DP::Ph1::AvVoltageSource</text>
<text text-anchor="middle" x="987" y="-1359" font-family="Helvetica" font-size="10.00">InverterDQ</text>
</a>
</g>
</g>
<!-- Node7&#45;&gt;Node20 -->
<g id="edge9" class="edge">
<title>Node7&#45;&gt;Node20</title>
<path fill="none" stroke="midnightblue" d="M825.71,-734.51C836.84,-742.17 847.57,-751.99 854,-764 880.39,-813.31 864.09,-1211.64 872,-1267 876.86,-1301.04 866.8,-1317.57 891,-1342 895.44,-1346.48 900.58,-1350.19 906.13,-1353.26"/>
<polygon fill="midnightblue" stroke="midnightblue" points="827.5,-731.5 817.18,-729.08 823.74,-737.41 827.5,-731.5"/>
</g>
<!-- Node21 -->
<g id="node10" class="node">
<title>Node21</title>
<g id="a_node10"><a xlink:href="class_c_p_s_1_1_d_p_1_1_ph1_1_1_capacitor.html" target="_top" xlink:title="Capacitor model.">
<polygon fill="none" stroke="black" points="923,-1313.5 923,-1332.5 1051,-1332.5 1051,-1313.5 923,-1313.5"/>
<text text-anchor="middle" x="987" y="-1320.5" font-family="Helvetica" font-size="10.00">CPS::DP::Ph1::Capacitor</text>
</a>
</g>
</g>
<!-- Node7&#45;&gt;Node21 -->
<g id="edge10" class="edge">
<title>Node7&#45;&gt;Node21</title>
<path fill="none" stroke="midnightblue" d="M825.7,-734.52C836.83,-742.18 847.56,-751.99 854,-764 879.58,-811.72 861.74,-1197.83 872,-1251 876.74,-1275.57 872.06,-1287.65 891,-1304 899.91,-1311.69 911.06,-1316.6 922.54,-1319.67"/>
<polygon fill="midnightblue" stroke="midnightblue" points="827.49,-731.51 817.18,-729.08 823.73,-737.41 827.49,-731.51"/>
</g>
<!-- Node22 -->
<g id="node11" class="node">
<title>Node22</title>
<g id="a_node11"><a xlink:href="class_c_p_s_1_1_d_p_1_1_ph1_1_1_current_source.html" target="_top" xlink:title="Dynamic phasor ideal current source.">
<polygon fill="none" stroke="black" points="912,-1275.5 912,-1294.5 1062,-1294.5 1062,-1275.5 912,-1275.5"/>
<text text-anchor="middle" x="987" y="-1282.5" font-family="Helvetica" font-size="10.00">CPS::DP::Ph1::CurrentSource</text>
</a>
</g>
</g>
<!-- Node7&#45;&gt;Node22 -->
<g id="edge11" class="edge">
<title>Node7&#45;&gt;Node22</title>
<path fill="none" stroke="midnightblue" d="M825.66,-734.54C836.79,-742.2 847.53,-752.01 854,-764 907.1,-862.45 809.8,-1189.07 891,-1266 896.98,-1271.67 904.16,-1275.86 911.84,-1278.94"/>
<polygon fill="midnightblue" stroke="midnightblue" points="827.45,-731.53 817.14,-729.1 823.69,-737.43 827.45,-731.53"/>
</g>
<!-- Node23 -->
<g id="node12" class="node">
<title>Node23</title>
<g id="a_node12"><a xlink:href="class_c_p_s_1_1_d_p_1_1_ph1_1_1_inductor.html" target="_top" xlink:title="Inductor.">
<polygon fill="none" stroke="black" points="926,-1237.5 926,-1256.5 1048,-1256.5 1048,-1237.5 926,-1237.5"/>
<text text-anchor="middle" x="987" y="-1244.5" font-family="Helvetica" font-size="10.00">CPS::DP::Ph1::Inductor</text>
</a>
</g>
</g>
<!-- Node7&#45;&gt;Node23 -->
<g id="edge12" class="edge">
<title>Node7&#45;&gt;Node23</title>
<path fill="none" stroke="midnightblue" d="M825.65,-734.55C836.78,-742.2 847.52,-752.02 854,-764 875.78,-804.31 863.03,-1131.06 872,-1176 876.82,-1200.13 872.32,-1211.98 891,-1228 900.7,-1236.32 913.02,-1241.38 925.54,-1244.37"/>
<polygon fill="midnightblue" stroke="midnightblue" points="827.44,-731.54 817.13,-729.11 823.68,-737.44 827.44,-731.54"/>
</g>
<!-- Node24 -->
<g id="node13" class="node">
<title>Node24</title>
<g id="a_node13"><a xlink:href="class_c_p_s_1_1_d_p_1_1_ph1_1_1_inverter.html" target="_top" xlink:title="Single phase inverter model.">
<polygon fill="none" stroke="black" points="927,-1199.5 927,-1218.5 1047,-1218.5 1047,-1199.5 927,-1199.5"/>
<text text-anchor="middle" x="987" y="-1206.5" font-family="Helvetica" font-size="10.00">CPS::DP::Ph1::Inverter</text>
</a>
</g>
</g>
<!-- Node7&#45;&gt;Node24 -->
<g id="edge13" class="edge">
<title>Node7&#45;&gt;Node24</title>
<path fill="none" stroke="midnightblue" d="M825.62,-734.56C836.74,-742.22 847.5,-752.03 854,-764 899.36,-847.5 819.06,-1127.92 891,-1190 901.06,-1198.68 913.96,-1203.81 926.98,-1206.76"/>
<polygon fill="midnightblue" stroke="midnightblue" points="827.41,-731.56 817.1,-729.13 823.64,-737.46 827.41,-731.56"/>
</g>
<!-- Node25 -->
<g id="node14" class="node">
<title>Node25</title>
<g id="a_node14"><a xlink:href="class_c_p_s_1_1_d_p_1_1_ph1_1_1_network_injection.html" target="_top" xlink:title="Network injection model.">
<polygon fill="none" stroke="black" points="906.5,-1161.5 906.5,-1180.5 1067.5,-1180.5 1067.5,-1161.5 906.5,-1161.5"/>
<text text-anchor="middle" x="987" y="-1168.5" font-family="Helvetica" font-size="10.00">CPS::DP::Ph1::NetworkInjection</text>
</a>
</g>
</g>
<!-- Node7&#45;&gt;Node25 -->
<g id="edge14" class="edge">
<title>Node7&#45;&gt;Node25</title>
<path fill="none" stroke="midnightblue" d="M825.57,-734.59C836.7,-742.25 847.46,-752.05 854,-764 895.57,-839.98 825.91,-1094.85 891,-1152 895.55,-1156 900.7,-1159.24 906.19,-1161.87"/>
<polygon fill="midnightblue" stroke="midnightblue" points="827.37,-731.58 817.06,-729.15 823.6,-737.48 827.37,-731.58"/>
</g>
<!-- Node26 -->
<g id="node15" class="node">
<title>Node26</title>
<g id="a_node15"><a xlink:href="class_c_p_s_1_1_d_p_1_1_ph1_1_1_p_q_load_c_s.html" target="_top" xlink:title="PQ&#45;load represented by a current source.">
<polygon fill="none" stroke="black" points="919,-1123.5 919,-1142.5 1055,-1142.5 1055,-1123.5 919,-1123.5"/>
<text text-anchor="middle" x="987" y="-1130.5" font-family="Helvetica" font-size="10.00">CPS::DP::Ph1::PQLoadCS</text>
</a>
</g>
</g>
<!-- Node7&#45;&gt;Node26 -->
<g id="edge15" class="edge">
<title>Node7&#45;&gt;Node26</title>
<path fill="none" stroke="midnightblue" d="M825.52,-734.62C836.64,-742.28 847.42,-752.07 854,-764 891.8,-832.47 832.5,-1062.09 891,-1114 898.93,-1121.03 908.7,-1125.76 918.94,-1128.88"/>
<polygon fill="midnightblue" stroke="midnightblue" points="827.32,-731.62 817.01,-729.18 823.55,-737.51 827.32,-731.62"/>
</g>
<!-- Node27 -->
<g id="node16" class="node">
<title>Node27</title>
<g id="a_node16"><a xlink:href="class_c_p_s_1_1_d_p_1_1_ph1_1_1_pi_line.html" target="_top" xlink:title="PI&#45;line dynamic phasor model.">
<polygon fill="none" stroke="black" points="930,-1085.5 930,-1104.5 1044,-1104.5 1044,-1085.5 930,-1085.5"/>
<text text-anchor="middle" x="987" y="-1092.5" font-family="Helvetica" font-size="10.00">CPS::DP::Ph1::PiLine</text>
</a>
</g>
</g>
<!-- Node7&#45;&gt;Node27 -->
<g id="edge16" class="edge">
<title>Node7&#45;&gt;Node27</title>
<path fill="none" stroke="midnightblue" d="M825.45,-734.66C836.57,-742.32 847.36,-752.1 854,-764 888.02,-824.97 838.78,-1029.66 891,-1076 901.69,-1085.49 915.76,-1090.77 929.78,-1093.59"/>
<polygon fill="midnightblue" stroke="midnightblue" points="827.25,-731.66 816.95,-729.21 823.48,-737.55 827.25,-731.66"/>
</g>
<!-- Node28 -->
<g id="node17" class="node">
<title>Node28</title>
<g id="a_node17"><a xlink:href="class_c_p_s_1_1_d_p_1_1_ph1_1_1_r_x_load.html" target="_top" xlink:title="Constant impedance load model consisting of RLC elements.">
<polygon fill="none" stroke="black" points="926,-1047.5 926,-1066.5 1048,-1066.5 1048,-1047.5 926,-1047.5"/>
<text text-anchor="middle" x="987" y="-1054.5" font-family="Helvetica" font-size="10.00">CPS::DP::Ph1::RXLoad</text>
</a>
</g>
</g>
<!-- Node7&#45;&gt;Node28 -->
<g id="edge17" class="edge">
<title>Node7&#45;&gt;Node28</title>
<path fill="none" stroke="midnightblue" d="M825.11,-734.49C836.33,-742.18 847.26,-752.03 854,-764 884.13,-817.55 843.07,-999.55 891,-1038 900.97,-1046 913.39,-1050.92 925.94,-1053.89"/>
<polygon fill="midnightblue" stroke="midnightblue" points="826.85,-731.45 816.54,-729.02 823.09,-737.35 826.85,-731.45"/>
</g>
<!-- Node29 -->
<g id="node18" class="node">
<title>Node29</title>
<g id="a_node18"><a xlink:href="class_c_p_s_1_1_d_p_1_1_ph1_1_1_r_x_load_switch.html" target="_top" xlink:title="Constant impedance load model consisting of RLC elements.">
<polygon fill="none" stroke="black" points="911,-1009.5 911,-1028.5 1063,-1028.5 1063,-1009.5 911,-1009.5"/>
<text text-anchor="middle" x="987" y="-1016.5" font-family="Helvetica" font-size="10.00">CPS::DP::Ph1::RXLoadSwitch</text>
</a>
</g>
</g>
<!-- Node7&#45;&gt;Node29 -->
<g id="edge18" class="edge">
<title>Node7&#45;&gt;Node29</title>
<path fill="none" stroke="midnightblue" d="M824.99,-734.55C836.21,-742.25 847.17,-752.08 854,-764 906.81,-856.11 808.74,-932.88 891,-1000 896.86,-1004.78 903.6,-1008.47 910.73,-1011.31"/>
<polygon fill="midnightblue" stroke="midnightblue" points="826.74,-731.52 816.43,-729.08 822.97,-737.42 826.74,-731.52"/>
</g>
<!-- Node30 -->
<g id="node19" class="node">
<title>Node30</title>
<g id="a_node19"><a xlink:href="class_c_p_s_1_1_d_p_1_1_ph1_1_1_res_ind_series.html" target="_top" xlink:title="resistor inductor series element">
<polygon fill="none" stroke="black" points="914,-971.5 914,-990.5 1060,-990.5 1060,-971.5 914,-971.5"/>
<text text-anchor="middle" x="987" y="-978.5" font-family="Helvetica" font-size="10.00">CPS::DP::Ph1::ResIndSeries</text>
</a>
</g>
</g>
<!-- Node7&#45;&gt;Node30 -->
<g id="edge19" class="edge">
<title>Node7&#45;&gt;Node30</title>
<path fill="none" stroke="midnightblue" d="M824.81,-734.66C836.02,-742.36 847.02,-752.17 854,-764 899.48,-841.11 822.07,-904.88 891,-962 897.73,-967.58 905.65,-971.68 914,-974.67"/>
<polygon fill="midnightblue" stroke="midnightblue" points="826.57,-731.63 816.26,-729.18 822.79,-737.52 826.57,-731.63"/>
</g>
<!-- Node31 -->
<g id="node20" class="node">
<title>Node31</title>
<g id="a_node20"><a xlink:href="class_c_p_s_1_1_d_p_1_1_ph1_1_1_resistor.html" target="_top" xlink:title="Dynamic phasor resistor model.">
<polygon fill="none" stroke="black" points="925.5,-933.5 925.5,-952.5 1048.5,-952.5 1048.5,-933.5 925.5,-933.5"/>
<text text-anchor="middle" x="987" y="-940.5" font-family="Helvetica" font-size="10.00">CPS::DP::Ph1::Resistor</text>
</a>
</g>
</g>
<!-- Node7&#45;&gt;Node31 -->
<g id="edge20" class="edge">
<title>Node7&#45;&gt;Node31</title>
<path fill="none" stroke="midnightblue" d="M824.22,-734.64C835.51,-742.38 846.71,-752.21 854,-764 892.4,-826.07 835.14,-877.03 891,-924 900.66,-932.12 912.81,-937.11 925.16,-940.11"/>
<polygon fill="midnightblue" stroke="midnightblue" points="825.93,-731.58 815.63,-729.13 822.16,-737.48 825.93,-731.58"/>
</g>
<!-- Node32 -->
<g id="node21" class="node">
<title>Node32</title>
<g id="a_node21"><a xlink:href="class_c_p_s_1_1_d_p_1_1_ph1_1_1_rx_line.html" target="_top" xlink:title=" ">
<polygon fill="none" stroke="black" points="928,-895.5 928,-914.5 1046,-914.5 1046,-895.5 928,-895.5"/>
<text text-anchor="middle" x="987" y="-902.5" font-family="Helvetica" font-size="10.00">CPS::DP::Ph1::RxLine</text>
</a>
</g>
</g>
<!-- Node7&#45;&gt;Node32 -->
<g id="edge21" class="edge">
<title>Node7&#45;&gt;Node32</title>
<path fill="none" stroke="midnightblue" d="M823,-734.66C834.45,-742.49 846.05,-752.36 854,-764 885.97,-810.78 847.99,-849.11 891,-886 901.21,-894.76 914.32,-899.9 927.52,-902.83"/>
<polygon fill="midnightblue" stroke="midnightblue" points="824.64,-731.55 814.34,-729.08 820.85,-737.44 824.64,-731.55"/>
</g>
<!-- Node33 -->
<g id="node22" class="node">
<title>Node33</title>
<g id="a_node22"><a xlink:href="class_c_p_s_1_1_d_p_1_1_ph1_1_1_s_v_c.html" target="_top" xlink:title="SVC.">
<polygon fill="none" stroke="black" points="933.5,-857.5 933.5,-876.5 1040.5,-876.5 1040.5,-857.5 933.5,-857.5"/>
<text text-anchor="middle" x="987" y="-864.5" font-family="Helvetica" font-size="10.00">CPS::DP::Ph1::SVC</text>
</a>
</g>
</g>
<!-- Node7&#45;&gt;Node33 -->
<g id="edge22" class="edge">
<title>Node7&#45;&gt;Node33</title>
<path fill="none" stroke="midnightblue" d="M820.7,-734.65C832.45,-742.67 844.81,-752.66 854,-764 879.68,-795.69 859.19,-822.46 891,-848 902.93,-857.58 918.39,-862.76 933.35,-865.44"/>
<polygon fill="midnightblue" stroke="midnightblue" points="822.59,-731.71 812.31,-729.18 818.77,-737.57 822.59,-731.71"/>
</g>
<!-- Node34 -->
<g id="node23" class="node">
<title>Node34</title>
<g id="a_node23"><a xlink:href="class_c_p_s_1_1_d_p_1_1_ph1_1_1_switch.html" target="_top" xlink:title="Dynamic phasor switch.">
<polygon fill="none" stroke="black" points="928.5,-819.5 928.5,-838.5 1045.5,-838.5 1045.5,-819.5 928.5,-819.5"/>
<text text-anchor="middle" x="987" y="-826.5" font-family="Helvetica" font-size="10.00">CPS::DP::Ph1::Switch</text>
</a>
</g>
</g>
<!-- Node7&#45;&gt;Node34 -->
<g id="edge23" class="edge">
<title>Node7&#45;&gt;Node34</title>
<path fill="none" stroke="midnightblue" d="M817.39,-734.95C829.47,-743.32 842.89,-753.47 854,-764 873.04,-782.05 868.57,-796.39 891,-810 902.22,-816.81 915.42,-821.23 928.35,-824.09"/>
<polygon fill="midnightblue" stroke="midnightblue" points="819.13,-731.9 808.89,-729.18 815.21,-737.69 819.13,-731.9"/>
</g>
<!-- Node35 -->
<g id="node24" class="node">
<title>Node35</title>
<g id="a_node24"><a xlink:href="class_c_p_s_1_1_d_p_1_1_ph1_1_1_synchron_generator_ideal.html" target="_top" xlink:title="Ideal voltage source representing a synchronous generator.">
<polygon fill="none" stroke="black" points="901.5,-770 901.5,-800 1072.5,-800 1072.5,-770 901.5,-770"/>
<text text-anchor="start" x="909.5" y="-788" font-family="Helvetica" font-size="10.00">CPS::DP::Ph1::SynchronGenerator</text>
<text text-anchor="middle" x="987" y="-777" font-family="Helvetica" font-size="10.00">Ideal</text>
</a>
</g>
</g>
<!-- Node7&#45;&gt;Node35 -->
<g id="edge24" class="edge">
<title>Node7&#45;&gt;Node35</title>
<path fill="none" stroke="midnightblue" d="M824.45,-733.54C844.17,-742.69 868.5,-753.26 891,-761 900.41,-764.24 910.48,-767.25 920.42,-769.97"/>
<polygon fill="midnightblue" stroke="midnightblue" points="825.71,-730.27 815.17,-729.18 822.74,-736.6 825.71,-730.27"/>
</g>
<!-- Node36 -->
<g id="node25" class="node">
<title>Node36</title>
<g id="a_node25"><a xlink:href="class_c_p_s_1_1_d_p_1_1_ph1_1_1_synchron_generator_tr_stab.html" target="_top" xlink:title="Synchronous generator model for transient stability analysis.">
<polygon fill="none" stroke="black" points="901.5,-721 901.5,-751 1072.5,-751 1072.5,-721 901.5,-721"/>
<text text-anchor="start" x="909.5" y="-739" font-family="Helvetica" font-size="10.00">CPS::DP::Ph1::SynchronGenerator</text>
<text text-anchor="middle" x="987" y="-728" font-family="Helvetica" font-size="10.00">TrStab</text>
</a>
</g>
</g>
<!-- Node7&#45;&gt;Node36 -->
<g id="edge25" class="edge">
<title>Node7&#45;&gt;Node36</title>
<path fill="none" stroke="midnightblue" d="M853.55,-721.54C868.98,-723.22 885.51,-725.03 901.47,-726.77"/>
<polygon fill="midnightblue" stroke="midnightblue" points="853.92,-718.06 843.6,-720.45 853.16,-725.02 853.92,-718.06"/>
</g>
<!-- Node37 -->
<g id="node26" class="node">
<title>Node37</title>
<g id="a_node26"><a xlink:href="class_c_p_s_1_1_d_p_1_1_ph1_1_1_transformer.html" target="_top" xlink:title="Transformer that includes an inductance and resistance.">
<polygon fill="none" stroke="black" points="917.5,-682.5 917.5,-701.5 1056.5,-701.5 1056.5,-682.5 917.5,-682.5"/>
<text text-anchor="middle" x="987" y="-689.5" font-family="Helvetica" font-size="10.00">CPS::DP::Ph1::Transformer</text>
</a>
</g>
</g>
<!-- Node7&#45;&gt;Node37 -->
<g id="edge26" class="edge">
<title>Node7&#45;&gt;Node37</title>
<path fill="none" stroke="midnightblue" d="M853.54,-706.46C874.15,-704.21 896.73,-701.75 917.32,-699.5"/>
<polygon fill="midnightblue" stroke="midnightblue" points="853.16,-702.98 843.6,-707.55 853.92,-709.94 853.16,-702.98"/>
</g>
<!-- Node38 -->
<g id="node27" class="node">
<title>Node38</title>
<g id="a_node27"><a xlink:href="class_c_p_s_1_1_d_p_1_1_ph1_1_1_voltage_source.html" target="_top" xlink:title="Ideal Voltage source model.">
<polygon fill="none" stroke="black" points="912,-644.5 912,-663.5 1062,-663.5 1062,-644.5 912,-644.5"/>
<text text-anchor="middle" x="987" y="-651.5" font-family="Helvetica" font-size="10.00">CPS::DP::Ph1::VoltageSource</text>
</a>
</g>
</g>
<!-- Node7&#45;&gt;Node38 -->
<g id="edge27" class="edge">
<title>Node7&#45;&gt;Node38</title>
<path fill="none" stroke="midnightblue" d="M828.3,-695.21C847.32,-687.55 870,-679.09 891,-673 903.52,-669.37 917.16,-666.19 930.11,-663.53"/>
<polygon fill="midnightblue" stroke="midnightblue" points="826.94,-691.98 819,-699 829.58,-698.46 826.94,-691.98"/>
</g>
<!-- Node39 -->
<g id="node28" class="node">
<title>Node39</title>
<g id="a_node28"><a xlink:href="class_c_p_s_1_1_d_p_1_1_ph1_1_1_voltage_source_norton.html" target="_top" xlink:title="Resistive dynamic phasor voltage source.">
<polygon fill="none" stroke="black" points="912,-595 912,-625 1062,-625 1062,-595 912,-595"/>
<text text-anchor="start" x="920" y="-613" font-family="Helvetica" font-size="10.00">CPS::DP::Ph1::VoltageSource</text>
<text text-anchor="middle" x="987" y="-602" font-family="Helvetica" font-size="10.00">Norton</text>
</a>
</g>
</g>
<!-- Node7&#45;&gt;Node39 -->
<g id="edge28" class="edge">
<title>Node7&#45;&gt;Node39</title>
<path fill="none" stroke="midnightblue" d="M833.36,-694.28C840.61,-690.38 847.73,-685.95 854,-681 874.59,-664.74 868.99,-649.28 891,-635 897.44,-630.82 904.55,-627.34 911.9,-624.44"/>
<polygon fill="midnightblue" stroke="midnightblue" points="831.52,-691.28 824.17,-698.92 834.68,-697.53 831.52,-691.28"/>
</g>
<!-- Node40 -->
<g id="node29" class="node">
<title>Node40</title>
<g id="a_node29"><a xlink:href="class_c_p_s_1_1_d_p_1_1_ph1_1_1_voltage_source_ramp.html" target="_top" xlink:title=" ">
<polygon fill="none" stroke="black" points="899,-556.5 899,-575.5 1075,-575.5 1075,-556.5 899,-556.5"/>
<text text-anchor="middle" x="987" y="-563.5" font-family="Helvetica" font-size="10.00">CPS::DP::Ph1::VoltageSourceRamp</text>
</a>
</g>
</g>
<!-- Node7&#45;&gt;Node40 -->
<g id="edge29" class="edge">
<title>Node7&#45;&gt;Node40</title>
<path fill="none" stroke="midnightblue" d="M838.13,-693.88C843.96,-690.21 849.42,-685.94 854,-681 885.09,-647.47 856.03,-614.46 891,-585 895.5,-581.21 900.55,-578.1 905.91,-575.55"/>
<polygon fill="midnightblue" stroke="midnightblue" points="836.35,-690.87 829.38,-698.85 839.81,-696.95 836.35,-690.87"/>
</g>
<!-- Node41 -->
<g id="node30" class="node">
<title>Node41</title>
<g id="a_node30"><a xlink:href="class_c_p_s_1_1_d_p_1_1_ph1_1_1var_res_switch.html" target="_top" xlink:title="Switch with variable resistance to avoid numerical oscillations, when an inductive current is suddenl...">
<polygon fill="none" stroke="black" points="913.5,-518.5 913.5,-537.5 1060.5,-537.5 1060.5,-518.5 913.5,-518.5"/>
<text text-anchor="middle" x="987" y="-525.5" font-family="Helvetica" font-size="10.00">CPS::DP::Ph1::varResSwitch</text>
</a>
</g>
</g>
<!-- Node7&#45;&gt;Node41 -->
<g id="edge30" class="edge">
<title>Node7&#45;&gt;Node41</title>
<path fill="none" stroke="midnightblue" d="M839.73,-693.64C845.06,-690.04 849.97,-685.85 854,-681 893.48,-633.47 845.54,-588.84 891,-547 897.44,-541.08 905.18,-536.78 913.43,-533.68"/>
<polygon fill="midnightblue" stroke="midnightblue" points="837.85,-690.68 831.08,-698.83 841.45,-696.69 837.85,-690.68"/>
</g>
<!-- Node42 -->
<g id="node31" class="node">
<title>Node42</title>
<g id="a_node31"><a xlink:href="class_c_p_s_1_1_d_p_1_1_ph3_1_1_capacitor.html" target="_top" xlink:title="Capacitor model.">
<polygon fill="none" stroke="black" points="923,-480.5 923,-499.5 1051,-499.5 1051,-480.5 923,-480.5"/>
<text text-anchor="middle" x="987" y="-487.5" font-family="Helvetica" font-size="10.00">CPS::DP::Ph3::Capacitor</text>
</a>
</g>
</g>
<!-- Node7&#45;&gt;Node42 -->
<g id="edge31" class="edge">
<title>Node7&#45;&gt;Node42</title>
<path fill="none" stroke="midnightblue" d="M840.99,-693.45C845.92,-689.91 850.4,-685.78 854,-681 901.05,-618.54 833.13,-561.59 891,-509 899.84,-500.97 911.08,-495.93 922.71,-492.84"/>
<polygon fill="midnightblue" stroke="midnightblue" points="838.95,-690.6 832.34,-698.88 842.67,-696.53 838.95,-690.6"/>
</g>
<!-- Node43 -->
<g id="node32" class="node">
<title>Node43</title>
<g id="a_node32"><a xlink:href="class_c_p_s_1_1_d_p_1_1_ph3_1_1_inductor.html" target="_top" xlink:title="Inductor.">
<polygon fill="none" stroke="black" points="926,-442.5 926,-461.5 1048,-461.5 1048,-442.5 926,-442.5"/>
<text text-anchor="middle" x="987" y="-449.5" font-family="Helvetica" font-size="10.00">CPS::DP::Ph3::Inductor</text>
</a>
</g>
</g>
<!-- Node7&#45;&gt;Node43 -->
<g id="edge32" class="edge">
<title>Node7&#45;&gt;Node43</title>
<path fill="none" stroke="midnightblue" d="M841.43,-693.46C846.23,-689.92 850.56,-685.8 854,-681 881.64,-642.51 855.56,-502.45 891,-471 900.69,-462.4 913.14,-457.26 925.82,-454.27"/>
<polygon fill="midnightblue" stroke="midnightblue" points="839.5,-690.54 832.97,-698.88 843.28,-696.43 839.5,-690.54"/>
</g>
<!-- Node44 -->
<g id="node33" class="node">
<title>Node44</title>
<g id="a_node33"><a xlink:href="class_c_p_s_1_1_d_p_1_1_ph3_1_1_resistor.html" target="_top" xlink:title=" ">
<polygon fill="none" stroke="black" points="925.5,-404.5 925.5,-423.5 1048.5,-423.5 1048.5,-404.5 925.5,-404.5"/>
<text text-anchor="middle" x="987" y="-411.5" font-family="Helvetica" font-size="10.00">CPS::DP::Ph3::Resistor</text>
</a>
</g>
</g>
<!-- Node7&#45;&gt;Node44 -->
<g id="edge33" class="edge">
<title>Node7&#45;&gt;Node44</title>
<path fill="none" stroke="midnightblue" d="M841.46,-693.49C846.26,-689.94 850.57,-685.81 854,-681 886.33,-635.62 851.21,-472 891,-433 900.25,-423.93 912.53,-418.6 925.18,-415.58"/>
<polygon fill="midnightblue" stroke="midnightblue" points="839.54,-690.56 833.01,-698.91 843.32,-696.45 839.54,-690.56"/>
</g>
<!-- Node45 -->
<g id="node34" class="node">
<title>Node45</title>
<g id="a_node34"><a xlink:href="class_c_p_s_1_1_d_p_1_1_ph3_1_1_series_resistor.html" target="_top" xlink:title=" ">
<polygon fill="none" stroke="black" points="911.5,-366.5 911.5,-385.5 1062.5,-385.5 1062.5,-366.5 911.5,-366.5"/>
<text text-anchor="middle" x="987" y="-373.5" font-family="Helvetica" font-size="10.00">CPS::DP::Ph3::SeriesResistor</text>
</a>
</g>
</g>
<!-- Node7&#45;&gt;Node45 -->
<g id="edge34" class="edge">
<title>Node7&#45;&gt;Node45</title>
<path fill="none" stroke="midnightblue" d="M842.12,-693.14C846.67,-689.68 850.75,-685.66 854,-681 890.64,-628.42 845.23,-439.86 891,-395 896.77,-389.35 903.71,-385.15 911.19,-382.05"/>
<polygon fill="midnightblue" stroke="midnightblue" points="839.93,-690.39 833.49,-698.8 843.77,-696.24 839.93,-690.39"/>
</g>
<!-- Node46 -->
<g id="node35" class="node">
<title>Node46</title>
<g id="a_node35"><a xlink:href="class_c_p_s_1_1_d_p_1_1_ph3_1_1_series_switch.html" target="_top" xlink:title="Dynamic phasor three&#45;phase switch.">
<polygon fill="none" stroke="black" points="914.5,-328.5 914.5,-347.5 1059.5,-347.5 1059.5,-328.5 914.5,-328.5"/>
<text text-anchor="middle" x="987" y="-335.5" font-family="Helvetica" font-size="10.00">CPS::DP::Ph3::SeriesSwitch</text>
</a>
</g>
</g>
<!-- Node7&#45;&gt;Node46 -->
<g id="edge35" class="edge">
<title>Node7&#45;&gt;Node46</title>
<path fill="none" stroke="midnightblue" d="M842.19,-693.2C846.73,-689.72 850.79,-685.68 854,-681 894.97,-621.23 838.99,-407.46 891,-357 897.52,-350.68 905.51,-346.17 914.07,-343.01"/>
<polygon fill="midnightblue" stroke="midnightblue" points="840.01,-690.44 833.59,-698.87 843.86,-696.29 840.01,-690.44"/>
</g>
<!-- Node47 -->
<g id="node36" class="node">
<title>Node47</title>
<g id="a_node36"><a xlink:href="class_c_p_s_1_1_d_p_1_1_ph3_1_1_synchron_generator_d_q.html" target="_top" xlink:title="Synchronous generator model in dq&#45;reference frame.">
<polygon fill="none" stroke="red" points="894,-290.5 894,-309.5 1080,-309.5 1080,-290.5 894,-290.5"/>
<text text-anchor="middle" x="987" y="-297.5" font-family="Helvetica" font-size="10.00">CPS::DP::Ph3::SynchronGeneratorDQ</text>
</a>
</g>
</g>
<!-- Node7&#45;&gt;Node47 -->
<g id="edge36" class="edge">
<title>Node7&#45;&gt;Node47</title>
<path fill="none" stroke="midnightblue" d="M842.25,-693.23C846.78,-689.75 850.82,-685.7 854,-681 899.34,-614.04 832.48,-374.8 891,-319 894.9,-315.29 899.3,-312.2 904.03,-309.65"/>
<polygon fill="midnightblue" stroke="midnightblue" points="840.07,-690.48 833.66,-698.92 843.93,-696.32 840.07,-690.48"/>
</g>
<!-- Node50 -->
<g id="node37" class="node">
<title>Node50</title>
<g id="a_node37"><a xlink:href="class_c_p_s_1_1_d_p_1_1_ph3_1_1_synchron_generator_v_b_r.html" target="_top" xlink:title=" ">
<polygon fill="none" stroke="black" points="891,-252.5 891,-271.5 1083,-271.5 1083,-252.5 891,-252.5"/>
<text text-anchor="middle" x="987" y="-259.5" font-family="Helvetica" font-size="10.00">CPS::DP::Ph3::SynchronGeneratorVBR</text>
</a>
</g>
</g>
<!-- Node7&#45;&gt;Node50 -->
<g id="edge37" class="edge">
<title>Node7&#45;&gt;Node50</title>
<path fill="none" stroke="midnightblue" d="M842.29,-693.26C846.81,-689.77 850.84,-685.71 854,-681 903.75,-606.88 825.89,-342.07 891,-281 894.93,-277.32 899.35,-274.26 904.1,-271.73"/>
<polygon fill="midnightblue" stroke="midnightblue" points="840.11,-690.51 833.71,-698.95 843.97,-696.34 840.11,-690.51"/>
</g>
<!-- Node51 -->
<g id="node38" class="node">
<title>Node51</title>
<g id="a_node38"><a xlink:href="class_c_p_s_1_1_d_p_1_1_ph3_1_1_synchron_generator_v_b_r_standalone.html" target="_top" xlink:title=" ">
<polygon fill="none" stroke="black" points="901.5,-203 901.5,-233 1072.5,-233 1072.5,-203 901.5,-203"/>
<text text-anchor="start" x="909.5" y="-221" font-family="Helvetica" font-size="10.00">CPS::DP::Ph3::SynchronGenerator</text>
<text text-anchor="middle" x="987" y="-210" font-family="Helvetica" font-size="10.00">VBRStandalone</text>
</a>
</g>
</g>
<!-- Node7&#45;&gt;Node51 -->
<g id="edge38" class="edge">
<title>Node7&#45;&gt;Node51</title>
<path fill="none" stroke="midnightblue" d="M842.32,-693.28C846.83,-689.79 850.85,-685.72 854,-681 876.83,-646.75 865.42,-351.63 872,-311 877.02,-280.02 868.64,-265.02 891,-243 894.89,-239.17 899.29,-235.91 904.01,-233.13"/>
<polygon fill="midnightblue" stroke="midnightblue" points="840.14,-690.53 833.74,-698.97 844.01,-696.36 840.14,-690.53"/>
</g>
<!-- Node52 -->
<g id="node39" class="node">
<title>Node52</title>
<g id="a_node39"><a xlink:href="class_c_p_s_1_1_d_p_1_1_ph3_1_1_voltage_source.html" target="_top" xlink:title="Ideal Voltage source model.">
<polygon fill="none" stroke="black" points="912,-164.5 912,-183.5 1062,-183.5 1062,-164.5 912,-164.5"/>
<text text-anchor="middle" x="987" y="-171.5" font-family="Helvetica" font-size="10.00">CPS::DP::Ph3::VoltageSource</text>
</a>
</g>
</g>
<!-- Node7&#45;&gt;Node52 -->
<g id="edge39" class="edge">
<title>Node7&#45;&gt;Node52</title>
<path fill="none" stroke="midnightblue" d="M842.33,-693.29C846.84,-689.79 850.85,-685.73 854,-681 877.49,-645.72 867.29,-342.12 872,-300 877.37,-252 857.22,-227.52 891,-193 896.88,-186.99 904.09,-182.6 911.88,-179.43"/>
<polygon fill="midnightblue" stroke="midnightblue" points="840.14,-690.53 833.75,-698.98 844.02,-696.36 840.14,-690.53"/>
</g>
<!-- Node53 -->
<g id="node40" class="node">
<title>Node53</title>
<g id="a_node40"><a xlink:href="class_c_p_s_1_1_s_p_1_1_ph1_1_1_av_voltage_source_inverter_d_q.html" target="_top" xlink:title=" ">
<polygon fill="none" stroke="black" points="906.5,-115 906.5,-145 1067.5,-145 1067.5,-115 906.5,-115"/>
<text text-anchor="start" x="914.5" y="-133" font-family="Helvetica" font-size="10.00">CPS::SP::Ph1::AvVoltageSource</text>
<text text-anchor="middle" x="987" y="-122" font-family="Helvetica" font-size="10.00">InverterDQ</text>
</a>
</g>
</g>
<!-- Node7&#45;&gt;Node53 -->
<g id="edge40" class="edge">
<title>Node7&#45;&gt;Node53</title>
<path fill="none" stroke="midnightblue" d="M842.56,-693.16C846.99,-689.69 850.92,-685.67 854,-681 882.17,-638.31 863.87,-271.5 872,-221 876.85,-190.86 869.17,-176.33 891,-155 895.51,-150.59 900.71,-146.93 906.29,-143.9"/>
<polygon fill="midnightblue" stroke="midnightblue" points="840.5,-690.33 834.15,-698.81 844.4,-696.14 840.5,-690.33"/>
</g>
<!-- Node54 -->
<g id="node41" class="node">
<title>Node54</title>
<g id="a_node41"><a xlink:href="class_c_p_s_1_1_s_p_1_1_ph1_1_1_capacitor.html" target="_top" xlink:title=" ">
<polygon fill="none" stroke="black" points="923,-76.5 923,-95.5 1051,-95.5 1051,-76.5 923,-76.5"/>
<text text-anchor="middle" x="987" y="-83.5" font-family="Helvetica" font-size="10.00">CPS::SP::Ph1::Capacitor</text>
</a>
</g>
</g>
<!-- Node7&#45;&gt;Node54 -->
<g id="edge41" class="edge">
<title>Node7&#45;&gt;Node54</title>
<path fill="none" stroke="midnightblue" d="M842.57,-693.16C846.99,-689.69 850.92,-685.67 854,-681 889.3,-627.46 846.11,-150.8 891,-105 899.59,-96.23 911.01,-90.92 922.94,-87.8"/>
<polygon fill="midnightblue" stroke="midnightblue" points="840.5,-690.33 834.16,-698.82 844.41,-696.14 840.5,-690.33"/>
</g>
<!-- Node55 -->
<g id="node42" class="node">
<title>Node55</title>
<g id="a_node42"><a xlink:href="class_c_p_s_1_1_s_p_1_1_ph1_1_1_inductor.html" target="_top" xlink:title="Static phasor inductor model.">
<polygon fill="none" stroke="black" points="926,-38.5 926,-57.5 1048,-57.5 1048,-38.5 926,-38.5"/>
<text text-anchor="middle" x="987" y="-45.5" font-family="Helvetica" font-size="10.00">CPS::SP::Ph1::Inductor</text>
</a>
</g>
</g>
<!-- Node7&#45;&gt;Node55 -->
<g id="edge42" class="edge">
<title>Node7&#45;&gt;Node55</title>
<path fill="none" stroke="midnightblue" d="M842.58,-693.17C847,-689.7 850.93,-685.67 854,-681 891.56,-623.9 843.59,-116.23 891,-67 900.22,-57.43 912.79,-51.96 925.77,-48.96"/>
<polygon fill="midnightblue" stroke="midnightblue" points="840.51,-690.34 834.17,-698.82 844.42,-696.15 840.51,-690.34"/>
</g>
<!-- Node56 -->
<g id="node43" class="node">
<title>Node56</title>
<g id="a_node43"><a xlink:href="class_c_p_s_1_1_s_p_1_1_ph1_1_1_load.html" target="_top" xlink:title=" ">
<polygon fill="none" stroke="black" points="933.5,-0.5 933.5,-19.5 1040.5,-19.5 1040.5,-0.5 933.5,-0.5"/>
<text text-anchor="middle" x="987" y="-7.5" font-family="Helvetica" font-size="10.00">CPS::SP::Ph1::Load</text>
</a>
</g>
</g>
<!-- Node7&#45;&gt;Node56 -->
<g id="edge43" class="edge">
<title>Node7&#45;&gt;Node56</title>
<path fill="none" stroke="midnightblue" d="M842.59,-693.18C847.01,-689.71 850.93,-685.68 854,-681 893.79,-620.32 840.45,-81.06 891,-29 902.01,-17.66 917.75,-12.08 933.25,-9.57"/>
<polygon fill="midnightblue" stroke="midnightblue" points="840.53,-690.35 834.19,-698.84 844.44,-696.15 840.53,-690.35"/>
</g>
<!-- Node116&#45;&gt;Node7 -->
<g id="edge46" class="edge">
<title>Node116&#45;&gt;Node7</title>
<path fill="none" stroke="orange" stroke-dasharray="5,2" d="M611.07,-689.1C646.66,-694.27 689.51,-700.5 723.47,-705.43"/>
<polygon fill="orange" stroke="orange" points="611.16,-685.58 600.76,-687.61 610.16,-692.51 611.16,-685.58"/>
<text text-anchor="middle" x="664.5" y="-703" font-family="Helvetica" font-size="10.00"> &lt; Complex &gt;</text>
</g>
<!-- Node116&#45;&gt;Node77 -->
<g id="edge47" class="edge">
<title>Node116&#45;&gt;Node77</title>
<path fill="none" stroke="orange" stroke-dasharray="5,2" d="M610.89,-671.34C618.68,-670.53 626.51,-669.73 634,-669 663.36,-666.13 696.02,-663.24 723.22,-660.91"/>
<polygon fill="orange" stroke="orange" points="610.27,-667.89 600.7,-672.42 611.01,-674.85 610.27,-667.89"/>
<text text-anchor="middle" x="664.5" y="-672" font-family="Helvetica" font-size="10.00"> &lt; Real &gt;</text>
</g>
<!-- Node119 -->
<g id="node47" class="node">
<title>Node119</title>
<g id="a_node47"><a xlink:href="class_c_p_s_1_1_sim_signal_comp.html" target="_top" xlink:title=" ">
<polygon fill="none" stroke="red" points="483.5,-587.5 483.5,-606.5 597.5,-606.5 597.5,-587.5 483.5,-587.5"/>
<text text-anchor="middle" x="540.5" y="-594.5" font-family="Helvetica" font-size="10.00">CPS::SimSignalComp</text>
</a>
</g>
</g>
<!-- Node118&#45;&gt;Node119 -->
<g id="edge49" class="edge">
<title>Node118&#45;&gt;Node119</title>
<path fill="none" stroke="midnightblue" d="M438.24,-609.14C453.54,-607.31 469.19,-605.43 483.47,-603.72"/>
<polygon fill="midnightblue" stroke="midnightblue" points="437.77,-605.67 428.26,-610.34 438.61,-612.62 437.77,-605.67"/>
</g>
<!-- Node133 -->
<g id="node49" class="node">
<title>Node133</title>
<g id="a_node49"><a xlink:href="class_c_p_s_1_1_sim_terminal.html" target="_top" xlink:title=" ">
<polygon fill="none" stroke="black" points="465,-549.5 465,-568.5 616,-568.5 616,-549.5 465,-549.5"/>
<text text-anchor="middle" x="540.5" y="-556.5" font-family="Helvetica" font-size="10.00">CPS::SimTerminal&lt; VarType &gt;</text>
</a>
</g>
</g>
<!-- Node132&#45;&gt;Node133 -->
<g id="edge51" class="edge">
<title>Node132&#45;&gt;Node133</title>
<path fill="none" stroke="midnightblue" d="M429.73,-561.99C441.32,-561.68 453.31,-561.35 464.91,-561.03"/>
<polygon fill="midnightblue" stroke="midnightblue" points="429.57,-558.49 419.66,-562.27 429.76,-565.49 429.57,-558.49"/>
</g>
</g>
</svg>
