<?xml version="1.0" encoding="UTF-8" standalone="no"?>
<!DOCTYPE svg PUBLIC "-//W3C//DTD SVG 1.1//EN"
 "http://www.w3.org/Graphics/SVG/1.1/DTD/svg11.dtd">
<!-- Generated by graphviz version 2.44.0 (0)
 -->
<!-- Title: CPS::SP::Ph1::SolidStateTransformer Pages: 1 -->
<svg width="1153pt" height="143pt"
 viewBox="0.00 0.00 1153.00 143.10" xmlns="http://www.w3.org/2000/svg" xmlns:xlink="http://www.w3.org/1999/xlink">
<g id="graph0" class="graph" transform="scale(1 1) rotate(0) translate(4 139.1)">
<title>CPS::SP::Ph1::SolidStateTransformer</title>
<!-- Node1 -->
<g id="node1" class="node">
<title>Node1</title>
<g id="a_node1"><a xlink:title=" ">
<polygon fill="#bfbfbf" stroke="black" points="1014,-44.5 1014,-74.5 1145,-74.5 1145,-44.5 1014,-44.5"/>
<text text-anchor="start" x="1022" y="-62.5" font-family="Helvetica" font-size="10.00">CPS::SP::Ph1::SolidState</text>
<text text-anchor="middle" x="1079.5" y="-51.5" font-family="Helvetica" font-size="10.00">Transformer</text>
</a>
</g>
</g>
<!-- Node2 -->
<g id="node2" class="node">
<title>Node2</title>
<g id="a_node2"><a xlink:href="class_c_p_s_1_1_sim_power_comp.html" target="_top" xlink:title=" ">
<polygon fill="none" stroke="black" points="849.5,-88.5 849.5,-118.5 969.5,-118.5 969.5,-88.5 849.5,-88.5"/>
<text text-anchor="start" x="857.5" y="-106.5" font-family="Helvetica" font-size="10.00">CPS::SimPowerComp&lt;</text>
<text text-anchor="middle" x="909.5" y="-95.5" font-family="Helvetica" font-size="10.00"> Complex &gt;</text>
</a>
</g>
</g>
<!-- Node2&#45;&gt;Node1 -->
<g id="edge1" class="edge">
<title>Node2&#45;&gt;Node1</title>
<path fill="none" stroke="midnightblue" d="M977.68,-85.91C992.07,-82.14 1007.15,-78.19 1021.13,-74.53"/>
<polygon fill="midnightblue" stroke="midnightblue" points="976.63,-82.56 967.85,-88.48 978.41,-89.33 976.63,-82.56"/>
</g>
<!-- Node3 -->
<g id="node3" class="node">
<title>Node3</title>
<g id="a_node3"><a xlink:href="class_c_p_s_1_1_topological_power_comp.html" target="_top" xlink:title=" ">
<polygon fill="none" stroke="black" points="385,-94 385,-113 531,-113 531,-94 385,-94"/>
<text text-anchor="middle" x="458" y="-101" font-family="Helvetica" font-size="10.00">CPS::TopologicalPowerComp</text>
</a>
</g>
</g>
<!-- Node3&#45;&gt;Node2 -->
<g id="edge2" class="edge">
<title>Node3&#45;&gt;Node2</title>
<path fill="none" stroke="midnightblue" d="M501.78,-115.66C521.72,-120.72 545.89,-126 568,-128.5 681.14,-141.31 711.02,-132.64 824,-118.5 832.13,-117.48 840.67,-116.21 849.06,-114.84"/>
<polygon fill="midnightblue" stroke="midnightblue" points="502.62,-112.26 492.06,-113.13 500.85,-119.04 502.62,-112.26"/>
</g>
<!-- Node6 -->
<g id="node6" class="node">
<title>Node6</title>
<g id="a_node6"><a xlink:href="class_c_p_s_1_1_sim_power_comp.html" target="_top" xlink:title="Base class for all components that are transmitting power.">
<polygon fill="none" stroke="black" points="568,-88.5 568,-118.5 688,-118.5 688,-88.5 568,-88.5"/>
<text text-anchor="start" x="576" y="-106.5" font-family="Helvetica" font-size="10.00">CPS::SimPowerComp&lt;</text>
<text text-anchor="middle" x="628" y="-95.5" font-family="Helvetica" font-size="10.00"> VarType &gt;</text>
</a>
</g>
</g>
<!-- Node3&#45;&gt;Node6 -->
<g id="edge6" class="edge">
<title>Node3&#45;&gt;Node6</title>
<path fill="none" stroke="midnightblue" d="M541.34,-103.5C550.34,-103.5 559.36,-103.5 567.99,-103.5"/>
<polygon fill="midnightblue" stroke="midnightblue" points="541.22,-100 531.22,-103.5 541.22,-107 541.22,-100"/>
</g>
<!-- Node4 -->
<g id="node4" class="node">
<title>Node4</title>
<g id="a_node4"><a xlink:href="class_c_p_s_1_1_identified_object.html" target="_top" xlink:title=" ">
<polygon fill="none" stroke="black" points="133,-93 133,-112 245,-112 245,-93 133,-93"/>
<text text-anchor="middle" x="189" y="-100" font-family="Helvetica" font-size="10.00">CPS::IdentifiedObject</text>
</a>
</g>
</g>
<!-- Node4&#45;&gt;Node3 -->
<g id="edge3" class="edge">
<title>Node4&#45;&gt;Node3</title>
<path fill="none" stroke="midnightblue" d="M255.53,-102.75C294.6,-102.89 344.26,-103.08 384.5,-103.23"/>
<polygon fill="midnightblue" stroke="midnightblue" points="255.34,-99.24 245.32,-102.71 255.31,-106.24 255.34,-99.24"/>
</g>
<!-- Node5 -->
<g id="node5" class="node">
<title>Node5</title>
<g id="a_node5"><a xlink:href="class_c_p_s_1_1_attribute_list.html" target="_top" xlink:title="Base class of objects having attributes to access member variables.">
<polygon fill="none" stroke="black" points="0,-66 0,-85 96,-85 96,-66 0,-66"/>
<text text-anchor="middle" x="48" y="-73" font-family="Helvetica" font-size="10.00">CPS::AttributeList</text>
</a>
</g>
</g>
<!-- Node5&#45;&gt;Node4 -->
<g id="edge4" class="edge">
<title>Node5&#45;&gt;Node4</title>
<path fill="none" stroke="midnightblue" d="M105.99,-86.57C116.98,-88.7 128.39,-90.92 139.09,-93"/>
<polygon fill="midnightblue" stroke="midnightblue" points="106.54,-83.11 96.06,-84.64 105.21,-89.98 106.54,-83.11"/>
</g>
<!-- Node9 -->
<g id="node9" class="node">
<title>Node9</title>
<g id="a_node9"><a xlink:href="class_c_p_s_1_1_m_n_a_interface.html" target="_top" xlink:title="Interface to be implemented by all models used by the MNA solver.">
<polygon fill="none" stroke="black" points="263,-53 263,-72 367,-72 367,-53 263,-53"/>
<text text-anchor="middle" x="315" y="-60" font-family="Helvetica" font-size="10.00">CPS::MNAInterface</text>
</a>
</g>
</g>
<!-- Node5&#45;&gt;Node9 -->
<g id="edge10" class="edge">
<title>Node5&#45;&gt;Node9</title>
<path fill="none" stroke="midnightblue" d="M106.31,-72.69C152.89,-70.4 218,-67.21 262.85,-65.01"/>
<polygon fill="midnightblue" stroke="midnightblue" points="105.89,-69.2 96.07,-73.19 106.23,-76.2 105.89,-69.2"/>
</g>
<!-- Node6&#45;&gt;Node2 -->
<g id="edge5" class="edge">
<title>Node6&#45;&gt;Node2</title>
<path fill="none" stroke="orange" stroke-dasharray="5,2" d="M698.55,-103.5C744.92,-103.5 805.23,-103.5 849.31,-103.5"/>
<polygon fill="orange" stroke="orange" points="698.27,-100 688.27,-103.5 698.27,-107 698.27,-100"/>
<text text-anchor="middle" x="765" y="-106.5" font-family="Helvetica" font-size="10.00"> &lt; Complex &gt;</text>
</g>
<!-- Node7 -->
<g id="node7" class="node">
<title>Node7</title>
<g id="a_node7"><a xlink:href="class_shared_factory.html" target="_top" xlink:title=" ">
<polygon fill="none" stroke="black" points="842,-0.5 842,-30.5 977,-30.5 977,-0.5 842,-0.5"/>
<text text-anchor="start" x="850" y="-18.5" font-family="Helvetica" font-size="10.00">SharedFactory&lt; SolidState</text>
<text text-anchor="middle" x="909.5" y="-7.5" font-family="Helvetica" font-size="10.00">Transformer &gt;</text>
</a>
</g>
</g>
<!-- Node7&#45;&gt;Node1 -->
<g id="edge7" class="edge">
<title>Node7&#45;&gt;Node1</title>
<path fill="none" stroke="midnightblue" d="M977.68,-33.09C992.07,-36.86 1007.15,-40.81 1021.13,-44.47"/>
<polygon fill="midnightblue" stroke="midnightblue" points="978.41,-29.67 967.85,-30.52 976.63,-36.44 978.41,-29.67"/>
</g>
<!-- Node8 -->
<g id="node8" class="node">
<title>Node8</title>
<g id="a_node8"><a xlink:href="class_shared_factory.html" target="_top" xlink:title=" ">
<polygon fill="none" stroke="black" points="575.5,-6 575.5,-25 680.5,-25 680.5,-6 575.5,-6"/>
<text text-anchor="middle" x="628" y="-13" font-family="Helvetica" font-size="10.00">SharedFactory&lt; T &gt;</text>
</a>
</g>
</g>
<!-- Node8&#45;&gt;Node7 -->
<g id="edge8" class="edge">
<title>Node8&#45;&gt;Node7</title>
<path fill="none" stroke="orange" stroke-dasharray="5,2" d="M690.75,-15.5C735.53,-15.5 796.02,-15.5 841.89,-15.5"/>
<polygon fill="orange" stroke="orange" points="690.59,-12 680.59,-15.5 690.59,-19 690.59,-12"/>
<text text-anchor="middle" x="765" y="-18.5" font-family="Helvetica" font-size="10.00"> &lt; SolidStateTransformer &gt;</text>
</g>
<!-- Node9&#45;&gt;Node1 -->
<g id="edge9" class="edge">
<title>Node9&#45;&gt;Node1</title>
<path fill="none" stroke="midnightblue" d="M377.38,-61.28C424.36,-60.45 490.77,-59.5 549,-59.5 549,-59.5 549,-59.5 910.5,-59.5 944.62,-59.5 982.65,-59.5 1013.88,-59.5"/>
<polygon fill="midnightblue" stroke="midnightblue" points="377.3,-57.78 367.36,-61.46 377.42,-64.78 377.3,-57.78"/>
</g>
</g>
</svg>
