<?xml version="1.0" encoding="UTF-8" standalone="no"?>
<!DOCTYPE svg PUBLIC "-//W3C//DTD SVG 1.1//EN"
 "http://www.w3.org/Graphics/SVG/1.1/DTD/svg11.dtd">
<!-- Generated by graphviz version 2.44.0 (0)
 -->
<!-- Title: CPS::DP::Ph1::SynchronGenerator6aOrderVBR Pages: 1 -->
<svg width="2360pt" height="556pt"
 viewBox="0.00 0.00 2360.00 555.62" xmlns="http://www.w3.org/2000/svg" xmlns:xlink="http://www.w3.org/1999/xlink">
<g id="graph0" class="graph" transform="scale(1 1) rotate(0) translate(4 551.62)">
<title>CPS::DP::Ph1::SynchronGenerator6aOrderVBR</title>
<!-- Node1 -->
<g id="node1" class="node">
<title>Node1</title>
<g id="a_node1"><a xlink:title="Voltage&#45;Behind&#45;Reactance (VBR) implementation of 6th order synchronous generator model Marconato&#39;s mo...">
<polygon fill="#bfbfbf" stroke="black" points="2170,-44.5 2170,-74.5 2352,-74.5 2352,-44.5 2170,-44.5"/>
<text text-anchor="start" x="2178" y="-62.5" font-family="Helvetica" font-size="10.00">CPS::DP::Ph1::SynchronGenerator6a</text>
<text text-anchor="middle" x="2261" y="-51.5" font-family="Helvetica" font-size="10.00">OrderVBR</text>
</a>
</g>
</g>
<!-- Node2 -->
<g id="node2" class="node">
<title>Node2</title>
<g id="a_node2"><a xlink:href="class_c_p_s_1_1_d_p_1_1_ph1_1_1_synchron_generator_v_b_r.html" target="_top" xlink:title="Base class for DP VBR synchronous generator model single phase.">
<polygon fill="none" stroke="black" points="1941,-323 1941,-342 2133,-342 2133,-323 1941,-323"/>
<text text-anchor="middle" x="2037" y="-330" font-family="Helvetica" font-size="10.00">CPS::DP::Ph1::SynchronGeneratorVBR</text>
</a>
</g>
</g>
<!-- Node2&#45;&gt;Node1 -->
<g id="edge1" class="edge">
<title>Node2&#45;&gt;Node1</title>
<path fill="none" stroke="midnightblue" d="M2052.41,-314.78C2093.25,-264.56 2209.25,-121.9 2247.56,-74.8"/>
<polygon fill="midnightblue" stroke="midnightblue" points="2049.49,-312.82 2045.9,-322.78 2054.93,-317.23 2049.49,-312.82"/>
</g>
<!-- Node3 -->
<g id="node3" class="node">
<title>Node3</title>
<g id="a_node3"><a xlink:href="class_c_p_s_1_1_base_1_1_reduced_order_synchron_generator.html" target="_top" xlink:title=" ">
<polygon fill="none" stroke="black" points="1598,-242.5 1598,-272.5 1774,-272.5 1774,-242.5 1598,-242.5"/>
<text text-anchor="start" x="1606" y="-260.5" font-family="Helvetica" font-size="10.00">CPS::Base::ReducedOrderSynchron</text>
<text text-anchor="middle" x="1686" y="-249.5" font-family="Helvetica" font-size="10.00">Generator&lt; Complex &gt;</text>
</a>
</g>
</g>
<!-- Node3&#45;&gt;Node2 -->
<g id="edge2" class="edge">
<title>Node3&#45;&gt;Node2</title>
<path fill="none" stroke="midnightblue" d="M1767.27,-274.75C1836.94,-289.72 1935.24,-310.85 1991.61,-322.96"/>
<polygon fill="midnightblue" stroke="midnightblue" points="1767.72,-271.27 1757.21,-272.59 1766.25,-278.11 1767.72,-271.27"/>
</g>
<!-- Node4 -->
<g id="node4" class="node">
<title>Node4</title>
<g id="a_node4"><a xlink:href="class_c_p_s_1_1_sim_power_comp.html" target="_top" xlink:title=" ">
<polygon fill="none" stroke="black" points="1353,-342.5 1353,-372.5 1473,-372.5 1473,-342.5 1353,-342.5"/>
<text text-anchor="start" x="1361" y="-360.5" font-family="Helvetica" font-size="10.00">CPS::SimPowerComp&lt;</text>
<text text-anchor="middle" x="1413" y="-349.5" font-family="Helvetica" font-size="10.00"> Complex &gt;</text>
</a>
</g>
</g>
<!-- Node4&#45;&gt;Node3 -->
<g id="edge3" class="edge">
<title>Node4&#45;&gt;Node3</title>
<path fill="none" stroke="midnightblue" d="M1483.1,-342.96C1513.36,-335.64 1548.96,-325.7 1580,-313.5 1608.84,-302.16 1639.93,-284.89 1660.74,-272.52"/>
<polygon fill="midnightblue" stroke="midnightblue" points="1481.98,-339.63 1473.06,-345.35 1483.6,-346.44 1481.98,-339.63"/>
</g>
<!-- Node5 -->
<g id="node5" class="node">
<title>Node5</title>
<g id="a_node5"><a xlink:href="class_c_p_s_1_1_topological_power_comp.html" target="_top" xlink:title=" ">
<polygon fill="none" stroke="black" points="863,-370 863,-389 1009,-389 1009,-370 863,-370"/>
<text text-anchor="middle" x="936" y="-377" font-family="Helvetica" font-size="10.00">CPS::TopologicalPowerComp</text>
</a>
</g>
</g>
<!-- Node5&#45;&gt;Node4 -->
<g id="edge4" class="edge">
<title>Node5&#45;&gt;Node4</title>
<path fill="none" stroke="midnightblue" d="M1019.64,-375.74C1094.62,-372.32 1208.23,-367.12 1307,-362.5 1321.86,-361.8 1337.9,-361.05 1352.86,-360.33"/>
<polygon fill="midnightblue" stroke="midnightblue" points="1019.15,-372.26 1009.32,-376.21 1019.47,-379.25 1019.15,-372.26"/>
</g>
<!-- Node13 -->
<g id="node13" class="node">
<title>Node13</title>
<g id="a_node13"><a xlink:href="class_c_p_s_1_1_sim_power_comp.html" target="_top" xlink:title="Base class for all components that are transmitting power.">
<polygon fill="none" stroke="black" points="1108,-321.5 1108,-351.5 1228,-351.5 1228,-321.5 1108,-321.5"/>
<text text-anchor="start" x="1116" y="-339.5" font-family="Helvetica" font-size="10.00">CPS::SimPowerComp&lt;</text>
<text text-anchor="middle" x="1168" y="-328.5" font-family="Helvetica" font-size="10.00"> VarType &gt;</text>
</a>
</g>
</g>
<!-- Node5&#45;&gt;Node13 -->
<g id="edge14" class="edge">
<title>Node5&#45;&gt;Node13</title>
<path fill="none" stroke="midnightblue" d="M997.88,-368.12C1031.94,-361.75 1074.21,-353.85 1107.97,-347.54"/>
<polygon fill="midnightblue" stroke="midnightblue" points="997.23,-364.68 988.04,-369.96 998.52,-371.56 997.23,-364.68"/>
</g>
<!-- Node6 -->
<g id="node6" class="node">
<title>Node6</title>
<g id="a_node6"><a xlink:href="class_c_p_s_1_1_identified_object.html" target="_top" xlink:title=" ">
<polygon fill="none" stroke="black" points="657,-370 657,-389 769,-389 769,-370 657,-370"/>
<text text-anchor="middle" x="713" y="-377" font-family="Helvetica" font-size="10.00">CPS::IdentifiedObject</text>
</a>
</g>
</g>
<!-- Node6&#45;&gt;Node5 -->
<g id="edge5" class="edge">
<title>Node6&#45;&gt;Node5</title>
<path fill="none" stroke="midnightblue" d="M779.43,-379.5C805.71,-379.5 836.09,-379.5 863,-379.5"/>
<polygon fill="midnightblue" stroke="midnightblue" points="779.2,-376 769.2,-379.5 779.2,-383 779.2,-376"/>
</g>
<!-- Node7 -->
<g id="node7" class="node">
<title>Node7</title>
<g id="a_node7"><a xlink:href="class_c_p_s_1_1_attribute_list.html" target="_top" xlink:title="Base class of objects having attributes to access member variables.">
<polygon fill="none" stroke="black" points="455.5,-344 455.5,-363 551.5,-363 551.5,-344 455.5,-344"/>
<text text-anchor="middle" x="503.5" y="-351" font-family="Helvetica" font-size="10.00">CPS::AttributeList</text>
</a>
</g>
</g>
<!-- Node7&#45;&gt;Node6 -->
<g id="edge6" class="edge">
<title>Node7&#45;&gt;Node6</title>
<path fill="none" stroke="midnightblue" d="M561.77,-360.68C591.37,-364.38 627.33,-368.89 656.64,-372.56"/>
<polygon fill="midnightblue" stroke="midnightblue" points="561.94,-357.17 551.58,-359.4 561.07,-364.12 561.94,-357.17"/>
</g>
<!-- Node16 -->
<g id="node16" class="node">
<title>Node16</title>
<g id="a_node16"><a xlink:href="class_c_p_s_1_1_m_n_a_interface.html" target="_top" xlink:title="Interface to be implemented by all models used by the MNA solver.">
<polygon fill="none" stroke="black" points="1116,-274 1116,-293 1220,-293 1220,-274 1116,-274"/>
<text text-anchor="middle" x="1168" y="-281" font-family="Helvetica" font-size="10.00">CPS::MNAInterface</text>
</a>
</g>
</g>
<!-- Node7&#45;&gt;Node16 -->
<g id="edge20" class="edge">
<title>Node7&#45;&gt;Node16</title>
<path fill="none" stroke="midnightblue" d="M561.67,-348.82C629.36,-343.15 745.48,-333.05 845,-322.5 940.76,-312.34 1052.26,-298.36 1115.75,-290.18"/>
<polygon fill="midnightblue" stroke="midnightblue" points="561.31,-345.34 551.64,-349.65 561.89,-352.31 561.31,-345.34"/>
</g>
<!-- Node8 -->
<g id="node8" class="node">
<title>Node8</title>
<g id="a_node8"><a xlink:href="class_c_p_s_1_1_attribute.html" target="_top" xlink:title=" ">
<polygon fill="none" stroke="black" points="441.5,-384 441.5,-403 565.5,-403 565.5,-384 441.5,-384"/>
<text text-anchor="middle" x="503.5" y="-391" font-family="Helvetica" font-size="10.00">CPS::Attribute&lt; String &gt;</text>
</a>
</g>
</g>
<!-- Node8&#45;&gt;Node6 -->
<g id="edge7" class="edge">
<title>Node8&#45;&gt;Node6</title>
<path fill="none" stroke="#9a32cd" stroke-dasharray="5,2" d="M575.66,-388.7C602.25,-386.9 632.03,-384.9 656.96,-383.21"/>
<polygon fill="#9a32cd" stroke="#9a32cd" points="575.38,-385.21 565.63,-389.38 575.85,-392.19 575.38,-385.21"/>
<text text-anchor="middle" x="614.5" y="-400.5" font-family="Helvetica" font-size="10.00"> mName</text>
<text text-anchor="middle" x="614.5" y="-389.5" font-family="Helvetica" font-size="10.00">mUID</text>
</g>
<!-- Node9 -->
<g id="node9" class="node">
<title>Node9</title>
<g id="a_node9"><a xlink:href="class_c_p_s_1_1_attribute_base.html" target="_top" xlink:title=" ">
<polygon fill="none" stroke="black" points="2.5,-245 2.5,-264 105.5,-264 105.5,-245 2.5,-245"/>
<text text-anchor="middle" x="54" y="-252" font-family="Helvetica" font-size="10.00">CPS::AttributeBase</text>
</a>
</g>
</g>
<!-- Node9&#45;&gt;Node8 -->
<g id="edge8" class="edge">
<title>Node9&#45;&gt;Node8</title>
<path fill="none" stroke="midnightblue" d="M77.05,-270.45C86.99,-278.12 98.58,-287.74 108,-297.5 126.96,-317.13 121.42,-332.77 145,-346.5 170.05,-361.09 346.05,-379.18 441.42,-388.06"/>
<polygon fill="midnightblue" stroke="midnightblue" points="78.93,-267.49 68.84,-264.27 74.72,-273.08 78.93,-267.49"/>
</g>
<!-- Node11 -->
<g id="node11" class="node">
<title>Node11</title>
<g id="a_node11"><a xlink:href="class_c_p_s_1_1_attribute.html" target="_top" xlink:title=" ">
<polygon fill="none" stroke="black" points="162,-318 162,-337 266,-337 266,-318 162,-318"/>
<text text-anchor="middle" x="214" y="-325" font-family="Helvetica" font-size="10.00">CPS::Attribute&lt; T &gt;</text>
</a>
</g>
</g>
<!-- Node9&#45;&gt;Node11 -->
<g id="edge11" class="edge">
<title>Node9&#45;&gt;Node11</title>
<path fill="none" stroke="midnightblue" d="M76.87,-269.9C94.56,-281.79 120.49,-297.95 145,-308.5 153.56,-312.18 163.03,-315.35 172.11,-317.99"/>
<polygon fill="midnightblue" stroke="midnightblue" points="78.64,-266.88 68.41,-264.12 74.69,-272.66 78.64,-266.88"/>
</g>
<!-- Node14 -->
<g id="node14" class="node">
<title>Node14</title>
<g id="a_node14"><a xlink:href="class_c_p_s_1_1_attribute.html" target="_top" xlink:title=" ">
<polygon fill="none" stroke="black" points="438,-241.5 438,-271.5 569,-271.5 569,-241.5 438,-241.5"/>
<text text-anchor="start" x="446" y="-259.5" font-family="Helvetica" font-size="10.00">CPS::Attribute&lt; MatrixVar</text>
<text text-anchor="middle" x="503.5" y="-248.5" font-family="Helvetica" font-size="10.00">&lt; VarType &gt; &gt;</text>
</a>
</g>
</g>
<!-- Node9&#45;&gt;Node14 -->
<g id="edge16" class="edge">
<title>Node9&#45;&gt;Node14</title>
<path fill="none" stroke="midnightblue" d="M115.92,-249.89C125.64,-249.31 135.59,-248.81 145,-248.5 247.38,-245.09 366.3,-249.4 437.9,-252.89"/>
<polygon fill="midnightblue" stroke="midnightblue" points="115.66,-246.4 105.9,-250.51 116.1,-253.38 115.66,-246.4"/>
</g>
<!-- Node17 -->
<g id="node17" class="node">
<title>Node17</title>
<g id="a_node17"><a xlink:href="class_c_p_s_1_1_attribute.html" target="_top" xlink:title=" ">
<polygon fill="none" stroke="black" points="873.5,-169 873.5,-188 998.5,-188 998.5,-169 873.5,-169"/>
<text text-anchor="middle" x="936" y="-176" font-family="Helvetica" font-size="10.00">CPS::Attribute&lt; Matrix &gt;</text>
</a>
</g>
</g>
<!-- Node9&#45;&gt;Node17 -->
<g id="edge22" class="edge">
<title>Node9&#45;&gt;Node17</title>
<path fill="none" stroke="midnightblue" d="M89.41,-241.53C136.4,-224.56 223.66,-195.66 301,-184.5 509.09,-154.47 759.59,-165.91 873.38,-173.66"/>
<polygon fill="midnightblue" stroke="midnightblue" points="88.2,-238.24 80.01,-244.96 90.6,-244.82 88.2,-238.24"/>
</g>
<!-- Node19 -->
<g id="node19" class="node">
<title>Node19</title>
<g id="a_node19"><a xlink:href="class_c_p_s_1_1_attribute.html" target="_top" xlink:title=" ">
<polygon fill="none" stroke="black" points="444.5,-71 444.5,-90 562.5,-90 562.5,-71 444.5,-71"/>
<text text-anchor="middle" x="503.5" y="-78" font-family="Helvetica" font-size="10.00">CPS::Attribute&lt; Real &gt;</text>
</a>
</g>
</g>
<!-- Node9&#45;&gt;Node19 -->
<g id="edge26" class="edge">
<title>Node9&#45;&gt;Node19</title>
<path fill="none" stroke="midnightblue" d="M59.23,-234.71C68.07,-198.82 92.23,-123.74 145,-91.5 247.53,-28.85 399.31,-54.62 467.31,-70.94"/>
<polygon fill="midnightblue" stroke="midnightblue" points="55.72,-234.35 56.88,-244.88 62.54,-235.92 55.72,-234.35"/>
</g>
<!-- Node23 -->
<g id="node23" class="node">
<title>Node23</title>
<g id="a_node23"><a xlink:href="class_c_p_s_1_1_attribute.html" target="_top" xlink:title=" ">
<polygon fill="none" stroke="black" points="435,-450 435,-469 572,-469 572,-450 435,-450"/>
<text text-anchor="middle" x="503.5" y="-457" font-family="Helvetica" font-size="10.00">CPS::Attribute&lt; Complex &gt;</text>
</a>
</g>
</g>
<!-- Node9&#45;&gt;Node23 -->
<g id="edge37" class="edge">
<title>Node9&#45;&gt;Node23</title>
<path fill="none" stroke="midnightblue" d="M80.88,-269.72C90.88,-276.9 101.47,-286.35 108,-297.5 156.81,-380.77 71.16,-449.33 145,-511.5 248.87,-598.96 432.74,-501.3 487.01,-469.08"/>
<polygon fill="midnightblue" stroke="midnightblue" points="82.62,-266.67 72.36,-264.01 78.72,-272.48 82.62,-266.67"/>
</g>
<!-- Node10 -->
<g id="node10" class="node">
<title>Node10</title>
<g id="a_node10"><a xlink:title=" ">
<polygon fill="none" stroke="#bfbfbf" points="160,-401 160,-442 268,-442 268,-401 160,-401"/>
<text text-anchor="start" x="168" y="-430" font-family="Helvetica" font-size="10.00">std::enable_shared</text>
<text text-anchor="start" x="168" y="-419" font-family="Helvetica" font-size="10.00">_from_this&lt; Attribute</text>
<text text-anchor="middle" x="214" y="-408" font-family="Helvetica" font-size="10.00">&lt; String &gt; &gt;</text>
</a>
</g>
</g>
<!-- Node10&#45;&gt;Node8 -->
<g id="edge9" class="edge">
<title>Node10&#45;&gt;Node8</title>
<path fill="none" stroke="midnightblue" d="M278.19,-424.34C318.19,-425.13 370.87,-424.32 417,-417.5 436.83,-414.57 458.57,-408.43 475.16,-403.09"/>
<polygon fill="midnightblue" stroke="midnightblue" points="278.12,-420.84 268.04,-424.1 277.96,-427.84 278.12,-420.84"/>
</g>
<!-- Node11&#45;&gt;Node8 -->
<g id="edge10" class="edge">
<title>Node11&#45;&gt;Node8</title>
<path fill="none" stroke="orange" stroke-dasharray="5,2" d="M276.41,-328.1C326.91,-329.58 393.79,-334.13 417,-347.5 428.86,-354.34 423.89,-364.5 435,-372.5 441.67,-377.31 449.48,-381.03 457.36,-383.92"/>
<polygon fill="orange" stroke="orange" points="276.31,-324.6 266.23,-327.83 276.13,-331.59 276.31,-324.6"/>
<text text-anchor="middle" x="359" y="-350.5" font-family="Helvetica" font-size="10.00"> &lt; String &gt;</text>
</g>
<!-- Node11&#45;&gt;Node14 -->
<g id="edge18" class="edge">
<title>Node11&#45;&gt;Node14</title>
<path fill="none" stroke="orange" stroke-dasharray="5,2" d="M272.14,-314.19C275.92,-312.51 279.58,-310.62 283,-308.5 293.16,-302.2 290.49,-294.21 301,-288.5 313,-281.98 383.7,-271.7 438,-264.56"/>
<polygon fill="orange" stroke="orange" points="270.58,-311.04 262.55,-317.96 273.14,-317.56 270.58,-311.04"/>
<text text-anchor="middle" x="359" y="-291.5" font-family="Helvetica" font-size="10.00"> &lt; MatrixVar&lt; VarType &gt; &gt;</text>
</g>
<!-- Node11&#45;&gt;Node17 -->
<g id="edge24" class="edge">
<title>Node11&#45;&gt;Node17</title>
<path fill="none" stroke="orange" stroke-dasharray="5,2" d="M276.41,-322.38C347.91,-315.77 469.31,-302.56 572,-281.5 698.74,-255.5 845.98,-208.31 906.65,-188.1"/>
<polygon fill="orange" stroke="orange" points="275.88,-318.91 266.24,-323.31 276.51,-325.88 275.88,-318.91"/>
<text text-anchor="middle" x="614.5" y="-279.5" font-family="Helvetica" font-size="10.00"> &lt; Matrix &gt;</text>
</g>
<!-- Node11&#45;&gt;Node19 -->
<g id="edge28" class="edge">
<title>Node11&#45;&gt;Node19</title>
<path fill="none" stroke="orange" stroke-dasharray="5,2" d="M275.17,-314.6C277.98,-312.82 280.62,-310.79 283,-308.5 301.84,-290.37 286.51,-274.26 301,-252.5 352.38,-175.37 447.71,-113.1 485.98,-90.08"/>
<polygon fill="orange" stroke="orange" points="273.52,-311.51 266.29,-319.25 276.77,-317.71 273.52,-311.51"/>
<text text-anchor="middle" x="359" y="-255.5" font-family="Helvetica" font-size="10.00"> &lt; Real &gt;</text>
</g>
<!-- Node11&#45;&gt;Node23 -->
<g id="edge39" class="edge">
<title>Node11&#45;&gt;Node23</title>
<path fill="none" stroke="orange" stroke-dasharray="5,2" d="M245.27,-341.4C303.9,-368.31 431.6,-426.95 481.72,-449.96"/>
<polygon fill="orange" stroke="orange" points="246.69,-338.2 236.14,-337.21 243.77,-344.56 246.69,-338.2"/>
<text text-anchor="middle" x="359" y="-419.5" font-family="Helvetica" font-size="10.00"> &lt; Complex &gt;</text>
</g>
<!-- Node12 -->
<g id="node12" class="node">
<title>Node12</title>
<g id="a_node12"><a xlink:title=" ">
<polygon fill="none" stroke="#bfbfbf" points="0,-307 0,-348 108,-348 108,-307 0,-307"/>
<text text-anchor="start" x="8" y="-336" font-family="Helvetica" font-size="10.00">std::enable_shared</text>
<text text-anchor="start" x="8" y="-325" font-family="Helvetica" font-size="10.00">_from_this&lt; Attribute</text>
<text text-anchor="middle" x="54" y="-314" font-family="Helvetica" font-size="10.00">&lt; T &gt; &gt;</text>
</a>
</g>
</g>
<!-- Node12&#45;&gt;Node11 -->
<g id="edge12" class="edge">
<title>Node12&#45;&gt;Node11</title>
<path fill="none" stroke="midnightblue" d="M118.43,-327.5C132.9,-327.5 148.09,-327.5 161.96,-327.5"/>
<polygon fill="midnightblue" stroke="midnightblue" points="118.05,-324 108.05,-327.5 118.05,-331 118.05,-324"/>
</g>
<!-- Node13&#45;&gt;Node4 -->
<g id="edge13" class="edge">
<title>Node13&#45;&gt;Node4</title>
<path fill="none" stroke="orange" stroke-dasharray="5,2" d="M1238.11,-342.47C1274.24,-345.59 1318.01,-349.38 1352.6,-352.37"/>
<polygon fill="orange" stroke="orange" points="1238.4,-338.98 1228.13,-341.61 1237.8,-345.96 1238.4,-338.98"/>
<text text-anchor="middle" x="1276.5" y="-350.5" font-family="Helvetica" font-size="10.00"> &lt; Complex &gt;</text>
</g>
<!-- Node21 -->
<g id="node21" class="node">
<title>Node21</title>
<g id="a_node21"><a xlink:href="class_c_p_s_1_1_base_1_1_reduced_order_synchron_generator.html" target="_top" xlink:title=" ">
<polygon fill="none" stroke="black" points="1325,-156.5 1325,-186.5 1501,-186.5 1501,-156.5 1325,-156.5"/>
<text text-anchor="start" x="1333" y="-174.5" font-family="Helvetica" font-size="10.00">CPS::Base::ReducedOrderSynchron</text>
<text text-anchor="middle" x="1413" y="-163.5" font-family="Helvetica" font-size="10.00">Generator&lt; VarType &gt;</text>
</a>
</g>
</g>
<!-- Node13&#45;&gt;Node21 -->
<g id="edge31" class="edge">
<title>Node13&#45;&gt;Node21</title>
<path fill="none" stroke="midnightblue" d="M1232.67,-318.18C1257.1,-309.51 1284.49,-297.67 1307,-282.5 1347.25,-255.37 1383.61,-210.31 1401.07,-186.81"/>
<polygon fill="midnightblue" stroke="midnightblue" points="1231.44,-314.91 1223.12,-321.47 1233.71,-321.53 1231.44,-314.91"/>
</g>
<!-- Node14&#45;&gt;Node13 -->
<g id="edge15" class="edge">
<title>Node14&#45;&gt;Node13</title>
<path fill="none" stroke="#9a32cd" stroke-dasharray="5,2" d="M579.32,-265.54C712.25,-281.59 986.94,-314.76 1107.77,-329.35"/>
<polygon fill="#9a32cd" stroke="#9a32cd" points="579.58,-262.04 569.23,-264.32 578.74,-268.99 579.58,-262.04"/>
<text text-anchor="middle" x="816" y="-310.5" font-family="Helvetica" font-size="10.00"> mIntfCurrent</text>
<text text-anchor="middle" x="816" y="-299.5" font-family="Helvetica" font-size="10.00">mIntfVoltage</text>
</g>
<!-- Node15 -->
<g id="node15" class="node">
<title>Node15</title>
<g id="a_node15"><a xlink:title=" ">
<polygon fill="none" stroke="#bfbfbf" points="145,-258 145,-299 283,-299 283,-258 145,-258"/>
<text text-anchor="start" x="153" y="-287" font-family="Helvetica" font-size="10.00">std::enable_shared</text>
<text text-anchor="start" x="153" y="-276" font-family="Helvetica" font-size="10.00">_from_this&lt; Attribute</text>
<text text-anchor="middle" x="214" y="-265" font-family="Helvetica" font-size="10.00">&lt; MatrixVar&lt; VarType &gt; &gt; &gt;</text>
</a>
</g>
</g>
<!-- Node15&#45;&gt;Node14 -->
<g id="edge17" class="edge">
<title>Node15&#45;&gt;Node14</title>
<path fill="none" stroke="midnightblue" d="M293.23,-269.21C295.85,-268.96 298.45,-268.72 301,-268.5 346.56,-264.5 398.03,-261.46 437.55,-259.44"/>
<polygon fill="midnightblue" stroke="midnightblue" points="292.64,-265.76 283.03,-270.23 293.33,-272.72 292.64,-265.76"/>
</g>
<!-- Node16&#45;&gt;Node3 -->
<g id="edge19" class="edge">
<title>Node16&#45;&gt;Node3</title>
<path fill="none" stroke="midnightblue" d="M1230.16,-283.83C1254.13,-283.76 1281.86,-283.42 1307,-282.5 1406.9,-278.84 1521.43,-270.71 1598,-264.71"/>
<polygon fill="midnightblue" stroke="midnightblue" points="1230.13,-280.33 1220.13,-283.84 1230.14,-287.33 1230.13,-280.33"/>
</g>
<!-- Node16&#45;&gt;Node21 -->
<g id="edge32" class="edge">
<title>Node16&#45;&gt;Node21</title>
<path fill="none" stroke="midnightblue" d="M1230.11,-280.4C1254.87,-277.36 1283.18,-271.54 1307,-260.5 1345.37,-242.71 1380.88,-206.97 1399.14,-186.61"/>
<polygon fill="midnightblue" stroke="midnightblue" points="1229.65,-276.93 1220.09,-281.5 1230.42,-283.89 1229.65,-276.93"/>
</g>
<!-- Node17&#45;&gt;Node1 -->
<g id="edge42" class="edge">
<title>Node17&#45;&gt;Node1</title>
<path fill="none" stroke="#9a32cd" stroke-dasharray="5,2" d="M1000.19,-166.32C1003.19,-165.43 1006.14,-164.49 1009,-163.5 1017.45,-160.56 1018.81,-158.1 1027,-154.5 1135.23,-106.89 1157.26,-59.5 1275.5,-59.5 1275.5,-59.5 1275.5,-59.5 2038,-59.5 2081.36,-59.5 2129.48,-59.5 2169.81,-59.5"/>
<polygon fill="#9a32cd" stroke="#9a32cd" points="999.23,-162.95 990.5,-168.97 1001.07,-169.71 999.23,-162.95"/>
<text text-anchor="middle" x="1549.5" y="-73.5" font-family="Helvetica" font-size="10.00"> mEdq_s</text>
<text text-anchor="middle" x="1549.5" y="-62.5" font-family="Helvetica" font-size="10.00">mEdq_t</text>
</g>
<!-- Node17&#45;&gt;Node3 -->
<g id="edge29" class="edge">
<title>Node17&#45;&gt;Node3</title>
<path fill="none" stroke="#9a32cd" stroke-dasharray="5,2" d="M1008.8,-188.76C1039.35,-192.97 1075.38,-197.73 1108,-201.5 1281.46,-221.58 1484.83,-240.16 1597.89,-250.06"/>
<polygon fill="#9a32cd" stroke="#9a32cd" points="1009.05,-185.26 998.67,-187.35 1008.09,-192.19 1009.05,-185.26"/>
<text text-anchor="middle" x="1276.5" y="-257.5" font-family="Helvetica" font-size="10.00"> mIdq</text>
<text text-anchor="middle" x="1276.5" y="-246.5" font-family="Helvetica" font-size="10.00">mIdq0</text>
<text text-anchor="middle" x="1276.5" y="-235.5" font-family="Helvetica" font-size="10.00">mVdq</text>
<text text-anchor="middle" x="1276.5" y="-224.5" font-family="Helvetica" font-size="10.00">mVdq0</text>
</g>
<!-- Node17&#45;&gt;Node16 -->
<g id="edge21" class="edge">
<title>Node17&#45;&gt;Node16</title>
<path fill="none" stroke="#9a32cd" stroke-dasharray="5,2" d="M960.85,-193.3C978.7,-204.05 1003.91,-218.58 1027,-229.5 1064.68,-247.32 1109.95,-263.96 1138.6,-273.93"/>
<polygon fill="#9a32cd" stroke="#9a32cd" points="962.6,-190.26 952.24,-188.06 958.96,-196.24 962.6,-190.26"/>
<text text-anchor="middle" x="1058.5" y="-257.5" font-family="Helvetica" font-size="10.00"> mRightVector</text>
</g>
<!-- Node17&#45;&gt;Node21 -->
<g id="edge34" class="edge">
<title>Node17&#45;&gt;Node21</title>
<path fill="none" stroke="#9a32cd" stroke-dasharray="5,2" d="M1008.7,-167.72C1039.23,-163.64 1075.28,-159.5 1108,-157.5 1181.04,-153.03 1264.03,-157.5 1324.82,-162.54"/>
<polygon fill="#9a32cd" stroke="#9a32cd" points="1008.01,-164.28 998.57,-169.09 1008.95,-171.21 1008.01,-164.28"/>
<text text-anchor="middle" x="1168" y="-193.5" font-family="Helvetica" font-size="10.00"> mIdq</text>
<text text-anchor="middle" x="1168" y="-182.5" font-family="Helvetica" font-size="10.00">mIdq0</text>
<text text-anchor="middle" x="1168" y="-171.5" font-family="Helvetica" font-size="10.00">mVdq</text>
<text text-anchor="middle" x="1168" y="-160.5" font-family="Helvetica" font-size="10.00">mVdq0</text>
</g>
<!-- Node18 -->
<g id="node18" class="node">
<title>Node18</title>
<g id="a_node18"><a xlink:title=" ">
<polygon fill="none" stroke="#bfbfbf" points="659,-109 659,-150 767,-150 767,-109 659,-109"/>
<text text-anchor="start" x="667" y="-138" font-family="Helvetica" font-size="10.00">std::enable_shared</text>
<text text-anchor="start" x="667" y="-127" font-family="Helvetica" font-size="10.00">_from_this&lt; Attribute</text>
<text text-anchor="middle" x="713" y="-116" font-family="Helvetica" font-size="10.00">&lt; Matrix &gt; &gt;</text>
</a>
</g>
</g>
<!-- Node18&#45;&gt;Node17 -->
<g id="edge23" class="edge">
<title>Node18&#45;&gt;Node17</title>
<path fill="none" stroke="midnightblue" d="M777.32,-143.54C814.03,-151.68 859.28,-161.71 891.87,-168.94"/>
<polygon fill="midnightblue" stroke="midnightblue" points="777.74,-140.05 767.22,-141.3 776.22,-146.88 777.74,-140.05"/>
</g>
<!-- Node19&#45;&gt;Node3 -->
<g id="edge25" class="edge">
<title>Node19&#45;&gt;Node3</title>
<path fill="none" stroke="#9a32cd" stroke-dasharray="5,2" d="M533.57,-66.7C573.05,-49.27 646.23,-21.5 712,-21.5 712,-21.5 712,-21.5 1059.5,-21.5 1300.37,-21.5 1367.87,-58.4 1580,-172.5 1615.53,-191.61 1650.71,-223.41 1669.98,-242.22"/>
<polygon fill="#9a32cd" stroke="#9a32cd" points="531.97,-63.59 524.29,-70.89 534.84,-69.97 531.97,-63.59"/>
<text text-anchor="middle" x="1058.5" y="-57.5" font-family="Helvetica" font-size="10.00"> mDelta</text>
<text text-anchor="middle" x="1058.5" y="-46.5" font-family="Helvetica" font-size="10.00">mElecTorque</text>
<text text-anchor="middle" x="1058.5" y="-35.5" font-family="Helvetica" font-size="10.00">mOmMech</text>
<text text-anchor="middle" x="1058.5" y="-24.5" font-family="Helvetica" font-size="10.00">mThetaMech</text>
</g>
<!-- Node19&#45;&gt;Node21 -->
<g id="edge33" class="edge">
<title>Node19&#45;&gt;Node21</title>
<path fill="none" stroke="#9a32cd" stroke-dasharray="5,2" d="M573.12,-84.08C670.28,-89.41 853.43,-100.46 1009,-115.5 1141.84,-128.35 1175.06,-132.39 1307,-152.5 1314.97,-153.71 1323.26,-155.06 1331.53,-156.47"/>
<polygon fill="#9a32cd" stroke="#9a32cd" points="573.02,-80.57 562.85,-83.52 572.64,-87.56 573.02,-80.57"/>
<text text-anchor="middle" x="936" y="-151.5" font-family="Helvetica" font-size="10.00"> mDelta</text>
<text text-anchor="middle" x="936" y="-140.5" font-family="Helvetica" font-size="10.00">mElecTorque</text>
<text text-anchor="middle" x="936" y="-129.5" font-family="Helvetica" font-size="10.00">mOmMech</text>
<text text-anchor="middle" x="936" y="-118.5" font-family="Helvetica" font-size="10.00">mThetaMech</text>
</g>
<!-- Node20 -->
<g id="node20" class="node">
<title>Node20</title>
<g id="a_node20"><a xlink:title=" ">
<polygon fill="none" stroke="#bfbfbf" points="160,-101 160,-142 268,-142 268,-101 160,-101"/>
<text text-anchor="start" x="168" y="-130" font-family="Helvetica" font-size="10.00">std::enable_shared</text>
<text text-anchor="start" x="168" y="-119" font-family="Helvetica" font-size="10.00">_from_this&lt; Attribute</text>
<text text-anchor="middle" x="214" y="-108" font-family="Helvetica" font-size="10.00">&lt; Real &gt; &gt;</text>
</a>
</g>
</g>
<!-- Node20&#45;&gt;Node19 -->
<g id="edge27" class="edge">
<title>Node20&#45;&gt;Node19</title>
<path fill="none" stroke="midnightblue" d="M278.02,-112.51C327.57,-105.45 396.05,-95.68 444.31,-88.8"/>
<polygon fill="midnightblue" stroke="midnightblue" points="277.47,-109.06 268.07,-113.93 278.46,-115.99 277.47,-109.06"/>
</g>
<!-- Node21&#45;&gt;Node3 -->
<g id="edge30" class="edge">
<title>Node21&#45;&gt;Node3</title>
<path fill="none" stroke="orange" stroke-dasharray="5,2" d="M1511.5,-175.22C1534.43,-178.11 1558.45,-182.85 1580,-190.5 1613.42,-202.36 1647.11,-226.52 1667.01,-242.35"/>
<polygon fill="orange" stroke="orange" points="1511.75,-171.72 1501.41,-174.05 1510.94,-178.68 1511.75,-171.72"/>
<text text-anchor="middle" x="1549.5" y="-193.5" font-family="Helvetica" font-size="10.00"> &lt; Complex &gt;</text>
</g>
<!-- Node22 -->
<g id="node22" class="node">
<title>Node22</title>
<g id="a_node22"><a xlink:href="class_c_p_s_1_1_m_n_a_variable_comp_interface.html" target="_top" xlink:title="MNA interface to be used by elements that require recomputing of the system matrix.">
<polygon fill="none" stroke="black" points="1604,-460 1604,-479 1768,-479 1768,-460 1604,-460"/>
<text text-anchor="middle" x="1686" y="-467" font-family="Helvetica" font-size="10.00">CPS::MNAVariableCompInterface</text>
</a>
</g>
</g>
<!-- Node22&#45;&gt;Node2 -->
<g id="edge35" class="edge">
<title>Node22&#45;&gt;Node2</title>
<path fill="none" stroke="midnightblue" d="M1778.33,-474.32C1823.78,-473.29 1878.38,-466.69 1923,-445.5 1973.62,-421.46 2014.71,-365 2029.79,-342.25"/>
<polygon fill="midnightblue" stroke="midnightblue" points="1778.13,-470.83 1768.18,-474.47 1778.23,-477.83 1778.13,-470.83"/>
</g>
<!-- Node23&#45;&gt;Node2 -->
<g id="edge36" class="edge">
<title>Node23&#45;&gt;Node2</title>
<path fill="none" stroke="#9a32cd" stroke-dasharray="5,2" d="M559.14,-448.06C600.83,-440.32 659.78,-431.5 712,-431.5 712,-431.5 712,-431.5 1687,-431.5 1817.06,-431.5 1964.38,-367.08 2016.49,-342.17"/>
<polygon fill="#9a32cd" stroke="#9a32cd" points="558.37,-444.64 549.19,-449.94 559.67,-451.52 558.37,-444.64"/>
<text text-anchor="middle" x="1168" y="-434.5" font-family="Helvetica" font-size="10.00"> mEvbr</text>
</g>
<!-- Node24 -->
<g id="node24" class="node">
<title>Node24</title>
<g id="a_node24"><a xlink:title=" ">
<polygon fill="none" stroke="#bfbfbf" points="160,-461 160,-502 268,-502 268,-461 160,-461"/>
<text text-anchor="start" x="168" y="-490" font-family="Helvetica" font-size="10.00">std::enable_shared</text>
<text text-anchor="start" x="168" y="-479" font-family="Helvetica" font-size="10.00">_from_this&lt; Attribute</text>
<text text-anchor="middle" x="214" y="-468" font-family="Helvetica" font-size="10.00">&lt; Complex &gt; &gt;</text>
</a>
</g>
</g>
<!-- Node24&#45;&gt;Node23 -->
<g id="edge38" class="edge">
<title>Node24&#45;&gt;Node23</title>
<path fill="none" stroke="midnightblue" d="M278.28,-476.66C324.63,-473.11 387.42,-468.31 434.77,-464.68"/>
<polygon fill="midnightblue" stroke="midnightblue" points="277.77,-473.19 268.07,-477.44 278.3,-480.17 277.77,-473.19"/>
</g>
<!-- Node25 -->
<g id="node25" class="node">
<title>Node25</title>
<g id="a_node25"><a xlink:href="class_shared_factory.html" target="_top" xlink:title=" ">
<polygon fill="none" stroke="black" points="1944.5,-0.5 1944.5,-30.5 2129.5,-30.5 2129.5,-0.5 1944.5,-0.5"/>
<text text-anchor="start" x="1952.5" y="-18.5" font-family="Helvetica" font-size="10.00">SharedFactory&lt; SynchronGenerator6a</text>
<text text-anchor="middle" x="2037" y="-7.5" font-family="Helvetica" font-size="10.00">OrderVBR &gt;</text>
</a>
</g>
</g>
<!-- Node25&#45;&gt;Node1 -->
<g id="edge40" class="edge">
<title>Node25&#45;&gt;Node1</title>
<path fill="none" stroke="midnightblue" d="M2123.76,-32.5C2143.68,-36.44 2164.73,-40.62 2184.19,-44.47"/>
<polygon fill="midnightblue" stroke="midnightblue" points="2124.27,-29.03 2113.78,-30.52 2122.91,-35.9 2124.27,-29.03"/>
</g>
<!-- Node26 -->
<g id="node26" class="node">
<title>Node26</title>
<g id="a_node26"><a xlink:href="class_shared_factory.html" target="_top" xlink:title=" ">
<polygon fill="none" stroke="black" points="1633.5,-6 1633.5,-25 1738.5,-25 1738.5,-6 1633.5,-6"/>
<text text-anchor="middle" x="1686" y="-13" font-family="Helvetica" font-size="10.00">SharedFactory&lt; T &gt;</text>
</a>
</g>
</g>
<!-- Node26&#45;&gt;Node25 -->
<g id="edge41" class="edge">
<title>Node26&#45;&gt;Node25</title>
<path fill="none" stroke="orange" stroke-dasharray="5,2" d="M1749.04,-15.5C1803.32,-15.5 1882.89,-15.5 1944.49,-15.5"/>
<polygon fill="orange" stroke="orange" points="1748.87,-12 1738.87,-15.5 1748.87,-19 1748.87,-12"/>
<text text-anchor="start" x="1792" y="-29.5" font-family="Helvetica" font-size="10.00"> &lt; SynchronGenerator6aOrder</text>
<text text-anchor="middle" x="1857.5" y="-18.5" font-family="Helvetica" font-size="10.00">VBR &gt;</text>
</g>
</g>
</svg>
