<?xml version="1.0" encoding="UTF-8" standalone="no"?>
<!DOCTYPE svg PUBLIC "-//W3C//DTD SVG 1.1//EN"
 "http://www.w3.org/Graphics/SVG/1.1/DTD/svg11.dtd">
<!-- Generated by graphviz version 2.50.0 (0)
 -->
<!-- Title: CPS::SimTerminal&lt; VarType &gt; Pages: 1 -->
<svg width="362pt" height="163pt"
 viewBox="0.00 0.00 361.50 163.00" xmlns="http://www.w3.org/2000/svg" xmlns:xlink="http://www.w3.org/1999/xlink">
<g id="graph0" class="graph" transform="scale(1 1) rotate(0) translate(4 159)">
<title>CPS::SimTerminal&lt; VarType &gt;</title>
<!-- Node1 -->
<g id="node1" class="node">
<title>Node1</title>
<g id="a_node1"><a xlink:title=" ">
<polygon fill="#bfbfbf" stroke="black" points="68,-0.5 68,-19.5 219,-19.5 219,-0.5 68,-0.5"/>
<text text-anchor="middle" x="143.5" y="-7.5" font-family="Helvetica,sans-Serif" font-size="10.00">CPS::SimTerminal&lt; VarType &gt;</text>
</a>
</g>
</g>
<!-- Node2 -->
<g id="node2" class="node">
<title>Node2</title>
<g id="a_node2"><a xlink:href="class_c_p_s_1_1_topological_terminal.html" target="_top" xlink:title=" ">
<polygon fill="none" stroke="black" points="0,-63 0,-82 131,-82 131,-63 0,-63"/>
<text text-anchor="middle" x="65.5" y="-70" font-family="Helvetica,sans-Serif" font-size="10.00">CPS::TopologicalTerminal</text>
</a>
</g>
</g>
<!-- Node2&#45;&gt;Node1 -->
<g id="edge1" class="edge">
<title>Node2&#45;&gt;Node1</title>
<path fill="none" stroke="midnightblue" d="M84.78,-56.55C99.74,-44.94 119.96,-29.26 132.35,-19.65"/>
<polygon fill="midnightblue" stroke="midnightblue" points="82.43,-53.94 76.68,-62.83 86.72,-59.47 82.43,-53.94"/>
</g>
<!-- Node3 -->
<g id="node3" class="node">
<title>Node3</title>
<g id="a_node3"><a xlink:href="class_c_p_s_1_1_identified_object.html" target="_top" xlink:title=" ">
<polygon fill="none" stroke="black" points="7.5,-135.5 7.5,-154.5 123.5,-154.5 123.5,-135.5 7.5,-135.5"/>
<text text-anchor="middle" x="65.5" y="-142.5" font-family="Helvetica,sans-Serif" font-size="10.00">CPS::IdentifiedObject</text>
</a>
</g>
</g>
<!-- Node3&#45;&gt;Node2 -->
<g id="edge2" class="edge">
<title>Node3&#45;&gt;Node2</title>
<path fill="none" stroke="midnightblue" d="M65.5,-124.94C65.5,-111.03 65.5,-92.82 65.5,-82.22"/>
<polygon fill="midnightblue" stroke="midnightblue" points="62,-125.36 65.5,-135.36 69,-125.36 62,-125.36"/>
</g>
<!-- Node4 -->
<g id="node4" class="node">
<title>Node4</title>
<g id="a_node4"><a xlink:href="class_shared_factory.html" target="_top" xlink:title=" ">
<polygon fill="none" stroke="black" points="149.5,-57.5 149.5,-87.5 297.5,-87.5 297.5,-57.5 149.5,-57.5"/>
<text text-anchor="start" x="157.5" y="-75.5" font-family="Helvetica,sans-Serif" font-size="10.00">SharedFactory&lt; SimTerminal</text>
<text text-anchor="middle" x="223.5" y="-64.5" font-family="Helvetica,sans-Serif" font-size="10.00">&lt; VarType &gt; &gt;</text>
</a>
</g>
</g>
<!-- Node4&#45;&gt;Node1 -->
<g id="edge3" class="edge">
<title>Node4&#45;&gt;Node1</title>
<path fill="none" stroke="midnightblue" d="M196.88,-51.37C182.57,-40.55 165.68,-27.78 154.79,-19.54"/>
<polygon fill="midnightblue" stroke="midnightblue" points="194.86,-54.23 204.95,-57.47 199.08,-48.64 194.86,-54.23"/>
</g>
<!-- Node5 -->
<g id="node5" class="node">
<title>Node5</title>
<g id="a_node5"><a xlink:href="class_shared_factory.html" target="_top" xlink:title=" ">
<polygon fill="none" stroke="black" points="171,-135.5 171,-154.5 276,-154.5 276,-135.5 171,-135.5"/>
<text text-anchor="middle" x="223.5" y="-142.5" font-family="Helvetica,sans-Serif" font-size="10.00">SharedFactory&lt; T &gt;</text>
</a>
</g>
</g>
<!-- Node5&#45;&gt;Node4 -->
<g id="edge4" class="edge">
<title>Node5&#45;&gt;Node4</title>
<path fill="none" stroke="orange" stroke-dasharray="5,2" d="M223.5,-125.24C223.5,-113.41 223.5,-98.38 223.5,-87.58"/>
<polygon fill="orange" stroke="orange" points="220,-125.36 223.5,-135.36 227,-125.36 220,-125.36"/>
<text text-anchor="middle" x="288.5" y="-109" font-family="Helvetica,sans-Serif" font-size="10.00"> &lt; SimTerminal&lt; VarType &gt; &gt;</text>
</g>
</g>
</svg>
