<?xml version="1.0" encoding="UTF-8" standalone="no"?>
<!DOCTYPE svg PUBLIC "-//W3C//DTD SVG 1.1//EN"
 "http://www.w3.org/Graphics/SVG/1.1/DTD/svg11.dtd">
<!-- Generated by graphviz version 2.50.0 (0)
 -->
<!-- Title: CPS::DP::Ph3::SynchronGeneratorVBR Pages: 1 -->
<svg width="1045pt" height="165pt"
 viewBox="0.00 0.00 1045.00 165.00" xmlns="http://www.w3.org/2000/svg" xmlns:xlink="http://www.w3.org/1999/xlink">
<g id="graph0" class="graph" transform="scale(1 1) rotate(0) translate(4 161)">
<title>CPS::DP::Ph3::SynchronGeneratorVBR</title>
<!-- Node1 -->
<g id="node1" class="node">
<title>Node1</title>
<g id="a_node1"><a xlink:title=" ">
<polygon fill="#bfbfbf" stroke="black" points="843,-69 843,-88 1037,-88 1037,-69 843,-69"/>
<text text-anchor="middle" x="940" y="-76" font-family="Helvetica,sans-Serif" font-size="10.00">CPS::DP::Ph3::SynchronGeneratorVBR</text>
</a>
</g>
</g>
<!-- Node2 -->
<g id="node2" class="node">
<title>Node2</title>
<g id="a_node2"><a xlink:href="class_c_p_s_1_1_sim_power_comp.html" target="_top" xlink:title=" ">
<polygon fill="none" stroke="black" points="655,-126.5 655,-156.5 774,-156.5 774,-126.5 655,-126.5"/>
<text text-anchor="start" x="663" y="-144.5" font-family="Helvetica,sans-Serif" font-size="10.00">CPS::SimPowerComp&lt;</text>
<text text-anchor="middle" x="714.5" y="-133.5" font-family="Helvetica,sans-Serif" font-size="10.00"> Complex &gt;</text>
</a>
</g>
</g>
<!-- Node2&#45;&gt;Node1 -->
<g id="edge1" class="edge">
<title>Node2&#45;&gt;Node1</title>
<path fill="none" stroke="midnightblue" d="M780.26,-123.68C788.92,-121.28 797.68,-118.84 806,-116.5 840.1,-106.92 879.06,-95.76 905.96,-88.03"/>
<polygon fill="midnightblue" stroke="midnightblue" points="779.26,-120.33 770.56,-126.37 781.13,-127.08 779.26,-120.33"/>
</g>
<!-- Node3 -->
<g id="node3" class="node">
<title>Node3</title>
<g id="a_node3"><a xlink:href="class_c_p_s_1_1_topological_power_comp.html" target="_top" xlink:title=" ">
<polygon fill="none" stroke="black" points="153,-132 153,-151 301,-151 301,-132 153,-132"/>
<text text-anchor="middle" x="227" y="-139" font-family="Helvetica,sans-Serif" font-size="10.00">CPS::TopologicalPowerComp</text>
</a>
</g>
</g>
<!-- Node3&#45;&gt;Node2 -->
<g id="edge2" class="edge">
<title>Node3&#45;&gt;Node2</title>
<path fill="none" stroke="midnightblue" d="M311.39,-145.48C387.79,-148.54 504.03,-151.75 605,-148.5 621.22,-147.98 638.79,-147.02 654.97,-145.97"/>
<polygon fill="midnightblue" stroke="midnightblue" points="311.48,-141.98 301.35,-145.06 311.19,-148.97 311.48,-141.98"/>
</g>
<!-- Node5 -->
<g id="node5" class="node">
<title>Node5</title>
<g id="a_node5"><a xlink:href="class_c_p_s_1_1_sim_power_comp.html" target="_top" xlink:title="Base class for all components that are transmitting power.">
<polygon fill="none" stroke="black" points="338,-104.5 338,-134.5 457,-134.5 457,-104.5 338,-104.5"/>
<text text-anchor="start" x="346" y="-122.5" font-family="Helvetica,sans-Serif" font-size="10.00">CPS::SimPowerComp&lt;</text>
<text text-anchor="middle" x="397.5" y="-111.5" font-family="Helvetica,sans-Serif" font-size="10.00"> VarType &gt;</text>
</a>
</g>
</g>
<!-- Node3&#45;&gt;Node5 -->
<g id="edge5" class="edge">
<title>Node3&#45;&gt;Node5</title>
<path fill="none" stroke="midnightblue" d="M311.12,-130.65C320.18,-129.47 329.25,-128.28 337.92,-127.15"/>
<polygon fill="midnightblue" stroke="midnightblue" points="310.39,-127.21 300.93,-131.98 311.3,-134.15 310.39,-127.21"/>
</g>
<!-- Node4 -->
<g id="node4" class="node">
<title>Node4</title>
<g id="a_node4"><a xlink:href="class_c_p_s_1_1_identified_object.html" target="_top" xlink:title=" ">
<polygon fill="none" stroke="black" points="0,-132 0,-151 116,-151 116,-132 0,-132"/>
<text text-anchor="middle" x="58" y="-139" font-family="Helvetica,sans-Serif" font-size="10.00">CPS::IdentifiedObject</text>
</a>
</g>
</g>
<!-- Node4&#45;&gt;Node3 -->
<g id="edge3" class="edge">
<title>Node4&#45;&gt;Node3</title>
<path fill="none" stroke="midnightblue" d="M126.13,-141.5C134.88,-141.5 143.88,-141.5 152.72,-141.5"/>
<polygon fill="midnightblue" stroke="midnightblue" points="126,-138 116,-141.5 126,-145 126,-138"/>
</g>
<!-- Node5&#45;&gt;Node2 -->
<g id="edge4" class="edge">
<title>Node5&#45;&gt;Node2</title>
<path fill="none" stroke="orange" stroke-dasharray="5,2" d="M467.21,-124.3C523.26,-128.21 601.6,-133.68 654.77,-137.4"/>
<polygon fill="orange" stroke="orange" points="467.23,-120.79 457.01,-123.59 466.74,-127.77 467.23,-120.79"/>
<text text-anchor="middle" x="540" y="-136.5" font-family="Helvetica,sans-Serif" font-size="10.00"> &lt; Complex &gt;</text>
</g>
<!-- Node6 -->
<g id="node6" class="node">
<title>Node6</title>
<g id="a_node6"><a xlink:href="class_c_p_s_1_1_base_1_1_synchron_generator.html" target="_top" xlink:title="Base synchronous generator model.">
<polygon fill="none" stroke="black" points="634.5,-88 634.5,-107 794.5,-107 794.5,-88 634.5,-88"/>
<text text-anchor="middle" x="714.5" y="-95" font-family="Helvetica,sans-Serif" font-size="10.00">CPS::Base::SynchronGenerator</text>
</a>
</g>
</g>
<!-- Node6&#45;&gt;Node1 -->
<g id="edge6" class="edge">
<title>Node6&#45;&gt;Node1</title>
<path fill="none" stroke="midnightblue" d="M804.58,-89.93C817.12,-88.86 830.07,-87.76 842.74,-86.68"/>
<polygon fill="midnightblue" stroke="midnightblue" points="804.28,-86.44 794.61,-90.77 804.87,-93.41 804.28,-86.44"/>
</g>
<!-- Node7 -->
<g id="node7" class="node">
<title>Node7</title>
<g id="a_node7"><a xlink:href="class_c_p_s_1_1_m_n_a_interface.html" target="_top" xlink:title="Interface to be implemented by all models used by the MNA solver.">
<polygon fill="none" stroke="black" points="661,-50 661,-69 768,-69 768,-50 661,-50"/>
<text text-anchor="middle" x="714.5" y="-57" font-family="Helvetica,sans-Serif" font-size="10.00">CPS::MNAInterface</text>
</a>
</g>
</g>
<!-- Node7&#45;&gt;Node1 -->
<g id="edge7" class="edge">
<title>Node7&#45;&gt;Node1</title>
<path fill="none" stroke="midnightblue" d="M778.4,-64.85C798.42,-66.55 821.05,-68.47 842.87,-70.33"/>
<polygon fill="midnightblue" stroke="midnightblue" points="778.44,-61.34 768.18,-63.98 777.85,-68.31 778.44,-61.34"/>
</g>
<!-- Node8 -->
<g id="node8" class="node">
<title>Node8</title>
<g id="a_node8"><a xlink:href="class_shared_factory.html" target="_top" xlink:title=" ">
<polygon fill="none" stroke="black" points="623,-0.5 623,-30.5 806,-30.5 806,-0.5 623,-0.5"/>
<text text-anchor="start" x="631" y="-18.5" font-family="Helvetica,sans-Serif" font-size="10.00">SharedFactory&lt; SynchronGenerator</text>
<text text-anchor="middle" x="714.5" y="-7.5" font-family="Helvetica,sans-Serif" font-size="10.00">VBR &gt;</text>
</a>
</g>
</g>
<!-- Node8&#45;&gt;Node1 -->
<g id="edge8" class="edge">
<title>Node8&#45;&gt;Node1</title>
<path fill="none" stroke="midnightblue" d="M780.26,-33.32C788.92,-35.72 797.68,-38.16 806,-40.5 840.1,-50.08 879.06,-61.24 905.96,-68.97"/>
<polygon fill="midnightblue" stroke="midnightblue" points="781.13,-29.92 770.56,-30.63 779.26,-36.67 781.13,-29.92"/>
</g>
<!-- Node9 -->
<g id="node9" class="node">
<title>Node9</title>
<g id="a_node9"><a xlink:href="class_shared_factory.html" target="_top" xlink:title=" ">
<polygon fill="none" stroke="black" points="345,-6 345,-25 450,-25 450,-6 345,-6"/>
<text text-anchor="middle" x="397.5" y="-13" font-family="Helvetica,sans-Serif" font-size="10.00">SharedFactory&lt; T &gt;</text>
</a>
</g>
</g>
<!-- Node9&#45;&gt;Node8 -->
<g id="edge9" class="edge">
<title>Node9&#45;&gt;Node8</title>
<path fill="none" stroke="orange" stroke-dasharray="5,2" d="M460.36,-15.5C506.71,-15.5 570.84,-15.5 622.95,-15.5"/>
<polygon fill="orange" stroke="orange" points="460.16,-12 450.16,-15.5 460.16,-19 460.16,-12"/>
<text text-anchor="middle" x="540" y="-18.5" font-family="Helvetica,sans-Serif" font-size="10.00"> &lt; SynchronGeneratorVBR &gt;</text>
</g>
</g>
</svg>
