<?xml version="1.0" encoding="UTF-8" standalone="no"?>
<!DOCTYPE svg PUBLIC "-//W3C//DTD SVG 1.1//EN"
 "http://www.w3.org/Graphics/SVG/1.1/DTD/svg11.dtd">
<!-- Generated by graphviz version 2.50.0 (0)
 -->
<!-- Title: CPS::SP::Ph1::Resistor Pages: 1 -->
<svg width="1104pt" height="241pt"
 viewBox="0.00 0.00 1104.00 240.50" xmlns="http://www.w3.org/2000/svg" xmlns:xlink="http://www.w3.org/1999/xlink">
<g id="graph0" class="graph" transform="scale(1 1) rotate(0) translate(4 236.5)">
<title>CPS::SP::Ph1::Resistor</title>
<!-- Node1 -->
<g id="node1" class="node">
<title>Node1</title>
<g id="a_node1"><a xlink:title="Static phasor resistor model.">
<polygon fill="#bfbfbf" stroke="black" points="977,-76.5 977,-95.5 1096,-95.5 1096,-76.5 977,-76.5"/>
<text text-anchor="middle" x="1036.5" y="-83.5" font-family="Helvetica,sans-Serif" font-size="10.00">CPS::SP::Ph1::Resistor</text>
</a>
</g>
</g>
<!-- Node2 -->
<g id="node2" class="node">
<title>Node2</title>
<g id="a_node2"><a xlink:href="class_c_p_s_1_1_m_n_a_sim_power_comp.html" target="_top" xlink:title=" ">
<polygon fill="none" stroke="black" points="793.5,-153 793.5,-183 930.5,-183 930.5,-153 793.5,-153"/>
<text text-anchor="start" x="801.5" y="-171" font-family="Helvetica,sans-Serif" font-size="10.00">CPS::MNASimPowerComp</text>
<text text-anchor="middle" x="862" y="-160" font-family="Helvetica,sans-Serif" font-size="10.00">&lt; Complex &gt;</text>
</a>
</g>
</g>
<!-- Node2&#45;&gt;Node1 -->
<g id="edge1" class="edge">
<title>Node2&#45;&gt;Node1</title>
<path fill="none" stroke="midnightblue" d="M924.53,-149.41C929.82,-147.39 935.04,-145.25 940,-143 970.59,-129.12 1003.72,-107.77 1021.8,-95.52"/>
<polygon fill="midnightblue" stroke="midnightblue" points="923.16,-146.18 914.97,-152.89 925.56,-152.76 923.16,-146.18"/>
</g>
<!-- Node3 -->
<g id="node3" class="node">
<title>Node3</title>
<g id="a_node3"><a xlink:href="class_c_p_s_1_1_sim_power_comp.html" target="_top" xlink:title=" ">
<polygon fill="none" stroke="black" points="561,-202 561,-232 680,-232 680,-202 561,-202"/>
<text text-anchor="start" x="569" y="-220" font-family="Helvetica,sans-Serif" font-size="10.00">CPS::SimPowerComp&lt;</text>
<text text-anchor="middle" x="620.5" y="-209" font-family="Helvetica,sans-Serif" font-size="10.00"> Complex &gt;</text>
</a>
</g>
</g>
<!-- Node3&#45;&gt;Node2 -->
<g id="edge2" class="edge">
<title>Node3&#45;&gt;Node2</title>
<path fill="none" stroke="midnightblue" d="M689.93,-203C722.35,-196.37 760.94,-188.47 793.27,-181.86"/>
<polygon fill="midnightblue" stroke="midnightblue" points="689.18,-199.58 680.09,-205.01 690.59,-206.44 689.18,-199.58"/>
</g>
<!-- Node4 -->
<g id="node4" class="node">
<title>Node4</title>
<g id="a_node4"><a xlink:href="class_c_p_s_1_1_topological_power_comp.html" target="_top" xlink:title=" ">
<polygon fill="none" stroke="black" points="153,-201.5 153,-220.5 301,-220.5 301,-201.5 153,-201.5"/>
<text text-anchor="middle" x="227" y="-208.5" font-family="Helvetica,sans-Serif" font-size="10.00">CPS::TopologicalPowerComp</text>
</a>
</g>
</g>
<!-- Node4&#45;&gt;Node3 -->
<g id="edge3" class="edge">
<title>Node4&#45;&gt;Node3</title>
<path fill="none" stroke="midnightblue" d="M311.3,-214.88C372.82,-217.33 458.62,-219.88 534,-219 542.61,-218.9 551.71,-218.74 560.63,-218.56"/>
<polygon fill="midnightblue" stroke="midnightblue" points="311.39,-211.38 301.26,-214.47 311.11,-218.37 311.39,-211.38"/>
</g>
<!-- Node6 -->
<g id="node6" class="node">
<title>Node6</title>
<g id="a_node6"><a xlink:href="class_c_p_s_1_1_sim_power_comp.html" target="_top" xlink:title="Base class for all components that are transmitting power.">
<polygon fill="none" stroke="black" points="338,-174 338,-204 457,-204 457,-174 338,-174"/>
<text text-anchor="start" x="346" y="-192" font-family="Helvetica,sans-Serif" font-size="10.00">CPS::SimPowerComp&lt;</text>
<text text-anchor="middle" x="397.5" y="-181" font-family="Helvetica,sans-Serif" font-size="10.00"> VarType &gt;</text>
</a>
</g>
</g>
<!-- Node4&#45;&gt;Node6 -->
<g id="edge6" class="edge">
<title>Node4&#45;&gt;Node6</title>
<path fill="none" stroke="midnightblue" d="M311.12,-200.15C320.18,-198.97 329.25,-197.78 337.92,-196.65"/>
<polygon fill="midnightblue" stroke="midnightblue" points="310.39,-196.71 300.93,-201.48 311.3,-203.65 310.39,-196.71"/>
</g>
<!-- Node5 -->
<g id="node5" class="node">
<title>Node5</title>
<g id="a_node5"><a xlink:href="class_c_p_s_1_1_identified_object.html" target="_top" xlink:title=" ">
<polygon fill="none" stroke="black" points="0,-201.5 0,-220.5 116,-220.5 116,-201.5 0,-201.5"/>
<text text-anchor="middle" x="58" y="-208.5" font-family="Helvetica,sans-Serif" font-size="10.00">CPS::IdentifiedObject</text>
</a>
</g>
</g>
<!-- Node5&#45;&gt;Node4 -->
<g id="edge4" class="edge">
<title>Node5&#45;&gt;Node4</title>
<path fill="none" stroke="midnightblue" d="M126.13,-211C134.88,-211 143.88,-211 152.72,-211"/>
<polygon fill="midnightblue" stroke="midnightblue" points="126,-207.5 116,-211 126,-214.5 126,-207.5"/>
</g>
<!-- Node6&#45;&gt;Node3 -->
<g id="edge5" class="edge">
<title>Node6&#45;&gt;Node3</title>
<path fill="none" stroke="orange" stroke-dasharray="5,2" d="M467.14,-197.7C497.22,-201.51 532.14,-205.93 560.97,-209.58"/>
<polygon fill="orange" stroke="orange" points="467.5,-194.21 457.14,-196.43 466.62,-201.16 467.5,-194.21"/>
<text text-anchor="middle" x="504.5" y="-208" font-family="Helvetica,sans-Serif" font-size="10.00"> &lt; Complex &gt;</text>
</g>
<!-- Node8 -->
<g id="node8" class="node">
<title>Node8</title>
<g id="a_node8"><a xlink:href="class_c_p_s_1_1_m_n_a_sim_power_comp.html" target="_top" xlink:title="Base class for all MNA components that are transmitting power.">
<polygon fill="none" stroke="black" points="552,-153 552,-183 689,-183 689,-153 552,-153"/>
<text text-anchor="start" x="560" y="-171" font-family="Helvetica,sans-Serif" font-size="10.00">CPS::MNASimPowerComp</text>
<text text-anchor="middle" x="620.5" y="-160" font-family="Helvetica,sans-Serif" font-size="10.00">&lt; VarType &gt;</text>
</a>
</g>
</g>
<!-- Node6&#45;&gt;Node8 -->
<g id="edge9" class="edge">
<title>Node6&#45;&gt;Node8</title>
<path fill="none" stroke="midnightblue" d="M467.28,-182.46C494.25,-179.9 525.11,-176.97 551.97,-174.42"/>
<polygon fill="midnightblue" stroke="midnightblue" points="466.77,-179 457.14,-183.43 467.43,-185.97 466.77,-179"/>
</g>
<!-- Node7 -->
<g id="node7" class="node">
<title>Node7</title>
<g id="a_node7"><a xlink:href="class_c_p_s_1_1_m_n_a_interface.html" target="_top" xlink:title="Interface to be implemented by all models used by the MNA solver.">
<polygon fill="none" stroke="black" points="344,-125.5 344,-144.5 451,-144.5 451,-125.5 344,-125.5"/>
<text text-anchor="middle" x="397.5" y="-132.5" font-family="Helvetica,sans-Serif" font-size="10.00">CPS::MNAInterface</text>
</a>
</g>
</g>
<!-- Node7&#45;&gt;Node2 -->
<g id="edge7" class="edge">
<title>Node7&#45;&gt;Node2</title>
<path fill="none" stroke="midnightblue" d="M461.34,-135C520.25,-135.46 610.74,-137.35 689,-144 723.55,-146.94 761.77,-152.08 793.39,-156.85"/>
<polygon fill="midnightblue" stroke="midnightblue" points="461.1,-131.5 451.08,-134.93 461.05,-138.5 461.1,-131.5"/>
</g>
<!-- Node7&#45;&gt;Node8 -->
<g id="edge10" class="edge">
<title>Node7&#45;&gt;Node8</title>
<path fill="none" stroke="midnightblue" d="M461.31,-144.38C489.55,-148.6 522.94,-153.58 551.75,-157.88"/>
<polygon fill="midnightblue" stroke="midnightblue" points="461.56,-140.88 451.15,-142.86 460.53,-147.8 461.56,-140.88"/>
</g>
<!-- Node8&#45;&gt;Node2 -->
<g id="edge8" class="edge">
<title>Node8&#45;&gt;Node2</title>
<path fill="none" stroke="orange" stroke-dasharray="5,2" d="M699.3,-168C729.68,-168 764.19,-168 793.5,-168"/>
<polygon fill="orange" stroke="orange" points="699.17,-164.5 689.17,-168 699.17,-171.5 699.17,-164.5"/>
<text text-anchor="middle" x="736.5" y="-171" font-family="Helvetica,sans-Serif" font-size="10.00"> &lt; Complex &gt;</text>
</g>
<!-- Node9 -->
<g id="node9" class="node">
<title>Node9</title>
<g id="a_node9"><a xlink:href="class_c_p_s_1_1_base_1_1_ph1_1_1_resistor.html" target="_top" xlink:title=" ">
<polygon fill="none" stroke="black" points="797,-114.5 797,-133.5 927,-133.5 927,-114.5 797,-114.5"/>
<text text-anchor="middle" x="862" y="-121.5" font-family="Helvetica,sans-Serif" font-size="10.00">CPS::Base::Ph1::Resistor</text>
</a>
</g>
</g>
<!-- Node9&#45;&gt;Node1 -->
<g id="edge11" class="edge">
<title>Node9&#45;&gt;Node1</title>
<path fill="none" stroke="midnightblue" d="M916.35,-112.25C940.74,-106.87 969.26,-100.59 992.28,-95.52"/>
<polygon fill="midnightblue" stroke="midnightblue" points="915.54,-108.84 906.53,-114.41 917.05,-115.68 915.54,-108.84"/>
</g>
<!-- Node10 -->
<g id="node10" class="node">
<title>Node10</title>
<g id="a_node10"><a xlink:href="class_c_p_s_1_1_m_n_a_tear_interface.html" target="_top" xlink:title=" ">
<polygon fill="none" stroke="black" points="799,-76.5 799,-95.5 925,-95.5 925,-76.5 799,-76.5"/>
<text text-anchor="middle" x="862" y="-83.5" font-family="Helvetica,sans-Serif" font-size="10.00">CPS::MNATearInterface</text>
</a>
</g>
</g>
<!-- Node10&#45;&gt;Node1 -->
<g id="edge12" class="edge">
<title>Node10&#45;&gt;Node1</title>
<path fill="none" stroke="midnightblue" d="M935.65,-86C949.36,-86 963.55,-86 976.77,-86"/>
<polygon fill="midnightblue" stroke="midnightblue" points="935.28,-82.5 925.28,-86 935.28,-89.5 935.28,-82.5"/>
</g>
<!-- Node11 -->
<g id="node11" class="node">
<title>Node11</title>
<g id="a_node11"><a xlink:href="class_shared_factory.html" target="_top" xlink:title=" ">
<polygon fill="none" stroke="black" points="793.5,-38.5 793.5,-57.5 930.5,-57.5 930.5,-38.5 793.5,-38.5"/>
<text text-anchor="middle" x="862" y="-45.5" font-family="Helvetica,sans-Serif" font-size="10.00">SharedFactory&lt; Resistor &gt;</text>
</a>
</g>
</g>
<!-- Node11&#45;&gt;Node1 -->
<g id="edge13" class="edge">
<title>Node11&#45;&gt;Node1</title>
<path fill="none" stroke="midnightblue" d="M916.35,-59.75C940.74,-65.13 969.26,-71.41 992.28,-76.48"/>
<polygon fill="midnightblue" stroke="midnightblue" points="917.05,-56.32 906.53,-57.59 915.54,-63.16 917.05,-56.32"/>
</g>
<!-- Node12 -->
<g id="node12" class="node">
<title>Node12</title>
<g id="a_node12"><a xlink:href="class_shared_factory.html" target="_top" xlink:title=" ">
<polygon fill="none" stroke="black" points="568,-38.5 568,-57.5 673,-57.5 673,-38.5 568,-38.5"/>
<text text-anchor="middle" x="620.5" y="-45.5" font-family="Helvetica,sans-Serif" font-size="10.00">SharedFactory&lt; T &gt;</text>
</a>
</g>
</g>
<!-- Node12&#45;&gt;Node11 -->
<g id="edge14" class="edge">
<title>Node12&#45;&gt;Node11</title>
<path fill="none" stroke="orange" stroke-dasharray="5,2" d="M683.37,-48C717.1,-48 758.91,-48 793.49,-48"/>
<polygon fill="orange" stroke="orange" points="683.17,-44.5 673.17,-48 683.17,-51.5 683.17,-44.5"/>
<text text-anchor="middle" x="736.5" y="-51" font-family="Helvetica,sans-Serif" font-size="10.00"> &lt; Resistor &gt;</text>
</g>
<!-- Node13 -->
<g id="node13" class="node">
<title>Node13</title>
<g id="a_node13"><a xlink:href="class_c_p_s_1_1_p_f_solver_interface_branch.html" target="_top" xlink:title="Common base class of all Component templates.">
<polygon fill="none" stroke="black" points="784,-0.5 784,-19.5 940,-19.5 940,-0.5 784,-0.5"/>
<text text-anchor="middle" x="862" y="-7.5" font-family="Helvetica,sans-Serif" font-size="10.00">CPS::PFSolverInterfaceBranch</text>
</a>
</g>
</g>
<!-- Node13&#45;&gt;Node1 -->
<g id="edge15" class="edge">
<title>Node13&#45;&gt;Node1</title>
<path fill="none" stroke="midnightblue" d="M921.37,-22.44C927.74,-24.38 934.07,-26.56 940,-29 971.25,-41.85 1004.4,-63.77 1022.25,-76.35"/>
<polygon fill="midnightblue" stroke="midnightblue" points="921.93,-18.97 911.35,-19.6 920.02,-25.7 921.93,-18.97"/>
</g>
</g>
</svg>
