<?xml version="1.0" encoding="UTF-8" standalone="no"?>
<!DOCTYPE svg PUBLIC "-//W3C//DTD SVG 1.1//EN"
 "http://www.w3.org/Graphics/SVG/1.1/DTD/svg11.dtd">
<!-- Generated by graphviz version 2.44.0 (0)
 -->
<!-- Title: CPS::Base::Ph3::PiLine Pages: 1 -->
<svg width="406pt" height="84pt"
 viewBox="0.00 0.00 405.50 84.00" xmlns="http://www.w3.org/2000/svg" xmlns:xlink="http://www.w3.org/1999/xlink">
<g id="graph0" class="graph" transform="scale(1 1) rotate(0) translate(4 80)">
<title>CPS::Base::Ph3::PiLine</title>
<!-- Node1 -->
<g id="node1" class="node">
<title>Node1</title>
<g id="a_node1"><a xlink:title=" ">
<polygon fill="#bfbfbf" stroke="black" points="139,-56.5 139,-75.5 261,-75.5 261,-56.5 139,-56.5"/>
<text text-anchor="middle" x="200" y="-63.5" font-family="Helvetica" font-size="10.00">CPS::Base::Ph3::PiLine</text>
</a>
</g>
</g>
<!-- Node2 -->
<g id="node2" class="node">
<title>Node2</title>
<g id="a_node2"><a xlink:href="class_c_p_s_1_1_e_m_t_1_1_ph3_1_1_pi_line.html" target="_top" xlink:title="PI&#45;line dynamic phasor model.">
<polygon fill="none" stroke="black" points="0,-0.5 0,-19.5 120,-19.5 120,-0.5 0,-0.5"/>
<text text-anchor="middle" x="60" y="-7.5" font-family="Helvetica" font-size="10.00">CPS::EMT::Ph3::PiLine</text>
</a>
</g>
</g>
<!-- Node1&#45;&gt;Node2 -->
<g id="edge1" class="edge">
<title>Node1&#45;&gt;Node2</title>
<path fill="none" stroke="midnightblue" d="M168.3,-52.77C142,-42.63 105.28,-28.47 82.08,-19.52"/>
<polygon fill="midnightblue" stroke="midnightblue" points="167.23,-56.11 177.82,-56.44 169.75,-49.58 167.23,-56.11"/>
</g>
<!-- Node3 -->
<g id="node3" class="node">
<title>Node3</title>
<g id="a_node3"><a xlink:href="class_c_p_s_1_1_e_m_t_1_1_ph3_1_1_rx_line.html" target="_top" xlink:title=" ">
<polygon fill="none" stroke="black" points="138,-0.5 138,-19.5 262,-19.5 262,-0.5 138,-0.5"/>
<text text-anchor="middle" x="200" y="-7.5" font-family="Helvetica" font-size="10.00">CPS::EMT::Ph3::RxLine</text>
</a>
</g>
</g>
<!-- Node1&#45;&gt;Node3 -->
<g id="edge2" class="edge">
<title>Node1&#45;&gt;Node3</title>
<path fill="none" stroke="midnightblue" d="M200,-45.8C200,-36.91 200,-26.78 200,-19.75"/>
<polygon fill="midnightblue" stroke="midnightblue" points="196.5,-46.08 200,-56.08 203.5,-46.08 196.5,-46.08"/>
</g>
<!-- Node4 -->
<g id="node4" class="node">
<title>Node4</title>
<g id="a_node4"><a xlink:href="class_c_p_s_1_1_s_p_1_1_ph3_1_1_rx_line.html" target="_top" xlink:title=" ">
<polygon fill="none" stroke="black" points="280.5,-0.5 280.5,-19.5 397.5,-19.5 397.5,-0.5 280.5,-0.5"/>
<text text-anchor="middle" x="339" y="-7.5" font-family="Helvetica" font-size="10.00">CPS::SP::Ph3::RxLine</text>
</a>
</g>
</g>
<!-- Node1&#45;&gt;Node4 -->
<g id="edge3" class="edge">
<title>Node1&#45;&gt;Node4</title>
<path fill="none" stroke="midnightblue" d="M231.48,-52.77C257.59,-42.63 294.04,-28.47 317.08,-19.52"/>
<polygon fill="midnightblue" stroke="midnightblue" points="230.08,-49.56 222.02,-56.44 232.61,-56.08 230.08,-49.56"/>
</g>
</g>
</svg>
