<?xml version="1.0" encoding="UTF-8" standalone="no"?>
<!DOCTYPE svg PUBLIC "-//W3C//DTD SVG 1.1//EN"
 "http://www.w3.org/Graphics/SVG/1.1/DTD/svg11.dtd">
<!-- Generated by graphviz version 12.2.1 (20241206.2353)
 -->
<!-- Title: CPS::DP::Ph1::SynchronGeneratorIter Pages: 1 -->
<!--zoomable 192 -->

<svg id="main" version="1.1" xmlns="http://www.w3.org/2000/svg" xmlns:xlink="http://www.w3.org/1999/xlink" xml:space="preserve" onload="init(evt)">

<style type="text/css"><![CDATA[
.node, .edge {opacity: 0.7;}
.node.selected, .edge.selected {opacity: 1;}
.edge:hover path { stroke: red; }
.edge:hover polygon { stroke: red; fill: red; }
]]></style>

<defs>
  <circle id="rim" cx="0" cy="0" r="7"/>
  <circle id="rim2" cx="0" cy="0" r="3.5"/>
  <g id="zoomPlus">
    <use xlink:href="#rim" fill="#404040"><set attributeName="fill" to="#808080" begin="zoomplus.mouseover" end="zoomplus.mouseout"/></use>
    <path d="M-4,0h8M0,-4v8" fill="none" stroke="white" stroke-width="1.5" pointer-events="none"/>
  </g>
  <g id="zoomMin">
    <use xlink:href="#rim" fill="#404040"><set attributeName="fill" to="#808080" begin="zoomminus.mouseover" end="zoomminus.mouseout"/></use>
    <path d="M-4,0h8" fill="none" stroke="white" stroke-width="1.5" pointer-events="none"/>
  </g>
  <g id="arrowUp" transform="translate(30 24)">
    <use xlink:href="#rim"/>
    <path pointer-events="none" fill="none" stroke="white" stroke-width="1.5" d="M0,-3.0v7 M-2.5,-0.5L0,-3.0L2.5,-0.5"/>
  </g>
  <g id="arrowRight" transform="rotate(90) translate(36 -43)">
    <use xlink:href="#rim"/>
    <path pointer-events="none" fill="none" stroke="white" stroke-width="1.5" d="M0,-3.0v7 M-2.5,-0.5L0,-3.0L2.5,-0.5"/>
  </g>
  <g id="arrowDown" transform="rotate(180) translate(-30 -48)">
    <use xlink:href="#rim"/>
    <path pointer-events="none" fill="none" stroke="white" stroke-width="1.5" d="M0,-3.0v7 M-2.5,-0.5L0,-3.0L2.5,-0.5"/>
  </g>
  <g id="arrowLeft" transform="rotate(270) translate(-36 17)">
    <use xlink:href="#rim"/>
    <path pointer-events="none" fill="none" stroke="white" stroke-width="1.5" d="M0,-3.0v7 M-2.5,-0.5L0,-3.0L2.5,-0.5"/>
  </g>
  <g id="resetDef">
    <use xlink:href="#rim2" fill="#404040"><set attributeName="fill" to="#808080" begin="reset.mouseover" end="reset.mouseout"/></use>
  </g>
</defs>
<script type="application/ecmascript">
var viewWidth = 1469;
var viewHeight = 192;
var sectionId = 'dynsection-0';
</script>
<script type="application/ecmascript" xlink:href="svg.min.js"/>
<svg id="graph" class="graph">
<g id="viewport">
<title>CPS::DP::Ph1::SynchronGeneratorIter</title>
<!-- Node1 -->
<g id="Node000001" class="node">
<title>Node1</title>
<g id="a_Node000001"><a xlink:title="Base class for DP VBR synchronous generator model single phase.">
<polygon fill="#999999" stroke="#666666" points="1461.25,-56.38 1269,-56.38 1269,-34.12 1461.25,-34.12 1461.25,-56.38"/>
<text text-anchor="middle" x="1365.12" y="-42.88" font-family="Helvetica,sans-Serif" font-size="10.00">CPS::DP::Ph1::SynchronGeneratorIter</text>
</a>
</g>
</g>
<!-- Node2 -->
<g id="Node000002" class="node">
<title>Node2</title>
<g id="a_Node000002"><a xlink:href="class_c_p_s_1_1_base_1_1_reduced_order_synchron_generator.html" target="_top" xlink:title=" ">
<polygon fill="white" stroke="#bfbfbf" points="1232,-98.5 1053.25,-98.5 1053.25,-62 1232,-62 1232,-98.5"/>
<text text-anchor="start" x="1061.25" y="-85" font-family="Helvetica,sans-Serif" font-size="10.00">CPS::Base::ReducedOrderSynchron</text>
<text text-anchor="middle" x="1142.62" y="-70.75" font-family="Helvetica,sans-Serif" font-size="10.00">Generator&lt; Complex &gt;</text>
</a>
</g>
</g>
<!-- Node2&#45;&gt;Node1 -->
<g id="edge1_Node000001_Node000002" class="edge">
<title>Node2&#45;&gt;Node1</title>
<g id="a_edge1_Node000001_Node000002"><a xlink:title=" ">
<path fill="none" stroke="#63b8ff" d="M1243.41,-64.41C1259.47,-61.86 1275.83,-59.26 1291.11,-56.84"/>
<polygon fill="#63b8ff" stroke="#63b8ff" points="1243.18,-60.9 1233.85,-65.93 1244.28,-67.82 1243.18,-60.9"/>
</a>
</g>
</g>
<!-- Node3 -->
<g id="Node000003" class="node">
<title>Node3</title>
<g id="a_Node000003"><a xlink:href="class_c_p_s_1_1_m_n_a_sim_power_comp.html" target="_top" xlink:title=" ">
<polygon fill="white" stroke="#666666" points="937.38,-128.5 801.38,-128.5 801.38,-92 937.38,-92 937.38,-128.5"/>
<text text-anchor="start" x="809.38" y="-115" font-family="Helvetica,sans-Serif" font-size="10.00">CPS::MNASimPowerComp</text>
<text text-anchor="middle" x="869.38" y="-100.75" font-family="Helvetica,sans-Serif" font-size="10.00">&lt; Complex &gt;</text>
</a>
</g>
</g>
<!-- Node3&#45;&gt;Node2 -->
<g id="edge2_Node000002_Node000003" class="edge">
<title>Node3&#45;&gt;Node2</title>
<g id="a_edge2_Node000002_Node000003"><a xlink:title=" ">
<path fill="none" stroke="#63b8ff" d="M949.02,-101.55C981.5,-97.96 1019.31,-93.78 1052.78,-90.08"/>
<polygon fill="#63b8ff" stroke="#63b8ff" points="948.83,-98.05 939.28,-102.63 949.6,-105.01 948.83,-98.05"/>
</a>
</g>
</g>
<!-- Node4 -->
<g id="Node000004" class="node">
<title>Node4</title>
<g id="a_Node000004"><a xlink:href="class_c_p_s_1_1_sim_power_comp.html" target="_top" xlink:title=" ">
<polygon fill="white" stroke="#666666" points="676.88,-183.5 558.12,-183.5 558.12,-147 676.88,-147 676.88,-183.5"/>
<text text-anchor="start" x="566.12" y="-170" font-family="Helvetica,sans-Serif" font-size="10.00">CPS::SimPowerComp&lt;</text>
<text text-anchor="middle" x="617.5" y="-155.75" font-family="Helvetica,sans-Serif" font-size="10.00"> Complex &gt;</text>
</a>
</g>
</g>
<!-- Node4&#45;&gt;Node3 -->
<g id="edge3_Node000003_Node000004" class="edge">
<title>Node4&#45;&gt;Node3</title>
<g id="a_edge3_Node000003_Node000004"><a xlink:title=" ">
<path fill="none" stroke="#63b8ff" d="M688.24,-149.9C723.45,-142.15 765.98,-132.79 800.88,-125.11"/>
<polygon fill="#63b8ff" stroke="#63b8ff" points="687.58,-146.46 678.56,-152.03 689.08,-153.3 687.58,-146.46"/>
</a>
</g>
</g>
<!-- Node5 -->
<g id="Node000005" class="node">
<title>Node5</title>
<g id="a_Node000005"><a xlink:href="class_c_p_s_1_1_topological_power_comp.html" target="_top" xlink:title=" ">
<polygon fill="white" stroke="#666666" points="299.25,-149.38 152,-149.38 152,-127.12 299.25,-127.12 299.25,-149.38"/>
<text text-anchor="middle" x="225.62" y="-135.88" font-family="Helvetica,sans-Serif" font-size="10.00">CPS::TopologicalPowerComp</text>
</a>
</g>
</g>
<!-- Node5&#45;&gt;Node4 -->
<g id="edge4_Node000004_Node000005" class="edge">
<title>Node5&#45;&gt;Node4</title>
<g id="a_edge4_Node000004_Node000005"><a xlink:title=" ">
<path fill="none" stroke="#63b8ff" d="M276.23,-152.75C294.88,-157.6 316.38,-162.47 336.25,-165.25 422.22,-177.28 444.73,-172.8 531.5,-170.25 540.07,-170 549.12,-169.6 557.99,-169.14"/>
<polygon fill="#63b8ff" stroke="#63b8ff" points="277.34,-149.43 266.78,-150.23 275.53,-156.19 277.34,-149.43"/>
</a>
</g>
</g>
<!-- Node7 -->
<g id="Node000007" class="node">
<title>Node7</title>
<g id="a_Node000007"><a xlink:href="class_c_p_s_1_1_sim_power_comp.html" target="_top" xlink:title="Base class for all components that are transmitting power.">
<polygon fill="white" stroke="#666666" points="455,-156.5 336.25,-156.5 336.25,-120 455,-120 455,-156.5"/>
<text text-anchor="start" x="344.25" y="-143" font-family="Helvetica,sans-Serif" font-size="10.00">CPS::SimPowerComp&lt;</text>
<text text-anchor="middle" x="395.62" y="-128.75" font-family="Helvetica,sans-Serif" font-size="10.00"> VarType &gt;</text>
</a>
</g>
</g>
<!-- Node5&#45;&gt;Node7 -->
<g id="edge7_Node000007_Node000005" class="edge">
<title>Node5&#45;&gt;Node7</title>
<g id="a_edge7_Node000007_Node000005"><a xlink:title=" ">
<path fill="none" stroke="#63b8ff" d="M310.58,-138.25C319.16,-138.25 327.74,-138.25 335.96,-138.25"/>
<polygon fill="#63b8ff" stroke="#63b8ff" points="310.85,-134.75 300.85,-138.25 310.85,-141.75 310.85,-134.75"/>
</a>
</g>
</g>
<!-- Node10 -->
<g id="Node000010" class="node">
<title>Node10</title>
<g id="a_Node000010"><a xlink:href="class_c_p_s_1_1_sim_power_comp.html" target="_top" xlink:title="Base class for all components that are transmitting power.">
<polygon fill="white" stroke="#666666" points="455,-61.5 336.25,-61.5 336.25,-25 455,-25 455,-61.5"/>
<text text-anchor="start" x="344.25" y="-48" font-family="Helvetica,sans-Serif" font-size="10.00">CPS::SimPowerComp&lt;</text>
<text text-anchor="middle" x="395.62" y="-33.75" font-family="Helvetica,sans-Serif" font-size="10.00"> VarType &gt;</text>
</a>
</g>
</g>
<!-- Node5&#45;&gt;Node10 -->
<g id="edge11_Node000010_Node000005" class="edge">
<title>Node5&#45;&gt;Node10</title>
<g id="a_edge11_Node000010_Node000005"><a xlink:title=" ">
<path fill="none" stroke="#63b8ff" d="M253.76,-120.6C275.68,-106.61 307.49,-86.88 336.25,-71.25 342.08,-68.08 348.32,-64.89 354.47,-61.85"/>
<polygon fill="#63b8ff" stroke="#63b8ff" points="251.94,-117.61 245.42,-125.96 255.73,-123.5 251.94,-117.61"/>
</a>
</g>
</g>
<!-- Node6 -->
<g id="Node000006" class="node">
<title>Node6</title>
<g id="a_Node000006"><a xlink:href="class_c_p_s_1_1_identified_object.html" target="_top" xlink:title=" ">
<polygon fill="white" stroke="#666666" points="115,-149.38 0,-149.38 0,-127.12 115,-127.12 115,-149.38"/>
<text text-anchor="middle" x="57.5" y="-135.88" font-family="Helvetica,sans-Serif" font-size="10.00">CPS::IdentifiedObject</text>
</a>
</g>
</g>
<!-- Node6&#45;&gt;Node5 -->
<g id="edge5_Node000005_Node000006" class="edge">
<title>Node6&#45;&gt;Node5</title>
<g id="a_edge5_Node000005_Node000006"><a xlink:title=" ">
<path fill="none" stroke="#63b8ff" d="M126.7,-138.25C134.95,-138.25 143.41,-138.25 151.73,-138.25"/>
<polygon fill="#63b8ff" stroke="#63b8ff" points="126.72,-134.75 116.72,-138.25 126.72,-141.75 126.72,-134.75"/>
</a>
</g>
</g>
<!-- Node7&#45;&gt;Node4 -->
<g id="edge6_Node000004_Node000007" class="edge">
<title>Node7&#45;&gt;Node4</title>
<g id="a_edge6_Node000004_Node000007"><a xlink:title=" ">
<path fill="none" stroke="orange" stroke-dasharray="5,2" d="M466.67,-146.85C495.98,-150.45 529.65,-154.59 557.65,-158.02"/>
<polygon fill="orange" stroke="orange" points="467.11,-143.38 456.76,-145.63 466.26,-150.33 467.11,-143.38"/>
</a>
</g>
<text text-anchor="middle" x="502.25" y="-158.92" font-family="Helvetica,sans-Serif" font-size="10.00" fill="grey"> &lt; Complex &gt;</text>
</g>
<!-- Node8 -->
<g id="Node000008" class="node">
<title>Node8</title>
<g id="a_Node000008"><a xlink:href="class_c_p_s_1_1_m_n_a_interface.html" target="_top" xlink:title="Interface to be implemented by all models used by the MNA solver.">
<polygon fill="white" stroke="#666666" points="448.62,-102.38 342.62,-102.38 342.62,-80.12 448.62,-80.12 448.62,-102.38"/>
<text text-anchor="middle" x="395.62" y="-88.88" font-family="Helvetica,sans-Serif" font-size="10.00">CPS::MNAInterface</text>
</a>
</g>
</g>
<!-- Node8&#45;&gt;Node3 -->
<g id="edge8_Node000003_Node000008" class="edge">
<title>Node8&#45;&gt;Node3</title>
<g id="a_edge8_Node000003_Node000008"><a xlink:title=" ">
<path fill="none" stroke="#63b8ff" d="M460.23,-96.44C464.55,-96.73 468.84,-97.01 473,-97.25 588.18,-104.03 722.46,-107.51 801.17,-109.1"/>
<polygon fill="#63b8ff" stroke="#63b8ff" points="460.52,-92.95 450.29,-95.73 460.02,-99.93 460.52,-92.95"/>
</a>
</g>
</g>
<!-- Node9 -->
<g id="Node000009" class="node">
<title>Node9</title>
<g id="a_Node000009"><a xlink:href="class_c_p_s_1_1_m_n_a_sim_power_comp.html" target="_top" xlink:title="Base class for all MNA components that are transmitting power.">
<polygon fill="white" stroke="#666666" points="685.5,-91.5 549.5,-91.5 549.5,-55 685.5,-55 685.5,-91.5"/>
<text text-anchor="start" x="557.5" y="-78" font-family="Helvetica,sans-Serif" font-size="10.00">CPS::MNASimPowerComp</text>
<text text-anchor="middle" x="617.5" y="-63.75" font-family="Helvetica,sans-Serif" font-size="10.00">&lt; VarType &gt;</text>
</a>
</g>
</g>
<!-- Node8&#45;&gt;Node9 -->
<g id="edge12_Node000009_Node000008" class="edge">
<title>Node8&#45;&gt;Node9</title>
<g id="a_edge12_Node000009_Node000008"><a xlink:title=" ">
<path fill="none" stroke="#63b8ff" d="M460.23,-86.04C488.09,-83.76 520.81,-81.08 549.09,-78.77"/>
<polygon fill="#63b8ff" stroke="#63b8ff" points="460.2,-82.53 450.52,-86.84 460.77,-89.51 460.2,-82.53"/>
</a>
</g>
</g>
<!-- Node12 -->
<g id="Node000012" class="node">
<title>Node12</title>
<g id="a_Node000012"><a xlink:href="class_c_p_s_1_1_m_n_a_sim_power_comp.html" target="_top" xlink:title="Base class for all MNA components that are transmitting power.">
<polygon fill="white" stroke="#666666" points="685.5,-36.5 549.5,-36.5 549.5,0 685.5,0 685.5,-36.5"/>
<text text-anchor="start" x="557.5" y="-23" font-family="Helvetica,sans-Serif" font-size="10.00">CPS::MNASimPowerComp</text>
<text text-anchor="middle" x="617.5" y="-8.75" font-family="Helvetica,sans-Serif" font-size="10.00">&lt; VarType &gt;</text>
</a>
</g>
</g>
<!-- Node8&#45;&gt;Node12 -->
<g id="edge16_Node000012_Node000008" class="edge">
<title>Node8&#45;&gt;Node12</title>
<g id="a_edge16_Node000012_Node000008"><a xlink:title=" ">
<path fill="none" stroke="#63b8ff" d="M442.13,-76.14C476.46,-64.75 523.74,-49.05 560.41,-36.87"/>
<polygon fill="#63b8ff" stroke="#63b8ff" points="441.29,-72.73 432.9,-79.21 443.49,-79.38 441.29,-72.73"/>
</a>
</g>
</g>
<!-- Node9&#45;&gt;Node3 -->
<g id="edge9_Node000003_Node000009" class="edge">
<title>Node9&#45;&gt;Node3</title>
<g id="a_edge9_Node000003_Node000009"><a xlink:title=" ">
<path fill="none" stroke="orange" stroke-dasharray="5,2" d="M696.98,-82.15C718.13,-84.77 740.96,-87.8 762,-91 774.62,-92.92 788.04,-95.18 800.94,-97.46"/>
<polygon fill="orange" stroke="orange" points="697.62,-78.71 687.27,-80.97 696.77,-85.65 697.62,-78.71"/>
</a>
</g>
<text text-anchor="middle" x="732.75" y="-95.75" font-family="Helvetica,sans-Serif" font-size="10.00" fill="grey"> &lt; Complex &gt;</text>
</g>
<!-- Node10&#45;&gt;Node9 -->
<g id="edge10_Node000009_Node000010" class="edge">
<title>Node10&#45;&gt;Node9</title>
<g id="a_edge10_Node000009_Node000010"><a xlink:title=" ">
<path fill="none" stroke="#63b8ff" d="M466.35,-52.76C492.8,-56.37 522.85,-60.47 549.08,-64.05"/>
<polygon fill="#63b8ff" stroke="#63b8ff" points="467.14,-49.34 456.76,-51.45 466.19,-56.27 467.14,-49.34"/>
</a>
</g>
</g>
<!-- Node10&#45;&gt;Node12 -->
<g id="edge15_Node000012_Node000010" class="edge">
<title>Node10&#45;&gt;Node12</title>
<g id="a_edge15_Node000012_Node000010"><a xlink:title=" ">
<path fill="none" stroke="#63b8ff" d="M466.75,-33.02C468.86,-32.76 470.94,-32.5 473,-32.25 497.85,-29.25 525.18,-26.46 549.27,-24.17"/>
<polygon fill="#63b8ff" stroke="#63b8ff" points="466.34,-29.55 456.88,-34.31 467.25,-36.49 466.34,-29.55"/>
</a>
</g>
</g>
<!-- Node11 -->
<g id="Node000011" class="node">
<title>Node11</title>
<g id="a_Node000011"><a xlink:href="class_c_p_s_1_1_base_1_1_reduced_order_synchron_generator.html" target="_top" xlink:title=" ">
<polygon fill="white" stroke="#bfbfbf" points="958.75,-67.5 780,-67.5 780,-31 958.75,-31 958.75,-67.5"/>
<text text-anchor="start" x="788" y="-54" font-family="Helvetica,sans-Serif" font-size="10.00">CPS::Base::ReducedOrderSynchron</text>
<text text-anchor="middle" x="869.38" y="-39.75" font-family="Helvetica,sans-Serif" font-size="10.00">Generator&lt; VarType &gt;</text>
</a>
</g>
</g>
<!-- Node11&#45;&gt;Node2 -->
<g id="edge13_Node000002_Node000011" class="edge">
<title>Node11&#45;&gt;Node2</title>
<g id="a_edge13_Node000002_Node000011"><a xlink:title=" ">
<path fill="none" stroke="orange" stroke-dasharray="5,2" d="M970.28,-60.67C997.42,-63.77 1026.61,-67.11 1053.07,-70.13"/>
<polygon fill="orange" stroke="orange" points="971.03,-57.23 960.7,-59.57 970.23,-64.19 971.03,-57.23"/>
</a>
</g>
<text text-anchor="middle" x="1006" y="-72.28" font-family="Helvetica,sans-Serif" font-size="10.00" fill="grey"> &lt; Complex &gt;</text>
</g>
<!-- Node12&#45;&gt;Node11 -->
<g id="edge14_Node000011_Node000012" class="edge">
<title>Node12&#45;&gt;Node11</title>
<g id="a_edge14_Node000011_Node000012"><a xlink:title=" ">
<path fill="none" stroke="#63b8ff" d="M697.22,-28.02C723.46,-31.27 752.87,-34.92 779.81,-38.26"/>
<polygon fill="#63b8ff" stroke="#63b8ff" points="697.65,-24.54 687.29,-26.78 696.79,-31.49 697.65,-24.54"/>
</a>
</g>
</g>
<!-- Node13 -->
<g id="Node000013" class="node">
<title>Node13</title>
<g id="a_Node000013"><a xlink:href="class_c_p_s_1_1_m_n_a_sync_gen_interface.html" target="_top" xlink:title="Interface to be used by synchronous generators.">
<polygon fill="white" stroke="#666666" points="1215.88,-44.38 1069.38,-44.38 1069.38,-22.12 1215.88,-22.12 1215.88,-44.38"/>
<text text-anchor="middle" x="1142.62" y="-30.88" font-family="Helvetica,sans-Serif" font-size="10.00">CPS::MNASyncGenInterface</text>
</a>
</g>
</g>
<!-- Node13&#45;&gt;Node1 -->
<g id="edge17_Node000001_Node000013" class="edge">
<title>Node13&#45;&gt;Node1</title>
<g id="a_edge17_Node000001_Node000013"><a xlink:title=" ">
<path fill="none" stroke="#63b8ff" d="M1227.34,-37.81C1240.87,-38.54 1254.96,-39.31 1268.74,-40.06"/>
<polygon fill="#63b8ff" stroke="#63b8ff" points="1227.82,-34.33 1217.64,-37.28 1227.44,-41.32 1227.82,-34.33"/>
</a>
</g>
</g>
</g>
</svg>

<g id="navigator" transform="translate(0 0)" fill="#404254">
  <rect fill="#f2f5e9" fill-opacity="0.5" stroke="#606060" stroke-width=".5" x="0" y="0" width="60" height="60"/>
  <use id="zoomplus" xlink:href="#zoomPlus" x="17" y="9" onmousedown="handleZoom(evt,'in')"/>
  <use id="zoomminus" xlink:href="#zoomMin" x="42" y="9" onmousedown="handleZoom(evt,'out')"/>
  <use id="reset" xlink:href="#resetDef" x="30" y="36" onmousedown="handleReset()"/>
   <use id="arrowup" xlink:href="#arrowUp" x="0" y="0" onmousedown="handlePan(0,-1)"/>
  <use id="arrowright" xlink:href="#arrowRight" x="0" y="0" onmousedown="handlePan(1,0)"/>
  <use id="arrowdown" xlink:href="#arrowDown" x="0" y="0" onmousedown="handlePan(0,1)"/>
  <use id="arrowleft" xlink:href="#arrowLeft" x="0" y="0" onmousedown="handlePan(-1,0)"/>
</g>
<svg viewBox="0 0 15 15" width="100%" height="30px" preserveAspectRatio="xMaxYMin meet">
 <g id="arrow_out" transform="scale(0.3 0.3)">
  <a xlink:href="class_c_p_s_1_1_d_p_1_1_ph1_1_1_synchron_generator_iter__inherit__graph_org.svg" target="_base">
   <rect id="button" ry="5" rx="5" y="6" x="6" height="38" width="38"
        fill="#f2f5e9" fill-opacity="0.5" stroke="#606060" stroke-width="1.0"/>
   <path id="arrow"
     d="M 11.500037,31.436501 C 11.940474,20.09759 22.043105,11.32322 32.158766,21.979434 L 37.068811,17.246167 C 37.068811,17.246167 37.088388,32 37.088388,32 L 22.160133,31.978069 C 22.160133,31.978069 26.997745,27.140456 26.997745,27.140456 C 18.528582,18.264221 13.291696,25.230495 11.500037,31.436501 z"
     style="fill:#404040;"/>
  </a>
 </g>
</svg>

<style type='text/css'>
<![CDATA[
[data-mouse-over-selected='false'] { opacity: 0.7; }
[data-mouse-over-selected='true']  { opacity: 1.0; }
]]>
</style>
<script type="application/ecmascript"><![CDATA[
document.addEventListener('DOMContentLoaded', (event) => {
  highlightEdges();
  highlightAdjacentNodes();
});
]]></script>
</svg>
