<?xml version="1.0" encoding="UTF-8" standalone="no"?>
<!DOCTYPE svg PUBLIC "-//W3C//DTD SVG 1.1//EN"
 "http://www.w3.org/Graphics/SVG/1.1/DTD/svg11.dtd">
<!-- Generated by graphviz version 2.50.0 (0)
 -->
<!-- Title: DPsim::Interface Pages: 1 -->
<svg width="326pt" height="323pt"
 viewBox="0.00 0.00 326.00 323.00" xmlns="http://www.w3.org/2000/svg" xmlns:xlink="http://www.w3.org/1999/xlink">
<g id="graph0" class="graph" transform="scale(1 1) rotate(0) translate(4 319)">
<title>DPsim::Interface</title>
<!-- Node1 -->
<g id="node1" class="node">
<title>Node1</title>
<g id="a_node1"><a xlink:title=" ">
<polygon fill="#bfbfbf" stroke="black" points="103,-171.5 103,-190.5 198,-190.5 198,-171.5 103,-171.5"/>
<text text-anchor="middle" x="150.5" y="-178.5" font-family="Helvetica,sans-Serif" font-size="10.00">DPsim::Interface</text>
</a>
</g>
</g>
<!-- Node4 -->
<g id="node4" class="node">
<title>Node4</title>
<g id="a_node4"><a xlink:href="class_d_psim_1_1_interface_queued.html" target="_top" xlink:title=" ">
<polygon fill="none" stroke="black" points="0,-114.5 0,-133.5 133,-133.5 133,-114.5 0,-114.5"/>
<text text-anchor="middle" x="66.5" y="-121.5" font-family="Helvetica,sans-Serif" font-size="10.00">DPsim::InterfaceQueued</text>
</a>
</g>
</g>
<!-- Node1&#45;&gt;Node4 -->
<g id="edge3" class="edge">
<title>Node1&#45;&gt;Node4</title>
<path fill="none" stroke="midnightblue" d="M128.85,-165.82C113.24,-155.61 92.69,-142.15 79.53,-133.53"/>
<polygon fill="midnightblue" stroke="midnightblue" points="127.09,-168.86 137.38,-171.41 130.93,-163 127.09,-168.86"/>
</g>
<!-- Node7 -->
<g id="node7" class="node">
<title>Node7</title>
<g id="a_node7"><a xlink:href="class_d_psim_1_1_interface_villas_queueless.html" target="_top" xlink:title="Interface type that can be used to import and export simulation attributes over any node type support...">
<polygon fill="none" stroke="black" points="151,-114.5 151,-133.5 318,-133.5 318,-114.5 151,-114.5"/>
<text text-anchor="middle" x="234.5" y="-121.5" font-family="Helvetica,sans-Serif" font-size="10.00">DPsim::InterfaceVillasQueueless</text>
</a>
</g>
</g>
<!-- Node1&#45;&gt;Node7 -->
<g id="edge6" class="edge">
<title>Node1&#45;&gt;Node7</title>
<path fill="none" stroke="midnightblue" d="M172.15,-165.82C187.76,-155.61 208.31,-142.15 221.47,-133.53"/>
<polygon fill="midnightblue" stroke="midnightblue" points="170.07,-163 163.62,-171.41 173.91,-168.86 170.07,-163"/>
</g>
<!-- Node2 -->
<g id="node2" class="node">
<title>Node2</title>
<g id="a_node2"><a xlink:href="class_shared_factory.html" target="_top" xlink:title=" ">
<polygon fill="none" stroke="black" points="79,-228.5 79,-247.5 222,-247.5 222,-228.5 79,-228.5"/>
<text text-anchor="middle" x="150.5" y="-235.5" font-family="Helvetica,sans-Serif" font-size="10.00">SharedFactory&lt; Interface &gt;</text>
</a>
</g>
</g>
<!-- Node2&#45;&gt;Node1 -->
<g id="edge1" class="edge">
<title>Node2&#45;&gt;Node1</title>
<path fill="none" stroke="midnightblue" d="M150.5,-218.12C150.5,-208.82 150.5,-198.06 150.5,-190.71"/>
<polygon fill="midnightblue" stroke="midnightblue" points="147,-218.41 150.5,-228.41 154,-218.41 147,-218.41"/>
</g>
<!-- Node3 -->
<g id="node3" class="node">
<title>Node3</title>
<g id="a_node3"><a xlink:href="class_shared_factory.html" target="_top" xlink:title=" ">
<polygon fill="none" stroke="black" points="98,-295.5 98,-314.5 203,-314.5 203,-295.5 98,-295.5"/>
<text text-anchor="middle" x="150.5" y="-302.5" font-family="Helvetica,sans-Serif" font-size="10.00">SharedFactory&lt; T &gt;</text>
</a>
</g>
</g>
<!-- Node3&#45;&gt;Node2 -->
<g id="edge2" class="edge">
<title>Node3&#45;&gt;Node2</title>
<path fill="none" stroke="orange" stroke-dasharray="5,2" d="M150.5,-285.04C150.5,-272.67 150.5,-257.12 150.5,-247.63"/>
<polygon fill="orange" stroke="orange" points="147,-285.23 150.5,-295.23 154,-285.23 147,-285.23"/>
<text text-anchor="middle" x="182" y="-269" font-family="Helvetica,sans-Serif" font-size="10.00"> &lt; Interface &gt;</text>
</g>
<!-- Node5 -->
<g id="node5" class="node">
<title>Node5</title>
<g id="a_node5"><a xlink:href="class_d_psim_1_1_interface_villas.html" target="_top" xlink:title="Interface type that can be used to import and export simulation attributes over any node type support...">
<polygon fill="none" stroke="black" points="7.5,-57.5 7.5,-76.5 125.5,-76.5 125.5,-57.5 7.5,-57.5"/>
<text text-anchor="middle" x="66.5" y="-64.5" font-family="Helvetica,sans-Serif" font-size="10.00">DPsim::InterfaceVillas</text>
</a>
</g>
</g>
<!-- Node4&#45;&gt;Node5 -->
<g id="edge4" class="edge">
<title>Node4&#45;&gt;Node5</title>
<path fill="none" stroke="midnightblue" d="M66.5,-104.12C66.5,-94.82 66.5,-84.06 66.5,-76.71"/>
<polygon fill="midnightblue" stroke="midnightblue" points="63,-104.41 66.5,-114.41 70,-104.41 63,-104.41"/>
</g>
<!-- Node6 -->
<g id="node6" class="node">
<title>Node6</title>
<g id="a_node6"><a xlink:href="class_py_interface_villas.html" target="_top" xlink:title=" ">
<polygon fill="none" stroke="black" points="19.5,-0.5 19.5,-19.5 113.5,-19.5 113.5,-0.5 19.5,-0.5"/>
<text text-anchor="middle" x="66.5" y="-7.5" font-family="Helvetica,sans-Serif" font-size="10.00">PyInterfaceVillas</text>
</a>
</g>
</g>
<!-- Node5&#45;&gt;Node6 -->
<g id="edge5" class="edge">
<title>Node5&#45;&gt;Node6</title>
<path fill="none" stroke="midnightblue" d="M66.5,-47.12C66.5,-37.82 66.5,-27.06 66.5,-19.71"/>
<polygon fill="midnightblue" stroke="midnightblue" points="63,-47.41 66.5,-57.41 70,-47.41 63,-47.41"/>
</g>
</g>
</svg>
