<?xml version="1.0" encoding="UTF-8" standalone="no"?>
<!DOCTYPE svg PUBLIC "-//W3C//DTD SVG 1.1//EN"
 "http://www.w3.org/Graphics/SVG/1.1/DTD/svg11.dtd">
<!-- Generated by graphviz version 12.2.1 (20241206.2353)
 -->
<!-- Title: CPS::Signal::FrequencyRampGenerator Pages: 1 -->
<!--zoomable 359 -->

<svg id="main" version="1.1" xmlns="http://www.w3.org/2000/svg" xmlns:xlink="http://www.w3.org/1999/xlink" xml:space="preserve" onload="init(evt)">

<style type="text/css"><![CDATA[
.node, .edge {opacity: 0.7;}
.node.selected, .edge.selected {opacity: 1;}
.edge:hover path { stroke: red; }
.edge:hover polygon { stroke: red; fill: red; }
]]></style>

<defs>
  <circle id="rim" cx="0" cy="0" r="7"/>
  <circle id="rim2" cx="0" cy="0" r="3.5"/>
  <g id="zoomPlus">
    <use xlink:href="#rim" fill="#404040"><set attributeName="fill" to="#808080" begin="zoomplus.mouseover" end="zoomplus.mouseout"/></use>
    <path d="M-4,0h8M0,-4v8" fill="none" stroke="white" stroke-width="1.5" pointer-events="none"/>
  </g>
  <g id="zoomMin">
    <use xlink:href="#rim" fill="#404040"><set attributeName="fill" to="#808080" begin="zoomminus.mouseover" end="zoomminus.mouseout"/></use>
    <path d="M-4,0h8" fill="none" stroke="white" stroke-width="1.5" pointer-events="none"/>
  </g>
  <g id="arrowUp" transform="translate(30 24)">
    <use xlink:href="#rim"/>
    <path pointer-events="none" fill="none" stroke="white" stroke-width="1.5" d="M0,-3.0v7 M-2.5,-0.5L0,-3.0L2.5,-0.5"/>
  </g>
  <g id="arrowRight" transform="rotate(90) translate(36 -43)">
    <use xlink:href="#rim"/>
    <path pointer-events="none" fill="none" stroke="white" stroke-width="1.5" d="M0,-3.0v7 M-2.5,-0.5L0,-3.0L2.5,-0.5"/>
  </g>
  <g id="arrowDown" transform="rotate(180) translate(-30 -48)">
    <use xlink:href="#rim"/>
    <path pointer-events="none" fill="none" stroke="white" stroke-width="1.5" d="M0,-3.0v7 M-2.5,-0.5L0,-3.0L2.5,-0.5"/>
  </g>
  <g id="arrowLeft" transform="rotate(270) translate(-36 17)">
    <use xlink:href="#rim"/>
    <path pointer-events="none" fill="none" stroke="white" stroke-width="1.5" d="M0,-3.0v7 M-2.5,-0.5L0,-3.0L2.5,-0.5"/>
  </g>
  <g id="resetDef">
    <use xlink:href="#rim2" fill="#404040"><set attributeName="fill" to="#808080" begin="reset.mouseover" end="reset.mouseout"/></use>
  </g>
</defs>
<script type="application/ecmascript">
var viewWidth = 1537;
var viewHeight = 359;
var sectionId = 'dynsection-1';
</script>
<script type="application/ecmascript" xlink:href="svg.min.js"/>
<svg id="graph" class="graph">
<g id="viewport">
<title>CPS::Signal::FrequencyRampGenerator</title>
<!-- Node1 -->
<g id="Node000001" class="node">
<title>Node1</title>
<g id="a_Node000001"><a xlink:title="Model to generate signals containing a frequency ramp.">
<polygon fill="#999999" stroke="#666666" points="1528.5,-155.62 1381.25,-155.62 1381.25,-119.12 1528.5,-119.12 1528.5,-155.62"/>
<text text-anchor="start" x="1389.25" y="-142.12" font-family="Helvetica,sans-Serif" font-size="10.00">CPS::Signal::FrequencyRamp</text>
<text text-anchor="middle" x="1454.88" y="-127.88" font-family="Helvetica,sans-Serif" font-size="10.00">Generator</text>
</a>
</g>
</g>
<!-- Node2 -->
<g id="Node000002" class="node">
<title>Node2</title>
<g id="a_Node000002"><a xlink:href="class_c_p_s_1_1_signal_1_1_signal_generator.html" target="_top" xlink:title="Model to generate generic signals.">
<polygon fill="white" stroke="#666666" points="1344.25,-180.5 1196.25,-180.5 1196.25,-158.25 1344.25,-158.25 1344.25,-180.5"/>
<text text-anchor="middle" x="1270.25" y="-167" font-family="Helvetica,sans-Serif" font-size="10.00">CPS::Signal::SignalGenerator</text>
</a>
</g>
</g>
<!-- Node2&#45;&gt;Node1 -->
<g id="edge1_Node000001_Node000002" class="edge">
<title>Node2&#45;&gt;Node1</title>
<g id="a_edge1_Node000001_Node000002"><a xlink:title=" ">
<path fill="none" stroke="#63b8ff" d="M1348.48,-155.84C1359.19,-153.97 1370.17,-152.04 1380.81,-150.18"/>
<polygon fill="#63b8ff" stroke="#63b8ff" points="1348.18,-152.34 1338.93,-157.52 1349.38,-159.24 1348.18,-152.34"/>
</a>
</g>
</g>
<!-- Node3 -->
<g id="Node000003" class="node">
<title>Node3</title>
<g id="a_Node000003"><a xlink:href="class_c_p_s_1_1_sim_signal_comp.html" target="_top" xlink:title=" ">
<polygon fill="white" stroke="#666666" points="1017.75,-149.5 908,-149.5 908,-127.25 1017.75,-127.25 1017.75,-149.5"/>
<text text-anchor="middle" x="962.88" y="-136" font-family="Helvetica,sans-Serif" font-size="10.00">CPS::SimSignalComp</text>
</a>
</g>
</g>
<!-- Node3&#45;&gt;Node2 -->
<g id="edge2_Node000002_Node000003" class="edge">
<title>Node3&#45;&gt;Node2</title>
<g id="a_edge2_Node000002_Node000003"><a xlink:title=" ">
<path fill="none" stroke="#63b8ff" d="M1029.53,-145.04C1078.48,-150.01 1145.34,-156.8 1196.02,-161.94"/>
<polygon fill="#63b8ff" stroke="#63b8ff" points="1029.93,-141.56 1019.62,-144.03 1029.22,-148.53 1029.93,-141.56"/>
</a>
</g>
</g>
<!-- Node4 -->
<g id="Node000004" class="node">
<title>Node4</title>
<g id="a_Node000004"><a xlink:href="class_c_p_s_1_1_topological_signal_comp.html" target="_top" xlink:title=" ">
<polygon fill="white" stroke="#666666" points="871,-138.5 726.75,-138.5 726.75,-116.25 871,-116.25 871,-138.5"/>
<text text-anchor="middle" x="798.88" y="-125" font-family="Helvetica,sans-Serif" font-size="10.00">CPS::TopologicalSignalComp</text>
</a>
</g>
</g>
<!-- Node4&#45;&gt;Node3 -->
<g id="edge3_Node000003_Node000004" class="edge">
<title>Node4&#45;&gt;Node3</title>
<g id="a_edge3_Node000003_Node000004"><a xlink:title=" ">
<path fill="none" stroke="#63b8ff" d="M882.61,-132.99C891.14,-133.57 899.66,-134.15 907.76,-134.7"/>
<polygon fill="#63b8ff" stroke="#63b8ff" points="883.13,-129.52 872.91,-132.33 882.65,-136.5 883.13,-129.52"/>
</a>
</g>
</g>
<!-- Node5 -->
<g id="Node000005" class="node">
<title>Node5</title>
<g id="a_Node000005"><a xlink:href="class_c_p_s_1_1_identified_object.html" target="_top" xlink:title=" ">
<polygon fill="white" stroke="#666666" points="689.75,-119.5 574.75,-119.5 574.75,-97.25 689.75,-97.25 689.75,-119.5"/>
<text text-anchor="middle" x="632.25" y="-106" font-family="Helvetica,sans-Serif" font-size="10.00">CPS::IdentifiedObject</text>
</a>
</g>
</g>
<!-- Node5&#45;&gt;Node4 -->
<g id="edge4_Node000004_Node000005" class="edge">
<title>Node5&#45;&gt;Node4</title>
<g id="a_edge4_Node000004_Node000005"><a xlink:title=" ">
<path fill="none" stroke="#63b8ff" d="M701.08,-116.2C709.4,-117.16 717.92,-118.15 726.29,-119.11"/>
<polygon fill="#63b8ff" stroke="#63b8ff" points="701.74,-112.76 691.41,-115.09 700.94,-119.71 701.74,-112.76"/>
</a>
</g>
</g>
<!-- Node6 -->
<g id="Node000006" class="node">
<title>Node6</title>
<g id="a_Node000006"><a xlink:href="class_c_p_s_1_1_attribute.html" target="_top" xlink:title=" ">
<polygon fill="white" stroke="#666666" points="493.75,-91.5 367.5,-91.5 367.5,-69.25 493.75,-69.25 493.75,-91.5"/>
<text text-anchor="middle" x="430.62" y="-78" font-family="Helvetica,sans-Serif" font-size="10.00">CPS::Attribute&lt; String &gt;</text>
</a>
</g>
</g>
<!-- Node6&#45;&gt;Node5 -->
<g id="edge5_Node000005_Node000006" class="edge">
<title>Node6&#45;&gt;Node5</title>
<g id="a_edge5_Node000005_Node000006"><a xlink:title=" ">
<path fill="none" stroke="#9a32cd" stroke-dasharray="5,2" d="M505.56,-90.75C528.27,-93.93 552.89,-97.38 574.28,-100.38"/>
<polygon fill="#9a32cd" stroke="#9a32cd" points="506.13,-87.29 495.74,-89.37 505.16,-94.22 506.13,-87.29"/>
</a>
</g>
<text text-anchor="middle" x="537.25" y="-116.71" font-family="Helvetica,sans-Serif" font-size="10.00" fill="grey"> mName</text>
<text text-anchor="middle" x="537.25" y="-102.46" font-family="Helvetica,sans-Serif" font-size="10.00" fill="grey">mUID</text>
</g>
<!-- Node7 -->
<g id="Node000007" class="node">
<title>Node7</title>
<g id="a_Node000007"><a xlink:href="class_c_p_s_1_1_attribute_base.html" target="_top" xlink:title=" ">
<polygon fill="white" stroke="#666666" points="109.75,-217.5 5.25,-217.5 5.25,-195.25 109.75,-195.25 109.75,-217.5"/>
<text text-anchor="middle" x="57.5" y="-204" font-family="Helvetica,sans-Serif" font-size="10.00">CPS::AttributeBase</text>
</a>
</g>
</g>
<!-- Node7&#45;&gt;Node6 -->
<g id="edge6_Node000006_Node000007" class="edge">
<title>Node7&#45;&gt;Node6</title>
<g id="a_edge6_Node000006_Node000007"><a xlink:title=" ">
<path fill="none" stroke="#63b8ff" d="M70.57,-185.18C85.95,-160.45 115.02,-120.64 152,-102.38 219.84,-68.86 308.49,-68.1 367.15,-72.57"/>
<polygon fill="#63b8ff" stroke="#63b8ff" points="67.58,-183.37 65.44,-193.75 73.58,-186.97 67.58,-183.37"/>
</a>
</g>
</g>
<!-- Node9 -->
<g id="Node000009" class="node">
<title>Node9</title>
<g id="a_Node000009"><a xlink:href="class_c_p_s_1_1_attribute.html" target="_top" xlink:title=" ">
<polygon fill="white" stroke="#666666" points="261.38,-133.5 157.62,-133.5 157.62,-111.25 261.38,-111.25 261.38,-133.5"/>
<text text-anchor="middle" x="209.5" y="-120" font-family="Helvetica,sans-Serif" font-size="10.00">CPS::Attribute&lt; T &gt;</text>
</a>
</g>
</g>
<!-- Node7&#45;&gt;Node9 -->
<g id="edge9_Node000009_Node000007" class="edge">
<title>Node7&#45;&gt;Node9</title>
<g id="a_edge9_Node000009_Node000007"><a xlink:title=" ">
<path fill="none" stroke="#63b8ff" d="M82.09,-188.17C100.44,-174.6 126.91,-156.26 152,-143.38 158.7,-139.93 166.1,-136.77 173.28,-133.99"/>
<polygon fill="#63b8ff" stroke="#63b8ff" points="80.15,-185.26 74.25,-194.06 84.35,-190.85 80.15,-185.26"/>
</a>
</g>
</g>
<!-- Node11 -->
<g id="Node000011" class="node">
<title>Node11</title>
<g id="a_Node000011"><a xlink:href="class_c_p_s_1_1_attribute.html" target="_top" xlink:title=" ">
<polygon fill="white" stroke="#666666" points="499.75,-188.5 361.5,-188.5 361.5,-166.25 499.75,-166.25 499.75,-188.5"/>
<text text-anchor="middle" x="430.62" y="-175" font-family="Helvetica,sans-Serif" font-size="10.00">CPS::Attribute&lt; Complex &gt;</text>
</a>
</g>
</g>
<!-- Node7&#45;&gt;Node11 -->
<g id="edge12_Node000011_Node000007" class="edge">
<title>Node7&#45;&gt;Node11</title>
<g id="a_edge12_Node000011_Node000007"><a xlink:title=" ">
<path fill="none" stroke="#63b8ff" d="M114.41,-220.41C172.6,-232.65 265.88,-245.54 343.5,-225.38 370.5,-218.36 398.04,-200.82 414.48,-189"/>
<polygon fill="#63b8ff" stroke="#63b8ff" points="115.25,-217.02 104.74,-218.31 113.76,-223.86 115.25,-217.02"/>
</a>
</g>
</g>
<!-- Node13 -->
<g id="Node000013" class="node">
<title>Node13</title>
<g id="a_Node000013"><a xlink:href="class_c_p_s_1_1_attribute.html" target="_top" xlink:title=" ">
<polygon fill="white" stroke="#666666" points="489.62,-271.5 371.62,-271.5 371.62,-249.25 489.62,-249.25 489.62,-271.5"/>
<text text-anchor="middle" x="430.62" y="-258" font-family="Helvetica,sans-Serif" font-size="10.00">CPS::Attribute&lt; Real &gt;</text>
</a>
</g>
</g>
<!-- Node7&#45;&gt;Node13 -->
<g id="edge16_Node000013_Node000007" class="edge">
<title>Node7&#45;&gt;Node13</title>
<g id="a_edge16_Node000013_Node000007"><a xlink:title=" ">
<path fill="none" stroke="#63b8ff" d="M89.96,-223.06C107.65,-231.52 130.46,-240.93 152,-245.38 226.57,-260.76 314.66,-262.88 371.29,-262.24"/>
<polygon fill="#63b8ff" stroke="#63b8ff" points="91.53,-219.93 81.01,-218.64 88.43,-226.21 91.53,-219.93"/>
</a>
</g>
</g>
<!-- Node8 -->
<g id="Node000008" class="node">
<title>Node8</title>
<g id="a_Node000008"><a xlink:title=" ">
<polygon fill="white" stroke="#bfbfbf" points="267,-50.75 152,-50.75 152,0 267,0 267,-50.75"/>
<text text-anchor="start" x="160" y="-37.25" font-family="Helvetica,sans-Serif" font-size="10.00">std::enable_shared</text>
<text text-anchor="start" x="160" y="-23" font-family="Helvetica,sans-Serif" font-size="10.00">_from_this&lt; Attribute</text>
<text text-anchor="middle" x="209.5" y="-8.75" font-family="Helvetica,sans-Serif" font-size="10.00">&lt; String &gt; &gt;</text>
</a>
</g>
</g>
<!-- Node8&#45;&gt;Node6 -->
<g id="edge7_Node000006_Node000008" class="edge">
<title>Node8&#45;&gt;Node6</title>
<g id="a_edge7_Node000006_Node000008"><a xlink:title=" ">
<path fill="none" stroke="#63b8ff" d="M278.07,-42.34C312.27,-50.92 352.89,-61.12 383.47,-68.79"/>
<polygon fill="#63b8ff" stroke="#63b8ff" points="279.23,-39.02 268.68,-39.98 277.53,-45.81 279.23,-39.02"/>
</a>
</g>
</g>
<!-- Node9&#45;&gt;Node6 -->
<g id="edge8_Node000006_Node000009" class="edge">
<title>Node9&#45;&gt;Node6</title>
<g id="a_edge8_Node000006_Node000009"><a xlink:title=" ">
<path fill="none" stroke="orange" stroke-dasharray="5,2" d="M272.85,-110.42C303.05,-104.64 339.15,-97.72 369.1,-91.98"/>
<polygon fill="orange" stroke="orange" points="272.25,-106.98 263.09,-112.3 273.57,-113.85 272.25,-106.98"/>
</a>
</g>
<text text-anchor="middle" x="314.25" y="-112.34" font-family="Helvetica,sans-Serif" font-size="10.00" fill="grey"> &lt; String &gt;</text>
</g>
<!-- Node9&#45;&gt;Node11 -->
<g id="edge14_Node000011_Node000009" class="edge">
<title>Node9&#45;&gt;Node11</title>
<g id="a_edge14_Node000011_Node000009"><a xlink:title=" ">
<path fill="none" stroke="orange" stroke-dasharray="5,2" d="M267.56,-136.7C303.65,-145.76 349.7,-157.31 383.49,-165.79"/>
<polygon fill="orange" stroke="orange" points="268.72,-133.38 258.17,-134.34 267.02,-140.17 268.72,-133.38"/>
</a>
</g>
<text text-anchor="middle" x="314.25" y="-159.55" font-family="Helvetica,sans-Serif" font-size="10.00" fill="grey"> &lt; Complex &gt;</text>
</g>
<!-- Node9&#45;&gt;Node13 -->
<g id="edge18_Node000013_Node000009" class="edge">
<title>Node9&#45;&gt;Node13</title>
<g id="a_edge18_Node000013_Node000009"><a xlink:title=" ">
<path fill="none" stroke="orange" stroke-dasharray="5,2" d="M261.65,-139.42C263.52,-140.66 265.31,-141.97 267,-143.38 278.96,-153.31 274.01,-162.37 285,-173.38 319.68,-208.1 370.9,-234.63 402.16,-248.82"/>
<polygon fill="orange" stroke="orange" points="263.58,-136.49 253.14,-134.68 260.17,-142.61 263.58,-136.49"/>
</a>
</g>
<text text-anchor="middle" x="314.25" y="-222.71" font-family="Helvetica,sans-Serif" font-size="10.00" fill="grey"> &lt; Real &gt;</text>
</g>
<!-- Node10 -->
<g id="Node000010" class="node">
<title>Node10</title>
<g id="a_Node000010"><a xlink:title=" ">
<polygon fill="white" stroke="#bfbfbf" points="115,-78.75 0,-78.75 0,-28 115,-28 115,-78.75"/>
<text text-anchor="start" x="8" y="-65.25" font-family="Helvetica,sans-Serif" font-size="10.00">std::enable_shared</text>
<text text-anchor="start" x="8" y="-51" font-family="Helvetica,sans-Serif" font-size="10.00">_from_this&lt; Attribute</text>
<text text-anchor="middle" x="57.5" y="-36.75" font-family="Helvetica,sans-Serif" font-size="10.00">&lt; T &gt; &gt;</text>
</a>
</g>
</g>
<!-- Node10&#45;&gt;Node9 -->
<g id="edge10_Node000009_Node000010" class="edge">
<title>Node10&#45;&gt;Node9</title>
<g id="a_edge10_Node000009_Node000010"><a xlink:title=" ">
<path fill="none" stroke="#63b8ff" d="M124.54,-83.75C145.5,-93.4 167.41,-103.47 183.59,-110.92"/>
<polygon fill="#63b8ff" stroke="#63b8ff" points="126.28,-80.7 115.73,-79.7 123.35,-87.06 126.28,-80.7"/>
</a>
</g>
</g>
<!-- Node11&#45;&gt;Node2 -->
<g id="edge11_Node000002_Node000011" class="edge">
<title>Node11&#45;&gt;Node2</title>
<g id="a_edge11_Node000002_Node000011"><a xlink:title=" ">
<path fill="none" stroke="#9a32cd" stroke-dasharray="5,2" d="M511.1,-177.38C547.69,-177.38 591.68,-177.38 631.25,-177.38 631.25,-177.38 631.25,-177.38 963.88,-177.38 1043.16,-177.38 1133.99,-174.65 1195.84,-172.38"/>
<polygon fill="#9a32cd" stroke="#9a32cd" points="511.51,-173.88 501.51,-177.38 511.51,-180.88 511.51,-173.88"/>
</a>
</g>
<text text-anchor="middle" x="798.88" y="-182.12" font-family="Helvetica,sans-Serif" font-size="10.00" fill="grey"> mSigOut</text>
</g>
<!-- Node12 -->
<g id="Node000012" class="node">
<title>Node12</title>
<g id="a_Node000012"><a xlink:title=" ">
<polygon fill="white" stroke="#bfbfbf" points="267,-202.75 152,-202.75 152,-152 267,-152 267,-202.75"/>
<text text-anchor="start" x="160" y="-189.25" font-family="Helvetica,sans-Serif" font-size="10.00">std::enable_shared</text>
<text text-anchor="start" x="160" y="-175" font-family="Helvetica,sans-Serif" font-size="10.00">_from_this&lt; Attribute</text>
<text text-anchor="middle" x="209.5" y="-160.75" font-family="Helvetica,sans-Serif" font-size="10.00">&lt; Complex &gt; &gt;</text>
</a>
</g>
</g>
<!-- Node12&#45;&gt;Node11 -->
<g id="edge13_Node000011_Node000012" class="edge">
<title>Node12&#45;&gt;Node11</title>
<g id="a_edge13_Node000011_Node000012"><a xlink:title=" ">
<path fill="none" stroke="#63b8ff" d="M278.59,-177.38C304.82,-177.38 334.76,-177.38 361.04,-177.38"/>
<polygon fill="#63b8ff" stroke="#63b8ff" points="278.73,-173.88 268.73,-177.38 278.73,-180.88 278.73,-173.88"/>
</a>
</g>
</g>
<!-- Node13&#45;&gt;Node2 -->
<g id="edge15_Node000002_Node000013" class="edge">
<title>Node13&#45;&gt;Node2</title>
<g id="a_edge15_Node000002_Node000013"><a xlink:title=" ">
<path fill="none" stroke="#9a32cd" stroke-dasharray="5,2" d="M501.15,-254.66C539.49,-251.98 587.97,-249.38 631.25,-249.38 631.25,-249.38 631.25,-249.38 963.88,-249.38 1070.75,-249.38 1191.99,-202.96 1243.7,-180.84"/>
<polygon fill="#9a32cd" stroke="#9a32cd" points="501.34,-251.14 491.61,-255.35 501.84,-258.12 501.34,-251.14"/>
</a>
</g>
<text text-anchor="middle" x="798.88" y="-254.12" font-family="Helvetica,sans-Serif" font-size="10.00" fill="grey"> mFreq</text>
</g>
<!-- Node14 -->
<g id="Node000014" class="node">
<title>Node14</title>
<g id="a_Node000014"><a xlink:title=" ">
<polygon fill="white" stroke="#bfbfbf" points="267,-350.75 152,-350.75 152,-300 267,-300 267,-350.75"/>
<text text-anchor="start" x="160" y="-337.25" font-family="Helvetica,sans-Serif" font-size="10.00">std::enable_shared</text>
<text text-anchor="start" x="160" y="-323" font-family="Helvetica,sans-Serif" font-size="10.00">_from_this&lt; Attribute</text>
<text text-anchor="middle" x="209.5" y="-308.75" font-family="Helvetica,sans-Serif" font-size="10.00">&lt; Real &gt; &gt;</text>
</a>
</g>
</g>
<!-- Node14&#45;&gt;Node13 -->
<g id="edge17_Node000013_Node000014" class="edge">
<title>Node14&#45;&gt;Node13</title>
<g id="a_edge17_Node000013_Node000014"><a xlink:title=" ">
<path fill="none" stroke="#63b8ff" d="M278.5,-305.55C299.37,-299.43 322.39,-292.66 343.5,-286.38 359.22,-281.7 376.53,-276.48 391.49,-271.96"/>
<polygon fill="#63b8ff" stroke="#63b8ff" points="277.55,-302.18 268.94,-308.35 279.52,-308.9 277.55,-302.18"/>
</a>
</g>
</g>
<!-- Node15 -->
<g id="Node000015" class="node">
<title>Node15</title>
<g id="a_Node000015"><a xlink:href="class_shared_factory.html" target="_top" xlink:title=" ">
<polygon fill="white" stroke="#666666" points="1340.12,-132.62 1200.38,-132.62 1200.38,-96.12 1340.12,-96.12 1340.12,-132.62"/>
<text text-anchor="start" x="1208.38" y="-119.12" font-family="Helvetica,sans-Serif" font-size="10.00">SharedFactory&lt; Frequency</text>
<text text-anchor="middle" x="1270.25" y="-104.88" font-family="Helvetica,sans-Serif" font-size="10.00">RampGenerator &gt;</text>
</a>
</g>
</g>
<!-- Node15&#45;&gt;Node1 -->
<g id="edge19_Node000001_Node000015" class="edge">
<title>Node15&#45;&gt;Node1</title>
<g id="a_edge19_Node000001_Node000015"><a xlink:title=" ">
<path fill="none" stroke="#63b8ff" d="M1351.83,-124.52C1361.53,-125.75 1371.39,-126.99 1380.97,-128.19"/>
<polygon fill="#63b8ff" stroke="#63b8ff" points="1352.41,-121.07 1342.05,-123.29 1351.54,-128.01 1352.41,-121.07"/>
</a>
</g>
</g>
<!-- Node16 -->
<g id="Node000016" class="node">
<title>Node16</title>
<g id="a_Node000016"><a xlink:href="class_shared_factory.html" target="_top" xlink:title=" ">
<polygon fill="white" stroke="#666666" points="1015.12,-109.5 910.62,-109.5 910.62,-87.25 1015.12,-87.25 1015.12,-109.5"/>
<text text-anchor="middle" x="962.88" y="-96" font-family="Helvetica,sans-Serif" font-size="10.00">SharedFactory&lt; T &gt;</text>
</a>
</g>
</g>
<!-- Node16&#45;&gt;Node15 -->
<g id="edge20_Node000015_Node000016" class="edge">
<title>Node16&#45;&gt;Node15</title>
<g id="a_edge20_Node000015_Node000016"><a xlink:title=" ">
<path fill="none" stroke="orange" stroke-dasharray="5,2" d="M1026.74,-101.67C1077.21,-104.31 1148.01,-108.02 1200.08,-110.75"/>
<polygon fill="orange" stroke="orange" points="1027.01,-98.18 1016.84,-101.15 1026.65,-105.17 1027.01,-98.18"/>
</a>
</g>
<text text-anchor="middle" x="1107" y="-113.95" font-family="Helvetica,sans-Serif" font-size="10.00" fill="grey"> &lt; FrequencyRampGenerator &gt;</text>
</g>
</g>
</svg>

<g id="navigator" transform="translate(0 0)" fill="#404254">
  <rect fill="#f2f5e9" fill-opacity="0.5" stroke="#606060" stroke-width=".5" x="0" y="0" width="60" height="60"/>
  <use id="zoomplus" xlink:href="#zoomPlus" x="17" y="9" onmousedown="handleZoom(evt,'in')"/>
  <use id="zoomminus" xlink:href="#zoomMin" x="42" y="9" onmousedown="handleZoom(evt,'out')"/>
  <use id="reset" xlink:href="#resetDef" x="30" y="36" onmousedown="handleReset()"/>
   <use id="arrowup" xlink:href="#arrowUp" x="0" y="0" onmousedown="handlePan(0,-1)"/>
  <use id="arrowright" xlink:href="#arrowRight" x="0" y="0" onmousedown="handlePan(1,0)"/>
  <use id="arrowdown" xlink:href="#arrowDown" x="0" y="0" onmousedown="handlePan(0,1)"/>
  <use id="arrowleft" xlink:href="#arrowLeft" x="0" y="0" onmousedown="handlePan(-1,0)"/>
</g>
<svg viewBox="0 0 15 15" width="100%" height="30px" preserveAspectRatio="xMaxYMin meet">
 <g id="arrow_out" transform="scale(0.3 0.3)">
  <a xlink:href="class_c_p_s_1_1_signal_1_1_frequency_ramp_generator__coll__graph_org.svg" target="_base">
   <rect id="button" ry="5" rx="5" y="6" x="6" height="38" width="38"
        fill="#f2f5e9" fill-opacity="0.5" stroke="#606060" stroke-width="1.0"/>
   <path id="arrow"
     d="M 11.500037,31.436501 C 11.940474,20.09759 22.043105,11.32322 32.158766,21.979434 L 37.068811,17.246167 C 37.068811,17.246167 37.088388,32 37.088388,32 L 22.160133,31.978069 C 22.160133,31.978069 26.997745,27.140456 26.997745,27.140456 C 18.528582,18.264221 13.291696,25.230495 11.500037,31.436501 z"
     style="fill:#404040;"/>
  </a>
 </g>
</svg>

<style type='text/css'>
<![CDATA[
[data-mouse-over-selected='false'] { opacity: 0.7; }
[data-mouse-over-selected='true']  { opacity: 1.0; }
]]>
</style>
<script type="application/ecmascript"><![CDATA[
document.addEventListener('DOMContentLoaded', (event) => {
  highlightEdges();
  highlightAdjacentNodes();
});
]]></script>
</svg>
