<?xml version="1.0" encoding="UTF-8" standalone="no"?>
<!DOCTYPE svg PUBLIC "-//W3C//DTD SVG 1.1//EN"
 "http://www.w3.org/Graphics/SVG/1.1/DTD/svg11.dtd">
<!-- Generated by graphviz version 12.2.1 (20241206.2353)
 -->
<!-- Title: CPS::MNAVariableCompInterface Pages: 1 -->
<!--zoomable 1035 -->

<svg id="main" version="1.1" xmlns="http://www.w3.org/2000/svg" xmlns:xlink="http://www.w3.org/1999/xlink" xml:space="preserve" onload="init(evt)">

<style type="text/css"><![CDATA[
.node, .edge {opacity: 0.7;}
.node.selected, .edge.selected {opacity: 1;}
.edge:hover path { stroke: red; }
.edge:hover polygon { stroke: red; fill: red; }
]]></style>

<defs>
  <circle id="rim" cx="0" cy="0" r="7"/>
  <circle id="rim2" cx="0" cy="0" r="3.5"/>
  <g id="zoomPlus">
    <use xlink:href="#rim" fill="#404040"><set attributeName="fill" to="#808080" begin="zoomplus.mouseover" end="zoomplus.mouseout"/></use>
    <path d="M-4,0h8M0,-4v8" fill="none" stroke="white" stroke-width="1.5" pointer-events="none"/>
  </g>
  <g id="zoomMin">
    <use xlink:href="#rim" fill="#404040"><set attributeName="fill" to="#808080" begin="zoomminus.mouseover" end="zoomminus.mouseout"/></use>
    <path d="M-4,0h8" fill="none" stroke="white" stroke-width="1.5" pointer-events="none"/>
  </g>
  <g id="arrowUp" transform="translate(30 24)">
    <use xlink:href="#rim"/>
    <path pointer-events="none" fill="none" stroke="white" stroke-width="1.5" d="M0,-3.0v7 M-2.5,-0.5L0,-3.0L2.5,-0.5"/>
  </g>
  <g id="arrowRight" transform="rotate(90) translate(36 -43)">
    <use xlink:href="#rim"/>
    <path pointer-events="none" fill="none" stroke="white" stroke-width="1.5" d="M0,-3.0v7 M-2.5,-0.5L0,-3.0L2.5,-0.5"/>
  </g>
  <g id="arrowDown" transform="rotate(180) translate(-30 -48)">
    <use xlink:href="#rim"/>
    <path pointer-events="none" fill="none" stroke="white" stroke-width="1.5" d="M0,-3.0v7 M-2.5,-0.5L0,-3.0L2.5,-0.5"/>
  </g>
  <g id="arrowLeft" transform="rotate(270) translate(-36 17)">
    <use xlink:href="#rim"/>
    <path pointer-events="none" fill="none" stroke="white" stroke-width="1.5" d="M0,-3.0v7 M-2.5,-0.5L0,-3.0L2.5,-0.5"/>
  </g>
  <g id="resetDef">
    <use xlink:href="#rim2" fill="#404040"><set attributeName="fill" to="#808080" begin="reset.mouseover" end="reset.mouseout"/></use>
  </g>
</defs>
<script type="application/ecmascript">
var viewWidth = 827;
var viewHeight = 1035;
var sectionId = 'dynsection-0';
</script>
<script type="application/ecmascript" xlink:href="svg.min.js"/>
<svg id="graph" class="graph">
<g id="viewport">
<title>CPS::MNAVariableCompInterface</title>
<!-- Node1 -->
<g id="Node000001" class="node">
<title>Node1</title>
<g id="a_Node000001"><a xlink:title="MNA interface to be used by elements that require recomputing of the system matrix.">
<polygon fill="#999999" stroke="#666666" points="169.75,-517.38 0,-517.38 0,-495.12 169.75,-495.12 169.75,-517.38"/>
<text text-anchor="middle" x="84.88" y="-503.88" font-family="Helvetica,sans-Serif" font-size="10.00">CPS::MNAVariableCompInterface</text>
</a>
</g>
</g>
<!-- Node2 -->
<g id="Node000002" class="node">
<title>Node2</title>
<g id="a_Node000002"><a xlink:href="class_c_p_s_1_1_d_p_1_1_ph1_1_1_mixed_v_type_variable_s_s_n_comp.html" target="_top" xlink:title=" ">
<polygon fill="white" stroke="#666666" points="375.12,-971.5 235.38,-971.5 235.38,-935 375.12,-935 375.12,-971.5"/>
<text text-anchor="start" x="243.38" y="-958" font-family="Helvetica,sans-Serif" font-size="10.00">CPS::DP::Ph1::MixedVType</text>
<text text-anchor="middle" x="305.25" y="-943.75" font-family="Helvetica,sans-Serif" font-size="10.00">VariableSSNComp</text>
</a>
</g>
</g>
<!-- Node1&#45;&gt;Node2 -->
<g id="edge1_Node000001_Node000002" class="edge">
<title>Node1&#45;&gt;Node2</title>
<g id="a_edge1_Node000001_Node000002"><a xlink:title=" ">
<path fill="none" stroke="#63b8ff" d="M91.25,-528.74C104.94,-583.56 144.45,-727.41 205.75,-834.25 228.17,-873.33 263.59,-912.37 285.28,-934.59"/>
<polygon fill="#63b8ff" stroke="#63b8ff" points="94.66,-527.96 88.88,-519.08 87.86,-529.62 94.66,-527.96"/>
</a>
</g>
</g>
<!-- Node5 -->
<g id="Node000005" class="node">
<title>Node5</title>
<g id="a_Node000005"><a xlink:href="class_c_p_s_1_1_d_p_1_1_ph1_1_1_r_x_load_switch.html" target="_top" xlink:title="Constant impedance load model consisting of RLC elements.">
<polygon fill="white" stroke="#666666" points="378.5,-825.38 232,-825.38 232,-803.12 378.5,-803.12 378.5,-825.38"/>
<text text-anchor="middle" x="305.25" y="-811.88" font-family="Helvetica,sans-Serif" font-size="10.00">CPS::DP::Ph1::RXLoadSwitch</text>
</a>
</g>
</g>
<!-- Node1&#45;&gt;Node5 -->
<g id="edge4_Node000001_Node000005" class="edge">
<title>Node1&#45;&gt;Node5</title>
<g id="a_edge4_Node000001_Node000005"><a xlink:title=" ">
<path fill="none" stroke="#63b8ff" d="M88.23,-529.05C95.17,-584 120.77,-724.35 205.75,-794.25 213.3,-800.46 222.26,-804.91 231.65,-808.07"/>
<polygon fill="#63b8ff" stroke="#63b8ff" points="91.73,-528.87 87.1,-519.34 84.78,-529.68 91.73,-528.87"/>
</a>
</g>
</g>
<!-- Node6 -->
<g id="Node000006" class="node">
<title>Node6</title>
<g id="a_Node000006"><a xlink:href="class_c_p_s_1_1_d_p_1_1_ph1_1_1_reduced_order_synchron_generator_v_b_r.html" target="_top" xlink:title="Base class for DP VBR synchronous generator model single phase.">
<polygon fill="white" stroke="#666666" points="380.75,-785.5 229.75,-785.5 229.75,-749 380.75,-749 380.75,-785.5"/>
<text text-anchor="start" x="237.75" y="-772" font-family="Helvetica,sans-Serif" font-size="10.00">CPS::DP::Ph1::ReducedOrder</text>
<text text-anchor="middle" x="305.25" y="-757.75" font-family="Helvetica,sans-Serif" font-size="10.00">SynchronGeneratorVBR</text>
</a>
</g>
</g>
<!-- Node1&#45;&gt;Node6 -->
<g id="edge5_Node000001_Node000006" class="edge">
<title>Node1&#45;&gt;Node6</title>
<g id="a_edge5_Node000001_Node000006"><a xlink:title=" ">
<path fill="none" stroke="#63b8ff" d="M90.94,-528.84C102.63,-575.64 136,-683.56 205.75,-740.25 212.77,-745.95 220.9,-750.46 229.42,-754.01"/>
<polygon fill="#63b8ff" stroke="#63b8ff" points="94.39,-528.22 88.67,-519.31 87.58,-529.85 94.39,-528.22"/>
</a>
</g>
</g>
<!-- Node12 -->
<g id="Node000012" class="node">
<title>Node12</title>
<g id="a_Node000012"><a xlink:href="class_c_p_s_1_1_d_p_1_1_ph1_1_1_s_v_c.html" target="_top" xlink:title="SVC.">
<polygon fill="white" stroke="#666666" points="355.25,-731.38 255.25,-731.38 255.25,-709.12 355.25,-709.12 355.25,-731.38"/>
<text text-anchor="middle" x="305.25" y="-717.88" font-family="Helvetica,sans-Serif" font-size="10.00">CPS::DP::Ph1::SVC</text>
</a>
</g>
</g>
<!-- Node1&#45;&gt;Node12 -->
<g id="edge11_Node000001_Node000012" class="edge">
<title>Node1&#45;&gt;Node12</title>
<g id="a_edge11_Node000001_Node000012"><a xlink:title=" ">
<path fill="none" stroke="#63b8ff" d="M92.9,-528.38C107.13,-569.35 143.38,-656.77 205.75,-700.25 219.99,-710.18 238.04,-715.41 254.79,-718.1"/>
<polygon fill="#63b8ff" stroke="#63b8ff" points="96.3,-527.51 89.81,-519.13 89.66,-529.73 96.3,-527.51"/>
</a>
</g>
</g>
<!-- Node13 -->
<g id="Node000013" class="node">
<title>Node13</title>
<g id="a_Node000013"><a xlink:href="class_c_p_s_1_1_d_p_1_1_ph1_1_1_switch.html" target="_top" xlink:title="Dynamic phasor switch.">
<polygon fill="white" stroke="#666666" points="361.25,-691.38 249.25,-691.38 249.25,-669.12 361.25,-669.12 361.25,-691.38"/>
<text text-anchor="middle" x="305.25" y="-677.88" font-family="Helvetica,sans-Serif" font-size="10.00">CPS::DP::Ph1::Switch</text>
</a>
</g>
</g>
<!-- Node1&#45;&gt;Node13 -->
<g id="edge12_Node000001_Node000013" class="edge">
<title>Node1&#45;&gt;Node13</title>
<g id="a_edge12_Node000001_Node000013"><a xlink:title=" ">
<path fill="none" stroke="#63b8ff" d="M96.36,-528.05C113.94,-562.09 152.71,-627.38 205.75,-660.25 218.58,-668.2 233.98,-673.06 248.76,-676.01"/>
<polygon fill="#63b8ff" stroke="#63b8ff" points="99.51,-526.52 91.9,-519.15 93.25,-529.66 99.51,-526.52"/>
</a>
</g>
</g>
<!-- Node14 -->
<g id="Node000014" class="node">
<title>Node14</title>
<g id="a_Node000014"><a xlink:href="class_c_p_s_1_1_d_p_1_1_ph1_1_1var_res_switch.html" target="_top" xlink:title="Switch with variable resistance to avoid numerical oscillations, when an inductive current is suddenl...">
<polygon fill="white" stroke="#666666" points="377,-651.38 233.5,-651.38 233.5,-629.12 377,-629.12 377,-651.38"/>
<text text-anchor="middle" x="305.25" y="-637.88" font-family="Helvetica,sans-Serif" font-size="10.00">CPS::DP::Ph1::varResSwitch</text>
</a>
</g>
</g>
<!-- Node1&#45;&gt;Node14 -->
<g id="edge13_Node000001_Node000014" class="edge">
<title>Node1&#45;&gt;Node14</title>
<g id="a_edge13_Node000001_Node000014"><a xlink:title=" ">
<path fill="none" stroke="#63b8ff" d="M101.32,-526.83C122.07,-552.9 161.48,-597.19 205.75,-620.25 214.26,-624.68 223.66,-628.14 233.18,-630.82"/>
<polygon fill="#63b8ff" stroke="#63b8ff" points="104.15,-524.76 95.25,-519.01 98.62,-529.05 104.15,-524.76"/>
</a>
</g>
</g>
<!-- Node15 -->
<g id="Node000015" class="node">
<title>Node15</title>
<g id="a_Node000015"><a xlink:href="class_c_p_s_1_1_d_p_1_1_ph3_1_1_mixed_v_type_variable_s_s_n_comp.html" target="_top" xlink:title=" ">
<polygon fill="white" stroke="#666666" points="375.12,-611.5 235.38,-611.5 235.38,-575 375.12,-575 375.12,-611.5"/>
<text text-anchor="start" x="243.38" y="-598" font-family="Helvetica,sans-Serif" font-size="10.00">CPS::DP::Ph3::MixedVType</text>
<text text-anchor="middle" x="305.25" y="-583.75" font-family="Helvetica,sans-Serif" font-size="10.00">VariableSSNComp</text>
</a>
</g>
</g>
<!-- Node1&#45;&gt;Node15 -->
<g id="edge14_Node000001_Node000015" class="edge">
<title>Node1&#45;&gt;Node15</title>
<g id="a_edge14_Node000001_Node000015"><a xlink:title=" ">
<path fill="none" stroke="#63b8ff" d="M115.51,-523.14C139.33,-536.21 173.94,-554.07 205.75,-566.25 215.11,-569.83 225.13,-573.15 235.07,-576.14"/>
<polygon fill="#63b8ff" stroke="#63b8ff" points="117.45,-520.22 107.01,-518.42 114.06,-526.34 117.45,-520.22"/>
</a>
</g>
</g>
<!-- Node17 -->
<g id="Node000017" class="node">
<title>Node17</title>
<g id="a_Node000017"><a xlink:href="class_c_p_s_1_1_d_p_1_1_ph3_1_1_series_switch.html" target="_top" xlink:title="Dynamic phasor three&#45;phase switch.">
<polygon fill="white" stroke="#666666" points="375.5,-557.38 235,-557.38 235,-535.12 375.5,-535.12 375.5,-557.38"/>
<text text-anchor="middle" x="305.25" y="-543.88" font-family="Helvetica,sans-Serif" font-size="10.00">CPS::DP::Ph3::SeriesSwitch</text>
</a>
</g>
</g>
<!-- Node1&#45;&gt;Node17 -->
<g id="edge16_Node000001_Node000017" class="edge">
<title>Node1&#45;&gt;Node17</title>
<g id="a_edge16_Node000001_Node000017"><a xlink:title=" ">
<path fill="none" stroke="#63b8ff" d="M160.37,-519.9C186.6,-524.7 215.8,-530.05 241.01,-534.67"/>
<polygon fill="#63b8ff" stroke="#63b8ff" points="161.29,-516.51 150.82,-518.15 160.03,-523.39 161.29,-516.51"/>
</a>
</g>
</g>
<!-- Node18 -->
<g id="Node000018" class="node">
<title>Node18</title>
<g id="a_Node000018"><a xlink:href="class_c_p_s_1_1_e_m_t_1_1_ph1_1_1_switch.html" target="_top" xlink:title="One phase EMT switch.">
<polygon fill="white" stroke="#666666" points="364.25,-517.38 246.25,-517.38 246.25,-495.12 364.25,-495.12 364.25,-517.38"/>
<text text-anchor="middle" x="305.25" y="-503.88" font-family="Helvetica,sans-Serif" font-size="10.00">CPS::EMT::Ph1::Switch</text>
</a>
</g>
</g>
<!-- Node1&#45;&gt;Node18 -->
<g id="edge17_Node000001_Node000018" class="edge">
<title>Node1&#45;&gt;Node18</title>
<g id="a_edge17_Node000001_Node000018"><a xlink:title=" ">
<path fill="none" stroke="#63b8ff" d="M181.39,-506.25C203.35,-506.25 226.06,-506.25 245.89,-506.25"/>
<polygon fill="#63b8ff" stroke="#63b8ff" points="181.51,-502.75 171.51,-506.25 181.51,-509.75 181.51,-502.75"/>
</a>
</g>
</g>
<!-- Node19 -->
<g id="Node000019" class="node">
<title>Node19</title>
<g id="a_Node000019"><a xlink:href="class_c_p_s_1_1_e_m_t_1_1_ph3_1_1_reduced_order_synchron_generator_v_b_r.html" target="_top" xlink:title="Base class for EMT VBR simplefied synchronous generator models.">
<polygon fill="white" stroke="#666666" points="383.75,-477.5 226.75,-477.5 226.75,-441 383.75,-441 383.75,-477.5"/>
<text text-anchor="start" x="234.75" y="-464" font-family="Helvetica,sans-Serif" font-size="10.00">CPS::EMT::Ph3::ReducedOrder</text>
<text text-anchor="middle" x="305.25" y="-449.75" font-family="Helvetica,sans-Serif" font-size="10.00">SynchronGeneratorVBR</text>
</a>
</g>
</g>
<!-- Node1&#45;&gt;Node19 -->
<g id="edge18_Node000001_Node000019" class="edge">
<title>Node1&#45;&gt;Node19</title>
<g id="a_edge18_Node000001_Node000019"><a xlink:title=" ">
<path fill="none" stroke="#63b8ff" d="M150.88,-492.26C174.66,-487.14 201.8,-481.3 226.57,-475.97"/>
<polygon fill="#63b8ff" stroke="#63b8ff" points="150.37,-488.79 141.34,-494.31 151.85,-495.63 150.37,-488.79"/>
</a>
</g>
</g>
<!-- Node25 -->
<g id="Node000025" class="node">
<title>Node25</title>
<g id="a_Node000025"><a xlink:href="class_c_p_s_1_1_e_m_t_1_1_ph3_1_1_series_switch.html" target="_top" xlink:title="EMT three&#45;phase switch.">
<polygon fill="white" stroke="#666666" points="378.5,-423.38 232,-423.38 232,-401.12 378.5,-401.12 378.5,-423.38"/>
<text text-anchor="middle" x="305.25" y="-409.88" font-family="Helvetica,sans-Serif" font-size="10.00">CPS::EMT::Ph3::SeriesSwitch</text>
</a>
</g>
</g>
<!-- Node1&#45;&gt;Node25 -->
<g id="edge24_Node000001_Node000025" class="edge">
<title>Node1&#45;&gt;Node25</title>
<g id="a_edge24_Node000001_Node000025"><a xlink:title=" ">
<path fill="none" stroke="#63b8ff" d="M109.55,-488.11C132.81,-471.16 169.93,-446.42 205.75,-432.25 214.11,-428.94 223.09,-426.16 232.1,-423.82"/>
<polygon fill="#63b8ff" stroke="#63b8ff" points="107.64,-485.17 101.69,-493.94 111.81,-490.79 107.64,-485.17"/>
</a>
</g>
</g>
<!-- Node26 -->
<g id="Node000026" class="node">
<title>Node26</title>
<g id="a_Node000026"><a xlink:href="class_c_p_s_1_1_e_m_t_1_1_ph3_1_1_switch.html" target="_top" xlink:title="Dynamic phasor switch.">
<polygon fill="white" stroke="#666666" points="364.25,-383.38 246.25,-383.38 246.25,-361.12 364.25,-361.12 364.25,-383.38"/>
<text text-anchor="middle" x="305.25" y="-369.88" font-family="Helvetica,sans-Serif" font-size="10.00">CPS::EMT::Ph3::Switch</text>
</a>
</g>
</g>
<!-- Node1&#45;&gt;Node26 -->
<g id="edge25_Node000001_Node000026" class="edge">
<title>Node1&#45;&gt;Node26</title>
<g id="a_edge25_Node000001_Node000026"><a xlink:title=" ">
<path fill="none" stroke="#63b8ff" d="M101.32,-485.67C122.07,-459.6 161.48,-415.31 205.75,-392.25 218.05,-385.84 232.21,-381.48 245.89,-378.52"/>
<polygon fill="#63b8ff" stroke="#63b8ff" points="98.62,-483.45 95.25,-493.49 104.15,-487.74 98.62,-483.45"/>
</a>
</g>
</g>
<!-- Node27 -->
<g id="Node000027" class="node">
<title>Node27</title>
<g id="a_Node000027"><a xlink:href="class_c_p_s_1_1_e_m_t_1_1_ph3_1_1_synchron_generator_v_b_r.html" target="_top" xlink:title=" ">
<polygon fill="white" stroke="#666666" points="404.75,-343.38 205.75,-343.38 205.75,-321.12 404.75,-321.12 404.75,-343.38"/>
<text text-anchor="middle" x="305.25" y="-329.88" font-family="Helvetica,sans-Serif" font-size="10.00">CPS::EMT::Ph3::SynchronGeneratorVBR</text>
</a>
</g>
</g>
<!-- Node1&#45;&gt;Node27 -->
<g id="edge26_Node000001_Node000027" class="edge">
<title>Node1&#45;&gt;Node27</title>
<g id="a_edge26_Node000001_Node000027"><a xlink:title=" ">
<path fill="none" stroke="#63b8ff" d="M96.36,-484.45C113.94,-450.41 152.71,-385.12 205.75,-352.25 211.09,-348.94 216.88,-346.17 222.88,-343.84"/>
<polygon fill="#63b8ff" stroke="#63b8ff" points="93.25,-482.84 91.9,-493.35 99.51,-485.98 93.25,-482.84"/>
</a>
</g>
</g>
<!-- Node28 -->
<g id="Node000028" class="node">
<title>Node28</title>
<g id="a_Node000028"><a xlink:href="class_c_p_s_1_1_e_m_t_1_1_v_type_variable_s_s_n_comp.html" target="_top" xlink:title="Abstract base class for variable EMT V&#45;type SSN components.">
<polygon fill="white" stroke="#666666" points="393.12,-303.38 217.38,-303.38 217.38,-281.12 393.12,-281.12 393.12,-303.38"/>
<text text-anchor="middle" x="305.25" y="-289.88" font-family="Helvetica,sans-Serif" font-size="10.00">CPS::EMT::VTypeVariableSSNComp</text>
</a>
</g>
</g>
<!-- Node1&#45;&gt;Node28 -->
<g id="edge27_Node000001_Node000028" class="edge">
<title>Node1&#45;&gt;Node28</title>
<g id="a_edge27_Node000001_Node000028"><a xlink:title=" ">
<path fill="none" stroke="#63b8ff" d="M92.9,-484.12C107.13,-443.15 143.38,-355.73 205.75,-312.25 210.47,-308.96 215.62,-306.18 220.99,-303.84"/>
<polygon fill="#63b8ff" stroke="#63b8ff" points="89.66,-482.77 89.81,-493.37 96.3,-484.99 89.66,-482.77"/>
</a>
</g>
</g>
<!-- Node33 -->
<g id="Node000033" class="node">
<title>Node33</title>
<g id="a_Node000033"><a xlink:href="class_c_p_s_1_1_s_p_1_1_ph1_1_1_reduced_order_synchron_generator_v_b_r.html" target="_top" xlink:title="Base class for SP VBR synchronous generator model single phase.">
<polygon fill="white" stroke="#666666" points="379.62,-228.5 230.88,-228.5 230.88,-192 379.62,-192 379.62,-228.5"/>
<text text-anchor="start" x="238.88" y="-215" font-family="Helvetica,sans-Serif" font-size="10.00">CPS::SP::Ph1::ReducedOrder</text>
<text text-anchor="middle" x="305.25" y="-200.75" font-family="Helvetica,sans-Serif" font-size="10.00">SynchronGeneratorVBR</text>
</a>
</g>
</g>
<!-- Node1&#45;&gt;Node33 -->
<g id="edge32_Node000001_Node000033" class="edge">
<title>Node1&#45;&gt;Node33</title>
<g id="a_edge32_Node000001_Node000033"><a xlink:title=" ">
<path fill="none" stroke="#63b8ff" d="M92.79,-483.98C107.51,-439.43 145.62,-337.94 205.75,-272.25 222.26,-254.21 245.17,-239.38 264.74,-228.74"/>
<polygon fill="#63b8ff" stroke="#63b8ff" points="89.52,-482.7 89.79,-493.29 96.19,-484.84 89.52,-482.7"/>
</a>
</g>
</g>
<!-- Node39 -->
<g id="Node000039" class="node">
<title>Node39</title>
<g id="a_Node000039"><a xlink:href="class_c_p_s_1_1_s_p_1_1_ph1_1_1_switch.html" target="_top" xlink:title="Dynamic phasor switch.">
<polygon fill="white" stroke="#666666" points="360.12,-174.38 250.38,-174.38 250.38,-152.12 360.12,-152.12 360.12,-174.38"/>
<text text-anchor="middle" x="305.25" y="-160.88" font-family="Helvetica,sans-Serif" font-size="10.00">CPS::SP::Ph1::Switch</text>
</a>
</g>
</g>
<!-- Node1&#45;&gt;Node39 -->
<g id="edge38_Node000001_Node000039" class="edge">
<title>Node1&#45;&gt;Node39</title>
<g id="a_edge38_Node000001_Node000039"><a xlink:title=" ">
<path fill="none" stroke="#63b8ff" d="M87.07,-483.58C91.49,-424.25 111.97,-263.51 205.75,-183.25 218.01,-172.75 234.27,-167.23 250.04,-164.46"/>
<polygon fill="#63b8ff" stroke="#63b8ff" points="83.59,-483.21 86.43,-493.42 90.57,-483.66 83.59,-483.21"/>
</a>
</g>
</g>
<!-- Node40 -->
<g id="Node000040" class="node">
<title>Node40</title>
<g id="a_Node000040"><a xlink:href="class_c_p_s_1_1_s_p_1_1_ph1_1_1var_res_switch.html" target="_top" xlink:title="Switch with variable resistance to avoid numerical oscillations, when an inductive current is suddenl...">
<polygon fill="white" stroke="#666666" points="375.88,-134.38 234.62,-134.38 234.62,-112.12 375.88,-112.12 375.88,-134.38"/>
<text text-anchor="middle" x="305.25" y="-120.88" font-family="Helvetica,sans-Serif" font-size="10.00">CPS::SP::Ph1::varResSwitch</text>
</a>
</g>
</g>
<!-- Node1&#45;&gt;Node40 -->
<g id="edge39_Node000001_Node000040" class="edge">
<title>Node1&#45;&gt;Node40</title>
<g id="a_edge39_Node000001_Node000040"><a xlink:title=" ">
<path fill="none" stroke="#63b8ff" d="M86.02,-483.44C87.75,-419.18 101.98,-235.39 205.75,-143.25 213.84,-136.07 223.79,-131.19 234.22,-127.92"/>
<polygon fill="#63b8ff" stroke="#63b8ff" points="82.52,-483.37 85.84,-493.43 89.52,-483.5 82.52,-483.37"/>
</a>
</g>
</g>
<!-- Node3 -->
<g id="Node000003" class="node">
<title>Node3</title>
<g id="a_Node000003"><a xlink:href="class_c_p_s_1_1_d_p_1_1_ph1_1_1_av_volt_source_inverter_state_space.html" target="_top" xlink:title="Averaged grid&#45;following VSI SSN port of EMT::Ph3::AvVoltSourceInverterStateSpace: 8 real control stat...">
<polygon fill="white" stroke="#666666" points="609,-1026.5 464.75,-1026.5 464.75,-990 609,-990 609,-1026.5"/>
<text text-anchor="start" x="472.75" y="-1013" font-family="Helvetica,sans-Serif" font-size="10.00">CPS::DP::Ph1::AvVoltSource</text>
<text text-anchor="middle" x="536.88" y="-998.75" font-family="Helvetica,sans-Serif" font-size="10.00">InverterStateSpace</text>
</a>
</g>
</g>
<!-- Node2&#45;&gt;Node3 -->
<g id="edge2_Node000002_Node000003" class="edge">
<title>Node2&#45;&gt;Node3</title>
<g id="a_edge2_Node000002_Node000003"><a xlink:title=" ">
<path fill="none" stroke="#63b8ff" d="M386.53,-972.48C411.89,-978.55 439.73,-985.22 464.42,-991.14"/>
<polygon fill="#63b8ff" stroke="#63b8ff" points="387.47,-969.1 376.93,-970.18 385.84,-975.91 387.47,-969.1"/>
</a>
</g>
</g>
<!-- Node4 -->
<g id="Node000004" class="node">
<title>Node4</title>
<g id="a_Node000004"><a xlink:href="class_c_p_s_1_1_d_p_1_1_ph1_1_1_s_s_n_1_1_variable___serial___r_l_c.html" target="_top" xlink:title=" ">
<polygon fill="white" stroke="#666666" points="590.25,-971.5 483.5,-971.5 483.5,-935 590.25,-935 590.25,-971.5"/>
<text text-anchor="start" x="491.5" y="-958" font-family="Helvetica,sans-Serif" font-size="10.00">CPS::DP::Ph1::SSN::</text>
<text text-anchor="middle" x="536.88" y="-943.75" font-family="Helvetica,sans-Serif" font-size="10.00">Variable_Serial_RLC</text>
</a>
</g>
</g>
<!-- Node2&#45;&gt;Node4 -->
<g id="edge3_Node000002_Node000004" class="edge">
<title>Node2&#45;&gt;Node4</title>
<g id="a_edge3_Node000002_Node000004"><a xlink:title=" ">
<path fill="none" stroke="#63b8ff" d="M386.61,-953.25C418.64,-953.25 454.62,-953.25 483.23,-953.25"/>
<polygon fill="#63b8ff" stroke="#63b8ff" points="386.97,-949.75 376.97,-953.25 386.97,-956.75 386.97,-949.75"/>
</a>
</g>
</g>
<!-- Node7 -->
<g id="Node000007" class="node">
<title>Node7</title>
<g id="a_Node000007"><a xlink:href="class_c_p_s_1_1_d_p_1_1_ph1_1_1_synchron_generator3_order_v_b_r.html" target="_top" xlink:title="Voltage&#45;Behind&#45;Reactance (VBR) implementation of 3rd order synchronous generator model.">
<polygon fill="white" stroke="#666666" points="627,-916.5 446.75,-916.5 446.75,-880 627,-880 627,-916.5"/>
<text text-anchor="start" x="454.75" y="-903" font-family="Helvetica,sans-Serif" font-size="10.00">CPS::DP::Ph1::SynchronGenerator3</text>
<text text-anchor="middle" x="536.88" y="-888.75" font-family="Helvetica,sans-Serif" font-size="10.00">OrderVBR</text>
</a>
</g>
</g>
<!-- Node6&#45;&gt;Node7 -->
<g id="edge6_Node000006_Node000007" class="edge">
<title>Node6&#45;&gt;Node7</title>
<g id="a_edge6_Node000006_Node000007"><a xlink:title=" ">
<path fill="none" stroke="#63b8ff" d="M391.07,-785C395.94,-787.67 400.56,-790.73 404.75,-794.25 433.39,-818.27 412.34,-845.96 440.75,-870.25 444.94,-873.83 449.56,-876.95 454.46,-879.68"/>
<polygon fill="#63b8ff" stroke="#63b8ff" points="392.65,-781.88 382.12,-780.72 389.63,-788.2 392.65,-781.88"/>
</a>
</g>
</g>
<!-- Node8 -->
<g id="Node000008" class="node">
<title>Node8</title>
<g id="a_Node000008"><a xlink:href="class_c_p_s_1_1_d_p_1_1_ph1_1_1_synchron_generator4_order_v_b_r.html" target="_top" xlink:title="Voltage&#45;Behind&#45;Reactance (VBR) implementation of 4th order synchronous generator model.">
<polygon fill="white" stroke="#666666" points="627,-861.5 446.75,-861.5 446.75,-825 627,-825 627,-861.5"/>
<text text-anchor="start" x="454.75" y="-848" font-family="Helvetica,sans-Serif" font-size="10.00">CPS::DP::Ph1::SynchronGenerator4</text>
<text text-anchor="middle" x="536.88" y="-833.75" font-family="Helvetica,sans-Serif" font-size="10.00">OrderVBR</text>
</a>
</g>
</g>
<!-- Node6&#45;&gt;Node8 -->
<g id="edge7_Node000006_Node000008" class="edge">
<title>Node6&#45;&gt;Node8</title>
<g id="a_edge7_Node000006_Node000008"><a xlink:title=" ">
<path fill="none" stroke="#63b8ff" d="M392.05,-789.3C396.38,-790.87 400.64,-792.52 404.75,-794.25 421.83,-801.43 423.74,-807.91 440.75,-815.25 448.57,-818.62 456.93,-821.74 465.32,-824.57"/>
<polygon fill="#63b8ff" stroke="#63b8ff" points="393.2,-786 382.6,-786.06 390.93,-792.62 393.2,-786"/>
</a>
</g>
</g>
<!-- Node9 -->
<g id="Node000009" class="node">
<title>Node9</title>
<g id="a_Node000009"><a xlink:href="class_c_p_s_1_1_d_p_1_1_ph1_1_1_synchron_generator5_order_v_b_r.html" target="_top" xlink:title="Voltage&#45;Behind&#45;Reactance (VBR) implementation of 5th type 2 order synchronous generator model Ref: Mi...">
<polygon fill="white" stroke="#666666" points="627,-806.5 446.75,-806.5 446.75,-770 627,-770 627,-806.5"/>
<text text-anchor="start" x="454.75" y="-793" font-family="Helvetica,sans-Serif" font-size="10.00">CPS::DP::Ph1::SynchronGenerator5</text>
<text text-anchor="middle" x="536.88" y="-778.75" font-family="Helvetica,sans-Serif" font-size="10.00">OrderVBR</text>
</a>
</g>
</g>
<!-- Node6&#45;&gt;Node9 -->
<g id="edge8_Node000006_Node000009" class="edge">
<title>Node6&#45;&gt;Node9</title>
<g id="a_edge8_Node000006_Node000009"><a xlink:title=" ">
<path fill="none" stroke="#63b8ff" d="M392.51,-775.14C410.09,-776.75 428.61,-778.44 446.3,-780.06"/>
<polygon fill="#63b8ff" stroke="#63b8ff" points="392.9,-771.66 382.63,-774.23 392.27,-778.63 392.9,-771.66"/>
</a>
</g>
</g>
<!-- Node10 -->
<g id="Node000010" class="node">
<title>Node10</title>
<g id="a_Node000010"><a xlink:href="class_c_p_s_1_1_d_p_1_1_ph1_1_1_synchron_generator6a_order_v_b_r.html" target="_top" xlink:title="Voltage&#45;Behind&#45;Reactance (VBR) implementation of 6th order synchronous generator model Marconato&#39;s mo...">
<polygon fill="white" stroke="#666666" points="629.62,-751.5 444.12,-751.5 444.12,-715 629.62,-715 629.62,-751.5"/>
<text text-anchor="start" x="452.12" y="-738" font-family="Helvetica,sans-Serif" font-size="10.00">CPS::DP::Ph1::SynchronGenerator6a</text>
<text text-anchor="middle" x="536.88" y="-723.75" font-family="Helvetica,sans-Serif" font-size="10.00">OrderVBR</text>
</a>
</g>
</g>
<!-- Node6&#45;&gt;Node10 -->
<g id="edge9_Node000006_Node000010" class="edge">
<title>Node6&#45;&gt;Node10</title>
<g id="a_edge9_Node000006_Node000010"><a xlink:title=" ">
<path fill="none" stroke="#63b8ff" d="M392.08,-754.54C408.97,-752.04 426.76,-749.41 443.85,-746.88"/>
<polygon fill="#63b8ff" stroke="#63b8ff" points="392,-751.02 382.62,-755.94 393.02,-757.94 392,-751.02"/>
</a>
</g>
</g>
<!-- Node11 -->
<g id="Node000011" class="node">
<title>Node11</title>
<g id="a_Node000011"><a xlink:href="class_c_p_s_1_1_d_p_1_1_ph1_1_1_synchron_generator6b_order_v_b_r.html" target="_top" xlink:title="Voltage&#45;Behind&#45;Reactance (VBR) implementation of 6th order synchronous generator model Anderson &#45; Fou...">
<polygon fill="white" stroke="#666666" points="630,-696.5 443.75,-696.5 443.75,-660 630,-660 630,-696.5"/>
<text text-anchor="start" x="451.75" y="-683" font-family="Helvetica,sans-Serif" font-size="10.00">CPS::DP::Ph1::SynchronGenerator6b</text>
<text text-anchor="middle" x="536.88" y="-668.75" font-family="Helvetica,sans-Serif" font-size="10.00">OrderVBR</text>
</a>
</g>
</g>
<!-- Node6&#45;&gt;Node11 -->
<g id="edge10_Node000006_Node000011" class="edge">
<title>Node6&#45;&gt;Node11</title>
<g id="a_edge10_Node000006_Node000011"><a xlink:title=" ">
<path fill="none" stroke="#63b8ff" d="M391.82,-746.66C396.28,-744.7 400.62,-742.57 404.75,-740.25 423.93,-729.46 421.67,-717.21 440.75,-706.25 446.87,-702.73 453.47,-699.62 460.24,-696.88"/>
<polygon fill="#63b8ff" stroke="#63b8ff" points="390.61,-743.37 382.63,-750.34 393.21,-749.87 390.61,-743.37"/>
</a>
</g>
</g>
<!-- Node16 -->
<g id="Node000016" class="node">
<title>Node16</title>
<g id="a_Node000016"><a xlink:href="class_c_p_s_1_1_d_p_1_1_ph3_1_1_av_volt_source_inverter_state_space.html" target="_top" xlink:title="Averaged grid&#45;following VSI SSN port of EMT::Ph3::AvVoltSourceInverterStateSpace: 8 real control stat...">
<polygon fill="white" stroke="#666666" points="609,-641.5 464.75,-641.5 464.75,-605 609,-605 609,-641.5"/>
<text text-anchor="start" x="472.75" y="-628" font-family="Helvetica,sans-Serif" font-size="10.00">CPS::DP::Ph3::AvVoltSource</text>
<text text-anchor="middle" x="536.88" y="-613.75" font-family="Helvetica,sans-Serif" font-size="10.00">InverterStateSpace</text>
</a>
</g>
</g>
<!-- Node15&#45;&gt;Node16 -->
<g id="edge15_Node000015_Node000016" class="edge">
<title>Node15&#45;&gt;Node16</title>
<g id="a_edge15_Node000015_Node000016"><a xlink:title=" ">
<path fill="none" stroke="#63b8ff" d="M386.53,-603.74C411.89,-607.05 439.73,-610.69 464.42,-613.92"/>
<polygon fill="#63b8ff" stroke="#63b8ff" points="387.33,-600.31 376.96,-602.49 386.42,-607.25 387.33,-600.31"/>
</a>
</g>
</g>
<!-- Node20 -->
<g id="Node000020" class="node">
<title>Node20</title>
<g id="a_Node000020"><a xlink:href="class_c_p_s_1_1_e_m_t_1_1_ph3_1_1_synchron_generator3_order_v_b_r.html" target="_top" xlink:title="Voltage&#45;Behind&#45;Reactance (VBR) implementation of 3rd order synchronous generator model.">
<polygon fill="white" stroke="#666666" points="630,-586.5 443.75,-586.5 443.75,-550 630,-550 630,-586.5"/>
<text text-anchor="start" x="451.75" y="-573" font-family="Helvetica,sans-Serif" font-size="10.00">CPS::EMT::Ph3::SynchronGenerator3</text>
<text text-anchor="middle" x="536.88" y="-558.75" font-family="Helvetica,sans-Serif" font-size="10.00">OrderVBR</text>
</a>
</g>
</g>
<!-- Node19&#45;&gt;Node20 -->
<g id="edge19_Node000019_Node000020" class="edge">
<title>Node19&#45;&gt;Node20</title>
<g id="a_edge19_Node000019_Node000020"><a xlink:title=" ">
<path fill="none" stroke="#63b8ff" d="M394.11,-479.61C397.82,-481.62 401.39,-483.82 404.75,-486.25 428.14,-503.13 417.52,-523.15 440.75,-540.25 445.6,-543.82 450.91,-546.94 456.45,-549.66"/>
<polygon fill="#63b8ff" stroke="#63b8ff" points="395.9,-476.58 385.37,-475.39 392.86,-482.89 395.9,-476.58"/>
</a>
</g>
</g>
<!-- Node21 -->
<g id="Node000021" class="node">
<title>Node21</title>
<g id="a_Node000021"><a xlink:href="class_c_p_s_1_1_e_m_t_1_1_ph3_1_1_synchron_generator4_order_v_b_r.html" target="_top" xlink:title="Voltage&#45;Behind&#45;Reactance (VBR) implementation of 4th order synchronous generator model.">
<polygon fill="white" stroke="#666666" points="630,-531.5 443.75,-531.5 443.75,-495 630,-495 630,-531.5"/>
<text text-anchor="start" x="451.75" y="-518" font-family="Helvetica,sans-Serif" font-size="10.00">CPS::EMT::Ph3::SynchronGenerator4</text>
<text text-anchor="middle" x="536.88" y="-503.75" font-family="Helvetica,sans-Serif" font-size="10.00">OrderVBR</text>
</a>
</g>
</g>
<!-- Node19&#45;&gt;Node21 -->
<g id="edge20_Node000019_Node000021" class="edge">
<title>Node19&#45;&gt;Node21</title>
<g id="a_edge20_Node000019_Node000021"><a xlink:title=" ">
<path fill="none" stroke="#63b8ff" d="M395.06,-480.13C415.22,-484.88 436.51,-489.88 456.26,-494.53"/>
<polygon fill="#63b8ff" stroke="#63b8ff" points="396,-476.76 385.46,-477.88 394.4,-483.57 396,-476.76"/>
</a>
</g>
</g>
<!-- Node22 -->
<g id="Node000022" class="node">
<title>Node22</title>
<g id="a_Node000022"><a xlink:href="class_c_p_s_1_1_e_m_t_1_1_ph3_1_1_synchron_generator5_order_v_b_r.html" target="_top" xlink:title="Voltage&#45;Behind&#45;Reactance (VBR) implementation of 5th type 2 order synchronous generator model Ref: Mi...">
<polygon fill="white" stroke="#666666" points="630,-476.5 443.75,-476.5 443.75,-440 630,-440 630,-476.5"/>
<text text-anchor="start" x="451.75" y="-463" font-family="Helvetica,sans-Serif" font-size="10.00">CPS::EMT::Ph3::SynchronGenerator5</text>
<text text-anchor="middle" x="536.88" y="-448.75" font-family="Helvetica,sans-Serif" font-size="10.00">OrderVBR</text>
</a>
</g>
</g>
<!-- Node19&#45;&gt;Node22 -->
<g id="edge21_Node000019_Node000022" class="edge">
<title>Node19&#45;&gt;Node22</title>
<g id="a_edge21_Node000019_Node000022"><a xlink:title=" ">
<path fill="none" stroke="#63b8ff" d="M395.35,-458.86C411.15,-458.79 427.64,-458.72 443.52,-458.65"/>
<polygon fill="#63b8ff" stroke="#63b8ff" points="395.49,-455.36 385.5,-458.9 395.52,-462.36 395.49,-455.36"/>
</a>
</g>
</g>
<!-- Node23 -->
<g id="Node000023" class="node">
<title>Node23</title>
<g id="a_Node000023"><a xlink:href="class_c_p_s_1_1_e_m_t_1_1_ph3_1_1_synchron_generator6a_order_v_b_r.html" target="_top" xlink:title="Voltage&#45;Behind&#45;Reactance (VBR) implementation of 6th order synchronous generator model Marconato&#39;s mo...">
<polygon fill="white" stroke="#666666" points="632.62,-421.5 441.12,-421.5 441.12,-385 632.62,-385 632.62,-421.5"/>
<text text-anchor="start" x="449.12" y="-408" font-family="Helvetica,sans-Serif" font-size="10.00">CPS::EMT::Ph3::SynchronGenerator6a</text>
<text text-anchor="middle" x="536.88" y="-393.75" font-family="Helvetica,sans-Serif" font-size="10.00">OrderVBR</text>
</a>
</g>
</g>
<!-- Node19&#45;&gt;Node23 -->
<g id="edge22_Node000019_Node000023" class="edge">
<title>Node19&#45;&gt;Node23</title>
<g id="a_edge22_Node000019_Node000023"><a xlink:title=" ">
<path fill="none" stroke="#63b8ff" d="M394.1,-437.83C415.54,-432.6 438.3,-427.05 459.17,-421.96"/>
<polygon fill="#63b8ff" stroke="#63b8ff" points="393.39,-434.4 384.5,-440.17 395.05,-441.2 393.39,-434.4"/>
</a>
</g>
</g>
<!-- Node24 -->
<g id="Node000024" class="node">
<title>Node24</title>
<g id="a_Node000024"><a xlink:href="class_c_p_s_1_1_e_m_t_1_1_ph3_1_1_synchron_generator6b_order_v_b_r.html" target="_top" xlink:title="Voltage&#45;Behind&#45;Reactance (VBR) implementation of 6th order synchronous generator model Anderson &#45; Fou...">
<polygon fill="white" stroke="#666666" points="633,-366.5 440.75,-366.5 440.75,-330 633,-330 633,-366.5"/>
<text text-anchor="start" x="448.75" y="-353" font-family="Helvetica,sans-Serif" font-size="10.00">CPS::EMT::Ph3::SynchronGenerator6b</text>
<text text-anchor="middle" x="536.88" y="-338.75" font-family="Helvetica,sans-Serif" font-size="10.00">OrderVBR</text>
</a>
</g>
</g>
<!-- Node19&#45;&gt;Node24 -->
<g id="edge23_Node000019_Node000024" class="edge">
<title>Node19&#45;&gt;Node24</title>
<g id="a_edge23_Node000019_Node000024"><a xlink:title=" ">
<path fill="none" stroke="#63b8ff" d="M394.16,-438.96C397.86,-436.93 401.41,-434.7 404.75,-432.25 428.6,-414.73 417.07,-393.99 440.75,-376.25 445.43,-372.74 450.55,-369.67 455.91,-366.98"/>
<polygon fill="#63b8ff" stroke="#63b8ff" points="392.9,-435.68 385.44,-443.21 395.97,-441.98 392.9,-435.68"/>
</a>
</g>
</g>
<!-- Node29 -->
<g id="Node000029" class="node">
<title>Node29</title>
<g id="a_Node000029"><a xlink:href="class_c_p_s_1_1_e_m_t_1_1_ph3_1_1_two_terminal_v_type_variable_s_s_n_comp.html" target="_top" xlink:title="Abstract base class for three&#45;phase, two&#45;terminal, variable V&#45;type SSN components.">
<polygon fill="white" stroke="#666666" points="610.5,-311.5 463.25,-311.5 463.25,-275 610.5,-275 610.5,-311.5"/>
<text text-anchor="start" x="471.25" y="-298" font-family="Helvetica,sans-Serif" font-size="10.00">CPS::EMT::Ph3::TwoTerminal</text>
<text text-anchor="middle" x="536.88" y="-283.75" font-family="Helvetica,sans-Serif" font-size="10.00">VTypeVariableSSNComp</text>
</a>
</g>
</g>
<!-- Node28&#45;&gt;Node29 -->
<g id="edge28_Node000028_Node000029" class="edge">
<title>Node28&#45;&gt;Node29</title>
<g id="a_edge28_Node000028_Node000029"><a xlink:title=" ">
<path fill="none" stroke="#63b8ff" d="M404.8,-292.68C424.34,-292.76 444.52,-292.85 463.01,-292.93"/>
<polygon fill="#63b8ff" stroke="#63b8ff" points="404.92,-289.18 394.9,-292.64 404.89,-296.18 404.92,-289.18"/>
</a>
</g>
</g>
<!-- Node30 -->
<g id="Node000030" class="node">
<title>Node30</title>
<g id="a_Node000030"><a xlink:href="class_c_p_s_1_1_e_m_t_1_1_ph3_1_1_av_volt_source_inverter_state_space.html" target="_top" xlink:title=" ">
<polygon fill="white" stroke="#bfbfbf" points="819.25,-366.5 669,-366.5 669,-330 819.25,-330 819.25,-366.5"/>
<text text-anchor="start" x="677" y="-353" font-family="Helvetica,sans-Serif" font-size="10.00">CPS::EMT::Ph3::AvVoltSource</text>
<text text-anchor="middle" x="744.12" y="-338.75" font-family="Helvetica,sans-Serif" font-size="10.00">InverterStateSpace</text>
</a>
</g>
</g>
<!-- Node29&#45;&gt;Node30 -->
<g id="edge29_Node000029_Node000030" class="edge">
<title>Node29&#45;&gt;Node30</title>
<g id="a_edge29_Node000029_Node000030"><a xlink:title=" ">
<path fill="none" stroke="#63b8ff" d="M618.72,-314.91C636.73,-319.74 655.67,-324.82 673.19,-329.51"/>
<polygon fill="#63b8ff" stroke="#63b8ff" points="619.68,-311.55 609.11,-312.34 617.86,-318.31 619.68,-311.55"/>
</a>
</g>
</g>
<!-- Node31 -->
<g id="Node000031" class="node">
<title>Node31</title>
<g id="a_Node000031"><a xlink:href="class_c_p_s_1_1_e_m_t_1_1_ph3_1_1_piecewise_linear_inductor.html" target="_top" xlink:title="Three&#45;phase, two&#45;terminal, piecewise&#45;linear flux&#45;state inductor.">
<polygon fill="white" stroke="#666666" points="810.62,-311.5 677.62,-311.5 677.62,-275 810.62,-275 810.62,-311.5"/>
<text text-anchor="start" x="685.62" y="-298" font-family="Helvetica,sans-Serif" font-size="10.00">CPS::EMT::Ph3::Piecewise</text>
<text text-anchor="middle" x="744.12" y="-283.75" font-family="Helvetica,sans-Serif" font-size="10.00">LinearInductor</text>
</a>
</g>
</g>
<!-- Node29&#45;&gt;Node31 -->
<g id="edge30_Node000029_Node000031" class="edge">
<title>Node29&#45;&gt;Node31</title>
<g id="a_edge30_Node000029_Node000031"><a xlink:title=" ">
<path fill="none" stroke="#63b8ff" d="M622.13,-293.25C640.52,-293.25 659.71,-293.25 677.26,-293.25"/>
<polygon fill="#63b8ff" stroke="#63b8ff" points="622.33,-289.75 612.33,-293.25 622.33,-296.75 622.33,-289.75"/>
</a>
</g>
</g>
<!-- Node32 -->
<g id="Node000032" class="node">
<title>Node32</title>
<g id="a_Node000032"><a xlink:href="class_c_p_s_1_1_e_m_t_1_1_ph3_1_1_s_s_n___g_f_m.html" target="_top" xlink:title="Three&#45;phase grid&#45;forming inverter represented by a locally linearized affine state&#45;space model.">
<polygon fill="white" stroke="#666666" points="810.62,-257.38 677.62,-257.38 677.62,-235.12 810.62,-235.12 810.62,-257.38"/>
<text text-anchor="middle" x="744.12" y="-243.88" font-family="Helvetica,sans-Serif" font-size="10.00">CPS::EMT::Ph3::SSN_GFM</text>
</a>
</g>
</g>
<!-- Node29&#45;&gt;Node32 -->
<g id="edge31_Node000029_Node000032" class="edge">
<title>Node29&#45;&gt;Node32</title>
<g id="a_edge31_Node000029_Node000032"><a xlink:title=" ">
<path fill="none" stroke="#63b8ff" d="M621.74,-274.04C645.79,-268.54 671.26,-262.71 692.63,-257.81"/>
<polygon fill="#63b8ff" stroke="#63b8ff" points="621.26,-270.57 612.29,-276.21 622.82,-277.39 621.26,-270.57"/>
</a>
</g>
</g>
<!-- Node34 -->
<g id="Node000034" class="node">
<title>Node34</title>
<g id="a_Node000034"><a xlink:href="class_c_p_s_1_1_s_p_1_1_ph1_1_1_synchron_generator3_order_v_b_r.html" target="_top" xlink:title="Voltage&#45;Behind&#45;Reactance (VBR) implementation of 3rd order synchronous generator model.">
<polygon fill="white" stroke="#666666" points="625.88,-256.5 447.88,-256.5 447.88,-220 625.88,-220 625.88,-256.5"/>
<text text-anchor="start" x="455.88" y="-243" font-family="Helvetica,sans-Serif" font-size="10.00">CPS::SP::Ph1::SynchronGenerator3</text>
<text text-anchor="middle" x="536.88" y="-228.75" font-family="Helvetica,sans-Serif" font-size="10.00">OrderVBR</text>
</a>
</g>
</g>
<!-- Node33&#45;&gt;Node34 -->
<g id="edge33_Node000033_Node000034" class="edge">
<title>Node33&#45;&gt;Node34</title>
<g id="a_edge33_Node000033_Node000034"><a xlink:title=" ">
<path fill="none" stroke="#63b8ff" d="M391.12,-220.6C409.48,-222.84 428.94,-225.21 447.44,-227.47"/>
<polygon fill="#63b8ff" stroke="#63b8ff" points="391.7,-217.14 381.35,-219.41 390.86,-224.09 391.7,-217.14"/>
</a>
</g>
</g>
<!-- Node35 -->
<g id="Node000035" class="node">
<title>Node35</title>
<g id="a_Node000035"><a xlink:href="class_c_p_s_1_1_s_p_1_1_ph1_1_1_synchron_generator4_order_v_b_r.html" target="_top" xlink:title="Voltage&#45;Behind&#45;Reactance (VBR) implementation of 4th order synchronous generator model.">
<polygon fill="white" stroke="#666666" points="625.88,-201.5 447.88,-201.5 447.88,-165 625.88,-165 625.88,-201.5"/>
<text text-anchor="start" x="455.88" y="-188" font-family="Helvetica,sans-Serif" font-size="10.00">CPS::SP::Ph1::SynchronGenerator4</text>
<text text-anchor="middle" x="536.88" y="-173.75" font-family="Helvetica,sans-Serif" font-size="10.00">OrderVBR</text>
</a>
</g>
</g>
<!-- Node33&#45;&gt;Node35 -->
<g id="edge34_Node000033_Node000035" class="edge">
<title>Node33&#45;&gt;Node35</title>
<g id="a_edge34_Node000033_Node000035"><a xlink:title=" ">
<path fill="none" stroke="#63b8ff" d="M391.12,-200.27C409.48,-198.11 428.94,-195.82 447.44,-193.65"/>
<polygon fill="#63b8ff" stroke="#63b8ff" points="390.88,-196.77 381.36,-201.42 391.7,-203.73 390.88,-196.77"/>
</a>
</g>
</g>
<!-- Node36 -->
<g id="Node000036" class="node">
<title>Node36</title>
<g id="a_Node000036"><a xlink:href="class_c_p_s_1_1_s_p_1_1_ph1_1_1_synchron_generator5_order_v_b_r.html" target="_top" xlink:title="Voltage&#45;Behind&#45;Reactance (VBR) implementation of 5th type 2 order synchronous generator model Ref: Mi...">
<polygon fill="white" stroke="#666666" points="625.88,-146.5 447.88,-146.5 447.88,-110 625.88,-110 625.88,-146.5"/>
<text text-anchor="start" x="455.88" y="-133" font-family="Helvetica,sans-Serif" font-size="10.00">CPS::SP::Ph1::SynchronGenerator5</text>
<text text-anchor="middle" x="536.88" y="-118.75" font-family="Helvetica,sans-Serif" font-size="10.00">OrderVBR</text>
</a>
</g>
</g>
<!-- Node33&#45;&gt;Node36 -->
<g id="edge35_Node000033_Node000036" class="edge">
<title>Node33&#45;&gt;Node36</title>
<g id="a_edge35_Node000033_Node000036"><a xlink:title=" ">
<path fill="none" stroke="#63b8ff" d="M390.7,-189.41C395.52,-187.51 400.24,-185.46 404.75,-183.25 422.71,-174.45 422.87,-165.22 440.75,-156.25 447.6,-152.82 454.94,-149.73 462.4,-146.97"/>
<polygon fill="#63b8ff" stroke="#63b8ff" points="389.6,-186.08 381.42,-192.81 392.02,-192.66 389.6,-186.08"/>
</a>
</g>
</g>
<!-- Node37 -->
<g id="Node000037" class="node">
<title>Node37</title>
<g id="a_Node000037"><a xlink:href="class_c_p_s_1_1_s_p_1_1_ph1_1_1_synchron_generator6a_order_v_b_r.html" target="_top" xlink:title="Voltage&#45;Behind&#45;Reactance (VBR) implementation of 6th order synchronous generator model Marconato&#39;s mo...">
<polygon fill="white" stroke="#666666" points="628.5,-91.5 445.25,-91.5 445.25,-55 628.5,-55 628.5,-91.5"/>
<text text-anchor="start" x="453.25" y="-78" font-family="Helvetica,sans-Serif" font-size="10.00">CPS::SP::Ph1::SynchronGenerator6a</text>
<text text-anchor="middle" x="536.88" y="-63.75" font-family="Helvetica,sans-Serif" font-size="10.00">OrderVBR</text>
</a>
</g>
</g>
<!-- Node33&#45;&gt;Node37 -->
<g id="edge36_Node000033_Node000037" class="edge">
<title>Node33&#45;&gt;Node37</title>
<g id="a_edge36_Node000033_Node000037"><a xlink:title=" ">
<path fill="none" stroke="#63b8ff" d="M390.22,-193.16C395.43,-190.34 400.33,-187.06 404.75,-183.25 434.87,-157.24 410.87,-127.55 440.75,-101.25 444.76,-97.72 449.19,-94.64 453.88,-91.95"/>
<polygon fill="#63b8ff" stroke="#63b8ff" points="388.83,-189.95 381.28,-197.39 391.82,-196.28 388.83,-189.95"/>
</a>
</g>
</g>
<!-- Node38 -->
<g id="Node000038" class="node">
<title>Node38</title>
<g id="a_Node000038"><a xlink:href="class_c_p_s_1_1_s_p_1_1_ph1_1_1_synchron_generator6b_order_v_b_r.html" target="_top" xlink:title="Voltage&#45;Behind&#45;Reactance (VBR) implementation of 6th order synchronous generator model Anderson&#45;Fouad...">
<polygon fill="white" stroke="#666666" points="628.88,-36.5 444.88,-36.5 444.88,0 628.88,0 628.88,-36.5"/>
<text text-anchor="start" x="452.88" y="-23" font-family="Helvetica,sans-Serif" font-size="10.00">CPS::SP::Ph1::SynchronGenerator6b</text>
<text text-anchor="middle" x="536.88" y="-8.75" font-family="Helvetica,sans-Serif" font-size="10.00">OrderVBR</text>
</a>
</g>
</g>
<!-- Node33&#45;&gt;Node38 -->
<g id="edge37_Node000033_Node000038" class="edge">
<title>Node33&#45;&gt;Node38</title>
<g id="a_edge37_Node000033_Node000038"><a xlink:title=" ">
<path fill="none" stroke="#63b8ff" d="M389.97,-194.49C395.37,-191.37 400.38,-187.66 404.75,-183.25 449.03,-138.5 396.89,-91.41 440.75,-46.25 444.23,-42.67 448.14,-39.54 452.34,-36.81"/>
<polygon fill="#63b8ff" stroke="#63b8ff" points="388.65,-191.24 381.24,-198.81 391.75,-197.51 388.65,-191.24"/>
</a>
</g>
</g>
</g>
</svg>

<g id="navigator" transform="translate(0 0)" fill="#404254">
  <rect fill="#f2f5e9" fill-opacity="0.5" stroke="#606060" stroke-width=".5" x="0" y="0" width="60" height="60"/>
  <use id="zoomplus" xlink:href="#zoomPlus" x="17" y="9" onmousedown="handleZoom(evt,'in')"/>
  <use id="zoomminus" xlink:href="#zoomMin" x="42" y="9" onmousedown="handleZoom(evt,'out')"/>
  <use id="reset" xlink:href="#resetDef" x="30" y="36" onmousedown="handleReset()"/>
   <use id="arrowup" xlink:href="#arrowUp" x="0" y="0" onmousedown="handlePan(0,-1)"/>
  <use id="arrowright" xlink:href="#arrowRight" x="0" y="0" onmousedown="handlePan(1,0)"/>
  <use id="arrowdown" xlink:href="#arrowDown" x="0" y="0" onmousedown="handlePan(0,1)"/>
  <use id="arrowleft" xlink:href="#arrowLeft" x="0" y="0" onmousedown="handlePan(-1,0)"/>
</g>
<svg viewBox="0 0 15 15" width="100%" height="30px" preserveAspectRatio="xMaxYMin meet">
 <g id="arrow_out" transform="scale(0.3 0.3)">
  <a xlink:href="class_c_p_s_1_1_m_n_a_variable_comp_interface__inherit__graph_org.svg" target="_base">
   <rect id="button" ry="5" rx="5" y="6" x="6" height="38" width="38"
        fill="#f2f5e9" fill-opacity="0.5" stroke="#606060" stroke-width="1.0"/>
   <path id="arrow"
     d="M 11.500037,31.436501 C 11.940474,20.09759 22.043105,11.32322 32.158766,21.979434 L 37.068811,17.246167 C 37.068811,17.246167 37.088388,32 37.088388,32 L 22.160133,31.978069 C 22.160133,31.978069 26.997745,27.140456 26.997745,27.140456 C 18.528582,18.264221 13.291696,25.230495 11.500037,31.436501 z"
     style="fill:#404040;"/>
  </a>
 </g>
</svg>

<style type='text/css'>
<![CDATA[
[data-mouse-over-selected='false'] { opacity: 0.7; }
[data-mouse-over-selected='true']  { opacity: 1.0; }
]]>
</style>
<script type="application/ecmascript"><![CDATA[
document.addEventListener('DOMContentLoaded', (event) => {
  highlightEdges();
  highlightAdjacentNodes();
});
]]></script>
</svg>
