<?xml version="1.0" encoding="UTF-8" standalone="no"?>
<!DOCTYPE svg PUBLIC "-//W3C//DTD SVG 1.1//EN"
 "http://www.w3.org/Graphics/SVG/1.1/DTD/svg11.dtd">
<!-- Generated by graphviz version 2.42.4 (0)
 -->
<!-- Title: CPS::SP::Ph1::VoltageSource Pages: 1 -->
<svg width="1228pt" height="167pt"
 viewBox="0.00 0.00 1228.00 167.03" xmlns="http://www.w3.org/2000/svg" xmlns:xlink="http://www.w3.org/1999/xlink">
<g id="graph0" class="graph" transform="scale(1 1) rotate(0) translate(4 163.03)">
<title>CPS::SP::Ph1::VoltageSource</title>
<!-- Node1 -->
<g id="node1" class="node">
<title>Node1</title>
<g id="a_node1"><a xlink:title="Ideal Voltage source model.">
<polygon fill="#bfbfbf" stroke="black" points="1067,-57.5 1067,-76.5 1220,-76.5 1220,-57.5 1067,-57.5"/>
<text text-anchor="middle" x="1143.5" y="-64.5" font-family="Helvetica,sans-Serif" font-size="10.00">CPS::SP::Ph1::VoltageSource</text>
</a>
</g>
</g>
<!-- Node2 -->
<g id="node2" class="node">
<title>Node2</title>
<g id="a_node2"><a xlink:href="class_c_p_s_1_1_sim_power_comp.html" target="_top" xlink:title=" ">
<polygon fill="none" stroke="black" points="877.5,-115 877.5,-145 1004.5,-145 1004.5,-115 877.5,-115"/>
<text text-anchor="start" x="885.5" y="-133" font-family="Helvetica,sans-Serif" font-size="10.00">CPS::SimPowerComp&lt;</text>
<text text-anchor="middle" x="941" y="-122" font-family="Helvetica,sans-Serif" font-size="10.00"> Complex &gt;</text>
</a>
</g>
</g>
<!-- Node2&#45;&gt;Node1 -->
<g id="edge1" class="edge">
<title>Node2&#45;&gt;Node1</title>
<path fill="none" stroke="midnightblue" d="M1008.06,-112.21C1021.65,-108.35 1035.83,-104.17 1049,-100 1072.14,-92.68 1098.16,-83.41 1116.86,-76.56"/>
<polygon fill="midnightblue" stroke="midnightblue" points="1006.97,-108.89 998.29,-114.97 1008.87,-115.62 1006.97,-108.89"/>
</g>
<!-- Node3 -->
<g id="node3" class="node">
<title>Node3</title>
<g id="a_node3"><a xlink:href="class_c_p_s_1_1_topological_power_comp.html" target="_top" xlink:title=" ">
<polygon fill="none" stroke="black" points="401,-120.5 401,-139.5 556,-139.5 556,-120.5 401,-120.5"/>
<text text-anchor="middle" x="478.5" y="-127.5" font-family="Helvetica,sans-Serif" font-size="10.00">CPS::TopologicalPowerComp</text>
</a>
</g>
</g>
<!-- Node3&#45;&gt;Node2 -->
<g id="edge2" class="edge">
<title>Node3&#45;&gt;Node2</title>
<path fill="none" stroke="midnightblue" d="M523.32,-141.98C544.24,-147.1 569.73,-152.47 593,-155 692.07,-165.78 807.59,-152.28 877.19,-141.32"/>
<polygon fill="midnightblue" stroke="midnightblue" points="524,-138.54 513.45,-139.5 522.3,-145.33 524,-138.54"/>
</g>
<!-- Node6 -->
<g id="node6" class="node">
<title>Node6</title>
<g id="a_node6"><a xlink:href="class_c_p_s_1_1_sim_power_comp.html" target="_top" xlink:title="Base class for all components that are transmitting power.">
<polygon fill="none" stroke="black" points="593,-115 593,-145 720,-145 720,-115 593,-115"/>
<text text-anchor="start" x="601" y="-133" font-family="Helvetica,sans-Serif" font-size="10.00">CPS::SimPowerComp&lt;</text>
<text text-anchor="middle" x="656.5" y="-122" font-family="Helvetica,sans-Serif" font-size="10.00"> VarType &gt;</text>
</a>
</g>
</g>
<!-- Node3&#45;&gt;Node6 -->
<g id="edge6" class="edge">
<title>Node3&#45;&gt;Node6</title>
<path fill="none" stroke="midnightblue" d="M566.26,-130C575.21,-130 584.18,-130 592.79,-130"/>
<polygon fill="midnightblue" stroke="midnightblue" points="566.18,-126.5 556.18,-130 566.18,-133.5 566.18,-126.5"/>
</g>
<!-- Node4 -->
<g id="node4" class="node">
<title>Node4</title>
<g id="a_node4"><a xlink:href="class_c_p_s_1_1_identified_object.html" target="_top" xlink:title=" ">
<polygon fill="none" stroke="black" points="138,-119.5 138,-138.5 257,-138.5 257,-119.5 138,-119.5"/>
<text text-anchor="middle" x="197.5" y="-126.5" font-family="Helvetica,sans-Serif" font-size="10.00">CPS::IdentifiedObject</text>
</a>
</g>
</g>
<!-- Node4&#45;&gt;Node3 -->
<g id="edge3" class="edge">
<title>Node4&#45;&gt;Node3</title>
<path fill="none" stroke="midnightblue" d="M267.38,-129.25C307.9,-129.39 359.21,-129.58 400.98,-129.73"/>
<polygon fill="midnightblue" stroke="midnightblue" points="267.34,-125.75 257.33,-129.21 267.32,-132.75 267.34,-125.75"/>
</g>
<!-- Node5 -->
<g id="node5" class="node">
<title>Node5</title>
<g id="a_node5"><a xlink:href="class_c_p_s_1_1_attribute_list.html" target="_top" xlink:title="Base class of objects having attributes to access member variables.">
<polygon fill="none" stroke="black" points="0,-92.5 0,-111.5 101,-111.5 101,-92.5 0,-92.5"/>
<text text-anchor="middle" x="50.5" y="-99.5" font-family="Helvetica,sans-Serif" font-size="10.00">CPS::AttributeList</text>
</a>
</g>
</g>
<!-- Node5&#45;&gt;Node4 -->
<g id="edge4" class="edge">
<title>Node5&#45;&gt;Node4</title>
<path fill="none" stroke="midnightblue" d="M111.49,-113.17C122.62,-115.24 134.17,-117.39 145.03,-119.42"/>
<polygon fill="midnightblue" stroke="midnightblue" points="111.87,-109.68 101.4,-111.29 110.59,-116.56 111.87,-109.68"/>
</g>
<!-- Node7 -->
<g id="node7" class="node">
<title>Node7</title>
<g id="a_node7"><a xlink:href="class_c_p_s_1_1_m_n_a_interface.html" target="_top" xlink:title="Interface to be implemented by all models used by the MNA solver.">
<polygon fill="none" stroke="black" points="275,-79.5 275,-98.5 383,-98.5 383,-79.5 275,-79.5"/>
<text text-anchor="middle" x="329" y="-86.5" font-family="Helvetica,sans-Serif" font-size="10.00">CPS::MNAInterface</text>
</a>
</g>
</g>
<!-- Node5&#45;&gt;Node7 -->
<g id="edge8" class="edge">
<title>Node5&#45;&gt;Node7</title>
<path fill="none" stroke="midnightblue" d="M111.33,-99.19C160.02,-96.9 228.1,-93.7 274.88,-91.5"/>
<polygon fill="midnightblue" stroke="midnightblue" points="111.08,-95.69 101.25,-99.66 111.41,-102.69 111.08,-95.69"/>
</g>
<!-- Node6&#45;&gt;Node2 -->
<g id="edge5" class="edge">
<title>Node6&#45;&gt;Node2</title>
<path fill="none" stroke="orange" stroke-dasharray="5,2" d="M730.31,-130C775.88,-130 834,-130 877.48,-130"/>
<polygon fill="orange" stroke="orange" points="730.2,-126.5 720.2,-130 730.2,-133.5 730.2,-126.5"/>
<text text-anchor="middle" x="786" y="-133" font-family="Helvetica,sans-Serif" font-size="10.00"> &lt; Complex &gt;</text>
</g>
<!-- Node7&#45;&gt;Node1 -->
<g id="edge7" class="edge">
<title>Node7&#45;&gt;Node1</title>
<path fill="none" stroke="midnightblue" d="M393.49,-87.79C442.73,-86.96 512.7,-86 574,-86 574,-86 574,-86 942,-86 986.76,-86 1036.88,-81.25 1075.82,-76.5"/>
<polygon fill="midnightblue" stroke="midnightblue" points="393.25,-84.3 383.31,-87.97 393.37,-91.29 393.25,-84.3"/>
</g>
<!-- Node8 -->
<g id="node8" class="node">
<title>Node8</title>
<g id="a_node8"><a xlink:href="class_c_p_s_1_1_d_a_e_interface.html" target="_top" xlink:title=" ">
<polygon fill="none" stroke="black" points="888.5,-38.5 888.5,-57.5 993.5,-57.5 993.5,-38.5 888.5,-38.5"/>
<text text-anchor="middle" x="941" y="-45.5" font-family="Helvetica,sans-Serif" font-size="10.00">CPS::DAEInterface</text>
</a>
</g>
</g>
<!-- Node8&#45;&gt;Node1 -->
<g id="edge9" class="edge">
<title>Node8&#45;&gt;Node1</title>
<path fill="none" stroke="midnightblue" d="M1003.81,-53.86C1023.73,-55.75 1046.04,-57.86 1066.84,-59.83"/>
<polygon fill="midnightblue" stroke="midnightblue" points="1003.92,-50.35 993.63,-52.89 1003.26,-57.32 1003.92,-50.35"/>
</g>
<!-- Node9 -->
<g id="node9" class="node">
<title>Node9</title>
<g id="a_node9"><a xlink:href="class_shared_factory.html" target="_top" xlink:title=" ">
<polygon fill="none" stroke="black" points="852,-0.5 852,-19.5 1030,-19.5 1030,-0.5 852,-0.5"/>
<text text-anchor="middle" x="941" y="-7.5" font-family="Helvetica,sans-Serif" font-size="10.00">SharedFactory&lt; VoltageSource &gt;</text>
</a>
</g>
</g>
<!-- Node9&#45;&gt;Node1 -->
<g id="edge10" class="edge">
<title>Node9&#45;&gt;Node1</title>
<path fill="none" stroke="midnightblue" d="M1001.11,-21.8C1010.81,-24.01 1020.72,-26.44 1030,-29 1060.21,-37.33 1094.2,-49.17 1116.84,-57.41"/>
<polygon fill="midnightblue" stroke="midnightblue" points="1001.64,-18.33 991.11,-19.58 1000.12,-25.16 1001.64,-18.33"/>
</g>
<!-- Node10 -->
<g id="node10" class="node">
<title>Node10</title>
<g id="a_node10"><a xlink:href="class_shared_factory.html" target="_top" xlink:title=" ">
<polygon fill="none" stroke="black" points="599.5,-0.5 599.5,-19.5 713.5,-19.5 713.5,-0.5 599.5,-0.5"/>
<text text-anchor="middle" x="656.5" y="-7.5" font-family="Helvetica,sans-Serif" font-size="10.00">SharedFactory&lt; T &gt;</text>
</a>
</g>
</g>
<!-- Node10&#45;&gt;Node9 -->
<g id="edge11" class="edge">
<title>Node10&#45;&gt;Node9</title>
<path fill="none" stroke="orange" stroke-dasharray="5,2" d="M724.13,-10C762.31,-10 810.7,-10 851.97,-10"/>
<polygon fill="orange" stroke="orange" points="723.65,-6.5 713.65,-10 723.65,-13.5 723.65,-6.5"/>
<text text-anchor="middle" x="786" y="-13" font-family="Helvetica,sans-Serif" font-size="10.00"> &lt; VoltageSource &gt;</text>
</g>
</g>
</svg>
