<?xml version="1.0" encoding="UTF-8" standalone="no"?>
<!DOCTYPE svg PUBLIC "-//W3C//DTD SVG 1.1//EN"
 "http://www.w3.org/Graphics/SVG/1.1/DTD/svg11.dtd">
<!-- Generated by graphviz version 2.42.4 (0)
 -->
<!-- Title: CPS::EMT::Ph3::NetworkInjection Pages: 1 -->
<!--zoomable 432 -->
<svg id="main" version="1.1" xmlns="http://www.w3.org/2000/svg" xmlns:xlink="http://www.w3.org/1999/xlink" xml:space="preserve" onload="init(evt)">
<style type="text/css"><![CDATA[
.edge:hover path { stroke: red; }
.edge:hover polygon { stroke: red; fill: red; }
]]></style>
<script type="text/javascript"><![CDATA[
var edges = document.getElementsByTagName('g');
if (edges && edges.length) {
  for (var i=0;i<edges.length;i++) {
    if (edges[i].id.substr(0,4)=='edge') {
      edges[i].setAttribute('class','edge');
    }
  }
}
]]></script>
        <defs>
                <circle id="rim" cx="0" cy="0" r="7"/>
                <circle id="rim2" cx="0" cy="0" r="3.5"/>
                <g id="zoomPlus">
                        <use xlink:href="#rim" fill="#404040">
                                <set attributeName="fill" to="#808080" begin="zoomplus.mouseover" end="zoomplus.mouseout"/>
                        </use>
                        <path d="M-4,0h8M0,-4v8" fill="none" stroke="white" stroke-width="1.5" pointer-events="none"/>
                </g>
                <g id="zoomMin">
                        <use xlink:href="#rim" fill="#404040">
                                <set attributeName="fill" to="#808080" begin="zoomminus.mouseover" end="zoomminus.mouseout"/>
                        </use>
                        <path d="M-4,0h8" fill="none" stroke="white" stroke-width="1.5" pointer-events="none"/>
                </g>
                <g id="dirArrow">
                        <path fill="none" stroke="white" stroke-width="1.5" d="M0,-3.0v7 M-2.5,-0.5L0,-3.0L2.5,-0.5"/>
                </g>
               <g id="resetDef">
                       <use xlink:href="#rim2" fill="#404040">
                               <set attributeName="fill" to="#808080" begin="reset.mouseover" end="reset.mouseout"/>
                       </use>
               </g>
        </defs>

<script type="text/javascript">
var viewWidth = 1788;
var viewHeight = 432;
var sectionId = 'dynsection-1';
</script>
<script xlink:href="svgpan.js"/>
<svg id="graph" class="graph">
<g id="viewport">
<title>CPS::EMT::Ph3::NetworkInjection</title>
<!-- Node1 -->
<g id="node1" class="node">
<title>Node1</title>
<g id="a_node1"><a xlink:title="Network injection model.">
<polygon fill="#bfbfbf" stroke="black" points="1605,-100.5 1605,-119.5 1780,-119.5 1780,-100.5 1605,-100.5"/>
<text text-anchor="middle" x="1692.5" y="-107.5" font-family="Helvetica,sans-Serif" font-size="10.00">CPS::EMT::Ph3::NetworkInjection</text>
</a>
</g>
</g>
<!-- Node2 -->
<g id="node2" class="node">
<title>Node2</title>
<g id="a_node2"><a xlink:href="class_c_p_s_1_1_sim_power_comp.html" target="_top" xlink:title=" ">
<polygon fill="none" stroke="black" points="1441,-95 1441,-125 1568,-125 1568,-95 1441,-95"/>
<text text-anchor="start" x="1449" y="-113" font-family="Helvetica,sans-Serif" font-size="10.00">CPS::SimPowerComp&lt;</text>
<text text-anchor="middle" x="1504.5" y="-102" font-family="Helvetica,sans-Serif" font-size="10.00"> Real &gt;</text>
</a>
</g>
</g>
<!-- Node2&#45;&gt;Node1 -->
<g id="edge1" class="edge">
<title>Node2&#45;&gt;Node1</title>
<path fill="none" stroke="midnightblue" d="M1578.33,-110C1587.07,-110 1596.05,-110 1604.96,-110"/>
<polygon fill="midnightblue" stroke="midnightblue" points="1578.21,-106.5 1568.21,-110 1578.21,-113.5 1578.21,-106.5"/>
</g>
<!-- Node3 -->
<g id="node3" class="node">
<title>Node3</title>
<g id="a_node3"><a xlink:href="class_c_p_s_1_1_topological_power_comp.html" target="_top" xlink:title=" ">
<polygon fill="none" stroke="black" points="797,-28.5 797,-47.5 952,-47.5 952,-28.5 797,-28.5"/>
<text text-anchor="middle" x="874.5" y="-35.5" font-family="Helvetica,sans-Serif" font-size="10.00">CPS::TopologicalPowerComp</text>
</a>
</g>
</g>
<!-- Node3&#45;&gt;Node2 -->
<g id="edge2" class="edge">
<title>Node3&#45;&gt;Node2</title>
<path fill="none" stroke="midnightblue" d="M962.27,-37.73C1053.94,-38.62 1202.44,-43.42 1329,-63 1373.8,-69.93 1423.63,-84.01 1458.53,-94.96"/>
<polygon fill="midnightblue" stroke="midnightblue" points="962.23,-34.23 952.2,-37.65 962.17,-41.23 962.23,-34.23"/>
</g>
<!-- Node19 -->
<g id="node19" class="node">
<title>Node19</title>
<g id="a_node19"><a xlink:href="class_c_p_s_1_1_sim_power_comp.html" target="_top" xlink:title="Base class for all components that are transmitting power.">
<polygon fill="none" stroke="black" points="1192.5,-72 1192.5,-102 1319.5,-102 1319.5,-72 1192.5,-72"/>
<text text-anchor="start" x="1200.5" y="-90" font-family="Helvetica,sans-Serif" font-size="10.00">CPS::SimPowerComp&lt;</text>
<text text-anchor="middle" x="1256" y="-79" font-family="Helvetica,sans-Serif" font-size="10.00"> VarType &gt;</text>
</a>
</g>
</g>
<!-- Node3&#45;&gt;Node19 -->
<g id="edge26" class="edge">
<title>Node3&#45;&gt;Node19</title>
<path fill="none" stroke="midnightblue" d="M959.29,-48.82C1029.64,-57.9 1128.6,-70.68 1192.27,-78.9"/>
<polygon fill="midnightblue" stroke="midnightblue" points="959.49,-45.32 949.12,-47.51 958.59,-52.26 959.49,-45.32"/>
</g>
<!-- Node4 -->
<g id="node4" class="node">
<title>Node4</title>
<g id="a_node4"><a xlink:href="class_c_p_s_1_1_identified_object.html" target="_top" xlink:title=" ">
<polygon fill="none" stroke="black" points="138,-57.5 138,-76.5 257,-76.5 257,-57.5 138,-57.5"/>
<text text-anchor="middle" x="197.5" y="-64.5" font-family="Helvetica,sans-Serif" font-size="10.00">CPS::IdentifiedObject</text>
</a>
</g>
</g>
<!-- Node4&#45;&gt;Node3 -->
<g id="edge3" class="edge">
<title>Node4&#45;&gt;Node3</title>
<path fill="none" stroke="midnightblue" d="M267.59,-64.03C394.62,-58.57 664.37,-46.98 796.84,-41.29"/>
<polygon fill="midnightblue" stroke="midnightblue" points="267.06,-60.55 257.22,-64.48 267.36,-67.54 267.06,-60.55"/>
</g>
<!-- Node7 -->
<g id="node7" class="node">
<title>Node7</title>
<g id="a_node7"><a xlink:href="class_c_p_s_1_1_topological_terminal.html" target="_top" xlink:title=" ">
<polygon fill="none" stroke="black" points="451,-266.5 451,-285.5 589,-285.5 589,-266.5 451,-266.5"/>
<text text-anchor="middle" x="520" y="-273.5" font-family="Helvetica,sans-Serif" font-size="10.00">CPS::TopologicalTerminal</text>
</a>
</g>
</g>
<!-- Node4&#45;&gt;Node7 -->
<g id="edge7" class="edge">
<title>Node4&#45;&gt;Node7</title>
<path fill="none" stroke="midnightblue" d="M234.09,-80.27C290.18,-101.79 395.63,-144.81 423,-174 437.73,-189.71 427.79,-201.98 441,-219 457.15,-239.8 482.83,-256.53 500.27,-266.35"/>
<polygon fill="midnightblue" stroke="midnightblue" points="235.13,-76.93 224.54,-76.64 232.64,-83.47 235.13,-76.93"/>
</g>
<!-- Node13 -->
<g id="node13" class="node">
<title>Node13</title>
<g id="a_node13"><a xlink:href="class_c_p_s_1_1_topological_node.html" target="_top" xlink:title=" ">
<polygon fill="none" stroke="black" points="459,-80.5 459,-99.5 581,-99.5 581,-80.5 459,-80.5"/>
<text text-anchor="middle" x="520" y="-87.5" font-family="Helvetica,sans-Serif" font-size="10.00">CPS::TopologicalNode</text>
</a>
</g>
</g>
<!-- Node4&#45;&gt;Node13 -->
<g id="edge16" class="edge">
<title>Node4&#45;&gt;Node13</title>
<path fill="none" stroke="midnightblue" d="M267.29,-71.94C324.3,-76.03 404.51,-81.78 458.96,-85.69"/>
<polygon fill="midnightblue" stroke="midnightblue" points="267.51,-68.44 257.28,-71.22 267.01,-75.43 267.51,-68.44"/>
</g>
<!-- Node5 -->
<g id="node5" class="node">
<title>Node5</title>
<g id="a_node5"><a xlink:href="class_c_p_s_1_1_attribute_list.html" target="_top" xlink:title="Base class of objects having attributes to access member variables.">
<polygon fill="none" stroke="black" points="0,-25.5 0,-44.5 101,-44.5 101,-25.5 0,-25.5"/>
<text text-anchor="middle" x="50.5" y="-32.5" font-family="Helvetica,sans-Serif" font-size="10.00">CPS::AttributeList</text>
</a>
</g>
</g>
<!-- Node5&#45;&gt;Node4 -->
<g id="edge4" class="edge">
<title>Node5&#45;&gt;Node4</title>
<path fill="none" stroke="midnightblue" d="M104.41,-46.68C120.48,-50.22 137.95,-54.08 153.3,-57.47"/>
<polygon fill="midnightblue" stroke="midnightblue" points="105.13,-43.25 94.61,-44.51 103.62,-50.09 105.13,-43.25"/>
</g>
<!-- Node20 -->
<g id="node20" class="node">
<title>Node20</title>
<g id="a_node20"><a xlink:href="class_c_p_s_1_1_m_n_a_interface.html" target="_top" xlink:title="Interface to be implemented by all models used by the MNA solver.">
<polygon fill="none" stroke="black" points="295,-2.5 295,-21.5 403,-21.5 403,-2.5 295,-2.5"/>
<text text-anchor="middle" x="349" y="-9.5" font-family="Helvetica,sans-Serif" font-size="10.00">CPS::MNAInterface</text>
</a>
</g>
</g>
<!-- Node5&#45;&gt;Node20 -->
<g id="edge28" class="edge">
<title>Node5&#45;&gt;Node20</title>
<path fill="none" stroke="midnightblue" d="M111.21,-30.37C165,-26.2 243.33,-20.12 294.95,-16.11"/>
<polygon fill="midnightblue" stroke="midnightblue" points="110.83,-26.89 101.13,-31.15 111.37,-33.87 110.83,-26.89"/>
</g>
<!-- Node6 -->
<g id="node6" class="node">
<title>Node6</title>
<g id="a_node6"><a xlink:href="class_c_p_s_1_1_sim_terminal.html" target="_top" xlink:title=" ">
<polygon fill="none" stroke="black" points="1183,-278.5 1183,-297.5 1329,-297.5 1329,-278.5 1183,-278.5"/>
<text text-anchor="middle" x="1256" y="-285.5" font-family="Helvetica,sans-Serif" font-size="10.00">CPS::SimTerminal&lt; Real &gt;</text>
</a>
</g>
</g>
<!-- Node6&#45;&gt;Node2 -->
<g id="edge5" class="edge">
<title>Node6&#45;&gt;Node2</title>
<path fill="none" stroke="#9a32cd" stroke-dasharray="5,2" d="M1278.48,-272.49C1325.3,-238.68 1436.11,-158.66 1482.5,-125.16"/>
<polygon fill="#9a32cd" stroke="#9a32cd" points="1276.31,-269.74 1270.25,-278.43 1280.41,-275.41 1276.31,-269.74"/>
<text text-anchor="middle" x="1385" y="-223" font-family="Helvetica,sans-Serif" font-size="10.00"> mTerminals</text>
</g>
<!-- Node7&#45;&gt;Node6 -->
<g id="edge6" class="edge">
<title>Node7&#45;&gt;Node6</title>
<path fill="none" stroke="midnightblue" d="M599.09,-277.28C742.18,-279.62 1044.43,-284.56 1182.92,-286.82"/>
<polygon fill="midnightblue" stroke="midnightblue" points="599.12,-273.78 589.07,-277.11 599.01,-280.78 599.12,-273.78"/>
</g>
<!-- Node10 -->
<g id="node10" class="node">
<title>Node10</title>
<g id="a_node10"><a xlink:href="class_c_p_s_1_1_sim_terminal.html" target="_top" xlink:title=" ">
<polygon fill="none" stroke="black" points="793,-298.5 793,-317.5 956,-317.5 956,-298.5 793,-298.5"/>
<text text-anchor="middle" x="874.5" y="-305.5" font-family="Helvetica,sans-Serif" font-size="10.00">CPS::SimTerminal&lt; VarType &gt;</text>
</a>
</g>
</g>
<!-- Node7&#45;&gt;Node10 -->
<g id="edge11" class="edge">
<title>Node7&#45;&gt;Node10</title>
<path fill="none" stroke="midnightblue" d="M599.52,-283.13C657.07,-288.35 734.94,-295.42 792.96,-300.69"/>
<polygon fill="midnightblue" stroke="midnightblue" points="599.66,-279.63 589.38,-282.21 599.03,-286.6 599.66,-279.63"/>
</g>
<!-- Node8 -->
<g id="node8" class="node">
<title>Node8</title>
<g id="a_node8"><a xlink:href="class_shared_factory.html" target="_top" xlink:title=" ">
<polygon fill="none" stroke="black" points="617,-343 617,-373 775,-373 775,-343 617,-343"/>
<text text-anchor="start" x="625" y="-361" font-family="Helvetica,sans-Serif" font-size="10.00">SharedFactory&lt; SimTerminal</text>
<text text-anchor="middle" x="696" y="-350" font-family="Helvetica,sans-Serif" font-size="10.00">&lt; Real &gt; &gt;</text>
</a>
</g>
</g>
<!-- Node8&#45;&gt;Node6 -->
<g id="edge8" class="edge">
<title>Node8&#45;&gt;Node6</title>
<path fill="none" stroke="midnightblue" d="M785.3,-356.15C880.02,-352.8 1034.45,-343.4 1165,-317 1187.69,-312.41 1212.69,-304.08 1230.57,-297.52"/>
<polygon fill="midnightblue" stroke="midnightblue" points="785.07,-352.66 775.19,-356.49 785.3,-359.65 785.07,-352.66"/>
</g>
<!-- Node9 -->
<g id="node9" class="node">
<title>Node9</title>
<g id="a_node9"><a xlink:href="class_shared_factory.html" target="_top" xlink:title=" ">
<polygon fill="none" stroke="black" points="140.5,-310.5 140.5,-329.5 254.5,-329.5 254.5,-310.5 140.5,-310.5"/>
<text text-anchor="middle" x="197.5" y="-317.5" font-family="Helvetica,sans-Serif" font-size="10.00">SharedFactory&lt; T &gt;</text>
</a>
</g>
</g>
<!-- Node9&#45;&gt;Node8 -->
<g id="edge9" class="edge">
<title>Node9&#45;&gt;Node8</title>
<path fill="none" stroke="orange" stroke-dasharray="5,2" d="M251.46,-331.33C259.32,-332.74 267.35,-334.02 275,-335 393.62,-350.13 532.33,-355.32 616.9,-357.09"/>
<polygon fill="orange" stroke="orange" points="252.1,-327.89 241.63,-329.5 250.81,-334.77 252.1,-327.89"/>
<text text-anchor="middle" x="349" y="-351" font-family="Helvetica,sans-Serif" font-size="10.00"> &lt; SimTerminal&lt; Real &gt; &gt;</text>
</g>
<!-- Node11 -->
<g id="node11" class="node">
<title>Node11</title>
<g id="a_node11"><a xlink:href="class_shared_factory.html" target="_top" xlink:title=" ">
<polygon fill="none" stroke="black" points="441,-305 441,-335 599,-335 599,-305 441,-305"/>
<text text-anchor="start" x="449" y="-323" font-family="Helvetica,sans-Serif" font-size="10.00">SharedFactory&lt; SimTerminal</text>
<text text-anchor="middle" x="520" y="-312" font-family="Helvetica,sans-Serif" font-size="10.00">&lt; VarType &gt; &gt;</text>
</a>
</g>
</g>
<!-- Node9&#45;&gt;Node11 -->
<g id="edge13" class="edge">
<title>Node9&#45;&gt;Node11</title>
<path fill="none" stroke="orange" stroke-dasharray="5,2" d="M264.98,-320C316.15,-320 387.01,-320 440.89,-320"/>
<polygon fill="orange" stroke="orange" points="264.69,-316.5 254.69,-320 264.69,-323.5 264.69,-316.5"/>
<text text-anchor="middle" x="349" y="-323" font-family="Helvetica,sans-Serif" font-size="10.00"> &lt; SimTerminal&lt; VarType &gt; &gt;</text>
</g>
<!-- Node15 -->
<g id="node15" class="node">
<title>Node15</title>
<g id="a_node15"><a xlink:href="class_shared_factory.html" target="_top" xlink:title=" ">
<polygon fill="none" stroke="black" points="625.5,-218 625.5,-248 766.5,-248 766.5,-218 625.5,-218"/>
<text text-anchor="start" x="633.5" y="-236" font-family="Helvetica,sans-Serif" font-size="10.00">SharedFactory&lt; SimNode</text>
<text text-anchor="middle" x="696" y="-225" font-family="Helvetica,sans-Serif" font-size="10.00">&lt; Real &gt; &gt;</text>
</a>
</g>
</g>
<!-- Node9&#45;&gt;Node15 -->
<g id="edge19" class="edge">
<title>Node9&#45;&gt;Node15</title>
<path fill="none" stroke="orange" stroke-dasharray="5,2" d="M238.42,-307.53C286.13,-293.11 368.61,-269.74 441,-257 502.84,-246.12 574.07,-239.93 625.33,-236.57"/>
<polygon fill="orange" stroke="orange" points="237.33,-304.2 228.78,-310.46 239.37,-310.9 237.33,-304.2"/>
<text text-anchor="middle" x="349" y="-298" font-family="Helvetica,sans-Serif" font-size="10.00"> &lt; SimNode&lt; Real &gt; &gt;</text>
</g>
<!-- Node18 -->
<g id="node18" class="node">
<title>Node18</title>
<g id="a_node18"><a xlink:href="class_shared_factory.html" target="_top" xlink:title=" ">
<polygon fill="none" stroke="black" points="449.5,-179 449.5,-209 590.5,-209 590.5,-179 449.5,-179"/>
<text text-anchor="start" x="457.5" y="-197" font-family="Helvetica,sans-Serif" font-size="10.00">SharedFactory&lt; SimNode</text>
<text text-anchor="middle" x="520" y="-186" font-family="Helvetica,sans-Serif" font-size="10.00">&lt; VarType &gt; &gt;</text>
</a>
</g>
</g>
<!-- Node9&#45;&gt;Node18 -->
<g id="edge24" class="edge">
<title>Node9&#45;&gt;Node18</title>
<path fill="none" stroke="orange" stroke-dasharray="5,2" d="M204.92,-300.87C215.07,-274.04 237.59,-226.14 275,-205 327.88,-175.11 397.98,-175.23 449.47,-181.13"/>
<polygon fill="orange" stroke="orange" points="201.61,-299.74 201.53,-310.33 208.2,-302.1 201.61,-299.74"/>
<text text-anchor="middle" x="349" y="-208" font-family="Helvetica,sans-Serif" font-size="10.00"> &lt; SimNode&lt; VarType &gt; &gt;</text>
</g>
<!-- Node21 -->
<g id="node21" class="node">
<title>Node21</title>
<g id="a_node21"><a xlink:href="class_shared_factory.html" target="_top" xlink:title=" ">
<polygon fill="none" stroke="black" points="974,-383.5 974,-402.5 1165,-402.5 1165,-383.5 974,-383.5"/>
<text text-anchor="middle" x="1069.5" y="-390.5" font-family="Helvetica,sans-Serif" font-size="10.00">SharedFactory&lt; NetworkInjection &gt;</text>
</a>
</g>
</g>
<!-- Node9&#45;&gt;Node21 -->
<g id="edge30" class="edge">
<title>Node9&#45;&gt;Node21</title>
<path fill="none" stroke="orange" stroke-dasharray="5,2" d="M219.59,-335.33C234.33,-345.14 254.9,-357.11 275,-363 527.67,-437.09 845.02,-417.33 989.88,-402.51"/>
<polygon fill="orange" stroke="orange" points="221.44,-332.35 211.22,-329.57 217.47,-338.12 221.44,-332.35"/>
<text text-anchor="middle" x="520" y="-416" font-family="Helvetica,sans-Serif" font-size="10.00"> &lt; NetworkInjection &gt;</text>
</g>
<!-- Node10&#45;&gt;Node6 -->
<g id="edge10" class="edge">
<title>Node10&#45;&gt;Node6</title>
<path fill="none" stroke="orange" stroke-dasharray="5,2" d="M966.47,-303.21C1032.77,-299.71 1121.38,-295.04 1182.83,-291.8"/>
<polygon fill="orange" stroke="orange" points="966.25,-299.71 956.45,-303.73 966.62,-306.7 966.25,-299.71"/>
<text text-anchor="middle" x="1069.5" y="-305" font-family="Helvetica,sans-Serif" font-size="10.00"> &lt; Real &gt;</text>
</g>
<!-- Node11&#45;&gt;Node10 -->
<g id="edge12" class="edge">
<title>Node11&#45;&gt;Node10</title>
<path fill="none" stroke="midnightblue" d="M609.54,-316.99C665.8,-315.07 738.05,-312.61 792.74,-310.75"/>
<polygon fill="midnightblue" stroke="midnightblue" points="609.11,-313.5 599.23,-317.34 609.34,-320.49 609.11,-313.5"/>
</g>
<!-- Node12 -->
<g id="node12" class="node">
<title>Node12</title>
<g id="a_node12"><a xlink:href="class_c_p_s_1_1_sim_node.html" target="_top" xlink:title=" ">
<polygon fill="none" stroke="black" points="1191,-126.5 1191,-145.5 1321,-145.5 1321,-126.5 1191,-126.5"/>
<text text-anchor="middle" x="1256" y="-133.5" font-family="Helvetica,sans-Serif" font-size="10.00">CPS::SimNode&lt; Real &gt;</text>
</a>
</g>
</g>
<!-- Node12&#45;&gt;Node2 -->
<g id="edge14" class="edge">
<title>Node12&#45;&gt;Node2</title>
<path fill="none" stroke="#9a32cd" stroke-dasharray="5,2" d="M1331.29,-128.16C1366.3,-124.47 1407.6,-120.12 1440.98,-116.59"/>
<polygon fill="#9a32cd" stroke="#9a32cd" points="1330.7,-124.71 1321.12,-129.24 1331.43,-131.67 1330.7,-124.71"/>
<text text-anchor="middle" x="1385" y="-129" font-family="Helvetica,sans-Serif" font-size="10.00"> mVirtualNodes</text>
</g>
<!-- Node13&#45;&gt;Node12 -->
<g id="edge15" class="edge">
<title>Node13&#45;&gt;Node12</title>
<path fill="none" stroke="midnightblue" d="M591.11,-98.08C645.99,-104.14 724.26,-112.18 793,-117 934.74,-126.94 1101.34,-132.22 1190.66,-134.53"/>
<polygon fill="midnightblue" stroke="midnightblue" points="591.47,-94.6 581.15,-96.98 590.7,-101.56 591.47,-94.6"/>
</g>
<!-- Node16 -->
<g id="node16" class="node">
<title>Node16</title>
<g id="a_node16"><a xlink:href="class_c_p_s_1_1_sim_node.html" target="_top" xlink:title=" ">
<polygon fill="none" stroke="black" points="801.5,-164.5 801.5,-183.5 947.5,-183.5 947.5,-164.5 801.5,-164.5"/>
<text text-anchor="middle" x="874.5" y="-171.5" font-family="Helvetica,sans-Serif" font-size="10.00">CPS::SimNode&lt; VarType &gt;</text>
</a>
</g>
</g>
<!-- Node13&#45;&gt;Node16 -->
<g id="edge21" class="edge">
<title>Node13&#45;&gt;Node16</title>
<path fill="none" stroke="midnightblue" d="M588.95,-103.5C592.45,-105.13 595.83,-106.95 599,-109 609.91,-116.04 605.83,-125.39 617,-132 625.21,-136.86 734.68,-153.65 807.93,-164.48"/>
<polygon fill="midnightblue" stroke="midnightblue" points="590.04,-100.16 579.45,-99.63 587.39,-106.64 590.04,-100.16"/>
</g>
<!-- Node14 -->
<g id="node14" class="node">
<title>Node14</title>
<g id="a_node14"><a xlink:title=" ">
<polygon fill="none" stroke="#bfbfbf" points="812.5,-66.5 812.5,-107.5 936.5,-107.5 936.5,-66.5 812.5,-66.5"/>
<text text-anchor="start" x="820.5" y="-95.5" font-family="Helvetica,sans-Serif" font-size="10.00">std::enable_shared</text>
<text text-anchor="start" x="820.5" y="-84.5" font-family="Helvetica,sans-Serif" font-size="10.00">_from_this&lt; SimNode</text>
<text text-anchor="middle" x="874.5" y="-73.5" font-family="Helvetica,sans-Serif" font-size="10.00">&lt; Real &gt; &gt;</text>
</a>
</g>
</g>
<!-- Node14&#45;&gt;Node12 -->
<g id="edge17" class="edge">
<title>Node14&#45;&gt;Node12</title>
<path fill="none" stroke="midnightblue" d="M946.84,-94.94C1005.49,-101.63 1090.72,-111.74 1165,-122 1174.87,-123.36 1185.33,-124.9 1195.5,-126.45"/>
<polygon fill="midnightblue" stroke="midnightblue" points="946.91,-91.43 936.57,-93.77 946.11,-98.38 946.91,-91.43"/>
</g>
<!-- Node15&#45;&gt;Node12 -->
<g id="edge18" class="edge">
<title>Node15&#45;&gt;Node12</title>
<path fill="none" stroke="midnightblue" d="M776.82,-233.04C871.39,-231.1 1032.78,-221.53 1165,-182 1193.24,-173.56 1223.18,-156.38 1240.42,-145.58"/>
<polygon fill="midnightblue" stroke="midnightblue" points="776.69,-229.54 766.75,-233.22 776.81,-236.54 776.69,-229.54"/>
</g>
<!-- Node16&#45;&gt;Node12 -->
<g id="edge20" class="edge">
<title>Node16&#45;&gt;Node12</title>
<path fill="none" stroke="orange" stroke-dasharray="5,2" d="M957.83,-168.75C1015.86,-164.67 1095.32,-158.3 1165,-150 1175.68,-148.73 1187.03,-147.14 1197.95,-145.5"/>
<polygon fill="orange" stroke="orange" points="957.35,-165.27 947.62,-169.46 957.84,-172.26 957.35,-165.27"/>
<text text-anchor="middle" x="1069.5" y="-170" font-family="Helvetica,sans-Serif" font-size="10.00"> &lt; Real &gt;</text>
</g>
<!-- Node17 -->
<g id="node17" class="node">
<title>Node17</title>
<g id="a_node17"><a xlink:title=" ">
<polygon fill="none" stroke="#bfbfbf" points="458,-118.5 458,-159.5 582,-159.5 582,-118.5 458,-118.5"/>
<text text-anchor="start" x="466" y="-147.5" font-family="Helvetica,sans-Serif" font-size="10.00">std::enable_shared</text>
<text text-anchor="start" x="466" y="-136.5" font-family="Helvetica,sans-Serif" font-size="10.00">_from_this&lt; SimNode</text>
<text text-anchor="middle" x="520" y="-125.5" font-family="Helvetica,sans-Serif" font-size="10.00">&lt; VarType &gt; &gt;</text>
</a>
</g>
</g>
<!-- Node17&#45;&gt;Node16 -->
<g id="edge22" class="edge">
<title>Node17&#45;&gt;Node16</title>
<path fill="none" stroke="midnightblue" d="M592.15,-153.32C600.51,-154.71 608.93,-155.98 617,-157 678.99,-164.84 749.89,-169.19 801.41,-171.52"/>
<polygon fill="midnightblue" stroke="midnightblue" points="592.48,-149.82 582.03,-151.57 591.29,-156.72 592.48,-149.82"/>
</g>
<!-- Node18&#45;&gt;Node16 -->
<g id="edge23" class="edge">
<title>Node18&#45;&gt;Node16</title>
<path fill="none" stroke="midnightblue" d="M600.69,-190.93C650.75,-188.83 716.68,-185.74 775,-182 783.56,-181.45 792.54,-180.81 801.43,-180.14"/>
<polygon fill="midnightblue" stroke="midnightblue" points="600.42,-187.44 590.57,-191.35 600.71,-194.43 600.42,-187.44"/>
</g>
<!-- Node19&#45;&gt;Node2 -->
<g id="edge25" class="edge">
<title>Node19&#45;&gt;Node2</title>
<path fill="none" stroke="orange" stroke-dasharray="5,2" d="M1329.88,-89.09C1358.92,-90.41 1392.6,-92.54 1423,-96 1428.78,-96.66 1434.77,-97.46 1440.76,-98.35"/>
<polygon fill="orange" stroke="orange" points="1329.95,-85.59 1319.81,-88.66 1329.65,-92.58 1329.95,-85.59"/>
<text text-anchor="middle" x="1385" y="-99" font-family="Helvetica,sans-Serif" font-size="10.00"> &lt; Real &gt;</text>
</g>
<!-- Node20&#45;&gt;Node1 -->
<g id="edge27" class="edge">
<title>Node20&#45;&gt;Node1</title>
<path fill="none" stroke="midnightblue" d="M413.47,-8.47C482.66,-4.93 596.67,0 695,0 695,0 695,0 1505.5,0 1583.91,0 1658.26,-73.32 1682.92,-100.24"/>
<polygon fill="midnightblue" stroke="midnightblue" points="412.98,-4.99 403.17,-9 413.34,-11.98 412.98,-4.99"/>
</g>
<!-- Node21&#45;&gt;Node1 -->
<g id="edge29" class="edge">
<title>Node21&#45;&gt;Node1</title>
<path fill="none" stroke="midnightblue" d="M1115.15,-380.76C1167.39,-365.84 1256.04,-338.67 1329,-307 1468.95,-246.26 1626.97,-150.22 1676.1,-119.67"/>
<polygon fill="midnightblue" stroke="midnightblue" points="1114.18,-377.39 1105.51,-383.49 1116.09,-384.13 1114.18,-377.39"/>
</g>
</g>
</svg>
        <g id="navigator" transform="translate(0 0)" fill="#404254">
                <rect fill="#f2f5e9" fill-opacity="0.5" stroke="#606060" stroke-width=".5" x="0" y="0" width="60" height="60"/>
                <use id="zoomplus" xlink:href="#zoomPlus" x="17" y="9" onmousedown="handleZoom(evt,'in')"/>
                <use id="zoomminus" xlink:href="#zoomMin" x="42" y="9" onmousedown="handleZoom(evt,'out')"/>
                <use id="reset" xlink:href="#resetDef" x="30" y="36" onmousedown="handleReset()"/>
                <g id="arrowUp" xlink:href="#dirArrow" transform="translate(30 24)" onmousedown="handlePan(0,-1)">
                  <use xlink:href="#rim" fill="#404040">
                        <set attributeName="fill" to="#808080" begin="arrowUp.mouseover" end="arrowUp.mouseout"/>
                  </use>
                  <path fill="none" stroke="white" stroke-width="1.5" d="M0,-3.0v7 M-2.5,-0.5L0,-3.0L2.5,-0.5"/>
                </g>
                <g id="arrowRight" xlink:href="#dirArrow" transform="rotate(90) translate(36 -43)" onmousedown="handlePan(1,0)">
                  <use xlink:href="#rim" fill="#404040">
                        <set attributeName="fill" to="#808080" begin="arrowRight.mouseover" end="arrowRight.mouseout"/>
                  </use>
                  <path fill="none" stroke="white" stroke-width="1.5" d="M0,-3.0v7 M-2.5,-0.5L0,-3.0L2.5,-0.5"/>
                </g>
                <g id="arrowDown" xlink:href="#dirArrow" transform="rotate(180) translate(-30 -48)" onmousedown="handlePan(0,1)">
                  <use xlink:href="#rim" fill="#404040">
                        <set attributeName="fill" to="#808080" begin="arrowDown.mouseover" end="arrowDown.mouseout"/>
                  </use>
                  <path fill="none" stroke="white" stroke-width="1.5" d="M0,-3.0v7 M-2.5,-0.5L0,-3.0L2.5,-0.5"/>
                </g>
                <g id="arrowLeft" xlink:href="#dirArrow" transform="rotate(270) translate(-36 17)" onmousedown="handlePan(-1,0)">
                  <use xlink:href="#rim" fill="#404040">
                        <set attributeName="fill" to="#808080" begin="arrowLeft.mouseover" end="arrowLeft.mouseout"/>
                  </use>
                  <path fill="none" stroke="white" stroke-width="1.5" d="M0,-3.0v7 M-2.5,-0.5L0,-3.0L2.5,-0.5"/>
                </g>
        </g>
        <svg viewBox="0 0 15 15" width="100%" height="30px" preserveAspectRatio="xMaxYMin meet">
         <g id="arrow_out" transform="scale(0.3 0.3)">
          <a xlink:href="class_c_p_s_1_1_e_m_t_1_1_ph3_1_1_network_injection__coll__graph_org.svg" target="_base">
           <rect id="button" ry="5" rx="5" y="6" x="6" height="38" width="38"
                fill="#f2f5e9" fill-opacity="0.5" stroke="#606060" stroke-width="1.0"/>
           <path id="arrow"
             d="M 11.500037,31.436501 C 11.940474,20.09759 22.043105,11.32322 32.158766,21.979434 L 37.068811,17.246167 C 37.068811,17.246167 37.088388,32 37.088388,32 L 22.160133,31.978069 C 22.160133,31.978069 26.997745,27.140456 26.997745,27.140456 C 18.528582,18.264221 13.291696,25.230495 11.500037,31.436501 z"
             style="fill:#404040;"/>
          </a>
         </g>
        </svg>
</svg>
