<?xml version="1.0" encoding="UTF-8" standalone="no"?>
<!DOCTYPE svg PUBLIC "-//W3C//DTD SVG 1.1//EN"
 "http://www.w3.org/Graphics/SVG/1.1/DTD/svg11.dtd">
<!-- Generated by graphviz version 2.44.0 (0)
 -->
<!-- Title: CPS::Attribute&lt; T &gt; Pages: 1 -->
<svg width="565pt" height="492pt"
 viewBox="0.00 0.00 565.00 491.50" xmlns="http://www.w3.org/2000/svg" xmlns:xlink="http://www.w3.org/1999/xlink">
<g id="graph0" class="graph" transform="scale(1 1) rotate(0) translate(4 487.5)">
<title>CPS::Attribute&lt; T &gt;</title>
<!-- Node1 -->
<g id="node1" class="node">
<title>Node1</title>
<g id="a_node1"><a xlink:title=" ">
<polygon fill="#bfbfbf" stroke="black" points="145,-221 145,-240 249,-240 249,-221 145,-221"/>
<text text-anchor="middle" x="197" y="-228" font-family="Helvetica" font-size="10.00">CPS::Attribute&lt; T &gt;</text>
</a>
</g>
</g>
<!-- Node4 -->
<g id="node4" class="node">
<title>Node4</title>
<g id="a_node4"><a xlink:href="class_c_p_s_1_1_attribute_dynamic.html" target="_top" xlink:title=" ">
<polygon fill="none" stroke="black" points="409.5,-464 409.5,-483 552.5,-483 552.5,-464 409.5,-464"/>
<text text-anchor="middle" x="481" y="-471" font-family="Helvetica" font-size="10.00">CPS::AttributeDynamic&lt; T &gt;</text>
</a>
</g>
</g>
<!-- Node1&#45;&gt;Node4 -->
<g id="edge3" class="edge">
<title>Node1&#45;&gt;Node4</title>
<path fill="none" stroke="midnightblue" d="M198.36,-250.18C200.26,-291.42 210.84,-387.1 267,-435.5 305.84,-468.97 363.82,-477.55 409.48,-478.27"/>
<polygon fill="midnightblue" stroke="midnightblue" points="201.86,-249.95 198.03,-240.07 194.86,-250.18 201.86,-249.95"/>
</g>
<!-- Node5 -->
<g id="node5" class="node">
<title>Node5</title>
<g id="a_node5"><a xlink:href="class_c_p_s_1_1_attribute_static.html" target="_top" xlink:title=" ">
<polygon fill="none" stroke="black" points="416,-426 416,-445 546,-445 546,-426 416,-426"/>
<text text-anchor="middle" x="481" y="-433" font-family="Helvetica" font-size="10.00">CPS::AttributeStatic&lt; T &gt;</text>
</a>
</g>
</g>
<!-- Node1&#45;&gt;Node5 -->
<g id="edge4" class="edge">
<title>Node1&#45;&gt;Node5</title>
<path fill="none" stroke="midnightblue" d="M199.7,-250.7C203.97,-287.48 218.52,-365.08 267,-403.5 308.61,-436.48 369.6,-442.72 415.66,-441.74"/>
<polygon fill="midnightblue" stroke="midnightblue" points="203.14,-249.9 198.65,-240.3 196.18,-250.6 203.14,-249.9"/>
</g>
<!-- Node6 -->
<g id="node6" class="node">
<title>Node6</title>
<g id="a_node6"><a xlink:href="class_c_p_s_1_1_attribute.html" target="_top" xlink:title=" ">
<polygon fill="none" stroke="black" points="415.5,-376.5 415.5,-406.5 546.5,-406.5 546.5,-376.5 415.5,-376.5"/>
<text text-anchor="start" x="423.5" y="-394.5" font-family="Helvetica" font-size="10.00">CPS::Attribute&lt; MatrixVar</text>
<text text-anchor="middle" x="481" y="-383.5" font-family="Helvetica" font-size="10.00">&lt; Complex &gt; &gt;</text>
</a>
</g>
</g>
<!-- Node1&#45;&gt;Node6 -->
<g id="edge5" class="edge">
<title>Node1&#45;&gt;Node6</title>
<path fill="none" stroke="orange" stroke-dasharray="5,2" d="M203.87,-249.87C212.94,-276.3 232.95,-323.15 267,-347.5 310.15,-378.36 370.1,-388.6 415.4,-391.56"/>
<polygon fill="orange" stroke="orange" points="207.16,-248.65 200.74,-240.22 200.5,-250.81 207.16,-248.65"/>
<text text-anchor="middle" x="327" y="-391.5" font-family="Helvetica" font-size="10.00"> &lt; MatrixVar&lt; Complex &gt; &gt;</text>
</g>
<!-- Node7 -->
<g id="node7" class="node">
<title>Node7</title>
<g id="a_node7"><a xlink:href="class_c_p_s_1_1_attribute.html" target="_top" xlink:title=" ">
<polygon fill="none" stroke="black" points="415.5,-327.5 415.5,-357.5 546.5,-357.5 546.5,-327.5 415.5,-327.5"/>
<text text-anchor="start" x="423.5" y="-345.5" font-family="Helvetica" font-size="10.00">CPS::Attribute&lt; MatrixVar</text>
<text text-anchor="middle" x="481" y="-334.5" font-family="Helvetica" font-size="10.00">&lt; VarType &gt; &gt;</text>
</a>
</g>
</g>
<!-- Node1&#45;&gt;Node7 -->
<g id="edge6" class="edge">
<title>Node1&#45;&gt;Node7</title>
<path fill="none" stroke="orange" stroke-dasharray="5,2" d="M211.93,-248.14C224.67,-263.05 244.87,-283.8 267,-295.5 313.2,-319.93 371.48,-331.68 415.4,-337.32"/>
<polygon fill="orange" stroke="orange" points="214.39,-245.63 205.33,-240.14 209,-250.08 214.39,-245.63"/>
<text text-anchor="middle" x="327" y="-335.5" font-family="Helvetica" font-size="10.00"> &lt; MatrixVar&lt; VarType &gt; &gt;</text>
</g>
<!-- Node8 -->
<g id="node8" class="node">
<title>Node8</title>
<g id="a_node8"><a xlink:href="class_c_p_s_1_1_attribute.html" target="_top" xlink:title=" ">
<polygon fill="none" stroke="black" points="426,-278.5 426,-308.5 536,-308.5 536,-278.5 426,-278.5"/>
<text text-anchor="start" x="434" y="-296.5" font-family="Helvetica" font-size="10.00">CPS::Attribute&lt; CPS</text>
<text text-anchor="middle" x="481" y="-285.5" font-family="Helvetica" font-size="10.00">::Complex &gt;</text>
</a>
</g>
</g>
<!-- Node1&#45;&gt;Node8 -->
<g id="edge7" class="edge">
<title>Node1&#45;&gt;Node8</title>
<path fill="none" stroke="orange" stroke-dasharray="5,2" d="M228.49,-243.99C240.33,-248.81 254.12,-253.93 267,-257.5 320.13,-272.22 382.48,-281.9 425.93,-287.48"/>
<polygon fill="orange" stroke="orange" points="229.64,-240.68 219.06,-240.05 226.94,-247.13 229.64,-240.68"/>
<text text-anchor="middle" x="327" y="-283.5" font-family="Helvetica" font-size="10.00"> &lt; CPS::Complex &gt;</text>
</g>
<!-- Node9 -->
<g id="node9" class="node">
<title>Node9</title>
<g id="a_node9"><a xlink:href="class_c_p_s_1_1_attribute.html" target="_top" xlink:title=" ">
<polygon fill="none" stroke="black" points="419,-240 419,-259 543,-259 543,-240 419,-240"/>
<text text-anchor="middle" x="481" y="-247" font-family="Helvetica" font-size="10.00">CPS::Attribute&lt; String &gt;</text>
</a>
</g>
</g>
<!-- Node1&#45;&gt;Node9 -->
<g id="edge8" class="edge">
<title>Node1&#45;&gt;Node9</title>
<path fill="none" stroke="orange" stroke-dasharray="5,2" d="M259.17,-234.62C306.41,-237.8 371.49,-242.19 418.75,-245.37"/>
<polygon fill="orange" stroke="orange" points="259.28,-231.12 249.07,-233.94 258.81,-238.11 259.28,-231.12"/>
<text text-anchor="middle" x="327" y="-245.5" font-family="Helvetica" font-size="10.00"> &lt; String &gt;</text>
</g>
<!-- Node10 -->
<g id="node10" class="node">
<title>Node10</title>
<g id="a_node10"><a xlink:href="class_c_p_s_1_1_attribute.html" target="_top" xlink:title=" ">
<polygon fill="none" stroke="black" points="418.5,-202 418.5,-221 543.5,-221 543.5,-202 418.5,-202"/>
<text text-anchor="middle" x="481" y="-209" font-family="Helvetica" font-size="10.00">CPS::Attribute&lt; Matrix &gt;</text>
</a>
</g>
</g>
<!-- Node1&#45;&gt;Node10 -->
<g id="edge9" class="edge">
<title>Node1&#45;&gt;Node10</title>
<path fill="none" stroke="orange" stroke-dasharray="5,2" d="M259.29,-221.29C261.89,-221 264.47,-220.74 267,-220.5 317.86,-215.75 375.78,-213.51 418.37,-212.45"/>
<polygon fill="orange" stroke="orange" points="258.69,-217.83 249.18,-222.49 259.52,-224.78 258.69,-217.83"/>
<text text-anchor="middle" x="327" y="-223.5" font-family="Helvetica" font-size="10.00"> &lt; Matrix &gt;</text>
</g>
<!-- Node11 -->
<g id="node11" class="node">
<title>Node11</title>
<g id="a_node11"><a xlink:href="class_c_p_s_1_1_attribute.html" target="_top" xlink:title=" ">
<polygon fill="none" stroke="black" points="422,-164 422,-183 540,-183 540,-164 422,-164"/>
<text text-anchor="middle" x="481" y="-171" font-family="Helvetica" font-size="10.00">CPS::Attribute&lt; Bool &gt;</text>
</a>
</g>
</g>
<!-- Node1&#45;&gt;Node11 -->
<g id="edge10" class="edge">
<title>Node1&#45;&gt;Node11</title>
<path fill="none" stroke="orange" stroke-dasharray="5,2" d="M224.32,-216.42C236.9,-210.29 252.38,-203.57 267,-199.5 318.14,-185.25 378.34,-178.8 421.67,-175.89"/>
<polygon fill="orange" stroke="orange" points="222.68,-213.33 215.32,-220.95 225.83,-219.58 222.68,-213.33"/>
<text text-anchor="middle" x="327" y="-202.5" font-family="Helvetica" font-size="10.00"> &lt; Bool &gt;</text>
</g>
<!-- Node12 -->
<g id="node12" class="node">
<title>Node12</title>
<g id="a_node12"><a xlink:href="class_c_p_s_1_1_attribute.html" target="_top" xlink:title=" ">
<polygon fill="none" stroke="black" points="412.5,-126 412.5,-145 549.5,-145 549.5,-126 412.5,-126"/>
<text text-anchor="middle" x="481" y="-133" font-family="Helvetica" font-size="10.00">CPS::Attribute&lt; Complex &gt;</text>
</a>
</g>
</g>
<!-- Node1&#45;&gt;Node12 -->
<g id="edge11" class="edge">
<title>Node1&#45;&gt;Node12</title>
<path fill="none" stroke="orange" stroke-dasharray="5,2" d="M211.23,-212.64C223.76,-197.17 244.03,-175.57 267,-164.5 312.22,-142.7 368.71,-135.8 412.16,-134.17"/>
<polygon fill="orange" stroke="orange" points="208.16,-210.88 204.78,-220.92 213.69,-215.18 208.16,-210.88"/>
<text text-anchor="middle" x="327" y="-167.5" font-family="Helvetica" font-size="10.00"> &lt; Complex &gt;</text>
</g>
<!-- Node13 -->
<g id="node13" class="node">
<title>Node13</title>
<g id="a_node13"><a xlink:href="class_c_p_s_1_1_attribute.html" target="_top" xlink:title=" ">
<polygon fill="none" stroke="black" points="405,-88 405,-107 557,-107 557,-88 405,-88"/>
<text text-anchor="middle" x="481" y="-95" font-family="Helvetica" font-size="10.00">CPS::Attribute&lt; MatrixComp &gt;</text>
</a>
</g>
</g>
<!-- Node1&#45;&gt;Node13 -->
<g id="edge12" class="edge">
<title>Node1&#45;&gt;Node13</title>
<path fill="none" stroke="orange" stroke-dasharray="5,2" d="M204.23,-211.29C213.53,-186.03 233.61,-142.4 267,-121.5 307.69,-96.03 361.46,-90.13 404.79,-90.55"/>
<polygon fill="orange" stroke="orange" points="200.88,-210.28 200.9,-220.88 207.49,-212.58 200.88,-210.28"/>
<text text-anchor="middle" x="327" y="-124.5" font-family="Helvetica" font-size="10.00"> &lt; MatrixComp &gt;</text>
</g>
<!-- Node14 -->
<g id="node14" class="node">
<title>Node14</title>
<g id="a_node14"><a xlink:href="class_c_p_s_1_1_attribute.html" target="_top" xlink:title=" ">
<polygon fill="none" stroke="black" points="422,-50 422,-69 540,-69 540,-50 422,-50"/>
<text text-anchor="middle" x="481" y="-57" font-family="Helvetica" font-size="10.00">CPS::Attribute&lt; Real &gt;</text>
</a>
</g>
</g>
<!-- Node1&#45;&gt;Node14 -->
<g id="edge13" class="edge">
<title>Node1&#45;&gt;Node14</title>
<path fill="none" stroke="orange" stroke-dasharray="5,2" d="M200.44,-210.76C205.77,-176.91 221.84,-108.37 267,-76.5 314.28,-43.13 383.03,-44.12 429.53,-49.98"/>
<polygon fill="orange" stroke="orange" points="196.95,-210.41 199.01,-220.81 203.88,-211.4 196.95,-210.41"/>
<text text-anchor="middle" x="327" y="-79.5" font-family="Helvetica" font-size="10.00"> &lt; Real &gt;</text>
</g>
<!-- Node15 -->
<g id="node15" class="node">
<title>Node15</title>
<g id="a_node15"><a xlink:href="class_c_p_s_1_1_attribute.html" target="_top" xlink:title=" ">
<polygon fill="none" stroke="black" points="426,-0.5 426,-30.5 536,-30.5 536,-0.5 426,-0.5"/>
<text text-anchor="start" x="434" y="-18.5" font-family="Helvetica" font-size="10.00">CPS::Attribute&lt; CPS</text>
<text text-anchor="middle" x="481" y="-7.5" font-family="Helvetica" font-size="10.00">::Real &gt;</text>
</a>
</g>
</g>
<!-- Node1&#45;&gt;Node15 -->
<g id="edge14" class="edge">
<title>Node1&#45;&gt;Node15</title>
<path fill="none" stroke="orange" stroke-dasharray="5,2" d="M198.27,-210.48C200.03,-169.5 210.38,-76.22 267,-32.5 311.78,2.08 378.79,1.49 425.66,-4.63"/>
<polygon fill="orange" stroke="orange" points="194.77,-210.47 197.98,-220.57 201.77,-210.68 194.77,-210.47"/>
<text text-anchor="middle" x="327" y="-35.5" font-family="Helvetica" font-size="10.00"> &lt; CPS::Real &gt;</text>
</g>
<!-- Node2 -->
<g id="node2" class="node">
<title>Node2</title>
<g id="a_node2"><a xlink:href="class_c_p_s_1_1_attribute_base.html" target="_top" xlink:title=" ">
<polygon fill="none" stroke="black" points="2.5,-246 2.5,-265 105.5,-265 105.5,-246 2.5,-246"/>
<text text-anchor="middle" x="54" y="-253" font-family="Helvetica" font-size="10.00">CPS::AttributeBase</text>
</a>
</g>
</g>
<!-- Node2&#45;&gt;Node1 -->
<g id="edge1" class="edge">
<title>Node2&#45;&gt;Node1</title>
<path fill="none" stroke="midnightblue" d="M115.57,-244.76C125.34,-243.03 135.38,-241.25 144.9,-239.56"/>
<polygon fill="midnightblue" stroke="midnightblue" points="114.74,-241.35 105.51,-246.55 115.96,-248.25 114.74,-241.35"/>
</g>
<!-- Node3 -->
<g id="node3" class="node">
<title>Node3</title>
<g id="a_node3"><a xlink:title=" ">
<polygon fill="none" stroke="#bfbfbf" points="0,-186 0,-227 108,-227 108,-186 0,-186"/>
<text text-anchor="start" x="8" y="-215" font-family="Helvetica" font-size="10.00">std::enable_shared</text>
<text text-anchor="start" x="8" y="-204" font-family="Helvetica" font-size="10.00">_from_this&lt; Attribute</text>
<text text-anchor="middle" x="54" y="-193" font-family="Helvetica" font-size="10.00">&lt; T &gt; &gt;</text>
</a>
</g>
</g>
<!-- Node3&#45;&gt;Node1 -->
<g id="edge2" class="edge">
<title>Node3&#45;&gt;Node1</title>
<path fill="none" stroke="midnightblue" d="M118.29,-217.27C127.21,-218.79 136.29,-220.34 144.95,-221.81"/>
<polygon fill="midnightblue" stroke="midnightblue" points="118.75,-213.8 108.31,-215.57 117.58,-220.7 118.75,-213.8"/>
</g>
</g>
</svg>
