<?xml version="1.0" encoding="UTF-8" standalone="no"?>
<!DOCTYPE svg PUBLIC "-//W3C//DTD SVG 1.1//EN"
 "http://www.w3.org/Graphics/SVG/1.1/DTD/svg11.dtd">
<!-- Generated by graphviz version 2.44.0 (0)
 -->
<!-- Title: CPS::SP::Ph1::VoltageSource Pages: 1 -->
<svg width="1715pt" height="544pt"
 viewBox="0.00 0.00 1715.00 544.20" xmlns="http://www.w3.org/2000/svg" xmlns:xlink="http://www.w3.org/1999/xlink">
<g id="graph0" class="graph" transform="scale(1 1) rotate(0) translate(4 540.2)">
<title>CPS::SP::Ph1::VoltageSource</title>
<!-- Node1 -->
<g id="node1" class="node">
<title>Node1</title>
<g id="a_node1"><a xlink:title="Ideal Voltage source model.">
<polygon fill="#bfbfbf" stroke="black" points="1558,-189.7 1558,-208.7 1707,-208.7 1707,-189.7 1558,-189.7"/>
<text text-anchor="middle" x="1632.5" y="-196.7" font-family="Helvetica" font-size="10.00">CPS::SP::Ph1::VoltageSource</text>
</a>
</g>
</g>
<!-- Node2 -->
<g id="node2" class="node">
<title>Node2</title>
<g id="a_node2"><a xlink:href="class_c_p_s_1_1_sim_power_comp.html" target="_top" xlink:title=" ">
<polygon fill="none" stroke="black" points="1380,-206.2 1380,-236.2 1500,-236.2 1500,-206.2 1380,-206.2"/>
<text text-anchor="start" x="1388" y="-224.2" font-family="Helvetica" font-size="10.00">CPS::SimPowerComp&lt;</text>
<text text-anchor="middle" x="1440" y="-213.2" font-family="Helvetica" font-size="10.00"> Complex &gt;</text>
</a>
</g>
</g>
<!-- Node2&#45;&gt;Node1 -->
<g id="edge1" class="edge">
<title>Node2&#45;&gt;Node1</title>
<path fill="none" stroke="midnightblue" d="M1510.24,-213.2C1525.73,-211.41 1542.21,-209.51 1557.86,-207.7"/>
<polygon fill="midnightblue" stroke="midnightblue" points="1509.76,-209.74 1500.23,-214.36 1510.57,-216.69 1509.76,-209.74"/>
</g>
<!-- Node3 -->
<g id="node3" class="node">
<title>Node3</title>
<g id="a_node3"><a xlink:href="class_c_p_s_1_1_topological_power_comp.html" target="_top" xlink:title=" ">
<polygon fill="none" stroke="black" points="877,-205.7 877,-224.7 1023,-224.7 1023,-205.7 877,-205.7"/>
<text text-anchor="middle" x="950" y="-212.7" font-family="Helvetica" font-size="10.00">CPS::TopologicalPowerComp</text>
</a>
</g>
</g>
<!-- Node3&#45;&gt;Node2 -->
<g id="edge2" class="edge">
<title>Node3&#45;&gt;Node2</title>
<path fill="none" stroke="midnightblue" d="M1033.18,-216.21C1131.32,-217.42 1293.06,-219.41 1379.75,-220.47"/>
<polygon fill="midnightblue" stroke="midnightblue" points="1033.05,-212.71 1023.01,-216.09 1032.96,-219.71 1033.05,-212.71"/>
</g>
<!-- Node11 -->
<g id="node11" class="node">
<title>Node11</title>
<g id="a_node11"><a xlink:href="class_c_p_s_1_1_sim_power_comp.html" target="_top" xlink:title="Base class for all components that are transmitting power.">
<polygon fill="none" stroke="black" points="1118,-244.2 1118,-274.2 1238,-274.2 1238,-244.2 1118,-244.2"/>
<text text-anchor="start" x="1126" y="-262.2" font-family="Helvetica" font-size="10.00">CPS::SimPowerComp&lt;</text>
<text text-anchor="middle" x="1178" y="-251.2" font-family="Helvetica" font-size="10.00"> VarType &gt;</text>
</a>
</g>
</g>
<!-- Node3&#45;&gt;Node11 -->
<g id="edge12" class="edge">
<title>Node3&#45;&gt;Node11</title>
<path fill="none" stroke="midnightblue" d="M1010.05,-226.7C1043.19,-233.15 1084.42,-241.18 1117.62,-247.64"/>
<polygon fill="midnightblue" stroke="midnightblue" points="1010.52,-223.22 1000.04,-224.75 1009.19,-230.09 1010.52,-223.22"/>
</g>
<!-- Node4 -->
<g id="node4" class="node">
<title>Node4</title>
<g id="a_node4"><a xlink:href="class_c_p_s_1_1_identified_object.html" target="_top" xlink:title=" ">
<polygon fill="none" stroke="black" points="671,-189.7 671,-208.7 783,-208.7 783,-189.7 671,-189.7"/>
<text text-anchor="middle" x="727" y="-196.7" font-family="Helvetica" font-size="10.00">CPS::IdentifiedObject</text>
</a>
</g>
</g>
<!-- Node4&#45;&gt;Node3 -->
<g id="edge3" class="edge">
<title>Node4&#45;&gt;Node3</title>
<path fill="none" stroke="midnightblue" d="M793.43,-203.94C819.71,-205.84 850.09,-208.04 877,-209.99"/>
<polygon fill="midnightblue" stroke="midnightblue" points="793.42,-200.43 783.2,-203.2 792.92,-207.41 793.42,-200.43"/>
</g>
<!-- Node5 -->
<g id="node5" class="node">
<title>Node5</title>
<g id="a_node5"><a xlink:href="class_c_p_s_1_1_attribute_list.html" target="_top" xlink:title="Base class of objects having attributes to access member variables.">
<polygon fill="none" stroke="black" points="455.5,-135.7 455.5,-154.7 551.5,-154.7 551.5,-135.7 455.5,-135.7"/>
<text text-anchor="middle" x="503.5" y="-142.7" font-family="Helvetica" font-size="10.00">CPS::AttributeList</text>
</a>
</g>
</g>
<!-- Node5&#45;&gt;Node4 -->
<g id="edge4" class="edge">
<title>Node5&#45;&gt;Node4</title>
<path fill="none" stroke="midnightblue" d="M553.44,-157.13C593.6,-166.92 649.73,-180.6 686.93,-189.67"/>
<polygon fill="midnightblue" stroke="midnightblue" points="554.13,-153.7 543.59,-154.73 552.48,-160.5 554.13,-153.7"/>
</g>
<!-- Node14 -->
<g id="node14" class="node">
<title>Node14</title>
<g id="a_node14"><a xlink:href="class_c_p_s_1_1_m_n_a_interface.html" target="_top" xlink:title="Interface to be implemented by all models used by the MNA solver.">
<polygon fill="none" stroke="black" points="675,-131.7 675,-150.7 779,-150.7 779,-131.7 675,-131.7"/>
<text text-anchor="middle" x="727" y="-138.7" font-family="Helvetica" font-size="10.00">CPS::MNAInterface</text>
</a>
</g>
</g>
<!-- Node5&#45;&gt;Node14 -->
<g id="edge18" class="edge">
<title>Node5&#45;&gt;Node14</title>
<path fill="none" stroke="midnightblue" d="M561.82,-144.16C596.82,-143.53 641.18,-142.73 674.97,-142.12"/>
<polygon fill="midnightblue" stroke="midnightblue" points="561.68,-140.67 551.75,-144.35 561.81,-147.67 561.68,-140.67"/>
</g>
<!-- Node6 -->
<g id="node6" class="node">
<title>Node6</title>
<g id="a_node6"><a xlink:href="class_c_p_s_1_1_attribute.html" target="_top" xlink:title=" ">
<polygon fill="none" stroke="black" points="441.5,-180.7 441.5,-199.7 565.5,-199.7 565.5,-180.7 441.5,-180.7"/>
<text text-anchor="middle" x="503.5" y="-187.7" font-family="Helvetica" font-size="10.00">CPS::Attribute&lt; String &gt;</text>
</a>
</g>
</g>
<!-- Node6&#45;&gt;Node4 -->
<g id="edge5" class="edge">
<title>Node6&#45;&gt;Node4</title>
<path fill="none" stroke="#9a32cd" stroke-dasharray="5,2" d="M575.85,-193.1C606.62,-194.35 642.05,-195.79 670.77,-196.96"/>
<polygon fill="#9a32cd" stroke="#9a32cd" points="575.75,-189.59 565.61,-192.68 575.46,-196.59 575.75,-189.59"/>
<text text-anchor="middle" x="621.5" y="-209.2" font-family="Helvetica" font-size="10.00"> mName</text>
<text text-anchor="middle" x="621.5" y="-198.2" font-family="Helvetica" font-size="10.00">mUID</text>
</g>
<!-- Node7 -->
<g id="node7" class="node">
<title>Node7</title>
<g id="a_node7"><a xlink:href="class_c_p_s_1_1_attribute_base.html" target="_top" xlink:title=" ">
<polygon fill="none" stroke="black" points="2.5,-272.7 2.5,-291.7 105.5,-291.7 105.5,-272.7 2.5,-272.7"/>
<text text-anchor="middle" x="54" y="-279.7" font-family="Helvetica" font-size="10.00">CPS::AttributeBase</text>
</a>
</g>
</g>
<!-- Node7&#45;&gt;Node6 -->
<g id="edge6" class="edge">
<title>Node7&#45;&gt;Node6</title>
<path fill="none" stroke="midnightblue" d="M66.17,-263.94C81,-241.67 109.5,-205.13 145,-190.2 252.7,-144.9 395.32,-166.22 463.27,-180.68"/>
<polygon fill="midnightblue" stroke="midnightblue" points="63.13,-262.21 60.67,-272.51 69.02,-265.99 63.13,-262.21"/>
</g>
<!-- Node9 -->
<g id="node9" class="node">
<title>Node9</title>
<g id="a_node9"><a xlink:href="class_c_p_s_1_1_attribute.html" target="_top" xlink:title=" ">
<polygon fill="none" stroke="black" points="162,-297.7 162,-316.7 266,-316.7 266,-297.7 162,-297.7"/>
<text text-anchor="middle" x="214" y="-304.7" font-family="Helvetica" font-size="10.00">CPS::Attribute&lt; T &gt;</text>
</a>
</g>
</g>
<!-- Node7&#45;&gt;Node9 -->
<g id="edge9" class="edge">
<title>Node7&#45;&gt;Node9</title>
<path fill="none" stroke="midnightblue" d="M116.17,-291.88C131.3,-294.27 147.36,-296.81 161.96,-299.12"/>
<polygon fill="midnightblue" stroke="midnightblue" points="116.29,-288.35 105.86,-290.25 115.19,-295.27 116.29,-288.35"/>
</g>
<!-- Node12 -->
<g id="node12" class="node">
<title>Node12</title>
<g id="a_node12"><a xlink:href="class_c_p_s_1_1_attribute.html" target="_top" xlink:title=" ">
<polygon fill="none" stroke="black" points="438,-250.2 438,-280.2 569,-280.2 569,-250.2 438,-250.2"/>
<text text-anchor="start" x="446" y="-268.2" font-family="Helvetica" font-size="10.00">CPS::Attribute&lt; MatrixVar</text>
<text text-anchor="middle" x="503.5" y="-257.2" font-family="Helvetica" font-size="10.00">&lt; VarType &gt; &gt;</text>
</a>
</g>
</g>
<!-- Node7&#45;&gt;Node12 -->
<g id="edge14" class="edge">
<title>Node7&#45;&gt;Node12</title>
<path fill="none" stroke="midnightblue" d="M116.09,-279.88C200.42,-276.68 351.83,-270.92 437.95,-267.65"/>
<polygon fill="midnightblue" stroke="midnightblue" points="115.76,-276.39 105.9,-280.27 116.02,-283.38 115.76,-276.39"/>
</g>
<!-- Node15 -->
<g id="node15" class="node">
<title>Node15</title>
<g id="a_node15"><a xlink:href="class_c_p_s_1_1_attribute.html" target="_top" xlink:title=" ">
<polygon fill="none" stroke="black" points="441,-68.7 441,-87.7 566,-87.7 566,-68.7 441,-68.7"/>
<text text-anchor="middle" x="503.5" y="-75.7" font-family="Helvetica" font-size="10.00">CPS::Attribute&lt; Matrix &gt;</text>
</a>
</g>
</g>
<!-- Node7&#45;&gt;Node15 -->
<g id="edge20" class="edge">
<title>Node7&#45;&gt;Node15</title>
<path fill="none" stroke="midnightblue" d="M55.1,-262.24C56.56,-213.1 67.96,-86.35 145,-32.2 254.56,44.8 430.77,-39.08 485.64,-68.67"/>
<polygon fill="midnightblue" stroke="midnightblue" points="51.59,-262.42 54.91,-272.49 58.59,-262.55 51.59,-262.42"/>
</g>
<!-- Node20 -->
<g id="node20" class="node">
<title>Node20</title>
<g id="a_node20"><a xlink:href="class_c_p_s_1_1_attribute.html" target="_top" xlink:title=" ">
<polygon fill="none" stroke="black" points="444.5,-346.7 444.5,-365.7 562.5,-365.7 562.5,-346.7 444.5,-346.7"/>
<text text-anchor="middle" x="503.5" y="-353.7" font-family="Helvetica" font-size="10.00">CPS::Attribute&lt; Real &gt;</text>
</a>
</g>
</g>
<!-- Node7&#45;&gt;Node20 -->
<g id="edge27" class="edge">
<title>Node7&#45;&gt;Node20</title>
<path fill="none" stroke="midnightblue" d="M80.96,-296.59C124.71,-319.86 216.65,-364.51 301,-378.2 351.89,-386.46 365.85,-384.67 417,-378.2 435.86,-375.81 456.5,-370.58 472.79,-365.81"/>
<polygon fill="midnightblue" stroke="midnightblue" points="82.34,-293.36 71.88,-291.7 79.02,-299.53 82.34,-293.36"/>
</g>
<!-- Node22 -->
<g id="node22" class="node">
<title>Node22</title>
<g id="a_node22"><a xlink:href="class_c_p_s_1_1_attribute.html" target="_top" xlink:title=" ">
<polygon fill="none" stroke="black" points="435,-432.7 435,-451.7 572,-451.7 572,-432.7 435,-432.7"/>
<text text-anchor="middle" x="503.5" y="-439.7" font-family="Helvetica" font-size="10.00">CPS::Attribute&lt; Complex &gt;</text>
</a>
</g>
</g>
<!-- Node7&#45;&gt;Node22 -->
<g id="edge31" class="edge">
<title>Node7&#45;&gt;Node22</title>
<path fill="none" stroke="midnightblue" d="M68.07,-300.28C79.39,-316.36 95.81,-340.73 108,-363.2 127.46,-399.06 110.83,-424.91 145,-447.2 191.27,-477.38 346.03,-463.17 436.05,-451.71"/>
<polygon fill="midnightblue" stroke="midnightblue" points="70.72,-297.97 62.07,-291.85 65.02,-302.03 70.72,-297.97"/>
</g>
<!-- Node8 -->
<g id="node8" class="node">
<title>Node8</title>
<g id="a_node8"><a xlink:title=" ">
<polygon fill="none" stroke="#bfbfbf" points="160,-101.7 160,-142.7 268,-142.7 268,-101.7 160,-101.7"/>
<text text-anchor="start" x="168" y="-130.7" font-family="Helvetica" font-size="10.00">std::enable_shared</text>
<text text-anchor="start" x="168" y="-119.7" font-family="Helvetica" font-size="10.00">_from_this&lt; Attribute</text>
<text text-anchor="middle" x="214" y="-108.7" font-family="Helvetica" font-size="10.00">&lt; String &gt; &gt;</text>
</a>
</g>
</g>
<!-- Node8&#45;&gt;Node6 -->
<g id="edge7" class="edge">
<title>Node8&#45;&gt;Node6</title>
<path fill="none" stroke="midnightblue" d="M278.18,-108.75C320.65,-103.26 376.12,-103.27 417,-129.2 431.77,-138.57 421.99,-152.51 435,-164.2 443.04,-171.42 453.29,-176.72 463.37,-180.58"/>
<polygon fill="midnightblue" stroke="midnightblue" points="277.63,-105.29 268.23,-110.17 278.62,-112.22 277.63,-105.29"/>
</g>
<!-- Node9&#45;&gt;Node6 -->
<g id="edge8" class="edge">
<title>Node9&#45;&gt;Node6</title>
<path fill="none" stroke="orange" stroke-dasharray="5,2" d="M241.35,-292.63C258.16,-283.61 280.56,-272.09 301,-263.2 360.71,-237.23 432.95,-212.65 472.68,-199.7"/>
<polygon fill="orange" stroke="orange" points="239.28,-289.77 232.15,-297.62 242.61,-295.93 239.28,-289.77"/>
<text text-anchor="middle" x="359" y="-266.2" font-family="Helvetica" font-size="10.00"> &lt; String &gt;</text>
</g>
<!-- Node9&#45;&gt;Node12 -->
<g id="edge16" class="edge">
<title>Node9&#45;&gt;Node12</title>
<path fill="none" stroke="orange" stroke-dasharray="5,2" d="M276.22,-298.26C323.73,-291.32 389.42,-281.72 437.79,-274.65"/>
<polygon fill="orange" stroke="orange" points="275.46,-294.83 266.07,-299.74 276.47,-301.76 275.46,-294.83"/>
<text text-anchor="middle" x="359" y="-296.2" font-family="Helvetica" font-size="10.00"> &lt; MatrixVar&lt; VarType &gt; &gt;</text>
</g>
<!-- Node9&#45;&gt;Node15 -->
<g id="edge22" class="edge">
<title>Node9&#45;&gt;Node15</title>
<path fill="none" stroke="orange" stroke-dasharray="5,2" d="M238.89,-291.78C253.29,-281.46 271.09,-266.78 283,-250.2 295.81,-232.37 286.98,-221.1 301,-204.2 350.26,-144.82 435.07,-104.96 477.21,-87.78"/>
<polygon fill="orange" stroke="orange" points="236.69,-289.05 230.45,-297.61 240.66,-294.8 236.69,-289.05"/>
<text text-anchor="middle" x="359" y="-207.2" font-family="Helvetica" font-size="10.00"> &lt; Matrix &gt;</text>
</g>
<!-- Node9&#45;&gt;Node20 -->
<g id="edge29" class="edge">
<title>Node9&#45;&gt;Node20</title>
<path fill="none" stroke="orange" stroke-dasharray="5,2" d="M276.55,-312.95C316.74,-317.23 370.25,-323.95 417,-333.2 435.09,-336.78 455.01,-342.06 471.07,-346.66"/>
<polygon fill="orange" stroke="orange" points="276.67,-309.44 266.37,-311.88 275.95,-316.4 276.67,-309.44"/>
<text text-anchor="middle" x="359" y="-336.2" font-family="Helvetica" font-size="10.00"> &lt; Real &gt;</text>
</g>
<!-- Node9&#45;&gt;Node22 -->
<g id="edge33" class="edge">
<title>Node9&#45;&gt;Node22</title>
<path fill="none" stroke="orange" stroke-dasharray="5,2" d="M244.77,-321.18C303.29,-348.66 431.96,-409.08 482.01,-432.58"/>
<polygon fill="orange" stroke="orange" points="246.22,-317.99 235.68,-316.91 243.24,-324.33 246.22,-317.99"/>
<text text-anchor="middle" x="359" y="-401.2" font-family="Helvetica" font-size="10.00"> &lt; Complex &gt;</text>
</g>
<!-- Node10 -->
<g id="node10" class="node">
<title>Node10</title>
<g id="a_node10"><a xlink:title=" ">
<polygon fill="none" stroke="#bfbfbf" points="0,-372.7 0,-413.7 108,-413.7 108,-372.7 0,-372.7"/>
<text text-anchor="start" x="8" y="-401.7" font-family="Helvetica" font-size="10.00">std::enable_shared</text>
<text text-anchor="start" x="8" y="-390.7" font-family="Helvetica" font-size="10.00">_from_this&lt; Attribute</text>
<text text-anchor="middle" x="54" y="-379.7" font-family="Helvetica" font-size="10.00">&lt; T &gt; &gt;</text>
</a>
</g>
</g>
<!-- Node10&#45;&gt;Node9 -->
<g id="edge10" class="edge">
<title>Node10&#45;&gt;Node9</title>
<path fill="none" stroke="midnightblue" d="M101.89,-367.68C133.34,-350.56 172.95,-329 195.39,-316.79"/>
<polygon fill="midnightblue" stroke="midnightblue" points="99.95,-364.75 92.84,-372.6 103.3,-370.89 99.95,-364.75"/>
</g>
<!-- Node11&#45;&gt;Node2 -->
<g id="edge11" class="edge">
<title>Node11&#45;&gt;Node2</title>
<path fill="none" stroke="orange" stroke-dasharray="5,2" d="M1248.25,-249.08C1289.31,-243.08 1340.8,-235.55 1379.93,-229.83"/>
<polygon fill="orange" stroke="orange" points="1247.71,-245.62 1238.32,-250.53 1248.72,-252.55 1247.71,-245.62"/>
<text text-anchor="middle" x="1298.5" y="-249.2" font-family="Helvetica" font-size="10.00"> &lt; Complex &gt;</text>
</g>
<!-- Node12&#45;&gt;Node11 -->
<g id="edge13" class="edge">
<title>Node12&#45;&gt;Node11</title>
<path fill="none" stroke="#9a32cd" stroke-dasharray="5,2" d="M579.52,-264.53C714.38,-263.33 995.09,-260.82 1117.63,-259.73"/>
<polygon fill="#9a32cd" stroke="#9a32cd" points="579.26,-261.03 569.29,-264.62 579.32,-268.03 579.26,-261.03"/>
<text text-anchor="middle" x="830" y="-276.2" font-family="Helvetica" font-size="10.00"> mIntfCurrent</text>
<text text-anchor="middle" x="830" y="-265.2" font-family="Helvetica" font-size="10.00">mIntfVoltage</text>
</g>
<!-- Node13 -->
<g id="node13" class="node">
<title>Node13</title>
<g id="a_node13"><a xlink:title=" ">
<polygon fill="none" stroke="#bfbfbf" points="145,-199.7 145,-240.7 283,-240.7 283,-199.7 145,-199.7"/>
<text text-anchor="start" x="153" y="-228.7" font-family="Helvetica" font-size="10.00">std::enable_shared</text>
<text text-anchor="start" x="153" y="-217.7" font-family="Helvetica" font-size="10.00">_from_this&lt; Attribute</text>
<text text-anchor="middle" x="214" y="-206.7" font-family="Helvetica" font-size="10.00">&lt; MatrixVar&lt; VarType &gt; &gt; &gt;</text>
</a>
</g>
</g>
<!-- Node13&#45;&gt;Node12 -->
<g id="edge15" class="edge">
<title>Node13&#45;&gt;Node12</title>
<path fill="none" stroke="midnightblue" d="M293.76,-211.49C331.55,-209.51 377.17,-210.36 417,-220.2 440.29,-225.95 464.24,-239.32 480.84,-250"/>
<polygon fill="midnightblue" stroke="midnightblue" points="293.09,-208.03 283.32,-212.12 293.51,-215.02 293.09,-208.03"/>
</g>
<!-- Node14&#45;&gt;Node1 -->
<g id="edge17" class="edge">
<title>Node14&#45;&gt;Node1</title>
<path fill="none" stroke="midnightblue" d="M773.99,-153.14C818.45,-163.62 887.87,-177.2 949,-177.2 949,-177.2 949,-177.2 1441,-177.2 1487.44,-177.2 1539.84,-183.73 1577.91,-189.68"/>
<polygon fill="midnightblue" stroke="midnightblue" points="774.62,-149.69 764.08,-150.75 772.98,-156.49 774.62,-149.69"/>
</g>
<!-- Node15&#45;&gt;Node14 -->
<g id="edge19" class="edge">
<title>Node15&#45;&gt;Node14</title>
<path fill="none" stroke="#9a32cd" stroke-dasharray="5,2" d="M547.89,-90.54C590.24,-102.59 653.77,-120.66 692.41,-131.65"/>
<polygon fill="#9a32cd" stroke="#9a32cd" points="548.72,-87.14 538.14,-87.77 546.8,-93.87 548.72,-87.14"/>
<text text-anchor="middle" x="621.5" y="-122.2" font-family="Helvetica" font-size="10.00"> mRightVector</text>
</g>
<!-- Node16 -->
<g id="node16" class="node">
<title>Node16</title>
<g id="a_node16"><a xlink:title=" ">
<polygon fill="none" stroke="#bfbfbf" points="160,-41.7 160,-82.7 268,-82.7 268,-41.7 160,-41.7"/>
<text text-anchor="start" x="168" y="-70.7" font-family="Helvetica" font-size="10.00">std::enable_shared</text>
<text text-anchor="start" x="168" y="-59.7" font-family="Helvetica" font-size="10.00">_from_this&lt; Attribute</text>
<text text-anchor="middle" x="214" y="-48.7" font-family="Helvetica" font-size="10.00">&lt; Matrix &gt; &gt;</text>
</a>
</g>
</g>
<!-- Node16&#45;&gt;Node15 -->
<g id="edge21" class="edge">
<title>Node16&#45;&gt;Node15</title>
<path fill="none" stroke="midnightblue" d="M278.1,-65.71C326.43,-68.4 392.76,-72.09 440.75,-74.76"/>
<polygon fill="midnightblue" stroke="midnightblue" points="278.25,-62.21 268.07,-65.15 277.86,-69.2 278.25,-62.21"/>
</g>
<!-- Node17 -->
<g id="node17" class="node">
<title>Node17</title>
<g id="a_node17"><a xlink:href="class_c_p_s_1_1_d_a_e_interface.html" target="_top" xlink:title=" ">
<polygon fill="none" stroke="black" points="1388.5,-129.7 1388.5,-148.7 1491.5,-148.7 1491.5,-129.7 1388.5,-129.7"/>
<text text-anchor="middle" x="1440" y="-136.7" font-family="Helvetica" font-size="10.00">CPS::DAEInterface</text>
</a>
</g>
</g>
<!-- Node17&#45;&gt;Node1 -->
<g id="edge23" class="edge">
<title>Node17&#45;&gt;Node1</title>
<path fill="none" stroke="midnightblue" d="M1496,-151.12C1510.42,-154.63 1525.89,-158.74 1540,-163.2 1564.25,-170.87 1591.27,-181.81 1609.62,-189.61"/>
<polygon fill="midnightblue" stroke="midnightblue" points="1496.75,-147.7 1486.21,-148.78 1495.12,-154.51 1496.75,-147.7"/>
</g>
<!-- Node18 -->
<g id="node18" class="node">
<title>Node18</title>
<g id="a_node18"><a xlink:href="class_shared_factory.html" target="_top" xlink:title=" ">
<polygon fill="none" stroke="black" points="1359,-91.7 1359,-110.7 1521,-110.7 1521,-91.7 1359,-91.7"/>
<text text-anchor="middle" x="1440" y="-98.7" font-family="Helvetica" font-size="10.00">SharedFactory&lt; VoltageSource &gt;</text>
</a>
</g>
</g>
<!-- Node18&#45;&gt;Node1 -->
<g id="edge24" class="edge">
<title>Node18&#45;&gt;Node1</title>
<path fill="none" stroke="midnightblue" d="M1503.96,-113.68C1509.82,-115.58 1515.59,-117.74 1521,-120.2 1561.57,-138.66 1602.47,-172.92 1621.09,-189.59"/>
<polygon fill="midnightblue" stroke="midnightblue" points="1504.62,-110.23 1494.04,-110.73 1502.63,-116.94 1504.62,-110.23"/>
</g>
<!-- Node19 -->
<g id="node19" class="node">
<title>Node19</title>
<g id="a_node19"><a xlink:href="class_shared_factory.html" target="_top" xlink:title=" ">
<polygon fill="none" stroke="black" points="1125.5,-91.7 1125.5,-110.7 1230.5,-110.7 1230.5,-91.7 1125.5,-91.7"/>
<text text-anchor="middle" x="1178" y="-98.7" font-family="Helvetica" font-size="10.00">SharedFactory&lt; T &gt;</text>
</a>
</g>
</g>
<!-- Node19&#45;&gt;Node18 -->
<g id="edge25" class="edge">
<title>Node19&#45;&gt;Node18</title>
<path fill="none" stroke="orange" stroke-dasharray="5,2" d="M1240.86,-101.2C1276.23,-101.2 1320.98,-101.2 1359,-101.2"/>
<polygon fill="orange" stroke="orange" points="1240.68,-97.7 1230.68,-101.2 1240.68,-104.7 1240.68,-97.7"/>
<text text-anchor="middle" x="1298.5" y="-104.2" font-family="Helvetica" font-size="10.00"> &lt; VoltageSource &gt;</text>
</g>
<!-- Node20&#45;&gt;Node1 -->
<g id="edge26" class="edge">
<title>Node20&#45;&gt;Node1</title>
<path fill="none" stroke="#9a32cd" stroke-dasharray="5,2" d="M541.7,-343.61C585.32,-329.99 660.05,-310.2 726,-310.2 726,-310.2 726,-310.2 1441,-310.2 1521,-310.2 1597.35,-236.22 1622.68,-209.05"/>
<polygon fill="#9a32cd" stroke="#9a32cd" points="540.56,-340.3 532.09,-346.67 542.68,-346.97 540.56,-340.3"/>
<text text-anchor="middle" x="1070.5" y="-313.2" font-family="Helvetica" font-size="10.00"> mSrcFreq</text>
</g>
<!-- Node21 -->
<g id="node21" class="node">
<title>Node21</title>
<g id="a_node21"><a xlink:title=" ">
<polygon fill="none" stroke="#bfbfbf" points="160,-396.7 160,-437.7 268,-437.7 268,-396.7 160,-396.7"/>
<text text-anchor="start" x="168" y="-425.7" font-family="Helvetica" font-size="10.00">std::enable_shared</text>
<text text-anchor="start" x="168" y="-414.7" font-family="Helvetica" font-size="10.00">_from_this&lt; Attribute</text>
<text text-anchor="middle" x="214" y="-403.7" font-family="Helvetica" font-size="10.00">&lt; Real &gt; &gt;</text>
</a>
</g>
</g>
<!-- Node21&#45;&gt;Node20 -->
<g id="edge28" class="edge">
<title>Node21&#45;&gt;Node20</title>
<path fill="none" stroke="midnightblue" d="M278.67,-419.74C319.07,-419.67 372.01,-416.42 417,-403.2 444.63,-395.08 473.27,-377.02 489.39,-365.8"/>
<polygon fill="midnightblue" stroke="midnightblue" points="278.43,-416.24 268.42,-419.69 278.4,-423.24 278.43,-416.24"/>
</g>
<!-- Node22&#45;&gt;Node1 -->
<g id="edge30" class="edge">
<title>Node22&#45;&gt;Node1</title>
<path fill="none" stroke="#9a32cd" stroke-dasharray="5,2" d="M528.31,-427.38C567.82,-404.26 650.11,-362.2 726,-362.2 726,-362.2 726,-362.2 1441,-362.2 1535.89,-362.2 1607.31,-244 1626.43,-208.91"/>
<polygon fill="#9a32cd" stroke="#9a32cd" points="526.45,-424.42 519.66,-432.55 530.04,-430.43 526.45,-424.42"/>
<text text-anchor="middle" x="1070.5" y="-365.2" font-family="Helvetica" font-size="10.00"> mVoltageRef</text>
</g>
<!-- Node23 -->
<g id="node23" class="node">
<title>Node23</title>
<g id="a_node23"><a xlink:title=" ">
<polygon fill="none" stroke="#bfbfbf" points="160,-494.7 160,-535.7 268,-535.7 268,-494.7 160,-494.7"/>
<text text-anchor="start" x="168" y="-523.7" font-family="Helvetica" font-size="10.00">std::enable_shared</text>
<text text-anchor="start" x="168" y="-512.7" font-family="Helvetica" font-size="10.00">_from_this&lt; Attribute</text>
<text text-anchor="middle" x="214" y="-501.7" font-family="Helvetica" font-size="10.00">&lt; Complex &gt; &gt;</text>
</a>
</g>
</g>
<!-- Node23&#45;&gt;Node22 -->
<g id="edge32" class="edge">
<title>Node23&#45;&gt;Node22</title>
<path fill="none" stroke="midnightblue" d="M278.11,-508.33C318.42,-502.96 371.48,-494.03 417,-480.2 441.09,-472.88 467.35,-460.5 484.33,-451.86"/>
<polygon fill="midnightblue" stroke="midnightblue" points="277.61,-504.87 268.15,-509.63 278.51,-511.81 277.61,-504.87"/>
</g>
</g>
</svg>
