<?xml version="1.0" encoding="UTF-8" standalone="no"?>
<!DOCTYPE svg PUBLIC "-//W3C//DTD SVG 1.1//EN"
 "http://www.w3.org/Graphics/SVG/1.1/DTD/svg11.dtd">
<!-- Generated by graphviz version 12.2.1 (20241206.2353)
 -->
<!-- Title: CPS::SimSignalComp Pages: 1 -->
<!--zoomable 712 -->

<svg id="main" version="1.1" xmlns="http://www.w3.org/2000/svg" xmlns:xlink="http://www.w3.org/1999/xlink" xml:space="preserve" onload="init(evt)">

<style type="text/css"><![CDATA[
.node, .edge {opacity: 0.7;}
.node.selected, .edge.selected {opacity: 1;}
.edge:hover path { stroke: red; }
.edge:hover polygon { stroke: red; fill: red; }
]]></style>

<defs>
  <circle id="rim" cx="0" cy="0" r="7"/>
  <circle id="rim2" cx="0" cy="0" r="3.5"/>
  <g id="zoomPlus">
    <use xlink:href="#rim" fill="#404040"><set attributeName="fill" to="#808080" begin="zoomplus.mouseover" end="zoomplus.mouseout"/></use>
    <path d="M-4,0h8M0,-4v8" fill="none" stroke="white" stroke-width="1.5" pointer-events="none"/>
  </g>
  <g id="zoomMin">
    <use xlink:href="#rim" fill="#404040"><set attributeName="fill" to="#808080" begin="zoomminus.mouseover" end="zoomminus.mouseout"/></use>
    <path d="M-4,0h8" fill="none" stroke="white" stroke-width="1.5" pointer-events="none"/>
  </g>
  <g id="arrowUp" transform="translate(30 24)">
    <use xlink:href="#rim"/>
    <path pointer-events="none" fill="none" stroke="white" stroke-width="1.5" d="M0,-3.0v7 M-2.5,-0.5L0,-3.0L2.5,-0.5"/>
  </g>
  <g id="arrowRight" transform="rotate(90) translate(36 -43)">
    <use xlink:href="#rim"/>
    <path pointer-events="none" fill="none" stroke="white" stroke-width="1.5" d="M0,-3.0v7 M-2.5,-0.5L0,-3.0L2.5,-0.5"/>
  </g>
  <g id="arrowDown" transform="rotate(180) translate(-30 -48)">
    <use xlink:href="#rim"/>
    <path pointer-events="none" fill="none" stroke="white" stroke-width="1.5" d="M0,-3.0v7 M-2.5,-0.5L0,-3.0L2.5,-0.5"/>
  </g>
  <g id="arrowLeft" transform="rotate(270) translate(-36 17)">
    <use xlink:href="#rim"/>
    <path pointer-events="none" fill="none" stroke="white" stroke-width="1.5" d="M0,-3.0v7 M-2.5,-0.5L0,-3.0L2.5,-0.5"/>
  </g>
  <g id="resetDef">
    <use xlink:href="#rim2" fill="#404040"><set attributeName="fill" to="#808080" begin="reset.mouseover" end="reset.mouseout"/></use>
  </g>
</defs>
<script type="application/ecmascript">
var viewWidth = 851;
var viewHeight = 712;
var sectionId = 'dynsection-0';
</script>
<script type="application/ecmascript" xlink:href="svg.min.js"/>
<svg id="graph" class="graph">
<g id="viewport">
<title>CPS::SimSignalComp</title>
<!-- Node1 -->
<g id="Node000001" class="node">
<title>Node1</title>
<g id="a_Node000001"><a xlink:title=" ">
<polygon fill="#999999" stroke="#666666" points="441,-370.38 331.25,-370.38 331.25,-348.12 441,-348.12 441,-370.38"/>
<text text-anchor="middle" x="386.12" y="-356.88" font-family="Helvetica,sans-Serif" font-size="10.00">CPS::SimSignalComp</text>
</a>
</g>
</g>
<!-- Node4 -->
<g id="Node000004" class="node">
<title>Node4</title>
<g id="a_Node000004"><a xlink:href="class_c_p_s_1_1_signal_1_1_decoupling_line.html" target="_top" xlink:title=" ">
<polygon fill="white" stroke="#bfbfbf" points="631,-704.38 486.75,-704.38 486.75,-682.12 631,-682.12 631,-704.38"/>
<text text-anchor="middle" x="558.88" y="-690.88" font-family="Helvetica,sans-Serif" font-size="10.00">CPS::Signal::DecouplingLine</text>
</a>
</g>
</g>
<!-- Node1&#45;&gt;Node4 -->
<g id="edge3_Node000001_Node000004" class="edge">
<title>Node1&#45;&gt;Node4</title>
<g id="a_edge3_Node000001_Node000004"><a xlink:title=" ">
<path fill="none" stroke="#63b8ff" d="M386.44,-382.07C386.03,-439.75 393.33,-592.56 477,-673.25 480.44,-676.56 484.33,-679.35 488.51,-681.7"/>
<polygon fill="#63b8ff" stroke="#63b8ff" points="389.94,-382.26 386.61,-372.2 382.94,-382.13 389.94,-382.26"/>
</a>
</g>
</g>
<!-- Node5 -->
<g id="Node000005" class="node">
<title>Node5</title>
<g id="a_Node000005"><a xlink:href="class_c_p_s_1_1_signal_1_1_decoupling_line_e_m_t.html" target="_top" xlink:title=" ">
<polygon fill="white" stroke="#bfbfbf" points="640.75,-664.38 477,-664.38 477,-642.12 640.75,-642.12 640.75,-664.38"/>
<text text-anchor="middle" x="558.88" y="-650.88" font-family="Helvetica,sans-Serif" font-size="10.00">CPS::Signal::DecouplingLineEMT</text>
</a>
</g>
</g>
<!-- Node1&#45;&gt;Node5 -->
<g id="edge4_Node000001_Node000005" class="edge">
<title>Node1&#45;&gt;Node5</title>
<g id="a_edge4_Node000001_Node000005"><a xlink:title=" ">
<path fill="none" stroke="#63b8ff" d="M387.56,-381.97C389.85,-434.41 403.1,-564.66 477,-633.25 480.6,-636.6 484.68,-639.4 489.03,-641.76"/>
<polygon fill="#63b8ff" stroke="#63b8ff" points="391.07,-382.05 387.24,-372.17 384.07,-382.28 391.07,-382.05"/>
</a>
</g>
</g>
<!-- Node6 -->
<g id="Node000006" class="node">
<title>Node6</title>
<g id="a_Node000006"><a xlink:href="class_c_p_s_1_1_signal_1_1_decoupling_line_e_m_t___ph3.html" target="_top" xlink:title=" ">
<polygon fill="white" stroke="#bfbfbf" points="631,-624.5 486.75,-624.5 486.75,-588 631,-588 631,-624.5"/>
<text text-anchor="start" x="494.75" y="-611" font-family="Helvetica,sans-Serif" font-size="10.00">CPS::Signal::DecouplingLine</text>
<text text-anchor="middle" x="558.88" y="-596.75" font-family="Helvetica,sans-Serif" font-size="10.00">EMT_Ph3</text>
</a>
</g>
</g>
<!-- Node1&#45;&gt;Node6 -->
<g id="edge5_Node000001_Node000006" class="edge">
<title>Node1&#45;&gt;Node6</title>
<g id="a_edge5_Node000001_Node000006"><a xlink:title=" ">
<path fill="none" stroke="#63b8ff" d="M390.08,-381.89C397.03,-426.13 418.49,-524.46 477,-579.25 480.35,-582.39 484.07,-585.16 488.03,-587.61"/>
<polygon fill="#63b8ff" stroke="#63b8ff" points="393.57,-381.59 388.67,-372.2 386.64,-382.6 393.57,-381.59"/>
</a>
</g>
</g>
<!-- Node7 -->
<g id="Node000007" class="node">
<title>Node7</title>
<g id="a_Node000007"><a xlink:href="class_c_p_s_1_1_signal_1_1_exciter_d_c1.html" target="_top" xlink:title=" ">
<polygon fill="white" stroke="#666666" points="620.5,-570.38 497.25,-570.38 497.25,-548.12 620.5,-548.12 620.5,-570.38"/>
<text text-anchor="middle" x="558.88" y="-556.88" font-family="Helvetica,sans-Serif" font-size="10.00">CPS::Signal::ExciterDC1</text>
</a>
</g>
</g>
<!-- Node1&#45;&gt;Node7 -->
<g id="edge6_Node000001_Node000007" class="edge">
<title>Node1&#45;&gt;Node7</title>
<g id="a_edge6_Node000001_Node000007"><a xlink:title=" ">
<path fill="none" stroke="#63b8ff" d="M391.9,-381.81C401.25,-420.22 425.69,-498.17 477,-539.25 482.87,-543.95 489.69,-547.57 496.84,-550.34"/>
<polygon fill="#63b8ff" stroke="#63b8ff" points="395.32,-381.05 389.68,-372.09 388.5,-382.61 395.32,-381.05"/>
</a>
</g>
</g>
<!-- Node8 -->
<g id="Node000008" class="node">
<title>Node8</title>
<g id="a_Node000008"><a xlink:href="class_c_p_s_1_1_signal_1_1_exciter_d_c1_simp.html" target="_top" xlink:title=" ">
<polygon fill="white" stroke="#666666" points="631.75,-530.38 486,-530.38 486,-508.12 631.75,-508.12 631.75,-530.38"/>
<text text-anchor="middle" x="558.88" y="-516.88" font-family="Helvetica,sans-Serif" font-size="10.00">CPS::Signal::ExciterDC1Simp</text>
</a>
</g>
</g>
<!-- Node1&#45;&gt;Node8 -->
<g id="edge7_Node000001_Node000008" class="edge">
<title>Node1&#45;&gt;Node8</title>
<g id="a_edge7_Node000001_Node000008"><a xlink:title=" ">
<path fill="none" stroke="#63b8ff" d="M395.19,-381.4C407.73,-412.63 434.93,-469.14 477,-499.25 481.7,-502.62 486.91,-505.42 492.35,-507.75"/>
<polygon fill="#63b8ff" stroke="#63b8ff" points="398.51,-380.26 391.65,-372.19 391.97,-382.78 398.51,-380.26"/>
</a>
</g>
</g>
<!-- Node9 -->
<g id="Node000009" class="node">
<title>Node9</title>
<g id="a_Node000009"><a xlink:href="class_c_p_s_1_1_signal_1_1_exciter_s_t1_simp.html" target="_top" xlink:title=" ">
<polygon fill="white" stroke="#666666" points="630.25,-490.38 487.5,-490.38 487.5,-468.12 630.25,-468.12 630.25,-490.38"/>
<text text-anchor="middle" x="558.88" y="-476.88" font-family="Helvetica,sans-Serif" font-size="10.00">CPS::Signal::ExciterST1Simp</text>
</a>
</g>
</g>
<!-- Node1&#45;&gt;Node9 -->
<g id="edge8_Node000001_Node000009" class="edge">
<title>Node1&#45;&gt;Node9</title>
<g id="a_edge8_Node000001_Node000009"><a xlink:title=" ">
<path fill="none" stroke="#63b8ff" d="M400.18,-380.04C415.68,-402.96 443.68,-439.25 477,-459.25 482.58,-462.6 488.7,-465.39 494.99,-467.71"/>
<polygon fill="#63b8ff" stroke="#63b8ff" points="403.2,-378.26 394.79,-371.82 397.35,-382.1 403.2,-378.26"/>
</a>
</g>
</g>
<!-- Node10 -->
<g id="Node000010" class="node">
<title>Node10</title>
<g id="a_Node000010"><a xlink:href="class_c_p_s_1_1_signal_1_1_exciter_static.html" target="_top" xlink:title=" ">
<polygon fill="white" stroke="#666666" points="623.12,-450.38 494.62,-450.38 494.62,-428.12 623.12,-428.12 623.12,-450.38"/>
<text text-anchor="middle" x="558.88" y="-436.88" font-family="Helvetica,sans-Serif" font-size="10.00">CPS::Signal::ExciterStatic</text>
</a>
</g>
</g>
<!-- Node1&#45;&gt;Node10 -->
<g id="edge9_Node000001_Node000010" class="edge">
<title>Node1&#45;&gt;Node10</title>
<g id="a_edge9_Node000001_Node000010"><a xlink:title=" ">
<path fill="none" stroke="#63b8ff" d="M409.69,-377.55C427.13,-390.86 452.38,-408.39 477,-419.25 484.41,-422.52 492.45,-425.32 500.49,-427.69"/>
<polygon fill="#63b8ff" stroke="#63b8ff" points="412.09,-374.98 402.05,-371.59 407.78,-380.5 412.09,-374.98"/>
</a>
</g>
</g>
<!-- Node11 -->
<g id="Node000011" class="node">
<title>Node11</title>
<g id="a_Node000011"><a xlink:href="class_c_p_s_1_1_signal_1_1_f_i_r_filter.html" target="_top" xlink:title=" ">
<polygon fill="white" stroke="#bfbfbf" points="614.5,-410.38 503.25,-410.38 503.25,-388.12 614.5,-388.12 614.5,-410.38"/>
<text text-anchor="middle" x="558.88" y="-396.88" font-family="Helvetica,sans-Serif" font-size="10.00">CPS::Signal::FIRFilter</text>
</a>
</g>
</g>
<!-- Node1&#45;&gt;Node11 -->
<g id="edge10_Node000001_Node000011" class="edge">
<title>Node1&#45;&gt;Node11</title>
<g id="a_edge10_Node000001_Node000011"><a xlink:title=" ">
<path fill="none" stroke="#63b8ff" d="M447.63,-373.42C467.5,-378.08 489.34,-383.2 508.3,-387.64"/>
<polygon fill="#63b8ff" stroke="#63b8ff" points="448.52,-370.04 437.99,-371.16 446.92,-376.85 448.52,-370.04"/>
</a>
</g>
</g>
<!-- Node12 -->
<g id="Node000012" class="node">
<title>Node12</title>
<g id="a_Node000012"><a xlink:href="class_c_p_s_1_1_signal_1_1_integrator.html" target="_top" xlink:title=" ">
<polygon fill="white" stroke="#bfbfbf" points="619.38,-370.38 498.38,-370.38 498.38,-348.12 619.38,-348.12 619.38,-370.38"/>
<text text-anchor="middle" x="558.88" y="-356.88" font-family="Helvetica,sans-Serif" font-size="10.00">CPS::Signal::Integrator</text>
</a>
</g>
</g>
<!-- Node1&#45;&gt;Node12 -->
<g id="edge11_Node000001_Node000012" class="edge">
<title>Node1&#45;&gt;Node12</title>
<g id="a_edge11_Node000001_Node000012"><a xlink:title=" ">
<path fill="none" stroke="#63b8ff" d="M452.4,-359.25C467.38,-359.25 483.24,-359.25 497.98,-359.25"/>
<polygon fill="#63b8ff" stroke="#63b8ff" points="452.66,-355.75 442.66,-359.25 452.66,-362.75 452.66,-355.75"/>
</a>
</g>
</g>
<!-- Node13 -->
<g id="Node000013" class="node">
<title>Node13</title>
<g id="a_Node000013"><a xlink:href="class_c_p_s_1_1_signal_1_1_p_l_l.html" target="_top" xlink:title=" ">
<polygon fill="white" stroke="#bfbfbf" points="603.25,-330.38 514.5,-330.38 514.5,-308.12 603.25,-308.12 603.25,-330.38"/>
<text text-anchor="middle" x="558.88" y="-316.88" font-family="Helvetica,sans-Serif" font-size="10.00">CPS::Signal::PLL</text>
</a>
</g>
</g>
<!-- Node1&#45;&gt;Node13 -->
<g id="edge12_Node000001_Node000013" class="edge">
<title>Node1&#45;&gt;Node13</title>
<g id="a_edge12_Node000001_Node000013"><a xlink:title=" ">
<path fill="none" stroke="#63b8ff" d="M447.72,-345.05C469.63,-339.92 493.93,-334.23 514.12,-329.5"/>
<polygon fill="#63b8ff" stroke="#63b8ff" points="446.92,-341.65 437.99,-347.34 448.52,-348.46 446.92,-341.65"/>
</a>
</g>
</g>
<!-- Node14 -->
<g id="Node000014" class="node">
<title>Node14</title>
<g id="a_Node000014"><a xlink:href="class_c_p_s_1_1_signal_1_1_p_s_s1_a.html" target="_top" xlink:title=" ">
<polygon fill="white" stroke="#666666" points="609.62,-290.38 508.12,-290.38 508.12,-268.12 609.62,-268.12 609.62,-290.38"/>
<text text-anchor="middle" x="558.88" y="-276.88" font-family="Helvetica,sans-Serif" font-size="10.00">CPS::Signal::PSS1A</text>
</a>
</g>
</g>
<!-- Node1&#45;&gt;Node14 -->
<g id="edge13_Node000001_Node000014" class="edge">
<title>Node1&#45;&gt;Node14</title>
<g id="a_edge13_Node000001_Node000014"><a xlink:title=" ">
<path fill="none" stroke="#63b8ff" d="M409.69,-340.95C427.13,-327.64 452.38,-310.11 477,-299.25 486.66,-294.99 497.39,-291.53 507.79,-288.76"/>
<polygon fill="#63b8ff" stroke="#63b8ff" points="407.78,-338 402.05,-346.91 412.09,-343.52 407.78,-338"/>
</a>
</g>
</g>
<!-- Node15 -->
<g id="Node000015" class="node">
<title>Node15</title>
<g id="a_Node000015"><a xlink:href="class_c_p_s_1_1_signal_1_1_power_controller_v_s_i.html" target="_top" xlink:title=" ">
<polygon fill="white" stroke="#bfbfbf" points="640.75,-250.38 477,-250.38 477,-228.12 640.75,-228.12 640.75,-250.38"/>
<text text-anchor="middle" x="558.88" y="-236.88" font-family="Helvetica,sans-Serif" font-size="10.00">CPS::Signal::PowerControllerVSI</text>
</a>
</g>
</g>
<!-- Node1&#45;&gt;Node15 -->
<g id="edge14_Node000001_Node000015" class="edge">
<title>Node1&#45;&gt;Node15</title>
<g id="a_edge14_Node000001_Node000015"><a xlink:title=" ">
<path fill="none" stroke="#63b8ff" d="M400.18,-338.46C415.68,-315.54 443.68,-279.25 477,-259.25 482.58,-255.9 488.7,-253.11 494.99,-250.79"/>
<polygon fill="#63b8ff" stroke="#63b8ff" points="397.35,-336.4 394.79,-346.68 403.2,-340.24 397.35,-336.4"/>
</a>
</g>
</g>
<!-- Node16 -->
<g id="Node000016" class="node">
<title>Node16</title>
<g id="a_Node000016"><a xlink:href="class_c_p_s_1_1_signal_1_1_signal_generator.html" target="_top" xlink:title="Model to generate generic signals.">
<polygon fill="white" stroke="#666666" points="632.88,-210.38 484.88,-210.38 484.88,-188.12 632.88,-188.12 632.88,-210.38"/>
<text text-anchor="middle" x="558.88" y="-196.88" font-family="Helvetica,sans-Serif" font-size="10.00">CPS::Signal::SignalGenerator</text>
</a>
</g>
</g>
<!-- Node1&#45;&gt;Node16 -->
<g id="edge15_Node000001_Node000016" class="edge">
<title>Node1&#45;&gt;Node16</title>
<g id="a_edge15_Node000001_Node000016"><a xlink:title=" ">
<path fill="none" stroke="#63b8ff" d="M395.19,-337.1C407.73,-305.87 434.93,-249.36 477,-219.25 481.7,-215.88 486.91,-213.08 492.35,-210.75"/>
<polygon fill="#63b8ff" stroke="#63b8ff" points="391.97,-335.72 391.65,-346.31 398.51,-338.24 391.97,-335.72"/>
</a>
</g>
</g>
<!-- Node21 -->
<g id="Node000021" class="node">
<title>Node21</title>
<g id="a_Node000021"><a xlink:href="class_c_p_s_1_1_signal_1_1_steam_turbine.html" target="_top" xlink:title=" ">
<polygon fill="white" stroke="#666666" points="627.62,-170.38 490.12,-170.38 490.12,-148.12 627.62,-148.12 627.62,-170.38"/>
<text text-anchor="middle" x="558.88" y="-156.88" font-family="Helvetica,sans-Serif" font-size="10.00">CPS::Signal::SteamTurbine</text>
</a>
</g>
</g>
<!-- Node1&#45;&gt;Node21 -->
<g id="edge20_Node000001_Node000021" class="edge">
<title>Node1&#45;&gt;Node21</title>
<g id="a_edge20_Node000001_Node000021"><a xlink:title=" ">
<path fill="none" stroke="#63b8ff" d="M391.9,-336.69C401.25,-298.28 425.69,-220.33 477,-179.25 481.18,-175.91 485.84,-173.11 490.75,-170.77"/>
<polygon fill="#63b8ff" stroke="#63b8ff" points="388.5,-335.89 389.68,-346.41 395.32,-337.45 388.5,-335.89"/>
</a>
</g>
</g>
<!-- Node22 -->
<g id="Node000022" class="node">
<title>Node22</title>
<g id="a_Node000022"><a xlink:href="class_c_p_s_1_1_signal_1_1_steam_turbine_governor.html" target="_top" xlink:title=" ">
<polygon fill="white" stroke="#666666" points="627.62,-130.5 490.12,-130.5 490.12,-94 627.62,-94 627.62,-130.5"/>
<text text-anchor="start" x="498.12" y="-117" font-family="Helvetica,sans-Serif" font-size="10.00">CPS::Signal::SteamTurbine</text>
<text text-anchor="middle" x="558.88" y="-102.75" font-family="Helvetica,sans-Serif" font-size="10.00">Governor</text>
</a>
</g>
</g>
<!-- Node1&#45;&gt;Node22 -->
<g id="edge21_Node000001_Node000022" class="edge">
<title>Node1&#45;&gt;Node22</title>
<g id="a_edge21_Node000001_Node000022"><a xlink:title=" ">
<path fill="none" stroke="#63b8ff" d="M390.08,-336.61C397.03,-292.37 418.49,-194.04 477,-139.25 480.89,-135.61 485.28,-132.46 489.97,-129.73"/>
<polygon fill="#63b8ff" stroke="#63b8ff" points="386.64,-335.9 388.67,-346.3 393.57,-336.91 386.64,-335.9"/>
</a>
</g>
</g>
<!-- Node23 -->
<g id="Node000023" class="node">
<title>Node23</title>
<g id="a_Node000023"><a xlink:href="class_c_p_s_1_1_signal_1_1_turbine_governor.html" target="_top" xlink:title="Turbine governor model to be used with synchronous generator.">
<polygon fill="white" stroke="#666666" points="635.88,-76.38 481.88,-76.38 481.88,-54.12 635.88,-54.12 635.88,-76.38"/>
<text text-anchor="middle" x="558.88" y="-62.88" font-family="Helvetica,sans-Serif" font-size="10.00">CPS::Signal::TurbineGovernor</text>
</a>
</g>
</g>
<!-- Node1&#45;&gt;Node23 -->
<g id="edge22_Node000001_Node000023" class="edge">
<title>Node1&#45;&gt;Node23</title>
<g id="a_edge22_Node000001_Node000023"><a xlink:title=" ">
<path fill="none" stroke="#63b8ff" d="M387.56,-336.53C389.85,-284.09 403.1,-153.84 477,-85.25 480.6,-81.9 484.68,-79.1 489.03,-76.74"/>
<polygon fill="#63b8ff" stroke="#63b8ff" points="384.07,-336.22 387.24,-346.33 391.07,-336.45 384.07,-336.22"/>
</a>
</g>
</g>
<!-- Node24 -->
<g id="Node000024" class="node">
<title>Node24</title>
<g id="a_Node000024"><a xlink:href="class_c_p_s_1_1_signal_1_1_turbine_governor_type1.html" target="_top" xlink:title=" ">
<polygon fill="white" stroke="#666666" points="635.88,-36.5 481.88,-36.5 481.88,0 635.88,0 635.88,-36.5"/>
<text text-anchor="start" x="489.88" y="-23" font-family="Helvetica,sans-Serif" font-size="10.00">CPS::Signal::TurbineGovernor</text>
<text text-anchor="middle" x="558.88" y="-8.75" font-family="Helvetica,sans-Serif" font-size="10.00">Type1</text>
</a>
</g>
</g>
<!-- Node1&#45;&gt;Node24 -->
<g id="edge23_Node000001_Node000024" class="edge">
<title>Node1&#45;&gt;Node24</title>
<g id="a_edge23_Node000001_Node000024"><a xlink:title=" ">
<path fill="none" stroke="#63b8ff" d="M386.84,-336.43C387.38,-279.37 396.79,-129.02 477,-45.25 479.97,-42.15 483.3,-39.4 486.88,-36.98"/>
<polygon fill="#63b8ff" stroke="#63b8ff" points="383.34,-336.2 386.84,-346.2 390.34,-336.2 383.34,-336.2"/>
</a>
</g>
</g>
<!-- Node2 -->
<g id="Node000002" class="node">
<title>Node2</title>
<g id="a_Node000002"><a xlink:href="class_c_p_s_1_1_topological_signal_comp.html" target="_top" xlink:title=" ">
<polygon fill="white" stroke="#666666" points="295.25,-370.38 151,-370.38 151,-348.12 295.25,-348.12 295.25,-370.38"/>
<text text-anchor="middle" x="223.12" y="-356.88" font-family="Helvetica,sans-Serif" font-size="10.00">CPS::TopologicalSignalComp</text>
</a>
</g>
</g>
<!-- Node2&#45;&gt;Node1 -->
<g id="edge1_Node000001_Node000002" class="edge">
<title>Node2&#45;&gt;Node1</title>
<g id="a_edge1_Node000001_Node000002"><a xlink:title=" ">
<path fill="none" stroke="#63b8ff" d="M307.19,-359.25C315.33,-359.25 323.44,-359.25 331.19,-359.25"/>
<polygon fill="#63b8ff" stroke="#63b8ff" points="307.19,-355.75 297.19,-359.25 307.19,-362.75 307.19,-355.75"/>
</a>
</g>
</g>
<!-- Node3 -->
<g id="Node000003" class="node">
<title>Node3</title>
<g id="a_Node000003"><a xlink:href="class_c_p_s_1_1_identified_object.html" target="_top" xlink:title=" ">
<polygon fill="white" stroke="#666666" points="115,-370.38 0,-370.38 0,-348.12 115,-348.12 115,-370.38"/>
<text text-anchor="middle" x="57.5" y="-356.88" font-family="Helvetica,sans-Serif" font-size="10.00">CPS::IdentifiedObject</text>
</a>
</g>
</g>
<!-- Node3&#45;&gt;Node2 -->
<g id="edge2_Node000002_Node000003" class="edge">
<title>Node3&#45;&gt;Node2</title>
<g id="a_edge2_Node000002_Node000003"><a xlink:title=" ">
<path fill="none" stroke="#63b8ff" d="M126.73,-359.25C134.67,-359.25 142.78,-359.25 150.75,-359.25"/>
<polygon fill="#63b8ff" stroke="#63b8ff" points="126.78,-355.75 116.78,-359.25 126.78,-362.75 126.78,-355.75"/>
</a>
</g>
</g>
<!-- Node17 -->
<g id="Node000017" class="node">
<title>Node17</title>
<g id="a_Node000017"><a xlink:href="class_c_p_s_1_1_signal_1_1_cosine_f_m_generator.html" target="_top" xlink:title="Model to generate signals containing a frequency ramp.">
<polygon fill="white" stroke="#666666" points="842.75,-273.38 676.75,-273.38 676.75,-251.12 842.75,-251.12 842.75,-273.38"/>
<text text-anchor="middle" x="759.75" y="-259.88" font-family="Helvetica,sans-Serif" font-size="10.00">CPS::Signal::CosineFMGenerator</text>
</a>
</g>
</g>
<!-- Node16&#45;&gt;Node17 -->
<g id="edge16_Node000016_Node000017" class="edge">
<title>Node16&#45;&gt;Node17</title>
<g id="a_edge16_Node000016_Node000017"><a xlink:title=" ">
<path fill="none" stroke="#63b8ff" d="M627.48,-214.19C632.03,-215.74 636.49,-217.42 640.75,-219.25 658.2,-226.74 659.29,-234.79 676.75,-242.25 684.43,-245.53 692.76,-248.34 701.06,-250.73"/>
<polygon fill="#63b8ff" stroke="#63b8ff" points="628.81,-210.94 618.22,-211.28 626.71,-217.61 628.81,-210.94"/>
</a>
</g>
</g>
<!-- Node18 -->
<g id="Node000018" class="node">
<title>Node18</title>
<g id="a_Node000018"><a xlink:href="class_c_p_s_1_1_signal_1_1_d_c_generator.html" target="_top" xlink:title="Model to generate sinusoidal signals.">
<polygon fill="white" stroke="#666666" points="827,-233.38 692.5,-233.38 692.5,-211.12 827,-211.12 827,-233.38"/>
<text text-anchor="middle" x="759.75" y="-219.88" font-family="Helvetica,sans-Serif" font-size="10.00">CPS::Signal::DCGenerator</text>
</a>
</g>
</g>
<!-- Node16&#45;&gt;Node18 -->
<g id="edge17_Node000016_Node000018" class="edge">
<title>Node16&#45;&gt;Node18</title>
<g id="a_edge17_Node000016_Node000018"><a xlink:title=" ">
<path fill="none" stroke="#63b8ff" d="M644.78,-209.07C660.61,-210.9 676.95,-212.79 692.14,-214.55"/>
<polygon fill="#63b8ff" stroke="#63b8ff" points="645.2,-205.59 634.87,-207.92 644.4,-212.55 645.2,-205.59"/>
</a>
</g>
</g>
<!-- Node19 -->
<g id="Node000019" class="node">
<title>Node19</title>
<g id="a_Node000019"><a xlink:href="class_c_p_s_1_1_signal_1_1_frequency_ramp_generator.html" target="_top" xlink:title="Model to generate signals containing a frequency ramp.">
<polygon fill="white" stroke="#666666" points="833.38,-193.5 686.12,-193.5 686.12,-157 833.38,-157 833.38,-193.5"/>
<text text-anchor="start" x="694.12" y="-180" font-family="Helvetica,sans-Serif" font-size="10.00">CPS::Signal::FrequencyRamp</text>
<text text-anchor="middle" x="759.75" y="-165.75" font-family="Helvetica,sans-Serif" font-size="10.00">Generator</text>
</a>
</g>
</g>
<!-- Node16&#45;&gt;Node19 -->
<g id="edge18_Node000016_Node000019" class="edge">
<title>Node16&#45;&gt;Node19</title>
<g id="a_edge18_Node000016_Node000019"><a xlink:title=" ">
<path fill="none" stroke="#63b8ff" d="M644.75,-189.01C658.45,-187.35 672.52,-185.66 685.89,-184.04"/>
<polygon fill="#63b8ff" stroke="#63b8ff" points="644.37,-185.53 634.87,-190.2 645.21,-192.48 644.37,-185.53"/>
</a>
</g>
</g>
<!-- Node20 -->
<g id="Node000020" class="node">
<title>Node20</title>
<g id="a_Node000020"><a xlink:href="class_c_p_s_1_1_signal_1_1_sine_wave_generator.html" target="_top" xlink:title="Model to generate sinusoidal signals.">
<polygon fill="white" stroke="#666666" points="842.75,-139.38 676.75,-139.38 676.75,-117.12 842.75,-117.12 842.75,-139.38"/>
<text text-anchor="middle" x="759.75" y="-125.88" font-family="Helvetica,sans-Serif" font-size="10.00">CPS::Signal::SineWaveGenerator</text>
</a>
</g>
</g>
<!-- Node16&#45;&gt;Node20 -->
<g id="edge19_Node000016_Node000020" class="edge">
<title>Node16&#45;&gt;Node20</title>
<g id="a_edge19_Node000016_Node000020"><a xlink:title=" ">
<path fill="none" stroke="#63b8ff" d="M630.74,-183.84C634.18,-182.43 637.54,-180.91 640.75,-179.25 659.51,-169.56 657.97,-157.91 676.75,-148.25 683.27,-144.9 690.36,-142.09 697.57,-139.75"/>
<polygon fill="#63b8ff" stroke="#63b8ff" points="629.83,-180.44 621.64,-187.17 632.23,-187.02 629.83,-180.44"/>
</a>
</g>
</g>
</g>
</svg>

<g id="navigator" transform="translate(0 0)" fill="#404254">
  <rect fill="#f2f5e9" fill-opacity="0.5" stroke="#606060" stroke-width=".5" x="0" y="0" width="60" height="60"/>
  <use id="zoomplus" xlink:href="#zoomPlus" x="17" y="9" onmousedown="handleZoom(evt,'in')"/>
  <use id="zoomminus" xlink:href="#zoomMin" x="42" y="9" onmousedown="handleZoom(evt,'out')"/>
  <use id="reset" xlink:href="#resetDef" x="30" y="36" onmousedown="handleReset()"/>
   <use id="arrowup" xlink:href="#arrowUp" x="0" y="0" onmousedown="handlePan(0,-1)"/>
  <use id="arrowright" xlink:href="#arrowRight" x="0" y="0" onmousedown="handlePan(1,0)"/>
  <use id="arrowdown" xlink:href="#arrowDown" x="0" y="0" onmousedown="handlePan(0,1)"/>
  <use id="arrowleft" xlink:href="#arrowLeft" x="0" y="0" onmousedown="handlePan(-1,0)"/>
</g>
<svg viewBox="0 0 15 15" width="100%" height="30px" preserveAspectRatio="xMaxYMin meet">
 <g id="arrow_out" transform="scale(0.3 0.3)">
  <a xlink:href="class_c_p_s_1_1_sim_signal_comp__inherit__graph_org.svg" target="_base">
   <rect id="button" ry="5" rx="5" y="6" x="6" height="38" width="38"
        fill="#f2f5e9" fill-opacity="0.5" stroke="#606060" stroke-width="1.0"/>
   <path id="arrow"
     d="M 11.500037,31.436501 C 11.940474,20.09759 22.043105,11.32322 32.158766,21.979434 L 37.068811,17.246167 C 37.068811,17.246167 37.088388,32 37.088388,32 L 22.160133,31.978069 C 22.160133,31.978069 26.997745,27.140456 26.997745,27.140456 C 18.528582,18.264221 13.291696,25.230495 11.500037,31.436501 z"
     style="fill:#404040;"/>
  </a>
 </g>
</svg>

<style type='text/css'>
<![CDATA[
[data-mouse-over-selected='false'] { opacity: 0.7; }
[data-mouse-over-selected='true']  { opacity: 1.0; }
]]>
</style>
<script type="application/ecmascript"><![CDATA[
document.addEventListener('DOMContentLoaded', (event) => {
  highlightEdges();
  highlightAdjacentNodes();
});
]]></script>
</svg>
