<?xml version="1.0" encoding="UTF-8" standalone="no"?>
<!DOCTYPE svg PUBLIC "-//W3C//DTD SVG 1.1//EN"
 "http://www.w3.org/Graphics/SVG/1.1/DTD/svg11.dtd">
<!-- Generated by graphviz version 2.50.0 (0)
 -->
<!-- Title: CPS::EMT::Ph1::VoltageSource Pages: 1 -->
<svg width="1159pt" height="165pt"
 viewBox="0.00 0.00 1159.00 164.50" xmlns="http://www.w3.org/2000/svg" xmlns:xlink="http://www.w3.org/1999/xlink">
<g id="graph0" class="graph" transform="scale(1 1) rotate(0) translate(4 160.5)">
<title>CPS::EMT::Ph1::VoltageSource</title>
<!-- Node1 -->
<g id="node1" class="node">
<title>Node1</title>
<g id="a_node1"><a xlink:title="Ideal Voltage source model.">
<polygon fill="#bfbfbf" stroke="black" points="995,-34.5 995,-53.5 1151,-53.5 1151,-34.5 995,-34.5"/>
<text text-anchor="middle" x="1073" y="-41.5" font-family="Helvetica,sans-Serif" font-size="10.00">CPS::EMT::Ph1::VoltageSource</text>
</a>
</g>
</g>
<!-- Node2 -->
<g id="node2" class="node">
<title>Node2</title>
<g id="a_node2"><a xlink:href="class_c_p_s_1_1_m_n_a_sim_power_comp.html" target="_top" xlink:title=" ">
<polygon fill="none" stroke="black" points="806,-59 806,-89 943,-89 943,-59 806,-59"/>
<text text-anchor="start" x="814" y="-77" font-family="Helvetica,sans-Serif" font-size="10.00">CPS::MNASimPowerComp</text>
<text text-anchor="middle" x="874.5" y="-66" font-family="Helvetica,sans-Serif" font-size="10.00">&lt; Real &gt;</text>
</a>
</g>
</g>
<!-- Node2&#45;&gt;Node1 -->
<g id="edge1" class="edge">
<title>Node2&#45;&gt;Node1</title>
<path fill="none" stroke="midnightblue" d="M953.1,-62.15C971.83,-59.29 991.6,-56.27 1009.54,-53.54"/>
<polygon fill="midnightblue" stroke="midnightblue" points="952.48,-58.71 943.12,-63.68 953.54,-65.63 952.48,-58.71"/>
</g>
<!-- Node3 -->
<g id="node3" class="node">
<title>Node3</title>
<g id="a_node3"><a xlink:href="class_c_p_s_1_1_sim_power_comp.html" target="_top" xlink:title=" ">
<polygon fill="none" stroke="black" points="541,-126 541,-156 660,-156 660,-126 541,-126"/>
<text text-anchor="start" x="549" y="-144" font-family="Helvetica,sans-Serif" font-size="10.00">CPS::SimPowerComp&lt;</text>
<text text-anchor="middle" x="600.5" y="-133" font-family="Helvetica,sans-Serif" font-size="10.00"> Real &gt;</text>
</a>
</g>
</g>
<!-- Node3&#45;&gt;Node2 -->
<g id="edge2" class="edge">
<title>Node3&#45;&gt;Node2</title>
<path fill="none" stroke="midnightblue" d="M670.31,-125.5C701.69,-118.29 739.28,-109.46 773,-101 787.9,-97.26 803.98,-93.03 818.82,-89.05"/>
<polygon fill="midnightblue" stroke="midnightblue" points="669.32,-122.14 660.35,-127.78 670.88,-128.96 669.32,-122.14"/>
</g>
<!-- Node4 -->
<g id="node4" class="node">
<title>Node4</title>
<g id="a_node4"><a xlink:href="class_c_p_s_1_1_topological_power_comp.html" target="_top" xlink:title=" ">
<polygon fill="none" stroke="black" points="153,-125.5 153,-144.5 301,-144.5 301,-125.5 153,-125.5"/>
<text text-anchor="middle" x="227" y="-132.5" font-family="Helvetica,sans-Serif" font-size="10.00">CPS::TopologicalPowerComp</text>
</a>
</g>
</g>
<!-- Node4&#45;&gt;Node3 -->
<g id="edge3" class="edge">
<title>Node4&#45;&gt;Node3</title>
<path fill="none" stroke="midnightblue" d="M311.22,-139.07C368.27,-141.43 445.71,-143.8 514,-143 522.61,-142.9 531.71,-142.74 540.63,-142.56"/>
<polygon fill="midnightblue" stroke="midnightblue" points="311.3,-135.57 301.17,-138.64 311.01,-142.56 311.3,-135.57"/>
</g>
<!-- Node6 -->
<g id="node6" class="node">
<title>Node6</title>
<g id="a_node6"><a xlink:href="class_c_p_s_1_1_sim_power_comp.html" target="_top" xlink:title="Base class for all components that are transmitting power.">
<polygon fill="none" stroke="black" points="338,-98 338,-128 457,-128 457,-98 338,-98"/>
<text text-anchor="start" x="346" y="-116" font-family="Helvetica,sans-Serif" font-size="10.00">CPS::SimPowerComp&lt;</text>
<text text-anchor="middle" x="397.5" y="-105" font-family="Helvetica,sans-Serif" font-size="10.00"> VarType &gt;</text>
</a>
</g>
</g>
<!-- Node4&#45;&gt;Node6 -->
<g id="edge6" class="edge">
<title>Node4&#45;&gt;Node6</title>
<path fill="none" stroke="midnightblue" d="M311.12,-124.15C320.18,-122.97 329.25,-121.78 337.92,-120.65"/>
<polygon fill="midnightblue" stroke="midnightblue" points="310.39,-120.71 300.93,-125.48 311.3,-127.65 310.39,-120.71"/>
</g>
<!-- Node5 -->
<g id="node5" class="node">
<title>Node5</title>
<g id="a_node5"><a xlink:href="class_c_p_s_1_1_identified_object.html" target="_top" xlink:title=" ">
<polygon fill="none" stroke="black" points="0,-125.5 0,-144.5 116,-144.5 116,-125.5 0,-125.5"/>
<text text-anchor="middle" x="58" y="-132.5" font-family="Helvetica,sans-Serif" font-size="10.00">CPS::IdentifiedObject</text>
</a>
</g>
</g>
<!-- Node5&#45;&gt;Node4 -->
<g id="edge4" class="edge">
<title>Node5&#45;&gt;Node4</title>
<path fill="none" stroke="midnightblue" d="M126.13,-135C134.88,-135 143.88,-135 152.72,-135"/>
<polygon fill="midnightblue" stroke="midnightblue" points="126,-131.5 116,-135 126,-138.5 126,-131.5"/>
</g>
<!-- Node6&#45;&gt;Node3 -->
<g id="edge5" class="edge">
<title>Node6&#45;&gt;Node3</title>
<path fill="none" stroke="orange" stroke-dasharray="5,2" d="M467.24,-122.58C491.15,-125.91 517.73,-129.61 540.75,-132.82"/>
<polygon fill="orange" stroke="orange" points="467.57,-119.09 457.18,-121.17 466.6,-126.02 467.57,-119.09"/>
<text text-anchor="middle" x="494.5" y="-131" font-family="Helvetica,sans-Serif" font-size="10.00"> &lt; Real &gt;</text>
</g>
<!-- Node8 -->
<g id="node8" class="node">
<title>Node8</title>
<g id="a_node8"><a xlink:href="class_c_p_s_1_1_m_n_a_sim_power_comp.html" target="_top" xlink:title="Base class for all MNA components that are transmitting power.">
<polygon fill="none" stroke="black" points="532,-77 532,-107 669,-107 669,-77 532,-77"/>
<text text-anchor="start" x="540" y="-95" font-family="Helvetica,sans-Serif" font-size="10.00">CPS::MNASimPowerComp</text>
<text text-anchor="middle" x="600.5" y="-84" font-family="Helvetica,sans-Serif" font-size="10.00">&lt; VarType &gt;</text>
</a>
</g>
</g>
<!-- Node6&#45;&gt;Node8 -->
<g id="edge9" class="edge">
<title>Node6&#45;&gt;Node8</title>
<path fill="none" stroke="midnightblue" d="M467.25,-105.82C488.15,-103.63 511.08,-101.24 531.9,-99.06"/>
<polygon fill="midnightblue" stroke="midnightblue" points="466.76,-102.35 457.18,-106.87 467.49,-109.31 466.76,-102.35"/>
</g>
<!-- Node7 -->
<g id="node7" class="node">
<title>Node7</title>
<g id="a_node7"><a xlink:href="class_c_p_s_1_1_m_n_a_interface.html" target="_top" xlink:title="Interface to be implemented by all models used by the MNA solver.">
<polygon fill="none" stroke="black" points="344,-49.5 344,-68.5 451,-68.5 451,-49.5 344,-49.5"/>
<text text-anchor="middle" x="397.5" y="-56.5" font-family="Helvetica,sans-Serif" font-size="10.00">CPS::MNAInterface</text>
</a>
</g>
</g>
<!-- Node7&#45;&gt;Node2 -->
<g id="edge7" class="edge">
<title>Node7&#45;&gt;Node2</title>
<path fill="none" stroke="midnightblue" d="M461.37,-60.78C516.2,-62.35 597.86,-64.73 669,-67 714.63,-68.46 765.97,-70.21 805.8,-71.6"/>
<polygon fill="midnightblue" stroke="midnightblue" points="461.21,-57.27 451.12,-60.48 461.01,-64.27 461.21,-57.27"/>
</g>
<!-- Node7&#45;&gt;Node8 -->
<g id="edge10" class="edge">
<title>Node7&#45;&gt;Node8</title>
<path fill="none" stroke="midnightblue" d="M461.12,-69.28C483.53,-72.96 508.89,-77.12 531.72,-80.87"/>
<polygon fill="midnightblue" stroke="midnightblue" points="461.48,-65.79 451.05,-67.63 460.35,-72.7 461.48,-65.79"/>
</g>
<!-- Node8&#45;&gt;Node2 -->
<g id="edge8" class="edge">
<title>Node8&#45;&gt;Node2</title>
<path fill="none" stroke="orange" stroke-dasharray="5,2" d="M679.31,-86.85C719.24,-84.21 767.41,-81.02 805.79,-78.48"/>
<polygon fill="orange" stroke="orange" points="678.83,-83.37 669.09,-87.53 679.29,-90.36 678.83,-83.37"/>
<text text-anchor="middle" x="730" y="-89" font-family="Helvetica,sans-Serif" font-size="10.00"> &lt; Real &gt;</text>
</g>
<!-- Node9 -->
<g id="node9" class="node">
<title>Node9</title>
<g id="a_node9"><a xlink:href="class_shared_factory.html" target="_top" xlink:title=" ">
<polygon fill="none" stroke="black" points="791,-13.5 791,-32.5 958,-32.5 958,-13.5 791,-13.5"/>
<text text-anchor="middle" x="874.5" y="-20.5" font-family="Helvetica,sans-Serif" font-size="10.00">SharedFactory&lt; VoltageSource &gt;</text>
</a>
</g>
</g>
<!-- Node9&#45;&gt;Node1 -->
<g id="edge11" class="edge">
<title>Node9&#45;&gt;Node1</title>
<path fill="none" stroke="midnightblue" d="M968.3,-32.92C977.23,-33.87 986.22,-34.83 994.97,-35.77"/>
<polygon fill="midnightblue" stroke="midnightblue" points="968.58,-29.43 958.26,-31.85 967.84,-36.39 968.58,-29.43"/>
</g>
<!-- Node10 -->
<g id="node10" class="node">
<title>Node10</title>
<g id="a_node10"><a xlink:href="class_shared_factory.html" target="_top" xlink:title=" ">
<polygon fill="none" stroke="black" points="548,-0.5 548,-19.5 653,-19.5 653,-0.5 548,-0.5"/>
<text text-anchor="middle" x="600.5" y="-7.5" font-family="Helvetica,sans-Serif" font-size="10.00">SharedFactory&lt; T &gt;</text>
</a>
</g>
</g>
<!-- Node10&#45;&gt;Node9 -->
<g id="edge12" class="edge">
<title>Node10&#45;&gt;Node9</title>
<path fill="none" stroke="orange" stroke-dasharray="5,2" d="M663.63,-12.97C701.35,-14.77 749.94,-17.09 790.87,-19.05"/>
<polygon fill="orange" stroke="orange" points="663.46,-9.46 653.3,-12.48 663.12,-16.45 663.46,-9.46"/>
<text text-anchor="middle" x="730" y="-22" font-family="Helvetica,sans-Serif" font-size="10.00"> &lt; VoltageSource &gt;</text>
</g>
</g>
</svg>
