<?xml version="1.0" encoding="UTF-8" standalone="no"?>
<!DOCTYPE svg PUBLIC "-//W3C//DTD SVG 1.1//EN"
 "http://www.w3.org/Graphics/SVG/1.1/DTD/svg11.dtd">
<!-- Generated by graphviz version 12.2.1 (20241206.2353)
 -->
<!-- Title: DPsim::PFSolverPowerPolar Pages: 1 -->
<svg width="154pt" height="219pt"
 viewBox="0.00 0.00 153.75 219.25" xmlns="http://www.w3.org/2000/svg" xmlns:xlink="http://www.w3.org/1999/xlink">
<g id="graph0" class="graph" transform="scale(1 1) rotate(0) translate(4 215.25)">
<title>DPsim::PFSolverPowerPolar</title>
<!-- Node1 -->
<g id="Node000001" class="node">
<title>Node1</title>
<g id="a_Node000001"><a xlink:title="Powerflow solver class considering power mismatch and voltages in polar coordinates.">
<polygon fill="#999999" stroke="#666666" points="145.75,-94.75 0,-94.75 0,-72.5 145.75,-72.5 145.75,-94.75"/>
<text text-anchor="middle" x="72.88" y="-81.25" font-family="Helvetica,sans-Serif" font-size="10.00">DPsim::PFSolverPowerPolar</text>
</a>
</g>
</g>
<!-- Node4 -->
<g id="Node000004" class="node">
<title>Node4</title>
<g id="a_Node000004"><a xlink:href="class_d_psim_1_1_p_f_solver_power_polar_sparse.html" target="_top" xlink:title=" ">
<polygon fill="white" stroke="#666666" points="145.75,-36.5 0,-36.5 0,0 145.75,0 145.75,-36.5"/>
<text text-anchor="start" x="8" y="-23" font-family="Helvetica,sans-Serif" font-size="10.00">DPsim::PFSolverPowerPolar</text>
<text text-anchor="middle" x="72.88" y="-8.75" font-family="Helvetica,sans-Serif" font-size="10.00">Sparse</text>
</a>
</g>
</g>
<!-- Node1&#45;&gt;Node4 -->
<g id="edge3_Node000001_Node000004" class="edge">
<title>Node1&#45;&gt;Node4</title>
<g id="a_edge3_Node000001_Node000004"><a xlink:title=" ">
<path fill="none" stroke="#63b8ff" d="M72.88,-60.92C72.88,-53.1 72.88,-44.36 72.88,-36.92"/>
<polygon fill="#63b8ff" stroke="#63b8ff" points="69.38,-60.65 72.88,-70.65 76.38,-60.65 69.38,-60.65"/>
</a>
</g>
</g>
<!-- Node2 -->
<g id="Node000002" class="node">
<title>Node2</title>
<g id="a_Node000002"><a xlink:href="class_d_psim_1_1_p_f_solver.html" target="_top" xlink:title="Solver class using the nonlinear powerflow (PF) formulation.">
<polygon fill="white" stroke="#666666" points="118.75,-153 27,-153 27,-130.75 118.75,-130.75 118.75,-153"/>
<text text-anchor="middle" x="72.88" y="-139.5" font-family="Helvetica,sans-Serif" font-size="10.00">DPsim::PFSolver</text>
</a>
</g>
</g>
<!-- Node2&#45;&gt;Node1 -->
<g id="edge1_Node000001_Node000002" class="edge">
<title>Node2&#45;&gt;Node1</title>
<g id="a_edge1_Node000001_Node000002"><a xlink:title=" ">
<path fill="none" stroke="#63b8ff" d="M72.88,-118.85C72.88,-110.7 72.88,-101.83 72.88,-95.16"/>
<polygon fill="#63b8ff" stroke="#63b8ff" points="69.38,-118.78 72.88,-128.78 76.38,-118.78 69.38,-118.78"/>
</a>
</g>
</g>
<!-- Node3 -->
<g id="Node000003" class="node">
<title>Node3</title>
<g id="a_Node000003"><a xlink:href="class_d_psim_1_1_solver.html" target="_top" xlink:title="Base class for more specific solvers such as MNA, ODE or IDA.">
<polygon fill="white" stroke="#666666" points="113.12,-211.25 32.62,-211.25 32.62,-189 113.12,-189 113.12,-211.25"/>
<text text-anchor="middle" x="72.88" y="-197.75" font-family="Helvetica,sans-Serif" font-size="10.00">DPsim::Solver</text>
</a>
</g>
</g>
<!-- Node3&#45;&gt;Node2 -->
<g id="edge2_Node000002_Node000003" class="edge">
<title>Node3&#45;&gt;Node2</title>
<g id="a_edge2_Node000002_Node000003"><a xlink:title=" ">
<path fill="none" stroke="#63b8ff" d="M72.88,-177.1C72.88,-168.95 72.88,-160.08 72.88,-153.41"/>
<polygon fill="#63b8ff" stroke="#63b8ff" points="69.38,-177.03 72.88,-187.03 76.38,-177.03 69.38,-177.03"/>
</a>
</g>
</g>
</g>
</svg>
