<?xml version="1.0" encoding="UTF-8" standalone="no"?>
<!DOCTYPE svg PUBLIC "-//W3C//DTD SVG 1.1//EN"
 "http://www.w3.org/Graphics/SVG/1.1/DTD/svg11.dtd">
<!-- Generated by graphviz version 2.42.4 (0)
 -->
<!-- Title: CPS::SP::Ph1::SynchronGenerator Pages: 1 -->
<!--zoomable 391 -->
<svg id="main" version="1.1" xmlns="http://www.w3.org/2000/svg" xmlns:xlink="http://www.w3.org/1999/xlink" xml:space="preserve" onload="init(evt)">
<style type="text/css"><![CDATA[
.edge:hover path { stroke: red; }
.edge:hover polygon { stroke: red; fill: red; }
]]></style>
<script type="text/javascript"><![CDATA[
var edges = document.getElementsByTagName('g');
if (edges && edges.length) {
  for (var i=0;i<edges.length;i++) {
    if (edges[i].id.substr(0,4)=='edge') {
      edges[i].setAttribute('class','edge');
    }
  }
}
]]></script>
        <defs>
                <circle id="rim" cx="0" cy="0" r="7"/>
                <circle id="rim2" cx="0" cy="0" r="3.5"/>
                <g id="zoomPlus">
                        <use xlink:href="#rim" fill="#404040">
                                <set attributeName="fill" to="#808080" begin="zoomplus.mouseover" end="zoomplus.mouseout"/>
                        </use>
                        <path d="M-4,0h8M0,-4v8" fill="none" stroke="white" stroke-width="1.5" pointer-events="none"/>
                </g>
                <g id="zoomMin">
                        <use xlink:href="#rim" fill="#404040">
                                <set attributeName="fill" to="#808080" begin="zoomminus.mouseover" end="zoomminus.mouseout"/>
                        </use>
                        <path d="M-4,0h8" fill="none" stroke="white" stroke-width="1.5" pointer-events="none"/>
                </g>
                <g id="dirArrow">
                        <path fill="none" stroke="white" stroke-width="1.5" d="M0,-3.0v7 M-2.5,-0.5L0,-3.0L2.5,-0.5"/>
                </g>
               <g id="resetDef">
                       <use xlink:href="#rim2" fill="#404040">
                               <set attributeName="fill" to="#808080" begin="reset.mouseover" end="reset.mouseout"/>
                       </use>
               </g>
        </defs>

<script type="text/javascript">
var viewWidth = 1846;
var viewHeight = 391;
var sectionId = 'dynsection-1';
</script>
<script xlink:href="svgpan.js"/>
<svg id="graph" class="graph">
<g id="viewport">
<title>CPS::SP::Ph1::SynchronGenerator</title>
<!-- Node1 -->
<g id="node1" class="node">
<title>Node1</title>
<g id="a_node1"><a xlink:title=" ">
<polygon fill="#bfbfbf" stroke="black" points="1661,-85.31 1661,-104.31 1838,-104.31 1838,-85.31 1661,-85.31"/>
<text text-anchor="middle" x="1749.5" y="-92.31" font-family="Helvetica,sans-Serif" font-size="10.00">CPS::SP::Ph1::SynchronGenerator</text>
</a>
</g>
</g>
<!-- Node2 -->
<g id="node2" class="node">
<title>Node2</title>
<g id="a_node2"><a xlink:href="class_c_p_s_1_1_sim_power_comp.html" target="_top" xlink:title=" ">
<polygon fill="none" stroke="black" points="1488,-79.81 1488,-109.81 1615,-109.81 1615,-79.81 1488,-79.81"/>
<text text-anchor="start" x="1496" y="-97.81" font-family="Helvetica,sans-Serif" font-size="10.00">CPS::SimPowerComp&lt;</text>
<text text-anchor="middle" x="1551.5" y="-86.81" font-family="Helvetica,sans-Serif" font-size="10.00"> Complex &gt;</text>
</a>
</g>
</g>
<!-- Node2&#45;&gt;Node1 -->
<g id="edge1" class="edge">
<title>Node2&#45;&gt;Node1</title>
<path fill="none" stroke="midnightblue" d="M1625.12,-94.81C1636.75,-94.81 1648.89,-94.81 1660.82,-94.81"/>
<polygon fill="midnightblue" stroke="midnightblue" points="1625.05,-91.31 1615.05,-94.81 1625.05,-98.31 1625.05,-91.31"/>
</g>
<!-- Node3 -->
<g id="node3" class="node">
<title>Node3</title>
<g id="a_node3"><a xlink:href="class_c_p_s_1_1_topological_power_comp.html" target="_top" xlink:title=" ">
<polygon fill="none" stroke="black" points="802,-2.31 802,-21.31 957,-21.31 957,-2.31 802,-2.31"/>
<text text-anchor="middle" x="879.5" y="-9.31" font-family="Helvetica,sans-Serif" font-size="10.00">CPS::TopologicalPowerComp</text>
</a>
</g>
</g>
<!-- Node3&#45;&gt;Node2 -->
<g id="edge2" class="edge">
<title>Node3&#45;&gt;Node2</title>
<path fill="none" stroke="midnightblue" d="M967.52,-4.48C1065.72,1.61 1229.68,5.2 1367,-23.81 1411.09,-33.13 1419.52,-44.22 1461,-61.81 1469.06,-65.23 1470.86,-66.59 1479,-69.81 1487.56,-73.2 1496.78,-76.61 1505.67,-79.77"/>
<polygon fill="midnightblue" stroke="midnightblue" points="967.1,-1 957.34,-5.14 967.54,-7.99 967.1,-1"/>
</g>
<!-- Node19 -->
<g id="node19" class="node">
<title>Node19</title>
<g id="a_node19"><a xlink:href="class_c_p_s_1_1_sim_power_comp.html" target="_top" xlink:title="Base class for all components that are transmitting power.">
<polygon fill="none" stroke="black" points="1219.5,-33.81 1219.5,-63.81 1346.5,-63.81 1346.5,-33.81 1219.5,-33.81"/>
<text text-anchor="start" x="1227.5" y="-51.81" font-family="Helvetica,sans-Serif" font-size="10.00">CPS::SimPowerComp&lt;</text>
<text text-anchor="middle" x="1283" y="-40.81" font-family="Helvetica,sans-Serif" font-size="10.00"> VarType &gt;</text>
</a>
</g>
</g>
<!-- Node3&#45;&gt;Node19 -->
<g id="edge26" class="edge">
<title>Node3&#45;&gt;Node19</title>
<path fill="none" stroke="midnightblue" d="M967.47,-19.83C1043.42,-26.83 1151.82,-36.82 1219.48,-43.05"/>
<polygon fill="midnightblue" stroke="midnightblue" points="967.72,-16.34 957.44,-18.9 967.07,-23.31 967.72,-16.34"/>
</g>
<!-- Node4 -->
<g id="node4" class="node">
<title>Node4</title>
<g id="a_node4"><a xlink:href="class_c_p_s_1_1_identified_object.html" target="_top" xlink:title=" ">
<polygon fill="none" stroke="black" points="138,-38.31 138,-57.31 257,-57.31 257,-38.31 138,-38.31"/>
<text text-anchor="middle" x="197.5" y="-45.31" font-family="Helvetica,sans-Serif" font-size="10.00">CPS::IdentifiedObject</text>
</a>
</g>
</g>
<!-- Node4&#45;&gt;Node3 -->
<g id="edge3" class="edge">
<title>Node4&#45;&gt;Node3</title>
<path fill="none" stroke="midnightblue" d="M267.46,-42.62C317.1,-38.99 385.65,-34.21 446,-30.81 570.57,-23.8 715.44,-17.89 801.91,-14.61"/>
<polygon fill="midnightblue" stroke="midnightblue" points="267.2,-39.13 257.48,-43.35 267.71,-46.11 267.2,-39.13"/>
</g>
<!-- Node7 -->
<g id="node7" class="node">
<title>Node7</title>
<g id="a_node7"><a xlink:href="class_c_p_s_1_1_topological_node.html" target="_top" xlink:title=" ">
<polygon fill="none" stroke="black" points="464,-166.31 464,-185.31 586,-185.31 586,-166.31 464,-166.31"/>
<text text-anchor="middle" x="525" y="-173.31" font-family="Helvetica,sans-Serif" font-size="10.00">CPS::TopologicalNode</text>
</a>
</g>
</g>
<!-- Node4&#45;&gt;Node7 -->
<g id="edge7" class="edge">
<title>Node4&#45;&gt;Node7</title>
<path fill="none" stroke="midnightblue" d="M220.01,-63.25C234.81,-73.14 255.27,-85.47 275,-92.81 339.79,-116.93 363.08,-97.07 428,-120.81 459.57,-132.36 492.84,-153.82 510.73,-166.25"/>
<polygon fill="midnightblue" stroke="midnightblue" points="221.82,-60.24 211.59,-57.47 217.86,-66.01 221.82,-60.24"/>
</g>
<!-- Node15 -->
<g id="node15" class="node">
<title>Node15</title>
<g id="a_node15"><a xlink:href="class_c_p_s_1_1_topological_terminal.html" target="_top" xlink:title=" ">
<polygon fill="none" stroke="black" points="456,-40.31 456,-59.31 594,-59.31 594,-40.31 456,-40.31"/>
<text text-anchor="middle" x="525" y="-47.31" font-family="Helvetica,sans-Serif" font-size="10.00">CPS::TopologicalTerminal</text>
</a>
</g>
</g>
<!-- Node4&#45;&gt;Node15 -->
<g id="edge18" class="edge">
<title>Node4&#45;&gt;Node15</title>
<path fill="none" stroke="midnightblue" d="M267.16,-48.24C322.66,-48.58 400.38,-49.05 455.76,-49.39"/>
<polygon fill="midnightblue" stroke="midnightblue" points="267.09,-44.74 257.07,-48.17 267.05,-51.73 267.09,-44.74"/>
</g>
<!-- Node5 -->
<g id="node5" class="node">
<title>Node5</title>
<g id="a_node5"><a xlink:href="class_c_p_s_1_1_attribute_list.html" target="_top" xlink:title="Base class of objects having attributes to access member variables.">
<polygon fill="none" stroke="black" points="0,-38.31 0,-57.31 101,-57.31 101,-38.31 0,-38.31"/>
<text text-anchor="middle" x="50.5" y="-45.31" font-family="Helvetica,sans-Serif" font-size="10.00">CPS::AttributeList</text>
</a>
</g>
</g>
<!-- Node5&#45;&gt;Node4 -->
<g id="edge4" class="edge">
<title>Node5&#45;&gt;Node4</title>
<path fill="none" stroke="midnightblue" d="M111.46,-47.81C120.16,-47.81 129.1,-47.81 137.77,-47.81"/>
<polygon fill="midnightblue" stroke="midnightblue" points="111.4,-44.31 101.4,-47.81 111.4,-51.31 111.4,-44.31"/>
</g>
<!-- Node6 -->
<g id="node6" class="node">
<title>Node6</title>
<g id="a_node6"><a xlink:href="class_c_p_s_1_1_sim_node.html" target="_top" xlink:title=" ">
<polygon fill="none" stroke="black" points="1207,-211.31 1207,-230.31 1359,-230.31 1359,-211.31 1207,-211.31"/>
<text text-anchor="middle" x="1283" y="-218.31" font-family="Helvetica,sans-Serif" font-size="10.00">CPS::SimNode&lt; Complex &gt;</text>
</a>
</g>
</g>
<!-- Node6&#45;&gt;Node2 -->
<g id="edge5" class="edge">
<title>Node6&#45;&gt;Node2</title>
<path fill="none" stroke="#9a32cd" stroke-dasharray="5,2" d="M1313.56,-206.84C1364.09,-182.95 1466.63,-134.47 1518.67,-109.86"/>
<polygon fill="#9a32cd" stroke="#9a32cd" points="1312.01,-203.7 1304.47,-211.14 1315.01,-210.03 1312.01,-203.7"/>
<text text-anchor="middle" x="1423" y="-174.81" font-family="Helvetica,sans-Serif" font-size="10.00"> mVirtualNodes</text>
</g>
<!-- Node7&#45;&gt;Node6 -->
<g id="edge6" class="edge">
<title>Node7&#45;&gt;Node6</title>
<path fill="none" stroke="midnightblue" d="M596.39,-176.97C682.46,-178.68 832.55,-182.6 961,-190.81 1045.35,-196.2 1141.87,-205.67 1206.86,-212.53"/>
<polygon fill="midnightblue" stroke="midnightblue" points="596.28,-173.47 586.22,-176.77 596.15,-180.47 596.28,-173.47"/>
</g>
<!-- Node11 -->
<g id="node11" class="node">
<title>Node11</title>
<g id="a_node11"><a xlink:href="class_c_p_s_1_1_sim_node.html" target="_top" xlink:title=" ">
<polygon fill="none" stroke="black" points="806.5,-260.31 806.5,-279.31 952.5,-279.31 952.5,-260.31 806.5,-260.31"/>
<text text-anchor="middle" x="879.5" y="-267.31" font-family="Helvetica,sans-Serif" font-size="10.00">CPS::SimNode&lt; VarType &gt;</text>
</a>
</g>
</g>
<!-- Node7&#45;&gt;Node11 -->
<g id="edge12" class="edge">
<title>Node7&#45;&gt;Node11</title>
<path fill="none" stroke="midnightblue" d="M596.1,-181.75C649.15,-188.56 722.47,-203.08 780,-233.81 789.71,-239 788.31,-245.59 798,-250.81 805.21,-254.7 813.19,-257.79 821.26,-260.26"/>
<polygon fill="midnightblue" stroke="midnightblue" points="596.45,-178.27 586.1,-180.53 595.6,-185.22 596.45,-178.27"/>
</g>
<!-- Node8 -->
<g id="node8" class="node">
<title>Node8</title>
<g id="a_node8"><a xlink:title=" ">
<polygon fill="none" stroke="#bfbfbf" points="817.5,-200.31 817.5,-241.31 941.5,-241.31 941.5,-200.31 817.5,-200.31"/>
<text text-anchor="start" x="825.5" y="-229.31" font-family="Helvetica,sans-Serif" font-size="10.00">std::enable_shared</text>
<text text-anchor="start" x="825.5" y="-218.31" font-family="Helvetica,sans-Serif" font-size="10.00">_from_this&lt; SimNode</text>
<text text-anchor="middle" x="879.5" y="-207.31" font-family="Helvetica,sans-Serif" font-size="10.00">&lt; Complex &gt; &gt;</text>
</a>
</g>
</g>
<!-- Node8&#45;&gt;Node6 -->
<g id="edge8" class="edge">
<title>Node8&#45;&gt;Node6</title>
<path fill="none" stroke="midnightblue" d="M952.22,-220.81C1024,-220.81 1133.96,-220.81 1206.9,-220.81"/>
<polygon fill="midnightblue" stroke="midnightblue" points="951.92,-217.31 941.92,-220.81 951.92,-224.31 951.92,-217.31"/>
</g>
<!-- Node9 -->
<g id="node9" class="node">
<title>Node9</title>
<g id="a_node9"><a xlink:href="class_shared_factory.html" target="_top" xlink:title=" ">
<polygon fill="none" stroke="black" points="630.5,-302.81 630.5,-332.81 771.5,-332.81 771.5,-302.81 630.5,-302.81"/>
<text text-anchor="start" x="638.5" y="-320.81" font-family="Helvetica,sans-Serif" font-size="10.00">SharedFactory&lt; SimNode</text>
<text text-anchor="middle" x="701" y="-309.81" font-family="Helvetica,sans-Serif" font-size="10.00">&lt; Complex &gt; &gt;</text>
</a>
</g>
</g>
<!-- Node9&#45;&gt;Node6 -->
<g id="edge9" class="edge">
<title>Node9&#45;&gt;Node6</title>
<path fill="none" stroke="midnightblue" d="M782.03,-319.49C878.57,-319.43 1044.87,-312.63 1181,-272.81 1213.94,-263.18 1248.76,-242.62 1267.69,-230.44"/>
<polygon fill="midnightblue" stroke="midnightblue" points="781.77,-315.99 771.76,-319.47 781.75,-322.99 781.77,-315.99"/>
</g>
<!-- Node10 -->
<g id="node10" class="node">
<title>Node10</title>
<g id="a_node10"><a xlink:href="class_shared_factory.html" target="_top" xlink:title=" ">
<polygon fill="none" stroke="black" points="140.5,-270.31 140.5,-289.31 254.5,-289.31 254.5,-270.31 140.5,-270.31"/>
<text text-anchor="middle" x="197.5" y="-277.31" font-family="Helvetica,sans-Serif" font-size="10.00">SharedFactory&lt; T &gt;</text>
</a>
</g>
</g>
<!-- Node10&#45;&gt;Node9 -->
<g id="edge10" class="edge">
<title>Node10&#45;&gt;Node9</title>
<path fill="none" stroke="orange" stroke-dasharray="5,2" d="M251.46,-291.16C259.32,-292.56 267.35,-293.84 275,-294.81 399.44,-310.58 545.72,-315.55 630.16,-317.11"/>
<polygon fill="orange" stroke="orange" points="252.1,-287.72 241.62,-289.33 250.81,-294.6 252.1,-287.72"/>
<text text-anchor="middle" x="351.5" y="-310.81" font-family="Helvetica,sans-Serif" font-size="10.00"> &lt; SimNode&lt; Complex &gt; &gt;</text>
</g>
<!-- Node13 -->
<g id="node13" class="node">
<title>Node13</title>
<g id="a_node13"><a xlink:href="class_shared_factory.html" target="_top" xlink:title=" ">
<polygon fill="none" stroke="black" points="454.5,-264.81 454.5,-294.81 595.5,-294.81 595.5,-264.81 454.5,-264.81"/>
<text text-anchor="start" x="462.5" y="-282.81" font-family="Helvetica,sans-Serif" font-size="10.00">SharedFactory&lt; SimNode</text>
<text text-anchor="middle" x="525" y="-271.81" font-family="Helvetica,sans-Serif" font-size="10.00">&lt; VarType &gt; &gt;</text>
</a>
</g>
</g>
<!-- Node10&#45;&gt;Node13 -->
<g id="edge15" class="edge">
<title>Node10&#45;&gt;Node13</title>
<path fill="none" stroke="orange" stroke-dasharray="5,2" d="M264.84,-279.81C319.96,-279.81 398.15,-279.81 454.21,-279.81"/>
<polygon fill="orange" stroke="orange" points="264.83,-276.31 254.83,-279.81 264.83,-283.31 264.83,-276.31"/>
<text text-anchor="middle" x="351.5" y="-282.81" font-family="Helvetica,sans-Serif" font-size="10.00"> &lt; SimNode&lt; VarType &gt; &gt;</text>
</g>
<!-- Node16 -->
<g id="node16" class="node">
<title>Node16</title>
<g id="a_node16"><a xlink:href="class_shared_factory.html" target="_top" xlink:title=" ">
<polygon fill="none" stroke="black" points="622,-121.81 622,-151.81 780,-151.81 780,-121.81 622,-121.81"/>
<text text-anchor="start" x="630" y="-139.81" font-family="Helvetica,sans-Serif" font-size="10.00">SharedFactory&lt; SimTerminal</text>
<text text-anchor="middle" x="701" y="-128.81" font-family="Helvetica,sans-Serif" font-size="10.00">&lt; Complex &gt; &gt;</text>
</a>
</g>
</g>
<!-- Node10&#45;&gt;Node16 -->
<g id="edge20" class="edge">
<title>Node10&#45;&gt;Node16</title>
<path fill="none" stroke="orange" stroke-dasharray="5,2" d="M221.19,-264.77C263.39,-237.68 357.68,-181.25 446,-156.81 503.55,-140.89 571.04,-136.2 621.98,-135.32"/>
<polygon fill="orange" stroke="orange" points="219.25,-261.86 212.77,-270.24 223.06,-267.73 219.25,-261.86"/>
<text text-anchor="middle" x="351.5" y="-232.81" font-family="Helvetica,sans-Serif" font-size="10.00"> &lt; SimTerminal&lt; Complex &gt; &gt;</text>
</g>
<!-- Node18 -->
<g id="node18" class="node">
<title>Node18</title>
<g id="a_node18"><a xlink:href="class_shared_factory.html" target="_top" xlink:title=" ">
<polygon fill="none" stroke="black" points="446,-78.81 446,-108.81 604,-108.81 604,-78.81 446,-78.81"/>
<text text-anchor="start" x="454" y="-96.81" font-family="Helvetica,sans-Serif" font-size="10.00">SharedFactory&lt; SimTerminal</text>
<text text-anchor="middle" x="525" y="-85.81" font-family="Helvetica,sans-Serif" font-size="10.00">&lt; VarType &gt; &gt;</text>
</a>
</g>
</g>
<!-- Node10&#45;&gt;Node18 -->
<g id="edge24" class="edge">
<title>Node10&#45;&gt;Node18</title>
<path fill="none" stroke="orange" stroke-dasharray="5,2" d="M200.63,-260.09C205.83,-222.87 222.8,-142.78 275,-106.81 326.33,-71.45 398.7,-71.75 452.2,-78.79"/>
<polygon fill="orange" stroke="orange" points="197.14,-259.81 199.37,-270.17 204.09,-260.68 197.14,-259.81"/>
<text text-anchor="middle" x="351.5" y="-109.81" font-family="Helvetica,sans-Serif" font-size="10.00"> &lt; SimTerminal&lt; VarType &gt; &gt;</text>
</g>
<!-- Node20 -->
<g id="node20" class="node">
<title>Node20</title>
<g id="a_node20"><a xlink:href="class_shared_factory.html" target="_top" xlink:title=" ">
<polygon fill="none" stroke="black" points="979,-339.31 979,-358.31 1181,-358.31 1181,-339.31 979,-339.31"/>
<text text-anchor="middle" x="1080" y="-346.31" font-family="Helvetica,sans-Serif" font-size="10.00">SharedFactory&lt; SynchronGenerator &gt;</text>
</a>
</g>
</g>
<!-- Node10&#45;&gt;Node20 -->
<g id="edge28" class="edge">
<title>Node10&#45;&gt;Node20</title>
<path fill="none" stroke="orange" stroke-dasharray="5,2" d="M219.59,-295.15C234.33,-304.96 254.9,-316.93 275,-322.81 535.19,-398.99 863.09,-374.59 1006.4,-358.34"/>
<polygon fill="orange" stroke="orange" points="221.44,-292.17 211.22,-289.39 217.47,-297.94 221.44,-292.17"/>
<text text-anchor="middle" x="525" y="-374.81" font-family="Helvetica,sans-Serif" font-size="10.00"> &lt; SynchronGenerator &gt;</text>
</g>
<!-- Node11&#45;&gt;Node6 -->
<g id="edge11" class="edge">
<title>Node11&#45;&gt;Node6</title>
<path fill="none" stroke="orange" stroke-dasharray="5,2" d="M962.75,-260.72C1023.17,-253.93 1107.25,-244.22 1181,-234.81 1191.98,-233.41 1203.61,-231.86 1214.93,-230.32"/>
<polygon fill="orange" stroke="orange" points="962.05,-257.28 952.5,-261.87 962.83,-264.24 962.05,-257.28"/>
<text text-anchor="middle" x="1080" y="-260.81" font-family="Helvetica,sans-Serif" font-size="10.00"> &lt; Complex &gt;</text>
</g>
<!-- Node12 -->
<g id="node12" class="node">
<title>Node12</title>
<g id="a_node12"><a xlink:title=" ">
<polygon fill="none" stroke="#bfbfbf" points="463,-204.31 463,-245.31 587,-245.31 587,-204.31 463,-204.31"/>
<text text-anchor="start" x="471" y="-233.31" font-family="Helvetica,sans-Serif" font-size="10.00">std::enable_shared</text>
<text text-anchor="start" x="471" y="-222.31" font-family="Helvetica,sans-Serif" font-size="10.00">_from_this&lt; SimNode</text>
<text text-anchor="middle" x="525" y="-211.31" font-family="Helvetica,sans-Serif" font-size="10.00">&lt; VarType &gt; &gt;</text>
</a>
</g>
</g>
<!-- Node12&#45;&gt;Node11 -->
<g id="edge13" class="edge">
<title>Node12&#45;&gt;Node11</title>
<path fill="none" stroke="midnightblue" d="M597.68,-233.96C658.48,-241.73 745.29,-252.81 806.25,-260.59"/>
<polygon fill="midnightblue" stroke="midnightblue" points="597.76,-230.45 587.4,-232.65 596.88,-237.39 597.76,-230.45"/>
</g>
<!-- Node13&#45;&gt;Node11 -->
<g id="edge14" class="edge">
<title>Node13&#45;&gt;Node11</title>
<path fill="none" stroke="midnightblue" d="M605.87,-277.55C666.09,-275.84 748,-273.52 806.28,-271.86"/>
<polygon fill="midnightblue" stroke="midnightblue" points="605.54,-274.06 595.64,-277.84 605.74,-281.05 605.54,-274.06"/>
</g>
<!-- Node14 -->
<g id="node14" class="node">
<title>Node14</title>
<g id="a_node14"><a xlink:href="class_c_p_s_1_1_sim_terminal.html" target="_top" xlink:title=" ">
<polygon fill="none" stroke="black" points="1199,-85.31 1199,-104.31 1367,-104.31 1367,-85.31 1199,-85.31"/>
<text text-anchor="middle" x="1283" y="-92.31" font-family="Helvetica,sans-Serif" font-size="10.00">CPS::SimTerminal&lt; Complex &gt;</text>
</a>
</g>
</g>
<!-- Node14&#45;&gt;Node2 -->
<g id="edge16" class="edge">
<title>Node14&#45;&gt;Node2</title>
<path fill="none" stroke="#9a32cd" stroke-dasharray="5,2" d="M1377.4,-94.81C1413.94,-94.81 1454.88,-94.81 1487.76,-94.81"/>
<polygon fill="#9a32cd" stroke="#9a32cd" points="1377.23,-91.31 1367.23,-94.81 1377.23,-98.31 1377.23,-91.31"/>
<text text-anchor="middle" x="1423" y="-97.81" font-family="Helvetica,sans-Serif" font-size="10.00"> mTerminals</text>
</g>
<!-- Node15&#45;&gt;Node14 -->
<g id="edge17" class="edge">
<title>Node15&#45;&gt;Node14</title>
<path fill="none" stroke="midnightblue" d="M604.14,-54.46C747.61,-63 1051.78,-81.11 1198.88,-89.87"/>
<polygon fill="midnightblue" stroke="midnightblue" points="604.28,-50.97 594.09,-53.87 603.86,-57.95 604.28,-50.97"/>
</g>
<!-- Node17 -->
<g id="node17" class="node">
<title>Node17</title>
<g id="a_node17"><a xlink:href="class_c_p_s_1_1_sim_terminal.html" target="_top" xlink:title=" ">
<polygon fill="none" stroke="black" points="798,-85.31 798,-104.31 961,-104.31 961,-85.31 798,-85.31"/>
<text text-anchor="middle" x="879.5" y="-92.31" font-family="Helvetica,sans-Serif" font-size="10.00">CPS::SimTerminal&lt; VarType &gt;</text>
</a>
</g>
</g>
<!-- Node15&#45;&gt;Node17 -->
<g id="edge22" class="edge">
<title>Node15&#45;&gt;Node17</title>
<path fill="none" stroke="midnightblue" d="M599.89,-60.78C607.36,-61.83 614.83,-62.86 622,-63.81 680.8,-71.65 747.3,-79.67 797.86,-85.58"/>
<polygon fill="midnightblue" stroke="midnightblue" points="600.14,-57.28 589.74,-59.33 599.15,-64.21 600.14,-57.28"/>
</g>
<!-- Node16&#45;&gt;Node14 -->
<g id="edge19" class="edge">
<title>Node16&#45;&gt;Node14</title>
<path fill="none" stroke="midnightblue" d="M790.43,-134.24C886.7,-130.88 1045.09,-123.71 1181,-109.81 1195.02,-108.38 1210.07,-106.39 1224.16,-104.33"/>
<polygon fill="midnightblue" stroke="midnightblue" points="790.04,-130.75 780.16,-134.59 790.28,-137.75 790.04,-130.75"/>
</g>
<!-- Node17&#45;&gt;Node14 -->
<g id="edge21" class="edge">
<title>Node17&#45;&gt;Node14</title>
<path fill="none" stroke="orange" stroke-dasharray="5,2" d="M971.59,-94.81C1039.9,-94.81 1132.66,-94.81 1198.95,-94.81"/>
<polygon fill="orange" stroke="orange" points="971.27,-91.31 961.27,-94.81 971.27,-98.31 971.27,-91.31"/>
<text text-anchor="middle" x="1080" y="-97.81" font-family="Helvetica,sans-Serif" font-size="10.00"> &lt; Complex &gt;</text>
</g>
<!-- Node18&#45;&gt;Node17 -->
<g id="edge23" class="edge">
<title>Node18&#45;&gt;Node17</title>
<path fill="none" stroke="midnightblue" d="M614.54,-94.06C670.8,-94.22 743.05,-94.43 797.74,-94.58"/>
<polygon fill="midnightblue" stroke="midnightblue" points="614.24,-90.56 604.23,-94.04 614.22,-97.56 614.24,-90.56"/>
</g>
<!-- Node19&#45;&gt;Node2 -->
<g id="edge25" class="edge">
<title>Node19&#45;&gt;Node2</title>
<path fill="none" stroke="orange" stroke-dasharray="5,2" d="M1356.75,-61.37C1397.73,-68.44 1448.4,-77.19 1487.64,-83.96"/>
<polygon fill="orange" stroke="orange" points="1357.27,-57.91 1346.82,-59.66 1356.08,-64.81 1357.27,-57.91"/>
<text text-anchor="middle" x="1423" y="-80.81" font-family="Helvetica,sans-Serif" font-size="10.00"> &lt; Complex &gt;</text>
</g>
<!-- Node20&#45;&gt;Node1 -->
<g id="edge27" class="edge">
<title>Node20&#45;&gt;Node1</title>
<path fill="none" stroke="midnightblue" d="M1116.05,-335.47C1234.96,-290.23 1621.23,-143.24 1723.48,-104.33"/>
<polygon fill="midnightblue" stroke="midnightblue" points="1114.45,-332.34 1106.35,-339.17 1116.94,-338.88 1114.45,-332.34"/>
</g>
<!-- Node21 -->
<g id="node21" class="node">
<title>Node21</title>
<g id="a_node21"><a xlink:href="class_c_p_s_1_1_p_f_solver_interface_bus.html" target="_top" xlink:title="Common base class of all Component templates.">
<polygon fill="none" stroke="black" points="1479,-41.31 1479,-60.31 1624,-60.31 1624,-41.31 1479,-41.31"/>
<text text-anchor="middle" x="1551.5" y="-48.31" font-family="Helvetica,sans-Serif" font-size="10.00">CPS::PFSolverInterfaceBus</text>
</a>
</g>
</g>
<!-- Node21&#45;&gt;Node1 -->
<g id="edge29" class="edge">
<title>Node21&#45;&gt;Node1</title>
<path fill="none" stroke="midnightblue" d="M1604.99,-62.6C1636.63,-69.7 1676.41,-78.63 1706.05,-85.28"/>
<polygon fill="midnightblue" stroke="midnightblue" points="1605.55,-59.14 1595.03,-60.36 1604.02,-65.97 1605.55,-59.14"/>
</g>
</g>
</svg>
        <g id="navigator" transform="translate(0 0)" fill="#404254">
                <rect fill="#f2f5e9" fill-opacity="0.5" stroke="#606060" stroke-width=".5" x="0" y="0" width="60" height="60"/>
                <use id="zoomplus" xlink:href="#zoomPlus" x="17" y="9" onmousedown="handleZoom(evt,'in')"/>
                <use id="zoomminus" xlink:href="#zoomMin" x="42" y="9" onmousedown="handleZoom(evt,'out')"/>
                <use id="reset" xlink:href="#resetDef" x="30" y="36" onmousedown="handleReset()"/>
                <g id="arrowUp" xlink:href="#dirArrow" transform="translate(30 24)" onmousedown="handlePan(0,-1)">
                  <use xlink:href="#rim" fill="#404040">
                        <set attributeName="fill" to="#808080" begin="arrowUp.mouseover" end="arrowUp.mouseout"/>
                  </use>
                  <path fill="none" stroke="white" stroke-width="1.5" d="M0,-3.0v7 M-2.5,-0.5L0,-3.0L2.5,-0.5"/>
                </g>
                <g id="arrowRight" xlink:href="#dirArrow" transform="rotate(90) translate(36 -43)" onmousedown="handlePan(1,0)">
                  <use xlink:href="#rim" fill="#404040">
                        <set attributeName="fill" to="#808080" begin="arrowRight.mouseover" end="arrowRight.mouseout"/>
                  </use>
                  <path fill="none" stroke="white" stroke-width="1.5" d="M0,-3.0v7 M-2.5,-0.5L0,-3.0L2.5,-0.5"/>
                </g>
                <g id="arrowDown" xlink:href="#dirArrow" transform="rotate(180) translate(-30 -48)" onmousedown="handlePan(0,1)">
                  <use xlink:href="#rim" fill="#404040">
                        <set attributeName="fill" to="#808080" begin="arrowDown.mouseover" end="arrowDown.mouseout"/>
                  </use>
                  <path fill="none" stroke="white" stroke-width="1.5" d="M0,-3.0v7 M-2.5,-0.5L0,-3.0L2.5,-0.5"/>
                </g>
                <g id="arrowLeft" xlink:href="#dirArrow" transform="rotate(270) translate(-36 17)" onmousedown="handlePan(-1,0)">
                  <use xlink:href="#rim" fill="#404040">
                        <set attributeName="fill" to="#808080" begin="arrowLeft.mouseover" end="arrowLeft.mouseout"/>
                  </use>
                  <path fill="none" stroke="white" stroke-width="1.5" d="M0,-3.0v7 M-2.5,-0.5L0,-3.0L2.5,-0.5"/>
                </g>
        </g>
        <svg viewBox="0 0 15 15" width="100%" height="30px" preserveAspectRatio="xMaxYMin meet">
         <g id="arrow_out" transform="scale(0.3 0.3)">
          <a xlink:href="class_c_p_s_1_1_s_p_1_1_ph1_1_1_synchron_generator__coll__graph_org.svg" target="_base">
           <rect id="button" ry="5" rx="5" y="6" x="6" height="38" width="38"
                fill="#f2f5e9" fill-opacity="0.5" stroke="#606060" stroke-width="1.0"/>
           <path id="arrow"
             d="M 11.500037,31.436501 C 11.940474,20.09759 22.043105,11.32322 32.158766,21.979434 L 37.068811,17.246167 C 37.068811,17.246167 37.088388,32 37.088388,32 L 22.160133,31.978069 C 22.160133,31.978069 26.997745,27.140456 26.997745,27.140456 C 18.528582,18.264221 13.291696,25.230495 11.500037,31.436501 z"
             style="fill:#404040;"/>
          </a>
         </g>
        </svg>
</svg>
