<?xml version="1.0" encoding="UTF-8" standalone="no"?>
<!DOCTYPE svg PUBLIC "-//W3C//DTD SVG 1.1//EN"
 "http://www.w3.org/Graphics/SVG/1.1/DTD/svg11.dtd">
<!-- Generated by graphviz version 2.50.0 (0)
 -->
<!-- Title: CPS::Signal::DecouplingLine Pages: 1 -->
<!--zoomable 316 -->
<svg id="main" version="1.1" xmlns="http://www.w3.org/2000/svg" xmlns:xlink="http://www.w3.org/1999/xlink" xml:space="preserve" onload="init(evt)">
<style type="text/css"><![CDATA[
.edge:hover path { stroke: red; }
.edge:hover polygon { stroke: red; fill: red; }
]]></style>
<script type="text/javascript"><![CDATA[
var edges = document.getElementsByTagName('g');
if (edges && edges.length) {
  for (var i=0;i<edges.length;i++) {
    if (edges[i].id.substr(0,4)=='edge') {
      edges[i].setAttribute('class','edge');
    }
  }
}
]]></script>
        <defs>
                <circle id="rim" cx="0" cy="0" r="7"/>
                <circle id="rim2" cx="0" cy="0" r="3.5"/>
                <g id="zoomPlus">
                        <use xlink:href="#rim" fill="#404040">
                                <set attributeName="fill" to="#808080" begin="zoomplus.mouseover" end="zoomplus.mouseout"/>
                        </use>
                        <path d="M-4,0h8M0,-4v8" fill="none" stroke="white" stroke-width="1.5" pointer-events="none"/>
                </g>
                <g id="zoomMin">
                        <use xlink:href="#rim" fill="#404040">
                                <set attributeName="fill" to="#808080" begin="zoomminus.mouseover" end="zoomminus.mouseout"/>
                        </use>
                        <path d="M-4,0h8" fill="none" stroke="white" stroke-width="1.5" pointer-events="none"/>
                </g>
                <g id="dirArrow">
                        <path fill="none" stroke="white" stroke-width="1.5" d="M0,-3.0v7 M-2.5,-0.5L0,-3.0L2.5,-0.5"/>
                </g>
               <g id="resetDef">
                       <use xlink:href="#rim2" fill="#404040">
                               <set attributeName="fill" to="#808080" begin="reset.mouseover" end="reset.mouseout"/>
                       </use>
               </g>
        </defs>

<script type="text/javascript">
var viewWidth = 1338;
var viewHeight = 316;
var sectionId = 'dynsection-1';
</script>
<script xlink:href="svgpan.js"/>
<svg id="graph" class="graph">
<g id="viewport">
<title>CPS::Signal::DecouplingLine</title>
<!-- Node1 -->
<g id="node1" class="node">
<title>Node1</title>
<g id="a_node1"><a xlink:title=" ">
<polygon fill="#bfbfbf" stroke="black" points="1185,-157.92 1185,-176.92 1330,-176.92 1330,-157.92 1185,-157.92"/>
<text text-anchor="middle" x="1257.5" y="-164.92" font-family="Helvetica,sans-Serif" font-size="10.00">CPS::Signal::DecouplingLine</text>
</a>
</g>
</g>
<!-- Node2 -->
<g id="node2" class="node">
<title>Node2</title>
<g id="a_node2"><a xlink:href="class_c_p_s_1_1_sim_signal_comp.html" target="_top" xlink:title=" ">
<polygon fill="none" stroke="black" points="1021,-228.92 1021,-247.92 1131,-247.92 1131,-228.92 1021,-228.92"/>
<text text-anchor="middle" x="1076" y="-235.92" font-family="Helvetica,sans-Serif" font-size="10.00">CPS::SimSignalComp</text>
</a>
</g>
</g>
<!-- Node2&#45;&gt;Node1 -->
<g id="edge1" class="edge">
<title>Node2&#45;&gt;Node1</title>
<path fill="none" stroke="midnightblue" d="M1127.88,-226.03C1134.71,-224.02 1141.57,-221.8 1148,-219.42 1181.11,-207.18 1217.79,-188.44 1238.9,-177.11"/>
<polygon fill="midnightblue" stroke="midnightblue" points="1126.62,-222.75 1117.96,-228.85 1128.53,-229.49 1126.62,-222.75"/>
</g>
<!-- Node3 -->
<g id="node3" class="node">
<title>Node3</title>
<g id="a_node3"><a xlink:href="class_c_p_s_1_1_topological_signal_comp.html" target="_top" xlink:title=" ">
<polygon fill="none" stroke="black" points="732,-228.92 732,-247.92 877,-247.92 877,-228.92 732,-228.92"/>
<text text-anchor="middle" x="804.5" y="-235.92" font-family="Helvetica,sans-Serif" font-size="10.00">CPS::TopologicalSignalComp</text>
</a>
</g>
</g>
<!-- Node3&#45;&gt;Node2 -->
<g id="edge2" class="edge">
<title>Node3&#45;&gt;Node2</title>
<path fill="none" stroke="midnightblue" d="M887.24,-238.42C930.49,-238.42 982.42,-238.42 1020.69,-238.42"/>
<polygon fill="midnightblue" stroke="midnightblue" points="887.01,-234.92 877.01,-238.42 887.01,-241.92 887.01,-234.92"/>
</g>
<!-- Node4 -->
<g id="node4" class="node">
<title>Node4</title>
<g id="a_node4"><a xlink:href="class_c_p_s_1_1_identified_object.html" target="_top" xlink:title=" ">
<polygon fill="none" stroke="black" points="579,-228.92 579,-247.92 695,-247.92 695,-228.92 579,-228.92"/>
<text text-anchor="middle" x="637" y="-235.92" font-family="Helvetica,sans-Serif" font-size="10.00">CPS::IdentifiedObject</text>
</a>
</g>
</g>
<!-- Node4&#45;&gt;Node3 -->
<g id="edge3" class="edge">
<title>Node4&#45;&gt;Node3</title>
<path fill="none" stroke="midnightblue" d="M705.5,-238.42C714.2,-238.42 723.13,-238.42 731.89,-238.42"/>
<polygon fill="midnightblue" stroke="midnightblue" points="705.42,-234.92 695.42,-238.42 705.42,-241.92 705.42,-234.92"/>
</g>
<!-- Node5 -->
<g id="node5" class="node">
<title>Node5</title>
<g id="a_node5"><a xlink:href="class_c_p_s_1_1_attribute.html" target="_top" xlink:title=" ">
<polygon fill="none" stroke="black" points="370,-228.92 370,-247.92 497,-247.92 497,-228.92 370,-228.92"/>
<text text-anchor="middle" x="433.5" y="-235.92" font-family="Helvetica,sans-Serif" font-size="10.00">CPS::Attribute&lt; String &gt;</text>
</a>
</g>
</g>
<!-- Node5&#45;&gt;Node4 -->
<g id="edge4" class="edge">
<title>Node5&#45;&gt;Node4</title>
<path fill="none" stroke="#9a32cd" stroke-dasharray="5,2" d="M507.43,-238.42C530.95,-238.42 556.66,-238.42 578.87,-238.42"/>
<polygon fill="#9a32cd" stroke="#9a32cd" points="507.15,-234.92 497.15,-238.42 507.15,-241.92 507.15,-234.92"/>
<text text-anchor="middle" x="541" y="-252.42" font-family="Helvetica,sans-Serif" font-size="10.00"> mName</text>
<text text-anchor="middle" x="541" y="-241.42" font-family="Helvetica,sans-Serif" font-size="10.00">mUID</text>
</g>
<!-- Node6 -->
<g id="node6" class="node">
<title>Node6</title>
<g id="a_node6"><a xlink:href="class_c_p_s_1_1_attribute_base.html" target="_top" xlink:title=" ">
<polygon fill="none" stroke="black" points="5.5,-105.92 5.5,-124.92 110.5,-124.92 110.5,-105.92 5.5,-105.92"/>
<text text-anchor="middle" x="58" y="-112.92" font-family="Helvetica,sans-Serif" font-size="10.00">CPS::AttributeBase</text>
</a>
</g>
</g>
<!-- Node6&#45;&gt;Node5 -->
<g id="edge5" class="edge">
<title>Node6&#45;&gt;Node5</title>
<path fill="none" stroke="midnightblue" d="M69.37,-133.83C84.29,-158.3 114.34,-200.66 153,-219.42 221.59,-252.71 310.97,-252.35 369.97,-247.08"/>
<polygon fill="midnightblue" stroke="midnightblue" points="72.33,-131.96 64.24,-125.12 66.3,-135.51 72.33,-131.96"/>
</g>
<!-- Node8 -->
<g id="node8" class="node">
<title>Node8</title>
<g id="a_node8"><a xlink:href="class_c_p_s_1_1_attribute.html" target="_top" xlink:title=" ">
<polygon fill="none" stroke="black" points="159,-130.92 159,-149.92 263,-149.92 263,-130.92 159,-130.92"/>
<text text-anchor="middle" x="211" y="-137.92" font-family="Helvetica,sans-Serif" font-size="10.00">CPS::Attribute&lt; T &gt;</text>
</a>
</g>
</g>
<!-- Node6&#45;&gt;Node8 -->
<g id="edge8" class="edge">
<title>Node6&#45;&gt;Node8</title>
<path fill="none" stroke="midnightblue" d="M120.61,-125.62C133.35,-127.73 146.63,-129.93 158.94,-131.97"/>
<polygon fill="midnightblue" stroke="midnightblue" points="120.98,-122.13 110.54,-123.95 119.84,-129.04 120.98,-122.13"/>
</g>
<!-- Node12 -->
<g id="node12" class="node">
<title>Node12</title>
<g id="a_node12"><a xlink:href="class_c_p_s_1_1_attribute.html" target="_top" xlink:title=" ">
<polygon fill="none" stroke="black" points="364,-44.92 364,-63.92 503,-63.92 503,-44.92 364,-44.92"/>
<text text-anchor="middle" x="433.5" y="-51.92" font-family="Helvetica,sans-Serif" font-size="10.00">CPS::Attribute&lt; Complex &gt;</text>
</a>
</g>
</g>
<!-- Node6&#45;&gt;Node12 -->
<g id="edge13" class="edge">
<title>Node6&#45;&gt;Node12</title>
<path fill="none" stroke="midnightblue" d="M69.58,-97.01C84.59,-72.99 114.56,-32.04 153,-15.42 244.06,23.96 365.95,-23.36 412.91,-44.86"/>
<polygon fill="midnightblue" stroke="midnightblue" points="66.41,-95.5 64.25,-105.87 72.4,-99.11 66.41,-95.5"/>
</g>
<!-- Node14 -->
<g id="node14" class="node">
<title>Node14</title>
<g id="a_node14"><a xlink:href="class_c_p_s_1_1_attribute.html" target="_top" xlink:title=" ">
<polygon fill="none" stroke="black" points="369,-141.92 369,-160.92 498,-160.92 498,-141.92 369,-141.92"/>
<text text-anchor="middle" x="433.5" y="-148.92" font-family="Helvetica,sans-Serif" font-size="10.00">CPS::Attribute&lt; Matrix &gt;</text>
</a>
</g>
</g>
<!-- Node6&#45;&gt;Node14 -->
<g id="edge17" class="edge">
<title>Node6&#45;&gt;Node14</title>
<path fill="none" stroke="midnightblue" d="M105.97,-103.7C163.64,-91.36 263.89,-76.64 346,-99.42 375.72,-107.66 405.46,-129.15 421.14,-141.77"/>
<polygon fill="midnightblue" stroke="midnightblue" points="105.07,-100.31 96.05,-105.89 106.57,-107.15 105.07,-100.31"/>
</g>
<!-- Node7 -->
<g id="node7" class="node">
<title>Node7</title>
<g id="a_node7"><a xlink:title=" ">
<polygon fill="none" stroke="#bfbfbf" points="153,-266.92 153,-307.92 269,-307.92 269,-266.92 153,-266.92"/>
<text text-anchor="start" x="161" y="-295.92" font-family="Helvetica,sans-Serif" font-size="10.00">std::enable_shared</text>
<text text-anchor="start" x="161" y="-284.92" font-family="Helvetica,sans-Serif" font-size="10.00">_from_this&lt; Attribute</text>
<text text-anchor="middle" x="211" y="-273.92" font-family="Helvetica,sans-Serif" font-size="10.00">&lt; String &gt; &gt;</text>
</a>
</g>
</g>
<!-- Node7&#45;&gt;Node5 -->
<g id="edge6" class="edge">
<title>Node7&#45;&gt;Node5</title>
<path fill="none" stroke="midnightblue" d="M279,-272.53C314.95,-264.54 358.19,-254.93 389.6,-247.95"/>
<polygon fill="midnightblue" stroke="midnightblue" points="278.07,-269.15 269.07,-274.74 279.59,-275.98 278.07,-269.15"/>
</g>
<!-- Node8&#45;&gt;Node5 -->
<g id="edge7" class="edge">
<title>Node8&#45;&gt;Node5</title>
<path fill="none" stroke="orange" stroke-dasharray="5,2" d="M252.79,-153.31C258.28,-155.25 263.81,-157.31 269,-159.42 323.32,-181.49 385.02,-213.19 414.7,-228.88"/>
<polygon fill="orange" stroke="orange" points="253.62,-149.89 243.03,-149.96 251.35,-156.51 253.62,-149.89"/>
<text text-anchor="middle" x="316.5" y="-195.42" font-family="Helvetica,sans-Serif" font-size="10.00"> &lt; String &gt;</text>
</g>
<!-- Node8&#45;&gt;Node12 -->
<g id="edge15" class="edge">
<title>Node8&#45;&gt;Node12</title>
<path fill="none" stroke="orange" stroke-dasharray="5,2" d="M246.01,-127.16C290.79,-109.69 368.48,-79.39 407.95,-63.99"/>
<polygon fill="orange" stroke="orange" points="244.48,-123.99 236.44,-130.89 247.03,-130.51 244.48,-123.99"/>
<text text-anchor="middle" x="316.5" y="-113.42" font-family="Helvetica,sans-Serif" font-size="10.00"> &lt; Complex &gt;</text>
</g>
<!-- Node8&#45;&gt;Node14 -->
<g id="edge19" class="edge">
<title>Node8&#45;&gt;Node14</title>
<path fill="none" stroke="orange" stroke-dasharray="5,2" d="M273.37,-143.48C303.03,-144.96 338.62,-146.74 368.61,-148.23"/>
<polygon fill="orange" stroke="orange" points="273.3,-139.97 263.14,-142.97 272.95,-146.96 273.3,-139.97"/>
<text text-anchor="middle" x="316.5" y="-150.42" font-family="Helvetica,sans-Serif" font-size="10.00"> &lt; Matrix &gt;</text>
</g>
<!-- Node9 -->
<g id="node9" class="node">
<title>Node9</title>
<g id="a_node9"><a xlink:title=" ">
<polygon fill="none" stroke="#bfbfbf" points="0,-242.92 0,-283.92 116,-283.92 116,-242.92 0,-242.92"/>
<text text-anchor="start" x="8" y="-271.92" font-family="Helvetica,sans-Serif" font-size="10.00">std::enable_shared</text>
<text text-anchor="start" x="8" y="-260.92" font-family="Helvetica,sans-Serif" font-size="10.00">_from_this&lt; Attribute</text>
<text text-anchor="middle" x="58" y="-249.92" font-family="Helvetica,sans-Serif" font-size="10.00">&lt; T &gt; &gt;</text>
</a>
</g>
</g>
<!-- Node9&#45;&gt;Node8 -->
<g id="edge9" class="edge">
<title>Node9&#45;&gt;Node8</title>
<path fill="none" stroke="midnightblue" d="M78.72,-234.37C95.88,-211.12 122.7,-179.22 153,-159.42 158.85,-155.6 165.54,-152.47 172.24,-149.94"/>
<polygon fill="midnightblue" stroke="midnightblue" points="75.86,-232.35 72.85,-242.51 81.54,-236.45 75.86,-232.35"/>
</g>
<!-- Node10 -->
<g id="node10" class="node">
<title>Node10</title>
<g id="a_node10"><a xlink:href="class_shared_factory.html" target="_top" xlink:title=" ">
<polygon fill="none" stroke="black" points="1004,-179.42 1004,-209.42 1148,-209.42 1148,-179.42 1004,-179.42"/>
<text text-anchor="start" x="1012" y="-197.42" font-family="Helvetica,sans-Serif" font-size="10.00">SharedFactory&lt; Decoupling</text>
<text text-anchor="middle" x="1076" y="-186.42" font-family="Helvetica,sans-Serif" font-size="10.00">Line &gt;</text>
</a>
</g>
</g>
<!-- Node10&#45;&gt;Node1 -->
<g id="edge10" class="edge">
<title>Node10&#45;&gt;Node1</title>
<path fill="none" stroke="midnightblue" d="M1158.4,-182.17C1170.09,-180.42 1181.97,-178.63 1193.23,-176.94"/>
<polygon fill="midnightblue" stroke="midnightblue" points="1157.57,-178.76 1148.2,-183.71 1158.61,-185.68 1157.57,-178.76"/>
</g>
<!-- Node11 -->
<g id="node11" class="node">
<title>Node11</title>
<g id="a_node11"><a xlink:href="class_shared_factory.html" target="_top" xlink:title=" ">
<polygon fill="none" stroke="black" points="752,-184.92 752,-203.92 857,-203.92 857,-184.92 752,-184.92"/>
<text text-anchor="middle" x="804.5" y="-191.92" font-family="Helvetica,sans-Serif" font-size="10.00">SharedFactory&lt; T &gt;</text>
</a>
</g>
</g>
<!-- Node11&#45;&gt;Node10 -->
<g id="edge11" class="edge">
<title>Node11&#45;&gt;Node10</title>
<path fill="none" stroke="orange" stroke-dasharray="5,2" d="M867.21,-194.42C907.94,-194.42 961.42,-194.42 1003.93,-194.42"/>
<polygon fill="orange" stroke="orange" points="867.14,-190.92 857.14,-194.42 867.14,-197.92 867.14,-190.92"/>
<text text-anchor="middle" x="940.5" y="-197.42" font-family="Helvetica,sans-Serif" font-size="10.00"> &lt; DecouplingLine &gt;</text>
</g>
<!-- Node12&#45;&gt;Node1 -->
<g id="edge12" class="edge">
<title>Node12&#45;&gt;Node1</title>
<path fill="none" stroke="#9a32cd" stroke-dasharray="5,2" d="M513.3,-59C550.5,-60.79 595.52,-62.42 636,-62.42 636,-62.42 636,-62.42 1077,-62.42 1152.09,-62.42 1223.66,-131.74 1247.85,-157.73"/>
<polygon fill="#9a32cd" stroke="#9a32cd" points="513.18,-55.49 503.02,-58.49 512.84,-62.48 513.18,-55.49"/>
<text text-anchor="middle" x="804.5" y="-98.42" font-family="Helvetica,sans-Serif" font-size="10.00"> mSrcCur1</text>
<text text-anchor="middle" x="804.5" y="-87.42" font-family="Helvetica,sans-Serif" font-size="10.00">mSrcCur1Ref</text>
<text text-anchor="middle" x="804.5" y="-76.42" font-family="Helvetica,sans-Serif" font-size="10.00">mSrcCur2</text>
<text text-anchor="middle" x="804.5" y="-65.42" font-family="Helvetica,sans-Serif" font-size="10.00">mSrcCur2Ref</text>
</g>
<!-- Node13 -->
<g id="node13" class="node">
<title>Node13</title>
<g id="a_node13"><a xlink:title=" ">
<polygon fill="none" stroke="#bfbfbf" points="153,-24.92 153,-65.92 269,-65.92 269,-24.92 153,-24.92"/>
<text text-anchor="start" x="161" y="-53.92" font-family="Helvetica,sans-Serif" font-size="10.00">std::enable_shared</text>
<text text-anchor="start" x="161" y="-42.92" font-family="Helvetica,sans-Serif" font-size="10.00">_from_this&lt; Attribute</text>
<text text-anchor="middle" x="211" y="-31.92" font-family="Helvetica,sans-Serif" font-size="10.00">&lt; Complex &gt; &gt;</text>
</a>
</g>
</g>
<!-- Node13&#45;&gt;Node12 -->
<g id="edge14" class="edge">
<title>Node13&#45;&gt;Node12</title>
<path fill="none" stroke="midnightblue" d="M279.15,-48.16C306,-49.26 336.89,-50.52 363.89,-51.62"/>
<polygon fill="midnightblue" stroke="midnightblue" points="279.21,-44.66 269.07,-47.75 278.92,-51.65 279.21,-44.66"/>
</g>
<!-- Node14&#45;&gt;Node1 -->
<g id="edge16" class="edge">
<title>Node14&#45;&gt;Node1</title>
<path fill="none" stroke="#9a32cd" stroke-dasharray="5,2" d="M508.03,-150.88C546.21,-150.64 593.61,-150.42 636,-150.42 636,-150.42 636,-150.42 1077,-150.42 1113.78,-150.42 1154.61,-154 1188.03,-157.88"/>
<polygon fill="#9a32cd" stroke="#9a32cd" points="508,-147.38 498.03,-150.94 508.05,-154.38 508,-147.38"/>
<text text-anchor="middle" x="804.5" y="-153.42" font-family="Helvetica,sans-Serif" font-size="10.00"> mStates</text>
</g>
<!-- Node15 -->
<g id="node15" class="node">
<title>Node15</title>
<g id="a_node15"><a xlink:title=" ">
<polygon fill="none" stroke="#bfbfbf" points="153,-168.92 153,-209.92 269,-209.92 269,-168.92 153,-168.92"/>
<text text-anchor="start" x="161" y="-197.92" font-family="Helvetica,sans-Serif" font-size="10.00">std::enable_shared</text>
<text text-anchor="start" x="161" y="-186.92" font-family="Helvetica,sans-Serif" font-size="10.00">_from_this&lt; Attribute</text>
<text text-anchor="middle" x="211" y="-175.92" font-family="Helvetica,sans-Serif" font-size="10.00">&lt; Matrix &gt; &gt;</text>
</a>
</g>
</g>
<!-- Node15&#45;&gt;Node14 -->
<g id="edge18" class="edge">
<title>Node15&#45;&gt;Node14</title>
<path fill="none" stroke="midnightblue" d="M279.19,-202.12C300.78,-204.04 324.64,-203.85 346,-198.42 374.49,-191.18 403.74,-172.45 419.87,-160.94"/>
<polygon fill="midnightblue" stroke="midnightblue" points="279.42,-198.63 269.11,-201.07 278.69,-205.59 279.42,-198.63"/>
</g>
</g>
</svg>
        <g id="navigator" transform="translate(0 0)" fill="#404254">
                <rect fill="#f2f5e9" fill-opacity="0.5" stroke="#606060" stroke-width=".5" x="0" y="0" width="60" height="60"/>
                <use id="zoomplus" xlink:href="#zoomPlus" x="17" y="9" onmousedown="handleZoom(evt,'in')"/>
                <use id="zoomminus" xlink:href="#zoomMin" x="42" y="9" onmousedown="handleZoom(evt,'out')"/>
                <use id="reset" xlink:href="#resetDef" x="30" y="36" onmousedown="handleReset()"/>
                <g id="arrowUp" xlink:href="#dirArrow" transform="translate(30 24)" onmousedown="handlePan(0,-1)">
                  <use xlink:href="#rim" fill="#404040">
                        <set attributeName="fill" to="#808080" begin="arrowUp.mouseover" end="arrowUp.mouseout"/>
                  </use>
                  <path fill="none" stroke="white" stroke-width="1.5" d="M0,-3.0v7 M-2.5,-0.5L0,-3.0L2.5,-0.5"/>
                </g>
                <g id="arrowRight" xlink:href="#dirArrow" transform="rotate(90) translate(36 -43)" onmousedown="handlePan(1,0)">
                  <use xlink:href="#rim" fill="#404040">
                        <set attributeName="fill" to="#808080" begin="arrowRight.mouseover" end="arrowRight.mouseout"/>
                  </use>
                  <path fill="none" stroke="white" stroke-width="1.5" d="M0,-3.0v7 M-2.5,-0.5L0,-3.0L2.5,-0.5"/>
                </g>
                <g id="arrowDown" xlink:href="#dirArrow" transform="rotate(180) translate(-30 -48)" onmousedown="handlePan(0,1)">
                  <use xlink:href="#rim" fill="#404040">
                        <set attributeName="fill" to="#808080" begin="arrowDown.mouseover" end="arrowDown.mouseout"/>
                  </use>
                  <path fill="none" stroke="white" stroke-width="1.5" d="M0,-3.0v7 M-2.5,-0.5L0,-3.0L2.5,-0.5"/>
                </g>
                <g id="arrowLeft" xlink:href="#dirArrow" transform="rotate(270) translate(-36 17)" onmousedown="handlePan(-1,0)">
                  <use xlink:href="#rim" fill="#404040">
                        <set attributeName="fill" to="#808080" begin="arrowLeft.mouseover" end="arrowLeft.mouseout"/>
                  </use>
                  <path fill="none" stroke="white" stroke-width="1.5" d="M0,-3.0v7 M-2.5,-0.5L0,-3.0L2.5,-0.5"/>
                </g>
        </g>
        <svg viewBox="0 0 15 15" width="100%" height="30px" preserveAspectRatio="xMaxYMin meet">
         <g id="arrow_out" transform="scale(0.3 0.3)">
          <a xlink:href="class_c_p_s_1_1_signal_1_1_decoupling_line__coll__graph_org.svg" target="_base">
           <rect id="button" ry="5" rx="5" y="6" x="6" height="38" width="38"
                fill="#f2f5e9" fill-opacity="0.5" stroke="#606060" stroke-width="1.0"/>
           <path id="arrow"
             d="M 11.500037,31.436501 C 11.940474,20.09759 22.043105,11.32322 32.158766,21.979434 L 37.068811,17.246167 C 37.068811,17.246167 37.088388,32 37.088388,32 L 22.160133,31.978069 C 22.160133,31.978069 26.997745,27.140456 26.997745,27.140456 C 18.528582,18.264221 13.291696,25.230495 11.500037,31.436501 z"
             style="fill:#404040;"/>
          </a>
         </g>
        </svg>
</svg>
