<?xml version="1.0" encoding="UTF-8" standalone="no"?>
<!DOCTYPE svg PUBLIC "-//W3C//DTD SVG 1.1//EN"
 "http://www.w3.org/Graphics/SVG/1.1/DTD/svg11.dtd">
<!-- Generated by graphviz version 2.44.0 (0)
 -->
<!-- Title: CPS::Base::Ph1::SVC Pages: 1 -->
<svg width="688pt" height="125pt"
 viewBox="0.00 0.00 688.00 125.00" xmlns="http://www.w3.org/2000/svg" xmlns:xlink="http://www.w3.org/1999/xlink">
<g id="graph0" class="graph" transform="scale(1 1) rotate(0) translate(4 121)">
<title>CPS::Base::Ph1::SVC</title>
<!-- Node1 -->
<g id="node1" class="node">
<title>Node1</title>
<g id="a_node1"><a xlink:title="Static VAR compensator (SVC)">
<polygon fill="#bfbfbf" stroke="black" points="565,-60.5 565,-79.5 680,-79.5 680,-60.5 565,-60.5"/>
<text text-anchor="middle" x="622.5" y="-67.5" font-family="Helvetica" font-size="10.00">CPS::Base::Ph1::SVC</text>
</a>
</g>
</g>
<!-- Node2 -->
<g id="node2" class="node">
<title>Node2</title>
<g id="a_node2"><a xlink:href="class_c_p_s_1_1_attribute.html" target="_top" xlink:title=" ">
<polygon fill="none" stroke="black" points="330,-60.5 330,-79.5 448,-79.5 448,-60.5 330,-60.5"/>
<text text-anchor="middle" x="389" y="-67.5" font-family="Helvetica" font-size="10.00">CPS::Attribute&lt; Real &gt;</text>
</a>
</g>
</g>
<!-- Node2&#45;&gt;Node1 -->
<g id="edge1" class="edge">
<title>Node2&#45;&gt;Node1</title>
<path fill="none" stroke="#9a32cd" stroke-dasharray="5,2" d="M458.42,-70C492.34,-70 532.82,-70 564.96,-70"/>
<polygon fill="#9a32cd" stroke="#9a32cd" points="458.12,-66.5 448.12,-70 458.12,-73.5 458.12,-66.5"/>
<text text-anchor="middle" x="506.5" y="-95" font-family="Helvetica" font-size="10.00"> mBPrev</text>
<text text-anchor="middle" x="506.5" y="-84" font-family="Helvetica" font-size="10.00">mDeltaV</text>
<text text-anchor="middle" x="506.5" y="-73" font-family="Helvetica" font-size="10.00">mViolationCounter</text>
</g>
<!-- Node3 -->
<g id="node3" class="node">
<title>Node3</title>
<g id="a_node3"><a xlink:href="class_c_p_s_1_1_attribute_base.html" target="_top" xlink:title=" ">
<polygon fill="none" stroke="black" points="2.5,-97.5 2.5,-116.5 105.5,-116.5 105.5,-97.5 2.5,-97.5"/>
<text text-anchor="middle" x="54" y="-104.5" font-family="Helvetica" font-size="10.00">CPS::AttributeBase</text>
</a>
</g>
</g>
<!-- Node3&#45;&gt;Node2 -->
<g id="edge2" class="edge">
<title>Node3&#45;&gt;Node2</title>
<path fill="none" stroke="midnightblue" d="M116,-103.66C168.2,-100.36 245.28,-94.41 312,-85 322.39,-83.53 333.5,-81.57 343.93,-79.55"/>
<polygon fill="midnightblue" stroke="midnightblue" points="115.66,-100.18 105.9,-104.29 116.1,-107.17 115.66,-100.18"/>
</g>
<!-- Node5 -->
<g id="node5" class="node">
<title>Node5</title>
<g id="a_node5"><a xlink:href="class_c_p_s_1_1_attribute.html" target="_top" xlink:title=" ">
<polygon fill="none" stroke="black" points="147,-60.5 147,-79.5 251,-79.5 251,-60.5 147,-60.5"/>
<text text-anchor="middle" x="199" y="-67.5" font-family="Helvetica" font-size="10.00">CPS::Attribute&lt; T &gt;</text>
</a>
</g>
</g>
<!-- Node3&#45;&gt;Node5 -->
<g id="edge5" class="edge">
<title>Node3&#45;&gt;Node5</title>
<path fill="none" stroke="midnightblue" d="M101.58,-94.95C120.77,-89.98 142.71,-84.31 160.8,-79.62"/>
<polygon fill="midnightblue" stroke="midnightblue" points="100.63,-91.58 91.83,-97.47 102.38,-98.36 100.63,-91.58"/>
</g>
<!-- Node4 -->
<g id="node4" class="node">
<title>Node4</title>
<g id="a_node4"><a xlink:title=" ">
<polygon fill="none" stroke="#bfbfbf" points="145,-0.5 145,-41.5 253,-41.5 253,-0.5 145,-0.5"/>
<text text-anchor="start" x="153" y="-29.5" font-family="Helvetica" font-size="10.00">std::enable_shared</text>
<text text-anchor="start" x="153" y="-18.5" font-family="Helvetica" font-size="10.00">_from_this&lt; Attribute</text>
<text text-anchor="middle" x="199" y="-7.5" font-family="Helvetica" font-size="10.00">&lt; Real &gt; &gt;</text>
</a>
</g>
</g>
<!-- Node4&#45;&gt;Node2 -->
<g id="edge3" class="edge">
<title>Node4&#45;&gt;Node2</title>
<path fill="none" stroke="midnightblue" d="M262.89,-37.39C292.29,-45.06 326.27,-53.91 351.39,-60.46"/>
<polygon fill="midnightblue" stroke="midnightblue" points="263.68,-33.98 253.12,-34.84 261.91,-40.75 263.68,-33.98"/>
</g>
<!-- Node5&#45;&gt;Node2 -->
<g id="edge4" class="edge">
<title>Node5&#45;&gt;Node2</title>
<path fill="none" stroke="orange" stroke-dasharray="5,2" d="M261.56,-70C283.48,-70 308.09,-70 329.72,-70"/>
<polygon fill="orange" stroke="orange" points="261.37,-66.5 251.37,-70 261.37,-73.5 261.37,-66.5"/>
<text text-anchor="middle" x="291.5" y="-73" font-family="Helvetica" font-size="10.00"> &lt; Real &gt;</text>
</g>
<!-- Node6 -->
<g id="node6" class="node">
<title>Node6</title>
<g id="a_node6"><a xlink:title=" ">
<polygon fill="none" stroke="#bfbfbf" points="0,-37.5 0,-78.5 108,-78.5 108,-37.5 0,-37.5"/>
<text text-anchor="start" x="8" y="-66.5" font-family="Helvetica" font-size="10.00">std::enable_shared</text>
<text text-anchor="start" x="8" y="-55.5" font-family="Helvetica" font-size="10.00">_from_this&lt; Attribute</text>
<text text-anchor="middle" x="54" y="-44.5" font-family="Helvetica" font-size="10.00">&lt; T &gt; &gt;</text>
</a>
</g>
</g>
<!-- Node6&#45;&gt;Node5 -->
<g id="edge6" class="edge">
<title>Node6&#45;&gt;Node5</title>
<path fill="none" stroke="midnightblue" d="M118.38,-63.32C127.82,-64.11 137.45,-64.92 146.61,-65.69"/>
<polygon fill="midnightblue" stroke="midnightblue" points="118.51,-59.82 108.25,-62.47 117.92,-66.79 118.51,-59.82"/>
</g>
</g>
</svg>
