<?xml version="1.0" encoding="UTF-8" standalone="no"?>
<!DOCTYPE svg PUBLIC "-//W3C//DTD SVG 1.1//EN"
 "http://www.w3.org/Graphics/SVG/1.1/DTD/svg11.dtd">
<!-- Generated by graphviz version 2.42.4 (0)
 -->
<!-- Title: CPS::Base::Ph1::Resistor Pages: 1 -->
<svg width="340pt" height="180pt"
 viewBox="0.00 0.00 340.00 180.00" xmlns="http://www.w3.org/2000/svg" xmlns:xlink="http://www.w3.org/1999/xlink">
<g id="graph0" class="graph" transform="scale(1 1) rotate(0) translate(4 176)">
<title>CPS::Base::Ph1::Resistor</title>
<!-- Node1 -->
<g id="node1" class="node">
<title>Node1</title>
<g id="a_node1"><a xlink:title=" ">
<polygon fill="#bfbfbf" stroke="black" points="0,-76.5 0,-95.5 135,-95.5 135,-76.5 0,-76.5"/>
<text text-anchor="middle" x="67.5" y="-83.5" font-family="Helvetica,sans-Serif" font-size="10.00">CPS::Base::Ph1::Resistor</text>
</a>
</g>
</g>
<!-- Node2 -->
<g id="node2" class="node">
<title>Node2</title>
<g id="a_node2"><a xlink:href="class_c_p_s_1_1_d_p_1_1_ph1_1_1_resistor.html" target="_top" xlink:title="Dynamic phasor resistor model.">
<polygon fill="none" stroke="black" points="189,-152.5 189,-171.5 314,-171.5 314,-152.5 189,-152.5"/>
<text text-anchor="middle" x="251.5" y="-159.5" font-family="Helvetica,sans-Serif" font-size="10.00">CPS::DP::Ph1::Resistor</text>
</a>
</g>
</g>
<!-- Node1&#45;&gt;Node2 -->
<g id="edge1" class="edge">
<title>Node1&#45;&gt;Node2</title>
<path fill="none" stroke="midnightblue" d="M91.32,-101.08C111.53,-113.84 142.2,-131.8 171,-143 180.52,-146.7 190.98,-149.83 201.09,-152.41"/>
<polygon fill="midnightblue" stroke="midnightblue" points="93.12,-98.08 82.82,-95.63 89.34,-103.97 93.12,-98.08"/>
</g>
<!-- Node3 -->
<g id="node3" class="node">
<title>Node3</title>
<g id="a_node3"><a xlink:href="class_c_p_s_1_1_d_p_1_1_ph3_1_1_series_resistor.html" target="_top" xlink:title=" ">
<polygon fill="none" stroke="black" points="174,-114.5 174,-133.5 329,-133.5 329,-114.5 174,-114.5"/>
<text text-anchor="middle" x="251.5" y="-121.5" font-family="Helvetica,sans-Serif" font-size="10.00">CPS::DP::Ph3::SeriesResistor</text>
</a>
</g>
</g>
<!-- Node1&#45;&gt;Node3 -->
<g id="edge2" class="edge">
<title>Node1&#45;&gt;Node3</title>
<path fill="none" stroke="midnightblue" d="M124.45,-97.68C150.26,-103.07 180.51,-109.39 204.9,-114.48"/>
<polygon fill="midnightblue" stroke="midnightblue" points="124.93,-94.21 114.43,-95.59 123.5,-101.06 124.93,-94.21"/>
</g>
<!-- Node4 -->
<g id="node4" class="node">
<title>Node4</title>
<g id="a_node4"><a xlink:href="class_c_p_s_1_1_e_m_t_1_1_ph1_1_1_resistor.html" target="_top" xlink:title="EMT Resistor.">
<polygon fill="none" stroke="black" points="186,-76.5 186,-95.5 317,-95.5 317,-76.5 186,-76.5"/>
<text text-anchor="middle" x="251.5" y="-83.5" font-family="Helvetica,sans-Serif" font-size="10.00">CPS::EMT::Ph1::Resistor</text>
</a>
</g>
</g>
<!-- Node1&#45;&gt;Node4 -->
<g id="edge3" class="edge">
<title>Node1&#45;&gt;Node4</title>
<path fill="none" stroke="midnightblue" d="M145.44,-86C158.91,-86 172.8,-86 185.9,-86"/>
<polygon fill="midnightblue" stroke="midnightblue" points="145.24,-82.5 135.24,-86 145.24,-89.5 145.24,-82.5"/>
</g>
<!-- Node5 -->
<g id="node5" class="node">
<title>Node5</title>
<g id="a_node5"><a xlink:href="class_c_p_s_1_1_e_m_t_1_1_ph3_1_1_series_resistor.html" target="_top" xlink:title="EMT three&#45;phase resistor.">
<polygon fill="none" stroke="black" points="171,-38.5 171,-57.5 332,-57.5 332,-38.5 171,-38.5"/>
<text text-anchor="middle" x="251.5" y="-45.5" font-family="Helvetica,sans-Serif" font-size="10.00">CPS::EMT::Ph3::SeriesResistor</text>
</a>
</g>
</g>
<!-- Node1&#45;&gt;Node5 -->
<g id="edge4" class="edge">
<title>Node1&#45;&gt;Node5</title>
<path fill="none" stroke="midnightblue" d="M124.45,-74.32C150.26,-68.93 180.51,-62.61 204.9,-57.52"/>
<polygon fill="midnightblue" stroke="midnightblue" points="123.5,-70.94 114.43,-76.41 124.93,-77.79 123.5,-70.94"/>
</g>
<!-- Node6 -->
<g id="node6" class="node">
<title>Node6</title>
<g id="a_node6"><a xlink:href="class_c_p_s_1_1_s_p_1_1_ph1_1_1_resistor.html" target="_top" xlink:title="Static phasor resistor model.">
<polygon fill="none" stroke="black" points="190,-0.5 190,-19.5 313,-19.5 313,-0.5 190,-0.5"/>
<text text-anchor="middle" x="251.5" y="-7.5" font-family="Helvetica,sans-Serif" font-size="10.00">CPS::SP::Ph1::Resistor</text>
</a>
</g>
</g>
<!-- Node1&#45;&gt;Node6 -->
<g id="edge5" class="edge">
<title>Node1&#45;&gt;Node6</title>
<path fill="none" stroke="midnightblue" d="M91.32,-70.92C111.53,-58.16 142.2,-40.2 171,-29 180.52,-25.3 190.98,-22.17 201.09,-19.59"/>
<polygon fill="midnightblue" stroke="midnightblue" points="89.34,-68.03 82.82,-76.37 93.12,-73.92 89.34,-68.03"/>
</g>
</g>
</svg>
