<?xml version="1.0" encoding="UTF-8" standalone="no"?>
<!DOCTYPE svg PUBLIC "-//W3C//DTD SVG 1.1//EN"
 "http://www.w3.org/Graphics/SVG/1.1/DTD/svg11.dtd">
<!-- Generated by graphviz version 2.50.0 (0)
 -->
<!-- Title: CPS::DP::Ph1::SynchronGeneratorIdeal Pages: 1 -->
<svg width="2303pt" height="458pt"
 viewBox="0.00 0.00 2303.00 457.85" xmlns="http://www.w3.org/2000/svg" xmlns:xlink="http://www.w3.org/1999/xlink">
<g id="graph0" class="graph" transform="scale(1 1) rotate(0) translate(4 453.85)">
<title>CPS::DP::Ph1::SynchronGeneratorIdeal</title>
<!-- Node1 -->
<g id="node1" class="node">
<title>Node1</title>
<g id="a_node1"><a xlink:title="Ideal voltage source representing a synchronous generator.">
<polygon fill="#bfbfbf" stroke="black" points="2120,-54.88 2120,-84.88 2295,-84.88 2295,-54.88 2120,-54.88"/>
<text text-anchor="start" x="2128" y="-72.88" font-family="Helvetica,sans-Serif" font-size="10.00">CPS::DP::Ph1::SynchronGenerator</text>
<text text-anchor="middle" x="2207.5" y="-61.88" font-family="Helvetica,sans-Serif" font-size="10.00">Ideal</text>
</a>
</g>
</g>
<!-- Node2 -->
<g id="node2" class="node">
<title>Node2</title>
<g id="a_node2"><a xlink:href="class_c_p_s_1_1_composite_power_comp.html" target="_top" xlink:title=" ">
<polygon fill="none" stroke="black" points="1918.5,-98.88 1918.5,-128.88 2064.5,-128.88 2064.5,-98.88 1918.5,-98.88"/>
<text text-anchor="start" x="1926.5" y="-116.88" font-family="Helvetica,sans-Serif" font-size="10.00">CPS::CompositePowerComp</text>
<text text-anchor="middle" x="1991.5" y="-105.88" font-family="Helvetica,sans-Serif" font-size="10.00">&lt; Complex &gt;</text>
</a>
</g>
</g>
<!-- Node2&#45;&gt;Node1 -->
<g id="edge1" class="edge">
<title>Node2&#45;&gt;Node1</title>
<path fill="none" stroke="midnightblue" d="M2074.62,-97C2093.91,-93.03 2114.33,-88.83 2133.2,-84.95"/>
<polygon fill="midnightblue" stroke="midnightblue" points="2073.74,-93.6 2064.65,-99.05 2075.15,-100.46 2073.74,-93.6"/>
</g>
<!-- Node3 -->
<g id="node3" class="node">
<title>Node3</title>
<g id="a_node3"><a xlink:href="class_c_p_s_1_1_m_n_a_sim_power_comp.html" target="_top" xlink:title=" ">
<polygon fill="none" stroke="black" points="1588.5,-170.88 1588.5,-200.88 1725.5,-200.88 1725.5,-170.88 1588.5,-170.88"/>
<text text-anchor="start" x="1596.5" y="-188.88" font-family="Helvetica,sans-Serif" font-size="10.00">CPS::MNASimPowerComp</text>
<text text-anchor="middle" x="1657" y="-177.88" font-family="Helvetica,sans-Serif" font-size="10.00">&lt; Complex &gt;</text>
</a>
</g>
</g>
<!-- Node3&#45;&gt;Node2 -->
<g id="edge2" class="edge">
<title>Node3&#45;&gt;Node2</title>
<path fill="none" stroke="midnightblue" d="M1735.59,-169.08C1791.76,-156.92 1867.03,-140.62 1921.19,-128.89"/>
<polygon fill="midnightblue" stroke="midnightblue" points="1734.72,-165.69 1725.69,-171.22 1736.2,-172.53 1734.72,-165.69"/>
</g>
<!-- Node4 -->
<g id="node4" class="node">
<title>Node4</title>
<g id="a_node4"><a xlink:href="class_c_p_s_1_1_sim_power_comp.html" target="_top" xlink:title=" ">
<polygon fill="none" stroke="black" points="1361,-276.88 1361,-306.88 1480,-306.88 1480,-276.88 1361,-276.88"/>
<text text-anchor="start" x="1369" y="-294.88" font-family="Helvetica,sans-Serif" font-size="10.00">CPS::SimPowerComp&lt;</text>
<text text-anchor="middle" x="1420.5" y="-283.88" font-family="Helvetica,sans-Serif" font-size="10.00"> Complex &gt;</text>
</a>
</g>
</g>
<!-- Node4&#45;&gt;Node3 -->
<g id="edge3" class="edge">
<title>Node4&#45;&gt;Node3</title>
<path fill="none" stroke="midnightblue" d="M1490.25,-278.92C1514.88,-272.84 1542.37,-264.35 1566,-252.88 1594.22,-239.19 1622.54,-216.22 1639.67,-201.06"/>
<polygon fill="midnightblue" stroke="midnightblue" points="1489.17,-275.58 1480.25,-281.29 1490.79,-282.39 1489.17,-275.58"/>
</g>
<!-- Node5 -->
<g id="node5" class="node">
<title>Node5</title>
<g id="a_node5"><a xlink:href="class_c_p_s_1_1_topological_power_comp.html" target="_top" xlink:title=" ">
<polygon fill="none" stroke="black" points="883,-332.38 883,-351.38 1031,-351.38 1031,-332.38 883,-332.38"/>
<text text-anchor="middle" x="957" y="-339.38" font-family="Helvetica,sans-Serif" font-size="10.00">CPS::TopologicalPowerComp</text>
</a>
</g>
</g>
<!-- Node5&#45;&gt;Node4 -->
<g id="edge4" class="edge">
<title>Node5&#45;&gt;Node4</title>
<path fill="none" stroke="midnightblue" d="M1041.12,-336.8C1117.52,-331.5 1233.78,-321.85 1334,-306.88 1342.64,-305.59 1351.76,-304.11 1360.69,-302.6"/>
<polygon fill="midnightblue" stroke="midnightblue" points="1040.81,-333.31 1031.07,-337.49 1041.29,-340.3 1040.81,-333.31"/>
</g>
<!-- Node12 -->
<g id="node12" class="node">
<title>Node12</title>
<g id="a_node12"><a xlink:href="class_c_p_s_1_1_sim_power_comp.html" target="_top" xlink:title="Base class for all components that are transmitting power.">
<polygon fill="none" stroke="black" points="1134,-276.88 1134,-306.88 1253,-306.88 1253,-276.88 1134,-276.88"/>
<text text-anchor="start" x="1142" y="-294.88" font-family="Helvetica,sans-Serif" font-size="10.00">CPS::SimPowerComp&lt;</text>
<text text-anchor="middle" x="1193.5" y="-283.88" font-family="Helvetica,sans-Serif" font-size="10.00"> VarType &gt;</text>
</a>
</g>
</g>
<!-- Node5&#45;&gt;Node12 -->
<g id="edge13" class="edge">
<title>Node5&#45;&gt;Node12</title>
<path fill="none" stroke="midnightblue" d="M1012.59,-330.24C1048.93,-322.49 1096.65,-312.32 1133.81,-304.4"/>
<polygon fill="midnightblue" stroke="midnightblue" points="1011.71,-326.85 1002.66,-332.36 1013.17,-333.7 1011.71,-326.85"/>
</g>
<!-- Node6 -->
<g id="node6" class="node">
<title>Node6</title>
<g id="a_node6"><a xlink:href="class_c_p_s_1_1_identified_object.html" target="_top" xlink:title=" ">
<polygon fill="none" stroke="black" points="666,-336.38 666,-355.38 782,-355.38 782,-336.38 666,-336.38"/>
<text text-anchor="middle" x="724" y="-343.38" font-family="Helvetica,sans-Serif" font-size="10.00">CPS::IdentifiedObject</text>
</a>
</g>
</g>
<!-- Node6&#45;&gt;Node5 -->
<g id="edge5" class="edge">
<title>Node6&#45;&gt;Node5</title>
<path fill="none" stroke="midnightblue" d="M792.34,-344.71C820.77,-344.22 853.94,-343.65 882.96,-343.15"/>
<polygon fill="midnightblue" stroke="midnightblue" points="792.04,-341.22 782.1,-344.89 792.16,-348.22 792.04,-341.22"/>
</g>
<!-- Node7 -->
<g id="node7" class="node">
<title>Node7</title>
<g id="a_node7"><a xlink:href="class_c_p_s_1_1_attribute.html" target="_top" xlink:title=" ">
<polygon fill="none" stroke="black" points="457,-345.38 457,-364.38 584,-364.38 584,-345.38 457,-345.38"/>
<text text-anchor="middle" x="520.5" y="-352.38" font-family="Helvetica,sans-Serif" font-size="10.00">CPS::Attribute&lt; String &gt;</text>
</a>
</g>
</g>
<!-- Node7&#45;&gt;Node6 -->
<g id="edge6" class="edge">
<title>Node7&#45;&gt;Node6</title>
<path fill="none" stroke="#9a32cd" stroke-dasharray="5,2" d="M594.43,-351.62C617.95,-350.57 643.66,-349.42 665.87,-348.43"/>
<polygon fill="#9a32cd" stroke="#9a32cd" points="593.99,-348.14 584.15,-352.08 594.3,-355.13 593.99,-348.14"/>
<text text-anchor="middle" x="628" y="-364.88" font-family="Helvetica,sans-Serif" font-size="10.00"> mName</text>
<text text-anchor="middle" x="628" y="-353.88" font-family="Helvetica,sans-Serif" font-size="10.00">mUID</text>
</g>
<!-- Node8 -->
<g id="node8" class="node">
<title>Node8</title>
<g id="a_node8"><a xlink:href="class_c_p_s_1_1_attribute_base.html" target="_top" xlink:title=" ">
<polygon fill="none" stroke="black" points="5.5,-206.38 5.5,-225.38 110.5,-225.38 110.5,-206.38 5.5,-206.38"/>
<text text-anchor="middle" x="58" y="-213.38" font-family="Helvetica,sans-Serif" font-size="10.00">CPS::AttributeBase</text>
</a>
</g>
</g>
<!-- Node8&#45;&gt;Node7 -->
<g id="edge7" class="edge">
<title>Node8&#45;&gt;Node7</title>
<path fill="none" stroke="midnightblue" d="M61.1,-235.55C66.86,-278.36 87.13,-379.53 153,-421.88 270.8,-497.61 451.48,-397.33 504.43,-364.58"/>
<polygon fill="midnightblue" stroke="midnightblue" points="64.57,-235.06 59.88,-225.56 57.62,-235.91 64.57,-235.06"/>
</g>
<!-- Node10 -->
<g id="node10" class="node">
<title>Node10</title>
<g id="a_node10"><a xlink:href="class_c_p_s_1_1_attribute.html" target="_top" xlink:title=" ">
<polygon fill="none" stroke="black" points="172,-168.38 172,-187.38 276,-187.38 276,-168.38 172,-168.38"/>
<text text-anchor="middle" x="224" y="-175.38" font-family="Helvetica,sans-Serif" font-size="10.00">CPS::Attribute&lt; T &gt;</text>
</a>
</g>
</g>
<!-- Node8&#45;&gt;Node10 -->
<g id="edge10" class="edge">
<title>Node8&#45;&gt;Node10</title>
<path fill="none" stroke="midnightblue" d="M110.34,-203.98C133.39,-198.64 160.22,-192.43 181.91,-187.4"/>
<polygon fill="midnightblue" stroke="midnightblue" points="109.34,-200.63 100.38,-206.29 110.92,-207.44 109.34,-200.63"/>
</g>
<!-- Node13 -->
<g id="node13" class="node">
<title>Node13</title>
<g id="a_node13"><a xlink:href="class_c_p_s_1_1_attribute.html" target="_top" xlink:title=" ">
<polygon fill="none" stroke="black" points="452,-289.88 452,-319.88 589,-319.88 589,-289.88 452,-289.88"/>
<text text-anchor="start" x="460" y="-307.88" font-family="Helvetica,sans-Serif" font-size="10.00">CPS::Attribute&lt; MatrixVar</text>
<text text-anchor="middle" x="520.5" y="-296.88" font-family="Helvetica,sans-Serif" font-size="10.00">&lt; VarType &gt; &gt;</text>
</a>
</g>
</g>
<!-- Node8&#45;&gt;Node13 -->
<g id="edge15" class="edge">
<title>Node8&#45;&gt;Node13</title>
<path fill="none" stroke="midnightblue" d="M93,-229.01C141.15,-246.95 232.32,-278.52 313,-292.88 358.78,-301.03 411.09,-304.01 451.6,-304.96"/>
<polygon fill="midnightblue" stroke="midnightblue" points="93.99,-225.64 83.4,-225.4 91.53,-232.2 93.99,-225.64"/>
</g>
<!-- Node16 -->
<g id="node16" class="node">
<title>Node16</title>
<g id="a_node16"><a xlink:href="class_c_p_s_1_1_attribute.html" target="_top" xlink:title=" ">
<polygon fill="none" stroke="black" points="456,-179.38 456,-198.38 585,-198.38 585,-179.38 456,-179.38"/>
<text text-anchor="middle" x="520.5" y="-186.38" font-family="Helvetica,sans-Serif" font-size="10.00">CPS::Attribute&lt; Matrix &gt;</text>
</a>
</g>
</g>
<!-- Node8&#45;&gt;Node16 -->
<g id="edge20" class="edge">
<title>Node8&#45;&gt;Node16</title>
<path fill="none" stroke="midnightblue" d="M120.61,-214.83C194.83,-213.19 323.22,-209.19 433,-199.88 440.39,-199.25 448.12,-198.46 455.79,-197.6"/>
<polygon fill="midnightblue" stroke="midnightblue" points="120.43,-211.33 110.51,-215.04 120.58,-218.33 120.43,-211.33"/>
</g>
<!-- Node22 -->
<g id="node22" class="node">
<title>Node22</title>
<g id="a_node22"><a xlink:href="class_c_p_s_1_1_attribute.html" target="_top" xlink:title=" ">
<polygon fill="none" stroke="black" points="451,-59.38 451,-78.38 590,-78.38 590,-59.38 451,-59.38"/>
<text text-anchor="middle" x="520.5" y="-66.38" font-family="Helvetica,sans-Serif" font-size="10.00">CPS::Attribute&lt; Complex &gt;</text>
</a>
</g>
</g>
<!-- Node8&#45;&gt;Node22 -->
<g id="edge32" class="edge">
<title>Node8&#45;&gt;Node22</title>
<path fill="none" stroke="midnightblue" d="M110.76,-200.75C112.64,-199.27 114.4,-197.66 116,-195.88 163.94,-142.57 96.79,-83.38 153,-38.88 259.36,45.33 441.68,-30.93 500.56,-59.28"/>
<polygon fill="midnightblue" stroke="midnightblue" points="108.45,-198.06 101.82,-206.33 112.16,-204 108.45,-198.06"/>
</g>
<!-- Node9 -->
<g id="node9" class="node">
<title>Node9</title>
<g id="a_node9"><a xlink:title=" ">
<polygon fill="none" stroke="#bfbfbf" points="166,-371.38 166,-412.38 282,-412.38 282,-371.38 166,-371.38"/>
<text text-anchor="start" x="174" y="-400.38" font-family="Helvetica,sans-Serif" font-size="10.00">std::enable_shared</text>
<text text-anchor="start" x="174" y="-389.38" font-family="Helvetica,sans-Serif" font-size="10.00">_from_this&lt; Attribute</text>
<text text-anchor="middle" x="224" y="-378.38" font-family="Helvetica,sans-Serif" font-size="10.00">&lt; String &gt; &gt;</text>
</a>
</g>
</g>
<!-- Node9&#45;&gt;Node7 -->
<g id="edge8" class="edge">
<title>Node9&#45;&gt;Node7</title>
<path fill="none" stroke="midnightblue" d="M292.11,-383.45C341.62,-377.23 408.52,-368.82 456.92,-362.74"/>
<polygon fill="midnightblue" stroke="midnightblue" points="291.62,-379.98 282.13,-384.7 292.49,-386.93 291.62,-379.98"/>
</g>
<!-- Node10&#45;&gt;Node7 -->
<g id="edge9" class="edge">
<title>Node10&#45;&gt;Node7</title>
<path fill="none" stroke="orange" stroke-dasharray="5,2" d="M240.67,-194.78C257.45,-212.25 285.39,-239.6 313,-258.88 369.55,-298.37 387.81,-302.23 451,-329.88 463.87,-335.52 478.46,-340.96 490.86,-345.33"/>
<polygon fill="orange" stroke="orange" points="243.21,-192.37 233.79,-187.52 238.13,-197.18 243.21,-192.37"/>
<text text-anchor="middle" x="373" y="-322.88" font-family="Helvetica,sans-Serif" font-size="10.00"> &lt; String &gt;</text>
</g>
<!-- Node10&#45;&gt;Node13 -->
<g id="edge17" class="edge">
<title>Node10&#45;&gt;Node13</title>
<path fill="none" stroke="orange" stroke-dasharray="5,2" d="M272.63,-190.12C315.7,-202.06 380.26,-222.17 433,-247.88 457.25,-259.7 482.78,-277.24 499.76,-289.74"/>
<polygon fill="orange" stroke="orange" points="273.54,-186.74 262.97,-187.48 271.69,-193.49 273.54,-186.74"/>
<text text-anchor="middle" x="373" y="-250.88" font-family="Helvetica,sans-Serif" font-size="10.00"> &lt; MatrixVar&lt; VarType &gt; &gt;</text>
</g>
<!-- Node10&#45;&gt;Node16 -->
<g id="edge22" class="edge">
<title>Node10&#45;&gt;Node16</title>
<path fill="none" stroke="orange" stroke-dasharray="5,2" d="M286.58,-180.18C336.23,-182.04 405.81,-184.63 455.97,-186.51"/>
<polygon fill="orange" stroke="orange" points="286.42,-176.67 276.3,-179.8 286.16,-183.67 286.42,-176.67"/>
<text text-anchor="middle" x="373" y="-187.88" font-family="Helvetica,sans-Serif" font-size="10.00"> &lt; Matrix &gt;</text>
</g>
<!-- Node10&#45;&gt;Node22 -->
<g id="edge34" class="edge">
<title>Node10&#45;&gt;Node22</title>
<path fill="none" stroke="orange" stroke-dasharray="5,2" d="M273.26,-165.57C280.58,-163.48 288.02,-161.22 295,-158.88 371.05,-133.41 458.59,-95.85 498.14,-78.42"/>
<polygon fill="orange" stroke="orange" points="272.08,-162.27 263.39,-168.32 273.96,-169.01 272.08,-162.27"/>
<text text-anchor="middle" x="373" y="-154.88" font-family="Helvetica,sans-Serif" font-size="10.00"> &lt; Complex &gt;</text>
</g>
<!-- Node11 -->
<g id="node11" class="node">
<title>Node11</title>
<g id="a_node11"><a xlink:title=" ">
<polygon fill="none" stroke="#bfbfbf" points="0,-145.38 0,-186.38 116,-186.38 116,-145.38 0,-145.38"/>
<text text-anchor="start" x="8" y="-174.38" font-family="Helvetica,sans-Serif" font-size="10.00">std::enable_shared</text>
<text text-anchor="start" x="8" y="-163.38" font-family="Helvetica,sans-Serif" font-size="10.00">_from_this&lt; Attribute</text>
<text text-anchor="middle" x="58" y="-152.38" font-family="Helvetica,sans-Serif" font-size="10.00">&lt; T &gt; &gt;</text>
</a>
</g>
</g>
<!-- Node11&#45;&gt;Node10 -->
<g id="edge11" class="edge">
<title>Node11&#45;&gt;Node10</title>
<path fill="none" stroke="midnightblue" d="M126.7,-170.83C141.84,-171.94 157.64,-173.1 171.97,-174.15"/>
<polygon fill="midnightblue" stroke="midnightblue" points="126.59,-167.32 116.36,-170.08 126.08,-174.3 126.59,-167.32"/>
</g>
<!-- Node12&#45;&gt;Node4 -->
<g id="edge12" class="edge">
<title>Node12&#45;&gt;Node4</title>
<path fill="none" stroke="orange" stroke-dasharray="5,2" d="M1263.38,-291.88C1294.56,-291.88 1331.03,-291.88 1360.87,-291.88"/>
<polygon fill="orange" stroke="orange" points="1263.03,-288.38 1253.03,-291.88 1263.03,-295.38 1263.03,-288.38"/>
<text text-anchor="middle" x="1302.5" y="-294.88" font-family="Helvetica,sans-Serif" font-size="10.00"> &lt; Complex &gt;</text>
</g>
<!-- Node18 -->
<g id="node18" class="node">
<title>Node18</title>
<g id="a_node18"><a xlink:href="class_c_p_s_1_1_m_n_a_sim_power_comp.html" target="_top" xlink:title="Base class for all MNA components that are transmitting power.">
<polygon fill="none" stroke="black" points="1352,-170.88 1352,-200.88 1489,-200.88 1489,-170.88 1352,-170.88"/>
<text text-anchor="start" x="1360" y="-188.88" font-family="Helvetica,sans-Serif" font-size="10.00">CPS::MNASimPowerComp</text>
<text text-anchor="middle" x="1420.5" y="-177.88" font-family="Helvetica,sans-Serif" font-size="10.00">&lt; VarType &gt;</text>
</a>
</g>
</g>
<!-- Node12&#45;&gt;Node18 -->
<g id="edge24" class="edge">
<title>Node12&#45;&gt;Node18</title>
<path fill="none" stroke="midnightblue" d="M1235.94,-272.36C1279.62,-251.78 1347.5,-219.8 1387.32,-201.04"/>
<polygon fill="midnightblue" stroke="midnightblue" points="1234.29,-269.27 1226.74,-276.69 1237.28,-275.6 1234.29,-269.27"/>
</g>
<!-- Node13&#45;&gt;Node12 -->
<g id="edge14" class="edge">
<title>Node13&#45;&gt;Node12</title>
<path fill="none" stroke="#9a32cd" stroke-dasharray="5,2" d="M599.56,-303.37C735.55,-300.73 1012.97,-295.36 1133.92,-293.02"/>
<polygon fill="#9a32cd" stroke="#9a32cd" points="599.15,-299.88 589.22,-303.57 599.29,-306.87 599.15,-299.88"/>
<text text-anchor="middle" x="832.5" y="-312.88" font-family="Helvetica,sans-Serif" font-size="10.00"> mIntfCurrent</text>
<text text-anchor="middle" x="832.5" y="-301.88" font-family="Helvetica,sans-Serif" font-size="10.00">mIntfVoltage</text>
</g>
<!-- Node14 -->
<g id="node14" class="node">
<title>Node14</title>
<g id="a_node14"><a xlink:title=" ">
<polygon fill="none" stroke="#bfbfbf" points="153,-311.38 153,-352.38 295,-352.38 295,-311.38 153,-311.38"/>
<text text-anchor="start" x="161" y="-340.38" font-family="Helvetica,sans-Serif" font-size="10.00">std::enable_shared</text>
<text text-anchor="start" x="161" y="-329.38" font-family="Helvetica,sans-Serif" font-size="10.00">_from_this&lt; Attribute</text>
<text text-anchor="middle" x="224" y="-318.38" font-family="Helvetica,sans-Serif" font-size="10.00">&lt; MatrixVar&lt; VarType &gt; &gt; &gt;</text>
</a>
</g>
</g>
<!-- Node14&#45;&gt;Node13 -->
<g id="edge16" class="edge">
<title>Node14&#45;&gt;Node13</title>
<path fill="none" stroke="midnightblue" d="M305.55,-328C344.17,-325.75 391.05,-322.44 433,-317.88 439.04,-317.23 445.3,-316.46 451.57,-315.63"/>
<polygon fill="midnightblue" stroke="midnightblue" points="305.19,-324.52 295.41,-328.58 305.59,-331.5 305.19,-324.52"/>
</g>
<!-- Node15 -->
<g id="node15" class="node">
<title>Node15</title>
<g id="a_node15"><a xlink:href="class_c_p_s_1_1_m_n_a_interface.html" target="_top" xlink:title="Interface to be implemented by all models used by the MNA solver.">
<polygon fill="none" stroke="black" points="1140,-135.38 1140,-154.38 1247,-154.38 1247,-135.38 1140,-135.38"/>
<text text-anchor="middle" x="1193.5" y="-142.38" font-family="Helvetica,sans-Serif" font-size="10.00">CPS::MNAInterface</text>
</a>
</g>
</g>
<!-- Node15&#45;&gt;Node3 -->
<g id="edge18" class="edge">
<title>Node15&#45;&gt;Node3</title>
<path fill="none" stroke="midnightblue" d="M1257.03,-146.95C1316.73,-149.28 1409.16,-153.85 1489,-161.88 1521.79,-165.18 1558.01,-170.21 1588.31,-174.82"/>
<polygon fill="midnightblue" stroke="midnightblue" points="1257.13,-143.45 1247.01,-146.56 1256.87,-150.44 1257.13,-143.45"/>
</g>
<!-- Node15&#45;&gt;Node18 -->
<g id="edge25" class="edge">
<title>Node15&#45;&gt;Node18</title>
<path fill="none" stroke="midnightblue" d="M1256.86,-156.24C1286.36,-161.62 1321.65,-168.05 1351.8,-173.54"/>
<polygon fill="midnightblue" stroke="midnightblue" points="1257.15,-152.74 1246.69,-154.39 1255.9,-159.63 1257.15,-152.74"/>
</g>
<!-- Node16&#45;&gt;Node3 -->
<g id="edge19" class="edge">
<title>Node16&#45;&gt;Node3</title>
<path fill="none" stroke="#9a32cd" stroke-dasharray="5,2" d="M553.89,-202.09C593.2,-216.9 661.82,-238.88 723,-238.88 723,-238.88 723,-238.88 1421.5,-238.88 1490.79,-238.88 1568.82,-216.6 1615.12,-200.93"/>
<polygon fill="#9a32cd" stroke="#9a32cd" points="554.9,-198.73 544.31,-198.4 552.39,-205.26 554.9,-198.73"/>
<text text-anchor="middle" x="1082.5" y="-241.88" font-family="Helvetica,sans-Serif" font-size="10.00"> mRightVector</text>
</g>
<!-- Node16&#45;&gt;Node18 -->
<g id="edge26" class="edge">
<title>Node16&#45;&gt;Node18</title>
<path fill="none" stroke="#9a32cd" stroke-dasharray="5,2" d="M595.03,-188.88C633.21,-188.88 680.61,-188.88 723,-188.88 723,-188.88 723,-188.88 1194.5,-188.88 1247.24,-188.88 1306.93,-188.05 1351.57,-187.26"/>
<polygon fill="#9a32cd" stroke="#9a32cd" points="595.03,-185.38 585.03,-188.88 595.03,-192.38 595.03,-185.38"/>
<text text-anchor="middle" x="957" y="-191.88" font-family="Helvetica,sans-Serif" font-size="10.00"> mRightVector</text>
</g>
<!-- Node17 -->
<g id="node17" class="node">
<title>Node17</title>
<g id="a_node17"><a xlink:title=" ">
<polygon fill="none" stroke="#bfbfbf" points="166,-108.38 166,-149.38 282,-149.38 282,-108.38 166,-108.38"/>
<text text-anchor="start" x="174" y="-137.38" font-family="Helvetica,sans-Serif" font-size="10.00">std::enable_shared</text>
<text text-anchor="start" x="174" y="-126.38" font-family="Helvetica,sans-Serif" font-size="10.00">_from_this&lt; Attribute</text>
<text text-anchor="middle" x="224" y="-115.38" font-family="Helvetica,sans-Serif" font-size="10.00">&lt; Matrix &gt; &gt;</text>
</a>
</g>
</g>
<!-- Node17&#45;&gt;Node16 -->
<g id="edge21" class="edge">
<title>Node17&#45;&gt;Node16</title>
<path fill="none" stroke="midnightblue" d="M292.33,-122.01C333.77,-119.93 387.47,-121.12 433,-134.88 463,-143.95 492.86,-166.29 508.44,-179.22"/>
<polygon fill="midnightblue" stroke="midnightblue" points="292.13,-118.52 282.34,-122.59 292.53,-125.51 292.13,-118.52"/>
</g>
<!-- Node18&#45;&gt;Node3 -->
<g id="edge23" class="edge">
<title>Node18&#45;&gt;Node3</title>
<path fill="none" stroke="orange" stroke-dasharray="5,2" d="M1499.04,-185.88C1527.84,-185.88 1560.28,-185.88 1588.15,-185.88"/>
<polygon fill="orange" stroke="orange" points="1499.01,-182.38 1489.01,-185.88 1499.01,-189.38 1499.01,-182.38"/>
<text text-anchor="middle" x="1536.5" y="-188.88" font-family="Helvetica,sans-Serif" font-size="10.00"> &lt; Complex &gt;</text>
</g>
<!-- Node19 -->
<g id="node19" class="node">
<title>Node19</title>
<g id="a_node19"><a xlink:href="class_c_p_s_1_1_composite_power_comp.html" target="_top" xlink:title="Base class for composite power components.">
<polygon fill="none" stroke="black" points="1584,-98.88 1584,-128.88 1730,-128.88 1730,-98.88 1584,-98.88"/>
<text text-anchor="start" x="1592" y="-116.88" font-family="Helvetica,sans-Serif" font-size="10.00">CPS::CompositePowerComp</text>
<text text-anchor="middle" x="1657" y="-105.88" font-family="Helvetica,sans-Serif" font-size="10.00">&lt; VarType &gt;</text>
</a>
</g>
</g>
<!-- Node18&#45;&gt;Node19 -->
<g id="edge28" class="edge">
<title>Node18&#45;&gt;Node19</title>
<path fill="none" stroke="midnightblue" d="M1480.03,-167.91C1519.07,-155.92 1569.83,-140.34 1606.79,-128.99"/>
<polygon fill="midnightblue" stroke="midnightblue" points="1478.91,-164.59 1470.37,-170.88 1480.96,-171.29 1478.91,-164.59"/>
</g>
<!-- Node19&#45;&gt;Node2 -->
<g id="edge27" class="edge">
<title>Node19&#45;&gt;Node2</title>
<path fill="none" stroke="orange" stroke-dasharray="5,2" d="M1740.16,-113.88C1794.85,-113.88 1866.02,-113.88 1918.49,-113.88"/>
<polygon fill="orange" stroke="orange" points="1740.15,-110.38 1730.15,-113.88 1740.15,-117.38 1740.15,-110.38"/>
<text text-anchor="middle" x="1815" y="-116.88" font-family="Helvetica,sans-Serif" font-size="10.00"> &lt; Complex &gt;</text>
</g>
<!-- Node20 -->
<g id="node20" class="node">
<title>Node20</title>
<g id="a_node20"><a xlink:href="class_shared_factory.html" target="_top" xlink:title=" ">
<polygon fill="none" stroke="black" points="1900,-10.88 1900,-40.88 2083,-40.88 2083,-10.88 1900,-10.88"/>
<text text-anchor="start" x="1908" y="-28.88" font-family="Helvetica,sans-Serif" font-size="10.00">SharedFactory&lt; SynchronGenerator</text>
<text text-anchor="middle" x="1991.5" y="-17.88" font-family="Helvetica,sans-Serif" font-size="10.00">Ideal &gt;</text>
</a>
</g>
</g>
<!-- Node20&#45;&gt;Node1 -->
<g id="edge29" class="edge">
<title>Node20&#45;&gt;Node1</title>
<path fill="none" stroke="midnightblue" d="M2075.43,-42.93C2094.55,-46.86 2114.75,-51.02 2133.42,-54.85"/>
<polygon fill="midnightblue" stroke="midnightblue" points="2076.05,-39.49 2065.55,-40.9 2074.64,-46.34 2076.05,-39.49"/>
</g>
<!-- Node21 -->
<g id="node21" class="node">
<title>Node21</title>
<g id="a_node21"><a xlink:href="class_shared_factory.html" target="_top" xlink:title=" ">
<polygon fill="none" stroke="black" points="1604.5,-16.38 1604.5,-35.38 1709.5,-35.38 1709.5,-16.38 1604.5,-16.38"/>
<text text-anchor="middle" x="1657" y="-23.38" font-family="Helvetica,sans-Serif" font-size="10.00">SharedFactory&lt; T &gt;</text>
</a>
</g>
</g>
<!-- Node21&#45;&gt;Node20 -->
<g id="edge30" class="edge">
<title>Node21&#45;&gt;Node20</title>
<path fill="none" stroke="orange" stroke-dasharray="5,2" d="M1719.73,-25.88C1770.34,-25.88 1842.7,-25.88 1899.88,-25.88"/>
<polygon fill="orange" stroke="orange" points="1719.59,-22.38 1709.59,-25.88 1719.59,-29.38 1719.59,-22.38"/>
<text text-anchor="middle" x="1815" y="-28.88" font-family="Helvetica,sans-Serif" font-size="10.00"> &lt; SynchronGeneratorIdeal &gt;</text>
</g>
<!-- Node22&#45;&gt;Node1 -->
<g id="edge31" class="edge">
<title>Node22&#45;&gt;Node1</title>
<path fill="none" stroke="#9a32cd" stroke-dasharray="5,2" d="M600.33,-69.45C637.53,-69.68 682.55,-69.88 723,-69.88 723,-69.88 723,-69.88 1992.5,-69.88 2034.39,-69.88 2080.89,-69.88 2119.82,-69.88"/>
<polygon fill="#9a32cd" stroke="#9a32cd" points="600.07,-65.95 590.05,-69.39 600.03,-72.95 600.07,-65.95"/>
<text text-anchor="middle" x="1302.5" y="-72.88" font-family="Helvetica,sans-Serif" font-size="10.00"> mVoltageRef</text>
</g>
<!-- Node23 -->
<g id="node23" class="node">
<title>Node23</title>
<g id="a_node23"><a xlink:title=" ">
<polygon fill="none" stroke="#bfbfbf" points="166,-48.38 166,-89.38 282,-89.38 282,-48.38 166,-48.38"/>
<text text-anchor="start" x="174" y="-77.38" font-family="Helvetica,sans-Serif" font-size="10.00">std::enable_shared</text>
<text text-anchor="start" x="174" y="-66.38" font-family="Helvetica,sans-Serif" font-size="10.00">_from_this&lt; Attribute</text>
<text text-anchor="middle" x="224" y="-55.38" font-family="Helvetica,sans-Serif" font-size="10.00">&lt; Complex &gt; &gt;</text>
</a>
</g>
</g>
<!-- Node23&#45;&gt;Node22 -->
<g id="edge33" class="edge">
<title>Node23&#45;&gt;Node22</title>
<path fill="none" stroke="midnightblue" d="M292.31,-68.88C339.77,-68.88 403.13,-68.88 450.88,-68.88"/>
<polygon fill="midnightblue" stroke="midnightblue" points="292.13,-65.38 282.13,-68.88 292.13,-72.38 292.13,-65.38"/>
</g>
</g>
</svg>
