<?xml version="1.0" encoding="UTF-8" standalone="no"?>
<!DOCTYPE svg PUBLIC "-//W3C//DTD SVG 1.1//EN"
 "http://www.w3.org/Graphics/SVG/1.1/DTD/svg11.dtd">
<!-- Generated by graphviz version 2.44.0 (0)
 -->
<!-- Title: CPS::DP::Ph1::SynchronGeneratorVBR Pages: 1 -->
<svg width="1587pt" height="193pt"
 viewBox="0.00 0.00 1587.00 193.00" xmlns="http://www.w3.org/2000/svg" xmlns:xlink="http://www.w3.org/1999/xlink">
<g id="graph0" class="graph" transform="scale(1 1) rotate(0) translate(4 189)">
<title>CPS::DP::Ph1::SynchronGeneratorVBR</title>
<!-- Node1 -->
<g id="node1" class="node">
<title>Node1</title>
<g id="a_node1"><a xlink:title="Base class for DP VBR synchronous generator model single phase.">
<polygon fill="#bfbfbf" stroke="black" points="1168,-79 1168,-98 1360,-98 1360,-79 1168,-79"/>
<text text-anchor="middle" x="1264" y="-86" font-family="Helvetica" font-size="10.00">CPS::DP::Ph1::SynchronGeneratorVBR</text>
</a>
</g>
</g>
<!-- Node11 -->
<g id="node11" class="node">
<title>Node11</title>
<g id="a_node11"><a xlink:href="class_c_p_s_1_1_d_p_1_1_ph1_1_1_synchron_generator3_order_v_b_r.html" target="_top" xlink:title="Voltage&#45;Behind&#45;Reactance (VBR) implementation of 3rd order synchronous generator model.">
<polygon fill="none" stroke="black" points="1400,-147.5 1400,-177.5 1576,-177.5 1576,-147.5 1400,-147.5"/>
<text text-anchor="start" x="1408" y="-165.5" font-family="Helvetica" font-size="10.00">CPS::DP::Ph1::SynchronGenerator3</text>
<text text-anchor="middle" x="1488" y="-154.5" font-family="Helvetica" font-size="10.00">OrderVBR</text>
</a>
</g>
</g>
<!-- Node1&#45;&gt;Node11 -->
<g id="edge14" class="edge">
<title>Node1&#45;&gt;Node11</title>
<path fill="none" stroke="midnightblue" d="M1298.68,-101.9C1325.19,-112.23 1363.18,-126.55 1397,-137.5 1407.65,-140.95 1419.09,-144.35 1430.13,-147.49"/>
<polygon fill="midnightblue" stroke="midnightblue" points="1299.7,-98.54 1289.11,-98.15 1297.15,-105.06 1299.7,-98.54"/>
</g>
<!-- Node12 -->
<g id="node12" class="node">
<title>Node12</title>
<g id="a_node12"><a xlink:href="class_c_p_s_1_1_d_p_1_1_ph1_1_1_synchron_generator4_order_v_b_r.html" target="_top" xlink:title="Voltage&#45;Behind&#45;Reactance (VBR) implementation of 4th order synchronous generator model.">
<polygon fill="none" stroke="black" points="1400,-98.5 1400,-128.5 1576,-128.5 1576,-98.5 1400,-98.5"/>
<text text-anchor="start" x="1408" y="-116.5" font-family="Helvetica" font-size="10.00">CPS::DP::Ph1::SynchronGenerator4</text>
<text text-anchor="middle" x="1488" y="-105.5" font-family="Helvetica" font-size="10.00">OrderVBR</text>
</a>
</g>
</g>
<!-- Node1&#45;&gt;Node12 -->
<g id="edge15" class="edge">
<title>Node1&#45;&gt;Node12</title>
<path fill="none" stroke="midnightblue" d="M1359.66,-99.16C1372.95,-100.66 1386.57,-102.19 1399.73,-103.67"/>
<polygon fill="midnightblue" stroke="midnightblue" points="1359.89,-95.66 1349.56,-98.02 1359.11,-102.62 1359.89,-95.66"/>
</g>
<!-- Node13 -->
<g id="node13" class="node">
<title>Node13</title>
<g id="a_node13"><a xlink:href="class_c_p_s_1_1_d_p_1_1_ph1_1_1_synchron_generator6a_order_v_b_r.html" target="_top" xlink:title="Voltage&#45;Behind&#45;Reactance (VBR) implementation of 6th order synchronous generator model Marconato&#39;s mo...">
<polygon fill="none" stroke="black" points="1397,-49.5 1397,-79.5 1579,-79.5 1579,-49.5 1397,-49.5"/>
<text text-anchor="start" x="1405" y="-67.5" font-family="Helvetica" font-size="10.00">CPS::DP::Ph1::SynchronGenerator6a</text>
<text text-anchor="middle" x="1488" y="-56.5" font-family="Helvetica" font-size="10.00">OrderVBR</text>
</a>
</g>
</g>
<!-- Node1&#45;&gt;Node13 -->
<g id="edge16" class="edge">
<title>Node1&#45;&gt;Node13</title>
<path fill="none" stroke="midnightblue" d="M1363.26,-77.88C1374.44,-76.67 1385.8,-75.44 1396.86,-74.24"/>
<polygon fill="midnightblue" stroke="midnightblue" points="1362.62,-74.43 1353.06,-78.98 1363.38,-81.38 1362.62,-74.43"/>
</g>
<!-- Node14 -->
<g id="node14" class="node">
<title>Node14</title>
<g id="a_node14"><a xlink:href="class_c_p_s_1_1_d_p_1_1_ph1_1_1_synchron_generator6b_order_v_b_r.html" target="_top" xlink:title="Voltage&#45;Behind&#45;Reactance (VBR) implementation of 6th order synchronous generator model Anderson &#45; Fou...">
<polygon fill="none" stroke="black" points="1397,-0.5 1397,-30.5 1579,-30.5 1579,-0.5 1397,-0.5"/>
<text text-anchor="start" x="1405" y="-18.5" font-family="Helvetica" font-size="10.00">CPS::DP::Ph1::SynchronGenerator6b</text>
<text text-anchor="middle" x="1488" y="-7.5" font-family="Helvetica" font-size="10.00">OrderVBR</text>
</a>
</g>
</g>
<!-- Node1&#45;&gt;Node14 -->
<g id="edge17" class="edge">
<title>Node1&#45;&gt;Node14</title>
<path fill="none" stroke="midnightblue" d="M1298.16,-75.19C1324.68,-64.8 1362.92,-50.34 1397,-39.5 1406.71,-36.41 1417.09,-33.39 1427.22,-30.59"/>
<polygon fill="midnightblue" stroke="midnightblue" points="1296.63,-72.04 1288.61,-78.96 1299.2,-78.55 1296.63,-72.04"/>
</g>
<!-- Node2 -->
<g id="node2" class="node">
<title>Node2</title>
<g id="a_node2"><a xlink:href="class_c_p_s_1_1_base_1_1_reduced_order_synchron_generator.html" target="_top" xlink:title=" ">
<polygon fill="none" stroke="black" points="955,-105.5 955,-135.5 1131,-135.5 1131,-105.5 955,-105.5"/>
<text text-anchor="start" x="963" y="-123.5" font-family="Helvetica" font-size="10.00">CPS::Base::ReducedOrderSynchron</text>
<text text-anchor="middle" x="1043" y="-112.5" font-family="Helvetica" font-size="10.00">Generator&lt; Complex &gt;</text>
</a>
</g>
</g>
<!-- Node2&#45;&gt;Node1 -->
<g id="edge1" class="edge">
<title>Node2&#45;&gt;Node1</title>
<path fill="none" stroke="midnightblue" d="M1141.14,-106.31C1160.28,-103.51 1179.93,-100.64 1197.72,-98.04"/>
<polygon fill="midnightblue" stroke="midnightblue" points="1140.57,-102.85 1131.18,-107.76 1141.58,-109.78 1140.57,-102.85"/>
</g>
<!-- Node3 -->
<g id="node3" class="node">
<title>Node3</title>
<g id="a_node3"><a xlink:href="class_c_p_s_1_1_sim_power_comp.html" target="_top" xlink:title=" ">
<polygon fill="none" stroke="black" points="710,-154.5 710,-184.5 830,-184.5 830,-154.5 710,-154.5"/>
<text text-anchor="start" x="718" y="-172.5" font-family="Helvetica" font-size="10.00">CPS::SimPowerComp&lt;</text>
<text text-anchor="middle" x="770" y="-161.5" font-family="Helvetica" font-size="10.00"> Complex &gt;</text>
</a>
</g>
</g>
<!-- Node3&#45;&gt;Node2 -->
<g id="edge2" class="edge">
<title>Node3&#45;&gt;Node2</title>
<path fill="none" stroke="midnightblue" d="M840.1,-157.01C876.26,-150.47 920.79,-142.42 958.83,-135.54"/>
<polygon fill="midnightblue" stroke="midnightblue" points="839.35,-153.58 830.14,-158.81 840.6,-160.47 839.35,-153.58"/>
</g>
<!-- Node4 -->
<g id="node4" class="node">
<title>Node4</title>
<g id="a_node4"><a xlink:href="class_c_p_s_1_1_topological_power_comp.html" target="_top" xlink:title=" ">
<polygon fill="none" stroke="black" points="282,-132 282,-151 428,-151 428,-132 282,-132"/>
<text text-anchor="middle" x="355" y="-139" font-family="Helvetica" font-size="10.00">CPS::TopologicalPowerComp</text>
</a>
</g>
</g>
<!-- Node4&#45;&gt;Node3 -->
<g id="edge3" class="edge">
<title>Node4&#45;&gt;Node3</title>
<path fill="none" stroke="midnightblue" d="M399.99,-153.59C419.71,-158.49 443.36,-163.65 465,-166.5 549.51,-177.62 648.38,-175.9 709.86,-173.12"/>
<polygon fill="midnightblue" stroke="midnightblue" points="400.62,-150.13 390.06,-151.06 398.89,-156.92 400.62,-150.13"/>
</g>
<!-- Node7 -->
<g id="node7" class="node">
<title>Node7</title>
<g id="a_node7"><a xlink:href="class_c_p_s_1_1_sim_power_comp.html" target="_top" xlink:title="Base class for all components that are transmitting power.">
<polygon fill="none" stroke="black" points="465,-126.5 465,-156.5 585,-156.5 585,-126.5 465,-126.5"/>
<text text-anchor="start" x="473" y="-144.5" font-family="Helvetica" font-size="10.00">CPS::SimPowerComp&lt;</text>
<text text-anchor="middle" x="525" y="-133.5" font-family="Helvetica" font-size="10.00"> VarType &gt;</text>
</a>
</g>
</g>
<!-- Node4&#45;&gt;Node7 -->
<g id="edge7" class="edge">
<title>Node4&#45;&gt;Node7</title>
<path fill="none" stroke="midnightblue" d="M438.34,-141.5C447.34,-141.5 456.36,-141.5 464.99,-141.5"/>
<polygon fill="midnightblue" stroke="midnightblue" points="438.22,-138 428.22,-141.5 438.22,-145 438.22,-138"/>
</g>
<!-- Node5 -->
<g id="node5" class="node">
<title>Node5</title>
<g id="a_node5"><a xlink:href="class_c_p_s_1_1_identified_object.html" target="_top" xlink:title=" ">
<polygon fill="none" stroke="black" points="133,-130 133,-149 245,-149 245,-130 133,-130"/>
<text text-anchor="middle" x="189" y="-137" font-family="Helvetica" font-size="10.00">CPS::IdentifiedObject</text>
</a>
</g>
</g>
<!-- Node5&#45;&gt;Node4 -->
<g id="edge4" class="edge">
<title>Node5&#45;&gt;Node4</title>
<path fill="none" stroke="midnightblue" d="M255.21,-140.3C263.98,-140.4 273.02,-140.51 281.89,-140.62"/>
<polygon fill="midnightblue" stroke="midnightblue" points="255.11,-136.79 245.07,-140.17 255.02,-143.79 255.11,-136.79"/>
</g>
<!-- Node6 -->
<g id="node6" class="node">
<title>Node6</title>
<g id="a_node6"><a xlink:href="class_c_p_s_1_1_attribute_list.html" target="_top" xlink:title="Base class of objects having attributes to access member variables.">
<polygon fill="none" stroke="black" points="0,-103 0,-122 96,-122 96,-103 0,-103"/>
<text text-anchor="middle" x="48" y="-110" font-family="Helvetica" font-size="10.00">CPS::AttributeList</text>
</a>
</g>
</g>
<!-- Node6&#45;&gt;Node5 -->
<g id="edge5" class="edge">
<title>Node6&#45;&gt;Node5</title>
<path fill="none" stroke="midnightblue" d="M105.99,-123.57C116.98,-125.7 128.39,-127.92 139.09,-130"/>
<polygon fill="midnightblue" stroke="midnightblue" points="106.54,-120.11 96.06,-121.64 105.21,-126.98 106.54,-120.11"/>
</g>
<!-- Node8 -->
<g id="node8" class="node">
<title>Node8</title>
<g id="a_node8"><a xlink:href="class_c_p_s_1_1_m_n_a_interface.html" target="_top" xlink:title="Interface to be implemented by all models used by the MNA solver.">
<polygon fill="none" stroke="black" points="473,-88 473,-107 577,-107 577,-88 473,-88"/>
<text text-anchor="middle" x="525" y="-95" font-family="Helvetica" font-size="10.00">CPS::MNAInterface</text>
</a>
</g>
</g>
<!-- Node6&#45;&gt;Node8 -->
<g id="edge9" class="edge">
<title>Node6&#45;&gt;Node8</title>
<path fill="none" stroke="midnightblue" d="M106.41,-110.69C199.95,-107.73 383.75,-101.93 472.98,-99.11"/>
<polygon fill="midnightblue" stroke="midnightblue" points="106.17,-107.19 96.28,-111.01 106.39,-114.19 106.17,-107.19"/>
</g>
<!-- Node7&#45;&gt;Node3 -->
<g id="edge6" class="edge">
<title>Node7&#45;&gt;Node3</title>
<path fill="none" stroke="orange" stroke-dasharray="5,2" d="M595.11,-149.46C631.24,-153.63 675.01,-158.67 709.6,-162.66"/>
<polygon fill="orange" stroke="orange" points="595.47,-145.98 585.13,-148.31 594.67,-152.94 595.47,-145.98"/>
<text text-anchor="middle" x="633.5" y="-159.5" font-family="Helvetica" font-size="10.00"> &lt; Complex &gt;</text>
</g>
<!-- Node9 -->
<g id="node9" class="node">
<title>Node9</title>
<g id="a_node9"><a xlink:href="class_c_p_s_1_1_base_1_1_reduced_order_synchron_generator.html" target="_top" xlink:title=" ">
<polygon fill="none" stroke="black" points="682,-105.5 682,-135.5 858,-135.5 858,-105.5 682,-105.5"/>
<text text-anchor="start" x="690" y="-123.5" font-family="Helvetica" font-size="10.00">CPS::Base::ReducedOrderSynchron</text>
<text text-anchor="middle" x="770" y="-112.5" font-family="Helvetica" font-size="10.00">Generator&lt; VarType &gt;</text>
</a>
</g>
</g>
<!-- Node7&#45;&gt;Node9 -->
<g id="edge11" class="edge">
<title>Node7&#45;&gt;Node9</title>
<path fill="none" stroke="midnightblue" d="M595.25,-135.52C622.24,-133.18 653.47,-130.48 681.95,-128.02"/>
<polygon fill="midnightblue" stroke="midnightblue" points="594.8,-132.04 585.13,-136.39 595.4,-139.02 594.8,-132.04"/>
</g>
<!-- Node8&#45;&gt;Node2 -->
<g id="edge8" class="edge">
<title>Node8&#45;&gt;Node2</title>
<path fill="none" stroke="midnightblue" d="M587.58,-96.53C616.27,-96.12 650.88,-95.7 682,-95.5 760.22,-95 779.96,-90.22 858,-95.5 889.68,-97.64 924.22,-101.84 954.73,-106.19"/>
<polygon fill="midnightblue" stroke="midnightblue" points="587.24,-93.03 577.29,-96.68 587.34,-100.03 587.24,-93.03"/>
</g>
<!-- Node8&#45;&gt;Node9 -->
<g id="edge12" class="edge">
<title>Node8&#45;&gt;Node9</title>
<path fill="none" stroke="midnightblue" d="M587.5,-103.32C616.13,-106.03 650.7,-109.3 681.95,-112.26"/>
<polygon fill="midnightblue" stroke="midnightblue" points="587.52,-99.81 577.24,-102.35 586.86,-106.78 587.52,-99.81"/>
</g>
<!-- Node9&#45;&gt;Node2 -->
<g id="edge10" class="edge">
<title>Node9&#45;&gt;Node2</title>
<path fill="none" stroke="orange" stroke-dasharray="5,2" d="M868.52,-120.5C896.75,-120.5 927.38,-120.5 954.93,-120.5"/>
<polygon fill="orange" stroke="orange" points="868.24,-117 858.24,-120.5 868.24,-124 868.24,-117"/>
<text text-anchor="middle" x="906.5" y="-123.5" font-family="Helvetica" font-size="10.00"> &lt; Complex &gt;</text>
</g>
<!-- Node10 -->
<g id="node10" class="node">
<title>Node10</title>
<g id="a_node10"><a xlink:href="class_c_p_s_1_1_m_n_a_variable_comp_interface.html" target="_top" xlink:title="MNA interface to be used by elements that require recomputing of the system matrix.">
<polygon fill="none" stroke="black" points="961,-67 961,-86 1125,-86 1125,-67 961,-67"/>
<text text-anchor="middle" x="1043" y="-74" font-family="Helvetica" font-size="10.00">CPS::MNAVariableCompInterface</text>
</a>
</g>
</g>
<!-- Node10&#45;&gt;Node1 -->
<g id="edge13" class="edge">
<title>Node10&#45;&gt;Node1</title>
<path fill="none" stroke="midnightblue" d="M1135.42,-81.51C1146.13,-82.1 1157.08,-82.7 1167.84,-83.29"/>
<polygon fill="midnightblue" stroke="midnightblue" points="1135.41,-78 1125.24,-80.95 1135.03,-84.99 1135.41,-78"/>
</g>
</g>
</svg>
