<?xml version="1.0" encoding="UTF-8" standalone="no"?>
<!DOCTYPE svg PUBLIC "-//W3C//DTD SVG 1.1//EN"
 "http://www.w3.org/Graphics/SVG/1.1/DTD/svg11.dtd">
<!-- Generated by graphviz version 2.44.0 (0)
 -->
<!-- Title: CPS::Base::Ph1::Resistor Pages: 1 -->
<svg width="332pt" height="180pt"
 viewBox="0.00 0.00 332.00 180.00" xmlns="http://www.w3.org/2000/svg" xmlns:xlink="http://www.w3.org/1999/xlink">
<g id="graph0" class="graph" transform="scale(1 1) rotate(0) translate(4 176)">
<title>CPS::Base::Ph1::Resistor</title>
<!-- Node1 -->
<g id="node1" class="node">
<title>Node1</title>
<g id="a_node1"><a xlink:title=" ">
<polygon fill="#bfbfbf" stroke="black" points="0,-76.5 0,-95.5 131,-95.5 131,-76.5 0,-76.5"/>
<text text-anchor="middle" x="65.5" y="-83.5" font-family="Helvetica" font-size="10.00">CPS::Base::Ph1::Resistor</text>
</a>
</g>
</g>
<!-- Node2 -->
<g id="node2" class="node">
<title>Node2</title>
<g id="a_node2"><a xlink:href="class_c_p_s_1_1_d_p_1_1_ph1_1_1_resistor.html" target="_top" xlink:title="Dynamic phasor resistor model.">
<polygon fill="none" stroke="black" points="184,-152.5 184,-171.5 307,-171.5 307,-152.5 184,-152.5"/>
<text text-anchor="middle" x="245.5" y="-159.5" font-family="Helvetica" font-size="10.00">CPS::DP::Ph1::Resistor</text>
</a>
</g>
</g>
<!-- Node1&#45;&gt;Node2 -->
<g id="edge1" class="edge">
<title>Node1&#45;&gt;Node2</title>
<path fill="none" stroke="midnightblue" d="M89.12,-101.24C108.91,-113.98 138.84,-131.81 167,-143 176.4,-146.73 186.74,-149.88 196.72,-152.48"/>
<polygon fill="midnightblue" stroke="midnightblue" points="90.8,-98.16 80.52,-95.62 86.97,-104.02 90.8,-98.16"/>
</g>
<!-- Node3 -->
<g id="node3" class="node">
<title>Node3</title>
<g id="a_node3"><a xlink:href="class_c_p_s_1_1_d_p_1_1_ph3_1_1_series_resistor.html" target="_top" xlink:title=" ">
<polygon fill="none" stroke="black" points="170,-114.5 170,-133.5 321,-133.5 321,-114.5 170,-114.5"/>
<text text-anchor="middle" x="245.5" y="-121.5" font-family="Helvetica" font-size="10.00">CPS::DP::Ph3::SeriesResistor</text>
</a>
</g>
</g>
<!-- Node1&#45;&gt;Node3 -->
<g id="edge2" class="edge">
<title>Node1&#45;&gt;Node3</title>
<path fill="none" stroke="midnightblue" d="M121.22,-97.68C146.46,-103.07 176.05,-109.39 199.91,-114.48"/>
<polygon fill="midnightblue" stroke="midnightblue" points="121.93,-94.25 111.42,-95.59 120.47,-101.1 121.93,-94.25"/>
</g>
<!-- Node4 -->
<g id="node4" class="node">
<title>Node4</title>
<g id="a_node4"><a xlink:href="class_c_p_s_1_1_e_m_t_1_1_ph1_1_1_resistor.html" target="_top" xlink:title="EMT Resistor.">
<polygon fill="none" stroke="black" points="181,-76.5 181,-95.5 310,-95.5 310,-76.5 181,-76.5"/>
<text text-anchor="middle" x="245.5" y="-83.5" font-family="Helvetica" font-size="10.00">CPS::EMT::Ph1::Resistor</text>
</a>
</g>
</g>
<!-- Node1&#45;&gt;Node4 -->
<g id="edge3" class="edge">
<title>Node1&#45;&gt;Node4</title>
<path fill="none" stroke="midnightblue" d="M141.02,-86C154.25,-86 167.91,-86 180.8,-86"/>
<polygon fill="midnightblue" stroke="midnightblue" points="141.01,-82.5 131.01,-86 141.01,-89.5 141.01,-82.5"/>
</g>
<!-- Node5 -->
<g id="node5" class="node">
<title>Node5</title>
<g id="a_node5"><a xlink:href="class_c_p_s_1_1_e_m_t_1_1_ph3_1_1_series_resistor.html" target="_top" xlink:title="EMT three&#45;phase resistor.">
<polygon fill="none" stroke="black" points="167,-38.5 167,-57.5 324,-57.5 324,-38.5 167,-38.5"/>
<text text-anchor="middle" x="245.5" y="-45.5" font-family="Helvetica" font-size="10.00">CPS::EMT::Ph3::SeriesResistor</text>
</a>
</g>
</g>
<!-- Node1&#45;&gt;Node5 -->
<g id="edge4" class="edge">
<title>Node1&#45;&gt;Node5</title>
<path fill="none" stroke="midnightblue" d="M121.22,-74.32C146.46,-68.93 176.05,-62.61 199.91,-57.52"/>
<polygon fill="midnightblue" stroke="midnightblue" points="120.47,-70.9 111.42,-76.41 121.93,-77.75 120.47,-70.9"/>
</g>
<!-- Node6 -->
<g id="node6" class="node">
<title>Node6</title>
<g id="a_node6"><a xlink:href="class_c_p_s_1_1_s_p_1_1_ph1_1_1_resistor.html" target="_top" xlink:title="Static phasor resistor model.">
<polygon fill="none" stroke="black" points="184.5,-0.5 184.5,-19.5 306.5,-19.5 306.5,-0.5 184.5,-0.5"/>
<text text-anchor="middle" x="245.5" y="-7.5" font-family="Helvetica" font-size="10.00">CPS::SP::Ph1::Resistor</text>
</a>
</g>
</g>
<!-- Node1&#45;&gt;Node6 -->
<g id="edge5" class="edge">
<title>Node1&#45;&gt;Node6</title>
<path fill="none" stroke="midnightblue" d="M89.12,-70.76C108.91,-58.02 138.84,-40.19 167,-29 176.4,-25.27 186.74,-22.12 196.72,-19.52"/>
<polygon fill="midnightblue" stroke="midnightblue" points="86.97,-67.98 80.52,-76.38 90.8,-73.84 86.97,-67.98"/>
</g>
</g>
</svg>
