<?xml version="1.0" encoding="UTF-8" standalone="no"?>
<!DOCTYPE svg PUBLIC "-//W3C//DTD SVG 1.1//EN"
 "http://www.w3.org/Graphics/SVG/1.1/DTD/svg11.dtd">
<!-- Generated by graphviz version 2.50.0 (0)
 -->
<!-- Title: CPS::DP::Ph1::RxLine Pages: 1 -->
<svg width="1330pt" height="163pt"
 viewBox="0.00 0.00 1330.00 162.50" xmlns="http://www.w3.org/2000/svg" xmlns:xlink="http://www.w3.org/1999/xlink">
<g id="graph0" class="graph" transform="scale(1 1) rotate(0) translate(4 158.5)">
<title>CPS::DP::Ph1::RxLine</title>
<!-- Node1 -->
<g id="node1" class="node">
<title>Node1</title>
<g id="a_node1"><a xlink:title=" ">
<polygon fill="#bfbfbf" stroke="black" points="1208,-38.5 1208,-57.5 1322,-57.5 1322,-38.5 1208,-38.5"/>
<text text-anchor="middle" x="1265" y="-45.5" font-family="Helvetica,sans-Serif" font-size="10.00">CPS::DP::Ph1::RxLine</text>
</a>
</g>
</g>
<!-- Node2 -->
<g id="node2" class="node">
<title>Node2</title>
<g id="a_node2"><a xlink:href="class_c_p_s_1_1_composite_power_comp.html" target="_top" xlink:title=" ">
<polygon fill="none" stroke="black" points="1025,-77 1025,-107 1171,-107 1171,-77 1025,-77"/>
<text text-anchor="start" x="1033" y="-95" font-family="Helvetica,sans-Serif" font-size="10.00">CPS::CompositePowerComp</text>
<text text-anchor="middle" x="1098" y="-84" font-family="Helvetica,sans-Serif" font-size="10.00">&lt; Complex &gt;</text>
</a>
</g>
</g>
<!-- Node2&#45;&gt;Node1 -->
<g id="edge1" class="edge">
<title>Node2&#45;&gt;Node1</title>
<path fill="none" stroke="midnightblue" d="M1165.07,-74.38C1186.58,-68.65 1209.64,-62.5 1228.08,-57.58"/>
<polygon fill="midnightblue" stroke="midnightblue" points="1164.08,-71.02 1155.32,-76.98 1165.89,-77.79 1164.08,-71.02"/>
</g>
<!-- Node3 -->
<g id="node3" class="node">
<title>Node3</title>
<g id="a_node3"><a xlink:href="class_c_p_s_1_1_m_n_a_sim_power_comp.html" target="_top" xlink:title=" ">
<polygon fill="none" stroke="black" points="788.5,-102 788.5,-132 925.5,-132 925.5,-102 788.5,-102"/>
<text text-anchor="start" x="796.5" y="-120" font-family="Helvetica,sans-Serif" font-size="10.00">CPS::MNASimPowerComp</text>
<text text-anchor="middle" x="857" y="-109" font-family="Helvetica,sans-Serif" font-size="10.00">&lt; Complex &gt;</text>
</a>
</g>
</g>
<!-- Node3&#45;&gt;Node2 -->
<g id="edge2" class="edge">
<title>Node3&#45;&gt;Node2</title>
<path fill="none" stroke="midnightblue" d="M935.49,-108.89C964.13,-105.9 996.46,-102.52 1024.62,-99.57"/>
<polygon fill="midnightblue" stroke="midnightblue" points="935.11,-105.41 925.53,-109.94 935.84,-112.38 935.11,-105.41"/>
</g>
<!-- Node4 -->
<g id="node4" class="node">
<title>Node4</title>
<g id="a_node4"><a xlink:href="class_c_p_s_1_1_sim_power_comp.html" target="_top" xlink:title=" ">
<polygon fill="none" stroke="black" points="561,-124 561,-154 680,-154 680,-124 561,-124"/>
<text text-anchor="start" x="569" y="-142" font-family="Helvetica,sans-Serif" font-size="10.00">CPS::SimPowerComp&lt;</text>
<text text-anchor="middle" x="620.5" y="-131" font-family="Helvetica,sans-Serif" font-size="10.00"> Complex &gt;</text>
</a>
</g>
</g>
<!-- Node4&#45;&gt;Node3 -->
<g id="edge3" class="edge">
<title>Node4&#45;&gt;Node3</title>
<path fill="none" stroke="midnightblue" d="M690.31,-132.54C721.18,-129.65 757.47,-126.24 788.21,-123.36"/>
<polygon fill="midnightblue" stroke="midnightblue" points="689.7,-129.09 680.07,-133.51 690.35,-136.06 689.7,-129.09"/>
</g>
<!-- Node5 -->
<g id="node5" class="node">
<title>Node5</title>
<g id="a_node5"><a xlink:href="class_c_p_s_1_1_topological_power_comp.html" target="_top" xlink:title=" ">
<polygon fill="none" stroke="black" points="153,-123.5 153,-142.5 301,-142.5 301,-123.5 153,-123.5"/>
<text text-anchor="middle" x="227" y="-130.5" font-family="Helvetica,sans-Serif" font-size="10.00">CPS::TopologicalPowerComp</text>
</a>
</g>
</g>
<!-- Node5&#45;&gt;Node4 -->
<g id="edge4" class="edge">
<title>Node5&#45;&gt;Node4</title>
<path fill="none" stroke="midnightblue" d="M311.3,-136.88C372.82,-139.33 458.62,-141.88 534,-141 542.61,-140.9 551.71,-140.74 560.63,-140.56"/>
<polygon fill="midnightblue" stroke="midnightblue" points="311.39,-133.38 301.26,-136.47 311.11,-140.37 311.39,-133.38"/>
</g>
<!-- Node7 -->
<g id="node7" class="node">
<title>Node7</title>
<g id="a_node7"><a xlink:href="class_c_p_s_1_1_sim_power_comp.html" target="_top" xlink:title="Base class for all components that are transmitting power.">
<polygon fill="none" stroke="black" points="338,-96 338,-126 457,-126 457,-96 338,-96"/>
<text text-anchor="start" x="346" y="-114" font-family="Helvetica,sans-Serif" font-size="10.00">CPS::SimPowerComp&lt;</text>
<text text-anchor="middle" x="397.5" y="-103" font-family="Helvetica,sans-Serif" font-size="10.00"> VarType &gt;</text>
</a>
</g>
</g>
<!-- Node5&#45;&gt;Node7 -->
<g id="edge7" class="edge">
<title>Node5&#45;&gt;Node7</title>
<path fill="none" stroke="midnightblue" d="M311.12,-122.15C320.18,-120.97 329.25,-119.78 337.92,-118.65"/>
<polygon fill="midnightblue" stroke="midnightblue" points="310.39,-118.71 300.93,-123.48 311.3,-125.65 310.39,-118.71"/>
</g>
<!-- Node6 -->
<g id="node6" class="node">
<title>Node6</title>
<g id="a_node6"><a xlink:href="class_c_p_s_1_1_identified_object.html" target="_top" xlink:title=" ">
<polygon fill="none" stroke="black" points="0,-123.5 0,-142.5 116,-142.5 116,-123.5 0,-123.5"/>
<text text-anchor="middle" x="58" y="-130.5" font-family="Helvetica,sans-Serif" font-size="10.00">CPS::IdentifiedObject</text>
</a>
</g>
</g>
<!-- Node6&#45;&gt;Node5 -->
<g id="edge5" class="edge">
<title>Node6&#45;&gt;Node5</title>
<path fill="none" stroke="midnightblue" d="M126.13,-133C134.88,-133 143.88,-133 152.72,-133"/>
<polygon fill="midnightblue" stroke="midnightblue" points="126,-129.5 116,-133 126,-136.5 126,-129.5"/>
</g>
<!-- Node7&#45;&gt;Node4 -->
<g id="edge6" class="edge">
<title>Node7&#45;&gt;Node4</title>
<path fill="none" stroke="orange" stroke-dasharray="5,2" d="M467.14,-119.7C497.22,-123.51 532.14,-127.93 560.97,-131.58"/>
<polygon fill="orange" stroke="orange" points="467.5,-116.21 457.14,-118.43 466.62,-123.16 467.5,-116.21"/>
<text text-anchor="middle" x="504.5" y="-130" font-family="Helvetica,sans-Serif" font-size="10.00"> &lt; Complex &gt;</text>
</g>
<!-- Node9 -->
<g id="node9" class="node">
<title>Node9</title>
<g id="a_node9"><a xlink:href="class_c_p_s_1_1_m_n_a_sim_power_comp.html" target="_top" xlink:title="Base class for all MNA components that are transmitting power.">
<polygon fill="none" stroke="black" points="552,-75 552,-105 689,-105 689,-75 552,-75"/>
<text text-anchor="start" x="560" y="-93" font-family="Helvetica,sans-Serif" font-size="10.00">CPS::MNASimPowerComp</text>
<text text-anchor="middle" x="620.5" y="-82" font-family="Helvetica,sans-Serif" font-size="10.00">&lt; VarType &gt;</text>
</a>
</g>
</g>
<!-- Node7&#45;&gt;Node9 -->
<g id="edge10" class="edge">
<title>Node7&#45;&gt;Node9</title>
<path fill="none" stroke="midnightblue" d="M467.28,-104.46C494.25,-101.9 525.11,-98.97 551.97,-96.42"/>
<polygon fill="midnightblue" stroke="midnightblue" points="466.77,-101 457.14,-105.43 467.43,-107.97 466.77,-101"/>
</g>
<!-- Node8 -->
<g id="node8" class="node">
<title>Node8</title>
<g id="a_node8"><a xlink:href="class_c_p_s_1_1_m_n_a_interface.html" target="_top" xlink:title="Interface to be implemented by all models used by the MNA solver.">
<polygon fill="none" stroke="black" points="344,-47.5 344,-66.5 451,-66.5 451,-47.5 344,-47.5"/>
<text text-anchor="middle" x="397.5" y="-54.5" font-family="Helvetica,sans-Serif" font-size="10.00">CPS::MNAInterface</text>
</a>
</g>
</g>
<!-- Node8&#45;&gt;Node3 -->
<g id="edge8" class="edge">
<title>Node8&#45;&gt;Node3</title>
<path fill="none" stroke="midnightblue" d="M461.42,-54.17C520.58,-52.64 611.39,-53.18 689,-66 701.04,-67.99 763.99,-87.65 809.05,-101.96"/>
<polygon fill="midnightblue" stroke="midnightblue" points="461.02,-50.68 451.12,-54.47 461.22,-57.68 461.02,-50.68"/>
</g>
<!-- Node8&#45;&gt;Node9 -->
<g id="edge11" class="edge">
<title>Node8&#45;&gt;Node9</title>
<path fill="none" stroke="midnightblue" d="M461.31,-66.38C489.55,-70.6 522.94,-75.58 551.75,-79.88"/>
<polygon fill="midnightblue" stroke="midnightblue" points="461.56,-62.88 451.15,-64.86 460.53,-69.8 461.56,-62.88"/>
</g>
<!-- Node9&#45;&gt;Node3 -->
<g id="edge9" class="edge">
<title>Node9&#45;&gt;Node3</title>
<path fill="none" stroke="orange" stroke-dasharray="5,2" d="M699.04,-98.93C727.84,-102.24 760.28,-105.98 788.15,-109.19"/>
<polygon fill="orange" stroke="orange" points="699.35,-95.44 689.01,-97.77 698.55,-102.39 699.35,-95.44"/>
<text text-anchor="middle" x="736.5" y="-108" font-family="Helvetica,sans-Serif" font-size="10.00"> &lt; Complex &gt;</text>
</g>
<!-- Node10 -->
<g id="node10" class="node">
<title>Node10</title>
<g id="a_node10"><a xlink:href="class_c_p_s_1_1_composite_power_comp.html" target="_top" xlink:title="Base class for composite power components.">
<polygon fill="none" stroke="black" points="784,-53 784,-83 930,-83 930,-53 784,-53"/>
<text text-anchor="start" x="792" y="-71" font-family="Helvetica,sans-Serif" font-size="10.00">CPS::CompositePowerComp</text>
<text text-anchor="middle" x="857" y="-60" font-family="Helvetica,sans-Serif" font-size="10.00">&lt; VarType &gt;</text>
</a>
</g>
</g>
<!-- Node9&#45;&gt;Node10 -->
<g id="edge13" class="edge">
<title>Node9&#45;&gt;Node10</title>
<path fill="none" stroke="midnightblue" d="M699.27,-82.7C726.48,-80.15 756.9,-77.3 783.64,-74.79"/>
<polygon fill="midnightblue" stroke="midnightblue" points="698.64,-79.25 689.01,-83.67 699.3,-86.22 698.64,-79.25"/>
</g>
<!-- Node10&#45;&gt;Node2 -->
<g id="edge12" class="edge">
<title>Node10&#45;&gt;Node2</title>
<path fill="none" stroke="orange" stroke-dasharray="5,2" d="M940.02,-76.24C967.53,-79 997.99,-82.06 1024.7,-84.74"/>
<polygon fill="orange" stroke="orange" points="940.33,-72.75 930.03,-75.23 939.63,-79.72 940.33,-72.75"/>
<text text-anchor="middle" x="977.5" y="-85" font-family="Helvetica,sans-Serif" font-size="10.00"> &lt; Complex &gt;</text>
</g>
<!-- Node11 -->
<g id="node11" class="node">
<title>Node11</title>
<g id="a_node11"><a xlink:href="class_c_p_s_1_1_base_1_1_ph1_1_1_pi_line.html" target="_top" xlink:title=" ">
<polygon fill="none" stroke="black" points="1038,-38.5 1038,-57.5 1158,-57.5 1158,-38.5 1038,-38.5"/>
<text text-anchor="middle" x="1098" y="-45.5" font-family="Helvetica,sans-Serif" font-size="10.00">CPS::Base::Ph1::PiLine</text>
</a>
</g>
</g>
<!-- Node11&#45;&gt;Node1 -->
<g id="edge14" class="edge">
<title>Node11&#45;&gt;Node1</title>
<path fill="none" stroke="midnightblue" d="M1168.49,-48C1181.6,-48 1195.16,-48 1207.79,-48"/>
<polygon fill="midnightblue" stroke="midnightblue" points="1168.1,-44.5 1158.1,-48 1168.1,-51.5 1168.1,-44.5"/>
</g>
<!-- Node12 -->
<g id="node12" class="node">
<title>Node12</title>
<g id="a_node12"><a xlink:href="class_shared_factory.html" target="_top" xlink:title=" ">
<polygon fill="none" stroke="black" points="1032.5,-0.5 1032.5,-19.5 1163.5,-19.5 1163.5,-0.5 1032.5,-0.5"/>
<text text-anchor="middle" x="1098" y="-7.5" font-family="Helvetica,sans-Serif" font-size="10.00">SharedFactory&lt; RxLine &gt;</text>
</a>
</g>
</g>
<!-- Node12&#45;&gt;Node1 -->
<g id="edge15" class="edge">
<title>Node12&#45;&gt;Node1</title>
<path fill="none" stroke="midnightblue" d="M1150.65,-21.9C1173.85,-27.24 1200.84,-33.45 1222.66,-38.48"/>
<polygon fill="midnightblue" stroke="midnightblue" points="1151.17,-18.42 1140.64,-19.59 1149.6,-25.24 1151.17,-18.42"/>
</g>
<!-- Node13 -->
<g id="node13" class="node">
<title>Node13</title>
<g id="a_node13"><a xlink:href="class_shared_factory.html" target="_top" xlink:title=" ">
<polygon fill="none" stroke="black" points="804.5,-0.5 804.5,-19.5 909.5,-19.5 909.5,-0.5 804.5,-0.5"/>
<text text-anchor="middle" x="857" y="-7.5" font-family="Helvetica,sans-Serif" font-size="10.00">SharedFactory&lt; T &gt;</text>
</a>
</g>
</g>
<!-- Node13&#45;&gt;Node12 -->
<g id="edge16" class="edge">
<title>Node13&#45;&gt;Node12</title>
<path fill="none" stroke="orange" stroke-dasharray="5,2" d="M919.98,-10C954.48,-10 997.37,-10 1032.29,-10"/>
<polygon fill="orange" stroke="orange" points="919.57,-6.5 909.57,-10 919.57,-13.5 919.57,-6.5"/>
<text text-anchor="middle" x="977.5" y="-13" font-family="Helvetica,sans-Serif" font-size="10.00"> &lt; RxLine &gt;</text>
</g>
</g>
</svg>
