<?xml version="1.0" encoding="UTF-8" standalone="no"?>
<!DOCTYPE svg PUBLIC "-//W3C//DTD SVG 1.1//EN"
 "http://www.w3.org/Graphics/SVG/1.1/DTD/svg11.dtd">
<!-- Generated by graphviz version 12.2.1 (20241206.2353)
 -->
<!-- Title: CPS::SP::Ph1::VoltageSourceInverter Pages: 1 -->
<svg width="2231pt" height="550pt"
 viewBox="0.00 0.00 2230.50 549.88" xmlns="http://www.w3.org/2000/svg" xmlns:xlink="http://www.w3.org/1999/xlink">
<g id="graph0" class="graph" transform="scale(1 1) rotate(0) translate(4 545.88)">
<title>CPS::SP::Ph1::VoltageSourceInverter</title>
<!-- Node1 -->
<g id="Node000001" class="node">
<title>Node1</title>
<g id="a_Node000001"><a xlink:title=" ">
<polygon fill="#999999" stroke="#666666" points="2222.5,-342.62 2075.25,-342.62 2075.25,-306.12 2222.5,-306.12 2222.5,-342.62"/>
<text text-anchor="start" x="2083.25" y="-329.12" font-family="Helvetica,sans-Serif" font-size="10.00">CPS::SP::Ph1::VoltageSource</text>
<text text-anchor="middle" x="2148.88" y="-314.88" font-family="Helvetica,sans-Serif" font-size="10.00">Inverter</text>
</a>
</g>
</g>
<!-- Node2 -->
<g id="Node000002" class="node">
<title>Node2</title>
<g id="a_Node000002"><a xlink:href="class_c_p_s_1_1_sim_power_comp.html" target="_top" xlink:title=" ">
<polygon fill="white" stroke="#666666" points="2027.38,-342.62 1908.62,-342.62 1908.62,-306.12 2027.38,-306.12 2027.38,-342.62"/>
<text text-anchor="start" x="1916.62" y="-329.12" font-family="Helvetica,sans-Serif" font-size="10.00">CPS::SimPowerComp&lt;</text>
<text text-anchor="middle" x="1968" y="-314.88" font-family="Helvetica,sans-Serif" font-size="10.00"> Complex &gt;</text>
</a>
</g>
</g>
<!-- Node2&#45;&gt;Node1 -->
<g id="edge1_Node000001_Node000002" class="edge">
<title>Node2&#45;&gt;Node1</title>
<g id="a_edge1_Node000001_Node000002"><a xlink:title=" ">
<path fill="none" stroke="#63b8ff" d="M2038.73,-324.38C2050.56,-324.38 2062.87,-324.38 2074.78,-324.38"/>
<polygon fill="#63b8ff" stroke="#63b8ff" points="2039.08,-320.88 2029.08,-324.38 2039.08,-327.88 2039.08,-320.88"/>
</a>
</g>
</g>
<!-- Node3 -->
<g id="Node000003" class="node">
<title>Node3</title>
<g id="a_Node000003"><a xlink:href="class_c_p_s_1_1_topological_power_comp.html" target="_top" xlink:title=" ">
<polygon fill="white" stroke="#666666" points="1111.5,-303.5 964.25,-303.5 964.25,-281.25 1111.5,-281.25 1111.5,-303.5"/>
<text text-anchor="middle" x="1037.88" y="-290" font-family="Helvetica,sans-Serif" font-size="10.00">CPS::TopologicalPowerComp</text>
</a>
</g>
</g>
<!-- Node3&#45;&gt;Node2 -->
<g id="edge2_Node000002_Node000003" class="edge">
<title>Node3&#45;&gt;Node2</title>
<g id="a_edge2_Node000002_Node000003"><a xlink:title=" ">
<path fill="none" stroke="#63b8ff" d="M1123.02,-295.28C1308.58,-301.67 1749.06,-316.86 1908.29,-322.35"/>
<polygon fill="#63b8ff" stroke="#63b8ff" points="1123.33,-291.78 1113.22,-294.94 1123.09,-298.78 1123.33,-291.78"/>
</a>
</g>
</g>
<!-- Node29 -->
<g id="Node000029" class="node">
<title>Node29</title>
<g id="a_Node000029"><a xlink:href="class_c_p_s_1_1_sim_power_comp.html" target="_top" xlink:title="Base class for all components that are transmitting power.">
<polygon fill="white" stroke="#666666" points="1429.25,-265.62 1310.5,-265.62 1310.5,-229.12 1429.25,-229.12 1429.25,-265.62"/>
<text text-anchor="start" x="1318.5" y="-252.12" font-family="Helvetica,sans-Serif" font-size="10.00">CPS::SimPowerComp&lt;</text>
<text text-anchor="middle" x="1369.88" y="-237.88" font-family="Helvetica,sans-Serif" font-size="10.00"> VarType &gt;</text>
</a>
</g>
</g>
<!-- Node3&#45;&gt;Node29 -->
<g id="edge42_Node000029_Node000003" class="edge">
<title>Node3&#45;&gt;Node29</title>
<g id="a_edge42_Node000029_Node000003"><a xlink:title=" ">
<path fill="none" stroke="#63b8ff" d="M1122.87,-280.3C1125.1,-279.99 1127.32,-279.68 1129.5,-279.38 1191.17,-270.83 1261.84,-261.43 1310.32,-255.04"/>
<polygon fill="#63b8ff" stroke="#63b8ff" points="1122.49,-276.82 1113.08,-281.67 1123.47,-283.75 1122.49,-276.82"/>
</a>
</g>
</g>
<!-- Node4 -->
<g id="Node000004" class="node">
<title>Node4</title>
<g id="a_Node000004"><a xlink:href="class_c_p_s_1_1_identified_object.html" target="_top" xlink:title=" ">
<polygon fill="white" stroke="#666666" points="797,-303.5 682,-303.5 682,-281.25 797,-281.25 797,-303.5"/>
<text text-anchor="middle" x="739.5" y="-290" font-family="Helvetica,sans-Serif" font-size="10.00">CPS::IdentifiedObject</text>
</a>
</g>
</g>
<!-- Node4&#45;&gt;Node3 -->
<g id="edge3_Node000003_Node000004" class="edge">
<title>Node4&#45;&gt;Node3</title>
<g id="a_edge3_Node000003_Node000004"><a xlink:title=" ">
<path fill="none" stroke="#63b8ff" d="M808.76,-292.38C855.2,-292.38 916.57,-292.38 963.97,-292.38"/>
<polygon fill="#63b8ff" stroke="#63b8ff" points="808.81,-288.88 798.81,-292.38 808.81,-295.88 808.81,-288.88"/>
</a>
</g>
</g>
<!-- Node11 -->
<g id="Node000011" class="node">
<title>Node11</title>
<g id="a_Node000011"><a xlink:href="class_c_p_s_1_1_topological_terminal.html" target="_top" xlink:title=" ">
<polygon fill="white" stroke="#bfbfbf" points="1102.88,-343.5 972.88,-343.5 972.88,-321.25 1102.88,-321.25 1102.88,-343.5"/>
<text text-anchor="middle" x="1037.88" y="-330" font-family="Helvetica,sans-Serif" font-size="10.00">CPS::TopologicalTerminal</text>
</a>
</g>
</g>
<!-- Node4&#45;&gt;Node11 -->
<g id="edge12_Node000011_Node000004" class="edge">
<title>Node4&#45;&gt;Node11</title>
<g id="a_edge12_Node000011_Node000004"><a xlink:title=" ">
<path fill="none" stroke="#63b8ff" d="M808.77,-302.5C810.87,-302.8 812.95,-303.09 815,-303.38 868.1,-310.76 928.42,-318.61 972.76,-324.28"/>
<polygon fill="#63b8ff" stroke="#63b8ff" points="809.32,-299.04 798.93,-301.09 808.33,-305.97 809.32,-299.04"/>
</a>
</g>
</g>
<!-- Node17 -->
<g id="Node000017" class="node">
<title>Node17</title>
<g id="a_Node000017"><a xlink:href="class_c_p_s_1_1_topological_node.html" target="_top" xlink:title=" ">
<polygon fill="white" stroke="#bfbfbf" points="1095.75,-161.5 980,-161.5 980,-139.25 1095.75,-139.25 1095.75,-161.5"/>
<text text-anchor="middle" x="1037.88" y="-148" font-family="Helvetica,sans-Serif" font-size="10.00">CPS::TopologicalNode</text>
</a>
</g>
</g>
<!-- Node4&#45;&gt;Node17 -->
<g id="edge21_Node000017_Node000004" class="edge">
<title>Node4&#45;&gt;Node17</title>
<g id="a_edge21_Node000017_Node000004"><a xlink:title=" ">
<path fill="none" stroke="#63b8ff" d="M748.54,-270.42C759.35,-244.28 781.2,-201.52 815,-180.38 841.65,-163.7 923.2,-156.12 979.63,-152.8"/>
<polygon fill="#63b8ff" stroke="#63b8ff" points="745.41,-268.81 745.02,-279.39 751.93,-271.36 745.41,-268.81"/>
</a>
</g>
</g>
<!-- Node5 -->
<g id="Node000005" class="node">
<title>Node5</title>
<g id="a_Node000005"><a xlink:href="class_c_p_s_1_1_attribute.html" target="_top" xlink:title=" ">
<polygon fill="white" stroke="#666666" points="592.38,-303.5 466.12,-303.5 466.12,-281.25 592.38,-281.25 592.38,-303.5"/>
<text text-anchor="middle" x="529.25" y="-290" font-family="Helvetica,sans-Serif" font-size="10.00">CPS::Attribute&lt; String &gt;</text>
</a>
</g>
</g>
<!-- Node5&#45;&gt;Node4 -->
<g id="edge4_Node000004_Node000005" class="edge">
<title>Node5&#45;&gt;Node4</title>
<g id="a_edge4_Node000004_Node000005"><a xlink:title=" ">
<path fill="none" stroke="#9a32cd" stroke-dasharray="5,2" d="M604.23,-292.38C629.72,-292.38 657.85,-292.38 681.74,-292.38"/>
<polygon fill="#9a32cd" stroke="#9a32cd" points="604.25,-288.88 594.25,-292.38 604.25,-295.88 604.25,-288.88"/>
</a>
</g>
<text text-anchor="middle" x="644.5" y="-311.38" font-family="Helvetica,sans-Serif" font-size="10.00" fill="grey"> mName</text>
<text text-anchor="middle" x="644.5" y="-297.12" font-family="Helvetica,sans-Serif" font-size="10.00" fill="grey">mUID</text>
</g>
<!-- Node6 -->
<g id="Node000006" class="node">
<title>Node6</title>
<g id="a_Node000006"><a xlink:href="class_c_p_s_1_1_attribute_base.html" target="_top" xlink:title=" ">
<polygon fill="white" stroke="#666666" points="109.75,-233.5 5.25,-233.5 5.25,-211.25 109.75,-211.25 109.75,-233.5"/>
<text text-anchor="middle" x="57.5" y="-220" font-family="Helvetica,sans-Serif" font-size="10.00">CPS::AttributeBase</text>
</a>
</g>
</g>
<!-- Node6&#45;&gt;Node5 -->
<g id="edge5_Node000005_Node000006" class="edge">
<title>Node6&#45;&gt;Node5</title>
<g id="a_edge5_Node000005_Node000006"><a xlink:title=" ">
<path fill="none" stroke="#63b8ff" d="M121.34,-215.47C197.06,-209.23 327.37,-205.22 433.5,-236.38 464.67,-245.53 496.22,-267.22 513.91,-280.76"/>
<polygon fill="#63b8ff" stroke="#63b8ff" points="121.28,-211.96 111.62,-216.31 121.89,-218.93 121.28,-211.96"/>
</a>
</g>
</g>
<!-- Node8 -->
<g id="Node000008" class="node">
<title>Node8</title>
<g id="a_Node000008"><a xlink:href="class_c_p_s_1_1_attribute.html" target="_top" xlink:title=" ">
<polygon fill="white" stroke="#666666" points="275.25,-287.5 171.5,-287.5 171.5,-265.25 275.25,-265.25 275.25,-287.5"/>
<text text-anchor="middle" x="223.38" y="-274" font-family="Helvetica,sans-Serif" font-size="10.00">CPS::Attribute&lt; T &gt;</text>
</a>
</g>
</g>
<!-- Node6&#45;&gt;Node8 -->
<g id="edge8_Node000008_Node000006" class="edge">
<title>Node6&#45;&gt;Node8</title>
<g id="a_edge8_Node000008_Node000006"><a xlink:title=" ">
<path fill="none" stroke="#63b8ff" d="M104.48,-237.53C130.72,-246.17 163.1,-256.84 187.28,-264.81"/>
<polygon fill="#63b8ff" stroke="#63b8ff" points="105.69,-234.24 95.09,-234.43 103.5,-240.89 105.69,-234.24"/>
</a>
</g>
</g>
<!-- Node18 -->
<g id="Node000018" class="node">
<title>Node18</title>
<g id="a_Node000018"><a xlink:href="class_c_p_s_1_1_attribute.html" target="_top" xlink:title=" ">
<polygon fill="white" stroke="#666666" points="607,-166.5 451.5,-166.5 451.5,-144.25 607,-144.25 607,-166.5"/>
<text text-anchor="middle" x="529.25" y="-153" font-family="Helvetica,sans-Serif" font-size="10.00">CPS::Attribute&lt; MatrixComp &gt;</text>
</a>
</g>
</g>
<!-- Node6&#45;&gt;Node18 -->
<g id="edge23_Node000018_Node000006" class="edge">
<title>Node6&#45;&gt;Node18</title>
<g id="a_edge23_Node000018_Node000006"><a xlink:title=" ">
<path fill="none" stroke="#63b8ff" d="M73.19,-201.57C89.6,-180.32 118.33,-148.62 152,-135.38 269.18,-89.29 422.88,-123.82 491.92,-143.79"/>
<polygon fill="#63b8ff" stroke="#63b8ff" points="70.41,-199.44 67.25,-209.55 76.03,-203.62 70.41,-199.44"/>
</a>
</g>
</g>
<!-- Node25 -->
<g id="Node000025" class="node">
<title>Node25</title>
<g id="a_Node000025"><a xlink:href="class_c_p_s_1_1_attribute.html" target="_top" xlink:title=" ">
<polygon fill="white" stroke="#666666" points="597.25,-96.62 461.25,-96.62 461.25,-60.12 597.25,-60.12 597.25,-96.62"/>
<text text-anchor="start" x="469.25" y="-83.12" font-family="Helvetica,sans-Serif" font-size="10.00">CPS::Attribute&lt; MatrixVar</text>
<text text-anchor="middle" x="529.25" y="-68.88" font-family="Helvetica,sans-Serif" font-size="10.00">&lt; VarType &gt; &gt;</text>
</a>
</g>
</g>
<!-- Node6&#45;&gt;Node25 -->
<g id="edge34_Node000025_Node000006" class="edge">
<title>Node6&#45;&gt;Node25</title>
<g id="a_edge34_Node000025_Node000006"><a xlink:title=" ">
<path fill="none" stroke="#63b8ff" d="M68.98,-201.14C83.51,-174.27 112.52,-129.01 152,-108.38 204.05,-81.17 367.67,-77.35 461.11,-77.51"/>
<polygon fill="#63b8ff" stroke="#63b8ff" points="66.01,-199.26 64.51,-209.74 72.22,-202.49 66.01,-199.26"/>
</a>
</g>
</g>
<!-- Node27 -->
<g id="Node000027" class="node">
<title>Node27</title>
<g id="a_Node000027"><a xlink:href="class_c_p_s_1_1_attribute.html" target="_top" xlink:title=" ">
<polygon fill="white" stroke="#666666" points="597.25,-457.62 461.25,-457.62 461.25,-421.12 597.25,-421.12 597.25,-457.62"/>
<text text-anchor="start" x="469.25" y="-444.12" font-family="Helvetica,sans-Serif" font-size="10.00">CPS::Attribute&lt; MatrixVar</text>
<text text-anchor="middle" x="529.25" y="-429.88" font-family="Helvetica,sans-Serif" font-size="10.00">&lt; Complex &gt; &gt;</text>
</a>
</g>
</g>
<!-- Node6&#45;&gt;Node27 -->
<g id="edge38_Node000027_Node000006" class="edge">
<title>Node6&#45;&gt;Node27</title>
<g id="a_edge38_Node000027_Node000006"><a xlink:title=" ">
<path fill="none" stroke="#63b8ff" d="M60.07,-245.39C64.69,-292.88 82.7,-401.13 152,-447.38 250.23,-512.93 397.31,-481.93 475.3,-458.03"/>
<polygon fill="#63b8ff" stroke="#63b8ff" points="63.56,-245.13 59.23,-235.46 56.58,-245.72 63.56,-245.13"/>
</a>
</g>
</g>
<!-- Node7 -->
<g id="Node000007" class="node">
<title>Node7</title>
<g id="a_Node000007"><a xlink:title=" ">
<polygon fill="white" stroke="#bfbfbf" points="280.88,-369.75 165.88,-369.75 165.88,-319 280.88,-319 280.88,-369.75"/>
<text text-anchor="start" x="173.88" y="-356.25" font-family="Helvetica,sans-Serif" font-size="10.00">std::enable_shared</text>
<text text-anchor="start" x="173.88" y="-342" font-family="Helvetica,sans-Serif" font-size="10.00">_from_this&lt; Attribute</text>
<text text-anchor="middle" x="223.38" y="-327.75" font-family="Helvetica,sans-Serif" font-size="10.00">&lt; String &gt; &gt;</text>
</a>
</g>
</g>
<!-- Node7&#45;&gt;Node5 -->
<g id="edge6_Node000005_Node000007" class="edge">
<title>Node7&#45;&gt;Node5</title>
<g id="a_edge6_Node000005_Node000007"><a xlink:title=" ">
<path fill="none" stroke="#63b8ff" d="M292.58,-352.84C333.98,-355.91 387.53,-356.16 433.5,-344.38 464.04,-336.55 495.3,-316.6 513.18,-303.81"/>
<polygon fill="#63b8ff" stroke="#63b8ff" points="293.01,-349.37 282.75,-352.04 292.43,-356.34 293.01,-349.37"/>
</a>
</g>
</g>
<!-- Node8&#45;&gt;Node5 -->
<g id="edge7_Node000005_Node000008" class="edge">
<title>Node8&#45;&gt;Node5</title>
<g id="a_edge7_Node000005_Node000008"><a xlink:title=" ">
<path fill="none" stroke="orange" stroke-dasharray="5,2" d="M287.05,-279.68C339.36,-282.43 413.53,-286.33 465.78,-289.09"/>
<polygon fill="orange" stroke="orange" points="287.26,-276.18 277.09,-279.15 286.89,-283.17 287.26,-276.18"/>
</a>
</g>
<text text-anchor="middle" x="373.12" y="-291.95" font-family="Helvetica,sans-Serif" font-size="10.00" fill="grey"> &lt; String &gt;</text>
</g>
<!-- Node8&#45;&gt;Node18 -->
<g id="edge25_Node000018_Node000008" class="edge">
<title>Node8&#45;&gt;Node18</title>
<g id="a_edge25_Node000018_Node000008"><a xlink:title=" ">
<path fill="none" stroke="orange" stroke-dasharray="5,2" d="M283.48,-261.95C326.11,-250.6 384.53,-233.1 433.5,-211.38 462.14,-198.67 492.97,-179.26 511.43,-166.95"/>
<polygon fill="orange" stroke="orange" points="282.7,-258.54 273.91,-264.46 284.47,-265.31 282.7,-258.54"/>
</a>
</g>
<text text-anchor="middle" x="373.12" y="-257.62" font-family="Helvetica,sans-Serif" font-size="10.00" fill="grey"> &lt; MatrixComp &gt;</text>
</g>
<!-- Node8&#45;&gt;Node25 -->
<g id="edge36_Node000025_Node000008" class="edge">
<title>Node8&#45;&gt;Node25</title>
<g id="a_edge36_Node000025_Node000008"><a xlink:title=" ">
<path fill="none" stroke="orange" stroke-dasharray="5,2" d="M242.21,-256.81C259.22,-238.86 286.11,-212.24 312.75,-193.12 368.71,-152.97 440.46,-117.56 485.4,-97.05"/>
<polygon fill="orange" stroke="orange" points="240,-254.05 235.74,-263.75 245.12,-258.82 240,-254.05"/>
</a>
</g>
<text text-anchor="middle" x="373.12" y="-197.88" font-family="Helvetica,sans-Serif" font-size="10.00" fill="grey"> &lt; MatrixVar&lt; VarType &gt; &gt;</text>
</g>
<!-- Node8&#45;&gt;Node27 -->
<g id="edge40_Node000027_Node000008" class="edge">
<title>Node8&#45;&gt;Node27</title>
<g id="a_edge40_Node000027_Node000008"><a xlink:title=" ">
<path fill="none" stroke="orange" stroke-dasharray="5,2" d="M259.03,-292.65C270.47,-298.15 283.22,-304.41 294.75,-310.38 367.35,-347.93 450.84,-395.02 495.69,-420.65"/>
<polygon fill="orange" stroke="orange" points="260.86,-289.65 250.33,-288.5 257.85,-295.97 260.86,-289.65"/>
</a>
</g>
<text text-anchor="middle" x="373.12" y="-387.37" font-family="Helvetica,sans-Serif" font-size="10.00" fill="grey"> &lt; MatrixVar&lt; Complex &gt; &gt;</text>
</g>
<!-- Node9 -->
<g id="Node000009" class="node">
<title>Node9</title>
<g id="a_Node000009"><a xlink:title=" ">
<polygon fill="white" stroke="#bfbfbf" points="115,-516.75 0,-516.75 0,-466 115,-466 115,-516.75"/>
<text text-anchor="start" x="8" y="-503.25" font-family="Helvetica,sans-Serif" font-size="10.00">std::enable_shared</text>
<text text-anchor="start" x="8" y="-489" font-family="Helvetica,sans-Serif" font-size="10.00">_from_this&lt; Attribute</text>
<text text-anchor="middle" x="57.5" y="-474.75" font-family="Helvetica,sans-Serif" font-size="10.00">&lt; T &gt; &gt;</text>
</a>
</g>
</g>
<!-- Node9&#45;&gt;Node8 -->
<g id="edge9_Node000008_Node000009" class="edge">
<title>Node9&#45;&gt;Node8</title>
<g id="a_edge9_Node000008_Node000009"><a xlink:title=" ">
<path fill="none" stroke="#63b8ff" d="M69.56,-454.85C83.25,-414.93 110.05,-351.22 152,-310.38 162.01,-300.63 175.36,-293.22 187.74,-287.84"/>
<polygon fill="#63b8ff" stroke="#63b8ff" points="66.27,-453.66 66.44,-464.25 72.91,-455.86 66.27,-453.66"/>
</a>
</g>
</g>
<!-- Node10 -->
<g id="Node000010" class="node">
<title>Node10</title>
<g id="a_Node000010"><a xlink:href="class_c_p_s_1_1_sim_terminal.html" target="_top" xlink:title=" ">
<polygon fill="white" stroke="#bfbfbf" points="1790.5,-353.5 1638.75,-353.5 1638.75,-331.25 1790.5,-331.25 1790.5,-353.5"/>
<text text-anchor="middle" x="1714.62" y="-340" font-family="Helvetica,sans-Serif" font-size="10.00">CPS::SimTerminal&lt; Complex &gt;</text>
</a>
</g>
</g>
<!-- Node10&#45;&gt;Node2 -->
<g id="edge10_Node000002_Node000010" class="edge">
<title>Node10&#45;&gt;Node2</title>
<g id="a_edge10_Node000002_Node000010"><a xlink:title=" ">
<path fill="none" stroke="#9a32cd" stroke-dasharray="5,2" d="M1801.92,-336.2C1836.99,-333.68 1876.62,-330.85 1908.25,-328.58"/>
<polygon fill="#9a32cd" stroke="#9a32cd" points="1801.94,-332.69 1792.21,-336.89 1802.44,-339.67 1801.94,-332.69"/>
</a>
</g>
<text text-anchor="middle" x="1844.12" y="-340.27" font-family="Helvetica,sans-Serif" font-size="10.00" fill="grey"> mTerminals</text>
</g>
<!-- Node11&#45;&gt;Node10 -->
<g id="edge11_Node000010_Node000011" class="edge">
<title>Node11&#45;&gt;Node10</title>
<g id="a_edge11_Node000010_Node000011"><a xlink:title=" ">
<path fill="none" stroke="#63b8ff" d="M1114.66,-333.5C1244.66,-335.42 1508.66,-339.34 1638.32,-341.26"/>
<polygon fill="#63b8ff" stroke="#63b8ff" points="1114.83,-330 1104.78,-333.35 1114.73,-337 1114.83,-330"/>
</a>
</g>
</g>
<!-- Node14 -->
<g id="Node000014" class="node">
<title>Node14</title>
<g id="a_Node000014"><a xlink:href="class_c_p_s_1_1_sim_terminal.html" target="_top" xlink:title=" ">
<polygon fill="white" stroke="#bfbfbf" points="1445,-381.5 1294.75,-381.5 1294.75,-359.25 1445,-359.25 1445,-381.5"/>
<text text-anchor="middle" x="1369.88" y="-368" font-family="Helvetica,sans-Serif" font-size="10.00">CPS::SimTerminal&lt; VarType &gt;</text>
</a>
</g>
</g>
<!-- Node11&#45;&gt;Node14 -->
<g id="edge16_Node000014_Node000011" class="edge">
<title>Node11&#45;&gt;Node14</title>
<g id="a_edge16_Node000014_Node000011"><a xlink:title=" ">
<path fill="none" stroke="#63b8ff" d="M1114.52,-341.09C1168.53,-347.3 1240.83,-355.63 1294.54,-361.82"/>
<polygon fill="#63b8ff" stroke="#63b8ff" points="1115.12,-337.63 1104.79,-339.97 1114.32,-344.59 1115.12,-337.63"/>
</a>
</g>
</g>
<!-- Node12 -->
<g id="Node000012" class="node">
<title>Node12</title>
<g id="a_Node000012"><a xlink:href="class_shared_factory.html" target="_top" xlink:title=" ">
<polygon fill="white" stroke="#666666" points="1276.75,-437.62 1129.5,-437.62 1129.5,-401.12 1276.75,-401.12 1276.75,-437.62"/>
<text text-anchor="start" x="1137.5" y="-424.12" font-family="Helvetica,sans-Serif" font-size="10.00">SharedFactory&lt; SimTerminal</text>
<text text-anchor="middle" x="1203.12" y="-409.88" font-family="Helvetica,sans-Serif" font-size="10.00">&lt; Complex &gt; &gt;</text>
</a>
</g>
</g>
<!-- Node12&#45;&gt;Node10 -->
<g id="edge13_Node000010_Node000012" class="edge">
<title>Node12&#45;&gt;Node10</title>
<g id="a_edge13_Node000010_Node000012"><a xlink:title=" ">
<path fill="none" stroke="#63b8ff" d="M1288.67,-419.44C1373.83,-417.66 1508.37,-409.76 1620.75,-380.38 1629.22,-378.16 1630.69,-375.78 1638.75,-372.38 1653.59,-366.11 1670.2,-359.42 1684,-353.95"/>
<polygon fill="#63b8ff" stroke="#63b8ff" points="1288.69,-415.94 1278.75,-419.62 1288.82,-422.94 1288.69,-415.94"/>
</a>
</g>
</g>
<!-- Node13 -->
<g id="Node000013" class="node">
<title>Node13</title>
<g id="a_Node000013"><a xlink:href="class_shared_factory.html" target="_top" xlink:title=" ">
<polygon fill="white" stroke="#666666" points="791.75,-418.5 687.25,-418.5 687.25,-396.25 791.75,-396.25 791.75,-418.5"/>
<text text-anchor="middle" x="739.5" y="-405" font-family="Helvetica,sans-Serif" font-size="10.00">SharedFactory&lt; T &gt;</text>
</a>
</g>
</g>
<!-- Node13&#45;&gt;Node12 -->
<g id="edge14_Node000012_Node000013" class="edge">
<title>Node13&#45;&gt;Node12</title>
<g id="a_edge14_Node000012_Node000013"><a xlink:title=" ">
<path fill="none" stroke="orange" stroke-dasharray="5,2" d="M803.4,-409.01C888.36,-411.22 1039.49,-415.15 1129.29,-417.48"/>
<polygon fill="orange" stroke="orange" points="803.71,-405.52 793.62,-408.76 803.53,-412.51 803.71,-405.52"/>
</a>
</g>
<text text-anchor="middle" x="880.62" y="-417.36" font-family="Helvetica,sans-Serif" font-size="10.00" fill="grey"> &lt; SimTerminal&lt; Complex &gt; &gt;</text>
</g>
<!-- Node15 -->
<g id="Node000015" class="node">
<title>Node15</title>
<g id="a_Node000015"><a xlink:href="class_shared_factory.html" target="_top" xlink:title=" ">
<polygon fill="white" stroke="#666666" points="1111.5,-397.62 964.25,-397.62 964.25,-361.12 1111.5,-361.12 1111.5,-397.62"/>
<text text-anchor="start" x="972.25" y="-384.12" font-family="Helvetica,sans-Serif" font-size="10.00">SharedFactory&lt; SimTerminal</text>
<text text-anchor="middle" x="1037.88" y="-369.88" font-family="Helvetica,sans-Serif" font-size="10.00">&lt; VarType &gt; &gt;</text>
</a>
</g>
</g>
<!-- Node13&#45;&gt;Node15 -->
<g id="edge18_Node000015_Node000013" class="edge">
<title>Node13&#45;&gt;Node15</title>
<g id="a_edge18_Node000015_Node000013"><a xlink:title=" ">
<path fill="none" stroke="orange" stroke-dasharray="5,2" d="M792.71,-393.22C800.14,-391.6 807.73,-390.16 815,-389.12 864.33,-382.07 920.41,-379.65 963.84,-378.99"/>
<polygon fill="orange" stroke="orange" points="792.03,-389.78 783.07,-395.44 793.6,-396.6 792.03,-389.78"/>
</a>
</g>
<text text-anchor="middle" x="880.62" y="-393.88" font-family="Helvetica,sans-Serif" font-size="10.00" fill="grey"> &lt; SimTerminal&lt; VarType &gt; &gt;</text>
</g>
<!-- Node24 -->
<g id="Node000024" class="node">
<title>Node24</title>
<g id="a_Node000024"><a xlink:href="class_shared_factory.html" target="_top" xlink:title=" ">
<polygon fill="white" stroke="#666666" points="1104.38,-263.62 971.38,-263.62 971.38,-227.12 1104.38,-227.12 1104.38,-263.62"/>
<text text-anchor="start" x="979.38" y="-250.12" font-family="Helvetica,sans-Serif" font-size="10.00">SharedFactory&lt; SimNode</text>
<text text-anchor="middle" x="1037.88" y="-235.88" font-family="Helvetica,sans-Serif" font-size="10.00">&lt; VarType &gt; &gt;</text>
</a>
</g>
</g>
<!-- Node13&#45;&gt;Node24 -->
<g id="edge32_Node000024_Node000013" class="edge">
<title>Node13&#45;&gt;Node24</title>
<g id="a_edge32_Node000024_Node000013"><a xlink:title=" ">
<path fill="none" stroke="orange" stroke-dasharray="5,2" d="M766.44,-389.44C807.21,-361.79 889.36,-308.2 964.25,-272.38 970.32,-269.47 976.79,-266.67 983.27,-264.05"/>
<polygon fill="orange" stroke="orange" points="764.53,-386.5 758.25,-395.03 768.48,-392.29 764.53,-386.5"/>
</a>
</g>
<text text-anchor="middle" x="880.62" y="-360.09" font-family="Helvetica,sans-Serif" font-size="10.00" fill="grey"> &lt; SimNode&lt; VarType &gt; &gt;</text>
</g>
<!-- Node30 -->
<g id="Node000030" class="node">
<title>Node30</title>
<g id="a_Node000030"><a xlink:href="class_shared_factory.html" target="_top" xlink:title=" ">
<polygon fill="white" stroke="#666666" points="1620.75,-483.62 1463,-483.62 1463,-447.12 1620.75,-447.12 1620.75,-483.62"/>
<text text-anchor="start" x="1471" y="-470.12" font-family="Helvetica,sans-Serif" font-size="10.00">SharedFactory&lt; VoltageSource</text>
<text text-anchor="middle" x="1541.88" y="-455.88" font-family="Helvetica,sans-Serif" font-size="10.00">Inverter &gt;</text>
</a>
</g>
</g>
<!-- Node13&#45;&gt;Node30 -->
<g id="edge45_Node000030_Node000013" class="edge">
<title>Node13&#45;&gt;Node30</title>
<g id="a_edge45_Node000030_Node000013"><a xlink:title=" ">
<path fill="none" stroke="orange" stroke-dasharray="5,2" d="M782.87,-422.45C793.26,-425.59 804.43,-428.5 815,-430.38 1047.79,-471.57 1328.68,-471.21 1462.54,-468.06"/>
<polygon fill="orange" stroke="orange" points="784.01,-419.14 773.42,-419.45 781.89,-425.81 784.01,-419.14"/>
</a>
</g>
<text text-anchor="middle" x="1037.88" y="-466.98" font-family="Helvetica,sans-Serif" font-size="10.00" fill="grey"> &lt; VoltageSourceInverter &gt;</text>
</g>
<!-- Node14&#45;&gt;Node10 -->
<g id="edge15_Node000010_Node000014" class="edge">
<title>Node14&#45;&gt;Node10</title>
<g id="a_edge15_Node000010_Node000014"><a xlink:title=" ">
<path fill="none" stroke="orange" stroke-dasharray="5,2" d="M1456.56,-363.38C1512.5,-358.81 1584.83,-352.9 1638.51,-348.51"/>
<polygon fill="orange" stroke="orange" points="1456.44,-359.87 1446.76,-364.18 1457.01,-366.85 1456.44,-359.87"/>
</a>
</g>
<text text-anchor="middle" x="1541.88" y="-366.85" font-family="Helvetica,sans-Serif" font-size="10.00" fill="grey"> &lt; Complex &gt;</text>
</g>
<!-- Node15&#45;&gt;Node14 -->
<g id="edge17_Node000014_Node000015" class="edge">
<title>Node15&#45;&gt;Node14</title>
<g id="a_edge17_Node000014_Node000015"><a xlink:title=" ">
<path fill="none" stroke="#63b8ff" d="M1123.1,-377.08C1176,-375.64 1243.61,-373.79 1294.52,-372.4"/>
<polygon fill="#63b8ff" stroke="#63b8ff" points="1123.12,-373.58 1113.22,-377.35 1123.31,-380.57 1123.12,-373.58"/>
</a>
</g>
</g>
<!-- Node16 -->
<g id="Node000016" class="node">
<title>Node16</title>
<g id="a_Node000016"><a xlink:href="class_c_p_s_1_1_sim_node.html" target="_top" xlink:title=" ">
<polygon fill="white" stroke="#bfbfbf" points="1783.38,-145.5 1645.88,-145.5 1645.88,-123.25 1783.38,-123.25 1783.38,-145.5"/>
<text text-anchor="middle" x="1714.62" y="-132" font-family="Helvetica,sans-Serif" font-size="10.00">CPS::SimNode&lt; Complex &gt;</text>
</a>
</g>
</g>
<!-- Node16&#45;&gt;Node2 -->
<g id="edge19_Node000002_Node000016" class="edge">
<title>Node16&#45;&gt;Node2</title>
<g id="a_edge19_Node000002_Node000016"><a xlink:title=" ">
<path fill="none" stroke="#9a32cd" stroke-dasharray="5,2" d="M1768.7,-149.51C1805.24,-162.63 1852.03,-185.27 1879.75,-221.12 1901.05,-248.67 1874.91,-271.09 1897.75,-297.38 1900.8,-300.88 1904.36,-303.94 1908.22,-306.6"/>
<polygon fill="#9a32cd" stroke="#9a32cd" points="1770.23,-146.33 1759.63,-146.39 1767.95,-152.95 1770.23,-146.33"/>
</a>
</g>
<text text-anchor="middle" x="1844.12" y="-225.88" font-family="Helvetica,sans-Serif" font-size="10.00" fill="grey"> mVirtualNodes</text>
</g>
<!-- Node17&#45;&gt;Node16 -->
<g id="edge20_Node000016_Node000017" class="edge">
<title>Node17&#45;&gt;Node16</title>
<g id="a_edge20_Node000016_Node000017"><a xlink:title=" ">
<path fill="none" stroke="#63b8ff" d="M1107.54,-156.52C1159.02,-160.81 1231.24,-166.14 1294.75,-168.38 1361.49,-170.72 1378.33,-172.16 1445,-168.38 1523.49,-163.92 1542.81,-158.68 1620.75,-148.38 1628.75,-147.32 1637.13,-146.14 1645.44,-144.94"/>
<polygon fill="#63b8ff" stroke="#63b8ff" points="1108,-153.05 1097.74,-155.69 1107.41,-160.02 1108,-153.05"/>
</a>
</g>
</g>
<!-- Node22 -->
<g id="Node000022" class="node">
<title>Node22</title>
<g id="a_Node000022"><a xlink:href="class_c_p_s_1_1_sim_node.html" target="_top" xlink:title=" ">
<polygon fill="white" stroke="#bfbfbf" points="1437.88,-50.5 1301.88,-50.5 1301.88,-28.25 1437.88,-28.25 1437.88,-50.5"/>
<text text-anchor="middle" x="1369.88" y="-37" font-family="Helvetica,sans-Serif" font-size="10.00">CPS::SimNode&lt; VarType &gt;</text>
</a>
</g>
</g>
<!-- Node17&#45;&gt;Node22 -->
<g id="edge29_Node000022_Node000017" class="edge">
<title>Node17&#45;&gt;Node22</title>
<g id="a_edge29_Node000022_Node000017"><a xlink:title=" ">
<path fill="none" stroke="#63b8ff" d="M1106.86,-140.28C1156.82,-130.54 1224.77,-112.25 1276.75,-79.38 1286.86,-72.98 1284.56,-65.63 1294.75,-59.38 1300.2,-56.03 1306.22,-53.23 1312.39,-50.9"/>
<polygon fill="#63b8ff" stroke="#63b8ff" points="1106.52,-136.79 1097.34,-142.07 1107.81,-143.67 1106.52,-136.79"/>
</a>
</g>
</g>
<!-- Node18&#45;&gt;Node17 -->
<g id="edge22_Node000017_Node000018" class="edge">
<title>Node18&#45;&gt;Node17</title>
<g id="a_edge22_Node000017_Node000018"><a xlink:title=" ">
<path fill="none" stroke="#9a32cd" stroke-dasharray="5,2" d="M618.87,-154.5C722.75,-153.48 891.86,-151.81 979.76,-150.94"/>
<polygon fill="#9a32cd" stroke="#9a32cd" points="618.95,-151 608.98,-154.6 619.02,-158 618.95,-151"/>
</a>
</g>
<text text-anchor="middle" x="739.5" y="-158.6" font-family="Helvetica,sans-Serif" font-size="10.00" fill="grey"> mInitialVoltage</text>
</g>
<!-- Node19 -->
<g id="Node000019" class="node">
<title>Node19</title>
<g id="a_Node000019"><a xlink:title=" ">
<polygon fill="white" stroke="#bfbfbf" points="280.88,-194.75 165.88,-194.75 165.88,-144 280.88,-144 280.88,-194.75"/>
<text text-anchor="start" x="173.88" y="-181.25" font-family="Helvetica,sans-Serif" font-size="10.00">std::enable_shared</text>
<text text-anchor="start" x="173.88" y="-167" font-family="Helvetica,sans-Serif" font-size="10.00">_from_this&lt; Attribute</text>
<text text-anchor="middle" x="223.38" y="-152.75" font-family="Helvetica,sans-Serif" font-size="10.00">&lt; MatrixComp &gt; &gt;</text>
</a>
</g>
</g>
<!-- Node19&#45;&gt;Node18 -->
<g id="edge24_Node000018_Node000019" class="edge">
<title>Node19&#45;&gt;Node18</title>
<g id="a_edge24_Node000018_Node000019"><a xlink:title=" ">
<path fill="none" stroke="#63b8ff" d="M292.48,-166.24C339.53,-164.07 402.19,-161.18 451.09,-158.93"/>
<polygon fill="#63b8ff" stroke="#63b8ff" points="292.52,-162.73 282.69,-166.69 292.84,-169.72 292.52,-162.73"/>
</a>
</g>
</g>
<!-- Node20 -->
<g id="Node000020" class="node">
<title>Node20</title>
<g id="a_Node000020"><a xlink:title=" ">
<polygon fill="white" stroke="#bfbfbf" points="1427,-159.75 1312.75,-159.75 1312.75,-109 1427,-109 1427,-159.75"/>
<text text-anchor="start" x="1320.75" y="-146.25" font-family="Helvetica,sans-Serif" font-size="10.00">std::enable_shared</text>
<text text-anchor="start" x="1320.75" y="-132" font-family="Helvetica,sans-Serif" font-size="10.00">_from_this&lt; SimNode</text>
<text text-anchor="middle" x="1369.88" y="-117.75" font-family="Helvetica,sans-Serif" font-size="10.00">&lt; Complex &gt; &gt;</text>
</a>
</g>
</g>
<!-- Node20&#45;&gt;Node16 -->
<g id="edge26_Node000016_Node000020" class="edge">
<title>Node20&#45;&gt;Node16</title>
<g id="a_edge26_Node000016_Node000020"><a xlink:title=" ">
<path fill="none" stroke="#63b8ff" d="M1438.7,-134.38C1498.58,-134.38 1585.44,-134.38 1645.43,-134.38"/>
<polygon fill="#63b8ff" stroke="#63b8ff" points="1438.99,-130.88 1428.99,-134.38 1438.99,-137.88 1438.99,-130.88"/>
</a>
</g>
</g>
<!-- Node21 -->
<g id="Node000021" class="node">
<title>Node21</title>
<g id="a_Node000021"><a xlink:href="class_shared_factory.html" target="_top" xlink:title=" ">
<polygon fill="white" stroke="#666666" points="1422.12,-90.5 1317.62,-90.5 1317.62,-68.25 1422.12,-68.25 1422.12,-90.5"/>
<text text-anchor="middle" x="1369.88" y="-77" font-family="Helvetica,sans-Serif" font-size="10.00">SharedFactory&lt; T &gt;</text>
</a>
</g>
</g>
<!-- Node21&#45;&gt;Node16 -->
<g id="edge27_Node000016_Node000021" class="edge">
<title>Node21&#45;&gt;Node16</title>
<g id="a_edge27_Node000016_Node000021"><a xlink:title=" ">
<path fill="none" stroke="#63b8ff" d="M1433.77,-89.47C1493.76,-99.09 1583.88,-113.56 1645.54,-123.45"/>
<polygon fill="#63b8ff" stroke="#63b8ff" points="1434.48,-86.04 1424.05,-87.91 1433.37,-92.95 1434.48,-86.04"/>
</a>
</g>
</g>
<!-- Node22&#45;&gt;Node16 -->
<g id="edge28_Node000016_Node000022" class="edge">
<title>Node22&#45;&gt;Node16</title>
<g id="a_edge28_Node000016_Node000022"><a xlink:title=" ">
<path fill="none" stroke="orange" stroke-dasharray="5,2" d="M1449.62,-43.16C1499.84,-47.53 1565.62,-56.93 1620.75,-77.12 1650.81,-88.14 1681.66,-109.56 1699.15,-122.85"/>
<polygon fill="orange" stroke="orange" points="1449.94,-39.68 1439.69,-42.35 1449.37,-46.65 1449.94,-39.68"/>
</a>
</g>
<text text-anchor="middle" x="1541.88" y="-81.88" font-family="Helvetica,sans-Serif" font-size="10.00" fill="grey"> &lt; Complex &gt;</text>
</g>
<!-- Node23 -->
<g id="Node000023" class="node">
<title>Node23</title>
<g id="a_Node000023"><a xlink:title=" ">
<polygon fill="white" stroke="#bfbfbf" points="1095,-117.75 980.75,-117.75 980.75,-67 1095,-67 1095,-117.75"/>
<text text-anchor="start" x="988.75" y="-104.25" font-family="Helvetica,sans-Serif" font-size="10.00">std::enable_shared</text>
<text text-anchor="start" x="988.75" y="-90" font-family="Helvetica,sans-Serif" font-size="10.00">_from_this&lt; SimNode</text>
<text text-anchor="middle" x="1037.88" y="-75.75" font-family="Helvetica,sans-Serif" font-size="10.00">&lt; VarType &gt; &gt;</text>
</a>
</g>
</g>
<!-- Node23&#45;&gt;Node22 -->
<g id="edge30_Node000022_Node000023" class="edge">
<title>Node23&#45;&gt;Node22</title>
<g id="a_edge30_Node000022_Node000023"><a xlink:title=" ">
<path fill="none" stroke="#63b8ff" d="M1106.3,-81.55C1163.34,-72.39 1244.66,-59.32 1301.64,-50.17"/>
<polygon fill="#63b8ff" stroke="#63b8ff" points="1106.04,-78.04 1096.72,-83.08 1107.15,-84.95 1106.04,-78.04"/>
</a>
</g>
</g>
<!-- Node24&#45;&gt;Node22 -->
<g id="edge31_Node000022_Node000024" class="edge">
<title>Node24&#45;&gt;Node22</title>
<g id="a_edge31_Node000022_Node000024"><a xlink:title=" ">
<path fill="none" stroke="#63b8ff" d="M1115.25,-222.88C1167.75,-203.68 1235.23,-170.99 1276.75,-120.38 1294.68,-98.52 1274.53,-79.13 1294.75,-59.38 1298.18,-56.02 1302.12,-53.22 1306.34,-50.87"/>
<polygon fill="#63b8ff" stroke="#63b8ff" points="1114.3,-219.5 1106.05,-226.15 1116.65,-226.1 1114.3,-219.5"/>
</a>
</g>
</g>
<!-- Node25&#45;&gt;Node22 -->
<g id="edge33_Node000022_Node000025" class="edge">
<title>Node25&#45;&gt;Node22</title>
<g id="a_edge33_Node000022_Node000025"><a xlink:title=" ">
<path fill="none" stroke="#9a32cd" stroke-dasharray="5,2" d="M608.89,-74.72C772.73,-67.1 1148.17,-49.64 1301.64,-42.5"/>
<polygon fill="#9a32cd" stroke="#9a32cd" points="608.8,-71.22 598.97,-75.18 609.12,-78.21 608.8,-71.22"/>
</a>
</g>
<text text-anchor="middle" x="880.62" y="-84.08" font-family="Helvetica,sans-Serif" font-size="10.00" fill="grey"> mApparentPower</text>
<text text-anchor="middle" x="880.62" y="-69.83" font-family="Helvetica,sans-Serif" font-size="10.00" fill="grey">mVoltage</text>
</g>
<!-- Node25&#45;&gt;Node29 -->
<g id="edge43_Node000029_Node000025" class="edge">
<title>Node25&#45;&gt;Node29</title>
<g id="a_edge43_Node000029_Node000025"><a xlink:title=" ">
<path fill="none" stroke="#9a32cd" stroke-dasharray="5,2" d="M608.53,-95.48C695.35,-114.34 839.65,-145.32 964.25,-170.38 1087.11,-195.08 1231.38,-222.05 1310.17,-236.6"/>
<polygon fill="#9a32cd" stroke="#9a32cd" points="609.44,-92.1 598.92,-93.39 607.95,-98.94 609.44,-92.1"/>
</a>
</g>
<text text-anchor="middle" x="880.62" y="-184.83" font-family="Helvetica,sans-Serif" font-size="10.00" fill="grey"> mIntfCurrent</text>
<text text-anchor="middle" x="880.62" y="-170.58" font-family="Helvetica,sans-Serif" font-size="10.00" fill="grey">mIntfVoltage</text>
</g>
<!-- Node26 -->
<g id="Node000026" class="node">
<title>Node26</title>
<g id="a_Node000026"><a xlink:title=" ">
<polygon fill="white" stroke="#bfbfbf" points="294,-50.75 152.75,-50.75 152.75,0 294,0 294,-50.75"/>
<text text-anchor="start" x="160.75" y="-37.25" font-family="Helvetica,sans-Serif" font-size="10.00">std::enable_shared</text>
<text text-anchor="start" x="160.75" y="-23" font-family="Helvetica,sans-Serif" font-size="10.00">_from_this&lt; Attribute</text>
<text text-anchor="middle" x="223.38" y="-8.75" font-family="Helvetica,sans-Serif" font-size="10.00">&lt; MatrixVar&lt; VarType &gt; &gt; &gt;</text>
</a>
</g>
</g>
<!-- Node26&#45;&gt;Node25 -->
<g id="edge35_Node000025_Node000026" class="edge">
<title>Node26&#45;&gt;Node25</title>
<g id="a_edge35_Node000025_Node000026"><a xlink:title=" ">
<path fill="none" stroke="#63b8ff" d="M305.57,-39.54C354.09,-48 415.01,-58.62 460.86,-66.62"/>
<polygon fill="#63b8ff" stroke="#63b8ff" points="306.42,-36.13 295.96,-37.86 305.21,-43.03 306.42,-36.13"/>
</a>
</g>
</g>
<!-- Node27&#45;&gt;Node2 -->
<g id="edge37_Node000002_Node000027" class="edge">
<title>Node27&#45;&gt;Node2</title>
<g id="a_edge37_Node000002_Node000027"><a xlink:title=" ">
<path fill="none" stroke="#9a32cd" stroke-dasharray="5,2" d="M571.61,-463.51C612.57,-485.11 677.79,-513.38 738.5,-513.38 738.5,-513.38 738.5,-513.38 1715.62,-513.38 1828.38,-513.38 1922.79,-390.4 1955.09,-342.84"/>
<polygon fill="#9a32cd" stroke="#9a32cd" points="573.28,-460.44 562.82,-458.77 569.95,-466.6 573.28,-460.44"/>
</a>
</g>
<text text-anchor="middle" x="1203.12" y="-532.38" font-family="Helvetica,sans-Serif" font-size="10.00" fill="grey"> mIntfCurrent</text>
<text text-anchor="middle" x="1203.12" y="-518.12" font-family="Helvetica,sans-Serif" font-size="10.00" fill="grey">mIntfVoltage</text>
</g>
<!-- Node28 -->
<g id="Node000028" class="node">
<title>Node28</title>
<g id="a_Node000028"><a xlink:title=" ">
<polygon fill="white" stroke="#bfbfbf" points="294.75,-438.75 152,-438.75 152,-388 294.75,-388 294.75,-438.75"/>
<text text-anchor="start" x="160" y="-425.25" font-family="Helvetica,sans-Serif" font-size="10.00">std::enable_shared</text>
<text text-anchor="start" x="160" y="-411" font-family="Helvetica,sans-Serif" font-size="10.00">_from_this&lt; Attribute</text>
<text text-anchor="middle" x="223.38" y="-396.75" font-family="Helvetica,sans-Serif" font-size="10.00">&lt; MatrixVar&lt; Complex &gt; &gt; &gt;</text>
</a>
</g>
</g>
<!-- Node28&#45;&gt;Node27 -->
<g id="edge39_Node000027_Node000028" class="edge">
<title>Node28&#45;&gt;Node27</title>
<g id="a_edge39_Node000027_Node000028"><a xlink:title=" ">
<path fill="none" stroke="#63b8ff" d="M306.63,-420.41C355,-424.55 415.41,-429.72 460.93,-433.62"/>
<polygon fill="#63b8ff" stroke="#63b8ff" points="307.01,-416.93 296.74,-419.57 306.41,-423.91 307.01,-416.93"/>
</a>
</g>
</g>
<!-- Node29&#45;&gt;Node2 -->
<g id="edge41_Node000002_Node000029" class="edge">
<title>Node29&#45;&gt;Node2</title>
<g id="a_edge41_Node000002_Node000029"><a xlink:title=" ">
<path fill="none" stroke="orange" stroke-dasharray="5,2" d="M1440.85,-235.07C1543.38,-220.59 1737.63,-206.85 1879.75,-279.38 1889.83,-284.52 1888.28,-291.19 1897.75,-297.38 1902.4,-300.41 1907.43,-303.19 1912.6,-305.71"/>
<polygon fill="orange" stroke="orange" points="1440.6,-231.57 1431.21,-236.48 1441.62,-238.5 1440.6,-231.57"/>
</a>
</g>
<text text-anchor="middle" x="1714.62" y="-249.64" font-family="Helvetica,sans-Serif" font-size="10.00" fill="grey"> &lt; Complex &gt;</text>
</g>
<!-- Node30&#45;&gt;Node1 -->
<g id="edge44_Node000001_Node000030" class="edge">
<title>Node30&#45;&gt;Node1</title>
<g id="a_edge44_Node000001_Node000030"><a xlink:title=" ">
<path fill="none" stroke="#63b8ff" d="M1632.22,-445.25C1731.49,-422.78 1896.48,-385.14 2038.25,-351.38 2050.07,-348.56 2062.6,-345.52 2074.79,-342.54"/>
<polygon fill="#63b8ff" stroke="#63b8ff" points="1631.5,-441.82 1622.51,-447.44 1633.04,-448.65 1631.5,-441.82"/>
</a>
</g>
</g>
<!-- Node31 -->
<g id="Node000031" class="node">
<title>Node31</title>
<g id="a_Node000031"><a xlink:href="class_c_p_s_1_1_p_f_solver_interface_bus.html" target="_top" xlink:title="Common base class of all Component templates.">
<polygon fill="white" stroke="#666666" points="2038.25,-288.5 1897.75,-288.5 1897.75,-266.25 2038.25,-266.25 2038.25,-288.5"/>
<text text-anchor="middle" x="1968" y="-275" font-family="Helvetica,sans-Serif" font-size="10.00">CPS::PFSolverInterfaceBus</text>
</a>
</g>
</g>
<!-- Node31&#45;&gt;Node1 -->
<g id="edge46_Node000001_Node000031" class="edge">
<title>Node31&#45;&gt;Node1</title>
<g id="a_edge46_Node000001_Node000031"><a xlink:title=" ">
<path fill="none" stroke="#63b8ff" d="M2024.34,-291.92C2040.89,-296.26 2059.26,-301.09 2076.67,-305.67"/>
<polygon fill="#63b8ff" stroke="#63b8ff" points="2025.24,-288.53 2014.68,-289.38 2023.46,-295.3 2025.24,-288.53"/>
</a>
</g>
</g>
</g>
</svg>
