<?xml version="1.0" encoding="UTF-8" standalone="no"?>
<!DOCTYPE svg PUBLIC "-//W3C//DTD SVG 1.1//EN"
 "http://www.w3.org/Graphics/SVG/1.1/DTD/svg11.dtd">
<!-- Generated by graphviz version 12.2.1 (20241206.2353)
 -->
<!-- Title: CPS::SP::Ph1::VDNode Pages: 1 -->
<svg width="2162pt" height="654pt"
 viewBox="0.00 0.00 2161.50 654.15" xmlns="http://www.w3.org/2000/svg" xmlns:xlink="http://www.w3.org/1999/xlink">
<g id="graph0" class="graph" transform="scale(1 1) rotate(0) translate(4 650.15)">
<title>CPS::SP::Ph1::VDNode</title>
<!-- Node1 -->
<g id="Node000001" class="node">
<title>Node1</title>
<g id="a_Node000001"><a xlink:title=" ">
<polygon fill="#999999" stroke="#666666" points="2153.5,-318.9 2034,-318.9 2034,-296.65 2153.5,-296.65 2153.5,-318.9"/>
<text text-anchor="middle" x="2093.75" y="-305.4" font-family="Helvetica,sans-Serif" font-size="10.00">CPS::SP::Ph1::VDNode</text>
</a>
</g>
</g>
<!-- Node2 -->
<g id="Node000002" class="node">
<title>Node2</title>
<g id="a_Node000002"><a xlink:href="class_c_p_s_1_1_sim_power_comp.html" target="_top" xlink:title=" ">
<polygon fill="white" stroke="#666666" points="1997,-326.02 1878.25,-326.02 1878.25,-289.52 1997,-289.52 1997,-326.02"/>
<text text-anchor="start" x="1886.25" y="-312.52" font-family="Helvetica,sans-Serif" font-size="10.00">CPS::SimPowerComp&lt;</text>
<text text-anchor="middle" x="1937.62" y="-298.27" font-family="Helvetica,sans-Serif" font-size="10.00"> Complex &gt;</text>
</a>
</g>
</g>
<!-- Node2&#45;&gt;Node1 -->
<g id="edge1_Node000001_Node000002" class="edge">
<title>Node2&#45;&gt;Node1</title>
<g id="a_edge1_Node000001_Node000002"><a xlink:title=" ">
<path fill="none" stroke="#63b8ff" d="M2008.64,-307.77C2017.01,-307.77 2025.5,-307.77 2033.69,-307.77"/>
<polygon fill="#63b8ff" stroke="#63b8ff" points="2008.85,-304.27 1998.85,-307.77 2008.85,-311.27 2008.85,-304.27"/>
</a>
</g>
</g>
<!-- Node3 -->
<g id="Node000003" class="node">
<title>Node3</title>
<g id="a_Node000003"><a xlink:href="class_c_p_s_1_1_topological_power_comp.html" target="_top" xlink:title=" ">
<polygon fill="white" stroke="#666666" points="1111.5,-451.9 964.25,-451.9 964.25,-429.65 1111.5,-429.65 1111.5,-451.9"/>
<text text-anchor="middle" x="1037.88" y="-438.4" font-family="Helvetica,sans-Serif" font-size="10.00">CPS::TopologicalPowerComp</text>
</a>
</g>
</g>
<!-- Node3&#45;&gt;Node2 -->
<g id="edge2_Node000002_Node000003" class="edge">
<title>Node3&#45;&gt;Node2</title>
<g id="a_edge2_Node000002_Node000003"><a xlink:title=" ">
<path fill="none" stroke="#63b8ff" d="M1123.04,-436.8C1233.42,-430.72 1432.86,-416.74 1601.25,-388.77 1699.34,-372.48 1811.23,-343.26 1877.79,-324.73"/>
<polygon fill="#63b8ff" stroke="#63b8ff" points="1122.96,-433.3 1113.17,-437.33 1123.34,-440.29 1122.96,-433.3"/>
</a>
</g>
</g>
<!-- Node29 -->
<g id="Node000029" class="node">
<title>Node29</title>
<g id="a_Node000029"><a xlink:href="class_c_p_s_1_1_sim_power_comp.html" target="_top" xlink:title="Base class for all components that are transmitting power.">
<polygon fill="white" stroke="#666666" points="1429.25,-491.02 1310.5,-491.02 1310.5,-454.52 1429.25,-454.52 1429.25,-491.02"/>
<text text-anchor="start" x="1318.5" y="-477.52" font-family="Helvetica,sans-Serif" font-size="10.00">CPS::SimPowerComp&lt;</text>
<text text-anchor="middle" x="1369.88" y="-463.27" font-family="Helvetica,sans-Serif" font-size="10.00"> VarType &gt;</text>
</a>
</g>
</g>
<!-- Node3&#45;&gt;Node29 -->
<g id="edge42_Node000029_Node000003" class="edge">
<title>Node3&#45;&gt;Node29</title>
<g id="a_edge42_Node000029_Node000003"><a xlink:title=" ">
<path fill="none" stroke="#63b8ff" d="M1123.16,-448.95C1181.71,-454.62 1258.26,-462.05 1310.24,-467.09"/>
<polygon fill="#63b8ff" stroke="#63b8ff" points="1123.5,-445.46 1113.21,-447.98 1122.83,-452.43 1123.5,-445.46"/>
</a>
</g>
</g>
<!-- Node4 -->
<g id="Node000004" class="node">
<title>Node4</title>
<g id="a_Node000004"><a xlink:href="class_c_p_s_1_1_identified_object.html" target="_top" xlink:title=" ">
<polygon fill="white" stroke="#666666" points="797,-251.9 682,-251.9 682,-229.65 797,-229.65 797,-251.9"/>
<text text-anchor="middle" x="739.5" y="-238.4" font-family="Helvetica,sans-Serif" font-size="10.00">CPS::IdentifiedObject</text>
</a>
</g>
</g>
<!-- Node4&#45;&gt;Node3 -->
<g id="edge3_Node000003_Node000004" class="edge">
<title>Node4&#45;&gt;Node3</title>
<g id="a_edge3_Node000003_Node000004"><a xlink:title=" ">
<path fill="none" stroke="#63b8ff" d="M774.97,-257.46C782.35,-261.31 790.02,-265.52 797,-269.77 886.12,-324.02 985.53,-400.4 1022.24,-429.19"/>
<polygon fill="#63b8ff" stroke="#63b8ff" points="776.69,-254.4 766.19,-252.98 773.51,-260.64 776.69,-254.4"/>
</a>
</g>
</g>
<!-- Node11 -->
<g id="Node000011" class="node">
<title>Node11</title>
<g id="a_Node000011"><a xlink:href="class_c_p_s_1_1_topological_terminal.html" target="_top" xlink:title=" ">
<polygon fill="white" stroke="#bfbfbf" points="1102.88,-210.9 972.88,-210.9 972.88,-188.65 1102.88,-188.65 1102.88,-210.9"/>
<text text-anchor="middle" x="1037.88" y="-197.4" font-family="Helvetica,sans-Serif" font-size="10.00">CPS::TopologicalTerminal</text>
</a>
</g>
</g>
<!-- Node4&#45;&gt;Node11 -->
<g id="edge12_Node000011_Node000004" class="edge">
<title>Node4&#45;&gt;Node11</title>
<g id="a_edge12_Node000011_Node000004"><a xlink:title=" ">
<path fill="none" stroke="#63b8ff" d="M808.71,-234.61C848.86,-230.62 900.57,-224.85 946.25,-217.77 957.98,-215.95 970.5,-213.68 982.38,-211.37"/>
<polygon fill="#63b8ff" stroke="#63b8ff" points="808.55,-231.11 798.94,-235.57 809.24,-238.08 808.55,-231.11"/>
</a>
</g>
</g>
<!-- Node17 -->
<g id="Node000017" class="node">
<title>Node17</title>
<g id="a_Node000017"><a xlink:href="class_c_p_s_1_1_topological_node.html" target="_top" xlink:title=" ">
<polygon fill="white" stroke="#bfbfbf" points="1095.75,-304.9 980,-304.9 980,-282.65 1095.75,-282.65 1095.75,-304.9"/>
<text text-anchor="middle" x="1037.88" y="-291.4" font-family="Helvetica,sans-Serif" font-size="10.00">CPS::TopologicalNode</text>
</a>
</g>
</g>
<!-- Node4&#45;&gt;Node17 -->
<g id="edge21_Node000017_Node000004" class="edge">
<title>Node4&#45;&gt;Node17</title>
<g id="a_edge21_Node000017_Node000004"><a xlink:title=" ">
<path fill="none" stroke="#63b8ff" d="M808.36,-252.91C860.11,-262.16 930.57,-274.76 979.52,-283.51"/>
<polygon fill="#63b8ff" stroke="#63b8ff" points="809.24,-249.51 798.78,-251.19 808.01,-256.4 809.24,-249.51"/>
</a>
</g>
</g>
<!-- Node5 -->
<g id="Node000005" class="node">
<title>Node5</title>
<g id="a_Node000005"><a xlink:href="class_c_p_s_1_1_attribute.html" target="_top" xlink:title=" ">
<polygon fill="white" stroke="#666666" points="592.38,-228.9 466.12,-228.9 466.12,-206.65 592.38,-206.65 592.38,-228.9"/>
<text text-anchor="middle" x="529.25" y="-215.4" font-family="Helvetica,sans-Serif" font-size="10.00">CPS::Attribute&lt; String &gt;</text>
</a>
</g>
</g>
<!-- Node5&#45;&gt;Node4 -->
<g id="edge4_Node000004_Node000005" class="edge">
<title>Node5&#45;&gt;Node4</title>
<g id="a_edge4_Node000004_Node000005"><a xlink:title=" ">
<path fill="none" stroke="#9a32cd" stroke-dasharray="5,2" d="M603.89,-225.9C629.47,-228.73 657.74,-231.85 681.74,-234.5"/>
<polygon fill="#9a32cd" stroke="#9a32cd" points="604.56,-222.46 594.24,-224.84 603.79,-229.42 604.56,-222.46"/>
</a>
</g>
<text text-anchor="middle" x="644.5" y="-251.01" font-family="Helvetica,sans-Serif" font-size="10.00" fill="grey"> mName</text>
<text text-anchor="middle" x="644.5" y="-236.76" font-family="Helvetica,sans-Serif" font-size="10.00" fill="grey">mUID</text>
</g>
<!-- Node6 -->
<g id="Node000006" class="node">
<title>Node6</title>
<g id="a_Node000006"><a xlink:href="class_c_p_s_1_1_attribute_base.html" target="_top" xlink:title=" ">
<polygon fill="white" stroke="#666666" points="109.75,-327.9 5.25,-327.9 5.25,-305.65 109.75,-305.65 109.75,-327.9"/>
<text text-anchor="middle" x="57.5" y="-314.4" font-family="Helvetica,sans-Serif" font-size="10.00">CPS::AttributeBase</text>
</a>
</g>
</g>
<!-- Node6&#45;&gt;Node5 -->
<g id="edge5_Node000005_Node000006" class="edge">
<title>Node6&#45;&gt;Node5</title>
<g id="a_edge5_Node000005_Node000006"><a xlink:title=" ">
<path fill="none" stroke="#63b8ff" d="M70.88,-295.71C86.38,-271.61 115.41,-233.33 152,-216.77 262.24,-166.87 409.96,-189.72 483.18,-206.15"/>
<polygon fill="#63b8ff" stroke="#63b8ff" points="67.99,-293.73 65.7,-304.08 73.94,-297.41 67.99,-293.73"/>
</a>
</g>
</g>
<!-- Node8 -->
<g id="Node000008" class="node">
<title>Node8</title>
<g id="a_Node000008"><a xlink:href="class_c_p_s_1_1_attribute.html" target="_top" xlink:title=" ">
<polygon fill="white" stroke="#666666" points="275.25,-365.9 171.5,-365.9 171.5,-343.65 275.25,-343.65 275.25,-365.9"/>
<text text-anchor="middle" x="223.38" y="-352.4" font-family="Helvetica,sans-Serif" font-size="10.00">CPS::Attribute&lt; T &gt;</text>
</a>
</g>
</g>
<!-- Node6&#45;&gt;Node8 -->
<g id="edge8_Node000008_Node000006" class="edge">
<title>Node6&#45;&gt;Node8</title>
<g id="a_edge8_Node000008_Node000006"><a xlink:title=" ">
<path fill="none" stroke="#63b8ff" d="M119.73,-330.97C137.07,-334.99 155.74,-339.32 172.34,-343.17"/>
<polygon fill="#63b8ff" stroke="#63b8ff" points="120.56,-327.57 110.03,-328.72 118.98,-334.39 120.56,-327.57"/>
</a>
</g>
</g>
<!-- Node18 -->
<g id="Node000018" class="node">
<title>Node18</title>
<g id="a_Node000018"><a xlink:href="class_c_p_s_1_1_attribute.html" target="_top" xlink:title=" ">
<polygon fill="white" stroke="#666666" points="607,-296.9 451.5,-296.9 451.5,-274.65 607,-274.65 607,-296.9"/>
<text text-anchor="middle" x="529.25" y="-283.4" font-family="Helvetica,sans-Serif" font-size="10.00">CPS::Attribute&lt; MatrixComp &gt;</text>
</a>
</g>
</g>
<!-- Node6&#45;&gt;Node18 -->
<g id="edge23_Node000018_Node000006" class="edge">
<title>Node6&#45;&gt;Node18</title>
<g id="a_edge23_Node000018_Node000006"><a xlink:title=" ">
<path fill="none" stroke="#63b8ff" d="M121.37,-312.14C172.81,-308.39 247.48,-303.05 312.75,-298.77 358.66,-295.76 410.09,-292.65 451.19,-290.23"/>
<polygon fill="#63b8ff" stroke="#63b8ff" points="121.33,-308.63 111.62,-312.85 121.84,-315.61 121.33,-308.63"/>
</a>
</g>
</g>
<!-- Node25 -->
<g id="Node000025" class="node">
<title>Node25</title>
<g id="a_Node000025"><a xlink:href="class_c_p_s_1_1_attribute.html" target="_top" xlink:title=" ">
<polygon fill="white" stroke="#666666" points="597.25,-439.02 461.25,-439.02 461.25,-402.52 597.25,-402.52 597.25,-439.02"/>
<text text-anchor="start" x="469.25" y="-425.52" font-family="Helvetica,sans-Serif" font-size="10.00">CPS::Attribute&lt; MatrixVar</text>
<text text-anchor="middle" x="529.25" y="-411.27" font-family="Helvetica,sans-Serif" font-size="10.00">&lt; VarType &gt; &gt;</text>
</a>
</g>
</g>
<!-- Node6&#45;&gt;Node25 -->
<g id="edge34_Node000025_Node000006" class="edge">
<title>Node6&#45;&gt;Node25</title>
<g id="a_edge34_Node000025_Node000006"><a xlink:title=" ">
<path fill="none" stroke="#63b8ff" d="M82.37,-334.95C100.54,-347.92 126.66,-364.77 152,-374.77 254.38,-415.17 383.58,-422.42 460.86,-422.59"/>
<polygon fill="#63b8ff" stroke="#63b8ff" points="84.51,-332.18 74.37,-329.1 80.38,-337.83 84.51,-332.18"/>
</a>
</g>
</g>
<!-- Node27 -->
<g id="Node000027" class="node">
<title>Node27</title>
<g id="a_Node000027"><a xlink:href="class_c_p_s_1_1_attribute.html" target="_top" xlink:title=" ">
<polygon fill="white" stroke="#666666" points="597.25,-67.02 461.25,-67.02 461.25,-30.52 597.25,-30.52 597.25,-67.02"/>
<text text-anchor="start" x="469.25" y="-53.52" font-family="Helvetica,sans-Serif" font-size="10.00">CPS::Attribute&lt; MatrixVar</text>
<text text-anchor="middle" x="529.25" y="-39.27" font-family="Helvetica,sans-Serif" font-size="10.00">&lt; Complex &gt; &gt;</text>
</a>
</g>
</g>
<!-- Node6&#45;&gt;Node27 -->
<g id="edge38_Node000027_Node000006" class="edge">
<title>Node6&#45;&gt;Node27</title>
<g id="a_edge38_Node000027_Node000006"><a xlink:title=" ">
<path fill="none" stroke="#63b8ff" d="M58.16,-293.75C58.77,-239.03 68.88,-101.3 152,-41.77 248.8,27.56 398.47,-5.37 476.66,-30.1"/>
<polygon fill="#63b8ff" stroke="#63b8ff" points="54.66,-293.72 58.17,-303.72 61.66,-293.71 54.66,-293.72"/>
</a>
</g>
</g>
<!-- Node31 -->
<g id="Node000031" class="node">
<title>Node31</title>
<g id="a_Node000031"><a xlink:href="class_c_p_s_1_1_attribute.html" target="_top" xlink:title=" ">
<polygon fill="white" stroke="#666666" points="588.25,-548.9 470.25,-548.9 470.25,-526.65 588.25,-526.65 588.25,-548.9"/>
<text text-anchor="middle" x="529.25" y="-535.4" font-family="Helvetica,sans-Serif" font-size="10.00">CPS::Attribute&lt; Real &gt;</text>
</a>
</g>
</g>
<!-- Node6&#45;&gt;Node31 -->
<g id="edge47_Node000031_Node000006" class="edge">
<title>Node6&#45;&gt;Node31</title>
<g id="a_edge47_Node000031_Node000006"><a xlink:title=" ">
<path fill="none" stroke="#63b8ff" d="M58.66,-339.63C60.42,-392.16 72.97,-521.21 152,-576.77 264.28,-655.71 444.01,-579.76 506.21,-549.22"/>
<polygon fill="#63b8ff" stroke="#63b8ff" points="62.16,-339.72 58.45,-329.8 55.16,-339.87 62.16,-339.72"/>
</a>
</g>
</g>
<!-- Node7 -->
<g id="Node000007" class="node">
<title>Node7</title>
<g id="a_Node000007"><a xlink:title=" ">
<polygon fill="white" stroke="#bfbfbf" points="280.88,-170.15 165.88,-170.15 165.88,-119.4 280.88,-119.4 280.88,-170.15"/>
<text text-anchor="start" x="173.88" y="-156.65" font-family="Helvetica,sans-Serif" font-size="10.00">std::enable_shared</text>
<text text-anchor="start" x="173.88" y="-142.4" font-family="Helvetica,sans-Serif" font-size="10.00">_from_this&lt; Attribute</text>
<text text-anchor="middle" x="223.38" y="-128.15" font-family="Helvetica,sans-Serif" font-size="10.00">&lt; String &gt; &gt;</text>
</a>
</g>
</g>
<!-- Node7&#45;&gt;Node5 -->
<g id="edge6_Node000005_Node000007" class="edge">
<title>Node7&#45;&gt;Node5</title>
<g id="a_edge6_Node000005_Node000007"><a xlink:title=" ">
<path fill="none" stroke="#63b8ff" d="M292.57,-154.66C333.75,-161.32 387.07,-171.2 433.5,-183.77 456.27,-189.94 481.38,-199.06 500.02,-206.3"/>
<polygon fill="#63b8ff" stroke="#63b8ff" points="293.21,-151.21 282.78,-153.1 292.11,-158.13 293.21,-151.21"/>
</a>
</g>
</g>
<!-- Node8&#45;&gt;Node5 -->
<g id="edge7_Node000005_Node000008" class="edge">
<title>Node8&#45;&gt;Node5</title>
<g id="a_edge7_Node000005_Node000008"><a xlink:title=" ">
<path fill="none" stroke="orange" stroke-dasharray="5,2" d="M259.61,-338.67C275.79,-331.29 295.23,-322.44 312.75,-314.52 381.13,-283.6 461.87,-247.45 502.36,-229.34"/>
<polygon fill="orange" stroke="orange" points="258.52,-335.32 250.88,-342.66 261.43,-341.69 258.52,-335.32"/>
</a>
</g>
<text text-anchor="middle" x="373.12" y="-319.27" font-family="Helvetica,sans-Serif" font-size="10.00" fill="grey"> &lt; String &gt;</text>
</g>
<!-- Node8&#45;&gt;Node18 -->
<g id="edge25_Node000018_Node000008" class="edge">
<title>Node8&#45;&gt;Node18</title>
<g id="a_edge25_Node000018_Node000008"><a xlink:title=" ">
<path fill="none" stroke="orange" stroke-dasharray="5,2" d="M287.11,-353.96C329.24,-352.01 385.59,-346.69 433.5,-332.77 461.54,-324.63 491.3,-308.47 509.82,-297.39"/>
<polygon fill="orange" stroke="orange" points="286.99,-350.46 277.14,-354.36 287.27,-357.45 286.99,-350.46"/>
</a>
</g>
<text text-anchor="middle" x="373.12" y="-356.95" font-family="Helvetica,sans-Serif" font-size="10.00" fill="grey"> &lt; MatrixComp &gt;</text>
</g>
<!-- Node8&#45;&gt;Node25 -->
<g id="edge36_Node000025_Node000008" class="edge">
<title>Node8&#45;&gt;Node25</title>
<g id="a_edge36_Node000025_Node000008"><a xlink:title=" ">
<path fill="none" stroke="orange" stroke-dasharray="5,2" d="M287,-365.71C343.34,-375.62 419.36,-389.15 433.5,-392.52 445.1,-395.29 457.39,-398.64 469.13,-402.05"/>
<polygon fill="orange" stroke="orange" points="287.61,-362.27 277.16,-363.99 286.4,-369.16 287.61,-362.27"/>
</a>
</g>
<text text-anchor="middle" x="373.12" y="-397.27" font-family="Helvetica,sans-Serif" font-size="10.00" fill="grey"> &lt; MatrixVar&lt; VarType &gt; &gt;</text>
</g>
<!-- Node8&#45;&gt;Node27 -->
<g id="edge40_Node000027_Node000008" class="edge">
<title>Node8&#45;&gt;Node27</title>
<g id="a_edge40_Node000027_Node000008"><a xlink:title=" ">
<path fill="none" stroke="orange" stroke-dasharray="5,2" d="M247.61,-335.75C262.54,-322.61 281.54,-304.09 294.75,-284.77 306.04,-268.26 301.07,-259.76 312.75,-243.52 367.53,-167.39 456.47,-99.08 501.01,-67.41"/>
<polygon fill="orange" stroke="orange" points="245.39,-333.04 240.08,-342.2 249.95,-338.35 245.39,-333.04"/>
</a>
</g>
<text text-anchor="middle" x="373.12" y="-248.27" font-family="Helvetica,sans-Serif" font-size="10.00" fill="grey"> &lt; MatrixVar&lt; Complex &gt; &gt;</text>
</g>
<!-- Node8&#45;&gt;Node31 -->
<g id="edge49_Node000031_Node000008" class="edge">
<title>Node8&#45;&gt;Node31</title>
<g id="a_edge49_Node000031_Node000008"><a xlink:title=" ">
<path fill="none" stroke="orange" stroke-dasharray="5,2" d="M251.73,-372.43C269.12,-383.57 292.15,-398.18 312.75,-410.77 384.08,-454.37 469.99,-504.21 508.22,-526.25"/>
<polygon fill="orange" stroke="orange" points="253.79,-369.59 243.48,-367.13 250.01,-375.48 253.79,-369.59"/>
</a>
</g>
<text text-anchor="middle" x="373.12" y="-485.27" font-family="Helvetica,sans-Serif" font-size="10.00" fill="grey"> &lt; Real &gt;</text>
</g>
<!-- Node9 -->
<g id="Node000009" class="node">
<title>Node9</title>
<g id="a_Node000009"><a xlink:title=" ">
<polygon fill="white" stroke="#bfbfbf" points="115,-646.15 0,-646.15 0,-595.4 115,-595.4 115,-646.15"/>
<text text-anchor="start" x="8" y="-632.65" font-family="Helvetica,sans-Serif" font-size="10.00">std::enable_shared</text>
<text text-anchor="start" x="8" y="-618.4" font-family="Helvetica,sans-Serif" font-size="10.00">_from_this&lt; Attribute</text>
<text text-anchor="middle" x="57.5" y="-604.15" font-family="Helvetica,sans-Serif" font-size="10.00">&lt; T &gt; &gt;</text>
</a>
</g>
</g>
<!-- Node9&#45;&gt;Node8 -->
<g id="edge9_Node000008_Node000009" class="edge">
<title>Node9&#45;&gt;Node8</title>
<g id="a_edge9_Node000008_Node000009"><a xlink:title=" ">
<path fill="none" stroke="#63b8ff" d="M74.42,-584.5C91.51,-547.02 120.49,-487.44 152,-439.77 170.6,-411.64 196.89,-382.02 211.5,-366.25"/>
<polygon fill="#63b8ff" stroke="#63b8ff" points="71.26,-582.99 70.34,-593.54 77.64,-585.87 71.26,-582.99"/>
</a>
</g>
</g>
<!-- Node10 -->
<g id="Node000010" class="node">
<title>Node10</title>
<g id="a_Node000010"><a xlink:href="class_c_p_s_1_1_sim_terminal.html" target="_top" xlink:title=" ">
<polygon fill="white" stroke="#bfbfbf" points="1771,-181.9 1619.25,-181.9 1619.25,-159.65 1771,-159.65 1771,-181.9"/>
<text text-anchor="middle" x="1695.12" y="-168.4" font-family="Helvetica,sans-Serif" font-size="10.00">CPS::SimTerminal&lt; Complex &gt;</text>
</a>
</g>
</g>
<!-- Node10&#45;&gt;Node2 -->
<g id="edge10_Node000002_Node000010" class="edge">
<title>Node10&#45;&gt;Node2</title>
<g id="a_edge10_Node000002_Node000010"><a xlink:title=" ">
<path fill="none" stroke="#9a32cd" stroke-dasharray="5,2" d="M1726.03,-187.81C1771.36,-213.63 1857.1,-262.47 1903.99,-289.18"/>
<polygon fill="#9a32cd" stroke="#9a32cd" points="1727.95,-184.87 1717.53,-182.97 1724.49,-190.96 1727.95,-184.87"/>
</a>
</g>
<text text-anchor="middle" x="1824.62" y="-268.21" font-family="Helvetica,sans-Serif" font-size="10.00" fill="grey"> mTerminals</text>
</g>
<!-- Node11&#45;&gt;Node10 -->
<g id="edge11_Node000010_Node000011" class="edge">
<title>Node11&#45;&gt;Node10</title>
<g id="a_edge11_Node000010_Node000011"><a xlink:title=" ">
<path fill="none" stroke="#63b8ff" d="M1114.65,-196.42C1240.94,-190.83 1493.02,-179.67 1618.93,-174.1"/>
<polygon fill="#63b8ff" stroke="#63b8ff" points="1114.54,-192.92 1104.71,-196.86 1114.85,-199.91 1114.54,-192.92"/>
</a>
</g>
</g>
<!-- Node14 -->
<g id="Node000014" class="node">
<title>Node14</title>
<g id="a_Node000014"><a xlink:href="class_c_p_s_1_1_sim_terminal.html" target="_top" xlink:title=" ">
<polygon fill="white" stroke="#bfbfbf" points="1445,-159.9 1294.75,-159.9 1294.75,-137.65 1445,-137.65 1445,-159.9"/>
<text text-anchor="middle" x="1369.88" y="-146.4" font-family="Helvetica,sans-Serif" font-size="10.00">CPS::SimTerminal&lt; VarType &gt;</text>
</a>
</g>
</g>
<!-- Node11&#45;&gt;Node14 -->
<g id="edge16_Node000014_Node000011" class="edge">
<title>Node11&#45;&gt;Node14</title>
<g id="a_edge16_Node000014_Node000011"><a xlink:title=" ">
<path fill="none" stroke="#63b8ff" d="M1095.74,-185.65C1106.89,-183.15 1118.53,-180.73 1129.5,-178.77 1184.45,-168.99 1247.05,-161.26 1294.44,-156.1"/>
<polygon fill="#63b8ff" stroke="#63b8ff" points="1095.23,-182.18 1086.26,-187.83 1096.79,-189 1095.23,-182.18"/>
</a>
</g>
</g>
<!-- Node12 -->
<g id="Node000012" class="node">
<title>Node12</title>
<g id="a_Node000012"><a xlink:href="class_shared_factory.html" target="_top" xlink:title=" ">
<polygon fill="white" stroke="#666666" points="1276.75,-125.02 1129.5,-125.02 1129.5,-88.52 1276.75,-88.52 1276.75,-125.02"/>
<text text-anchor="start" x="1137.5" y="-111.52" font-family="Helvetica,sans-Serif" font-size="10.00">SharedFactory&lt; SimTerminal</text>
<text text-anchor="middle" x="1203.12" y="-97.27" font-family="Helvetica,sans-Serif" font-size="10.00">&lt; Complex &gt; &gt;</text>
</a>
</g>
</g>
<!-- Node12&#45;&gt;Node10 -->
<g id="edge13_Node000010_Node000012" class="edge">
<title>Node12&#45;&gt;Node10</title>
<g id="a_edge13_Node000010_Node000012"><a xlink:title=" ">
<path fill="none" stroke="#63b8ff" d="M1288.17,-111.58C1368.93,-117.11 1494.15,-128.07 1601.25,-147.77 1618.08,-150.87 1636.4,-155.19 1652.29,-159.26"/>
<polygon fill="#63b8ff" stroke="#63b8ff" points="1288.8,-108.12 1278.59,-110.94 1288.33,-115.1 1288.8,-108.12"/>
</a>
</g>
</g>
<!-- Node13 -->
<g id="Node000013" class="node">
<title>Node13</title>
<g id="a_Node000013"><a xlink:href="class_shared_factory.html" target="_top" xlink:title=" ">
<polygon fill="white" stroke="#666666" points="791.75,-138.9 687.25,-138.9 687.25,-116.65 791.75,-116.65 791.75,-138.9"/>
<text text-anchor="middle" x="739.5" y="-125.4" font-family="Helvetica,sans-Serif" font-size="10.00">SharedFactory&lt; T &gt;</text>
</a>
</g>
</g>
<!-- Node13&#45;&gt;Node12 -->
<g id="edge14_Node000012_Node000013" class="edge">
<title>Node13&#45;&gt;Node12</title>
<g id="a_edge14_Node000012_Node000013"><a xlink:title=" ">
<path fill="none" stroke="orange" stroke-dasharray="5,2" d="M803.28,-117.72C807.24,-117.27 811.17,-116.86 815,-116.52 924.17,-106.94 1051.26,-105.61 1129.2,-105.9"/>
<polygon fill="orange" stroke="orange" points="803.09,-114.22 793.6,-118.94 803.96,-121.16 803.09,-114.22"/>
</a>
</g>
<text text-anchor="middle" x="880.62" y="-121.27" font-family="Helvetica,sans-Serif" font-size="10.00" fill="grey"> &lt; SimTerminal&lt; Complex &gt; &gt;</text>
</g>
<!-- Node15 -->
<g id="Node000015" class="node">
<title>Node15</title>
<g id="a_Node000015"><a xlink:href="class_shared_factory.html" target="_top" xlink:title=" ">
<polygon fill="white" stroke="#666666" points="1111.5,-171.02 964.25,-171.02 964.25,-134.52 1111.5,-134.52 1111.5,-171.02"/>
<text text-anchor="start" x="972.25" y="-157.52" font-family="Helvetica,sans-Serif" font-size="10.00">SharedFactory&lt; SimTerminal</text>
<text text-anchor="middle" x="1037.88" y="-143.27" font-family="Helvetica,sans-Serif" font-size="10.00">&lt; VarType &gt; &gt;</text>
</a>
</g>
</g>
<!-- Node13&#45;&gt;Node15 -->
<g id="edge18_Node000015_Node000013" class="edge">
<title>Node13&#45;&gt;Node15</title>
<g id="a_edge18_Node000015_Node000013"><a xlink:title=" ">
<path fill="none" stroke="orange" stroke-dasharray="5,2" d="M803.37,-133.08C850.35,-137.04 914.67,-142.46 963.92,-146.62"/>
<polygon fill="orange" stroke="orange" points="803.89,-129.61 793.63,-132.25 803.3,-136.58 803.89,-129.61"/>
</a>
</g>
<text text-anchor="middle" x="880.62" y="-149.44" font-family="Helvetica,sans-Serif" font-size="10.00" fill="grey"> &lt; SimTerminal&lt; VarType &gt; &gt;</text>
</g>
<!-- Node24 -->
<g id="Node000024" class="node">
<title>Node24</title>
<g id="a_Node000024"><a xlink:href="class_shared_factory.html" target="_top" xlink:title=" ">
<polygon fill="white" stroke="#666666" points="1104.38,-265.02 971.38,-265.02 971.38,-228.52 1104.38,-228.52 1104.38,-265.02"/>
<text text-anchor="start" x="979.38" y="-251.52" font-family="Helvetica,sans-Serif" font-size="10.00">SharedFactory&lt; SimNode</text>
<text text-anchor="middle" x="1037.88" y="-237.27" font-family="Helvetica,sans-Serif" font-size="10.00">&lt; VarType &gt; &gt;</text>
</a>
</g>
</g>
<!-- Node13&#45;&gt;Node24 -->
<g id="edge32_Node000024_Node000013" class="edge">
<title>Node13&#45;&gt;Node24</title>
<g id="a_edge32_Node000024_Node000013"><a xlink:title=" ">
<path fill="none" stroke="orange" stroke-dasharray="5,2" d="M773.96,-144.14C786.71,-150.21 801.44,-157.01 815,-162.77 880.35,-190.55 897.8,-194.73 964.25,-219.77 971.42,-222.48 979.01,-225.31 986.45,-228.09"/>
<polygon fill="orange" stroke="orange" points="775.68,-141.08 765.15,-139.91 772.65,-147.39 775.68,-141.08"/>
</a>
</g>
<text text-anchor="middle" x="880.62" y="-217.59" font-family="Helvetica,sans-Serif" font-size="10.00" fill="grey"> &lt; SimNode&lt; VarType &gt; &gt;</text>
</g>
<!-- Node30 -->
<g id="Node000030" class="node">
<title>Node30</title>
<g id="a_Node000030"><a xlink:href="class_shared_factory.html" target="_top" xlink:title=" ">
<polygon fill="white" stroke="#666666" points="1601.25,-84.9 1463,-84.9 1463,-62.65 1601.25,-62.65 1601.25,-84.9"/>
<text text-anchor="middle" x="1532.12" y="-71.4" font-family="Helvetica,sans-Serif" font-size="10.00">SharedFactory&lt; VDNode &gt;</text>
</a>
</g>
</g>
<!-- Node13&#45;&gt;Node30 -->
<g id="edge45_Node000030_Node000013" class="edge">
<title>Node13&#45;&gt;Node30</title>
<g id="a_edge45_Node000030_Node000013"><a xlink:title=" ">
<path fill="none" stroke="orange" stroke-dasharray="5,2" d="M783.83,-112.92C793.97,-109.86 804.79,-106.92 815,-104.77 880.35,-91.03 897.69,-92.92 964.25,-87.52 1143.81,-72.95 1356.33,-72.19 1462.93,-72.93"/>
<polygon fill="orange" stroke="orange" points="783.11,-109.48 774.61,-115.81 785.2,-116.16 783.11,-109.48"/>
</a>
</g>
<text text-anchor="middle" x="1037.88" y="-92.27" font-family="Helvetica,sans-Serif" font-size="10.00" fill="grey"> &lt; VDNode &gt;</text>
</g>
<!-- Node14&#45;&gt;Node10 -->
<g id="edge15_Node000010_Node000014" class="edge">
<title>Node14&#45;&gt;Node10</title>
<g id="a_edge15_Node000010_Node000014"><a xlink:title=" ">
<path fill="none" stroke="orange" stroke-dasharray="5,2" d="M1456.78,-151.27C1500.15,-152.92 1553.54,-155.53 1601.25,-159.52 1607,-160 1612.93,-160.57 1618.9,-161.18"/>
<polygon fill="orange" stroke="orange" points="1457.04,-147.78 1446.92,-150.91 1456.78,-154.77 1457.04,-147.78"/>
</a>
</g>
<text text-anchor="middle" x="1532.12" y="-164.27" font-family="Helvetica,sans-Serif" font-size="10.00" fill="grey"> &lt; Complex &gt;</text>
</g>
<!-- Node15&#45;&gt;Node14 -->
<g id="edge17_Node000014_Node000015" class="edge">
<title>Node15&#45;&gt;Node14</title>
<g id="a_edge17_Node000014_Node000015"><a xlink:title=" ">
<path fill="none" stroke="#63b8ff" d="M1123.1,-151.75C1176,-151.11 1243.61,-150.29 1294.52,-149.67"/>
<polygon fill="#63b8ff" stroke="#63b8ff" points="1123.17,-148.25 1113.22,-151.87 1123.26,-155.25 1123.17,-148.25"/>
</a>
</g>
</g>
<!-- Node16 -->
<g id="Node000016" class="node">
<title>Node16</title>
<g id="a_Node000016"><a xlink:href="class_c_p_s_1_1_sim_node.html" target="_top" xlink:title=" ">
<polygon fill="white" stroke="#bfbfbf" points="1763.88,-318.9 1626.38,-318.9 1626.38,-296.65 1763.88,-296.65 1763.88,-318.9"/>
<text text-anchor="middle" x="1695.12" y="-305.4" font-family="Helvetica,sans-Serif" font-size="10.00">CPS::SimNode&lt; Complex &gt;</text>
</a>
</g>
</g>
<!-- Node16&#45;&gt;Node2 -->
<g id="edge19_Node000002_Node000016" class="edge">
<title>Node16&#45;&gt;Node2</title>
<g id="a_edge19_Node000002_Node000016"><a xlink:title=" ">
<path fill="none" stroke="#9a32cd" stroke-dasharray="5,2" d="M1775.22,-307.77C1808.66,-307.77 1846.94,-307.77 1877.82,-307.77"/>
<polygon fill="#9a32cd" stroke="#9a32cd" points="1775.59,-304.27 1765.59,-307.77 1775.59,-311.27 1775.59,-304.27"/>
</a>
</g>
<text text-anchor="middle" x="1824.62" y="-312.52" font-family="Helvetica,sans-Serif" font-size="10.00" fill="grey"> mVirtualNodes</text>
</g>
<!-- Node17&#45;&gt;Node16 -->
<g id="edge20_Node000016_Node000017" class="edge">
<title>Node17&#45;&gt;Node16</title>
<g id="a_edge20_Node000016_Node000017"><a xlink:title=" ">
<path fill="none" stroke="#63b8ff" d="M1107.51,-301.28C1158.97,-306.52 1231.18,-313.04 1294.75,-315.77 1361.47,-318.63 1378.23,-316.84 1445,-315.77 1506.22,-314.79 1575.88,-312.45 1625.94,-310.55"/>
<polygon fill="#63b8ff" stroke="#63b8ff" points="1108.01,-297.82 1097.71,-300.27 1107.3,-304.78 1108.01,-297.82"/>
</a>
</g>
</g>
<!-- Node22 -->
<g id="Node000022" class="node">
<title>Node22</title>
<g id="a_Node000022"><a xlink:href="class_c_p_s_1_1_sim_node.html" target="_top" xlink:title=" ">
<polygon fill="white" stroke="#bfbfbf" points="1437.88,-384.9 1301.88,-384.9 1301.88,-362.65 1437.88,-362.65 1437.88,-384.9"/>
<text text-anchor="middle" x="1369.88" y="-371.4" font-family="Helvetica,sans-Serif" font-size="10.00">CPS::SimNode&lt; VarType &gt;</text>
</a>
</g>
</g>
<!-- Node17&#45;&gt;Node22 -->
<g id="edge29_Node000022_Node000017" class="edge">
<title>Node17&#45;&gt;Node22</title>
<g id="a_edge29_Node000022_Node000017"><a xlink:title=" ">
<path fill="none" stroke="#63b8ff" d="M1102.87,-309.9C1105.86,-311.39 1108.76,-313.01 1111.5,-314.77 1121.84,-321.42 1118.77,-329.77 1129.5,-335.77 1144.35,-344.08 1236,-357.06 1301.47,-365.49"/>
<polygon fill="#63b8ff" stroke="#63b8ff" points="1104.37,-306.73 1093.8,-305.95 1101.57,-313.15 1104.37,-306.73"/>
</a>
</g>
</g>
<!-- Node18&#45;&gt;Node17 -->
<g id="edge22_Node000017_Node000018" class="edge">
<title>Node18&#45;&gt;Node17</title>
<g id="a_edge22_Node000017_Node000018"><a xlink:title=" ">
<path fill="none" stroke="#9a32cd" stroke-dasharray="5,2" d="M618.87,-287.17C722.75,-288.81 891.86,-291.48 979.76,-292.87"/>
<polygon fill="#9a32cd" stroke="#9a32cd" points="619.04,-283.67 608.98,-287.02 618.93,-290.67 619.04,-283.67"/>
</a>
</g>
<text text-anchor="middle" x="739.5" y="-294.66" font-family="Helvetica,sans-Serif" font-size="10.00" fill="grey"> mInitialVoltage</text>
</g>
<!-- Node19 -->
<g id="Node000019" class="node">
<title>Node19</title>
<g id="a_Node000019"><a xlink:title=" ">
<polygon fill="white" stroke="#bfbfbf" points="280.88,-276.15 165.88,-276.15 165.88,-225.4 280.88,-225.4 280.88,-276.15"/>
<text text-anchor="start" x="173.88" y="-262.65" font-family="Helvetica,sans-Serif" font-size="10.00">std::enable_shared</text>
<text text-anchor="start" x="173.88" y="-248.4" font-family="Helvetica,sans-Serif" font-size="10.00">_from_this&lt; Attribute</text>
<text text-anchor="middle" x="223.38" y="-234.15" font-family="Helvetica,sans-Serif" font-size="10.00">&lt; MatrixComp &gt; &gt;</text>
</a>
</g>
</g>
<!-- Node19&#45;&gt;Node18 -->
<g id="edge24_Node000018_Node000019" class="edge">
<title>Node19&#45;&gt;Node18</title>
<g id="a_edge24_Node000018_Node000019"><a xlink:title=" ">
<path fill="none" stroke="#63b8ff" d="M292.41,-257.97C333.32,-262.37 386.42,-268.2 433.5,-273.77 439.26,-274.45 445.22,-275.17 451.21,-275.91"/>
<polygon fill="#63b8ff" stroke="#63b8ff" points="293.03,-254.52 282.71,-256.93 292.28,-261.48 293.03,-254.52"/>
</a>
</g>
</g>
<!-- Node20 -->
<g id="Node000020" class="node">
<title>Node20</title>
<g id="a_Node000020"><a xlink:title=" ">
<polygon fill="white" stroke="#bfbfbf" points="1427,-307.15 1312.75,-307.15 1312.75,-256.4 1427,-256.4 1427,-307.15"/>
<text text-anchor="start" x="1320.75" y="-293.65" font-family="Helvetica,sans-Serif" font-size="10.00">std::enable_shared</text>
<text text-anchor="start" x="1320.75" y="-279.4" font-family="Helvetica,sans-Serif" font-size="10.00">_from_this&lt; SimNode</text>
<text text-anchor="middle" x="1369.88" y="-265.15" font-family="Helvetica,sans-Serif" font-size="10.00">&lt; Complex &gt; &gt;</text>
</a>
</g>
</g>
<!-- Node20&#45;&gt;Node16 -->
<g id="edge26_Node000016_Node000020" class="edge">
<title>Node20&#45;&gt;Node16</title>
<g id="a_edge26_Node000016_Node000020"><a xlink:title=" ">
<path fill="none" stroke="#63b8ff" d="M1438.58,-287.22C1493.65,-291.65 1570.99,-297.87 1626.14,-302.3"/>
<polygon fill="#63b8ff" stroke="#63b8ff" points="1438.94,-283.74 1428.69,-286.42 1438.38,-290.71 1438.94,-283.74"/>
</a>
</g>
</g>
<!-- Node21 -->
<g id="Node000021" class="node">
<title>Node21</title>
<g id="a_Node000021"><a xlink:href="class_shared_factory.html" target="_top" xlink:title=" ">
<polygon fill="white" stroke="#666666" points="1422.12,-237.9 1317.62,-237.9 1317.62,-215.65 1422.12,-215.65 1422.12,-237.9"/>
<text text-anchor="middle" x="1369.88" y="-224.4" font-family="Helvetica,sans-Serif" font-size="10.00">SharedFactory&lt; T &gt;</text>
</a>
</g>
</g>
<!-- Node21&#45;&gt;Node16 -->
<g id="edge27_Node000016_Node000021" class="edge">
<title>Node21&#45;&gt;Node16</title>
<g id="a_edge27_Node000016_Node000021"><a xlink:title=" ">
<path fill="none" stroke="#63b8ff" d="M1428.06,-241.1C1490.71,-256.8 1589.97,-281.67 1647.9,-296.19"/>
<polygon fill="#63b8ff" stroke="#63b8ff" points="1429.21,-237.78 1418.66,-238.75 1427.51,-244.57 1429.21,-237.78"/>
</a>
</g>
</g>
<!-- Node22&#45;&gt;Node16 -->
<g id="edge28_Node000016_Node000022" class="edge">
<title>Node22&#45;&gt;Node16</title>
<g id="a_edge28_Node000016_Node000022"><a xlink:title=" ">
<path fill="none" stroke="orange" stroke-dasharray="5,2" d="M1449.63,-371.22C1494.66,-368.27 1551.83,-362.02 1601.25,-348.77 1626.96,-341.88 1654.65,-328.85 1673.04,-319.33"/>
<polygon fill="orange" stroke="orange" points="1449.44,-367.72 1439.67,-371.82 1449.86,-374.71 1449.44,-367.72"/>
</a>
</g>
<text text-anchor="middle" x="1532.12" y="-374.82" font-family="Helvetica,sans-Serif" font-size="10.00" fill="grey"> &lt; Complex &gt;</text>
</g>
<!-- Node23 -->
<g id="Node000023" class="node">
<title>Node23</title>
<g id="a_Node000023"><a xlink:title=" ">
<polygon fill="white" stroke="#bfbfbf" points="1095,-374.15 980.75,-374.15 980.75,-323.4 1095,-323.4 1095,-374.15"/>
<text text-anchor="start" x="988.75" y="-360.65" font-family="Helvetica,sans-Serif" font-size="10.00">std::enable_shared</text>
<text text-anchor="start" x="988.75" y="-346.4" font-family="Helvetica,sans-Serif" font-size="10.00">_from_this&lt; SimNode</text>
<text text-anchor="middle" x="1037.88" y="-332.15" font-family="Helvetica,sans-Serif" font-size="10.00">&lt; VarType &gt; &gt;</text>
</a>
</g>
</g>
<!-- Node23&#45;&gt;Node22 -->
<g id="edge30_Node000022_Node000023" class="edge">
<title>Node23&#45;&gt;Node22</title>
<g id="a_edge30_Node000022_Node000023"><a xlink:title=" ">
<path fill="none" stroke="#63b8ff" d="M1106.59,-358.32C1114.31,-359.24 1122.07,-360.08 1129.5,-360.77 1187.41,-366.17 1253.43,-369.55 1301.45,-371.5"/>
<polygon fill="#63b8ff" stroke="#63b8ff" points="1107.21,-354.87 1096.86,-357.12 1106.36,-361.82 1107.21,-354.87"/>
</a>
</g>
</g>
<!-- Node24&#45;&gt;Node22 -->
<g id="edge31_Node000022_Node000024" class="edge">
<title>Node24&#45;&gt;Node22</title>
<g id="a_edge31_Node000022_Node000024"><a xlink:title=" ">
<path fill="none" stroke="#63b8ff" d="M1106,-269.06C1153.97,-285.4 1219.82,-308.67 1276.75,-331.77 1300.2,-341.29 1326.42,-353.39 1344.87,-362.15"/>
<polygon fill="#63b8ff" stroke="#63b8ff" points="1107.16,-265.76 1096.56,-265.86 1104.91,-272.39 1107.16,-265.76"/>
</a>
</g>
</g>
<!-- Node25&#45;&gt;Node22 -->
<g id="edge33_Node000022_Node000025" class="edge">
<title>Node25&#45;&gt;Node22</title>
<g id="a_edge33_Node000022_Node000025"><a xlink:title=" ">
<path fill="none" stroke="#9a32cd" stroke-dasharray="5,2" d="M608.8,-416.72C744.86,-409.65 1033.22,-394.39 1276.75,-379.77 1284.75,-379.29 1293.14,-378.77 1301.46,-378.24"/>
<polygon fill="#9a32cd" stroke="#9a32cd" points="609,-413.21 599.2,-417.22 609.37,-420.2 609,-413.21"/>
</a>
</g>
<text text-anchor="middle" x="880.62" y="-424.53" font-family="Helvetica,sans-Serif" font-size="10.00" fill="grey"> mApparentPower</text>
<text text-anchor="middle" x="880.62" y="-410.28" font-family="Helvetica,sans-Serif" font-size="10.00" fill="grey">mVoltage</text>
</g>
<!-- Node25&#45;&gt;Node29 -->
<g id="edge43_Node000029_Node000025" class="edge">
<title>Node25&#45;&gt;Node29</title>
<g id="a_edge43_Node000029_Node000025"><a xlink:title=" ">
<path fill="none" stroke="#9a32cd" stroke-dasharray="5,2" d="M608.78,-429.48C695.63,-438.76 839.75,-453.16 964.25,-460.77 1037.59,-465.26 1056.05,-463.59 1129.5,-465.77 1191.21,-467.61 1261.88,-469.67 1310.34,-471.08"/>
<polygon fill="#9a32cd" stroke="#9a32cd" points="609.26,-426.01 598.94,-428.42 608.51,-432.97 609.26,-426.01"/>
</a>
</g>
<text text-anchor="middle" x="880.62" y="-478.34" font-family="Helvetica,sans-Serif" font-size="10.00" fill="grey"> mIntfCurrent</text>
<text text-anchor="middle" x="880.62" y="-464.09" font-family="Helvetica,sans-Serif" font-size="10.00" fill="grey">mIntfVoltage</text>
</g>
<!-- Node26 -->
<g id="Node000026" class="node">
<title>Node26</title>
<g id="a_Node000026"><a xlink:title=" ">
<polygon fill="white" stroke="#bfbfbf" points="294,-499.15 152.75,-499.15 152.75,-448.4 294,-448.4 294,-499.15"/>
<text text-anchor="start" x="160.75" y="-485.65" font-family="Helvetica,sans-Serif" font-size="10.00">std::enable_shared</text>
<text text-anchor="start" x="160.75" y="-471.4" font-family="Helvetica,sans-Serif" font-size="10.00">_from_this&lt; Attribute</text>
<text text-anchor="middle" x="223.38" y="-457.15" font-family="Helvetica,sans-Serif" font-size="10.00">&lt; MatrixVar&lt; VarType &gt; &gt; &gt;</text>
</a>
</g>
</g>
<!-- Node26&#45;&gt;Node25 -->
<g id="edge35_Node000025_Node000026" class="edge">
<title>Node26&#45;&gt;Node25</title>
<g id="a_edge35_Node000025_Node000026"><a xlink:title=" ">
<path fill="none" stroke="#63b8ff" d="M305.53,-480.11C344.74,-481.08 392.15,-479.17 433.5,-468.77 457.11,-462.83 481.56,-450.26 499.71,-439.47"/>
<polygon fill="#63b8ff" stroke="#63b8ff" points="305.79,-476.61 295.68,-479.79 305.56,-483.61 305.79,-476.61"/>
</a>
</g>
</g>
<!-- Node27&#45;&gt;Node2 -->
<g id="edge37_Node000002_Node000027" class="edge">
<title>Node27&#45;&gt;Node2</title>
<g id="a_edge37_Node000002_Node000027"><a xlink:title=" ">
<path fill="none" stroke="#9a32cd" stroke-dasharray="5,2" d="M608.66,-32.07C647.53,-25.18 695.28,-18.77 738.5,-18.77 738.5,-18.77 738.5,-18.77 1696.12,-18.77 1837.44,-18.77 1911.74,-225.47 1931.31,-289.25"/>
<polygon fill="#9a32cd" stroke="#9a32cd" points="608.12,-28.61 598.91,-33.85 609.38,-35.5 608.12,-28.61"/>
</a>
</g>
<text text-anchor="middle" x="1203.12" y="-37.77" font-family="Helvetica,sans-Serif" font-size="10.00" fill="grey"> mIntfCurrent</text>
<text text-anchor="middle" x="1203.12" y="-23.52" font-family="Helvetica,sans-Serif" font-size="10.00" fill="grey">mIntfVoltage</text>
</g>
<!-- Node28 -->
<g id="Node000028" class="node">
<title>Node28</title>
<g id="a_Node000028"><a xlink:title=" ">
<polygon fill="white" stroke="#bfbfbf" points="294.75,-101.15 152,-101.15 152,-50.4 294.75,-50.4 294.75,-101.15"/>
<text text-anchor="start" x="160" y="-87.65" font-family="Helvetica,sans-Serif" font-size="10.00">std::enable_shared</text>
<text text-anchor="start" x="160" y="-73.4" font-family="Helvetica,sans-Serif" font-size="10.00">_from_this&lt; Attribute</text>
<text text-anchor="middle" x="223.38" y="-59.15" font-family="Helvetica,sans-Serif" font-size="10.00">&lt; MatrixVar&lt; Complex &gt; &gt; &gt;</text>
</a>
</g>
</g>
<!-- Node28&#45;&gt;Node27 -->
<g id="edge39_Node000027_Node000028" class="edge">
<title>Node28&#45;&gt;Node27</title>
<g id="a_edge39_Node000027_Node000028"><a xlink:title=" ">
<path fill="none" stroke="#63b8ff" d="M306.63,-68.46C355,-64.17 415.41,-58.8 460.93,-54.75"/>
<polygon fill="#63b8ff" stroke="#63b8ff" points="306.4,-64.97 296.74,-69.34 307.01,-71.94 306.4,-64.97"/>
</a>
</g>
</g>
<!-- Node29&#45;&gt;Node2 -->
<g id="edge41_Node000002_Node000029" class="edge">
<title>Node29&#45;&gt;Node2</title>
<g id="a_edge41_Node000002_Node000029"><a xlink:title=" ">
<path fill="none" stroke="orange" stroke-dasharray="5,2" d="M1440.98,-487.54C1541.97,-504.81 1730.5,-521.65 1860.25,-440.77 1902.28,-414.57 1923.55,-356.23 1932.04,-326.29"/>
<polygon fill="orange" stroke="orange" points="1441.65,-484.11 1431.19,-485.81 1440.43,-491 1441.65,-484.11"/>
</a>
</g>
<text text-anchor="middle" x="1695.12" y="-506.36" font-family="Helvetica,sans-Serif" font-size="10.00" fill="grey"> &lt; Complex &gt;</text>
</g>
<!-- Node30&#45;&gt;Node1 -->
<g id="edge44_Node000001_Node000030" class="edge">
<title>Node30&#45;&gt;Node1</title>
<g id="a_edge44_Node000001_Node000030"><a xlink:title=" ">
<path fill="none" stroke="#63b8ff" d="M1585.92,-88.53C1634.63,-102.7 1708.63,-125.61 1771,-150.77 1887.72,-197.87 2021.11,-268.69 2071.76,-296.24"/>
<polygon fill="#63b8ff" stroke="#63b8ff" points="1587.04,-85.22 1576.47,-85.81 1585.1,-91.94 1587.04,-85.22"/>
</a>
</g>
</g>
<!-- Node31&#45;&gt;Node1 -->
<g id="edge46_Node000001_Node000031" class="edge">
<title>Node31&#45;&gt;Node1</title>
<g id="a_edge46_Node000001_Node000031"><a xlink:title=" ">
<path fill="none" stroke="#9a32cd" stroke-dasharray="5,2" d="M599.95,-536.77C640.41,-536.27 692.33,-535.77 738.5,-535.77 738.5,-535.77 738.5,-535.77 1938.62,-535.77 2044.22,-535.77 2082.36,-365.85 2090.82,-319.39"/>
<polygon fill="#9a32cd" stroke="#9a32cd" points="600.06,-533.27 590.11,-536.89 600.15,-540.27 600.06,-533.27"/>
</a>
</g>
<text text-anchor="middle" x="1369.88" y="-554.77" font-family="Helvetica,sans-Serif" font-size="10.00" fill="grey"> mDeltaSetPoint</text>
<text text-anchor="middle" x="1369.88" y="-540.52" font-family="Helvetica,sans-Serif" font-size="10.00" fill="grey">mVoltageSetPointPerUnit</text>
</g>
<!-- Node32 -->
<g id="Node000032" class="node">
<title>Node32</title>
<g id="a_Node000032"><a xlink:title=" ">
<polygon fill="white" stroke="#bfbfbf" points="280.88,-568.15 165.88,-568.15 165.88,-517.4 280.88,-517.4 280.88,-568.15"/>
<text text-anchor="start" x="173.88" y="-554.65" font-family="Helvetica,sans-Serif" font-size="10.00">std::enable_shared</text>
<text text-anchor="start" x="173.88" y="-540.4" font-family="Helvetica,sans-Serif" font-size="10.00">_from_this&lt; Attribute</text>
<text text-anchor="middle" x="223.38" y="-526.15" font-family="Helvetica,sans-Serif" font-size="10.00">&lt; Real &gt; &gt;</text>
</a>
</g>
</g>
<!-- Node32&#45;&gt;Node31 -->
<g id="edge48_Node000031_Node000032" class="edge">
<title>Node32&#45;&gt;Node31</title>
<g id="a_edge48_Node000031_Node000032"><a xlink:title=" ">
<path fill="none" stroke="#63b8ff" d="M292.58,-541.65C345.92,-540.77 419.28,-539.56 469.92,-538.73"/>
<polygon fill="#63b8ff" stroke="#63b8ff" points="292.63,-538.15 282.69,-541.81 292.74,-545.15 292.63,-538.15"/>
</a>
</g>
</g>
</g>
</svg>
