<?xml version="1.0" encoding="UTF-8" standalone="no"?>
<!DOCTYPE svg PUBLIC "-//W3C//DTD SVG 1.1//EN"
 "http://www.w3.org/Graphics/SVG/1.1/DTD/svg11.dtd">
<!-- Generated by graphviz version 2.50.0 (0)
 -->
<!-- Title: CPS::MNAInterface Pages: 1 -->
<svg width="805pt" height="1777pt"
 viewBox="0.00 0.00 805.00 1777.00" xmlns="http://www.w3.org/2000/svg" xmlns:xlink="http://www.w3.org/1999/xlink">
<g id="graph0" class="graph" transform="scale(1 1) rotate(0) translate(4 1773)">
<title>CPS::MNAInterface</title>
<!-- Node1 -->
<g id="node1" class="node">
<title>Node1</title>
<g id="a_node1"><a xlink:title="Interface to be implemented by all models used by the MNA solver.">
<polygon fill="#bfbfbf" stroke="black" points="0,-874.5 0,-893.5 107,-893.5 107,-874.5 0,-874.5"/>
<text text-anchor="middle" x="53.5" y="-881.5" font-family="Helvetica,sans-Serif" font-size="10.00">CPS::MNAInterface</text>
</a>
</g>
</g>
<!-- Node2 -->
<g id="node2" class="node">
<title>Node2</title>
<g id="a_node2"><a xlink:href="class_c_p_s_1_1_m_n_a_sim_power_comp.html" target="_top" xlink:title=" ">
<polygon fill="none" stroke="black" points="433,-1113 433,-1143 570,-1143 570,-1113 433,-1113"/>
<text text-anchor="start" x="441" y="-1131" font-family="Helvetica,sans-Serif" font-size="10.00">CPS::MNASimPowerComp</text>
<text text-anchor="middle" x="501.5" y="-1120" font-family="Helvetica,sans-Serif" font-size="10.00">&lt; Complex &gt;</text>
</a>
</g>
</g>
<!-- Node1&#45;&gt;Node2 -->
<g id="edge1" class="edge">
<title>Node1&#45;&gt;Node2</title>
<path fill="none" stroke="midnightblue" d="M80.79,-898.38C159.48,-941.43 392.6,-1068.97 472.93,-1112.92"/>
<polygon fill="midnightblue" stroke="midnightblue" points="82.44,-895.29 71.98,-893.57 79.08,-901.44 82.44,-895.29"/>
</g>
<!-- Node71 -->
<g id="node34" class="node">
<title>Node71</title>
<g id="a_node34"><a xlink:href="class_c_p_s_1_1_m_n_a_sim_power_comp.html" target="_top" xlink:title=" ">
<polygon fill="none" stroke="red" points="433,-278 433,-308 570,-308 570,-278 433,-278"/>
<text text-anchor="start" x="441" y="-296" font-family="Helvetica,sans-Serif" font-size="10.00">CPS::MNASimPowerComp</text>
<text text-anchor="middle" x="501.5" y="-285" font-family="Helvetica,sans-Serif" font-size="10.00">&lt; Real &gt;</text>
</a>
</g>
</g>
<!-- Node1&#45;&gt;Node71 -->
<g id="edge33" class="edge">
<title>Node1&#45;&gt;Node71</title>
<path fill="none" stroke="midnightblue" d="M68.09,-865.99C134.85,-777.53 427.34,-389.95 489.04,-308.18"/>
<polygon fill="midnightblue" stroke="midnightblue" points="65.1,-864.14 61.87,-874.24 70.69,-868.36 65.1,-864.14"/>
</g>
<!-- Node117 -->
<g id="node48" class="node">
<title>Node117</title>
<g id="a_node48"><a xlink:href="class_c_p_s_1_1_d_p_1_1_ph3_1_1_synchron_generator_v_b_r.html" target="_top" xlink:title=" ">
<polygon fill="none" stroke="black" points="144,-852.5 144,-871.5 338,-871.5 338,-852.5 144,-852.5"/>
<text text-anchor="middle" x="241" y="-859.5" font-family="Helvetica,sans-Serif" font-size="10.00">CPS::DP::Ph3::SynchronGeneratorVBR</text>
</a>
</g>
</g>
<!-- Node1&#45;&gt;Node117 -->
<g id="edge47" class="edge">
<title>Node1&#45;&gt;Node117</title>
<path fill="none" stroke="midnightblue" d="M117.38,-876.54C131.02,-874.92 145.63,-873.19 159.83,-871.51"/>
<polygon fill="midnightblue" stroke="midnightblue" points="116.68,-873.1 107.16,-877.75 117.5,-880.05 116.68,-873.1"/>
</g>
<!-- Node118 -->
<g id="node49" class="node">
<title>Node118</title>
<g id="a_node49"><a xlink:href="class_c_p_s_1_1_m_n_a_sim_power_comp.html" target="_top" xlink:title="Base class for all MNA components that are transmitting power.">
<polygon fill="none" stroke="red" points="172.5,-891 172.5,-921 309.5,-921 309.5,-891 172.5,-891"/>
<text text-anchor="start" x="180.5" y="-909" font-family="Helvetica,sans-Serif" font-size="10.00">CPS::MNASimPowerComp</text>
<text text-anchor="middle" x="241" y="-898" font-family="Helvetica,sans-Serif" font-size="10.00">&lt; VarType &gt;</text>
</a>
</g>
</g>
<!-- Node1&#45;&gt;Node118 -->
<g id="edge48" class="edge">
<title>Node1&#45;&gt;Node118</title>
<path fill="none" stroke="midnightblue" d="M117.36,-891.45C135.03,-893.55 154.33,-895.84 172.27,-897.97"/>
<polygon fill="midnightblue" stroke="midnightblue" points="117.5,-887.95 107.16,-890.25 116.68,-894.9 117.5,-887.95"/>
</g>
<!-- Node3 -->
<g id="node3" class="node">
<title>Node3</title>
<g id="a_node3"><a xlink:href="class_c_p_s_1_1_base_1_1_reduced_order_synchron_generator.html" target="_top" xlink:title=" ">
<polygon fill="none" stroke="red" points="612.5,-1244 612.5,-1274 791.5,-1274 791.5,-1244 612.5,-1244"/>
<text text-anchor="start" x="620.5" y="-1262" font-family="Helvetica,sans-Serif" font-size="10.00">CPS::Base::ReducedOrderSynchron</text>
<text text-anchor="middle" x="702" y="-1251" font-family="Helvetica,sans-Serif" font-size="10.00">Generator&lt; Complex &gt;</text>
</a>
</g>
</g>
<!-- Node2&#45;&gt;Node3 -->
<g id="edge2" class="edge">
<title>Node2&#45;&gt;Node3</title>
<path fill="none" stroke="midnightblue" d="M519.1,-1151.41C537.73,-1175.92 570.19,-1213.75 607,-1235 612.98,-1238.45 619.46,-1241.42 626.12,-1243.96"/>
<polygon fill="midnightblue" stroke="midnightblue" points="521.88,-1149.28 513.11,-1143.34 516.26,-1153.46 521.88,-1149.28"/>
</g>
<!-- Node20 -->
<g id="node4" class="node">
<title>Node20</title>
<g id="a_node4"><a xlink:href="class_c_p_s_1_1_composite_power_comp.html" target="_top" xlink:title=" ">
<polygon fill="none" stroke="red" points="629,-1195 629,-1225 775,-1225 775,-1195 629,-1195"/>
<text text-anchor="start" x="637" y="-1213" font-family="Helvetica,sans-Serif" font-size="10.00">CPS::CompositePowerComp</text>
<text text-anchor="middle" x="702" y="-1202" font-family="Helvetica,sans-Serif" font-size="10.00">&lt; Complex &gt;</text>
</a>
</g>
</g>
<!-- Node2&#45;&gt;Node20 -->
<g id="edge3" class="edge">
<title>Node2&#45;&gt;Node20</title>
<path fill="none" stroke="midnightblue" d="M534.95,-1148.34C555.1,-1160.29 581.87,-1174.97 607,-1185 616.25,-1188.69 626.24,-1192.01 636.12,-1194.93"/>
<polygon fill="midnightblue" stroke="midnightblue" points="536.56,-1145.22 526.19,-1143.06 532.96,-1151.22 536.56,-1145.22"/>
</g>
<!-- Node40 -->
<g id="node5" class="node">
<title>Node40</title>
<g id="a_node5"><a xlink:href="class_c_p_s_1_1_d_p_1_1_ph1_1_1_capacitor.html" target="_top" xlink:title="Capacitor model.">
<polygon fill="none" stroke="black" points="638.5,-1156.5 638.5,-1175.5 765.5,-1175.5 765.5,-1156.5 638.5,-1156.5"/>
<text text-anchor="middle" x="702" y="-1163.5" font-family="Helvetica,sans-Serif" font-size="10.00">CPS::DP::Ph1::Capacitor</text>
</a>
</g>
</g>
<!-- Node2&#45;&gt;Node40 -->
<g id="edge4" class="edge">
<title>Node2&#45;&gt;Node40</title>
<path fill="none" stroke="midnightblue" d="M580.34,-1142.9C604.14,-1147.46 629.67,-1152.35 651.09,-1156.45"/>
<polygon fill="midnightblue" stroke="midnightblue" points="580.74,-1139.41 570.26,-1140.97 579.42,-1146.29 580.74,-1139.41"/>
</g>
<!-- Node41 -->
<g id="node6" class="node">
<title>Node41</title>
<g id="a_node6"><a xlink:href="class_c_p_s_1_1_d_p_1_1_ph1_1_1_current_source.html" target="_top" xlink:title="Dynamic phasor ideal current source.">
<polygon fill="none" stroke="black" points="626.5,-1118.5 626.5,-1137.5 777.5,-1137.5 777.5,-1118.5 626.5,-1118.5"/>
<text text-anchor="middle" x="702" y="-1125.5" font-family="Helvetica,sans-Serif" font-size="10.00">CPS::DP::Ph1::CurrentSource</text>
</a>
</g>
</g>
<!-- Node2&#45;&gt;Node41 -->
<g id="edge5" class="edge">
<title>Node2&#45;&gt;Node41</title>
<path fill="none" stroke="midnightblue" d="M580.57,-1128C595.66,-1128 611.43,-1128 626.41,-1128"/>
<polygon fill="midnightblue" stroke="midnightblue" points="580.26,-1124.5 570.26,-1128 580.26,-1131.5 580.26,-1124.5"/>
</g>
<!-- Node42 -->
<g id="node7" class="node">
<title>Node42</title>
<g id="a_node7"><a xlink:href="class_c_p_s_1_1_d_p_1_1_ph1_1_1_inductor.html" target="_top" xlink:title="Inductor.">
<polygon fill="none" stroke="black" points="640,-1080.5 640,-1099.5 764,-1099.5 764,-1080.5 640,-1080.5"/>
<text text-anchor="middle" x="702" y="-1087.5" font-family="Helvetica,sans-Serif" font-size="10.00">CPS::DP::Ph1::Inductor</text>
</a>
</g>
</g>
<!-- Node2&#45;&gt;Node42 -->
<g id="edge6" class="edge">
<title>Node2&#45;&gt;Node42</title>
<path fill="none" stroke="midnightblue" d="M580.34,-1113.1C604.14,-1108.54 629.67,-1103.65 651.09,-1099.55"/>
<polygon fill="midnightblue" stroke="midnightblue" points="579.42,-1109.71 570.26,-1115.03 580.74,-1116.59 579.42,-1109.71"/>
</g>
<!-- Node43 -->
<g id="node8" class="node">
<title>Node43</title>
<g id="a_node8"><a xlink:href="class_c_p_s_1_1_d_p_1_1_ph1_1_1_inverter.html" target="_top" xlink:title="Single phase inverter model.">
<polygon fill="none" stroke="black" points="640.5,-1042.5 640.5,-1061.5 763.5,-1061.5 763.5,-1042.5 640.5,-1042.5"/>
<text text-anchor="middle" x="702" y="-1049.5" font-family="Helvetica,sans-Serif" font-size="10.00">CPS::DP::Ph1::Inverter</text>
</a>
</g>
</g>
<!-- Node2&#45;&gt;Node43 -->
<g id="edge7" class="edge">
<title>Node2&#45;&gt;Node43</title>
<path fill="none" stroke="midnightblue" d="M533.95,-1107.6C554.11,-1095.35 581.24,-1080.39 607,-1071 617.56,-1067.15 629.09,-1064.01 640.33,-1061.48"/>
<polygon fill="midnightblue" stroke="midnightblue" points="531.88,-1104.76 525.21,-1113 535.56,-1110.72 531.88,-1104.76"/>
</g>
<!-- Node44 -->
<g id="node9" class="node">
<title>Node44</title>
<g id="a_node9"><a xlink:href="class_c_p_s_1_1_d_p_1_1_ph1_1_1_profile_voltage_source.html" target="_top" xlink:title=" ">
<polygon fill="none" stroke="black" points="627.5,-993 627.5,-1023 776.5,-1023 776.5,-993 627.5,-993"/>
<text text-anchor="start" x="635.5" y="-1011" font-family="Helvetica,sans-Serif" font-size="10.00">CPS::DP::Ph1::ProfileVoltage</text>
<text text-anchor="middle" x="702" y="-1000" font-family="Helvetica,sans-Serif" font-size="10.00">Source</text>
</a>
</g>
</g>
<!-- Node2&#45;&gt;Node44 -->
<g id="edge8" class="edge">
<title>Node2&#45;&gt;Node44</title>
<path fill="none" stroke="midnightblue" d="M521.82,-1104.97C541.21,-1083.31 573.02,-1051.52 607,-1033 614.12,-1029.12 621.87,-1025.82 629.77,-1023.01"/>
<polygon fill="midnightblue" stroke="midnightblue" points="518.98,-1102.91 515.02,-1112.73 524.24,-1107.52 518.98,-1102.91"/>
</g>
<!-- Node45 -->
<g id="node10" class="node">
<title>Node45</title>
<g id="a_node10"><a xlink:href="class_c_p_s_1_1_d_p_1_1_ph1_1_1_res_ind_series.html" target="_top" xlink:title="resistor inductor series element">
<polygon fill="none" stroke="black" points="630,-954.5 630,-973.5 774,-973.5 774,-954.5 630,-954.5"/>
<text text-anchor="middle" x="702" y="-961.5" font-family="Helvetica,sans-Serif" font-size="10.00">CPS::DP::Ph1::ResIndSeries</text>
</a>
</g>
</g>
<!-- Node2&#45;&gt;Node45 -->
<g id="edge9" class="edge">
<title>Node2&#45;&gt;Node45</title>
<path fill="none" stroke="midnightblue" d="M513.19,-1103.68C528.85,-1071.04 561.23,-1013.75 607,-984 613.99,-979.45 621.84,-975.92 629.94,-973.18"/>
<polygon fill="midnightblue" stroke="midnightblue" points="509.92,-1102.42 508.87,-1112.96 516.26,-1105.37 509.92,-1102.42"/>
</g>
<!-- Node46 -->
<g id="node11" class="node">
<title>Node46</title>
<g id="a_node11"><a xlink:href="class_c_p_s_1_1_d_p_1_1_ph1_1_1_resistor.html" target="_top" xlink:title="Dynamic phasor resistor model.">
<polygon fill="none" stroke="black" points="641.5,-916.5 641.5,-935.5 762.5,-935.5 762.5,-916.5 641.5,-916.5"/>
<text text-anchor="middle" x="702" y="-923.5" font-family="Helvetica,sans-Serif" font-size="10.00">CPS::DP::Ph1::Resistor</text>
</a>
</g>
</g>
<!-- Node2&#45;&gt;Node46 -->
<g id="edge10" class="edge">
<title>Node2&#45;&gt;Node46</title>
<path fill="none" stroke="midnightblue" d="M509.41,-1103.01C521.86,-1062.92 552.01,-984.73 607,-945 616.99,-937.78 629.05,-933.15 641.16,-930.21"/>
<polygon fill="midnightblue" stroke="midnightblue" points="506,-1102.2 506.49,-1112.79 512.7,-1104.2 506,-1102.2"/>
</g>
<!-- Node47 -->
<g id="node12" class="node">
<title>Node47</title>
<g id="a_node12"><a xlink:href="class_c_p_s_1_1_d_p_1_1_ph1_1_1_s_v_c.html" target="_top" xlink:title="SVC.">
<polygon fill="none" stroke="black" points="651.5,-878.5 651.5,-897.5 752.5,-897.5 752.5,-878.5 651.5,-878.5"/>
<text text-anchor="middle" x="702" y="-885.5" font-family="Helvetica,sans-Serif" font-size="10.00">CPS::DP::Ph1::SVC</text>
</a>
</g>
</g>
<!-- Node2&#45;&gt;Node47 -->
<g id="edge11" class="edge">
<title>Node2&#45;&gt;Node47</title>
<path fill="none" stroke="midnightblue" d="M506.79,-1102.92C516.13,-1056.47 542.83,-957.25 607,-907 619.58,-897.15 635.95,-892.01 651.49,-889.44"/>
<polygon fill="midnightblue" stroke="midnightblue" points="503.35,-1102.28 504.92,-1112.76 510.23,-1103.59 503.35,-1102.28"/>
</g>
<!-- Node48 -->
<g id="node13" class="node">
<title>Node48</title>
<g id="a_node13"><a xlink:href="class_c_p_s_1_1_d_p_1_1_ph1_1_1_switch.html" target="_top" xlink:title="Dynamic phasor switch.">
<polygon fill="none" stroke="black" points="645.5,-840.5 645.5,-859.5 758.5,-859.5 758.5,-840.5 645.5,-840.5"/>
<text text-anchor="middle" x="702" y="-847.5" font-family="Helvetica,sans-Serif" font-size="10.00">CPS::DP::Ph1::Switch</text>
</a>
</g>
</g>
<!-- Node2&#45;&gt;Node48 -->
<g id="edge12" class="edge">
<title>Node2&#45;&gt;Node48</title>
<path fill="none" stroke="midnightblue" d="M504.89,-1102.79C511.26,-1050.5 533.54,-930.05 607,-869 617.76,-860.06 631.57,-854.94 645.29,-852.1"/>
<polygon fill="midnightblue" stroke="midnightblue" points="501.39,-1102.54 503.76,-1112.87 508.35,-1103.32 501.39,-1102.54"/>
</g>
<!-- Node49 -->
<g id="node14" class="node">
<title>Node49</title>
<g id="a_node14"><a xlink:href="class_c_p_s_1_1_d_p_1_1_ph1_1_1_voltage_source.html" target="_top" xlink:title="Ideal Voltage source model.">
<polygon fill="none" stroke="black" points="627,-802.5 627,-821.5 777,-821.5 777,-802.5 627,-802.5"/>
<text text-anchor="middle" x="702" y="-809.5" font-family="Helvetica,sans-Serif" font-size="10.00">CPS::DP::Ph1::VoltageSource</text>
</a>
</g>
</g>
<!-- Node2&#45;&gt;Node49 -->
<g id="edge13" class="edge">
<title>Node2&#45;&gt;Node49</title>
<path fill="none" stroke="midnightblue" d="M503.36,-1102.72C506.77,-1044.92 523.66,-902.63 607,-831 612.81,-826.01 619.56,-822.2 626.74,-819.3"/>
<polygon fill="midnightblue" stroke="midnightblue" points="499.86,-1102.63 502.85,-1112.8 506.85,-1102.99 499.86,-1102.63"/>
</g>
<!-- Node50 -->
<g id="node15" class="node">
<title>Node50</title>
<g id="a_node15"><a xlink:href="class_c_p_s_1_1_d_p_1_1_ph1_1_1_voltage_source_norton.html" target="_top" xlink:title="Resistive dynamic phasor voltage source.">
<polygon fill="none" stroke="black" points="627,-753 627,-783 777,-783 777,-753 627,-753"/>
<text text-anchor="start" x="635" y="-771" font-family="Helvetica,sans-Serif" font-size="10.00">CPS::DP::Ph1::VoltageSource</text>
<text text-anchor="middle" x="702" y="-760" font-family="Helvetica,sans-Serif" font-size="10.00">Norton</text>
</a>
</g>
</g>
<!-- Node2&#45;&gt;Node50 -->
<g id="edge14" class="edge">
<title>Node2&#45;&gt;Node50</title>
<path fill="none" stroke="midnightblue" d="M502.35,-1102.78C503.44,-1040.27 515.39,-877.2 607,-793 612.72,-787.74 619.42,-783.57 626.56,-780.26"/>
<polygon fill="midnightblue" stroke="midnightblue" points="498.85,-1102.88 502.26,-1112.91 505.85,-1102.94 498.85,-1102.88"/>
</g>
<!-- Node51 -->
<g id="node16" class="node">
<title>Node51</title>
<g id="a_node16"><a xlink:href="class_c_p_s_1_1_d_p_1_1_ph1_1_1var_res_switch.html" target="_top" xlink:title="Switch with variable resistance to avoid numerical oscillations, when an inductive current is suddenl...">
<polygon fill="none" stroke="black" points="630,-714.5 630,-733.5 774,-733.5 774,-714.5 630,-714.5"/>
<text text-anchor="middle" x="702" y="-721.5" font-family="Helvetica,sans-Serif" font-size="10.00">CPS::DP::Ph1::varResSwitch</text>
</a>
</g>
</g>
<!-- Node2&#45;&gt;Node51 -->
<g id="edge15" class="edge">
<title>Node2&#45;&gt;Node51</title>
<path fill="none" stroke="midnightblue" d="M505.91,-1102.28C516.76,-1024.29 553.01,-792.79 607,-743 613.49,-737.02 621.32,-732.7 629.66,-729.61"/>
<polygon fill="midnightblue" stroke="midnightblue" points="502.38,-1102.25 504.49,-1112.63 509.31,-1103.2 502.38,-1102.25"/>
</g>
<!-- Node52 -->
<g id="node17" class="node">
<title>Node52</title>
<g id="a_node17"><a xlink:href="class_c_p_s_1_1_d_p_1_1_ph3_1_1_capacitor.html" target="_top" xlink:title="Capacitor model.">
<polygon fill="none" stroke="black" points="638.5,-676.5 638.5,-695.5 765.5,-695.5 765.5,-676.5 638.5,-676.5"/>
<text text-anchor="middle" x="702" y="-683.5" font-family="Helvetica,sans-Serif" font-size="10.00">CPS::DP::Ph3::Capacitor</text>
</a>
</g>
</g>
<!-- Node2&#45;&gt;Node52 -->
<g id="edge16" class="edge">
<title>Node2&#45;&gt;Node52</title>
<path fill="none" stroke="midnightblue" d="M505.05,-1102.94C513.96,-1020.41 546.54,-759.3 607,-705 615.79,-697.1 626.94,-692.12 638.46,-689.05"/>
<polygon fill="midnightblue" stroke="midnightblue" points="501.56,-1102.63 503.99,-1112.94 508.52,-1103.36 501.56,-1102.63"/>
</g>
<!-- Node53 -->
<g id="node18" class="node">
<title>Node53</title>
<g id="a_node18"><a xlink:href="class_c_p_s_1_1_d_p_1_1_ph3_1_1_inductor.html" target="_top" xlink:title="Inductor.">
<polygon fill="none" stroke="black" points="640,-638.5 640,-657.5 764,-657.5 764,-638.5 640,-638.5"/>
<text text-anchor="middle" x="702" y="-645.5" font-family="Helvetica,sans-Serif" font-size="10.00">CPS::DP::Ph3::Inductor</text>
</a>
</g>
</g>
<!-- Node2&#45;&gt;Node53 -->
<g id="edge17" class="edge">
<title>Node2&#45;&gt;Node53</title>
<path fill="none" stroke="midnightblue" d="M504.49,-1102.39C511.89,-1014.32 540.84,-726.13 607,-667 616.19,-658.79 627.92,-653.74 639.95,-650.71"/>
<polygon fill="midnightblue" stroke="midnightblue" points="500.99,-1102.3 503.66,-1112.55 507.96,-1102.87 500.99,-1102.3"/>
</g>
<!-- Node54 -->
<g id="node19" class="node">
<title>Node54</title>
<g id="a_node19"><a xlink:href="class_c_p_s_1_1_d_p_1_1_ph3_1_1_resistor.html" target="_top" xlink:title=" ">
<polygon fill="none" stroke="black" points="641.5,-600.5 641.5,-619.5 762.5,-619.5 762.5,-600.5 641.5,-600.5"/>
<text text-anchor="middle" x="702" y="-607.5" font-family="Helvetica,sans-Serif" font-size="10.00">CPS::DP::Ph3::Resistor</text>
</a>
</g>
</g>
<!-- Node2&#45;&gt;Node54 -->
<g id="edge18" class="edge">
<title>Node2&#45;&gt;Node54</title>
<path fill="none" stroke="midnightblue" d="M503.96,-1102.7C509.83,-1010.33 535.02,-693.33 607,-629 616.56,-620.46 628.87,-615.33 641.42,-612.35"/>
<polygon fill="midnightblue" stroke="midnightblue" points="500.46,-1102.62 503.34,-1112.82 507.44,-1103.05 500.46,-1102.62"/>
</g>
<!-- Node55 -->
<g id="node20" class="node">
<title>Node55</title>
<g id="a_node20"><a xlink:href="class_c_p_s_1_1_d_p_1_1_ph3_1_1_series_resistor.html" target="_top" xlink:title=" ">
<polygon fill="none" stroke="black" points="627.5,-562.5 627.5,-581.5 776.5,-581.5 776.5,-562.5 627.5,-562.5"/>
<text text-anchor="middle" x="702" y="-569.5" font-family="Helvetica,sans-Serif" font-size="10.00">CPS::DP::Ph3::SeriesResistor</text>
</a>
</g>
</g>
<!-- Node2&#45;&gt;Node55 -->
<g id="edge19" class="edge">
<title>Node2&#45;&gt;Node55</title>
<path fill="none" stroke="midnightblue" d="M505.75,-1102.63C515.24,-1030.78 544.94,-820.07 588,-649 594.62,-622.69 586.73,-609.03 607,-591 612.85,-585.8 619.72,-581.87 627.03,-578.92"/>
<polygon fill="midnightblue" stroke="midnightblue" points="502.23,-1102.57 504.41,-1112.94 509.17,-1103.48 502.23,-1102.57"/>
</g>
<!-- Node56 -->
<g id="node21" class="node">
<title>Node56</title>
<g id="a_node21"><a xlink:href="class_c_p_s_1_1_d_p_1_1_ph3_1_1_series_switch.html" target="_top" xlink:title="Dynamic phasor three&#45;phase switch.">
<polygon fill="none" stroke="black" points="631.5,-1749.5 631.5,-1768.5 772.5,-1768.5 772.5,-1749.5 631.5,-1749.5"/>
<text text-anchor="middle" x="702" y="-1756.5" font-family="Helvetica,sans-Serif" font-size="10.00">CPS::DP::Ph3::SeriesSwitch</text>
</a>
</g>
</g>
<!-- Node2&#45;&gt;Node56 -->
<g id="edge20" class="edge">
<title>Node2&#45;&gt;Node56</title>
<path fill="none" stroke="midnightblue" d="M504.34,-1153.11C510.61,-1232.93 533.81,-1487.53 588,-1691 594.01,-1713.57 589.14,-1724.95 607,-1740 614,-1745.9 622.34,-1750.14 631.1,-1753.17"/>
<polygon fill="midnightblue" stroke="midnightblue" points="507.82,-1152.74 503.57,-1143.03 500.84,-1153.27 507.82,-1152.74"/>
</g>
<!-- Node57 -->
<g id="node22" class="node">
<title>Node57</title>
<g id="a_node22"><a xlink:href="class_c_p_s_1_1_d_p_1_1_ph3_1_1_synchron_generator_d_q.html" target="_top" xlink:title="Synchronous generator model in dq&#45;reference frame.">
<polygon fill="none" stroke="red" points="607,-1711.5 607,-1730.5 797,-1730.5 797,-1711.5 607,-1711.5"/>
<text text-anchor="middle" x="702" y="-1718.5" font-family="Helvetica,sans-Serif" font-size="10.00">CPS::DP::Ph3::SynchronGeneratorDQ</text>
</a>
</g>
</g>
<!-- Node2&#45;&gt;Node57 -->
<g id="edge21" class="edge">
<title>Node2&#45;&gt;Node57</title>
<path fill="none" stroke="midnightblue" d="M503.27,-1153.32C506.9,-1254.15 525.67,-1625.3 607,-1702 611,-1705.77 615.53,-1708.88 620.38,-1711.45"/>
<polygon fill="midnightblue" stroke="midnightblue" points="506.77,-1153.03 502.93,-1143.15 499.77,-1153.27 506.77,-1153.03"/>
</g>
<!-- Node60 -->
<g id="node23" class="node">
<title>Node60</title>
<g id="a_node23"><a xlink:href="class_c_p_s_1_1_d_p_1_1_ph3_1_1_voltage_source.html" target="_top" xlink:title="Ideal Voltage source model.">
<polygon fill="none" stroke="black" points="627,-1673.5 627,-1692.5 777,-1692.5 777,-1673.5 627,-1673.5"/>
<text text-anchor="middle" x="702" y="-1680.5" font-family="Helvetica,sans-Serif" font-size="10.00">CPS::DP::Ph3::VoltageSource</text>
</a>
</g>
</g>
<!-- Node2&#45;&gt;Node60 -->
<g id="edge22" class="edge">
<title>Node2&#45;&gt;Node60</title>
<path fill="none" stroke="midnightblue" d="M505.19,-1153.47C513.26,-1226.42 539.77,-1441.97 588,-1615 594.27,-1637.5 589.14,-1648.95 607,-1664 612.86,-1668.93 619.64,-1672.71 626.84,-1675.58"/>
<polygon fill="midnightblue" stroke="midnightblue" points="508.65,-1152.95 504.09,-1143.39 501.69,-1153.71 508.65,-1152.95"/>
</g>
<!-- Node61 -->
<g id="node24" class="node">
<title>Node61</title>
<g id="a_node24"><a xlink:href="class_c_p_s_1_1_s_p_1_1_ph1_1_1_capacitor.html" target="_top" xlink:title=" ">
<polygon fill="none" stroke="black" points="639.5,-1635.5 639.5,-1654.5 764.5,-1654.5 764.5,-1635.5 639.5,-1635.5"/>
<text text-anchor="middle" x="702" y="-1642.5" font-family="Helvetica,sans-Serif" font-size="10.00">CPS::SP::Ph1::Capacitor</text>
</a>
</g>
</g>
<!-- Node2&#45;&gt;Node61 -->
<g id="edge23" class="edge">
<title>Node2&#45;&gt;Node61</title>
<path fill="none" stroke="midnightblue" d="M504.06,-1153.15C510.29,-1244.99 536.55,-1560.27 607,-1626 615.89,-1634.29 627.35,-1639.4 639.19,-1642.46"/>
<polygon fill="midnightblue" stroke="midnightblue" points="507.55,-1152.84 503.4,-1143.09 500.56,-1153.3 507.55,-1152.84"/>
</g>
<!-- Node62 -->
<g id="node25" class="node">
<title>Node62</title>
<g id="a_node25"><a xlink:href="class_c_p_s_1_1_s_p_1_1_ph1_1_1_inductor.html" target="_top" xlink:title="Static phasor inductor model.">
<polygon fill="none" stroke="black" points="641,-1597.5 641,-1616.5 763,-1616.5 763,-1597.5 641,-1597.5"/>
<text text-anchor="middle" x="702" y="-1604.5" font-family="Helvetica,sans-Serif" font-size="10.00">CPS::SP::Ph1::Inductor</text>
</a>
</g>
</g>
<!-- Node2&#45;&gt;Node62 -->
<g id="edge24" class="edge">
<title>Node2&#45;&gt;Node62</title>
<path fill="none" stroke="midnightblue" d="M506.06,-1153.49C515.55,-1218.98 543.84,-1398.07 588,-1542 594.49,-1563.15 589.93,-1573.93 607,-1588 616.64,-1595.94 628.69,-1600.86 640.93,-1603.85"/>
<polygon fill="midnightblue" stroke="midnightblue" points="509.48,-1152.7 504.6,-1143.3 502.55,-1153.69 509.48,-1152.7"/>
</g>
<!-- Node63 -->
<g id="node26" class="node">
<title>Node63</title>
<g id="a_node26"><a xlink:href="class_c_p_s_1_1_s_p_1_1_ph1_1_1_resistor.html" target="_top" xlink:title="Static phasor resistor model.">
<polygon fill="none" stroke="black" points="642.5,-1559.5 642.5,-1578.5 761.5,-1578.5 761.5,-1559.5 642.5,-1559.5"/>
<text text-anchor="middle" x="702" y="-1566.5" font-family="Helvetica,sans-Serif" font-size="10.00">CPS::SP::Ph1::Resistor</text>
</a>
</g>
</g>
<!-- Node2&#45;&gt;Node63 -->
<g id="edge25" class="edge">
<title>Node2&#45;&gt;Node63</title>
<path fill="none" stroke="midnightblue" d="M504.9,-1153.19C513.34,-1236.1 544.62,-1498.2 607,-1550 616.99,-1558.3 629.62,-1563.3 642.35,-1566.25"/>
<polygon fill="midnightblue" stroke="midnightblue" points="508.37,-1152.74 503.9,-1143.14 501.4,-1153.43 508.37,-1152.74"/>
</g>
<!-- Node64 -->
<g id="node27" class="node">
<title>Node64</title>
<g id="a_node27"><a xlink:href="class_c_p_s_1_1_s_p_1_1_ph1_1_1_switch.html" target="_top" xlink:title="Dynamic phasor switch.">
<polygon fill="none" stroke="black" points="647,-1521.5 647,-1540.5 757,-1540.5 757,-1521.5 647,-1521.5"/>
<text text-anchor="middle" x="702" y="-1528.5" font-family="Helvetica,sans-Serif" font-size="10.00">CPS::SP::Ph1::Switch</text>
</a>
</g>
</g>
<!-- Node2&#45;&gt;Node64 -->
<g id="edge26" class="edge">
<title>Node2&#45;&gt;Node64</title>
<path fill="none" stroke="midnightblue" d="M505.61,-1153.4C515.73,-1231.44 550.34,-1465.3 607,-1512 618.18,-1521.21 632.62,-1526.36 646.8,-1529.14"/>
<polygon fill="midnightblue" stroke="midnightblue" points="509.03,-1152.53 504.3,-1143.06 502.09,-1153.42 509.03,-1152.53"/>
</g>
<!-- Node65 -->
<g id="node28" class="node">
<title>Node65</title>
<g id="a_node28"><a xlink:href="class_c_p_s_1_1_s_p_1_1_ph1_1_1_voltage_source.html" target="_top" xlink:title="Ideal Voltage source model.">
<polygon fill="none" stroke="black" points="628,-1483.5 628,-1502.5 776,-1502.5 776,-1483.5 628,-1483.5"/>
<text text-anchor="middle" x="702" y="-1490.5" font-family="Helvetica,sans-Serif" font-size="10.00">CPS::SP::Ph1::VoltageSource</text>
</a>
</g>
</g>
<!-- Node2&#45;&gt;Node65 -->
<g id="edge27" class="edge">
<title>Node2&#45;&gt;Node65</title>
<path fill="none" stroke="midnightblue" d="M506.37,-1153.33C518.02,-1226.09 555.23,-1433.14 607,-1474 613.14,-1478.85 620.2,-1482.56 627.62,-1485.38"/>
<polygon fill="midnightblue" stroke="midnightblue" points="509.79,-1152.56 504.77,-1143.23 502.87,-1153.65 509.79,-1152.56"/>
</g>
<!-- Node66 -->
<g id="node29" class="node">
<title>Node66</title>
<g id="a_node29"><a xlink:href="class_c_p_s_1_1_s_p_1_1_ph1_1_1var_res_switch.html" target="_top" xlink:title="Switch with variable resistance to avoid numerical oscillations, when an inductive current is suddenl...">
<polygon fill="none" stroke="black" points="631,-1445.5 631,-1464.5 773,-1464.5 773,-1445.5 631,-1445.5"/>
<text text-anchor="middle" x="702" y="-1452.5" font-family="Helvetica,sans-Serif" font-size="10.00">CPS::SP::Ph1::varResSwitch</text>
</a>
</g>
</g>
<!-- Node2&#45;&gt;Node66 -->
<g id="edge28" class="edge">
<title>Node2&#45;&gt;Node66</title>
<path fill="none" stroke="midnightblue" d="M502.52,-1153.12C504.05,-1213.12 517.08,-1365.03 607,-1436 614.06,-1441.57 622.32,-1445.64 630.97,-1448.58"/>
<polygon fill="midnightblue" stroke="midnightblue" points="506.01,-1152.97 502.35,-1143.03 499.01,-1153.08 506.01,-1152.97"/>
</g>
<!-- Node67 -->
<g id="node30" class="node">
<title>Node67</title>
<g id="a_node30"><a xlink:href="class_c_p_s_1_1_s_p_1_1_ph3_1_1_capacitor.html" target="_top" xlink:title="Capacitor model.">
<polygon fill="none" stroke="black" points="639.5,-1407.5 639.5,-1426.5 764.5,-1426.5 764.5,-1407.5 639.5,-1407.5"/>
<text text-anchor="middle" x="702" y="-1414.5" font-family="Helvetica,sans-Serif" font-size="10.00">CPS::SP::Ph3::Capacitor</text>
</a>
</g>
</g>
<!-- Node2&#45;&gt;Node67 -->
<g id="edge29" class="edge">
<title>Node2&#45;&gt;Node67</title>
<path fill="none" stroke="midnightblue" d="M504.15,-1153.47C509.15,-1207.95 529.03,-1335.88 607,-1398 616.25,-1405.37 627.59,-1410.11 639.17,-1413.11"/>
<polygon fill="midnightblue" stroke="midnightblue" points="507.62,-1152.98 503.31,-1143.3 500.64,-1153.56 507.62,-1152.98"/>
</g>
<!-- Node68 -->
<g id="node31" class="node">
<title>Node68</title>
<g id="a_node31"><a xlink:href="class_c_p_s_1_1_s_p_1_1_ph3_1_1_inductor.html" target="_top" xlink:title="Inductor.">
<polygon fill="none" stroke="black" points="641,-1369.5 641,-1388.5 763,-1388.5 763,-1369.5 641,-1369.5"/>
<text text-anchor="middle" x="702" y="-1376.5" font-family="Helvetica,sans-Serif" font-size="10.00">CPS::SP::Ph3::Inductor</text>
</a>
</g>
</g>
<!-- Node2&#45;&gt;Node68 -->
<g id="edge30" class="edge">
<title>Node2&#45;&gt;Node68</title>
<path fill="none" stroke="midnightblue" d="M506.1,-1153.01C514.44,-1201.22 539.78,-1306.95 607,-1360 616.67,-1367.63 628.61,-1372.44 640.69,-1375.42"/>
<polygon fill="midnightblue" stroke="midnightblue" points="509.55,-1152.41 504.49,-1143.1 502.64,-1153.54 509.55,-1152.41"/>
</g>
<!-- Node69 -->
<g id="node32" class="node">
<title>Node69</title>
<g id="a_node32"><a xlink:href="class_c_p_s_1_1_s_p_1_1_ph3_1_1_resistor.html" target="_top" xlink:title=" ">
<polygon fill="none" stroke="black" points="642.5,-1331.5 642.5,-1350.5 761.5,-1350.5 761.5,-1331.5 642.5,-1331.5"/>
<text text-anchor="middle" x="702" y="-1338.5" font-family="Helvetica,sans-Serif" font-size="10.00">CPS::SP::Ph3::Resistor</text>
</a>
</g>
</g>
<!-- Node2&#45;&gt;Node69 -->
<g id="edge31" class="edge">
<title>Node2&#45;&gt;Node69</title>
<path fill="none" stroke="midnightblue" d="M508.46,-1152.68C519.93,-1194.56 549.21,-1279.15 607,-1322 617.16,-1329.54 629.58,-1334.27 642.01,-1337.21"/>
<polygon fill="midnightblue" stroke="midnightblue" points="511.85,-1151.79 505.92,-1143.01 505.08,-1153.57 511.85,-1151.79"/>
</g>
<!-- Node70 -->
<g id="node33" class="node">
<title>Node70</title>
<g id="a_node33"><a xlink:href="class_c_p_s_1_1_s_p_1_1_ph3_1_1_voltage_source.html" target="_top" xlink:title="Ideal Voltage source model.">
<polygon fill="none" stroke="black" points="628,-1293.5 628,-1312.5 776,-1312.5 776,-1293.5 628,-1293.5"/>
<text text-anchor="middle" x="702" y="-1300.5" font-family="Helvetica,sans-Serif" font-size="10.00">CPS::SP::Ph3::VoltageSource</text>
</a>
</g>
</g>
<!-- Node2&#45;&gt;Node70 -->
<g id="edge32" class="edge">
<title>Node2&#45;&gt;Node70</title>
<path fill="none" stroke="midnightblue" d="M511.94,-1152.86C526.64,-1187.99 558.43,-1251.48 607,-1284 613.36,-1288.26 620.48,-1291.6 627.86,-1294.22"/>
<polygon fill="midnightblue" stroke="midnightblue" points="515.09,-1151.3 508.09,-1143.35 508.6,-1153.93 515.09,-1151.3"/>
</g>
<!-- Node72 -->
<g id="node35" class="node">
<title>Node72</title>
<g id="a_node35"><a xlink:href="class_c_p_s_1_1_base_1_1_reduced_order_synchron_generator.html" target="_top" xlink:title=" ">
<polygon fill="none" stroke="red" points="612.5,-278 612.5,-308 791.5,-308 791.5,-278 612.5,-278"/>
<text text-anchor="start" x="620.5" y="-296" font-family="Helvetica,sans-Serif" font-size="10.00">CPS::Base::ReducedOrderSynchron</text>
<text text-anchor="middle" x="702" y="-285" font-family="Helvetica,sans-Serif" font-size="10.00">Generator&lt; Real &gt;</text>
</a>
</g>
</g>
<!-- Node71&#45;&gt;Node72 -->
<g id="edge34" class="edge">
<title>Node71&#45;&gt;Node72</title>
<path fill="none" stroke="midnightblue" d="M580.27,-293C590.84,-293 601.75,-293 612.49,-293"/>
<polygon fill="midnightblue" stroke="midnightblue" points="580.26,-289.5 570.26,-293 580.26,-296.5 580.26,-289.5"/>
</g>
<!-- Node80 -->
<g id="node36" class="node">
<title>Node80</title>
<g id="a_node36"><a xlink:href="class_c_p_s_1_1_composite_power_comp.html" target="_top" xlink:title=" ">
<polygon fill="none" stroke="red" points="629,-229 629,-259 775,-259 775,-229 629,-229"/>
<text text-anchor="start" x="637" y="-247" font-family="Helvetica,sans-Serif" font-size="10.00">CPS::CompositePowerComp</text>
<text text-anchor="middle" x="702" y="-236" font-family="Helvetica,sans-Serif" font-size="10.00">&lt; Real &gt;</text>
</a>
</g>
</g>
<!-- Node71&#45;&gt;Node80 -->
<g id="edge35" class="edge">
<title>Node71&#45;&gt;Node80</title>
<path fill="none" stroke="midnightblue" d="M573.3,-275.52C595.18,-270.12 619.07,-264.22 640.21,-259.01"/>
<polygon fill="midnightblue" stroke="midnightblue" points="572.28,-272.17 563.41,-277.97 573.95,-278.97 572.28,-272.17"/>
</g>
<!-- Node90 -->
<g id="node37" class="node">
<title>Node90</title>
<g id="a_node37"><a xlink:href="class_c_p_s_1_1_e_m_t_1_1_ph1_1_1_capacitor.html" target="_top" xlink:title="Capacitor model.">
<polygon fill="none" stroke="black" points="635.5,-190.5 635.5,-209.5 768.5,-209.5 768.5,-190.5 635.5,-190.5"/>
<text text-anchor="middle" x="702" y="-197.5" font-family="Helvetica,sans-Serif" font-size="10.00">CPS::EMT::Ph1::Capacitor</text>
</a>
</g>
</g>
<!-- Node71&#45;&gt;Node90 -->
<g id="edge36" class="edge">
<title>Node71&#45;&gt;Node90</title>
<path fill="none" stroke="midnightblue" d="M526.98,-271.15C547.09,-254.37 577.05,-231.94 607,-219 616.02,-215.1 625.87,-211.99 635.7,-209.52"/>
<polygon fill="midnightblue" stroke="midnightblue" points="524.6,-268.58 519.25,-277.73 529.14,-273.91 524.6,-268.58"/>
</g>
<!-- Node91 -->
<g id="node38" class="node">
<title>Node91</title>
<g id="a_node38"><a xlink:href="class_c_p_s_1_1_e_m_t_1_1_ph1_1_1_current_source.html" target="_top" xlink:title="Ideal current source model.">
<polygon fill="none" stroke="black" points="623.5,-152.5 623.5,-171.5 780.5,-171.5 780.5,-152.5 623.5,-152.5"/>
<text text-anchor="middle" x="702" y="-159.5" font-family="Helvetica,sans-Serif" font-size="10.00">CPS::EMT::Ph1::CurrentSource</text>
</a>
</g>
</g>
<!-- Node71&#45;&gt;Node91 -->
<g id="edge37" class="edge">
<title>Node71&#45;&gt;Node91</title>
<path fill="none" stroke="midnightblue" d="M517.75,-269.37C535.82,-243.43 568.38,-202.59 607,-181 613.98,-177.1 621.64,-174 629.49,-171.52"/>
<polygon fill="midnightblue" stroke="midnightblue" points="514.7,-267.63 511.98,-277.87 520.5,-271.56 514.7,-267.63"/>
</g>
<!-- Node92 -->
<g id="node39" class="node">
<title>Node92</title>
<g id="a_node39"><a xlink:href="class_c_p_s_1_1_e_m_t_1_1_ph1_1_1_inductor.html" target="_top" xlink:title="Inductor.">
<polygon fill="none" stroke="black" points="637,-114.5 637,-133.5 767,-133.5 767,-114.5 637,-114.5"/>
<text text-anchor="middle" x="702" y="-121.5" font-family="Helvetica,sans-Serif" font-size="10.00">CPS::EMT::Ph1::Inductor</text>
</a>
</g>
</g>
<!-- Node71&#45;&gt;Node92 -->
<g id="edge38" class="edge">
<title>Node71&#45;&gt;Node92</title>
<path fill="none" stroke="midnightblue" d="M512.44,-268.57C527.56,-234.68 559.67,-174.07 607,-143 615.91,-137.15 626.24,-133.04 636.72,-130.16"/>
<polygon fill="midnightblue" stroke="midnightblue" points="509.22,-267.2 508.46,-277.77 515.64,-269.98 509.22,-267.2"/>
</g>
<!-- Node93 -->
<g id="node40" class="node">
<title>Node93</title>
<g id="a_node40"><a xlink:href="class_c_p_s_1_1_e_m_t_1_1_ph1_1_1_resistor.html" target="_top" xlink:title="EMT Resistor.">
<polygon fill="none" stroke="black" points="638.5,-76.5 638.5,-95.5 765.5,-95.5 765.5,-76.5 638.5,-76.5"/>
<text text-anchor="middle" x="702" y="-83.5" font-family="Helvetica,sans-Serif" font-size="10.00">CPS::EMT::Ph1::Resistor</text>
</a>
</g>
</g>
<!-- Node71&#45;&gt;Node93 -->
<g id="edge39" class="edge">
<title>Node71&#45;&gt;Node93</title>
<path fill="none" stroke="midnightblue" d="M508.95,-268.21C520.94,-227.31 550.71,-146.17 607,-105 616.14,-98.32 627.05,-93.84 638.16,-90.88"/>
<polygon fill="midnightblue" stroke="midnightblue" points="505.55,-267.34 506.21,-277.92 512.29,-269.24 505.55,-267.34"/>
</g>
<!-- Node94 -->
<g id="node41" class="node">
<title>Node94</title>
<g id="a_node41"><a xlink:href="class_c_p_s_1_1_e_m_t_1_1_ph1_1_1_switch.html" target="_top" xlink:title="One phase EMT switch.">
<polygon fill="none" stroke="black" points="642.5,-38.5 642.5,-57.5 761.5,-57.5 761.5,-38.5 642.5,-38.5"/>
<text text-anchor="middle" x="702" y="-45.5" font-family="Helvetica,sans-Serif" font-size="10.00">CPS::EMT::Ph1::Switch</text>
</a>
</g>
</g>
<!-- Node71&#45;&gt;Node94 -->
<g id="edge40" class="edge">
<title>Node71&#45;&gt;Node94</title>
<path fill="none" stroke="midnightblue" d="M506.55,-267.71C515.52,-220.38 541.7,-118.58 607,-67 617.06,-59.05 629.57,-54.17 642.15,-51.22"/>
<polygon fill="midnightblue" stroke="midnightblue" points="503.07,-267.26 504.75,-277.73 509.96,-268.5 503.07,-267.26"/>
</g>
<!-- Node95 -->
<g id="node42" class="node">
<title>Node95</title>
<g id="a_node42"><a xlink:href="class_c_p_s_1_1_e_m_t_1_1_ph1_1_1_voltage_source.html" target="_top" xlink:title="Ideal Voltage source model.">
<polygon fill="none" stroke="black" points="624,-0.5 624,-19.5 780,-19.5 780,-0.5 624,-0.5"/>
<text text-anchor="middle" x="702" y="-7.5" font-family="Helvetica,sans-Serif" font-size="10.00">CPS::EMT::Ph1::VoltageSource</text>
</a>
</g>
</g>
<!-- Node71&#45;&gt;Node95 -->
<g id="edge41" class="edge">
<title>Node71&#45;&gt;Node95</title>
<path fill="none" stroke="midnightblue" d="M504.68,-267.69C510.69,-214.62 532.35,-91.45 607,-29 611.98,-24.83 617.62,-21.5 623.62,-18.83"/>
<polygon fill="midnightblue" stroke="midnightblue" points="501.17,-267.6 503.63,-277.91 508.14,-268.32 501.17,-267.6"/>
</g>
<!-- Node96 -->
<g id="node43" class="node">
<title>Node96</title>
<g id="a_node43"><a xlink:href="class_c_p_s_1_1_e_m_t_1_1_ph1_1_1_voltage_source_norton.html" target="_top" xlink:title="Voltage source as Norton equivalent.">
<polygon fill="none" stroke="black" points="624,-513 624,-543 780,-543 780,-513 624,-513"/>
<text text-anchor="start" x="632" y="-531" font-family="Helvetica,sans-Serif" font-size="10.00">CPS::EMT::Ph1::VoltageSource</text>
<text text-anchor="middle" x="702" y="-520" font-family="Helvetica,sans-Serif" font-size="10.00">Norton</text>
</a>
</g>
</g>
<!-- Node71&#45;&gt;Node96 -->
<g id="edge42" class="edge">
<title>Node71&#45;&gt;Node96</title>
<path fill="none" stroke="midnightblue" d="M507.83,-318.03C518.57,-362.25 547.1,-454.12 607,-503 612.1,-507.16 617.83,-510.64 623.88,-513.54"/>
<polygon fill="midnightblue" stroke="midnightblue" points="511.2,-317.06 505.53,-308.11 504.38,-318.65 511.2,-317.06"/>
</g>
<!-- Node97 -->
<g id="node44" class="node">
<title>Node97</title>
<g id="a_node44"><a xlink:href="class_c_p_s_1_1_e_m_t_1_1_ph3_1_1_av_volt_source_inverter_state_space.html" target="_top" xlink:title="average inverter model with LC filter">
<polygon fill="none" stroke="black" points="626.5,-464 626.5,-494 777.5,-494 777.5,-464 626.5,-464"/>
<text text-anchor="start" x="634.5" y="-482" font-family="Helvetica,sans-Serif" font-size="10.00">CPS::EMT::Ph3::AvVoltSource</text>
<text text-anchor="middle" x="702" y="-471" font-family="Helvetica,sans-Serif" font-size="10.00">InverterStateSpace</text>
</a>
</g>
</g>
<!-- Node71&#45;&gt;Node97 -->
<g id="edge43" class="edge">
<title>Node71&#45;&gt;Node97</title>
<path fill="none" stroke="midnightblue" d="M511.77,-317.71C526.43,-353.34 558.39,-418.74 607,-454 612.88,-458.26 619.43,-461.8 626.27,-464.73"/>
<polygon fill="midnightblue" stroke="midnightblue" points="514.89,-316.08 507.94,-308.08 508.39,-318.67 514.89,-316.08"/>
</g>
<!-- Node98 -->
<g id="node45" class="node">
<title>Node98</title>
<g id="a_node45"><a xlink:href="class_c_p_s_1_1_e_m_t_1_1_ph3_1_1_capacitor.html" target="_top" xlink:title="Capacitor model.">
<polygon fill="none" stroke="black" points="635.5,-425.5 635.5,-444.5 768.5,-444.5 768.5,-425.5 635.5,-425.5"/>
<text text-anchor="middle" x="702" y="-432.5" font-family="Helvetica,sans-Serif" font-size="10.00">CPS::EMT::Ph3::Capacitor</text>
</a>
</g>
</g>
<!-- Node71&#45;&gt;Node98 -->
<g id="edge44" class="edge">
<title>Node71&#45;&gt;Node98</title>
<path fill="none" stroke="midnightblue" d="M516.22,-316.95C533.61,-345.04 566.29,-390.81 607,-415 615.61,-420.11 625.34,-423.93 635.21,-426.77"/>
<polygon fill="midnightblue" stroke="midnightblue" points="519.08,-314.92 510.92,-308.16 513.08,-318.53 519.08,-314.92"/>
</g>
<!-- Node99 -->
<g id="node46" class="node">
<title>Node99</title>
<g id="a_node46"><a xlink:href="class_c_p_s_1_1_e_m_t_1_1_ph3_1_1_controlled_current_source.html" target="_top" xlink:title="Ideal current source model.">
<polygon fill="none" stroke="black" points="633.5,-376 633.5,-406 770.5,-406 770.5,-376 633.5,-376"/>
<text text-anchor="start" x="641.5" y="-394" font-family="Helvetica,sans-Serif" font-size="10.00">CPS::EMT::Ph3::Controlled</text>
<text text-anchor="middle" x="702" y="-383" font-family="Helvetica,sans-Serif" font-size="10.00">CurrentSource</text>
</a>
</g>
</g>
<!-- Node71&#45;&gt;Node99 -->
<g id="edge45" class="edge">
<title>Node71&#45;&gt;Node99</title>
<path fill="none" stroke="midnightblue" d="M527.98,-314.64C548.23,-330.85 577.89,-352.48 607,-366 615.27,-369.84 624.23,-373.17 633.23,-376.04"/>
<polygon fill="midnightblue" stroke="midnightblue" points="530.14,-311.88 520.17,-308.28 525.72,-317.31 530.14,-311.88"/>
</g>
<!-- Node100 -->
<g id="node47" class="node">
<title>Node100</title>
<g id="a_node47"><a xlink:href="class_c_p_s_1_1_e_m_t_1_1_ph3_1_1_controlled_voltage_source.html" target="_top" xlink:title="Controlled Ideal Voltage source model.">
<polygon fill="none" stroke="black" points="633.5,-327 633.5,-357 770.5,-357 770.5,-327 633.5,-327"/>
<text text-anchor="start" x="641.5" y="-345" font-family="Helvetica,sans-Serif" font-size="10.00">CPS::EMT::Ph3::Controlled</text>
<text text-anchor="middle" x="702" y="-334" font-family="Helvetica,sans-Serif" font-size="10.00">VoltageSource</text>
</a>
</g>
</g>
<!-- Node71&#45;&gt;Node100 -->
<g id="edge46" class="edge">
<title>Node71&#45;&gt;Node100</title>
<path fill="none" stroke="midnightblue" d="M573.3,-310.48C595.18,-315.88 619.07,-321.78 640.21,-326.99"/>
<polygon fill="midnightblue" stroke="midnightblue" points="573.95,-307.03 563.41,-308.03 572.28,-313.83 573.95,-307.03"/>
</g>
<!-- Node118&#45;&gt;Node2 -->
<g id="edge49" class="edge">
<title>Node118&#45;&gt;Node2</title>
<path fill="none" stroke="orange" stroke-dasharray="5,2" d="M319.6,-908.68C352.01,-913.31 388.27,-923.48 415,-945 470.18,-989.42 491.51,-1077.68 498.06,-1112.94"/>
<polygon fill="orange" stroke="orange" points="320.04,-905.21 309.68,-907.41 319.16,-912.15 320.04,-905.21"/>
<text text-anchor="middle" x="385.5" y="-948" font-family="Helvetica,sans-Serif" font-size="10.00"> &lt; Complex &gt;</text>
</g>
<!-- Node118&#45;&gt;Node71 -->
<g id="edge50" class="edge">
<title>Node118&#45;&gt;Node71</title>
<path fill="none" stroke="orange" stroke-dasharray="5,2" d="M319.33,-893.37C326.14,-890.11 332.51,-886.05 338,-881 427.29,-798.74 486.97,-392.27 498.47,-308.22"/>
<polygon fill="orange" stroke="orange" points="317.7,-890.26 309.81,-897.33 320.39,-896.72 317.7,-890.26"/>
<text text-anchor="middle" x="385.5" y="-855" font-family="Helvetica,sans-Serif" font-size="10.00"> &lt; Real &gt;</text>
</g>
</g>
</svg>
