<?xml version="1.0" encoding="UTF-8" standalone="no"?>
<!DOCTYPE svg PUBLIC "-//W3C//DTD SVG 1.1//EN"
 "http://www.w3.org/Graphics/SVG/1.1/DTD/svg11.dtd">
<!-- Generated by graphviz version 2.50.0 (0)
 -->
<!-- Title: CPS::DP::Ph1::PiLine Pages: 1 -->
<svg width="1327pt" height="200pt"
 viewBox="0.00 0.00 1327.00 199.50" xmlns="http://www.w3.org/2000/svg" xmlns:xlink="http://www.w3.org/1999/xlink">
<g id="graph0" class="graph" transform="scale(1 1) rotate(0) translate(4 195.5)">
<title>CPS::DP::Ph1::PiLine</title>
<!-- Node1 -->
<g id="node1" class="node">
<title>Node1</title>
<g id="a_node1"><a xlink:title="PI&#45;line dynamic phasor model.">
<polygon fill="#bfbfbf" stroke="black" points="1208,-57.5 1208,-76.5 1319,-76.5 1319,-57.5 1208,-57.5"/>
<text text-anchor="middle" x="1263.5" y="-64.5" font-family="Helvetica,sans-Serif" font-size="10.00">CPS::DP::Ph1::PiLine</text>
</a>
</g>
</g>
<!-- Node2 -->
<g id="node2" class="node">
<title>Node2</title>
<g id="a_node2"><a xlink:href="class_c_p_s_1_1_composite_power_comp.html" target="_top" xlink:title=" ">
<polygon fill="none" stroke="black" points="1025,-115 1025,-145 1171,-145 1171,-115 1025,-115"/>
<text text-anchor="start" x="1033" y="-133" font-family="Helvetica,sans-Serif" font-size="10.00">CPS::CompositePowerComp</text>
<text text-anchor="middle" x="1098" y="-122" font-family="Helvetica,sans-Serif" font-size="10.00">&lt; Complex &gt;</text>
</a>
</g>
</g>
<!-- Node2&#45;&gt;Node1 -->
<g id="edge1" class="edge">
<title>Node2&#45;&gt;Node1</title>
<path fill="none" stroke="midnightblue" d="M1153.15,-111.59C1159.19,-109.42 1165.24,-107.19 1171,-105 1194.95,-95.88 1222.02,-84.5 1240.46,-76.59"/>
<polygon fill="midnightblue" stroke="midnightblue" points="1151.96,-108.3 1143.7,-114.94 1154.3,-114.89 1151.96,-108.3"/>
</g>
<!-- Node3 -->
<g id="node3" class="node">
<title>Node3</title>
<g id="a_node3"><a xlink:href="class_c_p_s_1_1_m_n_a_sim_power_comp.html" target="_top" xlink:title=" ">
<polygon fill="none" stroke="black" points="788.5,-139 788.5,-169 925.5,-169 925.5,-139 788.5,-139"/>
<text text-anchor="start" x="796.5" y="-157" font-family="Helvetica,sans-Serif" font-size="10.00">CPS::MNASimPowerComp</text>
<text text-anchor="middle" x="857" y="-146" font-family="Helvetica,sans-Serif" font-size="10.00">&lt; Complex &gt;</text>
</a>
</g>
</g>
<!-- Node3&#45;&gt;Node2 -->
<g id="edge2" class="edge">
<title>Node3&#45;&gt;Node2</title>
<path fill="none" stroke="midnightblue" d="M935.49,-146.22C964.13,-143.34 996.46,-140.1 1024.62,-137.27"/>
<polygon fill="midnightblue" stroke="midnightblue" points="935.13,-142.74 925.53,-147.22 935.83,-149.7 935.13,-142.74"/>
</g>
<!-- Node4 -->
<g id="node4" class="node">
<title>Node4</title>
<g id="a_node4"><a xlink:href="class_c_p_s_1_1_sim_power_comp.html" target="_top" xlink:title=" ">
<polygon fill="none" stroke="black" points="561,-161 561,-191 680,-191 680,-161 561,-161"/>
<text text-anchor="start" x="569" y="-179" font-family="Helvetica,sans-Serif" font-size="10.00">CPS::SimPowerComp&lt;</text>
<text text-anchor="middle" x="620.5" y="-168" font-family="Helvetica,sans-Serif" font-size="10.00"> Complex &gt;</text>
</a>
</g>
</g>
<!-- Node4&#45;&gt;Node3 -->
<g id="edge3" class="edge">
<title>Node4&#45;&gt;Node3</title>
<path fill="none" stroke="midnightblue" d="M690.31,-169.54C721.18,-166.65 757.47,-163.24 788.21,-160.36"/>
<polygon fill="midnightblue" stroke="midnightblue" points="689.7,-166.09 680.07,-170.51 690.35,-173.06 689.7,-166.09"/>
</g>
<!-- Node5 -->
<g id="node5" class="node">
<title>Node5</title>
<g id="a_node5"><a xlink:href="class_c_p_s_1_1_topological_power_comp.html" target="_top" xlink:title=" ">
<polygon fill="none" stroke="black" points="153,-160.5 153,-179.5 301,-179.5 301,-160.5 153,-160.5"/>
<text text-anchor="middle" x="227" y="-167.5" font-family="Helvetica,sans-Serif" font-size="10.00">CPS::TopologicalPowerComp</text>
</a>
</g>
</g>
<!-- Node5&#45;&gt;Node4 -->
<g id="edge4" class="edge">
<title>Node5&#45;&gt;Node4</title>
<path fill="none" stroke="midnightblue" d="M311.3,-173.88C372.82,-176.33 458.62,-178.88 534,-178 542.61,-177.9 551.71,-177.74 560.63,-177.56"/>
<polygon fill="midnightblue" stroke="midnightblue" points="311.39,-170.38 301.26,-173.47 311.11,-177.37 311.39,-170.38"/>
</g>
<!-- Node7 -->
<g id="node7" class="node">
<title>Node7</title>
<g id="a_node7"><a xlink:href="class_c_p_s_1_1_sim_power_comp.html" target="_top" xlink:title="Base class for all components that are transmitting power.">
<polygon fill="none" stroke="black" points="338,-133 338,-163 457,-163 457,-133 338,-133"/>
<text text-anchor="start" x="346" y="-151" font-family="Helvetica,sans-Serif" font-size="10.00">CPS::SimPowerComp&lt;</text>
<text text-anchor="middle" x="397.5" y="-140" font-family="Helvetica,sans-Serif" font-size="10.00"> VarType &gt;</text>
</a>
</g>
</g>
<!-- Node5&#45;&gt;Node7 -->
<g id="edge7" class="edge">
<title>Node5&#45;&gt;Node7</title>
<path fill="none" stroke="midnightblue" d="M311.12,-159.15C320.18,-157.97 329.25,-156.78 337.92,-155.65"/>
<polygon fill="midnightblue" stroke="midnightblue" points="310.39,-155.71 300.93,-160.48 311.3,-162.65 310.39,-155.71"/>
</g>
<!-- Node6 -->
<g id="node6" class="node">
<title>Node6</title>
<g id="a_node6"><a xlink:href="class_c_p_s_1_1_identified_object.html" target="_top" xlink:title=" ">
<polygon fill="none" stroke="black" points="0,-160.5 0,-179.5 116,-179.5 116,-160.5 0,-160.5"/>
<text text-anchor="middle" x="58" y="-167.5" font-family="Helvetica,sans-Serif" font-size="10.00">CPS::IdentifiedObject</text>
</a>
</g>
</g>
<!-- Node6&#45;&gt;Node5 -->
<g id="edge5" class="edge">
<title>Node6&#45;&gt;Node5</title>
<path fill="none" stroke="midnightblue" d="M126.13,-170C134.88,-170 143.88,-170 152.72,-170"/>
<polygon fill="midnightblue" stroke="midnightblue" points="126,-166.5 116,-170 126,-173.5 126,-166.5"/>
</g>
<!-- Node7&#45;&gt;Node4 -->
<g id="edge6" class="edge">
<title>Node7&#45;&gt;Node4</title>
<path fill="none" stroke="orange" stroke-dasharray="5,2" d="M467.14,-156.7C497.22,-160.51 532.14,-164.93 560.97,-168.58"/>
<polygon fill="orange" stroke="orange" points="467.5,-153.21 457.14,-155.43 466.62,-160.16 467.5,-153.21"/>
<text text-anchor="middle" x="504.5" y="-167" font-family="Helvetica,sans-Serif" font-size="10.00"> &lt; Complex &gt;</text>
</g>
<!-- Node9 -->
<g id="node9" class="node">
<title>Node9</title>
<g id="a_node9"><a xlink:href="class_c_p_s_1_1_m_n_a_sim_power_comp.html" target="_top" xlink:title="Base class for all MNA components that are transmitting power.">
<polygon fill="none" stroke="black" points="552,-112 552,-142 689,-142 689,-112 552,-112"/>
<text text-anchor="start" x="560" y="-130" font-family="Helvetica,sans-Serif" font-size="10.00">CPS::MNASimPowerComp</text>
<text text-anchor="middle" x="620.5" y="-119" font-family="Helvetica,sans-Serif" font-size="10.00">&lt; VarType &gt;</text>
</a>
</g>
</g>
<!-- Node7&#45;&gt;Node9 -->
<g id="edge10" class="edge">
<title>Node7&#45;&gt;Node9</title>
<path fill="none" stroke="midnightblue" d="M467.28,-141.46C494.25,-138.9 525.11,-135.97 551.97,-133.42"/>
<polygon fill="midnightblue" stroke="midnightblue" points="466.77,-138 457.14,-142.43 467.43,-144.97 466.77,-138"/>
</g>
<!-- Node8 -->
<g id="node8" class="node">
<title>Node8</title>
<g id="a_node8"><a xlink:href="class_c_p_s_1_1_m_n_a_interface.html" target="_top" xlink:title="Interface to be implemented by all models used by the MNA solver.">
<polygon fill="none" stroke="black" points="344,-84.5 344,-103.5 451,-103.5 451,-84.5 344,-84.5"/>
<text text-anchor="middle" x="397.5" y="-91.5" font-family="Helvetica,sans-Serif" font-size="10.00">CPS::MNAInterface</text>
</a>
</g>
</g>
<!-- Node8&#45;&gt;Node3 -->
<g id="edge8" class="edge">
<title>Node8&#45;&gt;Node3</title>
<path fill="none" stroke="midnightblue" d="M461.42,-91.17C520.58,-89.64 611.39,-90.18 689,-103 701.04,-104.99 763.99,-124.65 809.05,-138.96"/>
<polygon fill="midnightblue" stroke="midnightblue" points="461.02,-87.68 451.12,-91.47 461.22,-94.68 461.02,-87.68"/>
</g>
<!-- Node8&#45;&gt;Node9 -->
<g id="edge11" class="edge">
<title>Node8&#45;&gt;Node9</title>
<path fill="none" stroke="midnightblue" d="M461.31,-103.38C489.55,-107.6 522.94,-112.58 551.75,-116.88"/>
<polygon fill="midnightblue" stroke="midnightblue" points="461.56,-99.88 451.15,-101.86 460.53,-106.8 461.56,-99.88"/>
</g>
<!-- Node9&#45;&gt;Node3 -->
<g id="edge9" class="edge">
<title>Node9&#45;&gt;Node3</title>
<path fill="none" stroke="orange" stroke-dasharray="5,2" d="M699.04,-135.93C727.84,-139.24 760.28,-142.98 788.15,-146.19"/>
<polygon fill="orange" stroke="orange" points="699.35,-132.44 689.01,-134.77 698.55,-139.39 699.35,-132.44"/>
<text text-anchor="middle" x="736.5" y="-145" font-family="Helvetica,sans-Serif" font-size="10.00"> &lt; Complex &gt;</text>
</g>
<!-- Node10 -->
<g id="node10" class="node">
<title>Node10</title>
<g id="a_node10"><a xlink:href="class_c_p_s_1_1_composite_power_comp.html" target="_top" xlink:title="Base class for composite power components.">
<polygon fill="none" stroke="black" points="784,-90 784,-120 930,-120 930,-90 784,-90"/>
<text text-anchor="start" x="792" y="-108" font-family="Helvetica,sans-Serif" font-size="10.00">CPS::CompositePowerComp</text>
<text text-anchor="middle" x="857" y="-97" font-family="Helvetica,sans-Serif" font-size="10.00">&lt; VarType &gt;</text>
</a>
</g>
</g>
<!-- Node9&#45;&gt;Node10 -->
<g id="edge13" class="edge">
<title>Node9&#45;&gt;Node10</title>
<path fill="none" stroke="midnightblue" d="M699.27,-119.7C726.48,-117.15 756.9,-114.3 783.64,-111.79"/>
<polygon fill="midnightblue" stroke="midnightblue" points="698.64,-116.25 689.01,-120.67 699.3,-123.22 698.64,-116.25"/>
</g>
<!-- Node10&#45;&gt;Node2 -->
<g id="edge12" class="edge">
<title>Node10&#45;&gt;Node2</title>
<path fill="none" stroke="orange" stroke-dasharray="5,2" d="M940.02,-113.58C967.53,-116.46 997.99,-119.64 1024.7,-122.44"/>
<polygon fill="orange" stroke="orange" points="940.34,-110.09 930.03,-112.53 939.61,-117.06 940.34,-110.09"/>
<text text-anchor="middle" x="977.5" y="-123" font-family="Helvetica,sans-Serif" font-size="10.00"> &lt; Complex &gt;</text>
</g>
<!-- Node11 -->
<g id="node11" class="node">
<title>Node11</title>
<g id="a_node11"><a xlink:href="class_c_p_s_1_1_m_n_a_tear_interface.html" target="_top" xlink:title=" ">
<polygon fill="none" stroke="black" points="1035,-76.5 1035,-95.5 1161,-95.5 1161,-76.5 1035,-76.5"/>
<text text-anchor="middle" x="1098" y="-83.5" font-family="Helvetica,sans-Serif" font-size="10.00">CPS::MNATearInterface</text>
</a>
</g>
</g>
<!-- Node11&#45;&gt;Node1 -->
<g id="edge14" class="edge">
<title>Node11&#45;&gt;Node1</title>
<path fill="none" stroke="midnightblue" d="M1171.46,-77.58C1183.69,-76.16 1196.2,-74.7 1207.88,-73.35"/>
<polygon fill="midnightblue" stroke="midnightblue" points="1170.81,-74.13 1161.28,-78.76 1171.62,-81.08 1170.81,-74.13"/>
</g>
<!-- Node12 -->
<g id="node12" class="node">
<title>Node12</title>
<g id="a_node12"><a xlink:href="class_c_p_s_1_1_base_1_1_ph1_1_1_pi_line.html" target="_top" xlink:title=" ">
<polygon fill="none" stroke="black" points="1038,-38.5 1038,-57.5 1158,-57.5 1158,-38.5 1038,-38.5"/>
<text text-anchor="middle" x="1098" y="-45.5" font-family="Helvetica,sans-Serif" font-size="10.00">CPS::Base::Ph1::PiLine</text>
</a>
</g>
</g>
<!-- Node12&#45;&gt;Node1 -->
<g id="edge15" class="edge">
<title>Node12&#45;&gt;Node1</title>
<path fill="none" stroke="midnightblue" d="M1168.09,-56.03C1181.39,-57.57 1195.15,-59.17 1207.91,-60.66"/>
<polygon fill="midnightblue" stroke="midnightblue" points="1168.36,-52.54 1158.03,-54.86 1167.56,-59.49 1168.36,-52.54"/>
</g>
<!-- Node13 -->
<g id="node13" class="node">
<title>Node13</title>
<g id="a_node13"><a xlink:href="class_shared_factory.html" target="_top" xlink:title=" ">
<polygon fill="none" stroke="black" points="1034,-0.5 1034,-19.5 1162,-19.5 1162,-0.5 1034,-0.5"/>
<text text-anchor="middle" x="1098" y="-7.5" font-family="Helvetica,sans-Serif" font-size="10.00">SharedFactory&lt; PiLine &gt;</text>
</a>
</g>
</g>
<!-- Node13&#45;&gt;Node1 -->
<g id="edge16" class="edge">
<title>Node13&#45;&gt;Node1</title>
<path fill="none" stroke="midnightblue" d="M1148.95,-22.24C1156.39,-24.33 1163.93,-26.61 1171,-29 1195.77,-37.37 1223.38,-49.2 1241.73,-57.42"/>
<polygon fill="midnightblue" stroke="midnightblue" points="1149.84,-18.86 1139.27,-19.6 1148,-25.61 1149.84,-18.86"/>
</g>
<!-- Node14 -->
<g id="node14" class="node">
<title>Node14</title>
<g id="a_node14"><a xlink:href="class_shared_factory.html" target="_top" xlink:title=" ">
<polygon fill="none" stroke="black" points="804.5,-0.5 804.5,-19.5 909.5,-19.5 909.5,-0.5 804.5,-0.5"/>
<text text-anchor="middle" x="857" y="-7.5" font-family="Helvetica,sans-Serif" font-size="10.00">SharedFactory&lt; T &gt;</text>
</a>
</g>
</g>
<!-- Node14&#45;&gt;Node13 -->
<g id="edge17" class="edge">
<title>Node14&#45;&gt;Node13</title>
<path fill="none" stroke="orange" stroke-dasharray="5,2" d="M919.65,-10C954.64,-10 998.34,-10 1033.61,-10"/>
<polygon fill="orange" stroke="orange" points="919.57,-6.5 909.57,-10 919.57,-13.5 919.57,-6.5"/>
<text text-anchor="middle" x="977.5" y="-13" font-family="Helvetica,sans-Serif" font-size="10.00"> &lt; PiLine &gt;</text>
</g>
</g>
</svg>
