<?xml version="1.0" encoding="UTF-8" standalone="no"?>
<!DOCTYPE svg PUBLIC "-//W3C//DTD SVG 1.1//EN"
 "http://www.w3.org/Graphics/SVG/1.1/DTD/svg11.dtd">
<!-- Generated by graphviz version 12.2.1 (20241206.2353)
 -->
<!-- Title: CPS::DP::ITypeSSNComp Pages: 1 -->
<svg width="1585pt" height="178pt"
 viewBox="0.00 0.00 1585.25 178.38" xmlns="http://www.w3.org/2000/svg" xmlns:xlink="http://www.w3.org/1999/xlink">
<g id="graph0" class="graph" transform="scale(1 1) rotate(0) translate(4 174.38)">
<title>CPS::DP::ITypeSSNComp</title>
<!-- Node1 -->
<g id="Node000001" class="node">
<title>Node1</title>
<g id="a_Node000001"><a xlink:title="Abstract base for DP I&#45;type SSN components (input current, output voltage).">
<polygon fill="#999999" stroke="#666666" points="1223.75,-125.38 1093.75,-125.38 1093.75,-103.12 1223.75,-103.12 1223.75,-125.38"/>
<text text-anchor="middle" x="1158.75" y="-111.88" font-family="Helvetica,sans-Serif" font-size="10.00">CPS::DP::ITypeSSNComp</text>
</a>
</g>
</g>
<!-- Node11 -->
<g id="Node000011" class="node">
<title>Node11</title>
<g id="a_Node000011"><a xlink:href="class_c_p_s_1_1_d_p_1_1_ph1_1_1_two_terminal_i_type_s_s_n_comp.html" target="_top" xlink:title="Single&#45;phase, two&#45;terminal I&#45;type SSN stamping layer.">
<polygon fill="white" stroke="#666666" points="1402,-160.5 1260.75,-160.5 1260.75,-124 1402,-124 1402,-160.5"/>
<text text-anchor="start" x="1268.75" y="-147" font-family="Helvetica,sans-Serif" font-size="10.00">CPS::DP::Ph1::TwoTerminal</text>
<text text-anchor="middle" x="1331.38" y="-132.75" font-family="Helvetica,sans-Serif" font-size="10.00">ITypeSSNComp</text>
</a>
</g>
</g>
<!-- Node1&#45;&gt;Node11 -->
<g id="edge13_Node000001_Node000011" class="edge">
<title>Node1&#45;&gt;Node11</title>
<g id="a_edge13_Node000001_Node000011"><a xlink:title=" ">
<path fill="none" stroke="#63b8ff" d="M1235.08,-126.61C1243.46,-127.99 1251.97,-129.38 1260.28,-130.75"/>
<polygon fill="#63b8ff" stroke="#63b8ff" points="1235.7,-123.17 1225.26,-125 1234.56,-130.07 1235.7,-123.17"/>
</a>
</g>
</g>
<!-- Node13 -->
<g id="Node000013" class="node">
<title>Node13</title>
<g id="a_Node000013"><a xlink:href="class_c_p_s_1_1_d_p_1_1_ph3_1_1_two_terminal_i_type_s_s_n_comp.html" target="_top" xlink:title="Three&#45;phase, two&#45;terminal I&#45;type SSN stamping layer.">
<polygon fill="white" stroke="#666666" points="1402,-105.5 1260.75,-105.5 1260.75,-69 1402,-69 1402,-105.5"/>
<text text-anchor="start" x="1268.75" y="-92" font-family="Helvetica,sans-Serif" font-size="10.00">CPS::DP::Ph3::TwoTerminal</text>
<text text-anchor="middle" x="1331.38" y="-77.75" font-family="Helvetica,sans-Serif" font-size="10.00">ITypeSSNComp</text>
</a>
</g>
</g>
<!-- Node1&#45;&gt;Node13 -->
<g id="edge15_Node000001_Node000013" class="edge">
<title>Node1&#45;&gt;Node13</title>
<g id="a_edge15_Node000001_Node000013"><a xlink:title=" ">
<path fill="none" stroke="#63b8ff" d="M1235.08,-102.33C1243.46,-101 1251.97,-99.66 1260.28,-98.34"/>
<polygon fill="#63b8ff" stroke="#63b8ff" points="1234.59,-98.86 1225.26,-103.88 1235.69,-105.78 1234.59,-98.86"/>
</a>
</g>
</g>
<!-- Node2 -->
<g id="Node000002" class="node">
<title>Node2</title>
<g id="a_Node000002"><a xlink:href="class_c_p_s_1_1_d_p_1_1_s_s_n_comp.html" target="_top" xlink:title="Abstract base class for DP/SFA state&#45;space nodal (SSN) components.">
<polygon fill="white" stroke="#666666" points="1056.75,-125.38 953,-125.38 953,-103.12 1056.75,-103.12 1056.75,-125.38"/>
<text text-anchor="middle" x="1004.88" y="-111.88" font-family="Helvetica,sans-Serif" font-size="10.00">CPS::DP::SSNComp</text>
</a>
</g>
</g>
<!-- Node2&#45;&gt;Node1 -->
<g id="edge1_Node000001_Node000002" class="edge">
<title>Node2&#45;&gt;Node1</title>
<g id="a_edge1_Node000001_Node000002"><a xlink:title=" ">
<path fill="none" stroke="#63b8ff" d="M1068.36,-114.25C1076.63,-114.25 1085.11,-114.25 1093.4,-114.25"/>
<polygon fill="#63b8ff" stroke="#63b8ff" points="1068.38,-110.75 1058.38,-114.25 1068.38,-117.75 1068.38,-110.75"/>
</a>
</g>
</g>
<!-- Node3 -->
<g id="Node000003" class="node">
<title>Node3</title>
<g id="a_Node000003"><a xlink:href="class_c_p_s_1_1_m_n_a_sim_power_comp.html" target="_top" xlink:title=" ">
<polygon fill="white" stroke="#666666" points="916,-132.5 780,-132.5 780,-96 916,-96 916,-132.5"/>
<text text-anchor="start" x="788" y="-119" font-family="Helvetica,sans-Serif" font-size="10.00">CPS::MNASimPowerComp</text>
<text text-anchor="middle" x="848" y="-104.75" font-family="Helvetica,sans-Serif" font-size="10.00">&lt; Complex &gt;</text>
</a>
</g>
</g>
<!-- Node3&#45;&gt;Node2 -->
<g id="edge2_Node000002_Node000003" class="edge">
<title>Node3&#45;&gt;Node2</title>
<g id="a_edge2_Node000002_Node000003"><a xlink:title=" ">
<path fill="none" stroke="#63b8ff" d="M927.71,-114.25C936.28,-114.25 944.82,-114.25 952.93,-114.25"/>
<polygon fill="#63b8ff" stroke="#63b8ff" points="927.99,-110.75 917.99,-114.25 927.99,-117.75 927.99,-110.75"/>
</a>
</g>
</g>
<!-- Node4 -->
<g id="Node000004" class="node">
<title>Node4</title>
<g id="a_Node000004"><a xlink:href="class_c_p_s_1_1_sim_power_comp.html" target="_top" xlink:title=" ">
<polygon fill="white" stroke="#666666" points="676.88,-77.5 558.12,-77.5 558.12,-41 676.88,-41 676.88,-77.5"/>
<text text-anchor="start" x="566.12" y="-64" font-family="Helvetica,sans-Serif" font-size="10.00">CPS::SimPowerComp&lt;</text>
<text text-anchor="middle" x="617.5" y="-49.75" font-family="Helvetica,sans-Serif" font-size="10.00"> Complex &gt;</text>
</a>
</g>
</g>
<!-- Node4&#45;&gt;Node3 -->
<g id="edge3_Node000003_Node000004" class="edge">
<title>Node4&#45;&gt;Node3</title>
<g id="a_edge3_Node000003_Node000004"><a xlink:title=" ">
<path fill="none" stroke="#63b8ff" d="M688.26,-76.04C717.37,-83.05 751.04,-91.15 779.87,-98.09"/>
<polygon fill="#63b8ff" stroke="#63b8ff" points="689.36,-72.71 678.82,-73.77 687.72,-79.51 689.36,-72.71"/>
</a>
</g>
</g>
<!-- Node5 -->
<g id="Node000005" class="node">
<title>Node5</title>
<g id="a_Node000005"><a xlink:href="class_c_p_s_1_1_topological_power_comp.html" target="_top" xlink:title=" ">
<polygon fill="white" stroke="#666666" points="299.25,-75.38 152,-75.38 152,-53.12 299.25,-53.12 299.25,-75.38"/>
<text text-anchor="middle" x="225.62" y="-61.88" font-family="Helvetica,sans-Serif" font-size="10.00">CPS::TopologicalPowerComp</text>
</a>
</g>
</g>
<!-- Node5&#45;&gt;Node4 -->
<g id="edge4_Node000004_Node000005" class="edge">
<title>Node5&#45;&gt;Node4</title>
<g id="a_edge4_Node000004_Node000005"><a xlink:title=" ">
<path fill="none" stroke="#63b8ff" d="M310.7,-63.17C385.18,-62.22 491.99,-60.85 557.67,-60"/>
<polygon fill="#63b8ff" stroke="#63b8ff" points="310.97,-59.67 301.01,-63.3 311.06,-66.67 310.97,-59.67"/>
</a>
</g>
</g>
<!-- Node7 -->
<g id="Node000007" class="node">
<title>Node7</title>
<g id="a_Node000007"><a xlink:href="class_c_p_s_1_1_sim_power_comp.html" target="_top" xlink:title="Base class for all components that are transmitting power.">
<polygon fill="white" stroke="#666666" points="455,-36.5 336.25,-36.5 336.25,0 455,0 455,-36.5"/>
<text text-anchor="start" x="344.25" y="-23" font-family="Helvetica,sans-Serif" font-size="10.00">CPS::SimPowerComp&lt;</text>
<text text-anchor="middle" x="395.62" y="-8.75" font-family="Helvetica,sans-Serif" font-size="10.00"> VarType &gt;</text>
</a>
</g>
</g>
<!-- Node5&#45;&gt;Node7 -->
<g id="edge7_Node000007_Node000005" class="edge">
<title>Node5&#45;&gt;Node7</title>
<g id="a_edge7_Node000007_Node000005"><a xlink:title=" ">
<path fill="none" stroke="#63b8ff" d="M280.1,-49.61C297.92,-44.73 317.87,-39.27 336.07,-34.28"/>
<polygon fill="#63b8ff" stroke="#63b8ff" points="279.2,-46.23 270.48,-52.24 281.05,-52.98 279.2,-46.23"/>
</a>
</g>
</g>
<!-- Node10 -->
<g id="Node000010" class="node">
<title>Node10</title>
<g id="a_Node000010"><a xlink:href="class_c_p_s_1_1_sim_power_comp.html" target="_top" xlink:title="Base class for all components that are transmitting power.">
<polygon fill="white" stroke="#666666" points="455,-128.5 336.25,-128.5 336.25,-92 455,-92 455,-128.5"/>
<text text-anchor="start" x="344.25" y="-115" font-family="Helvetica,sans-Serif" font-size="10.00">CPS::SimPowerComp&lt;</text>
<text text-anchor="middle" x="395.62" y="-100.75" font-family="Helvetica,sans-Serif" font-size="10.00"> VarType &gt;</text>
</a>
</g>
</g>
<!-- Node5&#45;&gt;Node10 -->
<g id="edge11_Node000010_Node000005" class="edge">
<title>Node5&#45;&gt;Node10</title>
<g id="a_edge11_Node000010_Node000005"><a xlink:title=" ">
<path fill="none" stroke="#63b8ff" d="M280.1,-78.89C297.92,-83.77 317.87,-89.23 336.07,-94.22"/>
<polygon fill="#63b8ff" stroke="#63b8ff" points="281.05,-75.52 270.48,-76.26 279.2,-82.27 281.05,-75.52"/>
</a>
</g>
</g>
<!-- Node6 -->
<g id="Node000006" class="node">
<title>Node6</title>
<g id="a_Node000006"><a xlink:href="class_c_p_s_1_1_identified_object.html" target="_top" xlink:title=" ">
<polygon fill="white" stroke="#666666" points="115,-75.38 0,-75.38 0,-53.12 115,-53.12 115,-75.38"/>
<text text-anchor="middle" x="57.5" y="-61.88" font-family="Helvetica,sans-Serif" font-size="10.00">CPS::IdentifiedObject</text>
</a>
</g>
</g>
<!-- Node6&#45;&gt;Node5 -->
<g id="edge5_Node000005_Node000006" class="edge">
<title>Node6&#45;&gt;Node5</title>
<g id="a_edge5_Node000005_Node000006"><a xlink:title=" ">
<path fill="none" stroke="#63b8ff" d="M126.7,-64.25C134.95,-64.25 143.41,-64.25 151.73,-64.25"/>
<polygon fill="#63b8ff" stroke="#63b8ff" points="126.72,-60.75 116.72,-64.25 126.72,-67.75 126.72,-60.75"/>
</a>
</g>
</g>
<!-- Node7&#45;&gt;Node4 -->
<g id="edge6_Node000004_Node000007" class="edge">
<title>Node7&#45;&gt;Node4</title>
<g id="a_edge6_Node000004_Node000007"><a xlink:title=" ">
<path fill="none" stroke="orange" stroke-dasharray="5,2" d="M466.73,-25.64C487.66,-28.34 510.6,-31.79 531.5,-36 540.05,-37.72 549,-39.83 557.76,-42.07"/>
<polygon fill="orange" stroke="orange" points="467.19,-22.17 456.84,-24.4 466.32,-29.11 467.19,-22.17"/>
</a>
</g>
<text text-anchor="middle" x="502.25" y="-40.75" font-family="Helvetica,sans-Serif" font-size="10.00" fill="grey"> &lt; Complex &gt;</text>
</g>
<!-- Node8 -->
<g id="Node000008" class="node">
<title>Node8</title>
<g id="a_Node000008"><a xlink:href="class_c_p_s_1_1_m_n_a_interface.html" target="_top" xlink:title="Interface to be implemented by all models used by the MNA solver.">
<polygon fill="white" stroke="#666666" points="448.62,-170.38 342.62,-170.38 342.62,-148.12 448.62,-148.12 448.62,-170.38"/>
<text text-anchor="middle" x="395.62" y="-156.88" font-family="Helvetica,sans-Serif" font-size="10.00">CPS::MNAInterface</text>
</a>
</g>
</g>
<!-- Node8&#45;&gt;Node3 -->
<g id="edge8_Node000003_Node000008" class="edge">
<title>Node8&#45;&gt;Node3</title>
<g id="a_edge8_Node000003_Node000008"><a xlink:title=" ">
<path fill="none" stroke="#63b8ff" d="M460.31,-157.98C533.54,-155.72 657.14,-149.48 762,-132.25 767.8,-131.3 773.81,-130.21 779.83,-129.07"/>
<polygon fill="#63b8ff" stroke="#63b8ff" points="460.41,-154.47 450.52,-158.26 460.62,-161.47 460.41,-154.47"/>
</a>
</g>
</g>
<!-- Node9 -->
<g id="Node000009" class="node">
<title>Node9</title>
<g id="a_Node000009"><a xlink:href="class_c_p_s_1_1_m_n_a_sim_power_comp.html" target="_top" xlink:title="Base class for all MNA components that are transmitting power.">
<polygon fill="white" stroke="#666666" points="685.5,-132.5 549.5,-132.5 549.5,-96 685.5,-96 685.5,-132.5"/>
<text text-anchor="start" x="557.5" y="-119" font-family="Helvetica,sans-Serif" font-size="10.00">CPS::MNASimPowerComp</text>
<text text-anchor="middle" x="617.5" y="-104.75" font-family="Helvetica,sans-Serif" font-size="10.00">&lt; VarType &gt;</text>
</a>
</g>
</g>
<!-- Node8&#45;&gt;Node9 -->
<g id="edge12_Node000009_Node000008" class="edge">
<title>Node8&#45;&gt;Node9</title>
<g id="a_edge12_Node000009_Node000008"><a xlink:title=" ">
<path fill="none" stroke="#63b8ff" d="M460.23,-146.23C488.09,-140.53 520.81,-133.83 549.09,-128.05"/>
<polygon fill="#63b8ff" stroke="#63b8ff" points="459.59,-142.79 450.49,-148.23 460.99,-149.65 459.59,-142.79"/>
</a>
</g>
</g>
<!-- Node9&#45;&gt;Node3 -->
<g id="edge9_Node000003_Node000009" class="edge">
<title>Node9&#45;&gt;Node3</title>
<g id="a_edge9_Node000003_Node000009"><a xlink:title=" ">
<path fill="none" stroke="orange" stroke-dasharray="5,2" d="M697.15,-114.25C724.04,-114.25 753.86,-114.25 779.77,-114.25"/>
<polygon fill="orange" stroke="orange" points="697.34,-110.75 687.34,-114.25 697.34,-117.75 697.34,-110.75"/>
</a>
</g>
<text text-anchor="middle" x="732.75" y="-119" font-family="Helvetica,sans-Serif" font-size="10.00" fill="grey"> &lt; Complex &gt;</text>
</g>
<!-- Node10&#45;&gt;Node9 -->
<g id="edge10_Node000009_Node000010" class="edge">
<title>Node10&#45;&gt;Node9</title>
<g id="a_edge10_Node000009_Node000010"><a xlink:title=" ">
<path fill="none" stroke="#63b8ff" d="M466.71,-111.52C493.07,-112 522.97,-112.55 549.08,-113.02"/>
<polygon fill="#63b8ff" stroke="#63b8ff" points="466.83,-108.03 456.77,-111.34 466.71,-115.03 466.83,-108.03"/>
</a>
</g>
</g>
<!-- Node12 -->
<g id="Node000012" class="node">
<title>Node12</title>
<g id="a_Node000012"><a xlink:href="class_c_p_s_1_1_d_p_1_1_ph1_1_1_generic_two_terminal_i_type_s_s_n.html" target="_top" xlink:title="Generic single&#45;phase, two&#45;terminal I&#45;type SSN component.">
<polygon fill="white" stroke="#666666" points="1577.25,-160.5 1439,-160.5 1439,-124 1577.25,-124 1577.25,-160.5"/>
<text text-anchor="start" x="1447" y="-147" font-family="Helvetica,sans-Serif" font-size="10.00">CPS::DP::Ph1::GenericTwo</text>
<text text-anchor="middle" x="1508.12" y="-132.75" font-family="Helvetica,sans-Serif" font-size="10.00">TerminalITypeSSN</text>
</a>
</g>
</g>
<!-- Node11&#45;&gt;Node12 -->
<g id="edge14_Node000011_Node000012" class="edge">
<title>Node11&#45;&gt;Node12</title>
<g id="a_edge14_Node000011_Node000012"><a xlink:title=" ">
<path fill="none" stroke="#63b8ff" d="M1413.77,-142.25C1422.12,-142.25 1430.55,-142.25 1438.74,-142.25"/>
<polygon fill="#63b8ff" stroke="#63b8ff" points="1413.96,-138.75 1403.96,-142.25 1413.96,-145.75 1413.96,-138.75"/>
</a>
</g>
</g>
<!-- Node14 -->
<g id="Node000014" class="node">
<title>Node14</title>
<g id="a_Node000014"><a xlink:href="class_c_p_s_1_1_d_p_1_1_ph3_1_1_generic_two_terminal_i_type_s_s_n.html" target="_top" xlink:title="Generic three&#45;phase, two&#45;terminal I&#45;type SSN component.">
<polygon fill="white" stroke="#666666" points="1577.25,-105.5 1439,-105.5 1439,-69 1577.25,-69 1577.25,-105.5"/>
<text text-anchor="start" x="1447" y="-92" font-family="Helvetica,sans-Serif" font-size="10.00">CPS::DP::Ph3::GenericTwo</text>
<text text-anchor="middle" x="1508.12" y="-77.75" font-family="Helvetica,sans-Serif" font-size="10.00">TerminalITypeSSN</text>
</a>
</g>
</g>
<!-- Node13&#45;&gt;Node14 -->
<g id="edge16_Node000013_Node000014" class="edge">
<title>Node13&#45;&gt;Node14</title>
<g id="a_edge16_Node000013_Node000014"><a xlink:title=" ">
<path fill="none" stroke="#63b8ff" d="M1413.77,-87.25C1422.12,-87.25 1430.55,-87.25 1438.74,-87.25"/>
<polygon fill="#63b8ff" stroke="#63b8ff" points="1413.96,-83.75 1403.96,-87.25 1413.96,-90.75 1413.96,-83.75"/>
</a>
</g>
</g>
</g>
</svg>
