<?xml version="1.0" encoding="UTF-8" standalone="no"?>
<!DOCTYPE svg PUBLIC "-//W3C//DTD SVG 1.1//EN"
 "http://www.w3.org/Graphics/SVG/1.1/DTD/svg11.dtd">
<!-- Generated by graphviz version 2.42.4 (0)
 -->
<!-- Title: CPS::EMT::Ph3::RXLoad Pages: 1 -->
<svg width="1695pt" height="431pt"
 viewBox="0.00 0.00 1695.00 431.00" xmlns="http://www.w3.org/2000/svg" xmlns:xlink="http://www.w3.org/1999/xlink">
<g id="graph0" class="graph" transform="scale(1 1) rotate(0) translate(4 427)">
<title>CPS::EMT::Ph3::RXLoad</title>
<!-- Node1 -->
<g id="node1" class="node">
<title>Node1</title>
<g id="a_node1"><a xlink:title="TODO: currently modelled as an impedance, which obviously doesn&#39;t have a constant power characteristi...">
<polygon fill="#bfbfbf" stroke="black" points="1559,-100.5 1559,-119.5 1687,-119.5 1687,-100.5 1559,-100.5"/>
<text text-anchor="middle" x="1623" y="-107.5" font-family="Helvetica,sans-Serif" font-size="10.00">CPS::EMT::Ph3::RXLoad</text>
</a>
</g>
</g>
<!-- Node2 -->
<g id="node2" class="node">
<title>Node2</title>
<g id="a_node2"><a xlink:href="class_c_p_s_1_1_sim_power_comp.html" target="_top" xlink:title=" ">
<polygon fill="none" stroke="black" points="1395,-95 1395,-125 1522,-125 1522,-95 1395,-95"/>
<text text-anchor="start" x="1403" y="-113" font-family="Helvetica,sans-Serif" font-size="10.00">CPS::SimPowerComp&lt;</text>
<text text-anchor="middle" x="1458.5" y="-102" font-family="Helvetica,sans-Serif" font-size="10.00"> Real &gt;</text>
</a>
</g>
</g>
<!-- Node2&#45;&gt;Node1 -->
<g id="edge1" class="edge">
<title>Node2&#45;&gt;Node1</title>
<path fill="none" stroke="midnightblue" d="M1532.53,-110C1541.3,-110 1550.19,-110 1558.8,-110"/>
<polygon fill="midnightblue" stroke="midnightblue" points="1532.33,-106.5 1522.33,-110 1532.33,-113.5 1532.33,-106.5"/>
</g>
<!-- Node3 -->
<g id="node3" class="node">
<title>Node3</title>
<g id="a_node3"><a xlink:href="class_c_p_s_1_1_topological_power_comp.html" target="_top" xlink:title=" ">
<polygon fill="none" stroke="black" points="797,-28.5 797,-47.5 952,-47.5 952,-28.5 797,-28.5"/>
<text text-anchor="middle" x="874.5" y="-35.5" font-family="Helvetica,sans-Serif" font-size="10.00">CPS::TopologicalPowerComp</text>
</a>
</g>
</g>
<!-- Node3&#45;&gt;Node2 -->
<g id="edge2" class="edge">
<title>Node3&#45;&gt;Node2</title>
<path fill="none" stroke="midnightblue" d="M962.31,-38.7C1045.14,-40.46 1173.23,-46.02 1283,-63 1327.8,-69.93 1377.63,-84.01 1412.53,-94.96"/>
<polygon fill="midnightblue" stroke="midnightblue" points="962.25,-35.2 952.18,-38.5 962.11,-42.2 962.25,-35.2"/>
</g>
<!-- Node19 -->
<g id="node19" class="node">
<title>Node19</title>
<g id="a_node19"><a xlink:href="class_c_p_s_1_1_sim_power_comp.html" target="_top" xlink:title="Base class for all components that are transmitting power.">
<polygon fill="none" stroke="black" points="1146.5,-72 1146.5,-102 1273.5,-102 1273.5,-72 1146.5,-72"/>
<text text-anchor="start" x="1154.5" y="-90" font-family="Helvetica,sans-Serif" font-size="10.00">CPS::SimPowerComp&lt;</text>
<text text-anchor="middle" x="1210" y="-79" font-family="Helvetica,sans-Serif" font-size="10.00"> VarType &gt;</text>
</a>
</g>
</g>
<!-- Node3&#45;&gt;Node19 -->
<g id="edge26" class="edge">
<title>Node3&#45;&gt;Node19</title>
<path fill="none" stroke="midnightblue" d="M950.22,-48.98C1009.29,-57.66 1090.8,-69.63 1146.46,-77.81"/>
<polygon fill="midnightblue" stroke="midnightblue" points="950.6,-45.5 940.2,-47.51 949.58,-52.42 950.6,-45.5"/>
</g>
<!-- Node4 -->
<g id="node4" class="node">
<title>Node4</title>
<g id="a_node4"><a xlink:href="class_c_p_s_1_1_identified_object.html" target="_top" xlink:title=" ">
<polygon fill="none" stroke="black" points="138,-57.5 138,-76.5 257,-76.5 257,-57.5 138,-57.5"/>
<text text-anchor="middle" x="197.5" y="-64.5" font-family="Helvetica,sans-Serif" font-size="10.00">CPS::IdentifiedObject</text>
</a>
</g>
</g>
<!-- Node4&#45;&gt;Node3 -->
<g id="edge3" class="edge">
<title>Node4&#45;&gt;Node3</title>
<path fill="none" stroke="midnightblue" d="M267.59,-64.03C394.62,-58.57 664.37,-46.98 796.84,-41.29"/>
<polygon fill="midnightblue" stroke="midnightblue" points="267.06,-60.55 257.22,-64.48 267.36,-67.54 267.06,-60.55"/>
</g>
<!-- Node7 -->
<g id="node7" class="node">
<title>Node7</title>
<g id="a_node7"><a xlink:href="class_c_p_s_1_1_topological_terminal.html" target="_top" xlink:title=" ">
<polygon fill="none" stroke="black" points="451,-266.5 451,-285.5 589,-285.5 589,-266.5 451,-266.5"/>
<text text-anchor="middle" x="520" y="-273.5" font-family="Helvetica,sans-Serif" font-size="10.00">CPS::TopologicalTerminal</text>
</a>
</g>
</g>
<!-- Node4&#45;&gt;Node7 -->
<g id="edge7" class="edge">
<title>Node4&#45;&gt;Node7</title>
<path fill="none" stroke="midnightblue" d="M234.09,-80.27C290.18,-101.79 395.63,-144.81 423,-174 437.73,-189.71 427.79,-201.98 441,-219 457.15,-239.8 482.83,-256.53 500.27,-266.35"/>
<polygon fill="midnightblue" stroke="midnightblue" points="235.13,-76.93 224.54,-76.64 232.64,-83.47 235.13,-76.93"/>
</g>
<!-- Node13 -->
<g id="node13" class="node">
<title>Node13</title>
<g id="a_node13"><a xlink:href="class_c_p_s_1_1_topological_node.html" target="_top" xlink:title=" ">
<polygon fill="none" stroke="black" points="459,-80.5 459,-99.5 581,-99.5 581,-80.5 459,-80.5"/>
<text text-anchor="middle" x="520" y="-87.5" font-family="Helvetica,sans-Serif" font-size="10.00">CPS::TopologicalNode</text>
</a>
</g>
</g>
<!-- Node4&#45;&gt;Node13 -->
<g id="edge16" class="edge">
<title>Node4&#45;&gt;Node13</title>
<path fill="none" stroke="midnightblue" d="M267.29,-71.94C324.3,-76.03 404.51,-81.78 458.96,-85.69"/>
<polygon fill="midnightblue" stroke="midnightblue" points="267.51,-68.44 257.28,-71.22 267.01,-75.43 267.51,-68.44"/>
</g>
<!-- Node5 -->
<g id="node5" class="node">
<title>Node5</title>
<g id="a_node5"><a xlink:href="class_c_p_s_1_1_attribute_list.html" target="_top" xlink:title="Base class of objects having attributes to access member variables.">
<polygon fill="none" stroke="black" points="0,-25.5 0,-44.5 101,-44.5 101,-25.5 0,-25.5"/>
<text text-anchor="middle" x="50.5" y="-32.5" font-family="Helvetica,sans-Serif" font-size="10.00">CPS::AttributeList</text>
</a>
</g>
</g>
<!-- Node5&#45;&gt;Node4 -->
<g id="edge4" class="edge">
<title>Node5&#45;&gt;Node4</title>
<path fill="none" stroke="midnightblue" d="M104.41,-46.68C120.48,-50.22 137.95,-54.08 153.3,-57.47"/>
<polygon fill="midnightblue" stroke="midnightblue" points="105.13,-43.25 94.61,-44.51 103.62,-50.09 105.13,-43.25"/>
</g>
<!-- Node20 -->
<g id="node20" class="node">
<title>Node20</title>
<g id="a_node20"><a xlink:href="class_c_p_s_1_1_m_n_a_interface.html" target="_top" xlink:title="Interface to be implemented by all models used by the MNA solver.">
<polygon fill="none" stroke="black" points="295,-2.5 295,-21.5 403,-21.5 403,-2.5 295,-2.5"/>
<text text-anchor="middle" x="349" y="-9.5" font-family="Helvetica,sans-Serif" font-size="10.00">CPS::MNAInterface</text>
</a>
</g>
</g>
<!-- Node5&#45;&gt;Node20 -->
<g id="edge28" class="edge">
<title>Node5&#45;&gt;Node20</title>
<path fill="none" stroke="midnightblue" d="M111.21,-30.37C165,-26.2 243.33,-20.12 294.95,-16.11"/>
<polygon fill="midnightblue" stroke="midnightblue" points="110.83,-26.89 101.13,-31.15 111.37,-33.87 110.83,-26.89"/>
</g>
<!-- Node6 -->
<g id="node6" class="node">
<title>Node6</title>
<g id="a_node6"><a xlink:href="class_c_p_s_1_1_sim_terminal.html" target="_top" xlink:title=" ">
<polygon fill="none" stroke="black" points="1137,-278.5 1137,-297.5 1283,-297.5 1283,-278.5 1137,-278.5"/>
<text text-anchor="middle" x="1210" y="-285.5" font-family="Helvetica,sans-Serif" font-size="10.00">CPS::SimTerminal&lt; Real &gt;</text>
</a>
</g>
</g>
<!-- Node6&#45;&gt;Node2 -->
<g id="edge5" class="edge">
<title>Node6&#45;&gt;Node2</title>
<path fill="none" stroke="#9a32cd" stroke-dasharray="5,2" d="M1232.48,-272.49C1279.3,-238.68 1390.11,-158.66 1436.5,-125.16"/>
<polygon fill="#9a32cd" stroke="#9a32cd" points="1230.31,-269.74 1224.25,-278.43 1234.41,-275.41 1230.31,-269.74"/>
<text text-anchor="middle" x="1339" y="-223" font-family="Helvetica,sans-Serif" font-size="10.00"> mTerminals</text>
</g>
<!-- Node7&#45;&gt;Node6 -->
<g id="edge6" class="edge">
<title>Node7&#45;&gt;Node6</title>
<path fill="none" stroke="midnightblue" d="M599.39,-277.37C733.91,-279.71 1006.76,-284.47 1136.85,-286.74"/>
<polygon fill="midnightblue" stroke="midnightblue" points="599.23,-273.86 589.17,-277.19 599.1,-280.86 599.23,-273.86"/>
</g>
<!-- Node10 -->
<g id="node10" class="node">
<title>Node10</title>
<g id="a_node10"><a xlink:href="class_c_p_s_1_1_sim_terminal.html" target="_top" xlink:title=" ">
<polygon fill="none" stroke="black" points="793,-298.5 793,-317.5 956,-317.5 956,-298.5 793,-298.5"/>
<text text-anchor="middle" x="874.5" y="-305.5" font-family="Helvetica,sans-Serif" font-size="10.00">CPS::SimTerminal&lt; VarType &gt;</text>
</a>
</g>
</g>
<!-- Node7&#45;&gt;Node10 -->
<g id="edge11" class="edge">
<title>Node7&#45;&gt;Node10</title>
<path fill="none" stroke="midnightblue" d="M599.52,-283.13C657.07,-288.35 734.94,-295.42 792.96,-300.69"/>
<polygon fill="midnightblue" stroke="midnightblue" points="599.66,-279.63 589.38,-282.21 599.03,-286.6 599.66,-279.63"/>
</g>
<!-- Node8 -->
<g id="node8" class="node">
<title>Node8</title>
<g id="a_node8"><a xlink:href="class_shared_factory.html" target="_top" xlink:title=" ">
<polygon fill="none" stroke="black" points="617,-343 617,-373 775,-373 775,-343 617,-343"/>
<text text-anchor="start" x="625" y="-361" font-family="Helvetica,sans-Serif" font-size="10.00">SharedFactory&lt; SimTerminal</text>
<text text-anchor="middle" x="696" y="-350" font-family="Helvetica,sans-Serif" font-size="10.00">&lt; Real &gt; &gt;</text>
</a>
</g>
</g>
<!-- Node8&#45;&gt;Node6 -->
<g id="edge8" class="edge">
<title>Node8&#45;&gt;Node6</title>
<path fill="none" stroke="midnightblue" d="M785.38,-354.93C871.34,-350.66 1005.24,-340.57 1119,-317 1141.5,-312.34 1166.31,-304.1 1184.17,-297.6"/>
<polygon fill="midnightblue" stroke="midnightblue" points="784.96,-351.45 775.14,-355.43 785.3,-358.44 784.96,-351.45"/>
</g>
<!-- Node9 -->
<g id="node9" class="node">
<title>Node9</title>
<g id="a_node9"><a xlink:href="class_shared_factory.html" target="_top" xlink:title=" ">
<polygon fill="none" stroke="black" points="140.5,-310.5 140.5,-329.5 254.5,-329.5 254.5,-310.5 140.5,-310.5"/>
<text text-anchor="middle" x="197.5" y="-317.5" font-family="Helvetica,sans-Serif" font-size="10.00">SharedFactory&lt; T &gt;</text>
</a>
</g>
</g>
<!-- Node9&#45;&gt;Node8 -->
<g id="edge9" class="edge">
<title>Node9&#45;&gt;Node8</title>
<path fill="none" stroke="orange" stroke-dasharray="5,2" d="M251.46,-331.33C259.32,-332.74 267.35,-334.02 275,-335 393.62,-350.13 532.33,-355.32 616.9,-357.09"/>
<polygon fill="orange" stroke="orange" points="252.1,-327.89 241.63,-329.5 250.81,-334.77 252.1,-327.89"/>
<text text-anchor="middle" x="349" y="-351" font-family="Helvetica,sans-Serif" font-size="10.00"> &lt; SimTerminal&lt; Real &gt; &gt;</text>
</g>
<!-- Node11 -->
<g id="node11" class="node">
<title>Node11</title>
<g id="a_node11"><a xlink:href="class_shared_factory.html" target="_top" xlink:title=" ">
<polygon fill="none" stroke="black" points="441,-305 441,-335 599,-335 599,-305 441,-305"/>
<text text-anchor="start" x="449" y="-323" font-family="Helvetica,sans-Serif" font-size="10.00">SharedFactory&lt; SimTerminal</text>
<text text-anchor="middle" x="520" y="-312" font-family="Helvetica,sans-Serif" font-size="10.00">&lt; VarType &gt; &gt;</text>
</a>
</g>
</g>
<!-- Node9&#45;&gt;Node11 -->
<g id="edge13" class="edge">
<title>Node9&#45;&gt;Node11</title>
<path fill="none" stroke="orange" stroke-dasharray="5,2" d="M264.98,-320C316.15,-320 387.01,-320 440.89,-320"/>
<polygon fill="orange" stroke="orange" points="264.69,-316.5 254.69,-320 264.69,-323.5 264.69,-316.5"/>
<text text-anchor="middle" x="349" y="-323" font-family="Helvetica,sans-Serif" font-size="10.00"> &lt; SimTerminal&lt; VarType &gt; &gt;</text>
</g>
<!-- Node15 -->
<g id="node15" class="node">
<title>Node15</title>
<g id="a_node15"><a xlink:href="class_shared_factory.html" target="_top" xlink:title=" ">
<polygon fill="none" stroke="black" points="625.5,-218 625.5,-248 766.5,-248 766.5,-218 625.5,-218"/>
<text text-anchor="start" x="633.5" y="-236" font-family="Helvetica,sans-Serif" font-size="10.00">SharedFactory&lt; SimNode</text>
<text text-anchor="middle" x="696" y="-225" font-family="Helvetica,sans-Serif" font-size="10.00">&lt; Real &gt; &gt;</text>
</a>
</g>
</g>
<!-- Node9&#45;&gt;Node15 -->
<g id="edge19" class="edge">
<title>Node9&#45;&gt;Node15</title>
<path fill="none" stroke="orange" stroke-dasharray="5,2" d="M238.42,-307.53C286.13,-293.11 368.61,-269.74 441,-257 502.84,-246.12 574.07,-239.93 625.33,-236.57"/>
<polygon fill="orange" stroke="orange" points="237.33,-304.2 228.78,-310.46 239.37,-310.9 237.33,-304.2"/>
<text text-anchor="middle" x="349" y="-298" font-family="Helvetica,sans-Serif" font-size="10.00"> &lt; SimNode&lt; Real &gt; &gt;</text>
</g>
<!-- Node18 -->
<g id="node18" class="node">
<title>Node18</title>
<g id="a_node18"><a xlink:href="class_shared_factory.html" target="_top" xlink:title=" ">
<polygon fill="none" stroke="black" points="449.5,-179 449.5,-209 590.5,-209 590.5,-179 449.5,-179"/>
<text text-anchor="start" x="457.5" y="-197" font-family="Helvetica,sans-Serif" font-size="10.00">SharedFactory&lt; SimNode</text>
<text text-anchor="middle" x="520" y="-186" font-family="Helvetica,sans-Serif" font-size="10.00">&lt; VarType &gt; &gt;</text>
</a>
</g>
</g>
<!-- Node9&#45;&gt;Node18 -->
<g id="edge24" class="edge">
<title>Node9&#45;&gt;Node18</title>
<path fill="none" stroke="orange" stroke-dasharray="5,2" d="M204.92,-300.87C215.07,-274.04 237.59,-226.14 275,-205 327.88,-175.11 397.98,-175.23 449.47,-181.13"/>
<polygon fill="orange" stroke="orange" points="201.61,-299.74 201.53,-310.33 208.2,-302.1 201.61,-299.74"/>
<text text-anchor="middle" x="349" y="-208" font-family="Helvetica,sans-Serif" font-size="10.00"> &lt; SimNode&lt; VarType &gt; &gt;</text>
</g>
<!-- Node21 -->
<g id="node21" class="node">
<title>Node21</title>
<g id="a_node21"><a xlink:href="class_shared_factory.html" target="_top" xlink:title=" ">
<polygon fill="none" stroke="black" points="974,-383.5 974,-402.5 1119,-402.5 1119,-383.5 974,-383.5"/>
<text text-anchor="middle" x="1046.5" y="-390.5" font-family="Helvetica,sans-Serif" font-size="10.00">SharedFactory&lt; RXLoad &gt;</text>
</a>
</g>
</g>
<!-- Node9&#45;&gt;Node21 -->
<g id="edge30" class="edge">
<title>Node9&#45;&gt;Node21</title>
<path fill="none" stroke="orange" stroke-dasharray="5,2" d="M219.59,-335.33C234.33,-345.14 254.9,-357.11 275,-363 523.09,-435.75 835.36,-415.81 973.79,-401.63"/>
<polygon fill="orange" stroke="orange" points="221.44,-332.35 211.22,-329.57 217.47,-338.12 221.44,-332.35"/>
<text text-anchor="middle" x="520" y="-415" font-family="Helvetica,sans-Serif" font-size="10.00"> &lt; RXLoad &gt;</text>
</g>
<!-- Node10&#45;&gt;Node6 -->
<g id="edge10" class="edge">
<title>Node10&#45;&gt;Node6</title>
<path fill="none" stroke="orange" stroke-dasharray="5,2" d="M966.43,-302.55C1020.06,-299.33 1086.99,-295.32 1136.96,-292.32"/>
<polygon fill="orange" stroke="orange" points="966,-299.07 956.23,-303.16 966.42,-306.05 966,-299.07"/>
<text text-anchor="middle" x="1046.5" y="-305" font-family="Helvetica,sans-Serif" font-size="10.00"> &lt; Real &gt;</text>
</g>
<!-- Node11&#45;&gt;Node10 -->
<g id="edge12" class="edge">
<title>Node11&#45;&gt;Node10</title>
<path fill="none" stroke="midnightblue" d="M609.54,-316.99C665.8,-315.07 738.05,-312.61 792.74,-310.75"/>
<polygon fill="midnightblue" stroke="midnightblue" points="609.11,-313.5 599.23,-317.34 609.34,-320.49 609.11,-313.5"/>
</g>
<!-- Node12 -->
<g id="node12" class="node">
<title>Node12</title>
<g id="a_node12"><a xlink:href="class_c_p_s_1_1_sim_node.html" target="_top" xlink:title=" ">
<polygon fill="none" stroke="black" points="1145,-126.5 1145,-145.5 1275,-145.5 1275,-126.5 1145,-126.5"/>
<text text-anchor="middle" x="1210" y="-133.5" font-family="Helvetica,sans-Serif" font-size="10.00">CPS::SimNode&lt; Real &gt;</text>
</a>
</g>
</g>
<!-- Node12&#45;&gt;Node2 -->
<g id="edge14" class="edge">
<title>Node12&#45;&gt;Node2</title>
<path fill="none" stroke="#9a32cd" stroke-dasharray="5,2" d="M1285.29,-128.16C1320.3,-124.47 1361.6,-120.12 1394.98,-116.59"/>
<polygon fill="#9a32cd" stroke="#9a32cd" points="1284.7,-124.71 1275.12,-129.24 1285.43,-131.67 1284.7,-124.71"/>
<text text-anchor="middle" x="1339" y="-129" font-family="Helvetica,sans-Serif" font-size="10.00"> mVirtualNodes</text>
</g>
<!-- Node13&#45;&gt;Node12 -->
<g id="edge15" class="edge">
<title>Node13&#45;&gt;Node12</title>
<path fill="none" stroke="midnightblue" d="M591.12,-98C646,-104 724.27,-112.02 793,-117 917.39,-126.01 1063.03,-131.5 1144.8,-134.13"/>
<polygon fill="midnightblue" stroke="midnightblue" points="591.47,-94.52 581.15,-96.9 590.71,-101.47 591.47,-94.52"/>
</g>
<!-- Node16 -->
<g id="node16" class="node">
<title>Node16</title>
<g id="a_node16"><a xlink:href="class_c_p_s_1_1_sim_node.html" target="_top" xlink:title=" ">
<polygon fill="none" stroke="black" points="801.5,-164.5 801.5,-183.5 947.5,-183.5 947.5,-164.5 801.5,-164.5"/>
<text text-anchor="middle" x="874.5" y="-171.5" font-family="Helvetica,sans-Serif" font-size="10.00">CPS::SimNode&lt; VarType &gt;</text>
</a>
</g>
</g>
<!-- Node13&#45;&gt;Node16 -->
<g id="edge21" class="edge">
<title>Node13&#45;&gt;Node16</title>
<path fill="none" stroke="midnightblue" d="M588.95,-103.5C592.45,-105.13 595.83,-106.95 599,-109 609.91,-116.04 605.83,-125.39 617,-132 625.21,-136.86 734.68,-153.65 807.93,-164.48"/>
<polygon fill="midnightblue" stroke="midnightblue" points="590.04,-100.16 579.45,-99.63 587.39,-106.64 590.04,-100.16"/>
</g>
<!-- Node14 -->
<g id="node14" class="node">
<title>Node14</title>
<g id="a_node14"><a xlink:title=" ">
<polygon fill="none" stroke="#bfbfbf" points="812.5,-66.5 812.5,-107.5 936.5,-107.5 936.5,-66.5 812.5,-66.5"/>
<text text-anchor="start" x="820.5" y="-95.5" font-family="Helvetica,sans-Serif" font-size="10.00">std::enable_shared</text>
<text text-anchor="start" x="820.5" y="-84.5" font-family="Helvetica,sans-Serif" font-size="10.00">_from_this&lt; SimNode</text>
<text text-anchor="middle" x="874.5" y="-73.5" font-family="Helvetica,sans-Serif" font-size="10.00">&lt; Real &gt; &gt;</text>
</a>
</g>
</g>
<!-- Node14&#45;&gt;Node12 -->
<g id="edge17" class="edge">
<title>Node14&#45;&gt;Node12</title>
<path fill="none" stroke="midnightblue" d="M946.67,-97.01C995.24,-103.89 1061.03,-113.33 1119,-122 1128.54,-123.43 1138.64,-124.97 1148.5,-126.49"/>
<polygon fill="midnightblue" stroke="midnightblue" points="946.96,-93.52 936.57,-95.58 945.98,-100.45 946.96,-93.52"/>
</g>
<!-- Node15&#45;&gt;Node12 -->
<g id="edge18" class="edge">
<title>Node15&#45;&gt;Node12</title>
<path fill="none" stroke="midnightblue" d="M777,-230.76C863.09,-226.57 1003.24,-214.52 1119,-180 1146.5,-171.8 1175.94,-155.89 1193.39,-145.62"/>
<polygon fill="midnightblue" stroke="midnightblue" points="776.6,-227.28 766.78,-231.24 776.93,-234.27 776.6,-227.28"/>
</g>
<!-- Node16&#45;&gt;Node12 -->
<g id="edge20" class="edge">
<title>Node16&#45;&gt;Node12</title>
<path fill="none" stroke="orange" stroke-dasharray="5,2" d="M957.72,-167.05C1004.97,-162.77 1065.41,-156.8 1119,-150 1129.35,-148.69 1140.35,-147.12 1150.97,-145.52"/>
<polygon fill="orange" stroke="orange" points="957.18,-163.59 947.54,-167.97 957.81,-170.56 957.18,-163.59"/>
<text text-anchor="middle" x="1046.5" y="-168" font-family="Helvetica,sans-Serif" font-size="10.00"> &lt; Real &gt;</text>
</g>
<!-- Node17 -->
<g id="node17" class="node">
<title>Node17</title>
<g id="a_node17"><a xlink:title=" ">
<polygon fill="none" stroke="#bfbfbf" points="458,-118.5 458,-159.5 582,-159.5 582,-118.5 458,-118.5"/>
<text text-anchor="start" x="466" y="-147.5" font-family="Helvetica,sans-Serif" font-size="10.00">std::enable_shared</text>
<text text-anchor="start" x="466" y="-136.5" font-family="Helvetica,sans-Serif" font-size="10.00">_from_this&lt; SimNode</text>
<text text-anchor="middle" x="520" y="-125.5" font-family="Helvetica,sans-Serif" font-size="10.00">&lt; VarType &gt; &gt;</text>
</a>
</g>
</g>
<!-- Node17&#45;&gt;Node16 -->
<g id="edge22" class="edge">
<title>Node17&#45;&gt;Node16</title>
<path fill="none" stroke="midnightblue" d="M592.15,-153.32C600.51,-154.71 608.93,-155.98 617,-157 678.99,-164.84 749.89,-169.19 801.41,-171.52"/>
<polygon fill="midnightblue" stroke="midnightblue" points="592.48,-149.82 582.03,-151.57 591.29,-156.72 592.48,-149.82"/>
</g>
<!-- Node18&#45;&gt;Node16 -->
<g id="edge23" class="edge">
<title>Node18&#45;&gt;Node16</title>
<path fill="none" stroke="midnightblue" d="M600.69,-190.93C650.75,-188.83 716.68,-185.74 775,-182 783.56,-181.45 792.54,-180.81 801.43,-180.14"/>
<polygon fill="midnightblue" stroke="midnightblue" points="600.42,-187.44 590.57,-191.35 600.71,-194.43 600.42,-187.44"/>
</g>
<!-- Node19&#45;&gt;Node2 -->
<g id="edge25" class="edge">
<title>Node19&#45;&gt;Node2</title>
<path fill="none" stroke="orange" stroke-dasharray="5,2" d="M1283.88,-89.09C1312.92,-90.41 1346.6,-92.54 1377,-96 1382.78,-96.66 1388.77,-97.46 1394.76,-98.35"/>
<polygon fill="orange" stroke="orange" points="1283.95,-85.59 1273.81,-88.66 1283.65,-92.58 1283.95,-85.59"/>
<text text-anchor="middle" x="1339" y="-99" font-family="Helvetica,sans-Serif" font-size="10.00"> &lt; Real &gt;</text>
</g>
<!-- Node20&#45;&gt;Node1 -->
<g id="edge27" class="edge">
<title>Node20&#45;&gt;Node1</title>
<path fill="none" stroke="midnightblue" d="M413.47,-8.47C482.66,-4.93 596.67,0 695,0 695,0 695,0 1459.5,0 1530.7,0 1593.95,-73.32 1614.78,-100.24"/>
<polygon fill="midnightblue" stroke="midnightblue" points="412.98,-4.99 403.17,-9 413.34,-11.98 412.98,-4.99"/>
</g>
<!-- Node21&#45;&gt;Node1 -->
<g id="edge29" class="edge">
<title>Node21&#45;&gt;Node1</title>
<path fill="none" stroke="midnightblue" d="M1088.74,-380.39C1136.46,-365.24 1216.95,-337.95 1283,-307 1414.29,-245.47 1561.79,-149.95 1607.63,-119.6"/>
<polygon fill="midnightblue" stroke="midnightblue" points="1087.55,-377.09 1079.07,-383.43 1089.66,-383.77 1087.55,-377.09"/>
</g>
</g>
</svg>
