<?xml version="1.0" encoding="UTF-8" standalone="no"?>
<!DOCTYPE svg PUBLIC "-//W3C//DTD SVG 1.1//EN"
 "http://www.w3.org/Graphics/SVG/1.1/DTD/svg11.dtd">
<!-- Generated by graphviz version 12.2.1 (20241206.2353)
 -->
<!-- Title: CPS::Base::Ph3::Switch Pages: 1 -->
<svg width="736pt" height="238pt"
 viewBox="0.00 0.00 736.00 237.57" xmlns="http://www.w3.org/2000/svg" xmlns:xlink="http://www.w3.org/1999/xlink">
<g id="graph0" class="graph" transform="scale(1 1) rotate(0) translate(4 233.57)">
<title>CPS::Base::Ph3::Switch</title>
<!-- Node1 -->
<g id="Node000001" class="node">
<title>Node1</title>
<g id="a_Node000001"><a xlink:title="Dynamic Phasor Three&#45;Phase Switch.">
<polygon fill="#999999" stroke="#666666" points="728,-106.32 607,-106.32 607,-84.07 728,-84.07 728,-106.32"/>
<text text-anchor="middle" x="667.5" y="-92.82" font-family="Helvetica,sans-Serif" font-size="10.00">CPS::Base::Ph3::Switch</text>
</a>
</g>
</g>
<!-- Node2 -->
<g id="Node000002" class="node">
<title>Node2</title>
<g id="a_Node000002"><a xlink:href="class_c_p_s_1_1_attribute.html" target="_top" xlink:title=" ">
<polygon fill="white" stroke="#666666" points="480.25,-142.32 351.75,-142.32 351.75,-120.07 480.25,-120.07 480.25,-142.32"/>
<text text-anchor="middle" x="416" y="-128.82" font-family="Helvetica,sans-Serif" font-size="10.00">CPS::Attribute&lt; Matrix &gt;</text>
</a>
</g>
</g>
<!-- Node2&#45;&gt;Node1 -->
<g id="edge1_Node000001_Node000002" class="edge">
<title>Node2&#45;&gt;Node1</title>
<g id="a_edge1_Node000001_Node000002"><a xlink:title=" ">
<path fill="none" stroke="#9a32cd" stroke-dasharray="5,2" d="M491.79,-120.4C528.59,-115.09 572.35,-108.78 606.87,-103.8"/>
<polygon fill="#9a32cd" stroke="#9a32cd" points="491.5,-116.91 482.1,-121.8 492.5,-123.84 491.5,-116.91"/>
</a>
</g>
<text text-anchor="middle" x="543.62" y="-137.52" font-family="Helvetica,sans-Serif" font-size="10.00" fill="grey"> mClosedResistance</text>
<text text-anchor="middle" x="543.62" y="-123.27" font-family="Helvetica,sans-Serif" font-size="10.00" fill="grey">mOpenResistance</text>
</g>
<!-- Node3 -->
<g id="Node000003" class="node">
<title>Node3</title>
<g id="a_Node000003"><a xlink:href="class_c_p_s_1_1_attribute_base.html" target="_top" xlink:title=" ">
<polygon fill="white" stroke="#666666" points="109.75,-144.32 5.25,-144.32 5.25,-122.07 109.75,-122.07 109.75,-144.32"/>
<text text-anchor="middle" x="57.5" y="-130.82" font-family="Helvetica,sans-Serif" font-size="10.00">CPS::AttributeBase</text>
</a>
</g>
</g>
<!-- Node3&#45;&gt;Node2 -->
<g id="edge2_Node000002_Node000003" class="edge">
<title>Node3&#45;&gt;Node2</title>
<g id="a_edge2_Node000002_Node000003"><a xlink:title=" ">
<path fill="none" stroke="#63b8ff" d="M121.48,-135.95C177.28,-137.95 260.96,-139.88 333.75,-137.19 339.55,-136.98 345.57,-136.68 351.6,-136.33"/>
<polygon fill="#63b8ff" stroke="#63b8ff" points="121.64,-132.45 111.52,-135.58 121.38,-139.45 121.64,-132.45"/>
</a>
</g>
</g>
<!-- Node5 -->
<g id="Node000005" class="node">
<title>Node5</title>
<g id="a_Node000005"><a xlink:href="class_c_p_s_1_1_attribute.html" target="_top" xlink:title=" ">
<polygon fill="white" stroke="#666666" points="261.38,-122.32 157.62,-122.32 157.62,-100.07 261.38,-100.07 261.38,-122.32"/>
<text text-anchor="middle" x="209.5" y="-108.82" font-family="Helvetica,sans-Serif" font-size="10.00">CPS::Attribute&lt; T &gt;</text>
</a>
</g>
</g>
<!-- Node3&#45;&gt;Node5 -->
<g id="edge5_Node000005_Node000003" class="edge">
<title>Node3&#45;&gt;Node5</title>
<g id="a_edge5_Node000005_Node000003"><a xlink:title=" ">
<path fill="none" stroke="#63b8ff" d="M121.42,-123.97C133.37,-122.21 145.75,-120.4 157.29,-118.7"/>
<polygon fill="#63b8ff" stroke="#63b8ff" points="121.01,-120.49 111.62,-125.4 122.02,-127.42 121.01,-120.49"/>
</a>
</g>
</g>
<!-- Node7 -->
<g id="Node000007" class="node">
<title>Node7</title>
<g id="a_Node000007"><a xlink:href="class_c_p_s_1_1_attribute.html" target="_top" xlink:title=" ">
<polygon fill="white" stroke="#666666" points="475.75,-87.32 356.25,-87.32 356.25,-65.07 475.75,-65.07 475.75,-87.32"/>
<text text-anchor="middle" x="416" y="-73.82" font-family="Helvetica,sans-Serif" font-size="10.00">CPS::Attribute&lt; Bool &gt;</text>
</a>
</g>
</g>
<!-- Node3&#45;&gt;Node7 -->
<g id="edge8_Node000007_Node000003" class="edge">
<title>Node3&#45;&gt;Node7</title>
<g id="a_edge8_Node000007_Node000003"><a xlink:title=" ">
<path fill="none" stroke="#63b8ff" d="M111.14,-115.56C112.49,-114.5 113.78,-113.38 115,-112.19 146.57,-81.45 115.48,-44.87 152,-20.19 231.88,33.78 354.02,-35.76 398.26,-64.67"/>
<polygon fill="#63b8ff" stroke="#63b8ff" points="109.36,-112.54 102.8,-120.86 113.12,-118.45 109.36,-112.54"/>
</a>
</g>
</g>
<!-- Node4 -->
<g id="Node000004" class="node">
<title>Node4</title>
<g id="a_Node000004"><a xlink:title=" ">
<polygon fill="white" stroke="#bfbfbf" points="267,-229.57 152,-229.57 152,-178.82 267,-178.82 267,-229.57"/>
<text text-anchor="start" x="160" y="-216.07" font-family="Helvetica,sans-Serif" font-size="10.00">std::enable_shared</text>
<text text-anchor="start" x="160" y="-201.82" font-family="Helvetica,sans-Serif" font-size="10.00">_from_this&lt; Attribute</text>
<text text-anchor="middle" x="209.5" y="-187.57" font-family="Helvetica,sans-Serif" font-size="10.00">&lt; Matrix &gt; &gt;</text>
</a>
</g>
</g>
<!-- Node4&#45;&gt;Node2 -->
<g id="edge3_Node000002_Node000004" class="edge">
<title>Node4&#45;&gt;Node2</title>
<g id="a_edge3_Node000002_Node000004"><a xlink:title=" ">
<path fill="none" stroke="#63b8ff" d="M278.12,-184C296.3,-178.25 315.87,-171.75 333.75,-165.19 352.56,-158.3 373.39,-149.56 389.26,-142.67"/>
<polygon fill="#63b8ff" stroke="#63b8ff" points="277.25,-180.61 268.75,-186.94 279.34,-187.28 277.25,-180.61"/>
</a>
</g>
</g>
<!-- Node5&#45;&gt;Node2 -->
<g id="edge4_Node000002_Node000005" class="edge">
<title>Node5&#45;&gt;Node2</title>
<g id="a_edge4_Node000002_Node000005"><a xlink:title=" ">
<path fill="none" stroke="orange" stroke-dasharray="5,2" d="M272.97,-117.08C292.44,-118.93 313.99,-121 333.75,-122.94 339.54,-123.51 345.55,-124.11 351.58,-124.72"/>
<polygon fill="orange" stroke="orange" points="273.57,-113.62 263.28,-116.15 272.91,-120.58 273.57,-113.62"/>
</a>
</g>
<text text-anchor="middle" x="309.38" y="-127.69" font-family="Helvetica,sans-Serif" font-size="10.00" fill="grey"> &lt; Matrix &gt;</text>
</g>
<!-- Node5&#45;&gt;Node7 -->
<g id="edge10_Node000007_Node000005" class="edge">
<title>Node5&#45;&gt;Node7</title>
<g id="a_edge10_Node000007_Node000005"><a xlink:title=" ">
<path fill="none" stroke="orange" stroke-dasharray="5,2" d="M272.89,-100.52C299.32,-95.99 329.98,-90.75 356.03,-86.29"/>
<polygon fill="orange" stroke="orange" points="272.6,-97.02 263.33,-102.15 273.78,-103.91 272.6,-97.02"/>
</a>
</g>
<text text-anchor="middle" x="309.38" y="-102.61" font-family="Helvetica,sans-Serif" font-size="10.00" fill="grey"> &lt; Bool &gt;</text>
</g>
<!-- Node6 -->
<g id="Node000006" class="node">
<title>Node6</title>
<g id="a_Node000006"><a xlink:title=" ">
<polygon fill="white" stroke="#bfbfbf" points="115,-103.57 0,-103.57 0,-52.82 115,-52.82 115,-103.57"/>
<text text-anchor="start" x="8" y="-90.07" font-family="Helvetica,sans-Serif" font-size="10.00">std::enable_shared</text>
<text text-anchor="start" x="8" y="-75.82" font-family="Helvetica,sans-Serif" font-size="10.00">_from_this&lt; Attribute</text>
<text text-anchor="middle" x="57.5" y="-61.57" font-family="Helvetica,sans-Serif" font-size="10.00">&lt; T &gt; &gt;</text>
</a>
</g>
</g>
<!-- Node6&#45;&gt;Node5 -->
<g id="edge6_Node000005_Node000006" class="edge">
<title>Node6&#45;&gt;Node5</title>
<g id="a_edge6_Node000005_Node000006"><a xlink:title=" ">
<path fill="none" stroke="#63b8ff" d="M126.33,-93.12C136.68,-95.39 147.22,-97.71 157.14,-99.89"/>
<polygon fill="#63b8ff" stroke="#63b8ff" points="127.21,-89.73 116.69,-91 125.7,-96.56 127.21,-89.73"/>
</a>
</g>
</g>
<!-- Node7&#45;&gt;Node1 -->
<g id="edge7_Node000001_Node000007" class="edge">
<title>Node7&#45;&gt;Node1</title>
<g id="a_edge7_Node000001_Node000007"><a xlink:title=" ">
<path fill="none" stroke="#9a32cd" stroke-dasharray="5,2" d="M487.3,-74.3C518.54,-74.23 555.69,-75.22 589,-78.94 598.56,-80.01 608.69,-81.71 618.36,-83.62"/>
<polygon fill="#9a32cd" stroke="#9a32cd" points="487.58,-70.8 477.6,-74.36 487.62,-77.8 487.58,-70.8"/>
</a>
</g>
<text text-anchor="middle" x="543.62" y="-83.69" font-family="Helvetica,sans-Serif" font-size="10.00" fill="grey"> mIsClosed</text>
</g>
<!-- Node8 -->
<g id="Node000008" class="node">
<title>Node8</title>
<g id="a_Node000008"><a xlink:title=" ">
<polygon fill="white" stroke="#bfbfbf" points="267,-79.57 152,-79.57 152,-28.82 267,-28.82 267,-79.57"/>
<text text-anchor="start" x="160" y="-66.07" font-family="Helvetica,sans-Serif" font-size="10.00">std::enable_shared</text>
<text text-anchor="start" x="160" y="-51.82" font-family="Helvetica,sans-Serif" font-size="10.00">_from_this&lt; Attribute</text>
<text text-anchor="middle" x="209.5" y="-37.57" font-family="Helvetica,sans-Serif" font-size="10.00">&lt; Bool &gt; &gt;</text>
</a>
</g>
</g>
<!-- Node8&#45;&gt;Node7 -->
<g id="edge9_Node000007_Node000008" class="edge">
<title>Node8&#45;&gt;Node7</title>
<g id="a_edge9_Node000007_Node000008"><a xlink:title=" ">
<path fill="none" stroke="#63b8ff" d="M278.56,-60.51C296.52,-62.26 315.87,-64.22 333.75,-66.19 340.95,-66.99 348.51,-67.86 356,-68.75"/>
<polygon fill="#63b8ff" stroke="#63b8ff" points="279.09,-57.04 268.8,-59.56 278.41,-64.01 279.09,-57.04"/>
</a>
</g>
</g>
</g>
</svg>
