<?xml version="1.0" encoding="UTF-8" standalone="no"?>
<!DOCTYPE svg PUBLIC "-//W3C//DTD SVG 1.1//EN"
 "http://www.w3.org/Graphics/SVG/1.1/DTD/svg11.dtd">
<!-- Generated by graphviz version 12.2.1 (20241206.2353)
 -->
<!-- Title: CPS::SP::Ph1::ControlledCurrentSource Pages: 1 -->
<svg width="1168pt" height="212pt"
 viewBox="0.00 0.00 1168.25 212.38" xmlns="http://www.w3.org/2000/svg" xmlns:xlink="http://www.w3.org/1999/xlink">
<g id="graph0" class="graph" transform="scale(1 1) rotate(0) translate(4 208.38)">
<title>CPS::SP::Ph1::ControlledCurrentSource</title>
<!-- Node1 -->
<g id="Node000001" class="node">
<title>Node1</title>
<g id="a_Node000001"><a xlink:title="Ideal Current source model.">
<polygon fill="#999999" stroke="#666666" points="1160.25,-75.38 1031.75,-75.38 1031.75,-38.88 1160.25,-38.88 1160.25,-75.38"/>
<text text-anchor="start" x="1039.75" y="-61.88" font-family="Helvetica,sans-Serif" font-size="10.00">CPS::SP::Ph1::Controlled</text>
<text text-anchor="middle" x="1096" y="-47.62" font-family="Helvetica,sans-Serif" font-size="10.00">CurrentSource</text>
</a>
</g>
</g>
<!-- Node2 -->
<g id="Node000002" class="node">
<title>Node2</title>
<g id="a_Node000002"><a xlink:href="class_c_p_s_1_1_m_n_a_sim_power_comp.html" target="_top" xlink:title=" ">
<polygon fill="white" stroke="#666666" points="993.25,-112.38 857.25,-112.38 857.25,-75.88 993.25,-75.88 993.25,-112.38"/>
<text text-anchor="start" x="865.25" y="-98.88" font-family="Helvetica,sans-Serif" font-size="10.00">CPS::MNASimPowerComp</text>
<text text-anchor="middle" x="925.25" y="-84.62" font-family="Helvetica,sans-Serif" font-size="10.00">&lt; Complex &gt;</text>
</a>
</g>
</g>
<!-- Node2&#45;&gt;Node1 -->
<g id="edge1_Node000001_Node000002" class="edge">
<title>Node2&#45;&gt;Node1</title>
<g id="a_edge1_Node000001_Node000002"><a xlink:title=" ">
<path fill="none" stroke="#63b8ff" d="M1004.67,-76.93C1013.61,-74.97 1022.63,-72.99 1031.35,-71.08"/>
<polygon fill="#63b8ff" stroke="#63b8ff" points="1003.93,-73.51 994.91,-79.07 1005.43,-80.35 1003.93,-73.51"/>
</a>
</g>
</g>
<!-- Node3 -->
<g id="Node000003" class="node">
<title>Node3</title>
<g id="a_Node000003"><a xlink:href="class_c_p_s_1_1_sim_power_comp.html" target="_top" xlink:title=" ">
<polygon fill="white" stroke="#666666" points="676.88,-168.38 558.12,-168.38 558.12,-131.88 676.88,-131.88 676.88,-168.38"/>
<text text-anchor="start" x="566.12" y="-154.88" font-family="Helvetica,sans-Serif" font-size="10.00">CPS::SimPowerComp&lt;</text>
<text text-anchor="middle" x="617.5" y="-140.62" font-family="Helvetica,sans-Serif" font-size="10.00"> Complex &gt;</text>
</a>
</g>
</g>
<!-- Node3&#45;&gt;Node2 -->
<g id="edge2_Node000002_Node000003" class="edge">
<title>Node3&#45;&gt;Node2</title>
<g id="a_edge2_Node000002_Node000003"><a xlink:title=" ">
<path fill="none" stroke="#63b8ff" d="M688.28,-142.21C731.56,-136.75 788.17,-128.58 837.75,-118.12 845.07,-116.58 852.69,-114.77 860.23,-112.85"/>
<polygon fill="#63b8ff" stroke="#63b8ff" points="688.01,-138.72 678.52,-143.43 688.87,-145.67 688.01,-138.72"/>
</a>
</g>
</g>
<!-- Node4 -->
<g id="Node000004" class="node">
<title>Node4</title>
<g id="a_Node000004"><a xlink:href="class_c_p_s_1_1_topological_power_comp.html" target="_top" xlink:title=" ">
<polygon fill="white" stroke="#666666" points="299.25,-151.25 152,-151.25 152,-129 299.25,-129 299.25,-151.25"/>
<text text-anchor="middle" x="225.62" y="-137.75" font-family="Helvetica,sans-Serif" font-size="10.00">CPS::TopologicalPowerComp</text>
</a>
</g>
</g>
<!-- Node4&#45;&gt;Node3 -->
<g id="edge3_Node000003_Node000004" class="edge">
<title>Node4&#45;&gt;Node3</title>
<g id="a_edge3_Node000003_Node000004"><a xlink:title=" ">
<path fill="none" stroke="#63b8ff" d="M310.7,-142.28C385.18,-144.19 491.99,-146.93 557.67,-148.62"/>
<polygon fill="#63b8ff" stroke="#63b8ff" points="311.1,-138.79 301.01,-142.03 310.92,-145.79 311.1,-138.79"/>
</a>
</g>
</g>
<!-- Node6 -->
<g id="Node000006" class="node">
<title>Node6</title>
<g id="a_Node000006"><a xlink:href="class_c_p_s_1_1_sim_power_comp.html" target="_top" xlink:title="Base class for all components that are transmitting power.">
<polygon fill="white" stroke="#666666" points="455,-204.38 336.25,-204.38 336.25,-167.88 455,-167.88 455,-204.38"/>
<text text-anchor="start" x="344.25" y="-190.88" font-family="Helvetica,sans-Serif" font-size="10.00">CPS::SimPowerComp&lt;</text>
<text text-anchor="middle" x="395.62" y="-176.62" font-family="Helvetica,sans-Serif" font-size="10.00"> VarType &gt;</text>
</a>
</g>
</g>
<!-- Node4&#45;&gt;Node6 -->
<g id="edge6_Node000006_Node000004" class="edge">
<title>Node4&#45;&gt;Node6</title>
<g id="a_edge6_Node000006_Node000004"><a xlink:title=" ">
<path fill="none" stroke="#63b8ff" d="M280.1,-154.77C297.92,-159.65 317.87,-165.11 336.07,-170.09"/>
<polygon fill="#63b8ff" stroke="#63b8ff" points="281.05,-151.4 270.48,-152.13 279.2,-158.15 281.05,-151.4"/>
</a>
</g>
</g>
<!-- Node9 -->
<g id="Node000009" class="node">
<title>Node9</title>
<g id="a_Node000009"><a xlink:href="class_c_p_s_1_1_sim_power_comp.html" target="_top" xlink:title="Base class for all components that are transmitting power.">
<polygon fill="white" stroke="#666666" points="455,-72.38 336.25,-72.38 336.25,-35.88 455,-35.88 455,-72.38"/>
<text text-anchor="start" x="344.25" y="-58.88" font-family="Helvetica,sans-Serif" font-size="10.00">CPS::SimPowerComp&lt;</text>
<text text-anchor="middle" x="395.62" y="-44.62" font-family="Helvetica,sans-Serif" font-size="10.00"> VarType &gt;</text>
</a>
</g>
</g>
<!-- Node4&#45;&gt;Node9 -->
<g id="edge10_Node000009_Node000004" class="edge">
<title>Node4&#45;&gt;Node9</title>
<g id="a_edge10_Node000009_Node000004"><a xlink:title=" ">
<path fill="none" stroke="#63b8ff" d="M257.04,-123.11C278.9,-111.05 309.17,-94.66 336.25,-81.12 341.74,-78.38 347.57,-75.57 353.34,-72.84"/>
<polygon fill="#63b8ff" stroke="#63b8ff" points="255.41,-120.02 248.36,-127.93 258.81,-126.14 255.41,-120.02"/>
</a>
</g>
</g>
<!-- Node5 -->
<g id="Node000005" class="node">
<title>Node5</title>
<g id="a_Node000005"><a xlink:href="class_c_p_s_1_1_identified_object.html" target="_top" xlink:title=" ">
<polygon fill="white" stroke="#666666" points="115,-151.25 0,-151.25 0,-129 115,-129 115,-151.25"/>
<text text-anchor="middle" x="57.5" y="-137.75" font-family="Helvetica,sans-Serif" font-size="10.00">CPS::IdentifiedObject</text>
</a>
</g>
</g>
<!-- Node5&#45;&gt;Node4 -->
<g id="edge4_Node000004_Node000005" class="edge">
<title>Node5&#45;&gt;Node4</title>
<g id="a_edge4_Node000004_Node000005"><a xlink:title=" ">
<path fill="none" stroke="#63b8ff" d="M126.7,-140.12C134.95,-140.12 143.41,-140.12 151.73,-140.12"/>
<polygon fill="#63b8ff" stroke="#63b8ff" points="126.72,-136.63 116.72,-140.13 126.72,-143.63 126.72,-136.63"/>
</a>
</g>
</g>
<!-- Node6&#45;&gt;Node3 -->
<g id="edge5_Node000003_Node000006" class="edge">
<title>Node6&#45;&gt;Node3</title>
<g id="a_edge5_Node000003_Node000006"><a xlink:title=" ">
<path fill="none" stroke="orange" stroke-dasharray="5,2" d="M466.28,-174.72C495.68,-169.91 529.53,-164.36 557.65,-159.76"/>
<polygon fill="orange" stroke="orange" points="466.06,-171.21 456.75,-176.28 467.19,-178.12 466.06,-171.21"/>
</a>
</g>
<text text-anchor="middle" x="502.25" y="-178.2" font-family="Helvetica,sans-Serif" font-size="10.00" fill="grey"> &lt; Complex &gt;</text>
</g>
<!-- Node7 -->
<g id="Node000007" class="node">
<title>Node7</title>
<g id="a_Node000007"><a xlink:href="class_c_p_s_1_1_m_n_a_interface.html" target="_top" xlink:title="Interface to be implemented by all models used by the MNA solver.">
<polygon fill="white" stroke="#666666" points="448.62,-112.25 342.62,-112.25 342.62,-90 448.62,-90 448.62,-112.25"/>
<text text-anchor="middle" x="395.62" y="-98.75" font-family="Helvetica,sans-Serif" font-size="10.00">CPS::MNAInterface</text>
</a>
</g>
</g>
<!-- Node7&#45;&gt;Node2 -->
<g id="edge7_Node000002_Node000007" class="edge">
<title>Node7&#45;&gt;Node2</title>
<g id="a_edge7_Node000002_Node000007"><a xlink:title=" ">
<path fill="none" stroke="#63b8ff" d="M460.11,-100.28C560.37,-98.95 754.45,-96.38 856.99,-95.02"/>
<polygon fill="#63b8ff" stroke="#63b8ff" points="460.13,-96.78 450.17,-100.41 460.22,-103.78 460.13,-96.78"/>
</a>
</g>
</g>
<!-- Node8 -->
<g id="Node000008" class="node">
<title>Node8</title>
<g id="a_Node000008"><a xlink:href="class_c_p_s_1_1_m_n_a_sim_power_comp.html" target="_top" xlink:title="Base class for all MNA components that are transmitting power.">
<polygon fill="white" stroke="#666666" points="685.5,-76.38 549.5,-76.38 549.5,-39.88 685.5,-39.88 685.5,-76.38"/>
<text text-anchor="start" x="557.5" y="-62.88" font-family="Helvetica,sans-Serif" font-size="10.00">CPS::MNASimPowerComp</text>
<text text-anchor="middle" x="617.5" y="-48.62" font-family="Helvetica,sans-Serif" font-size="10.00">&lt; VarType &gt;</text>
</a>
</g>
</g>
<!-- Node7&#45;&gt;Node8 -->
<g id="edge11_Node000008_Node000007" class="edge">
<title>Node7&#45;&gt;Node8</title>
<g id="a_edge11_Node000008_Node000007"><a xlink:title=" ">
<path fill="none" stroke="#63b8ff" d="M460.23,-88.69C488.09,-83.24 520.81,-76.84 549.09,-71.31"/>
<polygon fill="#63b8ff" stroke="#63b8ff" points="459.64,-85.24 450.5,-90.59 460.98,-92.11 459.64,-85.24"/>
</a>
</g>
</g>
<!-- Node8&#45;&gt;Node2 -->
<g id="edge8_Node000002_Node000008" class="edge">
<title>Node8&#45;&gt;Node2</title>
<g id="a_edge8_Node000002_Node000008"><a xlink:title=" ">
<path fill="none" stroke="orange" stroke-dasharray="5,2" d="M697.17,-62.06C739.05,-64.77 791.36,-69.13 837.75,-75.88 843.98,-76.78 850.43,-77.86 856.87,-79.04"/>
<polygon fill="orange" stroke="orange" points="697.63,-58.59 687.43,-61.46 697.19,-65.57 697.63,-58.59"/>
</a>
</g>
<text text-anchor="middle" x="770.62" y="-80.62" font-family="Helvetica,sans-Serif" font-size="10.00" fill="grey"> &lt; Complex &gt;</text>
</g>
<!-- Node9&#45;&gt;Node8 -->
<g id="edge9_Node000008_Node000009" class="edge">
<title>Node9&#45;&gt;Node8</title>
<g id="a_edge9_Node000008_Node000009"><a xlink:title=" ">
<path fill="none" stroke="#63b8ff" d="M466.71,-55.4C493.07,-55.88 522.97,-56.42 549.08,-56.9"/>
<polygon fill="#63b8ff" stroke="#63b8ff" points="466.83,-51.9 456.77,-55.22 466.71,-58.9 466.83,-51.9"/>
</a>
</g>
</g>
<!-- Node10 -->
<g id="Node000010" class="node">
<title>Node10</title>
<g id="a_Node000010"><a xlink:href="class_shared_factory.html" target="_top" xlink:title=" ">
<polygon fill="white" stroke="#666666" points="994.75,-48.38 855.75,-48.38 855.75,-11.88 994.75,-11.88 994.75,-48.38"/>
<text text-anchor="start" x="863.75" y="-34.88" font-family="Helvetica,sans-Serif" font-size="10.00">SharedFactory&lt; Controlled</text>
<text text-anchor="middle" x="925.25" y="-20.62" font-family="Helvetica,sans-Serif" font-size="10.00">CurrentSource &gt;</text>
</a>
</g>
</g>
<!-- Node10&#45;&gt;Node1 -->
<g id="edge12_Node000001_Node000010" class="edge">
<title>Node10&#45;&gt;Node1</title>
<g id="a_edge12_Node000001_Node000010"><a xlink:title=" ">
<path fill="none" stroke="#63b8ff" d="M1005.99,-42.88C1014.49,-44.24 1023.05,-45.61 1031.32,-46.94"/>
<polygon fill="#63b8ff" stroke="#63b8ff" points="1006.81,-39.47 996.38,-41.35 1005.7,-46.38 1006.81,-39.47"/>
</a>
</g>
</g>
<!-- Node11 -->
<g id="Node000011" class="node">
<title>Node11</title>
<g id="a_Node000011"><a xlink:href="class_shared_factory.html" target="_top" xlink:title=" ">
<polygon fill="white" stroke="#666666" points="669.75,-22.25 565.25,-22.25 565.25,0 669.75,0 669.75,-22.25"/>
<text text-anchor="middle" x="617.5" y="-8.75" font-family="Helvetica,sans-Serif" font-size="10.00">SharedFactory&lt; T &gt;</text>
</a>
</g>
</g>
<!-- Node11&#45;&gt;Node10 -->
<g id="edge13_Node000010_Node000011" class="edge">
<title>Node11&#45;&gt;Node10</title>
<g id="a_edge13_Node000010_Node000011"><a xlink:title=" ">
<path fill="none" stroke="orange" stroke-dasharray="5,2" d="M681.46,-15.04C732.09,-18.18 803.12,-22.6 855.28,-25.84"/>
<polygon fill="orange" stroke="orange" points="681.73,-11.55 671.53,-14.42 681.29,-18.53 681.73,-11.55"/>
</a>
</g>
<text text-anchor="middle" x="770.62" y="-29.26" font-family="Helvetica,sans-Serif" font-size="10.00" fill="grey"> &lt; ControlledCurrentSource &gt;</text>
</g>
</g>
</svg>
