<?xml version="1.0" encoding="UTF-8" standalone="no"?>
<!DOCTYPE svg PUBLIC "-//W3C//DTD SVG 1.1//EN"
 "http://www.w3.org/Graphics/SVG/1.1/DTD/svg11.dtd">
<!-- Generated by graphviz version 12.2.1 (20241206.2353)
 -->
<!-- Title: CPS::EMT::VTypeSSNComp Pages: 1 -->
<svg width="1790pt" height="304pt"
 viewBox="0.00 0.00 1789.75 304.38" xmlns="http://www.w3.org/2000/svg" xmlns:xlink="http://www.w3.org/1999/xlink">
<g id="graph0" class="graph" transform="scale(1 1) rotate(0) translate(4 300.38)">
<title>CPS::EMT::VTypeSSNComp</title>
<!-- Node1 -->
<g id="Node000001" class="node">
<title>Node1</title>
<g id="a_Node000001"><a xlink:title="Abstract base class for EMT V&#45;type SSN components.">
<polygon fill="#999999" stroke="#666666" points="1197.5,-179.25 1059.25,-179.25 1059.25,-157 1197.5,-157 1197.5,-179.25"/>
<text text-anchor="middle" x="1128.38" y="-165.75" font-family="Helvetica,sans-Serif" font-size="10.00">CPS::EMT::VTypeSSNComp</text>
</a>
</g>
</g>
<!-- Node11 -->
<g id="Node000011" class="node">
<title>Node11</title>
<g id="a_Node000011"><a xlink:href="class_c_p_s_1_1_e_m_t_1_1_ph3_1_1_four_terminal_v_type_s_s_n_comp.html" target="_top" xlink:title=" ">
<polygon fill="white" stroke="#bfbfbf" points="1397.5,-275.38 1247.25,-275.38 1247.25,-238.88 1397.5,-238.88 1397.5,-275.38"/>
<text text-anchor="start" x="1255.25" y="-261.88" font-family="Helvetica,sans-Serif" font-size="10.00">CPS::EMT::Ph3::FourTerminal</text>
<text text-anchor="middle" x="1322.38" y="-247.62" font-family="Helvetica,sans-Serif" font-size="10.00">VTypeSSNComp</text>
</a>
</g>
</g>
<!-- Node1&#45;&gt;Node11 -->
<g id="edge13_Node000001_Node000011" class="edge">
<title>Node1&#45;&gt;Node11</title>
<g id="a_edge13_Node000001_Node000011"><a xlink:title=" ">
<path fill="none" stroke="#63b8ff" d="M1164.15,-184.24C1197.05,-199.49 1246.41,-222.38 1281.03,-238.42"/>
<polygon fill="#63b8ff" stroke="#63b8ff" points="1166,-181.24 1155.46,-180.21 1163.06,-187.6 1166,-181.24"/>
</a>
</g>
</g>
<!-- Node13 -->
<g id="Node000013" class="node">
<title>Node13</title>
<g id="a_Node000013"><a xlink:href="class_c_p_s_1_1_e_m_t_1_1_ph3_1_1_two_terminal_v_type_s_s_n_comp.html" target="_top" xlink:title="Abstract base class for three&#45;phase, two&#45;terminal, V&#45;type SSN components.">
<polygon fill="white" stroke="#666666" points="1396,-186.38 1248.75,-186.38 1248.75,-149.88 1396,-149.88 1396,-186.38"/>
<text text-anchor="start" x="1256.75" y="-172.88" font-family="Helvetica,sans-Serif" font-size="10.00">CPS::EMT::Ph3::TwoTerminal</text>
<text text-anchor="middle" x="1322.38" y="-158.62" font-family="Helvetica,sans-Serif" font-size="10.00">VTypeSSNComp</text>
</a>
</g>
</g>
<!-- Node1&#45;&gt;Node13 -->
<g id="edge15_Node000001_Node000013" class="edge">
<title>Node1&#45;&gt;Node13</title>
<g id="a_edge15_Node000001_Node000013"><a xlink:title=" ">
<path fill="none" stroke="#63b8ff" d="M1209.16,-168.12C1222.14,-168.12 1235.54,-168.12 1248.35,-168.12"/>
<polygon fill="#63b8ff" stroke="#63b8ff" points="1209.39,-164.63 1199.39,-168.13 1209.39,-171.63 1209.39,-164.63"/>
</a>
</g>
</g>
<!-- Node17 -->
<g id="Node000017" class="node">
<title>Node17</title>
<g id="a_Node000017"><a xlink:href="class_c_p_s_1_1_e_m_t_1_1_v_type_variable_s_s_n_comp.html" target="_top" xlink:title="Abstract base class for variable EMT V&#45;type SSN components.">
<polygon fill="white" stroke="#666666" points="1410.25,-108.25 1234.5,-108.25 1234.5,-86 1410.25,-86 1410.25,-108.25"/>
<text text-anchor="middle" x="1322.38" y="-94.75" font-family="Helvetica,sans-Serif" font-size="10.00">CPS::EMT::VTypeVariableSSNComp</text>
</a>
</g>
</g>
<!-- Node1&#45;&gt;Node17 -->
<g id="edge19_Node000001_Node000017" class="edge">
<title>Node1&#45;&gt;Node17</title>
<g id="a_edge19_Node000001_Node000017"><a xlink:title=" ">
<path fill="none" stroke="#63b8ff" d="M1171.24,-152.64C1207.04,-139.4 1257.76,-120.65 1290.11,-108.69"/>
<polygon fill="#63b8ff" stroke="#63b8ff" points="1170.24,-149.28 1162.07,-156.03 1172.66,-155.85 1170.24,-149.28"/>
</a>
</g>
</g>
<!-- Node2 -->
<g id="Node000002" class="node">
<title>Node2</title>
<g id="a_Node000002"><a xlink:href="class_c_p_s_1_1_e_m_t_1_1_s_s_n_comp.html" target="_top" xlink:title="Abstract base class for EMT state&#45;space nodal (SSN) components.">
<polygon fill="white" stroke="#666666" points="1022.25,-179.25 912.5,-179.25 912.5,-157 1022.25,-157 1022.25,-179.25"/>
<text text-anchor="middle" x="967.38" y="-165.75" font-family="Helvetica,sans-Serif" font-size="10.00">CPS::EMT::SSNComp</text>
</a>
</g>
</g>
<!-- Node2&#45;&gt;Node1 -->
<g id="edge1_Node000001_Node000002" class="edge">
<title>Node2&#45;&gt;Node1</title>
<g id="a_edge1_Node000001_Node000002"><a xlink:title=" ">
<path fill="none" stroke="#63b8ff" d="M1034.1,-168.12C1042.32,-168.12 1050.74,-168.12 1059.01,-168.12"/>
<polygon fill="#63b8ff" stroke="#63b8ff" points="1034.16,-164.63 1024.16,-168.13 1034.16,-171.63 1034.16,-164.63"/>
</a>
</g>
</g>
<!-- Node3 -->
<g id="Node000003" class="node">
<title>Node3</title>
<g id="a_Node000003"><a xlink:href="class_c_p_s_1_1_m_n_a_sim_power_comp.html" target="_top" xlink:title=" ">
<polygon fill="white" stroke="#666666" points="875.5,-186.38 739.5,-186.38 739.5,-149.88 875.5,-149.88 875.5,-186.38"/>
<text text-anchor="start" x="747.5" y="-172.88" font-family="Helvetica,sans-Serif" font-size="10.00">CPS::MNASimPowerComp</text>
<text text-anchor="middle" x="807.5" y="-158.62" font-family="Helvetica,sans-Serif" font-size="10.00">&lt; Real &gt;</text>
</a>
</g>
</g>
<!-- Node3&#45;&gt;Node2 -->
<g id="edge2_Node000002_Node000003" class="edge">
<title>Node3&#45;&gt;Node2</title>
<g id="a_edge2_Node000002_Node000003"><a xlink:title=" ">
<path fill="none" stroke="#63b8ff" d="M887.3,-168.12C895.67,-168.12 904.05,-168.12 912.06,-168.12"/>
<polygon fill="#63b8ff" stroke="#63b8ff" points="887.42,-164.63 877.42,-168.13 887.42,-171.63 887.42,-164.63"/>
</a>
</g>
</g>
<!-- Node4 -->
<g id="Node000004" class="node">
<title>Node4</title>
<g id="a_Node000004"><a xlink:href="class_c_p_s_1_1_sim_power_comp.html" target="_top" xlink:title=" ">
<polygon fill="white" stroke="#666666" points="656.62,-131.38 537.88,-131.38 537.88,-94.88 656.62,-94.88 656.62,-131.38"/>
<text text-anchor="start" x="545.88" y="-117.88" font-family="Helvetica,sans-Serif" font-size="10.00">CPS::SimPowerComp&lt;</text>
<text text-anchor="middle" x="597.25" y="-103.62" font-family="Helvetica,sans-Serif" font-size="10.00"> Real &gt;</text>
</a>
</g>
</g>
<!-- Node4&#45;&gt;Node3 -->
<g id="edge3_Node000003_Node000004" class="edge">
<title>Node4&#45;&gt;Node3</title>
<g id="a_edge3_Node000003_Node000004"><a xlink:title=" ">
<path fill="none" stroke="#63b8ff" d="M668.15,-131.58C691.12,-137.65 716.6,-144.38 739.36,-150.39"/>
<polygon fill="#63b8ff" stroke="#63b8ff" points="669.12,-128.22 658.55,-129.05 667.33,-134.99 669.12,-128.22"/>
</a>
</g>
</g>
<!-- Node5 -->
<g id="Node000005" class="node">
<title>Node5</title>
<g id="a_Node000005"><a xlink:href="class_c_p_s_1_1_topological_power_comp.html" target="_top" xlink:title=" ">
<polygon fill="white" stroke="#666666" points="299.25,-129.25 152,-129.25 152,-107 299.25,-107 299.25,-129.25"/>
<text text-anchor="middle" x="225.62" y="-115.75" font-family="Helvetica,sans-Serif" font-size="10.00">CPS::TopologicalPowerComp</text>
</a>
</g>
</g>
<!-- Node5&#45;&gt;Node4 -->
<g id="edge4_Node000004_Node000005" class="edge">
<title>Node5&#45;&gt;Node4</title>
<g id="a_edge4_Node000004_Node000005"><a xlink:title=" ">
<path fill="none" stroke="#63b8ff" d="M310.96,-116.98C380.23,-116.05 476.56,-114.74 537.66,-113.92"/>
<polygon fill="#63b8ff" stroke="#63b8ff" points="311.12,-113.48 301.16,-117.12 311.21,-120.48 311.12,-113.48"/>
</a>
</g>
</g>
<!-- Node7 -->
<g id="Node000007" class="node">
<title>Node7</title>
<g id="a_Node000007"><a xlink:href="class_c_p_s_1_1_sim_power_comp.html" target="_top" xlink:title="Base class for all components that are transmitting power.">
<polygon fill="white" stroke="#666666" points="455,-90.38 336.25,-90.38 336.25,-53.88 455,-53.88 455,-90.38"/>
<text text-anchor="start" x="344.25" y="-76.88" font-family="Helvetica,sans-Serif" font-size="10.00">CPS::SimPowerComp&lt;</text>
<text text-anchor="middle" x="395.62" y="-62.62" font-family="Helvetica,sans-Serif" font-size="10.00"> VarType &gt;</text>
</a>
</g>
</g>
<!-- Node5&#45;&gt;Node7 -->
<g id="edge7_Node000007_Node000005" class="edge">
<title>Node5&#45;&gt;Node7</title>
<g id="a_edge7_Node000007_Node000005"><a xlink:title=" ">
<path fill="none" stroke="#63b8ff" d="M280.1,-103.48C297.92,-98.6 317.87,-93.14 336.07,-88.16"/>
<polygon fill="#63b8ff" stroke="#63b8ff" points="279.2,-100.1 270.48,-106.12 281.05,-106.85 279.2,-100.1"/>
</a>
</g>
</g>
<!-- Node10 -->
<g id="Node000010" class="node">
<title>Node10</title>
<g id="a_Node000010"><a xlink:href="class_c_p_s_1_1_sim_power_comp.html" target="_top" xlink:title="Base class for all components that are transmitting power.">
<polygon fill="white" stroke="#666666" points="455,-182.38 336.25,-182.38 336.25,-145.88 455,-145.88 455,-182.38"/>
<text text-anchor="start" x="344.25" y="-168.88" font-family="Helvetica,sans-Serif" font-size="10.00">CPS::SimPowerComp&lt;</text>
<text text-anchor="middle" x="395.62" y="-154.62" font-family="Helvetica,sans-Serif" font-size="10.00"> VarType &gt;</text>
</a>
</g>
</g>
<!-- Node5&#45;&gt;Node10 -->
<g id="edge11_Node000010_Node000005" class="edge">
<title>Node5&#45;&gt;Node10</title>
<g id="a_edge11_Node000010_Node000005"><a xlink:title=" ">
<path fill="none" stroke="#63b8ff" d="M280.1,-132.77C297.92,-137.65 317.87,-143.11 336.07,-148.09"/>
<polygon fill="#63b8ff" stroke="#63b8ff" points="281.05,-129.4 270.48,-130.13 279.2,-136.15 281.05,-129.4"/>
</a>
</g>
</g>
<!-- Node6 -->
<g id="Node000006" class="node">
<title>Node6</title>
<g id="a_Node000006"><a xlink:href="class_c_p_s_1_1_identified_object.html" target="_top" xlink:title=" ">
<polygon fill="white" stroke="#666666" points="115,-129.25 0,-129.25 0,-107 115,-107 115,-129.25"/>
<text text-anchor="middle" x="57.5" y="-115.75" font-family="Helvetica,sans-Serif" font-size="10.00">CPS::IdentifiedObject</text>
</a>
</g>
</g>
<!-- Node6&#45;&gt;Node5 -->
<g id="edge5_Node000005_Node000006" class="edge">
<title>Node6&#45;&gt;Node5</title>
<g id="a_edge5_Node000005_Node000006"><a xlink:title=" ">
<path fill="none" stroke="#63b8ff" d="M126.7,-118.12C134.95,-118.12 143.41,-118.12 151.73,-118.12"/>
<polygon fill="#63b8ff" stroke="#63b8ff" points="126.72,-114.63 116.72,-118.13 126.72,-121.63 126.72,-114.63"/>
</a>
</g>
</g>
<!-- Node7&#45;&gt;Node4 -->
<g id="edge6_Node000004_Node000007" class="edge">
<title>Node7&#45;&gt;Node4</title>
<g id="a_edge6_Node000004_Node000007"><a xlink:title=" ">
<path fill="none" stroke="orange" stroke-dasharray="5,2" d="M466.62,-81.67C481.41,-84.05 496.89,-86.81 511.25,-89.88 519.78,-91.7 528.72,-93.86 537.48,-96.12"/>
<polygon fill="orange" stroke="orange" points="467.38,-78.25 456.96,-80.16 466.3,-85.17 467.38,-78.25"/>
</a>
</g>
<text text-anchor="middle" x="492.12" y="-94.62" font-family="Helvetica,sans-Serif" font-size="10.00" fill="grey"> &lt; Real &gt;</text>
</g>
<!-- Node8 -->
<g id="Node000008" class="node">
<title>Node8</title>
<g id="a_Node000008"><a xlink:href="class_c_p_s_1_1_m_n_a_interface.html" target="_top" xlink:title="Interface to be implemented by all models used by the MNA solver.">
<polygon fill="white" stroke="#666666" points="448.62,-224.25 342.62,-224.25 342.62,-202 448.62,-202 448.62,-224.25"/>
<text text-anchor="middle" x="395.62" y="-210.75" font-family="Helvetica,sans-Serif" font-size="10.00">CPS::MNAInterface</text>
</a>
</g>
</g>
<!-- Node8&#45;&gt;Node3 -->
<g id="edge8_Node000003_Node000008" class="edge">
<title>Node8&#45;&gt;Node3</title>
<g id="a_edge8_Node000003_Node000008"><a xlink:title=" ">
<path fill="none" stroke="#63b8ff" d="M460.23,-210.51C514.75,-207.87 595.33,-203.04 665.25,-195.12 690.41,-192.28 696.61,-190.75 721.5,-186.12 727.28,-185.05 733.28,-183.89 739.28,-182.68"/>
<polygon fill="#63b8ff" stroke="#63b8ff" points="460.34,-207 450.51,-210.97 460.67,-213.99 460.34,-207"/>
</a>
</g>
</g>
<!-- Node9 -->
<g id="Node000009" class="node">
<title>Node9</title>
<g id="a_Node000009"><a xlink:href="class_c_p_s_1_1_m_n_a_sim_power_comp.html" target="_top" xlink:title="Base class for all MNA components that are transmitting power.">
<polygon fill="white" stroke="#666666" points="665.25,-186.38 529.25,-186.38 529.25,-149.88 665.25,-149.88 665.25,-186.38"/>
<text text-anchor="start" x="537.25" y="-172.88" font-family="Helvetica,sans-Serif" font-size="10.00">CPS::MNASimPowerComp</text>
<text text-anchor="middle" x="597.25" y="-158.62" font-family="Helvetica,sans-Serif" font-size="10.00">&lt; VarType &gt;</text>
</a>
</g>
</g>
<!-- Node8&#45;&gt;Node9 -->
<g id="edge12_Node000009_Node000008" class="edge">
<title>Node8&#45;&gt;Node9</title>
<g id="a_edge12_Node000009_Node000008"><a xlink:title=" ">
<path fill="none" stroke="#63b8ff" d="M459,-199.06C481.18,-194.06 506.24,-188.42 528.82,-183.33"/>
<polygon fill="#63b8ff" stroke="#63b8ff" points="458.5,-195.59 449.51,-201.2 460.03,-202.42 458.5,-195.59"/>
</a>
</g>
</g>
<!-- Node9&#45;&gt;Node3 -->
<g id="edge9_Node000003_Node000009" class="edge">
<title>Node9&#45;&gt;Node3</title>
<g id="a_edge9_Node000003_Node000009"><a xlink:title=" ">
<path fill="none" stroke="orange" stroke-dasharray="5,2" d="M677.08,-168.12C697.49,-168.12 719.28,-168.12 739.05,-168.12"/>
<polygon fill="orange" stroke="orange" points="677.09,-164.63 667.09,-168.13 677.09,-171.63 677.09,-164.63"/>
</a>
</g>
<text text-anchor="middle" x="702.38" y="-172.88" font-family="Helvetica,sans-Serif" font-size="10.00" fill="grey"> &lt; Real &gt;</text>
</g>
<!-- Node10&#45;&gt;Node9 -->
<g id="edge10_Node000009_Node000010" class="edge">
<title>Node10&#45;&gt;Node9</title>
<g id="a_edge10_Node000009_Node000010"><a xlink:title=" ">
<path fill="none" stroke="#63b8ff" d="M466.79,-165.53C487.03,-165.94 509.05,-166.38 529.09,-166.78"/>
<polygon fill="#63b8ff" stroke="#63b8ff" points="467.02,-162.03 456.95,-165.33 466.88,-169.03 467.02,-162.03"/>
</a>
</g>
</g>
<!-- Node12 -->
<g id="Node000012" class="node">
<title>Node12</title>
<g id="a_Node000012"><a xlink:href="class_c_p_s_1_1_e_m_t_1_1_ph3_1_1_generic_four_terminal_v_type_s_s_n.html" target="_top" xlink:title=" ">
<polygon fill="white" stroke="#bfbfbf" points="1594.5,-296.38 1447.25,-296.38 1447.25,-259.88 1594.5,-259.88 1594.5,-296.38"/>
<text text-anchor="start" x="1455.25" y="-282.88" font-family="Helvetica,sans-Serif" font-size="10.00">CPS::EMT::Ph3::GenericFour</text>
<text text-anchor="middle" x="1520.88" y="-268.62" font-family="Helvetica,sans-Serif" font-size="10.00">TerminalVTypeSSN</text>
</a>
</g>
</g>
<!-- Node11&#45;&gt;Node12 -->
<g id="edge14_Node000011_Node000012" class="edge">
<title>Node11&#45;&gt;Node12</title>
<g id="a_edge14_Node000011_Node000012"><a xlink:title=" ">
<path fill="none" stroke="#63b8ff" d="M1409.37,-266.31C1421.91,-267.66 1434.73,-269.03 1446.98,-270.33"/>
<polygon fill="#63b8ff" stroke="#63b8ff" points="1409.76,-262.84 1399.45,-265.25 1409.02,-269.8 1409.76,-262.84"/>
</a>
</g>
</g>
<!-- Node14 -->
<g id="Node000014" class="node">
<title>Node14</title>
<g id="a_Node000014"><a xlink:href="class_c_p_s_1_1_e_m_t_1_1_ph3_1_1_generic_two_terminal_v_type_s_s_n.html" target="_top" xlink:title="Concrete generic three&#45;phase, two&#45;terminal V&#45;type SSN component.">
<polygon fill="white" stroke="#666666" points="1593,-131.38 1448.75,-131.38 1448.75,-94.88 1593,-94.88 1593,-131.38"/>
<text text-anchor="start" x="1456.75" y="-117.88" font-family="Helvetica,sans-Serif" font-size="10.00">CPS::EMT::Ph3::GenericTwo</text>
<text text-anchor="middle" x="1520.88" y="-103.62" font-family="Helvetica,sans-Serif" font-size="10.00">TerminalVTypeSSN</text>
</a>
</g>
</g>
<!-- Node13&#45;&gt;Node14 -->
<g id="edge16_Node000013_Node000014" class="edge">
<title>Node13&#45;&gt;Node14</title>
<g id="a_edge16_Node000013_Node000014"><a xlink:title=" ">
<path fill="none" stroke="#63b8ff" d="M1401.26,-146.32C1418.35,-141.54 1436.31,-136.52 1452.93,-131.86"/>
<polygon fill="#63b8ff" stroke="#63b8ff" points="1400.32,-142.95 1391.63,-149.02 1402.21,-149.69 1400.32,-142.95"/>
</a>
</g>
</g>
<!-- Node15 -->
<g id="Node000015" class="node">
<title>Node15</title>
<g id="a_Node000015"><a xlink:href="class_c_p_s_1_1_e_m_t_1_1_ph3_1_1_s_s_n_1_1_full___serial___r_l_c.html" target="_top" xlink:title="Full_Serial_RLC.">
<polygon fill="white" stroke="#666666" points="1574.25,-241.38 1467.5,-241.38 1467.5,-204.88 1574.25,-204.88 1574.25,-241.38"/>
<text text-anchor="start" x="1475.5" y="-227.88" font-family="Helvetica,sans-Serif" font-size="10.00">CPS::EMT::Ph3::SSN</text>
<text text-anchor="middle" x="1520.88" y="-213.62" font-family="Helvetica,sans-Serif" font-size="10.00">::Full_Serial_RLC</text>
</a>
</g>
</g>
<!-- Node13&#45;&gt;Node15 -->
<g id="edge17_Node000013_Node000015" class="edge">
<title>Node13&#45;&gt;Node15</title>
<g id="a_edge17_Node000013_Node000015"><a xlink:title=" ">
<path fill="none" stroke="#63b8ff" d="M1401.25,-189.92C1423.38,-196.12 1446.96,-202.72 1467.22,-208.39"/>
<polygon fill="#63b8ff" stroke="#63b8ff" points="1402.21,-186.56 1391.63,-187.23 1400.32,-193.3 1402.21,-186.56"/>
</a>
</g>
</g>
<!-- Node16 -->
<g id="Node000016" class="node">
<title>Node16</title>
<g id="a_Node000016"><a xlink:href="class_c_p_s_1_1_e_m_t_1_1_ph3_1_1_s_s_n_1_1_inductor.html" target="_top" xlink:title="Inductor.">
<polygon fill="white" stroke="#666666" points="1574.25,-186.38 1467.5,-186.38 1467.5,-149.88 1574.25,-149.88 1574.25,-186.38"/>
<text text-anchor="start" x="1475.5" y="-172.88" font-family="Helvetica,sans-Serif" font-size="10.00">CPS::EMT::Ph3::SSN</text>
<text text-anchor="middle" x="1520.88" y="-158.62" font-family="Helvetica,sans-Serif" font-size="10.00">::Inductor</text>
</a>
</g>
</g>
<!-- Node13&#45;&gt;Node16 -->
<g id="edge18_Node000013_Node000016" class="edge">
<title>Node13&#45;&gt;Node16</title>
<g id="a_edge18_Node000013_Node000016"><a xlink:title=" ">
<path fill="none" stroke="#63b8ff" d="M1407.68,-168.12C1427.84,-168.12 1448.79,-168.12 1467.05,-168.12"/>
<polygon fill="#63b8ff" stroke="#63b8ff" points="1407.78,-164.63 1397.78,-168.13 1407.78,-171.63 1407.78,-164.63"/>
</a>
</g>
</g>
<!-- Node18 -->
<g id="Node000018" class="node">
<title>Node18</title>
<g id="a_Node000018"><a xlink:href="class_c_p_s_1_1_e_m_t_1_1_ph3_1_1_two_terminal_v_type_variable_s_s_n_comp.html" target="_top" xlink:title="Abstract base class for three&#45;phase, two&#45;terminal, variable V&#45;type SSN components.">
<polygon fill="white" stroke="#666666" points="1594.5,-76.38 1447.25,-76.38 1447.25,-39.88 1594.5,-39.88 1594.5,-76.38"/>
<text text-anchor="start" x="1455.25" y="-62.88" font-family="Helvetica,sans-Serif" font-size="10.00">CPS::EMT::Ph3::TwoTerminal</text>
<text text-anchor="middle" x="1520.88" y="-48.62" font-family="Helvetica,sans-Serif" font-size="10.00">VTypeVariableSSNComp</text>
</a>
</g>
</g>
<!-- Node17&#45;&gt;Node18 -->
<g id="edge20_Node000017_Node000018" class="edge">
<title>Node17&#45;&gt;Node18</title>
<g id="a_edge20_Node000017_Node000018"><a xlink:title=" ">
<path fill="none" stroke="#63b8ff" d="M1393.08,-83.29C1410.58,-79.82 1429.4,-76.08 1447.04,-72.58"/>
<polygon fill="#63b8ff" stroke="#63b8ff" points="1392.41,-79.85 1383.28,-85.23 1393.77,-86.72 1392.41,-79.85"/>
</a>
</g>
</g>
<!-- Node19 -->
<g id="Node000019" class="node">
<title>Node19</title>
<g id="a_Node000019"><a xlink:href="class_c_p_s_1_1_e_m_t_1_1_ph3_1_1_av_volt_source_inverter_state_space.html" target="_top" xlink:title=" ">
<polygon fill="white" stroke="#bfbfbf" points="1781.75,-131.38 1631.5,-131.38 1631.5,-94.88 1781.75,-94.88 1781.75,-131.38"/>
<text text-anchor="start" x="1639.5" y="-117.88" font-family="Helvetica,sans-Serif" font-size="10.00">CPS::EMT::Ph3::AvVoltSource</text>
<text text-anchor="middle" x="1706.62" y="-103.62" font-family="Helvetica,sans-Serif" font-size="10.00">InverterStateSpace</text>
</a>
</g>
</g>
<!-- Node18&#45;&gt;Node19 -->
<g id="edge21_Node000018_Node000019" class="edge">
<title>Node18&#45;&gt;Node19</title>
<g id="a_edge21_Node000018_Node000019"><a xlink:title=" ">
<path fill="none" stroke="#63b8ff" d="M1595.16,-80.06C1611.01,-84.81 1627.63,-89.78 1643.02,-94.39"/>
<polygon fill="#63b8ff" stroke="#63b8ff" points="1596.37,-76.77 1585.79,-77.26 1594.37,-83.48 1596.37,-76.77"/>
</a>
</g>
</g>
<!-- Node20 -->
<g id="Node000020" class="node">
<title>Node20</title>
<g id="a_Node000020"><a xlink:href="class_c_p_s_1_1_e_m_t_1_1_ph3_1_1_piecewise_linear_inductor.html" target="_top" xlink:title="Three&#45;phase, two&#45;terminal, piecewise&#45;linear flux&#45;state inductor.">
<polygon fill="white" stroke="#666666" points="1773.12,-76.38 1640.12,-76.38 1640.12,-39.88 1773.12,-39.88 1773.12,-76.38"/>
<text text-anchor="start" x="1648.12" y="-62.88" font-family="Helvetica,sans-Serif" font-size="10.00">CPS::EMT::Ph3::Piecewise</text>
<text text-anchor="middle" x="1706.62" y="-48.62" font-family="Helvetica,sans-Serif" font-size="10.00">LinearInductor</text>
</a>
</g>
</g>
<!-- Node18&#45;&gt;Node20 -->
<g id="edge22_Node000018_Node000020" class="edge">
<title>Node18&#45;&gt;Node20</title>
<g id="a_edge22_Node000018_Node000020"><a xlink:title=" ">
<path fill="none" stroke="#63b8ff" d="M1605.99,-58.12C1617.29,-58.12 1628.75,-58.12 1639.68,-58.12"/>
<polygon fill="#63b8ff" stroke="#63b8ff" points="1606.28,-54.63 1596.28,-58.13 1606.28,-61.63 1606.28,-54.63"/>
</a>
</g>
</g>
<!-- Node21 -->
<g id="Node000021" class="node">
<title>Node21</title>
<g id="a_Node000021"><a xlink:href="class_c_p_s_1_1_e_m_t_1_1_ph3_1_1_s_s_n___g_f_m.html" target="_top" xlink:title="Three&#45;phase grid&#45;forming inverter represented by a locally linearized affine state&#45;space model.">
<polygon fill="white" stroke="#666666" points="1773.12,-22.25 1640.12,-22.25 1640.12,0 1773.12,0 1773.12,-22.25"/>
<text text-anchor="middle" x="1706.62" y="-8.75" font-family="Helvetica,sans-Serif" font-size="10.00">CPS::EMT::Ph3::SSN_GFM</text>
</a>
</g>
</g>
<!-- Node18&#45;&gt;Node21 -->
<g id="edge23_Node000018_Node000021" class="edge">
<title>Node18&#45;&gt;Node21</title>
<g id="a_edge23_Node000018_Node000021"><a xlink:title=" ">
<path fill="none" stroke="#63b8ff" d="M1605.76,-36.67C1624.57,-31.86 1643.83,-26.93 1660.36,-22.7"/>
<polygon fill="#63b8ff" stroke="#63b8ff" points="1605.05,-33.24 1596.23,-39.11 1606.78,-40.02 1605.05,-33.24"/>
</a>
</g>
</g>
</g>
</svg>
