<?xml version="1.0" encoding="UTF-8" standalone="no"?>
<!DOCTYPE svg PUBLIC "-//W3C//DTD SVG 1.1//EN"
 "http://www.w3.org/Graphics/SVG/1.1/DTD/svg11.dtd">
<!-- Generated by graphviz version 2.50.0 (0)
 -->
<!-- Title: CPS::EMT::Ph3::Switch Pages: 1 -->
<!--zoomable 461 -->
<svg id="main" version="1.1" xmlns="http://www.w3.org/2000/svg" xmlns:xlink="http://www.w3.org/1999/xlink" xml:space="preserve" onload="init(evt)">
<style type="text/css"><![CDATA[
.edge:hover path { stroke: red; }
.edge:hover polygon { stroke: red; fill: red; }
]]></style>
<script type="text/javascript"><![CDATA[
var edges = document.getElementsByTagName('g');
if (edges && edges.length) {
  for (var i=0;i<edges.length;i++) {
    if (edges[i].id.substr(0,4)=='edge') {
      edges[i].setAttribute('class','edge');
    }
  }
}
]]></script>
        <defs>
                <circle id="rim" cx="0" cy="0" r="7"/>
                <circle id="rim2" cx="0" cy="0" r="3.5"/>
                <g id="zoomPlus">
                        <use xlink:href="#rim" fill="#404040">
                                <set attributeName="fill" to="#808080" begin="zoomplus.mouseover" end="zoomplus.mouseout"/>
                        </use>
                        <path d="M-4,0h8M0,-4v8" fill="none" stroke="white" stroke-width="1.5" pointer-events="none"/>
                </g>
                <g id="zoomMin">
                        <use xlink:href="#rim" fill="#404040">
                                <set attributeName="fill" to="#808080" begin="zoomminus.mouseover" end="zoomminus.mouseout"/>
                        </use>
                        <path d="M-4,0h8" fill="none" stroke="white" stroke-width="1.5" pointer-events="none"/>
                </g>
                <g id="dirArrow">
                        <path fill="none" stroke="white" stroke-width="1.5" d="M0,-3.0v7 M-2.5,-0.5L0,-3.0L2.5,-0.5"/>
                </g>
               <g id="resetDef">
                       <use xlink:href="#rim2" fill="#404040">
                               <set attributeName="fill" to="#808080" begin="reset.mouseover" end="reset.mouseout"/>
                       </use>
               </g>
        </defs>

<script type="text/javascript">
var viewWidth = 1906;
var viewHeight = 461;
var sectionId = 'dynsection-1';
</script>
<script xlink:href="svgpan.js"/>
<svg id="graph" class="graph">
<g id="viewport">
<title>CPS::EMT::Ph3::Switch</title>
<!-- Node1 -->
<g id="node1" class="node">
<title>Node1</title>
<g id="a_node1"><a xlink:title="Dynamic phasor switch.">
<polygon fill="#bfbfbf" stroke="black" points="1779,-85.5 1779,-104.5 1898,-104.5 1898,-85.5 1779,-85.5"/>
<text text-anchor="middle" x="1838.5" y="-92.5" font-family="Helvetica,sans-Serif" font-size="10.00">CPS::EMT::Ph3::Switch</text>
</a>
</g>
</g>
<!-- Node2 -->
<g id="node2" class="node">
<title>Node2</title>
<g id="a_node2"><a xlink:href="class_c_p_s_1_1_m_n_a_sim_power_comp.html" target="_top" xlink:title=" ">
<polygon fill="none" stroke="black" points="1605,-183 1605,-213 1742,-213 1742,-183 1605,-183"/>
<text text-anchor="start" x="1613" y="-201" font-family="Helvetica,sans-Serif" font-size="10.00">CPS::MNASimPowerComp</text>
<text text-anchor="middle" x="1673.5" y="-190" font-family="Helvetica,sans-Serif" font-size="10.00">&lt; Real &gt;</text>
</a>
</g>
</g>
<!-- Node2&#45;&gt;Node1 -->
<g id="edge1" class="edge">
<title>Node2&#45;&gt;Node1</title>
<path fill="none" stroke="midnightblue" d="M1707.43,-177.19C1742.37,-155.11 1796.05,-121.19 1822.17,-104.69"/>
<polygon fill="midnightblue" stroke="midnightblue" points="1705.14,-174.5 1698.55,-182.8 1708.87,-180.42 1705.14,-174.5"/>
</g>
<!-- Node3 -->
<g id="node3" class="node">
<title>Node3</title>
<g id="a_node3"><a xlink:href="class_c_p_s_1_1_sim_power_comp.html" target="_top" xlink:title=" ">
<polygon fill="none" stroke="black" points="1392,-285 1392,-315 1511,-315 1511,-285 1392,-285"/>
<text text-anchor="start" x="1400" y="-303" font-family="Helvetica,sans-Serif" font-size="10.00">CPS::SimPowerComp&lt;</text>
<text text-anchor="middle" x="1451.5" y="-292" font-family="Helvetica,sans-Serif" font-size="10.00"> Real &gt;</text>
</a>
</g>
</g>
<!-- Node3&#45;&gt;Node2 -->
<g id="edge2" class="edge">
<title>Node3&#45;&gt;Node2</title>
<path fill="none" stroke="midnightblue" d="M1520.35,-281.87C1542.14,-274.98 1566.06,-266.28 1587,-256 1611.32,-244.07 1636.69,-226.03 1653.42,-213.25"/>
<polygon fill="midnightblue" stroke="midnightblue" points="1519.02,-278.61 1510.5,-284.91 1521.09,-285.3 1519.02,-278.61"/>
</g>
<!-- Node4 -->
<g id="node4" class="node">
<title>Node4</title>
<g id="a_node4"><a xlink:href="class_c_p_s_1_1_topological_power_comp.html" target="_top" xlink:title=" ">
<polygon fill="none" stroke="black" points="938,-316.5 938,-335.5 1086,-335.5 1086,-316.5 938,-316.5"/>
<text text-anchor="middle" x="1012" y="-323.5" font-family="Helvetica,sans-Serif" font-size="10.00">CPS::TopologicalPowerComp</text>
</a>
</g>
</g>
<!-- Node4&#45;&gt;Node3 -->
<g id="edge3" class="edge">
<title>Node4&#45;&gt;Node3</title>
<path fill="none" stroke="midnightblue" d="M1096.44,-321.57C1167.77,-317.71 1273.15,-311.83 1365,-306 1373.61,-305.45 1382.71,-304.85 1391.64,-304.23"/>
<polygon fill="midnightblue" stroke="midnightblue" points="1095.96,-318.09 1086.16,-322.13 1096.34,-325.08 1095.96,-318.09"/>
</g>
<!-- Node11 -->
<g id="node11" class="node">
<title>Node11</title>
<g id="a_node11"><a xlink:href="class_c_p_s_1_1_sim_power_comp.html" target="_top" xlink:title="Base class for all components that are transmitting power.">
<polygon fill="none" stroke="black" points="1189,-265 1189,-295 1308,-295 1308,-265 1189,-265"/>
<text text-anchor="start" x="1197" y="-283" font-family="Helvetica,sans-Serif" font-size="10.00">CPS::SimPowerComp&lt;</text>
<text text-anchor="middle" x="1248.5" y="-272" font-family="Helvetica,sans-Serif" font-size="10.00"> VarType &gt;</text>
</a>
</g>
</g>
<!-- Node4&#45;&gt;Node11 -->
<g id="edge12" class="edge">
<title>Node4&#45;&gt;Node11</title>
<path fill="none" stroke="midnightblue" d="M1071.85,-314.46C1107.53,-307.46 1152.9,-298.56 1188.59,-291.56"/>
<polygon fill="midnightblue" stroke="midnightblue" points="1070.73,-311.11 1061.59,-316.47 1072.08,-317.98 1070.73,-311.11"/>
</g>
<!-- Node5 -->
<g id="node5" class="node">
<title>Node5</title>
<g id="a_node5"><a xlink:href="class_c_p_s_1_1_identified_object.html" target="_top" xlink:title=" ">
<polygon fill="none" stroke="black" points="718,-334.5 718,-353.5 834,-353.5 834,-334.5 718,-334.5"/>
<text text-anchor="middle" x="776" y="-341.5" font-family="Helvetica,sans-Serif" font-size="10.00">CPS::IdentifiedObject</text>
</a>
</g>
</g>
<!-- Node5&#45;&gt;Node4 -->
<g id="edge4" class="edge">
<title>Node5&#45;&gt;Node4</title>
<path fill="none" stroke="midnightblue" d="M844.38,-338.82C873.67,-336.56 908.06,-333.92 937.96,-331.62"/>
<polygon fill="midnightblue" stroke="midnightblue" points="843.94,-335.34 834.24,-339.6 844.48,-342.32 843.94,-335.34"/>
</g>
<!-- Node6 -->
<g id="node6" class="node">
<title>Node6</title>
<g id="a_node6"><a xlink:href="class_c_p_s_1_1_attribute.html" target="_top" xlink:title=" ">
<polygon fill="none" stroke="black" points="456,-346.5 456,-365.5 583,-365.5 583,-346.5 456,-346.5"/>
<text text-anchor="middle" x="519.5" y="-353.5" font-family="Helvetica,sans-Serif" font-size="10.00">CPS::Attribute&lt; String &gt;</text>
</a>
</g>
</g>
<!-- Node6&#45;&gt;Node5 -->
<g id="edge5" class="edge">
<title>Node6&#45;&gt;Node5</title>
<path fill="none" stroke="#9a32cd" stroke-dasharray="5,2" d="M593.21,-352.57C632.78,-350.71 681.03,-348.43 717.88,-346.69"/>
<polygon fill="#9a32cd" stroke="#9a32cd" points="592.91,-349.08 583.08,-353.05 593.24,-356.07 592.91,-349.08"/>
<text text-anchor="middle" x="651.5" y="-365" font-family="Helvetica,sans-Serif" font-size="10.00"> mName</text>
<text text-anchor="middle" x="651.5" y="-354" font-family="Helvetica,sans-Serif" font-size="10.00">mUID</text>
</g>
<!-- Node7 -->
<g id="node7" class="node">
<title>Node7</title>
<g id="a_node7"><a xlink:href="class_c_p_s_1_1_attribute_base.html" target="_top" xlink:title=" ">
<polygon fill="none" stroke="black" points="5.5,-196.5 5.5,-215.5 110.5,-215.5 110.5,-196.5 5.5,-196.5"/>
<text text-anchor="middle" x="58" y="-203.5" font-family="Helvetica,sans-Serif" font-size="10.00">CPS::AttributeBase</text>
</a>
</g>
</g>
<!-- Node7&#45;&gt;Node6 -->
<g id="edge6" class="edge">
<title>Node7&#45;&gt;Node6</title>
<path fill="none" stroke="midnightblue" d="M62.36,-225.82C70.19,-265.04 93.71,-351.89 153,-388 266.97,-457.41 439.18,-391.79 497.98,-365.65"/>
<polygon fill="midnightblue" stroke="midnightblue" points="65.78,-225.08 60.51,-215.89 58.9,-226.36 65.78,-225.08"/>
</g>
<!-- Node9 -->
<g id="node9" class="node">
<title>Node9</title>
<g id="a_node9"><a xlink:href="class_c_p_s_1_1_attribute.html" target="_top" xlink:title=" ">
<polygon fill="none" stroke="black" points="172,-237.5 172,-256.5 276,-256.5 276,-237.5 172,-237.5"/>
<text text-anchor="middle" x="224" y="-244.5" font-family="Helvetica,sans-Serif" font-size="10.00">CPS::Attribute&lt; T &gt;</text>
</a>
</g>
</g>
<!-- Node7&#45;&gt;Node9 -->
<g id="edge9" class="edge">
<title>Node7&#45;&gt;Node9</title>
<path fill="none" stroke="midnightblue" d="M106.98,-217.99C131.79,-224.2 161.67,-231.67 184.89,-237.47"/>
<polygon fill="midnightblue" stroke="midnightblue" points="107.59,-214.54 97.04,-215.51 105.89,-221.33 107.59,-214.54"/>
</g>
<!-- Node12 -->
<g id="node12" class="node">
<title>Node12</title>
<g id="a_node12"><a xlink:href="class_c_p_s_1_1_attribute.html" target="_top" xlink:title=" ">
<polygon fill="none" stroke="black" points="451,-258 451,-288 588,-288 588,-258 451,-258"/>
<text text-anchor="start" x="459" y="-276" font-family="Helvetica,sans-Serif" font-size="10.00">CPS::Attribute&lt; MatrixVar</text>
<text text-anchor="middle" x="519.5" y="-265" font-family="Helvetica,sans-Serif" font-size="10.00">&lt; VarType &gt; &gt;</text>
</a>
</g>
</g>
<!-- Node7&#45;&gt;Node12 -->
<g id="edge14" class="edge">
<title>Node7&#45;&gt;Node12</title>
<path fill="none" stroke="midnightblue" d="M120.85,-198.82C196.35,-192.19 327.05,-187.67 433,-220 458.56,-227.8 484.11,-245.21 500.53,-257.95"/>
<polygon fill="midnightblue" stroke="midnightblue" points="120.21,-195.36 110.58,-199.77 120.85,-202.33 120.21,-195.36"/>
</g>
<!-- Node15 -->
<g id="node15" class="node">
<title>Node15</title>
<g id="a_node15"><a xlink:href="class_c_p_s_1_1_attribute.html" target="_top" xlink:title=" ">
<polygon fill="none" stroke="black" points="455,-136.5 455,-155.5 584,-155.5 584,-136.5 455,-136.5"/>
<text text-anchor="middle" x="519.5" y="-143.5" font-family="Helvetica,sans-Serif" font-size="10.00">CPS::Attribute&lt; Matrix &gt;</text>
</a>
</g>
</g>
<!-- Node7&#45;&gt;Node15 -->
<g id="edge19" class="edge">
<title>Node7&#45;&gt;Node15</title>
<path fill="none" stroke="midnightblue" d="M119.48,-194.64C124.39,-193.74 129.28,-192.85 134,-192 213.46,-177.7 232.86,-170.84 313,-161 360.4,-155.18 414.25,-151.35 454.93,-149.02"/>
<polygon fill="midnightblue" stroke="midnightblue" points="118.61,-191.24 109.41,-196.5 119.88,-198.12 118.61,-191.24"/>
</g>
<!-- Node19 -->
<g id="node19" class="node">
<title>Node19</title>
<g id="a_node19"><a xlink:href="class_c_p_s_1_1_attribute.html" target="_top" xlink:title=" ">
<polygon fill="none" stroke="black" points="459.5,-62.5 459.5,-81.5 579.5,-81.5 579.5,-62.5 459.5,-62.5"/>
<text text-anchor="middle" x="519.5" y="-69.5" font-family="Helvetica,sans-Serif" font-size="10.00">CPS::Attribute&lt; Bool &gt;</text>
</a>
</g>
</g>
<!-- Node7&#45;&gt;Node19 -->
<g id="edge28" class="edge">
<title>Node7&#45;&gt;Node19</title>
<path fill="none" stroke="midnightblue" d="M67.68,-187.21C81.41,-159.95 110.98,-110.36 153,-89 204.89,-62.63 369.77,-65.3 459.3,-68.95"/>
<polygon fill="midnightblue" stroke="midnightblue" points="64.4,-185.93 63.19,-196.46 70.7,-188.99 64.4,-185.93"/>
</g>
<!-- Node8 -->
<g id="node8" class="node">
<title>Node8</title>
<g id="a_node8"><a xlink:title=" ">
<polygon fill="none" stroke="#bfbfbf" points="166,-337.5 166,-378.5 282,-378.5 282,-337.5 166,-337.5"/>
<text text-anchor="start" x="174" y="-366.5" font-family="Helvetica,sans-Serif" font-size="10.00">std::enable_shared</text>
<text text-anchor="start" x="174" y="-355.5" font-family="Helvetica,sans-Serif" font-size="10.00">_from_this&lt; Attribute</text>
<text text-anchor="middle" x="224" y="-344.5" font-family="Helvetica,sans-Serif" font-size="10.00">&lt; String &gt; &gt;</text>
</a>
</g>
</g>
<!-- Node8&#45;&gt;Node6 -->
<g id="edge7" class="edge">
<title>Node8&#45;&gt;Node6</title>
<path fill="none" stroke="midnightblue" d="M292.51,-357.54C341.66,-357.21 407.76,-356.75 455.77,-356.43"/>
<polygon fill="midnightblue" stroke="midnightblue" points="292.26,-354.04 282.29,-357.61 292.31,-361.04 292.26,-354.04"/>
</g>
<!-- Node9&#45;&gt;Node6 -->
<g id="edge8" class="edge">
<title>Node9&#45;&gt;Node6</title>
<path fill="none" stroke="orange" stroke-dasharray="5,2" d="M273.99,-259.66C281.17,-262.1 288.37,-264.88 295,-268 303.7,-272.09 304.43,-275.64 313,-280 371.3,-309.7 444.02,-333.8 485.47,-346.41"/>
<polygon fill="orange" stroke="orange" points="274.87,-256.27 264.28,-256.56 272.73,-262.94 274.87,-256.27"/>
<text text-anchor="middle" x="373" y="-330" font-family="Helvetica,sans-Serif" font-size="10.00"> &lt; String &gt;</text>
</g>
<!-- Node9&#45;&gt;Node12 -->
<g id="edge16" class="edge">
<title>Node9&#45;&gt;Node12</title>
<path fill="none" stroke="orange" stroke-dasharray="5,2" d="M286.09,-252.41C334.19,-256.67 401.19,-262.61 450.9,-267.01"/>
<polygon fill="orange" stroke="orange" points="286.39,-248.93 276.12,-251.53 285.78,-255.9 286.39,-248.93"/>
<text text-anchor="middle" x="373" y="-268" font-family="Helvetica,sans-Serif" font-size="10.00"> &lt; MatrixVar&lt; VarType &gt; &gt;</text>
</g>
<!-- Node9&#45;&gt;Node15 -->
<g id="edge21" class="edge">
<title>Node9&#45;&gt;Node15</title>
<path fill="none" stroke="orange" stroke-dasharray="5,2" d="M286.09,-236.34C328.3,-227.87 385.21,-214.24 433,-195 459.66,-184.27 488.15,-166.52 504.59,-155.58"/>
<polygon fill="orange" stroke="orange" points="285.38,-232.91 276.24,-238.28 286.73,-239.78 285.38,-232.91"/>
<text text-anchor="middle" x="373" y="-232" font-family="Helvetica,sans-Serif" font-size="10.00"> &lt; Matrix &gt;</text>
</g>
<!-- Node9&#45;&gt;Node19 -->
<g id="edge30" class="edge">
<title>Node9&#45;&gt;Node19</title>
<path fill="none" stroke="orange" stroke-dasharray="5,2" d="M243.96,-231.09C261.34,-216.86 288.09,-195.87 313,-180 377.58,-138.85 459.5,-99.29 497.44,-81.63"/>
<polygon fill="orange" stroke="orange" points="241.71,-228.41 236.23,-237.47 246.17,-233.8 241.71,-228.41"/>
<text text-anchor="middle" x="373" y="-183" font-family="Helvetica,sans-Serif" font-size="10.00"> &lt; Bool &gt;</text>
</g>
<!-- Node10 -->
<g id="node10" class="node">
<title>Node10</title>
<g id="a_node10"><a xlink:title=" ">
<polygon fill="none" stroke="#bfbfbf" points="0,-411.5 0,-452.5 116,-452.5 116,-411.5 0,-411.5"/>
<text text-anchor="start" x="8" y="-440.5" font-family="Helvetica,sans-Serif" font-size="10.00">std::enable_shared</text>
<text text-anchor="start" x="8" y="-429.5" font-family="Helvetica,sans-Serif" font-size="10.00">_from_this&lt; Attribute</text>
<text text-anchor="middle" x="58" y="-418.5" font-family="Helvetica,sans-Serif" font-size="10.00">&lt; T &gt; &gt;</text>
</a>
</g>
</g>
<!-- Node10&#45;&gt;Node9 -->
<g id="edge10" class="edge">
<title>Node10&#45;&gt;Node9</title>
<path fill="none" stroke="midnightblue" d="M68.58,-401.55C81.75,-364.62 108.95,-302.97 153,-268 159.06,-263.19 166.21,-259.48 173.58,-256.62"/>
<polygon fill="midnightblue" stroke="midnightblue" points="65.18,-400.68 65.24,-411.27 71.8,-402.96 65.18,-400.68"/>
</g>
<!-- Node11&#45;&gt;Node3 -->
<g id="edge11" class="edge">
<title>Node11&#45;&gt;Node3</title>
<path fill="none" stroke="orange" stroke-dasharray="5,2" d="M1318.24,-286.84C1342.15,-289.22 1368.73,-291.86 1391.75,-294.15"/>
<polygon fill="orange" stroke="orange" points="1318.48,-283.35 1308.18,-285.84 1317.78,-290.31 1318.48,-283.35"/>
<text text-anchor="middle" x="1345.5" y="-294" font-family="Helvetica,sans-Serif" font-size="10.00"> &lt; Real &gt;</text>
</g>
<!-- Node17 -->
<g id="node17" class="node">
<title>Node17</title>
<g id="a_node17"><a xlink:href="class_c_p_s_1_1_m_n_a_sim_power_comp.html" target="_top" xlink:title="Base class for all MNA components that are transmitting power.">
<polygon fill="none" stroke="black" points="1383,-183 1383,-213 1520,-213 1520,-183 1383,-183"/>
<text text-anchor="start" x="1391" y="-201" font-family="Helvetica,sans-Serif" font-size="10.00">CPS::MNASimPowerComp</text>
<text text-anchor="middle" x="1451.5" y="-190" font-family="Helvetica,sans-Serif" font-size="10.00">&lt; VarType &gt;</text>
</a>
</g>
</g>
<!-- Node11&#45;&gt;Node17 -->
<g id="edge23" class="edge">
<title>Node11&#45;&gt;Node17</title>
<path fill="none" stroke="midnightblue" d="M1296.08,-261C1331.8,-246.42 1380.45,-226.58 1413.53,-213.08"/>
<polygon fill="midnightblue" stroke="midnightblue" points="1294.3,-257.94 1286.37,-264.96 1296.95,-264.42 1294.3,-257.94"/>
</g>
<!-- Node12&#45;&gt;Node11 -->
<g id="edge13" class="edge">
<title>Node12&#45;&gt;Node11</title>
<path fill="none" stroke="#9a32cd" stroke-dasharray="5,2" d="M598.5,-273.75C745.1,-275.16 1058.67,-278.18 1188.91,-279.44"/>
<polygon fill="#9a32cd" stroke="#9a32cd" points="598.27,-270.25 588.24,-273.65 598.21,-277.25 598.27,-270.25"/>
<text text-anchor="middle" x="887.5" y="-290" font-family="Helvetica,sans-Serif" font-size="10.00"> mIntfCurrent</text>
<text text-anchor="middle" x="887.5" y="-279" font-family="Helvetica,sans-Serif" font-size="10.00">mIntfVoltage</text>
</g>
<!-- Node13 -->
<g id="node13" class="node">
<title>Node13</title>
<g id="a_node13"><a xlink:title=" ">
<polygon fill="none" stroke="#bfbfbf" points="153,-277.5 153,-318.5 295,-318.5 295,-277.5 153,-277.5"/>
<text text-anchor="start" x="161" y="-306.5" font-family="Helvetica,sans-Serif" font-size="10.00">std::enable_shared</text>
<text text-anchor="start" x="161" y="-295.5" font-family="Helvetica,sans-Serif" font-size="10.00">_from_this&lt; Attribute</text>
<text text-anchor="middle" x="224" y="-284.5" font-family="Helvetica,sans-Serif" font-size="10.00">&lt; MatrixVar&lt; VarType &gt; &gt; &gt;</text>
</a>
</g>
</g>
<!-- Node13&#45;&gt;Node12 -->
<g id="edge15" class="edge">
<title>Node13&#45;&gt;Node12</title>
<path fill="none" stroke="midnightblue" d="M305.46,-318.94C344.43,-325.85 391.65,-329.42 433,-319 456.7,-313.03 480.98,-299.06 497.58,-288.08"/>
<polygon fill="midnightblue" stroke="midnightblue" points="305.69,-315.42 295.21,-317.01 304.39,-322.3 305.69,-315.42"/>
</g>
<!-- Node14 -->
<g id="node14" class="node">
<title>Node14</title>
<g id="a_node14"><a xlink:href="class_c_p_s_1_1_m_n_a_interface.html" target="_top" xlink:title="Interface to be implemented by all models used by the MNA solver.">
<polygon fill="none" stroke="black" points="1195,-222.5 1195,-241.5 1302,-241.5 1302,-222.5 1195,-222.5"/>
<text text-anchor="middle" x="1248.5" y="-229.5" font-family="Helvetica,sans-Serif" font-size="10.00">CPS::MNAInterface</text>
</a>
</g>
</g>
<!-- Node14&#45;&gt;Node2 -->
<g id="edge17" class="edge">
<title>Node14&#45;&gt;Node2</title>
<path fill="none" stroke="midnightblue" d="M1312.5,-231.95C1367.4,-231.42 1449.11,-229.45 1520,-223 1549.98,-220.27 1557.28,-217.82 1587,-213 1592.8,-212.06 1598.82,-211.06 1604.85,-210.03"/>
<polygon fill="midnightblue" stroke="midnightblue" points="1312.2,-228.45 1302.23,-232.03 1312.25,-235.45 1312.2,-228.45"/>
</g>
<!-- Node14&#45;&gt;Node17 -->
<g id="edge24" class="edge">
<title>Node14&#45;&gt;Node17</title>
<path fill="none" stroke="midnightblue" d="M1312.12,-221.41C1334.53,-217.62 1359.89,-213.33 1382.72,-209.46"/>
<polygon fill="midnightblue" stroke="midnightblue" points="1311.32,-217.99 1302.05,-223.11 1312.49,-224.89 1311.32,-217.99"/>
</g>
<!-- Node15&#45;&gt;Node2 -->
<g id="edge18" class="edge">
<title>Node15&#45;&gt;Node2</title>
<path fill="none" stroke="#9a32cd" stroke-dasharray="5,2" d="M594.27,-146C645.08,-146 714.13,-146 775,-146 775,-146 775,-146 1452.5,-146 1517.26,-146 1589.93,-167.6 1633.41,-182.96"/>
<polygon fill="#9a32cd" stroke="#9a32cd" points="594.04,-142.5 584.04,-146 594.04,-149.5 594.04,-142.5"/>
<text text-anchor="middle" x="1137.5" y="-149" font-family="Helvetica,sans-Serif" font-size="10.00"> mRightVector</text>
</g>
<!-- Node15&#45;&gt;Node17 -->
<g id="edge25" class="edge">
<title>Node15&#45;&gt;Node17</title>
<path fill="none" stroke="#9a32cd" stroke-dasharray="5,2" d="M562.11,-158.25C612.17,-171.87 698.97,-192 775,-192 775,-192 775,-192 1249.5,-192 1293.84,-192 1343.65,-193.48 1382.6,-194.96"/>
<polygon fill="#9a32cd" stroke="#9a32cd" points="562.88,-154.83 552.31,-155.53 561.01,-161.57 562.88,-154.83"/>
<text text-anchor="middle" x="1012" y="-195" font-family="Helvetica,sans-Serif" font-size="10.00"> mRightVector</text>
</g>
<!-- Node18 -->
<g id="node18" class="node">
<title>Node18</title>
<g id="a_node18"><a xlink:href="class_c_p_s_1_1_base_1_1_ph3_1_1_switch.html" target="_top" xlink:title="Dynamic Phasor Three&#45;Phase Switch.">
<polygon fill="none" stroke="black" points="715,-98.5 715,-117.5 837,-117.5 837,-98.5 715,-98.5"/>
<text text-anchor="middle" x="776" y="-105.5" font-family="Helvetica,sans-Serif" font-size="10.00">CPS::Base::Ph3::Switch</text>
</a>
</g>
</g>
<!-- Node15&#45;&gt;Node18 -->
<g id="edge31" class="edge">
<title>Node15&#45;&gt;Node18</title>
<path fill="none" stroke="#9a32cd" stroke-dasharray="5,2" d="M546.57,-131.91C563.08,-123.78 585.17,-114.33 606,-110 641.62,-102.59 682.39,-101.89 714.95,-103.13"/>
<polygon fill="#9a32cd" stroke="#9a32cd" points="544.87,-128.84 537.54,-136.49 548.04,-135.08 544.87,-128.84"/>
<text text-anchor="middle" x="651.5" y="-124" font-family="Helvetica,sans-Serif" font-size="10.00"> mClosedResistance</text>
<text text-anchor="middle" x="651.5" y="-113" font-family="Helvetica,sans-Serif" font-size="10.00">mOpenResistance</text>
</g>
<!-- Node16 -->
<g id="node16" class="node">
<title>Node16</title>
<g id="a_node16"><a xlink:title=" ">
<polygon fill="none" stroke="#bfbfbf" points="166,-98.5 166,-139.5 282,-139.5 282,-98.5 166,-98.5"/>
<text text-anchor="start" x="174" y="-127.5" font-family="Helvetica,sans-Serif" font-size="10.00">std::enable_shared</text>
<text text-anchor="start" x="174" y="-116.5" font-family="Helvetica,sans-Serif" font-size="10.00">_from_this&lt; Attribute</text>
<text text-anchor="middle" x="224" y="-105.5" font-family="Helvetica,sans-Serif" font-size="10.00">&lt; Matrix &gt; &gt;</text>
</a>
</g>
</g>
<!-- Node16&#45;&gt;Node15 -->
<g id="edge20" class="edge">
<title>Node16&#45;&gt;Node15</title>
<path fill="none" stroke="midnightblue" d="M292.15,-122.09C332.96,-124.32 386.07,-127.86 433,-133 441.81,-133.96 451.09,-135.17 460.17,-136.47"/>
<polygon fill="midnightblue" stroke="midnightblue" points="292.23,-118.59 282.06,-121.55 291.85,-125.58 292.23,-118.59"/>
</g>
<!-- Node17&#45;&gt;Node2 -->
<g id="edge22" class="edge">
<title>Node17&#45;&gt;Node2</title>
<path fill="none" stroke="orange" stroke-dasharray="5,2" d="M1530.26,-198C1554.57,-198 1581.18,-198 1604.75,-198"/>
<polygon fill="orange" stroke="orange" points="1530,-194.5 1520,-198 1530,-201.5 1530,-194.5"/>
<text text-anchor="middle" x="1562.5" y="-201" font-family="Helvetica,sans-Serif" font-size="10.00"> &lt; Real &gt;</text>
</g>
<!-- Node18&#45;&gt;Node1 -->
<g id="edge26" class="edge">
<title>Node18&#45;&gt;Node1</title>
<path fill="none" stroke="midnightblue" d="M847.38,-108C893.83,-108 956.05,-108 1011,-108 1011,-108 1011,-108 1674.5,-108 1709.13,-108 1747.78,-105.05 1778.74,-101.96"/>
<polygon fill="midnightblue" stroke="midnightblue" points="847.12,-104.5 837.12,-108 847.12,-111.5 847.12,-104.5"/>
</g>
<!-- Node19&#45;&gt;Node18 -->
<g id="edge27" class="edge">
<title>Node19&#45;&gt;Node18</title>
<path fill="none" stroke="#9a32cd" stroke-dasharray="5,2" d="M589.94,-67.76C622.73,-67.23 662.21,-68.73 697,-76 718.49,-80.49 741.58,-90.71 757.01,-98.39"/>
<polygon fill="#9a32cd" stroke="#9a32cd" points="589.46,-64.27 579.54,-67.99 589.62,-71.26 589.46,-64.27"/>
<text text-anchor="middle" x="651.5" y="-79" font-family="Helvetica,sans-Serif" font-size="10.00"> mSwitchClosed</text>
</g>
<!-- Node20 -->
<g id="node20" class="node">
<title>Node20</title>
<g id="a_node20"><a xlink:title=" ">
<polygon fill="none" stroke="#bfbfbf" points="166,-0.5 166,-41.5 282,-41.5 282,-0.5 166,-0.5"/>
<text text-anchor="start" x="174" y="-29.5" font-family="Helvetica,sans-Serif" font-size="10.00">std::enable_shared</text>
<text text-anchor="start" x="174" y="-18.5" font-family="Helvetica,sans-Serif" font-size="10.00">_from_this&lt; Attribute</text>
<text text-anchor="middle" x="224" y="-7.5" font-family="Helvetica,sans-Serif" font-size="10.00">&lt; Bool &gt; &gt;</text>
</a>
</g>
</g>
<!-- Node20&#45;&gt;Node19 -->
<g id="edge29" class="edge">
<title>Node20&#45;&gt;Node19</title>
<path fill="none" stroke="midnightblue" d="M292.51,-32.04C333.24,-38.78 386.14,-47.67 433,-56 444.45,-58.03 456.75,-60.29 468.34,-62.46"/>
<polygon fill="midnightblue" stroke="midnightblue" points="292.87,-28.55 282.43,-30.37 291.73,-35.46 292.87,-28.55"/>
</g>
<!-- Node21 -->
<g id="node21" class="node">
<title>Node21</title>
<g id="a_node21"><a xlink:href="class_shared_factory.html" target="_top" xlink:title=" ">
<polygon fill="none" stroke="black" points="1609,-60.5 1609,-79.5 1738,-79.5 1738,-60.5 1609,-60.5"/>
<text text-anchor="middle" x="1673.5" y="-67.5" font-family="Helvetica,sans-Serif" font-size="10.00">SharedFactory&lt; Switch &gt;</text>
</a>
</g>
</g>
<!-- Node21&#45;&gt;Node1 -->
<g id="edge32" class="edge">
<title>Node21&#45;&gt;Node1</title>
<path fill="none" stroke="midnightblue" d="M1746.77,-81.08C1757.48,-82.73 1768.41,-84.4 1778.81,-86"/>
<polygon fill="midnightblue" stroke="midnightblue" points="1747,-77.58 1736.59,-79.52 1745.94,-84.5 1747,-77.58"/>
</g>
<!-- Node22 -->
<g id="node22" class="node">
<title>Node22</title>
<g id="a_node22"><a xlink:href="class_shared_factory.html" target="_top" xlink:title=" ">
<polygon fill="none" stroke="black" points="1399,-60.5 1399,-79.5 1504,-79.5 1504,-60.5 1399,-60.5"/>
<text text-anchor="middle" x="1451.5" y="-67.5" font-family="Helvetica,sans-Serif" font-size="10.00">SharedFactory&lt; T &gt;</text>
</a>
</g>
</g>
<!-- Node22&#45;&gt;Node21 -->
<g id="edge33" class="edge">
<title>Node22&#45;&gt;Node21</title>
<path fill="none" stroke="orange" stroke-dasharray="5,2" d="M1514.24,-70C1543.71,-70 1578.93,-70 1608.66,-70"/>
<polygon fill="orange" stroke="orange" points="1514.08,-66.5 1504.08,-70 1514.08,-73.5 1514.08,-66.5"/>
<text text-anchor="middle" x="1562.5" y="-73" font-family="Helvetica,sans-Serif" font-size="10.00"> &lt; Switch &gt;</text>
</g>
<!-- Node23 -->
<g id="node23" class="node">
<title>Node23</title>
<g id="a_node23"><a xlink:href="class_c_p_s_1_1_m_n_a_switch_interface.html" target="_top" xlink:title="MNA interface to be used by switching devices.">
<polygon fill="none" stroke="black" points="1605.5,-22.5 1605.5,-41.5 1741.5,-41.5 1741.5,-22.5 1605.5,-22.5"/>
<text text-anchor="middle" x="1673.5" y="-29.5" font-family="Helvetica,sans-Serif" font-size="10.00">CPS::MNASwitchInterface</text>
</a>
</g>
</g>
<!-- Node23&#45;&gt;Node1 -->
<g id="edge34" class="edge">
<title>Node23&#45;&gt;Node1</title>
<path fill="none" stroke="midnightblue" d="M1722.09,-44.38C1728.83,-46.43 1735.63,-48.65 1742,-51 1769.41,-61.1 1799.86,-75.76 1818.85,-85.34"/>
<polygon fill="midnightblue" stroke="midnightblue" points="1722.91,-40.97 1712.32,-41.52 1720.94,-47.69 1722.91,-40.97"/>
</g>
</g>
</svg>
        <g id="navigator" transform="translate(0 0)" fill="#404254">
                <rect fill="#f2f5e9" fill-opacity="0.5" stroke="#606060" stroke-width=".5" x="0" y="0" width="60" height="60"/>
                <use id="zoomplus" xlink:href="#zoomPlus" x="17" y="9" onmousedown="handleZoom(evt,'in')"/>
                <use id="zoomminus" xlink:href="#zoomMin" x="42" y="9" onmousedown="handleZoom(evt,'out')"/>
                <use id="reset" xlink:href="#resetDef" x="30" y="36" onmousedown="handleReset()"/>
                <g id="arrowUp" xlink:href="#dirArrow" transform="translate(30 24)" onmousedown="handlePan(0,-1)">
                  <use xlink:href="#rim" fill="#404040">
                        <set attributeName="fill" to="#808080" begin="arrowUp.mouseover" end="arrowUp.mouseout"/>
                  </use>
                  <path fill="none" stroke="white" stroke-width="1.5" d="M0,-3.0v7 M-2.5,-0.5L0,-3.0L2.5,-0.5"/>
                </g>
                <g id="arrowRight" xlink:href="#dirArrow" transform="rotate(90) translate(36 -43)" onmousedown="handlePan(1,0)">
                  <use xlink:href="#rim" fill="#404040">
                        <set attributeName="fill" to="#808080" begin="arrowRight.mouseover" end="arrowRight.mouseout"/>
                  </use>
                  <path fill="none" stroke="white" stroke-width="1.5" d="M0,-3.0v7 M-2.5,-0.5L0,-3.0L2.5,-0.5"/>
                </g>
                <g id="arrowDown" xlink:href="#dirArrow" transform="rotate(180) translate(-30 -48)" onmousedown="handlePan(0,1)">
                  <use xlink:href="#rim" fill="#404040">
                        <set attributeName="fill" to="#808080" begin="arrowDown.mouseover" end="arrowDown.mouseout"/>
                  </use>
                  <path fill="none" stroke="white" stroke-width="1.5" d="M0,-3.0v7 M-2.5,-0.5L0,-3.0L2.5,-0.5"/>
                </g>
                <g id="arrowLeft" xlink:href="#dirArrow" transform="rotate(270) translate(-36 17)" onmousedown="handlePan(-1,0)">
                  <use xlink:href="#rim" fill="#404040">
                        <set attributeName="fill" to="#808080" begin="arrowLeft.mouseover" end="arrowLeft.mouseout"/>
                  </use>
                  <path fill="none" stroke="white" stroke-width="1.5" d="M0,-3.0v7 M-2.5,-0.5L0,-3.0L2.5,-0.5"/>
                </g>
        </g>
        <svg viewBox="0 0 15 15" width="100%" height="30px" preserveAspectRatio="xMaxYMin meet">
         <g id="arrow_out" transform="scale(0.3 0.3)">
          <a xlink:href="class_c_p_s_1_1_e_m_t_1_1_ph3_1_1_switch__coll__graph_org.svg" target="_base">
           <rect id="button" ry="5" rx="5" y="6" x="6" height="38" width="38"
                fill="#f2f5e9" fill-opacity="0.5" stroke="#606060" stroke-width="1.0"/>
           <path id="arrow"
             d="M 11.500037,31.436501 C 11.940474,20.09759 22.043105,11.32322 32.158766,21.979434 L 37.068811,17.246167 C 37.068811,17.246167 37.088388,32 37.088388,32 L 22.160133,31.978069 C 22.160133,31.978069 26.997745,27.140456 26.997745,27.140456 C 18.528582,18.264221 13.291696,25.230495 11.500037,31.436501 z"
             style="fill:#404040;"/>
          </a>
         </g>
        </svg>
</svg>
