<?xml version="1.0" encoding="UTF-8" standalone="no"?>
<!DOCTYPE svg PUBLIC "-//W3C//DTD SVG 1.1//EN"
 "http://www.w3.org/Graphics/SVG/1.1/DTD/svg11.dtd">
<!-- Generated by graphviz version 2.42.4 (0)
 -->
<!-- Title: CPS::Base::Ph1::VoltageSource Pages: 1 -->
<svg width="370pt" height="186pt"
 viewBox="0.00 0.00 370.00 186.00" xmlns="http://www.w3.org/2000/svg" xmlns:xlink="http://www.w3.org/1999/xlink">
<g id="graph0" class="graph" transform="scale(1 1) rotate(0) translate(4 182)">
<title>CPS::Base::Ph1::VoltageSource</title>
<!-- Node1 -->
<g id="node1" class="node">
<title>Node1</title>
<g id="a_node1"><a xlink:title=" ">
<polygon fill="#bfbfbf" stroke="black" points="0,-79 0,-98 165,-98 165,-79 0,-79"/>
<text text-anchor="middle" x="82.5" y="-86" font-family="Helvetica,sans-Serif" font-size="10.00">CPS::Base::Ph1::VoltageSource</text>
</a>
</g>
</g>
<!-- Node2 -->
<g id="node2" class="node">
<title>Node2</title>
<g id="a_node2"><a xlink:href="class_c_p_s_1_1_d_p_1_1_ph1_1_1_voltage_source_norton.html" target="_top" xlink:title="Resistive dynamic phasor voltage source.">
<polygon fill="none" stroke="black" points="204,-147.5 204,-177.5 359,-177.5 359,-147.5 204,-147.5"/>
<text text-anchor="start" x="212" y="-165.5" font-family="Helvetica,sans-Serif" font-size="10.00">CPS::DP::Ph1::VoltageSource</text>
<text text-anchor="middle" x="281.5" y="-154.5" font-family="Helvetica,sans-Serif" font-size="10.00">Norton</text>
</a>
</g>
</g>
<!-- Node1&#45;&gt;Node2 -->
<g id="edge1" class="edge">
<title>Node1&#45;&gt;Node2</title>
<path fill="none" stroke="midnightblue" d="M113.45,-102.32C136.98,-112.91 170.73,-127.53 201,-138.5 209.54,-141.6 218.69,-144.62 227.63,-147.42"/>
<polygon fill="midnightblue" stroke="midnightblue" points="114.58,-98.99 104.03,-98.04 111.69,-105.36 114.58,-98.99"/>
</g>
<!-- Node3 -->
<g id="node3" class="node">
<title>Node3</title>
<g id="a_node3"><a xlink:href="class_c_p_s_1_1_e_m_t_1_1_ph1_1_1_voltage_source_norton.html" target="_top" xlink:title="Voltage source as Norton equivalent.">
<polygon fill="none" stroke="black" points="201,-98.5 201,-128.5 362,-128.5 362,-98.5 201,-98.5"/>
<text text-anchor="start" x="209" y="-116.5" font-family="Helvetica,sans-Serif" font-size="10.00">CPS::EMT::Ph1::VoltageSource</text>
<text text-anchor="middle" x="281.5" y="-105.5" font-family="Helvetica,sans-Serif" font-size="10.00">Norton</text>
</a>
</g>
</g>
<!-- Node1&#45;&gt;Node3 -->
<g id="edge2" class="edge">
<title>Node1&#45;&gt;Node3</title>
<path fill="none" stroke="midnightblue" d="M168.67,-99.31C179.32,-100.66 190.19,-102.04 200.75,-103.38"/>
<polygon fill="midnightblue" stroke="midnightblue" points="168.9,-95.81 158.54,-98.02 168.02,-102.75 168.9,-95.81"/>
</g>
<!-- Node4 -->
<g id="node4" class="node">
<title>Node4</title>
<g id="a_node4"><a xlink:href="class_c_p_s_1_1_e_m_t_1_1_ph3_1_1_av_volt_source_inverter_state_space.html" target="_top" xlink:title="average inverter model with LC filter">
<polygon fill="none" stroke="black" points="204,-49.5 204,-79.5 359,-79.5 359,-49.5 204,-49.5"/>
<text text-anchor="start" x="212" y="-67.5" font-family="Helvetica,sans-Serif" font-size="10.00">CPS::EMT::Ph3::AvVoltSource</text>
<text text-anchor="middle" x="281.5" y="-56.5" font-family="Helvetica,sans-Serif" font-size="10.00">InverterStateSpace</text>
</a>
</g>
</g>
<!-- Node1&#45;&gt;Node4 -->
<g id="edge3" class="edge">
<title>Node1&#45;&gt;Node4</title>
<path fill="none" stroke="midnightblue" d="M171.79,-77.74C182.45,-76.45 193.27,-75.13 203.74,-73.85"/>
<polygon fill="midnightblue" stroke="midnightblue" points="171.15,-74.3 161.64,-78.98 171.99,-81.24 171.15,-74.3"/>
</g>
<!-- Node5 -->
<g id="node5" class="node">
<title>Node5</title>
<g id="a_node5"><a xlink:href="class_c_p_s_1_1_e_m_t_1_1_ph3_1_1_voltage_source_norton.html" target="_top" xlink:title="Voltage source with Norton equivalent model.">
<polygon fill="none" stroke="black" points="201,-0.5 201,-30.5 362,-30.5 362,-0.5 201,-0.5"/>
<text text-anchor="start" x="209" y="-18.5" font-family="Helvetica,sans-Serif" font-size="10.00">CPS::EMT::Ph3::VoltageSource</text>
<text text-anchor="middle" x="281.5" y="-7.5" font-family="Helvetica,sans-Serif" font-size="10.00">Norton</text>
</a>
</g>
</g>
<!-- Node1&#45;&gt;Node5 -->
<g id="edge4" class="edge">
<title>Node1&#45;&gt;Node5</title>
<path fill="none" stroke="midnightblue" d="M114.83,-74.87C138.34,-64.85 171.44,-51.17 201,-40.5 210.39,-37.11 220.49,-33.73 230.25,-30.61"/>
<polygon fill="midnightblue" stroke="midnightblue" points="113.19,-71.77 105.38,-78.92 115.95,-78.2 113.19,-71.77"/>
</g>
</g>
</svg>
