<?xml version="1.0" encoding="UTF-8" standalone="no"?>
<!DOCTYPE svg PUBLIC "-//W3C//DTD SVG 1.1//EN"
 "http://www.w3.org/Graphics/SVG/1.1/DTD/svg11.dtd">
<!-- Generated by graphviz version 2.44.0 (0)
 -->
<!-- Title: CPS::SP::Ph1::SolidStateTransformer Pages: 1 -->
<!--zoomable 436 -->
<svg id="main" version="1.1" xmlns="http://www.w3.org/2000/svg" xmlns:xlink="http://www.w3.org/1999/xlink" xml:space="preserve" onload="init(evt)">
<style type="text/css"><![CDATA[
.edge:hover path { stroke: red; }
.edge:hover polygon { stroke: red; fill: red; }
]]></style>
<script type="text/javascript"><![CDATA[
var edges = document.getElementsByTagName('g');
if (edges && edges.length) {
  for (var i=0;i<edges.length;i++) {
    if (edges[i].id.substr(0,4)=='edge') {
      edges[i].setAttribute('class','edge');
    }
  }
}
]]></script>
        <defs>
                <circle id="rim" cx="0" cy="0" r="7"/>
                <circle id="rim2" cx="0" cy="0" r="3.5"/>
                <g id="zoomPlus">
                        <use xlink:href="#rim" fill="#404040">
                                <set attributeName="fill" to="#808080" begin="zoomplus.mouseover" end="zoomplus.mouseout"/>
                        </use>
                        <path d="M-4,0h8M0,-4v8" fill="none" stroke="white" stroke-width="1.5" pointer-events="none"/>
                </g>
                <g id="zoomMin">
                        <use xlink:href="#rim" fill="#404040">
                                <set attributeName="fill" to="#808080" begin="zoomminus.mouseover" end="zoomminus.mouseout"/>
                        </use>
                        <path d="M-4,0h8" fill="none" stroke="white" stroke-width="1.5" pointer-events="none"/>
                </g>
                <g id="dirArrow">
                        <path fill="none" stroke="white" stroke-width="1.5" d="M0,-3.0v7 M-2.5,-0.5L0,-3.0L2.5,-0.5"/>
                </g>
               <g id="resetDef">
                       <use xlink:href="#rim2" fill="#404040">
                               <set attributeName="fill" to="#808080" begin="reset.mouseover" end="reset.mouseout"/>
                       </use>
               </g>
        </defs>

<script type="text/javascript">
var viewWidth = 1671;
var viewHeight = 436;
var sectionId = 'dynsection-1';
</script>
<script xlink:href="svgpan.js"/>
<svg id="graph" class="graph">
<g id="viewport">
<title>CPS::SP::Ph1::SolidStateTransformer</title>
<!-- Node1 -->
<g id="node1" class="node">
<title>Node1</title>
<g id="a_node1"><a xlink:title=" ">
<polygon fill="#bfbfbf" stroke="black" points="1532,-158 1532,-188 1663,-188 1663,-158 1532,-158"/>
<text text-anchor="start" x="1540" y="-176" font-family="Helvetica" font-size="10.00">CPS::SP::Ph1::SolidState</text>
<text text-anchor="middle" x="1597.5" y="-165" font-family="Helvetica" font-size="10.00">Transformer</text>
</a>
</g>
</g>
<!-- Node2 -->
<g id="node2" class="node">
<title>Node2</title>
<g id="a_node2"><a xlink:href="class_c_p_s_1_1_sim_power_comp.html" target="_top" xlink:title=" ">
<polygon fill="none" stroke="black" points="1367.5,-177 1367.5,-207 1487.5,-207 1487.5,-177 1367.5,-177"/>
<text text-anchor="start" x="1375.5" y="-195" font-family="Helvetica" font-size="10.00">CPS::SimPowerComp&lt;</text>
<text text-anchor="middle" x="1427.5" y="-184" font-family="Helvetica" font-size="10.00"> Complex &gt;</text>
</a>
</g>
</g>
<!-- Node2&#45;&gt;Node1 -->
<g id="edge1" class="edge">
<title>Node2&#45;&gt;Node1</title>
<path fill="none" stroke="midnightblue" d="M1497.91,-184.15C1509.13,-182.88 1520.71,-181.57 1531.81,-180.32"/>
<polygon fill="midnightblue" stroke="midnightblue" points="1497.27,-180.7 1487.73,-185.3 1498.06,-187.66 1497.27,-180.7"/>
</g>
<!-- Node3 -->
<g id="node3" class="node">
<title>Node3</title>
<g id="a_node3"><a xlink:href="class_c_p_s_1_1_topological_power_comp.html" target="_top" xlink:title=" ">
<polygon fill="none" stroke="black" points="871,-221.5 871,-240.5 1017,-240.5 1017,-221.5 871,-221.5"/>
<text text-anchor="middle" x="944" y="-228.5" font-family="Helvetica" font-size="10.00">CPS::TopologicalPowerComp</text>
</a>
</g>
</g>
<!-- Node3&#45;&gt;Node2 -->
<g id="edge2" class="edge">
<title>Node3&#45;&gt;Node2</title>
<path fill="none" stroke="midnightblue" d="M1027.31,-227.71C1107.73,-223.99 1233.52,-216.87 1342,-205 1350.26,-204.1 1358.95,-202.96 1367.49,-201.75"/>
<polygon fill="midnightblue" stroke="midnightblue" points="1027.08,-224.21 1017.25,-228.16 1027.39,-231.21 1027.08,-224.21"/>
</g>
<!-- Node11 -->
<g id="node11" class="node">
<title>Node11</title>
<g id="a_node11"><a xlink:href="class_c_p_s_1_1_sim_power_comp.html" target="_top" xlink:title="Base class for all components that are transmitting power.">
<polygon fill="none" stroke="black" points="1086,-172 1086,-202 1206,-202 1206,-172 1086,-172"/>
<text text-anchor="start" x="1094" y="-190" font-family="Helvetica" font-size="10.00">CPS::SimPowerComp&lt;</text>
<text text-anchor="middle" x="1146" y="-179" font-family="Helvetica" font-size="10.00"> VarType &gt;</text>
</a>
</g>
</g>
<!-- Node3&#45;&gt;Node11 -->
<g id="edge12" class="edge">
<title>Node3&#45;&gt;Node11</title>
<path fill="none" stroke="midnightblue" d="M998.41,-219.25C1025.33,-213.33 1058.06,-206.13 1085.75,-200.03"/>
<polygon fill="midnightblue" stroke="midnightblue" points="997.41,-215.89 988.4,-221.45 998.92,-222.72 997.41,-215.89"/>
</g>
<!-- Node4 -->
<g id="node4" class="node">
<title>Node4</title>
<g id="a_node4"><a xlink:href="class_c_p_s_1_1_identified_object.html" target="_top" xlink:title=" ">
<polygon fill="none" stroke="black" points="665,-222.5 665,-241.5 777,-241.5 777,-222.5 665,-222.5"/>
<text text-anchor="middle" x="721" y="-229.5" font-family="Helvetica" font-size="10.00">CPS::IdentifiedObject</text>
</a>
</g>
</g>
<!-- Node4&#45;&gt;Node3 -->
<g id="edge3" class="edge">
<title>Node4&#45;&gt;Node3</title>
<path fill="none" stroke="midnightblue" d="M787.43,-231.7C813.71,-231.59 844.09,-231.45 871,-231.33"/>
<polygon fill="midnightblue" stroke="midnightblue" points="787.18,-228.2 777.2,-231.75 787.21,-235.2 787.18,-228.2"/>
</g>
<!-- Node5 -->
<g id="node5" class="node">
<title>Node5</title>
<g id="a_node5"><a xlink:href="class_c_p_s_1_1_attribute_list.html" target="_top" xlink:title="Base class of objects having attributes to access member variables.">
<polygon fill="none" stroke="black" points="452.5,-283.5 452.5,-302.5 548.5,-302.5 548.5,-283.5 452.5,-283.5"/>
<text text-anchor="middle" x="500.5" y="-290.5" font-family="Helvetica" font-size="10.00">CPS::AttributeList</text>
</a>
</g>
</g>
<!-- Node5&#45;&gt;Node4 -->
<g id="edge4" class="edge">
<title>Node5&#45;&gt;Node4</title>
<path fill="none" stroke="midnightblue" d="M550.29,-280.9C578.62,-273.72 614.94,-264.23 647,-255 661.56,-250.81 677.62,-245.79 690.97,-241.51"/>
<polygon fill="midnightblue" stroke="midnightblue" points="549.08,-277.6 540.24,-283.44 550.79,-284.39 549.08,-277.6"/>
</g>
<!-- Node16 -->
<g id="node16" class="node">
<title>Node16</title>
<g id="a_node16"><a xlink:href="class_c_p_s_1_1_m_n_a_interface.html" target="_top" xlink:title="Interface to be implemented by all models used by the MNA solver.">
<polygon fill="none" stroke="black" points="669,-284.5 669,-303.5 773,-303.5 773,-284.5 669,-284.5"/>
<text text-anchor="middle" x="721" y="-291.5" font-family="Helvetica" font-size="10.00">CPS::MNAInterface</text>
</a>
</g>
</g>
<!-- Node5&#45;&gt;Node16 -->
<g id="edge20" class="edge">
<title>Node5&#45;&gt;Node16</title>
<path fill="none" stroke="midnightblue" d="M558.91,-293.26C592.99,-293.42 635.82,-293.61 668.75,-293.77"/>
<polygon fill="midnightblue" stroke="midnightblue" points="558.66,-289.76 548.64,-293.22 558.63,-296.76 558.66,-289.76"/>
</g>
<!-- Node6 -->
<g id="node6" class="node">
<title>Node6</title>
<g id="a_node6"><a xlink:href="class_c_p_s_1_1_attribute.html" target="_top" xlink:title=" ">
<polygon fill="none" stroke="black" points="438.5,-233.5 438.5,-252.5 562.5,-252.5 562.5,-233.5 438.5,-233.5"/>
<text text-anchor="middle" x="500.5" y="-240.5" font-family="Helvetica" font-size="10.00">CPS::Attribute&lt; String &gt;</text>
</a>
</g>
</g>
<!-- Node6&#45;&gt;Node4 -->
<g id="edge5" class="edge">
<title>Node6&#45;&gt;Node4</title>
<path fill="none" stroke="#9a32cd" stroke-dasharray="5,2" d="M572.78,-233.85C576.57,-233.52 580.33,-233.24 584,-233 610.51,-231.3 639.98,-230.9 664.7,-230.99"/>
<polygon fill="#9a32cd" stroke="#9a32cd" points="572.33,-230.38 562.7,-234.8 572.98,-237.35 572.33,-230.38"/>
<text text-anchor="middle" x="615.5" y="-247" font-family="Helvetica" font-size="10.00"> mName</text>
<text text-anchor="middle" x="615.5" y="-236" font-family="Helvetica" font-size="10.00">mUID</text>
</g>
<!-- Node7 -->
<g id="node7" class="node">
<title>Node7</title>
<g id="a_node7"><a xlink:href="class_c_p_s_1_1_attribute_base.html" target="_top" xlink:title=" ">
<polygon fill="none" stroke="black" points="2.5,-196.5 2.5,-215.5 105.5,-215.5 105.5,-196.5 2.5,-196.5"/>
<text text-anchor="middle" x="54" y="-203.5" font-family="Helvetica" font-size="10.00">CPS::AttributeBase</text>
</a>
</g>
</g>
<!-- Node7&#45;&gt;Node6 -->
<g id="edge6" class="edge">
<title>Node7&#45;&gt;Node6</title>
<path fill="none" stroke="midnightblue" d="M116.01,-204.05C188.3,-202.73 312.17,-203.59 417,-220 435.51,-222.9 455.78,-228.51 471.6,-233.47"/>
<polygon fill="midnightblue" stroke="midnightblue" points="115.65,-200.56 105.72,-204.26 115.79,-207.55 115.65,-200.56"/>
</g>
<!-- Node9 -->
<g id="node9" class="node">
<title>Node9</title>
<g id="a_node9"><a xlink:href="class_c_p_s_1_1_attribute.html" target="_top" xlink:title=" ">
<polygon fill="none" stroke="black" points="162,-242.5 162,-261.5 266,-261.5 266,-242.5 162,-242.5"/>
<text text-anchor="middle" x="214" y="-249.5" font-family="Helvetica" font-size="10.00">CPS::Attribute&lt; T &gt;</text>
</a>
</g>
</g>
<!-- Node7&#45;&gt;Node9 -->
<g id="edge9" class="edge">
<title>Node7&#45;&gt;Node9</title>
<path fill="none" stroke="midnightblue" d="M97.35,-218.33C123.4,-225.91 156.27,-235.48 180.3,-242.48"/>
<polygon fill="midnightblue" stroke="midnightblue" points="98.32,-214.97 87.74,-215.53 96.36,-221.69 98.32,-214.97"/>
</g>
<!-- Node12 -->
<g id="node12" class="node">
<title>Node12</title>
<g id="a_node12"><a xlink:href="class_c_p_s_1_1_attribute.html" target="_top" xlink:title=" ">
<polygon fill="none" stroke="black" points="435,-133 435,-163 566,-163 566,-133 435,-133"/>
<text text-anchor="start" x="443" y="-151" font-family="Helvetica" font-size="10.00">CPS::Attribute&lt; MatrixVar</text>
<text text-anchor="middle" x="500.5" y="-140" font-family="Helvetica" font-size="10.00">&lt; VarType &gt; &gt;</text>
</a>
</g>
</g>
<!-- Node7&#45;&gt;Node12 -->
<g id="edge14" class="edge">
<title>Node7&#45;&gt;Node12</title>
<path fill="none" stroke="midnightblue" d="M108.63,-194.34C158.28,-183.99 234.29,-169.26 301,-161 345.56,-155.48 396.05,-152.22 434.96,-150.34"/>
<polygon fill="midnightblue" stroke="midnightblue" points="107.83,-190.93 98.76,-196.41 109.26,-197.78 107.83,-190.93"/>
</g>
<!-- Node17 -->
<g id="node17" class="node">
<title>Node17</title>
<g id="a_node17"><a xlink:href="class_c_p_s_1_1_attribute.html" target="_top" xlink:title=" ">
<polygon fill="none" stroke="black" points="438,-322.5 438,-341.5 563,-341.5 563,-322.5 438,-322.5"/>
<text text-anchor="middle" x="500.5" y="-329.5" font-family="Helvetica" font-size="10.00">CPS::Attribute&lt; Matrix &gt;</text>
</a>
</g>
</g>
<!-- Node7&#45;&gt;Node17 -->
<g id="edge22" class="edge">
<title>Node7&#45;&gt;Node17</title>
<path fill="none" stroke="midnightblue" d="M61.46,-225.22C72.85,-255.7 99.71,-314.22 145,-339 252.46,-397.81 407.06,-360.96 470.58,-341.63"/>
<polygon fill="midnightblue" stroke="midnightblue" points="64.72,-223.95 58.07,-215.71 58.13,-226.3 64.72,-223.95"/>
</g>
<!-- Node19 -->
<g id="node19" class="node">
<title>Node19</title>
<g id="a_node19"><a xlink:href="class_c_p_s_1_1_attribute.html" target="_top" xlink:title=" ">
<polygon fill="none" stroke="black" points="441.5,-62.5 441.5,-81.5 559.5,-81.5 559.5,-62.5 441.5,-62.5"/>
<text text-anchor="middle" x="500.5" y="-69.5" font-family="Helvetica" font-size="10.00">CPS::Attribute&lt; Real &gt;</text>
</a>
</g>
</g>
<!-- Node7&#45;&gt;Node19 -->
<g id="edge26" class="edge">
<title>Node7&#45;&gt;Node19</title>
<path fill="none" stroke="midnightblue" d="M63.09,-187.24C75.96,-160.01 103.91,-110.47 145,-89 194.9,-62.93 354.21,-65.42 441.29,-68.97"/>
<polygon fill="midnightblue" stroke="midnightblue" points="59.84,-185.92 58.9,-196.48 66.21,-188.81 59.84,-185.92"/>
</g>
<!-- Node8 -->
<g id="node8" class="node">
<title>Node8</title>
<g id="a_node8"><a xlink:title=" ">
<polygon fill="none" stroke="#bfbfbf" points="160,-288.5 160,-329.5 268,-329.5 268,-288.5 160,-288.5"/>
<text text-anchor="start" x="168" y="-317.5" font-family="Helvetica" font-size="10.00">std::enable_shared</text>
<text text-anchor="start" x="168" y="-306.5" font-family="Helvetica" font-size="10.00">_from_this&lt; Attribute</text>
<text text-anchor="middle" x="214" y="-295.5" font-family="Helvetica" font-size="10.00">&lt; String &gt; &gt;</text>
</a>
</g>
</g>
<!-- Node8&#45;&gt;Node6 -->
<g id="edge7" class="edge">
<title>Node8&#45;&gt;Node6</title>
<path fill="none" stroke="midnightblue" d="M277.97,-330.57C320.75,-341.09 376.67,-346.3 417,-319 434.84,-306.92 420.29,-289.74 435,-274 443.99,-264.38 456.6,-257.41 468.28,-252.55"/>
<polygon fill="midnightblue" stroke="midnightblue" points="278.78,-327.17 268.22,-328.03 277.02,-333.94 278.78,-327.17"/>
</g>
<!-- Node9&#45;&gt;Node6 -->
<g id="edge8" class="edge">
<title>Node9&#45;&gt;Node6</title>
<path fill="none" stroke="orange" stroke-dasharray="5,2" d="M276.24,-253.15C316.31,-253.55 369.8,-253.4 417,-251 423.9,-250.65 431.11,-250.15 438.28,-249.57"/>
<polygon fill="orange" stroke="orange" points="276.13,-249.65 266.09,-253.04 276.05,-256.65 276.13,-249.65"/>
<text text-anchor="middle" x="359" y="-256" font-family="Helvetica" font-size="10.00"> &lt; String &gt;</text>
</g>
<!-- Node9&#45;&gt;Node12 -->
<g id="edge16" class="edge">
<title>Node9&#45;&gt;Node12</title>
<path fill="none" stroke="orange" stroke-dasharray="5,2" d="M270.46,-240.19C311.75,-230.49 369.02,-215.08 417,-195 437.98,-186.22 460.32,-173.24 476.45,-163.15"/>
<polygon fill="orange" stroke="orange" points="269.55,-236.81 260.59,-242.48 271.12,-243.63 269.55,-236.81"/>
<text text-anchor="middle" x="359" y="-234" font-family="Helvetica" font-size="10.00"> &lt; MatrixVar&lt; VarType &gt; &gt;</text>
</g>
<!-- Node9&#45;&gt;Node17 -->
<g id="edge24" class="edge">
<title>Node9&#45;&gt;Node17</title>
<path fill="none" stroke="orange" stroke-dasharray="5,2" d="M258.82,-264.32C315.7,-280.32 413.78,-307.9 465.43,-322.42"/>
<polygon fill="orange" stroke="orange" points="259.61,-260.91 249.03,-261.57 257.71,-267.65 259.61,-260.91"/>
<text text-anchor="middle" x="359" y="-311" font-family="Helvetica" font-size="10.00"> &lt; Matrix &gt;</text>
</g>
<!-- Node9&#45;&gt;Node19 -->
<g id="edge28" class="edge">
<title>Node9&#45;&gt;Node19</title>
<path fill="none" stroke="orange" stroke-dasharray="5,2" d="M232.49,-235.57C249.31,-220.21 275.82,-197.14 301,-180 362.46,-138.17 441.7,-99.09 478.72,-81.61"/>
<polygon fill="orange" stroke="orange" points="230.03,-233.07 225.06,-242.43 234.78,-238.22 230.03,-233.07"/>
<text text-anchor="middle" x="359" y="-183" font-family="Helvetica" font-size="10.00"> &lt; Real &gt;</text>
</g>
<!-- Node10 -->
<g id="node10" class="node">
<title>Node10</title>
<g id="a_node10"><a xlink:title=" ">
<polygon fill="none" stroke="#bfbfbf" points="0,-362.5 0,-403.5 108,-403.5 108,-362.5 0,-362.5"/>
<text text-anchor="start" x="8" y="-391.5" font-family="Helvetica" font-size="10.00">std::enable_shared</text>
<text text-anchor="start" x="8" y="-380.5" font-family="Helvetica" font-size="10.00">_from_this&lt; Attribute</text>
<text text-anchor="middle" x="54" y="-369.5" font-family="Helvetica" font-size="10.00">&lt; T &gt; &gt;</text>
</a>
</g>
</g>
<!-- Node10&#45;&gt;Node9 -->
<g id="edge10" class="edge">
<title>Node10&#45;&gt;Node9</title>
<path fill="none" stroke="midnightblue" d="M74.13,-354.05C90.58,-331.06 116.18,-299.48 145,-279 155.46,-271.57 168.25,-265.8 179.9,-261.54"/>
<polygon fill="midnightblue" stroke="midnightblue" points="71.15,-352.21 68.28,-362.4 76.89,-356.22 71.15,-352.21"/>
</g>
<!-- Node11&#45;&gt;Node2 -->
<g id="edge11" class="edge">
<title>Node11&#45;&gt;Node2</title>
<path fill="none" stroke="orange" stroke-dasharray="5,2" d="M1216.55,-188.24C1262.92,-189.07 1323.23,-190.15 1367.31,-190.94"/>
<polygon fill="orange" stroke="orange" points="1216.34,-184.74 1206.27,-188.06 1216.21,-191.74 1216.34,-184.74"/>
<text text-anchor="middle" x="1283" y="-193" font-family="Helvetica" font-size="10.00"> &lt; Complex &gt;</text>
</g>
<!-- Node12&#45;&gt;Node11 -->
<g id="edge13" class="edge">
<title>Node12&#45;&gt;Node11</title>
<path fill="none" stroke="#9a32cd" stroke-dasharray="5,2" d="M576.35,-152.54C705.56,-160.37 967.91,-176.27 1085.56,-183.4"/>
<polygon fill="#9a32cd" stroke="#9a32cd" points="576.34,-149.03 566.15,-151.92 575.92,-156.02 576.34,-149.03"/>
<text text-anchor="middle" x="824" y="-183" font-family="Helvetica" font-size="10.00"> mIntfCurrent</text>
<text text-anchor="middle" x="824" y="-172" font-family="Helvetica" font-size="10.00">mIntfVoltage</text>
</g>
<!-- Node13 -->
<g id="node13" class="node">
<title>Node13</title>
<g id="a_node13"><a xlink:title=" ">
<polygon fill="none" stroke="#bfbfbf" points="145,-98.5 145,-139.5 283,-139.5 283,-98.5 145,-98.5"/>
<text text-anchor="start" x="153" y="-127.5" font-family="Helvetica" font-size="10.00">std::enable_shared</text>
<text text-anchor="start" x="153" y="-116.5" font-family="Helvetica" font-size="10.00">_from_this&lt; Attribute</text>
<text text-anchor="middle" x="214" y="-105.5" font-family="Helvetica" font-size="10.00">&lt; MatrixVar&lt; VarType &gt; &gt; &gt;</text>
</a>
</g>
</g>
<!-- Node13&#45;&gt;Node12 -->
<g id="edge15" class="edge">
<title>Node13&#45;&gt;Node12</title>
<path fill="none" stroke="midnightblue" d="M293.77,-122.43C331.2,-124.58 376.51,-127.93 417,-133 422.78,-133.72 428.76,-134.59 434.75,-135.53"/>
<polygon fill="midnightblue" stroke="midnightblue" points="293.62,-118.92 283.44,-121.86 293.23,-125.91 293.62,-118.92"/>
</g>
<!-- Node14 -->
<g id="node14" class="node">
<title>Node14</title>
<g id="a_node14"><a xlink:href="class_shared_factory.html" target="_top" xlink:title=" ">
<polygon fill="none" stroke="black" points="1360,-128 1360,-158 1495,-158 1495,-128 1360,-128"/>
<text text-anchor="start" x="1368" y="-146" font-family="Helvetica" font-size="10.00">SharedFactory&lt; SolidState</text>
<text text-anchor="middle" x="1427.5" y="-135" font-family="Helvetica" font-size="10.00">Transformer &gt;</text>
</a>
</g>
</g>
<!-- Node14&#45;&gt;Node1 -->
<g id="edge17" class="edge">
<title>Node14&#45;&gt;Node1</title>
<path fill="none" stroke="midnightblue" d="M1505.3,-156.71C1514.15,-158.29 1523.1,-159.89 1531.77,-161.44"/>
<polygon fill="midnightblue" stroke="midnightblue" points="1505.84,-153.26 1495.38,-154.94 1504.61,-160.15 1505.84,-153.26"/>
</g>
<!-- Node15 -->
<g id="node15" class="node">
<title>Node15</title>
<g id="a_node15"><a xlink:href="class_shared_factory.html" target="_top" xlink:title=" ">
<polygon fill="none" stroke="black" points="1093.5,-133.5 1093.5,-152.5 1198.5,-152.5 1198.5,-133.5 1093.5,-133.5"/>
<text text-anchor="middle" x="1146" y="-140.5" font-family="Helvetica" font-size="10.00">SharedFactory&lt; T &gt;</text>
</a>
</g>
</g>
<!-- Node15&#45;&gt;Node14 -->
<g id="edge18" class="edge">
<title>Node15&#45;&gt;Node14</title>
<path fill="none" stroke="orange" stroke-dasharray="5,2" d="M1208.75,-143C1253.53,-143 1314.02,-143 1359.89,-143"/>
<polygon fill="orange" stroke="orange" points="1208.59,-139.5 1198.59,-143 1208.59,-146.5 1208.59,-139.5"/>
<text text-anchor="middle" x="1283" y="-146" font-family="Helvetica" font-size="10.00"> &lt; SolidStateTransformer &gt;</text>
</g>
<!-- Node16&#45;&gt;Node1 -->
<g id="edge19" class="edge">
<title>Node16&#45;&gt;Node1</title>
<path fill="none" stroke="midnightblue" d="M783.34,-288.45C827.66,-284.92 888.98,-281 943,-281 943,-281 943,-281 1428.5,-281 1496.46,-281 1558.83,-217.69 1584.34,-188.02"/>
<polygon fill="midnightblue" stroke="midnightblue" points="782.99,-284.97 773.3,-289.27 783.55,-291.95 782.99,-284.97"/>
</g>
<!-- Node17&#45;&gt;Node16 -->
<g id="edge21" class="edge">
<title>Node17&#45;&gt;Node16</title>
<path fill="none" stroke="#9a32cd" stroke-dasharray="5,2" d="M567.55,-320.74C592.46,-316.47 621.04,-311.54 647,-307 654.1,-305.76 661.59,-304.44 668.95,-303.13"/>
<polygon fill="#9a32cd" stroke="#9a32cd" points="566.74,-317.33 557.48,-322.46 567.93,-324.22 566.74,-317.33"/>
<text text-anchor="middle" x="615.5" y="-320" font-family="Helvetica" font-size="10.00"> mRightVector</text>
</g>
<!-- Node18 -->
<g id="node18" class="node">
<title>Node18</title>
<g id="a_node18"><a xlink:title=" ">
<polygon fill="none" stroke="#bfbfbf" points="160,-386.5 160,-427.5 268,-427.5 268,-386.5 160,-386.5"/>
<text text-anchor="start" x="168" y="-415.5" font-family="Helvetica" font-size="10.00">std::enable_shared</text>
<text text-anchor="start" x="168" y="-404.5" font-family="Helvetica" font-size="10.00">_from_this&lt; Attribute</text>
<text text-anchor="middle" x="214" y="-393.5" font-family="Helvetica" font-size="10.00">&lt; Matrix &gt; &gt;</text>
</a>
</g>
</g>
<!-- Node18&#45;&gt;Node17 -->
<g id="edge23" class="edge">
<title>Node18&#45;&gt;Node17</title>
<path fill="none" stroke="midnightblue" d="M278.27,-400.65C318.65,-395.48 371.71,-386.58 417,-372 441.09,-364.24 467.08,-350.69 483.32,-341.54"/>
<polygon fill="midnightblue" stroke="midnightblue" points="277.78,-397.18 268.29,-401.89 278.64,-404.13 277.78,-397.18"/>
</g>
<!-- Node19&#45;&gt;Node1 -->
<g id="edge25" class="edge">
<title>Node19&#45;&gt;Node1</title>
<path fill="none" stroke="#9a32cd" stroke-dasharray="5,2" d="M560.23,-83.23C604.08,-90.64 665.57,-99 720,-99 720,-99 720,-99 1428.5,-99 1486.19,-99 1546.28,-135.99 1576.54,-157.67"/>
<polygon fill="#9a32cd" stroke="#9a32cd" points="560.77,-79.77 550.32,-81.52 559.58,-86.67 560.77,-79.77"/>
<text text-anchor="middle" x="1051.5" y="-124" font-family="Helvetica" font-size="10.00"> mPref</text>
<text text-anchor="middle" x="1051.5" y="-113" font-family="Helvetica" font-size="10.00">mQ1ref</text>
<text text-anchor="middle" x="1051.5" y="-102" font-family="Helvetica" font-size="10.00">mQ2ref</text>
</g>
<!-- Node20 -->
<g id="node20" class="node">
<title>Node20</title>
<g id="a_node20"><a xlink:title=" ">
<polygon fill="none" stroke="#bfbfbf" points="160,-0.5 160,-41.5 268,-41.5 268,-0.5 160,-0.5"/>
<text text-anchor="start" x="168" y="-29.5" font-family="Helvetica" font-size="10.00">std::enable_shared</text>
<text text-anchor="start" x="168" y="-18.5" font-family="Helvetica" font-size="10.00">_from_this&lt; Attribute</text>
<text text-anchor="middle" x="214" y="-7.5" font-family="Helvetica" font-size="10.00">&lt; Real &gt; &gt;</text>
</a>
</g>
</g>
<!-- Node20&#45;&gt;Node19 -->
<g id="edge27" class="edge">
<title>Node20&#45;&gt;Node19</title>
<path fill="none" stroke="midnightblue" d="M278.32,-31.64C318.16,-38.41 370.63,-47.49 417,-56 428.05,-58.03 439.92,-60.28 451.11,-62.45"/>
<polygon fill="midnightblue" stroke="midnightblue" points="278.66,-28.14 268.21,-29.92 277.49,-35.05 278.66,-28.14"/>
</g>
</g>
</svg>
        <g id="navigator" transform="translate(0 0)" fill="#404254">
                <rect fill="#f2f5e9" fill-opacity="0.5" stroke="#606060" stroke-width=".5" x="0" y="0" width="60" height="60"/>
                <use id="zoomplus" xlink:href="#zoomPlus" x="17" y="9" onmousedown="handleZoom(evt,'in')"/>
                <use id="zoomminus" xlink:href="#zoomMin" x="42" y="9" onmousedown="handleZoom(evt,'out')"/>
                <use id="reset" xlink:href="#resetDef" x="30" y="36" onmousedown="handleReset()"/>
                <g id="arrowUp" xlink:href="#dirArrow" transform="translate(30 24)" onmousedown="handlePan(0,-1)">
                  <use xlink:href="#rim" fill="#404040">
                        <set attributeName="fill" to="#808080" begin="arrowUp.mouseover" end="arrowUp.mouseout"/>
                  </use>
                  <path fill="none" stroke="white" stroke-width="1.5" d="M0,-3.0v7 M-2.5,-0.5L0,-3.0L2.5,-0.5"/>
                </g>
                <g id="arrowRight" xlink:href="#dirArrow" transform="rotate(90) translate(36 -43)" onmousedown="handlePan(1,0)">
                  <use xlink:href="#rim" fill="#404040">
                        <set attributeName="fill" to="#808080" begin="arrowRight.mouseover" end="arrowRight.mouseout"/>
                  </use>
                  <path fill="none" stroke="white" stroke-width="1.5" d="M0,-3.0v7 M-2.5,-0.5L0,-3.0L2.5,-0.5"/>
                </g>
                <g id="arrowDown" xlink:href="#dirArrow" transform="rotate(180) translate(-30 -48)" onmousedown="handlePan(0,1)">
                  <use xlink:href="#rim" fill="#404040">
                        <set attributeName="fill" to="#808080" begin="arrowDown.mouseover" end="arrowDown.mouseout"/>
                  </use>
                  <path fill="none" stroke="white" stroke-width="1.5" d="M0,-3.0v7 M-2.5,-0.5L0,-3.0L2.5,-0.5"/>
                </g>
                <g id="arrowLeft" xlink:href="#dirArrow" transform="rotate(270) translate(-36 17)" onmousedown="handlePan(-1,0)">
                  <use xlink:href="#rim" fill="#404040">
                        <set attributeName="fill" to="#808080" begin="arrowLeft.mouseover" end="arrowLeft.mouseout"/>
                  </use>
                  <path fill="none" stroke="white" stroke-width="1.5" d="M0,-3.0v7 M-2.5,-0.5L0,-3.0L2.5,-0.5"/>
                </g>
        </g>
        <svg viewBox="0 0 15 15" width="100%" height="30px" preserveAspectRatio="xMaxYMin meet">
         <g id="arrow_out" transform="scale(0.3 0.3)">
          <a xlink:href="class_c_p_s_1_1_s_p_1_1_ph1_1_1_solid_state_transformer__coll__graph_org.svg" target="_base">
           <rect id="button" ry="5" rx="5" y="6" x="6" height="38" width="38"
                fill="#f2f5e9" fill-opacity="0.5" stroke="#606060" stroke-width="1.0"/>
           <path id="arrow"
             d="M 11.500037,31.436501 C 11.940474,20.09759 22.043105,11.32322 32.158766,21.979434 L 37.068811,17.246167 C 37.068811,17.246167 37.088388,32 37.088388,32 L 22.160133,31.978069 C 22.160133,31.978069 26.997745,27.140456 26.997745,27.140456 C 18.528582,18.264221 13.291696,25.230495 11.500037,31.436501 z"
             style="fill:#404040;"/>
          </a>
         </g>
        </svg>
</svg>
