<?xml version="1.0" encoding="UTF-8" standalone="no"?>
<!DOCTYPE svg PUBLIC "-//W3C//DTD SVG 1.1//EN"
 "http://www.w3.org/Graphics/SVG/1.1/DTD/svg11.dtd">
<!-- Generated by graphviz version 2.44.0 (0)
 -->
<!-- Title: CPS::DP::Ph1::CurrentSource Pages: 1 -->
<!--zoomable 286 -->
<svg id="main" version="1.1" xmlns="http://www.w3.org/2000/svg" xmlns:xlink="http://www.w3.org/1999/xlink" xml:space="preserve" onload="init(evt)">
<style type="text/css"><![CDATA[
.edge:hover path { stroke: red; }
.edge:hover polygon { stroke: red; fill: red; }
]]></style>
<script type="text/javascript"><![CDATA[
var edges = document.getElementsByTagName('g');
if (edges && edges.length) {
  for (var i=0;i<edges.length;i++) {
    if (edges[i].id.substr(0,4)=='edge') {
      edges[i].setAttribute('class','edge');
    }
  }
}
]]></script>
        <defs>
                <circle id="rim" cx="0" cy="0" r="7"/>
                <circle id="rim2" cx="0" cy="0" r="3.5"/>
                <g id="zoomPlus">
                        <use xlink:href="#rim" fill="#404040">
                                <set attributeName="fill" to="#808080" begin="zoomplus.mouseover" end="zoomplus.mouseout"/>
                        </use>
                        <path d="M-4,0h8M0,-4v8" fill="none" stroke="white" stroke-width="1.5" pointer-events="none"/>
                </g>
                <g id="zoomMin">
                        <use xlink:href="#rim" fill="#404040">
                                <set attributeName="fill" to="#808080" begin="zoomminus.mouseover" end="zoomminus.mouseout"/>
                        </use>
                        <path d="M-4,0h8" fill="none" stroke="white" stroke-width="1.5" pointer-events="none"/>
                </g>
                <g id="dirArrow">
                        <path fill="none" stroke="white" stroke-width="1.5" d="M0,-3.0v7 M-2.5,-0.5L0,-3.0L2.5,-0.5"/>
                </g>
               <g id="resetDef">
                       <use xlink:href="#rim2" fill="#404040">
                               <set attributeName="fill" to="#808080" begin="reset.mouseover" end="reset.mouseout"/>
                       </use>
               </g>
        </defs>

<script type="text/javascript">
var viewWidth = 1364;
var viewHeight = 286;
var sectionId = 'dynsection-1';
</script>
<script xlink:href="svgpan.js"/>
<svg id="graph" class="graph">
<g id="viewport">
<title>CPS::DP::Ph1::CurrentSource</title>
<!-- Node1 -->
<g id="node1" class="node">
<title>Node1</title>
<g id="a_node1"><a xlink:title="Dynamic phasor ideal current source.">
<polygon fill="#bfbfbf" stroke="black" points="1206,-154 1206,-173 1356,-173 1356,-154 1206,-154"/>
<text text-anchor="middle" x="1281" y="-161" font-family="Helvetica" font-size="10.00">CPS::DP::Ph1::CurrentSource</text>
</a>
</g>
</g>
<!-- Node2 -->
<g id="node2" class="node">
<title>Node2</title>
<g id="a_node2"><a xlink:href="class_c_p_s_1_1_m_n_a_interface.html" target="_top" xlink:title="Interface to be implemented by all models used by the MNA solver.">
<polygon fill="none" stroke="black" points="291,-258 291,-277 395,-277 395,-258 291,-258"/>
<text text-anchor="middle" x="343" y="-265" font-family="Helvetica" font-size="10.00">CPS::MNAInterface</text>
</a>
</g>
</g>
<!-- Node2&#45;&gt;Node1 -->
<g id="edge1" class="edge">
<title>Node2&#45;&gt;Node1</title>
<path fill="none" stroke="midnightblue" d="M405.41,-267.5C468.52,-267.5 569.62,-267.5 657,-267.5 657,-267.5 657,-267.5 1043.5,-267.5 1136.8,-267.5 1234.61,-198.84 1268.01,-173.1"/>
<polygon fill="midnightblue" stroke="midnightblue" points="405.23,-264 395.23,-267.5 405.23,-271 405.23,-264"/>
</g>
<!-- Node3 -->
<g id="node3" class="node">
<title>Node3</title>
<g id="a_node3"><a xlink:href="class_c_p_s_1_1_attribute_list.html" target="_top" xlink:title="Base class of objects having attributes to access member variables.">
<polygon fill="none" stroke="black" points="0,-239 0,-258 96,-258 96,-239 0,-239"/>
<text text-anchor="middle" x="48" y="-246" font-family="Helvetica" font-size="10.00">CPS::AttributeList</text>
</a>
</g>
</g>
<!-- Node3&#45;&gt;Node2 -->
<g id="edge2" class="edge">
<title>Node3&#45;&gt;Node2</title>
<path fill="none" stroke="midnightblue" d="M106.31,-252.96C108.91,-253.14 111.48,-253.33 114,-253.5 174.73,-257.7 244.6,-261.9 290.82,-264.58"/>
<polygon fill="midnightblue" stroke="midnightblue" points="106.44,-249.46 96.21,-252.22 105.93,-256.44 106.44,-249.46"/>
</g>
<!-- Node6 -->
<g id="node6" class="node">
<title>Node6</title>
<g id="a_node6"><a xlink:href="class_c_p_s_1_1_identified_object.html" target="_top" xlink:title=" ">
<polygon fill="none" stroke="black" points="147,-220 147,-239 259,-239 259,-220 147,-220"/>
<text text-anchor="middle" x="203" y="-227" font-family="Helvetica" font-size="10.00">CPS::IdentifiedObject</text>
</a>
</g>
</g>
<!-- Node3&#45;&gt;Node6 -->
<g id="edge6" class="edge">
<title>Node3&#45;&gt;Node6</title>
<path fill="none" stroke="midnightblue" d="M106.17,-241.4C119.52,-239.74 133.7,-237.98 146.96,-236.34"/>
<polygon fill="midnightblue" stroke="midnightblue" points="105.65,-237.94 96.15,-242.64 106.51,-244.89 105.65,-237.94"/>
</g>
<!-- Node4 -->
<g id="node4" class="node">
<title>Node4</title>
<g id="a_node4"><a xlink:href="class_c_p_s_1_1_sim_power_comp.html" target="_top" xlink:title=" ">
<polygon fill="none" stroke="black" points="982.5,-170.5 982.5,-200.5 1102.5,-200.5 1102.5,-170.5 982.5,-170.5"/>
<text text-anchor="start" x="990.5" y="-188.5" font-family="Helvetica" font-size="10.00">CPS::SimPowerComp&lt;</text>
<text text-anchor="middle" x="1042.5" y="-177.5" font-family="Helvetica" font-size="10.00"> Complex &gt;</text>
</a>
</g>
</g>
<!-- Node4&#45;&gt;Node1 -->
<g id="edge3" class="edge">
<title>Node4&#45;&gt;Node1</title>
<path fill="none" stroke="midnightblue" d="M1112.67,-179.07C1141.84,-176.35 1175.86,-173.19 1205.58,-170.42"/>
<polygon fill="midnightblue" stroke="midnightblue" points="1112.2,-175.59 1102.57,-180.01 1112.85,-182.56 1112.2,-175.59"/>
</g>
<!-- Node5 -->
<g id="node5" class="node">
<title>Node5</title>
<g id="a_node5"><a xlink:href="class_c_p_s_1_1_topological_power_comp.html" target="_top" xlink:title=" ">
<polygon fill="none" stroke="black" points="413,-220 413,-239 559,-239 559,-220 413,-220"/>
<text text-anchor="middle" x="486" y="-227" font-family="Helvetica" font-size="10.00">CPS::TopologicalPowerComp</text>
</a>
</g>
</g>
<!-- Node5&#45;&gt;Node4 -->
<g id="edge4" class="edge">
<title>Node5&#45;&gt;Node4</title>
<path fill="none" stroke="midnightblue" d="M569.34,-228.78C663.36,-226.95 821.55,-220.79 956,-200.5 964.49,-199.22 973.44,-197.76 982.23,-196.28"/>
<polygon fill="midnightblue" stroke="midnightblue" points="569.26,-225.28 559.33,-228.97 569.39,-232.28 569.26,-225.28"/>
</g>
<!-- Node7 -->
<g id="node7" class="node">
<title>Node7</title>
<g id="a_node7"><a xlink:href="class_c_p_s_1_1_sim_power_comp.html" target="_top" xlink:title="Base class for all components that are transmitting power.">
<polygon fill="none" stroke="black" points="757,-170.5 757,-200.5 877,-200.5 877,-170.5 757,-170.5"/>
<text text-anchor="start" x="765" y="-188.5" font-family="Helvetica" font-size="10.00">CPS::SimPowerComp&lt;</text>
<text text-anchor="middle" x="817" y="-177.5" font-family="Helvetica" font-size="10.00"> VarType &gt;</text>
</a>
</g>
</g>
<!-- Node5&#45;&gt;Node7 -->
<g id="edge8" class="edge">
<title>Node5&#45;&gt;Node7</title>
<path fill="none" stroke="midnightblue" d="M556.58,-218.47C563.47,-217.44 570.37,-216.43 577,-215.5 638.08,-206.92 708.12,-198.27 756.51,-192.47"/>
<polygon fill="midnightblue" stroke="midnightblue" points="555.87,-215.03 546.51,-219.99 556.92,-221.96 555.87,-215.03"/>
</g>
<!-- Node6&#45;&gt;Node5 -->
<g id="edge5" class="edge">
<title>Node6&#45;&gt;Node5</title>
<path fill="none" stroke="midnightblue" d="M269.25,-229.5C312.24,-229.5 368.57,-229.5 412.89,-229.5"/>
<polygon fill="midnightblue" stroke="midnightblue" points="269.18,-226 259.18,-229.5 269.18,-233 269.18,-226"/>
</g>
<!-- Node7&#45;&gt;Node4 -->
<g id="edge7" class="edge">
<title>Node7&#45;&gt;Node4</title>
<path fill="none" stroke="orange" stroke-dasharray="5,2" d="M887.13,-185.5C917.56,-185.5 952.94,-185.5 982.15,-185.5"/>
<polygon fill="orange" stroke="orange" points="887.01,-182 877.01,-185.5 887.01,-189 887.01,-182"/>
<text text-anchor="middle" x="925.5" y="-188.5" font-family="Helvetica" font-size="10.00"> &lt; Complex &gt;</text>
</g>
<!-- Node8 -->
<g id="node8" class="node">
<title>Node8</title>
<g id="a_node8"><a xlink:href="class_shared_factory.html" target="_top" xlink:title=" ">
<polygon fill="none" stroke="black" points="577,-132 577,-151 739,-151 739,-132 577,-132"/>
<text text-anchor="middle" x="658" y="-139" font-family="Helvetica" font-size="10.00">SharedFactory&lt; CurrentSource &gt;</text>
</a>
</g>
</g>
<!-- Node8&#45;&gt;Node1 -->
<g id="edge9" class="edge">
<title>Node8&#45;&gt;Node1</title>
<path fill="none" stroke="midnightblue" d="M749.4,-144.7C872.77,-149.07 1091.53,-156.82 1205.8,-160.87"/>
<polygon fill="midnightblue" stroke="midnightblue" points="749.35,-141.2 739.23,-144.34 749.1,-148.19 749.35,-141.2"/>
</g>
<!-- Node9 -->
<g id="node9" class="node">
<title>Node9</title>
<g id="a_node9"><a xlink:href="class_shared_factory.html" target="_top" xlink:title=" ">
<polygon fill="none" stroke="black" points="150.5,-94 150.5,-113 255.5,-113 255.5,-94 150.5,-94"/>
<text text-anchor="middle" x="203" y="-101" font-family="Helvetica" font-size="10.00">SharedFactory&lt; T &gt;</text>
</a>
</g>
</g>
<!-- Node9&#45;&gt;Node8 -->
<g id="edge10" class="edge">
<title>Node9&#45;&gt;Node8</title>
<path fill="none" stroke="orange" stroke-dasharray="5,2" d="M266.01,-114.21C274.39,-115.44 282.89,-116.58 291,-117.5 389.08,-128.58 502.56,-135.04 576.84,-138.42"/>
<polygon fill="orange" stroke="orange" points="266.29,-110.71 255.88,-112.67 265.24,-117.63 266.29,-110.71"/>
<text text-anchor="middle" x="343" y="-129.5" font-family="Helvetica" font-size="10.00"> &lt; CurrentSource &gt;</text>
</g>
<!-- Node10 -->
<g id="node10" class="node">
<title>Node10</title>
<g id="a_node10"><a xlink:href="class_c_p_s_1_1_attribute.html" target="_top" xlink:title=" ">
<polygon fill="none" stroke="black" points="974,-78 974,-97 1111,-97 1111,-78 974,-78"/>
<text text-anchor="middle" x="1042.5" y="-85" font-family="Helvetica" font-size="10.00">CPS::Attribute&lt; Complex &gt;</text>
</a>
</g>
</g>
<!-- Node9&#45;&gt;Node10 -->
<g id="edge14" class="edge">
<title>Node9&#45;&gt;Node10</title>
<path fill="none" stroke="midnightblue" d="M265.55,-102.45C393.91,-100.25 699.56,-94.89 956,-89.5 961.79,-89.38 967.8,-89.25 973.83,-89.11"/>
<polygon fill="midnightblue" stroke="midnightblue" points="265.45,-98.95 255.51,-102.63 265.57,-105.95 265.45,-98.95"/>
</g>
<!-- Node14 -->
<g id="node14" class="node">
<title>Node14</title>
<g id="a_node14"><a xlink:href="class_shared_factory.html" target="_top" xlink:title=" ">
<polygon fill="none" stroke="black" points="422.5,-44.5 422.5,-74.5 549.5,-74.5 549.5,-44.5 422.5,-44.5"/>
<text text-anchor="start" x="430.5" y="-62.5" font-family="Helvetica" font-size="10.00">SharedFactory&lt; Attribute</text>
<text text-anchor="middle" x="486" y="-51.5" font-family="Helvetica" font-size="10.00">&lt; T &gt; &gt;</text>
</a>
</g>
</g>
<!-- Node9&#45;&gt;Node14 -->
<g id="edge18" class="edge">
<title>Node9&#45;&gt;Node14</title>
<path fill="none" stroke="orange" stroke-dasharray="5,2" d="M242.26,-90.87C257.31,-86.34 274.82,-81.59 291,-78.5 334.38,-70.21 383.95,-65.44 422.12,-62.75"/>
<polygon fill="orange" stroke="orange" points="240.81,-87.66 232.29,-93.95 242.88,-94.35 240.81,-87.66"/>
<text text-anchor="middle" x="343" y="-81.5" font-family="Helvetica" font-size="10.00"> &lt; Attribute&lt; T &gt; &gt;</text>
</g>
<!-- Node10&#45;&gt;Node1 -->
<g id="edge11" class="edge">
<title>Node10&#45;&gt;Node1</title>
<path fill="none" stroke="#9a32cd" stroke-dasharray="5,2" d="M1120.7,-98.94C1142.77,-103.29 1166.63,-109.06 1188,-116.5 1216.29,-126.35 1246.82,-143.35 1264.63,-153.98"/>
<polygon fill="#9a32cd" stroke="#9a32cd" points="1121.18,-95.47 1110.7,-97.04 1119.87,-102.34 1121.18,-95.47"/>
<text text-anchor="middle" x="1158.5" y="-119.5" font-family="Helvetica" font-size="10.00"> mCurrentRef</text>
</g>
<!-- Node11 -->
<g id="node11" class="node">
<title>Node11</title>
<g id="a_node11"><a xlink:href="class_c_p_s_1_1_attribute_base.html" target="_top" xlink:title=" ">
<polygon fill="none" stroke="black" points="434.5,-6 434.5,-25 537.5,-25 537.5,-6 434.5,-6"/>
<text text-anchor="middle" x="486" y="-13" font-family="Helvetica" font-size="10.00">CPS::AttributeBase</text>
</a>
</g>
</g>
<!-- Node11&#45;&gt;Node10 -->
<g id="edge12" class="edge">
<title>Node11&#45;&gt;Node10</title>
<path fill="none" stroke="midnightblue" d="M547.63,-16.42C624.76,-18.48 761.8,-25.13 877,-46.5 923.01,-55.04 975.33,-68.78 1008.36,-77.98"/>
<polygon fill="midnightblue" stroke="midnightblue" points="547.7,-12.92 537.61,-16.17 547.52,-19.92 547.7,-12.92"/>
</g>
<!-- Node13 -->
<g id="node13" class="node">
<title>Node13</title>
<g id="a_node13"><a xlink:href="class_c_p_s_1_1_attribute.html" target="_top" xlink:title=" ">
<polygon fill="none" stroke="black" points="765,-56 765,-75 869,-75 869,-56 765,-56"/>
<text text-anchor="middle" x="817" y="-63" font-family="Helvetica" font-size="10.00">CPS::Attribute&lt; T &gt;</text>
</a>
</g>
</g>
<!-- Node11&#45;&gt;Node13 -->
<g id="edge16" class="edge">
<title>Node11&#45;&gt;Node13</title>
<path fill="none" stroke="midnightblue" d="M547.79,-24.74C610.24,-34.23 706.37,-48.84 764.99,-57.75"/>
<polygon fill="midnightblue" stroke="midnightblue" points="548.1,-21.25 537.69,-23.2 547.05,-28.17 548.1,-21.25"/>
</g>
<!-- Node12 -->
<g id="node12" class="node">
<title>Node12</title>
<g id="a_node12"><a xlink:title=" ">
<polygon fill="none" stroke="#bfbfbf" points="133,-0.5 133,-30.5 273,-30.5 273,-0.5 133,-0.5"/>
<text text-anchor="start" x="141" y="-18.5" font-family="Helvetica" font-size="10.00">std::enable_shared</text>
<text text-anchor="middle" x="203" y="-7.5" font-family="Helvetica" font-size="10.00">_from_this&lt; AttributeBase &gt;</text>
</a>
</g>
</g>
<!-- Node12&#45;&gt;Node11 -->
<g id="edge13" class="edge">
<title>Node12&#45;&gt;Node11</title>
<path fill="none" stroke="midnightblue" d="M283.24,-15.5C331.69,-15.5 392.23,-15.5 434.29,-15.5"/>
<polygon fill="midnightblue" stroke="midnightblue" points="283.1,-12 273.1,-15.5 283.1,-19 283.1,-12"/>
</g>
<!-- Node13&#45;&gt;Node10 -->
<g id="edge15" class="edge">
<title>Node13&#45;&gt;Node10</title>
<path fill="none" stroke="orange" stroke-dasharray="5,2" d="M879.15,-71.12C903.12,-73.35 930.86,-75.99 956,-78.5 961.79,-79.08 967.8,-79.69 973.83,-80.31"/>
<polygon fill="orange" stroke="orange" points="879.41,-67.62 869.13,-70.18 878.76,-74.59 879.41,-67.62"/>
<text text-anchor="middle" x="925.5" y="-81.5" font-family="Helvetica" font-size="10.00"> &lt; Complex &gt;</text>
</g>
<!-- Node14&#45;&gt;Node13 -->
<g id="edge17" class="edge">
<title>Node14&#45;&gt;Node13</title>
<path fill="none" stroke="midnightblue" d="M559.8,-60.83C622,-61.96 709.92,-63.57 764.91,-64.57"/>
<polygon fill="midnightblue" stroke="midnightblue" points="559.72,-57.33 549.66,-60.64 559.59,-64.32 559.72,-57.33"/>
</g>
</g>
</svg>
        <g id="navigator" transform="translate(0 0)" fill="#404254">
                <rect fill="#f2f5e9" fill-opacity="0.5" stroke="#606060" stroke-width=".5" x="0" y="0" width="60" height="60"/>
                <use id="zoomplus" xlink:href="#zoomPlus" x="17" y="9" onmousedown="handleZoom(evt,'in')"/>
                <use id="zoomminus" xlink:href="#zoomMin" x="42" y="9" onmousedown="handleZoom(evt,'out')"/>
                <use id="reset" xlink:href="#resetDef" x="30" y="36" onmousedown="handleReset()"/>
                <g id="arrowUp" xlink:href="#dirArrow" transform="translate(30 24)" onmousedown="handlePan(0,-1)">
                  <use xlink:href="#rim" fill="#404040">
                        <set attributeName="fill" to="#808080" begin="arrowUp.mouseover" end="arrowUp.mouseout"/>
                  </use>
                  <path fill="none" stroke="white" stroke-width="1.5" d="M0,-3.0v7 M-2.5,-0.5L0,-3.0L2.5,-0.5"/>
                </g>
                <g id="arrowRight" xlink:href="#dirArrow" transform="rotate(90) translate(36 -43)" onmousedown="handlePan(1,0)">
                  <use xlink:href="#rim" fill="#404040">
                        <set attributeName="fill" to="#808080" begin="arrowRight.mouseover" end="arrowRight.mouseout"/>
                  </use>
                  <path fill="none" stroke="white" stroke-width="1.5" d="M0,-3.0v7 M-2.5,-0.5L0,-3.0L2.5,-0.5"/>
                </g>
                <g id="arrowDown" xlink:href="#dirArrow" transform="rotate(180) translate(-30 -48)" onmousedown="handlePan(0,1)">
                  <use xlink:href="#rim" fill="#404040">
                        <set attributeName="fill" to="#808080" begin="arrowDown.mouseover" end="arrowDown.mouseout"/>
                  </use>
                  <path fill="none" stroke="white" stroke-width="1.5" d="M0,-3.0v7 M-2.5,-0.5L0,-3.0L2.5,-0.5"/>
                </g>
                <g id="arrowLeft" xlink:href="#dirArrow" transform="rotate(270) translate(-36 17)" onmousedown="handlePan(-1,0)">
                  <use xlink:href="#rim" fill="#404040">
                        <set attributeName="fill" to="#808080" begin="arrowLeft.mouseover" end="arrowLeft.mouseout"/>
                  </use>
                  <path fill="none" stroke="white" stroke-width="1.5" d="M0,-3.0v7 M-2.5,-0.5L0,-3.0L2.5,-0.5"/>
                </g>
        </g>
        <svg viewBox="0 0 15 15" width="100%" height="30px" preserveAspectRatio="xMaxYMin meet">
         <g id="arrow_out" transform="scale(0.3 0.3)">
          <a xlink:href="class_c_p_s_1_1_d_p_1_1_ph1_1_1_current_source__coll__graph_org.svg" target="_base">
           <rect id="button" ry="5" rx="5" y="6" x="6" height="38" width="38"
                fill="#f2f5e9" fill-opacity="0.5" stroke="#606060" stroke-width="1.0"/>
           <path id="arrow"
             d="M 11.500037,31.436501 C 11.940474,20.09759 22.043105,11.32322 32.158766,21.979434 L 37.068811,17.246167 C 37.068811,17.246167 37.088388,32 37.088388,32 L 22.160133,31.978069 C 22.160133,31.978069 26.997745,27.140456 26.997745,27.140456 C 18.528582,18.264221 13.291696,25.230495 11.500037,31.436501 z"
             style="fill:#404040;"/>
          </a>
         </g>
        </svg>
</svg>
