<?xml version="1.0" encoding="UTF-8" standalone="no"?>
<!DOCTYPE svg PUBLIC "-//W3C//DTD SVG 1.1//EN"
 "http://www.w3.org/Graphics/SVG/1.1/DTD/svg11.dtd">
<!-- Generated by graphviz version 2.44.0 (0)
 -->
<!-- Title: CPS::DP::Ph1::Transformer Pages: 1 -->
<!--zoomable 533 -->
<svg id="main" version="1.1" xmlns="http://www.w3.org/2000/svg" xmlns:xlink="http://www.w3.org/1999/xlink" xml:space="preserve" onload="init(evt)">
<style type="text/css"><![CDATA[
.edge:hover path { stroke: red; }
.edge:hover polygon { stroke: red; fill: red; }
]]></style>
<script type="text/javascript"><![CDATA[
var edges = document.getElementsByTagName('g');
if (edges && edges.length) {
  for (var i=0;i<edges.length;i++) {
    if (edges[i].id.substr(0,4)=='edge') {
      edges[i].setAttribute('class','edge');
    }
  }
}
]]></script>
        <defs>
                <circle id="rim" cx="0" cy="0" r="7"/>
                <circle id="rim2" cx="0" cy="0" r="3.5"/>
                <g id="zoomPlus">
                        <use xlink:href="#rim" fill="#404040">
                                <set attributeName="fill" to="#808080" begin="zoomplus.mouseover" end="zoomplus.mouseout"/>
                        </use>
                        <path d="M-4,0h8M0,-4v8" fill="none" stroke="white" stroke-width="1.5" pointer-events="none"/>
                </g>
                <g id="zoomMin">
                        <use xlink:href="#rim" fill="#404040">
                                <set attributeName="fill" to="#808080" begin="zoomminus.mouseover" end="zoomminus.mouseout"/>
                        </use>
                        <path d="M-4,0h8" fill="none" stroke="white" stroke-width="1.5" pointer-events="none"/>
                </g>
                <g id="dirArrow">
                        <path fill="none" stroke="white" stroke-width="1.5" d="M0,-3.0v7 M-2.5,-0.5L0,-3.0L2.5,-0.5"/>
                </g>
               <g id="resetDef">
                       <use xlink:href="#rim2" fill="#404040">
                               <set attributeName="fill" to="#808080" begin="reset.mouseover" end="reset.mouseout"/>
                       </use>
               </g>
        </defs>

<script type="text/javascript">
var viewWidth = 1696;
var viewHeight = 533;
var sectionId = 'dynsection-1';
</script>
<script xlink:href="svgpan.js"/>
<svg id="graph" class="graph">
<g id="viewport">
<title>CPS::DP::Ph1::Transformer</title>
<!-- Node1 -->
<g id="node1" class="node">
<title>Node1</title>
<g id="a_node1"><a xlink:title="Transformer that includes an inductance and resistance.">
<polygon fill="#bfbfbf" stroke="black" points="1549,-256.1 1549,-275.1 1688,-275.1 1688,-256.1 1549,-256.1"/>
<text text-anchor="middle" x="1618.5" y="-263.1" font-family="Helvetica" font-size="10.00">CPS::DP::Ph1::Transformer</text>
</a>
</g>
</g>
<!-- Node2 -->
<g id="node2" class="node">
<title>Node2</title>
<g id="a_node2"><a xlink:href="class_c_p_s_1_1_sim_power_comp.html" target="_top" xlink:title=" ">
<polygon fill="none" stroke="black" points="1376.5,-318.6 1376.5,-348.6 1496.5,-348.6 1496.5,-318.6 1376.5,-318.6"/>
<text text-anchor="start" x="1384.5" y="-336.6" font-family="Helvetica" font-size="10.00">CPS::SimPowerComp&lt;</text>
<text text-anchor="middle" x="1436.5" y="-325.6" font-family="Helvetica" font-size="10.00"> Complex &gt;</text>
</a>
</g>
</g>
<!-- Node2&#45;&gt;Node1 -->
<g id="edge1" class="edge">
<title>Node2&#45;&gt;Node1</title>
<path fill="none" stroke="midnightblue" d="M1487.22,-314.81C1521.25,-301.96 1564.96,-285.45 1592.1,-275.19"/>
<polygon fill="midnightblue" stroke="midnightblue" points="1485.57,-311.7 1477.45,-318.51 1488.04,-318.25 1485.57,-311.7"/>
</g>
<!-- Node3 -->
<g id="node3" class="node">
<title>Node3</title>
<g id="a_node3"><a xlink:href="class_c_p_s_1_1_topological_power_comp.html" target="_top" xlink:title=" ">
<polygon fill="none" stroke="black" points="949,-335.1 949,-354.1 1095,-354.1 1095,-335.1 949,-335.1"/>
<text text-anchor="middle" x="1022" y="-342.1" font-family="Helvetica" font-size="10.00">CPS::TopologicalPowerComp</text>
</a>
</g>
</g>
<!-- Node3&#45;&gt;Node2 -->
<g id="edge2" class="edge">
<title>Node3&#45;&gt;Node2</title>
<path fill="none" stroke="midnightblue" d="M1105.38,-342.4C1185.48,-340.26 1305.19,-337.07 1376.3,-335.18"/>
<polygon fill="midnightblue" stroke="midnightblue" points="1105.23,-338.9 1095.32,-342.67 1105.41,-345.9 1105.23,-338.9"/>
</g>
<!-- Node11 -->
<g id="node11" class="node">
<title>Node11</title>
<g id="a_node11"><a xlink:href="class_c_p_s_1_1_sim_power_comp.html" target="_top" xlink:title="Base class for all components that are transmitting power.">
<polygon fill="none" stroke="black" points="1132,-362.6 1132,-392.6 1252,-392.6 1252,-362.6 1132,-362.6"/>
<text text-anchor="start" x="1140" y="-380.6" font-family="Helvetica" font-size="10.00">CPS::SimPowerComp&lt;</text>
<text text-anchor="middle" x="1192" y="-369.6" font-family="Helvetica" font-size="10.00"> VarType &gt;</text>
</a>
</g>
</g>
<!-- Node3&#45;&gt;Node11 -->
<g id="edge12" class="edge">
<title>Node3&#45;&gt;Node11</title>
<path fill="none" stroke="midnightblue" d="M1081.52,-356.09C1097.79,-359.29 1115.47,-362.76 1131.79,-365.97"/>
<polygon fill="midnightblue" stroke="midnightblue" points="1082.08,-352.63 1071.59,-354.14 1080.73,-359.5 1082.08,-352.63"/>
</g>
<!-- Node4 -->
<g id="node4" class="node">
<title>Node4</title>
<g id="a_node4"><a xlink:href="class_c_p_s_1_1_identified_object.html" target="_top" xlink:title=" ">
<polygon fill="none" stroke="black" points="725.5,-335.1 725.5,-354.1 837.5,-354.1 837.5,-335.1 725.5,-335.1"/>
<text text-anchor="middle" x="781.5" y="-342.1" font-family="Helvetica" font-size="10.00">CPS::IdentifiedObject</text>
</a>
</g>
</g>
<!-- Node4&#45;&gt;Node3 -->
<g id="edge3" class="edge">
<title>Node4&#45;&gt;Node3</title>
<path fill="none" stroke="midnightblue" d="M847.85,-344.6C879.07,-344.6 916.54,-344.6 948.62,-344.6"/>
<polygon fill="midnightblue" stroke="midnightblue" points="847.52,-341.1 837.52,-344.6 847.52,-348.1 847.52,-341.1"/>
</g>
<!-- Node5 -->
<g id="node5" class="node">
<title>Node5</title>
<g id="a_node5"><a xlink:href="class_c_p_s_1_1_attribute_list.html" target="_top" xlink:title="Base class of objects having attributes to access member variables.">
<polygon fill="none" stroke="black" points="455.5,-322.1 455.5,-341.1 551.5,-341.1 551.5,-322.1 455.5,-322.1"/>
<text text-anchor="middle" x="503.5" y="-329.1" font-family="Helvetica" font-size="10.00">CPS::AttributeList</text>
</a>
</g>
</g>
<!-- Node5&#45;&gt;Node4 -->
<g id="edge4" class="edge">
<title>Node5&#45;&gt;Node4</title>
<path fill="none" stroke="midnightblue" d="M561.87,-334.3C609.94,-336.56 678.1,-339.77 725.49,-342.01"/>
<polygon fill="midnightblue" stroke="midnightblue" points="561.79,-330.79 551.63,-333.82 561.46,-337.78 561.79,-330.79"/>
</g>
<!-- Node14 -->
<g id="node14" class="node">
<title>Node14</title>
<g id="a_node14"><a xlink:href="class_c_p_s_1_1_m_n_a_interface.html" target="_top" xlink:title="Interface to be implemented by all models used by the MNA solver.">
<polygon fill="none" stroke="black" points="729.5,-269.1 729.5,-288.1 833.5,-288.1 833.5,-269.1 729.5,-269.1"/>
<text text-anchor="middle" x="781.5" y="-276.1" font-family="Helvetica" font-size="10.00">CPS::MNAInterface</text>
</a>
</g>
</g>
<!-- Node5&#45;&gt;Node14 -->
<g id="edge18" class="edge">
<title>Node5&#45;&gt;Node14</title>
<path fill="none" stroke="midnightblue" d="M561.62,-320.63C611.51,-311.05 683.19,-297.28 730.77,-288.15"/>
<polygon fill="midnightblue" stroke="midnightblue" points="560.79,-317.22 551.63,-322.55 562.11,-324.1 560.79,-317.22"/>
</g>
<!-- Node6 -->
<g id="node6" class="node">
<title>Node6</title>
<g id="a_node6"><a xlink:href="class_c_p_s_1_1_attribute.html" target="_top" xlink:title=" ">
<polygon fill="none" stroke="black" points="441.5,-364.1 441.5,-383.1 565.5,-383.1 565.5,-364.1 441.5,-364.1"/>
<text text-anchor="middle" x="503.5" y="-371.1" font-family="Helvetica" font-size="10.00">CPS::Attribute&lt; String &gt;</text>
</a>
</g>
</g>
<!-- Node6&#45;&gt;Node4 -->
<g id="edge5" class="edge">
<title>Node6&#45;&gt;Node4</title>
<path fill="none" stroke="#9a32cd" stroke-dasharray="5,2" d="M575.76,-366.11C622.27,-361.22 682.09,-354.94 725.04,-350.42"/>
<polygon fill="#9a32cd" stroke="#9a32cd" points="575.33,-362.63 565.75,-367.16 576.06,-369.6 575.33,-362.63"/>
<text text-anchor="middle" x="640" y="-377.6" font-family="Helvetica" font-size="10.00"> mName</text>
<text text-anchor="middle" x="640" y="-366.6" font-family="Helvetica" font-size="10.00">mUID</text>
</g>
<!-- Node7 -->
<g id="node7" class="node">
<title>Node7</title>
<g id="a_node7"><a xlink:href="class_c_p_s_1_1_attribute_base.html" target="_top" xlink:title=" ">
<polygon fill="none" stroke="black" points="2.5,-220.1 2.5,-239.1 105.5,-239.1 105.5,-220.1 2.5,-220.1"/>
<text text-anchor="middle" x="54" y="-227.1" font-family="Helvetica" font-size="10.00">CPS::AttributeBase</text>
</a>
</g>
</g>
<!-- Node7&#45;&gt;Node6 -->
<g id="edge6" class="edge">
<title>Node7&#45;&gt;Node6</title>
<path fill="none" stroke="midnightblue" d="M67.89,-247.54C83.75,-268.34 112.59,-302.23 145,-321.6 237.2,-376.69 366.02,-381.34 441.21,-378.39"/>
<polygon fill="midnightblue" stroke="midnightblue" points="70.51,-245.2 61.73,-239.26 64.89,-249.37 70.51,-245.2"/>
</g>
<!-- Node9 -->
<g id="node9" class="node">
<title>Node9</title>
<g id="a_node9"><a xlink:href="class_c_p_s_1_1_attribute.html" target="_top" xlink:title=" ">
<polygon fill="none" stroke="black" points="162,-293.1 162,-312.1 266,-312.1 266,-293.1 162,-293.1"/>
<text text-anchor="middle" x="214" y="-300.1" font-family="Helvetica" font-size="10.00">CPS::Attribute&lt; T &gt;</text>
</a>
</g>
</g>
<!-- Node7&#45;&gt;Node9 -->
<g id="edge9" class="edge">
<title>Node7&#45;&gt;Node9</title>
<path fill="none" stroke="midnightblue" d="M76.87,-245C94.56,-256.89 120.49,-273.05 145,-283.6 153.56,-287.28 163.03,-290.45 172.11,-293.09"/>
<polygon fill="midnightblue" stroke="midnightblue" points="78.64,-241.97 68.41,-239.22 74.69,-247.75 78.64,-241.97"/>
</g>
<!-- Node12 -->
<g id="node12" class="node">
<title>Node12</title>
<g id="a_node12"><a xlink:href="class_c_p_s_1_1_attribute.html" target="_top" xlink:title=" ">
<polygon fill="none" stroke="black" points="438,-438.6 438,-468.6 569,-468.6 569,-438.6 438,-438.6"/>
<text text-anchor="start" x="446" y="-456.6" font-family="Helvetica" font-size="10.00">CPS::Attribute&lt; MatrixVar</text>
<text text-anchor="middle" x="503.5" y="-445.6" font-family="Helvetica" font-size="10.00">&lt; VarType &gt; &gt;</text>
</a>
</g>
</g>
<!-- Node7&#45;&gt;Node12 -->
<g id="edge14" class="edge">
<title>Node7&#45;&gt;Node12</title>
<path fill="none" stroke="midnightblue" d="M63.2,-248.45C85.3,-299.26 144.48,-435.24 145,-435.6 190.82,-467.26 347.75,-463.41 437.72,-458.25"/>
<polygon fill="midnightblue" stroke="midnightblue" points="66.39,-247.01 59.19,-239.24 59.97,-249.8 66.39,-247.01"/>
</g>
<!-- Node15 -->
<g id="node15" class="node">
<title>Node15</title>
<g id="a_node15"><a xlink:href="class_c_p_s_1_1_attribute.html" target="_top" xlink:title=" ">
<polygon fill="none" stroke="black" points="441,-245.1 441,-264.1 566,-264.1 566,-245.1 441,-245.1"/>
<text text-anchor="middle" x="503.5" y="-252.1" font-family="Helvetica" font-size="10.00">CPS::Attribute&lt; Matrix &gt;</text>
</a>
</g>
</g>
<!-- Node7&#45;&gt;Node15 -->
<g id="edge20" class="edge">
<title>Node7&#45;&gt;Node15</title>
<path fill="none" stroke="midnightblue" d="M102.55,-217.86C172.58,-202.58 307.03,-180.89 417,-208.6 444.95,-215.64 473.71,-233.8 489.73,-245.08"/>
<polygon fill="midnightblue" stroke="midnightblue" points="101.7,-214.46 92.7,-220.06 103.22,-221.3 101.7,-214.46"/>
</g>
<!-- Node20 -->
<g id="node20" class="node">
<title>Node20</title>
<g id="a_node20"><a xlink:href="class_c_p_s_1_1_attribute.html" target="_top" xlink:title=" ">
<polygon fill="none" stroke="black" points="444.5,-156.1 444.5,-175.1 562.5,-175.1 562.5,-156.1 444.5,-156.1"/>
<text text-anchor="middle" x="503.5" y="-163.1" font-family="Helvetica" font-size="10.00">CPS::Attribute&lt; Real &gt;</text>
</a>
</g>
</g>
<!-- Node7&#45;&gt;Node20 -->
<g id="edge27" class="edge">
<title>Node7&#45;&gt;Node20</title>
<path fill="none" stroke="midnightblue" d="M64.63,-211.01C78.57,-186.32 106.94,-143.73 145,-125.6 254.15,-73.58 299.62,-91.59 417,-120.6 444.68,-127.44 473.3,-145.04 489.41,-156.09"/>
<polygon fill="midnightblue" stroke="midnightblue" points="61.55,-209.34 59.85,-219.79 67.7,-212.68 61.55,-209.34"/>
</g>
<!-- Node22 -->
<g id="node22" class="node">
<title>Node22</title>
<g id="a_node22"><a xlink:href="class_c_p_s_1_1_attribute.html" target="_top" xlink:title=" ">
<polygon fill="none" stroke="black" points="435,-83.1 435,-102.1 572,-102.1 572,-83.1 435,-83.1"/>
<text text-anchor="middle" x="503.5" y="-90.1" font-family="Helvetica" font-size="10.00">CPS::Attribute&lt; Complex &gt;</text>
</a>
</g>
</g>
<!-- Node7&#45;&gt;Node22 -->
<g id="edge31" class="edge">
<title>Node7&#45;&gt;Node22</title>
<path fill="none" stroke="midnightblue" d="M56.96,-209.47C62.3,-167.05 81.29,-68.96 145,-27.6 259.29,46.6 435.22,-50.68 487.41,-82.9"/>
<polygon fill="midnightblue" stroke="midnightblue" points="53.45,-209.32 55.81,-219.65 60.41,-210.11 53.45,-209.32"/>
</g>
<!-- Node8 -->
<g id="node8" class="node">
<title>Node8</title>
<g id="a_node8"><a xlink:title=" ">
<polygon fill="none" stroke="#bfbfbf" points="160,-385.1 160,-426.1 268,-426.1 268,-385.1 160,-385.1"/>
<text text-anchor="start" x="168" y="-414.1" font-family="Helvetica" font-size="10.00">std::enable_shared</text>
<text text-anchor="start" x="168" y="-403.1" font-family="Helvetica" font-size="10.00">_from_this&lt; Attribute</text>
<text text-anchor="middle" x="214" y="-392.1" font-family="Helvetica" font-size="10.00">&lt; String &gt; &gt;</text>
</a>
</g>
</g>
<!-- Node8&#45;&gt;Node6 -->
<g id="edge7" class="edge">
<title>Node8&#45;&gt;Node6</title>
<path fill="none" stroke="midnightblue" d="M278.49,-403.45C318.4,-401.54 370.88,-398.02 417,-391.6 432.02,-389.5 448.36,-386.3 462.68,-383.17"/>
<polygon fill="midnightblue" stroke="midnightblue" points="278.2,-399.96 268.37,-403.91 278.52,-406.95 278.2,-399.96"/>
</g>
<!-- Node9&#45;&gt;Node6 -->
<g id="edge8" class="edge">
<title>Node9&#45;&gt;Node6</title>
<path fill="none" stroke="orange" stroke-dasharray="5,2" d="M276.63,-302.48C327.27,-303.44 394.24,-307.5 417,-321.6 429.9,-329.58 423.13,-341.15 435,-350.6 442.27,-356.38 451.07,-360.74 459.88,-364.03"/>
<polygon fill="orange" stroke="orange" points="276.47,-298.97 266.42,-302.32 276.36,-305.97 276.47,-298.97"/>
<text text-anchor="middle" x="359" y="-324.6" font-family="Helvetica" font-size="10.00"> &lt; String &gt;</text>
</g>
<!-- Node9&#45;&gt;Node12 -->
<g id="edge16" class="edge">
<title>Node9&#45;&gt;Node12</title>
<path fill="none" stroke="orange" stroke-dasharray="5,2" d="M242.48,-317.03C296.9,-345.61 417.94,-409.18 473.54,-438.39"/>
<polygon fill="orange" stroke="orange" points="243.9,-313.82 233.42,-312.27 240.65,-320.02 243.9,-313.82"/>
<text text-anchor="middle" x="359" y="-407.6" font-family="Helvetica" font-size="10.00"> &lt; MatrixVar&lt; VarType &gt; &gt;</text>
</g>
<!-- Node9&#45;&gt;Node15 -->
<g id="edge22" class="edge">
<title>Node9&#45;&gt;Node15</title>
<path fill="none" stroke="orange" stroke-dasharray="5,2" d="M276.38,-291.81C284.65,-290.38 293.03,-288.94 301,-287.6 348.88,-279.5 403.23,-270.62 443.4,-264.11"/>
<polygon fill="orange" stroke="orange" points="275.63,-288.39 266.37,-293.55 276.82,-295.29 275.63,-288.39"/>
<text text-anchor="middle" x="359" y="-290.6" font-family="Helvetica" font-size="10.00"> &lt; Matrix &gt;</text>
</g>
<!-- Node9&#45;&gt;Node20 -->
<g id="edge29" class="edge">
<title>Node9&#45;&gt;Node20</title>
<path fill="none" stroke="orange" stroke-dasharray="5,2" d="M275.17,-288.68C277.91,-287.16 280.54,-285.47 283,-283.6 295.37,-274.17 289.32,-263.86 301,-253.6 348.45,-211.89 418.77,-187.33 462.55,-175.18"/>
<polygon fill="orange" stroke="orange" points="273.6,-285.55 266.07,-292.99 276.6,-291.87 273.6,-285.55"/>
<text text-anchor="middle" x="359" y="-256.6" font-family="Helvetica" font-size="10.00"> &lt; Real &gt;</text>
</g>
<!-- Node9&#45;&gt;Node22 -->
<g id="edge33" class="edge">
<title>Node9&#45;&gt;Node22</title>
<path fill="none" stroke="orange" stroke-dasharray="5,2" d="M275.28,-290.3C278.1,-288.37 280.7,-286.15 283,-283.6 315.25,-247.74 271.01,-214.36 301,-176.6 335.06,-133.71 394.87,-112.48 440.51,-102.11"/>
<polygon fill="orange" stroke="orange" points="273.33,-287.38 266.26,-295.27 276.7,-293.51 273.33,-287.38"/>
<text text-anchor="middle" x="359" y="-179.6" font-family="Helvetica" font-size="10.00"> &lt; Complex &gt;</text>
</g>
<!-- Node10 -->
<g id="node10" class="node">
<title>Node10</title>
<g id="a_node10"><a xlink:title=" ">
<polygon fill="none" stroke="#bfbfbf" points="0,-361.1 0,-402.1 108,-402.1 108,-361.1 0,-361.1"/>
<text text-anchor="start" x="8" y="-390.1" font-family="Helvetica" font-size="10.00">std::enable_shared</text>
<text text-anchor="start" x="8" y="-379.1" font-family="Helvetica" font-size="10.00">_from_this&lt; Attribute</text>
<text text-anchor="middle" x="54" y="-368.1" font-family="Helvetica" font-size="10.00">&lt; T &gt; &gt;</text>
</a>
</g>
</g>
<!-- Node10&#45;&gt;Node9 -->
<g id="edge10" class="edge">
<title>Node10&#45;&gt;Node9</title>
<path fill="none" stroke="midnightblue" d="M105.2,-356.5C135.26,-341.46 171.78,-323.21 193.66,-312.27"/>
<polygon fill="midnightblue" stroke="midnightblue" points="103.48,-353.44 96.1,-361.05 106.61,-359.7 103.48,-353.44"/>
</g>
<!-- Node11&#45;&gt;Node2 -->
<g id="edge11" class="edge">
<title>Node11&#45;&gt;Node2</title>
<path fill="none" stroke="orange" stroke-dasharray="5,2" d="M1261.97,-365.08C1298.02,-358.54 1341.7,-350.62 1376.22,-344.35"/>
<polygon fill="orange" stroke="orange" points="1261.23,-361.66 1252.01,-366.89 1262.48,-368.55 1261.23,-361.66"/>
<text text-anchor="middle" x="1306.5" y="-365.6" font-family="Helvetica" font-size="10.00"> &lt; Complex &gt;</text>
</g>
<!-- Node12&#45;&gt;Node11 -->
<g id="edge13" class="edge">
<title>Node12&#45;&gt;Node11</title>
<path fill="none" stroke="#9a32cd" stroke-dasharray="5,2" d="M579.11,-445.34C716.58,-430.12 1007.17,-397.95 1131.99,-384.13"/>
<polygon fill="#9a32cd" stroke="#9a32cd" points="578.64,-441.87 569.08,-446.45 579.41,-448.82 578.64,-441.87"/>
<text text-anchor="middle" x="902" y="-426.6" font-family="Helvetica" font-size="10.00"> mIntfCurrent</text>
<text text-anchor="middle" x="902" y="-415.6" font-family="Helvetica" font-size="10.00">mIntfVoltage</text>
</g>
<!-- Node13 -->
<g id="node13" class="node">
<title>Node13</title>
<g id="a_node13"><a xlink:title=" ">
<polygon fill="none" stroke="#bfbfbf" points="145,-483.1 145,-524.1 283,-524.1 283,-483.1 145,-483.1"/>
<text text-anchor="start" x="153" y="-512.1" font-family="Helvetica" font-size="10.00">std::enable_shared</text>
<text text-anchor="start" x="153" y="-501.1" font-family="Helvetica" font-size="10.00">_from_this&lt; Attribute</text>
<text text-anchor="middle" x="214" y="-490.1" font-family="Helvetica" font-size="10.00">&lt; MatrixVar&lt; VarType &gt; &gt; &gt;</text>
</a>
</g>
</g>
<!-- Node13&#45;&gt;Node12 -->
<g id="edge15" class="edge">
<title>Node13&#45;&gt;Node12</title>
<path fill="none" stroke="midnightblue" d="M293.59,-490.02C330.97,-483.55 376.3,-475.69 417,-468.6 423.68,-467.43 430.65,-466.21 437.61,-465"/>
<polygon fill="midnightblue" stroke="midnightblue" points="292.52,-486.65 283.26,-491.81 293.71,-493.55 292.52,-486.65"/>
</g>
<!-- Node14&#45;&gt;Node1 -->
<g id="edge17" class="edge">
<title>Node14&#45;&gt;Node1</title>
<path fill="none" stroke="midnightblue" d="M843.94,-278.6C892.1,-278.6 960.82,-278.6 1021,-278.6 1021,-278.6 1021,-278.6 1437.5,-278.6 1474.31,-278.6 1515.25,-275.86 1548.78,-272.89"/>
<polygon fill="midnightblue" stroke="midnightblue" points="843.68,-275.1 833.68,-278.6 843.68,-282.1 843.68,-275.1"/>
</g>
<!-- Node15&#45;&gt;Node14 -->
<g id="edge19" class="edge">
<title>Node15&#45;&gt;Node14</title>
<path fill="none" stroke="#9a32cd" stroke-dasharray="5,2" d="M576.11,-260.82C624.11,-265 686.18,-270.39 729.27,-274.14"/>
<polygon fill="#9a32cd" stroke="#9a32cd" points="576.36,-257.33 566.1,-259.95 575.76,-264.31 576.36,-257.33"/>
<text text-anchor="middle" x="640" y="-272.6" font-family="Helvetica" font-size="10.00"> mRightVector</text>
</g>
<!-- Node16 -->
<g id="node16" class="node">
<title>Node16</title>
<g id="a_node16"><a xlink:title=" ">
<polygon fill="none" stroke="#bfbfbf" points="160,-233.1 160,-274.1 268,-274.1 268,-233.1 160,-233.1"/>
<text text-anchor="start" x="168" y="-262.1" font-family="Helvetica" font-size="10.00">std::enable_shared</text>
<text text-anchor="start" x="168" y="-251.1" font-family="Helvetica" font-size="10.00">_from_this&lt; Attribute</text>
<text text-anchor="middle" x="214" y="-240.1" font-family="Helvetica" font-size="10.00">&lt; Matrix &gt; &gt;</text>
</a>
</g>
</g>
<!-- Node16&#45;&gt;Node15 -->
<g id="edge21" class="edge">
<title>Node16&#45;&gt;Node15</title>
<path fill="none" stroke="midnightblue" d="M278.1,-253.82C326.43,-253.98 392.76,-254.21 440.75,-254.38"/>
<polygon fill="midnightblue" stroke="midnightblue" points="278.08,-250.32 268.07,-253.78 278.05,-257.32 278.08,-250.32"/>
</g>
<!-- Node17 -->
<g id="node17" class="node">
<title>Node17</title>
<g id="a_node17"><a xlink:href="class_shared_factory.html" target="_top" xlink:title=" ">
<polygon fill="none" stroke="black" points="1361,-231.1 1361,-250.1 1512,-250.1 1512,-231.1 1361,-231.1"/>
<text text-anchor="middle" x="1436.5" y="-238.1" font-family="Helvetica" font-size="10.00">SharedFactory&lt; Transformer &gt;</text>
</a>
</g>
</g>
<!-- Node17&#45;&gt;Node1 -->
<g id="edge23" class="edge">
<title>Node17&#45;&gt;Node1</title>
<path fill="none" stroke="midnightblue" d="M1516.02,-251.5C1526.94,-253.02 1538.1,-254.57 1548.83,-256.06"/>
<polygon fill="midnightblue" stroke="midnightblue" points="1516.45,-248.03 1506.06,-250.12 1515.49,-254.96 1516.45,-248.03"/>
</g>
<!-- Node18 -->
<g id="node18" class="node">
<title>Node18</title>
<g id="a_node18"><a xlink:href="class_shared_factory.html" target="_top" xlink:title=" ">
<polygon fill="none" stroke="black" points="1139.5,-231.1 1139.5,-250.1 1244.5,-250.1 1244.5,-231.1 1139.5,-231.1"/>
<text text-anchor="middle" x="1192" y="-238.1" font-family="Helvetica" font-size="10.00">SharedFactory&lt; T &gt;</text>
</a>
</g>
</g>
<!-- Node18&#45;&gt;Node17 -->
<g id="edge24" class="edge">
<title>Node18&#45;&gt;Node17</title>
<path fill="none" stroke="orange" stroke-dasharray="5,2" d="M1254.92,-240.6C1287.19,-240.6 1326.89,-240.6 1360.84,-240.6"/>
<polygon fill="orange" stroke="orange" points="1254.72,-237.1 1244.72,-240.6 1254.72,-244.1 1254.72,-237.1"/>
<text text-anchor="middle" x="1306.5" y="-243.6" font-family="Helvetica" font-size="10.00"> &lt; Transformer &gt;</text>
</g>
<!-- Node19 -->
<g id="node19" class="node">
<title>Node19</title>
<g id="a_node19"><a xlink:href="class_c_p_s_1_1_base_1_1_ph1_1_1_transformer.html" target="_top" xlink:title=" ">
<polygon fill="none" stroke="black" points="708,-156.1 708,-175.1 855,-175.1 855,-156.1 708,-156.1"/>
<text text-anchor="middle" x="781.5" y="-163.1" font-family="Helvetica" font-size="10.00">CPS::Base::Ph1::Transformer</text>
</a>
</g>
</g>
<!-- Node19&#45;&gt;Node1 -->
<g id="edge25" class="edge">
<title>Node19&#45;&gt;Node1</title>
<path fill="none" stroke="midnightblue" d="M865.42,-172.86C911.25,-176.27 969.23,-179.6 1021,-179.6 1021,-179.6 1021,-179.6 1437.5,-179.6 1507.81,-179.6 1579.8,-233.67 1606.59,-256.06"/>
<polygon fill="midnightblue" stroke="midnightblue" points="865.48,-169.35 855.24,-172.08 864.94,-176.33 865.48,-169.35"/>
</g>
<!-- Node20&#45;&gt;Node19 -->
<g id="edge26" class="edge">
<title>Node20&#45;&gt;Node19</title>
<path fill="none" stroke="#9a32cd" stroke-dasharray="5,2" d="M572.88,-165.6C613.92,-165.6 666.09,-165.6 707.87,-165.6"/>
<polygon fill="#9a32cd" stroke="#9a32cd" points="572.7,-162.1 562.7,-165.6 572.7,-169.1 572.7,-162.1"/>
<text text-anchor="middle" x="640" y="-212.6" font-family="Helvetica" font-size="10.00"> mInductance</text>
<text text-anchor="middle" x="640" y="-201.6" font-family="Helvetica" font-size="10.00">mNominalVoltageEnd1</text>
<text text-anchor="middle" x="640" y="-190.6" font-family="Helvetica" font-size="10.00">mNominalVoltageEnd2</text>
<text text-anchor="middle" x="640" y="-179.6" font-family="Helvetica" font-size="10.00">mRatedPower</text>
<text text-anchor="middle" x="640" y="-168.6" font-family="Helvetica" font-size="10.00">mResistance</text>
</g>
<!-- Node21 -->
<g id="node21" class="node">
<title>Node21</title>
<g id="a_node21"><a xlink:title=" ">
<polygon fill="none" stroke="#bfbfbf" points="160,-135.1 160,-176.1 268,-176.1 268,-135.1 160,-135.1"/>
<text text-anchor="start" x="168" y="-164.1" font-family="Helvetica" font-size="10.00">std::enable_shared</text>
<text text-anchor="start" x="168" y="-153.1" font-family="Helvetica" font-size="10.00">_from_this&lt; Attribute</text>
<text text-anchor="middle" x="214" y="-142.1" font-family="Helvetica" font-size="10.00">&lt; Real &gt; &gt;</text>
</a>
</g>
</g>
<!-- Node21&#45;&gt;Node20 -->
<g id="edge28" class="edge">
<title>Node21&#45;&gt;Node20</title>
<path fill="none" stroke="midnightblue" d="M278.34,-157.8C327.86,-159.52 396.15,-161.9 444.31,-163.57"/>
<polygon fill="midnightblue" stroke="midnightblue" points="278.18,-154.29 268.07,-157.44 277.94,-161.29 278.18,-154.29"/>
</g>
<!-- Node22&#45;&gt;Node19 -->
<g id="edge30" class="edge">
<title>Node22&#45;&gt;Node19</title>
<path fill="none" stroke="#9a32cd" stroke-dasharray="5,2" d="M550.33,-104.72C604.81,-119.13 694.61,-142.88 744.41,-156.05"/>
<polygon fill="#9a32cd" stroke="#9a32cd" points="551.14,-101.31 540.58,-102.14 549.35,-108.08 551.14,-101.31"/>
<text text-anchor="middle" x="640" y="-143.6" font-family="Helvetica" font-size="10.00"> mRatio</text>
</g>
<!-- Node23 -->
<g id="node23" class="node">
<title>Node23</title>
<g id="a_node23"><a xlink:title=" ">
<polygon fill="none" stroke="#bfbfbf" points="160,-37.1 160,-78.1 268,-78.1 268,-37.1 160,-37.1"/>
<text text-anchor="start" x="168" y="-66.1" font-family="Helvetica" font-size="10.00">std::enable_shared</text>
<text text-anchor="start" x="168" y="-55.1" font-family="Helvetica" font-size="10.00">_from_this&lt; Attribute</text>
<text text-anchor="middle" x="214" y="-44.1" font-family="Helvetica" font-size="10.00">&lt; Complex &gt; &gt;</text>
</a>
</g>
</g>
<!-- Node23&#45;&gt;Node22 -->
<g id="edge32" class="edge">
<title>Node23&#45;&gt;Node22</title>
<path fill="none" stroke="midnightblue" d="M278.28,-65.3C324.63,-70.94 387.42,-78.59 434.77,-84.35"/>
<polygon fill="midnightblue" stroke="midnightblue" points="278.42,-61.79 268.07,-64.06 277.57,-68.74 278.42,-61.79"/>
</g>
</g>
</svg>
        <g id="navigator" transform="translate(0 0)" fill="#404254">
                <rect fill="#f2f5e9" fill-opacity="0.5" stroke="#606060" stroke-width=".5" x="0" y="0" width="60" height="60"/>
                <use id="zoomplus" xlink:href="#zoomPlus" x="17" y="9" onmousedown="handleZoom(evt,'in')"/>
                <use id="zoomminus" xlink:href="#zoomMin" x="42" y="9" onmousedown="handleZoom(evt,'out')"/>
                <use id="reset" xlink:href="#resetDef" x="30" y="36" onmousedown="handleReset()"/>
                <g id="arrowUp" xlink:href="#dirArrow" transform="translate(30 24)" onmousedown="handlePan(0,-1)">
                  <use xlink:href="#rim" fill="#404040">
                        <set attributeName="fill" to="#808080" begin="arrowUp.mouseover" end="arrowUp.mouseout"/>
                  </use>
                  <path fill="none" stroke="white" stroke-width="1.5" d="M0,-3.0v7 M-2.5,-0.5L0,-3.0L2.5,-0.5"/>
                </g>
                <g id="arrowRight" xlink:href="#dirArrow" transform="rotate(90) translate(36 -43)" onmousedown="handlePan(1,0)">
                  <use xlink:href="#rim" fill="#404040">
                        <set attributeName="fill" to="#808080" begin="arrowRight.mouseover" end="arrowRight.mouseout"/>
                  </use>
                  <path fill="none" stroke="white" stroke-width="1.5" d="M0,-3.0v7 M-2.5,-0.5L0,-3.0L2.5,-0.5"/>
                </g>
                <g id="arrowDown" xlink:href="#dirArrow" transform="rotate(180) translate(-30 -48)" onmousedown="handlePan(0,1)">
                  <use xlink:href="#rim" fill="#404040">
                        <set attributeName="fill" to="#808080" begin="arrowDown.mouseover" end="arrowDown.mouseout"/>
                  </use>
                  <path fill="none" stroke="white" stroke-width="1.5" d="M0,-3.0v7 M-2.5,-0.5L0,-3.0L2.5,-0.5"/>
                </g>
                <g id="arrowLeft" xlink:href="#dirArrow" transform="rotate(270) translate(-36 17)" onmousedown="handlePan(-1,0)">
                  <use xlink:href="#rim" fill="#404040">
                        <set attributeName="fill" to="#808080" begin="arrowLeft.mouseover" end="arrowLeft.mouseout"/>
                  </use>
                  <path fill="none" stroke="white" stroke-width="1.5" d="M0,-3.0v7 M-2.5,-0.5L0,-3.0L2.5,-0.5"/>
                </g>
        </g>
        <svg viewBox="0 0 15 15" width="100%" height="30px" preserveAspectRatio="xMaxYMin meet">
         <g id="arrow_out" transform="scale(0.3 0.3)">
          <a xlink:href="class_c_p_s_1_1_d_p_1_1_ph1_1_1_transformer__coll__graph_org.svg" target="_base">
           <rect id="button" ry="5" rx="5" y="6" x="6" height="38" width="38"
                fill="#f2f5e9" fill-opacity="0.5" stroke="#606060" stroke-width="1.0"/>
           <path id="arrow"
             d="M 11.500037,31.436501 C 11.940474,20.09759 22.043105,11.32322 32.158766,21.979434 L 37.068811,17.246167 C 37.068811,17.246167 37.088388,32 37.088388,32 L 22.160133,31.978069 C 22.160133,31.978069 26.997745,27.140456 26.997745,27.140456 C 18.528582,18.264221 13.291696,25.230495 11.500037,31.436501 z"
             style="fill:#404040;"/>
          </a>
         </g>
        </svg>
</svg>
