<?xml version="1.0" encoding="UTF-8" standalone="no"?>
<!DOCTYPE svg PUBLIC "-//W3C//DTD SVG 1.1//EN"
 "http://www.w3.org/Graphics/SVG/1.1/DTD/svg11.dtd">
<!-- Generated by graphviz version 2.44.0 (0)
 -->
<!-- Title: CPS::SP::Ph1::Load Pages: 1 -->
<!--zoomable 204 -->
<svg id="main" version="1.1" xmlns="http://www.w3.org/2000/svg" xmlns:xlink="http://www.w3.org/1999/xlink" xml:space="preserve" onload="init(evt)">
<style type="text/css"><![CDATA[
.edge:hover path { stroke: red; }
.edge:hover polygon { stroke: red; fill: red; }
]]></style>
<script type="text/javascript"><![CDATA[
var edges = document.getElementsByTagName('g');
if (edges && edges.length) {
  for (var i=0;i<edges.length;i++) {
    if (edges[i].id.substr(0,4)=='edge') {
      edges[i].setAttribute('class','edge');
    }
  }
}
]]></script>
        <defs>
                <circle id="rim" cx="0" cy="0" r="7"/>
                <circle id="rim2" cx="0" cy="0" r="3.5"/>
                <g id="zoomPlus">
                        <use xlink:href="#rim" fill="#404040">
                                <set attributeName="fill" to="#808080" begin="zoomplus.mouseover" end="zoomplus.mouseout"/>
                        </use>
                        <path d="M-4,0h8M0,-4v8" fill="none" stroke="white" stroke-width="1.5" pointer-events="none"/>
                </g>
                <g id="zoomMin">
                        <use xlink:href="#rim" fill="#404040">
                                <set attributeName="fill" to="#808080" begin="zoomminus.mouseover" end="zoomminus.mouseout"/>
                        </use>
                        <path d="M-4,0h8" fill="none" stroke="white" stroke-width="1.5" pointer-events="none"/>
                </g>
                <g id="dirArrow">
                        <path fill="none" stroke="white" stroke-width="1.5" d="M0,-3.0v7 M-2.5,-0.5L0,-3.0L2.5,-0.5"/>
                </g>
               <g id="resetDef">
                       <use xlink:href="#rim2" fill="#404040">
                               <set attributeName="fill" to="#808080" begin="reset.mouseover" end="reset.mouseout"/>
                       </use>
               </g>
        </defs>

<script type="text/javascript">
var viewWidth = 1136;
var viewHeight = 204;
var sectionId = 'dynsection-1';
</script>
<script xlink:href="svgpan.js"/>
<svg id="graph" class="graph">
<g id="viewport">
<title>CPS::SP::Ph1::Load</title>
<!-- Node1 -->
<g id="node1" class="node">
<title>Node1</title>
<g id="a_node1"><a xlink:title=" ">
<polygon fill="#bfbfbf" stroke="black" points="1021,-76.5 1021,-95.5 1128,-95.5 1128,-76.5 1021,-76.5"/>
<text text-anchor="middle" x="1074.5" y="-83.5" font-family="Helvetica" font-size="10.00">CPS::SP::Ph1::Load</text>
</a>
</g>
</g>
<!-- Node2 -->
<g id="node2" class="node">
<title>Node2</title>
<g id="a_node2"><a xlink:href="class_c_p_s_1_1_sim_power_comp.html" target="_top" xlink:title=" ">
<polygon fill="none" stroke="black" points="794.5,-153 794.5,-183 914.5,-183 914.5,-153 794.5,-153"/>
<text text-anchor="start" x="802.5" y="-171" font-family="Helvetica" font-size="10.00">CPS::SimPowerComp&lt;</text>
<text text-anchor="middle" x="854.5" y="-160" font-family="Helvetica" font-size="10.00"> Complex &gt;</text>
</a>
</g>
</g>
<!-- Node2&#45;&gt;Node1 -->
<g id="edge1" class="edge">
<title>Node2&#45;&gt;Node1</title>
<path fill="none" stroke="midnightblue" d="M924.66,-160.29C950.05,-155.84 978.54,-148.87 1003,-138 1026.91,-127.38 1050.51,-107.56 1063.43,-95.69"/>
<polygon fill="midnightblue" stroke="midnightblue" points="924.03,-156.85 914.74,-161.94 925.17,-163.76 924.03,-156.85"/>
</g>
<!-- Node3 -->
<g id="node3" class="node">
<title>Node3</title>
<g id="a_node3"><a xlink:href="class_c_p_s_1_1_topological_power_comp.html" target="_top" xlink:title=" ">
<polygon fill="none" stroke="black" points="385,-158.5 385,-177.5 531,-177.5 531,-158.5 385,-158.5"/>
<text text-anchor="middle" x="458" y="-165.5" font-family="Helvetica" font-size="10.00">CPS::TopologicalPowerComp</text>
</a>
</g>
</g>
<!-- Node3&#45;&gt;Node2 -->
<g id="edge2" class="edge">
<title>Node3&#45;&gt;Node2</title>
<path fill="none" stroke="midnightblue" d="M501.78,-180.16C521.72,-185.22 545.89,-190.5 568,-193 646.11,-201.84 736.56,-190.25 794.36,-180.07"/>
<polygon fill="midnightblue" stroke="midnightblue" points="502.62,-176.76 492.06,-177.63 500.85,-183.54 502.62,-176.76"/>
</g>
<!-- Node6 -->
<g id="node6" class="node">
<title>Node6</title>
<g id="a_node6"><a xlink:href="class_c_p_s_1_1_sim_power_comp.html" target="_top" xlink:title="Base class for all components that are transmitting power.">
<polygon fill="none" stroke="black" points="568,-153 568,-183 688,-183 688,-153 568,-153"/>
<text text-anchor="start" x="576" y="-171" font-family="Helvetica" font-size="10.00">CPS::SimPowerComp&lt;</text>
<text text-anchor="middle" x="628" y="-160" font-family="Helvetica" font-size="10.00"> VarType &gt;</text>
</a>
</g>
</g>
<!-- Node3&#45;&gt;Node6 -->
<g id="edge6" class="edge">
<title>Node3&#45;&gt;Node6</title>
<path fill="none" stroke="midnightblue" d="M541.34,-168C550.34,-168 559.36,-168 567.99,-168"/>
<polygon fill="midnightblue" stroke="midnightblue" points="541.22,-164.5 531.22,-168 541.22,-171.5 541.22,-164.5"/>
</g>
<!-- Node4 -->
<g id="node4" class="node">
<title>Node4</title>
<g id="a_node4"><a xlink:href="class_c_p_s_1_1_identified_object.html" target="_top" xlink:title=" ">
<polygon fill="none" stroke="black" points="133,-157.5 133,-176.5 245,-176.5 245,-157.5 133,-157.5"/>
<text text-anchor="middle" x="189" y="-164.5" font-family="Helvetica" font-size="10.00">CPS::IdentifiedObject</text>
</a>
</g>
</g>
<!-- Node4&#45;&gt;Node3 -->
<g id="edge3" class="edge">
<title>Node4&#45;&gt;Node3</title>
<path fill="none" stroke="midnightblue" d="M255.53,-167.25C294.6,-167.39 344.26,-167.58 384.5,-167.73"/>
<polygon fill="midnightblue" stroke="midnightblue" points="255.34,-163.74 245.32,-167.21 255.31,-170.74 255.34,-163.74"/>
</g>
<!-- Node5 -->
<g id="node5" class="node">
<title>Node5</title>
<g id="a_node5"><a xlink:href="class_c_p_s_1_1_attribute_list.html" target="_top" xlink:title="Base class of objects having attributes to access member variables.">
<polygon fill="none" stroke="black" points="0,-130.5 0,-149.5 96,-149.5 96,-130.5 0,-130.5"/>
<text text-anchor="middle" x="48" y="-137.5" font-family="Helvetica" font-size="10.00">CPS::AttributeList</text>
</a>
</g>
</g>
<!-- Node5&#45;&gt;Node4 -->
<g id="edge4" class="edge">
<title>Node5&#45;&gt;Node4</title>
<path fill="none" stroke="midnightblue" d="M105.99,-151.07C116.98,-153.2 128.39,-155.42 139.09,-157.5"/>
<polygon fill="midnightblue" stroke="midnightblue" points="106.54,-147.61 96.06,-149.14 105.21,-154.48 106.54,-147.61"/>
</g>
<!-- Node10 -->
<g id="node10" class="node">
<title>Node10</title>
<g id="a_node10"><a xlink:href="class_c_p_s_1_1_m_n_a_interface.html" target="_top" xlink:title="Interface to be implemented by all models used by the MNA solver.">
<polygon fill="none" stroke="black" points="263,-117.5 263,-136.5 367,-136.5 367,-117.5 263,-117.5"/>
<text text-anchor="middle" x="315" y="-124.5" font-family="Helvetica" font-size="10.00">CPS::MNAInterface</text>
</a>
</g>
</g>
<!-- Node5&#45;&gt;Node10 -->
<g id="edge11" class="edge">
<title>Node5&#45;&gt;Node10</title>
<path fill="none" stroke="midnightblue" d="M106.31,-137.19C152.89,-134.9 218,-131.71 262.85,-129.51"/>
<polygon fill="midnightblue" stroke="midnightblue" points="105.89,-133.7 96.07,-137.69 106.23,-140.7 105.89,-133.7"/>
</g>
<!-- Node6&#45;&gt;Node2 -->
<g id="edge5" class="edge">
<title>Node6&#45;&gt;Node2</title>
<path fill="none" stroke="orange" stroke-dasharray="5,2" d="M698.48,-168C729.17,-168 764.88,-168 794.28,-168"/>
<polygon fill="orange" stroke="orange" points="698.28,-164.5 688.28,-168 698.28,-171.5 698.28,-164.5"/>
<text text-anchor="middle" x="736.5" y="-171" font-family="Helvetica" font-size="10.00"> &lt; Complex &gt;</text>
</g>
<!-- Node7 -->
<g id="node7" class="node">
<title>Node7</title>
<g id="a_node7"><a xlink:href="class_shared_factory.html" target="_top" xlink:title=" ">
<polygon fill="none" stroke="black" points="794.5,-76.5 794.5,-95.5 914.5,-95.5 914.5,-76.5 794.5,-76.5"/>
<text text-anchor="middle" x="854.5" y="-83.5" font-family="Helvetica" font-size="10.00">SharedFactory&lt; Load &gt;</text>
</a>
</g>
</g>
<!-- Node7&#45;&gt;Node1 -->
<g id="edge7" class="edge">
<title>Node7&#45;&gt;Node1</title>
<path fill="none" stroke="midnightblue" d="M925.11,-86C956.17,-86 992.16,-86 1020.92,-86"/>
<polygon fill="midnightblue" stroke="midnightblue" points="924.78,-82.5 914.78,-86 924.78,-89.5 924.78,-82.5"/>
</g>
<!-- Node8 -->
<g id="node8" class="node">
<title>Node8</title>
<g id="a_node8"><a xlink:href="class_shared_factory.html" target="_top" xlink:title=" ">
<polygon fill="none" stroke="black" points="575.5,-76.5 575.5,-95.5 680.5,-95.5 680.5,-76.5 575.5,-76.5"/>
<text text-anchor="middle" x="628" y="-83.5" font-family="Helvetica" font-size="10.00">SharedFactory&lt; T &gt;</text>
</a>
</g>
</g>
<!-- Node8&#45;&gt;Node7 -->
<g id="edge8" class="edge">
<title>Node8&#45;&gt;Node7</title>
<path fill="none" stroke="orange" stroke-dasharray="5,2" d="M690.73,-86C723.03,-86 762.38,-86 794.3,-86"/>
<polygon fill="orange" stroke="orange" points="690.5,-82.5 680.5,-86 690.5,-89.5 690.5,-82.5"/>
<text text-anchor="middle" x="736.5" y="-89" font-family="Helvetica" font-size="10.00"> &lt; Load &gt;</text>
</g>
<!-- Node9 -->
<g id="node9" class="node">
<title>Node9</title>
<g id="a_node9"><a xlink:href="class_c_p_s_1_1_p_f_solver_interface_bus.html" target="_top" xlink:title="Common base class of all Component templates.">
<polygon fill="none" stroke="black" points="785,-38.5 785,-57.5 924,-57.5 924,-38.5 785,-38.5"/>
<text text-anchor="middle" x="854.5" y="-45.5" font-family="Helvetica" font-size="10.00">CPS::PFSolverInterfaceBus</text>
</a>
</g>
</g>
<!-- Node9&#45;&gt;Node1 -->
<g id="edge9" class="edge">
<title>Node9&#45;&gt;Node1</title>
<path fill="none" stroke="midnightblue" d="M920.38,-59.31C952.37,-64.88 990.45,-71.52 1020.63,-76.78"/>
<polygon fill="midnightblue" stroke="midnightblue" points="920.68,-55.81 910.23,-57.54 919.48,-62.71 920.68,-55.81"/>
</g>
<!-- Node10&#45;&gt;Node1 -->
<g id="edge10" class="edge">
<title>Node10&#45;&gt;Node1</title>
<path fill="none" stroke="midnightblue" d="M377.38,-125.78C424.36,-124.95 490.77,-124 549,-124 549,-124 549,-124 855.5,-124 921.58,-124 997.27,-106.85 1039.83,-95.59"/>
<polygon fill="midnightblue" stroke="midnightblue" points="377.3,-122.28 367.36,-125.96 377.42,-129.28 377.3,-122.28"/>
</g>
<!-- Node11 -->
<g id="node11" class="node">
<title>Node11</title>
<g id="a_node11"><a xlink:href="struct_c_p_s_1_1_power_profile.html" target="_top" xlink:title=" ">
<polygon fill="none" stroke="black" points="805.5,-0.5 805.5,-19.5 903.5,-19.5 903.5,-0.5 805.5,-0.5"/>
<text text-anchor="middle" x="854.5" y="-7.5" font-family="Helvetica" font-size="10.00">CPS::PowerProfile</text>
</a>
</g>
</g>
<!-- Node11&#45;&gt;Node1 -->
<g id="edge12" class="edge">
<title>Node11&#45;&gt;Node1</title>
<path fill="none" stroke="#9a32cd" stroke-dasharray="5,2" d="M913.49,-21.52C941.09,-27.86 974.27,-36.75 1003,-48 1022.94,-55.81 1044.4,-67.97 1058.34,-76.43"/>
<polygon fill="#9a32cd" stroke="#9a32cd" points="914.11,-18.07 903.59,-19.3 912.58,-24.9 914.11,-18.07"/>
<text text-anchor="middle" x="972.5" y="-51" font-family="Helvetica" font-size="10.00"> mLoadProfile</text>
</g>
</g>
</svg>
        <g id="navigator" transform="translate(0 0)" fill="#404254">
                <rect fill="#f2f5e9" fill-opacity="0.5" stroke="#606060" stroke-width=".5" x="0" y="0" width="60" height="60"/>
                <use id="zoomplus" xlink:href="#zoomPlus" x="17" y="9" onmousedown="handleZoom(evt,'in')"/>
                <use id="zoomminus" xlink:href="#zoomMin" x="42" y="9" onmousedown="handleZoom(evt,'out')"/>
                <use id="reset" xlink:href="#resetDef" x="30" y="36" onmousedown="handleReset()"/>
                <g id="arrowUp" xlink:href="#dirArrow" transform="translate(30 24)" onmousedown="handlePan(0,-1)">
                  <use xlink:href="#rim" fill="#404040">
                        <set attributeName="fill" to="#808080" begin="arrowUp.mouseover" end="arrowUp.mouseout"/>
                  </use>
                  <path fill="none" stroke="white" stroke-width="1.5" d="M0,-3.0v7 M-2.5,-0.5L0,-3.0L2.5,-0.5"/>
                </g>
                <g id="arrowRight" xlink:href="#dirArrow" transform="rotate(90) translate(36 -43)" onmousedown="handlePan(1,0)">
                  <use xlink:href="#rim" fill="#404040">
                        <set attributeName="fill" to="#808080" begin="arrowRight.mouseover" end="arrowRight.mouseout"/>
                  </use>
                  <path fill="none" stroke="white" stroke-width="1.5" d="M0,-3.0v7 M-2.5,-0.5L0,-3.0L2.5,-0.5"/>
                </g>
                <g id="arrowDown" xlink:href="#dirArrow" transform="rotate(180) translate(-30 -48)" onmousedown="handlePan(0,1)">
                  <use xlink:href="#rim" fill="#404040">
                        <set attributeName="fill" to="#808080" begin="arrowDown.mouseover" end="arrowDown.mouseout"/>
                  </use>
                  <path fill="none" stroke="white" stroke-width="1.5" d="M0,-3.0v7 M-2.5,-0.5L0,-3.0L2.5,-0.5"/>
                </g>
                <g id="arrowLeft" xlink:href="#dirArrow" transform="rotate(270) translate(-36 17)" onmousedown="handlePan(-1,0)">
                  <use xlink:href="#rim" fill="#404040">
                        <set attributeName="fill" to="#808080" begin="arrowLeft.mouseover" end="arrowLeft.mouseout"/>
                  </use>
                  <path fill="none" stroke="white" stroke-width="1.5" d="M0,-3.0v7 M-2.5,-0.5L0,-3.0L2.5,-0.5"/>
                </g>
        </g>
        <svg viewBox="0 0 15 15" width="100%" height="30px" preserveAspectRatio="xMaxYMin meet">
         <g id="arrow_out" transform="scale(0.3 0.3)">
          <a xlink:href="class_c_p_s_1_1_s_p_1_1_ph1_1_1_load__coll__graph_org.svg" target="_base">
           <rect id="button" ry="5" rx="5" y="6" x="6" height="38" width="38"
                fill="#f2f5e9" fill-opacity="0.5" stroke="#606060" stroke-width="1.0"/>
           <path id="arrow"
             d="M 11.500037,31.436501 C 11.940474,20.09759 22.043105,11.32322 32.158766,21.979434 L 37.068811,17.246167 C 37.068811,17.246167 37.088388,32 37.088388,32 L 22.160133,31.978069 C 22.160133,31.978069 26.997745,27.140456 26.997745,27.140456 C 18.528582,18.264221 13.291696,25.230495 11.500037,31.436501 z"
             style="fill:#404040;"/>
          </a>
         </g>
        </svg>
</svg>
