<?xml version="1.0" encoding="UTF-8" standalone="no"?>
<!DOCTYPE svg PUBLIC "-//W3C//DTD SVG 1.1//EN"
 "http://www.w3.org/Graphics/SVG/1.1/DTD/svg11.dtd">
<!-- Generated by graphviz version 12.2.1 (20241206.2353)
 -->
<!-- Title: CPS::DP::Ph1::RxLine Pages: 1 -->
<svg width="1325pt" height="216pt"
 viewBox="0.00 0.00 1324.50 216.38" xmlns="http://www.w3.org/2000/svg" xmlns:xlink="http://www.w3.org/1999/xlink">
<g id="graph0" class="graph" transform="scale(1 1) rotate(0) translate(4 212.38)">
<title>CPS::DP::Ph1::RxLine</title>
<!-- Node1 -->
<g id="Node000001" class="node">
<title>Node1</title>
<g id="a_Node000001"><a xlink:title=" ">
<polygon fill="#999999" stroke="#666666" points="1316.5,-62.25 1203,-62.25 1203,-40 1316.5,-40 1316.5,-62.25"/>
<text text-anchor="middle" x="1259.75" y="-48.75" font-family="Helvetica,sans-Serif" font-size="10.00">CPS::DP::Ph1::RxLine</text>
</a>
</g>
</g>
<!-- Node2 -->
<g id="Node000002" class="node">
<title>Node2</title>
<g id="a_Node000002"><a xlink:href="class_c_p_s_1_1_composite_power_comp.html" target="_top" xlink:title=" ">
<polygon fill="white" stroke="#666666" points="1166,-116.38 1020.25,-116.38 1020.25,-79.88 1166,-79.88 1166,-116.38"/>
<text text-anchor="start" x="1028.25" y="-102.88" font-family="Helvetica,sans-Serif" font-size="10.00">CPS::CompositePowerComp</text>
<text text-anchor="middle" x="1093.12" y="-88.62" font-family="Helvetica,sans-Serif" font-size="10.00">&lt; Complex &gt;</text>
</a>
</g>
</g>
<!-- Node2&#45;&gt;Node1 -->
<g id="edge1_Node000001_Node000002" class="edge">
<title>Node2&#45;&gt;Node1</title>
<g id="a_edge1_Node000001_Node000002"><a xlink:title=" ">
<path fill="none" stroke="#63b8ff" d="M1170.4,-76.35C1186.85,-71.65 1203.62,-66.86 1218.07,-62.74"/>
<polygon fill="#63b8ff" stroke="#63b8ff" points="1169.77,-72.89 1161.12,-79 1171.69,-79.62 1169.77,-72.89"/>
</a>
</g>
</g>
<!-- Node3 -->
<g id="Node000003" class="node">
<title>Node3</title>
<g id="a_Node000003"><a xlink:href="class_c_p_s_1_1_m_n_a_sim_power_comp.html" target="_top" xlink:title=" ">
<polygon fill="white" stroke="#666666" points="920.88,-155.38 784.88,-155.38 784.88,-118.88 920.88,-118.88 920.88,-155.38"/>
<text text-anchor="start" x="792.88" y="-141.88" font-family="Helvetica,sans-Serif" font-size="10.00">CPS::MNASimPowerComp</text>
<text text-anchor="middle" x="852.88" y="-127.62" font-family="Helvetica,sans-Serif" font-size="10.00">&lt; Complex &gt;</text>
</a>
</g>
</g>
<!-- Node3&#45;&gt;Node2 -->
<g id="edge2_Node000002_Node000003" class="edge">
<title>Node3&#45;&gt;Node2</title>
<g id="a_edge2_Node000002_Node000003"><a xlink:title=" ">
<path fill="none" stroke="#63b8ff" d="M932.25,-124.3C960.52,-119.67 992.26,-114.47 1019.98,-109.94"/>
<polygon fill="#63b8ff" stroke="#63b8ff" points="931.99,-120.79 922.69,-125.86 933.12,-127.7 931.99,-120.79"/>
</a>
</g>
</g>
<!-- Node4 -->
<g id="Node000004" class="node">
<title>Node4</title>
<g id="a_Node000004"><a xlink:href="class_c_p_s_1_1_sim_power_comp.html" target="_top" xlink:title=" ">
<polygon fill="white" stroke="#666666" points="676.88,-208.38 558.12,-208.38 558.12,-171.88 676.88,-171.88 676.88,-208.38"/>
<text text-anchor="start" x="566.12" y="-194.88" font-family="Helvetica,sans-Serif" font-size="10.00">CPS::SimPowerComp&lt;</text>
<text text-anchor="middle" x="617.5" y="-180.62" font-family="Helvetica,sans-Serif" font-size="10.00"> Complex &gt;</text>
</a>
</g>
</g>
<!-- Node4&#45;&gt;Node3 -->
<g id="edge3_Node000003_Node000004" class="edge">
<title>Node4&#45;&gt;Node3</title>
<g id="a_edge3_Node000003_Node000004"><a xlink:title=" ">
<path fill="none" stroke="#63b8ff" d="M688.1,-174.75C711.58,-169.53 737.94,-163.62 762,-158.12 769.34,-156.45 777.02,-154.68 784.66,-152.91"/>
<polygon fill="#63b8ff" stroke="#63b8ff" points="687.66,-171.27 678.65,-176.85 689.18,-178.1 687.66,-171.27"/>
</a>
</g>
</g>
<!-- Node5 -->
<g id="Node000005" class="node">
<title>Node5</title>
<g id="a_Node000005"><a xlink:href="class_c_p_s_1_1_topological_power_comp.html" target="_top" xlink:title=" ">
<polygon fill="white" stroke="#666666" points="299.25,-176.25 152,-176.25 152,-154 299.25,-154 299.25,-176.25"/>
<text text-anchor="middle" x="225.62" y="-162.75" font-family="Helvetica,sans-Serif" font-size="10.00">CPS::TopologicalPowerComp</text>
</a>
</g>
</g>
<!-- Node5&#45;&gt;Node4 -->
<g id="edge4_Node000004_Node000005" class="edge">
<title>Node5&#45;&gt;Node4</title>
<g id="a_edge4_Node000004_Node000005"><a xlink:title=" ">
<path fill="none" stroke="#63b8ff" d="M276.23,-179.63C294.88,-184.47 316.38,-189.35 336.25,-192.12 422.22,-204.15 444.77,-200.69 531.5,-197.12 540.08,-196.77 549.14,-196.22 558.01,-195.58"/>
<polygon fill="#63b8ff" stroke="#63b8ff" points="277.34,-176.3 266.78,-177.1 275.53,-183.06 277.34,-176.3"/>
</a>
</g>
</g>
<!-- Node7 -->
<g id="Node000007" class="node">
<title>Node7</title>
<g id="a_Node000007"><a xlink:href="class_c_p_s_1_1_sim_power_comp.html" target="_top" xlink:title="Base class for all components that are transmitting power.">
<polygon fill="white" stroke="#666666" points="455,-183.38 336.25,-183.38 336.25,-146.88 455,-146.88 455,-183.38"/>
<text text-anchor="start" x="344.25" y="-169.88" font-family="Helvetica,sans-Serif" font-size="10.00">CPS::SimPowerComp&lt;</text>
<text text-anchor="middle" x="395.62" y="-155.62" font-family="Helvetica,sans-Serif" font-size="10.00"> VarType &gt;</text>
</a>
</g>
</g>
<!-- Node5&#45;&gt;Node7 -->
<g id="edge7_Node000007_Node000005" class="edge">
<title>Node5&#45;&gt;Node7</title>
<g id="a_edge7_Node000007_Node000005"><a xlink:title=" ">
<path fill="none" stroke="#63b8ff" d="M310.58,-165.12C319.16,-165.12 327.74,-165.12 335.96,-165.12"/>
<polygon fill="#63b8ff" stroke="#63b8ff" points="310.85,-161.63 300.85,-165.13 310.85,-168.63 310.85,-161.63"/>
</a>
</g>
</g>
<!-- Node10 -->
<g id="Node000010" class="node">
<title>Node10</title>
<g id="a_Node000010"><a xlink:href="class_c_p_s_1_1_sim_power_comp.html" target="_top" xlink:title="Base class for all components that are transmitting power.">
<polygon fill="white" stroke="#666666" points="455,-89.38 336.25,-89.38 336.25,-52.88 455,-52.88 455,-89.38"/>
<text text-anchor="start" x="344.25" y="-75.88" font-family="Helvetica,sans-Serif" font-size="10.00">CPS::SimPowerComp&lt;</text>
<text text-anchor="middle" x="395.62" y="-61.62" font-family="Helvetica,sans-Serif" font-size="10.00"> VarType &gt;</text>
</a>
</g>
</g>
<!-- Node5&#45;&gt;Node10 -->
<g id="edge11_Node000010_Node000005" class="edge">
<title>Node5&#45;&gt;Node10</title>
<g id="a_edge11_Node000010_Node000005"><a xlink:title=" ">
<path fill="none" stroke="#63b8ff" d="M253.7,-147.37C275.58,-133.31 307.38,-113.56 336.25,-98.12 341.47,-95.34 347.03,-92.54 352.57,-89.87"/>
<polygon fill="#63b8ff" stroke="#63b8ff" points="251.87,-144.38 245.38,-152.75 255.67,-150.26 251.87,-144.38"/>
</a>
</g>
</g>
<!-- Node6 -->
<g id="Node000006" class="node">
<title>Node6</title>
<g id="a_Node000006"><a xlink:href="class_c_p_s_1_1_identified_object.html" target="_top" xlink:title=" ">
<polygon fill="white" stroke="#666666" points="115,-176.25 0,-176.25 0,-154 115,-154 115,-176.25"/>
<text text-anchor="middle" x="57.5" y="-162.75" font-family="Helvetica,sans-Serif" font-size="10.00">CPS::IdentifiedObject</text>
</a>
</g>
</g>
<!-- Node6&#45;&gt;Node5 -->
<g id="edge5_Node000005_Node000006" class="edge">
<title>Node6&#45;&gt;Node5</title>
<g id="a_edge5_Node000005_Node000006"><a xlink:title=" ">
<path fill="none" stroke="#63b8ff" d="M126.7,-165.12C134.95,-165.12 143.41,-165.12 151.73,-165.12"/>
<polygon fill="#63b8ff" stroke="#63b8ff" points="126.72,-161.63 116.72,-165.13 126.72,-168.63 126.72,-161.63"/>
</a>
</g>
</g>
<!-- Node7&#45;&gt;Node4 -->
<g id="edge6_Node000004_Node000007" class="edge">
<title>Node7&#45;&gt;Node4</title>
<g id="a_edge6_Node000004_Node000007"><a xlink:title=" ">
<path fill="none" stroke="orange" stroke-dasharray="5,2" d="M466.67,-173.09C495.98,-176.42 529.65,-180.25 557.65,-183.43"/>
<polygon fill="orange" stroke="orange" points="467.09,-169.61 456.76,-171.96 466.3,-176.57 467.09,-169.61"/>
</a>
</g>
<text text-anchor="middle" x="502.25" y="-184.61" font-family="Helvetica,sans-Serif" font-size="10.00" fill="grey"> &lt; Complex &gt;</text>
</g>
<!-- Node8 -->
<g id="Node000008" class="node">
<title>Node8</title>
<g id="a_Node000008"><a xlink:href="class_c_p_s_1_1_m_n_a_interface.html" target="_top" xlink:title="Interface to be implemented by all models used by the MNA solver.">
<polygon fill="white" stroke="#666666" points="448.62,-129.25 342.62,-129.25 342.62,-107 448.62,-107 448.62,-129.25"/>
<text text-anchor="middle" x="395.62" y="-115.75" font-family="Helvetica,sans-Serif" font-size="10.00">CPS::MNAInterface</text>
</a>
</g>
</g>
<!-- Node8&#45;&gt;Node3 -->
<g id="edge8_Node000003_Node000008" class="edge">
<title>Node8&#45;&gt;Node3</title>
<g id="a_edge8_Node000003_Node000008"><a xlink:title=" ">
<path fill="none" stroke="#63b8ff" d="M460.24,-122.43C464.55,-122.68 468.84,-122.91 473,-123.12 581.96,-128.7 708.65,-132.93 784.44,-135.21"/>
<polygon fill="#63b8ff" stroke="#63b8ff" points="460.49,-118.94 450.3,-121.83 460.07,-125.92 460.49,-118.94"/>
</a>
</g>
</g>
<!-- Node9 -->
<g id="Node000009" class="node">
<title>Node9</title>
<g id="a_Node000009"><a xlink:href="class_c_p_s_1_1_m_n_a_sim_power_comp.html" target="_top" xlink:title="Base class for all MNA components that are transmitting power.">
<polygon fill="white" stroke="#666666" points="685.5,-116.38 549.5,-116.38 549.5,-79.88 685.5,-79.88 685.5,-116.38"/>
<text text-anchor="start" x="557.5" y="-102.88" font-family="Helvetica,sans-Serif" font-size="10.00">CPS::MNASimPowerComp</text>
<text text-anchor="middle" x="617.5" y="-88.62" font-family="Helvetica,sans-Serif" font-size="10.00">&lt; VarType &gt;</text>
</a>
</g>
</g>
<!-- Node8&#45;&gt;Node9 -->
<g id="edge12_Node000009_Node000008" class="edge">
<title>Node8&#45;&gt;Node9</title>
<g id="a_edge12_Node000009_Node000008"><a xlink:title=" ">
<path fill="none" stroke="#63b8ff" d="M460.23,-112.34C488.09,-109.81 520.81,-106.83 549.09,-104.26"/>
<polygon fill="#63b8ff" stroke="#63b8ff" points="460.16,-108.83 450.52,-113.22 460.79,-115.8 460.16,-108.83"/>
</a>
</g>
</g>
<!-- Node12 -->
<g id="Node000012" class="node">
<title>Node12</title>
<g id="a_Node000012"><a xlink:href="class_c_p_s_1_1_m_n_a_sim_power_comp.html" target="_top" xlink:title="Base class for all MNA components that are transmitting power.">
<polygon fill="white" stroke="#666666" points="685.5,-61.38 549.5,-61.38 549.5,-24.88 685.5,-24.88 685.5,-61.38"/>
<text text-anchor="start" x="557.5" y="-47.88" font-family="Helvetica,sans-Serif" font-size="10.00">CPS::MNASimPowerComp</text>
<text text-anchor="middle" x="617.5" y="-33.62" font-family="Helvetica,sans-Serif" font-size="10.00">&lt; VarType &gt;</text>
</a>
</g>
</g>
<!-- Node8&#45;&gt;Node12 -->
<g id="edge16_Node000012_Node000008" class="edge">
<title>Node8&#45;&gt;Node12</title>
<g id="a_edge16_Node000012_Node000008"><a xlink:title=" ">
<path fill="none" stroke="#63b8ff" d="M441.28,-102.89C476.05,-91.03 524.48,-74.51 561.62,-61.84"/>
<polygon fill="#63b8ff" stroke="#63b8ff" points="440.27,-99.54 431.93,-106.08 442.53,-106.17 440.27,-99.54"/>
</a>
</g>
</g>
<!-- Node9&#45;&gt;Node3 -->
<g id="edge9_Node000003_Node000009" class="edge">
<title>Node9&#45;&gt;Node3</title>
<g id="a_edge9_Node000003_Node000009"><a xlink:title=" ">
<path fill="none" stroke="orange" stroke-dasharray="5,2" d="M697.11,-106.28C718.25,-108.9 741.06,-112.12 762,-115.88 769.42,-117.21 777.14,-118.77 784.81,-120.42"/>
<polygon fill="orange" stroke="orange" points="697.74,-102.83 687.39,-105.11 696.9,-109.78 697.74,-102.83"/>
</a>
</g>
<text text-anchor="middle" x="732.75" y="-120.62" font-family="Helvetica,sans-Serif" font-size="10.00" fill="grey"> &lt; Complex &gt;</text>
</g>
<!-- Node10&#45;&gt;Node9 -->
<g id="edge10_Node000009_Node000010" class="edge">
<title>Node10&#45;&gt;Node9</title>
<g id="a_edge10_Node000009_Node000010"><a xlink:title=" ">
<path fill="none" stroke="#63b8ff" d="M466.35,-79.69C492.8,-82.94 522.85,-86.63 549.08,-89.85"/>
<polygon fill="#63b8ff" stroke="#63b8ff" points="467.11,-76.25 456.76,-78.51 466.26,-83.2 467.11,-76.25"/>
</a>
</g>
</g>
<!-- Node10&#45;&gt;Node12 -->
<g id="edge15_Node000012_Node000010" class="edge">
<title>Node10&#45;&gt;Node12</title>
<g id="a_edge15_Node000012_Node000010"><a xlink:title=" ">
<path fill="none" stroke="#63b8ff" d="M466.46,-58.08C468.66,-57.75 470.85,-57.43 473,-57.12 497.79,-53.65 525.11,-50.75 549.2,-48.51"/>
<polygon fill="#63b8ff" stroke="#63b8ff" points="466.16,-54.58 456.83,-59.61 467.26,-61.5 466.16,-54.58"/>
</a>
</g>
</g>
<!-- Node11 -->
<g id="Node000011" class="node">
<title>Node11</title>
<g id="a_Node000011"><a xlink:href="class_c_p_s_1_1_composite_power_comp.html" target="_top" xlink:title="Base class for composite power components.">
<polygon fill="white" stroke="#666666" points="925.75,-88.38 780,-88.38 780,-51.88 925.75,-51.88 925.75,-88.38"/>
<text text-anchor="start" x="788" y="-74.88" font-family="Helvetica,sans-Serif" font-size="10.00">CPS::CompositePowerComp</text>
<text text-anchor="middle" x="852.88" y="-60.62" font-family="Helvetica,sans-Serif" font-size="10.00">&lt; VarType &gt;</text>
</a>
</g>
</g>
<!-- Node11&#45;&gt;Node2 -->
<g id="edge13_Node000002_Node000011" class="edge">
<title>Node11&#45;&gt;Node2</title>
<g id="a_edge13_Node000002_Node000011"><a xlink:title=" ">
<path fill="none" stroke="orange" stroke-dasharray="5,2" d="M937.23,-79.36C958.44,-81.75 981.19,-84.37 1002.25,-86.88 1008.03,-87.56 1014.01,-88.29 1020.02,-89.02"/>
<polygon fill="orange" stroke="orange" points="937.8,-75.9 927.47,-78.26 937.02,-82.85 937.8,-75.9"/>
</a>
</g>
<text text-anchor="middle" x="973" y="-91.62" font-family="Helvetica,sans-Serif" font-size="10.00" fill="grey"> &lt; Complex &gt;</text>
</g>
<!-- Node12&#45;&gt;Node11 -->
<g id="edge14_Node000011_Node000012" class="edge">
<title>Node12&#45;&gt;Node11</title>
<g id="a_edge14_Node000011_Node000012"><a xlink:title=" ">
<path fill="none" stroke="#63b8ff" d="M696.97,-52.2C723.77,-55.3 753.6,-58.75 779.87,-61.79"/>
<polygon fill="#63b8ff" stroke="#63b8ff" points="697.53,-48.74 687.19,-51.07 696.72,-55.7 697.53,-48.74"/>
</a>
</g>
</g>
<!-- Node13 -->
<g id="Node000013" class="node">
<title>Node13</title>
<g id="a_Node000013"><a xlink:href="class_c_p_s_1_1_base_1_1_ph1_1_1_pi_line.html" target="_top" xlink:title=" ">
<polygon fill="white" stroke="#bfbfbf" points="1152.88,-62.25 1033.38,-62.25 1033.38,-40 1152.88,-40 1152.88,-62.25"/>
<text text-anchor="middle" x="1093.12" y="-48.75" font-family="Helvetica,sans-Serif" font-size="10.00">CPS::Base::Ph1::PiLine</text>
</a>
</g>
</g>
<!-- Node13&#45;&gt;Node1 -->
<g id="edge17_Node000001_Node000013" class="edge">
<title>Node13&#45;&gt;Node1</title>
<g id="a_edge17_Node000001_Node000013"><a xlink:title=" ">
<path fill="none" stroke="#63b8ff" d="M1164.24,-51.12C1177.07,-51.12 1190.31,-51.12 1202.67,-51.12"/>
<polygon fill="#63b8ff" stroke="#63b8ff" points="1164.61,-47.63 1154.61,-51.13 1164.61,-54.63 1164.61,-47.63"/>
</a>
</g>
</g>
<!-- Node14 -->
<g id="Node000014" class="node">
<title>Node14</title>
<g id="a_Node000014"><a xlink:href="class_shared_factory.html" target="_top" xlink:title=" ">
<polygon fill="white" stroke="#666666" points="1158.12,-22.25 1028.12,-22.25 1028.12,0 1158.12,0 1158.12,-22.25"/>
<text text-anchor="middle" x="1093.12" y="-8.75" font-family="Helvetica,sans-Serif" font-size="10.00">SharedFactory&lt; RxLine &gt;</text>
</a>
</g>
</g>
<!-- Node14&#45;&gt;Node1 -->
<g id="edge18_Node000001_Node000014" class="edge">
<title>Node14&#45;&gt;Node1</title>
<g id="a_edge18_Node000001_Node000014"><a xlink:title=" ">
<path fill="none" stroke="#63b8ff" d="M1152.73,-25.36C1171.81,-30 1192.76,-35.09 1210.96,-39.51"/>
<polygon fill="#63b8ff" stroke="#63b8ff" points="1153.76,-22.01 1143.21,-23.05 1152.1,-28.81 1153.76,-22.01"/>
</a>
</g>
</g>
<!-- Node15 -->
<g id="Node000015" class="node">
<title>Node15</title>
<g id="a_Node000015"><a xlink:href="class_shared_factory.html" target="_top" xlink:title=" ">
<polygon fill="white" stroke="#666666" points="905.12,-22.25 800.62,-22.25 800.62,0 905.12,0 905.12,-22.25"/>
<text text-anchor="middle" x="852.88" y="-8.75" font-family="Helvetica,sans-Serif" font-size="10.00">SharedFactory&lt; T &gt;</text>
</a>
</g>
</g>
<!-- Node15&#45;&gt;Node14 -->
<g id="edge19_Node000014_Node000015" class="edge">
<title>Node15&#45;&gt;Node14</title>
<g id="a_edge19_Node000014_Node000015"><a xlink:title=" ">
<path fill="none" stroke="orange" stroke-dasharray="5,2" d="M916.85,-11.12C951.08,-11.12 993.33,-11.12 1027.77,-11.12"/>
<polygon fill="orange" stroke="orange" points="917.09,-7.63 907.09,-11.13 917.09,-14.63 917.09,-7.63"/>
</a>
</g>
<text text-anchor="middle" x="973" y="-15.88" font-family="Helvetica,sans-Serif" font-size="10.00" fill="grey"> &lt; RxLine &gt;</text>
</g>
</g>
</svg>
