<?xml version="1.0" encoding="UTF-8" standalone="no"?>
<!DOCTYPE svg PUBLIC "-//W3C//DTD SVG 1.1//EN"
 "http://www.w3.org/Graphics/SVG/1.1/DTD/svg11.dtd">
<!-- Generated by graphviz version 12.2.1 (20241206.2353)
 -->
<!-- Title: CPS::Base::Ph1::Switch Pages: 1 -->
<!--zoomable 236 -->

<svg id="main" version="1.1" xmlns="http://www.w3.org/2000/svg" xmlns:xlink="http://www.w3.org/1999/xlink" xml:space="preserve" onload="init(evt)">

<style type="text/css"><![CDATA[
.node, .edge {opacity: 0.7;}
.node.selected, .edge.selected {opacity: 1;}
.edge:hover path { stroke: red; }
.edge:hover polygon { stroke: red; fill: red; }
]]></style>

<defs>
  <circle id="rim" cx="0" cy="0" r="7"/>
  <circle id="rim2" cx="0" cy="0" r="3.5"/>
  <g id="zoomPlus">
    <use xlink:href="#rim" fill="#404040"><set attributeName="fill" to="#808080" begin="zoomplus.mouseover" end="zoomplus.mouseout"/></use>
    <path d="M-4,0h8M0,-4v8" fill="none" stroke="white" stroke-width="1.5" pointer-events="none"/>
  </g>
  <g id="zoomMin">
    <use xlink:href="#rim" fill="#404040"><set attributeName="fill" to="#808080" begin="zoomminus.mouseover" end="zoomminus.mouseout"/></use>
    <path d="M-4,0h8" fill="none" stroke="white" stroke-width="1.5" pointer-events="none"/>
  </g>
  <g id="arrowUp" transform="translate(30 24)">
    <use xlink:href="#rim"/>
    <path pointer-events="none" fill="none" stroke="white" stroke-width="1.5" d="M0,-3.0v7 M-2.5,-0.5L0,-3.0L2.5,-0.5"/>
  </g>
  <g id="arrowRight" transform="rotate(90) translate(36 -43)">
    <use xlink:href="#rim"/>
    <path pointer-events="none" fill="none" stroke="white" stroke-width="1.5" d="M0,-3.0v7 M-2.5,-0.5L0,-3.0L2.5,-0.5"/>
  </g>
  <g id="arrowDown" transform="rotate(180) translate(-30 -48)">
    <use xlink:href="#rim"/>
    <path pointer-events="none" fill="none" stroke="white" stroke-width="1.5" d="M0,-3.0v7 M-2.5,-0.5L0,-3.0L2.5,-0.5"/>
  </g>
  <g id="arrowLeft" transform="rotate(270) translate(-36 17)">
    <use xlink:href="#rim"/>
    <path pointer-events="none" fill="none" stroke="white" stroke-width="1.5" d="M0,-3.0v7 M-2.5,-0.5L0,-3.0L2.5,-0.5"/>
  </g>
  <g id="resetDef">
    <use xlink:href="#rim2" fill="#404040"><set attributeName="fill" to="#808080" begin="reset.mouseover" end="reset.mouseout"/></use>
  </g>
</defs>
<script type="application/ecmascript">
var viewWidth = 718;
var viewHeight = 236;
var sectionId = 'dynsection-1';
</script>
<script type="application/ecmascript" xlink:href="svg.min.js"/>
<svg id="graph" class="graph">
<g id="viewport">
<title>CPS::Base::Ph1::Switch</title>
<!-- Node1 -->
<g id="Node000001" class="node">
<title>Node1</title>
<g id="a_Node000001"><a xlink:title="Dynamic Phasor Three&#45;Phase Switch.">
<polygon fill="#999999" stroke="#666666" points="710,-104.96 589,-104.96 589,-82.71 710,-82.71 710,-104.96"/>
<text text-anchor="middle" x="649.5" y="-91.46" font-family="Helvetica,sans-Serif" font-size="10.00">CPS::Base::Ph1::Switch</text>
</a>
</g>
</g>
<!-- Node2 -->
<g id="Node000002" class="node">
<title>Node2</title>
<g id="a_Node000002"><a xlink:href="class_c_p_s_1_1_attribute.html" target="_top" xlink:title=" ">
<polygon fill="white" stroke="#666666" points="461.5,-140.96 343.5,-140.96 343.5,-118.71 461.5,-118.71 461.5,-140.96"/>
<text text-anchor="middle" x="402.5" y="-127.46" font-family="Helvetica,sans-Serif" font-size="10.00">CPS::Attribute&lt; Real &gt;</text>
</a>
</g>
</g>
<!-- Node2&#45;&gt;Node1 -->
<g id="edge1_Node000001_Node000002" class="edge">
<title>Node2&#45;&gt;Node1</title>
<g id="a_edge1_Node000001_Node000002"><a xlink:title=" ">
<path fill="none" stroke="#9a32cd" stroke-dasharray="5,2" d="M472.95,-119.63C509.51,-114.26 553.89,-107.74 588.87,-102.59"/>
<polygon fill="#9a32cd" stroke="#9a32cd" points="472.75,-116.12 463.37,-121.04 473.77,-123.04 472.75,-116.12"/>
</a>
</g>
<text text-anchor="middle" x="525.62" y="-137.19" font-family="Helvetica,sans-Serif" font-size="10.00" fill="grey"> mClosedResistance</text>
<text text-anchor="middle" x="525.62" y="-122.94" font-family="Helvetica,sans-Serif" font-size="10.00" fill="grey">mOpenResistance</text>
</g>
<!-- Node3 -->
<g id="Node000003" class="node">
<title>Node3</title>
<g id="a_Node000003"><a xlink:href="class_c_p_s_1_1_attribute_base.html" target="_top" xlink:title=" ">
<polygon fill="white" stroke="#666666" points="109.75,-142.96 5.25,-142.96 5.25,-120.71 109.75,-120.71 109.75,-142.96"/>
<text text-anchor="middle" x="57.5" y="-129.46" font-family="Helvetica,sans-Serif" font-size="10.00">CPS::AttributeBase</text>
</a>
</g>
</g>
<!-- Node3&#45;&gt;Node2 -->
<g id="edge2_Node000002_Node000003" class="edge">
<title>Node3&#45;&gt;Node2</title>
<g id="a_edge2_Node000002_Node000003"><a xlink:title=" ">
<path fill="none" stroke="#63b8ff" d="M121.51,-134.7C175.47,-136.69 255.25,-138.55 324.75,-135.83 330.76,-135.6 337.03,-135.26 343.28,-134.86"/>
<polygon fill="#63b8ff" stroke="#63b8ff" points="121.7,-131.2 111.57,-134.31 121.43,-138.19 121.7,-131.2"/>
</a>
</g>
</g>
<!-- Node5 -->
<g id="Node000005" class="node">
<title>Node5</title>
<g id="a_Node000005"><a xlink:href="class_c_p_s_1_1_attribute.html" target="_top" xlink:title=" ">
<polygon fill="white" stroke="#666666" points="261.38,-120.96 157.62,-120.96 157.62,-98.71 261.38,-98.71 261.38,-120.96"/>
<text text-anchor="middle" x="209.5" y="-107.46" font-family="Helvetica,sans-Serif" font-size="10.00">CPS::Attribute&lt; T &gt;</text>
</a>
</g>
</g>
<!-- Node3&#45;&gt;Node5 -->
<g id="edge5_Node000005_Node000003" class="edge">
<title>Node3&#45;&gt;Node5</title>
<g id="a_edge5_Node000005_Node000003"><a xlink:title=" ">
<path fill="none" stroke="#63b8ff" d="M121.42,-122.61C133.37,-120.85 145.75,-119.04 157.29,-117.34"/>
<polygon fill="#63b8ff" stroke="#63b8ff" points="121.01,-119.13 111.62,-124.04 122.02,-126.05 121.01,-119.13"/>
</a>
</g>
</g>
<!-- Node7 -->
<g id="Node000007" class="node">
<title>Node7</title>
<g id="a_Node000007"><a xlink:href="class_c_p_s_1_1_attribute.html" target="_top" xlink:title=" ">
<polygon fill="white" stroke="#666666" points="462.25,-85.96 342.75,-85.96 342.75,-63.71 462.25,-63.71 462.25,-85.96"/>
<text text-anchor="middle" x="402.5" y="-72.46" font-family="Helvetica,sans-Serif" font-size="10.00">CPS::Attribute&lt; Bool &gt;</text>
</a>
</g>
</g>
<!-- Node3&#45;&gt;Node7 -->
<g id="edge8_Node000007_Node000003" class="edge">
<title>Node3&#45;&gt;Node7</title>
<g id="a_edge8_Node000007_Node000003"><a xlink:title=" ">
<path fill="none" stroke="#63b8ff" d="M111.14,-114.2C112.49,-113.14 113.78,-112.02 115,-110.83 146.57,-80.09 115.48,-43.51 152,-18.83 227.78,32.37 343.16,-35.09 385.34,-63.4"/>
<polygon fill="#63b8ff" stroke="#63b8ff" points="109.36,-111.18 102.8,-119.5 113.12,-117.09 109.36,-111.18"/>
</a>
</g>
</g>
<!-- Node4 -->
<g id="Node000004" class="node">
<title>Node4</title>
<g id="a_Node000004"><a xlink:title=" ">
<polygon fill="white" stroke="#bfbfbf" points="267,-228.21 152,-228.21 152,-177.46 267,-177.46 267,-228.21"/>
<text text-anchor="start" x="160" y="-214.71" font-family="Helvetica,sans-Serif" font-size="10.00">std::enable_shared</text>
<text text-anchor="start" x="160" y="-200.46" font-family="Helvetica,sans-Serif" font-size="10.00">_from_this&lt; Attribute</text>
<text text-anchor="middle" x="209.5" y="-186.21" font-family="Helvetica,sans-Serif" font-size="10.00">&lt; Real &gt; &gt;</text>
</a>
</g>
</g>
<!-- Node4&#45;&gt;Node2 -->
<g id="edge3_Node000002_Node000004" class="edge">
<title>Node4&#45;&gt;Node2</title>
<g id="a_edge3_Node000002_Node000004"><a xlink:title=" ">
<path fill="none" stroke="#63b8ff" d="M277.8,-180.96C293.32,-175.61 309.68,-169.73 324.75,-163.83 342.39,-156.93 361.91,-148.27 376.85,-141.42"/>
<polygon fill="#63b8ff" stroke="#63b8ff" points="276.99,-177.54 268.66,-184.08 279.25,-184.16 276.99,-177.54"/>
</a>
</g>
</g>
<!-- Node5&#45;&gt;Node2 -->
<g id="edge4_Node000002_Node000005" class="edge">
<title>Node5&#45;&gt;Node2</title>
<g id="a_edge4_Node000002_Node000005"><a xlink:title=" ">
<path fill="none" stroke="orange" stroke-dasharray="5,2" d="M273.06,-116.21C289.85,-117.94 307.99,-119.82 324.75,-121.58 330.75,-122.21 337.01,-122.88 343.25,-123.54"/>
<polygon fill="orange" stroke="orange" points="273.5,-112.74 263.2,-115.2 272.79,-119.71 273.5,-112.74"/>
</a>
</g>
<text text-anchor="middle" x="304.88" y="-126.33" font-family="Helvetica,sans-Serif" font-size="10.00" fill="grey"> &lt; Real &gt;</text>
</g>
<!-- Node5&#45;&gt;Node7 -->
<g id="edge10_Node000007_Node000005" class="edge">
<title>Node5&#45;&gt;Node7</title>
<g id="a_edge10_Node000007_Node000005"><a xlink:title=" ">
<path fill="none" stroke="orange" stroke-dasharray="5,2" d="M272.76,-98.42C295.14,-94.32 320.29,-89.71 342.39,-85.66"/>
<polygon fill="orange" stroke="orange" points="272.38,-94.94 263.17,-100.18 273.64,-101.82 272.38,-94.94"/>
</a>
</g>
<text text-anchor="middle" x="304.88" y="-100.22" font-family="Helvetica,sans-Serif" font-size="10.00" fill="grey"> &lt; Bool &gt;</text>
</g>
<!-- Node6 -->
<g id="Node000006" class="node">
<title>Node6</title>
<g id="a_Node000006"><a xlink:title=" ">
<polygon fill="white" stroke="#bfbfbf" points="115,-102.21 0,-102.21 0,-51.46 115,-51.46 115,-102.21"/>
<text text-anchor="start" x="8" y="-88.71" font-family="Helvetica,sans-Serif" font-size="10.00">std::enable_shared</text>
<text text-anchor="start" x="8" y="-74.46" font-family="Helvetica,sans-Serif" font-size="10.00">_from_this&lt; Attribute</text>
<text text-anchor="middle" x="57.5" y="-60.21" font-family="Helvetica,sans-Serif" font-size="10.00">&lt; T &gt; &gt;</text>
</a>
</g>
</g>
<!-- Node6&#45;&gt;Node5 -->
<g id="edge6_Node000005_Node000006" class="edge">
<title>Node6&#45;&gt;Node5</title>
<g id="a_edge6_Node000005_Node000006"><a xlink:title=" ">
<path fill="none" stroke="#63b8ff" d="M126.33,-91.76C136.68,-94.03 147.22,-96.35 157.14,-98.53"/>
<polygon fill="#63b8ff" stroke="#63b8ff" points="127.21,-88.36 116.69,-89.63 125.7,-95.2 127.21,-88.36"/>
</a>
</g>
</g>
<!-- Node7&#45;&gt;Node1 -->
<g id="edge7_Node000001_Node000007" class="edge">
<title>Node7&#45;&gt;Node1</title>
<g id="a_edge7_Node000001_Node000007"><a xlink:title=" ">
<path fill="none" stroke="#9a32cd" stroke-dasharray="5,2" d="M473.82,-73.02C503.84,-73.01 539.22,-74.02 571,-77.58 580.56,-78.65 590.69,-80.35 600.36,-82.26"/>
<polygon fill="#9a32cd" stroke="#9a32cd" points="474.09,-69.52 464.1,-73.06 474.12,-76.52 474.09,-69.52"/>
</a>
</g>
<text text-anchor="middle" x="525.62" y="-82.33" font-family="Helvetica,sans-Serif" font-size="10.00" fill="grey"> mIsClosed</text>
</g>
<!-- Node8 -->
<g id="Node000008" class="node">
<title>Node8</title>
<g id="a_Node000008"><a xlink:title=" ">
<polygon fill="white" stroke="#bfbfbf" points="267,-78.21 152,-78.21 152,-27.46 267,-27.46 267,-78.21"/>
<text text-anchor="start" x="160" y="-64.71" font-family="Helvetica,sans-Serif" font-size="10.00">std::enable_shared</text>
<text text-anchor="start" x="160" y="-50.46" font-family="Helvetica,sans-Serif" font-size="10.00">_from_this&lt; Attribute</text>
<text text-anchor="middle" x="209.5" y="-36.21" font-family="Helvetica,sans-Serif" font-size="10.00">&lt; Bool &gt; &gt;</text>
</a>
</g>
</g>
<!-- Node8&#45;&gt;Node7 -->
<g id="edge9_Node000007_Node000008" class="edge">
<title>Node8&#45;&gt;Node7</title>
<g id="a_edge9_Node000007_Node000008"><a xlink:title=" ">
<path fill="none" stroke="#63b8ff" d="M278.86,-59.73C293.98,-61.34 309.91,-63.09 324.75,-64.83 330.49,-65.51 336.46,-66.24 342.44,-66.99"/>
<polygon fill="#63b8ff" stroke="#63b8ff" points="279.3,-56.26 268.99,-58.69 278.57,-63.22 279.3,-56.26"/>
</a>
</g>
</g>
</g>
</svg>

<g id="navigator" transform="translate(0 0)" fill="#404254">
  <rect fill="#f2f5e9" fill-opacity="0.5" stroke="#606060" stroke-width=".5" x="0" y="0" width="60" height="60"/>
  <use id="zoomplus" xlink:href="#zoomPlus" x="17" y="9" onmousedown="handleZoom(evt,'in')"/>
  <use id="zoomminus" xlink:href="#zoomMin" x="42" y="9" onmousedown="handleZoom(evt,'out')"/>
  <use id="reset" xlink:href="#resetDef" x="30" y="36" onmousedown="handleReset()"/>
   <use id="arrowup" xlink:href="#arrowUp" x="0" y="0" onmousedown="handlePan(0,-1)"/>
  <use id="arrowright" xlink:href="#arrowRight" x="0" y="0" onmousedown="handlePan(1,0)"/>
  <use id="arrowdown" xlink:href="#arrowDown" x="0" y="0" onmousedown="handlePan(0,1)"/>
  <use id="arrowleft" xlink:href="#arrowLeft" x="0" y="0" onmousedown="handlePan(-1,0)"/>
</g>
<svg viewBox="0 0 15 15" width="100%" height="30px" preserveAspectRatio="xMaxYMin meet">
 <g id="arrow_out" transform="scale(0.3 0.3)">
  <a xlink:href="class_c_p_s_1_1_base_1_1_ph1_1_1_switch__coll__graph_org.svg" target="_base">
   <rect id="button" ry="5" rx="5" y="6" x="6" height="38" width="38"
        fill="#f2f5e9" fill-opacity="0.5" stroke="#606060" stroke-width="1.0"/>
   <path id="arrow"
     d="M 11.500037,31.436501 C 11.940474,20.09759 22.043105,11.32322 32.158766,21.979434 L 37.068811,17.246167 C 37.068811,17.246167 37.088388,32 37.088388,32 L 22.160133,31.978069 C 22.160133,31.978069 26.997745,27.140456 26.997745,27.140456 C 18.528582,18.264221 13.291696,25.230495 11.500037,31.436501 z"
     style="fill:#404040;"/>
  </a>
 </g>
</svg>

<style type='text/css'>
<![CDATA[
[data-mouse-over-selected='false'] { opacity: 0.7; }
[data-mouse-over-selected='true']  { opacity: 1.0; }
]]>
</style>
<script type="application/ecmascript"><![CDATA[
document.addEventListener('DOMContentLoaded', (event) => {
  highlightEdges();
  highlightAdjacentNodes();
});
]]></script>
</svg>
