<?xml version="1.0" encoding="UTF-8" standalone="no"?>
<!DOCTYPE svg PUBLIC "-//W3C//DTD SVG 1.1//EN"
 "http://www.w3.org/Graphics/SVG/1.1/DTD/svg11.dtd">
<!-- Generated by graphviz version 12.2.1 (20241206.2353)
 -->
<!-- Title: DPsim::MnaSolver&lt; VarType &gt; Pages: 1 -->
<!--zoomable 180 -->

<svg id="main" version="1.1" xmlns="http://www.w3.org/2000/svg" xmlns:xlink="http://www.w3.org/1999/xlink" xml:space="preserve" onload="init(evt)">

<style type="text/css"><![CDATA[
.node, .edge {opacity: 0.7;}
.node.selected, .edge.selected {opacity: 1;}
.edge:hover path { stroke: red; }
.edge:hover polygon { stroke: red; fill: red; }
]]></style>

<defs>
  <circle id="rim" cx="0" cy="0" r="7"/>
  <circle id="rim2" cx="0" cy="0" r="3.5"/>
  <g id="zoomPlus">
    <use xlink:href="#rim" fill="#404040"><set attributeName="fill" to="#808080" begin="zoomplus.mouseover" end="zoomplus.mouseout"/></use>
    <path d="M-4,0h8M0,-4v8" fill="none" stroke="white" stroke-width="1.5" pointer-events="none"/>
  </g>
  <g id="zoomMin">
    <use xlink:href="#rim" fill="#404040"><set attributeName="fill" to="#808080" begin="zoomminus.mouseover" end="zoomminus.mouseout"/></use>
    <path d="M-4,0h8" fill="none" stroke="white" stroke-width="1.5" pointer-events="none"/>
  </g>
  <g id="arrowUp" transform="translate(30 24)">
    <use xlink:href="#rim"/>
    <path pointer-events="none" fill="none" stroke="white" stroke-width="1.5" d="M0,-3.0v7 M-2.5,-0.5L0,-3.0L2.5,-0.5"/>
  </g>
  <g id="arrowRight" transform="rotate(90) translate(36 -43)">
    <use xlink:href="#rim"/>
    <path pointer-events="none" fill="none" stroke="white" stroke-width="1.5" d="M0,-3.0v7 M-2.5,-0.5L0,-3.0L2.5,-0.5"/>
  </g>
  <g id="arrowDown" transform="rotate(180) translate(-30 -48)">
    <use xlink:href="#rim"/>
    <path pointer-events="none" fill="none" stroke="white" stroke-width="1.5" d="M0,-3.0v7 M-2.5,-0.5L0,-3.0L2.5,-0.5"/>
  </g>
  <g id="arrowLeft" transform="rotate(270) translate(-36 17)">
    <use xlink:href="#rim"/>
    <path pointer-events="none" fill="none" stroke="white" stroke-width="1.5" d="M0,-3.0v7 M-2.5,-0.5L0,-3.0L2.5,-0.5"/>
  </g>
  <g id="resetDef">
    <use xlink:href="#rim2" fill="#404040"><set attributeName="fill" to="#808080" begin="reset.mouseover" end="reset.mouseout"/></use>
  </g>
</defs>
<script type="application/ecmascript">
var viewWidth = 760;
var viewHeight = 180;
var sectionId = 'dynsection-1';
</script>
<script type="application/ecmascript" xlink:href="svg.min.js"/>
<svg id="graph" class="graph">
<g id="viewport">
<title>DPsim::MnaSolver&lt; VarType &gt;</title>
<!-- Node1 -->
<g id="Node000001" class="node">
<title>Node1</title>
<g id="a_Node000001"><a xlink:title="Solver class using Modified Nodal Analysis (MNA).">
<polygon fill="#999999" stroke="#666666" points="752,-131.5 596.5,-131.5 596.5,-109.25 752,-109.25 752,-131.5"/>
<text text-anchor="middle" x="674.25" y="-118" font-family="Helvetica,sans-Serif" font-size="10.00">DPsim::MnaSolver&lt; VarType &gt;</text>
</a>
</g>
</g>
<!-- Node2 -->
<g id="Node000002" class="node">
<title>Node2</title>
<g id="a_Node000002"><a xlink:href="class_d_psim_1_1_solver.html" target="_top" xlink:title="Base class for more specific solvers such as MNA, ODE or IDA.">
<polygon fill="white" stroke="#666666" points="456.25,-171.5 375.75,-171.5 375.75,-149.25 456.25,-149.25 456.25,-171.5"/>
<text text-anchor="middle" x="416" y="-158" font-family="Helvetica,sans-Serif" font-size="10.00">DPsim::Solver</text>
</a>
</g>
</g>
<!-- Node2&#45;&gt;Node1 -->
<g id="edge1_Node000001_Node000002" class="edge">
<title>Node2&#45;&gt;Node1</title>
<g id="a_edge1_Node000001_Node000002"><a xlink:title=" ">
<path fill="none" stroke="#63b8ff" d="M467.83,-154.14C499.69,-150.07 541.56,-144.4 578.5,-138.38 590.23,-136.46 602.75,-134.23 614.7,-131.99"/>
<polygon fill="#63b8ff" stroke="#63b8ff" points="467.56,-150.65 458.08,-155.38 468.44,-157.59 467.56,-150.65"/>
</a>
</g>
</g>
<!-- Node3 -->
<g id="Node000003" class="node">
<title>Node3</title>
<g id="a_Node000003"><a xlink:href="class_c_p_s_1_1_system_topology.html" target="_top" xlink:title=" ">
<polygon fill="white" stroke="#bfbfbf" points="473.5,-131.5 358.5,-131.5 358.5,-109.25 473.5,-109.25 473.5,-131.5"/>
<text text-anchor="middle" x="416" y="-118" font-family="Helvetica,sans-Serif" font-size="10.00">CPS::SystemTopology</text>
</a>
</g>
</g>
<!-- Node3&#45;&gt;Node1 -->
<g id="edge2_Node000001_Node000003" class="edge">
<title>Node3&#45;&gt;Node1</title>
<g id="a_edge2_Node000001_Node000003"><a xlink:title=" ">
<path fill="none" stroke="#9a32cd" stroke-dasharray="5,2" d="M485.15,-120.38C519.31,-120.38 560.81,-120.38 596.13,-120.38"/>
<polygon fill="#9a32cd" stroke="#9a32cd" points="485.38,-116.88 475.38,-120.38 485.38,-123.88 485.38,-116.88"/>
</a>
</g>
<text text-anchor="middle" x="538.38" y="-125.12" font-family="Helvetica,sans-Serif" font-size="10.00" fill="grey"> mSystem</text>
</g>
<!-- Node4 -->
<g id="Node000004" class="node">
<title>Node4</title>
<g id="a_Node000004"><a xlink:href="class_c_p_s_1_1_attribute.html" target="_top" xlink:title=" ">
<polygon fill="white" stroke="#666666" points="480.25,-91.5 351.75,-91.5 351.75,-69.25 480.25,-69.25 480.25,-91.5"/>
<text text-anchor="middle" x="416" y="-78" font-family="Helvetica,sans-Serif" font-size="10.00">CPS::Attribute&lt; Matrix &gt;</text>
</a>
</g>
</g>
<!-- Node4&#45;&gt;Node1 -->
<g id="edge3_Node000001_Node000004" class="edge">
<title>Node4&#45;&gt;Node1</title>
<g id="a_edge3_Node000001_Node000004"><a xlink:title=" ">
<path fill="none" stroke="#9a32cd" stroke-dasharray="5,2" d="M491.49,-89.51C518.9,-93.11 550.16,-97.49 578.5,-102.12 590.57,-104.1 603.46,-106.43 615.72,-108.76"/>
<polygon fill="#9a32cd" stroke="#9a32cd" points="492.27,-86.09 481.9,-88.27 491.37,-93.03 492.27,-86.09"/>
</a>
</g>
<text text-anchor="middle" x="538.38" y="-106.88" font-family="Helvetica,sans-Serif" font-size="10.00" fill="grey"> mLeftSideVector</text>
</g>
<!-- Node5 -->
<g id="Node000005" class="node">
<title>Node5</title>
<g id="a_Node000005"><a xlink:href="class_c_p_s_1_1_attribute_base.html" target="_top" xlink:title=" ">
<polygon fill="white" stroke="#666666" points="109.75,-130.5 5.25,-130.5 5.25,-108.25 109.75,-108.25 109.75,-130.5"/>
<text text-anchor="middle" x="57.5" y="-117" font-family="Helvetica,sans-Serif" font-size="10.00">CPS::AttributeBase</text>
</a>
</g>
</g>
<!-- Node5&#45;&gt;Node4 -->
<g id="edge4_Node000004_Node000005" class="edge">
<title>Node5&#45;&gt;Node4</title>
<g id="a_edge4_Node000004_Node000005"><a xlink:title=" ">
<path fill="none" stroke="#63b8ff" d="M121.39,-117.12C177.36,-114.5 261.34,-109.1 333.75,-98.38 344.9,-96.72 356.8,-94.41 367.95,-91.98"/>
<polygon fill="#63b8ff" stroke="#63b8ff" points="121.58,-113.6 111.75,-117.55 121.89,-120.6 121.58,-113.6"/>
</a>
</g>
</g>
<!-- Node7 -->
<g id="Node000007" class="node">
<title>Node7</title>
<g id="a_Node000007"><a xlink:href="class_c_p_s_1_1_attribute.html" target="_top" xlink:title=" ">
<polygon fill="white" stroke="#666666" points="261.38,-91.5 157.62,-91.5 157.62,-69.25 261.38,-69.25 261.38,-91.5"/>
<text text-anchor="middle" x="209.5" y="-78" font-family="Helvetica,sans-Serif" font-size="10.00">CPS::Attribute&lt; T &gt;</text>
</a>
</g>
</g>
<!-- Node5&#45;&gt;Node7 -->
<g id="edge7_Node000007_Node000005" class="edge">
<title>Node5&#45;&gt;Node7</title>
<g id="a_edge7_Node000007_Node000005"><a xlink:title=" ">
<path fill="none" stroke="#63b8ff" d="M114.18,-104.9C130.54,-100.64 148.23,-96.05 163.81,-91.99"/>
<polygon fill="#63b8ff" stroke="#63b8ff" points="113.36,-101.49 104.56,-107.4 115.12,-108.27 113.36,-101.49"/>
</a>
</g>
</g>
<!-- Node6 -->
<g id="Node000006" class="node">
<title>Node6</title>
<g id="a_Node000006"><a xlink:title=" ">
<polygon fill="white" stroke="#bfbfbf" points="267,-50.75 152,-50.75 152,0 267,0 267,-50.75"/>
<text text-anchor="start" x="160" y="-37.25" font-family="Helvetica,sans-Serif" font-size="10.00">std::enable_shared</text>
<text text-anchor="start" x="160" y="-23" font-family="Helvetica,sans-Serif" font-size="10.00">_from_this&lt; Attribute</text>
<text text-anchor="middle" x="209.5" y="-8.75" font-family="Helvetica,sans-Serif" font-size="10.00">&lt; Matrix &gt; &gt;</text>
</a>
</g>
</g>
<!-- Node6&#45;&gt;Node4 -->
<g id="edge5_Node000004_Node000006" class="edge">
<title>Node6&#45;&gt;Node4</title>
<g id="a_edge5_Node000004_Node000006"><a xlink:title=" ">
<path fill="none" stroke="#63b8ff" d="M278.58,-43.69C309.4,-51.97 344.9,-61.52 371.96,-68.8"/>
<polygon fill="#63b8ff" stroke="#63b8ff" points="279.49,-40.31 268.93,-41.09 277.67,-47.07 279.49,-40.31"/>
</a>
</g>
</g>
<!-- Node7&#45;&gt;Node4 -->
<g id="edge6_Node000004_Node000007" class="edge">
<title>Node7&#45;&gt;Node4</title>
<g id="a_edge6_Node000004_Node000007"><a xlink:title=" ">
<path fill="none" stroke="orange" stroke-dasharray="5,2" d="M273.33,-80.38C298.17,-80.38 326.67,-80.38 351.56,-80.38"/>
<polygon fill="orange" stroke="orange" points="273.35,-76.88 263.35,-80.38 273.35,-83.88 273.35,-76.88"/>
</a>
</g>
<text text-anchor="middle" x="309.38" y="-85.12" font-family="Helvetica,sans-Serif" font-size="10.00" fill="grey"> &lt; Matrix &gt;</text>
</g>
<!-- Node8 -->
<g id="Node000008" class="node">
<title>Node8</title>
<g id="a_Node000008"><a xlink:title=" ">
<polygon fill="white" stroke="#bfbfbf" points="115,-89.75 0,-89.75 0,-39 115,-39 115,-89.75"/>
<text text-anchor="start" x="8" y="-76.25" font-family="Helvetica,sans-Serif" font-size="10.00">std::enable_shared</text>
<text text-anchor="start" x="8" y="-62" font-family="Helvetica,sans-Serif" font-size="10.00">_from_this&lt; Attribute</text>
<text text-anchor="middle" x="57.5" y="-47.75" font-family="Helvetica,sans-Serif" font-size="10.00">&lt; T &gt; &gt;</text>
</a>
</g>
</g>
<!-- Node8&#45;&gt;Node7 -->
<g id="edge8_Node000007_Node000008" class="edge">
<title>Node8&#45;&gt;Node7</title>
<g id="a_edge8_Node000007_Node000008"><a xlink:title=" ">
<path fill="none" stroke="#63b8ff" d="M126.33,-71.61C136.68,-72.71 147.22,-73.84 157.14,-74.9"/>
<polygon fill="#63b8ff" stroke="#63b8ff" points="127.03,-68.16 116.71,-70.58 126.29,-75.13 127.03,-68.16"/>
</a>
</g>
</g>
</g>
</svg>

<g id="navigator" transform="translate(0 0)" fill="#404254">
  <rect fill="#f2f5e9" fill-opacity="0.5" stroke="#606060" stroke-width=".5" x="0" y="0" width="60" height="60"/>
  <use id="zoomplus" xlink:href="#zoomPlus" x="17" y="9" onmousedown="handleZoom(evt,'in')"/>
  <use id="zoomminus" xlink:href="#zoomMin" x="42" y="9" onmousedown="handleZoom(evt,'out')"/>
  <use id="reset" xlink:href="#resetDef" x="30" y="36" onmousedown="handleReset()"/>
   <use id="arrowup" xlink:href="#arrowUp" x="0" y="0" onmousedown="handlePan(0,-1)"/>
  <use id="arrowright" xlink:href="#arrowRight" x="0" y="0" onmousedown="handlePan(1,0)"/>
  <use id="arrowdown" xlink:href="#arrowDown" x="0" y="0" onmousedown="handlePan(0,1)"/>
  <use id="arrowleft" xlink:href="#arrowLeft" x="0" y="0" onmousedown="handlePan(-1,0)"/>
</g>
<svg viewBox="0 0 15 15" width="100%" height="30px" preserveAspectRatio="xMaxYMin meet">
 <g id="arrow_out" transform="scale(0.3 0.3)">
  <a xlink:href="class_d_psim_1_1_mna_solver__coll__graph_org.svg" target="_base">
   <rect id="button" ry="5" rx="5" y="6" x="6" height="38" width="38"
        fill="#f2f5e9" fill-opacity="0.5" stroke="#606060" stroke-width="1.0"/>
   <path id="arrow"
     d="M 11.500037,31.436501 C 11.940474,20.09759 22.043105,11.32322 32.158766,21.979434 L 37.068811,17.246167 C 37.068811,17.246167 37.088388,32 37.088388,32 L 22.160133,31.978069 C 22.160133,31.978069 26.997745,27.140456 26.997745,27.140456 C 18.528582,18.264221 13.291696,25.230495 11.500037,31.436501 z"
     style="fill:#404040;"/>
  </a>
 </g>
</svg>

<style type='text/css'>
<![CDATA[
[data-mouse-over-selected='false'] { opacity: 0.7; }
[data-mouse-over-selected='true']  { opacity: 1.0; }
]]>
</style>
<script type="application/ecmascript"><![CDATA[
document.addEventListener('DOMContentLoaded', (event) => {
  highlightEdges();
  highlightAdjacentNodes();
});
]]></script>
</svg>
