<?xml version="1.0" encoding="UTF-8" standalone="no"?>
<!DOCTYPE svg PUBLIC "-//W3C//DTD SVG 1.1//EN"
 "http://www.w3.org/Graphics/SVG/1.1/DTD/svg11.dtd">
<!-- Generated by graphviz version 12.2.1 (20241206.2353)
 -->
<!-- Title: CPS::DAEInterface Pages: 1 -->
<svg width="309pt" height="324pt"
 viewBox="0.00 0.00 309.25 324.25" xmlns="http://www.w3.org/2000/svg" xmlns:xlink="http://www.w3.org/1999/xlink">

<svg id="main" version="1.1" xmlns="http://www.w3.org/2000/svg" xmlns:xlink="http://www.w3.org/1999/xlink" xml:space="preserve">

<style type="text/css"><![CDATA[
.node, .edge {opacity: 0.7;}
.node.selected, .edge.selected {opacity: 1;}
.edge:hover path { stroke: red; }
.edge:hover polygon { stroke: red; fill: red; }
]]></style>
<script type="application/ecmascript" xlink:href="svg.min.js"/>
<svg id="graph" class="graph">
<g id="graph0" class="graph" transform="scale(1 1) rotate(0) translate(4 320.25)">
<title>CPS::DAEInterface</title>
<!-- Node1 -->
<g id="Node000001" class="node">
<title>Node1</title>
<g id="a_Node000001"><a xlink:title=" ">
<polygon fill="#999999" stroke="#666666" points="101.5,-162.25 0,-162.25 0,-140 101.5,-140 101.5,-162.25"/>
<text text-anchor="middle" x="50.75" y="-148.75" font-family="Helvetica,sans-Serif" font-size="10.00">CPS::DAEInterface</text>
</a>
</g>
</g>
<!-- Node2 -->
<g id="Node000002" class="node">
<title>Node2</title>
<g id="a_Node000002"><a xlink:href="class_c_p_s_1_1_d_p_1_1_ph1_1_1_network_injection.html" target="_top" xlink:title="Network injection model.">
<polygon fill="white" stroke="#666666" points="301.25,-316.25 137.5,-316.25 137.5,-294 301.25,-294 301.25,-316.25"/>
<text text-anchor="middle" x="219.38" y="-302.75" font-family="Helvetica,sans-Serif" font-size="10.00">CPS::DP::Ph1::NetworkInjection</text>
</a>
</g>
</g>
<!-- Node1&#45;&gt;Node2 -->
<g id="edge1_Node000001_Node000002" class="edge">
<title>Node1&#45;&gt;Node2</title>
<g id="a_edge1_Node000001_Node000002"><a xlink:title=" ">
<path fill="none" stroke="#63b8ff" d="M59.77,-173.17C71.86,-203.22 97.67,-256.57 137.5,-285.12 142.2,-288.5 147.41,-291.3 152.85,-293.64"/>
<polygon fill="#63b8ff" stroke="#63b8ff" points="63.08,-172.03 56.22,-163.96 56.55,-174.55 63.08,-172.03"/>
</a>
</g>
</g>
<!-- Node3 -->
<g id="Node000003" class="node">
<title>Node3</title>
<g id="a_Node000003"><a xlink:href="class_c_p_s_1_1_d_p_1_1_ph1_1_1_profile_voltage_source.html" target="_top" xlink:title=" ">
<polygon fill="white" stroke="#bfbfbf" points="293.38,-276.38 145.38,-276.38 145.38,-239.88 293.38,-239.88 293.38,-276.38"/>
<text text-anchor="start" x="153.38" y="-262.88" font-family="Helvetica,sans-Serif" font-size="10.00">CPS::DP::Ph1::ProfileVoltage</text>
<text text-anchor="middle" x="219.38" y="-248.62" font-family="Helvetica,sans-Serif" font-size="10.00">Source</text>
</a>
</g>
</g>
<!-- Node1&#45;&gt;Node3 -->
<g id="edge2_Node000001_Node000003" class="edge">
<title>Node1&#45;&gt;Node3</title>
<g id="a_edge2_Node000001_Node000003"><a xlink:title=" ">
<path fill="none" stroke="#63b8ff" d="M68.6,-171.13C84.67,-189.08 110.38,-215 137.5,-231.12 142.72,-234.23 148.34,-237.03 154.1,-239.54"/>
<polygon fill="#63b8ff" stroke="#63b8ff" points="71.33,-168.94 62.11,-163.71 66.06,-173.54 71.33,-168.94"/>
</a>
</g>
</g>
<!-- Node4 -->
<g id="Node000004" class="node">
<title>Node4</title>
<g id="a_Node000004"><a xlink:href="class_c_p_s_1_1_d_p_1_1_ph1_1_1_resistor.html" target="_top" xlink:title="Dynamic phasor resistor model.">
<polygon fill="white" stroke="#666666" points="279.5,-222.25 159.25,-222.25 159.25,-200 279.5,-200 279.5,-222.25"/>
<text text-anchor="middle" x="219.38" y="-208.75" font-family="Helvetica,sans-Serif" font-size="10.00">CPS::DP::Ph1::Resistor</text>
</a>
</g>
</g>
<!-- Node1&#45;&gt;Node4 -->
<g id="edge3_Node000001_Node000004" class="edge">
<title>Node1&#45;&gt;Node4</title>
<g id="a_edge3_Node000001_Node000004"><a xlink:title=" ">
<path fill="none" stroke="#63b8ff" d="M83.32,-167.65C99.26,-175.52 119.08,-184.62 137.5,-191.12 146.36,-194.26 155.94,-197.09 165.3,-199.57"/>
<polygon fill="#63b8ff" stroke="#63b8ff" points="85.32,-164.74 74.82,-163.37 82.18,-170.99 85.32,-164.74"/>
</a>
</g>
</g>
<!-- Node5 -->
<g id="Node000005" class="node">
<title>Node5</title>
<g id="a_Node000005"><a xlink:href="class_c_p_s_1_1_d_p_1_1_ph1_1_1_voltage_source.html" target="_top" xlink:title="Ideal Voltage source model.">
<polygon fill="white" stroke="#666666" points="294.12,-182.25 144.62,-182.25 144.62,-160 294.12,-160 294.12,-182.25"/>
<text text-anchor="middle" x="219.38" y="-168.75" font-family="Helvetica,sans-Serif" font-size="10.00">CPS::DP::Ph1::VoltageSource</text>
</a>
</g>
</g>
<!-- Node1&#45;&gt;Node5 -->
<g id="edge4_Node000001_Node000005" class="edge">
<title>Node1&#45;&gt;Node5</title>
<g id="a_edge4_Node000001_Node000005"><a xlink:title=" ">
<path fill="none" stroke="#63b8ff" d="M113.03,-158.48C123.23,-159.7 133.91,-160.99 144.39,-162.24"/>
<polygon fill="#63b8ff" stroke="#63b8ff" points="113.59,-155.02 103.25,-157.31 112.76,-161.97 113.59,-155.02"/>
</a>
</g>
</g>
<!-- Node6 -->
<g id="Node000006" class="node">
<title>Node6</title>
<g id="a_Node000006"><a xlink:href="class_c_p_s_1_1_d_p_1_1_ph3_1_1_voltage_source.html" target="_top" xlink:title="Ideal Voltage source model.">
<polygon fill="white" stroke="#666666" points="294.12,-142.25 144.62,-142.25 144.62,-120 294.12,-120 294.12,-142.25"/>
<text text-anchor="middle" x="219.38" y="-128.75" font-family="Helvetica,sans-Serif" font-size="10.00">CPS::DP::Ph3::VoltageSource</text>
</a>
</g>
</g>
<!-- Node1&#45;&gt;Node6 -->
<g id="edge5_Node000001_Node000006" class="edge">
<title>Node1&#45;&gt;Node6</title>
<g id="a_edge5_Node000001_Node000006"><a xlink:title=" ">
<path fill="none" stroke="#63b8ff" d="M113.03,-143.77C123.23,-142.55 133.91,-141.26 144.39,-140.01"/>
<polygon fill="#63b8ff" stroke="#63b8ff" points="112.76,-140.28 103.25,-144.94 113.59,-147.23 112.76,-140.28"/>
</a>
</g>
</g>
<!-- Node7 -->
<g id="Node000007" class="node">
<title>Node7</title>
<g id="a_Node000007"><a xlink:href="class_c_p_s_1_1_s_p_1_1_ph1_1_1_network_injection.html" target="_top" xlink:title="Network injection model.">
<polygon fill="white" stroke="#666666" points="300.12,-102.25 138.62,-102.25 138.62,-80 300.12,-80 300.12,-102.25"/>
<text text-anchor="middle" x="219.38" y="-88.75" font-family="Helvetica,sans-Serif" font-size="10.00">CPS::SP::Ph1::NetworkInjection</text>
</a>
</g>
</g>
<!-- Node1&#45;&gt;Node7 -->
<g id="edge6_Node000001_Node000007" class="edge">
<title>Node1&#45;&gt;Node7</title>
<g id="a_edge6_Node000001_Node000007"><a xlink:title=" ">
<path fill="none" stroke="#63b8ff" d="M83.32,-134.6C99.26,-126.73 119.08,-117.63 137.5,-111.12 146.36,-107.99 155.94,-105.16 165.3,-102.68"/>
<polygon fill="#63b8ff" stroke="#63b8ff" points="82.18,-131.26 74.82,-138.88 85.32,-137.51 82.18,-131.26"/>
</a>
</g>
</g>
<!-- Node8 -->
<g id="Node000008" class="node">
<title>Node8</title>
<g id="a_Node000008"><a xlink:href="class_c_p_s_1_1_s_p_1_1_ph1_1_1_voltage_source.html" target="_top" xlink:title="Ideal Voltage source model.">
<polygon fill="white" stroke="#666666" points="293,-62.25 145.75,-62.25 145.75,-40 293,-40 293,-62.25"/>
<text text-anchor="middle" x="219.38" y="-48.75" font-family="Helvetica,sans-Serif" font-size="10.00">CPS::SP::Ph1::VoltageSource</text>
</a>
</g>
</g>
<!-- Node1&#45;&gt;Node8 -->
<g id="edge7_Node000001_Node000008" class="edge">
<title>Node1&#45;&gt;Node8</title>
<g id="a_edge7_Node000001_Node000008"><a xlink:title=" ">
<path fill="none" stroke="#63b8ff" d="M68.05,-130.91C83.9,-112.6 109.6,-86.24 137.5,-71.12 143.6,-67.82 150.26,-65.05 157.05,-62.73"/>
<polygon fill="#63b8ff" stroke="#63b8ff" points="65.43,-128.58 61.67,-138.49 70.79,-133.09 65.43,-128.58"/>
</a>
</g>
</g>
<!-- Node9 -->
<g id="Node000009" class="node">
<title>Node9</title>
<g id="a_Node000009"><a xlink:href="class_c_p_s_1_1_s_p_1_1_ph3_1_1_voltage_source.html" target="_top" xlink:title="Ideal Voltage source model.">
<polygon fill="white" stroke="#666666" points="293,-22.25 145.75,-22.25 145.75,0 293,0 293,-22.25"/>
<text text-anchor="middle" x="219.38" y="-8.75" font-family="Helvetica,sans-Serif" font-size="10.00">CPS::SP::Ph3::VoltageSource</text>
</a>
</g>
</g>
<!-- Node1&#45;&gt;Node9 -->
<g id="edge8_Node000001_Node000009" class="edge">
<title>Node1&#45;&gt;Node9</title>
<g id="a_edge8_Node000001_Node000009"><a xlink:title=" ">
<path fill="none" stroke="#63b8ff" d="M61.33,-129.43C74.5,-102.19 100.8,-56.04 137.5,-31.12 142.41,-27.79 147.82,-25.02 153.44,-22.7"/>
<polygon fill="#63b8ff" stroke="#63b8ff" points="58.18,-127.91 57.14,-138.45 64.53,-130.86 58.18,-127.91"/>
</a>
</g>
</g>
</g>
</svg>
</svg>

<style type='text/css'>
<![CDATA[
[data-mouse-over-selected='false'] { opacity: 0.7; }
[data-mouse-over-selected='true']  { opacity: 1.0; }
]]>
</style>
<script type="application/ecmascript"><![CDATA[
document.addEventListener('DOMContentLoaded', (event) => {
  highlightEdges();
  highlightAdjacentNodes();
});
]]></script>
</svg>
