<?xml version="1.0" encoding="UTF-8" standalone="no"?>
<!DOCTYPE svg PUBLIC "-//W3C//DTD SVG 1.1//EN"
 "http://www.w3.org/Graphics/SVG/1.1/DTD/svg11.dtd">
<!-- Generated by graphviz version 12.2.1 (20241206.2353)
 -->
<!-- Title: CPS::MNAInterface Pages: 1 -->
<svg width="801pt" height="1924pt"
 viewBox="0.00 0.00 800.75 1924.25" xmlns="http://www.w3.org/2000/svg" xmlns:xlink="http://www.w3.org/1999/xlink">
<g id="graph0" class="graph" transform="scale(1 1) rotate(0) translate(4 1920.25)">
<title>CPS::MNAInterface</title>
<!-- Node1 -->
<g id="Node000001" class="node">
<title>Node1</title>
<g id="a_Node000001"><a xlink:title="Interface to be implemented by all models used by the MNA solver.">
<polygon fill="#999999" stroke="#666666" points="106,-815.25 0,-815.25 0,-793 106,-793 106,-815.25"/>
<text text-anchor="middle" x="53" y="-801.75" font-family="Helvetica,sans-Serif" font-size="10.00">CPS::MNAInterface</text>
</a>
</g>
</g>
<!-- Node2 -->
<g id="Node000002" class="node">
<title>Node2</title>
<g id="a_Node000002"><a xlink:href="class_c_p_s_1_1_m_n_a_sim_power_comp.html" target="_top" xlink:title=" ">
<polygon fill="white" stroke="#666666" points="566.5,-1076.38 430.5,-1076.38 430.5,-1039.88 566.5,-1039.88 566.5,-1076.38"/>
<text text-anchor="start" x="438.5" y="-1062.88" font-family="Helvetica,sans-Serif" font-size="10.00">CPS::MNASimPowerComp</text>
<text text-anchor="middle" x="498.5" y="-1048.62" font-family="Helvetica,sans-Serif" font-size="10.00">&lt; Complex &gt;</text>
</a>
</g>
</g>
<!-- Node1&#45;&gt;Node2 -->
<g id="edge1_Node000001_Node000002" class="edge">
<title>Node1&#45;&gt;Node2</title>
<g id="a_edge1_Node000001_Node000002"><a xlink:title=" ">
<path fill="none" stroke="#63b8ff" d="M83.71,-821.15C101.01,-831.06 123.24,-843.8 143,-855.12 261.46,-922.99 402.22,-1003.57 464.75,-1039.38"/>
<polygon fill="#63b8ff" stroke="#63b8ff" points="85.88,-818.36 75.46,-816.42 82.4,-824.43 85.88,-818.36"/>
</a>
</g>
</g>
<!-- Node94 -->
<g id="Node000094" class="node">
<title>Node94</title>
<g id="a_Node000094"><a xlink:href="class_c_p_s_1_1_m_n_a_sim_power_comp.html" target="_top" xlink:title=" ">
<polygon fill="white" stroke="orangered" points="566.5,-211.38 430.5,-211.38 430.5,-174.88 566.5,-174.88 566.5,-211.38"/>
<text text-anchor="start" x="438.5" y="-197.88" font-family="Helvetica,sans-Serif" font-size="10.00">CPS::MNASimPowerComp</text>
<text text-anchor="middle" x="498.5" y="-183.62" font-family="Helvetica,sans-Serif" font-size="10.00">&lt; Real &gt;</text>
</a>
</g>
</g>
<!-- Node1&#45;&gt;Node94 -->
<g id="edge39_Node000001_Node000094" class="edge">
<title>Node1&#45;&gt;Node94</title>
<g id="a_edge39_Node000001_Node000094"><a xlink:title=" ">
<path fill="none" stroke="#63b8ff" d="M68.84,-783.68C136.95,-689.85 419.04,-301.21 484.08,-211.61"/>
<polygon fill="#63b8ff" stroke="#63b8ff" points="66.2,-781.36 63.16,-791.51 71.86,-785.47 66.2,-781.36"/>
</a>
</g>
</g>
<!-- Node159 -->
<g id="Node000159" class="node">
<title>Node159</title>
<g id="a_Node000159"><a xlink:href="class_c_p_s_1_1_d_p_1_1_ph3_1_1_synchron_generator_v_b_r.html" target="_top" xlink:title=" ">
<polygon fill="white" stroke="#666666" points="336,-792.25 143,-792.25 143,-770 336,-770 336,-792.25"/>
<text text-anchor="middle" x="239.5" y="-778.75" font-family="Helvetica,sans-Serif" font-size="10.00">CPS::DP::Ph3::SynchronGeneratorVBR</text>
</a>
</g>
</g>
<!-- Node1&#45;&gt;Node159 -->
<g id="edge47_Node000001_Node000159" class="edge">
<title>Node1&#45;&gt;Node159</title>
<g id="a_edge47_Node000001_Node000159"><a xlink:title=" ">
<path fill="none" stroke="#63b8ff" d="M117.57,-796.2C126.59,-795.08 136.03,-793.9 145.48,-792.72"/>
<polygon fill="#63b8ff" stroke="#63b8ff" points="117.37,-792.7 107.88,-797.41 118.23,-799.64 117.37,-792.7"/>
</a>
</g>
</g>
<!-- Node160 -->
<g id="Node000160" class="node">
<title>Node160</title>
<g id="a_Node000160"><a xlink:href="class_c_p_s_1_1_m_n_a_sim_power_comp.html" target="_top" xlink:title="Base class for all MNA components that are transmitting power.">
<polygon fill="#fff0f0" stroke="red" points="307.5,-846.38 171.5,-846.38 171.5,-809.88 307.5,-809.88 307.5,-846.38"/>
<text text-anchor="start" x="179.5" y="-832.88" font-family="Helvetica,sans-Serif" font-size="10.00">CPS::MNASimPowerComp</text>
<text text-anchor="middle" x="239.5" y="-818.62" font-family="Helvetica,sans-Serif" font-size="10.00">&lt; VarType &gt;</text>
</a>
</g>
</g>
<!-- Node1&#45;&gt;Node160 -->
<g id="edge48_Node000001_Node000160" class="edge">
<title>Node1&#45;&gt;Node160</title>
<g id="a_edge48_Node000001_Node000160"><a xlink:title=" ">
<path fill="none" stroke="#63b8ff" d="M117.51,-812.39C134.81,-814.64 153.62,-817.08 171.14,-819.36"/>
<polygon fill="#63b8ff" stroke="#63b8ff" points="118.25,-808.95 107.88,-811.13 117.34,-815.89 118.25,-808.95"/>
</a>
</g>
</g>
<!-- Node3 -->
<g id="Node000003" class="node">
<title>Node3</title>
<g id="a_Node000003"><a xlink:href="class_c_p_s_1_1_base_1_1_reduced_order_synchron_generator.html" target="_top" xlink:title=" ">
<polygon fill="white" stroke="orangered" points="787.5,-1636.38 608.75,-1636.38 608.75,-1599.88 787.5,-1599.88 787.5,-1636.38"/>
<text text-anchor="start" x="616.75" y="-1622.88" font-family="Helvetica,sans-Serif" font-size="10.00">CPS::Base::ReducedOrderSynchron</text>
<text text-anchor="middle" x="698.12" y="-1608.62" font-family="Helvetica,sans-Serif" font-size="10.00">Generator&lt; Complex &gt;</text>
</a>
</g>
</g>
<!-- Node2&#45;&gt;Node3 -->
<g id="edge2_Node000002_Node000003" class="edge">
<title>Node2&#45;&gt;Node3</title>
<g id="a_edge2_Node000002_Node000003"><a xlink:title=" ">
<path fill="none" stroke="#63b8ff" d="M501.33,-1088.24C508.07,-1189.5 534.81,-1515.52 603.5,-1590.12 606.83,-1593.74 610.61,-1596.9 614.69,-1599.66"/>
<polygon fill="#63b8ff" stroke="#63b8ff" points="504.82,-1088.04 500.68,-1078.29 497.84,-1088.49 504.82,-1088.04"/>
</a>
</g>
</g>
<!-- Node20 -->
<g id="Node000020" class="node">
<title>Node20</title>
<g id="a_Node000020"><a xlink:href="class_c_p_s_1_1_composite_power_comp.html" target="_top" xlink:title=" ">
<polygon fill="white" stroke="orangered" points="771,-1581.38 625.25,-1581.38 625.25,-1544.88 771,-1544.88 771,-1581.38"/>
<text text-anchor="start" x="633.25" y="-1567.88" font-family="Helvetica,sans-Serif" font-size="10.00">CPS::CompositePowerComp</text>
<text text-anchor="middle" x="698.12" y="-1553.62" font-family="Helvetica,sans-Serif" font-size="10.00">&lt; Complex &gt;</text>
</a>
</g>
</g>
<!-- Node2&#45;&gt;Node20 -->
<g id="edge3_Node000002_Node000020" class="edge">
<title>Node2&#45;&gt;Node20</title>
<g id="a_edge3_Node000002_Node000020"><a xlink:title=" ">
<path fill="none" stroke="#63b8ff" d="M503.71,-1087.68C514.04,-1157.62 542.85,-1338.37 584.5,-1485.12 591.1,-1508.39 585.76,-1519.68 603.5,-1536.12 609.7,-1541.87 617.06,-1546.41 624.87,-1549.98"/>
<polygon fill="#63b8ff" stroke="#63b8ff" points="507.23,-1087.57 502.33,-1078.18 500.31,-1088.59 507.23,-1087.57"/>
</a>
</g>
</g>
<!-- Node43 -->
<g id="Node000043" class="node">
<title>Node43</title>
<g id="a_Node000043"><a xlink:href="class_c_p_s_1_1_d_p_1_1_ph1_1_1_capacitor.html" target="_top" xlink:title="Capacitor model.">
<polygon fill="white" stroke="#666666" points="761.25,-1527.25 635,-1527.25 635,-1505 761.25,-1505 761.25,-1527.25"/>
<text text-anchor="middle" x="698.12" y="-1513.75" font-family="Helvetica,sans-Serif" font-size="10.00">CPS::DP::Ph1::Capacitor</text>
</a>
</g>
</g>
<!-- Node2&#45;&gt;Node43 -->
<g id="edge4_Node000002_Node000043" class="edge">
<title>Node2&#45;&gt;Node43</title>
<g id="a_edge4_Node000002_Node000043"><a xlink:title=" ">
<path fill="none" stroke="#63b8ff" d="M502.36,-1088.04C511.52,-1177.4 543.15,-1439.63 603.5,-1496.12 612.11,-1504.19 623.15,-1509.32 634.61,-1512.52"/>
<polygon fill="#63b8ff" stroke="#63b8ff" points="505.85,-1087.73 501.37,-1078.13 498.88,-1088.43 505.85,-1087.73"/>
</a>
</g>
</g>
<!-- Node44 -->
<g id="Node000044" class="node">
<title>Node44</title>
<g id="a_Node000044"><a xlink:href="class_c_p_s_1_1_d_p_1_1_ph1_1_1_controlled_current_source.html" target="_top" xlink:title="Dynamic phasor ideal current source.">
<polygon fill="white" stroke="#666666" points="763.5,-1487.38 632.75,-1487.38 632.75,-1450.88 763.5,-1450.88 763.5,-1487.38"/>
<text text-anchor="start" x="640.75" y="-1473.88" font-family="Helvetica,sans-Serif" font-size="10.00">CPS::DP::Ph1::Controlled</text>
<text text-anchor="middle" x="698.12" y="-1459.62" font-family="Helvetica,sans-Serif" font-size="10.00">CurrentSource</text>
</a>
</g>
</g>
<!-- Node2&#45;&gt;Node44 -->
<g id="edge5_Node000002_Node000044" class="edge">
<title>Node2&#45;&gt;Node44</title>
<g id="a_edge5_Node000002_Node000044"><a xlink:title=" ">
<path fill="none" stroke="#63b8ff" d="M503.65,-1087.82C515.54,-1168.83 552.23,-1390.92 603.5,-1441.12 611.62,-1449.08 621.9,-1454.79 632.66,-1458.88"/>
<polygon fill="#63b8ff" stroke="#63b8ff" points="507.12,-1087.4 502.23,-1078 500.19,-1088.4 507.12,-1087.4"/>
</a>
</g>
</g>
<!-- Node45 -->
<g id="Node000045" class="node">
<title>Node45</title>
<g id="a_Node000045"><a xlink:href="class_c_p_s_1_1_d_p_1_1_ph1_1_1_controlled_voltage_source.html" target="_top" xlink:title="Controlled Ideal Voltage source model.">
<polygon fill="white" stroke="#666666" points="763.5,-1432.38 632.75,-1432.38 632.75,-1395.88 763.5,-1395.88 763.5,-1432.38"/>
<text text-anchor="start" x="640.75" y="-1418.88" font-family="Helvetica,sans-Serif" font-size="10.00">CPS::DP::Ph1::Controlled</text>
<text text-anchor="middle" x="698.12" y="-1404.62" font-family="Helvetica,sans-Serif" font-size="10.00">VoltageSource</text>
</a>
</g>
</g>
<!-- Node2&#45;&gt;Node45 -->
<g id="edge6_Node000002_Node000045" class="edge">
<title>Node2&#45;&gt;Node45</title>
<g id="a_edge6_Node000002_Node000045"><a xlink:title=" ">
<path fill="none" stroke="#63b8ff" d="M499.31,-1087.97C500.65,-1153.15 513.63,-1308.66 603.5,-1387.12 611.78,-1394.36 621.9,-1399.66 632.37,-1403.54"/>
<polygon fill="#63b8ff" stroke="#63b8ff" points="502.81,-1088.01 499.2,-1078.05 495.81,-1088.09 502.81,-1088.01"/>
</a>
</g>
</g>
<!-- Node46 -->
<g id="Node000046" class="node">
<title>Node46</title>
<g id="a_Node000046"><a xlink:href="class_c_p_s_1_1_d_p_1_1_ph1_1_1_current_source.html" target="_top" xlink:title="Dynamic phasor ideal current source.">
<polygon fill="white" stroke="#666666" points="773.25,-1378.25 623,-1378.25 623,-1356 773.25,-1356 773.25,-1378.25"/>
<text text-anchor="middle" x="698.12" y="-1364.75" font-family="Helvetica,sans-Serif" font-size="10.00">CPS::DP::Ph1::CurrentSource</text>
</a>
</g>
</g>
<!-- Node2&#45;&gt;Node46 -->
<g id="edge7_Node000002_Node000046" class="edge">
<title>Node2&#45;&gt;Node46</title>
<g id="a_edge7_Node000002_Node000046"><a xlink:title=" ">
<path fill="none" stroke="#63b8ff" d="M500.62,-1087.87C504.61,-1147.46 522.6,-1281.36 603.5,-1347.12 609.17,-1351.74 615.66,-1355.36 622.52,-1358.19"/>
<polygon fill="#63b8ff" stroke="#63b8ff" points="504.14,-1087.96 500.07,-1078.17 497.15,-1088.36 504.14,-1087.96"/>
</a>
</g>
</g>
<!-- Node47 -->
<g id="Node000047" class="node">
<title>Node47</title>
<g id="a_Node000047"><a xlink:href="class_c_p_s_1_1_d_p_1_1_ph1_1_1_inductor.html" target="_top" xlink:title="Inductor.">
<polygon fill="white" stroke="#666666" points="759.75,-1338.25 636.5,-1338.25 636.5,-1316 759.75,-1316 759.75,-1338.25"/>
<text text-anchor="middle" x="698.12" y="-1324.75" font-family="Helvetica,sans-Serif" font-size="10.00">CPS::DP::Ph1::Inductor</text>
</a>
</g>
</g>
<!-- Node2&#45;&gt;Node47 -->
<g id="edge8_Node000002_Node000047" class="edge">
<title>Node2&#45;&gt;Node47</title>
<g id="a_edge8_Node000002_Node000047"><a xlink:title=" ">
<path fill="none" stroke="#63b8ff" d="M502.88,-1087.89C510.55,-1140.8 534.36,-1250.92 603.5,-1307.12 612.91,-1314.78 624.57,-1319.69 636.43,-1322.81"/>
<polygon fill="#63b8ff" stroke="#63b8ff" points="506.37,-1087.57 501.57,-1078.12 499.43,-1088.5 506.37,-1087.57"/>
</a>
</g>
</g>
<!-- Node48 -->
<g id="Node000048" class="node">
<title>Node48</title>
<g id="a_Node000048"><a xlink:href="class_c_p_s_1_1_d_p_1_1_ph1_1_1_inverter.html" target="_top" xlink:title="Single phase inverter model.">
<polygon fill="white" stroke="#666666" points="759.38,-1298.25 636.88,-1298.25 636.88,-1276 759.38,-1276 759.38,-1298.25"/>
<text text-anchor="middle" x="698.12" y="-1284.75" font-family="Helvetica,sans-Serif" font-size="10.00">CPS::DP::Ph1::Inverter</text>
</a>
</g>
</g>
<!-- Node2&#45;&gt;Node48 -->
<g id="edge9_Node000002_Node000048" class="edge">
<title>Node2&#45;&gt;Node48</title>
<g id="a_edge9_Node000002_Node000048"><a xlink:title=" ">
<path fill="none" stroke="#63b8ff" d="M505.57,-1087.59C516.63,-1133.46 544.58,-1221.42 603.5,-1267.12 613.09,-1274.56 624.82,-1279.38 636.69,-1282.48"/>
<polygon fill="#63b8ff" stroke="#63b8ff" points="509.04,-1087.06 503.4,-1078.1 502.22,-1088.62 509.04,-1087.06"/>
</a>
</g>
</g>
<!-- Node49 -->
<g id="Node000049" class="node">
<title>Node49</title>
<g id="a_Node000049"><a xlink:href="class_c_p_s_1_1_d_p_1_1_ph1_1_1_mixed_v_type_variable_s_s_n_comp.html" target="_top" xlink:title=" ">
<polygon fill="#fff0f0" stroke="red" points="768,-1258.38 628.25,-1258.38 628.25,-1221.88 768,-1221.88 768,-1258.38"/>
<text text-anchor="start" x="636.25" y="-1244.88" font-family="Helvetica,sans-Serif" font-size="10.00">CPS::DP::Ph1::MixedVType</text>
<text text-anchor="middle" x="698.12" y="-1230.62" font-family="Helvetica,sans-Serif" font-size="10.00">VariableSSNComp</text>
</a>
</g>
</g>
<!-- Node2&#45;&gt;Node49 -->
<g id="edge10_Node000002_Node000049" class="edge">
<title>Node2&#45;&gt;Node49</title>
<g id="a_edge10_Node000002_Node000049"><a xlink:title=" ">
<path fill="none" stroke="#63b8ff" d="M511.71,-1087.26C527.74,-1122.03 559.16,-1179.55 603.5,-1212.12 610.88,-1217.55 619.32,-1221.93 628.03,-1225.47"/>
<polygon fill="#63b8ff" stroke="#63b8ff" points="514.94,-1085.91 507.66,-1078.21 508.55,-1088.77 514.94,-1085.91"/>
</a>
</g>
</g>
<!-- Node52 -->
<g id="Node000052" class="node">
<title>Node52</title>
<g id="a_Node000052"><a xlink:href="class_c_p_s_1_1_d_p_1_1_ph1_1_1_profile_voltage_source.html" target="_top" xlink:title=" ">
<polygon fill="white" stroke="#bfbfbf" points="772.12,-1203.38 624.12,-1203.38 624.12,-1166.88 772.12,-1166.88 772.12,-1203.38"/>
<text text-anchor="start" x="632.12" y="-1189.88" font-family="Helvetica,sans-Serif" font-size="10.00">CPS::DP::Ph1::ProfileVoltage</text>
<text text-anchor="middle" x="698.12" y="-1175.62" font-family="Helvetica,sans-Serif" font-size="10.00">Source</text>
</a>
</g>
</g>
<!-- Node2&#45;&gt;Node52 -->
<g id="edge11_Node000002_Node000052" class="edge">
<title>Node2&#45;&gt;Node52</title>
<g id="a_edge11_Node000002_Node000052"><a xlink:title=" ">
<path fill="none" stroke="#63b8ff" d="M521.37,-1085.57C540.73,-1108.12 570.89,-1139.31 603.5,-1158.12 609.95,-1161.84 616.94,-1165.08 624.11,-1167.9"/>
<polygon fill="#63b8ff" stroke="#63b8ff" points="524.09,-1083.37 514.98,-1077.96 518.73,-1087.87 524.09,-1083.37"/>
</a>
</g>
</g>
<!-- Node53 -->
<g id="Node000053" class="node">
<title>Node53</title>
<g id="a_Node000053"><a xlink:href="class_c_p_s_1_1_d_p_1_1_ph1_1_1_res_ind_series.html" target="_top" xlink:title="resistor inductor series element">
<polygon fill="white" stroke="#666666" points="769.88,-1149.25 626.38,-1149.25 626.38,-1127 769.88,-1127 769.88,-1149.25"/>
<text text-anchor="middle" x="698.12" y="-1135.75" font-family="Helvetica,sans-Serif" font-size="10.00">CPS::DP::Ph1::ResIndSeries</text>
</a>
</g>
</g>
<!-- Node2&#45;&gt;Node53 -->
<g id="edge12_Node000002_Node000053" class="edge">
<title>Node2&#45;&gt;Node53</title>
<g id="a_edge12_Node000002_Node000053"><a xlink:title=" ">
<path fill="none" stroke="#63b8ff" d="M535.75,-1082.8C555.12,-1095 579.81,-1109.02 603.5,-1118.12 612.03,-1121.4 621.22,-1124.2 630.39,-1126.56"/>
<polygon fill="#63b8ff" stroke="#63b8ff" points="537.72,-1079.91 527.41,-1077.44 533.93,-1085.79 537.72,-1079.91"/>
</a>
</g>
</g>
<!-- Node54 -->
<g id="Node000054" class="node">
<title>Node54</title>
<g id="a_Node000054"><a xlink:href="class_c_p_s_1_1_d_p_1_1_ph1_1_1_resistor.html" target="_top" xlink:title="Dynamic phasor resistor model.">
<polygon fill="white" stroke="#666666" points="758.25,-1109.25 638,-1109.25 638,-1087 758.25,-1087 758.25,-1109.25"/>
<text text-anchor="middle" x="698.12" y="-1095.75" font-family="Helvetica,sans-Serif" font-size="10.00">CPS::DP::Ph1::Resistor</text>
</a>
</g>
</g>
<!-- Node2&#45;&gt;Node54 -->
<g id="edge13_Node000002_Node000054" class="edge">
<title>Node2&#45;&gt;Node54</title>
<g id="a_edge13_Node000002_Node000054"><a xlink:title=" ">
<path fill="none" stroke="#63b8ff" d="M578.24,-1074.06C598.82,-1078.23 620.62,-1082.64 639.84,-1086.53"/>
<polygon fill="#63b8ff" stroke="#63b8ff" points="578.94,-1070.63 568.44,-1072.08 577.55,-1077.49 578.94,-1070.63"/>
</a>
</g>
</g>
<!-- Node55 -->
<g id="Node000055" class="node">
<title>Node55</title>
<g id="a_Node000055"><a xlink:href="class_c_p_s_1_1_d_p_1_1_ph1_1_1_switch.html" target="_top" xlink:title="Dynamic phasor switch.">
<polygon fill="white" stroke="#666666" points="754.12,-1069.25 642.12,-1069.25 642.12,-1047 754.12,-1047 754.12,-1069.25"/>
<text text-anchor="middle" x="698.12" y="-1055.75" font-family="Helvetica,sans-Serif" font-size="10.00">CPS::DP::Ph1::Switch</text>
</a>
</g>
</g>
<!-- Node2&#45;&gt;Node55 -->
<g id="edge14_Node000002_Node000055" class="edge">
<title>Node2&#45;&gt;Node55</title>
<g id="a_edge14_Node000002_Node000055"><a xlink:title=" ">
<path fill="none" stroke="#63b8ff" d="M578.27,-1058.12C599.53,-1058.12 622.09,-1058.12 641.77,-1058.12"/>
<polygon fill="#63b8ff" stroke="#63b8ff" points="578.47,-1054.63 568.47,-1058.13 578.47,-1061.63 578.47,-1054.63"/>
</a>
</g>
</g>
<!-- Node56 -->
<g id="Node000056" class="node">
<title>Node56</title>
<g id="a_Node000056"><a xlink:href="class_c_p_s_1_1_d_p_1_1_ph1_1_1_voltage_source.html" target="_top" xlink:title="Ideal Voltage source model.">
<polygon fill="white" stroke="#666666" points="772.88,-1029.25 623.38,-1029.25 623.38,-1007 772.88,-1007 772.88,-1029.25"/>
<text text-anchor="middle" x="698.12" y="-1015.75" font-family="Helvetica,sans-Serif" font-size="10.00">CPS::DP::Ph1::VoltageSource</text>
</a>
</g>
</g>
<!-- Node2&#45;&gt;Node56 -->
<g id="edge15_Node000002_Node000056" class="edge">
<title>Node2&#45;&gt;Node56</title>
<g id="a_edge15_Node000002_Node000056"><a xlink:title=" ">
<path fill="none" stroke="#63b8ff" d="M578.24,-1042.19C598.82,-1038.02 620.62,-1033.61 639.84,-1029.72"/>
<polygon fill="#63b8ff" stroke="#63b8ff" points="577.55,-1038.76 568.44,-1044.17 578.94,-1045.62 577.55,-1038.76"/>
</a>
</g>
</g>
<!-- Node57 -->
<g id="Node000057" class="node">
<title>Node57</title>
<g id="a_Node000057"><a xlink:href="class_c_p_s_1_1_d_p_1_1_ph1_1_1_voltage_source_norton.html" target="_top" xlink:title="Resistive dynamic phasor voltage source.">
<polygon fill="white" stroke="#666666" points="772.88,-989.38 623.38,-989.38 623.38,-952.88 772.88,-952.88 772.88,-989.38"/>
<text text-anchor="start" x="631.38" y="-975.88" font-family="Helvetica,sans-Serif" font-size="10.00">CPS::DP::Ph1::VoltageSource</text>
<text text-anchor="middle" x="698.12" y="-961.62" font-family="Helvetica,sans-Serif" font-size="10.00">Norton</text>
</a>
</g>
</g>
<!-- Node2&#45;&gt;Node57 -->
<g id="edge16_Node000002_Node000057" class="edge">
<title>Node2&#45;&gt;Node57</title>
<g id="a_edge16_Node000002_Node000057"><a xlink:title=" ">
<path fill="none" stroke="#63b8ff" d="M536.84,-1033.62C556.16,-1021.72 580.47,-1007.92 603.5,-998.12 610.51,-995.15 617.94,-992.38 625.44,-989.84"/>
<polygon fill="#63b8ff" stroke="#63b8ff" points="535.13,-1030.57 528.51,-1038.84 538.85,-1036.5 535.13,-1030.57"/>
</a>
</g>
</g>
<!-- Node58 -->
<g id="Node000058" class="node">
<title>Node58</title>
<g id="a_Node000058"><a xlink:href="class_c_p_s_1_1_d_p_1_1_ph1_1_1var_res_switch.html" target="_top" xlink:title="Switch with variable resistance to avoid numerical oscillations, when an inductive current is suddenl...">
<polygon fill="white" stroke="#666666" points="769.88,-935.25 626.38,-935.25 626.38,-913 769.88,-913 769.88,-935.25"/>
<text text-anchor="middle" x="698.12" y="-921.75" font-family="Helvetica,sans-Serif" font-size="10.00">CPS::DP::Ph1::varResSwitch</text>
</a>
</g>
</g>
<!-- Node2&#45;&gt;Node58 -->
<g id="edge17_Node000002_Node000058" class="edge">
<title>Node2&#45;&gt;Node58</title>
<g id="a_edge17_Node000002_Node000058"><a xlink:title=" ">
<path fill="none" stroke="#63b8ff" d="M517.47,-1029.98C535.84,-1003.6 566.82,-965.17 603.5,-944.12 610.56,-940.07 618.35,-936.84 626.33,-934.26"/>
<polygon fill="#63b8ff" stroke="#63b8ff" points="514.62,-1027.94 511.91,-1038.18 520.42,-1031.86 514.62,-1027.94"/>
</a>
</g>
</g>
<!-- Node59 -->
<g id="Node000059" class="node">
<title>Node59</title>
<g id="a_Node000059"><a xlink:href="class_c_p_s_1_1_d_p_1_1_ph3_1_1_capacitor.html" target="_top" xlink:title="Capacitor model.">
<polygon fill="white" stroke="#666666" points="761.25,-895.25 635,-895.25 635,-873 761.25,-873 761.25,-895.25"/>
<text text-anchor="middle" x="698.12" y="-881.75" font-family="Helvetica,sans-Serif" font-size="10.00">CPS::DP::Ph3::Capacitor</text>
</a>
</g>
</g>
<!-- Node2&#45;&gt;Node59 -->
<g id="edge18_Node000002_Node000059" class="edge">
<title>Node2&#45;&gt;Node59</title>
<g id="a_edge18_Node000002_Node000059"><a xlink:title=" ">
<path fill="none" stroke="#63b8ff" d="M511.04,-1028.95C526.57,-993.63 557.65,-935.07 603.5,-904.12 612.87,-897.8 623.87,-893.43 634.97,-890.41"/>
<polygon fill="#63b8ff" stroke="#63b8ff" points="507.82,-1027.57 507.13,-1038.14 514.26,-1030.3 507.82,-1027.57"/>
</a>
</g>
</g>
<!-- Node60 -->
<g id="Node000060" class="node">
<title>Node60</title>
<g id="a_Node000060"><a xlink:href="class_c_p_s_1_1_d_p_1_1_ph3_1_1_current_source.html" target="_top" xlink:title="Ideal current source model.">
<polygon fill="white" stroke="#666666" points="773.25,-855.25 623,-855.25 623,-833 773.25,-833 773.25,-855.25"/>
<text text-anchor="middle" x="698.12" y="-841.75" font-family="Helvetica,sans-Serif" font-size="10.00">CPS::DP::Ph3::CurrentSource</text>
</a>
</g>
</g>
<!-- Node2&#45;&gt;Node60 -->
<g id="edge19_Node000002_Node000060" class="edge">
<title>Node2&#45;&gt;Node60</title>
<g id="a_edge19_Node000002_Node000060"><a xlink:title=" ">
<path fill="none" stroke="#63b8ff" d="M506.83,-1028.57C519.14,-985.38 548.24,-905.67 603.5,-864.12 609.35,-859.73 615.95,-856.26 622.87,-853.52"/>
<polygon fill="#63b8ff" stroke="#63b8ff" points="503.51,-1027.44 504.26,-1038.01 510.26,-1029.28 503.51,-1027.44"/>
</a>
</g>
</g>
<!-- Node61 -->
<g id="Node000061" class="node">
<title>Node61</title>
<g id="a_Node000061"><a xlink:href="class_c_p_s_1_1_d_p_1_1_ph3_1_1_inductor.html" target="_top" xlink:title="Inductor.">
<polygon fill="white" stroke="#666666" points="759.75,-815.25 636.5,-815.25 636.5,-793 759.75,-793 759.75,-815.25"/>
<text text-anchor="middle" x="698.12" y="-801.75" font-family="Helvetica,sans-Serif" font-size="10.00">CPS::DP::Ph3::Inductor</text>
</a>
</g>
</g>
<!-- Node2&#45;&gt;Node61 -->
<g id="edge20_Node000002_Node000061" class="edge">
<title>Node2&#45;&gt;Node61</title>
<g id="a_edge20_Node000002_Node000061"><a xlink:title=" ">
<path fill="none" stroke="#63b8ff" d="M503.89,-1028.46C512.95,-978.22 538.61,-876.76 603.5,-824.12 612.92,-816.48 624.59,-811.57 636.44,-808.46"/>
<polygon fill="#63b8ff" stroke="#63b8ff" points="500.49,-1027.56 502.27,-1038.01 507.39,-1028.73 500.49,-1027.56"/>
</a>
</g>
</g>
<!-- Node62 -->
<g id="Node000062" class="node">
<title>Node62</title>
<g id="a_Node000062"><a xlink:href="class_c_p_s_1_1_d_p_1_1_ph3_1_1_resistor.html" target="_top" xlink:title=" ">
<polygon fill="white" stroke="#bfbfbf" points="758.25,-775.25 638,-775.25 638,-753 758.25,-753 758.25,-775.25"/>
<text text-anchor="middle" x="698.12" y="-761.75" font-family="Helvetica,sans-Serif" font-size="10.00">CPS::DP::Ph3::Resistor</text>
</a>
</g>
</g>
<!-- Node2&#45;&gt;Node62 -->
<g id="edge21_Node000002_Node000062" class="edge">
<title>Node2&#45;&gt;Node62</title>
<g id="a_edge21_Node000002_Node000062"><a xlink:title=" ">
<path fill="none" stroke="#63b8ff" d="M501.77,-1028C507.74,-971.14 529.04,-848.03 603.5,-784.12 613.09,-775.9 625.23,-770.79 637.57,-767.68"/>
<polygon fill="#63b8ff" stroke="#63b8ff" points="498.29,-1027.6 500.83,-1037.88 505.26,-1028.26 498.29,-1027.6"/>
</a>
</g>
</g>
<!-- Node63 -->
<g id="Node000063" class="node">
<title>Node63</title>
<g id="a_Node000063"><a xlink:href="class_c_p_s_1_1_d_p_1_1_ph3_1_1_series_resistor.html" target="_top" xlink:title=" ">
<polygon fill="white" stroke="#bfbfbf" points="772.5,-735.25 623.75,-735.25 623.75,-713 772.5,-713 772.5,-735.25"/>
<text text-anchor="middle" x="698.12" y="-721.75" font-family="Helvetica,sans-Serif" font-size="10.00">CPS::DP::Ph3::SeriesResistor</text>
</a>
</g>
</g>
<!-- Node2&#45;&gt;Node63 -->
<g id="edge22_Node000002_Node000063" class="edge">
<title>Node2&#45;&gt;Node63</title>
<g id="a_edge22_Node000002_Node000063"><a xlink:title=" ">
<path fill="none" stroke="#63b8ff" d="M499.98,-1028.01C502.71,-965.02 518.41,-818.98 603.5,-744.12 609.37,-738.97 616.23,-735.03 623.54,-732.03"/>
<polygon fill="#63b8ff" stroke="#63b8ff" points="496.48,-1027.83 499.64,-1037.95 503.48,-1028.07 496.48,-1027.83"/>
</a>
</g>
</g>
<!-- Node64 -->
<g id="Node000064" class="node">
<title>Node64</title>
<g id="a_Node000064"><a xlink:href="class_c_p_s_1_1_d_p_1_1_ph3_1_1_series_switch.html" target="_top" xlink:title="Dynamic phasor three&#45;phase switch.">
<polygon fill="white" stroke="#666666" points="768.38,-695.25 627.88,-695.25 627.88,-673 768.38,-673 768.38,-695.25"/>
<text text-anchor="middle" x="698.12" y="-681.75" font-family="Helvetica,sans-Serif" font-size="10.00">CPS::DP::Ph3::SeriesSwitch</text>
</a>
</g>
</g>
<!-- Node2&#45;&gt;Node64 -->
<g id="edge23_Node000002_Node000064" class="edge">
<title>Node2&#45;&gt;Node64</title>
<g id="a_edge23_Node000002_Node000064"><a xlink:title=" ">
<path fill="none" stroke="#63b8ff" d="M504.11,-1028.4C516.69,-951.32 553.98,-747.94 603.5,-704.12 610.47,-697.96 618.87,-693.53 627.74,-690.38"/>
<polygon fill="#63b8ff" stroke="#63b8ff" points="500.68,-1027.72 502.55,-1038.15 507.59,-1028.83 500.68,-1027.72"/>
</a>
</g>
</g>
<!-- Node65 -->
<g id="Node000065" class="node">
<title>Node65</title>
<g id="a_Node000065"><a xlink:href="class_c_p_s_1_1_d_p_1_1_ph3_1_1_synchron_generator_d_q.html" target="_top" xlink:title="Synchronous generator model in dq&#45;reference frame.">
<polygon fill="#fff0f0" stroke="red" points="792.75,-655.25 603.5,-655.25 603.5,-633 792.75,-633 792.75,-655.25"/>
<text text-anchor="middle" x="698.12" y="-641.75" font-family="Helvetica,sans-Serif" font-size="10.00">CPS::DP::Ph3::SynchronGeneratorDQ</text>
</a>
</g>
</g>
<!-- Node2&#45;&gt;Node65 -->
<g id="edge24_Node000002_Node000065" class="edge">
<title>Node2&#45;&gt;Node65</title>
<g id="a_edge24_Node000002_Node000065"><a xlink:title=" ">
<path fill="none" stroke="#63b8ff" d="M503.21,-1028.19C514.13,-945.02 548.89,-713.95 603.5,-664.12 607.06,-660.88 611.02,-658.11 615.23,-655.75"/>
<polygon fill="#63b8ff" stroke="#63b8ff" points="499.74,-1027.71 501.94,-1038.07 506.68,-1028.6 499.74,-1027.71"/>
</a>
</g>
</g>
<!-- Node68 -->
<g id="Node000068" class="node">
<title>Node68</title>
<g id="a_Node000068"><a xlink:href="class_c_p_s_1_1_d_p_1_1_ph3_1_1_voltage_source.html" target="_top" xlink:title="Ideal Voltage source model.">
<polygon fill="white" stroke="#666666" points="772.88,-615.25 623.38,-615.25 623.38,-593 772.88,-593 772.88,-615.25"/>
<text text-anchor="middle" x="698.12" y="-601.75" font-family="Helvetica,sans-Serif" font-size="10.00">CPS::DP::Ph3::VoltageSource</text>
</a>
</g>
</g>
<!-- Node2&#45;&gt;Node68 -->
<g id="edge25_Node000002_Node000068" class="edge">
<title>Node2&#45;&gt;Node68</title>
<g id="a_edge25_Node000002_Node000068"><a xlink:title=" ">
<path fill="none" stroke="#63b8ff" d="M502.36,-1028.1C511.48,-939.04 542.9,-679.16 603.5,-624.12 609.16,-618.98 615.81,-615.05 622.91,-612.04"/>
<polygon fill="#63b8ff" stroke="#63b8ff" points="498.88,-1027.69 501.37,-1037.98 505.85,-1028.38 498.88,-1027.69"/>
</a>
</g>
</g>
<!-- Node69 -->
<g id="Node000069" class="node">
<title>Node69</title>
<g id="a_Node000069"><a xlink:href="class_c_p_s_1_1_d_p_1_1_s_s_n_comp.html" target="_top" xlink:title="Abstract base class for DP/SFA state&#45;space nodal (SSN) components.">
<polygon fill="#fff0f0" stroke="red" points="750,-575.25 646.25,-575.25 646.25,-553 750,-553 750,-575.25"/>
<text text-anchor="middle" x="698.12" y="-561.75" font-family="Helvetica,sans-Serif" font-size="10.00">CPS::DP::SSNComp</text>
</a>
</g>
</g>
<!-- Node2&#45;&gt;Node69 -->
<g id="edge26_Node000002_Node000069" class="edge">
<title>Node2&#45;&gt;Node69</title>
<g id="a_edge26_Node000002_Node000069"><a xlink:title=" ">
<path fill="none" stroke="#63b8ff" d="M501.67,-1028.15C509.13,-933.65 537.1,-644.72 603.5,-584.12 615.04,-573.59 630.73,-568.1 645.96,-565.36"/>
<polygon fill="#63b8ff" stroke="#63b8ff" points="498.19,-1027.67 500.92,-1037.91 505.17,-1028.2 498.19,-1027.67"/>
</a>
</g>
</g>
<!-- Node82 -->
<g id="Node000082" class="node">
<title>Node82</title>
<g id="a_Node000082"><a xlink:href="class_c_p_s_1_1_s_p_1_1_ph1_1_1_capacitor.html" target="_top" xlink:title=" ">
<polygon fill="white" stroke="#bfbfbf" points="760.12,-535.25 636.12,-535.25 636.12,-513 760.12,-513 760.12,-535.25"/>
<text text-anchor="middle" x="698.12" y="-521.75" font-family="Helvetica,sans-Serif" font-size="10.00">CPS::SP::Ph1::Capacitor</text>
</a>
</g>
</g>
<!-- Node2&#45;&gt;Node82 -->
<g id="edge27_Node000002_Node000082" class="edge">
<title>Node2&#45;&gt;Node82</title>
<g id="a_edge27_Node000002_Node000082"><a xlink:title=" ">
<path fill="none" stroke="#63b8ff" d="M501.04,-1028.22C506.83,-928.49 530.79,-609.83 603.5,-544.12 612.5,-535.99 623.98,-530.87 635.8,-527.7"/>
<polygon fill="#63b8ff" stroke="#63b8ff" points="497.56,-1027.83 500.49,-1038.01 504.54,-1028.23 497.56,-1027.83"/>
</a>
</g>
</g>
<!-- Node83 -->
<g id="Node000083" class="node">
<title>Node83</title>
<g id="a_Node000083"><a xlink:href="class_c_p_s_1_1_s_p_1_1_ph1_1_1_controlled_current_source.html" target="_top" xlink:title="Ideal Current source model.">
<polygon fill="white" stroke="#666666" points="762.38,-495.38 633.88,-495.38 633.88,-458.88 762.38,-458.88 762.38,-495.38"/>
<text text-anchor="start" x="641.88" y="-481.88" font-family="Helvetica,sans-Serif" font-size="10.00">CPS::SP::Ph1::Controlled</text>
<text text-anchor="middle" x="698.12" y="-467.62" font-family="Helvetica,sans-Serif" font-size="10.00">CurrentSource</text>
</a>
</g>
</g>
<!-- Node2&#45;&gt;Node83 -->
<g id="edge28_Node000002_Node000083" class="edge">
<title>Node2&#45;&gt;Node83</title>
<g id="a_edge28_Node000002_Node000083"><a xlink:title=" ">
<path fill="none" stroke="#63b8ff" d="M503.13,-1028.26C512.87,-950.76 541.77,-737.15 584.5,-563.12 591.07,-536.37 583.72,-523.3 603.5,-504.12 611.88,-496 622.54,-490.29 633.65,-486.29"/>
<polygon fill="#63b8ff" stroke="#63b8ff" points="499.68,-1027.64 501.92,-1038 506.62,-1028.51 499.68,-1027.64"/>
</a>
</g>
</g>
<!-- Node84 -->
<g id="Node000084" class="node">
<title>Node84</title>
<g id="a_Node000084"><a xlink:href="class_c_p_s_1_1_s_p_1_1_ph1_1_1_controlled_voltage_source.html" target="_top" xlink:title="Ideal Voltage source model.">
<polygon fill="white" stroke="#666666" points="762.38,-440.38 633.88,-440.38 633.88,-403.88 762.38,-403.88 762.38,-440.38"/>
<text text-anchor="start" x="641.88" y="-426.88" font-family="Helvetica,sans-Serif" font-size="10.00">CPS::SP::Ph1::Controlled</text>
<text text-anchor="middle" x="698.12" y="-412.62" font-family="Helvetica,sans-Serif" font-size="10.00">VoltageSource</text>
</a>
</g>
</g>
<!-- Node2&#45;&gt;Node84 -->
<g id="edge29_Node000002_Node000084" class="edge">
<title>Node2&#45;&gt;Node84</title>
<g id="a_edge29_Node000002_Node000084"><a xlink:title=" ">
<path fill="none" stroke="#63b8ff" d="M500.54,-1028.18C504.94,-918.04 525.65,-537.34 603.5,-450.12 611.52,-441.14 622.3,-434.98 633.68,-430.78"/>
<polygon fill="#63b8ff" stroke="#63b8ff" points="497.04,-1028.04 500.15,-1038.16 504.03,-1028.3 497.04,-1028.04"/>
</a>
</g>
</g>
<!-- Node85 -->
<g id="Node000085" class="node">
<title>Node85</title>
<g id="a_Node000085"><a xlink:href="class_c_p_s_1_1_s_p_1_1_ph1_1_1_inductor.html" target="_top" xlink:title="Static phasor inductor model.">
<polygon fill="white" stroke="#666666" points="758.62,-386.25 637.62,-386.25 637.62,-364 758.62,-364 758.62,-386.25"/>
<text text-anchor="middle" x="698.12" y="-372.75" font-family="Helvetica,sans-Serif" font-size="10.00">CPS::SP::Ph1::Inductor</text>
</a>
</g>
</g>
<!-- Node2&#45;&gt;Node85 -->
<g id="edge30_Node000002_Node000085" class="edge">
<title>Node2&#45;&gt;Node85</title>
<g id="a_edge30_Node000002_Node000085"><a xlink:title=" ">
<path fill="none" stroke="#63b8ff" d="M502.82,-1028.33C512.65,-941.99 543.52,-684.36 584.5,-473.12 591.3,-438.1 577.91,-419.99 603.5,-395.12 612.68,-386.21 624.8,-380.84 637.28,-377.7"/>
<polygon fill="#63b8ff" stroke="#63b8ff" points="499.36,-1027.74 501.72,-1038.07 506.32,-1028.53 499.36,-1027.74"/>
</a>
</g>
</g>
<!-- Node86 -->
<g id="Node000086" class="node">
<title>Node86</title>
<g id="a_Node000086"><a xlink:href="class_c_p_s_1_1_s_p_1_1_ph1_1_1_resistor.html" target="_top" xlink:title="Static phasor resistor model.">
<polygon fill="white" stroke="#666666" points="757.12,-346.25 639.12,-346.25 639.12,-324 757.12,-324 757.12,-346.25"/>
<text text-anchor="middle" x="698.12" y="-332.75" font-family="Helvetica,sans-Serif" font-size="10.00">CPS::SP::Ph1::Resistor</text>
</a>
</g>
</g>
<!-- Node2&#45;&gt;Node86 -->
<g id="edge31_Node000002_Node000086" class="edge">
<title>Node2&#45;&gt;Node86</title>
<g id="a_edge31_Node000002_Node000086"><a xlink:title=" ">
<path fill="none" stroke="#63b8ff" d="M499.5,-1028.06C500.15,-906.55 508.95,-453.48 603.5,-355.12 612.83,-345.42 625.63,-339.85 638.77,-336.78"/>
<polygon fill="#63b8ff" stroke="#63b8ff" points="496,-1027.86 499.47,-1037.87 503,-1027.88 496,-1027.86"/>
</a>
</g>
</g>
<!-- Node87 -->
<g id="Node000087" class="node">
<title>Node87</title>
<g id="a_Node000087"><a xlink:href="class_c_p_s_1_1_s_p_1_1_ph1_1_1_switch.html" target="_top" xlink:title="Dynamic phasor switch.">
<polygon fill="white" stroke="#666666" points="753,-1916.25 643.25,-1916.25 643.25,-1894 753,-1894 753,-1916.25"/>
<text text-anchor="middle" x="698.12" y="-1902.75" font-family="Helvetica,sans-Serif" font-size="10.00">CPS::SP::Ph1::Switch</text>
</a>
</g>
</g>
<!-- Node2&#45;&gt;Node87 -->
<g id="edge32_Node000002_Node000087" class="edge">
<title>Node2&#45;&gt;Node87</title>
<g id="a_edge32_Node000002_Node000087"><a xlink:title=" ">
<path fill="none" stroke="#63b8ff" d="M502.17,-1088.02C511.24,-1187.6 542.62,-1516.97 584.5,-1787.12 591.3,-1830.97 572.43,-1853.46 603.5,-1885.12 613.86,-1895.68 628.33,-1901.32 642.81,-1904.18"/>
<polygon fill="#63b8ff" stroke="#63b8ff" points="505.68,-1087.93 501.29,-1078.29 498.7,-1088.56 505.68,-1087.93"/>
</a>
</g>
</g>
<!-- Node88 -->
<g id="Node000088" class="node">
<title>Node88</title>
<g id="a_Node000088"><a xlink:href="class_c_p_s_1_1_s_p_1_1_ph1_1_1_voltage_source.html" target="_top" xlink:title="Ideal Voltage source model.">
<polygon fill="white" stroke="#666666" points="771.75,-1876.25 624.5,-1876.25 624.5,-1854 771.75,-1854 771.75,-1876.25"/>
<text text-anchor="middle" x="698.12" y="-1862.75" font-family="Helvetica,sans-Serif" font-size="10.00">CPS::SP::Ph1::VoltageSource</text>
</a>
</g>
</g>
<!-- Node2&#45;&gt;Node88 -->
<g id="edge33_Node000002_Node000088" class="edge">
<title>Node2&#45;&gt;Node88</title>
<g id="a_edge33_Node000002_Node000088"><a xlink:title=" ">
<path fill="none" stroke="#63b8ff" d="M501.68,-1088.05C509.13,-1186.36 535.88,-1508.08 584.5,-1770.12 590.77,-1803.93 578.73,-1821.27 603.5,-1845.12 609.49,-1850.89 616.71,-1855.17 624.45,-1858.31"/>
<polygon fill="#63b8ff" stroke="#63b8ff" points="505.18,-1087.91 500.94,-1078.19 498.2,-1088.43 505.18,-1087.91"/>
</a>
</g>
</g>
<!-- Node89 -->
<g id="Node000089" class="node">
<title>Node89</title>
<g id="a_Node000089"><a xlink:href="class_c_p_s_1_1_s_p_1_1_ph1_1_1var_res_switch.html" target="_top" xlink:title="Switch with variable resistance to avoid numerical oscillations, when an inductive current is suddenl...">
<polygon fill="white" stroke="#666666" points="768.75,-1836.25 627.5,-1836.25 627.5,-1814 768.75,-1814 768.75,-1836.25"/>
<text text-anchor="middle" x="698.12" y="-1822.75" font-family="Helvetica,sans-Serif" font-size="10.00">CPS::SP::Ph1::varResSwitch</text>
</a>
</g>
</g>
<!-- Node2&#45;&gt;Node89 -->
<g id="edge34_Node000002_Node000089" class="edge">
<title>Node2&#45;&gt;Node89</title>
<g id="a_edge34_Node000002_Node000089"><a xlink:title=" ">
<path fill="none" stroke="#63b8ff" d="M500.64,-1087.94C504.89,-1185.15 522.85,-1501.2 584.5,-1754.12 590.23,-1777.63 585.19,-1789.32 603.5,-1805.12 610.42,-1811.1 618.69,-1815.43 627.4,-1818.55"/>
<polygon fill="#63b8ff" stroke="#63b8ff" points="504.15,-1088.05 500.23,-1078.2 497.15,-1088.34 504.15,-1088.05"/>
</a>
</g>
</g>
<!-- Node90 -->
<g id="Node000090" class="node">
<title>Node90</title>
<g id="a_Node000090"><a xlink:href="class_c_p_s_1_1_s_p_1_1_ph3_1_1_capacitor.html" target="_top" xlink:title="Capacitor model.">
<polygon fill="white" stroke="#666666" points="760.12,-1796.25 636.12,-1796.25 636.12,-1774 760.12,-1774 760.12,-1796.25"/>
<text text-anchor="middle" x="698.12" y="-1782.75" font-family="Helvetica,sans-Serif" font-size="10.00">CPS::SP::Ph3::Capacitor</text>
</a>
</g>
</g>
<!-- Node2&#45;&gt;Node90 -->
<g id="edge35_Node000002_Node000090" class="edge">
<title>Node2&#45;&gt;Node90</title>
<g id="a_edge35_Node000002_Node000090"><a xlink:title=" ">
<path fill="none" stroke="#63b8ff" d="M499.42,-1088.01C499.74,-1209.81 507.41,-1667.01 603.5,-1765.12 612.22,-1774.03 623.87,-1779.44 635.98,-1782.63"/>
<polygon fill="#63b8ff" stroke="#63b8ff" points="502.92,-1088.18 499.41,-1078.19 495.92,-1088.19 502.92,-1088.18"/>
</a>
</g>
</g>
<!-- Node91 -->
<g id="Node000091" class="node">
<title>Node91</title>
<g id="a_Node000091"><a xlink:href="class_c_p_s_1_1_s_p_1_1_ph3_1_1_inductor.html" target="_top" xlink:title="Inductor.">
<polygon fill="white" stroke="#666666" points="758.62,-1756.25 637.62,-1756.25 637.62,-1734 758.62,-1734 758.62,-1756.25"/>
<text text-anchor="middle" x="698.12" y="-1742.75" font-family="Helvetica,sans-Serif" font-size="10.00">CPS::SP::Ph3::Inductor</text>
</a>
</g>
</g>
<!-- Node2&#45;&gt;Node91 -->
<g id="edge36_Node000002_Node000091" class="edge">
<title>Node2&#45;&gt;Node91</title>
<g id="a_edge36_Node000002_Node000091"><a xlink:title=" ">
<path fill="none" stroke="#63b8ff" d="M502.66,-1088C512.12,-1175.13 542.19,-1436.33 584.5,-1650.12 591.18,-1683.86 578.73,-1701.27 603.5,-1725.12 612.72,-1734 624.86,-1739.35 637.34,-1742.49"/>
<polygon fill="#63b8ff" stroke="#63b8ff" points="506.15,-1087.73 501.6,-1078.16 499.19,-1088.48 506.15,-1087.73"/>
</a>
</g>
</g>
<!-- Node92 -->
<g id="Node000092" class="node">
<title>Node92</title>
<g id="a_Node000092"><a xlink:href="class_c_p_s_1_1_s_p_1_1_ph3_1_1_resistor.html" target="_top" xlink:title=" ">
<polygon fill="white" stroke="#bfbfbf" points="757.12,-1716.25 639.12,-1716.25 639.12,-1694 757.12,-1694 757.12,-1716.25"/>
<text text-anchor="middle" x="698.12" y="-1702.75" font-family="Helvetica,sans-Serif" font-size="10.00">CPS::SP::Ph3::Resistor</text>
</a>
</g>
</g>
<!-- Node2&#45;&gt;Node92 -->
<g id="edge37_Node000002_Node000092" class="edge">
<title>Node2&#45;&gt;Node92</title>
<g id="a_edge37_Node000002_Node000092"><a xlink:title=" ">
<path fill="none" stroke="#63b8ff" d="M501.68,-1088.02C508.44,-1174.04 531.81,-1429.09 584.5,-1634.12 590.52,-1657.55 585.19,-1669.32 603.5,-1685.12 613.44,-1693.71 626.16,-1698.9 639,-1701.97"/>
<polygon fill="#63b8ff" stroke="#63b8ff" points="505.19,-1088.02 500.94,-1078.32 498.21,-1088.56 505.19,-1088.02"/>
</a>
</g>
</g>
<!-- Node93 -->
<g id="Node000093" class="node">
<title>Node93</title>
<g id="a_Node000093"><a xlink:href="class_c_p_s_1_1_s_p_1_1_ph3_1_1_voltage_source.html" target="_top" xlink:title="Ideal Voltage source model.">
<polygon fill="white" stroke="#666666" points="771.75,-1676.25 624.5,-1676.25 624.5,-1654 771.75,-1654 771.75,-1676.25"/>
<text text-anchor="middle" x="698.12" y="-1662.75" font-family="Helvetica,sans-Serif" font-size="10.00">CPS::SP::Ph3::VoltageSource</text>
</a>
</g>
</g>
<!-- Node2&#45;&gt;Node93 -->
<g id="edge38_Node000002_Node000093" class="edge">
<title>Node2&#45;&gt;Node93</title>
<g id="a_edge38_Node000002_Node000093"><a xlink:title=" ">
<path fill="none" stroke="#63b8ff" d="M500.28,-1088.19C503.75,-1196.97 521.5,-1567.76 603.5,-1645.12 609.42,-1650.71 616.51,-1654.9 624.1,-1658"/>
<polygon fill="#63b8ff" stroke="#63b8ff" points="503.78,-1088.21 499.98,-1078.32 496.78,-1088.42 503.78,-1088.21"/>
</a>
</g>
</g>
<!-- Node95 -->
<g id="Node000095" class="node">
<title>Node95</title>
<g id="a_Node000095"><a xlink:href="class_c_p_s_1_1_base_1_1_reduced_order_synchron_generator.html" target="_top" xlink:title=" ">
<polygon fill="white" stroke="orangered" points="787.5,-211.38 608.75,-211.38 608.75,-174.88 787.5,-174.88 787.5,-211.38"/>
<text text-anchor="start" x="616.75" y="-197.88" font-family="Helvetica,sans-Serif" font-size="10.00">CPS::Base::ReducedOrderSynchron</text>
<text text-anchor="middle" x="698.12" y="-183.62" font-family="Helvetica,sans-Serif" font-size="10.00">Generator&lt; Real &gt;</text>
</a>
</g>
</g>
<!-- Node94&#45;&gt;Node95 -->
<g id="edge40_Node000094_Node000095" class="edge">
<title>Node94&#45;&gt;Node95</title>
<g id="a_edge40_Node000094_Node000095"><a xlink:title=" ">
<path fill="none" stroke="#63b8ff" d="M578.36,-193.12C588.2,-193.12 598.32,-193.12 608.3,-193.12"/>
<polygon fill="#63b8ff" stroke="#63b8ff" points="578.47,-189.63 568.47,-193.13 578.47,-196.63 578.47,-189.63"/>
</a>
</g>
</g>
<!-- Node103 -->
<g id="Node000103" class="node">
<title>Node103</title>
<g id="a_Node000103"><a xlink:href="class_c_p_s_1_1_composite_power_comp.html" target="_top" xlink:title=" ">
<polygon fill="white" stroke="orangered" points="771,-156.38 625.25,-156.38 625.25,-119.88 771,-119.88 771,-156.38"/>
<text text-anchor="start" x="633.25" y="-142.88" font-family="Helvetica,sans-Serif" font-size="10.00">CPS::CompositePowerComp</text>
<text text-anchor="middle" x="698.12" y="-128.62" font-family="Helvetica,sans-Serif" font-size="10.00">&lt; Real &gt;</text>
</a>
</g>
</g>
<!-- Node94&#45;&gt;Node103 -->
<g id="edge41_Node000094_Node000103" class="edge">
<title>Node94&#45;&gt;Node103</title>
<g id="a_edge41_Node000094_Node000103"><a xlink:title=" ">
<path fill="none" stroke="#63b8ff" d="M577.34,-171.46C594.68,-166.64 612.92,-161.56 629.79,-156.86"/>
<polygon fill="#63b8ff" stroke="#63b8ff" points="576.84,-167.97 568.14,-174.02 578.71,-174.71 576.84,-167.97"/>
</a>
</g>
</g>
<!-- Node116 -->
<g id="Node000116" class="node">
<title>Node116</title>
<g id="a_Node000116"><a xlink:href="class_c_p_s_1_1_e_m_t_1_1_ph1_1_1_capacitor.html" target="_top" xlink:title="Capacitor model.">
<polygon fill="white" stroke="#666666" points="764.25,-102.25 632,-102.25 632,-80 764.25,-80 764.25,-102.25"/>
<text text-anchor="middle" x="698.12" y="-88.75" font-family="Helvetica,sans-Serif" font-size="10.00">CPS::EMT::Ph1::Capacitor</text>
</a>
</g>
</g>
<!-- Node94&#45;&gt;Node116 -->
<g id="edge42_Node000094_Node000116" class="edge">
<title>Node94&#45;&gt;Node116</title>
<g id="a_edge42_Node000094_Node000116"><a xlink:title=" ">
<path fill="none" stroke="#63b8ff" d="M525.79,-166.74C545.54,-148.42 574.13,-124.92 603.5,-111.12 612.38,-106.96 622.13,-103.65 631.9,-101.02"/>
<polygon fill="#63b8ff" stroke="#63b8ff" points="523.57,-164.02 518.73,-173.44 528.39,-169.09 523.57,-164.02"/>
</a>
</g>
</g>
<!-- Node117 -->
<g id="Node000117" class="node">
<title>Node117</title>
<g id="a_Node000117"><a xlink:href="class_c_p_s_1_1_e_m_t_1_1_ph1_1_1_current_source.html" target="_top" xlink:title="Ideal current source model.">
<polygon fill="white" stroke="#666666" points="776.25,-62.25 620,-62.25 620,-40 776.25,-40 776.25,-62.25"/>
<text text-anchor="middle" x="698.12" y="-48.75" font-family="Helvetica,sans-Serif" font-size="10.00">CPS::EMT::Ph1::CurrentSource</text>
</a>
</g>
</g>
<!-- Node94&#45;&gt;Node117 -->
<g id="edge43_Node000094_Node000117" class="edge">
<title>Node94&#45;&gt;Node117</title>
<g id="a_edge43_Node000094_Node000117"><a xlink:title=" ">
<path fill="none" stroke="#63b8ff" d="M515.87,-164.78C533.72,-136.52 564.96,-94.1 603.5,-71.12 609.07,-67.81 615.11,-65.03 621.36,-62.72"/>
<polygon fill="#63b8ff" stroke="#63b8ff" points="512.95,-162.85 510.7,-173.2 518.91,-166.51 512.95,-162.85"/>
</a>
</g>
</g>
<!-- Node118 -->
<g id="Node000118" class="node">
<title>Node118</title>
<g id="a_Node000118"><a xlink:href="class_c_p_s_1_1_e_m_t_1_1_ph1_1_1_inductor.html" target="_top" xlink:title="Inductor.">
<polygon fill="white" stroke="#666666" points="762.75,-22.25 633.5,-22.25 633.5,0 762.75,0 762.75,-22.25"/>
<text text-anchor="middle" x="698.12" y="-8.75" font-family="Helvetica,sans-Serif" font-size="10.00">CPS::EMT::Ph1::Inductor</text>
</a>
</g>
</g>
<!-- Node94&#45;&gt;Node118 -->
<g id="edge44_Node000094_Node000118" class="edge">
<title>Node94&#45;&gt;Node118</title>
<g id="a_edge44_Node000094_Node000118"><a xlink:title=" ">
<path fill="none" stroke="#63b8ff" d="M510.07,-163.8C524.98,-126.83 555.8,-64.13 603.5,-31.12 612.38,-24.98 622.79,-20.66 633.38,-17.65"/>
<polygon fill="#63b8ff" stroke="#63b8ff" points="506.87,-162.39 506.5,-172.98 513.39,-164.93 506.87,-162.39"/>
</a>
</g>
</g>
<!-- Node119 -->
<g id="Node000119" class="node">
<title>Node119</title>
<g id="a_Node000119"><a xlink:href="class_c_p_s_1_1_e_m_t_1_1_ph1_1_1_resistor.html" target="_top" xlink:title="EMT Resistor.">
<polygon fill="white" stroke="#666666" points="761.25,-306.25 635,-306.25 635,-284 761.25,-284 761.25,-306.25"/>
<text text-anchor="middle" x="698.12" y="-292.75" font-family="Helvetica,sans-Serif" font-size="10.00">CPS::EMT::Ph1::Resistor</text>
</a>
</g>
</g>
<!-- Node94&#45;&gt;Node119 -->
<g id="edge45_Node000094_Node000119" class="edge">
<title>Node94&#45;&gt;Node119</title>
<g id="a_edge45_Node000094_Node000119"><a xlink:title=" ">
<path fill="none" stroke="#63b8ff" d="M525.79,-219.51C545.54,-237.83 574.13,-261.33 603.5,-275.12 613.28,-279.72 624.13,-283.27 634.87,-286.01"/>
<polygon fill="#63b8ff" stroke="#63b8ff" points="528.39,-217.16 518.73,-212.81 523.57,-222.23 528.39,-217.16"/>
</a>
</g>
</g>
<!-- Node120 -->
<g id="Node000120" class="node">
<title>Node120</title>
<g id="a_Node000120"><a xlink:href="class_c_p_s_1_1_e_m_t_1_1_ph1_1_1_s_s_n_1_1_full___serial___r_l_c.html" target="_top" xlink:title="Full_Serial_RLC.">
<polygon fill="white" stroke="#666666" points="751.5,-266.38 644.75,-266.38 644.75,-229.88 751.5,-229.88 751.5,-266.38"/>
<text text-anchor="start" x="652.75" y="-252.88" font-family="Helvetica,sans-Serif" font-size="10.00">CPS::EMT::Ph1::SSN</text>
<text text-anchor="middle" x="698.12" y="-238.62" font-family="Helvetica,sans-Serif" font-size="10.00">::Full_Serial_RLC</text>
</a>
</g>
</g>
<!-- Node94&#45;&gt;Node120 -->
<g id="edge46_Node000094_Node000120" class="edge">
<title>Node94&#45;&gt;Node120</title>
<g id="a_edge46_Node000094_Node000120"><a xlink:title=" ">
<path fill="none" stroke="#63b8ff" d="M577.56,-214.85C600.01,-221.1 623.96,-227.76 644.48,-233.47"/>
<polygon fill="#63b8ff" stroke="#63b8ff" points="578.71,-211.54 568.14,-212.23 576.84,-218.28 578.71,-211.54"/>
</a>
</g>
</g>
<!-- Node160&#45;&gt;Node2 -->
<g id="edge49_Node000160_Node000002" class="edge">
<title>Node160&#45;&gt;Node2</title>
<g id="a_edge49_Node000160_Node000002"><a xlink:title=" ">
<path fill="none" stroke="orange" stroke-dasharray="5,2" d="M319.1,-831.25C351.04,-836.09 386.47,-846.44 412.5,-867.88 467.38,-913.06 488.09,-1000.97 494.75,-1039.39"/>
<polygon fill="orange" stroke="orange" points="319.85,-827.82 309.47,-829.96 318.92,-834.76 319.85,-827.82"/>
</a>
</g>
<text text-anchor="middle" x="383.25" y="-872.62" font-family="Helvetica,sans-Serif" font-size="10.00" fill="grey"> &lt; Complex &gt;</text>
</g>
<!-- Node160&#45;&gt;Node94 -->
<g id="edge50_Node000160_Node000094" class="edge">
<title>Node160&#45;&gt;Node94</title>
<g id="a_edge50_Node000160_Node000094"><a xlink:title=" ">
<path fill="none" stroke="orange" stroke-dasharray="5,2" d="M317.68,-813.77C324.38,-810.39 330.64,-806.24 336,-801.12 425.64,-715.7 483.19,-304.61 495.17,-211.78"/>
<polygon fill="orange" stroke="orange" points="316.75,-810.36 308.99,-817.57 319.56,-816.77 316.75,-810.36"/>
</a>
</g>
<text text-anchor="middle" x="383.25" y="-775.23" font-family="Helvetica,sans-Serif" font-size="10.00" fill="grey"> &lt; Real &gt;</text>
</g>
</g>
</svg>
