<?xml version="1.0" encoding="UTF-8" standalone="no"?>
<!DOCTYPE svg PUBLIC "-//W3C//DTD SVG 1.1//EN"
 "http://www.w3.org/Graphics/SVG/1.1/DTD/svg11.dtd">
<!-- Generated by graphviz version 2.44.0 (0)
 -->
<!-- Title: CPS::EMT::Ph3::AvVoltageSourceInverterDQ Pages: 1 -->
<!--zoomable 456 -->
<svg id="main" version="1.1" xmlns="http://www.w3.org/2000/svg" xmlns:xlink="http://www.w3.org/1999/xlink" xml:space="preserve" onload="init(evt)">
<style type="text/css"><![CDATA[
.edge:hover path { stroke: red; }
.edge:hover polygon { stroke: red; fill: red; }
]]></style>
<script type="text/javascript"><![CDATA[
var edges = document.getElementsByTagName('g');
if (edges && edges.length) {
  for (var i=0;i<edges.length;i++) {
    if (edges[i].id.substr(0,4)=='edge') {
      edges[i].setAttribute('class','edge');
    }
  }
}
]]></script>
        <defs>
                <circle id="rim" cx="0" cy="0" r="7"/>
                <circle id="rim2" cx="0" cy="0" r="3.5"/>
                <g id="zoomPlus">
                        <use xlink:href="#rim" fill="#404040">
                                <set attributeName="fill" to="#808080" begin="zoomplus.mouseover" end="zoomplus.mouseout"/>
                        </use>
                        <path d="M-4,0h8M0,-4v8" fill="none" stroke="white" stroke-width="1.5" pointer-events="none"/>
                </g>
                <g id="zoomMin">
                        <use xlink:href="#rim" fill="#404040">
                                <set attributeName="fill" to="#808080" begin="zoomminus.mouseover" end="zoomminus.mouseout"/>
                        </use>
                        <path d="M-4,0h8" fill="none" stroke="white" stroke-width="1.5" pointer-events="none"/>
                </g>
                <g id="dirArrow">
                        <path fill="none" stroke="white" stroke-width="1.5" d="M0,-3.0v7 M-2.5,-0.5L0,-3.0L2.5,-0.5"/>
                </g>
               <g id="resetDef">
                       <use xlink:href="#rim2" fill="#404040">
                               <set attributeName="fill" to="#808080" begin="reset.mouseover" end="reset.mouseout"/>
                       </use>
               </g>
        </defs>

<script type="text/javascript">
var viewWidth = 1765;
var viewHeight = 456;
var sectionId = 'dynsection-1';
</script>
<script xlink:href="svgpan.js"/>
<svg id="graph" class="graph">
<g id="viewport">
<title>CPS::EMT::Ph3::AvVoltageSourceInverterDQ</title>
<!-- Node1 -->
<g id="node1" class="node">
<title>Node1</title>
<g id="a_node1"><a xlink:title=" ">
<polygon fill="#bfbfbf" stroke="black" points="1620,-209 1620,-239 1757,-239 1757,-209 1620,-209"/>
<text text-anchor="start" x="1628" y="-227" font-family="Helvetica" font-size="10.00">CPS::EMT::Ph3::AvVoltage</text>
<text text-anchor="middle" x="1688.5" y="-216" font-family="Helvetica" font-size="10.00">SourceInverterDQ</text>
</a>
</g>
</g>
<!-- Node2 -->
<g id="node2" class="node">
<title>Node2</title>
<g id="a_node2"><a xlink:href="class_c_p_s_1_1_base_1_1_av_voltage_source_inverter_d_q.html" target="_top" xlink:title="Base model of average inverter.">
<polygon fill="none" stroke="black" points="1437,-343 1437,-373 1583,-373 1583,-343 1437,-343"/>
<text text-anchor="start" x="1445" y="-361" font-family="Helvetica" font-size="10.00">CPS::Base::AvVoltageSource</text>
<text text-anchor="middle" x="1510" y="-350" font-family="Helvetica" font-size="10.00">InverterDQ</text>
</a>
</g>
</g>
<!-- Node2&#45;&gt;Node1 -->
<g id="edge1" class="edge">
<title>Node2&#45;&gt;Node1</title>
<path fill="none" stroke="midnightblue" d="M1574.92,-338.63C1577.71,-337.19 1580.41,-335.64 1583,-334 1623.9,-307.99 1659.99,-262.54 1677.06,-239.04"/>
<polygon fill="midnightblue" stroke="midnightblue" points="1573.34,-335.51 1565.79,-342.94 1576.32,-341.84 1573.34,-335.51"/>
</g>
<!-- Node3 -->
<g id="node3" class="node">
<title>Node3</title>
<g id="a_node3"><a xlink:href="class_c_p_s_1_1_sim_power_comp.html" target="_top" xlink:title=" ">
<polygon fill="none" stroke="black" points="1450,-294 1450,-324 1570,-324 1570,-294 1450,-294"/>
<text text-anchor="start" x="1458" y="-312" font-family="Helvetica" font-size="10.00">CPS::SimPowerComp&lt;</text>
<text text-anchor="middle" x="1510" y="-301" font-family="Helvetica" font-size="10.00"> Real &gt;</text>
</a>
</g>
</g>
<!-- Node3&#45;&gt;Node1 -->
<g id="edge2" class="edge">
<title>Node3&#45;&gt;Node1</title>
<path fill="none" stroke="midnightblue" d="M1573.87,-290.6C1583.45,-287.13 1593.1,-283.24 1602,-279 1625.58,-267.75 1650.47,-251.13 1667.28,-239.1"/>
<polygon fill="midnightblue" stroke="midnightblue" points="1572.63,-287.32 1564.34,-293.92 1574.93,-293.93 1572.63,-287.32"/>
</g>
<!-- Node4 -->
<g id="node4" class="node">
<title>Node4</title>
<g id="a_node4"><a xlink:href="class_c_p_s_1_1_topological_power_comp.html" target="_top" xlink:title=" ">
<polygon fill="none" stroke="black" points="871,-296.5 871,-315.5 1017,-315.5 1017,-296.5 871,-296.5"/>
<text text-anchor="middle" x="944" y="-303.5" font-family="Helvetica" font-size="10.00">CPS::TopologicalPowerComp</text>
</a>
</g>
</g>
<!-- Node4&#45;&gt;Node3 -->
<g id="edge3" class="edge">
<title>Node4&#45;&gt;Node3</title>
<path fill="none" stroke="midnightblue" d="M1027.17,-306.44C1142.26,-307.05 1348.69,-308.15 1449.85,-308.69"/>
<polygon fill="midnightblue" stroke="midnightblue" points="1027.02,-302.94 1017,-306.38 1026.99,-309.94 1027.02,-302.94"/>
</g>
<!-- Node12 -->
<g id="node12" class="node">
<title>Node12</title>
<g id="a_node12"><a xlink:href="class_c_p_s_1_1_sim_power_comp.html" target="_top" xlink:title="Base class for all components that are transmitting power.">
<polygon fill="none" stroke="black" points="1137,-335 1137,-365 1257,-365 1257,-335 1137,-335"/>
<text text-anchor="start" x="1145" y="-353" font-family="Helvetica" font-size="10.00">CPS::SimPowerComp&lt;</text>
<text text-anchor="middle" x="1197" y="-342" font-family="Helvetica" font-size="10.00"> VarType &gt;</text>
</a>
</g>
</g>
<!-- Node4&#45;&gt;Node12 -->
<g id="edge13" class="edge">
<title>Node4&#45;&gt;Node12</title>
<path fill="none" stroke="midnightblue" d="M1009.47,-317.3C1048.74,-324.19 1098.55,-332.92 1136.82,-339.63"/>
<polygon fill="midnightblue" stroke="midnightblue" points="1009.92,-313.83 999.46,-315.55 1008.71,-320.72 1009.92,-313.83"/>
</g>
<!-- Node5 -->
<g id="node5" class="node">
<title>Node5</title>
<g id="a_node5"><a xlink:href="class_c_p_s_1_1_identified_object.html" target="_top" xlink:title=" ">
<polygon fill="none" stroke="black" points="665,-294.5 665,-313.5 777,-313.5 777,-294.5 665,-294.5"/>
<text text-anchor="middle" x="721" y="-301.5" font-family="Helvetica" font-size="10.00">CPS::IdentifiedObject</text>
</a>
</g>
</g>
<!-- Node5&#45;&gt;Node4 -->
<g id="edge4" class="edge">
<title>Node5&#45;&gt;Node4</title>
<path fill="none" stroke="midnightblue" d="M787.43,-304.59C813.71,-304.83 844.09,-305.1 871,-305.35"/>
<polygon fill="midnightblue" stroke="midnightblue" points="787.23,-301.09 777.2,-304.5 787.17,-308.09 787.23,-301.09"/>
</g>
<!-- Node6 -->
<g id="node6" class="node">
<title>Node6</title>
<g id="a_node6"><a xlink:href="class_c_p_s_1_1_attribute_list.html" target="_top" xlink:title="Base class of objects having attributes to access member variables.">
<polygon fill="none" stroke="black" points="452.5,-246.5 452.5,-265.5 548.5,-265.5 548.5,-246.5 452.5,-246.5"/>
<text text-anchor="middle" x="500.5" y="-253.5" font-family="Helvetica" font-size="10.00">CPS::AttributeList</text>
</a>
</g>
</g>
<!-- Node6&#45;&gt;Node5 -->
<g id="edge5" class="edge">
<title>Node6&#45;&gt;Node5</title>
<path fill="none" stroke="midnightblue" d="M555.14,-267.78C592.52,-276 641.75,-286.81 676.65,-294.48"/>
<polygon fill="midnightblue" stroke="midnightblue" points="555.45,-264.27 544.93,-265.54 553.95,-271.1 555.45,-264.27"/>
</g>
<!-- Node15 -->
<g id="node15" class="node">
<title>Node15</title>
<g id="a_node15"><a xlink:href="class_c_p_s_1_1_m_n_a_interface.html" target="_top" xlink:title="Interface to be implemented by all models used by the MNA solver.">
<polygon fill="none" stroke="black" points="669,-236.5 669,-255.5 773,-255.5 773,-236.5 669,-236.5"/>
<text text-anchor="middle" x="721" y="-243.5" font-family="Helvetica" font-size="10.00">CPS::MNAInterface</text>
</a>
</g>
</g>
<!-- Node6&#45;&gt;Node15 -->
<g id="edge19" class="edge">
<title>Node6&#45;&gt;Node15</title>
<path fill="none" stroke="midnightblue" d="M558.91,-253.37C592.99,-251.81 635.82,-249.85 668.75,-248.35"/>
<polygon fill="midnightblue" stroke="midnightblue" points="558.47,-249.89 548.64,-253.84 558.79,-256.88 558.47,-249.89"/>
</g>
<!-- Node7 -->
<g id="node7" class="node">
<title>Node7</title>
<g id="a_node7"><a xlink:href="class_c_p_s_1_1_attribute.html" target="_top" xlink:title=" ">
<polygon fill="none" stroke="black" points="438.5,-289.5 438.5,-308.5 562.5,-308.5 562.5,-289.5 438.5,-289.5"/>
<text text-anchor="middle" x="500.5" y="-296.5" font-family="Helvetica" font-size="10.00">CPS::Attribute&lt; String &gt;</text>
</a>
</g>
</g>
<!-- Node7&#45;&gt;Node5 -->
<g id="edge6" class="edge">
<title>Node7&#45;&gt;Node5</title>
<path fill="none" stroke="#9a32cd" stroke-dasharray="5,2" d="M573.01,-300.64C602.86,-301.32 636.98,-302.1 664.83,-302.74"/>
<polygon fill="#9a32cd" stroke="#9a32cd" points="572.73,-297.13 562.65,-300.4 572.57,-304.13 572.73,-297.13"/>
<text text-anchor="middle" x="615.5" y="-316" font-family="Helvetica" font-size="10.00"> mName</text>
<text text-anchor="middle" x="615.5" y="-305" font-family="Helvetica" font-size="10.00">mUID</text>
</g>
<!-- Node8 -->
<g id="node8" class="node">
<title>Node8</title>
<g id="a_node8"><a xlink:href="class_c_p_s_1_1_attribute_base.html" target="_top" xlink:title=" ">
<polygon fill="none" stroke="black" points="2.5,-172.5 2.5,-191.5 105.5,-191.5 105.5,-172.5 2.5,-172.5"/>
<text text-anchor="middle" x="54" y="-179.5" font-family="Helvetica" font-size="10.00">CPS::AttributeBase</text>
</a>
</g>
</g>
<!-- Node8&#45;&gt;Node7 -->
<g id="edge7" class="edge">
<title>Node8&#45;&gt;Node7</title>
<path fill="none" stroke="midnightblue" d="M61.05,-201.56C72.01,-233.2 98.42,-294.7 145,-321 255.34,-383.32 416.97,-331.41 476.44,-308.51"/>
<polygon fill="midnightblue" stroke="midnightblue" points="64.27,-200.13 57.81,-191.73 57.62,-202.32 64.27,-200.13"/>
</g>
<!-- Node10 -->
<g id="node10" class="node">
<title>Node10</title>
<g id="a_node10"><a xlink:href="class_c_p_s_1_1_attribute.html" target="_top" xlink:title=" ">
<polygon fill="none" stroke="black" points="162,-134.5 162,-153.5 266,-153.5 266,-134.5 162,-134.5"/>
<text text-anchor="middle" x="214" y="-141.5" font-family="Helvetica" font-size="10.00">CPS::Attribute&lt; T &gt;</text>
</a>
</g>
</g>
<!-- Node8&#45;&gt;Node10 -->
<g id="edge10" class="edge">
<title>Node8&#45;&gt;Node10</title>
<path fill="none" stroke="midnightblue" d="M104.76,-170.03C126.9,-164.71 152.61,-158.52 173.42,-153.52"/>
<polygon fill="midnightblue" stroke="midnightblue" points="103.77,-166.67 94.87,-172.41 105.41,-173.48 103.77,-166.67"/>
</g>
<!-- Node13 -->
<g id="node13" class="node">
<title>Node13</title>
<g id="a_node13"><a xlink:href="class_c_p_s_1_1_attribute.html" target="_top" xlink:title=" ">
<polygon fill="none" stroke="black" points="435,-361 435,-391 566,-391 566,-361 435,-361"/>
<text text-anchor="start" x="443" y="-379" font-family="Helvetica" font-size="10.00">CPS::Attribute&lt; MatrixVar</text>
<text text-anchor="middle" x="500.5" y="-368" font-family="Helvetica" font-size="10.00">&lt; VarType &gt; &gt;</text>
</a>
</g>
</g>
<!-- Node8&#45;&gt;Node13 -->
<g id="edge15" class="edge">
<title>Node8&#45;&gt;Node13</title>
<path fill="none" stroke="midnightblue" d="M58.62,-201.64C66.64,-238.6 89.73,-317.59 145,-349 192.89,-376.22 346.35,-378.61 434.87,-377.56"/>
<polygon fill="midnightblue" stroke="midnightblue" points="62.01,-200.73 56.6,-191.62 55.15,-202.11 62.01,-200.73"/>
</g>
<!-- Node16 -->
<g id="node16" class="node">
<title>Node16</title>
<g id="a_node16"><a xlink:href="class_c_p_s_1_1_attribute.html" target="_top" xlink:title=" ">
<polygon fill="none" stroke="black" points="438,-174.5 438,-193.5 563,-193.5 563,-174.5 438,-174.5"/>
<text text-anchor="middle" x="500.5" y="-181.5" font-family="Helvetica" font-size="10.00">CPS::Attribute&lt; Matrix &gt;</text>
</a>
</g>
</g>
<!-- Node8&#45;&gt;Node16 -->
<g id="edge21" class="edge">
<title>Node8&#45;&gt;Node16</title>
<path fill="none" stroke="midnightblue" d="M115.78,-182.27C200.43,-182.65 352.95,-183.34 437.98,-183.72"/>
<polygon fill="midnightblue" stroke="midnightblue" points="115.57,-178.77 105.56,-182.23 115.54,-185.77 115.57,-178.77"/>
</g>
<!-- Node20 -->
<g id="node20" class="node">
<title>Node20</title>
<g id="a_node20"><a xlink:href="class_c_p_s_1_1_attribute.html" target="_top" xlink:title=" ">
<polygon fill="none" stroke="black" points="441.5,-77.5 441.5,-96.5 559.5,-96.5 559.5,-77.5 441.5,-77.5"/>
<text text-anchor="middle" x="500.5" y="-84.5" font-family="Helvetica" font-size="10.00">CPS::Attribute&lt; Real &gt;</text>
</a>
</g>
</g>
<!-- Node8&#45;&gt;Node20 -->
<g id="edge27" class="edge">
<title>Node8&#45;&gt;Node20</title>
<path fill="none" stroke="midnightblue" d="M62.96,-162.98C75.66,-135.43 103.41,-85.48 145,-65 257.3,-9.7 414.41,-55.94 474.65,-77.45"/>
<polygon fill="midnightblue" stroke="midnightblue" points="59.66,-161.78 58.83,-172.34 66.07,-164.6 59.66,-161.78"/>
</g>
<!-- Node9 -->
<g id="node9" class="node">
<title>Node9</title>
<g id="a_node9"><a xlink:title=" ">
<polygon fill="none" stroke="#bfbfbf" points="160,-270.5 160,-311.5 268,-311.5 268,-270.5 160,-270.5"/>
<text text-anchor="start" x="168" y="-299.5" font-family="Helvetica" font-size="10.00">std::enable_shared</text>
<text text-anchor="start" x="168" y="-288.5" font-family="Helvetica" font-size="10.00">_from_this&lt; Attribute</text>
<text text-anchor="middle" x="214" y="-277.5" font-family="Helvetica" font-size="10.00">&lt; String &gt; &gt;</text>
</a>
</g>
</g>
<!-- Node9&#45;&gt;Node7 -->
<g id="edge8" class="edge">
<title>Node9&#45;&gt;Node7</title>
<path fill="none" stroke="midnightblue" d="M278.27,-291.79C318.1,-292.4 370.56,-293.41 417,-295 423.88,-295.23 431.08,-295.52 438.24,-295.83"/>
<polygon fill="midnightblue" stroke="midnightblue" points="278.23,-288.29 268.17,-291.64 278.12,-295.29 278.23,-288.29"/>
</g>
<!-- Node10&#45;&gt;Node7 -->
<g id="edge9" class="edge">
<title>Node10&#45;&gt;Node7</title>
<path fill="none" stroke="orange" stroke-dasharray="5,2" d="M237.41,-159.21C276.37,-185.21 359.65,-238.91 435,-275 446.31,-280.42 459.2,-285.43 470.46,-289.46"/>
<polygon fill="orange" stroke="orange" points="239.17,-156.17 228.92,-153.51 235.27,-161.99 239.17,-156.17"/>
<text text-anchor="middle" x="359" y="-268" font-family="Helvetica" font-size="10.00"> &lt; String &gt;</text>
</g>
<!-- Node10&#45;&gt;Node13 -->
<g id="edge17" class="edge">
<title>Node10&#45;&gt;Node13</title>
<path fill="none" stroke="orange" stroke-dasharray="5,2" d="M240.33,-159.22C254.96,-169.29 272.49,-183.8 283,-201 301.78,-231.73 278.58,-251.82 301,-280 321.8,-306.13 406.47,-341.24 458.28,-360.95"/>
<polygon fill="orange" stroke="orange" points="241.96,-156.1 231.69,-153.53 238.12,-161.95 241.96,-156.1"/>
<text text-anchor="middle" x="359" y="-345" font-family="Helvetica" font-size="10.00"> &lt; MatrixVar&lt; VarType &gt; &gt;</text>
</g>
<!-- Node10&#45;&gt;Node16 -->
<g id="edge23" class="edge">
<title>Node10&#45;&gt;Node16</title>
<path fill="none" stroke="orange" stroke-dasharray="5,2" d="M276.3,-143.95C316.61,-144.89 370.34,-148.01 417,-157 437.27,-160.9 459.48,-168.36 475.74,-174.45"/>
<polygon fill="orange" stroke="orange" points="276.15,-140.45 266.09,-143.75 276.02,-147.44 276.15,-140.45"/>
<text text-anchor="middle" x="359" y="-160" font-family="Helvetica" font-size="10.00"> &lt; Matrix &gt;</text>
</g>
<!-- Node10&#45;&gt;Node20 -->
<g id="edge29" class="edge">
<title>Node10&#45;&gt;Node20</title>
<path fill="none" stroke="orange" stroke-dasharray="5,2" d="M272.49,-132.48C325.19,-121.92 402.33,-106.47 451.73,-96.57"/>
<polygon fill="orange" stroke="orange" points="271.74,-129.06 262.62,-134.46 273.11,-135.93 271.74,-129.06"/>
<text text-anchor="middle" x="359" y="-129" font-family="Helvetica" font-size="10.00"> &lt; Real &gt;</text>
</g>
<!-- Node11 -->
<g id="node11" class="node">
<title>Node11</title>
<g id="a_node11"><a xlink:title=" ">
<polygon fill="none" stroke="#bfbfbf" points="0,-0.5 0,-41.5 108,-41.5 108,-0.5 0,-0.5"/>
<text text-anchor="start" x="8" y="-29.5" font-family="Helvetica" font-size="10.00">std::enable_shared</text>
<text text-anchor="start" x="8" y="-18.5" font-family="Helvetica" font-size="10.00">_from_this&lt; Attribute</text>
<text text-anchor="middle" x="54" y="-7.5" font-family="Helvetica" font-size="10.00">&lt; T &gt; &gt;</text>
</a>
</g>
</g>
<!-- Node11&#45;&gt;Node10 -->
<g id="edge11" class="edge">
<title>Node11&#45;&gt;Node10</title>
<path fill="none" stroke="midnightblue" d="M73.29,-50.35C89.4,-73.86 114.96,-105.96 145,-125 151.11,-128.87 158.01,-131.97 165.02,-134.44"/>
<polygon fill="midnightblue" stroke="midnightblue" points="76.05,-48.18 67.58,-41.81 70.22,-52.07 76.05,-48.18"/>
</g>
<!-- Node12&#45;&gt;Node3 -->
<g id="edge12" class="edge">
<title>Node12&#45;&gt;Node3</title>
<path fill="none" stroke="orange" stroke-dasharray="5,2" d="M1267.22,-340.87C1322.1,-333.64 1397.96,-323.64 1449.99,-316.78"/>
<polygon fill="orange" stroke="orange" points="1266.69,-337.41 1257.23,-342.19 1267.6,-344.35 1266.69,-337.41"/>
<text text-anchor="middle" x="1347" y="-342" font-family="Helvetica" font-size="10.00"> &lt; Real &gt;</text>
</g>
<!-- Node13&#45;&gt;Node12 -->
<g id="edge14" class="edge">
<title>Node13&#45;&gt;Node12</title>
<path fill="none" stroke="#9a32cd" stroke-dasharray="5,2" d="M576.35,-373.2C715.28,-368 1010.38,-356.95 1136.66,-352.22"/>
<polygon fill="#9a32cd" stroke="#9a32cd" points="576.08,-369.71 566.21,-373.58 576.34,-376.7 576.08,-369.71"/>
<text text-anchor="middle" x="824" y="-378" font-family="Helvetica" font-size="10.00"> mIntfCurrent</text>
<text text-anchor="middle" x="824" y="-367" font-family="Helvetica" font-size="10.00">mIntfVoltage</text>
</g>
<!-- Node14 -->
<g id="node14" class="node">
<title>Node14</title>
<g id="a_node14"><a xlink:title=" ">
<polygon fill="none" stroke="#bfbfbf" points="145,-406.5 145,-447.5 283,-447.5 283,-406.5 145,-406.5"/>
<text text-anchor="start" x="153" y="-435.5" font-family="Helvetica" font-size="10.00">std::enable_shared</text>
<text text-anchor="start" x="153" y="-424.5" font-family="Helvetica" font-size="10.00">_from_this&lt; Attribute</text>
<text text-anchor="middle" x="214" y="-413.5" font-family="Helvetica" font-size="10.00">&lt; MatrixVar&lt; VarType &gt; &gt; &gt;</text>
</a>
</g>
</g>
<!-- Node14&#45;&gt;Node13 -->
<g id="edge16" class="edge">
<title>Node14&#45;&gt;Node13</title>
<path fill="none" stroke="midnightblue" d="M293.64,-413.75C331.04,-407.35 376.36,-399.46 417,-392 422.74,-390.95 428.7,-389.83 434.67,-388.7"/>
<polygon fill="midnightblue" stroke="midnightblue" points="292.58,-410.38 283.32,-415.51 293.76,-417.28 292.58,-410.38"/>
</g>
<!-- Node15&#45;&gt;Node1 -->
<g id="edge18" class="edge">
<title>Node15&#45;&gt;Node1</title>
<path fill="none" stroke="midnightblue" d="M783.28,-254.11C827.56,-259.27 888.87,-265 943,-265 943,-265 943,-265 1511,-265 1558.5,-265 1611.37,-250.74 1646.75,-239.03"/>
<polygon fill="midnightblue" stroke="midnightblue" points="783.59,-250.62 773.25,-252.91 782.76,-257.57 783.59,-250.62"/>
</g>
<!-- Node16&#45;&gt;Node1 -->
<g id="edge30" class="edge">
<title>Node16&#45;&gt;Node1</title>
<path fill="none" stroke="#9a32cd" stroke-dasharray="5,2" d="M573.19,-184C615.84,-184 671.01,-184 720,-184 720,-184 720,-184 1511,-184 1557.97,-184 1610.28,-197.64 1645.66,-208.99"/>
<polygon fill="#9a32cd" stroke="#9a32cd" points="573.19,-180.5 563.19,-184 573.19,-187.5 573.19,-180.5"/>
<text text-anchor="middle" x="1077" y="-242" font-family="Helvetica" font-size="10.00"> mPllOutput</text>
<text text-anchor="middle" x="1077" y="-231" font-family="Helvetica" font-size="10.00">mPowerctrlInputs</text>
<text text-anchor="middle" x="1077" y="-220" font-family="Helvetica" font-size="10.00">mPowerctrlOutputs</text>
<text text-anchor="middle" x="1077" y="-209" font-family="Helvetica" font-size="10.00">mPowerctrlStates</text>
<text text-anchor="middle" x="1077" y="-198" font-family="Helvetica" font-size="10.00">mVs</text>
<text text-anchor="middle" x="1077" y="-187" font-family="Helvetica" font-size="10.00">mVsref</text>
</g>
<!-- Node16&#45;&gt;Node15 -->
<g id="edge20" class="edge">
<title>Node16&#45;&gt;Node15</title>
<path fill="none" stroke="#9a32cd" stroke-dasharray="5,2" d="M545.01,-196.35C586.57,-208.14 648.35,-225.67 686.3,-236.44"/>
<polygon fill="#9a32cd" stroke="#9a32cd" points="545.74,-192.91 535.16,-193.55 543.83,-199.65 545.74,-192.91"/>
<text text-anchor="middle" x="615.5" y="-227" font-family="Helvetica" font-size="10.00"> mRightVector</text>
</g>
<!-- Node17 -->
<g id="node17" class="node">
<title>Node17</title>
<g id="a_node17"><a xlink:title=" ">
<polygon fill="none" stroke="#bfbfbf" points="160,-210.5 160,-251.5 268,-251.5 268,-210.5 160,-210.5"/>
<text text-anchor="start" x="168" y="-239.5" font-family="Helvetica" font-size="10.00">std::enable_shared</text>
<text text-anchor="start" x="168" y="-228.5" font-family="Helvetica" font-size="10.00">_from_this&lt; Attribute</text>
<text text-anchor="middle" x="214" y="-217.5" font-family="Helvetica" font-size="10.00">&lt; Matrix &gt; &gt;</text>
</a>
</g>
</g>
<!-- Node17&#45;&gt;Node16 -->
<g id="edge22" class="edge">
<title>Node17&#45;&gt;Node16</title>
<path fill="none" stroke="midnightblue" d="M278.43,-237.1C318.74,-239.18 371.67,-238.58 417,-227 443.13,-220.32 470.28,-204.06 486,-193.56"/>
<polygon fill="midnightblue" stroke="midnightblue" points="278.39,-233.59 268.2,-236.5 277.98,-240.58 278.39,-233.59"/>
</g>
<!-- Node18 -->
<g id="node18" class="node">
<title>Node18</title>
<g id="a_node18"><a xlink:href="class_shared_factory.html" target="_top" xlink:title=" ">
<polygon fill="none" stroke="black" points="1443,-125 1443,-155 1577,-155 1577,-125 1443,-125"/>
<text text-anchor="start" x="1451" y="-143" font-family="Helvetica" font-size="10.00">SharedFactory&lt; AvVoltage</text>
<text text-anchor="middle" x="1510" y="-132" font-family="Helvetica" font-size="10.00">SourceInverterDQ &gt;</text>
</a>
</g>
</g>
<!-- Node18&#45;&gt;Node1 -->
<g id="edge24" class="edge">
<title>Node18&#45;&gt;Node1</title>
<path fill="none" stroke="midnightblue" d="M1573.84,-158.47C1583.42,-161.93 1593.09,-165.79 1602,-170 1625.34,-181.01 1650.07,-197.18 1666.89,-208.96"/>
<polygon fill="midnightblue" stroke="midnightblue" points="1574.9,-155.13 1564.31,-155.15 1572.6,-161.74 1574.9,-155.13"/>
</g>
<!-- Node19 -->
<g id="node19" class="node">
<title>Node19</title>
<g id="a_node19"><a xlink:href="class_shared_factory.html" target="_top" xlink:title=" ">
<polygon fill="none" stroke="black" points="1144.5,-130.5 1144.5,-149.5 1249.5,-149.5 1249.5,-130.5 1144.5,-130.5"/>
<text text-anchor="middle" x="1197" y="-137.5" font-family="Helvetica" font-size="10.00">SharedFactory&lt; T &gt;</text>
</a>
</g>
</g>
<!-- Node19&#45;&gt;Node18 -->
<g id="edge25" class="edge">
<title>Node19&#45;&gt;Node18</title>
<path fill="none" stroke="orange" stroke-dasharray="5,2" d="M1259.96,-140C1312.86,-140 1388.73,-140 1442.8,-140"/>
<polygon fill="orange" stroke="orange" points="1259.7,-136.5 1249.7,-140 1259.7,-143.5 1259.7,-136.5"/>
<text text-anchor="middle" x="1347" y="-143" font-family="Helvetica" font-size="10.00"> &lt; AvVoltageSourceInverterDQ &gt;</text>
</g>
<!-- Node20&#45;&gt;Node1 -->
<g id="edge26" class="edge">
<title>Node20&#45;&gt;Node1</title>
<path fill="none" stroke="#9a32cd" stroke-dasharray="5,2" d="M570.01,-85.58C613.06,-84.8 669.78,-84 720,-84 720,-84 720,-84 1511,-84 1590.59,-84 1655.18,-172.47 1678.32,-208.75"/>
<polygon fill="#9a32cd" stroke="#9a32cd" points="569.86,-82.08 559.92,-85.76 569.99,-89.08 569.86,-82.08"/>
<text text-anchor="middle" x="1077" y="-153" font-family="Helvetica" font-size="10.00"> mIrcd</text>
<text text-anchor="middle" x="1077" y="-142" font-family="Helvetica" font-size="10.00">mIrcq</text>
<text text-anchor="middle" x="1077" y="-131" font-family="Helvetica" font-size="10.00">mOmegaN</text>
<text text-anchor="middle" x="1077" y="-120" font-family="Helvetica" font-size="10.00">mPref</text>
<text text-anchor="middle" x="1077" y="-109" font-family="Helvetica" font-size="10.00">mQref</text>
<text text-anchor="middle" x="1077" y="-98" font-family="Helvetica" font-size="10.00">mVcd</text>
<text text-anchor="middle" x="1077" y="-87" font-family="Helvetica" font-size="10.00">mVcq</text>
</g>
<!-- Node21 -->
<g id="node21" class="node">
<title>Node21</title>
<g id="a_node21"><a xlink:title=" ">
<polygon fill="none" stroke="#bfbfbf" points="160,-74.5 160,-115.5 268,-115.5 268,-74.5 160,-74.5"/>
<text text-anchor="start" x="168" y="-103.5" font-family="Helvetica" font-size="10.00">std::enable_shared</text>
<text text-anchor="start" x="168" y="-92.5" font-family="Helvetica" font-size="10.00">_from_this&lt; Attribute</text>
<text text-anchor="middle" x="214" y="-81.5" font-family="Helvetica" font-size="10.00">&lt; Real &gt; &gt;</text>
</a>
</g>
</g>
<!-- Node21&#45;&gt;Node20 -->
<g id="edge28" class="edge">
<title>Node21&#45;&gt;Node20</title>
<path fill="none" stroke="midnightblue" d="M278.28,-93.22C326.99,-91.85 393.78,-89.97 441.19,-88.64"/>
<polygon fill="midnightblue" stroke="midnightblue" points="278.08,-89.72 268.18,-93.5 278.27,-96.72 278.08,-89.72"/>
</g>
</g>
</svg>
        <g id="navigator" transform="translate(0 0)" fill="#404254">
                <rect fill="#f2f5e9" fill-opacity="0.5" stroke="#606060" stroke-width=".5" x="0" y="0" width="60" height="60"/>
                <use id="zoomplus" xlink:href="#zoomPlus" x="17" y="9" onmousedown="handleZoom(evt,'in')"/>
                <use id="zoomminus" xlink:href="#zoomMin" x="42" y="9" onmousedown="handleZoom(evt,'out')"/>
                <use id="reset" xlink:href="#resetDef" x="30" y="36" onmousedown="handleReset()"/>
                <g id="arrowUp" xlink:href="#dirArrow" transform="translate(30 24)" onmousedown="handlePan(0,-1)">
                  <use xlink:href="#rim" fill="#404040">
                        <set attributeName="fill" to="#808080" begin="arrowUp.mouseover" end="arrowUp.mouseout"/>
                  </use>
                  <path fill="none" stroke="white" stroke-width="1.5" d="M0,-3.0v7 M-2.5,-0.5L0,-3.0L2.5,-0.5"/>
                </g>
                <g id="arrowRight" xlink:href="#dirArrow" transform="rotate(90) translate(36 -43)" onmousedown="handlePan(1,0)">
                  <use xlink:href="#rim" fill="#404040">
                        <set attributeName="fill" to="#808080" begin="arrowRight.mouseover" end="arrowRight.mouseout"/>
                  </use>
                  <path fill="none" stroke="white" stroke-width="1.5" d="M0,-3.0v7 M-2.5,-0.5L0,-3.0L2.5,-0.5"/>
                </g>
                <g id="arrowDown" xlink:href="#dirArrow" transform="rotate(180) translate(-30 -48)" onmousedown="handlePan(0,1)">
                  <use xlink:href="#rim" fill="#404040">
                        <set attributeName="fill" to="#808080" begin="arrowDown.mouseover" end="arrowDown.mouseout"/>
                  </use>
                  <path fill="none" stroke="white" stroke-width="1.5" d="M0,-3.0v7 M-2.5,-0.5L0,-3.0L2.5,-0.5"/>
                </g>
                <g id="arrowLeft" xlink:href="#dirArrow" transform="rotate(270) translate(-36 17)" onmousedown="handlePan(-1,0)">
                  <use xlink:href="#rim" fill="#404040">
                        <set attributeName="fill" to="#808080" begin="arrowLeft.mouseover" end="arrowLeft.mouseout"/>
                  </use>
                  <path fill="none" stroke="white" stroke-width="1.5" d="M0,-3.0v7 M-2.5,-0.5L0,-3.0L2.5,-0.5"/>
                </g>
        </g>
        <svg viewBox="0 0 15 15" width="100%" height="30px" preserveAspectRatio="xMaxYMin meet">
         <g id="arrow_out" transform="scale(0.3 0.3)">
          <a xlink:href="class_c_p_s_1_1_e_m_t_1_1_ph3_1_1_av_voltage_source_inverter_d_q__coll__graph_org.svg" target="_base">
           <rect id="button" ry="5" rx="5" y="6" x="6" height="38" width="38"
                fill="#f2f5e9" fill-opacity="0.5" stroke="#606060" stroke-width="1.0"/>
           <path id="arrow"
             d="M 11.500037,31.436501 C 11.940474,20.09759 22.043105,11.32322 32.158766,21.979434 L 37.068811,17.246167 C 37.068811,17.246167 37.088388,32 37.088388,32 L 22.160133,31.978069 C 22.160133,31.978069 26.997745,27.140456 26.997745,27.140456 C 18.528582,18.264221 13.291696,25.230495 11.500037,31.436501 z"
             style="fill:#404040;"/>
          </a>
         </g>
        </svg>
</svg>
