<?xml version="1.0" encoding="UTF-8" standalone="no"?>
<!DOCTYPE svg PUBLIC "-//W3C//DTD SVG 1.1//EN"
 "http://www.w3.org/Graphics/SVG/1.1/DTD/svg11.dtd">
<!-- Generated by graphviz version 2.44.0 (0)
 -->
<!-- Title: CPS::SimPowerComp&lt; VarType &gt; Pages: 1 -->
<svg width="1157pt" height="230pt"
 viewBox="0.00 0.00 1157.00 230.47" xmlns="http://www.w3.org/2000/svg" xmlns:xlink="http://www.w3.org/1999/xlink">
<g id="graph0" class="graph" transform="scale(1 1) rotate(0) translate(4 226.47)">
<title>CPS::SimPowerComp&lt; VarType &gt;</title>
<!-- Node1 -->
<g id="node1" class="node">
<title>Node1</title>
<g id="a_node1"><a xlink:title="Base class for all components that are transmitting power.">
<polygon fill="#bfbfbf" stroke="black" points="1029,-67.47 1029,-97.47 1149,-97.47 1149,-67.47 1029,-67.47"/>
<text text-anchor="start" x="1037" y="-85.47" font-family="Helvetica" font-size="10.00">CPS::SimPowerComp&lt;</text>
<text text-anchor="middle" x="1089" y="-74.47" font-family="Helvetica" font-size="10.00"> VarType &gt;</text>
</a>
</g>
</g>
<!-- Node2 -->
<g id="node2" class="node">
<title>Node2</title>
<g id="a_node2"><a xlink:href="class_c_p_s_1_1_topological_power_comp.html" target="_top" xlink:title=" ">
<polygon fill="none" stroke="black" points="846,-98.97 846,-117.97 992,-117.97 992,-98.97 846,-98.97"/>
<text text-anchor="middle" x="919" y="-105.97" font-family="Helvetica" font-size="10.00">CPS::TopologicalPowerComp</text>
</a>
</g>
</g>
<!-- Node2&#45;&gt;Node1 -->
<g id="edge1" class="edge">
<title>Node2&#45;&gt;Node1</title>
<path fill="none" stroke="midnightblue" d="M991.51,-97.4C1003.98,-95.47 1016.83,-93.48 1028.92,-91.61"/>
<polygon fill="midnightblue" stroke="midnightblue" points="990.95,-93.95 981.6,-98.94 992.02,-100.87 990.95,-93.95"/>
</g>
<!-- Node3 -->
<g id="node3" class="node">
<title>Node3</title>
<g id="a_node3"><a xlink:href="class_c_p_s_1_1_identified_object.html" target="_top" xlink:title=" ">
<polygon fill="none" stroke="black" points="640,-101.97 640,-120.97 752,-120.97 752,-101.97 640,-101.97"/>
<text text-anchor="middle" x="696" y="-108.97" font-family="Helvetica" font-size="10.00">CPS::IdentifiedObject</text>
</a>
</g>
</g>
<!-- Node3&#45;&gt;Node2 -->
<g id="edge2" class="edge">
<title>Node3&#45;&gt;Node2</title>
<path fill="none" stroke="midnightblue" d="M762.43,-110.58C788.71,-110.23 819.09,-109.81 846,-109.45"/>
<polygon fill="midnightblue" stroke="midnightblue" points="762.15,-107.09 752.2,-110.72 762.24,-114.08 762.15,-107.09"/>
</g>
<!-- Node4 -->
<g id="node4" class="node">
<title>Node4</title>
<g id="a_node4"><a xlink:href="class_c_p_s_1_1_attribute_list.html" target="_top" xlink:title="Base class of objects having attributes to access member variables.">
<polygon fill="none" stroke="black" points="452.5,-101.97 452.5,-120.97 548.5,-120.97 548.5,-101.97 452.5,-101.97"/>
<text text-anchor="middle" x="500.5" y="-108.97" font-family="Helvetica" font-size="10.00">CPS::AttributeList</text>
</a>
</g>
</g>
<!-- Node4&#45;&gt;Node3 -->
<g id="edge3" class="edge">
<title>Node4&#45;&gt;Node3</title>
<path fill="none" stroke="midnightblue" d="M559.13,-111.47C584.7,-111.47 614.66,-111.47 639.92,-111.47"/>
<polygon fill="midnightblue" stroke="midnightblue" points="558.84,-107.97 548.84,-111.47 558.84,-114.97 558.84,-107.97"/>
</g>
<!-- Node5 -->
<g id="node5" class="node">
<title>Node5</title>
<g id="a_node5"><a xlink:href="class_c_p_s_1_1_attribute.html" target="_top" xlink:title=" ">
<polygon fill="none" stroke="black" points="438.5,-140.97 438.5,-159.97 562.5,-159.97 562.5,-140.97 438.5,-140.97"/>
<text text-anchor="middle" x="500.5" y="-147.97" font-family="Helvetica" font-size="10.00">CPS::Attribute&lt; String &gt;</text>
</a>
</g>
</g>
<!-- Node5&#45;&gt;Node3 -->
<g id="edge4" class="edge">
<title>Node5&#45;&gt;Node3</title>
<path fill="none" stroke="#9a32cd" stroke-dasharray="5,2" d="M559,-138.88C587.32,-133.17 621.04,-126.38 647.82,-120.98"/>
<polygon fill="#9a32cd" stroke="#9a32cd" points="557.95,-135.52 548.84,-140.93 559.33,-142.39 557.95,-135.52"/>
<text text-anchor="middle" x="603" y="-147.47" font-family="Helvetica" font-size="10.00"> mName</text>
<text text-anchor="middle" x="603" y="-136.47" font-family="Helvetica" font-size="10.00">mUID</text>
</g>
<!-- Node6 -->
<g id="node6" class="node">
<title>Node6</title>
<g id="a_node6"><a xlink:href="class_c_p_s_1_1_attribute_base.html" target="_top" xlink:title=" ">
<polygon fill="none" stroke="black" points="2.5,-122.97 2.5,-141.97 105.5,-141.97 105.5,-122.97 2.5,-122.97"/>
<text text-anchor="middle" x="54" y="-129.97" font-family="Helvetica" font-size="10.00">CPS::AttributeBase</text>
</a>
</g>
</g>
<!-- Node6&#45;&gt;Node5 -->
<g id="edge5" class="edge">
<title>Node6&#45;&gt;Node5</title>
<path fill="none" stroke="midnightblue" d="M115.98,-137.83C119.37,-138.06 122.73,-138.28 126,-138.47 235.94,-144.88 364.3,-148.06 438.32,-149.48"/>
<polygon fill="midnightblue" stroke="midnightblue" points="116.01,-134.32 105.78,-137.09 115.5,-141.31 116.01,-134.32"/>
</g>
<!-- Node8 -->
<g id="node8" class="node">
<title>Node8</title>
<g id="a_node8"><a xlink:href="class_c_p_s_1_1_attribute.html" target="_top" xlink:title=" ">
<polygon fill="none" stroke="black" points="162,-103.97 162,-122.97 266,-122.97 266,-103.97 162,-103.97"/>
<text text-anchor="middle" x="214" y="-110.97" font-family="Helvetica" font-size="10.00">CPS::Attribute&lt; T &gt;</text>
</a>
</g>
</g>
<!-- Node6&#45;&gt;Node8 -->
<g id="edge8" class="edge">
<title>Node6&#45;&gt;Node8</title>
<path fill="none" stroke="midnightblue" d="M116.17,-125.12C131.3,-123.29 147.36,-121.36 161.96,-119.61"/>
<polygon fill="midnightblue" stroke="midnightblue" points="115.37,-121.69 105.86,-126.35 116.21,-128.64 115.37,-121.69"/>
</g>
<!-- Node10 -->
<g id="node10" class="node">
<title>Node10</title>
<g id="a_node10"><a xlink:href="class_c_p_s_1_1_attribute.html" target="_top" xlink:title=" ">
<polygon fill="none" stroke="black" points="435,-49.47 435,-79.47 566,-79.47 566,-49.47 435,-49.47"/>
<text text-anchor="start" x="443" y="-67.47" font-family="Helvetica" font-size="10.00">CPS::Attribute&lt; MatrixVar</text>
<text text-anchor="middle" x="500.5" y="-56.47" font-family="Helvetica" font-size="10.00">&lt; VarType &gt; &gt;</text>
</a>
</g>
</g>
<!-- Node6&#45;&gt;Node10 -->
<g id="edge11" class="edge">
<title>Node6&#45;&gt;Node10</title>
<path fill="none" stroke="midnightblue" d="M102.55,-117.79C104.48,-116.47 106.31,-115.03 108,-113.47 137.38,-86.35 111.41,-53.16 145,-31.47 247.16,34.51 401.68,-20.42 467.74,-49.38"/>
<polygon fill="midnightblue" stroke="midnightblue" points="100.57,-114.88 93.6,-122.86 104.02,-120.98 100.57,-114.88"/>
</g>
<!-- Node7 -->
<g id="node7" class="node">
<title>Node7</title>
<g id="a_node7"><a xlink:title=" ">
<polygon fill="none" stroke="#bfbfbf" points="160,-180.97 160,-221.97 268,-221.97 268,-180.97 160,-180.97"/>
<text text-anchor="start" x="168" y="-209.97" font-family="Helvetica" font-size="10.00">std::enable_shared</text>
<text text-anchor="start" x="168" y="-198.97" font-family="Helvetica" font-size="10.00">_from_this&lt; Attribute</text>
<text text-anchor="middle" x="214" y="-187.97" font-family="Helvetica" font-size="10.00">&lt; String &gt; &gt;</text>
</a>
</g>
</g>
<!-- Node7&#45;&gt;Node5 -->
<g id="edge6" class="edge">
<title>Node7&#45;&gt;Node5</title>
<path fill="none" stroke="midnightblue" d="M278.32,-190.83C318.16,-184.06 370.63,-174.98 417,-166.47 428.05,-164.44 439.92,-162.19 451.11,-160.02"/>
<polygon fill="midnightblue" stroke="midnightblue" points="277.49,-187.42 268.21,-192.55 278.66,-194.33 277.49,-187.42"/>
</g>
<!-- Node8&#45;&gt;Node5 -->
<g id="edge7" class="edge">
<title>Node8&#45;&gt;Node5</title>
<path fill="none" stroke="orange" stroke-dasharray="5,2" d="M276.59,-114.51C316.8,-115.98 370.31,-119.43 417,-127.47 435.17,-130.6 455.09,-136.09 470.81,-140.93"/>
<polygon fill="orange" stroke="orange" points="276.51,-111 266.4,-114.17 276.28,-118 276.51,-111"/>
<text text-anchor="middle" x="359" y="-130.47" font-family="Helvetica" font-size="10.00"> &lt; String &gt;</text>
</g>
<!-- Node8&#45;&gt;Node10 -->
<g id="edge13" class="edge">
<title>Node8&#45;&gt;Node10</title>
<path fill="none" stroke="orange" stroke-dasharray="5,2" d="M276.2,-102.93C323,-94.87 387.38,-83.78 434.99,-75.58"/>
<polygon fill="orange" stroke="orange" points="275.45,-99.51 266.19,-104.65 276.64,-106.41 275.45,-99.51"/>
<text text-anchor="middle" x="359" y="-101.47" font-family="Helvetica" font-size="10.00"> &lt; MatrixVar&lt; VarType &gt; &gt;</text>
</g>
<!-- Node9 -->
<g id="node9" class="node">
<title>Node9</title>
<g id="a_node9"><a xlink:title=" ">
<polygon fill="none" stroke="#bfbfbf" points="0,-62.97 0,-103.97 108,-103.97 108,-62.97 0,-62.97"/>
<text text-anchor="start" x="8" y="-91.97" font-family="Helvetica" font-size="10.00">std::enable_shared</text>
<text text-anchor="start" x="8" y="-80.97" font-family="Helvetica" font-size="10.00">_from_this&lt; Attribute</text>
<text text-anchor="middle" x="54" y="-69.97" font-family="Helvetica" font-size="10.00">&lt; T &gt; &gt;</text>
</a>
</g>
</g>
<!-- Node9&#45;&gt;Node8 -->
<g id="edge9" class="edge">
<title>Node9&#45;&gt;Node8</title>
<path fill="none" stroke="midnightblue" d="M118.16,-95.46C132.99,-98.28 148.59,-101.24 162.76,-103.93"/>
<polygon fill="midnightblue" stroke="midnightblue" points="118.53,-91.97 108.05,-93.54 117.22,-98.85 118.53,-91.97"/>
</g>
<!-- Node10&#45;&gt;Node1 -->
<g id="edge10" class="edge">
<title>Node10&#45;&gt;Node1</title>
<path fill="none" stroke="#9a32cd" stroke-dasharray="5,2" d="M576.26,-66.76C694.26,-70.39 921.29,-77.35 1028.79,-80.65"/>
<polygon fill="#9a32cd" stroke="#9a32cd" points="576.33,-63.27 566.22,-66.46 576.11,-70.26 576.33,-63.27"/>
<text text-anchor="middle" x="799" y="-89.47" font-family="Helvetica" font-size="10.00"> mIntfCurrent</text>
<text text-anchor="middle" x="799" y="-78.47" font-family="Helvetica" font-size="10.00">mIntfVoltage</text>
</g>
<!-- Node11 -->
<g id="node11" class="node">
<title>Node11</title>
<g id="a_node11"><a xlink:title=" ">
<polygon fill="none" stroke="#bfbfbf" points="145,-40.97 145,-81.97 283,-81.97 283,-40.97 145,-40.97"/>
<text text-anchor="start" x="153" y="-69.97" font-family="Helvetica" font-size="10.00">std::enable_shared</text>
<text text-anchor="start" x="153" y="-58.97" font-family="Helvetica" font-size="10.00">_from_this&lt; Attribute</text>
<text text-anchor="middle" x="214" y="-47.97" font-family="Helvetica" font-size="10.00">&lt; MatrixVar&lt; VarType &gt; &gt; &gt;</text>
</a>
</g>
</g>
<!-- Node11&#45;&gt;Node10 -->
<g id="edge12" class="edge">
<title>Node11&#45;&gt;Node10</title>
<path fill="none" stroke="midnightblue" d="M293.34,-62.3C337.82,-62.77 392.84,-63.35 434.84,-63.79"/>
<polygon fill="midnightblue" stroke="midnightblue" points="293.18,-58.79 283.14,-62.19 293.11,-65.79 293.18,-58.79"/>
</g>
</g>
</svg>
