<?xml version="1.0" encoding="UTF-8" standalone="no"?>
<!DOCTYPE svg PUBLIC "-//W3C//DTD SVG 1.1//EN"
 "http://www.w3.org/Graphics/SVG/1.1/DTD/svg11.dtd">
<!-- Generated by graphviz version 2.44.0 (0)
 -->
<!-- Title: CPS::EMT::Ph3::SynchronGeneratorIdeal Pages: 1 -->
<!--zoomable 456 -->
<svg id="main" version="1.1" xmlns="http://www.w3.org/2000/svg" xmlns:xlink="http://www.w3.org/1999/xlink" xml:space="preserve" onload="init(evt)">
<style type="text/css"><![CDATA[
.edge:hover path { stroke: red; }
.edge:hover polygon { stroke: red; fill: red; }
]]></style>
<script type="text/javascript"><![CDATA[
var edges = document.getElementsByTagName('g');
if (edges && edges.length) {
  for (var i=0;i<edges.length;i++) {
    if (edges[i].id.substr(0,4)=='edge') {
      edges[i].setAttribute('class','edge');
    }
  }
}
]]></script>
        <defs>
                <circle id="rim" cx="0" cy="0" r="7"/>
                <circle id="rim2" cx="0" cy="0" r="3.5"/>
                <g id="zoomPlus">
                        <use xlink:href="#rim" fill="#404040">
                                <set attributeName="fill" to="#808080" begin="zoomplus.mouseover" end="zoomplus.mouseout"/>
                        </use>
                        <path d="M-4,0h8M0,-4v8" fill="none" stroke="white" stroke-width="1.5" pointer-events="none"/>
                </g>
                <g id="zoomMin">
                        <use xlink:href="#rim" fill="#404040">
                                <set attributeName="fill" to="#808080" begin="zoomminus.mouseover" end="zoomminus.mouseout"/>
                        </use>
                        <path d="M-4,0h8" fill="none" stroke="white" stroke-width="1.5" pointer-events="none"/>
                </g>
                <g id="dirArrow">
                        <path fill="none" stroke="white" stroke-width="1.5" d="M0,-3.0v7 M-2.5,-0.5L0,-3.0L2.5,-0.5"/>
                </g>
               <g id="resetDef">
                       <use xlink:href="#rim2" fill="#404040">
                               <set attributeName="fill" to="#808080" begin="reset.mouseover" end="reset.mouseout"/>
                       </use>
               </g>
        </defs>

<script type="text/javascript">
var viewWidth = 1812;
var viewHeight = 456;
var sectionId = 'dynsection-1';
</script>
<script xlink:href="svgpan.js"/>
<svg id="graph" class="graph">
<g id="viewport">
<title>CPS::EMT::Ph3::SynchronGeneratorIdeal</title>
<!-- Node1 -->
<g id="node1" class="node">
<title>Node1</title>
<g id="a_node1"><a xlink:title="Ideal voltage source representing a synchronous generator.">
<polygon fill="#bfbfbf" stroke="black" points="1627,-187 1627,-217 1804,-217 1804,-187 1627,-187"/>
<text text-anchor="start" x="1635" y="-205" font-family="Helvetica" font-size="10.00">CPS::EMT::Ph3::SynchronGenerator</text>
<text text-anchor="middle" x="1715.5" y="-194" font-family="Helvetica" font-size="10.00">Ideal</text>
</a>
</g>
</g>
<!-- Node2 -->
<g id="node2" class="node">
<title>Node2</title>
<g id="a_node2"><a xlink:href="class_c_p_s_1_1_sim_power_comp.html" target="_top" xlink:title=" ">
<polygon fill="none" stroke="black" points="1443,-245 1443,-275 1563,-275 1563,-245 1443,-245"/>
<text text-anchor="start" x="1451" y="-263" font-family="Helvetica" font-size="10.00">CPS::SimPowerComp&lt;</text>
<text text-anchor="middle" x="1503" y="-252" font-family="Helvetica" font-size="10.00"> Real &gt;</text>
</a>
</g>
</g>
<!-- Node2&#45;&gt;Node1 -->
<g id="edge1" class="edge">
<title>Node2&#45;&gt;Node1</title>
<path fill="none" stroke="midnightblue" d="M1568.21,-242.31C1597.51,-234.23 1631.84,-224.78 1659.88,-217.05"/>
<polygon fill="midnightblue" stroke="midnightblue" points="1567.19,-238.96 1558.48,-244.99 1569.05,-245.71 1567.19,-238.96"/>
</g>
<!-- Node3 -->
<g id="node3" class="node">
<title>Node3</title>
<g id="a_node3"><a xlink:href="class_c_p_s_1_1_topological_power_comp.html" target="_top" xlink:title=" ">
<polygon fill="none" stroke="black" points="892,-262.5 892,-281.5 1038,-281.5 1038,-262.5 892,-262.5"/>
<text text-anchor="middle" x="965" y="-269.5" font-family="Helvetica" font-size="10.00">CPS::TopologicalPowerComp</text>
</a>
</g>
</g>
<!-- Node3&#45;&gt;Node2 -->
<g id="edge2" class="edge">
<title>Node3&#45;&gt;Node2</title>
<path fill="none" stroke="midnightblue" d="M1048.3,-270.16C1157.26,-267.72 1346.77,-263.48 1442.72,-261.33"/>
<polygon fill="midnightblue" stroke="midnightblue" points="1047.93,-266.66 1038.01,-270.39 1048.08,-273.66 1047.93,-266.66"/>
</g>
<!-- Node11 -->
<g id="node11" class="node">
<title>Node11</title>
<g id="a_node11"><a xlink:href="class_c_p_s_1_1_sim_power_comp.html" target="_top" xlink:title="Base class for all components that are transmitting power.">
<polygon fill="none" stroke="black" points="1133,-289 1133,-319 1253,-319 1253,-289 1133,-289"/>
<text text-anchor="start" x="1141" y="-307" font-family="Helvetica" font-size="10.00">CPS::SimPowerComp&lt;</text>
<text text-anchor="middle" x="1193" y="-296" font-family="Helvetica" font-size="10.00"> VarType &gt;</text>
</a>
</g>
</g>
<!-- Node3&#45;&gt;Node11 -->
<g id="edge12" class="edge">
<title>Node3&#45;&gt;Node11</title>
<path fill="none" stroke="midnightblue" d="M1043.38,-282.96C1072.62,-287.1 1105.41,-291.74 1132.74,-295.61"/>
<polygon fill="midnightblue" stroke="midnightblue" points="1043.59,-279.45 1033.2,-281.51 1042.61,-286.38 1043.59,-279.45"/>
</g>
<!-- Node4 -->
<g id="node4" class="node">
<title>Node4</title>
<g id="a_node4"><a xlink:href="class_c_p_s_1_1_identified_object.html" target="_top" xlink:title=" ">
<polygon fill="none" stroke="black" points="686,-262.5 686,-281.5 798,-281.5 798,-262.5 686,-262.5"/>
<text text-anchor="middle" x="742" y="-269.5" font-family="Helvetica" font-size="10.00">CPS::IdentifiedObject</text>
</a>
</g>
</g>
<!-- Node4&#45;&gt;Node3 -->
<g id="edge3" class="edge">
<title>Node4&#45;&gt;Node3</title>
<path fill="none" stroke="midnightblue" d="M808.43,-272C834.71,-272 865.09,-272 892,-272"/>
<polygon fill="midnightblue" stroke="midnightblue" points="808.2,-268.5 798.2,-272 808.2,-275.5 808.2,-268.5"/>
</g>
<!-- Node5 -->
<g id="node5" class="node">
<title>Node5</title>
<g id="a_node5"><a xlink:href="class_c_p_s_1_1_attribute_list.html" target="_top" xlink:title="Base class of objects having attributes to access member variables.">
<polygon fill="none" stroke="black" points="463,-228.5 463,-247.5 559,-247.5 559,-228.5 463,-228.5"/>
<text text-anchor="middle" x="511" y="-235.5" font-family="Helvetica" font-size="10.00">CPS::AttributeList</text>
</a>
</g>
</g>
<!-- Node5&#45;&gt;Node4 -->
<g id="edge4" class="edge">
<title>Node5&#45;&gt;Node4</title>
<path fill="none" stroke="midnightblue" d="M569.42,-246.52C605.06,-251.82 650.62,-258.58 685.83,-263.81"/>
<polygon fill="midnightblue" stroke="midnightblue" points="569.58,-243.01 559.17,-245 568.55,-249.93 569.58,-243.01"/>
</g>
<!-- Node14 -->
<g id="node14" class="node">
<title>Node14</title>
<g id="a_node14"><a xlink:href="class_c_p_s_1_1_m_n_a_interface.html" target="_top" xlink:title="Interface to be implemented by all models used by the MNA solver.">
<polygon fill="none" stroke="black" points="690,-205.5 690,-224.5 794,-224.5 794,-205.5 690,-205.5"/>
<text text-anchor="middle" x="742" y="-212.5" font-family="Helvetica" font-size="10.00">CPS::MNAInterface</text>
</a>
</g>
</g>
<!-- Node5&#45;&gt;Node14 -->
<g id="edge18" class="edge">
<title>Node5&#45;&gt;Node14</title>
<path fill="none" stroke="midnightblue" d="M569.32,-232.24C606.37,-228.52 654.16,-223.72 689.91,-220.13"/>
<polygon fill="midnightblue" stroke="midnightblue" points="568.77,-228.78 559.17,-233.26 569.47,-235.75 568.77,-228.78"/>
</g>
<!-- Node6 -->
<g id="node6" class="node">
<title>Node6</title>
<g id="a_node6"><a xlink:href="class_c_p_s_1_1_attribute.html" target="_top" xlink:title=" ">
<polygon fill="none" stroke="black" points="449,-270.5 449,-289.5 573,-289.5 573,-270.5 449,-270.5"/>
<text text-anchor="middle" x="511" y="-277.5" font-family="Helvetica" font-size="10.00">CPS::Attribute&lt; String &gt;</text>
</a>
</g>
</g>
<!-- Node6&#45;&gt;Node4 -->
<g id="edge5" class="edge">
<title>Node6&#45;&gt;Node4</title>
<path fill="none" stroke="#9a32cd" stroke-dasharray="5,2" d="M583.15,-277.51C616.3,-276.36 655.12,-275 685.97,-273.92"/>
<polygon fill="#9a32cd" stroke="#9a32cd" points="582.94,-274.02 573.07,-277.87 583.18,-281.02 582.94,-274.02"/>
<text text-anchor="middle" x="636.5" y="-290" font-family="Helvetica" font-size="10.00"> mName</text>
<text text-anchor="middle" x="636.5" y="-279" font-family="Helvetica" font-size="10.00">mUID</text>
</g>
<!-- Node7 -->
<g id="node7" class="node">
<title>Node7</title>
<g id="a_node7"><a xlink:href="class_c_p_s_1_1_attribute_base.html" target="_top" xlink:title=" ">
<polygon fill="none" stroke="black" points="2.5,-232.5 2.5,-251.5 105.5,-251.5 105.5,-232.5 2.5,-232.5"/>
<text text-anchor="middle" x="54" y="-239.5" font-family="Helvetica" font-size="10.00">CPS::AttributeBase</text>
</a>
</g>
</g>
<!-- Node7&#45;&gt;Node6 -->
<g id="edge6" class="edge">
<title>Node7&#45;&gt;Node6</title>
<path fill="none" stroke="midnightblue" d="M68.5,-259.55C84.42,-278.69 112.8,-308.28 145,-321 257.45,-365.42 299.27,-353.53 417,-326 446.99,-318.99 478.41,-300.82 495.97,-289.53"/>
<polygon fill="midnightblue" stroke="midnightblue" points="71.1,-257.19 62.1,-251.59 65.64,-261.58 71.1,-257.19"/>
</g>
<!-- Node9 -->
<g id="node9" class="node">
<title>Node9</title>
<g id="a_node9"><a xlink:href="class_c_p_s_1_1_attribute.html" target="_top" xlink:title=" ">
<polygon fill="none" stroke="black" points="162,-194.5 162,-213.5 266,-213.5 266,-194.5 162,-194.5"/>
<text text-anchor="middle" x="214" y="-201.5" font-family="Helvetica" font-size="10.00">CPS::Attribute&lt; T &gt;</text>
</a>
</g>
</g>
<!-- Node7&#45;&gt;Node9 -->
<g id="edge9" class="edge">
<title>Node7&#45;&gt;Node9</title>
<path fill="none" stroke="midnightblue" d="M104.76,-230.03C126.9,-224.71 152.61,-218.52 173.42,-213.52"/>
<polygon fill="midnightblue" stroke="midnightblue" points="103.77,-226.67 94.87,-232.41 105.41,-233.48 103.77,-226.67"/>
</g>
<!-- Node12 -->
<g id="node12" class="node">
<title>Node12</title>
<g id="a_node12"><a xlink:href="class_c_p_s_1_1_attribute.html" target="_top" xlink:title=" ">
<polygon fill="none" stroke="black" points="445.5,-338 445.5,-368 576.5,-368 576.5,-338 445.5,-338"/>
<text text-anchor="start" x="453.5" y="-356" font-family="Helvetica" font-size="10.00">CPS::Attribute&lt; MatrixVar</text>
<text text-anchor="middle" x="511" y="-345" font-family="Helvetica" font-size="10.00">&lt; VarType &gt; &gt;</text>
</a>
</g>
</g>
<!-- Node7&#45;&gt;Node12 -->
<g id="edge14" class="edge">
<title>Node7&#45;&gt;Node12</title>
<path fill="none" stroke="midnightblue" d="M64.23,-260.84C77.87,-286.28 106.07,-330.57 145,-349 241.66,-394.76 369.48,-381.93 445.39,-367.87"/>
<polygon fill="midnightblue" stroke="midnightblue" points="67.26,-259.09 59.57,-251.8 61.04,-262.3 67.26,-259.09"/>
</g>
<!-- Node15 -->
<g id="node15" class="node">
<title>Node15</title>
<g id="a_node15"><a xlink:href="class_c_p_s_1_1_attribute.html" target="_top" xlink:title=" ">
<polygon fill="none" stroke="black" points="448.5,-182.5 448.5,-201.5 573.5,-201.5 573.5,-182.5 448.5,-182.5"/>
<text text-anchor="middle" x="511" y="-189.5" font-family="Helvetica" font-size="10.00">CPS::Attribute&lt; Matrix &gt;</text>
</a>
</g>
</g>
<!-- Node7&#45;&gt;Node15 -->
<g id="edge20" class="edge">
<title>Node7&#45;&gt;Node15</title>
<path fill="none" stroke="midnightblue" d="M115.76,-246.97C204.51,-253.29 364.71,-260.83 417,-238 427.66,-233.34 425.26,-225.36 435,-219 446.47,-211.5 460.28,-205.77 472.91,-201.55"/>
<polygon fill="midnightblue" stroke="midnightblue" points="115.79,-243.47 105.57,-246.23 115.28,-250.45 115.79,-243.47"/>
</g>
<!-- Node19 -->
<g id="node19" class="node">
<title>Node19</title>
<g id="a_node19"><a xlink:href="class_c_p_s_1_1_attribute.html" target="_top" xlink:title=" ">
<polygon fill="none" stroke="black" points="435,-102.5 435,-121.5 587,-121.5 587,-102.5 435,-102.5"/>
<text text-anchor="middle" x="511" y="-109.5" font-family="Helvetica" font-size="10.00">CPS::Attribute&lt; MatrixComp &gt;</text>
</a>
</g>
</g>
<!-- Node7&#45;&gt;Node19 -->
<g id="edge26" class="edge">
<title>Node7&#45;&gt;Node19</title>
<path fill="none" stroke="midnightblue" d="M58.16,-222.49C65.52,-184.25 87.76,-100.11 145,-65 261,6.15 436.65,-73.63 492.38,-102.44"/>
<polygon fill="midnightblue" stroke="midnightblue" points="54.71,-221.93 56.39,-232.39 61.6,-223.16 54.71,-221.93"/>
</g>
<!-- Node8 -->
<g id="node8" class="node">
<title>Node8</title>
<g id="a_node8"><a xlink:title=" ">
<polygon fill="none" stroke="#bfbfbf" points="160,-270.5 160,-311.5 268,-311.5 268,-270.5 160,-270.5"/>
<text text-anchor="start" x="168" y="-299.5" font-family="Helvetica" font-size="10.00">std::enable_shared</text>
<text text-anchor="start" x="168" y="-288.5" font-family="Helvetica" font-size="10.00">_from_this&lt; Attribute</text>
<text text-anchor="middle" x="214" y="-277.5" font-family="Helvetica" font-size="10.00">&lt; String &gt; &gt;</text>
</a>
</g>
</g>
<!-- Node8&#45;&gt;Node6 -->
<g id="edge7" class="edge">
<title>Node8&#45;&gt;Node6</title>
<path fill="none" stroke="midnightblue" d="M278.22,-288.64C328.71,-286.76 399.03,-284.14 448.94,-282.28"/>
<polygon fill="midnightblue" stroke="midnightblue" points="277.94,-285.15 268.08,-289.02 278.2,-292.15 277.94,-285.15"/>
</g>
<!-- Node9&#45;&gt;Node6 -->
<g id="edge8" class="edge">
<title>Node9&#45;&gt;Node6</title>
<path fill="none" stroke="orange" stroke-dasharray="5,2" d="M261.79,-216.06C320.3,-231.13 419.27,-256.63 472.86,-270.43"/>
<polygon fill="orange" stroke="orange" points="262.62,-212.65 252.06,-213.55 260.87,-219.43 262.62,-212.65"/>
<text text-anchor="middle" x="359" y="-258" font-family="Helvetica" font-size="10.00"> &lt; String &gt;</text>
</g>
<!-- Node9&#45;&gt;Node12 -->
<g id="edge16" class="edge">
<title>Node9&#45;&gt;Node12</title>
<path fill="none" stroke="orange" stroke-dasharray="5,2" d="M233.31,-220.47C250.04,-234.91 275.91,-255.76 301,-270 353.12,-299.58 417.88,-323.53 461.38,-337.97"/>
<polygon fill="orange" stroke="orange" points="235.27,-217.54 225.45,-213.58 230.66,-222.8 235.27,-217.54"/>
<text text-anchor="middle" x="359" y="-323" font-family="Helvetica" font-size="10.00"> &lt; MatrixVar&lt; VarType &gt; &gt;</text>
</g>
<!-- Node9&#45;&gt;Node15 -->
<g id="edge22" class="edge">
<title>Node9&#45;&gt;Node15</title>
<path fill="none" stroke="orange" stroke-dasharray="5,2" d="M276.3,-195.23C284.59,-194.32 292.99,-193.53 301,-193 350.42,-189.73 406.56,-189.67 448.2,-190.31"/>
<polygon fill="orange" stroke="orange" points="275.81,-191.76 266.29,-196.4 276.63,-198.71 275.81,-191.76"/>
<text text-anchor="middle" x="359" y="-196" font-family="Helvetica" font-size="10.00"> &lt; Matrix &gt;</text>
</g>
<!-- Node9&#45;&gt;Node19 -->
<g id="edge28" class="edge">
<title>Node9&#45;&gt;Node19</title>
<path fill="none" stroke="orange" stroke-dasharray="5,2" d="M266.02,-191.41C271.83,-189.49 277.6,-187.35 283,-185 291.6,-181.26 292.43,-177.81 301,-174 355.81,-149.62 422.87,-131.66 466,-121.52"/>
<polygon fill="orange" stroke="orange" points="264.78,-188.13 256.27,-194.44 266.86,-194.82 264.78,-188.13"/>
<text text-anchor="middle" x="359" y="-177" font-family="Helvetica" font-size="10.00"> &lt; MatrixComp &gt;</text>
</g>
<!-- Node10 -->
<g id="node10" class="node">
<title>Node10</title>
<g id="a_node10"><a xlink:title=" ">
<polygon fill="none" stroke="#bfbfbf" points="0,-0.5 0,-41.5 108,-41.5 108,-0.5 0,-0.5"/>
<text text-anchor="start" x="8" y="-29.5" font-family="Helvetica" font-size="10.00">std::enable_shared</text>
<text text-anchor="start" x="8" y="-18.5" font-family="Helvetica" font-size="10.00">_from_this&lt; Attribute</text>
<text text-anchor="middle" x="54" y="-7.5" font-family="Helvetica" font-size="10.00">&lt; T &gt; &gt;</text>
</a>
</g>
</g>
<!-- Node10&#45;&gt;Node9 -->
<g id="edge10" class="edge">
<title>Node10&#45;&gt;Node9</title>
<path fill="none" stroke="midnightblue" d="M63.61,-51.27C75.7,-88.3 101.28,-150.31 145,-185 149.99,-188.96 155.76,-192.1 161.79,-194.58"/>
<polygon fill="midnightblue" stroke="midnightblue" points="66.89,-50.03 60.55,-41.53 60.21,-52.12 66.89,-50.03"/>
</g>
<!-- Node11&#45;&gt;Node2 -->
<g id="edge11" class="edge">
<title>Node11&#45;&gt;Node2</title>
<path fill="none" stroke="orange" stroke-dasharray="5,2" d="M1263.21,-294.11C1317.28,-286.39 1391.62,-275.77 1442.92,-268.44"/>
<polygon fill="orange" stroke="orange" points="1262.43,-290.69 1253.02,-295.57 1263.42,-297.62 1262.43,-290.69"/>
<text text-anchor="middle" x="1334.5" y="-295" font-family="Helvetica" font-size="10.00"> &lt; Real &gt;</text>
</g>
<!-- Node12&#45;&gt;Node11 -->
<g id="edge13" class="edge">
<title>Node12&#45;&gt;Node11</title>
<path fill="none" stroke="#9a32cd" stroke-dasharray="5,2" d="M586.93,-347.6C723.2,-337.78 1008.94,-317.19 1132.72,-308.27"/>
<polygon fill="#9a32cd" stroke="#9a32cd" points="586.31,-344.14 576.59,-348.35 586.81,-351.12 586.31,-344.14"/>
<text text-anchor="middle" x="845" y="-344" font-family="Helvetica" font-size="10.00"> mIntfCurrent</text>
<text text-anchor="middle" x="845" y="-333" font-family="Helvetica" font-size="10.00">mIntfVoltage</text>
</g>
<!-- Node13 -->
<g id="node13" class="node">
<title>Node13</title>
<g id="a_node13"><a xlink:title=" ">
<polygon fill="none" stroke="#bfbfbf" points="145,-406.5 145,-447.5 283,-447.5 283,-406.5 145,-406.5"/>
<text text-anchor="start" x="153" y="-435.5" font-family="Helvetica" font-size="10.00">std::enable_shared</text>
<text text-anchor="start" x="153" y="-424.5" font-family="Helvetica" font-size="10.00">_from_this&lt; Attribute</text>
<text text-anchor="middle" x="214" y="-413.5" font-family="Helvetica" font-size="10.00">&lt; MatrixVar&lt; VarType &gt; &gt; &gt;</text>
</a>
</g>
</g>
<!-- Node13&#45;&gt;Node12 -->
<g id="edge15" class="edge">
<title>Node13&#45;&gt;Node12</title>
<path fill="none" stroke="midnightblue" d="M293.15,-417.65C331.01,-412.07 376.86,-403.73 417,-392 438.17,-385.81 461.03,-376.27 478.79,-368.17"/>
<polygon fill="midnightblue" stroke="midnightblue" points="292.6,-414.2 283.2,-419.08 293.6,-421.12 292.6,-414.2"/>
</g>
<!-- Node14&#45;&gt;Node1 -->
<g id="edge17" class="edge">
<title>Node14&#45;&gt;Node1</title>
<path fill="none" stroke="midnightblue" d="M804.4,-215C848.74,-215 910.07,-215 964,-215 964,-215 964,-215 1504,-215 1544.37,-215 1589.01,-212.59 1626.75,-209.84"/>
<polygon fill="midnightblue" stroke="midnightblue" points="804.35,-211.5 794.35,-215 804.35,-218.5 804.35,-211.5"/>
</g>
<!-- Node15&#45;&gt;Node14 -->
<g id="edge19" class="edge">
<title>Node15&#45;&gt;Node14</title>
<path fill="none" stroke="#9a32cd" stroke-dasharray="5,2" d="M583.49,-198.67C610.04,-201.2 640.4,-204.16 668,-207 675.1,-207.73 682.59,-208.52 689.96,-209.32"/>
<polygon fill="#9a32cd" stroke="#9a32cd" points="583.8,-195.19 573.52,-197.72 583.14,-202.16 583.8,-195.19"/>
<text text-anchor="middle" x="636.5" y="-210" font-family="Helvetica" font-size="10.00"> mRightVector</text>
</g>
<!-- Node16 -->
<g id="node16" class="node">
<title>Node16</title>
<g id="a_node16"><a xlink:title=" ">
<polygon fill="none" stroke="#bfbfbf" points="160,-134.5 160,-175.5 268,-175.5 268,-134.5 160,-134.5"/>
<text text-anchor="start" x="168" y="-163.5" font-family="Helvetica" font-size="10.00">std::enable_shared</text>
<text text-anchor="start" x="168" y="-152.5" font-family="Helvetica" font-size="10.00">_from_this&lt; Attribute</text>
<text text-anchor="middle" x="214" y="-141.5" font-family="Helvetica" font-size="10.00">&lt; Matrix &gt; &gt;</text>
</a>
</g>
</g>
<!-- Node16&#45;&gt;Node15 -->
<g id="edge21" class="edge">
<title>Node16&#45;&gt;Node15</title>
<path fill="none" stroke="midnightblue" d="M278.15,-139.28C318.48,-131.85 371.54,-126.96 417,-139 448.8,-147.42 481.08,-169.54 497.98,-182.38"/>
<polygon fill="midnightblue" stroke="midnightblue" points="277.34,-135.87 268.19,-141.22 278.67,-142.75 277.34,-135.87"/>
</g>
<!-- Node17 -->
<g id="node17" class="node">
<title>Node17</title>
<g id="a_node17"><a xlink:href="class_shared_factory.html" target="_top" xlink:title=" ">
<polygon fill="none" stroke="black" points="1416,-156 1416,-186 1590,-186 1590,-156 1416,-156"/>
<text text-anchor="start" x="1424" y="-174" font-family="Helvetica" font-size="10.00">SharedFactory&lt; SynchronGenerator</text>
<text text-anchor="middle" x="1503" y="-163" font-family="Helvetica" font-size="10.00">Ideal &gt;</text>
</a>
</g>
</g>
<!-- Node17&#45;&gt;Node1 -->
<g id="edge23" class="edge">
<title>Node17&#45;&gt;Node1</title>
<path fill="none" stroke="midnightblue" d="M1600.16,-185.16C1609.01,-186.46 1617.94,-187.78 1626.7,-189.07"/>
<polygon fill="midnightblue" stroke="midnightblue" points="1600.63,-181.69 1590.23,-183.7 1599.61,-188.62 1600.63,-181.69"/>
</g>
<!-- Node18 -->
<g id="node18" class="node">
<title>Node18</title>
<g id="a_node18"><a xlink:href="class_shared_factory.html" target="_top" xlink:title=" ">
<polygon fill="none" stroke="black" points="1140.5,-161.5 1140.5,-180.5 1245.5,-180.5 1245.5,-161.5 1140.5,-161.5"/>
<text text-anchor="middle" x="1193" y="-168.5" font-family="Helvetica" font-size="10.00">SharedFactory&lt; T &gt;</text>
</a>
</g>
</g>
<!-- Node18&#45;&gt;Node17 -->
<g id="edge24" class="edge">
<title>Node18&#45;&gt;Node17</title>
<path fill="none" stroke="orange" stroke-dasharray="5,2" d="M1255.67,-171C1301.61,-171 1364.94,-171 1415.88,-171"/>
<polygon fill="orange" stroke="orange" points="1255.55,-167.5 1245.55,-171 1255.55,-174.5 1255.55,-167.5"/>
<text text-anchor="middle" x="1334.5" y="-174" font-family="Helvetica" font-size="10.00"> &lt; SynchronGeneratorIdeal &gt;</text>
</g>
<!-- Node19&#45;&gt;Node1 -->
<g id="edge25" class="edge">
<title>Node19&#45;&gt;Node1</title>
<path fill="none" stroke="#9a32cd" stroke-dasharray="5,2" d="M597.19,-114.74C640.28,-115.91 693.42,-117 741,-117 741,-117 741,-117 1504,-117 1577.9,-117 1656.47,-162.6 1693.22,-187"/>
<polygon fill="#9a32cd" stroke="#9a32cd" points="597.12,-111.24 587.02,-114.46 596.92,-118.24 597.12,-111.24"/>
<text text-anchor="middle" x="1085.5" y="-120" font-family="Helvetica" font-size="10.00"> mRefVoltage</text>
</g>
<!-- Node20 -->
<g id="node20" class="node">
<title>Node20</title>
<g id="a_node20"><a xlink:title=" ">
<polygon fill="none" stroke="#bfbfbf" points="160,-74.5 160,-115.5 268,-115.5 268,-74.5 160,-74.5"/>
<text text-anchor="start" x="168" y="-103.5" font-family="Helvetica" font-size="10.00">std::enable_shared</text>
<text text-anchor="start" x="168" y="-92.5" font-family="Helvetica" font-size="10.00">_from_this&lt; Attribute</text>
<text text-anchor="middle" x="214" y="-81.5" font-family="Helvetica" font-size="10.00">&lt; MatrixComp &gt; &gt;</text>
</a>
</g>
</g>
<!-- Node20&#45;&gt;Node19 -->
<g id="edge27" class="edge">
<title>Node20&#45;&gt;Node19</title>
<path fill="none" stroke="midnightblue" d="M278.2,-98.64C324.12,-101.29 386.43,-104.88 434.89,-107.67"/>
<polygon fill="midnightblue" stroke="midnightblue" points="278.27,-95.14 268.08,-98.06 277.86,-102.13 278.27,-95.14"/>
</g>
</g>
</svg>
        <g id="navigator" transform="translate(0 0)" fill="#404254">
                <rect fill="#f2f5e9" fill-opacity="0.5" stroke="#606060" stroke-width=".5" x="0" y="0" width="60" height="60"/>
                <use id="zoomplus" xlink:href="#zoomPlus" x="17" y="9" onmousedown="handleZoom(evt,'in')"/>
                <use id="zoomminus" xlink:href="#zoomMin" x="42" y="9" onmousedown="handleZoom(evt,'out')"/>
                <use id="reset" xlink:href="#resetDef" x="30" y="36" onmousedown="handleReset()"/>
                <g id="arrowUp" xlink:href="#dirArrow" transform="translate(30 24)" onmousedown="handlePan(0,-1)">
                  <use xlink:href="#rim" fill="#404040">
                        <set attributeName="fill" to="#808080" begin="arrowUp.mouseover" end="arrowUp.mouseout"/>
                  </use>
                  <path fill="none" stroke="white" stroke-width="1.5" d="M0,-3.0v7 M-2.5,-0.5L0,-3.0L2.5,-0.5"/>
                </g>
                <g id="arrowRight" xlink:href="#dirArrow" transform="rotate(90) translate(36 -43)" onmousedown="handlePan(1,0)">
                  <use xlink:href="#rim" fill="#404040">
                        <set attributeName="fill" to="#808080" begin="arrowRight.mouseover" end="arrowRight.mouseout"/>
                  </use>
                  <path fill="none" stroke="white" stroke-width="1.5" d="M0,-3.0v7 M-2.5,-0.5L0,-3.0L2.5,-0.5"/>
                </g>
                <g id="arrowDown" xlink:href="#dirArrow" transform="rotate(180) translate(-30 -48)" onmousedown="handlePan(0,1)">
                  <use xlink:href="#rim" fill="#404040">
                        <set attributeName="fill" to="#808080" begin="arrowDown.mouseover" end="arrowDown.mouseout"/>
                  </use>
                  <path fill="none" stroke="white" stroke-width="1.5" d="M0,-3.0v7 M-2.5,-0.5L0,-3.0L2.5,-0.5"/>
                </g>
                <g id="arrowLeft" xlink:href="#dirArrow" transform="rotate(270) translate(-36 17)" onmousedown="handlePan(-1,0)">
                  <use xlink:href="#rim" fill="#404040">
                        <set attributeName="fill" to="#808080" begin="arrowLeft.mouseover" end="arrowLeft.mouseout"/>
                  </use>
                  <path fill="none" stroke="white" stroke-width="1.5" d="M0,-3.0v7 M-2.5,-0.5L0,-3.0L2.5,-0.5"/>
                </g>
        </g>
        <svg viewBox="0 0 15 15" width="100%" height="30px" preserveAspectRatio="xMaxYMin meet">
         <g id="arrow_out" transform="scale(0.3 0.3)">
          <a xlink:href="class_c_p_s_1_1_e_m_t_1_1_ph3_1_1_synchron_generator_ideal__coll__graph_org.svg" target="_base">
           <rect id="button" ry="5" rx="5" y="6" x="6" height="38" width="38"
                fill="#f2f5e9" fill-opacity="0.5" stroke="#606060" stroke-width="1.0"/>
           <path id="arrow"
             d="M 11.500037,31.436501 C 11.940474,20.09759 22.043105,11.32322 32.158766,21.979434 L 37.068811,17.246167 C 37.068811,17.246167 37.088388,32 37.088388,32 L 22.160133,31.978069 C 22.160133,31.978069 26.997745,27.140456 26.997745,27.140456 C 18.528582,18.264221 13.291696,25.230495 11.500037,31.436501 z"
             style="fill:#404040;"/>
          </a>
         </g>
        </svg>
</svg>
