<?xml version="1.0" encoding="UTF-8" standalone="no"?>
<!DOCTYPE svg PUBLIC "-//W3C//DTD SVG 1.1//EN"
 "http://www.w3.org/Graphics/SVG/1.1/DTD/svg11.dtd">
<!-- Generated by graphviz version 12.2.1 (20241206.2353)
 -->
<!-- Title: CPS::EMT::Ph3::SynchronGenerator5OrderVBR Pages: 1 -->
<svg width="1763pt" height="226pt"
 viewBox="0.00 0.00 1762.75 225.50" xmlns="http://www.w3.org/2000/svg" xmlns:xlink="http://www.w3.org/1999/xlink">
<g id="graph0" class="graph" transform="scale(1 1) rotate(0) translate(4 221.5)">
<title>CPS::EMT::Ph3::SynchronGenerator5OrderVBR</title>
<!-- Node1 -->
<g id="Node000001" class="node">
<title>Node1</title>
<g id="a_Node000001"><a xlink:title="Voltage&#45;Behind&#45;Reactance (VBR) implementation of 5th type 2 order synchronous generator model Ref: Mi...">
<polygon fill="#999999" stroke="#666666" points="1754.75,-63.5 1568.5,-63.5 1568.5,-27 1754.75,-27 1754.75,-63.5"/>
<text text-anchor="start" x="1576.5" y="-50" font-family="Helvetica,sans-Serif" font-size="10.00">CPS::EMT::Ph3::SynchronGenerator5</text>
<text text-anchor="middle" x="1661.62" y="-35.75" font-family="Helvetica,sans-Serif" font-size="10.00">OrderVBR</text>
</a>
</g>
</g>
<!-- Node2 -->
<g id="Node000002" class="node">
<title>Node2</title>
<g id="a_Node000002"><a xlink:href="class_c_p_s_1_1_e_m_t_1_1_ph3_1_1_reduced_order_synchron_generator_v_b_r.html" target="_top" xlink:title="Base class for EMT VBR simplefied synchronous generator models.">
<polygon fill="white" stroke="#666666" points="1515.75,-91.5 1358.75,-91.5 1358.75,-55 1515.75,-55 1515.75,-91.5"/>
<text text-anchor="start" x="1366.75" y="-78" font-family="Helvetica,sans-Serif" font-size="10.00">CPS::EMT::Ph3::ReducedOrder</text>
<text text-anchor="middle" x="1437.25" y="-63.75" font-family="Helvetica,sans-Serif" font-size="10.00">SynchronGeneratorVBR</text>
</a>
</g>
</g>
<!-- Node2&#45;&gt;Node1 -->
<g id="edge1_Node000001_Node000002" class="edge">
<title>Node2&#45;&gt;Node1</title>
<g id="a_edge1_Node000001_Node000002"><a xlink:title=" ">
<path fill="none" stroke="#63b8ff" d="M1527.27,-62.04C1540.8,-60.34 1554.79,-58.58 1568.39,-56.86"/>
<polygon fill="#63b8ff" stroke="#63b8ff" points="1527.01,-58.55 1517.53,-63.27 1527.89,-65.49 1527.01,-58.55"/>
</a>
</g>
</g>
<!-- Node3 -->
<g id="Node000003" class="node">
<title>Node3</title>
<g id="a_Node000003"><a xlink:href="class_c_p_s_1_1_base_1_1_reduced_order_synchron_generator.html" target="_top" xlink:title=" ">
<polygon fill="white" stroke="#bfbfbf" points="1171.25,-132.5 992.5,-132.5 992.5,-96 1171.25,-96 1171.25,-132.5"/>
<text text-anchor="start" x="1000.5" y="-119" font-family="Helvetica,sans-Serif" font-size="10.00">CPS::Base::ReducedOrderSynchron</text>
<text text-anchor="middle" x="1081.88" y="-104.75" font-family="Helvetica,sans-Serif" font-size="10.00">Generator&lt; Real &gt;</text>
</a>
</g>
</g>
<!-- Node3&#45;&gt;Node2 -->
<g id="edge2_Node000002_Node000003" class="edge">
<title>Node3&#45;&gt;Node2</title>
<g id="a_edge2_Node000002_Node000003"><a xlink:title=" ">
<path fill="none" stroke="#63b8ff" d="M1182.9,-102.65C1238.51,-96.19 1306.7,-88.28 1358.33,-82.29"/>
<polygon fill="#63b8ff" stroke="#63b8ff" points="1182.62,-99.15 1173.09,-103.78 1183.43,-106.11 1182.62,-99.15"/>
</a>
</g>
</g>
<!-- Node4 -->
<g id="Node000004" class="node">
<title>Node4</title>
<g id="a_Node000004"><a xlink:href="class_c_p_s_1_1_m_n_a_sim_power_comp.html" target="_top" xlink:title=" ">
<polygon fill="white" stroke="#666666" points="896.88,-162.5 760.88,-162.5 760.88,-126 896.88,-126 896.88,-162.5"/>
<text text-anchor="start" x="768.88" y="-149" font-family="Helvetica,sans-Serif" font-size="10.00">CPS::MNASimPowerComp</text>
<text text-anchor="middle" x="828.88" y="-134.75" font-family="Helvetica,sans-Serif" font-size="10.00">&lt; Real &gt;</text>
</a>
</g>
</g>
<!-- Node4&#45;&gt;Node3 -->
<g id="edge3_Node000003_Node000004" class="edge">
<title>Node4&#45;&gt;Node3</title>
<g id="a_edge3_Node000003_Node000004"><a xlink:title=" ">
<path fill="none" stroke="#63b8ff" d="M908.32,-134.87C934.92,-131.69 964.82,-128.12 992.16,-124.85"/>
<polygon fill="#63b8ff" stroke="#63b8ff" points="908.16,-131.37 898.64,-136.03 908.99,-138.32 908.16,-131.37"/>
</a>
</g>
</g>
<!-- Node5 -->
<g id="Node000005" class="node">
<title>Node5</title>
<g id="a_Node000005"><a xlink:href="class_c_p_s_1_1_sim_power_comp.html" target="_top" xlink:title=" ">
<polygon fill="white" stroke="#666666" points="656.62,-217.5 537.88,-217.5 537.88,-181 656.62,-181 656.62,-217.5"/>
<text text-anchor="start" x="545.88" y="-204" font-family="Helvetica,sans-Serif" font-size="10.00">CPS::SimPowerComp&lt;</text>
<text text-anchor="middle" x="597.25" y="-189.75" font-family="Helvetica,sans-Serif" font-size="10.00"> Real &gt;</text>
</a>
</g>
</g>
<!-- Node5&#45;&gt;Node4 -->
<g id="edge4_Node000004_Node000005" class="edge">
<title>Node5&#45;&gt;Node4</title>
<g id="a_edge4_Node000004_Node000005"><a xlink:title=" ">
<path fill="none" stroke="#63b8ff" d="M668.1,-182.52C697.5,-175.48 731.56,-167.32 760.66,-160.35"/>
<polygon fill="#63b8ff" stroke="#63b8ff" points="667.47,-179.07 658.56,-184.8 669.1,-185.88 667.47,-179.07"/>
</a>
</g>
</g>
<!-- Node6 -->
<g id="Node000006" class="node">
<title>Node6</title>
<g id="a_Node000006"><a xlink:href="class_c_p_s_1_1_topological_power_comp.html" target="_top" xlink:title=" ">
<polygon fill="white" stroke="#666666" points="299.25,-183.38 152,-183.38 152,-161.12 299.25,-161.12 299.25,-183.38"/>
<text text-anchor="middle" x="225.62" y="-169.88" font-family="Helvetica,sans-Serif" font-size="10.00">CPS::TopologicalPowerComp</text>
</a>
</g>
</g>
<!-- Node6&#45;&gt;Node5 -->
<g id="edge5_Node000005_Node000006" class="edge">
<title>Node6&#45;&gt;Node5</title>
<g id="a_edge5_Node000005_Node000006"><a xlink:title=" ">
<path fill="none" stroke="#63b8ff" d="M276.23,-186.75C294.88,-191.6 316.38,-196.47 336.25,-199.25 413.31,-210.03 433.47,-206.54 511.25,-204.25 519.82,-204 528.87,-203.6 537.74,-203.14"/>
<polygon fill="#63b8ff" stroke="#63b8ff" points="277.34,-183.43 266.78,-184.23 275.53,-190.19 277.34,-183.43"/>
</a>
</g>
</g>
<!-- Node8 -->
<g id="Node000008" class="node">
<title>Node8</title>
<g id="a_Node000008"><a xlink:href="class_c_p_s_1_1_sim_power_comp.html" target="_top" xlink:title="Base class for all components that are transmitting power.">
<polygon fill="white" stroke="#666666" points="455,-190.5 336.25,-190.5 336.25,-154 455,-154 455,-190.5"/>
<text text-anchor="start" x="344.25" y="-177" font-family="Helvetica,sans-Serif" font-size="10.00">CPS::SimPowerComp&lt;</text>
<text text-anchor="middle" x="395.62" y="-162.75" font-family="Helvetica,sans-Serif" font-size="10.00"> VarType &gt;</text>
</a>
</g>
</g>
<!-- Node6&#45;&gt;Node8 -->
<g id="edge8_Node000008_Node000006" class="edge">
<title>Node6&#45;&gt;Node8</title>
<g id="a_edge8_Node000008_Node000006"><a xlink:title=" ">
<path fill="none" stroke="#63b8ff" d="M310.58,-172.25C319.16,-172.25 327.74,-172.25 335.96,-172.25"/>
<polygon fill="#63b8ff" stroke="#63b8ff" points="310.85,-168.75 300.85,-172.25 310.85,-175.75 310.85,-168.75"/>
</a>
</g>
</g>
<!-- Node11 -->
<g id="Node000011" class="node">
<title>Node11</title>
<g id="a_Node000011"><a xlink:href="class_c_p_s_1_1_sim_power_comp.html" target="_top" xlink:title="Base class for all components that are transmitting power.">
<polygon fill="white" stroke="#666666" points="455,-95.5 336.25,-95.5 336.25,-59 455,-59 455,-95.5"/>
<text text-anchor="start" x="344.25" y="-82" font-family="Helvetica,sans-Serif" font-size="10.00">CPS::SimPowerComp&lt;</text>
<text text-anchor="middle" x="395.62" y="-67.75" font-family="Helvetica,sans-Serif" font-size="10.00"> VarType &gt;</text>
</a>
</g>
</g>
<!-- Node6&#45;&gt;Node11 -->
<g id="edge12_Node000011_Node000006" class="edge">
<title>Node6&#45;&gt;Node11</title>
<g id="a_edge12_Node000011_Node000006"><a xlink:title=" ">
<path fill="none" stroke="#63b8ff" d="M253.76,-154.6C275.68,-140.61 307.49,-120.88 336.25,-105.25 342.08,-102.08 348.32,-98.89 354.47,-95.85"/>
<polygon fill="#63b8ff" stroke="#63b8ff" points="251.94,-151.61 245.42,-159.96 255.73,-157.5 251.94,-151.61"/>
</a>
</g>
</g>
<!-- Node7 -->
<g id="Node000007" class="node">
<title>Node7</title>
<g id="a_Node000007"><a xlink:href="class_c_p_s_1_1_identified_object.html" target="_top" xlink:title=" ">
<polygon fill="white" stroke="#666666" points="115,-183.38 0,-183.38 0,-161.12 115,-161.12 115,-183.38"/>
<text text-anchor="middle" x="57.5" y="-169.88" font-family="Helvetica,sans-Serif" font-size="10.00">CPS::IdentifiedObject</text>
</a>
</g>
</g>
<!-- Node7&#45;&gt;Node6 -->
<g id="edge6_Node000006_Node000007" class="edge">
<title>Node7&#45;&gt;Node6</title>
<g id="a_edge6_Node000006_Node000007"><a xlink:title=" ">
<path fill="none" stroke="#63b8ff" d="M126.7,-172.25C134.95,-172.25 143.41,-172.25 151.73,-172.25"/>
<polygon fill="#63b8ff" stroke="#63b8ff" points="126.72,-168.75 116.72,-172.25 126.72,-175.75 126.72,-168.75"/>
</a>
</g>
</g>
<!-- Node8&#45;&gt;Node5 -->
<g id="edge7_Node000005_Node000008" class="edge">
<title>Node8&#45;&gt;Node5</title>
<g id="a_edge7_Node000005_Node000008"><a xlink:title=" ">
<path fill="none" stroke="orange" stroke-dasharray="5,2" d="M466.6,-181.71C489.76,-184.85 515.28,-188.3 537.51,-191.31"/>
<polygon fill="orange" stroke="orange" points="467.32,-178.28 456.94,-180.41 466.38,-185.22 467.32,-178.28"/>
</a>
</g>
<text text-anchor="middle" x="492.12" y="-192.12" font-family="Helvetica,sans-Serif" font-size="10.00" fill="grey"> &lt; Real &gt;</text>
</g>
<!-- Node9 -->
<g id="Node000009" class="node">
<title>Node9</title>
<g id="a_Node000009"><a xlink:href="class_c_p_s_1_1_m_n_a_interface.html" target="_top" xlink:title="Interface to be implemented by all models used by the MNA solver.">
<polygon fill="white" stroke="#666666" points="448.62,-136.38 342.62,-136.38 342.62,-114.12 448.62,-114.12 448.62,-136.38"/>
<text text-anchor="middle" x="395.62" y="-122.88" font-family="Helvetica,sans-Serif" font-size="10.00">CPS::MNAInterface</text>
</a>
</g>
</g>
<!-- Node9&#45;&gt;Node4 -->
<g id="edge9_Node000004_Node000009" class="edge">
<title>Node9&#45;&gt;Node4</title>
<g id="a_edge9_Node000004_Node000009"><a xlink:title=" ">
<path fill="none" stroke="#63b8ff" d="M460.36,-130.02C482.19,-131.54 506.78,-133.11 529.25,-134.25 608.64,-138.27 700,-141.06 760.54,-142.65"/>
<polygon fill="#63b8ff" stroke="#63b8ff" points="460.61,-126.53 450.39,-129.32 460.12,-133.51 460.61,-126.53"/>
</a>
</g>
</g>
<!-- Node10 -->
<g id="Node000010" class="node">
<title>Node10</title>
<g id="a_Node000010"><a xlink:href="class_c_p_s_1_1_m_n_a_sim_power_comp.html" target="_top" xlink:title="Base class for all MNA components that are transmitting power.">
<polygon fill="white" stroke="#666666" points="665.25,-125.5 529.25,-125.5 529.25,-89 665.25,-89 665.25,-125.5"/>
<text text-anchor="start" x="537.25" y="-112" font-family="Helvetica,sans-Serif" font-size="10.00">CPS::MNASimPowerComp</text>
<text text-anchor="middle" x="597.25" y="-97.75" font-family="Helvetica,sans-Serif" font-size="10.00">&lt; VarType &gt;</text>
</a>
</g>
</g>
<!-- Node9&#45;&gt;Node10 -->
<g id="edge13_Node000010_Node000009" class="edge">
<title>Node9&#45;&gt;Node10</title>
<g id="a_edge13_Node000010_Node000009"><a xlink:title=" ">
<path fill="none" stroke="#63b8ff" d="M460.28,-119.51C482.23,-117.53 506.88,-115.31 529.1,-113.3"/>
<polygon fill="#63b8ff" stroke="#63b8ff" points="460.23,-116 450.58,-120.38 460.86,-122.97 460.23,-116"/>
</a>
</g>
</g>
<!-- Node13 -->
<g id="Node000013" class="node">
<title>Node13</title>
<g id="a_Node000013"><a xlink:href="class_c_p_s_1_1_m_n_a_sim_power_comp.html" target="_top" xlink:title="Base class for all MNA components that are transmitting power.">
<polygon fill="white" stroke="#666666" points="665.25,-70.5 529.25,-70.5 529.25,-34 665.25,-34 665.25,-70.5"/>
<text text-anchor="start" x="537.25" y="-57" font-family="Helvetica,sans-Serif" font-size="10.00">CPS::MNASimPowerComp</text>
<text text-anchor="middle" x="597.25" y="-42.75" font-family="Helvetica,sans-Serif" font-size="10.00">&lt; VarType &gt;</text>
</a>
</g>
</g>
<!-- Node9&#45;&gt;Node13 -->
<g id="edge17_Node000013_Node000009" class="edge">
<title>Node9&#45;&gt;Node13</title>
<g id="a_edge17_Node000013_Node000009"><a xlink:title=" ">
<path fill="none" stroke="#63b8ff" d="M439.59,-109.84C444.78,-107.96 450.01,-106.07 455,-104.25 485.08,-93.3 518.72,-80.93 545.62,-70.99"/>
<polygon fill="#63b8ff" stroke="#63b8ff" points="438.71,-106.43 430.49,-113.12 441.08,-113.02 438.71,-106.43"/>
</a>
</g>
</g>
<!-- Node10&#45;&gt;Node4 -->
<g id="edge10_Node000004_Node000010" class="edge">
<title>Node10&#45;&gt;Node4</title>
<g id="a_edge10_Node000004_Node000010"><a xlink:title=" ">
<path fill="none" stroke="orange" stroke-dasharray="5,2" d="M676.73,-118.12C691.61,-120.3 707.05,-122.65 721.5,-125 734.1,-127.05 747.51,-129.36 760.41,-131.66"/>
<polygon fill="orange" stroke="orange" points="677.38,-114.68 666.98,-116.7 676.37,-121.61 677.38,-114.68"/>
</a>
</g>
<text text-anchor="middle" x="702.38" y="-129.75" font-family="Helvetica,sans-Serif" font-size="10.00" fill="grey"> &lt; Real &gt;</text>
</g>
<!-- Node11&#45;&gt;Node10 -->
<g id="edge11_Node000010_Node000011" class="edge">
<title>Node11&#45;&gt;Node10</title>
<g id="a_edge11_Node000010_Node000011"><a xlink:title=" ">
<path fill="none" stroke="#63b8ff" d="M466.79,-87.8C487.03,-90.84 509.05,-94.14 529.09,-97.16"/>
<polygon fill="#63b8ff" stroke="#63b8ff" points="467.35,-84.34 456.94,-86.31 466.3,-91.26 467.35,-84.34"/>
</a>
</g>
</g>
<!-- Node11&#45;&gt;Node13 -->
<g id="edge16_Node000013_Node000011" class="edge">
<title>Node11&#45;&gt;Node13</title>
<g id="a_edge16_Node000013_Node000011"><a xlink:title=" ">
<path fill="none" stroke="#63b8ff" d="M466.76,-67.07C468.86,-66.79 470.95,-66.51 473,-66.25 491.15,-63.91 510.84,-61.58 529.04,-59.52"/>
<polygon fill="#63b8ff" stroke="#63b8ff" points="466.33,-63.59 456.89,-68.4 467.27,-70.53 466.33,-63.59"/>
</a>
</g>
</g>
<!-- Node12 -->
<g id="Node000012" class="node">
<title>Node12</title>
<g id="a_Node000012"><a xlink:href="class_c_p_s_1_1_base_1_1_reduced_order_synchron_generator.html" target="_top" xlink:title=" ">
<polygon fill="white" stroke="#bfbfbf" points="918.25,-101.5 739.5,-101.5 739.5,-65 918.25,-65 918.25,-101.5"/>
<text text-anchor="start" x="747.5" y="-88" font-family="Helvetica,sans-Serif" font-size="10.00">CPS::Base::ReducedOrderSynchron</text>
<text text-anchor="middle" x="828.88" y="-73.75" font-family="Helvetica,sans-Serif" font-size="10.00">Generator&lt; VarType &gt;</text>
</a>
</g>
</g>
<!-- Node12&#45;&gt;Node3 -->
<g id="edge14_Node000003_Node000012" class="edge">
<title>Node12&#45;&gt;Node3</title>
<g id="a_edge14_Node000003_Node000012"><a xlink:title=" ">
<path fill="none" stroke="orange" stroke-dasharray="5,2" d="M930.02,-95.62C950.56,-98.16 972.04,-100.81 992.15,-103.29"/>
<polygon fill="orange" stroke="orange" points="930.58,-92.16 920.22,-94.41 929.72,-99.11 930.58,-92.16"/>
</a>
</g>
<text text-anchor="middle" x="955.38" y="-105.36" font-family="Helvetica,sans-Serif" font-size="10.00" fill="grey"> &lt; Real &gt;</text>
</g>
<!-- Node13&#45;&gt;Node12 -->
<g id="edge15_Node000012_Node000013" class="edge">
<title>Node13&#45;&gt;Node12</title>
<g id="a_edge15_Node000012_Node000013"><a xlink:title=" ">
<path fill="none" stroke="#63b8ff" d="M676.88,-62.86C696.94,-65.57 718.65,-68.5 739.19,-71.28"/>
<polygon fill="#63b8ff" stroke="#63b8ff" points="677.47,-59.41 667.09,-61.54 676.54,-66.35 677.47,-59.41"/>
</a>
</g>
</g>
<!-- Node14 -->
<g id="Node000014" class="node">
<title>Node14</title>
<g id="a_Node000014"><a xlink:href="class_c_p_s_1_1_m_n_a_variable_comp_interface.html" target="_top" xlink:title="MNA interface to be used by elements that require recomputing of the system matrix.">
<polygon fill="white" stroke="#666666" points="1166.75,-78.38 997,-78.38 997,-56.12 1166.75,-56.12 1166.75,-78.38"/>
<text text-anchor="middle" x="1081.88" y="-64.88" font-family="Helvetica,sans-Serif" font-size="10.00">CPS::MNAVariableCompInterface</text>
</a>
</g>
</g>
<!-- Node14&#45;&gt;Node2 -->
<g id="edge18_Node000002_Node000014" class="edge">
<title>Node14&#45;&gt;Node2</title>
<g id="a_edge18_Node000002_Node000014"><a xlink:title=" ">
<path fill="none" stroke="#63b8ff" d="M1178.52,-68.87C1234.94,-69.83 1305.45,-71.03 1358.44,-71.93"/>
<polygon fill="#63b8ff" stroke="#63b8ff" points="1178.64,-65.38 1168.58,-68.71 1178.52,-72.37 1178.64,-65.38"/>
</a>
</g>
</g>
<!-- Node15 -->
<g id="Node000015" class="node">
<title>Node15</title>
<g id="a_Node000015"><a xlink:href="class_shared_factory.html" target="_top" xlink:title=" ">
<polygon fill="white" stroke="#666666" points="1531.5,-36.5 1343,-36.5 1343,0 1531.5,0 1531.5,-36.5"/>
<text text-anchor="start" x="1351" y="-23" font-family="Helvetica,sans-Serif" font-size="10.00">SharedFactory&lt; SynchronGenerator5</text>
<text text-anchor="middle" x="1437.25" y="-8.75" font-family="Helvetica,sans-Serif" font-size="10.00">OrderVBR &gt;</text>
</a>
</g>
</g>
<!-- Node15&#45;&gt;Node1 -->
<g id="edge19_Node000001_Node000015" class="edge">
<title>Node15&#45;&gt;Node1</title>
<g id="a_edge19_Node000001_Node000015"><a xlink:title=" ">
<path fill="none" stroke="#63b8ff" d="M1543.22,-30.99C1551.54,-32.01 1559.91,-33.02 1568.14,-34.02"/>
<polygon fill="#63b8ff" stroke="#63b8ff" points="1543.76,-27.54 1533.42,-29.8 1542.92,-34.48 1543.76,-27.54"/>
</a>
</g>
</g>
<!-- Node16 -->
<g id="Node000016" class="node">
<title>Node16</title>
<g id="a_Node000016"><a xlink:href="class_shared_factory.html" target="_top" xlink:title=" ">
<polygon fill="white" stroke="#666666" points="1134.12,-29.38 1029.62,-29.38 1029.62,-7.12 1134.12,-7.12 1134.12,-29.38"/>
<text text-anchor="middle" x="1081.88" y="-15.88" font-family="Helvetica,sans-Serif" font-size="10.00">SharedFactory&lt; T &gt;</text>
</a>
</g>
</g>
<!-- Node16&#45;&gt;Node15 -->
<g id="edge20_Node000015_Node000016" class="edge">
<title>Node16&#45;&gt;Node15</title>
<g id="a_edge20_Node000015_Node000016"><a xlink:title=" ">
<path fill="none" stroke="orange" stroke-dasharray="5,2" d="M1145.53,-18.25C1200.21,-18.25 1280.33,-18.25 1342.62,-18.25"/>
<polygon fill="orange" stroke="orange" points="1145.77,-14.75 1135.77,-18.25 1145.77,-21.75 1145.77,-14.75"/>
</a>
</g>
<text text-anchor="start" x="1189.25" y="-37.25" font-family="Helvetica,sans-Serif" font-size="10.00" fill="grey"> &lt; SynchronGenerator5Order</text>
<text text-anchor="middle" x="1257.12" y="-23" font-family="Helvetica,sans-Serif" font-size="10.00" fill="grey">VBR &gt;</text>
</g>
</g>
</svg>
