<?xml version="1.0" encoding="UTF-8" standalone="no"?>
<!DOCTYPE svg PUBLIC "-//W3C//DTD SVG 1.1//EN"
 "http://www.w3.org/Graphics/SVG/1.1/DTD/svg11.dtd">
<!-- Generated by graphviz version 2.44.0 (0)
 -->
<!-- Title: CPS::SP::Ph1::SynchronGeneratorVBR Pages: 1 -->
<!--zoomable 193 -->
<svg id="main" version="1.1" xmlns="http://www.w3.org/2000/svg" xmlns:xlink="http://www.w3.org/1999/xlink" xml:space="preserve" onload="init(evt)">
<style type="text/css"><![CDATA[
.edge:hover path { stroke: red; }
.edge:hover polygon { stroke: red; fill: red; }
]]></style>
<script type="text/javascript"><![CDATA[
var edges = document.getElementsByTagName('g');
if (edges && edges.length) {
  for (var i=0;i<edges.length;i++) {
    if (edges[i].id.substr(0,4)=='edge') {
      edges[i].setAttribute('class','edge');
    }
  }
}
]]></script>
        <defs>
                <circle id="rim" cx="0" cy="0" r="7"/>
                <circle id="rim2" cx="0" cy="0" r="3.5"/>
                <g id="zoomPlus">
                        <use xlink:href="#rim" fill="#404040">
                                <set attributeName="fill" to="#808080" begin="zoomplus.mouseover" end="zoomplus.mouseout"/>
                        </use>
                        <path d="M-4,0h8M0,-4v8" fill="none" stroke="white" stroke-width="1.5" pointer-events="none"/>
                </g>
                <g id="zoomMin">
                        <use xlink:href="#rim" fill="#404040">
                                <set attributeName="fill" to="#808080" begin="zoomminus.mouseover" end="zoomminus.mouseout"/>
                        </use>
                        <path d="M-4,0h8" fill="none" stroke="white" stroke-width="1.5" pointer-events="none"/>
                </g>
                <g id="dirArrow">
                        <path fill="none" stroke="white" stroke-width="1.5" d="M0,-3.0v7 M-2.5,-0.5L0,-3.0L2.5,-0.5"/>
                </g>
               <g id="resetDef">
                       <use xlink:href="#rim2" fill="#404040">
                               <set attributeName="fill" to="#808080" begin="reset.mouseover" end="reset.mouseout"/>
                       </use>
               </g>
        </defs>

<script type="text/javascript">
var viewWidth = 1585;
var viewHeight = 193;
var sectionId = 'dynsection-0';
</script>
<script xlink:href="svgpan.js"/>
<svg id="graph" class="graph">
<g id="viewport">
<title>CPS::SP::Ph1::SynchronGeneratorVBR</title>
<!-- Node1 -->
<g id="node1" class="node">
<title>Node1</title>
<g id="a_node1"><a xlink:title="Base class for SP VBR synchronous generator model single phase.">
<polygon fill="#bfbfbf" stroke="black" points="1168,-79 1168,-98 1359,-98 1359,-79 1168,-79"/>
<text text-anchor="middle" x="1263.5" y="-86" font-family="Helvetica" font-size="10.00">CPS::SP::Ph1::SynchronGeneratorVBR</text>
</a>
</g>
</g>
<!-- Node11 -->
<g id="node11" class="node">
<title>Node11</title>
<g id="a_node11"><a xlink:href="class_c_p_s_1_1_s_p_1_1_ph1_1_1_synchron_generator3_order_v_b_r.html" target="_top" xlink:title="Voltage&#45;Behind&#45;Reactance (VBR) implementation of 3rd order synchronous generator model.">
<polygon fill="none" stroke="black" points="1398.5,-147.5 1398.5,-177.5 1574.5,-177.5 1574.5,-147.5 1398.5,-147.5"/>
<text text-anchor="start" x="1406.5" y="-165.5" font-family="Helvetica" font-size="10.00">CPS::SP::Ph1::SynchronGenerator3</text>
<text text-anchor="middle" x="1486.5" y="-154.5" font-family="Helvetica" font-size="10.00">OrderVBR</text>
</a>
</g>
</g>
<!-- Node1&#45;&gt;Node11 -->
<g id="edge14" class="edge">
<title>Node1&#45;&gt;Node11</title>
<path fill="none" stroke="midnightblue" d="M1298.05,-101.89C1324.46,-112.22 1362.31,-126.54 1396,-137.5 1406.59,-140.94 1417.97,-144.35 1428.95,-147.48"/>
<polygon fill="midnightblue" stroke="midnightblue" points="1299.11,-98.55 1288.52,-98.15 1296.55,-105.06 1299.11,-98.55"/>
</g>
<!-- Node12 -->
<g id="node12" class="node">
<title>Node12</title>
<g id="a_node12"><a xlink:href="class_c_p_s_1_1_s_p_1_1_ph1_1_1_synchron_generator4_order_v_b_r.html" target="_top" xlink:title="Voltage&#45;Behind&#45;Reactance (VBR) implementation of 4th order synchronous generator model.">
<polygon fill="none" stroke="black" points="1398.5,-98.5 1398.5,-128.5 1574.5,-128.5 1574.5,-98.5 1398.5,-98.5"/>
<text text-anchor="start" x="1406.5" y="-116.5" font-family="Helvetica" font-size="10.00">CPS::SP::Ph1::SynchronGenerator4</text>
<text text-anchor="middle" x="1486.5" y="-105.5" font-family="Helvetica" font-size="10.00">OrderVBR</text>
</a>
</g>
</g>
<!-- Node1&#45;&gt;Node12 -->
<g id="edge15" class="edge">
<title>Node1&#45;&gt;Node12</title>
<path fill="none" stroke="midnightblue" d="M1358.65,-99.15C1371.79,-100.64 1385.25,-102.16 1398.25,-103.63"/>
<polygon fill="midnightblue" stroke="midnightblue" points="1359.01,-95.67 1348.68,-98.02 1358.22,-102.62 1359.01,-95.67"/>
</g>
<!-- Node13 -->
<g id="node13" class="node">
<title>Node13</title>
<g id="a_node13"><a xlink:href="class_c_p_s_1_1_s_p_1_1_ph1_1_1_synchron_generator6a_order_v_b_r.html" target="_top" xlink:title="Voltage&#45;Behind&#45;Reactance (VBR) implementation of 6th order synchronous generator model Marconato&#39;s mo...">
<polygon fill="none" stroke="black" points="1396,-49.5 1396,-79.5 1577,-79.5 1577,-49.5 1396,-49.5"/>
<text text-anchor="start" x="1404" y="-67.5" font-family="Helvetica" font-size="10.00">CPS::SP::Ph1::SynchronGenerator6a</text>
<text text-anchor="middle" x="1486.5" y="-56.5" font-family="Helvetica" font-size="10.00">OrderVBR</text>
</a>
</g>
</g>
<!-- Node1&#45;&gt;Node13 -->
<g id="edge16" class="edge">
<title>Node1&#45;&gt;Node13</title>
<path fill="none" stroke="midnightblue" d="M1362.32,-77.88C1373.45,-76.67 1384.75,-75.44 1395.77,-74.24"/>
<polygon fill="midnightblue" stroke="midnightblue" points="1361.73,-74.42 1352.16,-78.98 1362.48,-81.38 1361.73,-74.42"/>
</g>
<!-- Node14 -->
<g id="node14" class="node">
<title>Node14</title>
<g id="a_node14"><a xlink:href="class_c_p_s_1_1_s_p_1_1_ph1_1_1_synchron_generator6b_order_v_b_r.html" target="_top" xlink:title="Voltage&#45;Behind&#45;Reactance (VBR) implementation of 6th order synchronous generator model Anderson&#45;Fouad...">
<polygon fill="none" stroke="black" points="1396,-0.5 1396,-30.5 1577,-30.5 1577,-0.5 1396,-0.5"/>
<text text-anchor="start" x="1404" y="-18.5" font-family="Helvetica" font-size="10.00">CPS::SP::Ph1::SynchronGenerator6b</text>
<text text-anchor="middle" x="1486.5" y="-7.5" font-family="Helvetica" font-size="10.00">OrderVBR</text>
</a>
</g>
</g>
<!-- Node1&#45;&gt;Node14 -->
<g id="edge17" class="edge">
<title>Node1&#45;&gt;Node14</title>
<path fill="none" stroke="midnightblue" d="M1297.54,-75.2C1323.95,-64.8 1362.05,-50.35 1396,-39.5 1405.65,-36.41 1415.98,-33.39 1426.05,-30.59"/>
<polygon fill="midnightblue" stroke="midnightblue" points="1296.03,-72.03 1288.02,-78.97 1298.61,-78.54 1296.03,-72.03"/>
</g>
<!-- Node2 -->
<g id="node2" class="node">
<title>Node2</title>
<g id="a_node2"><a xlink:href="class_c_p_s_1_1_base_1_1_reduced_order_synchron_generator.html" target="_top" xlink:title=" ">
<polygon fill="none" stroke="black" points="955,-105.5 955,-135.5 1131,-135.5 1131,-105.5 955,-105.5"/>
<text text-anchor="start" x="963" y="-123.5" font-family="Helvetica" font-size="10.00">CPS::Base::ReducedOrderSynchron</text>
<text text-anchor="middle" x="1043" y="-112.5" font-family="Helvetica" font-size="10.00">Generator&lt; Complex &gt;</text>
</a>
</g>
</g>
<!-- Node2&#45;&gt;Node1 -->
<g id="edge1" class="edge">
<title>Node2&#45;&gt;Node1</title>
<path fill="none" stroke="midnightblue" d="M1141.21,-106.26C1160.29,-103.47 1179.85,-100.6 1197.55,-98.01"/>
<polygon fill="midnightblue" stroke="midnightblue" points="1140.69,-102.8 1131.3,-107.71 1141.7,-109.73 1140.69,-102.8"/>
</g>
<!-- Node3 -->
<g id="node3" class="node">
<title>Node3</title>
<g id="a_node3"><a xlink:href="class_c_p_s_1_1_sim_power_comp.html" target="_top" xlink:title=" ">
<polygon fill="none" stroke="black" points="710,-154.5 710,-184.5 830,-184.5 830,-154.5 710,-154.5"/>
<text text-anchor="start" x="718" y="-172.5" font-family="Helvetica" font-size="10.00">CPS::SimPowerComp&lt;</text>
<text text-anchor="middle" x="770" y="-161.5" font-family="Helvetica" font-size="10.00"> Complex &gt;</text>
</a>
</g>
</g>
<!-- Node3&#45;&gt;Node2 -->
<g id="edge2" class="edge">
<title>Node3&#45;&gt;Node2</title>
<path fill="none" stroke="midnightblue" d="M840.1,-157.01C876.26,-150.47 920.79,-142.42 958.83,-135.54"/>
<polygon fill="midnightblue" stroke="midnightblue" points="839.35,-153.58 830.14,-158.81 840.6,-160.47 839.35,-153.58"/>
</g>
<!-- Node4 -->
<g id="node4" class="node">
<title>Node4</title>
<g id="a_node4"><a xlink:href="class_c_p_s_1_1_topological_power_comp.html" target="_top" xlink:title=" ">
<polygon fill="none" stroke="black" points="282,-132 282,-151 428,-151 428,-132 282,-132"/>
<text text-anchor="middle" x="355" y="-139" font-family="Helvetica" font-size="10.00">CPS::TopologicalPowerComp</text>
</a>
</g>
</g>
<!-- Node4&#45;&gt;Node3 -->
<g id="edge3" class="edge">
<title>Node4&#45;&gt;Node3</title>
<path fill="none" stroke="midnightblue" d="M399.99,-153.59C419.71,-158.49 443.36,-163.65 465,-166.5 549.51,-177.62 648.38,-175.9 709.86,-173.12"/>
<polygon fill="midnightblue" stroke="midnightblue" points="400.62,-150.13 390.06,-151.06 398.89,-156.92 400.62,-150.13"/>
</g>
<!-- Node7 -->
<g id="node7" class="node">
<title>Node7</title>
<g id="a_node7"><a xlink:href="class_c_p_s_1_1_sim_power_comp.html" target="_top" xlink:title="Base class for all components that are transmitting power.">
<polygon fill="none" stroke="black" points="465,-126.5 465,-156.5 585,-156.5 585,-126.5 465,-126.5"/>
<text text-anchor="start" x="473" y="-144.5" font-family="Helvetica" font-size="10.00">CPS::SimPowerComp&lt;</text>
<text text-anchor="middle" x="525" y="-133.5" font-family="Helvetica" font-size="10.00"> VarType &gt;</text>
</a>
</g>
</g>
<!-- Node4&#45;&gt;Node7 -->
<g id="edge7" class="edge">
<title>Node4&#45;&gt;Node7</title>
<path fill="none" stroke="midnightblue" d="M438.34,-141.5C447.34,-141.5 456.36,-141.5 464.99,-141.5"/>
<polygon fill="midnightblue" stroke="midnightblue" points="438.22,-138 428.22,-141.5 438.22,-145 438.22,-138"/>
</g>
<!-- Node5 -->
<g id="node5" class="node">
<title>Node5</title>
<g id="a_node5"><a xlink:href="class_c_p_s_1_1_identified_object.html" target="_top" xlink:title=" ">
<polygon fill="none" stroke="black" points="133,-130 133,-149 245,-149 245,-130 133,-130"/>
<text text-anchor="middle" x="189" y="-137" font-family="Helvetica" font-size="10.00">CPS::IdentifiedObject</text>
</a>
</g>
</g>
<!-- Node5&#45;&gt;Node4 -->
<g id="edge4" class="edge">
<title>Node5&#45;&gt;Node4</title>
<path fill="none" stroke="midnightblue" d="M255.21,-140.3C263.98,-140.4 273.02,-140.51 281.89,-140.62"/>
<polygon fill="midnightblue" stroke="midnightblue" points="255.11,-136.79 245.07,-140.17 255.02,-143.79 255.11,-136.79"/>
</g>
<!-- Node6 -->
<g id="node6" class="node">
<title>Node6</title>
<g id="a_node6"><a xlink:href="class_c_p_s_1_1_attribute_list.html" target="_top" xlink:title="Base class of objects having attributes to access member variables.">
<polygon fill="none" stroke="black" points="0,-103 0,-122 96,-122 96,-103 0,-103"/>
<text text-anchor="middle" x="48" y="-110" font-family="Helvetica" font-size="10.00">CPS::AttributeList</text>
</a>
</g>
</g>
<!-- Node6&#45;&gt;Node5 -->
<g id="edge5" class="edge">
<title>Node6&#45;&gt;Node5</title>
<path fill="none" stroke="midnightblue" d="M105.99,-123.57C116.98,-125.7 128.39,-127.92 139.09,-130"/>
<polygon fill="midnightblue" stroke="midnightblue" points="106.54,-120.11 96.06,-121.64 105.21,-126.98 106.54,-120.11"/>
</g>
<!-- Node8 -->
<g id="node8" class="node">
<title>Node8</title>
<g id="a_node8"><a xlink:href="class_c_p_s_1_1_m_n_a_interface.html" target="_top" xlink:title="Interface to be implemented by all models used by the MNA solver.">
<polygon fill="none" stroke="black" points="473,-88 473,-107 577,-107 577,-88 473,-88"/>
<text text-anchor="middle" x="525" y="-95" font-family="Helvetica" font-size="10.00">CPS::MNAInterface</text>
</a>
</g>
</g>
<!-- Node6&#45;&gt;Node8 -->
<g id="edge9" class="edge">
<title>Node6&#45;&gt;Node8</title>
<path fill="none" stroke="midnightblue" d="M106.41,-110.69C199.95,-107.73 383.75,-101.93 472.98,-99.11"/>
<polygon fill="midnightblue" stroke="midnightblue" points="106.17,-107.19 96.28,-111.01 106.39,-114.19 106.17,-107.19"/>
</g>
<!-- Node7&#45;&gt;Node3 -->
<g id="edge6" class="edge">
<title>Node7&#45;&gt;Node3</title>
<path fill="none" stroke="orange" stroke-dasharray="5,2" d="M595.11,-149.46C631.24,-153.63 675.01,-158.67 709.6,-162.66"/>
<polygon fill="orange" stroke="orange" points="595.47,-145.98 585.13,-148.31 594.67,-152.94 595.47,-145.98"/>
<text text-anchor="middle" x="633.5" y="-159.5" font-family="Helvetica" font-size="10.00"> &lt; Complex &gt;</text>
</g>
<!-- Node9 -->
<g id="node9" class="node">
<title>Node9</title>
<g id="a_node9"><a xlink:href="class_c_p_s_1_1_base_1_1_reduced_order_synchron_generator.html" target="_top" xlink:title=" ">
<polygon fill="none" stroke="black" points="682,-105.5 682,-135.5 858,-135.5 858,-105.5 682,-105.5"/>
<text text-anchor="start" x="690" y="-123.5" font-family="Helvetica" font-size="10.00">CPS::Base::ReducedOrderSynchron</text>
<text text-anchor="middle" x="770" y="-112.5" font-family="Helvetica" font-size="10.00">Generator&lt; VarType &gt;</text>
</a>
</g>
</g>
<!-- Node7&#45;&gt;Node9 -->
<g id="edge11" class="edge">
<title>Node7&#45;&gt;Node9</title>
<path fill="none" stroke="midnightblue" d="M595.25,-135.52C622.24,-133.18 653.47,-130.48 681.95,-128.02"/>
<polygon fill="midnightblue" stroke="midnightblue" points="594.8,-132.04 585.13,-136.39 595.4,-139.02 594.8,-132.04"/>
</g>
<!-- Node8&#45;&gt;Node2 -->
<g id="edge8" class="edge">
<title>Node8&#45;&gt;Node2</title>
<path fill="none" stroke="midnightblue" d="M587.58,-96.53C616.27,-96.12 650.88,-95.7 682,-95.5 760.22,-95 779.96,-90.22 858,-95.5 889.68,-97.64 924.22,-101.84 954.73,-106.19"/>
<polygon fill="midnightblue" stroke="midnightblue" points="587.24,-93.03 577.29,-96.68 587.34,-100.03 587.24,-93.03"/>
</g>
<!-- Node8&#45;&gt;Node9 -->
<g id="edge12" class="edge">
<title>Node8&#45;&gt;Node9</title>
<path fill="none" stroke="midnightblue" d="M587.5,-103.32C616.13,-106.03 650.7,-109.3 681.95,-112.26"/>
<polygon fill="midnightblue" stroke="midnightblue" points="587.52,-99.81 577.24,-102.35 586.86,-106.78 587.52,-99.81"/>
</g>
<!-- Node9&#45;&gt;Node2 -->
<g id="edge10" class="edge">
<title>Node9&#45;&gt;Node2</title>
<path fill="none" stroke="orange" stroke-dasharray="5,2" d="M868.52,-120.5C896.75,-120.5 927.38,-120.5 954.93,-120.5"/>
<polygon fill="orange" stroke="orange" points="868.24,-117 858.24,-120.5 868.24,-124 868.24,-117"/>
<text text-anchor="middle" x="906.5" y="-123.5" font-family="Helvetica" font-size="10.00"> &lt; Complex &gt;</text>
</g>
<!-- Node10 -->
<g id="node10" class="node">
<title>Node10</title>
<g id="a_node10"><a xlink:href="class_c_p_s_1_1_m_n_a_variable_comp_interface.html" target="_top" xlink:title="MNA interface to be used by elements that require recomputing of the system matrix.">
<polygon fill="none" stroke="black" points="961,-67 961,-86 1125,-86 1125,-67 961,-67"/>
<text text-anchor="middle" x="1043" y="-74" font-family="Helvetica" font-size="10.00">CPS::MNAVariableCompInterface</text>
</a>
</g>
</g>
<!-- Node10&#45;&gt;Node1 -->
<g id="edge13" class="edge">
<title>Node10&#45;&gt;Node1</title>
<path fill="none" stroke="midnightblue" d="M1135.3,-81.51C1146.08,-82.11 1157.1,-82.71 1167.93,-83.31"/>
<polygon fill="midnightblue" stroke="midnightblue" points="1135.23,-78.01 1125.05,-80.95 1134.84,-84.99 1135.23,-78.01"/>
</g>
</g>
</svg>
        <g id="navigator" transform="translate(0 0)" fill="#404254">
                <rect fill="#f2f5e9" fill-opacity="0.5" stroke="#606060" stroke-width=".5" x="0" y="0" width="60" height="60"/>
                <use id="zoomplus" xlink:href="#zoomPlus" x="17" y="9" onmousedown="handleZoom(evt,'in')"/>
                <use id="zoomminus" xlink:href="#zoomMin" x="42" y="9" onmousedown="handleZoom(evt,'out')"/>
                <use id="reset" xlink:href="#resetDef" x="30" y="36" onmousedown="handleReset()"/>
                <g id="arrowUp" xlink:href="#dirArrow" transform="translate(30 24)" onmousedown="handlePan(0,-1)">
                  <use xlink:href="#rim" fill="#404040">
                        <set attributeName="fill" to="#808080" begin="arrowUp.mouseover" end="arrowUp.mouseout"/>
                  </use>
                  <path fill="none" stroke="white" stroke-width="1.5" d="M0,-3.0v7 M-2.5,-0.5L0,-3.0L2.5,-0.5"/>
                </g>
                <g id="arrowRight" xlink:href="#dirArrow" transform="rotate(90) translate(36 -43)" onmousedown="handlePan(1,0)">
                  <use xlink:href="#rim" fill="#404040">
                        <set attributeName="fill" to="#808080" begin="arrowRight.mouseover" end="arrowRight.mouseout"/>
                  </use>
                  <path fill="none" stroke="white" stroke-width="1.5" d="M0,-3.0v7 M-2.5,-0.5L0,-3.0L2.5,-0.5"/>
                </g>
                <g id="arrowDown" xlink:href="#dirArrow" transform="rotate(180) translate(-30 -48)" onmousedown="handlePan(0,1)">
                  <use xlink:href="#rim" fill="#404040">
                        <set attributeName="fill" to="#808080" begin="arrowDown.mouseover" end="arrowDown.mouseout"/>
                  </use>
                  <path fill="none" stroke="white" stroke-width="1.5" d="M0,-3.0v7 M-2.5,-0.5L0,-3.0L2.5,-0.5"/>
                </g>
                <g id="arrowLeft" xlink:href="#dirArrow" transform="rotate(270) translate(-36 17)" onmousedown="handlePan(-1,0)">
                  <use xlink:href="#rim" fill="#404040">
                        <set attributeName="fill" to="#808080" begin="arrowLeft.mouseover" end="arrowLeft.mouseout"/>
                  </use>
                  <path fill="none" stroke="white" stroke-width="1.5" d="M0,-3.0v7 M-2.5,-0.5L0,-3.0L2.5,-0.5"/>
                </g>
        </g>
        <svg viewBox="0 0 15 15" width="100%" height="30px" preserveAspectRatio="xMaxYMin meet">
         <g id="arrow_out" transform="scale(0.3 0.3)">
          <a xlink:href="class_c_p_s_1_1_s_p_1_1_ph1_1_1_synchron_generator_v_b_r__inherit__graph_org.svg" target="_base">
           <rect id="button" ry="5" rx="5" y="6" x="6" height="38" width="38"
                fill="#f2f5e9" fill-opacity="0.5" stroke="#606060" stroke-width="1.0"/>
           <path id="arrow"
             d="M 11.500037,31.436501 C 11.940474,20.09759 22.043105,11.32322 32.158766,21.979434 L 37.068811,17.246167 C 37.068811,17.246167 37.088388,32 37.088388,32 L 22.160133,31.978069 C 22.160133,31.978069 26.997745,27.140456 26.997745,27.140456 C 18.528582,18.264221 13.291696,25.230495 11.500037,31.436501 z"
             style="fill:#404040;"/>
          </a>
         </g>
        </svg>
</svg>
