<?xml version="1.0" encoding="UTF-8" standalone="no"?>
<!DOCTYPE svg PUBLIC "-//W3C//DTD SVG 1.1//EN"
 "http://www.w3.org/Graphics/SVG/1.1/DTD/svg11.dtd">
<!-- Generated by graphviz version 2.50.0 (0)
 -->
<!-- Title: CPS::DP::Ph1::RXLoad Pages: 1 -->
<svg width="2148pt" height="452pt"
 viewBox="0.00 0.00 2148.00 451.98" xmlns="http://www.w3.org/2000/svg" xmlns:xlink="http://www.w3.org/1999/xlink">
<g id="graph0" class="graph" transform="scale(1 1) rotate(0) translate(4 447.98)">
<title>CPS::DP::Ph1::RXLoad</title>
<!-- Node1 -->
<g id="node1" class="node">
<title>Node1</title>
<g id="a_node1"><a xlink:title="Constant impedance load model consisting of RLC elements.">
<polygon fill="#bfbfbf" stroke="black" points="2022,-61.91 2022,-80.91 2140,-80.91 2140,-61.91 2022,-61.91"/>
<text text-anchor="middle" x="2081" y="-68.91" font-family="Helvetica,sans-Serif" font-size="10.00">CPS::DP::Ph1::RXLoad</text>
</a>
</g>
</g>
<!-- Node2 -->
<g id="node2" class="node">
<title>Node2</title>
<g id="a_node2"><a xlink:href="class_c_p_s_1_1_composite_power_comp.html" target="_top" xlink:title=" ">
<polygon fill="none" stroke="black" points="1839,-104.41 1839,-134.41 1985,-134.41 1985,-104.41 1839,-104.41"/>
<text text-anchor="start" x="1847" y="-122.41" font-family="Helvetica,sans-Serif" font-size="10.00">CPS::CompositePowerComp</text>
<text text-anchor="middle" x="1912" y="-111.41" font-family="Helvetica,sans-Serif" font-size="10.00">&lt; Complex &gt;</text>
</a>
</g>
</g>
<!-- Node2&#45;&gt;Node1 -->
<g id="edge1" class="edge">
<title>Node2&#45;&gt;Node1</title>
<path fill="none" stroke="midnightblue" d="M1975.23,-101.52C1999.48,-94.55 2026.29,-86.85 2046.72,-80.97"/>
<polygon fill="midnightblue" stroke="midnightblue" points="1974.03,-98.23 1965.38,-104.35 1975.96,-104.96 1974.03,-98.23"/>
</g>
<!-- Node3 -->
<g id="node3" class="node">
<title>Node3</title>
<g id="a_node3"><a xlink:href="class_c_p_s_1_1_m_n_a_sim_power_comp.html" target="_top" xlink:title=" ">
<polygon fill="none" stroke="black" points="1602.5,-176.41 1602.5,-206.41 1739.5,-206.41 1739.5,-176.41 1602.5,-176.41"/>
<text text-anchor="start" x="1610.5" y="-194.41" font-family="Helvetica,sans-Serif" font-size="10.00">CPS::MNASimPowerComp</text>
<text text-anchor="middle" x="1671" y="-183.41" font-family="Helvetica,sans-Serif" font-size="10.00">&lt; Complex &gt;</text>
</a>
</g>
</g>
<!-- Node3&#45;&gt;Node2 -->
<g id="edge2" class="edge">
<title>Node3&#45;&gt;Node2</title>
<path fill="none" stroke="midnightblue" d="M1731.4,-173.51C1771.23,-161.52 1823.09,-145.89 1860.84,-134.52"/>
<polygon fill="midnightblue" stroke="midnightblue" points="1730.38,-170.17 1721.81,-176.4 1732.4,-176.87 1730.38,-170.17"/>
</g>
<!-- Node4 -->
<g id="node4" class="node">
<title>Node4</title>
<g id="a_node4"><a xlink:href="class_c_p_s_1_1_sim_power_comp.html" target="_top" xlink:title=" ">
<polygon fill="none" stroke="black" points="1375,-274.41 1375,-304.41 1494,-304.41 1494,-274.41 1375,-274.41"/>
<text text-anchor="start" x="1383" y="-292.41" font-family="Helvetica,sans-Serif" font-size="10.00">CPS::SimPowerComp&lt;</text>
<text text-anchor="middle" x="1434.5" y="-281.41" font-family="Helvetica,sans-Serif" font-size="10.00"> Complex &gt;</text>
</a>
</g>
</g>
<!-- Node4&#45;&gt;Node3 -->
<g id="edge3" class="edge">
<title>Node4&#45;&gt;Node3</title>
<path fill="none" stroke="midnightblue" d="M1504.26,-280.86C1528.89,-276.2 1556.38,-269.12 1580,-258.41 1608.74,-245.38 1637.15,-222.01 1654.13,-206.61"/>
<polygon fill="midnightblue" stroke="midnightblue" points="1503.49,-277.44 1494.26,-282.64 1504.72,-284.33 1503.49,-277.44"/>
</g>
<!-- Node5 -->
<g id="node5" class="node">
<title>Node5</title>
<g id="a_node5"><a xlink:href="class_c_p_s_1_1_topological_power_comp.html" target="_top" xlink:title=" ">
<polygon fill="none" stroke="black" points="881,-329.91 881,-348.91 1029,-348.91 1029,-329.91 881,-329.91"/>
<text text-anchor="middle" x="955" y="-336.91" font-family="Helvetica,sans-Serif" font-size="10.00">CPS::TopologicalPowerComp</text>
</a>
</g>
</g>
<!-- Node5&#45;&gt;Node4 -->
<g id="edge4" class="edge">
<title>Node5&#45;&gt;Node4</title>
<path fill="none" stroke="midnightblue" d="M1039.66,-334.33C1119.21,-328.94 1242.11,-319.14 1348,-304.41 1356.66,-303.21 1365.78,-301.78 1374.71,-300.29"/>
<polygon fill="midnightblue" stroke="midnightblue" points="1038.96,-330.87 1029.21,-335.03 1039.43,-337.85 1038.96,-330.87"/>
</g>
<!-- Node12 -->
<g id="node12" class="node">
<title>Node12</title>
<g id="a_node12"><a xlink:href="class_c_p_s_1_1_sim_power_comp.html" target="_top" xlink:title="Base class for all components that are transmitting power.">
<polygon fill="none" stroke="black" points="1132,-274.41 1132,-304.41 1251,-304.41 1251,-274.41 1132,-274.41"/>
<text text-anchor="start" x="1140" y="-292.41" font-family="Helvetica,sans-Serif" font-size="10.00">CPS::SimPowerComp&lt;</text>
<text text-anchor="middle" x="1191.5" y="-281.41" font-family="Helvetica,sans-Serif" font-size="10.00"> VarType &gt;</text>
</a>
</g>
</g>
<!-- Node5&#45;&gt;Node12 -->
<g id="edge13" class="edge">
<title>Node5&#45;&gt;Node12</title>
<path fill="none" stroke="midnightblue" d="M1010.59,-327.77C1046.93,-320.02 1094.65,-309.85 1131.81,-301.92"/>
<polygon fill="midnightblue" stroke="midnightblue" points="1009.71,-324.38 1000.66,-329.89 1011.17,-331.22 1009.71,-324.38"/>
</g>
<!-- Node6 -->
<g id="node6" class="node">
<title>Node6</title>
<g id="a_node6"><a xlink:href="class_c_p_s_1_1_identified_object.html" target="_top" xlink:title=" ">
<polygon fill="none" stroke="black" points="664,-330.91 664,-349.91 780,-349.91 780,-330.91 664,-330.91"/>
<text text-anchor="middle" x="722" y="-337.91" font-family="Helvetica,sans-Serif" font-size="10.00">CPS::IdentifiedObject</text>
</a>
</g>
</g>
<!-- Node6&#45;&gt;Node5 -->
<g id="edge5" class="edge">
<title>Node6&#45;&gt;Node5</title>
<path fill="none" stroke="midnightblue" d="M790.34,-340.12C818.77,-339.99 851.94,-339.85 880.96,-339.73"/>
<polygon fill="midnightblue" stroke="midnightblue" points="790.09,-336.62 780.1,-340.16 790.12,-343.62 790.09,-336.62"/>
</g>
<!-- Node7 -->
<g id="node7" class="node">
<title>Node7</title>
<g id="a_node7"><a xlink:href="class_c_p_s_1_1_attribute.html" target="_top" xlink:title=" ">
<polygon fill="none" stroke="black" points="456,-332.91 456,-351.91 583,-351.91 583,-332.91 456,-332.91"/>
<text text-anchor="middle" x="519.5" y="-339.91" font-family="Helvetica,sans-Serif" font-size="10.00">CPS::Attribute&lt; String &gt;</text>
</a>
</g>
</g>
<!-- Node7&#45;&gt;Node6 -->
<g id="edge6" class="edge">
<title>Node7&#45;&gt;Node6</title>
<path fill="none" stroke="#9a32cd" stroke-dasharray="5,2" d="M593.29,-341.68C616.56,-341.45 641.98,-341.2 663.97,-340.98"/>
<polygon fill="#9a32cd" stroke="#9a32cd" points="593.08,-338.19 583.11,-341.78 593.15,-345.18 593.08,-338.19"/>
<text text-anchor="middle" x="626" y="-355.41" font-family="Helvetica,sans-Serif" font-size="10.00"> mName</text>
<text text-anchor="middle" x="626" y="-344.41" font-family="Helvetica,sans-Serif" font-size="10.00">mUID</text>
</g>
<!-- Node8 -->
<g id="node8" class="node">
<title>Node8</title>
<g id="a_node8"><a xlink:href="class_c_p_s_1_1_attribute_base.html" target="_top" xlink:title=" ">
<polygon fill="none" stroke="black" points="5.5,-205.91 5.5,-224.91 110.5,-224.91 110.5,-205.91 5.5,-205.91"/>
<text text-anchor="middle" x="58" y="-212.91" font-family="Helvetica,sans-Serif" font-size="10.00">CPS::AttributeBase</text>
</a>
</g>
</g>
<!-- Node8&#45;&gt;Node7 -->
<g id="edge7" class="edge">
<title>Node8&#45;&gt;Node7</title>
<path fill="none" stroke="midnightblue" d="M61.32,-235.3C67.45,-277.63 88.33,-376.18 153,-417.41 271.8,-493.16 452.56,-386.06 504.25,-352.13"/>
<polygon fill="midnightblue" stroke="midnightblue" points="64.79,-234.83 60.01,-225.37 57.85,-235.75 64.79,-234.83"/>
</g>
<!-- Node10 -->
<g id="node10" class="node">
<title>Node10</title>
<g id="a_node10"><a xlink:href="class_c_p_s_1_1_attribute.html" target="_top" xlink:title=" ">
<polygon fill="none" stroke="black" points="172,-167.91 172,-186.91 276,-186.91 276,-167.91 172,-167.91"/>
<text text-anchor="middle" x="224" y="-174.91" font-family="Helvetica,sans-Serif" font-size="10.00">CPS::Attribute&lt; T &gt;</text>
</a>
</g>
</g>
<!-- Node8&#45;&gt;Node10 -->
<g id="edge10" class="edge">
<title>Node8&#45;&gt;Node10</title>
<path fill="none" stroke="midnightblue" d="M110.34,-203.51C133.39,-198.17 160.22,-191.96 181.91,-186.93"/>
<polygon fill="midnightblue" stroke="midnightblue" points="109.34,-200.15 100.38,-205.82 110.92,-206.97 109.34,-200.15"/>
</g>
<!-- Node13 -->
<g id="node13" class="node">
<title>Node13</title>
<g id="a_node13"><a xlink:href="class_c_p_s_1_1_attribute.html" target="_top" xlink:title=" ">
<polygon fill="none" stroke="black" points="451,-280.41 451,-310.41 588,-310.41 588,-280.41 451,-280.41"/>
<text text-anchor="start" x="459" y="-298.41" font-family="Helvetica,sans-Serif" font-size="10.00">CPS::Attribute&lt; MatrixVar</text>
<text text-anchor="middle" x="519.5" y="-287.41" font-family="Helvetica,sans-Serif" font-size="10.00">&lt; VarType &gt; &gt;</text>
</a>
</g>
</g>
<!-- Node8&#45;&gt;Node13 -->
<g id="edge15" class="edge">
<title>Node8&#45;&gt;Node13</title>
<path fill="none" stroke="midnightblue" d="M94.17,-228.51C142.63,-245.86 233.04,-275.75 313,-288.41 358.48,-295.61 410.31,-297.33 450.54,-297.27"/>
<polygon fill="midnightblue" stroke="midnightblue" points="95.08,-225.12 84.49,-225.01 92.7,-231.7 95.08,-225.12"/>
</g>
<!-- Node16 -->
<g id="node16" class="node">
<title>Node16</title>
<g id="a_node16"><a xlink:href="class_c_p_s_1_1_attribute.html" target="_top" xlink:title=" ">
<polygon fill="none" stroke="black" points="455,-184.91 455,-203.91 584,-203.91 584,-184.91 455,-184.91"/>
<text text-anchor="middle" x="519.5" y="-191.91" font-family="Helvetica,sans-Serif" font-size="10.00">CPS::Attribute&lt; Matrix &gt;</text>
</a>
</g>
</g>
<!-- Node8&#45;&gt;Node16 -->
<g id="edge20" class="edge">
<title>Node8&#45;&gt;Node16</title>
<path fill="none" stroke="midnightblue" d="M120.84,-212.58C208.08,-208.6 366.5,-201.36 454.76,-197.32"/>
<polygon fill="midnightblue" stroke="midnightblue" points="120.65,-209.09 110.82,-213.04 120.97,-216.08 120.65,-209.09"/>
</g>
<!-- Node22 -->
<g id="node22" class="node">
<title>Node22</title>
<g id="a_node22"><a xlink:href="class_c_p_s_1_1_attribute.html" target="_top" xlink:title=" ">
<polygon fill="none" stroke="black" points="460,-60.91 460,-79.91 579,-79.91 579,-60.91 460,-60.91"/>
<text text-anchor="middle" x="519.5" y="-67.91" font-family="Helvetica,sans-Serif" font-size="10.00">CPS::Attribute&lt; Real &gt;</text>
</a>
</g>
</g>
<!-- Node8&#45;&gt;Node22 -->
<g id="edge32" class="edge">
<title>Node8&#45;&gt;Node22</title>
<path fill="none" stroke="midnightblue" d="M110.76,-200.27C112.64,-198.8 114.4,-197.18 116,-195.41 163.94,-142.1 96.79,-82.91 153,-38.41 259.37,45.81 441.76,-32.27 500.03,-60.88"/>
<polygon fill="midnightblue" stroke="midnightblue" points="108.45,-197.59 101.82,-205.86 112.16,-203.53 108.45,-197.59"/>
</g>
<!-- Node9 -->
<g id="node9" class="node">
<title>Node9</title>
<g id="a_node9"><a xlink:title=" ">
<polygon fill="none" stroke="#bfbfbf" points="166,-366.91 166,-407.91 282,-407.91 282,-366.91 166,-366.91"/>
<text text-anchor="start" x="174" y="-395.91" font-family="Helvetica,sans-Serif" font-size="10.00">std::enable_shared</text>
<text text-anchor="start" x="174" y="-384.91" font-family="Helvetica,sans-Serif" font-size="10.00">_from_this&lt; Attribute</text>
<text text-anchor="middle" x="224" y="-373.91" font-family="Helvetica,sans-Serif" font-size="10.00">&lt; String &gt; &gt;</text>
</a>
</g>
</g>
<!-- Node9&#45;&gt;Node7 -->
<g id="edge8" class="edge">
<title>Node9&#45;&gt;Node7</title>
<path fill="none" stroke="midnightblue" d="M292.23,-377.1C341.59,-369.53 408.15,-359.33 456.28,-351.95"/>
<polygon fill="midnightblue" stroke="midnightblue" points="291.64,-373.65 282.29,-378.63 292.7,-380.57 291.64,-373.65"/>
</g>
<!-- Node10&#45;&gt;Node7 -->
<g id="edge9" class="edge">
<title>Node10&#45;&gt;Node7</title>
<path fill="none" stroke="orange" stroke-dasharray="5,2" d="M242,-194.83C258.93,-211.53 286.19,-236.75 313,-254.41 369.78,-291.81 387.88,-295.15 451,-320.41 462.33,-324.94 474.99,-329.26 486.26,-332.85"/>
<polygon fill="orange" stroke="orange" points="244.11,-191.98 234.56,-187.38 239.15,-196.93 244.11,-191.98"/>
<text text-anchor="middle" x="373" y="-314.41" font-family="Helvetica,sans-Serif" font-size="10.00"> &lt; String &gt;</text>
</g>
<!-- Node10&#45;&gt;Node13 -->
<g id="edge17" class="edge">
<title>Node10&#45;&gt;Node13</title>
<path fill="none" stroke="orange" stroke-dasharray="5,2" d="M274.68,-189.58C317.61,-200.93 380.8,-219.67 433,-243.41 455.77,-253.77 479.98,-268.93 496.8,-280.21"/>
<polygon fill="orange" stroke="orange" points="275.32,-186.13 264.76,-186.99 273.55,-192.9 275.32,-186.13"/>
<text text-anchor="middle" x="373" y="-246.41" font-family="Helvetica,sans-Serif" font-size="10.00"> &lt; MatrixVar&lt; VarType &gt; &gt;</text>
</g>
<!-- Node10&#45;&gt;Node16 -->
<g id="edge22" class="edge">
<title>Node10&#45;&gt;Node16</title>
<path fill="none" stroke="orange" stroke-dasharray="5,2" d="M286.56,-178.15C328,-178.97 383.84,-180.71 433,-184.41 440,-184.94 447.32,-185.61 454.59,-186.35"/>
<polygon fill="orange" stroke="orange" points="286.42,-174.64 276.35,-177.96 286.28,-181.64 286.42,-174.64"/>
<text text-anchor="middle" x="373" y="-187.41" font-family="Helvetica,sans-Serif" font-size="10.00"> &lt; Matrix &gt;</text>
</g>
<!-- Node10&#45;&gt;Node22 -->
<g id="edge34" class="edge">
<title>Node10&#45;&gt;Node22</title>
<path fill="none" stroke="orange" stroke-dasharray="5,2" d="M272.73,-165.21C280.22,-163.08 287.85,-160.78 295,-158.41 370.21,-133.48 456.89,-97.08 496.59,-79.97"/>
<polygon fill="orange" stroke="orange" points="271.71,-161.86 263.01,-167.91 273.58,-168.61 271.71,-161.86"/>
<text text-anchor="middle" x="373" y="-154.41" font-family="Helvetica,sans-Serif" font-size="10.00"> &lt; Real &gt;</text>
</g>
<!-- Node11 -->
<g id="node11" class="node">
<title>Node11</title>
<g id="a_node11"><a xlink:title=" ">
<polygon fill="none" stroke="#bfbfbf" points="0,-144.91 0,-185.91 116,-185.91 116,-144.91 0,-144.91"/>
<text text-anchor="start" x="8" y="-173.91" font-family="Helvetica,sans-Serif" font-size="10.00">std::enable_shared</text>
<text text-anchor="start" x="8" y="-162.91" font-family="Helvetica,sans-Serif" font-size="10.00">_from_this&lt; Attribute</text>
<text text-anchor="middle" x="58" y="-151.91" font-family="Helvetica,sans-Serif" font-size="10.00">&lt; T &gt; &gt;</text>
</a>
</g>
</g>
<!-- Node11&#45;&gt;Node10 -->
<g id="edge11" class="edge">
<title>Node11&#45;&gt;Node10</title>
<path fill="none" stroke="midnightblue" d="M126.7,-170.36C141.84,-171.47 157.64,-172.63 171.97,-173.68"/>
<polygon fill="midnightblue" stroke="midnightblue" points="126.59,-166.85 116.36,-169.61 126.08,-173.83 126.59,-166.85"/>
</g>
<!-- Node12&#45;&gt;Node4 -->
<g id="edge12" class="edge">
<title>Node12&#45;&gt;Node4</title>
<path fill="none" stroke="orange" stroke-dasharray="5,2" d="M1261.5,-289.41C1297.24,-289.41 1340.43,-289.41 1374.59,-289.41"/>
<polygon fill="orange" stroke="orange" points="1261.15,-285.91 1251.15,-289.41 1261.15,-292.91 1261.15,-285.91"/>
<text text-anchor="middle" x="1308.5" y="-292.41" font-family="Helvetica,sans-Serif" font-size="10.00"> &lt; Complex &gt;</text>
</g>
<!-- Node18 -->
<g id="node18" class="node">
<title>Node18</title>
<g id="a_node18"><a xlink:href="class_c_p_s_1_1_m_n_a_sim_power_comp.html" target="_top" xlink:title="Base class for all MNA components that are transmitting power.">
<polygon fill="none" stroke="black" points="1366,-176.41 1366,-206.41 1503,-206.41 1503,-176.41 1366,-176.41"/>
<text text-anchor="start" x="1374" y="-194.41" font-family="Helvetica,sans-Serif" font-size="10.00">CPS::MNASimPowerComp</text>
<text text-anchor="middle" x="1434.5" y="-183.41" font-family="Helvetica,sans-Serif" font-size="10.00">&lt; VarType &gt;</text>
</a>
</g>
</g>
<!-- Node12&#45;&gt;Node18 -->
<g id="edge24" class="edge">
<title>Node12&#45;&gt;Node18</title>
<path fill="none" stroke="midnightblue" d="M1239.04,-270.48C1284.89,-251.84 1354.03,-223.72 1396.33,-206.52"/>
<polygon fill="midnightblue" stroke="midnightblue" points="1237.57,-267.3 1229.63,-274.31 1240.21,-273.79 1237.57,-267.3"/>
</g>
<!-- Node13&#45;&gt;Node12 -->
<g id="edge14" class="edge">
<title>Node13&#45;&gt;Node12</title>
<path fill="none" stroke="#9a32cd" stroke-dasharray="5,2" d="M598.43,-294.71C734.04,-293.5 1010.51,-291.02 1131.54,-289.94"/>
<polygon fill="#9a32cd" stroke="#9a32cd" points="598.09,-291.21 588.12,-294.8 598.15,-298.21 598.09,-291.21"/>
<text text-anchor="middle" x="830.5" y="-306.41" font-family="Helvetica,sans-Serif" font-size="10.00"> mIntfCurrent</text>
<text text-anchor="middle" x="830.5" y="-295.41" font-family="Helvetica,sans-Serif" font-size="10.00">mIntfVoltage</text>
</g>
<!-- Node14 -->
<g id="node14" class="node">
<title>Node14</title>
<g id="a_node14"><a xlink:title=" ">
<polygon fill="none" stroke="#bfbfbf" points="153,-306.91 153,-347.91 295,-347.91 295,-306.91 153,-306.91"/>
<text text-anchor="start" x="161" y="-335.91" font-family="Helvetica,sans-Serif" font-size="10.00">std::enable_shared</text>
<text text-anchor="start" x="161" y="-324.91" font-family="Helvetica,sans-Serif" font-size="10.00">_from_this&lt; Attribute</text>
<text text-anchor="middle" x="224" y="-313.91" font-family="Helvetica,sans-Serif" font-size="10.00">&lt; MatrixVar&lt; VarType &gt; &gt; &gt;</text>
</a>
</g>
</g>
<!-- Node14&#45;&gt;Node13 -->
<g id="edge16" class="edge">
<title>Node14&#45;&gt;Node13</title>
<path fill="none" stroke="midnightblue" d="M305.23,-324.64C343.97,-322.63 391.04,-319.21 433,-313.41 439.01,-312.58 445.23,-311.57 451.45,-310.45"/>
<polygon fill="midnightblue" stroke="midnightblue" points="304.87,-321.15 295.06,-325.14 305.22,-328.14 304.87,-321.15"/>
</g>
<!-- Node15 -->
<g id="node15" class="node">
<title>Node15</title>
<g id="a_node15"><a xlink:href="class_c_p_s_1_1_m_n_a_interface.html" target="_top" xlink:title="Interface to be implemented by all models used by the MNA solver.">
<polygon fill="none" stroke="black" points="1138,-140.91 1138,-159.91 1245,-159.91 1245,-140.91 1138,-140.91"/>
<text text-anchor="middle" x="1191.5" y="-147.91" font-family="Helvetica,sans-Serif" font-size="10.00">CPS::MNAInterface</text>
</a>
</g>
</g>
<!-- Node15&#45;&gt;Node3 -->
<g id="edge18" class="edge">
<title>Node15&#45;&gt;Node3</title>
<path fill="none" stroke="midnightblue" d="M1255.21,-152.22C1318.02,-154.42 1417.38,-158.93 1503,-167.41 1535.79,-170.66 1572.01,-175.69 1602.32,-180.3"/>
<polygon fill="midnightblue" stroke="midnightblue" points="1255.19,-148.72 1245.07,-151.88 1254.95,-155.72 1255.19,-148.72"/>
</g>
<!-- Node15&#45;&gt;Node18 -->
<g id="edge25" class="edge">
<title>Node15&#45;&gt;Node18</title>
<path fill="none" stroke="midnightblue" d="M1255.35,-161.1C1289.3,-166.88 1331.23,-174.01 1365.89,-179.91"/>
<polygon fill="midnightblue" stroke="midnightblue" points="1255.54,-157.58 1245.09,-159.36 1254.36,-164.48 1255.54,-157.58"/>
</g>
<!-- Node16&#45;&gt;Node3 -->
<g id="edge19" class="edge">
<title>Node16&#45;&gt;Node3</title>
<path fill="none" stroke="#9a32cd" stroke-dasharray="5,2" d="M552.72,-207.62C591.83,-222.43 660.11,-244.41 721,-244.41 721,-244.41 721,-244.41 1435.5,-244.41 1504.79,-244.41 1582.82,-222.12 1629.12,-206.46"/>
<polygon fill="#9a32cd" stroke="#9a32cd" points="553.78,-204.28 543.19,-203.93 551.26,-210.81 553.78,-204.28"/>
<text text-anchor="middle" x="1080.5" y="-247.41" font-family="Helvetica,sans-Serif" font-size="10.00"> mRightVector</text>
</g>
<!-- Node16&#45;&gt;Node18 -->
<g id="edge26" class="edge">
<title>Node16&#45;&gt;Node18</title>
<path fill="none" stroke="#9a32cd" stroke-dasharray="5,2" d="M594.58,-194.41C632.41,-194.41 679.16,-194.41 721,-194.41 721,-194.41 721,-194.41 1192.5,-194.41 1251.08,-194.41 1317.67,-193.51 1365.98,-192.7"/>
<polygon fill="#9a32cd" stroke="#9a32cd" points="594.16,-190.91 584.16,-194.41 594.16,-197.91 594.16,-190.91"/>
<text text-anchor="middle" x="955" y="-197.41" font-family="Helvetica,sans-Serif" font-size="10.00"> mRightVector</text>
</g>
<!-- Node17 -->
<g id="node17" class="node">
<title>Node17</title>
<g id="a_node17"><a xlink:title=" ">
<polygon fill="none" stroke="#bfbfbf" points="166,-107.91 166,-148.91 282,-148.91 282,-107.91 166,-107.91"/>
<text text-anchor="start" x="174" y="-136.91" font-family="Helvetica,sans-Serif" font-size="10.00">std::enable_shared</text>
<text text-anchor="start" x="174" y="-125.91" font-family="Helvetica,sans-Serif" font-size="10.00">_from_this&lt; Attribute</text>
<text text-anchor="middle" x="224" y="-114.91" font-family="Helvetica,sans-Serif" font-size="10.00">&lt; Matrix &gt; &gt;</text>
</a>
</g>
</g>
<!-- Node17&#45;&gt;Node16 -->
<g id="edge21" class="edge">
<title>Node17&#45;&gt;Node16</title>
<path fill="none" stroke="midnightblue" d="M292.24,-118.62C333.87,-115.08 387.81,-115.13 433,-130.41 465.32,-141.34 495.35,-169.62 509.68,-184.66"/>
<polygon fill="midnightblue" stroke="midnightblue" points="291.84,-115.15 282.21,-119.56 292.49,-122.11 291.84,-115.15"/>
</g>
<!-- Node18&#45;&gt;Node3 -->
<g id="edge23" class="edge">
<title>Node18&#45;&gt;Node3</title>
<path fill="none" stroke="orange" stroke-dasharray="5,2" d="M1513.04,-191.41C1541.84,-191.41 1574.28,-191.41 1602.15,-191.41"/>
<polygon fill="orange" stroke="orange" points="1513.01,-187.91 1503.01,-191.41 1513.01,-194.91 1513.01,-187.91"/>
<text text-anchor="middle" x="1550.5" y="-194.41" font-family="Helvetica,sans-Serif" font-size="10.00"> &lt; Complex &gt;</text>
</g>
<!-- Node19 -->
<g id="node19" class="node">
<title>Node19</title>
<g id="a_node19"><a xlink:href="class_c_p_s_1_1_composite_power_comp.html" target="_top" xlink:title="Base class for composite power components.">
<polygon fill="none" stroke="black" points="1598,-104.41 1598,-134.41 1744,-134.41 1744,-104.41 1598,-104.41"/>
<text text-anchor="start" x="1606" y="-122.41" font-family="Helvetica,sans-Serif" font-size="10.00">CPS::CompositePowerComp</text>
<text text-anchor="middle" x="1671" y="-111.41" font-family="Helvetica,sans-Serif" font-size="10.00">&lt; VarType &gt;</text>
</a>
</g>
</g>
<!-- Node18&#45;&gt;Node19 -->
<g id="edge28" class="edge">
<title>Node18&#45;&gt;Node19</title>
<path fill="none" stroke="midnightblue" d="M1494.03,-173.44C1533.07,-161.45 1583.83,-145.87 1620.79,-134.52"/>
<polygon fill="midnightblue" stroke="midnightblue" points="1492.91,-170.12 1484.37,-176.4 1494.96,-176.81 1492.91,-170.12"/>
</g>
<!-- Node19&#45;&gt;Node2 -->
<g id="edge27" class="edge">
<title>Node19&#45;&gt;Node2</title>
<path fill="none" stroke="orange" stroke-dasharray="5,2" d="M1754.38,-119.41C1781.8,-119.41 1812.11,-119.41 1838.7,-119.41"/>
<polygon fill="orange" stroke="orange" points="1754.03,-115.91 1744.03,-119.41 1754.03,-122.91 1754.03,-115.91"/>
<text text-anchor="middle" x="1791.5" y="-122.41" font-family="Helvetica,sans-Serif" font-size="10.00"> &lt; Complex &gt;</text>
</g>
<!-- Node20 -->
<g id="node20" class="node">
<title>Node20</title>
<g id="a_node20"><a xlink:href="class_shared_factory.html" target="_top" xlink:title=" ">
<polygon fill="none" stroke="black" points="1845,-23.91 1845,-42.91 1979,-42.91 1979,-23.91 1845,-23.91"/>
<text text-anchor="middle" x="1912" y="-30.91" font-family="Helvetica,sans-Serif" font-size="10.00">SharedFactory&lt; RXLoad &gt;</text>
</a>
</g>
</g>
<!-- Node20&#45;&gt;Node1 -->
<g id="edge29" class="edge">
<title>Node20&#45;&gt;Node1</title>
<path fill="none" stroke="midnightblue" d="M1964.96,-45.23C1988.51,-50.59 2015.97,-56.84 2038.16,-61.89"/>
<polygon fill="midnightblue" stroke="midnightblue" points="1965.67,-41.8 1955.14,-43 1964.12,-48.63 1965.67,-41.8"/>
</g>
<!-- Node21 -->
<g id="node21" class="node">
<title>Node21</title>
<g id="a_node21"><a xlink:href="class_shared_factory.html" target="_top" xlink:title=" ">
<polygon fill="none" stroke="black" points="1618.5,-23.91 1618.5,-42.91 1723.5,-42.91 1723.5,-23.91 1618.5,-23.91"/>
<text text-anchor="middle" x="1671" y="-30.91" font-family="Helvetica,sans-Serif" font-size="10.00">SharedFactory&lt; T &gt;</text>
</a>
</g>
</g>
<!-- Node21&#45;&gt;Node20 -->
<g id="edge30" class="edge">
<title>Node21&#45;&gt;Node20</title>
<path fill="none" stroke="orange" stroke-dasharray="5,2" d="M1733.86,-33.41C1767.94,-33.41 1810.25,-33.41 1844.96,-33.41"/>
<polygon fill="orange" stroke="orange" points="1733.57,-29.91 1723.57,-33.41 1733.57,-36.91 1733.57,-29.91"/>
<text text-anchor="middle" x="1791.5" y="-36.41" font-family="Helvetica,sans-Serif" font-size="10.00"> &lt; RXLoad &gt;</text>
</g>
<!-- Node22&#45;&gt;Node1 -->
<g id="edge31" class="edge">
<title>Node22&#45;&gt;Node1</title>
<path fill="none" stroke="#9a32cd" stroke-dasharray="5,2" d="M589.39,-70.92C628.07,-71.17 677.22,-71.41 721,-71.41 721,-71.41 721,-71.41 1913,-71.41 1949.1,-71.41 1989.58,-71.41 2021.65,-71.41"/>
<polygon fill="#9a32cd" stroke="#9a32cd" points="589.3,-67.42 579.28,-70.86 589.26,-74.42 589.3,-67.42"/>
<text text-anchor="middle" x="1308.5" y="-96.41" font-family="Helvetica,sans-Serif" font-size="10.00"> mActivePower</text>
<text text-anchor="middle" x="1308.5" y="-85.41" font-family="Helvetica,sans-Serif" font-size="10.00">mNomVoltage</text>
<text text-anchor="middle" x="1308.5" y="-74.41" font-family="Helvetica,sans-Serif" font-size="10.00">mReactivePower</text>
</g>
<!-- Node23 -->
<g id="node23" class="node">
<title>Node23</title>
<g id="a_node23"><a xlink:title=" ">
<polygon fill="none" stroke="#bfbfbf" points="166,-47.91 166,-88.91 282,-88.91 282,-47.91 166,-47.91"/>
<text text-anchor="start" x="174" y="-76.91" font-family="Helvetica,sans-Serif" font-size="10.00">std::enable_shared</text>
<text text-anchor="start" x="174" y="-65.91" font-family="Helvetica,sans-Serif" font-size="10.00">_from_this&lt; Attribute</text>
<text text-anchor="middle" x="224" y="-54.91" font-family="Helvetica,sans-Serif" font-size="10.00">&lt; Real &gt; &gt;</text>
</a>
</g>
</g>
<!-- Node23&#45;&gt;Node22 -->
<g id="edge33" class="edge">
<title>Node23&#45;&gt;Node22</title>
<path fill="none" stroke="midnightblue" d="M292.47,-68.87C343.04,-69.21 411.55,-69.68 459.85,-70.01"/>
<polygon fill="midnightblue" stroke="midnightblue" points="292.31,-65.37 282.29,-68.8 292.26,-72.37 292.31,-65.37"/>
</g>
</g>
</svg>
