<?xml version="1.0" encoding="UTF-8" standalone="no"?>
<!DOCTYPE svg PUBLIC "-//W3C//DTD SVG 1.1//EN"
 "http://www.w3.org/Graphics/SVG/1.1/DTD/svg11.dtd">
<!-- Generated by graphviz version 2.50.0 (0)
 -->
<!-- Title: CPS::AttributeDynamic&lt; T &gt; Pages: 1 -->
<svg width="569pt" height="129pt"
 viewBox="0.00 0.00 569.00 128.50" xmlns="http://www.w3.org/2000/svg" xmlns:xlink="http://www.w3.org/1999/xlink">
<g id="graph0" class="graph" transform="scale(1 1) rotate(0) translate(4 124.5)">
<title>CPS::AttributeDynamic&lt; T &gt;</title>
<!-- Node1 -->
<g id="node1" class="node">
<title>Node1</title>
<g id="a_node1"><a xlink:title=" ">
<polygon fill="#bfbfbf" stroke="black" points="417,-27 417,-46 561,-46 561,-27 417,-27"/>
<text text-anchor="middle" x="489" y="-34" font-family="Helvetica,sans-Serif" font-size="10.00">CPS::AttributeDynamic&lt; T &gt;</text>
</a>
</g>
</g>
<!-- Node2 -->
<g id="node2" class="node">
<title>Node2</title>
<g id="a_node2"><a xlink:href="class_c_p_s_1_1_attribute.html" target="_top" xlink:title=" ">
<polygon fill="none" stroke="black" points="261,-52 261,-71 365,-71 365,-52 261,-52"/>
<text text-anchor="middle" x="313" y="-59" font-family="Helvetica,sans-Serif" font-size="10.00">CPS::Attribute&lt; T &gt;</text>
</a>
</g>
</g>
<!-- Node2&#45;&gt;Node1 -->
<g id="edge1" class="edge">
<title>Node2&#45;&gt;Node1</title>
<path fill="none" stroke="midnightblue" d="M375.41,-52.68C390.37,-50.53 406.43,-48.22 421.6,-46.04"/>
<polygon fill="midnightblue" stroke="midnightblue" points="374.67,-49.25 365.26,-54.13 375.66,-56.18 374.67,-49.25"/>
</g>
<!-- Node3 -->
<g id="node3" class="node">
<title>Node3</title>
<g id="a_node3"><a xlink:href="class_c_p_s_1_1_attribute_base.html" target="_top" xlink:title=" ">
<polygon fill="none" stroke="black" points="5.5,-101 5.5,-120 110.5,-120 110.5,-101 5.5,-101"/>
<text text-anchor="middle" x="58" y="-108" font-family="Helvetica,sans-Serif" font-size="10.00">CPS::AttributeBase</text>
</a>
</g>
</g>
<!-- Node3&#45;&gt;Node2 -->
<g id="edge2" class="edge">
<title>Node3&#45;&gt;Node2</title>
<path fill="none" stroke="midnightblue" d="M118.05,-99.06C161.97,-90.56 221.21,-79.08 262.62,-71.06"/>
<polygon fill="midnightblue" stroke="midnightblue" points="117.23,-95.66 108.08,-100.99 118.56,-102.53 117.23,-95.66"/>
</g>
<!-- Node4 -->
<g id="node4" class="node">
<title>Node4</title>
<g id="a_node4"><a xlink:title=" ">
<polygon fill="none" stroke="#bfbfbf" points="0,-41 0,-82 116,-82 116,-41 0,-41"/>
<text text-anchor="start" x="8" y="-70" font-family="Helvetica,sans-Serif" font-size="10.00">std::enable_shared</text>
<text text-anchor="start" x="8" y="-59" font-family="Helvetica,sans-Serif" font-size="10.00">_from_this&lt; Attribute</text>
<text text-anchor="middle" x="58" y="-48" font-family="Helvetica,sans-Serif" font-size="10.00">&lt; T &gt; &gt;</text>
</a>
</g>
</g>
<!-- Node4&#45;&gt;Node2 -->
<g id="edge3" class="edge">
<title>Node4&#45;&gt;Node2</title>
<path fill="none" stroke="midnightblue" d="M126.28,-61.5C168.45,-61.5 221.96,-61.5 260.7,-61.5"/>
<polygon fill="midnightblue" stroke="midnightblue" points="126.09,-58 116.09,-61.5 126.09,-65 126.09,-58"/>
</g>
<!-- Node5 -->
<g id="node5" class="node">
<title>Node5</title>
<g id="a_node5"><a xlink:href="class_shared_factory.html" target="_top" xlink:title=" ">
<polygon fill="none" stroke="black" points="246,-0.5 246,-30.5 380,-30.5 380,-0.5 246,-0.5"/>
<text text-anchor="start" x="254" y="-18.5" font-family="Helvetica,sans-Serif" font-size="10.00">SharedFactory&lt; Attribute</text>
<text text-anchor="middle" x="313" y="-7.5" font-family="Helvetica,sans-Serif" font-size="10.00">Dynamic&lt; T &gt; &gt;</text>
</a>
</g>
</g>
<!-- Node5&#45;&gt;Node1 -->
<g id="edge4" class="edge">
<title>Node5&#45;&gt;Node1</title>
<path fill="none" stroke="midnightblue" d="M390.23,-24.7C399.12,-25.77 408.17,-26.86 416.98,-27.93"/>
<polygon fill="midnightblue" stroke="midnightblue" points="390.63,-21.22 380.28,-23.5 389.79,-28.17 390.63,-21.22"/>
</g>
<!-- Node6 -->
<g id="node6" class="node">
<title>Node6</title>
<g id="a_node6"><a xlink:href="class_shared_factory.html" target="_top" xlink:title=" ">
<polygon fill="none" stroke="black" points="5.5,-3 5.5,-22 110.5,-22 110.5,-3 5.5,-3"/>
<text text-anchor="middle" x="58" y="-10" font-family="Helvetica,sans-Serif" font-size="10.00">SharedFactory&lt; T &gt;</text>
</a>
</g>
</g>
<!-- Node6&#45;&gt;Node5 -->
<g id="edge5" class="edge">
<title>Node6&#45;&gt;Node5</title>
<path fill="none" stroke="orange" stroke-dasharray="5,2" d="M120.87,-13.23C158.69,-13.68 207.04,-14.26 245.65,-14.71"/>
<polygon fill="orange" stroke="orange" points="120.54,-9.73 110.5,-13.11 120.46,-16.73 120.54,-9.73"/>
<text text-anchor="start" x="134" y="-28.5" font-family="Helvetica,sans-Serif" font-size="10.00"> &lt; AttributeDynamic</text>
<text text-anchor="middle" x="181" y="-17.5" font-family="Helvetica,sans-Serif" font-size="10.00">&lt; T &gt; &gt;</text>
</g>
</g>
</svg>
