<?xml version="1.0" encoding="UTF-8" standalone="no"?>
<!DOCTYPE svg PUBLIC "-//W3C//DTD SVG 1.1//EN"
 "http://www.w3.org/Graphics/SVG/1.1/DTD/svg11.dtd">
<!-- Generated by graphviz version 2.50.0 (0)
 -->
<!-- Title: CPS::EMT::Ph3::SynchronGeneratorVBR Pages: 1 -->
<!--zoomable 456 -->
<svg id="main" version="1.1" xmlns="http://www.w3.org/2000/svg" xmlns:xlink="http://www.w3.org/1999/xlink" xml:space="preserve" onload="init(evt)">
<style type="text/css"><![CDATA[
.edge:hover path { stroke: red; }
.edge:hover polygon { stroke: red; fill: red; }
]]></style>
<script type="text/javascript"><![CDATA[
var edges = document.getElementsByTagName('g');
if (edges && edges.length) {
  for (var i=0;i<edges.length;i++) {
    if (edges[i].id.substr(0,4)=='edge') {
      edges[i].setAttribute('class','edge');
    }
  }
}
]]></script>
        <defs>
                <circle id="rim" cx="0" cy="0" r="7"/>
                <circle id="rim2" cx="0" cy="0" r="3.5"/>
                <g id="zoomPlus">
                        <use xlink:href="#rim" fill="#404040">
                                <set attributeName="fill" to="#808080" begin="zoomplus.mouseover" end="zoomplus.mouseout"/>
                        </use>
                        <path d="M-4,0h8M0,-4v8" fill="none" stroke="white" stroke-width="1.5" pointer-events="none"/>
                </g>
                <g id="zoomMin">
                        <use xlink:href="#rim" fill="#404040">
                                <set attributeName="fill" to="#808080" begin="zoomminus.mouseover" end="zoomminus.mouseout"/>
                        </use>
                        <path d="M-4,0h8" fill="none" stroke="white" stroke-width="1.5" pointer-events="none"/>
                </g>
                <g id="dirArrow">
                        <path fill="none" stroke="white" stroke-width="1.5" d="M0,-3.0v7 M-2.5,-0.5L0,-3.0L2.5,-0.5"/>
                </g>
               <g id="resetDef">
                       <use xlink:href="#rim2" fill="#404040">
                               <set attributeName="fill" to="#808080" begin="reset.mouseover" end="reset.mouseout"/>
                       </use>
               </g>
        </defs>

<script type="text/javascript">
var viewWidth = 2209;
var viewHeight = 456;
var sectionId = 'dynsection-1';
</script>
<script xlink:href="svgpan.js"/>
<svg id="graph" class="graph">
<g id="viewport">
<title>CPS::EMT::Ph3::SynchronGeneratorVBR</title>
<!-- Node1 -->
<g id="node1" class="node">
<title>Node1</title>
<g id="a_node1"><a xlink:title=" ">
<polygon fill="#bfbfbf" stroke="black" points="2001,-105.5 2001,-124.5 2201,-124.5 2201,-105.5 2001,-105.5"/>
<text text-anchor="middle" x="2101" y="-112.5" font-family="Helvetica,sans-Serif" font-size="10.00">CPS::EMT::Ph3::SynchronGeneratorVBR</text>
</a>
</g>
</g>
<!-- Node2 -->
<g id="node2" class="node">
<title>Node2</title>
<g id="a_node2"><a xlink:href="class_c_p_s_1_1_m_n_a_sim_power_comp.html" target="_top" xlink:title=" ">
<polygon fill="none" stroke="black" points="1804,-228 1804,-258 1941,-258 1941,-228 1804,-228"/>
<text text-anchor="start" x="1812" y="-246" font-family="Helvetica,sans-Serif" font-size="10.00">CPS::MNASimPowerComp</text>
<text text-anchor="middle" x="1872.5" y="-235" font-family="Helvetica,sans-Serif" font-size="10.00">&lt; Real &gt;</text>
</a>
</g>
</g>
<!-- Node2&#45;&gt;Node1 -->
<g id="edge1" class="edge">
<title>Node2&#45;&gt;Node1</title>
<path fill="none" stroke="midnightblue" d="M1909.16,-222.85C1958.71,-194.84 2046.44,-145.27 2083.13,-124.53"/>
<polygon fill="midnightblue" stroke="midnightblue" points="1907.36,-219.85 1900.37,-227.81 1910.8,-225.94 1907.36,-219.85"/>
</g>
<!-- Node3 -->
<g id="node3" class="node">
<title>Node3</title>
<g id="a_node3"><a xlink:href="class_c_p_s_1_1_sim_power_comp.html" target="_top" xlink:title=" ">
<polygon fill="none" stroke="black" points="1487,-228 1487,-258 1606,-258 1606,-228 1487,-228"/>
<text text-anchor="start" x="1495" y="-246" font-family="Helvetica,sans-Serif" font-size="10.00">CPS::SimPowerComp&lt;</text>
<text text-anchor="middle" x="1546.5" y="-235" font-family="Helvetica,sans-Serif" font-size="10.00"> Real &gt;</text>
</a>
</g>
</g>
<!-- Node3&#45;&gt;Node2 -->
<g id="edge2" class="edge">
<title>Node3&#45;&gt;Node2</title>
<path fill="none" stroke="midnightblue" d="M1616.23,-243C1671.49,-243 1748.73,-243 1803.73,-243"/>
<polygon fill="midnightblue" stroke="midnightblue" points="1616.17,-239.5 1606.17,-243 1616.17,-246.5 1616.17,-239.5"/>
</g>
<!-- Node4 -->
<g id="node4" class="node">
<title>Node4</title>
<g id="a_node4"><a xlink:href="class_c_p_s_1_1_topological_power_comp.html" target="_top" xlink:title=" ">
<polygon fill="none" stroke="black" points="1033,-229.5 1033,-248.5 1181,-248.5 1181,-229.5 1033,-229.5"/>
<text text-anchor="middle" x="1107" y="-236.5" font-family="Helvetica,sans-Serif" font-size="10.00">CPS::TopologicalPowerComp</text>
</a>
</g>
</g>
<!-- Node4&#45;&gt;Node3 -->
<g id="edge3" class="edge">
<title>Node4&#45;&gt;Node3</title>
<path fill="none" stroke="midnightblue" d="M1191.27,-239.76C1277.72,-240.55 1410.73,-241.77 1486.77,-242.46"/>
<polygon fill="midnightblue" stroke="midnightblue" points="1191.26,-236.26 1181.23,-239.67 1191.2,-243.26 1191.26,-236.26"/>
</g>
<!-- Node11 -->
<g id="node11" class="node">
<title>Node11</title>
<g id="a_node11"><a xlink:href="class_c_p_s_1_1_sim_power_comp.html" target="_top" xlink:title="Base class for all components that are transmitting power.">
<polygon fill="none" stroke="black" points="1284,-266 1284,-296 1403,-296 1403,-266 1284,-266"/>
<text text-anchor="start" x="1292" y="-284" font-family="Helvetica,sans-Serif" font-size="10.00">CPS::SimPowerComp&lt;</text>
<text text-anchor="middle" x="1343.5" y="-273" font-family="Helvetica,sans-Serif" font-size="10.00"> VarType &gt;</text>
</a>
</g>
</g>
<!-- Node4&#45;&gt;Node11 -->
<g id="edge12" class="edge">
<title>Node4&#45;&gt;Node11</title>
<path fill="none" stroke="midnightblue" d="M1172.04,-250.27C1200.78,-255.34 1235.1,-261.43 1266,-267 1271.71,-268.03 1277.67,-269.11 1283.62,-270.19"/>
<polygon fill="midnightblue" stroke="midnightblue" points="1172.58,-246.81 1162.13,-248.51 1171.37,-253.7 1172.58,-246.81"/>
</g>
<!-- Node5 -->
<g id="node5" class="node">
<title>Node5</title>
<g id="a_node5"><a xlink:href="class_c_p_s_1_1_identified_object.html" target="_top" xlink:title=" ">
<polygon fill="none" stroke="black" points="721,-229.5 721,-248.5 837,-248.5 837,-229.5 721,-229.5"/>
<text text-anchor="middle" x="779" y="-236.5" font-family="Helvetica,sans-Serif" font-size="10.00">CPS::IdentifiedObject</text>
</a>
</g>
</g>
<!-- Node5&#45;&gt;Node4 -->
<g id="edge4" class="edge">
<title>Node5&#45;&gt;Node4</title>
<path fill="none" stroke="midnightblue" d="M847.34,-239C901.44,-239 977.3,-239 1032.88,-239"/>
<polygon fill="midnightblue" stroke="midnightblue" points="847.16,-235.5 837.16,-239 847.16,-242.5 847.16,-235.5"/>
</g>
<!-- Node6 -->
<g id="node6" class="node">
<title>Node6</title>
<g id="a_node6"><a xlink:href="class_c_p_s_1_1_attribute.html" target="_top" xlink:title=" ">
<polygon fill="none" stroke="black" points="456,-204.5 456,-223.5 583,-223.5 583,-204.5 456,-204.5"/>
<text text-anchor="middle" x="519.5" y="-211.5" font-family="Helvetica,sans-Serif" font-size="10.00">CPS::Attribute&lt; String &gt;</text>
</a>
</g>
</g>
<!-- Node6&#45;&gt;Node5 -->
<g id="edge5" class="edge">
<title>Node6&#45;&gt;Node5</title>
<path fill="none" stroke="#9a32cd" stroke-dasharray="5,2" d="M593.22,-221.06C633.63,-224.98 683.17,-229.79 720.79,-233.45"/>
<polygon fill="#9a32cd" stroke="#9a32cd" points="593.45,-217.57 583.16,-220.08 592.78,-224.53 593.45,-217.57"/>
<text text-anchor="middle" x="654.5" y="-245" font-family="Helvetica,sans-Serif" font-size="10.00"> mName</text>
<text text-anchor="middle" x="654.5" y="-234" font-family="Helvetica,sans-Serif" font-size="10.00">mUID</text>
</g>
<!-- Node7 -->
<g id="node7" class="node">
<title>Node7</title>
<g id="a_node7"><a xlink:href="class_c_p_s_1_1_attribute_base.html" target="_top" xlink:title=" ">
<polygon fill="none" stroke="black" points="5.5,-232.5 5.5,-251.5 110.5,-251.5 110.5,-232.5 5.5,-232.5"/>
<text text-anchor="middle" x="58" y="-239.5" font-family="Helvetica,sans-Serif" font-size="10.00">CPS::AttributeBase</text>
</a>
</g>
</g>
<!-- Node7&#45;&gt;Node6 -->
<g id="edge6" class="edge">
<title>Node7&#45;&gt;Node6</title>
<path fill="none" stroke="midnightblue" d="M120.89,-246.28C195.37,-250.29 324.03,-253.6 433,-238 452.99,-235.14 474.91,-228.92 491.55,-223.53"/>
<polygon fill="midnightblue" stroke="midnightblue" points="120.93,-242.78 110.75,-245.71 120.54,-249.76 120.93,-242.78"/>
</g>
<!-- Node9 -->
<g id="node9" class="node">
<title>Node9</title>
<g id="a_node9"><a xlink:href="class_c_p_s_1_1_attribute.html" target="_top" xlink:title=" ">
<polygon fill="none" stroke="black" points="172,-194.5 172,-213.5 276,-213.5 276,-194.5 172,-194.5"/>
<text text-anchor="middle" x="224" y="-201.5" font-family="Helvetica,sans-Serif" font-size="10.00">CPS::Attribute&lt; T &gt;</text>
</a>
</g>
</g>
<!-- Node7&#45;&gt;Node9 -->
<g id="edge9" class="edge">
<title>Node7&#45;&gt;Node9</title>
<path fill="none" stroke="midnightblue" d="M110.34,-230.1C133.39,-224.76 160.22,-218.55 181.91,-213.52"/>
<polygon fill="midnightblue" stroke="midnightblue" points="109.34,-226.74 100.38,-232.41 110.92,-233.56 109.34,-226.74"/>
</g>
<!-- Node12 -->
<g id="node12" class="node">
<title>Node12</title>
<g id="a_node12"><a xlink:href="class_c_p_s_1_1_attribute.html" target="_top" xlink:title=" ">
<polygon fill="none" stroke="black" points="451,-266 451,-296 588,-296 588,-266 451,-266"/>
<text text-anchor="start" x="459" y="-284" font-family="Helvetica,sans-Serif" font-size="10.00">CPS::Attribute&lt; MatrixVar</text>
<text text-anchor="middle" x="519.5" y="-273" font-family="Helvetica,sans-Serif" font-size="10.00">&lt; VarType &gt; &gt;</text>
</a>
</g>
</g>
<!-- Node7&#45;&gt;Node12 -->
<g id="edge14" class="edge">
<title>Node7&#45;&gt;Node12</title>
<path fill="none" stroke="midnightblue" d="M73.05,-259.31C89.79,-278.45 119.7,-308.27 153,-321 269.26,-365.44 312.17,-355.86 433,-326 456.29,-320.25 480.24,-306.88 496.84,-296.2"/>
<polygon fill="midnightblue" stroke="midnightblue" points="75.65,-256.97 66.52,-251.6 70.31,-261.5 75.65,-256.97"/>
</g>
<!-- Node15 -->
<g id="node15" class="node">
<title>Node15</title>
<g id="a_node15"><a xlink:href="class_c_p_s_1_1_attribute.html" target="_top" xlink:title=" ">
<polygon fill="none" stroke="black" points="455,-361.5 455,-380.5 584,-380.5 584,-361.5 455,-361.5"/>
<text text-anchor="middle" x="519.5" y="-368.5" font-family="Helvetica,sans-Serif" font-size="10.00">CPS::Attribute&lt; Matrix &gt;</text>
</a>
</g>
</g>
<!-- Node7&#45;&gt;Node15 -->
<g id="edge19" class="edge">
<title>Node7&#45;&gt;Node15</title>
<path fill="none" stroke="midnightblue" d="M68.93,-260.78C83.53,-286.19 113.4,-330.58 153,-350 253.58,-399.33 388.91,-390.69 463.47,-380.52"/>
<polygon fill="midnightblue" stroke="midnightblue" points="71.85,-258.82 63.94,-251.77 65.73,-262.21 71.85,-258.82"/>
</g>
<!-- Node19 -->
<g id="node19" class="node">
<title>Node19</title>
<g id="a_node19"><a xlink:href="class_c_p_s_1_1_attribute.html" target="_top" xlink:title=" ">
<polygon fill="none" stroke="black" points="460,-85.5 460,-104.5 579,-104.5 579,-85.5 460,-85.5"/>
<text text-anchor="middle" x="519.5" y="-92.5" font-family="Helvetica,sans-Serif" font-size="10.00">CPS::Attribute&lt; Real &gt;</text>
</a>
</g>
</g>
<!-- Node7&#45;&gt;Node19 -->
<g id="edge28" class="edge">
<title>Node7&#45;&gt;Node19</title>
<path fill="none" stroke="midnightblue" d="M62.59,-222.46C70.8,-184.16 94.92,-99.92 153,-65 267.04,3.56 438.49,-59.82 497.6,-85.4"/>
<polygon fill="midnightblue" stroke="midnightblue" points="59.14,-221.88 60.61,-232.37 66,-223.25 59.14,-221.88"/>
</g>
<!-- Node8 -->
<g id="node8" class="node">
<title>Node8</title>
<g id="a_node8"><a xlink:title=" ">
<polygon fill="none" stroke="#bfbfbf" points="166,-134.5 166,-175.5 282,-175.5 282,-134.5 166,-134.5"/>
<text text-anchor="start" x="174" y="-163.5" font-family="Helvetica,sans-Serif" font-size="10.00">std::enable_shared</text>
<text text-anchor="start" x="174" y="-152.5" font-family="Helvetica,sans-Serif" font-size="10.00">_from_this&lt; Attribute</text>
<text text-anchor="middle" x="224" y="-141.5" font-family="Helvetica,sans-Serif" font-size="10.00">&lt; String &gt; &gt;</text>
</a>
</g>
</g>
<!-- Node8&#45;&gt;Node6 -->
<g id="edge7" class="edge">
<title>Node8&#45;&gt;Node6</title>
<path fill="none" stroke="midnightblue" d="M291.83,-135.69C333.66,-127 387.97,-122.05 433,-139 468.11,-152.22 498.2,-187.13 511.38,-204.25"/>
<polygon fill="midnightblue" stroke="midnightblue" points="291.04,-132.28 282.02,-137.84 292.54,-139.11 291.04,-132.28"/>
</g>
<!-- Node9&#45;&gt;Node6 -->
<g id="edge8" class="edge">
<title>Node9&#45;&gt;Node6</title>
<path fill="none" stroke="orange" stroke-dasharray="5,2" d="M286,-195.24C327.55,-190.63 383.75,-187.04 433,-193 451.36,-195.22 471.47,-200.03 487.56,-204.49"/>
<polygon fill="orange" stroke="orange" points="285.56,-191.77 276.03,-196.4 286.36,-198.72 285.56,-191.77"/>
<text text-anchor="middle" x="373" y="-196" font-family="Helvetica,sans-Serif" font-size="10.00"> &lt; String &gt;</text>
</g>
<!-- Node9&#45;&gt;Node12 -->
<g id="edge16" class="edge">
<title>Node9&#45;&gt;Node12</title>
<path fill="none" stroke="orange" stroke-dasharray="5,2" d="M271.12,-216.1C322.49,-229.58 405.59,-251.38 461.12,-265.95"/>
<polygon fill="orange" stroke="orange" points="271.84,-212.67 261.28,-213.52 270.07,-219.44 271.84,-212.67"/>
<text text-anchor="middle" x="373" y="-261" font-family="Helvetica,sans-Serif" font-size="10.00"> &lt; MatrixVar&lt; VarType &gt; &gt;</text>
</g>
<!-- Node9&#45;&gt;Node15 -->
<g id="edge21" class="edge">
<title>Node9&#45;&gt;Node15</title>
<path fill="none" stroke="orange" stroke-dasharray="5,2" d="M244.57,-220.17C266.03,-237.75 299.23,-264.47 313,-273 375.15,-311.53 454.79,-345.55 494.19,-361.46"/>
<polygon fill="orange" stroke="orange" points="246.67,-217.36 236.72,-213.72 242.23,-222.77 246.67,-217.36"/>
<text text-anchor="middle" x="373" y="-338" font-family="Helvetica,sans-Serif" font-size="10.00"> &lt; Matrix &gt;</text>
</g>
<!-- Node9&#45;&gt;Node19 -->
<g id="edge30" class="edge">
<title>Node9&#45;&gt;Node19</title>
<path fill="none" stroke="orange" stroke-dasharray="5,2" d="M277.77,-191.42C283.67,-189.5 289.52,-187.36 295,-185 303.61,-181.29 304.59,-178.14 313,-174 373.35,-144.27 447.85,-118.08 488.52,-104.61"/>
<polygon fill="orange" stroke="orange" points="276.4,-188.17 267.86,-194.44 278.44,-194.87 276.4,-188.17"/>
<text text-anchor="middle" x="373" y="-177" font-family="Helvetica,sans-Serif" font-size="10.00"> &lt; Real &gt;</text>
</g>
<!-- Node10 -->
<g id="node10" class="node">
<title>Node10</title>
<g id="a_node10"><a xlink:title=" ">
<polygon fill="none" stroke="#bfbfbf" points="0,-0.5 0,-41.5 116,-41.5 116,-0.5 0,-0.5"/>
<text text-anchor="start" x="8" y="-29.5" font-family="Helvetica,sans-Serif" font-size="10.00">std::enable_shared</text>
<text text-anchor="start" x="8" y="-18.5" font-family="Helvetica,sans-Serif" font-size="10.00">_from_this&lt; Attribute</text>
<text text-anchor="middle" x="58" y="-7.5" font-family="Helvetica,sans-Serif" font-size="10.00">&lt; T &gt; &gt;</text>
</a>
</g>
</g>
<!-- Node10&#45;&gt;Node9 -->
<g id="edge10" class="edge">
<title>Node10&#45;&gt;Node9</title>
<path fill="none" stroke="midnightblue" d="M68.33,-51.34C81.3,-88.44 108.37,-150.53 153,-185 158.58,-189.31 165.07,-192.64 171.8,-195.22"/>
<polygon fill="midnightblue" stroke="midnightblue" points="71.55,-49.94 65.04,-41.58 64.92,-52.18 71.55,-49.94"/>
</g>
<!-- Node11&#45;&gt;Node3 -->
<g id="edge11" class="edge">
<title>Node11&#45;&gt;Node3</title>
<path fill="none" stroke="orange" stroke-dasharray="5,2" d="M1413.24,-268C1437.15,-263.48 1463.73,-258.46 1486.75,-254.11"/>
<polygon fill="orange" stroke="orange" points="1412.35,-264.61 1403.18,-269.91 1413.65,-271.49 1412.35,-264.61"/>
<text text-anchor="middle" x="1440.5" y="-269" font-family="Helvetica,sans-Serif" font-size="10.00"> &lt; Real &gt;</text>
</g>
<!-- Node17 -->
<g id="node17" class="node">
<title>Node17</title>
<g id="a_node17"><a xlink:href="class_c_p_s_1_1_m_n_a_sim_power_comp.html" target="_top" xlink:title="Base class for all MNA components that are transmitting power.">
<polygon fill="none" stroke="black" points="1478,-285 1478,-315 1615,-315 1615,-285 1478,-285"/>
<text text-anchor="start" x="1486" y="-303" font-family="Helvetica,sans-Serif" font-size="10.00">CPS::MNASimPowerComp</text>
<text text-anchor="middle" x="1546.5" y="-292" font-family="Helvetica,sans-Serif" font-size="10.00">&lt; VarType &gt;</text>
</a>
</g>
</g>
<!-- Node11&#45;&gt;Node17 -->
<g id="edge23" class="edge">
<title>Node11&#45;&gt;Node17</title>
<path fill="none" stroke="midnightblue" d="M1413.34,-292.13C1415.93,-292.44 1418.49,-292.73 1421,-293 1439.41,-294.96 1459.4,-296.39 1477.88,-297.42"/>
<polygon fill="midnightblue" stroke="midnightblue" points="1413.68,-288.64 1403.31,-290.83 1412.78,-295.58 1413.68,-288.64"/>
</g>
<!-- Node12&#45;&gt;Node11 -->
<g id="edge13" class="edge">
<title>Node12&#45;&gt;Node11</title>
<path fill="none" stroke="#9a32cd" stroke-dasharray="5,2" d="M598.59,-281C762.4,-281 1138.74,-281 1283.9,-281"/>
<polygon fill="#9a32cd" stroke="#9a32cd" points="598.12,-277.5 588.12,-281 598.12,-284.5 598.12,-277.5"/>
<text text-anchor="middle" x="935" y="-295" font-family="Helvetica,sans-Serif" font-size="10.00"> mIntfCurrent</text>
<text text-anchor="middle" x="935" y="-284" font-family="Helvetica,sans-Serif" font-size="10.00">mIntfVoltage</text>
</g>
<!-- Node13 -->
<g id="node13" class="node">
<title>Node13</title>
<g id="a_node13"><a xlink:title=" ">
<polygon fill="none" stroke="#bfbfbf" points="153,-270.5 153,-311.5 295,-311.5 295,-270.5 153,-270.5"/>
<text text-anchor="start" x="161" y="-299.5" font-family="Helvetica,sans-Serif" font-size="10.00">std::enable_shared</text>
<text text-anchor="start" x="161" y="-288.5" font-family="Helvetica,sans-Serif" font-size="10.00">_from_this&lt; Attribute</text>
<text text-anchor="middle" x="224" y="-277.5" font-family="Helvetica,sans-Serif" font-size="10.00">&lt; MatrixVar&lt; VarType &gt; &gt; &gt;</text>
</a>
</g>
</g>
<!-- Node13&#45;&gt;Node12 -->
<g id="edge15" class="edge">
<title>Node13&#45;&gt;Node12</title>
<path fill="none" stroke="midnightblue" d="M305.45,-288.26C351.06,-286.71 407.47,-284.78 450.79,-283.31"/>
<polygon fill="midnightblue" stroke="midnightblue" points="305.18,-284.77 295.3,-288.6 305.41,-291.76 305.18,-284.77"/>
</g>
<!-- Node14 -->
<g id="node14" class="node">
<title>Node14</title>
<g id="a_node14"><a xlink:href="class_c_p_s_1_1_m_n_a_interface.html" target="_top" xlink:title="Interface to be implemented by all models used by the MNA solver.">
<polygon fill="none" stroke="black" points="1290,-175.5 1290,-194.5 1397,-194.5 1397,-175.5 1290,-175.5"/>
<text text-anchor="middle" x="1343.5" y="-182.5" font-family="Helvetica,sans-Serif" font-size="10.00">CPS::MNAInterface</text>
</a>
</g>
</g>
<!-- Node14&#45;&gt;Node2 -->
<g id="edge17" class="edge">
<title>Node14&#45;&gt;Node2</title>
<path fill="none" stroke="midnightblue" d="M1407.39,-191.92C1507.18,-202.9 1701,-224.24 1803.76,-235.54"/>
<polygon fill="midnightblue" stroke="midnightblue" points="1407.77,-188.44 1397.44,-190.83 1407,-195.4 1407.77,-188.44"/>
</g>
<!-- Node14&#45;&gt;Node17 -->
<g id="edge24" class="edge">
<title>Node14&#45;&gt;Node17</title>
<path fill="none" stroke="midnightblue" d="M1367.05,-200.12C1393.22,-217.41 1437.92,-246.13 1478,-268 1488.82,-273.9 1500.9,-279.83 1511.82,-284.95"/>
<polygon fill="midnightblue" stroke="midnightblue" points="1368.87,-197.13 1358.6,-194.51 1365,-202.96 1368.87,-197.13"/>
</g>
<!-- Node15&#45;&gt;Node2 -->
<g id="edge18" class="edge">
<title>Node15&#45;&gt;Node2</title>
<path fill="none" stroke="#9a32cd" stroke-dasharray="5,2" d="M594.29,-371C645.78,-371 716.08,-371 778,-371 778,-371 778,-371 1547.5,-371 1669.07,-371 1799.47,-292.09 1849.89,-258.19"/>
<polygon fill="#9a32cd" stroke="#9a32cd" points="594.26,-367.5 584.26,-371 594.26,-374.5 594.26,-367.5"/>
<text text-anchor="middle" x="1232.5" y="-374" font-family="Helvetica,sans-Serif" font-size="10.00"> mRightVector</text>
</g>
<!-- Node15&#45;&gt;Node17 -->
<g id="edge25" class="edge">
<title>Node15&#45;&gt;Node17</title>
<path fill="none" stroke="#9a32cd" stroke-dasharray="5,2" d="M568.91,-359.23C620.41,-347.74 704.46,-332 778,-332 778,-332 778,-332 1344.5,-332 1391.5,-332 1443.91,-323.36 1483.43,-315.06"/>
<polygon fill="#9a32cd" stroke="#9a32cd" points="568.03,-355.84 559.05,-361.46 569.58,-362.66 568.03,-355.84"/>
<text text-anchor="middle" x="1107" y="-335" font-family="Helvetica,sans-Serif" font-size="10.00"> mRightVector</text>
</g>
<!-- Node16 -->
<g id="node16" class="node">
<title>Node16</title>
<g id="a_node16"><a xlink:title=" ">
<polygon fill="none" stroke="#bfbfbf" points="166,-406.5 166,-447.5 282,-447.5 282,-406.5 166,-406.5"/>
<text text-anchor="start" x="174" y="-435.5" font-family="Helvetica,sans-Serif" font-size="10.00">std::enable_shared</text>
<text text-anchor="start" x="174" y="-424.5" font-family="Helvetica,sans-Serif" font-size="10.00">_from_this&lt; Attribute</text>
<text text-anchor="middle" x="224" y="-413.5" font-family="Helvetica,sans-Serif" font-size="10.00">&lt; Matrix &gt; &gt;</text>
</a>
</g>
</g>
<!-- Node16&#45;&gt;Node15 -->
<g id="edge20" class="edge">
<title>Node16&#45;&gt;Node15</title>
<path fill="none" stroke="midnightblue" d="M292.26,-416.98C333.11,-410.57 386.22,-401.67 433,-392 449.17,-388.66 466.91,-384.4 482.02,-380.59"/>
<polygon fill="midnightblue" stroke="midnightblue" points="291.5,-413.55 282.15,-418.55 292.57,-420.47 291.5,-413.55"/>
</g>
<!-- Node17&#45;&gt;Node2 -->
<g id="edge22" class="edge">
<title>Node17&#45;&gt;Node2</title>
<path fill="none" stroke="orange" stroke-dasharray="5,2" d="M1624.98,-286.37C1679.45,-276.79 1751.62,-264.09 1803.78,-254.91"/>
<polygon fill="orange" stroke="orange" points="1624.27,-282.94 1615.03,-288.12 1625.48,-289.83 1624.27,-282.94"/>
<text text-anchor="middle" x="1698" y="-287" font-family="Helvetica,sans-Serif" font-size="10.00"> &lt; Real &gt;</text>
</g>
<!-- Node18 -->
<g id="node18" class="node">
<title>Node18</title>
<g id="a_node18"><a xlink:href="class_c_p_s_1_1_base_1_1_synchron_generator.html" target="_top" xlink:title="Base synchronous generator model.">
<polygon fill="none" stroke="black" points="855,-98.5 855,-117.5 1015,-117.5 1015,-98.5 855,-98.5"/>
<text text-anchor="middle" x="935" y="-105.5" font-family="Helvetica,sans-Serif" font-size="10.00">CPS::Base::SynchronGenerator</text>
</a>
</g>
</g>
<!-- Node18&#45;&gt;Node1 -->
<g id="edge26" class="edge">
<title>Node18&#45;&gt;Node1</title>
<path fill="none" stroke="midnightblue" d="M1015.17,-118.76C1074.58,-125.92 1157.99,-134 1231.5,-134 1231.5,-134 1231.5,-134 1873.5,-134 1924.01,-134 1980.64,-129.25 2024.63,-124.5"/>
<polygon fill="midnightblue" stroke="midnightblue" points="1015.46,-115.27 1005.11,-117.53 1014.61,-122.22 1015.46,-115.27"/>
</g>
<!-- Node19&#45;&gt;Node18 -->
<g id="edge27" class="edge">
<title>Node19&#45;&gt;Node18</title>
<path fill="none" stroke="#9a32cd" stroke-dasharray="5,2" d="M589.61,-95.16C623.74,-95.39 665.54,-95.9 703,-97 753.57,-98.48 810.32,-101.17 854.91,-103.52"/>
<polygon fill="#9a32cd" stroke="#9a32cd" points="589.3,-91.66 579.28,-95.1 589.26,-98.66 589.3,-91.66"/>
<text text-anchor="middle" x="654.5" y="-210" font-family="Helvetica,sans-Serif" font-size="10.00"> mDelta</text>
<text text-anchor="middle" x="654.5" y="-199" font-family="Helvetica,sans-Serif" font-size="10.00">mElecActivePower</text>
<text text-anchor="middle" x="654.5" y="-188" font-family="Helvetica,sans-Serif" font-size="10.00">mElecReactivePower</text>
<text text-anchor="middle" x="654.5" y="-177" font-family="Helvetica,sans-Serif" font-size="10.00">mElecTorque</text>
<text text-anchor="middle" x="654.5" y="-166" font-family="Helvetica,sans-Serif" font-size="10.00">mInertia</text>
<text text-anchor="middle" x="654.5" y="-155" font-family="Helvetica,sans-Serif" font-size="10.00">mLd</text>
<text text-anchor="middle" x="654.5" y="-144" font-family="Helvetica,sans-Serif" font-size="10.00">mLd_s</text>
<text text-anchor="middle" x="654.5" y="-133" font-family="Helvetica,sans-Serif" font-size="10.00">mLd_t</text>
<text text-anchor="middle" x="654.5" y="-122" font-family="Helvetica,sans-Serif" font-size="10.00">mLl</text>
<text text-anchor="middle" x="654.5" y="-111" font-family="Helvetica,sans-Serif" font-size="10.00">mLq</text>
<text text-anchor="middle" x="654.5" y="-100" font-family="Helvetica,sans-Serif" font-size="10.00">...</text>
</g>
<!-- Node20 -->
<g id="node20" class="node">
<title>Node20</title>
<g id="a_node20"><a xlink:title=" ">
<polygon fill="none" stroke="#bfbfbf" points="166,-74.5 166,-115.5 282,-115.5 282,-74.5 166,-74.5"/>
<text text-anchor="start" x="174" y="-103.5" font-family="Helvetica,sans-Serif" font-size="10.00">std::enable_shared</text>
<text text-anchor="start" x="174" y="-92.5" font-family="Helvetica,sans-Serif" font-size="10.00">_from_this&lt; Attribute</text>
<text text-anchor="middle" x="224" y="-81.5" font-family="Helvetica,sans-Serif" font-size="10.00">&lt; Real &gt; &gt;</text>
</a>
</g>
</g>
<!-- Node20&#45;&gt;Node19 -->
<g id="edge29" class="edge">
<title>Node20&#45;&gt;Node19</title>
<path fill="none" stroke="midnightblue" d="M292.47,-95C343.04,-95 411.55,-95 459.85,-95"/>
<polygon fill="midnightblue" stroke="midnightblue" points="292.29,-91.5 282.29,-95 292.29,-98.5 292.29,-91.5"/>
</g>
<!-- Node21 -->
<g id="node21" class="node">
<title>Node21</title>
<g id="a_node21"><a xlink:href="class_c_p_s_1_1_m_n_a_variable_comp_interface.html" target="_top" xlink:title="MNA interface to be used by elements that require recomputing of the system matrix.">
<polygon fill="none" stroke="black" points="1787.5,-86.5 1787.5,-105.5 1957.5,-105.5 1957.5,-86.5 1787.5,-86.5"/>
<text text-anchor="middle" x="1872.5" y="-93.5" font-family="Helvetica,sans-Serif" font-size="10.00">CPS::MNAVariableCompInterface</text>
</a>
</g>
</g>
<!-- Node21&#45;&gt;Node1 -->
<g id="edge31" class="edge">
<title>Node21&#45;&gt;Node1</title>
<path fill="none" stroke="midnightblue" d="M1967.53,-103.89C1978.52,-104.81 1989.75,-105.75 2000.81,-106.68"/>
<polygon fill="midnightblue" stroke="midnightblue" points="1967.78,-100.4 1957.52,-103.05 1967.19,-107.37 1967.78,-100.4"/>
</g>
<!-- Node22 -->
<g id="node22" class="node">
<title>Node22</title>
<g id="a_node22"><a xlink:href="class_shared_factory.html" target="_top" xlink:title=" ">
<polygon fill="none" stroke="black" points="1781,-37 1781,-67 1964,-67 1964,-37 1781,-37"/>
<text text-anchor="start" x="1789" y="-55" font-family="Helvetica,sans-Serif" font-size="10.00">SharedFactory&lt; SynchronGenerator</text>
<text text-anchor="middle" x="1872.5" y="-44" font-family="Helvetica,sans-Serif" font-size="10.00">VBR &gt;</text>
</a>
</g>
</g>
<!-- Node22&#45;&gt;Node1 -->
<g id="edge32" class="edge">
<title>Node22&#45;&gt;Node1</title>
<path fill="none" stroke="midnightblue" d="M1937.89,-69.76C1946.67,-72.19 1955.56,-74.65 1964,-77 1998.72,-86.65 2038.41,-97.74 2065.91,-105.45"/>
<polygon fill="midnightblue" stroke="midnightblue" points="1938.63,-66.34 1928.06,-67.04 1936.77,-73.08 1938.63,-66.34"/>
</g>
<!-- Node23 -->
<g id="node23" class="node">
<title>Node23</title>
<g id="a_node23"><a xlink:href="class_shared_factory.html" target="_top" xlink:title=" ">
<polygon fill="none" stroke="black" points="1494,-42.5 1494,-61.5 1599,-61.5 1599,-42.5 1494,-42.5"/>
<text text-anchor="middle" x="1546.5" y="-49.5" font-family="Helvetica,sans-Serif" font-size="10.00">SharedFactory&lt; T &gt;</text>
</a>
</g>
</g>
<!-- Node23&#45;&gt;Node22 -->
<g id="edge33" class="edge">
<title>Node23&#45;&gt;Node22</title>
<path fill="none" stroke="orange" stroke-dasharray="5,2" d="M1609.24,-52C1657.75,-52 1726.04,-52 1780.77,-52"/>
<polygon fill="orange" stroke="orange" points="1609.2,-48.5 1599.2,-52 1609.2,-55.5 1609.2,-48.5"/>
<text text-anchor="middle" x="1698" y="-55" font-family="Helvetica,sans-Serif" font-size="10.00"> &lt; SynchronGeneratorVBR &gt;</text>
</g>
</g>
</svg>
        <g id="navigator" transform="translate(0 0)" fill="#404254">
                <rect fill="#f2f5e9" fill-opacity="0.5" stroke="#606060" stroke-width=".5" x="0" y="0" width="60" height="60"/>
                <use id="zoomplus" xlink:href="#zoomPlus" x="17" y="9" onmousedown="handleZoom(evt,'in')"/>
                <use id="zoomminus" xlink:href="#zoomMin" x="42" y="9" onmousedown="handleZoom(evt,'out')"/>
                <use id="reset" xlink:href="#resetDef" x="30" y="36" onmousedown="handleReset()"/>
                <g id="arrowUp" xlink:href="#dirArrow" transform="translate(30 24)" onmousedown="handlePan(0,-1)">
                  <use xlink:href="#rim" fill="#404040">
                        <set attributeName="fill" to="#808080" begin="arrowUp.mouseover" end="arrowUp.mouseout"/>
                  </use>
                  <path fill="none" stroke="white" stroke-width="1.5" d="M0,-3.0v7 M-2.5,-0.5L0,-3.0L2.5,-0.5"/>
                </g>
                <g id="arrowRight" xlink:href="#dirArrow" transform="rotate(90) translate(36 -43)" onmousedown="handlePan(1,0)">
                  <use xlink:href="#rim" fill="#404040">
                        <set attributeName="fill" to="#808080" begin="arrowRight.mouseover" end="arrowRight.mouseout"/>
                  </use>
                  <path fill="none" stroke="white" stroke-width="1.5" d="M0,-3.0v7 M-2.5,-0.5L0,-3.0L2.5,-0.5"/>
                </g>
                <g id="arrowDown" xlink:href="#dirArrow" transform="rotate(180) translate(-30 -48)" onmousedown="handlePan(0,1)">
                  <use xlink:href="#rim" fill="#404040">
                        <set attributeName="fill" to="#808080" begin="arrowDown.mouseover" end="arrowDown.mouseout"/>
                  </use>
                  <path fill="none" stroke="white" stroke-width="1.5" d="M0,-3.0v7 M-2.5,-0.5L0,-3.0L2.5,-0.5"/>
                </g>
                <g id="arrowLeft" xlink:href="#dirArrow" transform="rotate(270) translate(-36 17)" onmousedown="handlePan(-1,0)">
                  <use xlink:href="#rim" fill="#404040">
                        <set attributeName="fill" to="#808080" begin="arrowLeft.mouseover" end="arrowLeft.mouseout"/>
                  </use>
                  <path fill="none" stroke="white" stroke-width="1.5" d="M0,-3.0v7 M-2.5,-0.5L0,-3.0L2.5,-0.5"/>
                </g>
        </g>
        <svg viewBox="0 0 15 15" width="100%" height="30px" preserveAspectRatio="xMaxYMin meet">
         <g id="arrow_out" transform="scale(0.3 0.3)">
          <a xlink:href="class_c_p_s_1_1_e_m_t_1_1_ph3_1_1_synchron_generator_v_b_r__coll__graph_org.svg" target="_base">
           <rect id="button" ry="5" rx="5" y="6" x="6" height="38" width="38"
                fill="#f2f5e9" fill-opacity="0.5" stroke="#606060" stroke-width="1.0"/>
           <path id="arrow"
             d="M 11.500037,31.436501 C 11.940474,20.09759 22.043105,11.32322 32.158766,21.979434 L 37.068811,17.246167 C 37.068811,17.246167 37.088388,32 37.088388,32 L 22.160133,31.978069 C 22.160133,31.978069 26.997745,27.140456 26.997745,27.140456 C 18.528582,18.264221 13.291696,25.230495 11.500037,31.436501 z"
             style="fill:#404040;"/>
          </a>
         </g>
        </svg>
</svg>
