<?xml version="1.0" encoding="UTF-8" standalone="no"?>
<!DOCTYPE svg PUBLIC "-//W3C//DTD SVG 1.1//EN"
 "http://www.w3.org/Graphics/SVG/1.1/DTD/svg11.dtd">
<!-- Generated by graphviz version 2.42.4 (0)
 -->
<!-- Title: CPS::EMT::Ph3::SynchronGeneratorVBRStandalone Pages: 1 -->
<!--zoomable 435 -->
<svg id="main" version="1.1" xmlns="http://www.w3.org/2000/svg" xmlns:xlink="http://www.w3.org/1999/xlink" xml:space="preserve" onload="init(evt)">
<style type="text/css"><![CDATA[
.edge:hover path { stroke: red; }
.edge:hover polygon { stroke: red; fill: red; }
]]></style>
<script type="text/javascript"><![CDATA[
var edges = document.getElementsByTagName('g');
if (edges && edges.length) {
  for (var i=0;i<edges.length;i++) {
    if (edges[i].id.substr(0,4)=='edge') {
      edges[i].setAttribute('class','edge');
    }
  }
}
]]></script>
        <defs>
                <circle id="rim" cx="0" cy="0" r="7"/>
                <circle id="rim2" cx="0" cy="0" r="3.5"/>
                <g id="zoomPlus">
                        <use xlink:href="#rim" fill="#404040">
                                <set attributeName="fill" to="#808080" begin="zoomplus.mouseover" end="zoomplus.mouseout"/>
                        </use>
                        <path d="M-4,0h8M0,-4v8" fill="none" stroke="white" stroke-width="1.5" pointer-events="none"/>
                </g>
                <g id="zoomMin">
                        <use xlink:href="#rim" fill="#404040">
                                <set attributeName="fill" to="#808080" begin="zoomminus.mouseover" end="zoomminus.mouseout"/>
                        </use>
                        <path d="M-4,0h8" fill="none" stroke="white" stroke-width="1.5" pointer-events="none"/>
                </g>
                <g id="dirArrow">
                        <path fill="none" stroke="white" stroke-width="1.5" d="M0,-3.0v7 M-2.5,-0.5L0,-3.0L2.5,-0.5"/>
                </g>
               <g id="resetDef">
                       <use xlink:href="#rim2" fill="#404040">
                               <set attributeName="fill" to="#808080" begin="reset.mouseover" end="reset.mouseout"/>
                       </use>
               </g>
        </defs>

<script type="text/javascript">
var viewWidth = 1873;
var viewHeight = 435;
var sectionId = 'dynsection-1';
</script>
<script xlink:href="svgpan.js"/>
<svg id="graph" class="graph">
<g id="viewport">
<title>CPS::EMT::Ph3::SynchronGeneratorVBRStandalone</title>
<!-- Node1 -->
<g id="node1" class="node">
<title>Node1</title>
<g id="a_node1"><a xlink:title=" ">
<polygon fill="#bfbfbf" stroke="black" points="1680,-78 1680,-108 1865,-108 1865,-78 1680,-78"/>
<text text-anchor="start" x="1688" y="-96" font-family="Helvetica,sans-Serif" font-size="10.00">CPS::EMT::Ph3::SynchronGenerator</text>
<text text-anchor="middle" x="1772.5" y="-85" font-family="Helvetica,sans-Serif" font-size="10.00">VBRStandalone</text>
</a>
</g>
</g>
<!-- Node2 -->
<g id="node2" class="node">
<title>Node2</title>
<g id="a_node2"><a xlink:href="class_c_p_s_1_1_sim_power_comp.html" target="_top" xlink:title=" ">
<polygon fill="none" stroke="black" points="1497,-100 1497,-130 1624,-130 1624,-100 1497,-100"/>
<text text-anchor="start" x="1505" y="-118" font-family="Helvetica,sans-Serif" font-size="10.00">CPS::SimPowerComp&lt;</text>
<text text-anchor="middle" x="1560.5" y="-107" font-family="Helvetica,sans-Serif" font-size="10.00"> Real &gt;</text>
</a>
</g>
</g>
<!-- Node2&#45;&gt;Node1 -->
<g id="edge1" class="edge">
<title>Node2&#45;&gt;Node1</title>
<path fill="none" stroke="midnightblue" d="M1634.26,-107.38C1649.01,-105.83 1664.69,-104.19 1679.98,-102.59"/>
<polygon fill="midnightblue" stroke="midnightblue" points="1633.8,-103.91 1624.22,-108.43 1634.53,-110.87 1633.8,-103.91"/>
</g>
<!-- Node3 -->
<g id="node3" class="node">
<title>Node3</title>
<g id="a_node3"><a xlink:href="class_c_p_s_1_1_topological_power_comp.html" target="_top" xlink:title=" ">
<polygon fill="none" stroke="black" points="834,-28.5 834,-47.5 989,-47.5 989,-28.5 834,-28.5"/>
<text text-anchor="middle" x="911.5" y="-35.5" font-family="Helvetica,sans-Serif" font-size="10.00">CPS::TopologicalPowerComp</text>
</a>
</g>
</g>
<!-- Node3&#45;&gt;Node2 -->
<g id="edge2" class="edge">
<title>Node3&#45;&gt;Node2</title>
<path fill="none" stroke="midnightblue" d="M999.36,-37.16C1091.1,-37.58 1239.67,-42 1366,-63 1393.11,-67.51 1460.46,-86.26 1508.06,-99.95"/>
<polygon fill="midnightblue" stroke="midnightblue" points="999.3,-33.66 989.29,-37.13 999.28,-40.66 999.3,-33.66"/>
</g>
<!-- Node19 -->
<g id="node19" class="node">
<title>Node19</title>
<g id="a_node19"><a xlink:href="class_c_p_s_1_1_sim_power_comp.html" target="_top" xlink:title="Base class for all components that are transmitting power.">
<polygon fill="none" stroke="black" points="1229.5,-72 1229.5,-102 1356.5,-102 1356.5,-72 1229.5,-72"/>
<text text-anchor="start" x="1237.5" y="-90" font-family="Helvetica,sans-Serif" font-size="10.00">CPS::SimPowerComp&lt;</text>
<text text-anchor="middle" x="1293" y="-79" font-family="Helvetica,sans-Serif" font-size="10.00"> VarType &gt;</text>
</a>
</g>
</g>
<!-- Node3&#45;&gt;Node19 -->
<g id="edge26" class="edge">
<title>Node3&#45;&gt;Node19</title>
<path fill="none" stroke="midnightblue" d="M996.29,-48.82C1066.64,-57.9 1165.6,-70.68 1229.27,-78.9"/>
<polygon fill="midnightblue" stroke="midnightblue" points="996.49,-45.32 986.12,-47.51 995.59,-52.26 996.49,-45.32"/>
</g>
<!-- Node4 -->
<g id="node4" class="node">
<title>Node4</title>
<g id="a_node4"><a xlink:href="class_c_p_s_1_1_identified_object.html" target="_top" xlink:title=" ">
<polygon fill="none" stroke="black" points="138,-57.5 138,-76.5 257,-76.5 257,-57.5 138,-57.5"/>
<text text-anchor="middle" x="197.5" y="-64.5" font-family="Helvetica,sans-Serif" font-size="10.00">CPS::IdentifiedObject</text>
</a>
</g>
</g>
<!-- Node4&#45;&gt;Node3 -->
<g id="edge3" class="edge">
<title>Node4&#45;&gt;Node3</title>
<path fill="none" stroke="midnightblue" d="M267.17,-64.2C400.62,-58.77 694.11,-46.81 833.75,-41.13"/>
<polygon fill="midnightblue" stroke="midnightblue" points="266.92,-60.71 257.07,-64.61 267.2,-67.7 266.92,-60.71"/>
</g>
<!-- Node7 -->
<g id="node7" class="node">
<title>Node7</title>
<g id="a_node7"><a xlink:href="class_c_p_s_1_1_topological_terminal.html" target="_top" xlink:title=" ">
<polygon fill="none" stroke="black" points="469.5,-266.5 469.5,-285.5 607.5,-285.5 607.5,-266.5 469.5,-266.5"/>
<text text-anchor="middle" x="538.5" y="-273.5" font-family="Helvetica,sans-Serif" font-size="10.00">CPS::TopologicalTerminal</text>
</a>
</g>
</g>
<!-- Node4&#45;&gt;Node7 -->
<g id="edge7" class="edge">
<title>Node4&#45;&gt;Node7</title>
<path fill="none" stroke="midnightblue" d="M234.56,-80.06C290.83,-101.05 395.9,-142.88 423,-172 438.24,-188.37 426.56,-201.91 441,-219 459.96,-241.44 490.13,-257.24 511.68,-266.43"/>
<polygon fill="midnightblue" stroke="midnightblue" points="235.57,-76.7 224.98,-76.51 233.14,-83.27 235.57,-76.7"/>
</g>
<!-- Node13 -->
<g id="node13" class="node">
<title>Node13</title>
<g id="a_node13"><a xlink:href="class_c_p_s_1_1_topological_node.html" target="_top" xlink:title=" ">
<polygon fill="none" stroke="black" points="477.5,-80.5 477.5,-99.5 599.5,-99.5 599.5,-80.5 477.5,-80.5"/>
<text text-anchor="middle" x="538.5" y="-87.5" font-family="Helvetica,sans-Serif" font-size="10.00">CPS::TopologicalNode</text>
</a>
</g>
</g>
<!-- Node4&#45;&gt;Node13 -->
<g id="edge16" class="edge">
<title>Node4&#45;&gt;Node13</title>
<path fill="none" stroke="midnightblue" d="M267.19,-71.66C328.82,-75.84 418.39,-81.92 477.28,-85.91"/>
<polygon fill="midnightblue" stroke="midnightblue" points="267.38,-68.17 257.16,-70.98 266.9,-75.15 267.38,-68.17"/>
</g>
<!-- Node5 -->
<g id="node5" class="node">
<title>Node5</title>
<g id="a_node5"><a xlink:href="class_c_p_s_1_1_attribute_list.html" target="_top" xlink:title="Base class of objects having attributes to access member variables.">
<polygon fill="none" stroke="black" points="0,-25.5 0,-44.5 101,-44.5 101,-25.5 0,-25.5"/>
<text text-anchor="middle" x="50.5" y="-32.5" font-family="Helvetica,sans-Serif" font-size="10.00">CPS::AttributeList</text>
</a>
</g>
</g>
<!-- Node5&#45;&gt;Node4 -->
<g id="edge4" class="edge">
<title>Node5&#45;&gt;Node4</title>
<path fill="none" stroke="midnightblue" d="M104.41,-46.68C120.48,-50.22 137.95,-54.08 153.3,-57.47"/>
<polygon fill="midnightblue" stroke="midnightblue" points="105.13,-43.25 94.61,-44.51 103.62,-50.09 105.13,-43.25"/>
</g>
<!-- Node20 -->
<g id="node20" class="node">
<title>Node20</title>
<g id="a_node20"><a xlink:href="class_c_p_s_1_1_m_n_a_interface.html" target="_top" xlink:title="Interface to be implemented by all models used by the MNA solver.">
<polygon fill="none" stroke="black" points="295,-2.5 295,-21.5 403,-21.5 403,-2.5 295,-2.5"/>
<text text-anchor="middle" x="349" y="-9.5" font-family="Helvetica,sans-Serif" font-size="10.00">CPS::MNAInterface</text>
</a>
</g>
</g>
<!-- Node5&#45;&gt;Node20 -->
<g id="edge28" class="edge">
<title>Node5&#45;&gt;Node20</title>
<path fill="none" stroke="midnightblue" d="M111.21,-30.37C165,-26.2 243.33,-20.12 294.95,-16.11"/>
<polygon fill="midnightblue" stroke="midnightblue" points="110.83,-26.89 101.13,-31.15 111.37,-33.87 110.83,-26.89"/>
</g>
<!-- Node6 -->
<g id="node6" class="node">
<title>Node6</title>
<g id="a_node6"><a xlink:href="class_c_p_s_1_1_sim_terminal.html" target="_top" xlink:title=" ">
<polygon fill="none" stroke="black" points="1220,-278.5 1220,-297.5 1366,-297.5 1366,-278.5 1220,-278.5"/>
<text text-anchor="middle" x="1293" y="-285.5" font-family="Helvetica,sans-Serif" font-size="10.00">CPS::SimTerminal&lt; Real &gt;</text>
</a>
</g>
</g>
<!-- Node6&#45;&gt;Node2 -->
<g id="edge5" class="edge">
<title>Node6&#45;&gt;Node2</title>
<path fill="none" stroke="#9a32cd" stroke-dasharray="5,2" d="M1317.21,-272.88C1367.46,-240.13 1485.85,-162.99 1536.19,-130.19"/>
<polygon fill="#9a32cd" stroke="#9a32cd" points="1315.12,-270.06 1308.65,-278.45 1318.94,-275.93 1315.12,-270.06"/>
<text text-anchor="middle" x="1422" y="-230" font-family="Helvetica,sans-Serif" font-size="10.00"> mTerminals</text>
</g>
<!-- Node7&#45;&gt;Node6 -->
<g id="edge6" class="edge">
<title>Node7&#45;&gt;Node6</title>
<path fill="none" stroke="midnightblue" d="M617.87,-277.25C764.5,-279.59 1078.25,-284.59 1219.93,-286.85"/>
<polygon fill="midnightblue" stroke="midnightblue" points="617.66,-273.75 607.61,-277.09 617.55,-280.75 617.66,-273.75"/>
</g>
<!-- Node10 -->
<g id="node10" class="node">
<title>Node10</title>
<g id="a_node10"><a xlink:href="class_c_p_s_1_1_sim_terminal.html" target="_top" xlink:title=" ">
<polygon fill="none" stroke="black" points="830,-298.5 830,-317.5 993,-317.5 993,-298.5 830,-298.5"/>
<text text-anchor="middle" x="911.5" y="-305.5" font-family="Helvetica,sans-Serif" font-size="10.00">CPS::SimTerminal&lt; VarType &gt;</text>
</a>
</g>
</g>
<!-- Node7&#45;&gt;Node10 -->
<g id="edge11" class="edge">
<title>Node7&#45;&gt;Node10</title>
<path fill="none" stroke="midnightblue" d="M617.72,-282.75C680.06,-288.12 767.03,-295.63 829.97,-301.05"/>
<polygon fill="midnightblue" stroke="midnightblue" points="617.81,-279.24 607.55,-281.87 617.21,-286.22 617.81,-279.24"/>
</g>
<!-- Node8 -->
<g id="node8" class="node">
<title>Node8</title>
<g id="a_node8"><a xlink:href="class_shared_factory.html" target="_top" xlink:title=" ">
<polygon fill="none" stroke="black" points="654,-343 654,-373 812,-373 812,-343 654,-343"/>
<text text-anchor="start" x="662" y="-361" font-family="Helvetica,sans-Serif" font-size="10.00">SharedFactory&lt; SimTerminal</text>
<text text-anchor="middle" x="733" y="-350" font-family="Helvetica,sans-Serif" font-size="10.00">&lt; Real &gt; &gt;</text>
</a>
</g>
</g>
<!-- Node8&#45;&gt;Node6 -->
<g id="edge8" class="edge">
<title>Node8&#45;&gt;Node6</title>
<path fill="none" stroke="midnightblue" d="M822.3,-356.15C917.02,-352.8 1071.45,-343.4 1202,-317 1224.69,-312.41 1249.69,-304.08 1267.57,-297.52"/>
<polygon fill="midnightblue" stroke="midnightblue" points="822.07,-352.66 812.19,-356.49 822.3,-359.65 822.07,-352.66"/>
</g>
<!-- Node9 -->
<g id="node9" class="node">
<title>Node9</title>
<g id="a_node9"><a xlink:href="class_shared_factory.html" target="_top" xlink:title=" ">
<polygon fill="none" stroke="black" points="140.5,-310.5 140.5,-329.5 254.5,-329.5 254.5,-310.5 140.5,-310.5"/>
<text text-anchor="middle" x="197.5" y="-317.5" font-family="Helvetica,sans-Serif" font-size="10.00">SharedFactory&lt; T &gt;</text>
</a>
</g>
</g>
<!-- Node9&#45;&gt;Node8 -->
<g id="edge9" class="edge">
<title>Node9&#45;&gt;Node8</title>
<path fill="none" stroke="orange" stroke-dasharray="5,2" d="M251.46,-331.33C259.32,-332.74 267.35,-334.02 275,-335 407.19,-351.86 562.37,-356.5 653.65,-357.7"/>
<polygon fill="orange" stroke="orange" points="252.1,-327.89 241.63,-329.5 250.81,-334.77 252.1,-327.89"/>
<text text-anchor="middle" x="349" y="-351" font-family="Helvetica,sans-Serif" font-size="10.00"> &lt; SimTerminal&lt; Real &gt; &gt;</text>
</g>
<!-- Node11 -->
<g id="node11" class="node">
<title>Node11</title>
<g id="a_node11"><a xlink:href="class_shared_factory.html" target="_top" xlink:title=" ">
<polygon fill="none" stroke="black" points="459.5,-305 459.5,-335 617.5,-335 617.5,-305 459.5,-305"/>
<text text-anchor="start" x="467.5" y="-323" font-family="Helvetica,sans-Serif" font-size="10.00">SharedFactory&lt; SimTerminal</text>
<text text-anchor="middle" x="538.5" y="-312" font-family="Helvetica,sans-Serif" font-size="10.00">&lt; VarType &gt; &gt;</text>
</a>
</g>
</g>
<!-- Node9&#45;&gt;Node11 -->
<g id="edge13" class="edge">
<title>Node9&#45;&gt;Node11</title>
<path fill="none" stroke="orange" stroke-dasharray="5,2" d="M264.99,-320C320.79,-320 400.59,-320 459.42,-320"/>
<polygon fill="orange" stroke="orange" points="264.86,-316.5 254.86,-320 264.86,-323.5 264.86,-316.5"/>
<text text-anchor="middle" x="349" y="-323" font-family="Helvetica,sans-Serif" font-size="10.00"> &lt; SimTerminal&lt; VarType &gt; &gt;</text>
</g>
<!-- Node15 -->
<g id="node15" class="node">
<title>Node15</title>
<g id="a_node15"><a xlink:href="class_shared_factory.html" target="_top" xlink:title=" ">
<polygon fill="none" stroke="black" points="662.5,-218 662.5,-248 803.5,-248 803.5,-218 662.5,-218"/>
<text text-anchor="start" x="670.5" y="-236" font-family="Helvetica,sans-Serif" font-size="10.00">SharedFactory&lt; SimNode</text>
<text text-anchor="middle" x="733" y="-225" font-family="Helvetica,sans-Serif" font-size="10.00">&lt; Real &gt; &gt;</text>
</a>
</g>
</g>
<!-- Node9&#45;&gt;Node15 -->
<g id="edge19" class="edge">
<title>Node9&#45;&gt;Node15</title>
<path fill="none" stroke="orange" stroke-dasharray="5,2" d="M238,-307.5C285.62,-292.95 368.33,-269.34 441,-257 516.09,-244.25 603.28,-238.2 662.5,-235.37"/>
<polygon fill="orange" stroke="orange" points="236.91,-304.17 228.38,-310.46 238.97,-310.86 236.91,-304.17"/>
<text text-anchor="middle" x="349" y="-298" font-family="Helvetica,sans-Serif" font-size="10.00"> &lt; SimNode&lt; Real &gt; &gt;</text>
</g>
<!-- Node18 -->
<g id="node18" class="node">
<title>Node18</title>
<g id="a_node18"><a xlink:href="class_shared_factory.html" target="_top" xlink:title=" ">
<polygon fill="none" stroke="black" points="468,-179 468,-209 609,-209 609,-179 468,-179"/>
<text text-anchor="start" x="476" y="-197" font-family="Helvetica,sans-Serif" font-size="10.00">SharedFactory&lt; SimNode</text>
<text text-anchor="middle" x="538.5" y="-186" font-family="Helvetica,sans-Serif" font-size="10.00">&lt; VarType &gt; &gt;</text>
</a>
</g>
</g>
<!-- Node9&#45;&gt;Node18 -->
<g id="edge24" class="edge">
<title>Node9&#45;&gt;Node18</title>
<path fill="none" stroke="orange" stroke-dasharray="5,2" d="M204.91,-300.86C215.05,-274.01 237.55,-226.09 275,-205 333.72,-171.93 412.1,-173.37 467.89,-180.5"/>
<polygon fill="orange" stroke="orange" points="201.6,-299.73 201.53,-310.32 208.19,-302.09 201.6,-299.73"/>
<text text-anchor="middle" x="349" y="-208" font-family="Helvetica,sans-Serif" font-size="10.00"> &lt; SimNode&lt; VarType &gt; &gt;</text>
</g>
<!-- Node22 -->
<g id="node22" class="node">
<title>Node22</title>
<g id="a_node22"><a xlink:href="class_shared_factory.html" target="_top" xlink:title=" ">
<polygon fill="none" stroke="black" points="1011,-381 1011,-411 1202,-411 1202,-381 1011,-381"/>
<text text-anchor="start" x="1019" y="-399" font-family="Helvetica,sans-Serif" font-size="10.00">SharedFactory&lt; SynchronGenerator</text>
<text text-anchor="middle" x="1106.5" y="-388" font-family="Helvetica,sans-Serif" font-size="10.00">VBRStandalone &gt;</text>
</a>
</g>
</g>
<!-- Node9&#45;&gt;Node22 -->
<g id="edge31" class="edge">
<title>Node9&#45;&gt;Node22</title>
<path fill="none" stroke="orange" stroke-dasharray="5,2" d="M219.58,-335.37C234.31,-345.2 254.89,-357.16 275,-363 532.76,-437.79 854.38,-421.32 1010.99,-406.72"/>
<polygon fill="orange" stroke="orange" points="221.43,-332.39 211.21,-329.59 217.45,-338.15 221.43,-332.39"/>
<text text-anchor="middle" x="538.5" y="-419" font-family="Helvetica,sans-Serif" font-size="10.00"> &lt; SynchronGeneratorVBRStandalone &gt;</text>
</g>
<!-- Node10&#45;&gt;Node6 -->
<g id="edge10" class="edge">
<title>Node10&#45;&gt;Node6</title>
<path fill="none" stroke="orange" stroke-dasharray="5,2" d="M1003.47,-303.21C1069.77,-299.71 1158.38,-295.04 1219.83,-291.8"/>
<polygon fill="orange" stroke="orange" points="1003.25,-299.71 993.45,-303.73 1003.62,-306.7 1003.25,-299.71"/>
<text text-anchor="middle" x="1106.5" y="-305" font-family="Helvetica,sans-Serif" font-size="10.00"> &lt; Real &gt;</text>
</g>
<!-- Node11&#45;&gt;Node10 -->
<g id="edge12" class="edge">
<title>Node11&#45;&gt;Node10</title>
<path fill="none" stroke="midnightblue" d="M627.78,-317.14C689.11,-315.16 770.21,-312.54 829.82,-310.61"/>
<polygon fill="midnightblue" stroke="midnightblue" points="627.61,-313.65 617.73,-317.47 627.83,-320.64 627.61,-313.65"/>
</g>
<!-- Node12 -->
<g id="node12" class="node">
<title>Node12</title>
<g id="a_node12"><a xlink:href="class_c_p_s_1_1_sim_node.html" target="_top" xlink:title=" ">
<polygon fill="none" stroke="black" points="1228,-126.5 1228,-145.5 1358,-145.5 1358,-126.5 1228,-126.5"/>
<text text-anchor="middle" x="1293" y="-133.5" font-family="Helvetica,sans-Serif" font-size="10.00">CPS::SimNode&lt; Real &gt;</text>
</a>
</g>
</g>
<!-- Node12&#45;&gt;Node2 -->
<g id="edge14" class="edge">
<title>Node12&#45;&gt;Node2</title>
<path fill="none" stroke="#9a32cd" stroke-dasharray="5,2" d="M1368.34,-130.12C1408.78,-126.92 1458.26,-123.01 1496.74,-119.96"/>
<polygon fill="#9a32cd" stroke="#9a32cd" points="1367.96,-126.64 1358.27,-130.92 1368.52,-133.62 1367.96,-126.64"/>
<text text-anchor="middle" x="1422" y="-131" font-family="Helvetica,sans-Serif" font-size="10.00"> mVirtualNodes</text>
</g>
<!-- Node13&#45;&gt;Node12 -->
<g id="edge15" class="edge">
<title>Node13&#45;&gt;Node12</title>
<path fill="none" stroke="midnightblue" d="M609.8,-97.56C668.58,-103.63 754.67,-111.95 830,-117 971.77,-126.5 1138.35,-131.94 1227.67,-134.4"/>
<polygon fill="midnightblue" stroke="midnightblue" points="609.82,-94.04 599.52,-96.49 609.1,-101 609.82,-94.04"/>
</g>
<!-- Node16 -->
<g id="node16" class="node">
<title>Node16</title>
<g id="a_node16"><a xlink:href="class_c_p_s_1_1_sim_node.html" target="_top" xlink:title=" ">
<polygon fill="none" stroke="black" points="838.5,-164.5 838.5,-183.5 984.5,-183.5 984.5,-164.5 838.5,-164.5"/>
<text text-anchor="middle" x="911.5" y="-171.5" font-family="Helvetica,sans-Serif" font-size="10.00">CPS::SimNode&lt; VarType &gt;</text>
</a>
</g>
</g>
<!-- Node13&#45;&gt;Node16 -->
<g id="edge21" class="edge">
<title>Node13&#45;&gt;Node16</title>
<path fill="none" stroke="midnightblue" d="M609.42,-97.56C618.76,-100.32 627.9,-104.03 636,-109 647.06,-115.79 642.83,-125.39 654,-132 662.21,-136.86 771.68,-153.65 844.93,-164.48"/>
<polygon fill="midnightblue" stroke="midnightblue" points="610.2,-94.15 599.64,-95.02 608.43,-100.92 610.2,-94.15"/>
</g>
<!-- Node14 -->
<g id="node14" class="node">
<title>Node14</title>
<g id="a_node14"><a xlink:title=" ">
<polygon fill="none" stroke="#bfbfbf" points="849.5,-66.5 849.5,-107.5 973.5,-107.5 973.5,-66.5 849.5,-66.5"/>
<text text-anchor="start" x="857.5" y="-95.5" font-family="Helvetica,sans-Serif" font-size="10.00">std::enable_shared</text>
<text text-anchor="start" x="857.5" y="-84.5" font-family="Helvetica,sans-Serif" font-size="10.00">_from_this&lt; SimNode</text>
<text text-anchor="middle" x="911.5" y="-73.5" font-family="Helvetica,sans-Serif" font-size="10.00">&lt; Real &gt; &gt;</text>
</a>
</g>
</g>
<!-- Node14&#45;&gt;Node12 -->
<g id="edge17" class="edge">
<title>Node14&#45;&gt;Node12</title>
<path fill="none" stroke="midnightblue" d="M983.84,-94.94C1042.49,-101.63 1127.72,-111.74 1202,-122 1211.87,-123.36 1222.33,-124.9 1232.5,-126.45"/>
<polygon fill="midnightblue" stroke="midnightblue" points="983.91,-91.43 973.57,-93.77 983.11,-98.38 983.91,-91.43"/>
</g>
<!-- Node15&#45;&gt;Node12 -->
<g id="edge18" class="edge">
<title>Node15&#45;&gt;Node12</title>
<path fill="none" stroke="midnightblue" d="M813.82,-233.04C908.39,-231.1 1069.78,-221.53 1202,-182 1230.24,-173.56 1260.18,-156.38 1277.42,-145.58"/>
<polygon fill="midnightblue" stroke="midnightblue" points="813.69,-229.54 803.75,-233.22 813.81,-236.54 813.69,-229.54"/>
</g>
<!-- Node16&#45;&gt;Node12 -->
<g id="edge20" class="edge">
<title>Node16&#45;&gt;Node12</title>
<path fill="none" stroke="orange" stroke-dasharray="5,2" d="M994.83,-168.75C1052.86,-164.67 1132.32,-158.3 1202,-150 1212.68,-148.73 1224.03,-147.14 1234.95,-145.5"/>
<polygon fill="orange" stroke="orange" points="994.35,-165.27 984.62,-169.46 994.84,-172.26 994.35,-165.27"/>
<text text-anchor="middle" x="1106.5" y="-170" font-family="Helvetica,sans-Serif" font-size="10.00"> &lt; Real &gt;</text>
</g>
<!-- Node17 -->
<g id="node17" class="node">
<title>Node17</title>
<g id="a_node17"><a xlink:title=" ">
<polygon fill="none" stroke="#bfbfbf" points="476.5,-118.5 476.5,-159.5 600.5,-159.5 600.5,-118.5 476.5,-118.5"/>
<text text-anchor="start" x="484.5" y="-147.5" font-family="Helvetica,sans-Serif" font-size="10.00">std::enable_shared</text>
<text text-anchor="start" x="484.5" y="-136.5" font-family="Helvetica,sans-Serif" font-size="10.00">_from_this&lt; SimNode</text>
<text text-anchor="middle" x="538.5" y="-125.5" font-family="Helvetica,sans-Serif" font-size="10.00">&lt; VarType &gt; &gt;</text>
</a>
</g>
</g>
<!-- Node17&#45;&gt;Node16 -->
<g id="edge22" class="edge">
<title>Node17&#45;&gt;Node16</title>
<path fill="none" stroke="midnightblue" d="M610.82,-151.23C625.09,-153.39 640,-155.44 654,-157 716.1,-163.92 786.99,-168.36 838.48,-170.96"/>
<polygon fill="midnightblue" stroke="midnightblue" points="610.99,-147.71 600.57,-149.64 609.92,-154.63 610.99,-147.71"/>
</g>
<!-- Node18&#45;&gt;Node16 -->
<g id="edge23" class="edge">
<title>Node18&#45;&gt;Node16</title>
<path fill="none" stroke="midnightblue" d="M619.52,-191.26C673.84,-189.2 747.29,-186.05 812,-182 820.56,-181.46 829.54,-180.83 838.44,-180.16"/>
<polygon fill="midnightblue" stroke="midnightblue" points="619.12,-187.77 609.26,-191.64 619.39,-194.76 619.12,-187.77"/>
</g>
<!-- Node19&#45;&gt;Node2 -->
<g id="edge25" class="edge">
<title>Node19&#45;&gt;Node2</title>
<path fill="none" stroke="orange" stroke-dasharray="5,2" d="M1366.73,-94.67C1407.51,-98.97 1457.86,-104.28 1496.88,-108.4"/>
<polygon fill="orange" stroke="orange" points="1366.9,-91.17 1356.58,-93.6 1366.16,-98.13 1366.9,-91.17"/>
<text text-anchor="middle" x="1422" y="-107" font-family="Helvetica,sans-Serif" font-size="10.00"> &lt; Real &gt;</text>
</g>
<!-- Node20&#45;&gt;Node1 -->
<g id="edge27" class="edge">
<title>Node20&#45;&gt;Node1</title>
<path fill="none" stroke="midnightblue" d="M413.45,-8.79C489.23,-5.23 619.83,0 732,0 732,0 732,0 1561.5,0 1637.46,0 1716.66,-51.5 1752.21,-77.85"/>
<polygon fill="midnightblue" stroke="midnightblue" points="412.95,-5.31 403.13,-9.28 413.28,-12.3 412.95,-5.31"/>
</g>
<!-- Node21 -->
<g id="node21" class="node">
<title>Node21</title>
<g id="a_node21"><a xlink:href="class_c_p_s_1_1_base_1_1_synchron_generator.html" target="_top" xlink:title="Base synchronous generator model.">
<polygon fill="none" stroke="black" points="1478,-61.5 1478,-80.5 1643,-80.5 1643,-61.5 1478,-61.5"/>
<text text-anchor="middle" x="1560.5" y="-68.5" font-family="Helvetica,sans-Serif" font-size="10.00">CPS::Base::SynchronGenerator</text>
</a>
</g>
</g>
<!-- Node21&#45;&gt;Node1 -->
<g id="edge29" class="edge">
<title>Node21&#45;&gt;Node1</title>
<path fill="none" stroke="midnightblue" d="M1653.48,-80.64C1662.23,-81.55 1671.09,-82.48 1679.83,-83.4"/>
<polygon fill="midnightblue" stroke="midnightblue" points="1653.6,-77.13 1643.29,-79.57 1652.87,-84.09 1653.6,-77.13"/>
</g>
<!-- Node22&#45;&gt;Node1 -->
<g id="edge30" class="edge">
<title>Node22&#45;&gt;Node1</title>
<path fill="none" stroke="midnightblue" d="M1168.5,-377.92C1221.53,-361.52 1299.98,-335.58 1366,-307 1514.65,-242.64 1683.21,-145.38 1746.09,-108.19"/>
<polygon fill="midnightblue" stroke="midnightblue" points="1167.43,-374.59 1158.9,-380.87 1169.49,-381.28 1167.43,-374.59"/>
</g>
</g>
</svg>
        <g id="navigator" transform="translate(0 0)" fill="#404254">
                <rect fill="#f2f5e9" fill-opacity="0.5" stroke="#606060" stroke-width=".5" x="0" y="0" width="60" height="60"/>
                <use id="zoomplus" xlink:href="#zoomPlus" x="17" y="9" onmousedown="handleZoom(evt,'in')"/>
                <use id="zoomminus" xlink:href="#zoomMin" x="42" y="9" onmousedown="handleZoom(evt,'out')"/>
                <use id="reset" xlink:href="#resetDef" x="30" y="36" onmousedown="handleReset()"/>
                <g id="arrowUp" xlink:href="#dirArrow" transform="translate(30 24)" onmousedown="handlePan(0,-1)">
                  <use xlink:href="#rim" fill="#404040">
                        <set attributeName="fill" to="#808080" begin="arrowUp.mouseover" end="arrowUp.mouseout"/>
                  </use>
                  <path fill="none" stroke="white" stroke-width="1.5" d="M0,-3.0v7 M-2.5,-0.5L0,-3.0L2.5,-0.5"/>
                </g>
                <g id="arrowRight" xlink:href="#dirArrow" transform="rotate(90) translate(36 -43)" onmousedown="handlePan(1,0)">
                  <use xlink:href="#rim" fill="#404040">
                        <set attributeName="fill" to="#808080" begin="arrowRight.mouseover" end="arrowRight.mouseout"/>
                  </use>
                  <path fill="none" stroke="white" stroke-width="1.5" d="M0,-3.0v7 M-2.5,-0.5L0,-3.0L2.5,-0.5"/>
                </g>
                <g id="arrowDown" xlink:href="#dirArrow" transform="rotate(180) translate(-30 -48)" onmousedown="handlePan(0,1)">
                  <use xlink:href="#rim" fill="#404040">
                        <set attributeName="fill" to="#808080" begin="arrowDown.mouseover" end="arrowDown.mouseout"/>
                  </use>
                  <path fill="none" stroke="white" stroke-width="1.5" d="M0,-3.0v7 M-2.5,-0.5L0,-3.0L2.5,-0.5"/>
                </g>
                <g id="arrowLeft" xlink:href="#dirArrow" transform="rotate(270) translate(-36 17)" onmousedown="handlePan(-1,0)">
                  <use xlink:href="#rim" fill="#404040">
                        <set attributeName="fill" to="#808080" begin="arrowLeft.mouseover" end="arrowLeft.mouseout"/>
                  </use>
                  <path fill="none" stroke="white" stroke-width="1.5" d="M0,-3.0v7 M-2.5,-0.5L0,-3.0L2.5,-0.5"/>
                </g>
        </g>
        <svg viewBox="0 0 15 15" width="100%" height="30px" preserveAspectRatio="xMaxYMin meet">
         <g id="arrow_out" transform="scale(0.3 0.3)">
          <a xlink:href="class_c_p_s_1_1_e_m_t_1_1_ph3_1_1_synchron_generator_v_b_r_standalone__coll__graph_org.svg" target="_base">
           <rect id="button" ry="5" rx="5" y="6" x="6" height="38" width="38"
                fill="#f2f5e9" fill-opacity="0.5" stroke="#606060" stroke-width="1.0"/>
           <path id="arrow"
             d="M 11.500037,31.436501 C 11.940474,20.09759 22.043105,11.32322 32.158766,21.979434 L 37.068811,17.246167 C 37.068811,17.246167 37.088388,32 37.088388,32 L 22.160133,31.978069 C 22.160133,31.978069 26.997745,27.140456 26.997745,27.140456 C 18.528582,18.264221 13.291696,25.230495 11.500037,31.436501 z"
             style="fill:#404040;"/>
          </a>
         </g>
        </svg>
</svg>
