<?xml version="1.0" encoding="UTF-8" standalone="no"?>
<!DOCTYPE svg PUBLIC "-//W3C//DTD SVG 1.1//EN"
 "http://www.w3.org/Graphics/SVG/1.1/DTD/svg11.dtd">
<!-- Generated by graphviz version 2.44.0 (0)
 -->
<!-- Title: CPS::SP::Ph3::Inductor Pages: 1 -->
<!--zoomable 338 -->
<svg id="main" version="1.1" xmlns="http://www.w3.org/2000/svg" xmlns:xlink="http://www.w3.org/1999/xlink" xml:space="preserve" onload="init(evt)">
<style type="text/css"><![CDATA[
.edge:hover path { stroke: red; }
.edge:hover polygon { stroke: red; fill: red; }
]]></style>
<script type="text/javascript"><![CDATA[
var edges = document.getElementsByTagName('g');
if (edges && edges.length) {
  for (var i=0;i<edges.length;i++) {
    if (edges[i].id.substr(0,4)=='edge') {
      edges[i].setAttribute('class','edge');
    }
  }
}
]]></script>
        <defs>
                <circle id="rim" cx="0" cy="0" r="7"/>
                <circle id="rim2" cx="0" cy="0" r="3.5"/>
                <g id="zoomPlus">
                        <use xlink:href="#rim" fill="#404040">
                                <set attributeName="fill" to="#808080" begin="zoomplus.mouseover" end="zoomplus.mouseout"/>
                        </use>
                        <path d="M-4,0h8M0,-4v8" fill="none" stroke="white" stroke-width="1.5" pointer-events="none"/>
                </g>
                <g id="zoomMin">
                        <use xlink:href="#rim" fill="#404040">
                                <set attributeName="fill" to="#808080" begin="zoomminus.mouseover" end="zoomminus.mouseout"/>
                        </use>
                        <path d="M-4,0h8" fill="none" stroke="white" stroke-width="1.5" pointer-events="none"/>
                </g>
                <g id="dirArrow">
                        <path fill="none" stroke="white" stroke-width="1.5" d="M0,-3.0v7 M-2.5,-0.5L0,-3.0L2.5,-0.5"/>
                </g>
               <g id="resetDef">
                       <use xlink:href="#rim2" fill="#404040">
                               <set attributeName="fill" to="#808080" begin="reset.mouseover" end="reset.mouseout"/>
                       </use>
               </g>
        </defs>

<script type="text/javascript">
var viewWidth = 1766;
var viewHeight = 338;
var sectionId = 'dynsection-1';
</script>
<script xlink:href="svgpan.js"/>
<svg id="graph" class="graph">
<g id="viewport">
<title>CPS::SP::Ph3::Inductor</title>
<!-- Node1 -->
<g id="node1" class="node">
<title>Node1</title>
<g id="a_node1"><a xlink:title="Inductor.">
<polygon fill="#bfbfbf" stroke="black" points="1636,-189.5 1636,-208.5 1758,-208.5 1758,-189.5 1636,-189.5"/>
<text text-anchor="middle" x="1697" y="-196.5" font-family="Helvetica" font-size="10.00">CPS::SP::Ph3::Inductor</text>
</a>
</g>
</g>
<!-- Node2 -->
<g id="node2" class="node">
<title>Node2</title>
<g id="a_node2"><a xlink:href="class_c_p_s_1_1_base_1_1_ph3_1_1_inductor.html" target="_top" xlink:title=" ">
<polygon fill="none" stroke="black" points="795,-248.5 795,-267.5 926,-267.5 926,-248.5 795,-248.5"/>
<text text-anchor="middle" x="860.5" y="-255.5" font-family="Helvetica" font-size="10.00">CPS::Base::Ph3::Inductor</text>
</a>
</g>
</g>
<!-- Node2&#45;&gt;Node1 -->
<g id="edge1" class="edge">
<title>Node2&#45;&gt;Node1</title>
<path fill="none" stroke="midnightblue" d="M936.17,-256.86C998.23,-256.01 1088.86,-255 1168,-255 1168,-255 1168,-255 1533,-255 1589.25,-255 1650.79,-224.8 1679.51,-208.75"/>
<polygon fill="midnightblue" stroke="midnightblue" points="936.03,-253.36 926.08,-257 936.12,-260.36 936.03,-253.36"/>
</g>
<!-- Node3 -->
<g id="node3" class="node">
<title>Node3</title>
<g id="a_node3"><a xlink:href="class_c_p_s_1_1_attribute.html" target="_top" xlink:title=" ">
<polygon fill="none" stroke="black" points="438,-250.5 438,-269.5 563,-269.5 563,-250.5 438,-250.5"/>
<text text-anchor="middle" x="500.5" y="-257.5" font-family="Helvetica" font-size="10.00">CPS::Attribute&lt; Matrix &gt;</text>
</a>
</g>
</g>
<!-- Node3&#45;&gt;Node2 -->
<g id="edge2" class="edge">
<title>Node3&#45;&gt;Node2</title>
<path fill="none" stroke="#9a32cd" stroke-dasharray="5,2" d="M573.17,-259.6C637.91,-259.24 732.36,-258.71 794.84,-258.36"/>
<polygon fill="#9a32cd" stroke="#9a32cd" points="573.02,-256.1 563.04,-259.66 573.06,-263.1 573.02,-256.1"/>
<text text-anchor="middle" x="615.5" y="-263" font-family="Helvetica" font-size="10.00"> mInductance</text>
</g>
<!-- Node9 -->
<g id="node9" class="node">
<title>Node9</title>
<g id="a_node9"><a xlink:href="class_c_p_s_1_1_m_n_a_interface.html" target="_top" xlink:title="Interface to be implemented by all models used by the MNA solver.">
<polygon fill="none" stroke="black" points="669,-202.5 669,-221.5 773,-221.5 773,-202.5 669,-202.5"/>
<text text-anchor="middle" x="721" y="-209.5" font-family="Helvetica" font-size="10.00">CPS::MNAInterface</text>
</a>
</g>
</g>
<!-- Node3&#45;&gt;Node9 -->
<g id="edge11" class="edge">
<title>Node3&#45;&gt;Node9</title>
<path fill="none" stroke="#9a32cd" stroke-dasharray="5,2" d="M531.24,-246.36C546.68,-239.83 566.02,-232.47 584,-228 611.57,-221.15 643.04,-217.21 668.75,-214.95"/>
<polygon fill="#9a32cd" stroke="#9a32cd" points="529.49,-243.3 521.71,-250.5 532.28,-249.73 529.49,-243.3"/>
<text text-anchor="middle" x="615.5" y="-231" font-family="Helvetica" font-size="10.00"> mRightVector</text>
</g>
<!-- Node4 -->
<g id="node4" class="node">
<title>Node4</title>
<g id="a_node4"><a xlink:href="class_c_p_s_1_1_attribute_base.html" target="_top" xlink:title=" ">
<polygon fill="none" stroke="black" points="2.5,-123.5 2.5,-142.5 105.5,-142.5 105.5,-123.5 2.5,-123.5"/>
<text text-anchor="middle" x="54" y="-130.5" font-family="Helvetica" font-size="10.00">CPS::AttributeBase</text>
</a>
</g>
</g>
<!-- Node4&#45;&gt;Node3 -->
<g id="edge3" class="edge">
<title>Node4&#45;&gt;Node3</title>
<path fill="none" stroke="midnightblue" d="M66.75,-150.84C82,-172.36 110.75,-207.81 145,-225 238.83,-272.09 364.09,-272.12 437.85,-266.79"/>
<polygon fill="midnightblue" stroke="midnightblue" points="69.61,-148.82 61.06,-142.56 63.84,-152.78 69.61,-148.82"/>
</g>
<!-- Node6 -->
<g id="node6" class="node">
<title>Node6</title>
<g id="a_node6"><a xlink:href="class_c_p_s_1_1_attribute.html" target="_top" xlink:title=" ">
<polygon fill="none" stroke="black" points="162,-196.5 162,-215.5 266,-215.5 266,-196.5 162,-196.5"/>
<text text-anchor="middle" x="214" y="-203.5" font-family="Helvetica" font-size="10.00">CPS::Attribute&lt; T &gt;</text>
</a>
</g>
</g>
<!-- Node4&#45;&gt;Node6 -->
<g id="edge6" class="edge">
<title>Node4&#45;&gt;Node6</title>
<path fill="none" stroke="midnightblue" d="M76.87,-148.4C94.56,-160.29 120.49,-176.45 145,-187 153.56,-190.68 163.03,-193.85 172.11,-196.49"/>
<polygon fill="midnightblue" stroke="midnightblue" points="78.64,-145.38 68.41,-142.62 74.69,-151.16 78.64,-145.38"/>
</g>
<!-- Node14 -->
<g id="node14" class="node">
<title>Node14</title>
<g id="a_node14"><a xlink:href="class_c_p_s_1_1_attribute.html" target="_top" xlink:title=" ">
<polygon fill="none" stroke="black" points="438.5,-123.5 438.5,-142.5 562.5,-142.5 562.5,-123.5 438.5,-123.5"/>
<text text-anchor="middle" x="500.5" y="-130.5" font-family="Helvetica" font-size="10.00">CPS::Attribute&lt; String &gt;</text>
</a>
</g>
</g>
<!-- Node4&#45;&gt;Node14 -->
<g id="edge17" class="edge">
<title>Node4&#45;&gt;Node14</title>
<path fill="none" stroke="midnightblue" d="M115.92,-128.39C125.64,-127.81 135.59,-127.31 145,-127 247.89,-123.57 367.65,-127.19 438.32,-130.1"/>
<polygon fill="midnightblue" stroke="midnightblue" points="115.66,-124.9 105.9,-129.01 116.1,-131.88 115.66,-124.9"/>
</g>
<!-- Node17 -->
<g id="node17" class="node">
<title>Node17</title>
<g id="a_node17"><a xlink:href="class_c_p_s_1_1_attribute.html" target="_top" xlink:title=" ">
<polygon fill="none" stroke="black" points="435,-65 435,-95 566,-95 566,-65 435,-65"/>
<text text-anchor="start" x="443" y="-83" font-family="Helvetica" font-size="10.00">CPS::Attribute&lt; MatrixVar</text>
<text text-anchor="middle" x="500.5" y="-72" font-family="Helvetica" font-size="10.00">&lt; VarType &gt; &gt;</text>
</a>
</g>
</g>
<!-- Node4&#45;&gt;Node17 -->
<g id="edge23" class="edge">
<title>Node4&#45;&gt;Node17</title>
<path fill="none" stroke="midnightblue" d="M116,-125.23C119.38,-124.81 122.73,-124.4 126,-124 234.23,-110.77 360.2,-96.07 434.7,-87.46"/>
<polygon fill="midnightblue" stroke="midnightblue" points="115.29,-121.79 105.8,-126.51 116.16,-128.74 115.29,-121.79"/>
</g>
<!-- Node5 -->
<g id="node5" class="node">
<title>Node5</title>
<g id="a_node5"><a xlink:title=" ">
<polygon fill="none" stroke="#bfbfbf" points="160,-288.5 160,-329.5 268,-329.5 268,-288.5 160,-288.5"/>
<text text-anchor="start" x="168" y="-317.5" font-family="Helvetica" font-size="10.00">std::enable_shared</text>
<text text-anchor="start" x="168" y="-306.5" font-family="Helvetica" font-size="10.00">_from_this&lt; Attribute</text>
<text text-anchor="middle" x="214" y="-295.5" font-family="Helvetica" font-size="10.00">&lt; Matrix &gt; &gt;</text>
</a>
</g>
</g>
<!-- Node5&#45;&gt;Node3 -->
<g id="edge4" class="edge">
<title>Node5&#45;&gt;Node3</title>
<path fill="none" stroke="midnightblue" d="M278.18,-298.12C327.92,-289.55 396.56,-277.73 444.16,-269.53"/>
<polygon fill="midnightblue" stroke="midnightblue" points="277.44,-294.69 268.18,-299.84 278.63,-301.59 277.44,-294.69"/>
</g>
<!-- Node6&#45;&gt;Node3 -->
<g id="edge5" class="edge">
<title>Node6&#45;&gt;Node3</title>
<path fill="none" stroke="orange" stroke-dasharray="5,2" d="M275.97,-212.31C316.28,-217.08 370.13,-224.6 417,-235 435.56,-239.12 456,-245.3 471.9,-250.49"/>
<polygon fill="orange" stroke="orange" points="276.36,-208.83 266.02,-211.16 275.55,-215.79 276.36,-208.83"/>
<text text-anchor="middle" x="359" y="-238" font-family="Helvetica" font-size="10.00"> &lt; Matrix &gt;</text>
</g>
<!-- Node6&#45;&gt;Node14 -->
<g id="edge19" class="edge">
<title>Node6&#45;&gt;Node14</title>
<path fill="none" stroke="orange" stroke-dasharray="5,2" d="M276.09,-201.03C326.03,-196.33 392.28,-188.43 417,-178 426.34,-174.06 426.38,-169.34 435,-164 448.2,-155.82 463.89,-148.24 476.49,-142.62"/>
<polygon fill="orange" stroke="orange" points="275.65,-197.56 266.02,-201.96 276.3,-204.53 275.65,-197.56"/>
<text text-anchor="middle" x="359" y="-202" font-family="Helvetica" font-size="10.00"> &lt; String &gt;</text>
</g>
<!-- Node6&#45;&gt;Node17 -->
<g id="edge25" class="edge">
<title>Node6&#45;&gt;Node17</title>
<path fill="none" stroke="orange" stroke-dasharray="5,2" d="M272.94,-192.56C276.45,-190.91 279.84,-189.07 283,-187 293.58,-180.09 290.9,-172.59 301,-165 345.04,-131.88 403.96,-108.77 446.14,-95.09"/>
<polygon fill="orange" stroke="orange" points="271.35,-189.43 263.43,-196.46 274.01,-195.9 271.35,-189.43"/>
<text text-anchor="middle" x="359" y="-168" font-family="Helvetica" font-size="10.00"> &lt; MatrixVar&lt; VarType &gt; &gt;</text>
</g>
<!-- Node7 -->
<g id="node7" class="node">
<title>Node7</title>
<g id="a_node7"><a xlink:title=" ">
<polygon fill="none" stroke="#bfbfbf" points="0,-264.5 0,-305.5 108,-305.5 108,-264.5 0,-264.5"/>
<text text-anchor="start" x="8" y="-293.5" font-family="Helvetica" font-size="10.00">std::enable_shared</text>
<text text-anchor="start" x="8" y="-282.5" font-family="Helvetica" font-size="10.00">_from_this&lt; Attribute</text>
<text text-anchor="middle" x="54" y="-271.5" font-family="Helvetica" font-size="10.00">&lt; T &gt; &gt;</text>
</a>
</g>
</g>
<!-- Node7&#45;&gt;Node6 -->
<g id="edge7" class="edge">
<title>Node7&#45;&gt;Node6</title>
<path fill="none" stroke="midnightblue" d="M105.2,-259.9C135.26,-244.87 171.78,-226.61 193.66,-215.67"/>
<polygon fill="midnightblue" stroke="midnightblue" points="103.48,-256.85 96.1,-264.45 106.61,-263.11 103.48,-256.85"/>
</g>
<!-- Node8 -->
<g id="node8" class="node">
<title>Node8</title>
<g id="a_node8"><a xlink:href="class_c_p_s_1_1_m_n_a_tear_interface.html" target="_top" xlink:title=" ">
<polygon fill="none" stroke="black" points="1108,-202.5 1108,-221.5 1230,-221.5 1230,-202.5 1108,-202.5"/>
<text text-anchor="middle" x="1169" y="-209.5" font-family="Helvetica" font-size="10.00">CPS::MNATearInterface</text>
</a>
</g>
</g>
<!-- Node8&#45;&gt;Node1 -->
<g id="edge8" class="edge">
<title>Node8&#45;&gt;Node1</title>
<path fill="none" stroke="midnightblue" d="M1240.18,-210.27C1344.3,-207.69 1537.92,-202.91 1635.89,-200.49"/>
<polygon fill="midnightblue" stroke="midnightblue" points="1239.99,-206.77 1230.08,-210.52 1240.17,-213.77 1239.99,-206.77"/>
</g>
<!-- Node9&#45;&gt;Node8 -->
<g id="edge9" class="edge">
<title>Node9&#45;&gt;Node8</title>
<path fill="none" stroke="midnightblue" d="M783.24,-212C868.76,-212 1022.97,-212 1107.88,-212"/>
<polygon fill="midnightblue" stroke="midnightblue" points="783.16,-208.5 773.16,-212 783.16,-215.5 783.16,-208.5"/>
</g>
<!-- Node10 -->
<g id="node10" class="node">
<title>Node10</title>
<g id="a_node10"><a xlink:href="class_c_p_s_1_1_attribute_list.html" target="_top" xlink:title="Base class of objects having attributes to access member variables.">
<polygon fill="none" stroke="black" points="452.5,-173.5 452.5,-192.5 548.5,-192.5 548.5,-173.5 452.5,-173.5"/>
<text text-anchor="middle" x="500.5" y="-180.5" font-family="Helvetica" font-size="10.00">CPS::AttributeList</text>
</a>
</g>
</g>
<!-- Node10&#45;&gt;Node9 -->
<g id="edge10" class="edge">
<title>Node10&#45;&gt;Node9</title>
<path fill="none" stroke="midnightblue" d="M558.91,-190.62C592.99,-195.14 635.82,-200.83 668.75,-205.2"/>
<polygon fill="midnightblue" stroke="midnightblue" points="559.02,-187.1 548.64,-189.26 558.09,-194.04 559.02,-187.1"/>
</g>
<!-- Node13 -->
<g id="node13" class="node">
<title>Node13</title>
<g id="a_node13"><a xlink:href="class_c_p_s_1_1_identified_object.html" target="_top" xlink:title=" ">
<polygon fill="none" stroke="black" points="665,-153.5 665,-172.5 777,-172.5 777,-153.5 665,-153.5"/>
<text text-anchor="middle" x="721" y="-160.5" font-family="Helvetica" font-size="10.00">CPS::IdentifiedObject</text>
</a>
</g>
</g>
<!-- Node10&#45;&gt;Node13 -->
<g id="edge15" class="edge">
<title>Node10&#45;&gt;Node13</title>
<path fill="none" stroke="midnightblue" d="M558.96,-177.74C591.7,-174.74 632.5,-171.01 664.84,-168.05"/>
<polygon fill="midnightblue" stroke="midnightblue" points="558.28,-174.29 548.64,-178.68 558.92,-181.26 558.28,-174.29"/>
</g>
<!-- Node11 -->
<g id="node11" class="node">
<title>Node11</title>
<g id="a_node11"><a xlink:href="class_c_p_s_1_1_sim_power_comp.html" target="_top" xlink:title=" ">
<polygon fill="none" stroke="black" points="1472,-153 1472,-183 1592,-183 1592,-153 1472,-153"/>
<text text-anchor="start" x="1480" y="-171" font-family="Helvetica" font-size="10.00">CPS::SimPowerComp&lt;</text>
<text text-anchor="middle" x="1532" y="-160" font-family="Helvetica" font-size="10.00"> Complex &gt;</text>
</a>
</g>
</g>
<!-- Node11&#45;&gt;Node1 -->
<g id="edge12" class="edge">
<title>Node11&#45;&gt;Node1</title>
<path fill="none" stroke="midnightblue" d="M1602.32,-181.18C1616.95,-183.97 1632.11,-186.85 1645.86,-189.46"/>
<polygon fill="midnightblue" stroke="midnightblue" points="1602.79,-177.71 1592.31,-179.28 1601.48,-184.59 1602.79,-177.71"/>
</g>
<!-- Node12 -->
<g id="node12" class="node">
<title>Node12</title>
<g id="a_node12"><a xlink:href="class_c_p_s_1_1_topological_power_comp.html" target="_top" xlink:title=" ">
<polygon fill="none" stroke="black" points="944,-153.5 944,-172.5 1090,-172.5 1090,-153.5 944,-153.5"/>
<text text-anchor="middle" x="1017" y="-160.5" font-family="Helvetica" font-size="10.00">CPS::TopologicalPowerComp</text>
</a>
</g>
</g>
<!-- Node12&#45;&gt;Node11 -->
<g id="edge13" class="edge">
<title>Node12&#45;&gt;Node11</title>
<path fill="none" stroke="midnightblue" d="M1100.26,-163.8C1204.07,-164.81 1380.06,-166.53 1471.64,-167.42"/>
<polygon fill="midnightblue" stroke="midnightblue" points="1100.17,-160.3 1090.14,-163.7 1100.11,-167.3 1100.17,-160.3"/>
</g>
<!-- Node16 -->
<g id="node16" class="node">
<title>Node16</title>
<g id="a_node16"><a xlink:href="class_c_p_s_1_1_sim_power_comp.html" target="_top" xlink:title="Base class for all components that are transmitting power.">
<polygon fill="none" stroke="black" points="1248,-115 1248,-145 1368,-145 1368,-115 1248,-115"/>
<text text-anchor="start" x="1256" y="-133" font-family="Helvetica" font-size="10.00">CPS::SimPowerComp&lt;</text>
<text text-anchor="middle" x="1308" y="-122" font-family="Helvetica" font-size="10.00"> VarType &gt;</text>
</a>
</g>
</g>
<!-- Node12&#45;&gt;Node16 -->
<g id="edge21" class="edge">
<title>Node12&#45;&gt;Node16</title>
<path fill="none" stroke="midnightblue" d="M1100.35,-153.6C1147.42,-148.22 1205.34,-141.61 1247.88,-136.75"/>
<polygon fill="midnightblue" stroke="midnightblue" points="1099.72,-150.15 1090.18,-154.76 1100.51,-157.1 1099.72,-150.15"/>
</g>
<!-- Node13&#45;&gt;Node12 -->
<g id="edge14" class="edge">
<title>Node13&#45;&gt;Node12</title>
<path fill="none" stroke="midnightblue" d="M787.54,-163C833.95,-163 896.19,-163 943.98,-163"/>
<polygon fill="midnightblue" stroke="midnightblue" points="787.3,-159.5 777.3,-163 787.3,-166.5 787.3,-159.5"/>
</g>
<!-- Node14&#45;&gt;Node13 -->
<g id="edge16" class="edge">
<title>Node14&#45;&gt;Node13</title>
<path fill="none" stroke="#9a32cd" stroke-dasharray="5,2" d="M572.64,-136.59C596.38,-138.39 622.92,-141.06 647,-145 659.88,-147.11 673.84,-150.31 686.07,-153.44"/>
<polygon fill="#9a32cd" stroke="#9a32cd" points="572.87,-133.1 562.65,-135.87 572.37,-140.08 572.87,-133.1"/>
<text text-anchor="middle" x="615.5" y="-159" font-family="Helvetica" font-size="10.00"> mName</text>
<text text-anchor="middle" x="615.5" y="-148" font-family="Helvetica" font-size="10.00">mUID</text>
</g>
<!-- Node15 -->
<g id="node15" class="node">
<title>Node15</title>
<g id="a_node15"><a xlink:title=" ">
<polygon fill="none" stroke="#bfbfbf" points="160,-136.5 160,-177.5 268,-177.5 268,-136.5 160,-136.5"/>
<text text-anchor="start" x="168" y="-165.5" font-family="Helvetica" font-size="10.00">std::enable_shared</text>
<text text-anchor="start" x="168" y="-154.5" font-family="Helvetica" font-size="10.00">_from_this&lt; Attribute</text>
<text text-anchor="middle" x="214" y="-143.5" font-family="Helvetica" font-size="10.00">&lt; String &gt; &gt;</text>
</a>
</g>
</g>
<!-- Node15&#45;&gt;Node14 -->
<g id="edge18" class="edge">
<title>Node15&#45;&gt;Node14</title>
<path fill="none" stroke="midnightblue" d="M278.2,-149.32C285.87,-148.49 293.61,-147.69 301,-147 346.92,-142.71 398.93,-139.09 438.19,-136.6"/>
<polygon fill="midnightblue" stroke="midnightblue" points="277.73,-145.85 268.18,-150.44 278.5,-152.81 277.73,-145.85"/>
</g>
<!-- Node16&#45;&gt;Node11 -->
<g id="edge20" class="edge">
<title>Node16&#45;&gt;Node11</title>
<path fill="none" stroke="orange" stroke-dasharray="5,2" d="M1378.22,-138.35C1400.26,-141.32 1424.71,-144.95 1447,-149 1455.09,-150.47 1463.58,-152.18 1471.93,-153.97"/>
<polygon fill="orange" stroke="orange" points="1378.65,-134.88 1368.27,-137.03 1377.72,-141.81 1378.65,-134.88"/>
<text text-anchor="middle" x="1416.5" y="-152" font-family="Helvetica" font-size="10.00"> &lt; Complex &gt;</text>
</g>
<!-- Node17&#45;&gt;Node16 -->
<g id="edge22" class="edge">
<title>Node17&#45;&gt;Node16</title>
<path fill="none" stroke="#9a32cd" stroke-dasharray="5,2" d="M576.22,-84.64C735.14,-94.5 1103.93,-117.39 1247.91,-126.33"/>
<polygon fill="#9a32cd" stroke="#9a32cd" points="576.25,-81.13 566.06,-84.01 575.82,-88.12 576.25,-81.13"/>
<text text-anchor="middle" x="860.5" y="-121" font-family="Helvetica" font-size="10.00"> mIntfCurrent</text>
<text text-anchor="middle" x="860.5" y="-110" font-family="Helvetica" font-size="10.00">mIntfVoltage</text>
</g>
<!-- Node18 -->
<g id="node18" class="node">
<title>Node18</title>
<g id="a_node18"><a xlink:title=" ">
<polygon fill="none" stroke="#bfbfbf" points="145,-0.5 145,-41.5 283,-41.5 283,-0.5 145,-0.5"/>
<text text-anchor="start" x="153" y="-29.5" font-family="Helvetica" font-size="10.00">std::enable_shared</text>
<text text-anchor="start" x="153" y="-18.5" font-family="Helvetica" font-size="10.00">_from_this&lt; Attribute</text>
<text text-anchor="middle" x="214" y="-7.5" font-family="Helvetica" font-size="10.00">&lt; MatrixVar&lt; VarType &gt; &gt; &gt;</text>
</a>
</g>
</g>
<!-- Node18&#45;&gt;Node17 -->
<g id="edge24" class="edge">
<title>Node18&#45;&gt;Node17</title>
<path fill="none" stroke="midnightblue" d="M293.06,-32.44C330.72,-38.49 376.41,-46.61 417,-56 428.04,-58.56 439.8,-61.71 450.88,-64.88"/>
<polygon fill="midnightblue" stroke="midnightblue" points="293.6,-28.98 283.17,-30.87 292.5,-35.9 293.6,-28.98"/>
</g>
<!-- Node19 -->
<g id="node19" class="node">
<title>Node19</title>
<g id="a_node19"><a xlink:href="class_shared_factory.html" target="_top" xlink:title=" ">
<polygon fill="none" stroke="black" points="1465,-95.5 1465,-114.5 1599,-114.5 1599,-95.5 1465,-95.5"/>
<text text-anchor="middle" x="1532" y="-102.5" font-family="Helvetica" font-size="10.00">SharedFactory&lt; Inductor &gt;</text>
</a>
</g>
</g>
<!-- Node19&#45;&gt;Node1 -->
<g id="edge26" class="edge">
<title>Node19&#45;&gt;Node1</title>
<path fill="none" stroke="midnightblue" d="M1558.35,-119.58C1570.62,-126.65 1585.58,-135.26 1599,-143 1627.3,-159.32 1660.23,-178.33 1679.53,-189.48"/>
<polygon fill="midnightblue" stroke="midnightblue" points="1559.96,-116.48 1549.55,-114.52 1556.47,-122.54 1559.96,-116.48"/>
</g>
<!-- Node20 -->
<g id="node20" class="node">
<title>Node20</title>
<g id="a_node20"><a xlink:href="class_shared_factory.html" target="_top" xlink:title=" ">
<polygon fill="none" stroke="black" points="1255.5,-76.5 1255.5,-95.5 1360.5,-95.5 1360.5,-76.5 1255.5,-76.5"/>
<text text-anchor="middle" x="1308" y="-83.5" font-family="Helvetica" font-size="10.00">SharedFactory&lt; T &gt;</text>
</a>
</g>
</g>
<!-- Node20&#45;&gt;Node19 -->
<g id="edge27" class="edge">
<title>Node20&#45;&gt;Node19</title>
<path fill="none" stroke="orange" stroke-dasharray="5,2" d="M1370.85,-91.29C1400.08,-93.8 1435.01,-96.78 1464.78,-99.33"/>
<polygon fill="orange" stroke="orange" points="1371.03,-87.8 1360.77,-90.43 1370.43,-94.77 1371.03,-87.8"/>
<text text-anchor="middle" x="1416.5" y="-101" font-family="Helvetica" font-size="10.00"> &lt; Inductor &gt;</text>
</g>
</g>
</svg>
        <g id="navigator" transform="translate(0 0)" fill="#404254">
                <rect fill="#f2f5e9" fill-opacity="0.5" stroke="#606060" stroke-width=".5" x="0" y="0" width="60" height="60"/>
                <use id="zoomplus" xlink:href="#zoomPlus" x="17" y="9" onmousedown="handleZoom(evt,'in')"/>
                <use id="zoomminus" xlink:href="#zoomMin" x="42" y="9" onmousedown="handleZoom(evt,'out')"/>
                <use id="reset" xlink:href="#resetDef" x="30" y="36" onmousedown="handleReset()"/>
                <g id="arrowUp" xlink:href="#dirArrow" transform="translate(30 24)" onmousedown="handlePan(0,-1)">
                  <use xlink:href="#rim" fill="#404040">
                        <set attributeName="fill" to="#808080" begin="arrowUp.mouseover" end="arrowUp.mouseout"/>
                  </use>
                  <path fill="none" stroke="white" stroke-width="1.5" d="M0,-3.0v7 M-2.5,-0.5L0,-3.0L2.5,-0.5"/>
                </g>
                <g id="arrowRight" xlink:href="#dirArrow" transform="rotate(90) translate(36 -43)" onmousedown="handlePan(1,0)">
                  <use xlink:href="#rim" fill="#404040">
                        <set attributeName="fill" to="#808080" begin="arrowRight.mouseover" end="arrowRight.mouseout"/>
                  </use>
                  <path fill="none" stroke="white" stroke-width="1.5" d="M0,-3.0v7 M-2.5,-0.5L0,-3.0L2.5,-0.5"/>
                </g>
                <g id="arrowDown" xlink:href="#dirArrow" transform="rotate(180) translate(-30 -48)" onmousedown="handlePan(0,1)">
                  <use xlink:href="#rim" fill="#404040">
                        <set attributeName="fill" to="#808080" begin="arrowDown.mouseover" end="arrowDown.mouseout"/>
                  </use>
                  <path fill="none" stroke="white" stroke-width="1.5" d="M0,-3.0v7 M-2.5,-0.5L0,-3.0L2.5,-0.5"/>
                </g>
                <g id="arrowLeft" xlink:href="#dirArrow" transform="rotate(270) translate(-36 17)" onmousedown="handlePan(-1,0)">
                  <use xlink:href="#rim" fill="#404040">
                        <set attributeName="fill" to="#808080" begin="arrowLeft.mouseover" end="arrowLeft.mouseout"/>
                  </use>
                  <path fill="none" stroke="white" stroke-width="1.5" d="M0,-3.0v7 M-2.5,-0.5L0,-3.0L2.5,-0.5"/>
                </g>
        </g>
        <svg viewBox="0 0 15 15" width="100%" height="30px" preserveAspectRatio="xMaxYMin meet">
         <g id="arrow_out" transform="scale(0.3 0.3)">
          <a xlink:href="class_c_p_s_1_1_s_p_1_1_ph3_1_1_inductor__coll__graph_org.svg" target="_base">
           <rect id="button" ry="5" rx="5" y="6" x="6" height="38" width="38"
                fill="#f2f5e9" fill-opacity="0.5" stroke="#606060" stroke-width="1.0"/>
           <path id="arrow"
             d="M 11.500037,31.436501 C 11.940474,20.09759 22.043105,11.32322 32.158766,21.979434 L 37.068811,17.246167 C 37.068811,17.246167 37.088388,32 37.088388,32 L 22.160133,31.978069 C 22.160133,31.978069 26.997745,27.140456 26.997745,27.140456 C 18.528582,18.264221 13.291696,25.230495 11.500037,31.436501 z"
             style="fill:#404040;"/>
          </a>
         </g>
        </svg>
</svg>
