<?xml version="1.0" encoding="UTF-8" standalone="no"?>
<!DOCTYPE svg PUBLIC "-//W3C//DTD SVG 1.1//EN"
 "http://www.w3.org/Graphics/SVG/1.1/DTD/svg11.dtd">
<!-- Generated by graphviz version 12.2.1 (20241206.2353)
 -->
<!-- Title: CPS::MNAInterface Pages: 1 -->
<svg width="801pt" height="1908pt"
 viewBox="0.00 0.00 800.75 1908.38" xmlns="http://www.w3.org/2000/svg" xmlns:xlink="http://www.w3.org/1999/xlink">
<g id="graph0" class="graph" transform="scale(1 1) rotate(0) translate(4 1904.38)">
<title>CPS::MNAInterface</title>
<!-- Node1 -->
<g id="Node000001" class="node">
<title>Node1</title>
<g id="a_Node000001"><a xlink:title="Interface to be implemented by all models used by the MNA solver.">
<polygon fill="#999999" stroke="#666666" points="106,-861.25 0,-861.25 0,-839 106,-839 106,-861.25"/>
<text text-anchor="middle" x="53" y="-847.75" font-family="Helvetica,sans-Serif" font-size="10.00">CPS::MNAInterface</text>
</a>
</g>
</g>
<!-- Node2 -->
<g id="Node000002" class="node">
<title>Node2</title>
<g id="a_Node000002"><a xlink:href="class_c_p_s_1_1_m_n_a_sim_power_comp.html" target="_top" xlink:title=" ">
<polygon fill="white" stroke="#666666" points="566.5,-1131.38 430.5,-1131.38 430.5,-1094.88 566.5,-1094.88 566.5,-1131.38"/>
<text text-anchor="start" x="438.5" y="-1117.88" font-family="Helvetica,sans-Serif" font-size="10.00">CPS::MNASimPowerComp</text>
<text text-anchor="middle" x="498.5" y="-1103.62" font-family="Helvetica,sans-Serif" font-size="10.00">&lt; Complex &gt;</text>
</a>
</g>
</g>
<!-- Node1&#45;&gt;Node2 -->
<g id="edge1_Node000001_Node000002" class="edge">
<title>Node1&#45;&gt;Node2</title>
<g id="a_edge1_Node000001_Node000002"><a xlink:title=" ">
<path fill="none" stroke="#63b8ff" d="M83.2,-867.44C162.88,-914.69 383.63,-1045.6 465.98,-1094.43"/>
<polygon fill="#63b8ff" stroke="#63b8ff" points="85.03,-864.46 74.64,-862.37 81.46,-870.48 85.03,-864.46"/>
</a>
</g>
</g>
<!-- Node76 -->
<g id="Node000076" class="node">
<title>Node76</title>
<g id="a_Node000076"><a xlink:href="class_c_p_s_1_1_m_n_a_sim_power_comp.html" target="_top" xlink:title=" ">
<polygon fill="white" stroke="orangered" points="566.5,-274.38 430.5,-274.38 430.5,-237.88 566.5,-237.88 566.5,-274.38"/>
<text text-anchor="start" x="438.5" y="-260.88" font-family="Helvetica,sans-Serif" font-size="10.00">CPS::MNASimPowerComp</text>
<text text-anchor="middle" x="498.5" y="-246.62" font-family="Helvetica,sans-Serif" font-size="10.00">&lt; Real &gt;</text>
</a>
</g>
</g>
<!-- Node1&#45;&gt;Node76 -->
<g id="edge36_Node000001_Node000076" class="edge">
<title>Node1&#45;&gt;Node76</title>
<g id="a_edge36_Node000001_Node000076"><a xlink:title=" ">
<path fill="none" stroke="#63b8ff" d="M69.53,-829.33C138.69,-736.7 418.14,-362.42 483.69,-274.62"/>
<polygon fill="#63b8ff" stroke="#63b8ff" points="66.74,-827.21 63.57,-837.31 72.35,-831.39 66.74,-827.21"/>
</a>
</g>
</g>
<!-- Node138 -->
<g id="Node000138" class="node">
<title>Node138</title>
<g id="a_Node000138"><a xlink:href="class_c_p_s_1_1_d_p_1_1_ph3_1_1_synchron_generator_v_b_r.html" target="_top" xlink:title=" ">
<polygon fill="white" stroke="#666666" points="336,-838.25 143,-838.25 143,-816 336,-816 336,-838.25"/>
<text text-anchor="middle" x="239.5" y="-824.75" font-family="Helvetica,sans-Serif" font-size="10.00">CPS::DP::Ph3::SynchronGeneratorVBR</text>
</a>
</g>
</g>
<!-- Node1&#45;&gt;Node138 -->
<g id="edge47_Node000001_Node000138" class="edge">
<title>Node1&#45;&gt;Node138</title>
<g id="a_edge47_Node000001_Node000138"><a xlink:title=" ">
<path fill="none" stroke="#63b8ff" d="M117.57,-842.2C126.59,-841.08 136.03,-839.9 145.48,-838.72"/>
<polygon fill="#63b8ff" stroke="#63b8ff" points="117.37,-838.7 107.88,-843.41 118.23,-845.64 117.37,-838.7"/>
</a>
</g>
</g>
<!-- Node139 -->
<g id="Node000139" class="node">
<title>Node139</title>
<g id="a_Node000139"><a xlink:href="class_c_p_s_1_1_m_n_a_sim_power_comp.html" target="_top" xlink:title="Base class for all MNA components that are transmitting power.">
<polygon fill="#fff0f0" stroke="red" points="307.5,-892.38 171.5,-892.38 171.5,-855.88 307.5,-855.88 307.5,-892.38"/>
<text text-anchor="start" x="179.5" y="-878.88" font-family="Helvetica,sans-Serif" font-size="10.00">CPS::MNASimPowerComp</text>
<text text-anchor="middle" x="239.5" y="-864.62" font-family="Helvetica,sans-Serif" font-size="10.00">&lt; VarType &gt;</text>
</a>
</g>
</g>
<!-- Node1&#45;&gt;Node139 -->
<g id="edge48_Node000001_Node000139" class="edge">
<title>Node1&#45;&gt;Node139</title>
<g id="a_edge48_Node000001_Node000139"><a xlink:title=" ">
<path fill="none" stroke="#63b8ff" d="M117.51,-858.39C134.81,-860.64 153.62,-863.08 171.14,-865.36"/>
<polygon fill="#63b8ff" stroke="#63b8ff" points="118.25,-854.95 107.88,-857.13 117.34,-861.89 118.25,-854.95"/>
</a>
</g>
</g>
<!-- Node3 -->
<g id="Node000003" class="node">
<title>Node3</title>
<g id="a_Node000003"><a xlink:href="class_c_p_s_1_1_base_1_1_reduced_order_synchron_generator.html" target="_top" xlink:title=" ">
<polygon fill="white" stroke="orangered" points="787.5,-1486.38 608.75,-1486.38 608.75,-1449.88 787.5,-1449.88 787.5,-1486.38"/>
<text text-anchor="start" x="616.75" y="-1472.88" font-family="Helvetica,sans-Serif" font-size="10.00">CPS::Base::ReducedOrderSynchron</text>
<text text-anchor="middle" x="698.12" y="-1458.62" font-family="Helvetica,sans-Serif" font-size="10.00">Generator&lt; Complex &gt;</text>
</a>
</g>
</g>
<!-- Node2&#45;&gt;Node3 -->
<g id="edge2_Node000002_Node000003" class="edge">
<title>Node2&#45;&gt;Node3</title>
<g id="a_edge2_Node000002_Node000003"><a xlink:title=" ">
<path fill="none" stroke="#63b8ff" d="M500.11,-1142.95C503.06,-1206.77 519.13,-1357.5 603.5,-1440.12 607.14,-1443.69 611.21,-1446.8 615.56,-1449.51"/>
<polygon fill="#63b8ff" stroke="#63b8ff" points="503.62,-1143.11 499.74,-1133.24 496.62,-1143.37 503.62,-1143.11"/>
</a>
</g>
</g>
<!-- Node20 -->
<g id="Node000020" class="node">
<title>Node20</title>
<g id="a_Node000020"><a xlink:href="class_c_p_s_1_1_composite_power_comp.html" target="_top" xlink:title=" ">
<polygon fill="white" stroke="orangered" points="771,-1431.38 625.25,-1431.38 625.25,-1394.88 771,-1394.88 771,-1431.38"/>
<text text-anchor="start" x="633.25" y="-1417.88" font-family="Helvetica,sans-Serif" font-size="10.00">CPS::CompositePowerComp</text>
<text text-anchor="middle" x="698.12" y="-1403.62" font-family="Helvetica,sans-Serif" font-size="10.00">&lt; Complex &gt;</text>
</a>
</g>
</g>
<!-- Node2&#45;&gt;Node20 -->
<g id="edge3_Node000002_Node000020" class="edge">
<title>Node2&#45;&gt;Node20</title>
<g id="a_edge3_Node000002_Node000020"><a xlink:title=" ">
<path fill="none" stroke="#63b8ff" d="M501.91,-1143.02C508.13,-1199.46 529.82,-1321.8 603.5,-1386.12 609.87,-1391.69 617.33,-1396.11 625.2,-1399.62"/>
<polygon fill="#63b8ff" stroke="#63b8ff" points="505.41,-1142.82 500.93,-1133.22 498.44,-1143.52 505.41,-1142.82"/>
</a>
</g>
</g>
<!-- Node42 -->
<g id="Node000042" class="node">
<title>Node42</title>
<g id="a_Node000042"><a xlink:href="class_c_p_s_1_1_d_p_1_1_ph1_1_1_capacitor.html" target="_top" xlink:title="Capacitor model.">
<polygon fill="white" stroke="#666666" points="761.25,-1377.25 635,-1377.25 635,-1355 761.25,-1355 761.25,-1377.25"/>
<text text-anchor="middle" x="698.12" y="-1363.75" font-family="Helvetica,sans-Serif" font-size="10.00">CPS::DP::Ph1::Capacitor</text>
</a>
</g>
</g>
<!-- Node2&#45;&gt;Node42 -->
<g id="edge4_Node000002_Node000042" class="edge">
<title>Node2&#45;&gt;Node42</title>
<g id="a_edge4_Node000002_Node000042"><a xlink:title=" ">
<path fill="none" stroke="#63b8ff" d="M503.98,-1142.99C513.16,-1193.12 538.94,-1293.84 603.5,-1346.12 612.41,-1353.34 623.32,-1358.12 634.5,-1361.25"/>
<polygon fill="#63b8ff" stroke="#63b8ff" points="507.44,-1142.43 502.3,-1133.16 500.54,-1143.61 507.44,-1142.43"/>
</a>
</g>
</g>
<!-- Node43 -->
<g id="Node000043" class="node">
<title>Node43</title>
<g id="a_Node000043"><a xlink:href="class_c_p_s_1_1_d_p_1_1_ph1_1_1_controlled_current_source.html" target="_top" xlink:title="Dynamic phasor ideal current source.">
<polygon fill="white" stroke="#666666" points="763.5,-1337.38 632.75,-1337.38 632.75,-1300.88 763.5,-1300.88 763.5,-1337.38"/>
<text text-anchor="start" x="640.75" y="-1323.88" font-family="Helvetica,sans-Serif" font-size="10.00">CPS::DP::Ph1::Controlled</text>
<text text-anchor="middle" x="698.12" y="-1309.62" font-family="Helvetica,sans-Serif" font-size="10.00">CurrentSource</text>
</a>
</g>
</g>
<!-- Node2&#45;&gt;Node43 -->
<g id="edge5_Node000002_Node000043" class="edge">
<title>Node2&#45;&gt;Node43</title>
<g id="a_edge5_Node000002_Node000043"><a xlink:title=" ">
<path fill="none" stroke="#63b8ff" d="M508.98,-1142.62C523.2,-1182.21 553.82,-1252.06 603.5,-1291.12 612.04,-1297.84 622.15,-1302.94 632.53,-1306.83"/>
<polygon fill="#63b8ff" stroke="#63b8ff" points="512.32,-1141.57 505.74,-1133.27 505.7,-1143.86 512.32,-1141.57"/>
</a>
</g>
</g>
<!-- Node44 -->
<g id="Node000044" class="node">
<title>Node44</title>
<g id="a_Node000044"><a xlink:href="class_c_p_s_1_1_d_p_1_1_ph1_1_1_controlled_voltage_source.html" target="_top" xlink:title="Controlled Ideal Voltage source model.">
<polygon fill="white" stroke="#666666" points="763.5,-1282.38 632.75,-1282.38 632.75,-1245.88 763.5,-1245.88 763.5,-1282.38"/>
<text text-anchor="start" x="640.75" y="-1268.88" font-family="Helvetica,sans-Serif" font-size="10.00">CPS::DP::Ph1::Controlled</text>
<text text-anchor="middle" x="698.12" y="-1254.62" font-family="Helvetica,sans-Serif" font-size="10.00">VoltageSource</text>
</a>
</g>
</g>
<!-- Node2&#45;&gt;Node44 -->
<g id="edge6_Node000002_Node000044" class="edge">
<title>Node2&#45;&gt;Node44</title>
<g id="a_edge6_Node000002_Node000044"><a xlink:title=" ">
<path fill="none" stroke="#63b8ff" d="M516.1,-1141.38C534.15,-1169.66 565.54,-1212.42 603.5,-1237.12 612.29,-1242.85 622.32,-1247.38 632.46,-1250.96"/>
<polygon fill="#63b8ff" stroke="#63b8ff" points="519.12,-1139.61 510.87,-1132.96 513.18,-1143.3 519.12,-1139.61"/>
</a>
</g>
</g>
<!-- Node45 -->
<g id="Node000045" class="node">
<title>Node45</title>
<g id="a_Node000045"><a xlink:href="class_c_p_s_1_1_d_p_1_1_ph1_1_1_current_source.html" target="_top" xlink:title="Dynamic phasor ideal current source.">
<polygon fill="white" stroke="#666666" points="773.25,-1228.25 623,-1228.25 623,-1206 773.25,-1206 773.25,-1228.25"/>
<text text-anchor="middle" x="698.12" y="-1214.75" font-family="Helvetica,sans-Serif" font-size="10.00">CPS::DP::Ph1::CurrentSource</text>
</a>
</g>
</g>
<!-- Node2&#45;&gt;Node45 -->
<g id="edge7_Node000002_Node000045" class="edge">
<title>Node2&#45;&gt;Node45</title>
<g id="a_edge7_Node000002_Node000045"><a xlink:title=" ">
<path fill="none" stroke="#63b8ff" d="M524.95,-1139.48C544.66,-1158.35 573.57,-1182.85 603.5,-1197.12 610.55,-1200.49 618.17,-1203.29 625.91,-1205.62"/>
<polygon fill="#63b8ff" stroke="#63b8ff" points="527.5,-1137.08 517.91,-1132.59 522.6,-1142.08 527.5,-1137.08"/>
</a>
</g>
</g>
<!-- Node46 -->
<g id="Node000046" class="node">
<title>Node46</title>
<g id="a_Node000046"><a xlink:href="class_c_p_s_1_1_d_p_1_1_ph1_1_1_inductor.html" target="_top" xlink:title="Inductor.">
<polygon fill="white" stroke="#666666" points="759.75,-1188.25 636.5,-1188.25 636.5,-1166 759.75,-1166 759.75,-1188.25"/>
<text text-anchor="middle" x="698.12" y="-1174.75" font-family="Helvetica,sans-Serif" font-size="10.00">CPS::DP::Ph1::Inductor</text>
</a>
</g>
</g>
<!-- Node2&#45;&gt;Node46 -->
<g id="edge8_Node000002_Node000046" class="edge">
<title>Node2&#45;&gt;Node46</title>
<g id="a_edge8_Node000002_Node000046"><a xlink:title=" ">
<path fill="none" stroke="#63b8ff" d="M549.09,-1136.37C566.08,-1143.72 585.38,-1151.41 603.5,-1157.12 613.96,-1160.42 625.25,-1163.35 636.25,-1165.88"/>
<polygon fill="#63b8ff" stroke="#63b8ff" points="550.79,-1133.29 540.22,-1132.47 547.96,-1139.7 550.79,-1133.29"/>
</a>
</g>
</g>
<!-- Node47 -->
<g id="Node000047" class="node">
<title>Node47</title>
<g id="a_Node000047"><a xlink:href="class_c_p_s_1_1_d_p_1_1_ph1_1_1_inverter.html" target="_top" xlink:title="Single phase inverter model.">
<polygon fill="white" stroke="#666666" points="759.38,-1148.25 636.88,-1148.25 636.88,-1126 759.38,-1126 759.38,-1148.25"/>
<text text-anchor="middle" x="698.12" y="-1134.75" font-family="Helvetica,sans-Serif" font-size="10.00">CPS::DP::Ph1::Inverter</text>
</a>
</g>
</g>
<!-- Node2&#45;&gt;Node47 -->
<g id="edge9_Node000002_Node000047" class="edge">
<title>Node2&#45;&gt;Node47</title>
<g id="a_edge9_Node000002_Node000047"><a xlink:title=" ">
<path fill="none" stroke="#63b8ff" d="M578.25,-1122.69C597.68,-1125.05 618.18,-1127.54 636.6,-1129.77"/>
<polygon fill="#63b8ff" stroke="#63b8ff" points="578.81,-1119.23 568.46,-1121.5 577.97,-1126.18 578.81,-1119.23"/>
</a>
</g>
</g>
<!-- Node48 -->
<g id="Node000048" class="node">
<title>Node48</title>
<g id="a_Node000048"><a xlink:href="class_c_p_s_1_1_d_p_1_1_ph1_1_1_profile_voltage_source.html" target="_top" xlink:title=" ">
<polygon fill="white" stroke="#bfbfbf" points="772.12,-1108.38 624.12,-1108.38 624.12,-1071.88 772.12,-1071.88 772.12,-1108.38"/>
<text text-anchor="start" x="632.12" y="-1094.88" font-family="Helvetica,sans-Serif" font-size="10.00">CPS::DP::Ph1::ProfileVoltage</text>
<text text-anchor="middle" x="698.12" y="-1080.62" font-family="Helvetica,sans-Serif" font-size="10.00">Source</text>
</a>
</g>
</g>
<!-- Node2&#45;&gt;Node48 -->
<g id="edge10_Node000002_Node000048" class="edge">
<title>Node2&#45;&gt;Node48</title>
<g id="a_edge10_Node000002_Node000048"><a xlink:title=" ">
<path fill="none" stroke="#63b8ff" d="M578.31,-1103.95C593.35,-1102.2 609.03,-1100.38 623.88,-1098.65"/>
<polygon fill="#63b8ff" stroke="#63b8ff" points="577.99,-1100.47 568.46,-1105.1 578.8,-1107.42 577.99,-1100.47"/>
</a>
</g>
</g>
<!-- Node49 -->
<g id="Node000049" class="node">
<title>Node49</title>
<g id="a_Node000049"><a xlink:href="class_c_p_s_1_1_d_p_1_1_ph1_1_1_res_ind_series.html" target="_top" xlink:title="resistor inductor series element">
<polygon fill="white" stroke="#666666" points="769.88,-1054.25 626.38,-1054.25 626.38,-1032 769.88,-1032 769.88,-1054.25"/>
<text text-anchor="middle" x="698.12" y="-1040.75" font-family="Helvetica,sans-Serif" font-size="10.00">CPS::DP::Ph1::ResIndSeries</text>
</a>
</g>
</g>
<!-- Node2&#45;&gt;Node49 -->
<g id="edge11_Node000002_Node000049" class="edge">
<title>Node2&#45;&gt;Node49</title>
<g id="a_edge11_Node000002_Node000049"><a xlink:title=" ">
<path fill="none" stroke="#63b8ff" d="M542.89,-1089.42C561.18,-1080.18 582.96,-1070.14 603.5,-1063.12 612.86,-1059.93 622.92,-1057.14 632.86,-1054.73"/>
<polygon fill="#63b8ff" stroke="#63b8ff" points="541.47,-1086.21 534.18,-1093.9 544.67,-1092.43 541.47,-1086.21"/>
</a>
</g>
</g>
<!-- Node50 -->
<g id="Node000050" class="node">
<title>Node50</title>
<g id="a_Node000050"><a xlink:href="class_c_p_s_1_1_d_p_1_1_ph1_1_1_resistor.html" target="_top" xlink:title="Dynamic phasor resistor model.">
<polygon fill="white" stroke="#666666" points="758.25,-1014.25 638,-1014.25 638,-992 758.25,-992 758.25,-1014.25"/>
<text text-anchor="middle" x="698.12" y="-1000.75" font-family="Helvetica,sans-Serif" font-size="10.00">CPS::DP::Ph1::Resistor</text>
</a>
</g>
</g>
<!-- Node2&#45;&gt;Node50 -->
<g id="edge12_Node000002_Node000050" class="edge">
<title>Node2&#45;&gt;Node50</title>
<g id="a_edge12_Node000002_Node000050"><a xlink:title=" ">
<path fill="none" stroke="#63b8ff" d="M523.27,-1086.21C542.8,-1065.8 572.27,-1038.67 603.5,-1023.12 614.06,-1017.87 625.97,-1013.99 637.66,-1011.12"/>
<polygon fill="#63b8ff" stroke="#63b8ff" points="520.83,-1083.7 516.56,-1093.39 525.94,-1088.47 520.83,-1083.7"/>
</a>
</g>
</g>
<!-- Node51 -->
<g id="Node000051" class="node">
<title>Node51</title>
<g id="a_Node000051"><a xlink:href="class_c_p_s_1_1_d_p_1_1_ph1_1_1_switch.html" target="_top" xlink:title="Dynamic phasor switch.">
<polygon fill="white" stroke="#666666" points="754.12,-974.25 642.12,-974.25 642.12,-952 754.12,-952 754.12,-974.25"/>
<text text-anchor="middle" x="698.12" y="-960.75" font-family="Helvetica,sans-Serif" font-size="10.00">CPS::DP::Ph1::Switch</text>
</a>
</g>
</g>
<!-- Node2&#45;&gt;Node51 -->
<g id="edge13_Node000002_Node000051" class="edge">
<title>Node2&#45;&gt;Node51</title>
<g id="a_edge13_Node000002_Node000051"><a xlink:title=" ">
<path fill="none" stroke="#63b8ff" d="M514.33,-1084.8C531.6,-1054.72 563.02,-1008.12 603.5,-983.12 614.95,-976.05 628.53,-971.45 641.75,-968.47"/>
<polygon fill="#63b8ff" stroke="#63b8ff" points="511.36,-1082.93 509.55,-1093.37 517.48,-1086.34 511.36,-1082.93"/>
</a>
</g>
</g>
<!-- Node52 -->
<g id="Node000052" class="node">
<title>Node52</title>
<g id="a_Node000052"><a xlink:href="class_c_p_s_1_1_d_p_1_1_ph1_1_1_voltage_source.html" target="_top" xlink:title="Ideal Voltage source model.">
<polygon fill="white" stroke="#666666" points="772.88,-934.25 623.38,-934.25 623.38,-912 772.88,-912 772.88,-934.25"/>
<text text-anchor="middle" x="698.12" y="-920.75" font-family="Helvetica,sans-Serif" font-size="10.00">CPS::DP::Ph1::VoltageSource</text>
</a>
</g>
</g>
<!-- Node2&#45;&gt;Node52 -->
<g id="edge14_Node000002_Node000052" class="edge">
<title>Node2&#45;&gt;Node52</title>
<g id="a_edge14_Node000002_Node000052"><a xlink:title=" ">
<path fill="none" stroke="#63b8ff" d="M509.03,-1084.08C523.24,-1045.56 553.77,-978.34 603.5,-943.12 609.47,-938.9 616.15,-935.53 623.13,-932.86"/>
<polygon fill="#63b8ff" stroke="#63b8ff" points="505.86,-1082.57 505.81,-1093.17 512.45,-1084.91 505.86,-1082.57"/>
</a>
</g>
</g>
<!-- Node53 -->
<g id="Node000053" class="node">
<title>Node53</title>
<g id="a_Node000053"><a xlink:href="class_c_p_s_1_1_d_p_1_1_ph1_1_1_voltage_source_norton.html" target="_top" xlink:title="Resistive dynamic phasor voltage source.">
<polygon fill="white" stroke="#666666" points="772.88,-894.38 623.38,-894.38 623.38,-857.88 772.88,-857.88 772.88,-894.38"/>
<text text-anchor="start" x="631.38" y="-880.88" font-family="Helvetica,sans-Serif" font-size="10.00">CPS::DP::Ph1::VoltageSource</text>
<text text-anchor="middle" x="698.12" y="-866.62" font-family="Helvetica,sans-Serif" font-size="10.00">Norton</text>
</a>
</g>
</g>
<!-- Node2&#45;&gt;Node53 -->
<g id="edge15_Node000002_Node000053" class="edge">
<title>Node2&#45;&gt;Node53</title>
<g id="a_edge15_Node000002_Node000053"><a xlink:title=" ">
<path fill="none" stroke="#63b8ff" d="M506.08,-1083.38C517.72,-1037.78 546.32,-950.89 603.5,-903.12 609.34,-898.24 616.02,-894.25 623.07,-890.97"/>
<polygon fill="#63b8ff" stroke="#63b8ff" points="502.68,-1082.54 503.72,-1093.09 509.48,-1084.2 502.68,-1082.54"/>
</a>
</g>
</g>
<!-- Node54 -->
<g id="Node000054" class="node">
<title>Node54</title>
<g id="a_Node000054"><a xlink:href="class_c_p_s_1_1_d_p_1_1_ph1_1_1var_res_switch.html" target="_top" xlink:title="Switch with variable resistance to avoid numerical oscillations, when an inductive current is suddenl...">
<polygon fill="white" stroke="#666666" points="769.88,-840.25 626.38,-840.25 626.38,-818 769.88,-818 769.88,-840.25"/>
<text text-anchor="middle" x="698.12" y="-826.75" font-family="Helvetica,sans-Serif" font-size="10.00">CPS::DP::Ph1::varResSwitch</text>
</a>
</g>
</g>
<!-- Node2&#45;&gt;Node54 -->
<g id="edge16_Node000002_Node000054" class="edge">
<title>Node2&#45;&gt;Node54</title>
<g id="a_edge16_Node000002_Node000054"><a xlink:title=" ">
<path fill="none" stroke="#63b8ff" d="M502.22,-1083.32C508.93,-1028.17 531.35,-910.27 603.5,-849.12 610.09,-843.54 617.87,-839.39 626.08,-836.34"/>
<polygon fill="#63b8ff" stroke="#63b8ff" points="498.75,-1082.88 501.12,-1093.2 505.71,-1083.65 498.75,-1082.88"/>
</a>
</g>
</g>
<!-- Node55 -->
<g id="Node000055" class="node">
<title>Node55</title>
<g id="a_Node000055"><a xlink:href="class_c_p_s_1_1_d_p_1_1_ph3_1_1_capacitor.html" target="_top" xlink:title="Capacitor model.">
<polygon fill="white" stroke="#666666" points="761.25,-800.25 635,-800.25 635,-778 761.25,-778 761.25,-800.25"/>
<text text-anchor="middle" x="698.12" y="-786.75" font-family="Helvetica,sans-Serif" font-size="10.00">CPS::DP::Ph3::Capacitor</text>
</a>
</g>
</g>
<!-- Node2&#45;&gt;Node55 -->
<g id="edge17_Node000002_Node000055" class="edge">
<title>Node2&#45;&gt;Node55</title>
<g id="a_edge17_Node000002_Node000055"><a xlink:title=" ">
<path fill="none" stroke="#63b8ff" d="M500.44,-1083.23C504.07,-1021.95 521.42,-881.74 603.5,-809.12 612.34,-801.31 623.48,-796.28 634.96,-793.11"/>
<polygon fill="#63b8ff" stroke="#63b8ff" points="496.95,-1083.05 499.94,-1093.21 503.94,-1083.4 496.95,-1083.05"/>
</a>
</g>
</g>
<!-- Node56 -->
<g id="Node000056" class="node">
<title>Node56</title>
<g id="a_Node000056"><a xlink:href="class_c_p_s_1_1_d_p_1_1_ph3_1_1_inductor.html" target="_top" xlink:title="Inductor.">
<polygon fill="white" stroke="#666666" points="759.75,-760.25 636.5,-760.25 636.5,-738 759.75,-738 759.75,-760.25"/>
<text text-anchor="middle" x="698.12" y="-746.75" font-family="Helvetica,sans-Serif" font-size="10.00">CPS::DP::Ph3::Inductor</text>
</a>
</g>
</g>
<!-- Node2&#45;&gt;Node56 -->
<g id="edge18_Node000002_Node000056" class="edge">
<title>Node2&#45;&gt;Node56</title>
<g id="a_edge18_Node000002_Node000056"><a xlink:title=" ">
<path fill="none" stroke="#63b8ff" d="M498.8,-1083.3C498.98,-1015.99 509.56,-851.76 603.5,-769.12 612.74,-761 624.45,-755.9 636.45,-752.76"/>
<polygon fill="#63b8ff" stroke="#63b8ff" points="495.3,-1083.21 498.86,-1093.18 502.3,-1083.16 495.3,-1083.21"/>
</a>
</g>
</g>
<!-- Node57 -->
<g id="Node000057" class="node">
<title>Node57</title>
<g id="a_Node000057"><a xlink:href="class_c_p_s_1_1_d_p_1_1_ph3_1_1_resistor.html" target="_top" xlink:title=" ">
<polygon fill="white" stroke="#bfbfbf" points="758.25,-720.25 638,-720.25 638,-698 758.25,-698 758.25,-720.25"/>
<text text-anchor="middle" x="698.12" y="-706.75" font-family="Helvetica,sans-Serif" font-size="10.00">CPS::DP::Ph3::Resistor</text>
</a>
</g>
</g>
<!-- Node2&#45;&gt;Node57 -->
<g id="edge19_Node000002_Node000057" class="edge">
<title>Node2&#45;&gt;Node57</title>
<g id="a_edge19_Node000002_Node000057"><a xlink:title=" ">
<path fill="none" stroke="#63b8ff" d="M503.34,-1083.32C514.49,-1001.59 549.57,-776.84 603.5,-729.12 613.09,-720.64 625.37,-715.46 637.87,-712.35"/>
<polygon fill="#63b8ff" stroke="#63b8ff" points="499.9,-1082.64 502.04,-1093.02 506.84,-1083.57 499.9,-1082.64"/>
</a>
</g>
</g>
<!-- Node58 -->
<g id="Node000058" class="node">
<title>Node58</title>
<g id="a_Node000058"><a xlink:href="class_c_p_s_1_1_d_p_1_1_ph3_1_1_series_resistor.html" target="_top" xlink:title=" ">
<polygon fill="white" stroke="#bfbfbf" points="772.5,-680.25 623.75,-680.25 623.75,-658 772.5,-658 772.5,-680.25"/>
<text text-anchor="middle" x="698.12" y="-666.75" font-family="Helvetica,sans-Serif" font-size="10.00">CPS::DP::Ph3::SeriesResistor</text>
</a>
</g>
</g>
<!-- Node2&#45;&gt;Node58 -->
<g id="edge20_Node000002_Node000058" class="edge">
<title>Node2&#45;&gt;Node58</title>
<g id="a_edge20_Node000002_Node000058"><a xlink:title=" ">
<path fill="none" stroke="#63b8ff" d="M502.53,-1083.19C512.04,-995.61 544.22,-742.7 603.5,-689.12 609.3,-683.89 616.12,-679.9 623.4,-676.88"/>
<polygon fill="#63b8ff" stroke="#63b8ff" points="499.08,-1082.59 501.5,-1092.91 506.04,-1083.33 499.08,-1082.59"/>
</a>
</g>
</g>
<!-- Node59 -->
<g id="Node000059" class="node">
<title>Node59</title>
<g id="a_Node000059"><a xlink:href="class_c_p_s_1_1_d_p_1_1_ph3_1_1_series_switch.html" target="_top" xlink:title="Dynamic phasor three&#45;phase switch.">
<polygon fill="white" stroke="#666666" points="768.38,-640.25 627.88,-640.25 627.88,-618 768.38,-618 768.38,-640.25"/>
<text text-anchor="middle" x="698.12" y="-626.75" font-family="Helvetica,sans-Serif" font-size="10.00">CPS::DP::Ph3::SeriesSwitch</text>
</a>
</g>
</g>
<!-- Node2&#45;&gt;Node59 -->
<g id="edge21_Node000002_Node000059" class="edge">
<title>Node2&#45;&gt;Node59</title>
<g id="a_edge21_Node000002_Node000059"><a xlink:title=" ">
<path fill="none" stroke="#63b8ff" d="M501.81,-1083.17C509.65,-990.04 538.43,-708.22 603.5,-649.12 610.39,-642.87 618.75,-638.39 627.6,-635.21"/>
<polygon fill="#63b8ff" stroke="#63b8ff" points="498.34,-1082.78 501.01,-1093.03 505.31,-1083.35 498.34,-1082.78"/>
</a>
</g>
</g>
<!-- Node60 -->
<g id="Node000060" class="node">
<title>Node60</title>
<g id="a_Node000060"><a xlink:href="class_c_p_s_1_1_d_p_1_1_ph3_1_1_synchron_generator_d_q.html" target="_top" xlink:title="Synchronous generator model in dq&#45;reference frame.">
<polygon fill="#fff0f0" stroke="red" points="792.75,-600.25 603.5,-600.25 603.5,-578 792.75,-578 792.75,-600.25"/>
<text text-anchor="middle" x="698.12" y="-586.75" font-family="Helvetica,sans-Serif" font-size="10.00">CPS::DP::Ph3::SynchronGeneratorDQ</text>
</a>
</g>
</g>
<!-- Node2&#45;&gt;Node60 -->
<g id="edge22_Node000002_Node000060" class="edge">
<title>Node2&#45;&gt;Node60</title>
<g id="a_edge22_Node000002_Node000060"><a xlink:title=" ">
<path fill="none" stroke="#63b8ff" d="M501.21,-1083.21C507.46,-984.81 532.61,-673.81 603.5,-609.12 607.06,-605.88 611.02,-603.11 615.23,-600.75"/>
<polygon fill="#63b8ff" stroke="#63b8ff" points="497.72,-1082.92 500.6,-1093.12 504.7,-1083.35 497.72,-1082.92"/>
</a>
</g>
</g>
<!-- Node63 -->
<g id="Node000063" class="node">
<title>Node63</title>
<g id="a_Node000063"><a xlink:href="class_c_p_s_1_1_d_p_1_1_ph3_1_1_voltage_source.html" target="_top" xlink:title="Ideal Voltage source model.">
<polygon fill="white" stroke="#666666" points="772.88,-560.25 623.38,-560.25 623.38,-538 772.88,-538 772.88,-560.25"/>
<text text-anchor="middle" x="698.12" y="-546.75" font-family="Helvetica,sans-Serif" font-size="10.00">CPS::DP::Ph3::VoltageSource</text>
</a>
</g>
</g>
<!-- Node2&#45;&gt;Node63 -->
<g id="edge23_Node000002_Node000063" class="edge">
<title>Node2&#45;&gt;Node63</title>
<g id="a_edge23_Node000002_Node000063"><a xlink:title=" ">
<path fill="none" stroke="#63b8ff" d="M503.32,-1083.41C513.4,-1007.24 542.88,-799.02 584.5,-629.12 591.16,-601.96 582.79,-587.93 603.5,-569.12 609.16,-563.98 615.81,-560.05 622.91,-557.04"/>
<polygon fill="#63b8ff" stroke="#63b8ff" points="499.89,-1082.61 502.06,-1092.98 506.83,-1083.52 499.89,-1082.61"/>
</a>
</g>
</g>
<!-- Node64 -->
<g id="Node000064" class="node">
<title>Node64</title>
<g id="a_Node000064"><a xlink:href="class_c_p_s_1_1_s_p_1_1_ph1_1_1_capacitor.html" target="_top" xlink:title=" ">
<polygon fill="white" stroke="#bfbfbf" points="760.12,-520.25 636.12,-520.25 636.12,-498 760.12,-498 760.12,-520.25"/>
<text text-anchor="middle" x="698.12" y="-506.75" font-family="Helvetica,sans-Serif" font-size="10.00">CPS::SP::Ph1::Capacitor</text>
</a>
</g>
</g>
<!-- Node2&#45;&gt;Node64 -->
<g id="edge24_Node000002_Node000064" class="edge">
<title>Node2&#45;&gt;Node64</title>
<g id="a_edge24_Node000002_Node000064"><a xlink:title=" ">
<path fill="none" stroke="#63b8ff" d="M500.48,-1083.4C504.65,-975.79 524.53,-608.8 603.5,-529.12 612.28,-520.27 623.94,-514.89 636.06,-511.7"/>
<polygon fill="#63b8ff" stroke="#63b8ff" points="496.99,-1083.02 500.12,-1093.14 503.99,-1083.27 496.99,-1083.02"/>
</a>
</g>
</g>
<!-- Node65 -->
<g id="Node000065" class="node">
<title>Node65</title>
<g id="a_Node000065"><a xlink:href="class_c_p_s_1_1_s_p_1_1_ph1_1_1_controlled_current_source.html" target="_top" xlink:title="Ideal Current source model.">
<polygon fill="white" stroke="#666666" points="762.38,-480.38 633.88,-480.38 633.88,-443.88 762.38,-443.88 762.38,-480.38"/>
<text text-anchor="start" x="641.88" y="-466.88" font-family="Helvetica,sans-Serif" font-size="10.00">CPS::SP::Ph1::Controlled</text>
<text text-anchor="middle" x="698.12" y="-452.62" font-family="Helvetica,sans-Serif" font-size="10.00">CurrentSource</text>
</a>
</g>
</g>
<!-- Node2&#45;&gt;Node65 -->
<g id="edge25_Node000002_Node000065" class="edge">
<title>Node2&#45;&gt;Node65</title>
<g id="a_edge25_Node000002_Node000065"><a xlink:title=" ">
<path fill="none" stroke="#63b8ff" d="M502.4,-1083.2C510.92,-998.68 538.28,-751.22 584.5,-550.12 590.86,-522.45 583.21,-508.99 603.5,-489.12 611.84,-480.96 622.49,-475.23 633.59,-471.23"/>
<polygon fill="#63b8ff" stroke="#63b8ff" points="498.93,-1082.66 501.42,-1092.96 505.9,-1083.35 498.93,-1082.66"/>
</a>
</g>
</g>
<!-- Node66 -->
<g id="Node000066" class="node">
<title>Node66</title>
<g id="a_Node000066"><a xlink:href="class_c_p_s_1_1_s_p_1_1_ph1_1_1_controlled_voltage_source.html" target="_top" xlink:title="Ideal Voltage source model.">
<polygon fill="white" stroke="#666666" points="762.38,-1900.38 633.88,-1900.38 633.88,-1863.88 762.38,-1863.88 762.38,-1900.38"/>
<text text-anchor="start" x="641.88" y="-1886.88" font-family="Helvetica,sans-Serif" font-size="10.00">CPS::SP::Ph1::Controlled</text>
<text text-anchor="middle" x="698.12" y="-1872.62" font-family="Helvetica,sans-Serif" font-size="10.00">VoltageSource</text>
</a>
</g>
</g>
<!-- Node2&#45;&gt;Node66 -->
<g id="edge26_Node000002_Node000066" class="edge">
<title>Node2&#45;&gt;Node66</title>
<g id="a_edge26_Node000002_Node000066"><a xlink:title=" ">
<path fill="none" stroke="#63b8ff" d="M502.78,-1143.1C512.99,-1235.19 545.87,-1522.08 584.5,-1758.12 591.6,-1801.48 573.82,-1822.74 603.5,-1855.12 611.61,-1863.98 622.43,-1870 633.82,-1874.08"/>
<polygon fill="#63b8ff" stroke="#63b8ff" points="506.26,-1142.72 501.68,-1133.16 499.3,-1143.49 506.26,-1142.72"/>
</a>
</g>
</g>
<!-- Node67 -->
<g id="Node000067" class="node">
<title>Node67</title>
<g id="a_Node000067"><a xlink:href="class_c_p_s_1_1_s_p_1_1_ph1_1_1_inductor.html" target="_top" xlink:title="Static phasor inductor model.">
<polygon fill="white" stroke="#666666" points="758.62,-1846.25 637.62,-1846.25 637.62,-1824 758.62,-1824 758.62,-1846.25"/>
<text text-anchor="middle" x="698.12" y="-1832.75" font-family="Helvetica,sans-Serif" font-size="10.00">CPS::SP::Ph1::Inductor</text>
</a>
</g>
</g>
<!-- Node2&#45;&gt;Node67 -->
<g id="edge27_Node000002_Node000067" class="edge">
<title>Node2&#45;&gt;Node67</title>
<g id="a_edge27_Node000002_Node000067"><a xlink:title=" ">
<path fill="none" stroke="#63b8ff" d="M502.29,-1143.03C511.03,-1233.64 539.93,-1512.97 584.5,-1741.12 591.01,-1774.45 579,-1791.61 603.5,-1815.12 612.73,-1823.99 624.88,-1829.33 637.36,-1832.46"/>
<polygon fill="#63b8ff" stroke="#63b8ff" points="505.8,-1142.88 501.36,-1133.26 498.83,-1143.54 505.8,-1142.88"/>
</a>
</g>
</g>
<!-- Node68 -->
<g id="Node000068" class="node">
<title>Node68</title>
<g id="a_Node000068"><a xlink:href="class_c_p_s_1_1_s_p_1_1_ph1_1_1_resistor.html" target="_top" xlink:title="Static phasor resistor model.">
<polygon fill="white" stroke="#666666" points="757.12,-1806.25 639.12,-1806.25 639.12,-1784 757.12,-1784 757.12,-1806.25"/>
<text text-anchor="middle" x="698.12" y="-1792.75" font-family="Helvetica,sans-Serif" font-size="10.00">CPS::SP::Ph1::Resistor</text>
</a>
</g>
</g>
<!-- Node2&#45;&gt;Node68 -->
<g id="edge28_Node000002_Node000068" class="edge">
<title>Node2&#45;&gt;Node68</title>
<g id="a_edge28_Node000002_Node000068"><a xlink:title=" ">
<path fill="none" stroke="#63b8ff" d="M501.27,-1143.09C507.06,-1232.72 528.42,-1506.03 584.5,-1725.12 590.39,-1748.16 585.46,-1759.65 603.5,-1775.12 613.47,-1783.67 626.2,-1788.85 639.04,-1791.92"/>
<polygon fill="#63b8ff" stroke="#63b8ff" points="504.77,-1142.96 500.65,-1133.2 497.78,-1143.4 504.77,-1142.96"/>
</a>
</g>
</g>
<!-- Node69 -->
<g id="Node000069" class="node">
<title>Node69</title>
<g id="a_Node000069"><a xlink:href="class_c_p_s_1_1_s_p_1_1_ph1_1_1_switch.html" target="_top" xlink:title="Dynamic phasor switch.">
<polygon fill="white" stroke="#666666" points="753,-1766.25 643.25,-1766.25 643.25,-1744 753,-1744 753,-1766.25"/>
<text text-anchor="middle" x="698.12" y="-1752.75" font-family="Helvetica,sans-Serif" font-size="10.00">CPS::SP::Ph1::Switch</text>
</a>
</g>
</g>
<!-- Node2&#45;&gt;Node69 -->
<g id="edge29_Node000002_Node000069" class="edge">
<title>Node2&#45;&gt;Node69</title>
<g id="a_edge29_Node000002_Node000069"><a xlink:title=" ">
<path fill="none" stroke="#63b8ff" d="M499.98,-1143.08C502.42,-1255.75 517.13,-1651.95 603.5,-1735.12 614.16,-1745.39 628.72,-1750.93 643.18,-1753.8"/>
<polygon fill="#63b8ff" stroke="#63b8ff" points="503.48,-1143.07 499.78,-1133.15 496.48,-1143.21 503.48,-1143.07"/>
</a>
</g>
</g>
<!-- Node70 -->
<g id="Node000070" class="node">
<title>Node70</title>
<g id="a_Node000070"><a xlink:href="class_c_p_s_1_1_s_p_1_1_ph1_1_1_voltage_source.html" target="_top" xlink:title="Ideal Voltage source model.">
<polygon fill="white" stroke="#666666" points="771.75,-1726.25 624.5,-1726.25 624.5,-1704 771.75,-1704 771.75,-1726.25"/>
<text text-anchor="middle" x="698.12" y="-1712.75" font-family="Helvetica,sans-Serif" font-size="10.00">CPS::SP::Ph1::VoltageSource</text>
</a>
</g>
</g>
<!-- Node2&#45;&gt;Node70 -->
<g id="edge30_Node000002_Node000070" class="edge">
<title>Node2&#45;&gt;Node70</title>
<g id="a_edge30_Node000002_Node000070"><a xlink:title=" ">
<path fill="none" stroke="#63b8ff" d="M502.2,-1143.08C509.99,-1224.61 535.17,-1456.93 584.5,-1644.12 590.66,-1667.51 585.19,-1679.32 603.5,-1695.12 609.54,-1700.34 616.6,-1704.3 624.1,-1707.3"/>
<polygon fill="#63b8ff" stroke="#63b8ff" points="505.69,-1142.88 501.28,-1133.25 498.72,-1143.53 505.69,-1142.88"/>
</a>
</g>
</g>
<!-- Node71 -->
<g id="Node000071" class="node">
<title>Node71</title>
<g id="a_Node000071"><a xlink:href="class_c_p_s_1_1_s_p_1_1_ph1_1_1var_res_switch.html" target="_top" xlink:title="Switch with variable resistance to avoid numerical oscillations, when an inductive current is suddenl...">
<polygon fill="white" stroke="#666666" points="768.75,-1686.25 627.5,-1686.25 627.5,-1664 768.75,-1664 768.75,-1686.25"/>
<text text-anchor="middle" x="698.12" y="-1672.75" font-family="Helvetica,sans-Serif" font-size="10.00">CPS::SP::Ph1::varResSwitch</text>
</a>
</g>
</g>
<!-- Node2&#45;&gt;Node71 -->
<g id="edge31_Node000002_Node000071" class="edge">
<title>Node2&#45;&gt;Node71</title>
<g id="a_edge31_Node000002_Node000071"><a xlink:title=" ">
<path fill="none" stroke="#63b8ff" d="M500.83,-1143.15C506.05,-1246.25 528.66,-1583.52 603.5,-1655.12 610.23,-1661.56 618.49,-1666.14 627.29,-1669.36"/>
<polygon fill="#63b8ff" stroke="#63b8ff" points="504.33,-1143.1 500.35,-1133.28 497.34,-1143.44 504.33,-1143.1"/>
</a>
</g>
</g>
<!-- Node72 -->
<g id="Node000072" class="node">
<title>Node72</title>
<g id="a_Node000072"><a xlink:href="class_c_p_s_1_1_s_p_1_1_ph3_1_1_capacitor.html" target="_top" xlink:title="Capacitor model.">
<polygon fill="white" stroke="#666666" points="760.12,-1646.25 636.12,-1646.25 636.12,-1624 760.12,-1624 760.12,-1646.25"/>
<text text-anchor="middle" x="698.12" y="-1632.75" font-family="Helvetica,sans-Serif" font-size="10.00">CPS::SP::Ph3::Capacitor</text>
</a>
</g>
</g>
<!-- Node2&#45;&gt;Node72 -->
<g id="edge32_Node000002_Node000072" class="edge">
<title>Node2&#45;&gt;Node72</title>
<g id="a_edge32_Node000002_Node000072"><a xlink:title=" ">
<path fill="none" stroke="#63b8ff" d="M503.03,-1142.62C512.18,-1215.63 539.21,-1410.22 584.5,-1567.12 590.86,-1589.17 585.98,-1600.31 603.5,-1615.12 612.64,-1622.85 624.04,-1627.82 635.71,-1630.96"/>
<polygon fill="#63b8ff" stroke="#63b8ff" points="506.55,-1142.58 501.85,-1133.09 499.6,-1143.44 506.55,-1142.58"/>
</a>
</g>
</g>
<!-- Node73 -->
<g id="Node000073" class="node">
<title>Node73</title>
<g id="a_Node000073"><a xlink:href="class_c_p_s_1_1_s_p_1_1_ph3_1_1_inductor.html" target="_top" xlink:title="Inductor.">
<polygon fill="white" stroke="#666666" points="758.62,-1606.25 637.62,-1606.25 637.62,-1584 758.62,-1584 758.62,-1606.25"/>
<text text-anchor="middle" x="698.12" y="-1592.75" font-family="Helvetica,sans-Serif" font-size="10.00">CPS::SP::Ph3::Inductor</text>
</a>
</g>
</g>
<!-- Node2&#45;&gt;Node73 -->
<g id="edge33_Node000002_Node000073" class="edge">
<title>Node2&#45;&gt;Node73</title>
<g id="a_edge33_Node000002_Node000073"><a xlink:title=" ">
<path fill="none" stroke="#63b8ff" d="M501.7,-1143.1C509.19,-1236.3 537.06,-1518.13 603.5,-1575.12 613.09,-1583.35 625.23,-1588.45 637.58,-1591.57"/>
<polygon fill="#63b8ff" stroke="#63b8ff" points="505.2,-1142.94 500.93,-1133.24 498.22,-1143.48 505.2,-1142.94"/>
</a>
</g>
</g>
<!-- Node74 -->
<g id="Node000074" class="node">
<title>Node74</title>
<g id="a_Node000074"><a xlink:href="class_c_p_s_1_1_s_p_1_1_ph3_1_1_resistor.html" target="_top" xlink:title=" ">
<polygon fill="white" stroke="#bfbfbf" points="757.12,-1566.25 639.12,-1566.25 639.12,-1544 757.12,-1544 757.12,-1566.25"/>
<text text-anchor="middle" x="698.12" y="-1552.75" font-family="Helvetica,sans-Serif" font-size="10.00">CPS::SP::Ph3::Resistor</text>
</a>
</g>
</g>
<!-- Node2&#45;&gt;Node74 -->
<g id="edge34_Node000002_Node000074" class="edge">
<title>Node2&#45;&gt;Node74</title>
<g id="a_edge34_Node000002_Node000074"><a xlink:title=" ">
<path fill="none" stroke="#63b8ff" d="M502.45,-1143.04C511.72,-1230.55 543.3,-1483.14 603.5,-1535.12 613.44,-1543.71 626.16,-1548.9 639,-1551.97"/>
<polygon fill="#63b8ff" stroke="#63b8ff" points="505.95,-1142.92 501.44,-1133.33 498.99,-1143.64 505.95,-1142.92"/>
</a>
</g>
</g>
<!-- Node75 -->
<g id="Node000075" class="node">
<title>Node75</title>
<g id="a_Node000075"><a xlink:href="class_c_p_s_1_1_s_p_1_1_ph3_1_1_voltage_source.html" target="_top" xlink:title="Ideal Voltage source model.">
<polygon fill="white" stroke="#666666" points="771.75,-1526.25 624.5,-1526.25 624.5,-1504 771.75,-1504 771.75,-1526.25"/>
<text text-anchor="middle" x="698.12" y="-1512.75" font-family="Helvetica,sans-Serif" font-size="10.00">CPS::SP::Ph3::VoltageSource</text>
</a>
</g>
</g>
<!-- Node2&#45;&gt;Node75 -->
<g id="edge35_Node000002_Node000075" class="edge">
<title>Node2&#45;&gt;Node75</title>
<g id="a_edge35_Node000002_Node000075"><a xlink:title=" ">
<path fill="none" stroke="#63b8ff" d="M503.48,-1142.94C514.94,-1224.22 550.62,-1446.87 603.5,-1495.12 609.52,-1500.61 616.66,-1504.74 624.28,-1507.81"/>
<polygon fill="#63b8ff" stroke="#63b8ff" points="506.95,-1142.5 502.11,-1133.08 500.02,-1143.46 506.95,-1142.5"/>
</a>
</g>
</g>
<!-- Node77 -->
<g id="Node000077" class="node">
<title>Node77</title>
<g id="a_Node000077"><a xlink:href="class_c_p_s_1_1_base_1_1_reduced_order_synchron_generator.html" target="_top" xlink:title=" ">
<polygon fill="white" stroke="orangered" points="787.5,-251.38 608.75,-251.38 608.75,-214.88 787.5,-214.88 787.5,-251.38"/>
<text text-anchor="start" x="616.75" y="-237.88" font-family="Helvetica,sans-Serif" font-size="10.00">CPS::Base::ReducedOrderSynchron</text>
<text text-anchor="middle" x="698.12" y="-223.62" font-family="Helvetica,sans-Serif" font-size="10.00">Generator&lt; Real &gt;</text>
</a>
</g>
</g>
<!-- Node76&#45;&gt;Node77 -->
<g id="edge37_Node000076_Node000077" class="edge">
<title>Node76&#45;&gt;Node77</title>
<g id="a_edge37_Node000076_Node000077"><a xlink:title=" ">
<path fill="none" stroke="#63b8ff" d="M578.36,-246.95C588.2,-245.8 598.32,-244.62 608.3,-243.46"/>
<polygon fill="#63b8ff" stroke="#63b8ff" points="577.99,-243.47 568.46,-248.1 578.8,-250.42 577.99,-243.47"/>
</a>
</g>
</g>
<!-- Node85 -->
<g id="Node000085" class="node">
<title>Node85</title>
<g id="a_Node000085"><a xlink:href="class_c_p_s_1_1_composite_power_comp.html" target="_top" xlink:title=" ">
<polygon fill="white" stroke="orangered" points="771,-196.38 625.25,-196.38 625.25,-159.88 771,-159.88 771,-196.38"/>
<text text-anchor="start" x="633.25" y="-182.88" font-family="Helvetica,sans-Serif" font-size="10.00">CPS::CompositePowerComp</text>
<text text-anchor="middle" x="698.12" y="-168.62" font-family="Helvetica,sans-Serif" font-size="10.00">&lt; Real &gt;</text>
</a>
</g>
</g>
<!-- Node76&#45;&gt;Node85 -->
<g id="edge38_Node000076_Node000085" class="edge">
<title>Node76&#45;&gt;Node85</title>
<g id="a_edge38_Node000076_Node000085"><a xlink:title=" ">
<path fill="none" stroke="#63b8ff" d="M544.72,-232.47C562.73,-223.56 583.82,-213.74 603.5,-206.12 611.96,-202.85 620.98,-199.72 629.95,-196.82"/>
<polygon fill="#63b8ff" stroke="#63b8ff" points="543.23,-229.3 535.86,-236.91 546.37,-235.56 543.23,-229.3"/>
</a>
</g>
</g>
<!-- Node96 -->
<g id="Node000096" class="node">
<title>Node96</title>
<g id="a_Node000096"><a xlink:href="class_c_p_s_1_1_e_m_t_1_1_ph1_1_1_capacitor.html" target="_top" xlink:title="Capacitor model.">
<polygon fill="white" stroke="#666666" points="764.25,-142.25 632,-142.25 632,-120 764.25,-120 764.25,-142.25"/>
<text text-anchor="middle" x="698.12" y="-128.75" font-family="Helvetica,sans-Serif" font-size="10.00">CPS::EMT::Ph1::Capacitor</text>
</a>
</g>
</g>
<!-- Node76&#45;&gt;Node96 -->
<g id="edge39_Node000076_Node000096" class="edge">
<title>Node76&#45;&gt;Node96</title>
<g id="a_edge39_Node000076_Node000096"><a xlink:title=" ">
<path fill="none" stroke="#63b8ff" d="M519.18,-228.66C538.04,-204.44 568.72,-170.14 603.5,-151.12 612.25,-146.34 622.04,-142.7 631.91,-139.93"/>
<polygon fill="#63b8ff" stroke="#63b8ff" points="516.49,-226.42 513.23,-236.5 522.06,-230.65 516.49,-226.42"/>
</a>
</g>
</g>
<!-- Node97 -->
<g id="Node000097" class="node">
<title>Node97</title>
<g id="a_Node000097"><a xlink:href="class_c_p_s_1_1_e_m_t_1_1_ph1_1_1_current_source.html" target="_top" xlink:title="Ideal current source model.">
<polygon fill="white" stroke="#666666" points="776.25,-102.25 620,-102.25 620,-80 776.25,-80 776.25,-102.25"/>
<text text-anchor="middle" x="698.12" y="-88.75" font-family="Helvetica,sans-Serif" font-size="10.00">CPS::EMT::Ph1::CurrentSource</text>
</a>
</g>
</g>
<!-- Node76&#45;&gt;Node97 -->
<g id="edge40_Node000076_Node000097" class="edge">
<title>Node76&#45;&gt;Node97</title>
<g id="a_edge40_Node000076_Node000097"><a xlink:title=" ">
<path fill="none" stroke="#63b8ff" d="M512.01,-227.58C528.16,-194.21 559.53,-139.9 603.5,-111.12 608.65,-107.76 614.26,-104.95 620.1,-102.6"/>
<polygon fill="#63b8ff" stroke="#63b8ff" points="509.02,-225.71 507.94,-236.25 515.36,-228.68 509.02,-225.71"/>
</a>
</g>
</g>
<!-- Node98 -->
<g id="Node000098" class="node">
<title>Node98</title>
<g id="a_Node000098"><a xlink:href="class_c_p_s_1_1_e_m_t_1_1_ph1_1_1_inductor.html" target="_top" xlink:title="Inductor.">
<polygon fill="white" stroke="#666666" points="762.75,-62.25 633.5,-62.25 633.5,-40 762.75,-40 762.75,-62.25"/>
<text text-anchor="middle" x="698.12" y="-48.75" font-family="Helvetica,sans-Serif" font-size="10.00">CPS::EMT::Ph1::Inductor</text>
</a>
</g>
</g>
<!-- Node76&#45;&gt;Node98 -->
<g id="edge41_Node000076_Node000098" class="edge">
<title>Node76&#45;&gt;Node98</title>
<g id="a_edge41_Node000076_Node000098"><a xlink:title=" ">
<path fill="none" stroke="#63b8ff" d="M507.7,-226.44C520.78,-184.9 550.45,-110.17 603.5,-71.12 612.2,-64.72 622.52,-60.28 633.07,-57.22"/>
<polygon fill="#63b8ff" stroke="#63b8ff" points="504.35,-225.42 504.81,-236.01 511.05,-227.44 504.35,-225.42"/>
</a>
</g>
</g>
<!-- Node99 -->
<g id="Node000099" class="node">
<title>Node99</title>
<g id="a_Node000099"><a xlink:href="class_c_p_s_1_1_e_m_t_1_1_ph1_1_1_resistor.html" target="_top" xlink:title="EMT Resistor.">
<polygon fill="white" stroke="#666666" points="761.25,-22.25 635,-22.25 635,0 761.25,0 761.25,-22.25"/>
<text text-anchor="middle" x="698.12" y="-8.75" font-family="Helvetica,sans-Serif" font-size="10.00">CPS::EMT::Ph1::Resistor</text>
</a>
</g>
</g>
<!-- Node76&#45;&gt;Node99 -->
<g id="edge42_Node000076_Node000099" class="edge">
<title>Node76&#45;&gt;Node99</title>
<g id="a_edge42_Node000076_Node000099"><a xlink:title=" ">
<path fill="none" stroke="#63b8ff" d="M504.45,-226.55C514.23,-177.86 540.76,-81.25 603.5,-31.12 612.46,-23.97 623.39,-19.21 634.58,-16.09"/>
<polygon fill="#63b8ff" stroke="#63b8ff" points="501.07,-225.59 502.65,-236.07 507.95,-226.9 501.07,-225.59"/>
</a>
</g>
</g>
<!-- Node100 -->
<g id="Node000100" class="node">
<title>Node100</title>
<g id="a_Node000100"><a xlink:href="class_c_p_s_1_1_e_m_t_1_1_ph1_1_1_s_s_n_1_1_full___serial___r_l_c.html" target="_top" xlink:title="Full_Serial_RLC.">
<polygon fill="white" stroke="#666666" points="751.5,-425.38 644.75,-425.38 644.75,-388.88 751.5,-388.88 751.5,-425.38"/>
<text text-anchor="start" x="652.75" y="-411.88" font-family="Helvetica,sans-Serif" font-size="10.00">CPS::EMT::Ph1::SSN</text>
<text text-anchor="middle" x="698.12" y="-397.62" font-family="Helvetica,sans-Serif" font-size="10.00">::Full_Serial_RLC</text>
</a>
</g>
</g>
<!-- Node76&#45;&gt;Node100 -->
<g id="edge43_Node000076_Node000100" class="edge">
<title>Node76&#45;&gt;Node100</title>
<g id="a_edge43_Node000076_Node000100"><a xlink:title=" ">
<path fill="none" stroke="#63b8ff" d="M516.1,-284.38C534.15,-312.66 565.54,-355.42 603.5,-380.12 615.84,-388.15 630.6,-393.84 644.72,-397.85"/>
<polygon fill="#63b8ff" stroke="#63b8ff" points="519.12,-282.61 510.87,-275.96 513.18,-286.3 519.12,-282.61"/>
</a>
</g>
</g>
<!-- Node101 -->
<g id="Node000101" class="node">
<title>Node101</title>
<g id="a_Node000101"><a xlink:href="class_c_p_s_1_1_e_m_t_1_1_ph1_1_1_s_s_n_type_i2_t.html" target="_top" xlink:title="SSNTypeI2T Model for a one phase, two terminal I&#45;type SSN component which can be represented using a ...">
<polygon fill="white" stroke="#666666" points="770.25,-371.25 626,-371.25 626,-349 770.25,-349 770.25,-371.25"/>
<text text-anchor="middle" x="698.12" y="-357.75" font-family="Helvetica,sans-Serif" font-size="10.00">CPS::EMT::Ph1::SSNTypeI2T</text>
</a>
</g>
</g>
<!-- Node76&#45;&gt;Node101 -->
<g id="edge44_Node000076_Node000101" class="edge">
<title>Node76&#45;&gt;Node101</title>
<g id="a_edge44_Node000076_Node000101"><a xlink:title=" ">
<path fill="none" stroke="#63b8ff" d="M524.95,-282.48C544.66,-301.35 573.57,-325.85 603.5,-340.12 610.55,-343.49 618.17,-346.29 625.91,-348.62"/>
<polygon fill="#63b8ff" stroke="#63b8ff" points="527.5,-280.08 517.91,-275.59 522.6,-285.08 527.5,-280.08"/>
</a>
</g>
</g>
<!-- Node102 -->
<g id="Node000102" class="node">
<title>Node102</title>
<g id="a_Node000102"><a xlink:href="class_c_p_s_1_1_e_m_t_1_1_ph1_1_1_s_s_n_type_v2_t.html" target="_top" xlink:title="SSNTypeV2T Model for a one phase, two terminal V&#45;type SSN component which can be represented using a ...">
<polygon fill="white" stroke="#666666" points="771.38,-331.25 624.88,-331.25 624.88,-309 771.38,-309 771.38,-331.25"/>
<text text-anchor="middle" x="698.12" y="-317.75" font-family="Helvetica,sans-Serif" font-size="10.00">CPS::EMT::Ph1::SSNTypeV2T</text>
</a>
</g>
</g>
<!-- Node76&#45;&gt;Node102 -->
<g id="edge45_Node000076_Node000102" class="edge">
<title>Node76&#45;&gt;Node102</title>
<g id="a_edge45_Node000076_Node000102"><a xlink:title=" ">
<path fill="none" stroke="#63b8ff" d="M549.09,-279.37C566.08,-286.72 585.38,-294.41 603.5,-300.12 613.49,-303.27 624.23,-306.08 634.75,-308.53"/>
<polygon fill="#63b8ff" stroke="#63b8ff" points="550.79,-276.29 540.22,-275.47 547.96,-282.7 550.79,-276.29"/>
</a>
</g>
</g>
<!-- Node103 -->
<g id="Node000103" class="node">
<title>Node103</title>
<g id="a_Node000103"><a xlink:href="class_c_p_s_1_1_e_m_t_1_1_ph1_1_1_switch.html" target="_top" xlink:title="One phase EMT switch.">
<polygon fill="white" stroke="#666666" points="757.12,-291.25 639.12,-291.25 639.12,-269 757.12,-269 757.12,-291.25"/>
<text text-anchor="middle" x="698.12" y="-277.75" font-family="Helvetica,sans-Serif" font-size="10.00">CPS::EMT::Ph1::Switch</text>
</a>
</g>
</g>
<!-- Node76&#45;&gt;Node103 -->
<g id="edge46_Node000076_Node000103" class="edge">
<title>Node76&#45;&gt;Node103</title>
<g id="a_edge46_Node000076_Node000103"><a xlink:title=" ">
<path fill="none" stroke="#63b8ff" d="M578.36,-265.7C598.56,-268.16 619.92,-270.75 638.87,-273.05"/>
<polygon fill="#63b8ff" stroke="#63b8ff" points="578.81,-262.23 568.46,-264.5 577.97,-269.18 578.81,-262.23"/>
</a>
</g>
</g>
<!-- Node139&#45;&gt;Node2 -->
<g id="edge49_Node000139_Node000002" class="edge">
<title>Node139&#45;&gt;Node2</title>
<g id="a_edge49_Node000139_Node000002"><a xlink:title=" ">
<path fill="none" stroke="orange" stroke-dasharray="5,2" d="M318.89,-876.98C350.96,-881.75 386.55,-892.13 412.5,-913.88 469.58,-961.69 489.21,-1054.74 495.18,-1094.44"/>
<polygon fill="orange" stroke="orange" points="319.59,-873.54 309.22,-875.71 318.68,-880.48 319.59,-873.54"/>
</a>
</g>
<text text-anchor="middle" x="383.25" y="-918.62" font-family="Helvetica,sans-Serif" font-size="10.00" fill="grey"> &lt; Complex &gt;</text>
</g>
<!-- Node139&#45;&gt;Node76 -->
<g id="edge50_Node000139_Node000076" class="edge">
<title>Node139&#45;&gt;Node76</title>
<g id="a_edge50_Node000139_Node000076"><a xlink:title=" ">
<path fill="none" stroke="orange" stroke-dasharray="5,2" d="M318.36,-859.28C324.79,-855.99 330.8,-851.99 336,-847.12 423.95,-764.82 482.69,-365.51 495.06,-274.58"/>
<polygon fill="orange" stroke="orange" points="317.09,-856.01 309.37,-863.26 319.93,-862.41 317.09,-856.01"/>
</a>
</g>
<text text-anchor="middle" x="383.25" y="-822.24" font-family="Helvetica,sans-Serif" font-size="10.00" fill="grey"> &lt; Real &gt;</text>
</g>
</g>
</svg>
