<?xml version="1.0" encoding="UTF-8" standalone="no"?>
<!DOCTYPE svg PUBLIC "-//W3C//DTD SVG 1.1//EN"
 "http://www.w3.org/Graphics/SVG/1.1/DTD/svg11.dtd">
<!-- Generated by graphviz version 2.50.0 (0)
 -->
<!-- Title: CPS::EMT::Ph3::SynchronGeneratorDQTrapez Pages: 1 -->
<svg width="2441pt" height="438pt"
 viewBox="0.00 0.00 2441.00 438.24" xmlns="http://www.w3.org/2000/svg" xmlns:xlink="http://www.w3.org/1999/xlink">
<g id="graph0" class="graph" transform="scale(1 1) rotate(0) translate(4 434.24)">
<title>CPS::EMT::Ph3::SynchronGeneratorDQTrapez</title>
<!-- Node1 -->
<g id="node1" class="node">
<title>Node1</title>
<g id="a_node1"><a xlink:title=" ">
<polygon fill="#bfbfbf" stroke="black" points="2252,-103.24 2252,-133.24 2433,-133.24 2433,-103.24 2252,-103.24"/>
<text text-anchor="start" x="2260" y="-121.24" font-family="Helvetica,sans-Serif" font-size="10.00">CPS::EMT::Ph3::SynchronGenerator</text>
<text text-anchor="middle" x="2342.5" y="-110.24" font-family="Helvetica,sans-Serif" font-size="10.00">DQTrapez</text>
</a>
</g>
</g>
<!-- Node2 -->
<g id="node2" class="node">
<title>Node2</title>
<g id="a_node2"><a xlink:href="class_c_p_s_1_1_e_m_t_1_1_ph3_1_1_synchron_generator_d_q.html" target="_top" xlink:title="Synchronous generator model in dq&#45;reference frame.">
<polygon fill="none" stroke="black" points="2019,-131.74 2019,-150.74 2215,-150.74 2215,-131.74 2019,-131.74"/>
<text text-anchor="middle" x="2117" y="-138.74" font-family="Helvetica,sans-Serif" font-size="10.00">CPS::EMT::Ph3::SynchronGeneratorDQ</text>
</a>
</g>
</g>
<!-- Node2&#45;&gt;Node1 -->
<g id="edge1" class="edge">
<title>Node2&#45;&gt;Node1</title>
<path fill="none" stroke="midnightblue" d="M2220.52,-130.69C2231.01,-129.61 2241.6,-128.52 2251.93,-127.45"/>
<polygon fill="midnightblue" stroke="midnightblue" points="2220.11,-127.21 2210.52,-131.71 2220.83,-134.17 2220.11,-127.21"/>
</g>
<!-- Node3 -->
<g id="node3" class="node">
<title>Node3</title>
<g id="a_node3"><a xlink:href="class_c_p_s_1_1_m_n_a_sim_power_comp.html" target="_top" xlink:title=" ">
<polygon fill="none" stroke="black" points="1690,-280.24 1690,-310.24 1827,-310.24 1827,-280.24 1690,-280.24"/>
<text text-anchor="start" x="1698" y="-298.24" font-family="Helvetica,sans-Serif" font-size="10.00">CPS::MNASimPowerComp</text>
<text text-anchor="middle" x="1758.5" y="-287.24" font-family="Helvetica,sans-Serif" font-size="10.00">&lt; Real &gt;</text>
</a>
</g>
</g>
<!-- Node3&#45;&gt;Node2 -->
<g id="edge2" class="edge">
<title>Node3&#45;&gt;Node2</title>
<path fill="none" stroke="midnightblue" d="M1803.76,-276.12C1880.72,-242.87 2036.48,-175.59 2094,-150.74"/>
<polygon fill="midnightblue" stroke="midnightblue" points="1802.12,-273.01 1794.33,-280.19 1804.9,-279.44 1802.12,-273.01"/>
</g>
<!-- Node4 -->
<g id="node4" class="node">
<title>Node4</title>
<g id="a_node4"><a xlink:href="class_c_p_s_1_1_sim_power_comp.html" target="_top" xlink:title=" ">
<polygon fill="none" stroke="black" points="1487,-229.24 1487,-259.24 1606,-259.24 1606,-229.24 1487,-229.24"/>
<text text-anchor="start" x="1495" y="-247.24" font-family="Helvetica,sans-Serif" font-size="10.00">CPS::SimPowerComp&lt;</text>
<text text-anchor="middle" x="1546.5" y="-236.24" font-family="Helvetica,sans-Serif" font-size="10.00"> Real &gt;</text>
</a>
</g>
</g>
<!-- Node4&#45;&gt;Node3 -->
<g id="edge3" class="edge">
<title>Node4&#45;&gt;Node3</title>
<path fill="none" stroke="midnightblue" d="M1616.25,-260.93C1641.77,-267.13 1670.55,-274.12 1695.44,-280.16"/>
<polygon fill="midnightblue" stroke="midnightblue" points="1616.82,-257.47 1606.28,-258.51 1615.17,-264.27 1616.82,-257.47"/>
</g>
<!-- Node5 -->
<g id="node5" class="node">
<title>Node5</title>
<g id="a_node5"><a xlink:href="class_c_p_s_1_1_topological_power_comp.html" target="_top" xlink:title=" ">
<polygon fill="none" stroke="black" points="1033,-195.74 1033,-214.74 1181,-214.74 1181,-195.74 1033,-195.74"/>
<text text-anchor="middle" x="1107" y="-202.74" font-family="Helvetica,sans-Serif" font-size="10.00">CPS::TopologicalPowerComp</text>
</a>
</g>
</g>
<!-- Node5&#45;&gt;Node4 -->
<g id="edge4" class="edge">
<title>Node5&#45;&gt;Node4</title>
<path fill="none" stroke="midnightblue" d="M1191.24,-207.91C1250.43,-210.33 1331.75,-214.7 1403,-222.24 1430.63,-225.16 1461.09,-229.68 1486.73,-233.87"/>
<polygon fill="midnightblue" stroke="midnightblue" points="1191.33,-204.41 1181.2,-207.51 1191.05,-211.4 1191.33,-204.41"/>
</g>
<!-- Node12 -->
<g id="node12" class="node">
<title>Node12</title>
<g id="a_node12"><a xlink:href="class_c_p_s_1_1_sim_power_comp.html" target="_top" xlink:title="Base class for all components that are transmitting power.">
<polygon fill="none" stroke="black" points="1284,-232.24 1284,-262.24 1403,-262.24 1403,-232.24 1284,-232.24"/>
<text text-anchor="start" x="1292" y="-250.24" font-family="Helvetica,sans-Serif" font-size="10.00">CPS::SimPowerComp&lt;</text>
<text text-anchor="middle" x="1343.5" y="-239.24" font-family="Helvetica,sans-Serif" font-size="10.00"> VarType &gt;</text>
</a>
</g>
</g>
<!-- Node5&#45;&gt;Node12 -->
<g id="edge13" class="edge">
<title>Node5&#45;&gt;Node12</title>
<path fill="none" stroke="midnightblue" d="M1171.32,-216.58C1206.31,-222.84 1249.5,-230.58 1283.74,-236.71"/>
<polygon fill="midnightblue" stroke="midnightblue" points="1171.67,-213.08 1161.21,-214.77 1170.44,-219.97 1171.67,-213.08"/>
</g>
<!-- Node6 -->
<g id="node6" class="node">
<title>Node6</title>
<g id="a_node6"><a xlink:href="class_c_p_s_1_1_identified_object.html" target="_top" xlink:title=" ">
<polygon fill="none" stroke="black" points="721,-195.74 721,-214.74 837,-214.74 837,-195.74 721,-195.74"/>
<text text-anchor="middle" x="779" y="-202.74" font-family="Helvetica,sans-Serif" font-size="10.00">CPS::IdentifiedObject</text>
</a>
</g>
</g>
<!-- Node6&#45;&gt;Node5 -->
<g id="edge5" class="edge">
<title>Node6&#45;&gt;Node5</title>
<path fill="none" stroke="midnightblue" d="M847.34,-205.24C901.44,-205.24 977.3,-205.24 1032.88,-205.24"/>
<polygon fill="midnightblue" stroke="midnightblue" points="847.16,-201.74 837.16,-205.24 847.16,-208.74 847.16,-201.74"/>
</g>
<!-- Node7 -->
<g id="node7" class="node">
<title>Node7</title>
<g id="a_node7"><a xlink:href="class_c_p_s_1_1_attribute.html" target="_top" xlink:title=" ">
<polygon fill="none" stroke="black" points="456,-167.74 456,-186.74 583,-186.74 583,-167.74 456,-167.74"/>
<text text-anchor="middle" x="519.5" y="-174.74" font-family="Helvetica,sans-Serif" font-size="10.00">CPS::Attribute&lt; String &gt;</text>
</a>
</g>
</g>
<!-- Node7&#45;&gt;Node6 -->
<g id="edge6" class="edge">
<title>Node7&#45;&gt;Node6</title>
<path fill="none" stroke="#9a32cd" stroke-dasharray="5,2" d="M593.22,-185.14C633.63,-189.54 683.17,-194.92 720.79,-199.01"/>
<polygon fill="#9a32cd" stroke="#9a32cd" points="593.48,-181.65 583.16,-184.05 592.73,-188.61 593.48,-181.65"/>
<text text-anchor="middle" x="654.5" y="-211.24" font-family="Helvetica,sans-Serif" font-size="10.00"> mName</text>
<text text-anchor="middle" x="654.5" y="-200.24" font-family="Helvetica,sans-Serif" font-size="10.00">mUID</text>
</g>
<!-- Node8 -->
<g id="node8" class="node">
<title>Node8</title>
<g id="a_node8"><a xlink:href="class_c_p_s_1_1_attribute_base.html" target="_top" xlink:title=" ">
<polygon fill="none" stroke="black" points="5.5,-198.74 5.5,-217.74 110.5,-217.74 110.5,-198.74 5.5,-198.74"/>
<text text-anchor="middle" x="58" y="-205.74" font-family="Helvetica,sans-Serif" font-size="10.00">CPS::AttributeBase</text>
</a>
</g>
</g>
<!-- Node8&#45;&gt;Node7 -->
<g id="edge7" class="edge">
<title>Node8&#45;&gt;Node7</title>
<path fill="none" stroke="midnightblue" d="M72.98,-190.74C89.65,-171.42 119.5,-141.44 153,-129.24 277.47,-83.88 439.62,-143.26 497.13,-167.65"/>
<polygon fill="midnightblue" stroke="midnightblue" points="70.2,-188.6 66.48,-198.52 75.58,-193.09 70.2,-188.6"/>
</g>
<!-- Node10 -->
<g id="node10" class="node">
<title>Node10</title>
<g id="a_node10"><a xlink:href="class_c_p_s_1_1_attribute.html" target="_top" xlink:title=" ">
<polygon fill="none" stroke="black" points="172,-245.74 172,-264.74 276,-264.74 276,-245.74 172,-245.74"/>
<text text-anchor="middle" x="224" y="-252.74" font-family="Helvetica,sans-Serif" font-size="10.00">CPS::Attribute&lt; T &gt;</text>
</a>
</g>
</g>
<!-- Node8&#45;&gt;Node10 -->
<g id="edge10" class="edge">
<title>Node8&#45;&gt;Node10</title>
<path fill="none" stroke="midnightblue" d="M101.9,-220.53C129.28,-228.38 164.26,-238.4 189.58,-245.66"/>
<polygon fill="midnightblue" stroke="midnightblue" points="102.77,-217.14 92.19,-217.75 100.84,-223.87 102.77,-217.14"/>
</g>
<!-- Node13 -->
<g id="node13" class="node">
<title>Node13</title>
<g id="a_node13"><a xlink:href="class_c_p_s_1_1_attribute.html" target="_top" xlink:title=" ">
<polygon fill="none" stroke="black" points="451,-247.24 451,-277.24 588,-277.24 588,-247.24 451,-247.24"/>
<text text-anchor="start" x="459" y="-265.24" font-family="Helvetica,sans-Serif" font-size="10.00">CPS::Attribute&lt; MatrixVar</text>
<text text-anchor="middle" x="519.5" y="-254.24" font-family="Helvetica,sans-Serif" font-size="10.00">&lt; VarType &gt; &gt;</text>
</a>
</g>
</g>
<!-- Node8&#45;&gt;Node13 -->
<g id="edge15" class="edge">
<title>Node8&#45;&gt;Node13</title>
<path fill="none" stroke="midnightblue" d="M120.91,-203.12C195.94,-198.6 325.64,-196.25 433,-222.24 454.34,-227.4 476.77,-238.12 493.3,-247.16"/>
<polygon fill="midnightblue" stroke="midnightblue" points="120.45,-199.64 110.7,-203.76 120.9,-206.62 120.45,-199.64"/>
</g>
<!-- Node16 -->
<g id="node16" class="node">
<title>Node16</title>
<g id="a_node16"><a xlink:href="class_c_p_s_1_1_attribute.html" target="_top" xlink:title=" ">
<polygon fill="none" stroke="black" points="455,-350.74 455,-369.74 584,-369.74 584,-350.74 455,-350.74"/>
<text text-anchor="middle" x="519.5" y="-357.74" font-family="Helvetica,sans-Serif" font-size="10.00">CPS::Attribute&lt; Matrix &gt;</text>
</a>
</g>
</g>
<!-- Node8&#45;&gt;Node16 -->
<g id="edge20" class="edge">
<title>Node8&#45;&gt;Node16</title>
<path fill="none" stroke="midnightblue" d="M66.08,-227.34C78.45,-257.67 107.15,-315.96 153,-341.24 203.22,-368.92 364.33,-367.01 454.98,-363.48"/>
<polygon fill="midnightblue" stroke="midnightblue" points="69.28,-225.92 62.38,-217.88 62.76,-228.47 69.28,-225.92"/>
</g>
<!-- Node20 -->
<g id="node20" class="node">
<title>Node20</title>
<g id="a_node20"><a xlink:href="class_c_p_s_1_1_attribute.html" target="_top" xlink:title=" ">
<polygon fill="none" stroke="black" points="460,-51.74 460,-70.74 579,-70.74 579,-51.74 460,-51.74"/>
<text text-anchor="middle" x="519.5" y="-58.74" font-family="Helvetica,sans-Serif" font-size="10.00">CPS::Attribute&lt; Real &gt;</text>
</a>
</g>
</g>
<!-- Node8&#45;&gt;Node20 -->
<g id="edge29" class="edge">
<title>Node8&#45;&gt;Node20</title>
<path fill="none" stroke="midnightblue" d="M62.59,-188.7C70.8,-150.4 94.92,-66.15 153,-31.24 267.04,37.33 438.49,-26.06 497.6,-51.64"/>
<polygon fill="midnightblue" stroke="midnightblue" points="59.14,-188.11 60.61,-198.6 66,-189.49 59.14,-188.11"/>
</g>
<!-- Node9 -->
<g id="node9" class="node">
<title>Node9</title>
<g id="a_node9"><a xlink:title=" ">
<polygon fill="none" stroke="#bfbfbf" points="166,-138.74 166,-179.74 282,-179.74 282,-138.74 166,-138.74"/>
<text text-anchor="start" x="174" y="-167.74" font-family="Helvetica,sans-Serif" font-size="10.00">std::enable_shared</text>
<text text-anchor="start" x="174" y="-156.74" font-family="Helvetica,sans-Serif" font-size="10.00">_from_this&lt; Attribute</text>
<text text-anchor="middle" x="224" y="-145.74" font-family="Helvetica,sans-Serif" font-size="10.00">&lt; String &gt; &gt;</text>
</a>
</g>
</g>
<!-- Node9&#45;&gt;Node7 -->
<g id="edge8" class="edge">
<title>Node9&#45;&gt;Node7</title>
<path fill="none" stroke="midnightblue" d="M292.16,-158.1C332.97,-158.01 386.08,-158.97 433,-163.24 444.23,-164.26 456.22,-165.88 467.56,-167.67"/>
<polygon fill="midnightblue" stroke="midnightblue" points="292.05,-154.6 282.06,-158.14 292.08,-161.6 292.05,-154.6"/>
</g>
<!-- Node10&#45;&gt;Node7 -->
<g id="edge9" class="edge">
<title>Node10&#45;&gt;Node7</title>
<path fill="none" stroke="orange" stroke-dasharray="5,2" d="M270.71,-243.09C329.22,-227.54 429.38,-200.92 482.68,-186.76"/>
<polygon fill="orange" stroke="orange" points="269.75,-239.72 260.99,-245.67 271.55,-246.49 269.75,-239.72"/>
<text text-anchor="middle" x="373" y="-233.24" font-family="Helvetica,sans-Serif" font-size="10.00"> &lt; String &gt;</text>
</g>
<!-- Node10&#45;&gt;Node13 -->
<g id="edge17" class="edge">
<title>Node10&#45;&gt;Node13</title>
<path fill="none" stroke="orange" stroke-dasharray="5,2" d="M286.39,-256.7C334.47,-257.85 401.3,-259.44 450.9,-260.62"/>
<polygon fill="orange" stroke="orange" points="286.2,-253.19 276.12,-256.45 286.04,-260.19 286.2,-253.19"/>
<text text-anchor="middle" x="373" y="-263.24" font-family="Helvetica,sans-Serif" font-size="10.00"> &lt; MatrixVar&lt; VarType &gt; &gt;</text>
</g>
<!-- Node10&#45;&gt;Node16 -->
<g id="edge22" class="edge">
<title>Node10&#45;&gt;Node16</title>
<path fill="none" stroke="orange" stroke-dasharray="5,2" d="M261.34,-268.24C321.15,-289.63 438.97,-331.78 491.78,-350.68"/>
<polygon fill="orange" stroke="orange" points="262.16,-264.81 251.56,-264.74 259.8,-271.4 262.16,-264.81"/>
<text text-anchor="middle" x="373" y="-332.24" font-family="Helvetica,sans-Serif" font-size="10.00"> &lt; Matrix &gt;</text>
</g>
<!-- Node10&#45;&gt;Node20 -->
<g id="edge31" class="edge">
<title>Node10&#45;&gt;Node20</title>
<path fill="none" stroke="orange" stroke-dasharray="5,2" d="M244.13,-239.16C261.63,-224.72 288.45,-203.24 313,-186.24 380.46,-139.52 465.43,-90.87 501.29,-70.78"/>
<polygon fill="orange" stroke="orange" points="241.8,-236.55 236.34,-245.63 246.27,-241.94 241.8,-236.55"/>
<text text-anchor="middle" x="373" y="-189.24" font-family="Helvetica,sans-Serif" font-size="10.00"> &lt; Real &gt;</text>
</g>
<!-- Node11 -->
<g id="node11" class="node">
<title>Node11</title>
<g id="a_node11"><a xlink:title=" ">
<polygon fill="none" stroke="#bfbfbf" points="0,-364.74 0,-405.74 116,-405.74 116,-364.74 0,-364.74"/>
<text text-anchor="start" x="8" y="-393.74" font-family="Helvetica,sans-Serif" font-size="10.00">std::enable_shared</text>
<text text-anchor="start" x="8" y="-382.74" font-family="Helvetica,sans-Serif" font-size="10.00">_from_this&lt; Attribute</text>
<text text-anchor="middle" x="58" y="-371.74" font-family="Helvetica,sans-Serif" font-size="10.00">&lt; T &gt; &gt;</text>
</a>
</g>
</g>
<!-- Node11&#45;&gt;Node10 -->
<g id="edge11" class="edge">
<title>Node11&#45;&gt;Node10</title>
<path fill="none" stroke="midnightblue" d="M78.9,-356.46C96.16,-333.36 123.04,-301.55 153,-281.24 163.3,-274.25 175.72,-268.85 187.22,-264.83"/>
<polygon fill="midnightblue" stroke="midnightblue" points="76.07,-354.4 72.99,-364.54 81.72,-358.53 76.07,-354.4"/>
</g>
<!-- Node12&#45;&gt;Node4 -->
<g id="edge12" class="edge">
<title>Node12&#45;&gt;Node4</title>
<path fill="none" stroke="orange" stroke-dasharray="5,2" d="M1413.39,-245.38C1415.96,-245.33 1418.5,-245.28 1421,-245.24 1442.5,-244.87 1466.1,-244.64 1486.91,-244.49"/>
<polygon fill="orange" stroke="orange" points="1413.31,-241.88 1403.39,-245.59 1413.46,-248.88 1413.31,-241.88"/>
<text text-anchor="middle" x="1440.5" y="-248.24" font-family="Helvetica,sans-Serif" font-size="10.00"> &lt; Real &gt;</text>
</g>
<!-- Node18 -->
<g id="node18" class="node">
<title>Node18</title>
<g id="a_node18"><a xlink:href="class_c_p_s_1_1_m_n_a_sim_power_comp.html" target="_top" xlink:title="Base class for all MNA components that are transmitting power.">
<polygon fill="none" stroke="black" points="1478,-280.24 1478,-310.24 1615,-310.24 1615,-280.24 1478,-280.24"/>
<text text-anchor="start" x="1486" y="-298.24" font-family="Helvetica,sans-Serif" font-size="10.00">CPS::MNASimPowerComp</text>
<text text-anchor="middle" x="1546.5" y="-287.24" font-family="Helvetica,sans-Serif" font-size="10.00">&lt; VarType &gt;</text>
</a>
</g>
</g>
<!-- Node12&#45;&gt;Node18 -->
<g id="edge24" class="edge">
<title>Node12&#45;&gt;Node18</title>
<path fill="none" stroke="midnightblue" d="M1413,-263.59C1435.53,-268.97 1460.45,-274.92 1482.54,-280.2"/>
<polygon fill="midnightblue" stroke="midnightblue" points="1413.72,-260.17 1403.18,-261.25 1412.09,-266.98 1413.72,-260.17"/>
</g>
<!-- Node13&#45;&gt;Node12 -->
<g id="edge14" class="edge">
<title>Node13&#45;&gt;Node12</title>
<path fill="none" stroke="#9a32cd" stroke-dasharray="5,2" d="M598.59,-260.81C762.4,-257.82 1138.74,-250.95 1283.9,-248.3"/>
<polygon fill="#9a32cd" stroke="#9a32cd" points="598.05,-257.32 588.12,-261 598.18,-264.32 598.05,-257.32"/>
<text text-anchor="middle" x="935" y="-270.24" font-family="Helvetica,sans-Serif" font-size="10.00"> mIntfCurrent</text>
<text text-anchor="middle" x="935" y="-259.24" font-family="Helvetica,sans-Serif" font-size="10.00">mIntfVoltage</text>
</g>
<!-- Node14 -->
<g id="node14" class="node">
<title>Node14</title>
<g id="a_node14"><a xlink:title=" ">
<polygon fill="none" stroke="#bfbfbf" points="153,-290.74 153,-331.74 295,-331.74 295,-290.74 153,-290.74"/>
<text text-anchor="start" x="161" y="-319.74" font-family="Helvetica,sans-Serif" font-size="10.00">std::enable_shared</text>
<text text-anchor="start" x="161" y="-308.74" font-family="Helvetica,sans-Serif" font-size="10.00">_from_this&lt; Attribute</text>
<text text-anchor="middle" x="224" y="-297.74" font-family="Helvetica,sans-Serif" font-size="10.00">&lt; MatrixVar&lt; VarType &gt; &gt; &gt;</text>
</a>
</g>
</g>
<!-- Node14&#45;&gt;Node13 -->
<g id="edge16" class="edge">
<title>Node14&#45;&gt;Node13</title>
<path fill="none" stroke="midnightblue" d="M305.45,-327.86C344.73,-332.79 392.2,-333.95 433,-321.24 460.55,-312.65 487.06,-291.75 503.07,-277.28"/>
<polygon fill="midnightblue" stroke="midnightblue" points="305.76,-324.37 295.38,-326.49 304.82,-331.3 305.76,-324.37"/>
</g>
<!-- Node15 -->
<g id="node15" class="node">
<title>Node15</title>
<g id="a_node15"><a xlink:href="class_c_p_s_1_1_m_n_a_interface.html" target="_top" xlink:title="Interface to be implemented by all models used by the MNA solver.">
<polygon fill="none" stroke="black" points="1290,-329.74 1290,-348.74 1397,-348.74 1397,-329.74 1290,-329.74"/>
<text text-anchor="middle" x="1343.5" y="-336.74" font-family="Helvetica,sans-Serif" font-size="10.00">CPS::MNAInterface</text>
</a>
</g>
</g>
<!-- Node15&#45;&gt;Node3 -->
<g id="edge18" class="edge">
<title>Node15&#45;&gt;Node3</title>
<path fill="none" stroke="midnightblue" d="M1407.52,-334.96C1424.55,-333.78 1442.98,-332.48 1460,-331.24 1528.91,-326.18 1546.38,-327.3 1615,-319.24 1640.47,-316.24 1646.7,-314.45 1672,-310.24 1677.8,-309.27 1683.81,-308.25 1689.85,-307.21"/>
<polygon fill="midnightblue" stroke="midnightblue" points="1406.85,-331.5 1397.12,-335.68 1407.33,-338.48 1406.85,-331.5"/>
</g>
<!-- Node15&#45;&gt;Node18 -->
<g id="edge25" class="edge">
<title>Node15&#45;&gt;Node18</title>
<path fill="none" stroke="midnightblue" d="M1397.95,-327.53C1422.47,-322.17 1451.82,-315.74 1477.86,-310.04"/>
<polygon fill="midnightblue" stroke="midnightblue" points="1397.13,-324.13 1388.11,-329.69 1398.63,-330.97 1397.13,-324.13"/>
</g>
<!-- Node16&#45;&gt;Node3 -->
<g id="edge19" class="edge">
<title>Node16&#45;&gt;Node3</title>
<path fill="none" stroke="#9a32cd" stroke-dasharray="5,2" d="M594.14,-370.32C645.55,-376.5 715.83,-383.24 778,-383.24 778,-383.24 778,-383.24 1547.5,-383.24 1622.01,-383.24 1700.65,-335.52 1736.94,-310.36"/>
<polygon fill="#9a32cd" stroke="#9a32cd" points="594.47,-366.84 584.12,-369.1 593.62,-373.78 594.47,-366.84"/>
<text text-anchor="middle" x="1232.5" y="-386.24" font-family="Helvetica,sans-Serif" font-size="10.00"> mRightVector</text>
</g>
<!-- Node16&#45;&gt;Node18 -->
<g id="edge26" class="edge">
<title>Node16&#45;&gt;Node18</title>
<path fill="none" stroke="#9a32cd" stroke-dasharray="5,2" d="M552.27,-346.8C600.26,-327.77 694.49,-295.24 778,-295.24 778,-295.24 778,-295.24 1344.5,-295.24 1388.82,-295.24 1438.63,-295.24 1477.58,-295.24"/>
<polygon fill="#9a32cd" stroke="#9a32cd" points="550.72,-343.66 542.76,-350.64 553.34,-350.15 550.72,-343.66"/>
<text text-anchor="middle" x="1107" y="-298.24" font-family="Helvetica,sans-Serif" font-size="10.00"> mRightVector</text>
</g>
<!-- Node17 -->
<g id="node17" class="node">
<title>Node17</title>
<g id="a_node17"><a xlink:title=" ">
<polygon fill="none" stroke="#bfbfbf" points="166,-388.74 166,-429.74 282,-429.74 282,-388.74 166,-388.74"/>
<text text-anchor="start" x="174" y="-417.74" font-family="Helvetica,sans-Serif" font-size="10.00">std::enable_shared</text>
<text text-anchor="start" x="174" y="-406.74" font-family="Helvetica,sans-Serif" font-size="10.00">_from_this&lt; Attribute</text>
<text text-anchor="middle" x="224" y="-395.74" font-family="Helvetica,sans-Serif" font-size="10.00">&lt; Matrix &gt; &gt;</text>
</a>
</g>
</g>
<!-- Node17&#45;&gt;Node16 -->
<g id="edge21" class="edge">
<title>Node17&#45;&gt;Node16</title>
<path fill="none" stroke="midnightblue" d="M292.25,-398.01C343.37,-389.47 412.92,-377.86 461.36,-369.78"/>
<polygon fill="midnightblue" stroke="midnightblue" points="291.57,-394.57 282.29,-399.67 292.73,-401.48 291.57,-394.57"/>
</g>
<!-- Node18&#45;&gt;Node3 -->
<g id="edge23" class="edge">
<title>Node18&#45;&gt;Node3</title>
<path fill="none" stroke="orange" stroke-dasharray="5,2" d="M1625.33,-295.24C1646.45,-295.24 1669.14,-295.24 1689.67,-295.24"/>
<polygon fill="orange" stroke="orange" points="1625.1,-291.74 1615.1,-295.24 1625.1,-298.74 1625.1,-291.74"/>
<text text-anchor="middle" x="1652.5" y="-298.24" font-family="Helvetica,sans-Serif" font-size="10.00"> &lt; Real &gt;</text>
</g>
<!-- Node19 -->
<g id="node19" class="node">
<title>Node19</title>
<g id="a_node19"><a xlink:href="class_c_p_s_1_1_base_1_1_synchron_generator.html" target="_top" xlink:title="Base synchronous generator model.">
<polygon fill="none" stroke="black" points="855,-81.74 855,-100.74 1015,-100.74 1015,-81.74 855,-81.74"/>
<text text-anchor="middle" x="935" y="-88.74" font-family="Helvetica,sans-Serif" font-size="10.00">CPS::Base::SynchronGenerator</text>
</a>
</g>
</g>
<!-- Node19&#45;&gt;Node2 -->
<g id="edge27" class="edge">
<title>Node19&#45;&gt;Node2</title>
<path fill="none" stroke="midnightblue" d="M982.02,-103.17C1039.84,-117.1 1142.31,-138.24 1231.5,-138.24 1231.5,-138.24 1231.5,-138.24 1759.5,-138.24 1847.24,-138.24 1947.11,-139.16 2018.79,-139.98"/>
<polygon fill="midnightblue" stroke="midnightblue" points="982.64,-99.72 972.1,-100.75 980.98,-106.52 982.64,-99.72"/>
</g>
<!-- Node20&#45;&gt;Node19 -->
<g id="edge28" class="edge">
<title>Node20&#45;&gt;Node19</title>
<path fill="none" stroke="#9a32cd" stroke-dasharray="5,2" d="M589.67,-59.67C623.81,-59.4 665.61,-59.79 703,-62.24 761.28,-66.04 827.37,-74.79 873.88,-81.69"/>
<polygon fill="#9a32cd" stroke="#9a32cd" points="589.29,-56.18 579.33,-59.78 589.36,-63.18 589.29,-56.18"/>
<text text-anchor="middle" x="654.5" y="-175.24" font-family="Helvetica,sans-Serif" font-size="10.00"> mDelta</text>
<text text-anchor="middle" x="654.5" y="-164.24" font-family="Helvetica,sans-Serif" font-size="10.00">mElecActivePower</text>
<text text-anchor="middle" x="654.5" y="-153.24" font-family="Helvetica,sans-Serif" font-size="10.00">mElecReactivePower</text>
<text text-anchor="middle" x="654.5" y="-142.24" font-family="Helvetica,sans-Serif" font-size="10.00">mElecTorque</text>
<text text-anchor="middle" x="654.5" y="-131.24" font-family="Helvetica,sans-Serif" font-size="10.00">mInertia</text>
<text text-anchor="middle" x="654.5" y="-120.24" font-family="Helvetica,sans-Serif" font-size="10.00">mLd</text>
<text text-anchor="middle" x="654.5" y="-109.24" font-family="Helvetica,sans-Serif" font-size="10.00">mLd_s</text>
<text text-anchor="middle" x="654.5" y="-98.24" font-family="Helvetica,sans-Serif" font-size="10.00">mLd_t</text>
<text text-anchor="middle" x="654.5" y="-87.24" font-family="Helvetica,sans-Serif" font-size="10.00">mLl</text>
<text text-anchor="middle" x="654.5" y="-76.24" font-family="Helvetica,sans-Serif" font-size="10.00">mLq</text>
<text text-anchor="middle" x="654.5" y="-65.24" font-family="Helvetica,sans-Serif" font-size="10.00">...</text>
</g>
<!-- Node21 -->
<g id="node21" class="node">
<title>Node21</title>
<g id="a_node21"><a xlink:title=" ">
<polygon fill="none" stroke="#bfbfbf" points="166,-40.74 166,-81.74 282,-81.74 282,-40.74 166,-40.74"/>
<text text-anchor="start" x="174" y="-69.74" font-family="Helvetica,sans-Serif" font-size="10.00">std::enable_shared</text>
<text text-anchor="start" x="174" y="-58.74" font-family="Helvetica,sans-Serif" font-size="10.00">_from_this&lt; Attribute</text>
<text text-anchor="middle" x="224" y="-47.74" font-family="Helvetica,sans-Serif" font-size="10.00">&lt; Real &gt; &gt;</text>
</a>
</g>
</g>
<!-- Node21&#45;&gt;Node20 -->
<g id="edge30" class="edge">
<title>Node21&#45;&gt;Node20</title>
<path fill="none" stroke="midnightblue" d="M292.47,-61.24C343.04,-61.24 411.55,-61.24 459.85,-61.24"/>
<polygon fill="midnightblue" stroke="midnightblue" points="292.29,-57.74 282.29,-61.24 292.29,-64.74 292.29,-57.74"/>
</g>
<!-- Node22 -->
<g id="node22" class="node">
<title>Node22</title>
<g id="a_node22"><a xlink:href="class_shared_factory.html" target="_top" xlink:title=" ">
<polygon fill="none" stroke="black" points="2025.5,-82.24 2025.5,-112.24 2208.5,-112.24 2208.5,-82.24 2025.5,-82.24"/>
<text text-anchor="start" x="2033.5" y="-100.24" font-family="Helvetica,sans-Serif" font-size="10.00">SharedFactory&lt; SynchronGenerator</text>
<text text-anchor="middle" x="2117" y="-89.24" font-family="Helvetica,sans-Serif" font-size="10.00">DQTrapez &gt;</text>
</a>
</g>
</g>
<!-- Node22&#45;&gt;Node1 -->
<g id="edge32" class="edge">
<title>Node22&#45;&gt;Node1</title>
<path fill="none" stroke="midnightblue" d="M2218.69,-106.7C2229.75,-107.74 2240.96,-108.79 2251.88,-109.81"/>
<polygon fill="midnightblue" stroke="midnightblue" points="2218.87,-103.2 2208.58,-105.75 2218.21,-110.17 2218.87,-103.2"/>
</g>
<!-- Node23 -->
<g id="node23" class="node">
<title>Node23</title>
<g id="a_node23"><a xlink:href="class_shared_factory.html" target="_top" xlink:title=" ">
<polygon fill="none" stroke="black" points="1706,-87.74 1706,-106.74 1811,-106.74 1811,-87.74 1706,-87.74"/>
<text text-anchor="middle" x="1758.5" y="-94.74" font-family="Helvetica,sans-Serif" font-size="10.00">SharedFactory&lt; T &gt;</text>
</a>
</g>
</g>
<!-- Node23&#45;&gt;Node22 -->
<g id="edge33" class="edge">
<title>Node23&#45;&gt;Node22</title>
<path fill="none" stroke="orange" stroke-dasharray="5,2" d="M1821.52,-97.24C1877.85,-97.24 1961.62,-97.24 2025.42,-97.24"/>
<polygon fill="orange" stroke="orange" points="1821.34,-93.74 1811.34,-97.24 1821.34,-100.74 1821.34,-93.74"/>
<text text-anchor="middle" x="1923" y="-100.24" font-family="Helvetica,sans-Serif" font-size="10.00"> &lt; SynchronGeneratorDQTrapez &gt;</text>
</g>
</g>
</svg>
