<?xml version="1.0" encoding="UTF-8" standalone="no"?>
<!DOCTYPE svg PUBLIC "-//W3C//DTD SVG 1.1//EN"
 "http://www.w3.org/Graphics/SVG/1.1/DTD/svg11.dtd">
<!-- Generated by graphviz version 2.44.0 (0)
 -->
<!-- Title: CPS::Signal::FIRFilter Pages: 1 -->
<svg width="1091pt" height="198pt"
 viewBox="0.00 0.00 1091.00 197.50" xmlns="http://www.w3.org/2000/svg" xmlns:xlink="http://www.w3.org/1999/xlink">
<g id="graph0" class="graph" transform="scale(1 1) rotate(0) translate(4 193.5)">
<title>CPS::Signal::FIRFilter</title>
<!-- Node1 -->
<g id="node1" class="node">
<title>Node1</title>
<g id="a_node1"><a xlink:title=" ">
<polygon fill="#bfbfbf" stroke="black" points="969,-132 969,-151 1083,-151 1083,-132 969,-132"/>
<text text-anchor="middle" x="1026" y="-139" font-family="Helvetica" font-size="10.00">CPS::Signal::FIRFilter</text>
</a>
</g>
</g>
<!-- Node2 -->
<g id="node2" class="node">
<title>Node2</title>
<g id="a_node2"><a xlink:href="class_c_p_s_1_1_sim_signal_comp.html" target="_top" xlink:title=" ">
<polygon fill="none" stroke="black" points="783,-170 783,-189 897,-189 897,-170 783,-170"/>
<text text-anchor="middle" x="840" y="-177" font-family="Helvetica" font-size="10.00">CPS::SimSignalComp</text>
</a>
</g>
</g>
<!-- Node2&#45;&gt;Node1 -->
<g id="edge1" class="edge">
<title>Node2&#45;&gt;Node1</title>
<path fill="none" stroke="midnightblue" d="M897.56,-167.82C923.65,-162.43 954.24,-156.11 978.9,-151.02"/>
<polygon fill="midnightblue" stroke="midnightblue" points="896.52,-164.46 887.43,-169.91 897.93,-171.32 896.52,-164.46"/>
</g>
<!-- Node3 -->
<g id="node3" class="node">
<title>Node3</title>
<g id="a_node3"><a xlink:href="class_c_p_s_1_1_topological_signal_comp.html" target="_top" xlink:title=" ">
<polygon fill="none" stroke="black" points="558,-170 558,-189 704,-189 704,-170 558,-170"/>
<text text-anchor="middle" x="631" y="-177" font-family="Helvetica" font-size="10.00">CPS::TopologicalSignalComp</text>
</a>
</g>
</g>
<!-- Node3&#45;&gt;Node2 -->
<g id="edge2" class="edge">
<title>Node3&#45;&gt;Node2</title>
<path fill="none" stroke="midnightblue" d="M714.21,-179.5C737.21,-179.5 761.68,-179.5 782.8,-179.5"/>
<polygon fill="midnightblue" stroke="midnightblue" points="714.11,-176 704.11,-179.5 714.11,-183 714.11,-176"/>
</g>
<!-- Node4 -->
<g id="node4" class="node">
<title>Node4</title>
<g id="a_node4"><a xlink:href="class_c_p_s_1_1_identified_object.html" target="_top" xlink:title=" ">
<polygon fill="none" stroke="black" points="265.5,-170 265.5,-189 377.5,-189 377.5,-170 265.5,-170"/>
<text text-anchor="middle" x="321.5" y="-177" font-family="Helvetica" font-size="10.00">CPS::IdentifiedObject</text>
</a>
</g>
</g>
<!-- Node4&#45;&gt;Node3 -->
<g id="edge3" class="edge">
<title>Node4&#45;&gt;Node3</title>
<path fill="none" stroke="midnightblue" d="M387.85,-179.5C437.68,-179.5 506.27,-179.5 557.74,-179.5"/>
<polygon fill="midnightblue" stroke="midnightblue" points="387.83,-176 377.83,-179.5 387.83,-183 387.83,-176"/>
</g>
<!-- Node5 -->
<g id="node5" class="node">
<title>Node5</title>
<g id="a_node5"><a xlink:href="class_c_p_s_1_1_attribute_list.html" target="_top" xlink:title="Base class of objects having attributes to access member variables.">
<polygon fill="none" stroke="black" points="22,-170 22,-189 118,-189 118,-170 22,-170"/>
<text text-anchor="middle" x="70" y="-177" font-family="Helvetica" font-size="10.00">CPS::AttributeList</text>
</a>
</g>
</g>
<!-- Node5&#45;&gt;Node4 -->
<g id="edge4" class="edge">
<title>Node5&#45;&gt;Node4</title>
<path fill="none" stroke="midnightblue" d="M128.36,-179.5C169.48,-179.5 224.56,-179.5 265.2,-179.5"/>
<polygon fill="midnightblue" stroke="midnightblue" points="128.22,-176 118.22,-179.5 128.22,-183 128.22,-176"/>
</g>
<!-- Node6 -->
<g id="node6" class="node">
<title>Node6</title>
<g id="a_node6"><a xlink:href="class_shared_factory.html" target="_top" xlink:title=" ">
<polygon fill="none" stroke="black" points="403,-132 403,-151 540,-151 540,-132 403,-132"/>
<text text-anchor="middle" x="471.5" y="-139" font-family="Helvetica" font-size="10.00">SharedFactory&lt; FIRFilter &gt;</text>
</a>
</g>
</g>
<!-- Node6&#45;&gt;Node1 -->
<g id="edge5" class="edge">
<title>Node6&#45;&gt;Node1</title>
<path fill="none" stroke="midnightblue" d="M550.54,-141.5C663.44,-141.5 869.65,-141.5 968.81,-141.5"/>
<polygon fill="midnightblue" stroke="midnightblue" points="550.25,-138 540.25,-141.5 550.25,-145 550.25,-138"/>
</g>
<!-- Node7 -->
<g id="node7" class="node">
<title>Node7</title>
<g id="a_node7"><a xlink:href="class_shared_factory.html" target="_top" xlink:title=" ">
<polygon fill="none" stroke="black" points="17.5,-94 17.5,-113 122.5,-113 122.5,-94 17.5,-94"/>
<text text-anchor="middle" x="70" y="-101" font-family="Helvetica" font-size="10.00">SharedFactory&lt; T &gt;</text>
</a>
</g>
</g>
<!-- Node7&#45;&gt;Node6 -->
<g id="edge6" class="edge">
<title>Node7&#45;&gt;Node6</title>
<path fill="none" stroke="orange" stroke-dasharray="5,2" d="M133.02,-114.12C141.4,-115.37 149.9,-116.54 158,-117.5 242.16,-127.49 339.58,-134.2 402.98,-137.94"/>
<polygon fill="orange" stroke="orange" points="133.3,-110.63 122.89,-112.57 132.24,-117.55 133.3,-110.63"/>
<text text-anchor="middle" x="199" y="-128.5" font-family="Helvetica" font-size="10.00"> &lt; FIRFilter &gt;</text>
</g>
<!-- Node8 -->
<g id="node8" class="node">
<title>Node8</title>
<g id="a_node8"><a xlink:href="class_c_p_s_1_1_attribute.html" target="_top" xlink:title=" ">
<polygon fill="none" stroke="black" points="781,-75 781,-94 899,-94 899,-75 781,-75"/>
<text text-anchor="middle" x="840" y="-82" font-family="Helvetica" font-size="10.00">CPS::Attribute&lt; Real &gt;</text>
</a>
</g>
</g>
<!-- Node7&#45;&gt;Node8 -->
<g id="edge10" class="edge">
<title>Node7&#45;&gt;Node8</title>
<path fill="none" stroke="midnightblue" d="M132.86,-103.19C253.91,-102.38 530.57,-99.49 763,-89.5 768.81,-89.25 774.87,-88.94 780.92,-88.59"/>
<polygon fill="midnightblue" stroke="midnightblue" points="132.65,-99.69 122.68,-103.26 132.7,-106.69 132.65,-99.69"/>
</g>
<!-- Node12 -->
<g id="node12" class="node">
<title>Node12</title>
<g id="a_node12"><a xlink:href="class_shared_factory.html" target="_top" xlink:title=" ">
<polygon fill="none" stroke="black" points="258,-44.5 258,-74.5 385,-74.5 385,-44.5 258,-44.5"/>
<text text-anchor="start" x="266" y="-62.5" font-family="Helvetica" font-size="10.00">SharedFactory&lt; Attribute</text>
<text text-anchor="middle" x="321.5" y="-51.5" font-family="Helvetica" font-size="10.00">&lt; T &gt; &gt;</text>
</a>
</g>
</g>
<!-- Node7&#45;&gt;Node12 -->
<g id="edge14" class="edge">
<title>Node7&#45;&gt;Node12</title>
<path fill="none" stroke="orange" stroke-dasharray="5,2" d="M109.64,-90.93C124.61,-86.45 141.98,-81.72 158,-78.5 190.58,-71.96 227.33,-67.43 257.62,-64.44"/>
<polygon fill="orange" stroke="orange" points="108.25,-87.7 99.71,-93.97 110.29,-94.39 108.25,-87.7"/>
<text text-anchor="middle" x="199" y="-81.5" font-family="Helvetica" font-size="10.00"> &lt; Attribute&lt; T &gt; &gt;</text>
</g>
<!-- Node8&#45;&gt;Node1 -->
<g id="edge7" class="edge">
<title>Node8&#45;&gt;Node1</title>
<path fill="none" stroke="#9a32cd" stroke-dasharray="5,2" d="M885.14,-96.87C905.28,-102.64 929.41,-109.72 951,-116.5 966.52,-121.38 983.75,-127.18 997.68,-131.96"/>
<polygon fill="#9a32cd" stroke="#9a32cd" points="885.88,-93.45 875.3,-94.07 883.96,-100.18 885.88,-93.45"/>
<text text-anchor="middle" x="934" y="-119.5" font-family="Helvetica" font-size="10.00"> mInput</text>
</g>
<!-- Node9 -->
<g id="node9" class="node">
<title>Node9</title>
<g id="a_node9"><a xlink:href="class_c_p_s_1_1_attribute_base.html" target="_top" xlink:title=" ">
<polygon fill="none" stroke="black" points="270,-6 270,-25 373,-25 373,-6 270,-6"/>
<text text-anchor="middle" x="321.5" y="-13" font-family="Helvetica" font-size="10.00">CPS::AttributeBase</text>
</a>
</g>
</g>
<!-- Node9&#45;&gt;Node8 -->
<g id="edge8" class="edge">
<title>Node9&#45;&gt;Node8</title>
<path fill="none" stroke="midnightblue" d="M383.57,-16.42C459.36,-18.49 592.26,-25.15 704,-46.5 741.43,-53.65 783.55,-66.26 810.63,-74.98"/>
<polygon fill="midnightblue" stroke="midnightblue" points="383.35,-12.91 373.26,-16.16 383.17,-19.91 383.35,-12.91"/>
</g>
<!-- Node11 -->
<g id="node11" class="node">
<title>Node11</title>
<g id="a_node11"><a xlink:href="class_c_p_s_1_1_attribute.html" target="_top" xlink:title=" ">
<polygon fill="none" stroke="black" points="579,-56 579,-75 683,-75 683,-56 579,-56"/>
<text text-anchor="middle" x="631" y="-63" font-family="Helvetica" font-size="10.00">CPS::Attribute&lt; T &gt;</text>
</a>
</g>
</g>
<!-- Node9&#45;&gt;Node11 -->
<g id="edge12" class="edge">
<title>Node9&#45;&gt;Node11</title>
<path fill="none" stroke="midnightblue" d="M383.27,-25.38C440.44,-34.68 525.1,-48.44 578.89,-57.19"/>
<polygon fill="midnightblue" stroke="midnightblue" points="383.71,-21.91 373.28,-23.76 382.59,-28.82 383.71,-21.91"/>
</g>
<!-- Node10 -->
<g id="node10" class="node">
<title>Node10</title>
<g id="a_node10"><a xlink:title=" ">
<polygon fill="none" stroke="#bfbfbf" points="0,-0.5 0,-30.5 140,-30.5 140,-0.5 0,-0.5"/>
<text text-anchor="start" x="8" y="-18.5" font-family="Helvetica" font-size="10.00">std::enable_shared</text>
<text text-anchor="middle" x="70" y="-7.5" font-family="Helvetica" font-size="10.00">_from_this&lt; AttributeBase &gt;</text>
</a>
</g>
</g>
<!-- Node10&#45;&gt;Node9 -->
<g id="edge9" class="edge">
<title>Node10&#45;&gt;Node9</title>
<path fill="none" stroke="midnightblue" d="M150.47,-15.5C189.58,-15.5 235.55,-15.5 269.83,-15.5"/>
<polygon fill="midnightblue" stroke="midnightblue" points="150.17,-12 140.17,-15.5 150.17,-19 150.17,-12"/>
</g>
<!-- Node11&#45;&gt;Node8 -->
<g id="edge11" class="edge">
<title>Node11&#45;&gt;Node8</title>
<path fill="none" stroke="orange" stroke-dasharray="5,2" d="M693.13,-71.11C720.82,-73.65 753.4,-76.64 780.74,-79.15"/>
<polygon fill="orange" stroke="orange" points="693.45,-67.63 683.17,-70.2 692.81,-74.6 693.45,-67.63"/>
<text text-anchor="middle" x="742.5" y="-79.5" font-family="Helvetica" font-size="10.00"> &lt; Real &gt;</text>
</g>
<!-- Node12&#45;&gt;Node11 -->
<g id="edge13" class="edge">
<title>Node12&#45;&gt;Node11</title>
<path fill="none" stroke="midnightblue" d="M395.39,-60.92C451.83,-62.02 528.58,-63.52 578.7,-64.5"/>
<polygon fill="midnightblue" stroke="midnightblue" points="395.16,-57.42 385.1,-60.72 395.03,-64.42 395.16,-57.42"/>
</g>
</g>
</svg>
