<?xml version="1.0" encoding="UTF-8" standalone="no"?>
<!DOCTYPE svg PUBLIC "-//W3C//DTD SVG 1.1//EN"
 "http://www.w3.org/Graphics/SVG/1.1/DTD/svg11.dtd">
<!-- Generated by graphviz version 2.44.0 (0)
 -->
<!-- Title: DPsim::MnaSolver&lt; VarType &gt; Pages: 1 -->
<!--zoomable 137 -->
<svg id="main" version="1.1" xmlns="http://www.w3.org/2000/svg" xmlns:xlink="http://www.w3.org/1999/xlink" xml:space="preserve" onload="init(evt)">
<style type="text/css"><![CDATA[
.edge:hover path { stroke: red; }
.edge:hover polygon { stroke: red; fill: red; }
]]></style>
<script type="text/javascript"><![CDATA[
var edges = document.getElementsByTagName('g');
if (edges && edges.length) {
  for (var i=0;i<edges.length;i++) {
    if (edges[i].id.substr(0,4)=='edge') {
      edges[i].setAttribute('class','edge');
    }
  }
}
]]></script>
        <defs>
                <circle id="rim" cx="0" cy="0" r="7"/>
                <circle id="rim2" cx="0" cy="0" r="3.5"/>
                <g id="zoomPlus">
                        <use xlink:href="#rim" fill="#404040">
                                <set attributeName="fill" to="#808080" begin="zoomplus.mouseover" end="zoomplus.mouseout"/>
                        </use>
                        <path d="M-4,0h8M0,-4v8" fill="none" stroke="white" stroke-width="1.5" pointer-events="none"/>
                </g>
                <g id="zoomMin">
                        <use xlink:href="#rim" fill="#404040">
                                <set attributeName="fill" to="#808080" begin="zoomminus.mouseover" end="zoomminus.mouseout"/>
                        </use>
                        <path d="M-4,0h8" fill="none" stroke="white" stroke-width="1.5" pointer-events="none"/>
                </g>
                <g id="dirArrow">
                        <path fill="none" stroke="white" stroke-width="1.5" d="M0,-3.0v7 M-2.5,-0.5L0,-3.0L2.5,-0.5"/>
                </g>
               <g id="resetDef">
                       <use xlink:href="#rim2" fill="#404040">
                               <set attributeName="fill" to="#808080" begin="reset.mouseover" end="reset.mouseout"/>
                       </use>
               </g>
        </defs>

<script type="text/javascript">
var viewWidth = 668;
var viewHeight = 137;
var sectionId = 'dynsection-0';
</script>
<script xlink:href="svgpan.js"/>
<svg id="graph" class="graph">
<g id="viewport">
<title>DPsim::MnaSolver&lt; VarType &gt;</title>
<!-- Node1 -->
<g id="node1" class="node">
<title>Node1</title>
<g id="a_node1"><a xlink:title="Solver class using Modified Nodal Analysis (MNA).">
<polygon fill="#bfbfbf" stroke="black" points="132,-79 132,-98 284,-98 284,-79 132,-79"/>
<text text-anchor="middle" x="208" y="-86" font-family="Helvetica" font-size="10.00">DPsim::MnaSolver&lt; VarType &gt;</text>
</a>
</g>
</g>
<!-- Node4 -->
<g id="node4" class="node">
<title>Node4</title>
<g id="a_node4"><a xlink:href="class_d_psim_1_1_mna_solver_eigen_dense.html" target="_top" xlink:title="Solver class using Modified Nodal Analysis (MNA).">
<polygon fill="none" stroke="black" points="321.5,-98.5 321.5,-128.5 473.5,-128.5 473.5,-98.5 321.5,-98.5"/>
<text text-anchor="start" x="329.5" y="-116.5" font-family="Helvetica" font-size="10.00">DPsim::MnaSolverEigenDense</text>
<text text-anchor="middle" x="397.5" y="-105.5" font-family="Helvetica" font-size="10.00">&lt; VarType &gt;</text>
</a>
</g>
</g>
<!-- Node1&#45;&gt;Node4 -->
<g id="edge3" class="edge">
<title>Node1&#45;&gt;Node4</title>
<path fill="none" stroke="midnightblue" d="M290.54,-99.37C300.73,-100.73 311.13,-102.12 321.23,-103.46"/>
<polygon fill="midnightblue" stroke="midnightblue" points="290.8,-95.88 280.42,-98.02 289.87,-102.81 290.8,-95.88"/>
</g>
<!-- Node6 -->
<g id="node6" class="node">
<title>Node6</title>
<g id="a_node6"><a xlink:href="class_d_psim_1_1_mna_solver_eigen_sparse.html" target="_top" xlink:title="Solver class using Modified Nodal Analysis (MNA).">
<polygon fill="none" stroke="black" points="320,-49.5 320,-79.5 475,-79.5 475,-49.5 320,-49.5"/>
<text text-anchor="start" x="328" y="-67.5" font-family="Helvetica" font-size="10.00">DPsim::MnaSolverEigenSparse</text>
<text text-anchor="middle" x="397.5" y="-56.5" font-family="Helvetica" font-size="10.00">&lt; VarType &gt;</text>
</a>
</g>
</g>
<!-- Node1&#45;&gt;Node6 -->
<g id="edge5" class="edge">
<title>Node1&#45;&gt;Node6</title>
<path fill="none" stroke="midnightblue" d="M293.55,-77.68C302.28,-76.56 311.12,-75.43 319.76,-74.32"/>
<polygon fill="midnightblue" stroke="midnightblue" points="292.85,-74.24 283.37,-78.98 293.74,-81.18 292.85,-74.24"/>
</g>
<!-- Node2 -->
<g id="node2" class="node">
<title>Node2</title>
<g id="a_node2"><a xlink:href="class_d_psim_1_1_solver.html" target="_top" xlink:title="Base class for more specific solvers such as MNA, ODE or IDA.">
<polygon fill="none" stroke="black" points="8,-98 8,-117 88,-117 88,-98 8,-98"/>
<text text-anchor="middle" x="48" y="-105" font-family="Helvetica" font-size="10.00">DPsim::Solver</text>
</a>
</g>
</g>
<!-- Node2&#45;&gt;Node1 -->
<g id="edge1" class="edge">
<title>Node2&#45;&gt;Node1</title>
<path fill="none" stroke="midnightblue" d="M98.01,-101.61C108.7,-100.32 120.25,-98.93 131.7,-97.56"/>
<polygon fill="midnightblue" stroke="midnightblue" points="97.57,-98.13 88.06,-102.8 98.4,-105.08 97.57,-98.13"/>
</g>
<!-- Node3 -->
<g id="node3" class="node">
<title>Node3</title>
<g id="a_node3"><a xlink:href="class_c_p_s_1_1_attribute_list.html" target="_top" xlink:title="Base class of objects having attributes to access member variables.">
<polygon fill="none" stroke="black" points="0,-60 0,-79 96,-79 96,-60 0,-60"/>
<text text-anchor="middle" x="48" y="-67" font-family="Helvetica" font-size="10.00">CPS::AttributeList</text>
</a>
</g>
</g>
<!-- Node3&#45;&gt;Node1 -->
<g id="edge2" class="edge">
<title>Node3&#45;&gt;Node1</title>
<path fill="none" stroke="midnightblue" d="M106.6,-76.43C114.81,-77.41 123.36,-78.44 131.85,-79.46"/>
<polygon fill="midnightblue" stroke="midnightblue" points="106.75,-72.92 96.41,-75.2 105.92,-79.87 106.75,-72.92"/>
</g>
<!-- Node5 -->
<g id="node5" class="node">
<title>Node5</title>
<g id="a_node5"><a xlink:href="class_d_psim_1_1_mna_solver_gpu_dense.html" target="_top" xlink:title=" ">
<polygon fill="none" stroke="black" points="513,-98.5 513,-128.5 658,-128.5 658,-98.5 513,-98.5"/>
<text text-anchor="start" x="521" y="-116.5" font-family="Helvetica" font-size="10.00">DPsim::MnaSolverGpuDense</text>
<text text-anchor="middle" x="585.5" y="-105.5" font-family="Helvetica" font-size="10.00">&lt; VarType &gt;</text>
</a>
</g>
</g>
<!-- Node4&#45;&gt;Node5 -->
<g id="edge4" class="edge">
<title>Node4&#45;&gt;Node5</title>
<path fill="none" stroke="midnightblue" d="M483.68,-113.5C493.39,-113.5 503.21,-113.5 512.72,-113.5"/>
<polygon fill="midnightblue" stroke="midnightblue" points="483.62,-110 473.62,-113.5 483.62,-117 483.62,-110"/>
</g>
<!-- Node7 -->
<g id="node7" class="node">
<title>Node7</title>
<g id="a_node7"><a xlink:href="class_d_psim_1_1_mna_solver_gpu_magma.html" target="_top" xlink:title=" ">
<polygon fill="none" stroke="black" points="511,-49.5 511,-79.5 660,-79.5 660,-49.5 511,-49.5"/>
<text text-anchor="start" x="519" y="-67.5" font-family="Helvetica" font-size="10.00">DPsim::MnaSolverGpuMagma</text>
<text text-anchor="middle" x="585.5" y="-56.5" font-family="Helvetica" font-size="10.00">&lt; VarType &gt;</text>
</a>
</g>
</g>
<!-- Node6&#45;&gt;Node7 -->
<g id="edge6" class="edge">
<title>Node6&#45;&gt;Node7</title>
<path fill="none" stroke="midnightblue" d="M485.26,-64.5C493.85,-64.5 502.51,-64.5 510.94,-64.5"/>
<polygon fill="midnightblue" stroke="midnightblue" points="485.23,-61 475.23,-64.5 485.23,-68 485.23,-61"/>
</g>
<!-- Node8 -->
<g id="node8" class="node">
<title>Node8</title>
<g id="a_node8"><a xlink:href="class_d_psim_1_1_mna_solver_gpu_sparse.html" target="_top" xlink:title=" ">
<polygon fill="none" stroke="black" points="511.5,-0.5 511.5,-30.5 659.5,-30.5 659.5,-0.5 511.5,-0.5"/>
<text text-anchor="start" x="519.5" y="-18.5" font-family="Helvetica" font-size="10.00">DPsim::MnaSolverGpuSparse</text>
<text text-anchor="middle" x="585.5" y="-7.5" font-family="Helvetica" font-size="10.00">&lt; VarType &gt;</text>
</a>
</g>
</g>
<!-- Node6&#45;&gt;Node8 -->
<g id="edge7" class="edge">
<title>Node6&#45;&gt;Node8</title>
<path fill="none" stroke="midnightblue" d="M465.4,-46.88C485.74,-41.52 507.91,-35.68 527.54,-30.51"/>
<polygon fill="midnightblue" stroke="midnightblue" points="464.35,-43.53 455.57,-49.47 466.13,-50.3 464.35,-43.53"/>
</g>
</g>
</svg>
        <g id="navigator" transform="translate(0 0)" fill="#404254">
                <rect fill="#f2f5e9" fill-opacity="0.5" stroke="#606060" stroke-width=".5" x="0" y="0" width="60" height="60"/>
                <use id="zoomplus" xlink:href="#zoomPlus" x="17" y="9" onmousedown="handleZoom(evt,'in')"/>
                <use id="zoomminus" xlink:href="#zoomMin" x="42" y="9" onmousedown="handleZoom(evt,'out')"/>
                <use id="reset" xlink:href="#resetDef" x="30" y="36" onmousedown="handleReset()"/>
                <g id="arrowUp" xlink:href="#dirArrow" transform="translate(30 24)" onmousedown="handlePan(0,-1)">
                  <use xlink:href="#rim" fill="#404040">
                        <set attributeName="fill" to="#808080" begin="arrowUp.mouseover" end="arrowUp.mouseout"/>
                  </use>
                  <path fill="none" stroke="white" stroke-width="1.5" d="M0,-3.0v7 M-2.5,-0.5L0,-3.0L2.5,-0.5"/>
                </g>
                <g id="arrowRight" xlink:href="#dirArrow" transform="rotate(90) translate(36 -43)" onmousedown="handlePan(1,0)">
                  <use xlink:href="#rim" fill="#404040">
                        <set attributeName="fill" to="#808080" begin="arrowRight.mouseover" end="arrowRight.mouseout"/>
                  </use>
                  <path fill="none" stroke="white" stroke-width="1.5" d="M0,-3.0v7 M-2.5,-0.5L0,-3.0L2.5,-0.5"/>
                </g>
                <g id="arrowDown" xlink:href="#dirArrow" transform="rotate(180) translate(-30 -48)" onmousedown="handlePan(0,1)">
                  <use xlink:href="#rim" fill="#404040">
                        <set attributeName="fill" to="#808080" begin="arrowDown.mouseover" end="arrowDown.mouseout"/>
                  </use>
                  <path fill="none" stroke="white" stroke-width="1.5" d="M0,-3.0v7 M-2.5,-0.5L0,-3.0L2.5,-0.5"/>
                </g>
                <g id="arrowLeft" xlink:href="#dirArrow" transform="rotate(270) translate(-36 17)" onmousedown="handlePan(-1,0)">
                  <use xlink:href="#rim" fill="#404040">
                        <set attributeName="fill" to="#808080" begin="arrowLeft.mouseover" end="arrowLeft.mouseout"/>
                  </use>
                  <path fill="none" stroke="white" stroke-width="1.5" d="M0,-3.0v7 M-2.5,-0.5L0,-3.0L2.5,-0.5"/>
                </g>
        </g>
        <svg viewBox="0 0 15 15" width="100%" height="30px" preserveAspectRatio="xMaxYMin meet">
         <g id="arrow_out" transform="scale(0.3 0.3)">
          <a xlink:href="class_d_psim_1_1_mna_solver__inherit__graph_org.svg" target="_base">
           <rect id="button" ry="5" rx="5" y="6" x="6" height="38" width="38"
                fill="#f2f5e9" fill-opacity="0.5" stroke="#606060" stroke-width="1.0"/>
           <path id="arrow"
             d="M 11.500037,31.436501 C 11.940474,20.09759 22.043105,11.32322 32.158766,21.979434 L 37.068811,17.246167 C 37.068811,17.246167 37.088388,32 37.088388,32 L 22.160133,31.978069 C 22.160133,31.978069 26.997745,27.140456 26.997745,27.140456 C 18.528582,18.264221 13.291696,25.230495 11.500037,31.436501 z"
             style="fill:#404040;"/>
          </a>
         </g>
        </svg>
</svg>
