<?xml version="1.0" encoding="UTF-8" standalone="no"?>
<!DOCTYPE svg PUBLIC "-//W3C//DTD SVG 1.1//EN"
 "http://www.w3.org/Graphics/SVG/1.1/DTD/svg11.dtd">
<!-- Generated by graphviz version 2.44.0 (0)
 -->
<!-- Title: CPS::DP::Ph3::Resistor Pages: 1 -->
<svg width="1647pt" height="338pt"
 viewBox="0.00 0.00 1647.00 338.00" xmlns="http://www.w3.org/2000/svg" xmlns:xlink="http://www.w3.org/1999/xlink">
<g id="graph0" class="graph" transform="scale(1 1) rotate(0) translate(4 334)">
<title>CPS::DP::Ph3::Resistor</title>
<!-- Node1 -->
<g id="node1" class="node">
<title>Node1</title>
<g id="a_node1"><a xlink:title=" ">
<polygon fill="#bfbfbf" stroke="black" points="1516,-172.5 1516,-191.5 1639,-191.5 1639,-172.5 1516,-172.5"/>
<text text-anchor="middle" x="1577.5" y="-179.5" font-family="Helvetica" font-size="10.00">CPS::DP::Ph3::Resistor</text>
</a>
</g>
</g>
<!-- Node2 -->
<g id="node2" class="node">
<title>Node2</title>
<g id="a_node2"><a xlink:href="class_c_p_s_1_1_base_1_1_ph3_1_1_resistor.html" target="_top" xlink:title=" ">
<polygon fill="none" stroke="black" points="795,-246.5 795,-265.5 926,-265.5 926,-246.5 795,-246.5"/>
<text text-anchor="middle" x="860.5" y="-253.5" font-family="Helvetica" font-size="10.00">CPS::Base::Ph3::Resistor</text>
</a>
</g>
</g>
<!-- Node2&#45;&gt;Node1 -->
<g id="edge1" class="edge">
<title>Node2&#45;&gt;Node1</title>
<path fill="none" stroke="midnightblue" d="M936.28,-253.7C985.14,-252.38 1050.36,-251 1108,-251 1108,-251 1108,-251 1412.5,-251 1473.04,-251 1537.01,-210.55 1563.67,-191.59"/>
<polygon fill="midnightblue" stroke="midnightblue" points="936.01,-250.2 926.11,-253.97 936.2,-257.2 936.01,-250.2"/>
</g>
<!-- Node3 -->
<g id="node3" class="node">
<title>Node3</title>
<g id="a_node3"><a xlink:href="class_c_p_s_1_1_attribute.html" target="_top" xlink:title=" ">
<polygon fill="none" stroke="black" points="438,-250.5 438,-269.5 563,-269.5 563,-250.5 438,-250.5"/>
<text text-anchor="middle" x="500.5" y="-257.5" font-family="Helvetica" font-size="10.00">CPS::Attribute&lt; Matrix &gt;</text>
</a>
</g>
</g>
<!-- Node3&#45;&gt;Node2 -->
<g id="edge2" class="edge">
<title>Node3&#45;&gt;Node2</title>
<path fill="none" stroke="#9a32cd" stroke-dasharray="5,2" d="M573.17,-259.2C637.91,-258.48 732.36,-257.42 794.84,-256.72"/>
<polygon fill="#9a32cd" stroke="#9a32cd" points="573,-255.7 563.04,-259.31 573.08,-262.7 573,-255.7"/>
<text text-anchor="middle" x="615.5" y="-263" font-family="Helvetica" font-size="10.00"> mResistance</text>
</g>
<!-- Node8 -->
<g id="node8" class="node">
<title>Node8</title>
<g id="a_node8"><a xlink:href="class_c_p_s_1_1_m_n_a_interface.html" target="_top" xlink:title="Interface to be implemented by all models used by the MNA solver.">
<polygon fill="none" stroke="black" points="669,-194.5 669,-213.5 773,-213.5 773,-194.5 669,-194.5"/>
<text text-anchor="middle" x="721" y="-201.5" font-family="Helvetica" font-size="10.00">CPS::MNAInterface</text>
</a>
</g>
</g>
<!-- Node3&#45;&gt;Node8 -->
<g id="edge10" class="edge">
<title>Node3&#45;&gt;Node8</title>
<path fill="none" stroke="#9a32cd" stroke-dasharray="5,2" d="M532.3,-246.4C547.61,-240.07 566.52,-232.88 584,-228 611.6,-220.29 643.06,-214.55 668.77,-210.62"/>
<polygon fill="#9a32cd" stroke="#9a32cd" points="530.67,-243.29 522.82,-250.4 533.4,-249.74 530.67,-243.29"/>
<text text-anchor="middle" x="615.5" y="-231" font-family="Helvetica" font-size="10.00"> mRightVector</text>
</g>
<!-- Node4 -->
<g id="node4" class="node">
<title>Node4</title>
<g id="a_node4"><a xlink:href="class_c_p_s_1_1_attribute_base.html" target="_top" xlink:title=" ">
<polygon fill="none" stroke="black" points="2.5,-123.5 2.5,-142.5 105.5,-142.5 105.5,-123.5 2.5,-123.5"/>
<text text-anchor="middle" x="54" y="-130.5" font-family="Helvetica" font-size="10.00">CPS::AttributeBase</text>
</a>
</g>
</g>
<!-- Node4&#45;&gt;Node3 -->
<g id="edge3" class="edge">
<title>Node4&#45;&gt;Node3</title>
<path fill="none" stroke="midnightblue" d="M66.75,-150.84C82,-172.36 110.75,-207.81 145,-225 238.83,-272.09 364.09,-272.12 437.85,-266.79"/>
<polygon fill="midnightblue" stroke="midnightblue" points="69.61,-148.82 61.06,-142.56 63.84,-152.78 69.61,-148.82"/>
</g>
<!-- Node6 -->
<g id="node6" class="node">
<title>Node6</title>
<g id="a_node6"><a xlink:href="class_c_p_s_1_1_attribute.html" target="_top" xlink:title=" ">
<polygon fill="none" stroke="black" points="162,-196.5 162,-215.5 266,-215.5 266,-196.5 162,-196.5"/>
<text text-anchor="middle" x="214" y="-203.5" font-family="Helvetica" font-size="10.00">CPS::Attribute&lt; T &gt;</text>
</a>
</g>
</g>
<!-- Node4&#45;&gt;Node6 -->
<g id="edge6" class="edge">
<title>Node4&#45;&gt;Node6</title>
<path fill="none" stroke="midnightblue" d="M76.87,-148.4C94.56,-160.29 120.49,-176.45 145,-187 153.56,-190.68 163.03,-193.85 172.11,-196.49"/>
<polygon fill="midnightblue" stroke="midnightblue" points="78.64,-145.38 68.41,-142.62 74.69,-151.16 78.64,-145.38"/>
</g>
<!-- Node13 -->
<g id="node13" class="node">
<title>Node13</title>
<g id="a_node13"><a xlink:href="class_c_p_s_1_1_attribute.html" target="_top" xlink:title=" ">
<polygon fill="none" stroke="black" points="438.5,-123.5 438.5,-142.5 562.5,-142.5 562.5,-123.5 438.5,-123.5"/>
<text text-anchor="middle" x="500.5" y="-130.5" font-family="Helvetica" font-size="10.00">CPS::Attribute&lt; String &gt;</text>
</a>
</g>
</g>
<!-- Node4&#45;&gt;Node13 -->
<g id="edge16" class="edge">
<title>Node4&#45;&gt;Node13</title>
<path fill="none" stroke="midnightblue" d="M115.92,-128.39C125.64,-127.81 135.59,-127.31 145,-127 247.89,-123.57 367.65,-127.19 438.32,-130.1"/>
<polygon fill="midnightblue" stroke="midnightblue" points="115.66,-124.9 105.9,-129.01 116.1,-131.88 115.66,-124.9"/>
</g>
<!-- Node16 -->
<g id="node16" class="node">
<title>Node16</title>
<g id="a_node16"><a xlink:href="class_c_p_s_1_1_attribute.html" target="_top" xlink:title=" ">
<polygon fill="none" stroke="black" points="435,-62 435,-92 566,-92 566,-62 435,-62"/>
<text text-anchor="start" x="443" y="-80" font-family="Helvetica" font-size="10.00">CPS::Attribute&lt; MatrixVar</text>
<text text-anchor="middle" x="500.5" y="-69" font-family="Helvetica" font-size="10.00">&lt; VarType &gt; &gt;</text>
</a>
</g>
</g>
<!-- Node4&#45;&gt;Node16 -->
<g id="edge22" class="edge">
<title>Node4&#45;&gt;Node16</title>
<path fill="none" stroke="midnightblue" d="M116,-125.26C119.38,-124.84 122.73,-124.41 126,-124 234.28,-110.32 360.23,-94.49 434.72,-85.13"/>
<polygon fill="midnightblue" stroke="midnightblue" points="115.29,-121.83 105.81,-126.55 116.17,-128.77 115.29,-121.83"/>
</g>
<!-- Node5 -->
<g id="node5" class="node">
<title>Node5</title>
<g id="a_node5"><a xlink:title=" ">
<polygon fill="none" stroke="#bfbfbf" points="160,-288.5 160,-329.5 268,-329.5 268,-288.5 160,-288.5"/>
<text text-anchor="start" x="168" y="-317.5" font-family="Helvetica" font-size="10.00">std::enable_shared</text>
<text text-anchor="start" x="168" y="-306.5" font-family="Helvetica" font-size="10.00">_from_this&lt; Attribute</text>
<text text-anchor="middle" x="214" y="-295.5" font-family="Helvetica" font-size="10.00">&lt; Matrix &gt; &gt;</text>
</a>
</g>
</g>
<!-- Node5&#45;&gt;Node3 -->
<g id="edge4" class="edge">
<title>Node5&#45;&gt;Node3</title>
<path fill="none" stroke="midnightblue" d="M278.18,-298.12C327.92,-289.55 396.56,-277.73 444.16,-269.53"/>
<polygon fill="midnightblue" stroke="midnightblue" points="277.44,-294.69 268.18,-299.84 278.63,-301.59 277.44,-294.69"/>
</g>
<!-- Node6&#45;&gt;Node3 -->
<g id="edge5" class="edge">
<title>Node6&#45;&gt;Node3</title>
<path fill="none" stroke="orange" stroke-dasharray="5,2" d="M275.97,-212.31C316.28,-217.08 370.13,-224.6 417,-235 435.56,-239.12 456,-245.3 471.9,-250.49"/>
<polygon fill="orange" stroke="orange" points="276.36,-208.83 266.02,-211.16 275.55,-215.79 276.36,-208.83"/>
<text text-anchor="middle" x="359" y="-238" font-family="Helvetica" font-size="10.00"> &lt; Matrix &gt;</text>
</g>
<!-- Node6&#45;&gt;Node13 -->
<g id="edge18" class="edge">
<title>Node6&#45;&gt;Node13</title>
<path fill="none" stroke="orange" stroke-dasharray="5,2" d="M276.09,-201.03C326.03,-196.33 392.28,-188.43 417,-178 426.34,-174.06 426.38,-169.34 435,-164 448.2,-155.82 463.89,-148.24 476.49,-142.62"/>
<polygon fill="orange" stroke="orange" points="275.65,-197.56 266.02,-201.96 276.3,-204.53 275.65,-197.56"/>
<text text-anchor="middle" x="359" y="-202" font-family="Helvetica" font-size="10.00"> &lt; String &gt;</text>
</g>
<!-- Node6&#45;&gt;Node16 -->
<g id="edge24" class="edge">
<title>Node6&#45;&gt;Node16</title>
<path fill="none" stroke="orange" stroke-dasharray="5,2" d="M272.94,-192.56C276.45,-190.91 279.84,-189.07 283,-187 293.58,-180.09 290.95,-172.66 301,-165 345.97,-130.73 406.39,-106.41 448.72,-92.14"/>
<polygon fill="orange" stroke="orange" points="271.35,-189.43 263.43,-196.46 274.01,-195.9 271.35,-189.43"/>
<text text-anchor="middle" x="359" y="-168" font-family="Helvetica" font-size="10.00"> &lt; MatrixVar&lt; VarType &gt; &gt;</text>
</g>
<!-- Node7 -->
<g id="node7" class="node">
<title>Node7</title>
<g id="a_node7"><a xlink:title=" ">
<polygon fill="none" stroke="#bfbfbf" points="0,-264.5 0,-305.5 108,-305.5 108,-264.5 0,-264.5"/>
<text text-anchor="start" x="8" y="-293.5" font-family="Helvetica" font-size="10.00">std::enable_shared</text>
<text text-anchor="start" x="8" y="-282.5" font-family="Helvetica" font-size="10.00">_from_this&lt; Attribute</text>
<text text-anchor="middle" x="54" y="-271.5" font-family="Helvetica" font-size="10.00">&lt; T &gt; &gt;</text>
</a>
</g>
</g>
<!-- Node7&#45;&gt;Node6 -->
<g id="edge7" class="edge">
<title>Node7&#45;&gt;Node6</title>
<path fill="none" stroke="midnightblue" d="M105.2,-259.9C135.26,-244.87 171.78,-226.61 193.66,-215.67"/>
<polygon fill="midnightblue" stroke="midnightblue" points="103.48,-256.85 96.1,-264.45 106.61,-263.11 103.48,-256.85"/>
</g>
<!-- Node8&#45;&gt;Node1 -->
<g id="edge8" class="edge">
<title>Node8&#45;&gt;Node1</title>
<path fill="none" stroke="midnightblue" d="M783.6,-204C843.08,-204 935.71,-204 1016,-204 1016,-204 1016,-204 1412.5,-204 1452.57,-204 1497.67,-197.47 1530.42,-191.52"/>
<polygon fill="midnightblue" stroke="midnightblue" points="783.25,-200.5 773.25,-204 783.25,-207.5 783.25,-200.5"/>
</g>
<!-- Node9 -->
<g id="node9" class="node">
<title>Node9</title>
<g id="a_node9"><a xlink:href="class_c_p_s_1_1_attribute_list.html" target="_top" xlink:title="Base class of objects having attributes to access member variables.">
<polygon fill="none" stroke="black" points="452.5,-173.5 452.5,-192.5 548.5,-192.5 548.5,-173.5 452.5,-173.5"/>
<text text-anchor="middle" x="500.5" y="-180.5" font-family="Helvetica" font-size="10.00">CPS::AttributeList</text>
</a>
</g>
</g>
<!-- Node9&#45;&gt;Node8 -->
<g id="edge9" class="edge">
<title>Node9&#45;&gt;Node8</title>
<path fill="none" stroke="midnightblue" d="M558.91,-188.52C592.99,-191.79 635.82,-195.91 668.75,-199.07"/>
<polygon fill="midnightblue" stroke="midnightblue" points="558.93,-185 548.64,-187.53 558.26,-191.97 558.93,-185"/>
</g>
<!-- Node12 -->
<g id="node12" class="node">
<title>Node12</title>
<g id="a_node12"><a xlink:href="class_c_p_s_1_1_identified_object.html" target="_top" xlink:title=" ">
<polygon fill="none" stroke="black" points="665,-153.5 665,-172.5 777,-172.5 777,-153.5 665,-153.5"/>
<text text-anchor="middle" x="721" y="-160.5" font-family="Helvetica" font-size="10.00">CPS::IdentifiedObject</text>
</a>
</g>
</g>
<!-- Node9&#45;&gt;Node12 -->
<g id="edge14" class="edge">
<title>Node9&#45;&gt;Node12</title>
<path fill="none" stroke="midnightblue" d="M558.96,-177.74C591.7,-174.74 632.5,-171.01 664.84,-168.05"/>
<polygon fill="midnightblue" stroke="midnightblue" points="558.28,-174.29 548.64,-178.68 558.92,-181.26 558.28,-174.29"/>
</g>
<!-- Node10 -->
<g id="node10" class="node">
<title>Node10</title>
<g id="a_node10"><a xlink:href="class_c_p_s_1_1_sim_power_comp.html" target="_top" xlink:title=" ">
<polygon fill="none" stroke="black" points="1351.5,-145 1351.5,-175 1471.5,-175 1471.5,-145 1351.5,-145"/>
<text text-anchor="start" x="1359.5" y="-163" font-family="Helvetica" font-size="10.00">CPS::SimPowerComp&lt;</text>
<text text-anchor="middle" x="1411.5" y="-152" font-family="Helvetica" font-size="10.00"> Complex &gt;</text>
</a>
</g>
</g>
<!-- Node10&#45;&gt;Node1 -->
<g id="edge11" class="edge">
<title>Node10&#45;&gt;Node1</title>
<path fill="none" stroke="midnightblue" d="M1481.91,-169.31C1493.15,-170.82 1504.71,-172.37 1515.72,-173.85"/>
<polygon fill="midnightblue" stroke="midnightblue" points="1482.08,-165.8 1471.71,-167.94 1481.15,-172.74 1482.08,-165.8"/>
</g>
<!-- Node11 -->
<g id="node11" class="node">
<title>Node11</title>
<g id="a_node11"><a xlink:href="class_c_p_s_1_1_topological_power_comp.html" target="_top" xlink:title=" ">
<polygon fill="none" stroke="black" points="944,-153.5 944,-172.5 1090,-172.5 1090,-153.5 944,-153.5"/>
<text text-anchor="middle" x="1017" y="-160.5" font-family="Helvetica" font-size="10.00">CPS::TopologicalPowerComp</text>
</a>
</g>
</g>
<!-- Node11&#45;&gt;Node10 -->
<g id="edge12" class="edge">
<title>Node11&#45;&gt;Node10</title>
<path fill="none" stroke="midnightblue" d="M1100.81,-162.37C1175.86,-161.79 1284.63,-160.96 1351.29,-160.45"/>
<polygon fill="midnightblue" stroke="midnightblue" points="1100.42,-158.87 1090.45,-162.45 1100.47,-165.87 1100.42,-158.87"/>
</g>
<!-- Node15 -->
<g id="node15" class="node">
<title>Node15</title>
<g id="a_node15"><a xlink:href="class_c_p_s_1_1_sim_power_comp.html" target="_top" xlink:title="Base class for all components that are transmitting power.">
<polygon fill="none" stroke="black" points="1127,-104 1127,-134 1247,-134 1247,-104 1127,-104"/>
<text text-anchor="start" x="1135" y="-122" font-family="Helvetica" font-size="10.00">CPS::SimPowerComp&lt;</text>
<text text-anchor="middle" x="1187" y="-111" font-family="Helvetica" font-size="10.00"> VarType &gt;</text>
</a>
</g>
</g>
<!-- Node11&#45;&gt;Node15 -->
<g id="edge20" class="edge">
<title>Node11&#45;&gt;Node15</title>
<path fill="none" stroke="midnightblue" d="M1064.19,-150.9C1084.06,-145.7 1107.5,-139.56 1128.48,-134.07"/>
<polygon fill="midnightblue" stroke="midnightblue" points="1063.24,-147.53 1054.45,-153.45 1065.01,-154.3 1063.24,-147.53"/>
</g>
<!-- Node12&#45;&gt;Node11 -->
<g id="edge13" class="edge">
<title>Node12&#45;&gt;Node11</title>
<path fill="none" stroke="midnightblue" d="M787.54,-163C833.95,-163 896.19,-163 943.98,-163"/>
<polygon fill="midnightblue" stroke="midnightblue" points="787.3,-159.5 777.3,-163 787.3,-166.5 787.3,-159.5"/>
</g>
<!-- Node13&#45;&gt;Node12 -->
<g id="edge15" class="edge">
<title>Node13&#45;&gt;Node12</title>
<path fill="none" stroke="#9a32cd" stroke-dasharray="5,2" d="M572.64,-136.59C596.38,-138.39 622.92,-141.06 647,-145 659.88,-147.11 673.84,-150.31 686.07,-153.44"/>
<polygon fill="#9a32cd" stroke="#9a32cd" points="572.87,-133.1 562.65,-135.87 572.37,-140.08 572.87,-133.1"/>
<text text-anchor="middle" x="615.5" y="-159" font-family="Helvetica" font-size="10.00"> mName</text>
<text text-anchor="middle" x="615.5" y="-148" font-family="Helvetica" font-size="10.00">mUID</text>
</g>
<!-- Node14 -->
<g id="node14" class="node">
<title>Node14</title>
<g id="a_node14"><a xlink:title=" ">
<polygon fill="none" stroke="#bfbfbf" points="160,-136.5 160,-177.5 268,-177.5 268,-136.5 160,-136.5"/>
<text text-anchor="start" x="168" y="-165.5" font-family="Helvetica" font-size="10.00">std::enable_shared</text>
<text text-anchor="start" x="168" y="-154.5" font-family="Helvetica" font-size="10.00">_from_this&lt; Attribute</text>
<text text-anchor="middle" x="214" y="-143.5" font-family="Helvetica" font-size="10.00">&lt; String &gt; &gt;</text>
</a>
</g>
</g>
<!-- Node14&#45;&gt;Node13 -->
<g id="edge17" class="edge">
<title>Node14&#45;&gt;Node13</title>
<path fill="none" stroke="midnightblue" d="M278.2,-149.32C285.87,-148.49 293.61,-147.69 301,-147 346.92,-142.71 398.93,-139.09 438.19,-136.6"/>
<polygon fill="midnightblue" stroke="midnightblue" points="277.73,-145.85 268.18,-150.44 278.5,-152.81 277.73,-145.85"/>
</g>
<!-- Node15&#45;&gt;Node10 -->
<g id="edge19" class="edge">
<title>Node15&#45;&gt;Node10</title>
<path fill="none" stroke="orange" stroke-dasharray="5,2" d="M1256.99,-126.88C1279.12,-129.83 1303.68,-133.57 1326,-138 1335.96,-139.98 1346.5,-142.42 1356.63,-144.96"/>
<polygon fill="orange" stroke="orange" points="1257.38,-123.4 1247.01,-125.57 1256.47,-130.34 1257.38,-123.4"/>
<text text-anchor="middle" x="1295.5" y="-141" font-family="Helvetica" font-size="10.00"> &lt; Complex &gt;</text>
</g>
<!-- Node16&#45;&gt;Node15 -->
<g id="edge21" class="edge">
<title>Node16&#45;&gt;Node15</title>
<path fill="none" stroke="#9a32cd" stroke-dasharray="5,2" d="M576.2,-81.58C713.24,-89.99 1002.15,-107.72 1126.75,-115.36"/>
<polygon fill="#9a32cd" stroke="#9a32cd" points="576.4,-78.09 566.2,-80.97 575.97,-85.08 576.4,-78.09"/>
<text text-anchor="middle" x="860.5" y="-118" font-family="Helvetica" font-size="10.00"> mIntfCurrent</text>
<text text-anchor="middle" x="860.5" y="-107" font-family="Helvetica" font-size="10.00">mIntfVoltage</text>
</g>
<!-- Node17 -->
<g id="node17" class="node">
<title>Node17</title>
<g id="a_node17"><a xlink:title=" ">
<polygon fill="none" stroke="#bfbfbf" points="145,-0.5 145,-41.5 283,-41.5 283,-0.5 145,-0.5"/>
<text text-anchor="start" x="153" y="-29.5" font-family="Helvetica" font-size="10.00">std::enable_shared</text>
<text text-anchor="start" x="153" y="-18.5" font-family="Helvetica" font-size="10.00">_from_this&lt; Attribute</text>
<text text-anchor="middle" x="214" y="-7.5" font-family="Helvetica" font-size="10.00">&lt; MatrixVar&lt; VarType &gt; &gt; &gt;</text>
</a>
</g>
</g>
<!-- Node17&#45;&gt;Node16 -->
<g id="edge23" class="edge">
<title>Node17&#45;&gt;Node16</title>
<path fill="none" stroke="midnightblue" d="M292.93,-33.05C330.55,-39.24 376.26,-47.3 417,-56 425.38,-57.79 434.2,-59.85 442.83,-61.96"/>
<polygon fill="midnightblue" stroke="midnightblue" points="293.48,-29.6 283.05,-31.44 292.35,-36.5 293.48,-29.6"/>
</g>
<!-- Node18 -->
<g id="node18" class="node">
<title>Node18</title>
<g id="a_node18"><a xlink:href="class_shared_factory.html" target="_top" xlink:title=" ">
<polygon fill="none" stroke="black" points="1344,-87.5 1344,-106.5 1479,-106.5 1479,-87.5 1344,-87.5"/>
<text text-anchor="middle" x="1411.5" y="-94.5" font-family="Helvetica" font-size="10.00">SharedFactory&lt; Resistor &gt;</text>
</a>
</g>
</g>
<!-- Node18&#45;&gt;Node1 -->
<g id="edge25" class="edge">
<title>Node18&#45;&gt;Node1</title>
<path fill="none" stroke="midnightblue" d="M1440.22,-111.37C1473.68,-128.71 1529.04,-157.4 1557.82,-172.32"/>
<polygon fill="midnightblue" stroke="midnightblue" points="1441.48,-108.08 1430.99,-106.59 1438.26,-114.29 1441.48,-108.08"/>
</g>
<!-- Node19 -->
<g id="node19" class="node">
<title>Node19</title>
<g id="a_node19"><a xlink:href="class_shared_factory.html" target="_top" xlink:title=" ">
<polygon fill="none" stroke="black" points="1134.5,-65.5 1134.5,-84.5 1239.5,-84.5 1239.5,-65.5 1134.5,-65.5"/>
<text text-anchor="middle" x="1187" y="-72.5" font-family="Helvetica" font-size="10.00">SharedFactory&lt; T &gt;</text>
</a>
</g>
</g>
<!-- Node19&#45;&gt;Node18 -->
<g id="edge26" class="edge">
<title>Node19&#45;&gt;Node18</title>
<path fill="none" stroke="orange" stroke-dasharray="5,2" d="M1249.71,-81.1C1279.01,-84 1314.07,-87.47 1343.97,-90.42"/>
<polygon fill="orange" stroke="orange" points="1249.9,-77.6 1239.61,-80.1 1249.21,-84.57 1249.9,-77.6"/>
<text text-anchor="middle" x="1295.5" y="-92" font-family="Helvetica" font-size="10.00"> &lt; Resistor &gt;</text>
</g>
</g>
</svg>
