<?xml version="1.0" encoding="UTF-8" standalone="no"?>
<!DOCTYPE svg PUBLIC "-//W3C//DTD SVG 1.1//EN"
 "http://www.w3.org/Graphics/SVG/1.1/DTD/svg11.dtd">
<!-- Generated by graphviz version 12.2.1 (20241206.2353)
 -->
<!-- Title: CPS::TopologicalNode Pages: 1 -->
<svg width="292pt" height="221pt"
 viewBox="0.00 0.00 292.38 221.25" xmlns="http://www.w3.org/2000/svg" xmlns:xlink="http://www.w3.org/1999/xlink">
<g id="graph0" class="graph" transform="scale(1 1) rotate(0) translate(4 217.25)">
<title>CPS::TopologicalNode</title>
<!-- Node1 -->
<g id="Node000001" class="node">
<title>Node1</title>
<g id="a_Node000001"><a xlink:title=" ">
<polygon fill="#999999" stroke="#666666" points="199.62,-154 83.88,-154 83.88,-131.75 199.62,-131.75 199.62,-154"/>
<text text-anchor="middle" x="141.75" y="-140.5" font-family="Helvetica,sans-Serif" font-size="10.00">CPS::TopologicalNode</text>
</a>
</g>
</g>
<!-- Node3 -->
<g id="Node000003" class="node">
<title>Node3</title>
<g id="a_Node000003"><a xlink:href="class_c_p_s_1_1_sim_node.html" target="_top" xlink:title=" ">
<polygon fill="white" stroke="#bfbfbf" points="137.5,-22.25 0,-22.25 0,0 137.5,0 137.5,-22.25"/>
<text text-anchor="middle" x="68.75" y="-8.75" font-family="Helvetica,sans-Serif" font-size="10.00">CPS::SimNode&lt; Complex &gt;</text>
</a>
</g>
</g>
<!-- Node1&#45;&gt;Node3 -->
<g id="edge2_Node000001_Node000003" class="edge">
<title>Node1&#45;&gt;Node3</title>
<g id="a_edge2_Node000001_Node000003"><a xlink:title=" ">
<path fill="none" stroke="#63b8ff" d="M100.24,-126.41C86.43,-119.05 72.58,-108.72 64.75,-94.75 51.83,-71.7 59.55,-39.1 64.91,-22.59"/>
<polygon fill="#63b8ff" stroke="#63b8ff" points="98.33,-129.37 108.85,-130.6 101.39,-123.08 98.33,-129.37"/>
</a>
</g>
</g>
<!-- Node4 -->
<g id="Node000004" class="node">
<title>Node4</title>
<g id="a_Node000004"><a xlink:href="class_c_p_s_1_1_sim_node.html" target="_top" xlink:title=" ">
<polygon fill="white" stroke="#bfbfbf" points="284.38,-22.25 167.12,-22.25 167.12,0 284.38,0 284.38,-22.25"/>
<text text-anchor="middle" x="225.75" y="-8.75" font-family="Helvetica,sans-Serif" font-size="10.00">CPS::SimNode&lt; Real &gt;</text>
</a>
</g>
</g>
<!-- Node1&#45;&gt;Node4 -->
<g id="edge3_Node000001_Node000004" class="edge">
<title>Node1&#45;&gt;Node4</title>
<g id="a_edge3_Node000001_Node000004"><a xlink:title=" ">
<path fill="none" stroke="#63b8ff" d="M181.37,-126.38C195.39,-118.92 209.87,-108.53 218.75,-94.75 233.18,-72.37 230.41,-39.18 227.76,-22.5"/>
<polygon fill="#63b8ff" stroke="#63b8ff" points="180.12,-123.1 172.68,-130.64 183.2,-129.38 180.12,-123.1"/>
</a>
</g>
</g>
<!-- Node5 -->
<g id="Node000005" class="node">
<title>Node5</title>
<g id="a_Node000005"><a xlink:href="class_c_p_s_1_1_sim_node.html" target="_top" xlink:title=" ">
<polygon fill="white" stroke="#bfbfbf" points="209.75,-94.75 73.75,-94.75 73.75,-72.5 209.75,-72.5 209.75,-94.75"/>
<text text-anchor="middle" x="141.75" y="-81.25" font-family="Helvetica,sans-Serif" font-size="10.00">CPS::SimNode&lt; VarType &gt;</text>
</a>
</g>
</g>
<!-- Node1&#45;&gt;Node5 -->
<g id="edge4_Node000001_Node000005" class="edge">
<title>Node1&#45;&gt;Node5</title>
<g id="a_edge4_Node000001_Node000005"><a xlink:title=" ">
<path fill="none" stroke="#63b8ff" d="M141.75,-120.15C141.75,-111.55 141.75,-102.06 141.75,-95.06"/>
<polygon fill="#63b8ff" stroke="#63b8ff" points="138.25,-119.86 141.75,-129.86 145.25,-119.86 138.25,-119.86"/>
</a>
</g>
</g>
<!-- Node2 -->
<g id="Node000002" class="node">
<title>Node2</title>
<g id="a_Node000002"><a xlink:href="class_c_p_s_1_1_identified_object.html" target="_top" xlink:title=" ">
<polygon fill="white" stroke="#666666" points="199.25,-213.25 84.25,-213.25 84.25,-191 199.25,-191 199.25,-213.25"/>
<text text-anchor="middle" x="141.75" y="-199.75" font-family="Helvetica,sans-Serif" font-size="10.00">CPS::IdentifiedObject</text>
</a>
</g>
</g>
<!-- Node2&#45;&gt;Node1 -->
<g id="edge1_Node000001_Node000002" class="edge">
<title>Node2&#45;&gt;Node1</title>
<g id="a_edge1_Node000001_Node000002"><a xlink:title=" ">
<path fill="none" stroke="#63b8ff" d="M141.75,-179.4C141.75,-170.8 141.75,-161.31 141.75,-154.31"/>
<polygon fill="#63b8ff" stroke="#63b8ff" points="138.25,-179.11 141.75,-189.11 145.25,-179.11 138.25,-179.11"/>
</a>
</g>
</g>
<!-- Node5&#45;&gt;Node3 -->
<g id="edge5_Node000005_Node000003" class="edge">
<title>Node5&#45;&gt;Node3</title>
<g id="a_edge5_Node000005_Node000003"><a xlink:title=" ">
<path fill="none" stroke="orange" stroke-dasharray="5,2" d="M112.44,-65.93C107.45,-62.47 102.51,-58.61 98.25,-54.5 88.45,-45.03 79.89,-31.87 74.55,-22.74"/>
<polygon fill="orange" stroke="orange" points="110.37,-68.76 120.67,-71.24 114.17,-62.88 110.37,-68.76"/>
</a>
</g>
<text text-anchor="middle" x="127.5" y="-45" font-family="Helvetica,sans-Serif" font-size="10.00" fill="grey"> &lt; Complex &gt;</text>
</g>
<!-- Node5&#45;&gt;Node4 -->
<g id="edge6_Node000005_Node000004" class="edge">
<title>Node5&#45;&gt;Node4</title>
<g id="a_edge6_Node000005_Node000004"><a xlink:title=" ">
<path fill="none" stroke="orange" stroke-dasharray="5,2" d="M159.42,-64.25C167.16,-56.54 176.51,-47.66 185.5,-40.25 193.13,-33.96 202.11,-27.59 209.65,-22.51"/>
<polygon fill="orange" stroke="orange" points="157.34,-61.38 152.81,-70.96 162.32,-66.29 157.34,-61.38"/>
</a>
</g>
<text text-anchor="middle" x="204.62" y="-45" font-family="Helvetica,sans-Serif" font-size="10.00" fill="grey"> &lt; Real &gt;</text>
</g>
</g>
</svg>
