<?xml version="1.0" encoding="UTF-8" standalone="no"?>
<!DOCTYPE svg PUBLIC "-//W3C//DTD SVG 1.1//EN"
 "http://www.w3.org/Graphics/SVG/1.1/DTD/svg11.dtd">
<!-- Generated by graphviz version 2.50.0 (0)
 -->
<!-- Title: CPS::SP::Ph3::Resistor Pages: 1 -->
<svg width="1085pt" height="203pt"
 viewBox="0.00 0.00 1085.00 202.50" xmlns="http://www.w3.org/2000/svg" xmlns:xlink="http://www.w3.org/1999/xlink">
<g id="graph0" class="graph" transform="scale(1 1) rotate(0) translate(4 198.5)">
<title>CPS::SP::Ph3::Resistor</title>
<!-- Node1 -->
<g id="node1" class="node">
<title>Node1</title>
<g id="a_node1"><a xlink:title=" ">
<polygon fill="#bfbfbf" stroke="black" points="958,-57.5 958,-76.5 1077,-76.5 1077,-57.5 958,-57.5"/>
<text text-anchor="middle" x="1017.5" y="-64.5" font-family="Helvetica,sans-Serif" font-size="10.00">CPS::SP::Ph3::Resistor</text>
</a>
</g>
</g>
<!-- Node2 -->
<g id="node2" class="node">
<title>Node2</title>
<g id="a_node2"><a xlink:href="class_c_p_s_1_1_m_n_a_sim_power_comp.html" target="_top" xlink:title=" ">
<polygon fill="none" stroke="black" points="784,-115 784,-145 921,-145 921,-115 784,-115"/>
<text text-anchor="start" x="792" y="-133" font-family="Helvetica,sans-Serif" font-size="10.00">CPS::MNASimPowerComp</text>
<text text-anchor="middle" x="852.5" y="-122" font-family="Helvetica,sans-Serif" font-size="10.00">&lt; Complex &gt;</text>
</a>
</g>
</g>
<!-- Node2&#45;&gt;Node1 -->
<g id="edge1" class="edge">
<title>Node2&#45;&gt;Node1</title>
<path fill="none" stroke="midnightblue" d="M904.13,-111.4C909.83,-109.26 915.54,-107.1 921,-105 945.65,-95.53 973.72,-84.31 993.01,-76.53"/>
<polygon fill="midnightblue" stroke="midnightblue" points="902.75,-108.18 894.61,-114.95 905.2,-114.73 902.75,-108.18"/>
</g>
<!-- Node3 -->
<g id="node3" class="node">
<title>Node3</title>
<g id="a_node3"><a xlink:href="class_c_p_s_1_1_sim_power_comp.html" target="_top" xlink:title=" ">
<polygon fill="none" stroke="black" points="561,-164 561,-194 680,-194 680,-164 561,-164"/>
<text text-anchor="start" x="569" y="-182" font-family="Helvetica,sans-Serif" font-size="10.00">CPS::SimPowerComp&lt;</text>
<text text-anchor="middle" x="620.5" y="-171" font-family="Helvetica,sans-Serif" font-size="10.00"> Complex &gt;</text>
</a>
</g>
</g>
<!-- Node3&#45;&gt;Node2 -->
<g id="edge2" class="edge">
<title>Node3&#45;&gt;Node2</title>
<path fill="none" stroke="midnightblue" d="M689.96,-164.41C719.55,-158.11 754.07,-150.76 783.59,-144.47"/>
<polygon fill="midnightblue" stroke="midnightblue" points="689.19,-161 680.13,-166.51 690.64,-167.85 689.19,-161"/>
</g>
<!-- Node4 -->
<g id="node4" class="node">
<title>Node4</title>
<g id="a_node4"><a xlink:href="class_c_p_s_1_1_topological_power_comp.html" target="_top" xlink:title=" ">
<polygon fill="none" stroke="black" points="153,-163.5 153,-182.5 301,-182.5 301,-163.5 153,-163.5"/>
<text text-anchor="middle" x="227" y="-170.5" font-family="Helvetica,sans-Serif" font-size="10.00">CPS::TopologicalPowerComp</text>
</a>
</g>
</g>
<!-- Node4&#45;&gt;Node3 -->
<g id="edge3" class="edge">
<title>Node4&#45;&gt;Node3</title>
<path fill="none" stroke="midnightblue" d="M311.3,-176.88C372.82,-179.33 458.62,-181.88 534,-181 542.61,-180.9 551.71,-180.74 560.63,-180.56"/>
<polygon fill="midnightblue" stroke="midnightblue" points="311.39,-173.38 301.26,-176.47 311.11,-180.37 311.39,-173.38"/>
</g>
<!-- Node6 -->
<g id="node6" class="node">
<title>Node6</title>
<g id="a_node6"><a xlink:href="class_c_p_s_1_1_sim_power_comp.html" target="_top" xlink:title="Base class for all components that are transmitting power.">
<polygon fill="none" stroke="black" points="338,-136 338,-166 457,-166 457,-136 338,-136"/>
<text text-anchor="start" x="346" y="-154" font-family="Helvetica,sans-Serif" font-size="10.00">CPS::SimPowerComp&lt;</text>
<text text-anchor="middle" x="397.5" y="-143" font-family="Helvetica,sans-Serif" font-size="10.00"> VarType &gt;</text>
</a>
</g>
</g>
<!-- Node4&#45;&gt;Node6 -->
<g id="edge6" class="edge">
<title>Node4&#45;&gt;Node6</title>
<path fill="none" stroke="midnightblue" d="M311.12,-162.15C320.18,-160.97 329.25,-159.78 337.92,-158.65"/>
<polygon fill="midnightblue" stroke="midnightblue" points="310.39,-158.71 300.93,-163.48 311.3,-165.65 310.39,-158.71"/>
</g>
<!-- Node5 -->
<g id="node5" class="node">
<title>Node5</title>
<g id="a_node5"><a xlink:href="class_c_p_s_1_1_identified_object.html" target="_top" xlink:title=" ">
<polygon fill="none" stroke="black" points="0,-163.5 0,-182.5 116,-182.5 116,-163.5 0,-163.5"/>
<text text-anchor="middle" x="58" y="-170.5" font-family="Helvetica,sans-Serif" font-size="10.00">CPS::IdentifiedObject</text>
</a>
</g>
</g>
<!-- Node5&#45;&gt;Node4 -->
<g id="edge4" class="edge">
<title>Node5&#45;&gt;Node4</title>
<path fill="none" stroke="midnightblue" d="M126.13,-173C134.88,-173 143.88,-173 152.72,-173"/>
<polygon fill="midnightblue" stroke="midnightblue" points="126,-169.5 116,-173 126,-176.5 126,-169.5"/>
</g>
<!-- Node6&#45;&gt;Node3 -->
<g id="edge5" class="edge">
<title>Node6&#45;&gt;Node3</title>
<path fill="none" stroke="orange" stroke-dasharray="5,2" d="M467.14,-159.7C497.22,-163.51 532.14,-167.93 560.97,-171.58"/>
<polygon fill="orange" stroke="orange" points="467.5,-156.21 457.14,-158.43 466.62,-163.16 467.5,-156.21"/>
<text text-anchor="middle" x="504.5" y="-170" font-family="Helvetica,sans-Serif" font-size="10.00"> &lt; Complex &gt;</text>
</g>
<!-- Node8 -->
<g id="node8" class="node">
<title>Node8</title>
<g id="a_node8"><a xlink:href="class_c_p_s_1_1_m_n_a_sim_power_comp.html" target="_top" xlink:title="Base class for all MNA components that are transmitting power.">
<polygon fill="none" stroke="black" points="552,-115 552,-145 689,-145 689,-115 552,-115"/>
<text text-anchor="start" x="560" y="-133" font-family="Helvetica,sans-Serif" font-size="10.00">CPS::MNASimPowerComp</text>
<text text-anchor="middle" x="620.5" y="-122" font-family="Helvetica,sans-Serif" font-size="10.00">&lt; VarType &gt;</text>
</a>
</g>
</g>
<!-- Node6&#45;&gt;Node8 -->
<g id="edge9" class="edge">
<title>Node6&#45;&gt;Node8</title>
<path fill="none" stroke="midnightblue" d="M467.28,-144.46C494.25,-141.9 525.11,-138.97 551.97,-136.42"/>
<polygon fill="midnightblue" stroke="midnightblue" points="466.77,-141 457.14,-145.43 467.43,-147.97 466.77,-141"/>
</g>
<!-- Node7 -->
<g id="node7" class="node">
<title>Node7</title>
<g id="a_node7"><a xlink:href="class_c_p_s_1_1_m_n_a_interface.html" target="_top" xlink:title="Interface to be implemented by all models used by the MNA solver.">
<polygon fill="none" stroke="black" points="344,-87.5 344,-106.5 451,-106.5 451,-87.5 344,-87.5"/>
<text text-anchor="middle" x="397.5" y="-94.5" font-family="Helvetica,sans-Serif" font-size="10.00">CPS::MNAInterface</text>
</a>
</g>
</g>
<!-- Node7&#45;&gt;Node2 -->
<g id="edge7" class="edge">
<title>Node7&#45;&gt;Node2</title>
<path fill="none" stroke="midnightblue" d="M461.35,-96.85C520.27,-97.21 610.77,-99.03 689,-106 720.25,-108.78 754.64,-113.6 783.71,-118.2"/>
<polygon fill="midnightblue" stroke="midnightblue" points="461.11,-93.35 451.09,-96.8 461.07,-100.35 461.11,-93.35"/>
</g>
<!-- Node7&#45;&gt;Node8 -->
<g id="edge10" class="edge">
<title>Node7&#45;&gt;Node8</title>
<path fill="none" stroke="midnightblue" d="M461.31,-106.38C489.55,-110.6 522.94,-115.58 551.75,-119.88"/>
<polygon fill="midnightblue" stroke="midnightblue" points="461.56,-102.88 451.15,-104.86 460.53,-109.8 461.56,-102.88"/>
</g>
<!-- Node8&#45;&gt;Node2 -->
<g id="edge8" class="edge">
<title>Node8&#45;&gt;Node2</title>
<path fill="none" stroke="orange" stroke-dasharray="5,2" d="M699.58,-130C726.93,-130 757.4,-130 783.82,-130"/>
<polygon fill="orange" stroke="orange" points="699.26,-126.5 689.26,-130 699.26,-133.5 699.26,-126.5"/>
<text text-anchor="middle" x="736.5" y="-133" font-family="Helvetica,sans-Serif" font-size="10.00"> &lt; Complex &gt;</text>
</g>
<!-- Node9 -->
<g id="node9" class="node">
<title>Node9</title>
<g id="a_node9"><a xlink:href="class_c_p_s_1_1_base_1_1_ph3_1_1_resistor.html" target="_top" xlink:title=" ">
<polygon fill="none" stroke="black" points="787.5,-76.5 787.5,-95.5 917.5,-95.5 917.5,-76.5 787.5,-76.5"/>
<text text-anchor="middle" x="852.5" y="-83.5" font-family="Helvetica,sans-Serif" font-size="10.00">CPS::Base::Ph3::Resistor</text>
</a>
</g>
</g>
<!-- Node9&#45;&gt;Node1 -->
<g id="edge11" class="edge">
<title>Node9&#45;&gt;Node1</title>
<path fill="none" stroke="midnightblue" d="M927.89,-77.33C937.94,-76.16 948.12,-74.97 957.84,-73.84"/>
<polygon fill="midnightblue" stroke="midnightblue" points="927.45,-73.86 917.92,-78.49 928.26,-80.81 927.45,-73.86"/>
</g>
<!-- Node10 -->
<g id="node10" class="node">
<title>Node10</title>
<g id="a_node10"><a xlink:href="class_c_p_s_1_1_m_n_a_tear_interface.html" target="_top" xlink:title=" ">
<polygon fill="none" stroke="black" points="789.5,-38.5 789.5,-57.5 915.5,-57.5 915.5,-38.5 789.5,-38.5"/>
<text text-anchor="middle" x="852.5" y="-45.5" font-family="Helvetica,sans-Serif" font-size="10.00">CPS::MNATearInterface</text>
</a>
</g>
</g>
<!-- Node10&#45;&gt;Node1 -->
<g id="edge12" class="edge">
<title>Node10&#45;&gt;Node1</title>
<path fill="none" stroke="midnightblue" d="M925.77,-56.42C936.48,-57.67 947.41,-58.95 957.81,-60.16"/>
<polygon fill="midnightblue" stroke="midnightblue" points="925.93,-52.92 915.59,-55.24 925.12,-59.87 925.93,-52.92"/>
</g>
<!-- Node11 -->
<g id="node11" class="node">
<title>Node11</title>
<g id="a_node11"><a xlink:href="class_shared_factory.html" target="_top" xlink:title=" ">
<polygon fill="none" stroke="black" points="784,-0.5 784,-19.5 921,-19.5 921,-0.5 784,-0.5"/>
<text text-anchor="middle" x="852.5" y="-7.5" font-family="Helvetica,sans-Serif" font-size="10.00">SharedFactory&lt; Resistor &gt;</text>
</a>
</g>
</g>
<!-- Node11&#45;&gt;Node1 -->
<g id="edge13" class="edge">
<title>Node11&#45;&gt;Node1</title>
<path fill="none" stroke="midnightblue" d="M899.77,-22.33C906.91,-24.44 914.18,-26.69 921,-29 946.52,-37.64 975.16,-49.31 994.36,-57.43"/>
<polygon fill="midnightblue" stroke="midnightblue" points="900.72,-18.97 890.15,-19.57 898.79,-25.69 900.72,-18.97"/>
</g>
<!-- Node12 -->
<g id="node12" class="node">
<title>Node12</title>
<g id="a_node12"><a xlink:href="class_shared_factory.html" target="_top" xlink:title=" ">
<polygon fill="none" stroke="black" points="568,-0.5 568,-19.5 673,-19.5 673,-0.5 568,-0.5"/>
<text text-anchor="middle" x="620.5" y="-7.5" font-family="Helvetica,sans-Serif" font-size="10.00">SharedFactory&lt; T &gt;</text>
</a>
</g>
</g>
<!-- Node12&#45;&gt;Node11 -->
<g id="edge14" class="edge">
<title>Node12&#45;&gt;Node11</title>
<path fill="none" stroke="orange" stroke-dasharray="5,2" d="M683.37,-10C714.42,-10 752.09,-10 783.9,-10"/>
<polygon fill="orange" stroke="orange" points="683.12,-6.5 673.12,-10 683.12,-13.5 683.12,-6.5"/>
<text text-anchor="middle" x="736.5" y="-13" font-family="Helvetica,sans-Serif" font-size="10.00"> &lt; Resistor &gt;</text>
</g>
</g>
</svg>
