<?xml version="1.0" encoding="UTF-8" standalone="no"?>
<!DOCTYPE svg PUBLIC "-//W3C//DTD SVG 1.1//EN"
 "http://www.w3.org/Graphics/SVG/1.1/DTD/svg11.dtd">
<!-- Generated by graphviz version 12.2.1 (20241206.2353)
 -->
<!-- Title: CPS::EMT::Ph3::PiLine Pages: 1 -->
<!--zoomable 216 -->

<svg id="main" version="1.1" xmlns="http://www.w3.org/2000/svg" xmlns:xlink="http://www.w3.org/1999/xlink" xml:space="preserve" onload="init(evt)">

<style type="text/css"><![CDATA[
.node, .edge {opacity: 0.7;}
.node.selected, .edge.selected {opacity: 1;}
.edge:hover path { stroke: red; }
.edge:hover polygon { stroke: red; fill: red; }
]]></style>

<defs>
  <circle id="rim" cx="0" cy="0" r="7"/>
  <circle id="rim2" cx="0" cy="0" r="3.5"/>
  <g id="zoomPlus">
    <use xlink:href="#rim" fill="#404040"><set attributeName="fill" to="#808080" begin="zoomplus.mouseover" end="zoomplus.mouseout"/></use>
    <path d="M-4,0h8M0,-4v8" fill="none" stroke="white" stroke-width="1.5" pointer-events="none"/>
  </g>
  <g id="zoomMin">
    <use xlink:href="#rim" fill="#404040"><set attributeName="fill" to="#808080" begin="zoomminus.mouseover" end="zoomminus.mouseout"/></use>
    <path d="M-4,0h8" fill="none" stroke="white" stroke-width="1.5" pointer-events="none"/>
  </g>
  <g id="arrowUp" transform="translate(30 24)">
    <use xlink:href="#rim"/>
    <path pointer-events="none" fill="none" stroke="white" stroke-width="1.5" d="M0,-3.0v7 M-2.5,-0.5L0,-3.0L2.5,-0.5"/>
  </g>
  <g id="arrowRight" transform="rotate(90) translate(36 -43)">
    <use xlink:href="#rim"/>
    <path pointer-events="none" fill="none" stroke="white" stroke-width="1.5" d="M0,-3.0v7 M-2.5,-0.5L0,-3.0L2.5,-0.5"/>
  </g>
  <g id="arrowDown" transform="rotate(180) translate(-30 -48)">
    <use xlink:href="#rim"/>
    <path pointer-events="none" fill="none" stroke="white" stroke-width="1.5" d="M0,-3.0v7 M-2.5,-0.5L0,-3.0L2.5,-0.5"/>
  </g>
  <g id="arrowLeft" transform="rotate(270) translate(-36 17)">
    <use xlink:href="#rim"/>
    <path pointer-events="none" fill="none" stroke="white" stroke-width="1.5" d="M0,-3.0v7 M-2.5,-0.5L0,-3.0L2.5,-0.5"/>
  </g>
  <g id="resetDef">
    <use xlink:href="#rim2" fill="#404040"><set attributeName="fill" to="#808080" begin="reset.mouseover" end="reset.mouseout"/></use>
  </g>
</defs>
<script type="application/ecmascript">
var viewWidth = 1275;
var viewHeight = 216;
var sectionId = 'dynsection-0';
</script>
<script type="application/ecmascript" xlink:href="svg.min.js"/>
<svg id="graph" class="graph">
<g id="viewport">
<title>CPS::EMT::Ph3::PiLine</title>
<!-- Node1 -->
<g id="Node000001" class="node">
<title>Node1</title>
<g id="a_Node000001"><a xlink:title="PI&#45;line dynamic phasor model.">
<polygon fill="#999999" stroke="#666666" points="1267,-62.25 1150.5,-62.25 1150.5,-40 1267,-40 1267,-62.25"/>
<text text-anchor="middle" x="1208.75" y="-48.75" font-family="Helvetica,sans-Serif" font-size="10.00">CPS::EMT::Ph3::PiLine</text>
</a>
</g>
</g>
<!-- Node2 -->
<g id="Node000002" class="node">
<title>Node2</title>
<g id="a_Node000002"><a xlink:href="class_c_p_s_1_1_composite_power_comp.html" target="_top" xlink:title=" ">
<polygon fill="white" stroke="#666666" points="1113.5,-116.38 967.75,-116.38 967.75,-79.88 1113.5,-79.88 1113.5,-116.38"/>
<text text-anchor="start" x="975.75" y="-102.88" font-family="Helvetica,sans-Serif" font-size="10.00">CPS::CompositePowerComp</text>
<text text-anchor="middle" x="1040.62" y="-88.62" font-family="Helvetica,sans-Serif" font-size="10.00">&lt; Real &gt;</text>
</a>
</g>
</g>
<!-- Node2&#45;&gt;Node1 -->
<g id="edge1_Node000001_Node000002" class="edge">
<title>Node2&#45;&gt;Node1</title>
<g id="a_edge1_Node000001_Node000002"><a xlink:title=" ">
<path fill="none" stroke="#63b8ff" d="M1118.59,-76.35C1135.19,-71.65 1152.12,-66.86 1166.7,-62.74"/>
<polygon fill="#63b8ff" stroke="#63b8ff" points="1117.89,-72.91 1109.22,-79 1119.79,-79.65 1117.89,-72.91"/>
</a>
</g>
</g>
<!-- Node3 -->
<g id="Node000003" class="node">
<title>Node3</title>
<g id="a_Node000003"><a xlink:href="class_c_p_s_1_1_m_n_a_sim_power_comp.html" target="_top" xlink:title=" ">
<polygon fill="white" stroke="#666666" points="880.38,-155.38 744.38,-155.38 744.38,-118.88 880.38,-118.88 880.38,-155.38"/>
<text text-anchor="start" x="752.38" y="-141.88" font-family="Helvetica,sans-Serif" font-size="10.00">CPS::MNASimPowerComp</text>
<text text-anchor="middle" x="812.38" y="-127.62" font-family="Helvetica,sans-Serif" font-size="10.00">&lt; Real &gt;</text>
</a>
</g>
</g>
<!-- Node3&#45;&gt;Node2 -->
<g id="edge2_Node000002_Node000003" class="edge">
<title>Node3&#45;&gt;Node2</title>
<g id="a_edge2_Node000002_Node000003"><a xlink:title=" ">
<path fill="none" stroke="#63b8ff" d="M891.75,-123.61C916.34,-119.38 943.36,-114.72 967.49,-110.56"/>
<polygon fill="#63b8ff" stroke="#63b8ff" points="891.4,-120.12 882.14,-125.27 892.59,-127.02 891.4,-120.12"/>
</a>
</g>
</g>
<!-- Node4 -->
<g id="Node000004" class="node">
<title>Node4</title>
<g id="a_Node000004"><a xlink:href="class_c_p_s_1_1_sim_power_comp.html" target="_top" xlink:title=" ">
<polygon fill="white" stroke="#666666" points="656.62,-208.38 537.88,-208.38 537.88,-171.88 656.62,-171.88 656.62,-208.38"/>
<text text-anchor="start" x="545.88" y="-194.88" font-family="Helvetica,sans-Serif" font-size="10.00">CPS::SimPowerComp&lt;</text>
<text text-anchor="middle" x="597.25" y="-180.62" font-family="Helvetica,sans-Serif" font-size="10.00"> Real &gt;</text>
</a>
</g>
</g>
<!-- Node4&#45;&gt;Node3 -->
<g id="edge3_Node000003_Node000004" class="edge">
<title>Node4&#45;&gt;Node3</title>
<g id="a_edge3_Node000003_Node000004"><a xlink:title=" ">
<path fill="none" stroke="#63b8ff" d="M668.05,-172.77C692.5,-166.69 719.88,-159.88 744.11,-153.85"/>
<polygon fill="#63b8ff" stroke="#63b8ff" points="667.38,-169.33 658.52,-175.14 669.07,-176.12 667.38,-169.33"/>
</a>
</g>
</g>
<!-- Node5 -->
<g id="Node000005" class="node">
<title>Node5</title>
<g id="a_Node000005"><a xlink:href="class_c_p_s_1_1_topological_power_comp.html" target="_top" xlink:title=" ">
<polygon fill="white" stroke="#666666" points="299.25,-176.25 152,-176.25 152,-154 299.25,-154 299.25,-176.25"/>
<text text-anchor="middle" x="225.62" y="-162.75" font-family="Helvetica,sans-Serif" font-size="10.00">CPS::TopologicalPowerComp</text>
</a>
</g>
</g>
<!-- Node5&#45;&gt;Node4 -->
<g id="edge4_Node000004_Node000005" class="edge">
<title>Node5&#45;&gt;Node4</title>
<g id="a_edge4_Node000004_Node000005"><a xlink:title=" ">
<path fill="none" stroke="#63b8ff" d="M276.23,-179.63C294.88,-184.47 316.38,-189.35 336.25,-192.12 413.31,-202.91 433.51,-200.32 511.25,-197.12 519.83,-196.77 528.89,-196.22 537.76,-195.58"/>
<polygon fill="#63b8ff" stroke="#63b8ff" points="277.34,-176.3 266.78,-177.1 275.53,-183.06 277.34,-176.3"/>
</a>
</g>
</g>
<!-- Node7 -->
<g id="Node000007" class="node">
<title>Node7</title>
<g id="a_Node000007"><a xlink:href="class_c_p_s_1_1_sim_power_comp.html" target="_top" xlink:title="Base class for all components that are transmitting power.">
<polygon fill="white" stroke="#666666" points="455,-183.38 336.25,-183.38 336.25,-146.88 455,-146.88 455,-183.38"/>
<text text-anchor="start" x="344.25" y="-169.88" font-family="Helvetica,sans-Serif" font-size="10.00">CPS::SimPowerComp&lt;</text>
<text text-anchor="middle" x="395.62" y="-155.62" font-family="Helvetica,sans-Serif" font-size="10.00"> VarType &gt;</text>
</a>
</g>
</g>
<!-- Node5&#45;&gt;Node7 -->
<g id="edge7_Node000007_Node000005" class="edge">
<title>Node5&#45;&gt;Node7</title>
<g id="a_edge7_Node000007_Node000005"><a xlink:title=" ">
<path fill="none" stroke="#63b8ff" d="M310.58,-165.12C319.16,-165.12 327.74,-165.12 335.96,-165.12"/>
<polygon fill="#63b8ff" stroke="#63b8ff" points="310.85,-161.63 300.85,-165.13 310.85,-168.63 310.85,-161.63"/>
</a>
</g>
</g>
<!-- Node10 -->
<g id="Node000010" class="node">
<title>Node10</title>
<g id="a_Node000010"><a xlink:href="class_c_p_s_1_1_sim_power_comp.html" target="_top" xlink:title="Base class for all components that are transmitting power.">
<polygon fill="white" stroke="#666666" points="455,-89.38 336.25,-89.38 336.25,-52.88 455,-52.88 455,-89.38"/>
<text text-anchor="start" x="344.25" y="-75.88" font-family="Helvetica,sans-Serif" font-size="10.00">CPS::SimPowerComp&lt;</text>
<text text-anchor="middle" x="395.62" y="-61.62" font-family="Helvetica,sans-Serif" font-size="10.00"> VarType &gt;</text>
</a>
</g>
</g>
<!-- Node5&#45;&gt;Node10 -->
<g id="edge11_Node000010_Node000005" class="edge">
<title>Node5&#45;&gt;Node10</title>
<g id="a_edge11_Node000010_Node000005"><a xlink:title=" ">
<path fill="none" stroke="#63b8ff" d="M253.7,-147.37C275.58,-133.31 307.38,-113.56 336.25,-98.12 341.47,-95.34 347.03,-92.54 352.57,-89.87"/>
<polygon fill="#63b8ff" stroke="#63b8ff" points="251.87,-144.38 245.38,-152.75 255.67,-150.26 251.87,-144.38"/>
</a>
</g>
</g>
<!-- Node6 -->
<g id="Node000006" class="node">
<title>Node6</title>
<g id="a_Node000006"><a xlink:href="class_c_p_s_1_1_identified_object.html" target="_top" xlink:title=" ">
<polygon fill="white" stroke="#666666" points="115,-176.25 0,-176.25 0,-154 115,-154 115,-176.25"/>
<text text-anchor="middle" x="57.5" y="-162.75" font-family="Helvetica,sans-Serif" font-size="10.00">CPS::IdentifiedObject</text>
</a>
</g>
</g>
<!-- Node6&#45;&gt;Node5 -->
<g id="edge5_Node000005_Node000006" class="edge">
<title>Node6&#45;&gt;Node5</title>
<g id="a_edge5_Node000005_Node000006"><a xlink:title=" ">
<path fill="none" stroke="#63b8ff" d="M126.7,-165.12C134.95,-165.12 143.41,-165.12 151.73,-165.12"/>
<polygon fill="#63b8ff" stroke="#63b8ff" points="126.72,-161.63 116.72,-165.13 126.72,-168.63 126.72,-161.63"/>
</a>
</g>
</g>
<!-- Node7&#45;&gt;Node4 -->
<g id="edge6_Node000004_Node000007" class="edge">
<title>Node7&#45;&gt;Node4</title>
<g id="a_edge6_Node000004_Node000007"><a xlink:title=" ">
<path fill="none" stroke="orange" stroke-dasharray="5,2" d="M466.6,-173.89C489.76,-176.79 515.28,-179.98 537.51,-182.77"/>
<polygon fill="orange" stroke="orange" points="467.3,-170.45 456.94,-172.68 466.43,-177.39 467.3,-170.45"/>
</a>
</g>
<text text-anchor="middle" x="492.12" y="-183.87" font-family="Helvetica,sans-Serif" font-size="10.00" fill="grey"> &lt; Real &gt;</text>
</g>
<!-- Node8 -->
<g id="Node000008" class="node">
<title>Node8</title>
<g id="a_Node000008"><a xlink:href="class_c_p_s_1_1_m_n_a_interface.html" target="_top" xlink:title="Interface to be implemented by all models used by the MNA solver.">
<polygon fill="white" stroke="#666666" points="448.62,-129.25 342.62,-129.25 342.62,-107 448.62,-107 448.62,-129.25"/>
<text text-anchor="middle" x="395.62" y="-115.75" font-family="Helvetica,sans-Serif" font-size="10.00">CPS::MNAInterface</text>
</a>
</g>
</g>
<!-- Node8&#45;&gt;Node3 -->
<g id="edge8_Node000003_Node000008" class="edge">
<title>Node8&#45;&gt;Node3</title>
<g id="a_edge8_Node000003_Node000008"><a xlink:title=" ">
<path fill="none" stroke="#63b8ff" d="M460.38,-121.62C482.22,-122.79 506.8,-124.06 529.25,-125.12 602.7,-128.63 686.94,-132.14 744.1,-134.46"/>
<polygon fill="#63b8ff" stroke="#63b8ff" points="460.59,-118.13 450.41,-121.09 460.21,-125.12 460.59,-118.13"/>
</a>
</g>
</g>
<!-- Node9 -->
<g id="Node000009" class="node">
<title>Node9</title>
<g id="a_Node000009"><a xlink:href="class_c_p_s_1_1_m_n_a_sim_power_comp.html" target="_top" xlink:title="Base class for all MNA components that are transmitting power.">
<polygon fill="white" stroke="#666666" points="665.25,-116.38 529.25,-116.38 529.25,-79.88 665.25,-79.88 665.25,-116.38"/>
<text text-anchor="start" x="537.25" y="-102.88" font-family="Helvetica,sans-Serif" font-size="10.00">CPS::MNASimPowerComp</text>
<text text-anchor="middle" x="597.25" y="-88.62" font-family="Helvetica,sans-Serif" font-size="10.00">&lt; VarType &gt;</text>
</a>
</g>
</g>
<!-- Node8&#45;&gt;Node9 -->
<g id="edge12_Node000009_Node000008" class="edge">
<title>Node8&#45;&gt;Node9</title>
<g id="a_edge12_Node000009_Node000008"><a xlink:title=" ">
<path fill="none" stroke="#63b8ff" d="M460.28,-111.75C482.23,-109.55 506.88,-107.08 529.1,-104.85"/>
<polygon fill="#63b8ff" stroke="#63b8ff" points="460.18,-108.24 450.58,-112.72 460.88,-115.2 460.18,-108.24"/>
</a>
</g>
</g>
<!-- Node12 -->
<g id="Node000012" class="node">
<title>Node12</title>
<g id="a_Node000012"><a xlink:href="class_c_p_s_1_1_m_n_a_sim_power_comp.html" target="_top" xlink:title="Base class for all MNA components that are transmitting power.">
<polygon fill="white" stroke="#666666" points="665.25,-61.38 529.25,-61.38 529.25,-24.88 665.25,-24.88 665.25,-61.38"/>
<text text-anchor="start" x="537.25" y="-47.88" font-family="Helvetica,sans-Serif" font-size="10.00">CPS::MNASimPowerComp</text>
<text text-anchor="middle" x="597.25" y="-33.62" font-family="Helvetica,sans-Serif" font-size="10.00">&lt; VarType &gt;</text>
</a>
</g>
</g>
<!-- Node8&#45;&gt;Node12 -->
<g id="edge16_Node000012_Node000008" class="edge">
<title>Node8&#45;&gt;Node12</title>
<g id="a_edge16_Node000012_Node000008"><a xlink:title=" ">
<path fill="none" stroke="#63b8ff" d="M442.08,-102.76C446.46,-101.21 450.82,-99.65 455,-98.12 486.76,-86.51 522.22,-72.7 549.67,-61.82"/>
<polygon fill="#63b8ff" stroke="#63b8ff" points="441,-99.42 432.71,-106.02 443.3,-106.04 441,-99.42"/>
</a>
</g>
</g>
<!-- Node9&#45;&gt;Node3 -->
<g id="edge9_Node000003_Node000009" class="edge">
<title>Node9&#45;&gt;Node3</title>
<g id="a_edge9_Node000003_Node000009"><a xlink:title=" ">
<path fill="none" stroke="orange" stroke-dasharray="5,2" d="M676.84,-108.37C691.71,-110.62 707.11,-113.14 721.5,-115.88 728.9,-117.28 736.62,-118.89 744.28,-120.57"/>
<polygon fill="orange" stroke="orange" points="677.5,-104.93 667.09,-106.94 676.48,-111.86 677.5,-104.93"/>
</a>
</g>
<text text-anchor="middle" x="702.38" y="-120.62" font-family="Helvetica,sans-Serif" font-size="10.00" fill="grey"> &lt; Real &gt;</text>
</g>
<!-- Node10&#45;&gt;Node9 -->
<g id="edge10_Node000009_Node000010" class="edge">
<title>Node10&#45;&gt;Node9</title>
<g id="a_edge10_Node000009_Node000010"><a xlink:title=" ">
<path fill="none" stroke="#63b8ff" d="M466.79,-80.62C487.03,-83.35 509.05,-86.33 529.09,-89.04"/>
<polygon fill="#63b8ff" stroke="#63b8ff" points="467.32,-77.15 456.94,-79.28 466.38,-84.09 467.32,-77.15"/>
</a>
</g>
</g>
<!-- Node10&#45;&gt;Node12 -->
<g id="edge15_Node000012_Node000010" class="edge">
<title>Node10&#45;&gt;Node12</title>
<g id="a_edge15_Node000012_Node000010"><a xlink:title=" ">
<path fill="none" stroke="#63b8ff" d="M466.47,-58.12C468.67,-57.78 470.85,-57.44 473,-57.12 491.11,-54.44 510.78,-51.99 528.98,-49.93"/>
<polygon fill="#63b8ff" stroke="#63b8ff" points="466.15,-54.63 456.84,-59.7 467.28,-61.54 466.15,-54.63"/>
</a>
</g>
</g>
<!-- Node11 -->
<g id="Node000011" class="node">
<title>Node11</title>
<g id="a_Node000011"><a xlink:href="class_c_p_s_1_1_composite_power_comp.html" target="_top" xlink:title="Base class for composite power components.">
<polygon fill="white" stroke="#666666" points="885.25,-88.38 739.5,-88.38 739.5,-51.88 885.25,-51.88 885.25,-88.38"/>
<text text-anchor="start" x="747.5" y="-74.88" font-family="Helvetica,sans-Serif" font-size="10.00">CPS::CompositePowerComp</text>
<text text-anchor="middle" x="812.38" y="-60.62" font-family="Helvetica,sans-Serif" font-size="10.00">&lt; VarType &gt;</text>
</a>
</g>
</g>
<!-- Node11&#45;&gt;Node2 -->
<g id="edge13_Node000002_Node000011" class="edge">
<title>Node11&#45;&gt;Node2</title>
<g id="a_edge13_Node000002_Node000011"><a xlink:title=" ">
<path fill="none" stroke="orange" stroke-dasharray="5,2" d="M896.9,-80.35C914.37,-82.5 932.66,-84.76 949.75,-86.88 955.52,-87.59 961.51,-88.33 967.52,-89.08"/>
<polygon fill="orange" stroke="orange" points="897.42,-76.89 887.07,-79.15 896.57,-83.84 897.42,-76.89"/>
</a>
</g>
<text text-anchor="middle" x="926.5" y="-91.62" font-family="Helvetica,sans-Serif" font-size="10.00" fill="grey"> &lt; Real &gt;</text>
</g>
<!-- Node12&#45;&gt;Node11 -->
<g id="edge14_Node000011_Node000012" class="edge">
<title>Node12&#45;&gt;Node11</title>
<g id="a_edge14_Node000011_Node000012"><a xlink:title=" ">
<path fill="none" stroke="#63b8ff" d="M676.85,-53.08C697.27,-55.67 719.16,-58.44 739.22,-60.98"/>
<polygon fill="#63b8ff" stroke="#63b8ff" points="677.55,-49.64 667.19,-51.86 676.67,-56.59 677.55,-49.64"/>
</a>
</g>
</g>
<!-- Node13 -->
<g id="Node000013" class="node">
<title>Node13</title>
<g id="a_Node000013"><a xlink:href="class_c_p_s_1_1_base_1_1_ph3_1_1_pi_line.html" target="_top" xlink:title=" ">
<polygon fill="white" stroke="#bfbfbf" points="1100.38,-62.25 980.88,-62.25 980.88,-40 1100.38,-40 1100.38,-62.25"/>
<text text-anchor="middle" x="1040.62" y="-48.75" font-family="Helvetica,sans-Serif" font-size="10.00">CPS::Base::Ph3::PiLine</text>
</a>
</g>
</g>
<!-- Node13&#45;&gt;Node1 -->
<g id="edge17_Node000001_Node000013" class="edge">
<title>Node13&#45;&gt;Node1</title>
<g id="a_edge17_Node000001_Node000013"><a xlink:title=" ">
<path fill="none" stroke="#63b8ff" d="M1112.12,-51.12C1124.76,-51.12 1137.79,-51.12 1150.02,-51.12"/>
<polygon fill="#63b8ff" stroke="#63b8ff" points="1112.18,-47.63 1102.18,-51.13 1112.18,-54.63 1112.18,-47.63"/>
</a>
</g>
</g>
<!-- Node14 -->
<g id="Node000014" class="node">
<title>Node14</title>
<g id="a_Node000014"><a xlink:href="class_shared_factory.html" target="_top" xlink:title=" ">
<polygon fill="white" stroke="#666666" points="1104.12,-22.25 977.12,-22.25 977.12,0 1104.12,0 1104.12,-22.25"/>
<text text-anchor="middle" x="1040.62" y="-8.75" font-family="Helvetica,sans-Serif" font-size="10.00">SharedFactory&lt; PiLine &gt;</text>
</a>
</g>
</g>
<!-- Node14&#45;&gt;Node1 -->
<g id="edge18_Node000001_Node000014" class="edge">
<title>Node14&#45;&gt;Node1</title>
<g id="a_edge18_Node000001_Node000014"><a xlink:title=" ">
<path fill="none" stroke="#63b8ff" d="M1100.76,-25.36C1120.02,-30 1141.16,-35.09 1159.52,-39.51"/>
<polygon fill="#63b8ff" stroke="#63b8ff" points="1101.69,-21.99 1091.15,-23.05 1100.05,-28.79 1101.69,-21.99"/>
</a>
</g>
</g>
<!-- Node15 -->
<g id="Node000015" class="node">
<title>Node15</title>
<g id="a_Node000015"><a xlink:href="class_shared_factory.html" target="_top" xlink:title=" ">
<polygon fill="white" stroke="#666666" points="864.62,-22.25 760.12,-22.25 760.12,0 864.62,0 864.62,-22.25"/>
<text text-anchor="middle" x="812.38" y="-8.75" font-family="Helvetica,sans-Serif" font-size="10.00">SharedFactory&lt; T &gt;</text>
</a>
</g>
</g>
<!-- Node15&#45;&gt;Node14 -->
<g id="edge19_Node000014_Node000015" class="edge">
<title>Node15&#45;&gt;Node14</title>
<g id="a_edge19_Node000014_Node000015"><a xlink:title=" ">
<path fill="none" stroke="orange" stroke-dasharray="5,2" d="M876.25,-11.12C907.66,-11.12 945.56,-11.12 976.94,-11.12"/>
<polygon fill="orange" stroke="orange" points="876.51,-7.63 866.51,-11.13 876.51,-14.63 876.51,-7.63"/>
</a>
</g>
<text text-anchor="middle" x="926.5" y="-15.88" font-family="Helvetica,sans-Serif" font-size="10.00" fill="grey"> &lt; PiLine &gt;</text>
</g>
</g>
</svg>

<g id="navigator" transform="translate(0 0)" fill="#404254">
  <rect fill="#f2f5e9" fill-opacity="0.5" stroke="#606060" stroke-width=".5" x="0" y="0" width="60" height="60"/>
  <use id="zoomplus" xlink:href="#zoomPlus" x="17" y="9" onmousedown="handleZoom(evt,'in')"/>
  <use id="zoomminus" xlink:href="#zoomMin" x="42" y="9" onmousedown="handleZoom(evt,'out')"/>
  <use id="reset" xlink:href="#resetDef" x="30" y="36" onmousedown="handleReset()"/>
   <use id="arrowup" xlink:href="#arrowUp" x="0" y="0" onmousedown="handlePan(0,-1)"/>
  <use id="arrowright" xlink:href="#arrowRight" x="0" y="0" onmousedown="handlePan(1,0)"/>
  <use id="arrowdown" xlink:href="#arrowDown" x="0" y="0" onmousedown="handlePan(0,1)"/>
  <use id="arrowleft" xlink:href="#arrowLeft" x="0" y="0" onmousedown="handlePan(-1,0)"/>
</g>
<svg viewBox="0 0 15 15" width="100%" height="30px" preserveAspectRatio="xMaxYMin meet">
 <g id="arrow_out" transform="scale(0.3 0.3)">
  <a xlink:href="class_c_p_s_1_1_e_m_t_1_1_ph3_1_1_pi_line__inherit__graph_org.svg" target="_base">
   <rect id="button" ry="5" rx="5" y="6" x="6" height="38" width="38"
        fill="#f2f5e9" fill-opacity="0.5" stroke="#606060" stroke-width="1.0"/>
   <path id="arrow"
     d="M 11.500037,31.436501 C 11.940474,20.09759 22.043105,11.32322 32.158766,21.979434 L 37.068811,17.246167 C 37.068811,17.246167 37.088388,32 37.088388,32 L 22.160133,31.978069 C 22.160133,31.978069 26.997745,27.140456 26.997745,27.140456 C 18.528582,18.264221 13.291696,25.230495 11.500037,31.436501 z"
     style="fill:#404040;"/>
  </a>
 </g>
</svg>

<style type='text/css'>
<![CDATA[
[data-mouse-over-selected='false'] { opacity: 0.7; }
[data-mouse-over-selected='true']  { opacity: 1.0; }
]]>
</style>
<script type="application/ecmascript"><![CDATA[
document.addEventListener('DOMContentLoaded', (event) => {
  highlightEdges();
  highlightAdjacentNodes();
});
]]></script>
</svg>
