<?xml version="1.0" encoding="UTF-8" standalone="no"?>
<!DOCTYPE svg PUBLIC "-//W3C//DTD SVG 1.1//EN"
 "http://www.w3.org/Graphics/SVG/1.1/DTD/svg11.dtd">
<!-- Generated by graphviz version 12.2.1 (20241206.2353)
 -->
<!-- Title: CPS::AttributeDynamic&lt; T &gt; Pages: 1 -->
<svg width="566pt" height="143pt"
 viewBox="0.00 0.00 566.25 143.38" xmlns="http://www.w3.org/2000/svg" xmlns:xlink="http://www.w3.org/1999/xlink">
<g id="graph0" class="graph" transform="scale(1 1) rotate(0) translate(4 139.38)">
<title>CPS::AttributeDynamic&lt; T &gt;</title>
<!-- Node1 -->
<g id="Node000001" class="node">
<title>Node1</title>
<g id="a_Node000001"><a xlink:title=" ">
<polygon fill="#999999" stroke="#666666" points="558.25,-52.38 414.75,-52.38 414.75,-30.12 558.25,-30.12 558.25,-52.38"/>
<text text-anchor="middle" x="486.5" y="-38.88" font-family="Helvetica,sans-Serif" font-size="10.00">CPS::AttributeDynamic&lt; T &gt;</text>
</a>
</g>
</g>
<!-- Node2 -->
<g id="Node000002" class="node">
<title>Node2</title>
<g id="a_Node000002"><a xlink:href="class_c_p_s_1_1_attribute.html" target="_top" xlink:title=" ">
<polygon fill="white" stroke="#666666" points="362.75,-80.38 259,-80.38 259,-58.12 362.75,-58.12 362.75,-80.38"/>
<text text-anchor="middle" x="310.88" y="-66.88" font-family="Helvetica,sans-Serif" font-size="10.00">CPS::Attribute&lt; T &gt;</text>
</a>
</g>
</g>
<!-- Node2&#45;&gt;Node1 -->
<g id="edge1_Node000001_Node000002" class="edge">
<title>Node2&#45;&gt;Node1</title>
<g id="a_edge1_Node000001_Node000002"><a xlink:title=" ">
<path fill="none" stroke="#63b8ff" d="M374.25,-59.19C387.29,-57.09 401.12,-54.86 414.45,-52.71"/>
<polygon fill="#63b8ff" stroke="#63b8ff" points="373.84,-55.71 364.52,-60.76 374.95,-62.62 373.84,-55.71"/>
</a>
</g>
</g>
<!-- Node3 -->
<g id="Node000003" class="node">
<title>Node3</title>
<g id="a_Node000003"><a xlink:href="class_c_p_s_1_1_attribute_base.html" target="_top" xlink:title=" ">
<polygon fill="white" stroke="#666666" points="109.75,-135.38 5.25,-135.38 5.25,-113.12 109.75,-113.12 109.75,-135.38"/>
<text text-anchor="middle" x="57.5" y="-121.88" font-family="Helvetica,sans-Serif" font-size="10.00">CPS::AttributeBase</text>
</a>
</g>
</g>
<!-- Node3&#45;&gt;Node2 -->
<g id="edge2_Node000002_Node000003" class="edge">
<title>Node3&#45;&gt;Node2</title>
<g id="a_edge2_Node000002_Node000003"><a xlink:title=" ">
<path fill="none" stroke="#63b8ff" d="M121.04,-110.57C163.55,-101.27 219.08,-89.12 258.9,-80.4"/>
<polygon fill="#63b8ff" stroke="#63b8ff" points="120.48,-107.11 111.45,-112.66 121.97,-113.95 120.48,-107.11"/>
</a>
</g>
</g>
<!-- Node4 -->
<g id="Node000004" class="node">
<title>Node4</title>
<g id="a_Node000004"><a xlink:title=" ">
<polygon fill="white" stroke="#bfbfbf" points="115,-94.62 0,-94.62 0,-43.88 115,-43.88 115,-94.62"/>
<text text-anchor="start" x="8" y="-81.12" font-family="Helvetica,sans-Serif" font-size="10.00">std::enable_shared</text>
<text text-anchor="start" x="8" y="-66.88" font-family="Helvetica,sans-Serif" font-size="10.00">_from_this&lt; Attribute</text>
<text text-anchor="middle" x="57.5" y="-52.62" font-family="Helvetica,sans-Serif" font-size="10.00">&lt; T &gt; &gt;</text>
</a>
</g>
</g>
<!-- Node4&#45;&gt;Node2 -->
<g id="edge3_Node000002_Node000004" class="edge">
<title>Node4&#45;&gt;Node2</title>
<g id="a_edge3_Node000002_Node000004"><a xlink:title=" ">
<path fill="none" stroke="#63b8ff" d="M126.68,-69.25C168.37,-69.25 220.82,-69.25 258.9,-69.25"/>
<polygon fill="#63b8ff" stroke="#63b8ff" points="126.74,-65.75 116.74,-69.25 126.74,-72.75 126.74,-65.75"/>
</a>
</g>
</g>
<!-- Node5 -->
<g id="Node000005" class="node">
<title>Node5</title>
<g id="a_Node000005"><a xlink:href="class_shared_factory.html" target="_top" xlink:title=" ">
<polygon fill="white" stroke="#666666" points="377.75,-36.5 244,-36.5 244,0 377.75,0 377.75,-36.5"/>
<text text-anchor="start" x="252" y="-23" font-family="Helvetica,sans-Serif" font-size="10.00">SharedFactory&lt; Attribute</text>
<text text-anchor="middle" x="310.88" y="-8.75" font-family="Helvetica,sans-Serif" font-size="10.00">Dynamic&lt; T &gt; &gt;</text>
</a>
</g>
</g>
<!-- Node5&#45;&gt;Node1 -->
<g id="edge4_Node000001_Node000005" class="edge">
<title>Node5&#45;&gt;Node1</title>
<g id="a_edge4_Node000001_Node000005"><a xlink:title=" ">
<path fill="none" stroke="#63b8ff" d="M389.28,-28.5C397.62,-29.61 406.08,-30.73 414.34,-31.82"/>
<polygon fill="#63b8ff" stroke="#63b8ff" points="389.88,-25.05 379.51,-27.21 388.96,-31.99 389.88,-25.05"/>
</a>
</g>
</g>
<!-- Node6 -->
<g id="Node000006" class="node">
<title>Node6</title>
<g id="a_Node000006"><a xlink:href="class_shared_factory.html" target="_top" xlink:title=" ">
<polygon fill="white" stroke="#666666" points="109.75,-25.38 5.25,-25.38 5.25,-3.12 109.75,-3.12 109.75,-25.38"/>
<text text-anchor="middle" x="57.5" y="-11.88" font-family="Helvetica,sans-Serif" font-size="10.00">SharedFactory&lt; T &gt;</text>
</a>
</g>
</g>
<!-- Node6&#45;&gt;Node5 -->
<g id="edge5_Node000005_Node000006" class="edge">
<title>Node6&#45;&gt;Node5</title>
<g id="a_edge5_Node000005_Node000006"><a xlink:title=" ">
<path fill="none" stroke="orange" stroke-dasharray="5,2" d="M121.21,-15.25C158.49,-15.84 205.75,-16.59 243.64,-17.2"/>
<polygon fill="orange" stroke="orange" points="121.54,-11.75 111.49,-15.09 121.43,-18.75 121.54,-11.75"/>
</a>
</g>
<text text-anchor="start" x="133" y="-35.84" font-family="Helvetica,sans-Serif" font-size="10.00" fill="grey"> &lt; AttributeDynamic</text>
<text text-anchor="middle" x="179.5" y="-21.59" font-family="Helvetica,sans-Serif" font-size="10.00" fill="grey">&lt; T &gt; &gt;</text>
</g>
</g>
</svg>
