<?xml version="1.0" encoding="UTF-8" standalone="no"?>
<!DOCTYPE svg PUBLIC "-//W3C//DTD SVG 1.1//EN"
 "http://www.w3.org/Graphics/SVG/1.1/DTD/svg11.dtd">
<!-- Generated by graphviz version 2.50.0 (0)
 -->
<!-- Title: CPS::SimTerminal&lt; VarType &gt; Pages: 1 -->
<svg width="1181pt" height="125pt"
 viewBox="0.00 0.00 1181.00 125.00" xmlns="http://www.w3.org/2000/svg" xmlns:xlink="http://www.w3.org/1999/xlink">
<g id="graph0" class="graph" transform="scale(1 1) rotate(0) translate(4 121)">
<title>CPS::SimTerminal&lt; VarType &gt;</title>
<!-- Node1 -->
<g id="node1" class="node">
<title>Node1</title>
<g id="a_node1"><a xlink:title=" ">
<polygon fill="#bfbfbf" stroke="black" points="1022,-37.5 1022,-56.5 1173,-56.5 1173,-37.5 1022,-37.5"/>
<text text-anchor="middle" x="1097.5" y="-44.5" font-family="Helvetica,sans-Serif" font-size="10.00">CPS::SimTerminal&lt; VarType &gt;</text>
</a>
</g>
</g>
<!-- Node2 -->
<g id="node2" class="node">
<title>Node2</title>
<g id="a_node2"><a xlink:href="class_c_p_s_1_1_topological_terminal.html" target="_top" xlink:title=" ">
<polygon fill="none" stroke="black" points="845.5,-60.5 845.5,-79.5 976.5,-79.5 976.5,-60.5 845.5,-60.5"/>
<text text-anchor="middle" x="911" y="-67.5" font-family="Helvetica,sans-Serif" font-size="10.00">CPS::TopologicalTerminal</text>
</a>
</g>
</g>
<!-- Node2&#45;&gt;Node1 -->
<g id="edge1" class="edge">
<title>Node2&#45;&gt;Node1</title>
<path fill="none" stroke="midnightblue" d="M986.63,-60.7C998.25,-59.25 1010.27,-57.75 1021.89,-56.3"/>
<polygon fill="midnightblue" stroke="midnightblue" points="986.02,-57.25 976.53,-61.96 986.89,-64.19 986.02,-57.25"/>
</g>
<!-- Node3 -->
<g id="node3" class="node">
<title>Node3</title>
<g id="a_node3"><a xlink:href="class_c_p_s_1_1_identified_object.html" target="_top" xlink:title=" ">
<polygon fill="none" stroke="black" points="555,-60.5 555,-79.5 671,-79.5 671,-60.5 555,-60.5"/>
<text text-anchor="middle" x="613" y="-67.5" font-family="Helvetica,sans-Serif" font-size="10.00">CPS::IdentifiedObject</text>
</a>
</g>
</g>
<!-- Node3&#45;&gt;Node2 -->
<g id="edge2" class="edge">
<title>Node3&#45;&gt;Node2</title>
<path fill="none" stroke="midnightblue" d="M681.3,-70C730.49,-70 796.83,-70 845.38,-70"/>
<polygon fill="midnightblue" stroke="midnightblue" points="681.07,-66.5 671.07,-70 681.07,-73.5 681.07,-66.5"/>
</g>
<!-- Node4 -->
<g id="node4" class="node">
<title>Node4</title>
<g id="a_node4"><a xlink:href="class_c_p_s_1_1_attribute.html" target="_top" xlink:title=" ">
<polygon fill="none" stroke="black" points="352,-60.5 352,-79.5 479,-79.5 479,-60.5 352,-60.5"/>
<text text-anchor="middle" x="415.5" y="-67.5" font-family="Helvetica,sans-Serif" font-size="10.00">CPS::Attribute&lt; String &gt;</text>
</a>
</g>
</g>
<!-- Node4&#45;&gt;Node3 -->
<g id="edge3" class="edge">
<title>Node4&#45;&gt;Node3</title>
<path fill="none" stroke="#9a32cd" stroke-dasharray="5,2" d="M489.32,-70C511.01,-70 534.46,-70 554.99,-70"/>
<polygon fill="#9a32cd" stroke="#9a32cd" points="489.16,-66.5 479.16,-70 489.16,-73.5 489.16,-66.5"/>
<text text-anchor="middle" x="517" y="-84" font-family="Helvetica,sans-Serif" font-size="10.00"> mName</text>
<text text-anchor="middle" x="517" y="-73" font-family="Helvetica,sans-Serif" font-size="10.00">mUID</text>
</g>
<!-- Node5 -->
<g id="node5" class="node">
<title>Node5</title>
<g id="a_node5"><a xlink:href="class_c_p_s_1_1_attribute_base.html" target="_top" xlink:title=" ">
<polygon fill="none" stroke="black" points="5.5,-97.5 5.5,-116.5 110.5,-116.5 110.5,-97.5 5.5,-97.5"/>
<text text-anchor="middle" x="58" y="-104.5" font-family="Helvetica,sans-Serif" font-size="10.00">CPS::AttributeBase</text>
</a>
</g>
</g>
<!-- Node5&#45;&gt;Node4 -->
<g id="edge4" class="edge">
<title>Node5&#45;&gt;Node4</title>
<path fill="none" stroke="midnightblue" d="M120.7,-103.91C176.57,-100.67 261.03,-94.69 334,-85 344.99,-83.54 356.76,-81.58 367.81,-79.55"/>
<polygon fill="midnightblue" stroke="midnightblue" points="120.4,-100.42 110.61,-104.48 120.8,-107.41 120.4,-100.42"/>
</g>
<!-- Node7 -->
<g id="node7" class="node">
<title>Node7</title>
<g id="a_node7"><a xlink:href="class_c_p_s_1_1_attribute.html" target="_top" xlink:title=" ">
<polygon fill="none" stroke="black" points="159,-60.5 159,-79.5 263,-79.5 263,-60.5 159,-60.5"/>
<text text-anchor="middle" x="211" y="-67.5" font-family="Helvetica,sans-Serif" font-size="10.00">CPS::Attribute&lt; T &gt;</text>
</a>
</g>
</g>
<!-- Node5&#45;&gt;Node7 -->
<g id="edge7" class="edge">
<title>Node5&#45;&gt;Node7</title>
<path fill="none" stroke="midnightblue" d="M107.67,-95.07C128.15,-90.06 151.67,-84.29 170.98,-79.56"/>
<polygon fill="midnightblue" stroke="midnightblue" points="106.77,-91.69 97.89,-97.47 108.43,-98.49 106.77,-91.69"/>
</g>
<!-- Node6 -->
<g id="node6" class="node">
<title>Node6</title>
<g id="a_node6"><a xlink:title=" ">
<polygon fill="none" stroke="#bfbfbf" points="153,-0.5 153,-41.5 269,-41.5 269,-0.5 153,-0.5"/>
<text text-anchor="start" x="161" y="-29.5" font-family="Helvetica,sans-Serif" font-size="10.00">std::enable_shared</text>
<text text-anchor="start" x="161" y="-18.5" font-family="Helvetica,sans-Serif" font-size="10.00">_from_this&lt; Attribute</text>
<text text-anchor="middle" x="211" y="-7.5" font-family="Helvetica,sans-Serif" font-size="10.00">&lt; String &gt; &gt;</text>
</a>
</g>
</g>
<!-- Node6&#45;&gt;Node4 -->
<g id="edge5" class="edge">
<title>Node6&#45;&gt;Node4</title>
<path fill="none" stroke="midnightblue" d="M279.33,-37.29C311.09,-44.98 347.89,-53.88 375.06,-60.46"/>
<polygon fill="midnightblue" stroke="midnightblue" points="279.76,-33.8 269.22,-34.84 278.11,-40.6 279.76,-33.8"/>
</g>
<!-- Node7&#45;&gt;Node4 -->
<g id="edge6" class="edge">
<title>Node7&#45;&gt;Node4</title>
<path fill="none" stroke="orange" stroke-dasharray="5,2" d="M273.15,-70C298.04,-70 326.79,-70 351.83,-70"/>
<polygon fill="orange" stroke="orange" points="273.1,-66.5 263.1,-70 273.1,-73.5 273.1,-66.5"/>
<text text-anchor="middle" x="310.5" y="-73" font-family="Helvetica,sans-Serif" font-size="10.00"> &lt; String &gt;</text>
</g>
<!-- Node8 -->
<g id="node8" class="node">
<title>Node8</title>
<g id="a_node8"><a xlink:title=" ">
<polygon fill="none" stroke="#bfbfbf" points="0,-37.5 0,-78.5 116,-78.5 116,-37.5 0,-37.5"/>
<text text-anchor="start" x="8" y="-66.5" font-family="Helvetica,sans-Serif" font-size="10.00">std::enable_shared</text>
<text text-anchor="start" x="8" y="-55.5" font-family="Helvetica,sans-Serif" font-size="10.00">_from_this&lt; Attribute</text>
<text text-anchor="middle" x="58" y="-44.5" font-family="Helvetica,sans-Serif" font-size="10.00">&lt; T &gt; &gt;</text>
</a>
</g>
</g>
<!-- Node8&#45;&gt;Node7 -->
<g id="edge8" class="edge">
<title>Node8&#45;&gt;Node7</title>
<path fill="none" stroke="midnightblue" d="M126.07,-63.33C137.05,-64.2 148.27,-65.09 158.79,-65.93"/>
<polygon fill="midnightblue" stroke="midnightblue" points="126.33,-59.84 116.09,-62.54 125.78,-66.82 126.33,-59.84"/>
</g>
<!-- Node9 -->
<g id="node9" class="node">
<title>Node9</title>
<g id="a_node9"><a xlink:href="class_shared_factory.html" target="_top" xlink:title=" ">
<polygon fill="none" stroke="black" points="837,-11 837,-41 985,-41 985,-11 837,-11"/>
<text text-anchor="start" x="845" y="-29" font-family="Helvetica,sans-Serif" font-size="10.00">SharedFactory&lt; SimTerminal</text>
<text text-anchor="middle" x="911" y="-18" font-family="Helvetica,sans-Serif" font-size="10.00">&lt; VarType &gt; &gt;</text>
</a>
</g>
</g>
<!-- Node9&#45;&gt;Node1 -->
<g id="edge9" class="edge">
<title>Node9&#45;&gt;Node1</title>
<path fill="none" stroke="midnightblue" d="M995.17,-35.47C1004.08,-36.48 1013.1,-37.51 1021.89,-38.51"/>
<polygon fill="midnightblue" stroke="midnightblue" points="995.52,-31.98 985.18,-34.33 994.72,-38.94 995.52,-31.98"/>
</g>
<!-- Node10 -->
<g id="node10" class="node">
<title>Node10</title>
<g id="a_node10"><a xlink:href="class_shared_factory.html" target="_top" xlink:title=" ">
<polygon fill="none" stroke="black" points="560.5,-16.5 560.5,-35.5 665.5,-35.5 665.5,-16.5 560.5,-16.5"/>
<text text-anchor="middle" x="613" y="-23.5" font-family="Helvetica,sans-Serif" font-size="10.00">SharedFactory&lt; T &gt;</text>
</a>
</g>
</g>
<!-- Node10&#45;&gt;Node9 -->
<g id="edge10" class="edge">
<title>Node10&#45;&gt;Node9</title>
<path fill="none" stroke="orange" stroke-dasharray="5,2" d="M675.59,-26C722.52,-26 787.29,-26 836.86,-26"/>
<polygon fill="orange" stroke="orange" points="675.56,-22.5 665.56,-26 675.56,-29.5 675.56,-22.5"/>
<text text-anchor="middle" x="754" y="-29" font-family="Helvetica,sans-Serif" font-size="10.00"> &lt; SimTerminal&lt; VarType &gt; &gt;</text>
</g>
</g>
</svg>
