<?xml version="1.0" encoding="UTF-8" standalone="no"?>
<!DOCTYPE svg PUBLIC "-//W3C//DTD SVG 1.1//EN"
 "http://www.w3.org/Graphics/SVG/1.1/DTD/svg11.dtd">
<!-- Generated by graphviz version 2.44.0 (0)
 -->
<!-- Title: CPS::EMT::Ph3::SynchronGeneratorVBR Pages: 1 -->
<svg width="1268pt" height="179pt"
 viewBox="0.00 0.00 1268.00 179.19" xmlns="http://www.w3.org/2000/svg" xmlns:xlink="http://www.w3.org/1999/xlink">
<g id="graph0" class="graph" transform="scale(1 1) rotate(0) translate(4 175.19)">
<title>CPS::EMT::Ph3::SynchronGeneratorVBR</title>
<!-- Node1 -->
<g id="node1" class="node">
<title>Node1</title>
<g id="a_node1"><a xlink:title=" ">
<polygon fill="#bfbfbf" stroke="black" points="1062,-69 1062,-88 1260,-88 1260,-69 1062,-69"/>
<text text-anchor="middle" x="1161" y="-76" font-family="Helvetica" font-size="10.00">CPS::EMT::Ph3::SynchronGeneratorVBR</text>
</a>
</g>
</g>
<!-- Node2 -->
<g id="node2" class="node">
<title>Node2</title>
<g id="a_node2"><a xlink:href="class_c_p_s_1_1_sim_power_comp.html" target="_top" xlink:title=" ">
<polygon fill="none" stroke="black" points="878,-126.5 878,-156.5 998,-156.5 998,-126.5 878,-126.5"/>
<text text-anchor="start" x="886" y="-144.5" font-family="Helvetica" font-size="10.00">CPS::SimPowerComp&lt;</text>
<text text-anchor="middle" x="938" y="-133.5" font-family="Helvetica" font-size="10.00"> Real &gt;</text>
</a>
</g>
</g>
<!-- Node2&#45;&gt;Node1 -->
<g id="edge1" class="edge">
<title>Node2&#45;&gt;Node1</title>
<path fill="none" stroke="midnightblue" d="M1001.48,-123.69C1042.14,-112.1 1093.57,-97.44 1126.63,-88.01"/>
<polygon fill="midnightblue" stroke="midnightblue" points="1000.31,-120.38 991.65,-126.49 1002.23,-127.11 1000.31,-120.38"/>
</g>
<!-- Node3 -->
<g id="node3" class="node">
<title>Node3</title>
<g id="a_node3"><a xlink:href="class_c_p_s_1_1_topological_power_comp.html" target="_top" xlink:title=" ">
<polygon fill="none" stroke="black" points="385,-132 385,-151 531,-151 531,-132 385,-132"/>
<text text-anchor="middle" x="458" y="-139" font-family="Helvetica" font-size="10.00">CPS::TopologicalPowerComp</text>
</a>
</g>
</g>
<!-- Node3&#45;&gt;Node2 -->
<g id="edge2" class="edge">
<title>Node3&#45;&gt;Node2</title>
<path fill="none" stroke="midnightblue" d="M501.78,-153.66C521.72,-158.72 545.89,-164 568,-166.5 676.94,-178.83 804.72,-163.59 877.74,-152.07"/>
<polygon fill="midnightblue" stroke="midnightblue" points="502.62,-150.26 492.06,-151.13 500.85,-157.04 502.62,-150.26"/>
</g>
<!-- Node6 -->
<g id="node6" class="node">
<title>Node6</title>
<g id="a_node6"><a xlink:href="class_c_p_s_1_1_sim_power_comp.html" target="_top" xlink:title="Base class for all components that are transmitting power.">
<polygon fill="none" stroke="black" points="568,-126.5 568,-156.5 688,-156.5 688,-126.5 568,-126.5"/>
<text text-anchor="start" x="576" y="-144.5" font-family="Helvetica" font-size="10.00">CPS::SimPowerComp&lt;</text>
<text text-anchor="middle" x="628" y="-133.5" font-family="Helvetica" font-size="10.00"> VarType &gt;</text>
</a>
</g>
</g>
<!-- Node3&#45;&gt;Node6 -->
<g id="edge6" class="edge">
<title>Node3&#45;&gt;Node6</title>
<path fill="none" stroke="midnightblue" d="M541.34,-141.5C550.34,-141.5 559.36,-141.5 567.99,-141.5"/>
<polygon fill="midnightblue" stroke="midnightblue" points="541.22,-138 531.22,-141.5 541.22,-145 541.22,-138"/>
</g>
<!-- Node4 -->
<g id="node4" class="node">
<title>Node4</title>
<g id="a_node4"><a xlink:href="class_c_p_s_1_1_identified_object.html" target="_top" xlink:title=" ">
<polygon fill="none" stroke="black" points="133,-131 133,-150 245,-150 245,-131 133,-131"/>
<text text-anchor="middle" x="189" y="-138" font-family="Helvetica" font-size="10.00">CPS::IdentifiedObject</text>
</a>
</g>
</g>
<!-- Node4&#45;&gt;Node3 -->
<g id="edge3" class="edge">
<title>Node4&#45;&gt;Node3</title>
<path fill="none" stroke="midnightblue" d="M255.53,-140.75C294.6,-140.89 344.26,-141.08 384.5,-141.23"/>
<polygon fill="midnightblue" stroke="midnightblue" points="255.34,-137.24 245.32,-140.71 255.31,-144.24 255.34,-137.24"/>
</g>
<!-- Node5 -->
<g id="node5" class="node">
<title>Node5</title>
<g id="a_node5"><a xlink:href="class_c_p_s_1_1_attribute_list.html" target="_top" xlink:title="Base class of objects having attributes to access member variables.">
<polygon fill="none" stroke="black" points="0,-104 0,-123 96,-123 96,-104 0,-104"/>
<text text-anchor="middle" x="48" y="-111" font-family="Helvetica" font-size="10.00">CPS::AttributeList</text>
</a>
</g>
</g>
<!-- Node5&#45;&gt;Node4 -->
<g id="edge4" class="edge">
<title>Node5&#45;&gt;Node4</title>
<path fill="none" stroke="midnightblue" d="M105.99,-124.57C116.98,-126.7 128.39,-128.92 139.09,-131"/>
<polygon fill="midnightblue" stroke="midnightblue" points="106.54,-121.11 96.06,-122.64 105.21,-127.98 106.54,-121.11"/>
</g>
<!-- Node7 -->
<g id="node7" class="node">
<title>Node7</title>
<g id="a_node7"><a xlink:href="class_c_p_s_1_1_m_n_a_interface.html" target="_top" xlink:title="Interface to be implemented by all models used by the MNA solver.">
<polygon fill="none" stroke="black" points="263,-91 263,-110 367,-110 367,-91 263,-91"/>
<text text-anchor="middle" x="315" y="-98" font-family="Helvetica" font-size="10.00">CPS::MNAInterface</text>
</a>
</g>
</g>
<!-- Node5&#45;&gt;Node7 -->
<g id="edge8" class="edge">
<title>Node5&#45;&gt;Node7</title>
<path fill="none" stroke="midnightblue" d="M106.31,-110.69C152.89,-108.4 218,-105.21 262.85,-103.01"/>
<polygon fill="midnightblue" stroke="midnightblue" points="105.89,-107.2 96.07,-111.19 106.23,-114.2 105.89,-107.2"/>
</g>
<!-- Node6&#45;&gt;Node2 -->
<g id="edge5" class="edge">
<title>Node6&#45;&gt;Node2</title>
<path fill="none" stroke="orange" stroke-dasharray="5,2" d="M698.21,-141.5C752.28,-141.5 826.62,-141.5 877.92,-141.5"/>
<polygon fill="orange" stroke="orange" points="698.02,-138 688.02,-141.5 698.02,-145 698.02,-138"/>
<text text-anchor="middle" x="769.5" y="-144.5" font-family="Helvetica" font-size="10.00"> &lt; Real &gt;</text>
</g>
<!-- Node7&#45;&gt;Node1 -->
<g id="edge7" class="edge">
<title>Node7&#45;&gt;Node1</title>
<path fill="none" stroke="midnightblue" d="M377.38,-99.28C424.36,-98.45 490.77,-97.5 549,-97.5 549,-97.5 549,-97.5 939,-97.5 988.29,-97.5 1043.54,-92.75 1086.47,-88"/>
<polygon fill="midnightblue" stroke="midnightblue" points="377.3,-95.78 367.36,-99.46 377.42,-102.78 377.3,-95.78"/>
</g>
<!-- Node8 -->
<g id="node8" class="node">
<title>Node8</title>
<g id="a_node8"><a xlink:href="class_c_p_s_1_1_base_1_1_synchron_generator.html" target="_top" xlink:title="Base synchronous generator model.">
<polygon fill="none" stroke="black" points="860,-50 860,-69 1016,-69 1016,-50 860,-50"/>
<text text-anchor="middle" x="938" y="-57" font-family="Helvetica" font-size="10.00">CPS::Base::SynchronGenerator</text>
</a>
</g>
</g>
<!-- Node8&#45;&gt;Node1 -->
<g id="edge9" class="edge">
<title>Node8&#45;&gt;Node1</title>
<path fill="none" stroke="midnightblue" d="M1026.4,-67.01C1038.01,-68.01 1049.99,-69.04 1061.77,-70.05"/>
<polygon fill="midnightblue" stroke="midnightblue" points="1026.56,-63.51 1016.3,-66.15 1025.96,-70.49 1026.56,-63.51"/>
</g>
<!-- Node9 -->
<g id="node9" class="node">
<title>Node9</title>
<g id="a_node9"><a xlink:href="class_shared_factory.html" target="_top" xlink:title=" ">
<polygon fill="none" stroke="black" points="851,-0.5 851,-30.5 1025,-30.5 1025,-0.5 851,-0.5"/>
<text text-anchor="start" x="859" y="-18.5" font-family="Helvetica" font-size="10.00">SharedFactory&lt; SynchronGenerator</text>
<text text-anchor="middle" x="938" y="-7.5" font-family="Helvetica" font-size="10.00">VBR &gt;</text>
</a>
</g>
</g>
<!-- Node9&#45;&gt;Node1 -->
<g id="edge10" class="edge">
<title>Node9&#45;&gt;Node1</title>
<path fill="none" stroke="midnightblue" d="M1001.48,-33.31C1042.14,-44.9 1093.57,-59.56 1126.63,-68.99"/>
<polygon fill="midnightblue" stroke="midnightblue" points="1002.23,-29.89 991.65,-30.51 1000.31,-36.62 1002.23,-29.89"/>
</g>
<!-- Node10 -->
<g id="node10" class="node">
<title>Node10</title>
<g id="a_node10"><a xlink:href="class_shared_factory.html" target="_top" xlink:title=" ">
<polygon fill="none" stroke="black" points="575.5,-6 575.5,-25 680.5,-25 680.5,-6 575.5,-6"/>
<text text-anchor="middle" x="628" y="-13" font-family="Helvetica" font-size="10.00">SharedFactory&lt; T &gt;</text>
</a>
</g>
</g>
<!-- Node10&#45;&gt;Node9 -->
<g id="edge11" class="edge">
<title>Node10&#45;&gt;Node9</title>
<path fill="none" stroke="orange" stroke-dasharray="5,2" d="M690.67,-15.5C736.61,-15.5 799.94,-15.5 850.88,-15.5"/>
<polygon fill="orange" stroke="orange" points="690.55,-12 680.55,-15.5 690.55,-19 690.55,-12"/>
<text text-anchor="middle" x="769.5" y="-18.5" font-family="Helvetica" font-size="10.00"> &lt; SynchronGeneratorVBR &gt;</text>
</g>
</g>
</svg>
