<?xml version="1.0" encoding="UTF-8" standalone="no"?>
<!DOCTYPE svg PUBLIC "-//W3C//DTD SVG 1.1//EN"
 "http://www.w3.org/Graphics/SVG/1.1/DTD/svg11.dtd">
<!-- Generated by graphviz version 12.2.1 (20241206.2353)
 -->
<!-- Title: CPS::EMT::Ph3::SeriesSwitch Pages: 1 -->
<svg width="1126pt" height="250pt"
 viewBox="0.00 0.00 1126.25 250.38" xmlns="http://www.w3.org/2000/svg" xmlns:xlink="http://www.w3.org/1999/xlink">
<g id="graph0" class="graph" transform="scale(1 1) rotate(0) translate(4 246.38)">
<title>CPS::EMT::Ph3::SeriesSwitch</title>
<!-- Node1 -->
<g id="Node000001" class="node">
<title>Node1</title>
<g id="a_Node000001"><a xlink:title="EMT three&#45;phase switch.">
<polygon fill="#999999" stroke="#666666" points="1118.25,-82.25 971.75,-82.25 971.75,-60 1118.25,-60 1118.25,-82.25"/>
<text text-anchor="middle" x="1045" y="-68.75" font-family="Helvetica,sans-Serif" font-size="10.00">CPS::EMT::Ph3::SeriesSwitch</text>
</a>
</g>
</g>
<!-- Node2 -->
<g id="Node000002" class="node">
<title>Node2</title>
<g id="a_Node000002"><a xlink:href="class_c_p_s_1_1_m_n_a_sim_power_comp.html" target="_top" xlink:title=" ">
<polygon fill="white" stroke="#666666" points="924.25,-159.38 788.25,-159.38 788.25,-122.88 924.25,-122.88 924.25,-159.38"/>
<text text-anchor="start" x="796.25" y="-145.88" font-family="Helvetica,sans-Serif" font-size="10.00">CPS::MNASimPowerComp</text>
<text text-anchor="middle" x="856.25" y="-131.62" font-family="Helvetica,sans-Serif" font-size="10.00">&lt; Real &gt;</text>
</a>
</g>
</g>
<!-- Node2&#45;&gt;Node1 -->
<g id="edge1_Node000001_Node000002" class="edge">
<title>Node2&#45;&gt;Node1</title>
<g id="a_edge1_Node000001_Node000002"><a xlink:title=" ">
<path fill="none" stroke="#63b8ff" d="M917.39,-118.58C949.36,-106.6 987.3,-92.38 1013.26,-82.65"/>
<polygon fill="#63b8ff" stroke="#63b8ff" points="916.36,-115.23 908.22,-122.02 918.81,-121.79 916.36,-115.23"/>
</a>
</g>
</g>
<!-- Node3 -->
<g id="Node000003" class="node">
<title>Node3</title>
<g id="a_Node000003"><a xlink:href="class_c_p_s_1_1_sim_power_comp.html" target="_top" xlink:title=" ">
<polygon fill="white" stroke="#666666" points="656.62,-206.38 537.88,-206.38 537.88,-169.88 656.62,-169.88 656.62,-206.38"/>
<text text-anchor="start" x="545.88" y="-192.88" font-family="Helvetica,sans-Serif" font-size="10.00">CPS::SimPowerComp&lt;</text>
<text text-anchor="middle" x="597.25" y="-178.62" font-family="Helvetica,sans-Serif" font-size="10.00"> Real &gt;</text>
</a>
</g>
</g>
<!-- Node3&#45;&gt;Node2 -->
<g id="edge2_Node000002_Node000003" class="edge">
<title>Node3&#45;&gt;Node2</title>
<g id="a_edge2_Node000002_Node000003"><a xlink:title=" ">
<path fill="none" stroke="#63b8ff" d="M668.15,-175.34C705.37,-168.53 750.94,-160.2 787.78,-153.46"/>
<polygon fill="#63b8ff" stroke="#63b8ff" points="667.58,-171.89 658.38,-177.13 668.84,-178.77 667.58,-171.89"/>
</a>
</g>
</g>
<!-- Node4 -->
<g id="Node000004" class="node">
<title>Node4</title>
<g id="a_Node000004"><a xlink:href="class_c_p_s_1_1_topological_power_comp.html" target="_top" xlink:title=" ">
<polygon fill="white" stroke="#666666" points="299.25,-189.25 152,-189.25 152,-167 299.25,-167 299.25,-189.25"/>
<text text-anchor="middle" x="225.62" y="-175.75" font-family="Helvetica,sans-Serif" font-size="10.00">CPS::TopologicalPowerComp</text>
</a>
</g>
</g>
<!-- Node4&#45;&gt;Node3 -->
<g id="edge3_Node000003_Node000004" class="edge">
<title>Node4&#45;&gt;Node3</title>
<g id="a_edge3_Node000003_Node000004"><a xlink:title=" ">
<path fill="none" stroke="#63b8ff" d="M310.96,-180.41C380.23,-182.28 476.56,-184.89 537.66,-186.54"/>
<polygon fill="#63b8ff" stroke="#63b8ff" points="311.26,-176.91 301.16,-180.14 311.07,-183.91 311.26,-176.91"/>
</a>
</g>
</g>
<!-- Node6 -->
<g id="Node000006" class="node">
<title>Node6</title>
<g id="a_Node000006"><a xlink:href="class_c_p_s_1_1_sim_power_comp.html" target="_top" xlink:title="Base class for all components that are transmitting power.">
<polygon fill="white" stroke="#666666" points="455,-242.38 336.25,-242.38 336.25,-205.88 455,-205.88 455,-242.38"/>
<text text-anchor="start" x="344.25" y="-228.88" font-family="Helvetica,sans-Serif" font-size="10.00">CPS::SimPowerComp&lt;</text>
<text text-anchor="middle" x="395.62" y="-214.62" font-family="Helvetica,sans-Serif" font-size="10.00"> VarType &gt;</text>
</a>
</g>
</g>
<!-- Node4&#45;&gt;Node6 -->
<g id="edge6_Node000006_Node000004" class="edge">
<title>Node4&#45;&gt;Node6</title>
<g id="a_edge6_Node000006_Node000004"><a xlink:title=" ">
<path fill="none" stroke="#63b8ff" d="M280.1,-192.77C297.92,-197.65 317.87,-203.11 336.07,-208.09"/>
<polygon fill="#63b8ff" stroke="#63b8ff" points="281.05,-189.4 270.48,-190.13 279.2,-196.15 281.05,-189.4"/>
</a>
</g>
</g>
<!-- Node9 -->
<g id="Node000009" class="node">
<title>Node9</title>
<g id="a_Node000009"><a xlink:href="class_c_p_s_1_1_sim_power_comp.html" target="_top" xlink:title="Base class for all components that are transmitting power.">
<polygon fill="white" stroke="#666666" points="455,-110.38 336.25,-110.38 336.25,-73.88 455,-73.88 455,-110.38"/>
<text text-anchor="start" x="344.25" y="-96.88" font-family="Helvetica,sans-Serif" font-size="10.00">CPS::SimPowerComp&lt;</text>
<text text-anchor="middle" x="395.62" y="-82.62" font-family="Helvetica,sans-Serif" font-size="10.00"> VarType &gt;</text>
</a>
</g>
</g>
<!-- Node4&#45;&gt;Node9 -->
<g id="edge10_Node000009_Node000004" class="edge">
<title>Node4&#45;&gt;Node9</title>
<g id="a_edge10_Node000009_Node000004"><a xlink:title=" ">
<path fill="none" stroke="#63b8ff" d="M257.04,-161.11C278.9,-149.05 309.17,-132.66 336.25,-119.12 341.74,-116.38 347.57,-113.57 353.34,-110.84"/>
<polygon fill="#63b8ff" stroke="#63b8ff" points="255.41,-158.02 248.36,-165.93 258.81,-164.14 255.41,-158.02"/>
</a>
</g>
</g>
<!-- Node5 -->
<g id="Node000005" class="node">
<title>Node5</title>
<g id="a_Node000005"><a xlink:href="class_c_p_s_1_1_identified_object.html" target="_top" xlink:title=" ">
<polygon fill="white" stroke="#666666" points="115,-189.25 0,-189.25 0,-167 115,-167 115,-189.25"/>
<text text-anchor="middle" x="57.5" y="-175.75" font-family="Helvetica,sans-Serif" font-size="10.00">CPS::IdentifiedObject</text>
</a>
</g>
</g>
<!-- Node5&#45;&gt;Node4 -->
<g id="edge4_Node000004_Node000005" class="edge">
<title>Node5&#45;&gt;Node4</title>
<g id="a_edge4_Node000004_Node000005"><a xlink:title=" ">
<path fill="none" stroke="#63b8ff" d="M126.7,-178.12C134.95,-178.12 143.41,-178.12 151.73,-178.12"/>
<polygon fill="#63b8ff" stroke="#63b8ff" points="126.72,-174.63 116.72,-178.13 126.72,-181.63 126.72,-174.63"/>
</a>
</g>
</g>
<!-- Node6&#45;&gt;Node3 -->
<g id="edge5_Node000003_Node000006" class="edge">
<title>Node6&#45;&gt;Node3</title>
<g id="a_edge5_Node000003_Node000006"><a xlink:title=" ">
<path fill="none" stroke="orange" stroke-dasharray="5,2" d="M466.6,-211.51C489.76,-207.33 515.28,-202.73 537.51,-198.72"/>
<polygon fill="orange" stroke="orange" points="466.15,-208.03 456.93,-213.25 467.39,-214.92 466.15,-208.03"/>
</a>
</g>
<text text-anchor="middle" x="492.12" y="-214.1" font-family="Helvetica,sans-Serif" font-size="10.00" fill="grey"> &lt; Real &gt;</text>
</g>
<!-- Node7 -->
<g id="Node000007" class="node">
<title>Node7</title>
<g id="a_Node000007"><a xlink:href="class_c_p_s_1_1_m_n_a_interface.html" target="_top" xlink:title="Interface to be implemented by all models used by the MNA solver.">
<polygon fill="white" stroke="#666666" points="448.62,-150.25 342.62,-150.25 342.62,-128 448.62,-128 448.62,-150.25"/>
<text text-anchor="middle" x="395.62" y="-136.75" font-family="Helvetica,sans-Serif" font-size="10.00">CPS::MNAInterface</text>
</a>
</g>
</g>
<!-- Node7&#45;&gt;Node2 -->
<g id="edge7_Node000002_Node000007" class="edge">
<title>Node7&#45;&gt;Node2</title>
<g id="a_edge7_Node000002_Node000007"><a xlink:title=" ">
<path fill="none" stroke="#63b8ff" d="M460.24,-139.4C546.49,-139.78 699.82,-140.45 787.93,-140.83"/>
<polygon fill="#63b8ff" stroke="#63b8ff" points="460.32,-135.9 450.3,-139.36 460.29,-142.9 460.32,-135.9"/>
</a>
</g>
</g>
<!-- Node8 -->
<g id="Node000008" class="node">
<title>Node8</title>
<g id="a_Node000008"><a xlink:href="class_c_p_s_1_1_m_n_a_sim_power_comp.html" target="_top" xlink:title="Base class for all MNA components that are transmitting power.">
<polygon fill="white" stroke="#666666" points="665.25,-114.38 529.25,-114.38 529.25,-77.88 665.25,-77.88 665.25,-114.38"/>
<text text-anchor="start" x="537.25" y="-100.88" font-family="Helvetica,sans-Serif" font-size="10.00">CPS::MNASimPowerComp</text>
<text text-anchor="middle" x="597.25" y="-86.62" font-family="Helvetica,sans-Serif" font-size="10.00">&lt; VarType &gt;</text>
</a>
</g>
</g>
<!-- Node7&#45;&gt;Node8 -->
<g id="edge11_Node000008_Node000007" class="edge">
<title>Node7&#45;&gt;Node8</title>
<g id="a_edge11_Node000008_Node000007"><a xlink:title=" ">
<path fill="none" stroke="#63b8ff" d="M460.28,-125.41C482.23,-120.69 506.88,-115.38 529.1,-110.59"/>
<polygon fill="#63b8ff" stroke="#63b8ff" points="459.59,-121.98 450.55,-127.51 461.07,-128.82 459.59,-121.98"/>
</a>
</g>
</g>
<!-- Node8&#45;&gt;Node2 -->
<g id="edge8_Node000002_Node000008" class="edge">
<title>Node8&#45;&gt;Node2</title>
<g id="a_edge8_Node000002_Node000008"><a xlink:title=" ">
<path fill="none" stroke="orange" stroke-dasharray="5,2" d="M676.59,-102.06C703.14,-104.77 732.87,-108.6 759.75,-113.88 771.42,-116.17 783.74,-119.2 795.51,-122.41"/>
<polygon fill="orange" stroke="orange" points="677.22,-98.6 666.93,-101.11 676.54,-105.57 677.22,-98.6"/>
</a>
</g>
<text text-anchor="middle" x="721.5" y="-118.62" font-family="Helvetica,sans-Serif" font-size="10.00" fill="grey"> &lt; Real &gt;</text>
</g>
<!-- Node9&#45;&gt;Node8 -->
<g id="edge9_Node000008_Node000009" class="edge">
<title>Node9&#45;&gt;Node8</title>
<g id="a_edge9_Node000008_Node000009"><a xlink:title=" ">
<path fill="none" stroke="#63b8ff" d="M466.79,-93.53C487.03,-93.94 509.05,-94.38 529.09,-94.78"/>
<polygon fill="#63b8ff" stroke="#63b8ff" points="467.02,-90.03 456.95,-93.33 466.88,-97.03 467.02,-90.03"/>
</a>
</g>
</g>
<!-- Node10 -->
<g id="Node000010" class="node">
<title>Node10</title>
<g id="a_Node000010"><a xlink:href="class_c_p_s_1_1_base_1_1_ph1_1_1_switch.html" target="_top" xlink:title="Dynamic Phasor Three&#45;Phase Switch.">
<polygon fill="white" stroke="#666666" points="916.75,-102.25 795.75,-102.25 795.75,-80 916.75,-80 916.75,-102.25"/>
<text text-anchor="middle" x="856.25" y="-88.75" font-family="Helvetica,sans-Serif" font-size="10.00">CPS::Base::Ph1::Switch</text>
</a>
</g>
</g>
<!-- Node10&#45;&gt;Node1 -->
<g id="edge12_Node000001_Node000010" class="edge">
<title>Node10&#45;&gt;Node1</title>
<g id="a_edge12_Node000001_Node000010"><a xlink:title=" ">
<path fill="none" stroke="#63b8ff" d="M928.26,-83.52C942.38,-82.01 957.23,-80.42 971.41,-78.9"/>
<polygon fill="#63b8ff" stroke="#63b8ff" points="928.18,-80.01 918.61,-84.55 928.93,-86.97 928.18,-80.01"/>
</a>
</g>
</g>
<!-- Node11 -->
<g id="Node000011" class="node">
<title>Node11</title>
<g id="a_Node000011"><a xlink:href="class_shared_factory.html" target="_top" xlink:title=" ">
<polygon fill="white" stroke="#666666" points="934.75,-62.25 777.75,-62.25 777.75,-40 934.75,-40 934.75,-62.25"/>
<text text-anchor="middle" x="856.25" y="-48.75" font-family="Helvetica,sans-Serif" font-size="10.00">SharedFactory&lt; SeriesSwitch &gt;</text>
</a>
</g>
</g>
<!-- Node11&#45;&gt;Node1 -->
<g id="edge13_Node000001_Node000011" class="edge">
<title>Node11&#45;&gt;Node1</title>
<g id="a_edge13_Node000001_Node000011"><a xlink:title=" ">
<path fill="none" stroke="#63b8ff" d="M946.43,-60.68C954.79,-61.57 963.18,-62.47 971.36,-63.35"/>
<polygon fill="#63b8ff" stroke="#63b8ff" points="946.92,-57.21 936.6,-59.62 946.17,-64.17 946.92,-57.21"/>
</a>
</g>
</g>
<!-- Node12 -->
<g id="Node000012" class="node">
<title>Node12</title>
<g id="a_Node000012"><a xlink:href="class_shared_factory.html" target="_top" xlink:title=" ">
<polygon fill="white" stroke="#666666" points="649.5,-60.25 545,-60.25 545,-38 649.5,-38 649.5,-60.25"/>
<text text-anchor="middle" x="597.25" y="-46.75" font-family="Helvetica,sans-Serif" font-size="10.00">SharedFactory&lt; T &gt;</text>
</a>
</g>
</g>
<!-- Node12&#45;&gt;Node11 -->
<g id="edge14_Node000011_Node000012" class="edge">
<title>Node12&#45;&gt;Node11</title>
<g id="a_edge14_Node000011_Node000012"><a xlink:title=" ">
<path fill="none" stroke="orange" stroke-dasharray="5,2" d="M661.45,-49.62C696.43,-49.89 740.19,-50.23 777.28,-50.52"/>
<polygon fill="orange" stroke="orange" points="661.49,-46.12 651.46,-49.54 661.43,-53.12 661.49,-46.12"/>
</a>
</g>
<text text-anchor="middle" x="721.5" y="-55.11" font-family="Helvetica,sans-Serif" font-size="10.00" fill="grey"> &lt; SeriesSwitch &gt;</text>
</g>
<!-- Node13 -->
<g id="Node000013" class="node">
<title>Node13</title>
<g id="a_Node000013"><a xlink:href="class_c_p_s_1_1_m_n_a_switch_interface.html" target="_top" xlink:title="MNA interface to be used by switching devices.">
<polygon fill="white" stroke="#666666" points="923.88,-22.25 788.62,-22.25 788.62,0 923.88,0 923.88,-22.25"/>
<text text-anchor="middle" x="856.25" y="-8.75" font-family="Helvetica,sans-Serif" font-size="10.00">CPS::MNASwitchInterface</text>
</a>
</g>
</g>
<!-- Node13&#45;&gt;Node1 -->
<g id="edge15_Node000001_Node000013" class="edge">
<title>Node13&#45;&gt;Node1</title>
<g id="a_edge15_Node000001_Node000013"><a xlink:title=" ">
<path fill="none" stroke="#63b8ff" d="M915.77,-25.57C922.2,-27.35 928.63,-29.22 934.75,-31.12 962.33,-39.71 993.19,-51.18 1015.05,-59.64"/>
<polygon fill="#63b8ff" stroke="#63b8ff" points="917.03,-22.29 906.46,-23.06 915.2,-29.04 917.03,-22.29"/>
</a>
</g>
</g>
</g>
</svg>
