<?xml version="1.0" encoding="UTF-8" standalone="no"?>
<!DOCTYPE svg PUBLIC "-//W3C//DTD SVG 1.1//EN"
 "http://www.w3.org/Graphics/SVG/1.1/DTD/svg11.dtd">
<!-- Generated by graphviz version 12.2.1 (20241206.2353)
 -->
<!-- Title: CPS::DP::Ph1::ResIndSeries Pages: 1 -->
<svg width="1150pt" height="212pt"
 viewBox="0.00 0.00 1149.50 212.38" xmlns="http://www.w3.org/2000/svg" xmlns:xlink="http://www.w3.org/1999/xlink">
<g id="graph0" class="graph" transform="scale(1 1) rotate(0) translate(4 208.38)">
<title>CPS::DP::Ph1::ResIndSeries</title>
<!-- Node1 -->
<g id="Node000001" class="node">
<title>Node1</title>
<g id="a_Node000001"><a xlink:title="resistor inductor series element">
<polygon fill="#999999" stroke="#666666" points="1141.5,-92.25 998,-92.25 998,-70 1141.5,-70 1141.5,-92.25"/>
<text text-anchor="middle" x="1069.75" y="-78.75" font-family="Helvetica,sans-Serif" font-size="10.00">CPS::DP::Ph1::ResIndSeries</text>
</a>
</g>
</g>
<!-- Node2 -->
<g id="Node000002" class="node">
<title>Node2</title>
<g id="a_Node000002"><a xlink:href="class_c_p_s_1_1_m_n_a_tear_interface.html" target="_top" xlink:title=" ">
<polygon fill="white" stroke="#bfbfbf" points="943.75,-139.25 818.25,-139.25 818.25,-117 943.75,-117 943.75,-139.25"/>
<text text-anchor="middle" x="881" y="-125.75" font-family="Helvetica,sans-Serif" font-size="10.00">CPS::MNATearInterface</text>
</a>
</g>
</g>
<!-- Node2&#45;&gt;Node1 -->
<g id="edge1_Node000001_Node000002" class="edge">
<title>Node2&#45;&gt;Node1</title>
<g id="a_edge1_Node000001_Node000002"><a xlink:title=" ">
<path fill="none" stroke="#63b8ff" d="M939.33,-113.7C966.12,-106.95 997.59,-99.03 1022.79,-92.69"/>
<polygon fill="#63b8ff" stroke="#63b8ff" points="938.47,-110.3 929.63,-116.14 940.18,-117.09 938.47,-110.3"/>
</a>
</g>
</g>
<!-- Node3 -->
<g id="Node000003" class="node">
<title>Node3</title>
<g id="a_Node000003"><a xlink:href="class_c_p_s_1_1_m_n_a_sim_power_comp.html" target="_top" xlink:title=" ">
<polygon fill="white" stroke="#666666" points="949,-99.38 813,-99.38 813,-62.88 949,-62.88 949,-99.38"/>
<text text-anchor="start" x="821" y="-85.88" font-family="Helvetica,sans-Serif" font-size="10.00">CPS::MNASimPowerComp</text>
<text text-anchor="middle" x="881" y="-71.62" font-family="Helvetica,sans-Serif" font-size="10.00">&lt; Complex &gt;</text>
</a>
</g>
</g>
<!-- Node3&#45;&gt;Node1 -->
<g id="edge2_Node000001_Node000003" class="edge">
<title>Node3&#45;&gt;Node1</title>
<g id="a_edge2_Node000001_Node000003"><a xlink:title=" ">
<path fill="none" stroke="#63b8ff" d="M960.59,-81.12C972.89,-81.12 985.53,-81.12 997.65,-81.12"/>
<polygon fill="#63b8ff" stroke="#63b8ff" points="960.93,-77.63 950.93,-81.13 960.93,-84.63 960.93,-77.63"/>
</a>
</g>
</g>
<!-- Node4 -->
<g id="Node000004" class="node">
<title>Node4</title>
<g id="a_Node000004"><a xlink:href="class_c_p_s_1_1_sim_power_comp.html" target="_top" xlink:title=" ">
<polygon fill="white" stroke="#666666" points="676.88,-168.38 558.12,-168.38 558.12,-131.88 676.88,-131.88 676.88,-168.38"/>
<text text-anchor="start" x="566.12" y="-154.88" font-family="Helvetica,sans-Serif" font-size="10.00">CPS::SimPowerComp&lt;</text>
<text text-anchor="middle" x="617.5" y="-140.62" font-family="Helvetica,sans-Serif" font-size="10.00"> Complex &gt;</text>
</a>
</g>
</g>
<!-- Node4&#45;&gt;Node3 -->
<g id="edge3_Node000003_Node000004" class="edge">
<title>Node4&#45;&gt;Node3</title>
<g id="a_edge3_Node000003_Node000004"><a xlink:title=" ">
<path fill="none" stroke="#63b8ff" d="M688.33,-141.52C718.08,-136.59 752.82,-129.13 783,-118.12 791.6,-114.99 792.64,-111.84 801,-108.12 807.62,-105.18 814.67,-102.36 821.73,-99.72"/>
<polygon fill="#63b8ff" stroke="#63b8ff" points="688.01,-138.03 678.68,-143.05 689.1,-144.94 688.01,-138.03"/>
</a>
</g>
</g>
<!-- Node5 -->
<g id="Node000005" class="node">
<title>Node5</title>
<g id="a_Node000005"><a xlink:href="class_c_p_s_1_1_topological_power_comp.html" target="_top" xlink:title=" ">
<polygon fill="white" stroke="#666666" points="299.25,-151.25 152,-151.25 152,-129 299.25,-129 299.25,-151.25"/>
<text text-anchor="middle" x="225.62" y="-137.75" font-family="Helvetica,sans-Serif" font-size="10.00">CPS::TopologicalPowerComp</text>
</a>
</g>
</g>
<!-- Node5&#45;&gt;Node4 -->
<g id="edge4_Node000004_Node000005" class="edge">
<title>Node5&#45;&gt;Node4</title>
<g id="a_edge4_Node000004_Node000005"><a xlink:title=" ">
<path fill="none" stroke="#63b8ff" d="M310.7,-142.28C385.18,-144.19 491.99,-146.93 557.67,-148.62"/>
<polygon fill="#63b8ff" stroke="#63b8ff" points="311.1,-138.79 301.01,-142.03 310.92,-145.79 311.1,-138.79"/>
</a>
</g>
</g>
<!-- Node7 -->
<g id="Node000007" class="node">
<title>Node7</title>
<g id="a_Node000007"><a xlink:href="class_c_p_s_1_1_sim_power_comp.html" target="_top" xlink:title="Base class for all components that are transmitting power.">
<polygon fill="white" stroke="#666666" points="455,-204.38 336.25,-204.38 336.25,-167.88 455,-167.88 455,-204.38"/>
<text text-anchor="start" x="344.25" y="-190.88" font-family="Helvetica,sans-Serif" font-size="10.00">CPS::SimPowerComp&lt;</text>
<text text-anchor="middle" x="395.62" y="-176.62" font-family="Helvetica,sans-Serif" font-size="10.00"> VarType &gt;</text>
</a>
</g>
</g>
<!-- Node5&#45;&gt;Node7 -->
<g id="edge7_Node000007_Node000005" class="edge">
<title>Node5&#45;&gt;Node7</title>
<g id="a_edge7_Node000007_Node000005"><a xlink:title=" ">
<path fill="none" stroke="#63b8ff" d="M280.1,-154.77C297.92,-159.65 317.87,-165.11 336.07,-170.09"/>
<polygon fill="#63b8ff" stroke="#63b8ff" points="281.05,-151.4 270.48,-152.13 279.2,-158.15 281.05,-151.4"/>
</a>
</g>
</g>
<!-- Node10 -->
<g id="Node000010" class="node">
<title>Node10</title>
<g id="a_Node000010"><a xlink:href="class_c_p_s_1_1_sim_power_comp.html" target="_top" xlink:title="Base class for all components that are transmitting power.">
<polygon fill="white" stroke="#666666" points="455,-72.38 336.25,-72.38 336.25,-35.88 455,-35.88 455,-72.38"/>
<text text-anchor="start" x="344.25" y="-58.88" font-family="Helvetica,sans-Serif" font-size="10.00">CPS::SimPowerComp&lt;</text>
<text text-anchor="middle" x="395.62" y="-44.62" font-family="Helvetica,sans-Serif" font-size="10.00"> VarType &gt;</text>
</a>
</g>
</g>
<!-- Node5&#45;&gt;Node10 -->
<g id="edge11_Node000010_Node000005" class="edge">
<title>Node5&#45;&gt;Node10</title>
<g id="a_edge11_Node000010_Node000005"><a xlink:title=" ">
<path fill="none" stroke="#63b8ff" d="M257.04,-123.11C278.9,-111.05 309.17,-94.66 336.25,-81.12 341.74,-78.38 347.57,-75.57 353.34,-72.84"/>
<polygon fill="#63b8ff" stroke="#63b8ff" points="255.41,-120.02 248.36,-127.93 258.81,-126.14 255.41,-120.02"/>
</a>
</g>
</g>
<!-- Node6 -->
<g id="Node000006" class="node">
<title>Node6</title>
<g id="a_Node000006"><a xlink:href="class_c_p_s_1_1_identified_object.html" target="_top" xlink:title=" ">
<polygon fill="white" stroke="#666666" points="115,-151.25 0,-151.25 0,-129 115,-129 115,-151.25"/>
<text text-anchor="middle" x="57.5" y="-137.75" font-family="Helvetica,sans-Serif" font-size="10.00">CPS::IdentifiedObject</text>
</a>
</g>
</g>
<!-- Node6&#45;&gt;Node5 -->
<g id="edge5_Node000005_Node000006" class="edge">
<title>Node6&#45;&gt;Node5</title>
<g id="a_edge5_Node000005_Node000006"><a xlink:title=" ">
<path fill="none" stroke="#63b8ff" d="M126.7,-140.12C134.95,-140.12 143.41,-140.12 151.73,-140.12"/>
<polygon fill="#63b8ff" stroke="#63b8ff" points="126.72,-136.63 116.72,-140.13 126.72,-143.63 126.72,-136.63"/>
</a>
</g>
</g>
<!-- Node7&#45;&gt;Node4 -->
<g id="edge6_Node000004_Node000007" class="edge">
<title>Node7&#45;&gt;Node4</title>
<g id="a_edge6_Node000004_Node000007"><a xlink:title=" ">
<path fill="none" stroke="orange" stroke-dasharray="5,2" d="M466.28,-174.72C495.68,-169.91 529.53,-164.36 557.65,-159.76"/>
<polygon fill="orange" stroke="orange" points="466.06,-171.21 456.75,-176.28 467.19,-178.12 466.06,-171.21"/>
</a>
</g>
<text text-anchor="middle" x="502.25" y="-178.2" font-family="Helvetica,sans-Serif" font-size="10.00" fill="grey"> &lt; Complex &gt;</text>
</g>
<!-- Node8 -->
<g id="Node000008" class="node">
<title>Node8</title>
<g id="a_Node000008"><a xlink:href="class_c_p_s_1_1_m_n_a_interface.html" target="_top" xlink:title="Interface to be implemented by all models used by the MNA solver.">
<polygon fill="white" stroke="#666666" points="448.62,-112.25 342.62,-112.25 342.62,-90 448.62,-90 448.62,-112.25"/>
<text text-anchor="middle" x="395.62" y="-98.75" font-family="Helvetica,sans-Serif" font-size="10.00">CPS::MNAInterface</text>
</a>
</g>
</g>
<!-- Node8&#45;&gt;Node3 -->
<g id="edge8_Node000003_Node000008" class="edge">
<title>Node8&#45;&gt;Node3</title>
<g id="a_edge8_Node000003_Node000008"><a xlink:title=" ">
<path fill="none" stroke="#63b8ff" d="M460.2,-100.56C536.82,-99.6 669.43,-97 783,-90.12 792.62,-89.54 802.77,-88.77 812.73,-87.93"/>
<polygon fill="#63b8ff" stroke="#63b8ff" points="460.33,-97.06 450.37,-100.68 460.41,-104.06 460.33,-97.06"/>
</a>
</g>
</g>
<!-- Node9 -->
<g id="Node000009" class="node">
<title>Node9</title>
<g id="a_Node000009"><a xlink:href="class_c_p_s_1_1_m_n_a_sim_power_comp.html" target="_top" xlink:title="Base class for all MNA components that are transmitting power.">
<polygon fill="white" stroke="#666666" points="685.5,-76.38 549.5,-76.38 549.5,-39.88 685.5,-39.88 685.5,-76.38"/>
<text text-anchor="start" x="557.5" y="-62.88" font-family="Helvetica,sans-Serif" font-size="10.00">CPS::MNASimPowerComp</text>
<text text-anchor="middle" x="617.5" y="-48.62" font-family="Helvetica,sans-Serif" font-size="10.00">&lt; VarType &gt;</text>
</a>
</g>
</g>
<!-- Node8&#45;&gt;Node9 -->
<g id="edge12_Node000009_Node000008" class="edge">
<title>Node8&#45;&gt;Node9</title>
<g id="a_edge12_Node000009_Node000008"><a xlink:title=" ">
<path fill="none" stroke="#63b8ff" d="M460.23,-88.69C488.09,-83.24 520.81,-76.84 549.09,-71.31"/>
<polygon fill="#63b8ff" stroke="#63b8ff" points="459.64,-85.24 450.5,-90.59 460.98,-92.11 459.64,-85.24"/>
</a>
</g>
</g>
<!-- Node9&#45;&gt;Node3 -->
<g id="edge9_Node000003_Node000009" class="edge">
<title>Node9&#45;&gt;Node3</title>
<g id="a_edge9_Node000003_Node000009"><a xlink:title=" ">
<path fill="none" stroke="orange" stroke-dasharray="5,2" d="M697.07,-65.04C733.98,-68.28 777.54,-72.11 812.89,-75.22"/>
<polygon fill="orange" stroke="orange" points="697.62,-61.57 687.35,-64.18 697.01,-68.54 697.62,-61.57"/>
</a>
</g>
<text text-anchor="middle" x="743.25" y="-77.11" font-family="Helvetica,sans-Serif" font-size="10.00" fill="grey"> &lt; Complex &gt;</text>
</g>
<!-- Node10&#45;&gt;Node9 -->
<g id="edge10_Node000009_Node000010" class="edge">
<title>Node10&#45;&gt;Node9</title>
<g id="a_edge10_Node000009_Node000010"><a xlink:title=" ">
<path fill="none" stroke="#63b8ff" d="M466.71,-55.4C493.07,-55.88 522.97,-56.42 549.08,-56.9"/>
<polygon fill="#63b8ff" stroke="#63b8ff" points="466.83,-51.9 456.77,-55.22 466.71,-58.9 466.83,-51.9"/>
</a>
</g>
</g>
<!-- Node11 -->
<g id="Node000011" class="node">
<title>Node11</title>
<g id="a_Node000011"><a xlink:href="class_shared_factory.html" target="_top" xlink:title=" ">
<polygon fill="white" stroke="#666666" points="961,-37.25 801,-37.25 801,-15 961,-15 961,-37.25"/>
<text text-anchor="middle" x="881" y="-23.75" font-family="Helvetica,sans-Serif" font-size="10.00">SharedFactory&lt; ResIndSeries &gt;</text>
</a>
</g>
</g>
<!-- Node11&#45;&gt;Node1 -->
<g id="edge13_Node000001_Node000011" class="edge">
<title>Node11&#45;&gt;Node1</title>
<g id="a_edge13_Node000001_Node000011"><a xlink:title=" ">
<path fill="none" stroke="#63b8ff" d="M932,-40.85C962.51,-49.84 1000.98,-61.16 1029.33,-69.52"/>
<polygon fill="#63b8ff" stroke="#63b8ff" points="933.18,-37.55 922.6,-38.08 931.2,-44.27 933.18,-37.55"/>
</a>
</g>
</g>
<!-- Node12 -->
<g id="Node000012" class="node">
<title>Node12</title>
<g id="a_Node000012"><a xlink:href="class_shared_factory.html" target="_top" xlink:title=" ">
<polygon fill="white" stroke="#666666" points="669.75,-22.25 565.25,-22.25 565.25,0 669.75,0 669.75,-22.25"/>
<text text-anchor="middle" x="617.5" y="-8.75" font-family="Helvetica,sans-Serif" font-size="10.00">SharedFactory&lt; T &gt;</text>
</a>
</g>
</g>
<!-- Node12&#45;&gt;Node11 -->
<g id="edge14_Node000011_Node000012" class="edge">
<title>Node12&#45;&gt;Node11</title>
<g id="a_edge14_Node000011_Node000012"><a xlink:title=" ">
<path fill="none" stroke="orange" stroke-dasharray="5,2" d="M681.44,-14.74C717.24,-16.79 762.41,-19.38 800.63,-21.57"/>
<polygon fill="orange" stroke="orange" points="681.86,-11.25 671.68,-14.18 681.46,-18.24 681.86,-11.25"/>
</a>
</g>
<text text-anchor="middle" x="743.25" y="-25.16" font-family="Helvetica,sans-Serif" font-size="10.00" fill="grey"> &lt; ResIndSeries &gt;</text>
</g>
</g>
</svg>
