<?xml version="1.0" encoding="UTF-8" standalone="no"?>
<!DOCTYPE svg PUBLIC "-//W3C//DTD SVG 1.1//EN"
 "http://www.w3.org/Graphics/SVG/1.1/DTD/svg11.dtd">
<!-- Generated by graphviz version 12.2.1 (20241206.2353)
 -->
<!-- Title: CPS::DP::SSNComp Pages: 1 -->
<svg width="1588pt" height="320pt"
 viewBox="0.00 0.00 1587.50 319.50" xmlns="http://www.w3.org/2000/svg" xmlns:xlink="http://www.w3.org/1999/xlink">
<g id="graph0" class="graph" transform="scale(1 1) rotate(0) translate(4 315.5)">
<title>CPS::DP::SSNComp</title>
<!-- Node1 -->
<g id="Node000001" class="node">
<title>Node1</title>
<g id="a_Node000001"><a xlink:title="Abstract base class for DP/SFA state&#45;space nodal (SSN) components.">
<polygon fill="#999999" stroke="#666666" points="1056.75,-194.38 953,-194.38 953,-172.12 1056.75,-172.12 1056.75,-194.38"/>
<text text-anchor="middle" x="1004.88" y="-180.88" font-family="Helvetica,sans-Serif" font-size="10.00">CPS::DP::SSNComp</text>
</a>
</g>
</g>
<!-- Node10 -->
<g id="Node000010" class="node">
<title>Node10</title>
<g id="a_Node000010"><a xlink:href="class_c_p_s_1_1_d_p_1_1_i_type_s_s_n_comp.html" target="_top" xlink:title="Abstract base for DP I&#45;type SSN components (input current, output voltage).">
<polygon fill="white" stroke="#666666" points="1224.88,-249.38 1094.88,-249.38 1094.88,-227.12 1224.88,-227.12 1224.88,-249.38"/>
<text text-anchor="middle" x="1159.88" y="-235.88" font-family="Helvetica,sans-Serif" font-size="10.00">CPS::DP::ITypeSSNComp</text>
</a>
</g>
</g>
<!-- Node1&#45;&gt;Node10 -->
<g id="edge12_Node000001_Node000010" class="edge">
<title>Node1&#45;&gt;Node10</title>
<g id="a_edge12_Node000001_Node000010"><a xlink:title=" ">
<path fill="none" stroke="#63b8ff" d="M1048.49,-198.57C1073.22,-207.46 1103.86,-218.47 1126.58,-226.64"/>
<polygon fill="#63b8ff" stroke="#63b8ff" points="1049.97,-195.38 1039.37,-195.29 1047.6,-201.97 1049.97,-195.38"/>
</a>
</g>
</g>
<!-- Node15 -->
<g id="Node000015" class="node">
<title>Node15</title>
<g id="a_Node000015"><a xlink:href="class_c_p_s_1_1_d_p_1_1_v_type_s_s_n_comp.html" target="_top" xlink:title="Abstract base for DP V&#45;type SSN components (input voltage, output current).">
<polygon fill="white" stroke="#666666" points="1226,-167.38 1093.75,-167.38 1093.75,-145.12 1226,-145.12 1226,-167.38"/>
<text text-anchor="middle" x="1159.88" y="-153.88" font-family="Helvetica,sans-Serif" font-size="10.00">CPS::DP::VTypeSSNComp</text>
</a>
</g>
</g>
<!-- Node1&#45;&gt;Node15 -->
<g id="edge17_Node000001_Node000015" class="edge">
<title>Node1&#45;&gt;Node15</title>
<g id="a_edge17_Node000001_Node000015"><a xlink:title=" ">
<path fill="none" stroke="#63b8ff" d="M1068.37,-172.22C1076.66,-170.76 1085.17,-169.26 1093.51,-167.79"/>
<polygon fill="#63b8ff" stroke="#63b8ff" points="1067.98,-168.74 1058.74,-173.92 1069.19,-175.63 1067.98,-168.74"/>
</a>
</g>
</g>
<!-- Node2 -->
<g id="Node000002" class="node">
<title>Node2</title>
<g id="a_Node000002"><a xlink:href="class_c_p_s_1_1_m_n_a_sim_power_comp.html" target="_top" xlink:title=" ">
<polygon fill="white" stroke="#666666" points="916,-201.5 780,-201.5 780,-165 916,-165 916,-201.5"/>
<text text-anchor="start" x="788" y="-188" font-family="Helvetica,sans-Serif" font-size="10.00">CPS::MNASimPowerComp</text>
<text text-anchor="middle" x="848" y="-173.75" font-family="Helvetica,sans-Serif" font-size="10.00">&lt; Complex &gt;</text>
</a>
</g>
</g>
<!-- Node2&#45;&gt;Node1 -->
<g id="edge1_Node000001_Node000002" class="edge">
<title>Node2&#45;&gt;Node1</title>
<g id="a_edge1_Node000001_Node000002"><a xlink:title=" ">
<path fill="none" stroke="#63b8ff" d="M927.71,-183.25C936.28,-183.25 944.82,-183.25 952.93,-183.25"/>
<polygon fill="#63b8ff" stroke="#63b8ff" points="927.99,-179.75 917.99,-183.25 927.99,-186.75 927.99,-179.75"/>
</a>
</g>
</g>
<!-- Node3 -->
<g id="Node000003" class="node">
<title>Node3</title>
<g id="a_Node000003"><a xlink:href="class_c_p_s_1_1_sim_power_comp.html" target="_top" xlink:title=" ">
<polygon fill="white" stroke="#666666" points="676.88,-146.5 558.12,-146.5 558.12,-110 676.88,-110 676.88,-146.5"/>
<text text-anchor="start" x="566.12" y="-133" font-family="Helvetica,sans-Serif" font-size="10.00">CPS::SimPowerComp&lt;</text>
<text text-anchor="middle" x="617.5" y="-118.75" font-family="Helvetica,sans-Serif" font-size="10.00"> Complex &gt;</text>
</a>
</g>
</g>
<!-- Node3&#45;&gt;Node2 -->
<g id="edge2_Node000002_Node000003" class="edge">
<title>Node3&#45;&gt;Node2</title>
<g id="a_edge2_Node000002_Node000003"><a xlink:title=" ">
<path fill="none" stroke="#63b8ff" d="M688.26,-145.04C717.37,-152.05 751.04,-160.15 779.87,-167.09"/>
<polygon fill="#63b8ff" stroke="#63b8ff" points="689.36,-141.71 678.82,-142.77 687.72,-148.51 689.36,-141.71"/>
</a>
</g>
</g>
<!-- Node4 -->
<g id="Node000004" class="node">
<title>Node4</title>
<g id="a_Node000004"><a xlink:href="class_c_p_s_1_1_topological_power_comp.html" target="_top" xlink:title=" ">
<polygon fill="white" stroke="#666666" points="299.25,-144.38 152,-144.38 152,-122.12 299.25,-122.12 299.25,-144.38"/>
<text text-anchor="middle" x="225.62" y="-130.88" font-family="Helvetica,sans-Serif" font-size="10.00">CPS::TopologicalPowerComp</text>
</a>
</g>
</g>
<!-- Node4&#45;&gt;Node3 -->
<g id="edge3_Node000003_Node000004" class="edge">
<title>Node4&#45;&gt;Node3</title>
<g id="a_edge3_Node000003_Node000004"><a xlink:title=" ">
<path fill="none" stroke="#63b8ff" d="M310.7,-132.17C385.18,-131.22 491.99,-129.85 557.67,-129"/>
<polygon fill="#63b8ff" stroke="#63b8ff" points="310.97,-128.67 301.01,-132.3 311.06,-135.67 310.97,-128.67"/>
</a>
</g>
</g>
<!-- Node6 -->
<g id="Node000006" class="node">
<title>Node6</title>
<g id="a_Node000006"><a xlink:href="class_c_p_s_1_1_sim_power_comp.html" target="_top" xlink:title="Base class for all components that are transmitting power.">
<polygon fill="white" stroke="#666666" points="455,-105.5 336.25,-105.5 336.25,-69 455,-69 455,-105.5"/>
<text text-anchor="start" x="344.25" y="-92" font-family="Helvetica,sans-Serif" font-size="10.00">CPS::SimPowerComp&lt;</text>
<text text-anchor="middle" x="395.62" y="-77.75" font-family="Helvetica,sans-Serif" font-size="10.00"> VarType &gt;</text>
</a>
</g>
</g>
<!-- Node4&#45;&gt;Node6 -->
<g id="edge6_Node000006_Node000004" class="edge">
<title>Node4&#45;&gt;Node6</title>
<g id="a_edge6_Node000006_Node000004"><a xlink:title=" ">
<path fill="none" stroke="#63b8ff" d="M280.1,-118.61C297.92,-113.73 317.87,-108.27 336.07,-103.28"/>
<polygon fill="#63b8ff" stroke="#63b8ff" points="279.2,-115.23 270.48,-121.24 281.05,-121.98 279.2,-115.23"/>
</a>
</g>
</g>
<!-- Node9 -->
<g id="Node000009" class="node">
<title>Node9</title>
<g id="a_Node000009"><a xlink:href="class_c_p_s_1_1_sim_power_comp.html" target="_top" xlink:title="Base class for all components that are transmitting power.">
<polygon fill="white" stroke="#666666" points="455,-197.5 336.25,-197.5 336.25,-161 455,-161 455,-197.5"/>
<text text-anchor="start" x="344.25" y="-184" font-family="Helvetica,sans-Serif" font-size="10.00">CPS::SimPowerComp&lt;</text>
<text text-anchor="middle" x="395.62" y="-169.75" font-family="Helvetica,sans-Serif" font-size="10.00"> VarType &gt;</text>
</a>
</g>
</g>
<!-- Node4&#45;&gt;Node9 -->
<g id="edge10_Node000009_Node000004" class="edge">
<title>Node4&#45;&gt;Node9</title>
<g id="a_edge10_Node000009_Node000004"><a xlink:title=" ">
<path fill="none" stroke="#63b8ff" d="M280.1,-147.89C297.92,-152.77 317.87,-158.23 336.07,-163.22"/>
<polygon fill="#63b8ff" stroke="#63b8ff" points="281.05,-144.52 270.48,-145.26 279.2,-151.27 281.05,-144.52"/>
</a>
</g>
</g>
<!-- Node5 -->
<g id="Node000005" class="node">
<title>Node5</title>
<g id="a_Node000005"><a xlink:href="class_c_p_s_1_1_identified_object.html" target="_top" xlink:title=" ">
<polygon fill="white" stroke="#666666" points="115,-144.38 0,-144.38 0,-122.12 115,-122.12 115,-144.38"/>
<text text-anchor="middle" x="57.5" y="-130.88" font-family="Helvetica,sans-Serif" font-size="10.00">CPS::IdentifiedObject</text>
</a>
</g>
</g>
<!-- Node5&#45;&gt;Node4 -->
<g id="edge4_Node000004_Node000005" class="edge">
<title>Node5&#45;&gt;Node4</title>
<g id="a_edge4_Node000004_Node000005"><a xlink:title=" ">
<path fill="none" stroke="#63b8ff" d="M126.7,-133.25C134.95,-133.25 143.41,-133.25 151.73,-133.25"/>
<polygon fill="#63b8ff" stroke="#63b8ff" points="126.72,-129.75 116.72,-133.25 126.72,-136.75 126.72,-129.75"/>
</a>
</g>
</g>
<!-- Node6&#45;&gt;Node3 -->
<g id="edge5_Node000003_Node000006" class="edge">
<title>Node6&#45;&gt;Node3</title>
<g id="a_edge5_Node000003_Node000006"><a xlink:title=" ">
<path fill="none" stroke="orange" stroke-dasharray="5,2" d="M466.73,-94.64C487.66,-97.34 510.6,-100.79 531.5,-105 540.05,-106.72 549,-108.83 557.76,-111.07"/>
<polygon fill="orange" stroke="orange" points="467.19,-91.17 456.84,-93.4 466.32,-98.11 467.19,-91.17"/>
</a>
</g>
<text text-anchor="middle" x="502.25" y="-109.75" font-family="Helvetica,sans-Serif" font-size="10.00" fill="grey"> &lt; Complex &gt;</text>
</g>
<!-- Node7 -->
<g id="Node000007" class="node">
<title>Node7</title>
<g id="a_Node000007"><a xlink:href="class_c_p_s_1_1_m_n_a_interface.html" target="_top" xlink:title="Interface to be implemented by all models used by the MNA solver.">
<polygon fill="white" stroke="#666666" points="448.62,-239.38 342.62,-239.38 342.62,-217.12 448.62,-217.12 448.62,-239.38"/>
<text text-anchor="middle" x="395.62" y="-225.88" font-family="Helvetica,sans-Serif" font-size="10.00">CPS::MNAInterface</text>
</a>
</g>
</g>
<!-- Node7&#45;&gt;Node2 -->
<g id="edge7_Node000002_Node000007" class="edge">
<title>Node7&#45;&gt;Node2</title>
<g id="a_edge7_Node000002_Node000007"><a xlink:title=" ">
<path fill="none" stroke="#63b8ff" d="M460.31,-226.98C533.54,-224.72 657.14,-218.48 762,-201.25 767.8,-200.3 773.81,-199.21 779.83,-198.07"/>
<polygon fill="#63b8ff" stroke="#63b8ff" points="460.41,-223.47 450.52,-227.26 460.62,-230.47 460.41,-223.47"/>
</a>
</g>
</g>
<!-- Node8 -->
<g id="Node000008" class="node">
<title>Node8</title>
<g id="a_Node000008"><a xlink:href="class_c_p_s_1_1_m_n_a_sim_power_comp.html" target="_top" xlink:title="Base class for all MNA components that are transmitting power.">
<polygon fill="white" stroke="#666666" points="685.5,-201.5 549.5,-201.5 549.5,-165 685.5,-165 685.5,-201.5"/>
<text text-anchor="start" x="557.5" y="-188" font-family="Helvetica,sans-Serif" font-size="10.00">CPS::MNASimPowerComp</text>
<text text-anchor="middle" x="617.5" y="-173.75" font-family="Helvetica,sans-Serif" font-size="10.00">&lt; VarType &gt;</text>
</a>
</g>
</g>
<!-- Node7&#45;&gt;Node8 -->
<g id="edge11_Node000008_Node000007" class="edge">
<title>Node7&#45;&gt;Node8</title>
<g id="a_edge11_Node000008_Node000007"><a xlink:title=" ">
<path fill="none" stroke="#63b8ff" d="M460.23,-215.23C488.09,-209.53 520.81,-202.83 549.09,-197.05"/>
<polygon fill="#63b8ff" stroke="#63b8ff" points="459.59,-211.79 450.49,-217.23 460.99,-218.65 459.59,-211.79"/>
</a>
</g>
</g>
<!-- Node8&#45;&gt;Node2 -->
<g id="edge8_Node000002_Node000008" class="edge">
<title>Node8&#45;&gt;Node2</title>
<g id="a_edge8_Node000002_Node000008"><a xlink:title=" ">
<path fill="none" stroke="orange" stroke-dasharray="5,2" d="M697.15,-183.25C724.04,-183.25 753.86,-183.25 779.77,-183.25"/>
<polygon fill="orange" stroke="orange" points="697.34,-179.75 687.34,-183.25 697.34,-186.75 697.34,-179.75"/>
</a>
</g>
<text text-anchor="middle" x="732.75" y="-188" font-family="Helvetica,sans-Serif" font-size="10.00" fill="grey"> &lt; Complex &gt;</text>
</g>
<!-- Node9&#45;&gt;Node8 -->
<g id="edge9_Node000008_Node000009" class="edge">
<title>Node9&#45;&gt;Node8</title>
<g id="a_edge9_Node000008_Node000009"><a xlink:title=" ">
<path fill="none" stroke="#63b8ff" d="M466.71,-180.52C493.07,-181 522.97,-181.55 549.08,-182.02"/>
<polygon fill="#63b8ff" stroke="#63b8ff" points="466.83,-177.03 456.77,-180.34 466.71,-184.03 466.83,-177.03"/>
</a>
</g>
</g>
<!-- Node11 -->
<g id="Node000011" class="node">
<title>Node11</title>
<g id="a_Node000011"><a xlink:href="class_c_p_s_1_1_d_p_1_1_ph1_1_1_two_terminal_i_type_s_s_n_comp.html" target="_top" xlink:title="Single&#45;phase, two&#45;terminal I&#45;type SSN stamping layer.">
<polygon fill="white" stroke="#666666" points="1404.25,-311.5 1263,-311.5 1263,-275 1404.25,-275 1404.25,-311.5"/>
<text text-anchor="start" x="1271" y="-298" font-family="Helvetica,sans-Serif" font-size="10.00">CPS::DP::Ph1::TwoTerminal</text>
<text text-anchor="middle" x="1333.62" y="-283.75" font-family="Helvetica,sans-Serif" font-size="10.00">ITypeSSNComp</text>
</a>
</g>
</g>
<!-- Node10&#45;&gt;Node11 -->
<g id="edge13_Node000010_Node000011" class="edge">
<title>Node10&#45;&gt;Node11</title>
<g id="a_edge13_Node000010_Node000011"><a xlink:title=" ">
<path fill="none" stroke="#63b8ff" d="M1207.58,-253.2C1228.17,-259.8 1252.59,-267.62 1274.36,-274.59"/>
<polygon fill="#63b8ff" stroke="#63b8ff" points="1208.91,-249.96 1198.32,-250.24 1206.78,-256.62 1208.91,-249.96"/>
</a>
</g>
</g>
<!-- Node13 -->
<g id="Node000013" class="node">
<title>Node13</title>
<g id="a_Node000013"><a xlink:href="class_c_p_s_1_1_d_p_1_1_ph3_1_1_two_terminal_i_type_s_s_n_comp.html" target="_top" xlink:title="Three&#45;phase, two&#45;terminal I&#45;type SSN stamping layer.">
<polygon fill="white" stroke="#666666" points="1404.25,-256.5 1263,-256.5 1263,-220 1404.25,-220 1404.25,-256.5"/>
<text text-anchor="start" x="1271" y="-243" font-family="Helvetica,sans-Serif" font-size="10.00">CPS::DP::Ph3::TwoTerminal</text>
<text text-anchor="middle" x="1333.62" y="-228.75" font-family="Helvetica,sans-Serif" font-size="10.00">ITypeSSNComp</text>
</a>
</g>
</g>
<!-- Node10&#45;&gt;Node13 -->
<g id="edge15_Node000010_Node000013" class="edge">
<title>Node10&#45;&gt;Node13</title>
<g id="a_edge15_Node000010_Node000013"><a xlink:title=" ">
<path fill="none" stroke="#63b8ff" d="M1236.59,-238.25C1245.26,-238.25 1254.06,-238.25 1262.64,-238.25"/>
<polygon fill="#63b8ff" stroke="#63b8ff" points="1236.83,-234.75 1226.83,-238.25 1236.83,-241.75 1236.83,-234.75"/>
</a>
</g>
</g>
<!-- Node12 -->
<g id="Node000012" class="node">
<title>Node12</title>
<g id="a_Node000012"><a xlink:href="class_c_p_s_1_1_d_p_1_1_ph1_1_1_generic_two_terminal_i_type_s_s_n.html" target="_top" xlink:title="Generic single&#45;phase, two&#45;terminal I&#45;type SSN component.">
<polygon fill="white" stroke="#666666" points="1579.5,-311.5 1441.25,-311.5 1441.25,-275 1579.5,-275 1579.5,-311.5"/>
<text text-anchor="start" x="1449.25" y="-298" font-family="Helvetica,sans-Serif" font-size="10.00">CPS::DP::Ph1::GenericTwo</text>
<text text-anchor="middle" x="1510.38" y="-283.75" font-family="Helvetica,sans-Serif" font-size="10.00">TerminalITypeSSN</text>
</a>
</g>
</g>
<!-- Node11&#45;&gt;Node12 -->
<g id="edge14_Node000011_Node000012" class="edge">
<title>Node11&#45;&gt;Node12</title>
<g id="a_edge14_Node000011_Node000012"><a xlink:title=" ">
<path fill="none" stroke="#63b8ff" d="M1416.02,-293.25C1424.37,-293.25 1432.8,-293.25 1440.99,-293.25"/>
<polygon fill="#63b8ff" stroke="#63b8ff" points="1416.21,-289.75 1406.21,-293.25 1416.21,-296.75 1416.21,-289.75"/>
</a>
</g>
</g>
<!-- Node14 -->
<g id="Node000014" class="node">
<title>Node14</title>
<g id="a_Node000014"><a xlink:href="class_c_p_s_1_1_d_p_1_1_ph3_1_1_generic_two_terminal_i_type_s_s_n.html" target="_top" xlink:title="Generic three&#45;phase, two&#45;terminal I&#45;type SSN component.">
<polygon fill="white" stroke="#666666" points="1579.5,-256.5 1441.25,-256.5 1441.25,-220 1579.5,-220 1579.5,-256.5"/>
<text text-anchor="start" x="1449.25" y="-243" font-family="Helvetica,sans-Serif" font-size="10.00">CPS::DP::Ph3::GenericTwo</text>
<text text-anchor="middle" x="1510.38" y="-228.75" font-family="Helvetica,sans-Serif" font-size="10.00">TerminalITypeSSN</text>
</a>
</g>
</g>
<!-- Node13&#45;&gt;Node14 -->
<g id="edge16_Node000013_Node000014" class="edge">
<title>Node13&#45;&gt;Node14</title>
<g id="a_edge16_Node000013_Node000014"><a xlink:title=" ">
<path fill="none" stroke="#63b8ff" d="M1416.02,-238.25C1424.37,-238.25 1432.8,-238.25 1440.99,-238.25"/>
<polygon fill="#63b8ff" stroke="#63b8ff" points="1416.21,-234.75 1406.21,-238.25 1416.21,-241.75 1416.21,-234.75"/>
</a>
</g>
</g>
<!-- Node16 -->
<g id="Node000016" class="node">
<title>Node16</title>
<g id="a_Node000016"><a xlink:href="class_c_p_s_1_1_d_p_1_1_ph1_1_1_two_terminal_v_type_s_s_n_comp.html" target="_top" xlink:title="Single&#45;phase, two&#45;terminal V&#45;type SSN stamping layer.">
<polygon fill="white" stroke="#666666" points="1404.25,-174.5 1263,-174.5 1263,-138 1404.25,-138 1404.25,-174.5"/>
<text text-anchor="start" x="1271" y="-161" font-family="Helvetica,sans-Serif" font-size="10.00">CPS::DP::Ph1::TwoTerminal</text>
<text text-anchor="middle" x="1333.62" y="-146.75" font-family="Helvetica,sans-Serif" font-size="10.00">VTypeSSNComp</text>
</a>
</g>
</g>
<!-- Node15&#45;&gt;Node16 -->
<g id="edge18_Node000015_Node000016" class="edge">
<title>Node15&#45;&gt;Node16</title>
<g id="a_edge18_Node000015_Node000016"><a xlink:title=" ">
<path fill="none" stroke="#63b8ff" d="M1237.54,-156.25C1245.86,-156.25 1254.29,-156.25 1262.52,-156.25"/>
<polygon fill="#63b8ff" stroke="#63b8ff" points="1237.81,-152.75 1227.81,-156.25 1237.81,-159.75 1237.81,-152.75"/>
</a>
</g>
</g>
<!-- Node19 -->
<g id="Node000019" class="node">
<title>Node19</title>
<g id="a_Node000019"><a xlink:href="class_c_p_s_1_1_d_p_1_1_ph3_1_1_two_terminal_v_type_s_s_n_comp.html" target="_top" xlink:title="Three&#45;phase, two&#45;terminal V&#45;type SSN stamping layer.">
<polygon fill="white" stroke="#666666" points="1404.25,-91.5 1263,-91.5 1263,-55 1404.25,-55 1404.25,-91.5"/>
<text text-anchor="start" x="1271" y="-78" font-family="Helvetica,sans-Serif" font-size="10.00">CPS::DP::Ph3::TwoTerminal</text>
<text text-anchor="middle" x="1333.62" y="-63.75" font-family="Helvetica,sans-Serif" font-size="10.00">VTypeSSNComp</text>
</a>
</g>
</g>
<!-- Node15&#45;&gt;Node19 -->
<g id="edge21_Node000015_Node000019" class="edge">
<title>Node15&#45;&gt;Node19</title>
<g id="a_edge21_Node000015_Node000019"><a xlink:title=" ">
<path fill="none" stroke="#63b8ff" d="M1195.06,-139.73C1223.64,-125.92 1264.38,-106.23 1294.1,-91.87"/>
<polygon fill="#63b8ff" stroke="#63b8ff" points="1193.6,-136.55 1186.12,-144.05 1196.65,-142.85 1193.6,-136.55"/>
</a>
</g>
</g>
<!-- Node17 -->
<g id="Node000017" class="node">
<title>Node17</title>
<g id="a_Node000017"><a xlink:href="class_c_p_s_1_1_d_p_1_1_ph1_1_1_generic_two_terminal_v_type_s_s_n.html" target="_top" xlink:title="Generic single&#45;phase, two&#45;terminal V&#45;type SSN component.">
<polygon fill="white" stroke="#666666" points="1579.5,-201.5 1441.25,-201.5 1441.25,-165 1579.5,-165 1579.5,-201.5"/>
<text text-anchor="start" x="1449.25" y="-188" font-family="Helvetica,sans-Serif" font-size="10.00">CPS::DP::Ph1::GenericTwo</text>
<text text-anchor="middle" x="1510.38" y="-173.75" font-family="Helvetica,sans-Serif" font-size="10.00">TerminalVTypeSSN</text>
</a>
</g>
</g>
<!-- Node16&#45;&gt;Node17 -->
<g id="edge19_Node000016_Node000017" class="edge">
<title>Node16&#45;&gt;Node17</title>
<g id="a_edge19_Node000016_Node000017"><a xlink:title=" ">
<path fill="none" stroke="#63b8ff" d="M1416.02,-168.83C1424.37,-170.12 1432.8,-171.42 1440.99,-172.68"/>
<polygon fill="#63b8ff" stroke="#63b8ff" points="1416.61,-165.38 1406.19,-167.31 1415.54,-172.29 1416.61,-165.38"/>
</a>
</g>
</g>
<!-- Node18 -->
<g id="Node000018" class="node">
<title>Node18</title>
<g id="a_Node000018"><a xlink:href="class_c_p_s_1_1_d_p_1_1_ph1_1_1_s_s_n_1_1_full___serial___r_l_c.html" target="_top" xlink:title="Series RLC one&#45;port as a DP V&#45;type SSN component.">
<polygon fill="white" stroke="#666666" points="1563.75,-146.5 1457,-146.5 1457,-110 1563.75,-110 1563.75,-146.5"/>
<text text-anchor="start" x="1465" y="-133" font-family="Helvetica,sans-Serif" font-size="10.00">CPS::DP::Ph1::SSN::</text>
<text text-anchor="middle" x="1510.38" y="-118.75" font-family="Helvetica,sans-Serif" font-size="10.00">Full_Serial_RLC</text>
</a>
</g>
</g>
<!-- Node16&#45;&gt;Node18 -->
<g id="edge20_Node000016_Node000018" class="edge">
<title>Node16&#45;&gt;Node18</title>
<g id="a_edge20_Node000016_Node000018"><a xlink:title=" ">
<path fill="none" stroke="#63b8ff" d="M1415.73,-143.25C1429.58,-141.04 1443.64,-138.78 1456.51,-136.72"/>
<polygon fill="#63b8ff" stroke="#63b8ff" points="1415.51,-139.75 1406.19,-144.78 1416.62,-146.66 1415.51,-139.75"/>
</a>
</g>
</g>
<!-- Node20 -->
<g id="Node000020" class="node">
<title>Node20</title>
<g id="a_Node000020"><a xlink:href="class_c_p_s_1_1_d_p_1_1_ph3_1_1_generic_two_terminal_v_type_s_s_n.html" target="_top" xlink:title="Generic three&#45;phase, two&#45;terminal V&#45;type SSN component.">
<polygon fill="white" stroke="#666666" points="1579.5,-91.5 1441.25,-91.5 1441.25,-55 1579.5,-55 1579.5,-91.5"/>
<text text-anchor="start" x="1449.25" y="-78" font-family="Helvetica,sans-Serif" font-size="10.00">CPS::DP::Ph3::GenericTwo</text>
<text text-anchor="middle" x="1510.38" y="-63.75" font-family="Helvetica,sans-Serif" font-size="10.00">TerminalVTypeSSN</text>
</a>
</g>
</g>
<!-- Node19&#45;&gt;Node20 -->
<g id="edge22_Node000019_Node000020" class="edge">
<title>Node19&#45;&gt;Node20</title>
<g id="a_edge22_Node000019_Node000020"><a xlink:title=" ">
<path fill="none" stroke="#63b8ff" d="M1416.02,-73.25C1424.37,-73.25 1432.8,-73.25 1440.99,-73.25"/>
<polygon fill="#63b8ff" stroke="#63b8ff" points="1416.21,-69.75 1406.21,-73.25 1416.21,-76.75 1416.21,-69.75"/>
</a>
</g>
</g>
<!-- Node21 -->
<g id="Node000021" class="node">
<title>Node21</title>
<g id="a_Node000021"><a xlink:href="class_c_p_s_1_1_d_p_1_1_ph3_1_1_s_s_n_1_1_full___serial___r_l_c.html" target="_top" xlink:title="Series RLC one&#45;port as a three&#45;phase DP V&#45;type SSN component.">
<polygon fill="white" stroke="#666666" points="1563.75,-36.5 1457,-36.5 1457,0 1563.75,0 1563.75,-36.5"/>
<text text-anchor="start" x="1465" y="-23" font-family="Helvetica,sans-Serif" font-size="10.00">CPS::DP::Ph3::SSN::</text>
<text text-anchor="middle" x="1510.38" y="-8.75" font-family="Helvetica,sans-Serif" font-size="10.00">Full_Serial_RLC</text>
</a>
</g>
</g>
<!-- Node19&#45;&gt;Node21 -->
<g id="edge23_Node000019_Node000021" class="edge">
<title>Node19&#45;&gt;Node21</title>
<g id="a_edge23_Node000019_Node000021"><a xlink:title=" ">
<path fill="none" stroke="#63b8ff" d="M1404.48,-51.26C1421.9,-45.78 1440.29,-39.99 1456.72,-34.82"/>
<polygon fill="#63b8ff" stroke="#63b8ff" points="1403.72,-47.83 1395.23,-54.18 1405.82,-54.51 1403.72,-47.83"/>
</a>
</g>
</g>
</g>
</svg>
