<?xml version="1.0" encoding="UTF-8" standalone="no"?>
<!DOCTYPE svg PUBLIC "-//W3C//DTD SVG 1.1//EN"
 "http://www.w3.org/Graphics/SVG/1.1/DTD/svg11.dtd">
<!-- Generated by graphviz version 2.50.0 (0)
 -->
<!-- Title: CPS::SP::Ph1::Transformer Pages: 1 -->
<!--zoomable 591 -->
<svg id="main" version="1.1" xmlns="http://www.w3.org/2000/svg" xmlns:xlink="http://www.w3.org/1999/xlink" xml:space="preserve" onload="init(evt)">
<style type="text/css"><![CDATA[
.edge:hover path { stroke: red; }
.edge:hover polygon { stroke: red; fill: red; }
]]></style>
<script type="text/javascript"><![CDATA[
var edges = document.getElementsByTagName('g');
if (edges && edges.length) {
  for (var i=0;i<edges.length;i++) {
    if (edges[i].id.substr(0,4)=='edge') {
      edges[i].setAttribute('class','edge');
    }
  }
}
]]></script>
        <defs>
                <circle id="rim" cx="0" cy="0" r="7"/>
                <circle id="rim2" cx="0" cy="0" r="3.5"/>
                <g id="zoomPlus">
                        <use xlink:href="#rim" fill="#404040">
                                <set attributeName="fill" to="#808080" begin="zoomplus.mouseover" end="zoomplus.mouseout"/>
                        </use>
                        <path d="M-4,0h8M0,-4v8" fill="none" stroke="white" stroke-width="1.5" pointer-events="none"/>
                </g>
                <g id="zoomMin">
                        <use xlink:href="#rim" fill="#404040">
                                <set attributeName="fill" to="#808080" begin="zoomminus.mouseover" end="zoomminus.mouseout"/>
                        </use>
                        <path d="M-4,0h8" fill="none" stroke="white" stroke-width="1.5" pointer-events="none"/>
                </g>
                <g id="dirArrow">
                        <path fill="none" stroke="white" stroke-width="1.5" d="M0,-3.0v7 M-2.5,-0.5L0,-3.0L2.5,-0.5"/>
                </g>
               <g id="resetDef">
                       <use xlink:href="#rim2" fill="#404040">
                               <set attributeName="fill" to="#808080" begin="reset.mouseover" end="reset.mouseout"/>
                       </use>
               </g>
        </defs>

<script type="text/javascript">
var viewWidth = 2305;
var viewHeight = 591;
var sectionId = 'dynsection-1';
</script>
<script xlink:href="svgpan.js"/>
<svg id="graph" class="graph">
<g id="viewport">
<title>CPS::SP::Ph1::Transformer</title>
<!-- Node1 -->
<g id="node1" class="node">
<title>Node1</title>
<g id="a_node1"><a xlink:title="Transformer that includes an inductance and resistance.">
<polygon fill="#bfbfbf" stroke="black" points="2157,-156.5 2157,-175.5 2297,-175.5 2297,-156.5 2157,-156.5"/>
<text text-anchor="middle" x="2227" y="-163.5" font-family="Helvetica,sans-Serif" font-size="10.00">CPS::SP::Ph1::Transformer</text>
</a>
</g>
</g>
<!-- Node2 -->
<g id="node2" class="node">
<title>Node2</title>
<g id="a_node2"><a xlink:href="class_c_p_s_1_1_composite_power_comp.html" target="_top" xlink:title=" ">
<polygon fill="none" stroke="black" points="1968,-352 1968,-382 2114,-382 2114,-352 1968,-352"/>
<text text-anchor="start" x="1976" y="-370" font-family="Helvetica,sans-Serif" font-size="10.00">CPS::CompositePowerComp</text>
<text text-anchor="middle" x="2041" y="-359" font-family="Helvetica,sans-Serif" font-size="10.00">&lt; Complex &gt;</text>
</a>
</g>
</g>
<!-- Node2&#45;&gt;Node1 -->
<g id="edge1" class="edge">
<title>Node2&#45;&gt;Node1</title>
<path fill="none" stroke="midnightblue" d="M2066.16,-344.73C2086.23,-325.91 2115.25,-297.93 2139,-272 2170.2,-237.94 2204.07,-194.63 2218.65,-175.65"/>
<polygon fill="midnightblue" stroke="midnightblue" points="2063.6,-342.34 2058.67,-351.72 2068.37,-347.46 2063.6,-342.34"/>
</g>
<!-- Node3 -->
<g id="node3" class="node">
<title>Node3</title>
<g id="a_node3"><a xlink:href="class_c_p_s_1_1_m_n_a_sim_power_comp.html" target="_top" xlink:title=" ">
<polygon fill="none" stroke="black" points="1706.5,-352 1706.5,-382 1843.5,-382 1843.5,-352 1706.5,-352"/>
<text text-anchor="start" x="1714.5" y="-370" font-family="Helvetica,sans-Serif" font-size="10.00">CPS::MNASimPowerComp</text>
<text text-anchor="middle" x="1775" y="-359" font-family="Helvetica,sans-Serif" font-size="10.00">&lt; Complex &gt;</text>
</a>
</g>
</g>
<!-- Node3&#45;&gt;Node2 -->
<g id="edge2" class="edge">
<title>Node3&#45;&gt;Node2</title>
<path fill="none" stroke="midnightblue" d="M1853.65,-367C1889.78,-367 1932.49,-367 1967.91,-367"/>
<polygon fill="midnightblue" stroke="midnightblue" points="1853.64,-363.5 1843.64,-367 1853.64,-370.5 1853.64,-363.5"/>
</g>
<!-- Node4 -->
<g id="node4" class="node">
<title>Node4</title>
<g id="a_node4"><a xlink:href="class_c_p_s_1_1_sim_power_comp.html" target="_top" xlink:title=" ">
<polygon fill="none" stroke="black" points="1479,-440 1479,-470 1598,-470 1598,-440 1479,-440"/>
<text text-anchor="start" x="1487" y="-458" font-family="Helvetica,sans-Serif" font-size="10.00">CPS::SimPowerComp&lt;</text>
<text text-anchor="middle" x="1538.5" y="-447" font-family="Helvetica,sans-Serif" font-size="10.00"> Complex &gt;</text>
</a>
</g>
</g>
<!-- Node4&#45;&gt;Node3 -->
<g id="edge3" class="edge">
<title>Node4&#45;&gt;Node3</title>
<path fill="none" stroke="midnightblue" d="M1602.75,-436.9C1628.47,-428.69 1658.15,-418.1 1684,-406 1692.49,-402.03 1693.6,-399.16 1702,-395 1711.38,-390.36 1721.72,-385.95 1731.58,-382.05"/>
<polygon fill="midnightblue" stroke="midnightblue" points="1601.6,-433.6 1593.11,-439.93 1603.7,-440.28 1601.6,-433.6"/>
</g>
<!-- Node5 -->
<g id="node5" class="node">
<title>Node5</title>
<g id="a_node5"><a xlink:href="class_c_p_s_1_1_topological_power_comp.html" target="_top" xlink:title=" ">
<polygon fill="none" stroke="black" points="1001,-461.5 1001,-480.5 1149,-480.5 1149,-461.5 1001,-461.5"/>
<text text-anchor="middle" x="1075" y="-468.5" font-family="Helvetica,sans-Serif" font-size="10.00">CPS::TopologicalPowerComp</text>
</a>
</g>
</g>
<!-- Node5&#45;&gt;Node4 -->
<g id="edge4" class="edge">
<title>Node5&#45;&gt;Node4</title>
<path fill="none" stroke="midnightblue" d="M1159.27,-468.11C1251.57,-464.91 1398.06,-459.83 1478.98,-457.03"/>
<polygon fill="midnightblue" stroke="midnightblue" points="1159,-464.62 1149.13,-468.46 1159.24,-471.62 1159,-464.62"/>
</g>
<!-- Node12 -->
<g id="node12" class="node">
<title>Node12</title>
<g id="a_node12"><a xlink:href="class_c_p_s_1_1_sim_power_comp.html" target="_top" xlink:title="Base class for all components that are transmitting power.">
<polygon fill="none" stroke="black" points="1191,-406 1191,-436 1310,-436 1310,-406 1191,-406"/>
<text text-anchor="start" x="1199" y="-424" font-family="Helvetica,sans-Serif" font-size="10.00">CPS::SimPowerComp&lt;</text>
<text text-anchor="middle" x="1250.5" y="-413" font-family="Helvetica,sans-Serif" font-size="10.00"> VarType &gt;</text>
</a>
</g>
</g>
<!-- Node5&#45;&gt;Node12 -->
<g id="edge13" class="edge">
<title>Node5&#45;&gt;Node12</title>
<path fill="none" stroke="midnightblue" d="M1118.8,-458.67C1142.47,-451.84 1172.08,-443.31 1197.13,-436.09"/>
<polygon fill="midnightblue" stroke="midnightblue" points="1117.68,-455.35 1109.04,-461.48 1119.62,-462.07 1117.68,-455.35"/>
</g>
<!-- Node6 -->
<g id="node6" class="node">
<title>Node6</title>
<g id="a_node6"><a xlink:href="class_c_p_s_1_1_identified_object.html" target="_top" xlink:title=" ">
<polygon fill="none" stroke="black" points="766.5,-488.5 766.5,-507.5 882.5,-507.5 882.5,-488.5 766.5,-488.5"/>
<text text-anchor="middle" x="824.5" y="-495.5" font-family="Helvetica,sans-Serif" font-size="10.00">CPS::IdentifiedObject</text>
</a>
</g>
</g>
<!-- Node6&#45;&gt;Node5 -->
<g id="edge5" class="edge">
<title>Node6&#45;&gt;Node5</title>
<path fill="none" stroke="midnightblue" d="M892.64,-490.71C926.05,-487.07 966.51,-482.68 1000.73,-478.96"/>
<polygon fill="midnightblue" stroke="midnightblue" points="892.07,-487.25 882.51,-491.81 892.83,-494.2 892.07,-487.25"/>
</g>
<!-- Node7 -->
<g id="node7" class="node">
<title>Node7</title>
<g id="a_node7"><a xlink:href="class_c_p_s_1_1_attribute.html" target="_top" xlink:title=" ">
<polygon fill="none" stroke="black" points="465.5,-505.5 465.5,-524.5 592.5,-524.5 592.5,-505.5 465.5,-505.5"/>
<text text-anchor="middle" x="529" y="-512.5" font-family="Helvetica,sans-Serif" font-size="10.00">CPS::Attribute&lt; String &gt;</text>
</a>
</g>
</g>
<!-- Node7&#45;&gt;Node6 -->
<g id="edge6" class="edge">
<title>Node7&#45;&gt;Node6</title>
<path fill="none" stroke="#9a32cd" stroke-dasharray="5,2" d="M602.81,-510.78C653.36,-507.85 719.75,-504.01 766.46,-501.3"/>
<polygon fill="#9a32cd" stroke="#9a32cd" points="602.38,-507.3 592.6,-511.37 602.79,-514.29 602.38,-507.3"/>
<text text-anchor="middle" x="678" y="-523" font-family="Helvetica,sans-Serif" font-size="10.00"> mName</text>
<text text-anchor="middle" x="678" y="-512" font-family="Helvetica,sans-Serif" font-size="10.00">mUID</text>
</g>
<!-- Node8 -->
<g id="node8" class="node">
<title>Node8</title>
<g id="a_node8"><a xlink:href="class_c_p_s_1_1_attribute_base.html" target="_top" xlink:title=" ">
<polygon fill="none" stroke="black" points="5.5,-302.5 5.5,-321.5 110.5,-321.5 110.5,-302.5 5.5,-302.5"/>
<text text-anchor="middle" x="58" y="-309.5" font-family="Helvetica,sans-Serif" font-size="10.00">CPS::AttributeBase</text>
</a>
</g>
</g>
<!-- Node8&#45;&gt;Node7 -->
<g id="edge7" class="edge">
<title>Node8&#45;&gt;Node7</title>
<path fill="none" stroke="midnightblue" d="M59.9,-331.85C63.25,-379.06 78.98,-497.81 153,-548 267.4,-625.58 448.73,-552.45 508.32,-524.68"/>
<polygon fill="midnightblue" stroke="midnightblue" points="63.39,-331.49 59.3,-321.71 56.4,-331.9 63.39,-331.49"/>
</g>
<!-- Node10 -->
<g id="node10" class="node">
<title>Node10</title>
<g id="a_node10"><a xlink:href="class_c_p_s_1_1_attribute.html" target="_top" xlink:title=" ">
<polygon fill="none" stroke="black" points="172,-204.5 172,-223.5 276,-223.5 276,-204.5 172,-204.5"/>
<text text-anchor="middle" x="224" y="-211.5" font-family="Helvetica,sans-Serif" font-size="10.00">CPS::Attribute&lt; T &gt;</text>
</a>
</g>
</g>
<!-- Node8&#45;&gt;Node10 -->
<g id="edge10" class="edge">
<title>Node8&#45;&gt;Node10</title>
<path fill="none" stroke="midnightblue" d="M74.72,-294.97C92.19,-277.03 122.04,-249.2 153,-233 160.25,-229.21 168.34,-226.11 176.36,-223.61"/>
<polygon fill="midnightblue" stroke="midnightblue" points="71.97,-292.78 67.61,-302.44 77.04,-297.61 71.97,-292.78"/>
</g>
<!-- Node13 -->
<g id="node13" class="node">
<title>Node13</title>
<g id="a_node13"><a xlink:href="class_c_p_s_1_1_attribute.html" target="_top" xlink:title=" ">
<polygon fill="none" stroke="black" points="460.5,-396 460.5,-426 597.5,-426 597.5,-396 460.5,-396"/>
<text text-anchor="start" x="468.5" y="-414" font-family="Helvetica,sans-Serif" font-size="10.00">CPS::Attribute&lt; MatrixVar</text>
<text text-anchor="middle" x="529" y="-403" font-family="Helvetica,sans-Serif" font-size="10.00">&lt; VarType &gt; &gt;</text>
</a>
</g>
</g>
<!-- Node8&#45;&gt;Node13 -->
<g id="edge15" class="edge">
<title>Node8&#45;&gt;Node13</title>
<path fill="none" stroke="midnightblue" d="M76.82,-328.14C91.18,-340.16 112.45,-355.83 134,-364 243.02,-405.34 380.1,-412.56 460.49,-412.71"/>
<polygon fill="midnightblue" stroke="midnightblue" points="79.08,-325.47 69.22,-321.58 74.5,-330.76 79.08,-325.47"/>
</g>
<!-- Node16 -->
<g id="node16" class="node">
<title>Node16</title>
<g id="a_node16"><a xlink:href="class_c_p_s_1_1_attribute.html" target="_top" xlink:title=" ">
<polygon fill="none" stroke="black" points="1186,-293.5 1186,-312.5 1315,-312.5 1315,-293.5 1186,-293.5"/>
<text text-anchor="middle" x="1250.5" y="-300.5" font-family="Helvetica,sans-Serif" font-size="10.00">CPS::Attribute&lt; Matrix &gt;</text>
</a>
</g>
</g>
<!-- Node8&#45;&gt;Node16 -->
<g id="edge20" class="edge">
<title>Node8&#45;&gt;Node16</title>
<path fill="none" stroke="midnightblue" d="M93.73,-324.89C126.56,-335.91 177.44,-350 223,-350 223,-350 223,-350 1076,-350 1132.8,-350 1196.53,-326.24 1228.63,-312.51"/>
<polygon fill="midnightblue" stroke="midnightblue" points="94.74,-321.54 84.15,-321.59 92.46,-328.16 94.74,-321.54"/>
</g>
<!-- Node21 -->
<g id="node21" class="node">
<title>Node21</title>
<g id="a_node21"><a xlink:href="class_c_p_s_1_1_attribute.html" target="_top" xlink:title=" ">
<polygon fill="none" stroke="black" points="469.5,-148.5 469.5,-167.5 588.5,-167.5 588.5,-148.5 469.5,-148.5"/>
<text text-anchor="middle" x="529" y="-155.5" font-family="Helvetica,sans-Serif" font-size="10.00">CPS::Attribute&lt; Real &gt;</text>
</a>
</g>
</g>
<!-- Node8&#45;&gt;Node21 -->
<g id="edge31" class="edge">
<title>Node8&#45;&gt;Node21</title>
<path fill="none" stroke="midnightblue" d="M68.05,-293.13C82.09,-266.19 111.84,-217.48 153,-195 206.04,-166.03 377.83,-159.6 469.35,-158.27"/>
<polygon fill="midnightblue" stroke="midnightblue" points="64.81,-291.79 63.45,-302.29 71.07,-294.93 64.81,-291.79"/>
</g>
<!-- Node23 -->
<g id="node23" class="node">
<title>Node23</title>
<g id="a_node23"><a xlink:href="class_c_p_s_1_1_attribute.html" target="_top" xlink:title=" ">
<polygon fill="none" stroke="black" points="459.5,-52.5 459.5,-71.5 598.5,-71.5 598.5,-52.5 459.5,-52.5"/>
<text text-anchor="middle" x="529" y="-59.5" font-family="Helvetica,sans-Serif" font-size="10.00">CPS::Attribute&lt; Complex &gt;</text>
</a>
</g>
</g>
<!-- Node8&#45;&gt;Node23 -->
<g id="edge35" class="edge">
<title>Node8&#45;&gt;Node23</title>
<path fill="none" stroke="midnightblue" d="M66.95,-293.21C89.23,-240.61 150.81,-95.58 153,-94 200.38,-59.86 364.42,-57.79 459.11,-59.66"/>
<polygon fill="midnightblue" stroke="midnightblue" points="63.72,-291.86 63.05,-302.43 70.17,-294.59 63.72,-291.86"/>
</g>
<!-- Node28 -->
<g id="node28" class="node">
<title>Node28</title>
<g id="a_node28"><a xlink:href="class_c_p_s_1_1_attribute.html" target="_top" xlink:title=" ">
<polygon fill="none" stroke="black" points="451,-262.5 451,-281.5 607,-281.5 607,-262.5 451,-262.5"/>
<text text-anchor="middle" x="529" y="-269.5" font-family="Helvetica,sans-Serif" font-size="10.00">CPS::Attribute&lt; MatrixComp &gt;</text>
</a>
</g>
</g>
<!-- Node8&#45;&gt;Node28 -->
<g id="edge43" class="edge">
<title>Node8&#45;&gt;Node28</title>
<path fill="none" stroke="midnightblue" d="M120.89,-307.92C195.11,-302.86 323.26,-293.6 433,-283 438.78,-282.44 444.76,-281.83 450.77,-281.19"/>
<polygon fill="midnightblue" stroke="midnightblue" points="120.52,-304.44 110.78,-308.61 120.99,-311.42 120.52,-304.44"/>
</g>
<!-- Node9 -->
<g id="node9" class="node">
<title>Node9</title>
<g id="a_node9"><a xlink:title=" ">
<polygon fill="none" stroke="#bfbfbf" points="166,-497.5 166,-538.5 282,-538.5 282,-497.5 166,-497.5"/>
<text text-anchor="start" x="174" y="-526.5" font-family="Helvetica,sans-Serif" font-size="10.00">std::enable_shared</text>
<text text-anchor="start" x="174" y="-515.5" font-family="Helvetica,sans-Serif" font-size="10.00">_from_this&lt; Attribute</text>
<text text-anchor="middle" x="224" y="-504.5" font-family="Helvetica,sans-Serif" font-size="10.00">&lt; String &gt; &gt;</text>
</a>
</g>
</g>
<!-- Node9&#45;&gt;Node7 -->
<g id="edge8" class="edge">
<title>Node9&#45;&gt;Node7</title>
<path fill="none" stroke="midnightblue" d="M292.42,-517.33C344.12,-516.82 414.94,-516.12 465.4,-515.62"/>
<polygon fill="midnightblue" stroke="midnightblue" points="292.31,-513.83 282.35,-517.43 292.38,-520.83 292.31,-513.83"/>
</g>
<!-- Node10&#45;&gt;Node7 -->
<g id="edge9" class="edge">
<title>Node10&#45;&gt;Node7</title>
<path fill="none" stroke="orange" stroke-dasharray="5,2" d="M285.19,-224.73C288.84,-227.01 292.17,-229.74 295,-233 337.56,-282.05 278.31,-323.1 313,-378 356.97,-447.6 450.54,-488.38 498.43,-505.48"/>
<polygon fill="orange" stroke="orange" points="286.71,-221.57 276.21,-220.18 283.55,-227.82 286.71,-221.57"/>
<text text-anchor="middle" x="373" y="-479" font-family="Helvetica,sans-Serif" font-size="10.00"> &lt; String &gt;</text>
</g>
<!-- Node10&#45;&gt;Node13 -->
<g id="edge17" class="edge">
<title>Node10&#45;&gt;Node13</title>
<path fill="none" stroke="orange" stroke-dasharray="5,2" d="M285.44,-226.59C288.84,-228.45 292.06,-230.57 295,-233 309.09,-244.66 300.92,-256.27 313,-270 365.19,-329.32 447.99,-374.01 494.12,-395.95"/>
<polygon fill="orange" stroke="orange" points="286.66,-223.3 276.11,-222.3 283.73,-229.66 286.66,-223.3"/>
<text text-anchor="middle" x="373" y="-366" font-family="Helvetica,sans-Serif" font-size="10.00"> &lt; MatrixVar&lt; VarType &gt; &gt;</text>
</g>
<!-- Node10&#45;&gt;Node16 -->
<g id="edge22" class="edge">
<title>Node10&#45;&gt;Node16</title>
<path fill="none" stroke="orange" stroke-dasharray="5,2" d="M286.44,-212.6C435.66,-210.32 828.49,-211.04 1149,-271 1175.64,-275.98 1205.07,-285.9 1225.15,-293.38"/>
<polygon fill="orange" stroke="orange" points="286.06,-209.1 276.12,-212.77 286.18,-216.1 286.06,-209.1"/>
<text text-anchor="middle" x="824.5" y="-239" font-family="Helvetica,sans-Serif" font-size="10.00"> &lt; Matrix &gt;</text>
</g>
<!-- Node10&#45;&gt;Node21 -->
<g id="edge33" class="edge">
<title>Node10&#45;&gt;Node21</title>
<path fill="none" stroke="orange" stroke-dasharray="5,2" d="M286.18,-202.69C342.09,-192.36 423.83,-177.25 476.48,-167.52"/>
<polygon fill="orange" stroke="orange" points="285.25,-199.3 276.06,-204.56 286.53,-206.19 285.25,-199.3"/>
<text text-anchor="middle" x="373" y="-200" font-family="Helvetica,sans-Serif" font-size="10.00"> &lt; Real &gt;</text>
</g>
<!-- Node10&#45;&gt;Node23 -->
<g id="edge37" class="edge">
<title>Node10&#45;&gt;Node23</title>
<path fill="none" stroke="orange" stroke-dasharray="5,2" d="M248.1,-199.13C265.62,-188.08 290.45,-172.94 313,-161 381.28,-124.86 465.23,-88.41 505,-71.59"/>
<polygon fill="orange" stroke="orange" points="246.22,-196.17 239.66,-204.49 249.98,-202.08 246.22,-196.17"/>
<text text-anchor="middle" x="373" y="-164" font-family="Helvetica,sans-Serif" font-size="10.00"> &lt; Complex &gt;</text>
</g>
<!-- Node10&#45;&gt;Node28 -->
<g id="edge45" class="edge">
<title>Node10&#45;&gt;Node28</title>
<path fill="none" stroke="orange" stroke-dasharray="5,2" d="M275.31,-225.89C287.61,-228.67 300.76,-231.54 313,-234 366.08,-244.67 379.68,-245.56 433,-255 446.53,-257.39 461.14,-260 474.75,-262.43"/>
<polygon fill="orange" stroke="orange" points="275.74,-222.4 265.21,-223.59 274.18,-229.22 275.74,-222.4"/>
<text text-anchor="middle" x="373" y="-258" font-family="Helvetica,sans-Serif" font-size="10.00"> &lt; MatrixComp &gt;</text>
</g>
<!-- Node11 -->
<g id="node11" class="node">
<title>Node11</title>
<g id="a_node11"><a xlink:title=" ">
<polygon fill="none" stroke="#bfbfbf" points="0,-127.5 0,-168.5 116,-168.5 116,-127.5 0,-127.5"/>
<text text-anchor="start" x="8" y="-156.5" font-family="Helvetica,sans-Serif" font-size="10.00">std::enable_shared</text>
<text text-anchor="start" x="8" y="-145.5" font-family="Helvetica,sans-Serif" font-size="10.00">_from_this&lt; Attribute</text>
<text text-anchor="middle" x="58" y="-134.5" font-family="Helvetica,sans-Serif" font-size="10.00">&lt; T &gt; &gt;</text>
</a>
</g>
</g>
<!-- Node11&#45;&gt;Node10 -->
<g id="edge11" class="edge">
<title>Node11&#45;&gt;Node10</title>
<path fill="none" stroke="midnightblue" d="M119.58,-172.38C147.17,-183.48 178.24,-195.99 199.06,-204.37"/>
<polygon fill="midnightblue" stroke="midnightblue" points="120.58,-169.01 109.99,-168.52 117.96,-175.5 120.58,-169.01"/>
</g>
<!-- Node12&#45;&gt;Node4 -->
<g id="edge12" class="edge">
<title>Node12&#45;&gt;Node4</title>
<path fill="none" stroke="orange" stroke-dasharray="5,2" d="M1320.13,-429.16C1368.46,-434.9 1432.49,-442.52 1478.52,-447.99"/>
<polygon fill="orange" stroke="orange" points="1320.41,-425.67 1310.07,-427.96 1319.58,-432.62 1320.41,-425.67"/>
<text text-anchor="middle" x="1392.5" y="-447" font-family="Helvetica,sans-Serif" font-size="10.00"> &lt; Complex &gt;</text>
</g>
<!-- Node18 -->
<g id="node18" class="node">
<title>Node18</title>
<g id="a_node18"><a xlink:href="class_c_p_s_1_1_m_n_a_sim_power_comp.html" target="_top" xlink:title="Base class for all MNA components that are transmitting power.">
<polygon fill="none" stroke="black" points="1470,-391 1470,-421 1607,-421 1607,-391 1470,-391"/>
<text text-anchor="start" x="1478" y="-409" font-family="Helvetica,sans-Serif" font-size="10.00">CPS::MNASimPowerComp</text>
<text text-anchor="middle" x="1538.5" y="-398" font-family="Helvetica,sans-Serif" font-size="10.00">&lt; VarType &gt;</text>
</a>
</g>
</g>
<!-- Node12&#45;&gt;Node18 -->
<g id="edge24" class="edge">
<title>Node12&#45;&gt;Node18</title>
<path fill="none" stroke="midnightblue" d="M1320.12,-417.4C1365.52,-415.02 1424.8,-411.91 1469.98,-409.54"/>
<polygon fill="midnightblue" stroke="midnightblue" points="1319.87,-413.91 1310.07,-417.93 1320.24,-420.9 1319.87,-413.91"/>
</g>
<!-- Node13&#45;&gt;Node12 -->
<g id="edge14" class="edge">
<title>Node13&#45;&gt;Node12</title>
<path fill="none" stroke="#9a32cd" stroke-dasharray="5,2" d="M607.84,-412.08C752.88,-414.1 1061.44,-418.39 1190.66,-420.18"/>
<polygon fill="#9a32cd" stroke="#9a32cd" points="607.74,-408.58 597.69,-411.94 607.64,-415.58 607.74,-408.58"/>
<text text-anchor="middle" x="950.5" y="-431" font-family="Helvetica,sans-Serif" font-size="10.00"> mIntfCurrent</text>
<text text-anchor="middle" x="950.5" y="-420" font-family="Helvetica,sans-Serif" font-size="10.00">mIntfVoltage</text>
</g>
<!-- Node14 -->
<g id="node14" class="node">
<title>Node14</title>
<g id="a_node14"><a xlink:title=" ">
<polygon fill="none" stroke="#bfbfbf" points="153,-437.5 153,-478.5 295,-478.5 295,-437.5 153,-437.5"/>
<text text-anchor="start" x="161" y="-466.5" font-family="Helvetica,sans-Serif" font-size="10.00">std::enable_shared</text>
<text text-anchor="start" x="161" y="-455.5" font-family="Helvetica,sans-Serif" font-size="10.00">_from_this&lt; Attribute</text>
<text text-anchor="middle" x="224" y="-444.5" font-family="Helvetica,sans-Serif" font-size="10.00">&lt; MatrixVar&lt; VarType &gt; &gt; &gt;</text>
</a>
</g>
</g>
<!-- Node14&#45;&gt;Node13 -->
<g id="edge16" class="edge">
<title>Node14&#45;&gt;Node13</title>
<path fill="none" stroke="midnightblue" d="M305.42,-463.96C344.39,-464.96 391.6,-463.35 433,-454 457.72,-448.42 483.82,-436.08 502.39,-426.05"/>
<polygon fill="midnightblue" stroke="midnightblue" points="305.29,-460.46 295.18,-463.64 305.06,-467.45 305.29,-460.46"/>
</g>
<!-- Node15 -->
<g id="node15" class="node">
<title>Node15</title>
<g id="a_node15"><a xlink:href="class_c_p_s_1_1_m_n_a_interface.html" target="_top" xlink:title="Interface to be implemented by all models used by the MNA solver.">
<polygon fill="none" stroke="black" points="1197,-362.5 1197,-381.5 1304,-381.5 1304,-362.5 1197,-362.5"/>
<text text-anchor="middle" x="1250.5" y="-369.5" font-family="Helvetica,sans-Serif" font-size="10.00">CPS::MNAInterface</text>
</a>
</g>
</g>
<!-- Node15&#45;&gt;Node3 -->
<g id="edge18" class="edge">
<title>Node15&#45;&gt;Node3</title>
<path fill="none" stroke="midnightblue" d="M1314.63,-371.4C1413.56,-370.45 1604.34,-368.62 1706.13,-367.65"/>
<polygon fill="midnightblue" stroke="midnightblue" points="1314.44,-367.9 1304.48,-371.49 1314.51,-374.9 1314.44,-367.9"/>
</g>
<!-- Node15&#45;&gt;Node18 -->
<g id="edge25" class="edge">
<title>Node15&#45;&gt;Node18</title>
<path fill="none" stroke="midnightblue" d="M1314.44,-379.48C1360.45,-384.95 1422.79,-392.36 1469.86,-397.96"/>
<polygon fill="midnightblue" stroke="midnightblue" points="1314.63,-375.98 1304.29,-378.28 1313.81,-382.93 1314.63,-375.98"/>
</g>
<!-- Node16&#45;&gt;Node1 -->
<g id="edge46" class="edge">
<title>Node16&#45;&gt;Node1</title>
<path fill="none" stroke="#9a32cd" stroke-dasharray="5,2" d="M1298.26,-291.05C1354.6,-277.72 1452.33,-258 1537.5,-258 1537.5,-258 1537.5,-258 2042,-258 2114.86,-258 2188.44,-199.58 2215.33,-175.85"/>
<polygon fill="#9a32cd" stroke="#9a32cd" points="1297.14,-287.72 1288.23,-293.46 1298.77,-294.52 1297.14,-287.72"/>
<text text-anchor="middle" x="1775" y="-272" font-family="Helvetica,sans-Serif" font-size="10.00"> mActivePowerBranch</text>
<text text-anchor="middle" x="1775" y="-261" font-family="Helvetica,sans-Serif" font-size="10.00">mReactivePowerBranch</text>
</g>
<!-- Node16&#45;&gt;Node3 -->
<g id="edge19" class="edge">
<title>Node16&#45;&gt;Node3</title>
<path fill="none" stroke="#9a32cd" stroke-dasharray="5,2" d="M1325.66,-309.24C1363.51,-312.62 1410.26,-317.11 1452,-322 1540.02,-332.32 1641.18,-346.9 1706.27,-356.64"/>
<polygon fill="#9a32cd" stroke="#9a32cd" points="1325.51,-305.71 1315.24,-308.31 1324.89,-312.68 1325.51,-305.71"/>
<text text-anchor="middle" x="1538.5" y="-344" font-family="Helvetica,sans-Serif" font-size="10.00"> mRightVector</text>
</g>
<!-- Node16&#45;&gt;Node18 -->
<g id="edge26" class="edge">
<title>Node16&#45;&gt;Node18</title>
<path fill="none" stroke="#9a32cd" stroke-dasharray="5,2" d="M1295.3,-315.35C1336.27,-327.28 1398.94,-346.51 1452,-367 1470.42,-374.11 1490.52,-383.21 1506.61,-390.83"/>
<polygon fill="#9a32cd" stroke="#9a32cd" points="1296.21,-311.96 1285.63,-312.55 1294.26,-318.69 1296.21,-311.96"/>
<text text-anchor="middle" x="1392.5" y="-370" font-family="Helvetica,sans-Serif" font-size="10.00"> mRightVector</text>
</g>
<!-- Node17 -->
<g id="node17" class="node">
<title>Node17</title>
<g id="a_node17"><a xlink:title=" ">
<polygon fill="none" stroke="#bfbfbf" points="1017,-280.5 1017,-321.5 1133,-321.5 1133,-280.5 1017,-280.5"/>
<text text-anchor="start" x="1025" y="-309.5" font-family="Helvetica,sans-Serif" font-size="10.00">std::enable_shared</text>
<text text-anchor="start" x="1025" y="-298.5" font-family="Helvetica,sans-Serif" font-size="10.00">_from_this&lt; Attribute</text>
<text text-anchor="middle" x="1075" y="-287.5" font-family="Helvetica,sans-Serif" font-size="10.00">&lt; Matrix &gt; &gt;</text>
</a>
</g>
</g>
<!-- Node17&#45;&gt;Node16 -->
<g id="edge21" class="edge">
<title>Node17&#45;&gt;Node16</title>
<path fill="none" stroke="midnightblue" d="M1143.35,-301.78C1157.37,-301.94 1172.1,-302.11 1185.98,-302.27"/>
<polygon fill="midnightblue" stroke="midnightblue" points="1143.33,-298.28 1133.29,-301.66 1143.25,-305.28 1143.33,-298.28"/>
</g>
<!-- Node18&#45;&gt;Node3 -->
<g id="edge23" class="edge">
<title>Node18&#45;&gt;Node3</title>
<path fill="none" stroke="orange" stroke-dasharray="5,2" d="M1617.04,-393.1C1645.84,-388.31 1678.28,-382.92 1706.15,-378.28"/>
<polygon fill="orange" stroke="orange" points="1616.3,-389.68 1607.01,-394.77 1617.45,-396.58 1616.3,-389.68"/>
<text text-anchor="middle" x="1654.5" y="-394" font-family="Helvetica,sans-Serif" font-size="10.00"> &lt; Complex &gt;</text>
</g>
<!-- Node19 -->
<g id="node19" class="node">
<title>Node19</title>
<g id="a_node19"><a xlink:href="class_c_p_s_1_1_composite_power_comp.html" target="_top" xlink:title="Base class for composite power components.">
<polygon fill="none" stroke="black" points="1702,-404 1702,-434 1848,-434 1848,-404 1702,-404"/>
<text text-anchor="start" x="1710" y="-422" font-family="Helvetica,sans-Serif" font-size="10.00">CPS::CompositePowerComp</text>
<text text-anchor="middle" x="1775" y="-411" font-family="Helvetica,sans-Serif" font-size="10.00">&lt; VarType &gt;</text>
</a>
</g>
</g>
<!-- Node18&#45;&gt;Node19 -->
<g id="edge28" class="edge">
<title>Node18&#45;&gt;Node19</title>
<path fill="none" stroke="midnightblue" d="M1617.27,-410.31C1644.48,-411.82 1674.9,-413.51 1701.64,-414.99"/>
<polygon fill="midnightblue" stroke="midnightblue" points="1617.19,-406.8 1607.01,-409.74 1616.8,-413.79 1617.19,-406.8"/>
</g>
<!-- Node19&#45;&gt;Node2 -->
<g id="edge27" class="edge">
<title>Node19&#45;&gt;Node2</title>
<path fill="none" stroke="orange" stroke-dasharray="5,2" d="M1858.36,-402.78C1893.47,-395.86 1934.06,-387.87 1967.95,-381.19"/>
<polygon fill="orange" stroke="orange" points="1857.27,-399.42 1848.14,-404.79 1858.63,-406.29 1857.27,-399.42"/>
<text text-anchor="middle" x="1905" y="-403" font-family="Helvetica,sans-Serif" font-size="10.00"> &lt; Complex &gt;</text>
</g>
<!-- Node20 -->
<g id="node20" class="node">
<title>Node20</title>
<g id="a_node20"><a xlink:href="class_c_p_s_1_1_base_1_1_ph1_1_1_transformer.html" target="_top" xlink:title=" ">
<polygon fill="none" stroke="black" points="749,-44.5 749,-63.5 900,-63.5 900,-44.5 749,-44.5"/>
<text text-anchor="middle" x="824.5" y="-51.5" font-family="Helvetica,sans-Serif" font-size="10.00">CPS::Base::Ph1::Transformer</text>
</a>
</g>
</g>
<!-- Node20&#45;&gt;Node1 -->
<g id="edge29" class="edge">
<title>Node20&#45;&gt;Node1</title>
<path fill="none" stroke="midnightblue" d="M910.3,-52.98C958.33,-52.49 1019.52,-52 1074,-52 1074,-52 1074,-52 2042,-52 2077.68,-52 2088.43,-54.37 2120,-71 2162.63,-93.46 2201.82,-136.82 2218.07,-156.21"/>
<polygon fill="midnightblue" stroke="midnightblue" points="910.22,-49.48 900.26,-53.08 910.29,-56.48 910.22,-49.48"/>
</g>
<!-- Node21&#45;&gt;Node1 -->
<g id="edge41" class="edge">
<title>Node21&#45;&gt;Node1</title>
<path fill="none" stroke="#9a32cd" stroke-dasharray="5,2" d="M598.77,-158C658.25,-158 746.55,-158 823.5,-158 823.5,-158 823.5,-158 1251.5,-158 1591.15,-158 1997.36,-162.92 2156.88,-165.04"/>
<polygon fill="#9a32cd" stroke="#9a32cd" points="598.75,-154.5 588.75,-158 598.75,-161.5 598.75,-154.5"/>
<text text-anchor="middle" x="1392.5" y="-183" font-family="Helvetica,sans-Serif" font-size="10.00"> mActivePowerInjection</text>
<text text-anchor="middle" x="1392.5" y="-172" font-family="Helvetica,sans-Serif" font-size="10.00">mBaseVoltage</text>
<text text-anchor="middle" x="1392.5" y="-161" font-family="Helvetica,sans-Serif" font-size="10.00">mReactivePowerInjection</text>
</g>
<!-- Node21&#45;&gt;Node20 -->
<g id="edge30" class="edge">
<title>Node21&#45;&gt;Node20</title>
<path fill="none" stroke="#9a32cd" stroke-dasharray="5,2" d="M547.25,-141.67C565.21,-125.64 594.9,-101.78 625,-89 647.15,-79.6 702.77,-70.2 749.51,-63.51"/>
<polygon fill="#9a32cd" stroke="#9a32cd" points="544.88,-139.09 539.86,-148.42 549.6,-144.26 544.88,-139.09"/>
<text text-anchor="middle" x="678" y="-136" font-family="Helvetica,sans-Serif" font-size="10.00"> mInductance</text>
<text text-anchor="middle" x="678" y="-125" font-family="Helvetica,sans-Serif" font-size="10.00">mNominalVoltageEnd1</text>
<text text-anchor="middle" x="678" y="-114" font-family="Helvetica,sans-Serif" font-size="10.00">mNominalVoltageEnd2</text>
<text text-anchor="middle" x="678" y="-103" font-family="Helvetica,sans-Serif" font-size="10.00">mRatedPower</text>
<text text-anchor="middle" x="678" y="-92" font-family="Helvetica,sans-Serif" font-size="10.00">mResistance</text>
</g>
<!-- Node22 -->
<g id="node22" class="node">
<title>Node22</title>
<g id="a_node22"><a xlink:title=" ">
<polygon fill="none" stroke="#bfbfbf" points="166,-103.5 166,-144.5 282,-144.5 282,-103.5 166,-103.5"/>
<text text-anchor="start" x="174" y="-132.5" font-family="Helvetica,sans-Serif" font-size="10.00">std::enable_shared</text>
<text text-anchor="start" x="174" y="-121.5" font-family="Helvetica,sans-Serif" font-size="10.00">_from_this&lt; Attribute</text>
<text text-anchor="middle" x="224" y="-110.5" font-family="Helvetica,sans-Serif" font-size="10.00">&lt; Real &gt; &gt;</text>
</a>
</g>
</g>
<!-- Node22&#45;&gt;Node21 -->
<g id="edge32" class="edge">
<title>Node22&#45;&gt;Node21</title>
<path fill="none" stroke="midnightblue" d="M292.35,-131.56C345.41,-137.51 418.65,-145.73 469.34,-151.42"/>
<polygon fill="midnightblue" stroke="midnightblue" points="292.68,-128.07 282.35,-130.44 291.9,-135.03 292.68,-128.07"/>
</g>
<!-- Node23&#45;&gt;Node20 -->
<g id="edge34" class="edge">
<title>Node23&#45;&gt;Node20</title>
<path fill="none" stroke="#9a32cd" stroke-dasharray="5,2" d="M609.09,-55.76C614.47,-55.46 619.81,-55.2 625,-55 665.81,-53.4 711.37,-53.06 748.54,-53.17"/>
<polygon fill="#9a32cd" stroke="#9a32cd" points="608.5,-52.29 598.72,-56.38 608.91,-59.28 608.5,-52.29"/>
<text text-anchor="middle" x="678" y="-58" font-family="Helvetica,sans-Serif" font-size="10.00"> mRatio</text>
</g>
<!-- Node24 -->
<g id="node24" class="node">
<title>Node24</title>
<g id="a_node24"><a xlink:title=" ">
<polygon fill="none" stroke="#bfbfbf" points="166,-0.5 166,-41.5 282,-41.5 282,-0.5 166,-0.5"/>
<text text-anchor="start" x="174" y="-29.5" font-family="Helvetica,sans-Serif" font-size="10.00">std::enable_shared</text>
<text text-anchor="start" x="174" y="-18.5" font-family="Helvetica,sans-Serif" font-size="10.00">_from_this&lt; Attribute</text>
<text text-anchor="middle" x="224" y="-7.5" font-family="Helvetica,sans-Serif" font-size="10.00">&lt; Complex &gt; &gt;</text>
</a>
</g>
</g>
<!-- Node24&#45;&gt;Node23 -->
<g id="edge36" class="edge">
<title>Node24&#45;&gt;Node23</title>
<path fill="none" stroke="midnightblue" d="M292.36,-30.11C342.08,-36.84 409.49,-45.96 459.48,-52.73"/>
<polygon fill="midnightblue" stroke="midnightblue" points="292.73,-26.63 282.35,-28.76 291.79,-33.57 292.73,-26.63"/>
</g>
<!-- Node25 -->
<g id="node25" class="node">
<title>Node25</title>
<g id="a_node25"><a xlink:href="class_shared_factory.html" target="_top" xlink:title=" ">
<polygon fill="none" stroke="black" points="1962,-118.5 1962,-137.5 2120,-137.5 2120,-118.5 1962,-118.5"/>
<text text-anchor="middle" x="2041" y="-125.5" font-family="Helvetica,sans-Serif" font-size="10.00">SharedFactory&lt; Transformer &gt;</text>
</a>
</g>
</g>
<!-- Node25&#45;&gt;Node1 -->
<g id="edge38" class="edge">
<title>Node25&#45;&gt;Node1</title>
<path fill="none" stroke="midnightblue" d="M2098.56,-139.68C2124.65,-145.07 2155.24,-151.39 2179.9,-156.48"/>
<polygon fill="midnightblue" stroke="midnightblue" points="2098.93,-136.18 2088.43,-137.59 2097.52,-143.04 2098.93,-136.18"/>
</g>
<!-- Node26 -->
<g id="node26" class="node">
<title>Node26</title>
<g id="a_node26"><a xlink:href="class_shared_factory.html" target="_top" xlink:title=" ">
<polygon fill="none" stroke="black" points="1722.5,-118.5 1722.5,-137.5 1827.5,-137.5 1827.5,-118.5 1722.5,-118.5"/>
<text text-anchor="middle" x="1775" y="-125.5" font-family="Helvetica,sans-Serif" font-size="10.00">SharedFactory&lt; T &gt;</text>
</a>
</g>
</g>
<!-- Node26&#45;&gt;Node25 -->
<g id="edge39" class="edge">
<title>Node26&#45;&gt;Node25</title>
<path fill="none" stroke="orange" stroke-dasharray="5,2" d="M1837.68,-128C1874.71,-128 1922.17,-128 1961.81,-128"/>
<polygon fill="orange" stroke="orange" points="1837.53,-124.5 1827.53,-128 1837.53,-131.5 1837.53,-124.5"/>
<text text-anchor="middle" x="1905" y="-131" font-family="Helvetica,sans-Serif" font-size="10.00"> &lt; Transformer &gt;</text>
</g>
<!-- Node27 -->
<g id="node27" class="node">
<title>Node27</title>
<g id="a_node27"><a xlink:href="class_c_p_s_1_1_p_f_solver_interface_branch.html" target="_top" xlink:title="Common base class of all Component templates.">
<polygon fill="none" stroke="black" points="1963,-80.5 1963,-99.5 2119,-99.5 2119,-80.5 1963,-80.5"/>
<text text-anchor="middle" x="2041" y="-87.5" font-family="Helvetica,sans-Serif" font-size="10.00">CPS::PFSolverInterfaceBranch</text>
</a>
</g>
</g>
<!-- Node27&#45;&gt;Node1 -->
<g id="edge40" class="edge">
<title>Node27&#45;&gt;Node1</title>
<path fill="none" stroke="midnightblue" d="M2099.71,-102.3C2106.63,-104.29 2113.53,-106.52 2120,-109 2154.14,-122.09 2191.14,-143.92 2211.13,-156.42"/>
<polygon fill="midnightblue" stroke="midnightblue" points="2100.18,-98.8 2089.61,-99.56 2098.35,-105.55 2100.18,-98.8"/>
</g>
<!-- Node28&#45;&gt;Node1 -->
<g id="edge42" class="edge">
<title>Node28&#45;&gt;Node1</title>
<path fill="none" stroke="#9a32cd" stroke-dasharray="5,2" d="M617.35,-269.32C859.51,-261.35 1559.72,-234.78 2139,-178 2146.13,-177.3 2153.58,-176.45 2160.98,-175.54"/>
<polygon fill="#9a32cd" stroke="#9a32cd" points="617.08,-265.82 607.2,-269.65 617.31,-272.82 617.08,-265.82"/>
<text text-anchor="middle" x="1392.5" y="-240" font-family="Helvetica,sans-Serif" font-size="10.00"> mCurrent</text>
</g>
<!-- Node29 -->
<g id="node29" class="node">
<title>Node29</title>
<g id="a_node29"><a xlink:title=" ">
<polygon fill="none" stroke="#bfbfbf" points="166,-242.5 166,-283.5 282,-283.5 282,-242.5 166,-242.5"/>
<text text-anchor="start" x="174" y="-271.5" font-family="Helvetica,sans-Serif" font-size="10.00">std::enable_shared</text>
<text text-anchor="start" x="174" y="-260.5" font-family="Helvetica,sans-Serif" font-size="10.00">_from_this&lt; Attribute</text>
<text text-anchor="middle" x="224" y="-249.5" font-family="Helvetica,sans-Serif" font-size="10.00">&lt; MatrixComp &gt; &gt;</text>
</a>
</g>
</g>
<!-- Node29&#45;&gt;Node28 -->
<g id="edge44" class="edge">
<title>Node29&#45;&gt;Node28</title>
<path fill="none" stroke="midnightblue" d="M292.41,-267.09C299.36,-267.44 306.32,-267.75 313,-268 358.7,-269.72 409.89,-270.71 450.86,-271.28"/>
<polygon fill="midnightblue" stroke="midnightblue" points="292.43,-263.59 282.26,-266.57 292.07,-270.58 292.43,-263.59"/>
</g>
</g>
</svg>
        <g id="navigator" transform="translate(0 0)" fill="#404254">
                <rect fill="#f2f5e9" fill-opacity="0.5" stroke="#606060" stroke-width=".5" x="0" y="0" width="60" height="60"/>
                <use id="zoomplus" xlink:href="#zoomPlus" x="17" y="9" onmousedown="handleZoom(evt,'in')"/>
                <use id="zoomminus" xlink:href="#zoomMin" x="42" y="9" onmousedown="handleZoom(evt,'out')"/>
                <use id="reset" xlink:href="#resetDef" x="30" y="36" onmousedown="handleReset()"/>
                <g id="arrowUp" xlink:href="#dirArrow" transform="translate(30 24)" onmousedown="handlePan(0,-1)">
                  <use xlink:href="#rim" fill="#404040">
                        <set attributeName="fill" to="#808080" begin="arrowUp.mouseover" end="arrowUp.mouseout"/>
                  </use>
                  <path fill="none" stroke="white" stroke-width="1.5" d="M0,-3.0v7 M-2.5,-0.5L0,-3.0L2.5,-0.5"/>
                </g>
                <g id="arrowRight" xlink:href="#dirArrow" transform="rotate(90) translate(36 -43)" onmousedown="handlePan(1,0)">
                  <use xlink:href="#rim" fill="#404040">
                        <set attributeName="fill" to="#808080" begin="arrowRight.mouseover" end="arrowRight.mouseout"/>
                  </use>
                  <path fill="none" stroke="white" stroke-width="1.5" d="M0,-3.0v7 M-2.5,-0.5L0,-3.0L2.5,-0.5"/>
                </g>
                <g id="arrowDown" xlink:href="#dirArrow" transform="rotate(180) translate(-30 -48)" onmousedown="handlePan(0,1)">
                  <use xlink:href="#rim" fill="#404040">
                        <set attributeName="fill" to="#808080" begin="arrowDown.mouseover" end="arrowDown.mouseout"/>
                  </use>
                  <path fill="none" stroke="white" stroke-width="1.5" d="M0,-3.0v7 M-2.5,-0.5L0,-3.0L2.5,-0.5"/>
                </g>
                <g id="arrowLeft" xlink:href="#dirArrow" transform="rotate(270) translate(-36 17)" onmousedown="handlePan(-1,0)">
                  <use xlink:href="#rim" fill="#404040">
                        <set attributeName="fill" to="#808080" begin="arrowLeft.mouseover" end="arrowLeft.mouseout"/>
                  </use>
                  <path fill="none" stroke="white" stroke-width="1.5" d="M0,-3.0v7 M-2.5,-0.5L0,-3.0L2.5,-0.5"/>
                </g>
        </g>
        <svg viewBox="0 0 15 15" width="100%" height="30px" preserveAspectRatio="xMaxYMin meet">
         <g id="arrow_out" transform="scale(0.3 0.3)">
          <a xlink:href="class_c_p_s_1_1_s_p_1_1_ph1_1_1_transformer__coll__graph_org.svg" target="_base">
           <rect id="button" ry="5" rx="5" y="6" x="6" height="38" width="38"
                fill="#f2f5e9" fill-opacity="0.5" stroke="#606060" stroke-width="1.0"/>
           <path id="arrow"
             d="M 11.500037,31.436501 C 11.940474,20.09759 22.043105,11.32322 32.158766,21.979434 L 37.068811,17.246167 C 37.068811,17.246167 37.088388,32 37.088388,32 L 22.160133,31.978069 C 22.160133,31.978069 26.997745,27.140456 26.997745,27.140456 C 18.528582,18.264221 13.291696,25.230495 11.500037,31.436501 z"
             style="fill:#404040;"/>
          </a>
         </g>
        </svg>
</svg>
