<?xml version="1.0" encoding="UTF-8" standalone="no"?>
<!DOCTYPE svg PUBLIC "-//W3C//DTD SVG 1.1//EN"
 "http://www.w3.org/Graphics/SVG/1.1/DTD/svg11.dtd">
<!-- Generated by graphviz version 12.2.1 (20241206.2353)
 -->
<!-- Title: CPS::DP::Ph3::SeriesSwitch Pages: 1 -->
<svg width="1153pt" height="290pt"
 viewBox="0.00 0.00 1153.25 290.38" xmlns="http://www.w3.org/2000/svg" xmlns:xlink="http://www.w3.org/1999/xlink">
<g id="graph0" class="graph" transform="scale(1 1) rotate(0) translate(4 286.38)">
<title>CPS::DP::Ph3::SeriesSwitch</title>
<!-- Node1 -->
<g id="Node000001" class="node">
<title>Node1</title>
<g id="a_Node000001"><a xlink:title="Dynamic phasor three&#45;phase switch.">
<polygon fill="#999999" stroke="#666666" points="1145.25,-102.25 1004.75,-102.25 1004.75,-80 1145.25,-80 1145.25,-102.25"/>
<text text-anchor="middle" x="1075" y="-88.75" font-family="Helvetica,sans-Serif" font-size="10.00">CPS::DP::Ph3::SeriesSwitch</text>
</a>
</g>
</g>
<!-- Node2 -->
<g id="Node000002" class="node">
<title>Node2</title>
<g id="a_Node000002"><a xlink:href="class_c_p_s_1_1_m_n_a_sim_power_comp.html" target="_top" xlink:title=" ">
<polygon fill="white" stroke="#666666" points="950.88,-199.38 814.88,-199.38 814.88,-162.88 950.88,-162.88 950.88,-199.38"/>
<text text-anchor="start" x="822.88" y="-185.88" font-family="Helvetica,sans-Serif" font-size="10.00">CPS::MNASimPowerComp</text>
<text text-anchor="middle" x="882.88" y="-171.62" font-family="Helvetica,sans-Serif" font-size="10.00">&lt; Complex &gt;</text>
</a>
</g>
</g>
<!-- Node2&#45;&gt;Node1 -->
<g id="edge1_Node000001_Node000002" class="edge">
<title>Node2&#45;&gt;Node1</title>
<g id="a_edge1_Node000001_Node000002"><a xlink:title=" ">
<path fill="none" stroke="#63b8ff" d="M950.79,-158.36C956.58,-156.04 962.3,-153.62 967.75,-151.12 999.73,-136.5 1034.91,-115.62 1055.7,-102.74"/>
<polygon fill="#63b8ff" stroke="#63b8ff" points="949.81,-154.99 941.76,-161.87 952.35,-161.51 949.81,-154.99"/>
</a>
</g>
</g>
<!-- Node3 -->
<g id="Node000003" class="node">
<title>Node3</title>
<g id="a_Node000003"><a xlink:href="class_c_p_s_1_1_sim_power_comp.html" target="_top" xlink:title=" ">
<polygon fill="white" stroke="#666666" points="676.88,-246.38 558.12,-246.38 558.12,-209.88 676.88,-209.88 676.88,-246.38"/>
<text text-anchor="start" x="566.12" y="-232.88" font-family="Helvetica,sans-Serif" font-size="10.00">CPS::SimPowerComp&lt;</text>
<text text-anchor="middle" x="617.5" y="-218.62" font-family="Helvetica,sans-Serif" font-size="10.00"> Complex &gt;</text>
</a>
</g>
</g>
<!-- Node3&#45;&gt;Node2 -->
<g id="edge2_Node000002_Node000003" class="edge">
<title>Node3&#45;&gt;Node2</title>
<g id="a_edge2_Node000002_Node000003"><a xlink:title=" ">
<path fill="none" stroke="#63b8ff" d="M688.54,-215.63C727.54,-208.67 775.87,-200.04 814.45,-193.16"/>
<polygon fill="#63b8ff" stroke="#63b8ff" points="688,-212.17 678.77,-217.37 689.23,-219.06 688,-212.17"/>
</a>
</g>
</g>
<!-- Node4 -->
<g id="Node000004" class="node">
<title>Node4</title>
<g id="a_Node000004"><a xlink:href="class_c_p_s_1_1_topological_power_comp.html" target="_top" xlink:title=" ">
<polygon fill="white" stroke="#666666" points="299.25,-229.25 152,-229.25 152,-207 299.25,-207 299.25,-229.25"/>
<text text-anchor="middle" x="225.62" y="-215.75" font-family="Helvetica,sans-Serif" font-size="10.00">CPS::TopologicalPowerComp</text>
</a>
</g>
</g>
<!-- Node4&#45;&gt;Node3 -->
<g id="edge3_Node000003_Node000004" class="edge">
<title>Node4&#45;&gt;Node3</title>
<g id="a_edge3_Node000003_Node000004"><a xlink:title=" ">
<path fill="none" stroke="#63b8ff" d="M310.7,-220.28C385.18,-222.19 491.99,-224.93 557.67,-226.62"/>
<polygon fill="#63b8ff" stroke="#63b8ff" points="311.1,-216.79 301.01,-220.03 310.92,-223.79 311.1,-216.79"/>
</a>
</g>
</g>
<!-- Node6 -->
<g id="Node000006" class="node">
<title>Node6</title>
<g id="a_Node000006"><a xlink:href="class_c_p_s_1_1_sim_power_comp.html" target="_top" xlink:title="Base class for all components that are transmitting power.">
<polygon fill="white" stroke="#666666" points="455,-282.38 336.25,-282.38 336.25,-245.88 455,-245.88 455,-282.38"/>
<text text-anchor="start" x="344.25" y="-268.88" font-family="Helvetica,sans-Serif" font-size="10.00">CPS::SimPowerComp&lt;</text>
<text text-anchor="middle" x="395.62" y="-254.62" font-family="Helvetica,sans-Serif" font-size="10.00"> VarType &gt;</text>
</a>
</g>
</g>
<!-- Node4&#45;&gt;Node6 -->
<g id="edge6_Node000006_Node000004" class="edge">
<title>Node4&#45;&gt;Node6</title>
<g id="a_edge6_Node000006_Node000004"><a xlink:title=" ">
<path fill="none" stroke="#63b8ff" d="M280.1,-232.77C297.92,-237.65 317.87,-243.11 336.07,-248.09"/>
<polygon fill="#63b8ff" stroke="#63b8ff" points="281.05,-229.4 270.48,-230.13 279.2,-236.15 281.05,-229.4"/>
</a>
</g>
</g>
<!-- Node9 -->
<g id="Node000009" class="node">
<title>Node9</title>
<g id="a_Node000009"><a xlink:href="class_c_p_s_1_1_sim_power_comp.html" target="_top" xlink:title="Base class for all components that are transmitting power.">
<polygon fill="white" stroke="#666666" points="455,-150.38 336.25,-150.38 336.25,-113.88 455,-113.88 455,-150.38"/>
<text text-anchor="start" x="344.25" y="-136.88" font-family="Helvetica,sans-Serif" font-size="10.00">CPS::SimPowerComp&lt;</text>
<text text-anchor="middle" x="395.62" y="-122.62" font-family="Helvetica,sans-Serif" font-size="10.00"> VarType &gt;</text>
</a>
</g>
</g>
<!-- Node4&#45;&gt;Node9 -->
<g id="edge10_Node000009_Node000004" class="edge">
<title>Node4&#45;&gt;Node9</title>
<g id="a_edge10_Node000009_Node000004"><a xlink:title=" ">
<path fill="none" stroke="#63b8ff" d="M257.04,-201.11C278.9,-189.05 309.17,-172.66 336.25,-159.12 341.74,-156.38 347.57,-153.57 353.34,-150.84"/>
<polygon fill="#63b8ff" stroke="#63b8ff" points="255.41,-198.02 248.36,-205.93 258.81,-204.14 255.41,-198.02"/>
</a>
</g>
</g>
<!-- Node5 -->
<g id="Node000005" class="node">
<title>Node5</title>
<g id="a_Node000005"><a xlink:href="class_c_p_s_1_1_identified_object.html" target="_top" xlink:title=" ">
<polygon fill="white" stroke="#666666" points="115,-229.25 0,-229.25 0,-207 115,-207 115,-229.25"/>
<text text-anchor="middle" x="57.5" y="-215.75" font-family="Helvetica,sans-Serif" font-size="10.00">CPS::IdentifiedObject</text>
</a>
</g>
</g>
<!-- Node5&#45;&gt;Node4 -->
<g id="edge4_Node000004_Node000005" class="edge">
<title>Node5&#45;&gt;Node4</title>
<g id="a_edge4_Node000004_Node000005"><a xlink:title=" ">
<path fill="none" stroke="#63b8ff" d="M126.7,-218.12C134.95,-218.12 143.41,-218.12 151.73,-218.12"/>
<polygon fill="#63b8ff" stroke="#63b8ff" points="126.72,-214.63 116.72,-218.13 126.72,-221.63 126.72,-214.63"/>
</a>
</g>
</g>
<!-- Node6&#45;&gt;Node3 -->
<g id="edge5_Node000003_Node000006" class="edge">
<title>Node6&#45;&gt;Node3</title>
<g id="a_edge5_Node000003_Node000006"><a xlink:title=" ">
<path fill="none" stroke="orange" stroke-dasharray="5,2" d="M466.28,-252.72C495.68,-247.91 529.53,-242.36 557.65,-237.76"/>
<polygon fill="orange" stroke="orange" points="466.06,-249.21 456.75,-254.28 467.19,-256.12 466.06,-249.21"/>
</a>
</g>
<text text-anchor="middle" x="502.25" y="-256.2" font-family="Helvetica,sans-Serif" font-size="10.00" fill="grey"> &lt; Complex &gt;</text>
</g>
<!-- Node7 -->
<g id="Node000007" class="node">
<title>Node7</title>
<g id="a_Node000007"><a xlink:href="class_c_p_s_1_1_m_n_a_interface.html" target="_top" xlink:title="Interface to be implemented by all models used by the MNA solver.">
<polygon fill="white" stroke="#666666" points="448.62,-190.25 342.62,-190.25 342.62,-168 448.62,-168 448.62,-190.25"/>
<text text-anchor="middle" x="395.62" y="-176.75" font-family="Helvetica,sans-Serif" font-size="10.00">CPS::MNAInterface</text>
</a>
</g>
</g>
<!-- Node7&#45;&gt;Node2 -->
<g id="edge7_Node000002_Node000007" class="edge">
<title>Node7&#45;&gt;Node2</title>
<g id="a_edge7_Node000002_Node000007"><a xlink:title=" ">
<path fill="none" stroke="#63b8ff" d="M460.36,-179.39C552.18,-179.77 720.89,-180.46 814.62,-180.85"/>
<polygon fill="#63b8ff" stroke="#63b8ff" points="460.54,-175.89 450.53,-179.35 460.52,-182.89 460.54,-175.89"/>
</a>
</g>
</g>
<!-- Node8 -->
<g id="Node000008" class="node">
<title>Node8</title>
<g id="a_Node000008"><a xlink:href="class_c_p_s_1_1_m_n_a_sim_power_comp.html" target="_top" xlink:title="Base class for all MNA components that are transmitting power.">
<polygon fill="white" stroke="#666666" points="685.5,-154.38 549.5,-154.38 549.5,-117.88 685.5,-117.88 685.5,-154.38"/>
<text text-anchor="start" x="557.5" y="-140.88" font-family="Helvetica,sans-Serif" font-size="10.00">CPS::MNASimPowerComp</text>
<text text-anchor="middle" x="617.5" y="-126.62" font-family="Helvetica,sans-Serif" font-size="10.00">&lt; VarType &gt;</text>
</a>
</g>
</g>
<!-- Node7&#45;&gt;Node8 -->
<g id="edge11_Node000008_Node000007" class="edge">
<title>Node7&#45;&gt;Node8</title>
<g id="a_edge11_Node000008_Node000007"><a xlink:title=" ">
<path fill="none" stroke="#63b8ff" d="M460.23,-166.69C488.09,-161.24 520.81,-154.84 549.09,-149.31"/>
<polygon fill="#63b8ff" stroke="#63b8ff" points="459.64,-163.24 450.5,-168.59 460.98,-170.11 459.64,-163.24"/>
</a>
</g>
</g>
<!-- Node8&#45;&gt;Node2 -->
<g id="edge8_Node000002_Node000008" class="edge">
<title>Node8&#45;&gt;Node2</title>
<g id="a_edge8_Node000002_Node000008"><a xlink:title=" ">
<path fill="none" stroke="orange" stroke-dasharray="5,2" d="M696.79,-142.31C723.33,-145.05 753.07,-148.82 780,-153.88 792.33,-156.19 805.35,-159.21 817.82,-162.4"/>
<polygon fill="orange" stroke="orange" points="697.43,-138.86 687.13,-141.35 696.74,-145.83 697.43,-138.86"/>
</a>
</g>
<text text-anchor="middle" x="741.75" y="-158.62" font-family="Helvetica,sans-Serif" font-size="10.00" fill="grey"> &lt; Complex &gt;</text>
</g>
<!-- Node9&#45;&gt;Node8 -->
<g id="edge9_Node000008_Node000009" class="edge">
<title>Node9&#45;&gt;Node8</title>
<g id="a_edge9_Node000008_Node000009"><a xlink:title=" ">
<path fill="none" stroke="#63b8ff" d="M466.71,-133.4C493.07,-133.88 522.97,-134.42 549.08,-134.9"/>
<polygon fill="#63b8ff" stroke="#63b8ff" points="466.83,-129.9 456.77,-133.22 466.71,-136.9 466.83,-129.9"/>
</a>
</g>
</g>
<!-- Node10 -->
<g id="Node000010" class="node">
<title>Node10</title>
<g id="a_Node000010"><a xlink:href="class_c_p_s_1_1_base_1_1_ph1_1_1_switch.html" target="_top" xlink:title="Dynamic Phasor Three&#45;Phase Switch.">
<polygon fill="white" stroke="#666666" points="943.38,-142.25 822.38,-142.25 822.38,-120 943.38,-120 943.38,-142.25"/>
<text text-anchor="middle" x="882.88" y="-128.75" font-family="Helvetica,sans-Serif" font-size="10.00">CPS::Base::Ph1::Switch</text>
</a>
</g>
</g>
<!-- Node10&#45;&gt;Node1 -->
<g id="edge12_Node000001_Node000010" class="edge">
<title>Node10&#45;&gt;Node1</title>
<g id="a_edge12_Node000001_Node000010"><a xlink:title=" ">
<path fill="none" stroke="#63b8ff" d="M950.26,-117.16C972.7,-112.44 997.48,-107.22 1018.94,-102.71"/>
<polygon fill="#63b8ff" stroke="#63b8ff" points="949.67,-113.71 940.6,-119.19 951.11,-120.56 949.67,-113.71"/>
</a>
</g>
</g>
<!-- Node11 -->
<g id="Node000011" class="node">
<title>Node11</title>
<g id="a_Node000011"><a xlink:href="class_shared_factory.html" target="_top" xlink:title=" ">
<polygon fill="white" stroke="#666666" points="961.38,-102.25 804.38,-102.25 804.38,-80 961.38,-80 961.38,-102.25"/>
<text text-anchor="middle" x="882.88" y="-88.75" font-family="Helvetica,sans-Serif" font-size="10.00">SharedFactory&lt; SeriesSwitch &gt;</text>
</a>
</g>
</g>
<!-- Node11&#45;&gt;Node1 -->
<g id="edge13_Node000001_Node000011" class="edge">
<title>Node11&#45;&gt;Node1</title>
<g id="a_edge13_Node000001_Node000011"><a xlink:title=" ">
<path fill="none" stroke="#63b8ff" d="M973.12,-91.12C983.65,-91.12 994.27,-91.12 1004.48,-91.12"/>
<polygon fill="#63b8ff" stroke="#63b8ff" points="973.27,-87.63 963.27,-91.13 973.27,-94.63 973.27,-87.63"/>
</a>
</g>
</g>
<!-- Node12 -->
<g id="Node000012" class="node">
<title>Node12</title>
<g id="a_Node000012"><a xlink:href="class_shared_factory.html" target="_top" xlink:title=" ">
<polygon fill="white" stroke="#666666" points="669.75,-100.25 565.25,-100.25 565.25,-78 669.75,-78 669.75,-100.25"/>
<text text-anchor="middle" x="617.5" y="-86.75" font-family="Helvetica,sans-Serif" font-size="10.00">SharedFactory&lt; T &gt;</text>
</a>
</g>
</g>
<!-- Node12&#45;&gt;Node11 -->
<g id="edge14_Node000011_Node000012" class="edge">
<title>Node12&#45;&gt;Node11</title>
<g id="a_edge14_Node000011_Node000012"><a xlink:title=" ">
<path fill="none" stroke="orange" stroke-dasharray="5,2" d="M681.3,-89.6C718.11,-89.88 764.91,-90.24 804.05,-90.53"/>
<polygon fill="orange" stroke="orange" points="681.76,-86.11 671.73,-89.53 681.71,-93.11 681.76,-86.11"/>
</a>
</g>
<text text-anchor="middle" x="741.75" y="-95.05" font-family="Helvetica,sans-Serif" font-size="10.00" fill="grey"> &lt; SeriesSwitch &gt;</text>
</g>
<!-- Node13 -->
<g id="Node000013" class="node">
<title>Node13</title>
<g id="a_Node000013"><a xlink:href="class_c_p_s_1_1_m_n_a_switch_interface.html" target="_top" xlink:title="MNA interface to be used by switching devices.">
<polygon fill="white" stroke="#666666" points="950.5,-62.25 815.25,-62.25 815.25,-40 950.5,-40 950.5,-62.25"/>
<text text-anchor="middle" x="882.88" y="-48.75" font-family="Helvetica,sans-Serif" font-size="10.00">CPS::MNASwitchInterface</text>
</a>
</g>
</g>
<!-- Node13&#45;&gt;Node1 -->
<g id="edge15_Node000001_Node000013" class="edge">
<title>Node13&#45;&gt;Node1</title>
<g id="a_edge15_Node000001_Node000013"><a xlink:title=" ">
<path fill="none" stroke="#63b8ff" d="M950.26,-65.09C972.7,-69.81 997.48,-75.03 1018.94,-79.54"/>
<polygon fill="#63b8ff" stroke="#63b8ff" points="951.11,-61.69 940.6,-63.06 949.67,-68.54 951.11,-61.69"/>
</a>
</g>
</g>
<!-- Node14 -->
<g id="Node000014" class="node">
<title>Node14</title>
<g id="a_Node000014"><a xlink:href="class_c_p_s_1_1_m_n_a_variable_comp_interface.html" target="_top" xlink:title="MNA interface to be used by elements that require recomputing of the system matrix.">
<polygon fill="white" stroke="#666666" points="967.75,-22.25 798,-22.25 798,0 967.75,0 967.75,-22.25"/>
<text text-anchor="middle" x="882.88" y="-8.75" font-family="Helvetica,sans-Serif" font-size="10.00">CPS::MNAVariableCompInterface</text>
</a>
</g>
</g>
<!-- Node14&#45;&gt;Node1 -->
<g id="edge16_Node000001_Node000014" class="edge">
<title>Node14&#45;&gt;Node1</title>
<g id="a_edge16_Node000001_Node000014"><a xlink:title=" ">
<path fill="none" stroke="#63b8ff" d="M952.56,-25.82C957.75,-27.44 962.87,-29.21 967.75,-31.12 1001.08,-44.21 1036.71,-66.17 1057.07,-79.58"/>
<polygon fill="#63b8ff" stroke="#63b8ff" points="953.87,-22.56 943.29,-23.12 951.91,-29.28 953.87,-22.56"/>
</a>
</g>
</g>
</g>
</svg>
