<?xml version="1.0" encoding="UTF-8" standalone="no"?>
<!DOCTYPE svg PUBLIC "-//W3C//DTD SVG 1.1//EN"
 "http://www.w3.org/Graphics/SVG/1.1/DTD/svg11.dtd">
<!-- Generated by graphviz version 2.50.0 (0)
 -->
<!-- Title: CPS::DP::Ph1::NetworkInjection Pages: 1 -->
<!--zoomable 528 -->
<svg id="main" version="1.1" xmlns="http://www.w3.org/2000/svg" xmlns:xlink="http://www.w3.org/1999/xlink" xml:space="preserve" onload="init(evt)">
<style type="text/css"><![CDATA[
.edge:hover path { stroke: red; }
.edge:hover polygon { stroke: red; fill: red; }
]]></style>
<script type="text/javascript"><![CDATA[
var edges = document.getElementsByTagName('g');
if (edges && edges.length) {
  for (var i=0;i<edges.length;i++) {
    if (edges[i].id.substr(0,4)=='edge') {
      edges[i].setAttribute('class','edge');
    }
  }
}
]]></script>
        <defs>
                <circle id="rim" cx="0" cy="0" r="7"/>
                <circle id="rim2" cx="0" cy="0" r="3.5"/>
                <g id="zoomPlus">
                        <use xlink:href="#rim" fill="#404040">
                                <set attributeName="fill" to="#808080" begin="zoomplus.mouseover" end="zoomplus.mouseout"/>
                        </use>
                        <path d="M-4,0h8M0,-4v8" fill="none" stroke="white" stroke-width="1.5" pointer-events="none"/>
                </g>
                <g id="zoomMin">
                        <use xlink:href="#rim" fill="#404040">
                                <set attributeName="fill" to="#808080" begin="zoomminus.mouseover" end="zoomminus.mouseout"/>
                        </use>
                        <path d="M-4,0h8" fill="none" stroke="white" stroke-width="1.5" pointer-events="none"/>
                </g>
                <g id="dirArrow">
                        <path fill="none" stroke="white" stroke-width="1.5" d="M0,-3.0v7 M-2.5,-0.5L0,-3.0L2.5,-0.5"/>
                </g>
               <g id="resetDef">
                       <use xlink:href="#rim2" fill="#404040">
                               <set attributeName="fill" to="#808080" begin="reset.mouseover" end="reset.mouseout"/>
                       </use>
               </g>
        </defs>

<script type="text/javascript">
var viewWidth = 2256;
var viewHeight = 528;
var sectionId = 'dynsection-1';
</script>
<script xlink:href="svgpan.js"/>
<svg id="graph" class="graph">
<g id="viewport">
<title>CPS::DP::Ph1::NetworkInjection</title>
<!-- Node1 -->
<g id="node1" class="node">
<title>Node1</title>
<g id="a_node1"><a xlink:title="Network injection model.">
<polygon fill="#bfbfbf" stroke="black" points="2084,-196.5 2084,-215.5 2248,-215.5 2248,-196.5 2084,-196.5"/>
<text text-anchor="middle" x="2166" y="-203.5" font-family="Helvetica,sans-Serif" font-size="10.00">CPS::DP::Ph1::NetworkInjection</text>
</a>
</g>
</g>
<!-- Node2 -->
<g id="node2" class="node">
<title>Node2</title>
<g id="a_node2"><a xlink:href="class_c_p_s_1_1_composite_power_comp.html" target="_top" xlink:title=" ">
<polygon fill="none" stroke="black" points="1883.5,-191 1883.5,-221 2029.5,-221 2029.5,-191 1883.5,-191"/>
<text text-anchor="start" x="1891.5" y="-209" font-family="Helvetica,sans-Serif" font-size="10.00">CPS::CompositePowerComp</text>
<text text-anchor="middle" x="1956.5" y="-198" font-family="Helvetica,sans-Serif" font-size="10.00">&lt; Complex &gt;</text>
</a>
</g>
</g>
<!-- Node2&#45;&gt;Node1 -->
<g id="edge1" class="edge">
<title>Node2&#45;&gt;Node1</title>
<path fill="none" stroke="midnightblue" d="M2040.13,-206C2054.49,-206 2069.42,-206 2083.75,-206"/>
<polygon fill="midnightblue" stroke="midnightblue" points="2039.78,-202.5 2029.78,-206 2039.78,-209.5 2039.78,-202.5"/>
</g>
<!-- Node3 -->
<g id="node3" class="node">
<title>Node3</title>
<g id="a_node3"><a xlink:href="class_c_p_s_1_1_m_n_a_sim_power_comp.html" target="_top" xlink:title=" ">
<polygon fill="none" stroke="black" points="1588.5,-191 1588.5,-221 1725.5,-221 1725.5,-191 1588.5,-191"/>
<text text-anchor="start" x="1596.5" y="-209" font-family="Helvetica,sans-Serif" font-size="10.00">CPS::MNASimPowerComp</text>
<text text-anchor="middle" x="1657" y="-198" font-family="Helvetica,sans-Serif" font-size="10.00">&lt; Complex &gt;</text>
</a>
</g>
</g>
<!-- Node3&#45;&gt;Node2 -->
<g id="edge2" class="edge">
<title>Node3&#45;&gt;Node2</title>
<path fill="none" stroke="midnightblue" d="M1735.66,-206C1781.31,-206 1838.65,-206 1883.32,-206"/>
<polygon fill="midnightblue" stroke="midnightblue" points="1735.51,-202.5 1725.51,-206 1735.51,-209.5 1735.51,-202.5"/>
</g>
<!-- Node4 -->
<g id="node4" class="node">
<title>Node4</title>
<g id="a_node4"><a xlink:href="class_c_p_s_1_1_sim_power_comp.html" target="_top" xlink:title=" ">
<polygon fill="none" stroke="black" points="1361,-249 1361,-279 1480,-279 1480,-249 1361,-249"/>
<text text-anchor="start" x="1369" y="-267" font-family="Helvetica,sans-Serif" font-size="10.00">CPS::SimPowerComp&lt;</text>
<text text-anchor="middle" x="1420.5" y="-256" font-family="Helvetica,sans-Serif" font-size="10.00"> Complex &gt;</text>
</a>
</g>
</g>
<!-- Node4&#45;&gt;Node3 -->
<g id="edge3" class="edge">
<title>Node4&#45;&gt;Node3</title>
<path fill="none" stroke="midnightblue" d="M1490.19,-247.01C1523.49,-238.77 1563.14,-228.97 1595.32,-221.01"/>
<polygon fill="midnightblue" stroke="midnightblue" points="1488.94,-243.72 1480.07,-249.51 1490.62,-250.51 1488.94,-243.72"/>
</g>
<!-- Node5 -->
<g id="node5" class="node">
<title>Node5</title>
<g id="a_node5"><a xlink:href="class_c_p_s_1_1_topological_power_comp.html" target="_top" xlink:title=" ">
<polygon fill="none" stroke="black" points="883,-263.5 883,-282.5 1031,-282.5 1031,-263.5 883,-263.5"/>
<text text-anchor="middle" x="957" y="-270.5" font-family="Helvetica,sans-Serif" font-size="10.00">CPS::TopologicalPowerComp</text>
</a>
</g>
</g>
<!-- Node5&#45;&gt;Node4 -->
<g id="edge4" class="edge">
<title>Node5&#45;&gt;Node4</title>
<path fill="none" stroke="midnightblue" d="M1041.21,-274.94C1117.44,-276.2 1233.38,-276.83 1334,-272 1342.64,-271.59 1351.75,-270.95 1360.68,-270.21"/>
<polygon fill="midnightblue" stroke="midnightblue" points="1041.24,-271.44 1031.19,-274.77 1041.12,-278.44 1041.24,-271.44"/>
</g>
<!-- Node12 -->
<g id="node12" class="node">
<title>Node12</title>
<g id="a_node12"><a xlink:href="class_c_p_s_1_1_sim_power_comp.html" target="_top" xlink:title="Base class for all components that are transmitting power.">
<polygon fill="none" stroke="black" points="1134,-229 1134,-259 1253,-259 1253,-229 1134,-229"/>
<text text-anchor="start" x="1142" y="-247" font-family="Helvetica,sans-Serif" font-size="10.00">CPS::SimPowerComp&lt;</text>
<text text-anchor="middle" x="1193.5" y="-236" font-family="Helvetica,sans-Serif" font-size="10.00"> VarType &gt;</text>
</a>
</g>
</g>
<!-- Node5&#45;&gt;Node12 -->
<g id="edge13" class="edge">
<title>Node5&#45;&gt;Node12</title>
<path fill="none" stroke="midnightblue" d="M1041.46,-262.68C1072.04,-258.9 1105.97,-254.7 1133.91,-251.25"/>
<polygon fill="midnightblue" stroke="midnightblue" points="1040.73,-259.24 1031.23,-263.94 1041.59,-266.19 1040.73,-259.24"/>
</g>
<!-- Node6 -->
<g id="node6" class="node">
<title>Node6</title>
<g id="a_node6"><a xlink:href="class_c_p_s_1_1_identified_object.html" target="_top" xlink:title=" ">
<polygon fill="none" stroke="black" points="666,-263.5 666,-282.5 782,-282.5 782,-263.5 666,-263.5"/>
<text text-anchor="middle" x="724" y="-270.5" font-family="Helvetica,sans-Serif" font-size="10.00">CPS::IdentifiedObject</text>
</a>
</g>
</g>
<!-- Node6&#45;&gt;Node5 -->
<g id="edge5" class="edge">
<title>Node6&#45;&gt;Node5</title>
<path fill="none" stroke="midnightblue" d="M792.34,-273C820.77,-273 853.94,-273 882.96,-273"/>
<polygon fill="midnightblue" stroke="midnightblue" points="792.1,-269.5 782.1,-273 792.1,-276.5 792.1,-269.5"/>
</g>
<!-- Node7 -->
<g id="node7" class="node">
<title>Node7</title>
<g id="a_node7"><a xlink:href="class_c_p_s_1_1_attribute.html" target="_top" xlink:title=" ">
<polygon fill="none" stroke="black" points="457,-263.5 457,-282.5 584,-282.5 584,-263.5 457,-263.5"/>
<text text-anchor="middle" x="520.5" y="-270.5" font-family="Helvetica,sans-Serif" font-size="10.00">CPS::Attribute&lt; String &gt;</text>
</a>
</g>
</g>
<!-- Node7&#45;&gt;Node6 -->
<g id="edge6" class="edge">
<title>Node7&#45;&gt;Node6</title>
<path fill="none" stroke="#9a32cd" stroke-dasharray="5,2" d="M594.43,-273C617.95,-273 643.66,-273 665.87,-273"/>
<polygon fill="#9a32cd" stroke="#9a32cd" points="594.15,-269.5 584.15,-273 594.15,-276.5 594.15,-269.5"/>
<text text-anchor="middle" x="628" y="-287" font-family="Helvetica,sans-Serif" font-size="10.00"> mName</text>
<text text-anchor="middle" x="628" y="-276" font-family="Helvetica,sans-Serif" font-size="10.00">mUID</text>
</g>
<!-- Node8 -->
<g id="node8" class="node">
<title>Node8</title>
<g id="a_node8"><a xlink:href="class_c_p_s_1_1_attribute_base.html" target="_top" xlink:title=" ">
<polygon fill="none" stroke="black" points="5.5,-209.5 5.5,-228.5 110.5,-228.5 110.5,-209.5 5.5,-209.5"/>
<text text-anchor="middle" x="58" y="-216.5" font-family="Helvetica,sans-Serif" font-size="10.00">CPS::AttributeBase</text>
</a>
</g>
</g>
<!-- Node8&#45;&gt;Node7 -->
<g id="edge7" class="edge">
<title>Node8&#45;&gt;Node7</title>
<path fill="none" stroke="midnightblue" d="M120.99,-209.11C196.35,-199.36 326.65,-189.86 433,-220 462.99,-228.5 492.86,-250.58 508.44,-263.4"/>
<polygon fill="midnightblue" stroke="midnightblue" points="120.17,-205.69 110.73,-210.49 121.1,-212.63 120.17,-205.69"/>
</g>
<!-- Node10 -->
<g id="node10" class="node">
<title>Node10</title>
<g id="a_node10"><a xlink:href="class_c_p_s_1_1_attribute.html" target="_top" xlink:title=" ">
<polygon fill="none" stroke="black" points="172,-244.5 172,-263.5 276,-263.5 276,-244.5 172,-244.5"/>
<text text-anchor="middle" x="224" y="-251.5" font-family="Helvetica,sans-Serif" font-size="10.00">CPS::Attribute&lt; T &gt;</text>
</a>
</g>
</g>
<!-- Node8&#45;&gt;Node10 -->
<g id="edge10" class="edge">
<title>Node8&#45;&gt;Node10</title>
<path fill="none" stroke="midnightblue" d="M113.85,-230.7C134.77,-235.17 158.36,-240.21 178.24,-244.45"/>
<polygon fill="midnightblue" stroke="midnightblue" points="114.32,-227.23 103.81,-228.56 112.86,-234.07 114.32,-227.23"/>
</g>
<!-- Node13 -->
<g id="node13" class="node">
<title>Node13</title>
<g id="a_node13"><a xlink:href="class_c_p_s_1_1_attribute.html" target="_top" xlink:title=" ">
<polygon fill="none" stroke="black" points="452,-156 452,-186 589,-186 589,-156 452,-156"/>
<text text-anchor="start" x="460" y="-174" font-family="Helvetica,sans-Serif" font-size="10.00">CPS::Attribute&lt; MatrixVar</text>
<text text-anchor="middle" x="520.5" y="-163" font-family="Helvetica,sans-Serif" font-size="10.00">&lt; VarType &gt; &gt;</text>
</a>
</g>
</g>
<!-- Node8&#45;&gt;Node13 -->
<g id="edge15" class="edge">
<title>Node8&#45;&gt;Node13</title>
<path fill="none" stroke="midnightblue" d="M91.77,-205.8C104.76,-200.94 119.93,-195.72 134,-192 263.16,-157.84 299.62,-153.32 433,-161 439.04,-161.35 445.3,-161.83 451.57,-162.4"/>
<polygon fill="midnightblue" stroke="midnightblue" points="90.4,-202.58 82.31,-209.42 92.9,-209.12 90.4,-202.58"/>
</g>
<!-- Node16 -->
<g id="node16" class="node">
<title>Node16</title>
<g id="a_node16"><a xlink:href="class_c_p_s_1_1_attribute.html" target="_top" xlink:title=" ">
<polygon fill="none" stroke="black" points="456,-100.5 456,-119.5 585,-119.5 585,-100.5 456,-100.5"/>
<text text-anchor="middle" x="520.5" y="-107.5" font-family="Helvetica,sans-Serif" font-size="10.00">CPS::Attribute&lt; Matrix &gt;</text>
</a>
</g>
</g>
<!-- Node8&#45;&gt;Node16 -->
<g id="edge20" class="edge">
<title>Node8&#45;&gt;Node16</title>
<path fill="none" stroke="midnightblue" d="M66.06,-200.04C78.41,-170 107.08,-112.47 153,-89 268.78,-29.84 432.77,-78.3 494.61,-100.43"/>
<polygon fill="midnightblue" stroke="midnightblue" points="62.77,-198.83 62.37,-209.42 69.29,-201.39 62.77,-198.83"/>
</g>
<!-- Node23 -->
<g id="node23" class="node">
<title>Node23</title>
<g id="a_node23"><a xlink:href="class_c_p_s_1_1_attribute.html" target="_top" xlink:title=" ">
<polygon fill="none" stroke="black" points="461,-335.5 461,-354.5 580,-354.5 580,-335.5 461,-335.5"/>
<text text-anchor="middle" x="520.5" y="-342.5" font-family="Helvetica,sans-Serif" font-size="10.00">CPS::Attribute&lt; Real &gt;</text>
</a>
</g>
</g>
<!-- Node8&#45;&gt;Node23 -->
<g id="edge33" class="edge">
<title>Node8&#45;&gt;Node23</title>
<path fill="none" stroke="midnightblue" d="M63.13,-238.92C72.09,-276.51 97.16,-357.29 153,-393 205.45,-426.54 375.48,-426.83 433,-403 443.45,-398.67 442.04,-391.91 451,-385 466.49,-373.06 485.87,-362.06 500.06,-354.63"/>
<polygon fill="midnightblue" stroke="midnightblue" points="66.45,-237.74 60.85,-228.74 59.62,-239.27 66.45,-237.74"/>
</g>
<!-- Node25 -->
<g id="node25" class="node">
<title>Node25</title>
<g id="a_node25"><a xlink:href="class_c_p_s_1_1_attribute.html" target="_top" xlink:title=" ">
<polygon fill="none" stroke="black" points="451,-394.5 451,-413.5 590,-413.5 590,-394.5 451,-394.5"/>
<text text-anchor="middle" x="520.5" y="-401.5" font-family="Helvetica,sans-Serif" font-size="10.00">CPS::Attribute&lt; Complex &gt;</text>
</a>
</g>
</g>
<!-- Node8&#45;&gt;Node25 -->
<g id="edge37" class="edge">
<title>Node8&#45;&gt;Node25</title>
<path fill="none" stroke="midnightblue" d="M60.9,-238.83C66.25,-281.89 85.76,-383.01 153,-420 266.56,-482.47 431.17,-435.51 493.91,-413.62"/>
<polygon fill="midnightblue" stroke="midnightblue" points="64.36,-238.32 59.78,-228.77 57.41,-239.09 64.36,-238.32"/>
</g>
<!-- Node9 -->
<g id="node9" class="node">
<title>Node9</title>
<g id="a_node9"><a xlink:title=" ">
<polygon fill="none" stroke="#bfbfbf" points="166,-282.5 166,-323.5 282,-323.5 282,-282.5 166,-282.5"/>
<text text-anchor="start" x="174" y="-311.5" font-family="Helvetica,sans-Serif" font-size="10.00">std::enable_shared</text>
<text text-anchor="start" x="174" y="-300.5" font-family="Helvetica,sans-Serif" font-size="10.00">_from_this&lt; Attribute</text>
<text text-anchor="middle" x="224" y="-289.5" font-family="Helvetica,sans-Serif" font-size="10.00">&lt; String &gt; &gt;</text>
</a>
</g>
</g>
<!-- Node9&#45;&gt;Node7 -->
<g id="edge8" class="edge">
<title>Node9&#45;&gt;Node7</title>
<path fill="none" stroke="midnightblue" d="M292.24,-318.9C333.43,-326.01 386.9,-330.5 433,-319 461.22,-311.96 490.34,-293.8 506.56,-282.52"/>
<polygon fill="midnightblue" stroke="midnightblue" points="292.78,-315.44 282.32,-317.1 291.53,-322.33 292.78,-315.44"/>
</g>
<!-- Node10&#45;&gt;Node7 -->
<g id="edge9" class="edge">
<title>Node10&#45;&gt;Node7</title>
<path fill="none" stroke="orange" stroke-dasharray="5,2" d="M286.32,-257.96C336.25,-261.18 406.46,-265.71 456.77,-268.95"/>
<polygon fill="orange" stroke="orange" points="286.5,-254.46 276.3,-257.31 286.05,-261.45 286.5,-254.46"/>
<text text-anchor="middle" x="373" y="-271" font-family="Helvetica,sans-Serif" font-size="10.00"> &lt; String &gt;</text>
</g>
<!-- Node10&#45;&gt;Node13 -->
<g id="edge17" class="edge">
<title>Node10&#45;&gt;Node13</title>
<path fill="none" stroke="orange" stroke-dasharray="5,2" d="M268.49,-241.74C321.09,-226.92 409.62,-201.97 466.25,-186.01"/>
<polygon fill="orange" stroke="orange" points="267.46,-238.4 258.78,-244.48 269.36,-245.13 267.46,-238.4"/>
<text text-anchor="middle" x="373" y="-231" font-family="Helvetica,sans-Serif" font-size="10.00"> &lt; MatrixVar&lt; VarType &gt; &gt;</text>
</g>
<!-- Node10&#45;&gt;Node16 -->
<g id="edge22" class="edge">
<title>Node10&#45;&gt;Node16</title>
<path fill="none" stroke="orange" stroke-dasharray="5,2" d="M241.75,-236.89C258.5,-220.61 285.63,-196.37 313,-181 366.54,-150.92 435.02,-130.48 478.08,-119.52"/>
<polygon fill="orange" stroke="orange" points="239.05,-234.64 234.41,-244.17 243.98,-239.61 239.05,-234.64"/>
<text text-anchor="middle" x="373" y="-184" font-family="Helvetica,sans-Serif" font-size="10.00"> &lt; Matrix &gt;</text>
</g>
<!-- Node10&#45;&gt;Node23 -->
<g id="edge35" class="edge">
<title>Node10&#45;&gt;Node23</title>
<path fill="none" stroke="orange" stroke-dasharray="5,2" d="M276.5,-266.44C282.81,-268.41 289.11,-270.6 295,-273 303.48,-276.45 304.57,-279.44 313,-283 368.52,-306.43 435.88,-324.92 478.23,-335.4"/>
<polygon fill="orange" stroke="orange" points="277.22,-263 266.64,-263.52 275.23,-269.72 277.22,-263"/>
<text text-anchor="middle" x="373" y="-326" font-family="Helvetica,sans-Serif" font-size="10.00"> &lt; Real &gt;</text>
</g>
<!-- Node10&#45;&gt;Node25 -->
<g id="edge39" class="edge">
<title>Node10&#45;&gt;Node25</title>
<path fill="none" stroke="orange" stroke-dasharray="5,2" d="M285.34,-265.6C288.85,-267.69 292.12,-270.13 295,-273 316.25,-294.14 292.22,-316.39 313,-338 348.87,-375.3 405.78,-391.58 450.78,-398.65"/>
<polygon fill="orange" stroke="orange" points="286.72,-262.38 276.2,-261.13 283.64,-268.67 286.72,-262.38"/>
<text text-anchor="middle" x="373" y="-397" font-family="Helvetica,sans-Serif" font-size="10.00"> &lt; Complex &gt;</text>
</g>
<!-- Node11 -->
<g id="node11" class="node">
<title>Node11</title>
<g id="a_node11"><a xlink:title=" ">
<polygon fill="none" stroke="#bfbfbf" points="0,-454.5 0,-495.5 116,-495.5 116,-454.5 0,-454.5"/>
<text text-anchor="start" x="8" y="-483.5" font-family="Helvetica,sans-Serif" font-size="10.00">std::enable_shared</text>
<text text-anchor="start" x="8" y="-472.5" font-family="Helvetica,sans-Serif" font-size="10.00">_from_this&lt; Attribute</text>
<text text-anchor="middle" x="58" y="-461.5" font-family="Helvetica,sans-Serif" font-size="10.00">&lt; T &gt; &gt;</text>
</a>
</g>
</g>
<!-- Node11&#45;&gt;Node10 -->
<g id="edge11" class="edge">
<title>Node11&#45;&gt;Node10</title>
<path fill="none" stroke="midnightblue" d="M64.77,-444.41C74.77,-399.98 99.6,-317.99 153,-273 158.49,-268.38 165,-264.87 171.82,-262.21"/>
<polygon fill="midnightblue" stroke="midnightblue" points="61.32,-443.83 62.64,-454.34 68.16,-445.29 61.32,-443.83"/>
</g>
<!-- Node12&#45;&gt;Node4 -->
<g id="edge12" class="edge">
<title>Node12&#45;&gt;Node4</title>
<path fill="none" stroke="orange" stroke-dasharray="5,2" d="M1263.38,-250.12C1294.56,-252.89 1331.03,-256.14 1360.87,-258.79"/>
<polygon fill="orange" stroke="orange" points="1263.3,-246.6 1253.03,-249.2 1262.68,-253.57 1263.3,-246.6"/>
<text text-anchor="middle" x="1302.5" y="-260" font-family="Helvetica,sans-Serif" font-size="10.00"> &lt; Complex &gt;</text>
</g>
<!-- Node18 -->
<g id="node18" class="node">
<title>Node18</title>
<g id="a_node18"><a xlink:href="class_c_p_s_1_1_m_n_a_sim_power_comp.html" target="_top" xlink:title="Base class for all MNA components that are transmitting power.">
<polygon fill="none" stroke="black" points="1352,-147 1352,-177 1489,-177 1489,-147 1352,-147"/>
<text text-anchor="start" x="1360" y="-165" font-family="Helvetica,sans-Serif" font-size="10.00">CPS::MNASimPowerComp</text>
<text text-anchor="middle" x="1420.5" y="-154" font-family="Helvetica,sans-Serif" font-size="10.00">&lt; VarType &gt;</text>
</a>
</g>
</g>
<!-- Node12&#45;&gt;Node18 -->
<g id="edge24" class="edge">
<title>Node12&#45;&gt;Node18</title>
<path fill="none" stroke="midnightblue" d="M1248.26,-225.55C1274.23,-216.52 1305.81,-205.39 1334,-195 1349.53,-189.28 1366.55,-182.76 1381.29,-177.03"/>
<polygon fill="midnightblue" stroke="midnightblue" points="1246.91,-222.31 1238.6,-228.89 1249.2,-228.93 1246.91,-222.31"/>
</g>
<!-- Node13&#45;&gt;Node12 -->
<g id="edge14" class="edge">
<title>Node13&#45;&gt;Node12</title>
<path fill="none" stroke="#9a32cd" stroke-dasharray="5,2" d="M599.56,-179.49C735.55,-194.29 1012.97,-224.47 1133.92,-237.63"/>
<polygon fill="#9a32cd" stroke="#9a32cd" points="599.54,-175.97 589.22,-178.37 598.78,-182.93 599.54,-175.97"/>
<text text-anchor="middle" x="832.5" y="-223" font-family="Helvetica,sans-Serif" font-size="10.00"> mIntfCurrent</text>
<text text-anchor="middle" x="832.5" y="-212" font-family="Helvetica,sans-Serif" font-size="10.00">mIntfVoltage</text>
</g>
<!-- Node14 -->
<g id="node14" class="node">
<title>Node14</title>
<g id="a_node14"><a xlink:title=" ">
<polygon fill="none" stroke="#bfbfbf" points="153,-98.5 153,-139.5 295,-139.5 295,-98.5 153,-98.5"/>
<text text-anchor="start" x="161" y="-127.5" font-family="Helvetica,sans-Serif" font-size="10.00">std::enable_shared</text>
<text text-anchor="start" x="161" y="-116.5" font-family="Helvetica,sans-Serif" font-size="10.00">_from_this&lt; Attribute</text>
<text text-anchor="middle" x="224" y="-105.5" font-family="Helvetica,sans-Serif" font-size="10.00">&lt; MatrixVar&lt; VarType &gt; &gt; &gt;</text>
</a>
</g>
</g>
<!-- Node14&#45;&gt;Node13 -->
<g id="edge16" class="edge">
<title>Node14&#45;&gt;Node13</title>
<path fill="none" stroke="midnightblue" d="M305.5,-117.96C344.49,-119.09 391.7,-122.87 433,-133 453.55,-138.04 475.35,-147.65 491.93,-155.94"/>
<polygon fill="midnightblue" stroke="midnightblue" points="305.33,-114.46 295.26,-117.72 305.17,-121.46 305.33,-114.46"/>
</g>
<!-- Node15 -->
<g id="node15" class="node">
<title>Node15</title>
<g id="a_node15"><a xlink:href="class_c_p_s_1_1_m_n_a_interface.html" target="_top" xlink:title="Interface to be implemented by all models used by the MNA solver.">
<polygon fill="none" stroke="black" points="1140,-188.5 1140,-207.5 1247,-207.5 1247,-188.5 1140,-188.5"/>
<text text-anchor="middle" x="1193.5" y="-195.5" font-family="Helvetica,sans-Serif" font-size="10.00">CPS::MNAInterface</text>
</a>
</g>
</g>
<!-- Node15&#45;&gt;Node3 -->
<g id="edge18" class="edge">
<title>Node15&#45;&gt;Node3</title>
<path fill="none" stroke="midnightblue" d="M1257.66,-199.09C1344.33,-200.6 1499.48,-203.29 1588.41,-204.83"/>
<polygon fill="midnightblue" stroke="midnightblue" points="1257.5,-195.59 1247.44,-198.92 1257.38,-202.59 1257.5,-195.59"/>
</g>
<!-- Node15&#45;&gt;Node18 -->
<g id="edge25" class="edge">
<title>Node15&#45;&gt;Node18</title>
<path fill="none" stroke="midnightblue" d="M1257.39,-187.94C1286.75,-183.24 1321.75,-177.64 1351.71,-172.85"/>
<polygon fill="midnightblue" stroke="midnightblue" points="1256.57,-184.52 1247.25,-189.56 1257.68,-191.44 1256.57,-184.52"/>
</g>
<!-- Node16&#45;&gt;Node3 -->
<g id="edge19" class="edge">
<title>Node16&#45;&gt;Node3</title>
<path fill="none" stroke="#9a32cd" stroke-dasharray="5,2" d="M595.03,-110C633.21,-110 680.61,-110 723,-110 723,-110 723,-110 1421.5,-110 1424.27,-110 1559.93,-164.65 1566,-168 1574.64,-172.77 1575.25,-176.44 1584,-181 1591.04,-184.67 1598.74,-187.99 1606.4,-190.92"/>
<polygon fill="#9a32cd" stroke="#9a32cd" points="595.03,-106.5 585.03,-110 595.03,-113.5 595.03,-106.5"/>
<text text-anchor="middle" x="1082.5" y="-113" font-family="Helvetica,sans-Serif" font-size="10.00"> mRightVector</text>
</g>
<!-- Node16&#45;&gt;Node18 -->
<g id="edge26" class="edge">
<title>Node16&#45;&gt;Node18</title>
<path fill="none" stroke="#9a32cd" stroke-dasharray="5,2" d="M556,-122.85C595.7,-136.46 663.13,-156 723,-156 723,-156 723,-156 1194.5,-156 1247.25,-156 1306.94,-157.67 1351.58,-159.25"/>
<polygon fill="#9a32cd" stroke="#9a32cd" points="557.12,-119.53 546.53,-119.53 554.81,-126.14 557.12,-119.53"/>
<text text-anchor="middle" x="957" y="-159" font-family="Helvetica,sans-Serif" font-size="10.00"> mRightVector</text>
</g>
<!-- Node17 -->
<g id="node17" class="node">
<title>Node17</title>
<g id="a_node17"><a xlink:title=" ">
<polygon fill="none" stroke="#bfbfbf" points="166,-0.5 166,-41.5 282,-41.5 282,-0.5 166,-0.5"/>
<text text-anchor="start" x="174" y="-29.5" font-family="Helvetica,sans-Serif" font-size="10.00">std::enable_shared</text>
<text text-anchor="start" x="174" y="-18.5" font-family="Helvetica,sans-Serif" font-size="10.00">_from_this&lt; Attribute</text>
<text text-anchor="middle" x="224" y="-7.5" font-family="Helvetica,sans-Serif" font-size="10.00">&lt; Matrix &gt; &gt;</text>
</a>
</g>
</g>
<!-- Node17&#45;&gt;Node16 -->
<g id="edge21" class="edge">
<title>Node17&#45;&gt;Node16</title>
<path fill="none" stroke="midnightblue" d="M292.21,-25.61C333.83,-30.08 387.77,-38.85 433,-56 461.8,-66.92 491.41,-87.94 507.43,-100.29"/>
<polygon fill="midnightblue" stroke="midnightblue" points="292.49,-22.12 282.18,-24.59 291.78,-29.08 292.49,-22.12"/>
</g>
<!-- Node18&#45;&gt;Node3 -->
<g id="edge23" class="edge">
<title>Node18&#45;&gt;Node3</title>
<path fill="none" stroke="orange" stroke-dasharray="5,2" d="M1499.25,-170.19C1520.96,-173.03 1544.49,-176.62 1566,-181 1579.35,-183.72 1593.63,-187.34 1606.79,-190.99"/>
<polygon fill="orange" stroke="orange" points="1499.46,-166.69 1489.09,-168.9 1498.57,-173.63 1499.46,-166.69"/>
<text text-anchor="middle" x="1536.5" y="-184" font-family="Helvetica,sans-Serif" font-size="10.00"> &lt; Complex &gt;</text>
</g>
<!-- Node19 -->
<g id="node19" class="node">
<title>Node19</title>
<g id="a_node19"><a xlink:href="class_c_p_s_1_1_composite_power_comp.html" target="_top" xlink:title="Base class for composite power components.">
<polygon fill="none" stroke="black" points="1584,-142 1584,-172 1730,-172 1730,-142 1584,-142"/>
<text text-anchor="start" x="1592" y="-160" font-family="Helvetica,sans-Serif" font-size="10.00">CPS::CompositePowerComp</text>
<text text-anchor="middle" x="1657" y="-149" font-family="Helvetica,sans-Serif" font-size="10.00">&lt; VarType &gt;</text>
</a>
</g>
</g>
<!-- Node18&#45;&gt;Node19 -->
<g id="edge28" class="edge">
<title>Node18&#45;&gt;Node19</title>
<path fill="none" stroke="midnightblue" d="M1499.27,-160.34C1526.48,-159.76 1556.9,-159.11 1583.64,-158.54"/>
<polygon fill="midnightblue" stroke="midnightblue" points="1498.94,-156.85 1489.01,-160.56 1499.08,-163.85 1498.94,-156.85"/>
</g>
<!-- Node19&#45;&gt;Node2 -->
<g id="edge27" class="edge">
<title>Node19&#45;&gt;Node2</title>
<path fill="none" stroke="orange" stroke-dasharray="5,2" d="M1740.02,-170.51C1784.94,-177.91 1840.11,-186.99 1883.37,-194.12"/>
<polygon fill="orange" stroke="orange" points="1740.45,-167.03 1730.02,-168.86 1739.31,-173.94 1740.45,-167.03"/>
<text text-anchor="middle" x="1798" y="-191" font-family="Helvetica,sans-Serif" font-size="10.00"> &lt; Complex &gt;</text>
</g>
<!-- Node20 -->
<g id="node20" class="node">
<title>Node20</title>
<g id="a_node20"><a xlink:href="class_c_p_s_1_1_d_a_e_interface.html" target="_top" xlink:title=" ">
<polygon fill="none" stroke="black" points="1905.5,-152.5 1905.5,-171.5 2007.5,-171.5 2007.5,-152.5 1905.5,-152.5"/>
<text text-anchor="middle" x="1956.5" y="-159.5" font-family="Helvetica,sans-Serif" font-size="10.00">CPS::DAEInterface</text>
</a>
</g>
</g>
<!-- Node20&#45;&gt;Node1 -->
<g id="edge29" class="edge">
<title>Node20&#45;&gt;Node1</title>
<path fill="none" stroke="midnightblue" d="M2012.64,-173.69C2046.2,-180.81 2088.54,-189.79 2120.06,-196.47"/>
<polygon fill="midnightblue" stroke="midnightblue" points="2013.03,-170.2 2002.52,-171.55 2011.58,-177.05 2013.03,-170.2"/>
</g>
<!-- Node21 -->
<g id="node21" class="node">
<title>Node21</title>
<g id="a_node21"><a xlink:href="class_shared_factory.html" target="_top" xlink:title=" ">
<polygon fill="none" stroke="black" points="1866,-109.5 1866,-128.5 2047,-128.5 2047,-109.5 1866,-109.5"/>
<text text-anchor="middle" x="1956.5" y="-116.5" font-family="Helvetica,sans-Serif" font-size="10.00">SharedFactory&lt; NetworkInjection &gt;</text>
</a>
</g>
</g>
<!-- Node21&#45;&gt;Node1 -->
<g id="edge30" class="edge">
<title>Node21&#45;&gt;Node1</title>
<path fill="none" stroke="midnightblue" d="M2010.89,-131.17C2022.94,-134.51 2035.54,-138.48 2047,-143 2085.66,-158.27 2127.95,-182.99 2149.89,-196.47"/>
<polygon fill="midnightblue" stroke="midnightblue" points="2011.5,-127.72 2000.94,-128.52 2009.7,-134.48 2011.5,-127.72"/>
</g>
<!-- Node22 -->
<g id="node22" class="node">
<title>Node22</title>
<g id="a_node22"><a xlink:href="class_shared_factory.html" target="_top" xlink:title=" ">
<polygon fill="none" stroke="black" points="1604.5,-103.5 1604.5,-122.5 1709.5,-122.5 1709.5,-103.5 1604.5,-103.5"/>
<text text-anchor="middle" x="1657" y="-110.5" font-family="Helvetica,sans-Serif" font-size="10.00">SharedFactory&lt; T &gt;</text>
</a>
</g>
</g>
<!-- Node22&#45;&gt;Node21 -->
<g id="edge31" class="edge">
<title>Node22&#45;&gt;Node21</title>
<path fill="none" stroke="orange" stroke-dasharray="5,2" d="M1719.95,-114.25C1762.16,-115.1 1818.7,-116.24 1865.81,-117.19"/>
<polygon fill="orange" stroke="orange" points="1719.89,-110.75 1709.82,-114.05 1719.75,-117.75 1719.89,-110.75"/>
<text text-anchor="middle" x="1798" y="-120" font-family="Helvetica,sans-Serif" font-size="10.00"> &lt; NetworkInjection &gt;</text>
</g>
<!-- Node23&#45;&gt;Node1 -->
<g id="edge32" class="edge">
<title>Node23&#45;&gt;Node1</title>
<path fill="none" stroke="#9a32cd" stroke-dasharray="5,2" d="M590.19,-336.32C629.09,-332.13 678.69,-328 723,-328 723,-328 723,-328 1957.5,-328 2046.09,-328 2130.26,-244.33 2156.57,-215.57"/>
<polygon fill="#9a32cd" stroke="#9a32cd" points="589.58,-332.87 580.02,-337.44 590.35,-339.83 589.58,-332.87"/>
<text text-anchor="middle" x="1302.5" y="-331" font-family="Helvetica,sans-Serif" font-size="10.00"> mSrcFreq</text>
</g>
<!-- Node24 -->
<g id="node24" class="node">
<title>Node24</title>
<g id="a_node24"><a xlink:title=" ">
<polygon fill="none" stroke="#bfbfbf" points="166,-342.5 166,-383.5 282,-383.5 282,-342.5 166,-342.5"/>
<text text-anchor="start" x="174" y="-371.5" font-family="Helvetica,sans-Serif" font-size="10.00">std::enable_shared</text>
<text text-anchor="start" x="174" y="-360.5" font-family="Helvetica,sans-Serif" font-size="10.00">_from_this&lt; Attribute</text>
<text text-anchor="middle" x="224" y="-349.5" font-family="Helvetica,sans-Serif" font-size="10.00">&lt; Real &gt; &gt;</text>
</a>
</g>
</g>
<!-- Node24&#45;&gt;Node23 -->
<g id="edge34" class="edge">
<title>Node24&#45;&gt;Node23</title>
<path fill="none" stroke="midnightblue" d="M292.36,-358.88C343.17,-355.78 412.19,-351.56 460.76,-348.59"/>
<polygon fill="midnightblue" stroke="midnightblue" points="291.9,-355.4 282.13,-359.51 292.33,-362.39 291.9,-355.4"/>
</g>
<!-- Node25&#45;&gt;Node1 -->
<g id="edge36" class="edge">
<title>Node25&#45;&gt;Node1</title>
<path fill="none" stroke="#9a32cd" stroke-dasharray="5,2" d="M600.64,-394.23C637.73,-390.44 682.57,-387 723,-387 723,-387 723,-387 1957.5,-387 2062.67,-387 2140.32,-253.33 2160.08,-215.73"/>
<polygon fill="#9a32cd" stroke="#9a32cd" points="599.97,-390.78 590.39,-395.3 600.7,-397.74 599.97,-390.78"/>
<text text-anchor="middle" x="1302.5" y="-390" font-family="Helvetica,sans-Serif" font-size="10.00"> mVoltageRef</text>
</g>
<!-- Node26 -->
<g id="node26" class="node">
<title>Node26</title>
<g id="a_node26"><a xlink:title=" ">
<polygon fill="none" stroke="#bfbfbf" points="166,-478.5 166,-519.5 282,-519.5 282,-478.5 166,-478.5"/>
<text text-anchor="start" x="174" y="-507.5" font-family="Helvetica,sans-Serif" font-size="10.00">std::enable_shared</text>
<text text-anchor="start" x="174" y="-496.5" font-family="Helvetica,sans-Serif" font-size="10.00">_from_this&lt; Attribute</text>
<text text-anchor="middle" x="224" y="-485.5" font-family="Helvetica,sans-Serif" font-size="10.00">&lt; Complex &gt; &gt;</text>
</a>
</g>
</g>
<!-- Node26&#45;&gt;Node25 -->
<g id="edge38" class="edge">
<title>Node26&#45;&gt;Node25</title>
<path fill="none" stroke="midnightblue" d="M292.08,-495.2C333.86,-491.04 388.04,-482.3 433,-464 463.3,-451.67 493.52,-427.25 508.95,-413.67"/>
<polygon fill="midnightblue" stroke="midnightblue" points="291.64,-491.73 282,-496.14 292.29,-498.7 291.64,-491.73"/>
</g>
</g>
</svg>
        <g id="navigator" transform="translate(0 0)" fill="#404254">
                <rect fill="#f2f5e9" fill-opacity="0.5" stroke="#606060" stroke-width=".5" x="0" y="0" width="60" height="60"/>
                <use id="zoomplus" xlink:href="#zoomPlus" x="17" y="9" onmousedown="handleZoom(evt,'in')"/>
                <use id="zoomminus" xlink:href="#zoomMin" x="42" y="9" onmousedown="handleZoom(evt,'out')"/>
                <use id="reset" xlink:href="#resetDef" x="30" y="36" onmousedown="handleReset()"/>
                <g id="arrowUp" xlink:href="#dirArrow" transform="translate(30 24)" onmousedown="handlePan(0,-1)">
                  <use xlink:href="#rim" fill="#404040">
                        <set attributeName="fill" to="#808080" begin="arrowUp.mouseover" end="arrowUp.mouseout"/>
                  </use>
                  <path fill="none" stroke="white" stroke-width="1.5" d="M0,-3.0v7 M-2.5,-0.5L0,-3.0L2.5,-0.5"/>
                </g>
                <g id="arrowRight" xlink:href="#dirArrow" transform="rotate(90) translate(36 -43)" onmousedown="handlePan(1,0)">
                  <use xlink:href="#rim" fill="#404040">
                        <set attributeName="fill" to="#808080" begin="arrowRight.mouseover" end="arrowRight.mouseout"/>
                  </use>
                  <path fill="none" stroke="white" stroke-width="1.5" d="M0,-3.0v7 M-2.5,-0.5L0,-3.0L2.5,-0.5"/>
                </g>
                <g id="arrowDown" xlink:href="#dirArrow" transform="rotate(180) translate(-30 -48)" onmousedown="handlePan(0,1)">
                  <use xlink:href="#rim" fill="#404040">
                        <set attributeName="fill" to="#808080" begin="arrowDown.mouseover" end="arrowDown.mouseout"/>
                  </use>
                  <path fill="none" stroke="white" stroke-width="1.5" d="M0,-3.0v7 M-2.5,-0.5L0,-3.0L2.5,-0.5"/>
                </g>
                <g id="arrowLeft" xlink:href="#dirArrow" transform="rotate(270) translate(-36 17)" onmousedown="handlePan(-1,0)">
                  <use xlink:href="#rim" fill="#404040">
                        <set attributeName="fill" to="#808080" begin="arrowLeft.mouseover" end="arrowLeft.mouseout"/>
                  </use>
                  <path fill="none" stroke="white" stroke-width="1.5" d="M0,-3.0v7 M-2.5,-0.5L0,-3.0L2.5,-0.5"/>
                </g>
        </g>
        <svg viewBox="0 0 15 15" width="100%" height="30px" preserveAspectRatio="xMaxYMin meet">
         <g id="arrow_out" transform="scale(0.3 0.3)">
          <a xlink:href="class_c_p_s_1_1_d_p_1_1_ph1_1_1_network_injection__coll__graph_org.svg" target="_base">
           <rect id="button" ry="5" rx="5" y="6" x="6" height="38" width="38"
                fill="#f2f5e9" fill-opacity="0.5" stroke="#606060" stroke-width="1.0"/>
           <path id="arrow"
             d="M 11.500037,31.436501 C 11.940474,20.09759 22.043105,11.32322 32.158766,21.979434 L 37.068811,17.246167 C 37.068811,17.246167 37.088388,32 37.088388,32 L 22.160133,31.978069 C 22.160133,31.978069 26.997745,27.140456 26.997745,27.140456 C 18.528582,18.264221 13.291696,25.230495 11.500037,31.436501 z"
             style="fill:#404040;"/>
          </a>
         </g>
        </svg>
</svg>
