<?xml version="1.0" encoding="UTF-8" standalone="no"?>
<!DOCTYPE svg PUBLIC "-//W3C//DTD SVG 1.1//EN"
 "http://www.w3.org/Graphics/SVG/1.1/DTD/svg11.dtd">
<!-- Generated by graphviz version 2.50.0 (0)
 -->
<!-- Title: CPS::SP::Ph1::RXLine Pages: 1 -->
<!--zoomable 225 -->
<svg id="main" version="1.1" xmlns="http://www.w3.org/2000/svg" xmlns:xlink="http://www.w3.org/1999/xlink" xml:space="preserve" onload="init(evt)">
<style type="text/css"><![CDATA[
.edge:hover path { stroke: red; }
.edge:hover polygon { stroke: red; fill: red; }
]]></style>
<script type="text/javascript"><![CDATA[
var edges = document.getElementsByTagName('g');
if (edges && edges.length) {
  for (var i=0;i<edges.length;i++) {
    if (edges[i].id.substr(0,4)=='edge') {
      edges[i].setAttribute('class','edge');
    }
  }
}
]]></script>
        <defs>
                <circle id="rim" cx="0" cy="0" r="7"/>
                <circle id="rim2" cx="0" cy="0" r="3.5"/>
                <g id="zoomPlus">
                        <use xlink:href="#rim" fill="#404040">
                                <set attributeName="fill" to="#808080" begin="zoomplus.mouseover" end="zoomplus.mouseout"/>
                        </use>
                        <path d="M-4,0h8M0,-4v8" fill="none" stroke="white" stroke-width="1.5" pointer-events="none"/>
                </g>
                <g id="zoomMin">
                        <use xlink:href="#rim" fill="#404040">
                                <set attributeName="fill" to="#808080" begin="zoomminus.mouseover" end="zoomminus.mouseout"/>
                        </use>
                        <path d="M-4,0h8" fill="none" stroke="white" stroke-width="1.5" pointer-events="none"/>
                </g>
                <g id="dirArrow">
                        <path fill="none" stroke="white" stroke-width="1.5" d="M0,-3.0v7 M-2.5,-0.5L0,-3.0L2.5,-0.5"/>
                </g>
               <g id="resetDef">
                       <use xlink:href="#rim2" fill="#404040">
                               <set attributeName="fill" to="#808080" begin="reset.mouseover" end="reset.mouseout"/>
                       </use>
               </g>
        </defs>

<script type="text/javascript">
var viewWidth = 1339;
var viewHeight = 225;
var sectionId = 'dynsection-0';
</script>
<script xlink:href="svgpan.js"/>
<svg id="graph" class="graph">
<g id="viewport">
<title>CPS::SP::Ph1::RXLine</title>
<!-- Node1 -->
<g id="node1" class="node">
<title>Node1</title>
<g id="a_node1"><a xlink:title=" ">
<polygon fill="#bfbfbf" stroke="black" points="1218,-50.5 1218,-69.5 1331,-69.5 1331,-50.5 1218,-50.5"/>
<text text-anchor="middle" x="1274.5" y="-57.5" font-family="Helvetica,sans-Serif" font-size="10.00">CPS::SP::Ph1::RXLine</text>
</a>
</g>
</g>
<!-- Node2 -->
<g id="node2" class="node">
<title>Node2</title>
<g id="a_node2"><a xlink:href="class_c_p_s_1_1_composite_power_comp.html" target="_top" xlink:title=" ">
<polygon fill="none" stroke="black" points="1030,-115 1030,-145 1176,-145 1176,-115 1030,-115"/>
<text text-anchor="start" x="1038" y="-133" font-family="Helvetica,sans-Serif" font-size="10.00">CPS::CompositePowerComp</text>
<text text-anchor="middle" x="1103" y="-122" font-family="Helvetica,sans-Serif" font-size="10.00">&lt; Complex &gt;</text>
</a>
</g>
</g>
<!-- Node2&#45;&gt;Node1 -->
<g id="edge1" class="edge">
<title>Node2&#45;&gt;Node1</title>
<path fill="none" stroke="midnightblue" d="M1163.87,-111.47C1169.7,-109.39 1175.49,-107.22 1181,-105 1207.67,-94.25 1237.38,-79.22 1255.76,-69.55"/>
<polygon fill="midnightblue" stroke="midnightblue" points="1162.37,-108.28 1154.07,-114.86 1164.66,-114.9 1162.37,-108.28"/>
</g>
<!-- Node3 -->
<g id="node3" class="node">
<title>Node3</title>
<g id="a_node3"><a xlink:href="class_c_p_s_1_1_m_n_a_sim_power_comp.html" target="_top" xlink:title=" ">
<polygon fill="none" stroke="black" points="788.5,-164 788.5,-194 925.5,-194 925.5,-164 788.5,-164"/>
<text text-anchor="start" x="796.5" y="-182" font-family="Helvetica,sans-Serif" font-size="10.00">CPS::MNASimPowerComp</text>
<text text-anchor="middle" x="857" y="-171" font-family="Helvetica,sans-Serif" font-size="10.00">&lt; Complex &gt;</text>
</a>
</g>
</g>
<!-- Node3&#45;&gt;Node2 -->
<g id="edge2" class="edge">
<title>Node3&#45;&gt;Node2</title>
<path fill="none" stroke="midnightblue" d="M935.71,-163.39C965.92,-157.33 1000.32,-150.42 1029.96,-144.47"/>
<polygon fill="midnightblue" stroke="midnightblue" points="934.76,-160.02 925.64,-165.42 936.14,-166.88 934.76,-160.02"/>
</g>
<!-- Node4 -->
<g id="node4" class="node">
<title>Node4</title>
<g id="a_node4"><a xlink:href="class_c_p_s_1_1_sim_power_comp.html" target="_top" xlink:title=" ">
<polygon fill="none" stroke="black" points="561,-186 561,-216 680,-216 680,-186 561,-186"/>
<text text-anchor="start" x="569" y="-204" font-family="Helvetica,sans-Serif" font-size="10.00">CPS::SimPowerComp&lt;</text>
<text text-anchor="middle" x="620.5" y="-193" font-family="Helvetica,sans-Serif" font-size="10.00"> Complex &gt;</text>
</a>
</g>
</g>
<!-- Node4&#45;&gt;Node3 -->
<g id="edge3" class="edge">
<title>Node4&#45;&gt;Node3</title>
<path fill="none" stroke="midnightblue" d="M690.31,-194.54C721.18,-191.65 757.47,-188.24 788.21,-185.36"/>
<polygon fill="midnightblue" stroke="midnightblue" points="689.7,-191.09 680.07,-195.51 690.35,-198.06 689.7,-191.09"/>
</g>
<!-- Node5 -->
<g id="node5" class="node">
<title>Node5</title>
<g id="a_node5"><a xlink:href="class_c_p_s_1_1_topological_power_comp.html" target="_top" xlink:title=" ">
<polygon fill="none" stroke="black" points="153,-185.5 153,-204.5 301,-204.5 301,-185.5 153,-185.5"/>
<text text-anchor="middle" x="227" y="-192.5" font-family="Helvetica,sans-Serif" font-size="10.00">CPS::TopologicalPowerComp</text>
</a>
</g>
</g>
<!-- Node5&#45;&gt;Node4 -->
<g id="edge4" class="edge">
<title>Node5&#45;&gt;Node4</title>
<path fill="none" stroke="midnightblue" d="M311.3,-198.88C372.82,-201.33 458.62,-203.88 534,-203 542.61,-202.9 551.71,-202.74 560.63,-202.56"/>
<polygon fill="midnightblue" stroke="midnightblue" points="311.39,-195.38 301.26,-198.47 311.11,-202.37 311.39,-195.38"/>
</g>
<!-- Node7 -->
<g id="node7" class="node">
<title>Node7</title>
<g id="a_node7"><a xlink:href="class_c_p_s_1_1_sim_power_comp.html" target="_top" xlink:title="Base class for all components that are transmitting power.">
<polygon fill="none" stroke="black" points="338,-158 338,-188 457,-188 457,-158 338,-158"/>
<text text-anchor="start" x="346" y="-176" font-family="Helvetica,sans-Serif" font-size="10.00">CPS::SimPowerComp&lt;</text>
<text text-anchor="middle" x="397.5" y="-165" font-family="Helvetica,sans-Serif" font-size="10.00"> VarType &gt;</text>
</a>
</g>
</g>
<!-- Node5&#45;&gt;Node7 -->
<g id="edge7" class="edge">
<title>Node5&#45;&gt;Node7</title>
<path fill="none" stroke="midnightblue" d="M311.12,-184.15C320.18,-182.97 329.25,-181.78 337.92,-180.65"/>
<polygon fill="midnightblue" stroke="midnightblue" points="310.39,-180.71 300.93,-185.48 311.3,-187.65 310.39,-180.71"/>
</g>
<!-- Node6 -->
<g id="node6" class="node">
<title>Node6</title>
<g id="a_node6"><a xlink:href="class_c_p_s_1_1_identified_object.html" target="_top" xlink:title=" ">
<polygon fill="none" stroke="black" points="0,-185.5 0,-204.5 116,-204.5 116,-185.5 0,-185.5"/>
<text text-anchor="middle" x="58" y="-192.5" font-family="Helvetica,sans-Serif" font-size="10.00">CPS::IdentifiedObject</text>
</a>
</g>
</g>
<!-- Node6&#45;&gt;Node5 -->
<g id="edge5" class="edge">
<title>Node6&#45;&gt;Node5</title>
<path fill="none" stroke="midnightblue" d="M126.13,-195C134.88,-195 143.88,-195 152.72,-195"/>
<polygon fill="midnightblue" stroke="midnightblue" points="126,-191.5 116,-195 126,-198.5 126,-191.5"/>
</g>
<!-- Node7&#45;&gt;Node4 -->
<g id="edge6" class="edge">
<title>Node7&#45;&gt;Node4</title>
<path fill="none" stroke="orange" stroke-dasharray="5,2" d="M467.14,-181.7C497.22,-185.51 532.14,-189.93 560.97,-193.58"/>
<polygon fill="orange" stroke="orange" points="467.5,-178.21 457.14,-180.43 466.62,-185.16 467.5,-178.21"/>
<text text-anchor="middle" x="504.5" y="-192" font-family="Helvetica,sans-Serif" font-size="10.00"> &lt; Complex &gt;</text>
</g>
<!-- Node9 -->
<g id="node9" class="node">
<title>Node9</title>
<g id="a_node9"><a xlink:href="class_c_p_s_1_1_m_n_a_sim_power_comp.html" target="_top" xlink:title="Base class for all MNA components that are transmitting power.">
<polygon fill="none" stroke="black" points="552,-137 552,-167 689,-167 689,-137 552,-137"/>
<text text-anchor="start" x="560" y="-155" font-family="Helvetica,sans-Serif" font-size="10.00">CPS::MNASimPowerComp</text>
<text text-anchor="middle" x="620.5" y="-144" font-family="Helvetica,sans-Serif" font-size="10.00">&lt; VarType &gt;</text>
</a>
</g>
</g>
<!-- Node7&#45;&gt;Node9 -->
<g id="edge10" class="edge">
<title>Node7&#45;&gt;Node9</title>
<path fill="none" stroke="midnightblue" d="M467.28,-166.46C494.25,-163.9 525.11,-160.97 551.97,-158.42"/>
<polygon fill="midnightblue" stroke="midnightblue" points="466.77,-163 457.14,-167.43 467.43,-169.97 466.77,-163"/>
</g>
<!-- Node8 -->
<g id="node8" class="node">
<title>Node8</title>
<g id="a_node8"><a xlink:href="class_c_p_s_1_1_m_n_a_interface.html" target="_top" xlink:title="Interface to be implemented by all models used by the MNA solver.">
<polygon fill="none" stroke="black" points="344,-109.5 344,-128.5 451,-128.5 451,-109.5 344,-109.5"/>
<text text-anchor="middle" x="397.5" y="-116.5" font-family="Helvetica,sans-Serif" font-size="10.00">CPS::MNAInterface</text>
</a>
</g>
</g>
<!-- Node8&#45;&gt;Node3 -->
<g id="edge8" class="edge">
<title>Node8&#45;&gt;Node3</title>
<path fill="none" stroke="midnightblue" d="M461.42,-116.17C520.58,-114.64 611.39,-115.18 689,-128 701.04,-129.99 763.99,-149.65 809.05,-163.96"/>
<polygon fill="midnightblue" stroke="midnightblue" points="461.02,-112.68 451.12,-116.47 461.22,-119.68 461.02,-112.68"/>
</g>
<!-- Node8&#45;&gt;Node9 -->
<g id="edge11" class="edge">
<title>Node8&#45;&gt;Node9</title>
<path fill="none" stroke="midnightblue" d="M461.31,-128.38C489.55,-132.6 522.94,-137.58 551.75,-141.88"/>
<polygon fill="midnightblue" stroke="midnightblue" points="461.56,-124.88 451.15,-126.86 460.53,-131.8 461.56,-124.88"/>
</g>
<!-- Node9&#45;&gt;Node3 -->
<g id="edge9" class="edge">
<title>Node9&#45;&gt;Node3</title>
<path fill="none" stroke="orange" stroke-dasharray="5,2" d="M699.04,-160.93C727.84,-164.24 760.28,-167.98 788.15,-171.19"/>
<polygon fill="orange" stroke="orange" points="699.35,-157.44 689.01,-159.77 698.55,-164.39 699.35,-157.44"/>
<text text-anchor="middle" x="736.5" y="-170" font-family="Helvetica,sans-Serif" font-size="10.00"> &lt; Complex &gt;</text>
</g>
<!-- Node10 -->
<g id="node10" class="node">
<title>Node10</title>
<g id="a_node10"><a xlink:href="class_c_p_s_1_1_composite_power_comp.html" target="_top" xlink:title="Base class for composite power components.">
<polygon fill="none" stroke="black" points="784,-115 784,-145 930,-145 930,-115 784,-115"/>
<text text-anchor="start" x="792" y="-133" font-family="Helvetica,sans-Serif" font-size="10.00">CPS::CompositePowerComp</text>
<text text-anchor="middle" x="857" y="-122" font-family="Helvetica,sans-Serif" font-size="10.00">&lt; VarType &gt;</text>
</a>
</g>
</g>
<!-- Node9&#45;&gt;Node10 -->
<g id="edge13" class="edge">
<title>Node9&#45;&gt;Node10</title>
<path fill="none" stroke="midnightblue" d="M699.27,-144.7C726.48,-142.15 756.9,-139.3 783.64,-136.79"/>
<polygon fill="midnightblue" stroke="midnightblue" points="698.64,-141.25 689.01,-145.67 699.3,-148.22 698.64,-141.25"/>
</g>
<!-- Node10&#45;&gt;Node2 -->
<g id="edge12" class="edge">
<title>Node10&#45;&gt;Node2</title>
<path fill="none" stroke="orange" stroke-dasharray="5,2" d="M940.34,-130C969.4,-130 1001.83,-130 1029.97,-130"/>
<polygon fill="orange" stroke="orange" points="940.22,-126.5 930.22,-130 940.22,-133.5 940.22,-126.5"/>
<text text-anchor="middle" x="977.5" y="-133" font-family="Helvetica,sans-Serif" font-size="10.00"> &lt; Complex &gt;</text>
</g>
<!-- Node11 -->
<g id="node11" class="node">
<title>Node11</title>
<g id="a_node11"><a xlink:href="class_shared_factory.html" target="_top" xlink:title=" ">
<polygon fill="none" stroke="black" points="1037.5,-76.5 1037.5,-95.5 1168.5,-95.5 1168.5,-76.5 1037.5,-76.5"/>
<text text-anchor="middle" x="1103" y="-83.5" font-family="Helvetica,sans-Serif" font-size="10.00">SharedFactory&lt; RXLine &gt;</text>
</a>
</g>
</g>
<!-- Node11&#45;&gt;Node1 -->
<g id="edge14" class="edge">
<title>Node11&#45;&gt;Node1</title>
<path fill="none" stroke="midnightblue" d="M1176.19,-74.93C1190.11,-72.79 1204.5,-70.58 1217.8,-68.54"/>
<polygon fill="midnightblue" stroke="midnightblue" points="1175.51,-71.49 1166.15,-76.47 1176.57,-78.41 1175.51,-71.49"/>
</g>
<!-- Node12 -->
<g id="node12" class="node">
<title>Node12</title>
<g id="a_node12"><a xlink:href="class_shared_factory.html" target="_top" xlink:title=" ">
<polygon fill="none" stroke="black" points="804.5,-76.5 804.5,-95.5 909.5,-95.5 909.5,-76.5 804.5,-76.5"/>
<text text-anchor="middle" x="857" y="-83.5" font-family="Helvetica,sans-Serif" font-size="10.00">SharedFactory&lt; T &gt;</text>
</a>
</g>
</g>
<!-- Node12&#45;&gt;Node11 -->
<g id="edge15" class="edge">
<title>Node12&#45;&gt;Node11</title>
<path fill="none" stroke="orange" stroke-dasharray="5,2" d="M920.08,-86C955.93,-86 1000.98,-86 1037.27,-86"/>
<polygon fill="orange" stroke="orange" points="919.75,-82.5 909.75,-86 919.75,-89.5 919.75,-82.5"/>
<text text-anchor="middle" x="977.5" y="-89" font-family="Helvetica,sans-Serif" font-size="10.00"> &lt; RXLine &gt;</text>
</g>
<!-- Node13 -->
<g id="node13" class="node">
<title>Node13</title>
<g id="a_node13"><a xlink:href="class_c_p_s_1_1_p_f_solver_interface_branch.html" target="_top" xlink:title="Common base class of all Component templates.">
<polygon fill="none" stroke="black" points="1025,-38.5 1025,-57.5 1181,-57.5 1181,-38.5 1025,-38.5"/>
<text text-anchor="middle" x="1103" y="-45.5" font-family="Helvetica,sans-Serif" font-size="10.00">CPS::PFSolverInterfaceBranch</text>
</a>
</g>
</g>
<!-- Node13&#45;&gt;Node1 -->
<g id="edge16" class="edge">
<title>Node13&#45;&gt;Node1</title>
<path fill="none" stroke="midnightblue" d="M1191.36,-54.18C1200.27,-54.82 1209.14,-55.44 1217.58,-56.04"/>
<polygon fill="midnightblue" stroke="midnightblue" points="1191.53,-50.69 1181.31,-53.47 1191.04,-57.67 1191.53,-50.69"/>
</g>
<!-- Node14 -->
<g id="node14" class="node">
<title>Node14</title>
<g id="a_node14"><a xlink:href="class_c_p_s_1_1_base_1_1_ph1_1_1_pi_line.html" target="_top" xlink:title=" ">
<polygon fill="none" stroke="black" points="1043,-0.5 1043,-19.5 1163,-19.5 1163,-0.5 1043,-0.5"/>
<text text-anchor="middle" x="1103" y="-7.5" font-family="Helvetica,sans-Serif" font-size="10.00">CPS::Base::Ph1::PiLine</text>
</a>
</g>
</g>
<!-- Node14&#45;&gt;Node1 -->
<g id="edge17" class="edge">
<title>Node14&#45;&gt;Node1</title>
<path fill="none" stroke="midnightblue" d="M1155.29,-22.04C1163.91,-24.24 1172.73,-26.6 1181,-29 1203.45,-35.52 1228.57,-44.02 1246.97,-50.47"/>
<polygon fill="midnightblue" stroke="midnightblue" points="1155.88,-18.58 1145.33,-19.54 1154.17,-25.37 1155.88,-18.58"/>
</g>
</g>
</svg>
        <g id="navigator" transform="translate(0 0)" fill="#404254">
                <rect fill="#f2f5e9" fill-opacity="0.5" stroke="#606060" stroke-width=".5" x="0" y="0" width="60" height="60"/>
                <use id="zoomplus" xlink:href="#zoomPlus" x="17" y="9" onmousedown="handleZoom(evt,'in')"/>
                <use id="zoomminus" xlink:href="#zoomMin" x="42" y="9" onmousedown="handleZoom(evt,'out')"/>
                <use id="reset" xlink:href="#resetDef" x="30" y="36" onmousedown="handleReset()"/>
                <g id="arrowUp" xlink:href="#dirArrow" transform="translate(30 24)" onmousedown="handlePan(0,-1)">
                  <use xlink:href="#rim" fill="#404040">
                        <set attributeName="fill" to="#808080" begin="arrowUp.mouseover" end="arrowUp.mouseout"/>
                  </use>
                  <path fill="none" stroke="white" stroke-width="1.5" d="M0,-3.0v7 M-2.5,-0.5L0,-3.0L2.5,-0.5"/>
                </g>
                <g id="arrowRight" xlink:href="#dirArrow" transform="rotate(90) translate(36 -43)" onmousedown="handlePan(1,0)">
                  <use xlink:href="#rim" fill="#404040">
                        <set attributeName="fill" to="#808080" begin="arrowRight.mouseover" end="arrowRight.mouseout"/>
                  </use>
                  <path fill="none" stroke="white" stroke-width="1.5" d="M0,-3.0v7 M-2.5,-0.5L0,-3.0L2.5,-0.5"/>
                </g>
                <g id="arrowDown" xlink:href="#dirArrow" transform="rotate(180) translate(-30 -48)" onmousedown="handlePan(0,1)">
                  <use xlink:href="#rim" fill="#404040">
                        <set attributeName="fill" to="#808080" begin="arrowDown.mouseover" end="arrowDown.mouseout"/>
                  </use>
                  <path fill="none" stroke="white" stroke-width="1.5" d="M0,-3.0v7 M-2.5,-0.5L0,-3.0L2.5,-0.5"/>
                </g>
                <g id="arrowLeft" xlink:href="#dirArrow" transform="rotate(270) translate(-36 17)" onmousedown="handlePan(-1,0)">
                  <use xlink:href="#rim" fill="#404040">
                        <set attributeName="fill" to="#808080" begin="arrowLeft.mouseover" end="arrowLeft.mouseout"/>
                  </use>
                  <path fill="none" stroke="white" stroke-width="1.5" d="M0,-3.0v7 M-2.5,-0.5L0,-3.0L2.5,-0.5"/>
                </g>
        </g>
        <svg viewBox="0 0 15 15" width="100%" height="30px" preserveAspectRatio="xMaxYMin meet">
         <g id="arrow_out" transform="scale(0.3 0.3)">
          <a xlink:href="class_c_p_s_1_1_s_p_1_1_ph1_1_1_r_x_line__inherit__graph_org.svg" target="_base">
           <rect id="button" ry="5" rx="5" y="6" x="6" height="38" width="38"
                fill="#f2f5e9" fill-opacity="0.5" stroke="#606060" stroke-width="1.0"/>
           <path id="arrow"
             d="M 11.500037,31.436501 C 11.940474,20.09759 22.043105,11.32322 32.158766,21.979434 L 37.068811,17.246167 C 37.068811,17.246167 37.088388,32 37.088388,32 L 22.160133,31.978069 C 22.160133,31.978069 26.997745,27.140456 26.997745,27.140456 C 18.528582,18.264221 13.291696,25.230495 11.500037,31.436501 z"
             style="fill:#404040;"/>
          </a>
         </g>
        </svg>
</svg>
