<?xml version="1.0" encoding="UTF-8" standalone="no"?>
<!DOCTYPE svg PUBLIC "-//W3C//DTD SVG 1.1//EN"
 "http://www.w3.org/Graphics/SVG/1.1/DTD/svg11.dtd">
<!-- Generated by graphviz version 2.44.0 (0)
 -->
<!-- Title: CPS::AttributeBase Pages: 1 -->
<!--zoomable 618 -->
<svg id="main" version="1.1" xmlns="http://www.w3.org/2000/svg" xmlns:xlink="http://www.w3.org/1999/xlink" xml:space="preserve" onload="init(evt)">
<style type="text/css"><![CDATA[
.edge:hover path { stroke: red; }
.edge:hover polygon { stroke: red; fill: red; }
]]></style>
<script type="text/javascript"><![CDATA[
var edges = document.getElementsByTagName('g');
if (edges && edges.length) {
  for (var i=0;i<edges.length;i++) {
    if (edges[i].id.substr(0,4)=='edge') {
      edges[i].setAttribute('class','edge');
    }
  }
}
]]></script>
        <defs>
                <circle id="rim" cx="0" cy="0" r="7"/>
                <circle id="rim2" cx="0" cy="0" r="3.5"/>
                <g id="zoomPlus">
                        <use xlink:href="#rim" fill="#404040">
                                <set attributeName="fill" to="#808080" begin="zoomplus.mouseover" end="zoomplus.mouseout"/>
                        </use>
                        <path d="M-4,0h8M0,-4v8" fill="none" stroke="white" stroke-width="1.5" pointer-events="none"/>
                </g>
                <g id="zoomMin">
                        <use xlink:href="#rim" fill="#404040">
                                <set attributeName="fill" to="#808080" begin="zoomminus.mouseover" end="zoomminus.mouseout"/>
                        </use>
                        <path d="M-4,0h8" fill="none" stroke="white" stroke-width="1.5" pointer-events="none"/>
                </g>
                <g id="dirArrow">
                        <path fill="none" stroke="white" stroke-width="1.5" d="M0,-3.0v7 M-2.5,-0.5L0,-3.0L2.5,-0.5"/>
                </g>
               <g id="resetDef">
                       <use xlink:href="#rim2" fill="#404040">
                               <set attributeName="fill" to="#808080" begin="reset.mouseover" end="reset.mouseout"/>
                       </use>
               </g>
        </defs>

<script type="text/javascript">
var viewWidth = 560;
var viewHeight = 618;
var sectionId = 'dynsection-0';
</script>
<script xlink:href="svgpan.js"/>
<svg id="graph" class="graph">
<g id="viewport">
<title>CPS::AttributeBase</title>
<!-- Node1 -->
<g id="node1" class="node">
<title>Node1</title>
<g id="a_node1"><a xlink:title=" ">
<polygon fill="#bfbfbf" stroke="black" points="0,-256.83 0,-275.83 103,-275.83 103,-256.83 0,-256.83"/>
<text text-anchor="middle" x="51.5" y="-263.83" font-family="Helvetica" font-size="10.00">CPS::AttributeBase</text>
</a>
</g>
</g>
<!-- Node2 -->
<g id="node2" class="node">
<title>Node2</title>
<g id="a_node2"><a xlink:href="class_c_p_s_1_1_attribute.html" target="_top" xlink:title=" ">
<polygon fill="none" stroke="black" points="410.5,-574.33 410.5,-604.33 541.5,-604.33 541.5,-574.33 410.5,-574.33"/>
<text text-anchor="start" x="418.5" y="-592.33" font-family="Helvetica" font-size="10.00">CPS::Attribute&lt; MatrixVar</text>
<text text-anchor="middle" x="476" y="-581.33" font-family="Helvetica" font-size="10.00">&lt; Complex &gt; &gt;</text>
</a>
</g>
</g>
<!-- Node1&#45;&gt;Node2 -->
<g id="edge1" class="edge">
<title>Node1&#45;&gt;Node2</title>
<path fill="none" stroke="midnightblue" d="M53.42,-286.06C56.72,-335.53 71.8,-466.47 140,-544.33 206.02,-619.71 333,-614.56 410.26,-602.76"/>
<polygon fill="midnightblue" stroke="midnightblue" points="56.91,-285.83 52.84,-276.05 49.92,-286.23 56.91,-285.83"/>
</g>
<!-- Node3 -->
<g id="node3" class="node">
<title>Node3</title>
<g id="a_node3"><a xlink:href="class_c_p_s_1_1_attribute.html" target="_top" xlink:title=" ">
<polygon fill="none" stroke="black" points="410.5,-525.33 410.5,-555.33 541.5,-555.33 541.5,-525.33 410.5,-525.33"/>
<text text-anchor="start" x="418.5" y="-543.33" font-family="Helvetica" font-size="10.00">CPS::Attribute&lt; MatrixVar</text>
<text text-anchor="middle" x="476" y="-532.33" font-family="Helvetica" font-size="10.00">&lt; VarType &gt; &gt;</text>
</a>
</g>
</g>
<!-- Node1&#45;&gt;Node3 -->
<g id="edge2" class="edge">
<title>Node1&#45;&gt;Node3</title>
<path fill="none" stroke="midnightblue" d="M56.62,-285.98C65.9,-326.66 91.51,-421.73 140,-486.33 181.25,-541.3 197,-559.01 262,-581.33 312.44,-598.66 332.15,-600.29 382,-581.33 392,-577.53 390.73,-570.69 400,-565.33 406.54,-561.56 413.72,-558.25 420.98,-555.38"/>
<polygon fill="midnightblue" stroke="midnightblue" points="60,-285.03 54.43,-276.02 53.16,-286.54 60,-285.03"/>
</g>
<!-- Node4 -->
<g id="node4" class="node">
<title>Node4</title>
<g id="a_node4"><a xlink:href="class_c_p_s_1_1_attribute.html" target="_top" xlink:title=" ">
<polygon fill="none" stroke="black" points="421,-297.33 421,-327.33 531,-327.33 531,-297.33 421,-297.33"/>
<text text-anchor="start" x="429" y="-315.33" font-family="Helvetica" font-size="10.00">CPS::Attribute&lt; CPS</text>
<text text-anchor="middle" x="476" y="-304.33" font-family="Helvetica" font-size="10.00">::Complex &gt;</text>
</a>
</g>
</g>
<!-- Node1&#45;&gt;Node4 -->
<g id="edge3" class="edge">
<title>Node1&#45;&gt;Node4</title>
<path fill="none" stroke="midnightblue" d="M113.57,-263.7C180.17,-262.04 289.61,-262.86 382,-280.33 401.29,-283.98 422.02,-290.81 439,-297.23"/>
<polygon fill="midnightblue" stroke="midnightblue" points="113.16,-260.21 103.26,-263.99 113.35,-267.21 113.16,-260.21"/>
</g>
<!-- Node5 -->
<g id="node5" class="node">
<title>Node5</title>
<g id="a_node5"><a xlink:href="class_c_p_s_1_1_attribute.html" target="_top" xlink:title=" ">
<polygon fill="none" stroke="black" points="414,-485.83 414,-504.83 538,-504.83 538,-485.83 414,-485.83"/>
<text text-anchor="middle" x="476" y="-492.83" font-family="Helvetica" font-size="10.00">CPS::Attribute&lt; String &gt;</text>
</a>
</g>
</g>
<!-- Node1&#45;&gt;Node5 -->
<g id="edge4" class="edge">
<title>Node1&#45;&gt;Node5</title>
<path fill="none" stroke="midnightblue" d="M59.57,-285.87C72.07,-318.57 100.56,-385.33 140,-431.33 184.03,-482.69 197.8,-501.03 262,-522.33 312.62,-539.13 329.36,-530.88 382,-522.33 390.32,-520.98 391.94,-518.81 400,-516.33 412.8,-512.41 426.91,-508.38 439.42,-504.92"/>
<polygon fill="midnightblue" stroke="midnightblue" points="62.72,-284.31 55.95,-276.16 56.16,-286.75 62.72,-284.31"/>
</g>
<!-- Node6 -->
<g id="node6" class="node">
<title>Node6</title>
<g id="a_node6"><a xlink:href="class_c_p_s_1_1_attribute.html" target="_top" xlink:title=" ">
<polygon fill="none" stroke="black" points="413.5,-446.83 413.5,-465.83 538.5,-465.83 538.5,-446.83 413.5,-446.83"/>
<text text-anchor="middle" x="476" y="-453.83" font-family="Helvetica" font-size="10.00">CPS::Attribute&lt; Matrix &gt;</text>
</a>
</g>
</g>
<!-- Node1&#45;&gt;Node6 -->
<g id="edge5" class="edge">
<title>Node1&#45;&gt;Node6</title>
<path fill="none" stroke="midnightblue" d="M64.26,-284.5C92.39,-326.01 168.26,-427.07 262,-463.33 320.66,-486.03 395.34,-475.49 438.9,-465.86"/>
<polygon fill="midnightblue" stroke="midnightblue" points="67.02,-282.33 58.57,-275.94 61.19,-286.2 67.02,-282.33"/>
</g>
<!-- Node7 -->
<g id="node7" class="node">
<title>Node7</title>
<g id="a_node7"><a xlink:href="class_c_p_s_1_1_attribute.html" target="_top" xlink:title=" ">
<polygon fill="none" stroke="black" points="417,-255.83 417,-274.83 535,-274.83 535,-255.83 417,-255.83"/>
<text text-anchor="middle" x="476" y="-262.83" font-family="Helvetica" font-size="10.00">CPS::Attribute&lt; Bool &gt;</text>
</a>
</g>
</g>
<!-- Node1&#45;&gt;Node7 -->
<g id="edge6" class="edge">
<title>Node1&#45;&gt;Node7</title>
<path fill="none" stroke="midnightblue" d="M84.52,-253.13C144.56,-230.36 277.41,-189.45 382,-225.33 391.59,-228.62 391.09,-234.5 400,-239.33 412.47,-246.11 427.05,-251.64 440.02,-255.83"/>
<polygon fill="midnightblue" stroke="midnightblue" points="83.25,-249.87 75.19,-256.75 85.78,-256.4 83.25,-249.87"/>
</g>
<!-- Node8 -->
<g id="node8" class="node">
<title>Node8</title>
<g id="a_node8"><a xlink:href="class_c_p_s_1_1_attribute.html" target="_top" xlink:title=" ">
<polygon fill="none" stroke="black" points="407.5,-210.83 407.5,-229.83 544.5,-229.83 544.5,-210.83 407.5,-210.83"/>
<text text-anchor="middle" x="476" y="-217.83" font-family="Helvetica" font-size="10.00">CPS::Attribute&lt; Complex &gt;</text>
</a>
</g>
</g>
<!-- Node1&#45;&gt;Node8 -->
<g id="edge7" class="edge">
<title>Node1&#45;&gt;Node8</title>
<path fill="none" stroke="midnightblue" d="M73.49,-250.88C90.71,-238.7 116.08,-221.9 140,-210.33 191.63,-185.37 205.44,-177.8 262,-168.33 314.6,-159.53 332.73,-147.92 382,-168.33 392.45,-172.66 390.7,-179.89 400,-186.33 414.69,-196.51 432.92,-204.85 447.72,-210.73"/>
<polygon fill="midnightblue" stroke="midnightblue" points="71.36,-248.1 65.27,-256.78 75.44,-253.79 71.36,-248.1"/>
</g>
<!-- Node9 -->
<g id="node9" class="node">
<title>Node9</title>
<g id="a_node9"><a xlink:href="class_c_p_s_1_1_attribute.html" target="_top" xlink:title=" ">
<polygon fill="none" stroke="black" points="400,-157.83 400,-176.83 552,-176.83 552,-157.83 400,-157.83"/>
<text text-anchor="middle" x="476" y="-164.83" font-family="Helvetica" font-size="10.00">CPS::Attribute&lt; MatrixComp &gt;</text>
</a>
</g>
</g>
<!-- Node1&#45;&gt;Node9 -->
<g id="edge8" class="edge">
<title>Node1&#45;&gt;Node9</title>
<path fill="none" stroke="midnightblue" d="M64.79,-248.66C80.3,-227.36 108.77,-191.56 140,-168.33 188.02,-132.62 203.58,-124.31 262,-111.33 314.06,-99.77 334.05,-87.97 382,-111.33 393.67,-117.02 389.75,-126.37 400,-134.33 413.14,-144.55 429.94,-152.32 444.3,-157.75"/>
<polygon fill="midnightblue" stroke="midnightblue" points="61.92,-246.64 58.96,-256.81 67.62,-250.71 61.92,-246.64"/>
</g>
<!-- Node10 -->
<g id="node10" class="node">
<title>Node10</title>
<g id="a_node10"><a xlink:href="class_c_p_s_1_1_attribute.html" target="_top" xlink:title=" ">
<polygon fill="none" stroke="black" points="417,-105.83 417,-124.83 535,-124.83 535,-105.83 417,-105.83"/>
<text text-anchor="middle" x="476" y="-112.83" font-family="Helvetica" font-size="10.00">CPS::Attribute&lt; Real &gt;</text>
</a>
</g>
</g>
<!-- Node1&#45;&gt;Node10 -->
<g id="edge9" class="edge">
<title>Node1&#45;&gt;Node10</title>
<path fill="none" stroke="midnightblue" d="M59.44,-247.11C71.61,-215.64 99.4,-152.61 140,-112.33 184.07,-68.62 201.92,-59.95 262,-44.33 313.62,-30.92 331.48,-27.25 382,-44.33 400.57,-50.61 444,-87.78 464.25,-105.69"/>
<polygon fill="midnightblue" stroke="midnightblue" points="56.16,-245.9 55.92,-256.49 62.71,-248.36 56.16,-245.9"/>
</g>
<!-- Node11 -->
<g id="node11" class="node">
<title>Node11</title>
<g id="a_node11"><a xlink:href="class_c_p_s_1_1_attribute.html" target="_top" xlink:title=" ">
<polygon fill="none" stroke="black" points="421,-13.33 421,-43.33 531,-43.33 531,-13.33 421,-13.33"/>
<text text-anchor="start" x="429" y="-31.33" font-family="Helvetica" font-size="10.00">CPS::Attribute&lt; CPS</text>
<text text-anchor="middle" x="476" y="-20.33" font-family="Helvetica" font-size="10.00">::Real &gt;</text>
</a>
</g>
</g>
<!-- Node1&#45;&gt;Node11 -->
<g id="edge10" class="edge">
<title>Node1&#45;&gt;Node11</title>
<path fill="none" stroke="midnightblue" d="M53.97,-246.4C58.36,-202.42 75.45,-96.99 140,-46.33 220.64,16.95 348.74,1.72 420.93,-13.97"/>
<polygon fill="midnightblue" stroke="midnightblue" points="50.48,-246.14 53.09,-256.41 57.45,-246.75 50.48,-246.14"/>
</g>
<!-- Node12 -->
<g id="node12" class="node">
<title>Node12</title>
<g id="a_node12"><a xlink:href="class_c_p_s_1_1_attribute.html" target="_top" xlink:title=" ">
<polygon fill="none" stroke="black" points="140,-323.83 140,-342.83 244,-342.83 244,-323.83 140,-323.83"/>
<text text-anchor="middle" x="192" y="-330.83" font-family="Helvetica" font-size="10.00">CPS::Attribute&lt; T &gt;</text>
</a>
</g>
</g>
<!-- Node1&#45;&gt;Node12 -->
<g id="edge11" class="edge">
<title>Node1&#45;&gt;Node12</title>
<path fill="none" stroke="midnightblue" d="M81.64,-280.43C108.54,-293.45 147.76,-312.42 171.19,-323.75"/>
<polygon fill="midnightblue" stroke="midnightblue" points="82.87,-277.14 72.34,-275.93 79.82,-283.44 82.87,-277.14"/>
</g>
<!-- Node12&#45;&gt;Node2 -->
<g id="edge14" class="edge">
<title>Node12&#45;&gt;Node2</title>
<path fill="none" stroke="orange" stroke-dasharray="5,2" d="M193.13,-353.49C194.56,-396.19 204.28,-496.01 262,-547.33 302.14,-583.02 363.59,-591.99 410.19,-592.93"/>
<polygon fill="orange" stroke="orange" points="196.62,-353.2 192.91,-343.27 189.63,-353.34 196.62,-353.2"/>
<text text-anchor="middle" x="322" y="-593.33" font-family="Helvetica" font-size="10.00"> &lt; MatrixVar&lt; Complex &gt; &gt;</text>
</g>
<!-- Node12&#45;&gt;Node3 -->
<g id="edge15" class="edge">
<title>Node12&#45;&gt;Node3</title>
<path fill="none" stroke="orange" stroke-dasharray="5,2" d="M196.24,-353.08C202.68,-385.85 220.25,-451.33 262,-486.33 303.37,-521.02 364.08,-533.86 410.11,-538.4"/>
<polygon fill="orange" stroke="orange" points="199.63,-352.17 194.4,-342.96 192.74,-353.42 199.63,-352.17"/>
<text text-anchor="middle" x="322" y="-537.33" font-family="Helvetica" font-size="10.00"> &lt; MatrixVar&lt; VarType &gt; &gt;</text>
</g>
<!-- Node12&#45;&gt;Node4 -->
<g id="edge16" class="edge">
<title>Node12&#45;&gt;Node4</title>
<path fill="none" stroke="orange" stroke-dasharray="5,2" d="M254.04,-328.79C303.74,-325.09 373.24,-319.91 420.95,-316.36"/>
<polygon fill="orange" stroke="orange" points="253.78,-325.3 244.07,-329.53 254.3,-332.28 253.78,-325.3"/>
<text text-anchor="middle" x="322" y="-331.33" font-family="Helvetica" font-size="10.00"> &lt; CPS::Complex &gt;</text>
</g>
<!-- Node12&#45;&gt;Node5 -->
<g id="edge17" class="edge">
<title>Node12&#45;&gt;Node5</title>
<path fill="none" stroke="orange" stroke-dasharray="5,2" d="M201.94,-352.19C213.11,-373.79 234.18,-408.85 262,-429.33 289.28,-449.42 378.8,-472.89 432.71,-485.73"/>
<polygon fill="orange" stroke="orange" points="204.98,-350.44 197.4,-343.05 198.72,-353.56 204.98,-350.44"/>
<text text-anchor="middle" x="322" y="-474.33" font-family="Helvetica" font-size="10.00"> &lt; String &gt;</text>
</g>
<!-- Node12&#45;&gt;Node6 -->
<g id="edge18" class="edge">
<title>Node12&#45;&gt;Node6</title>
<path fill="none" stroke="orange" stroke-dasharray="5,2" d="M209.68,-350.07C222.84,-362.36 242.21,-378.56 262,-388.33 311.29,-412.69 329.75,-401.23 382,-418.33 407.2,-426.58 435.26,-438.43 453.9,-446.7"/>
<polygon fill="orange" stroke="orange" points="211.98,-347.42 202.35,-343.01 207.13,-352.47 211.98,-347.42"/>
<text text-anchor="middle" x="322" y="-421.33" font-family="Helvetica" font-size="10.00"> &lt; Matrix &gt;</text>
</g>
<!-- Node12&#45;&gt;Node7 -->
<g id="edge19" class="edge">
<title>Node12&#45;&gt;Node7</title>
<path fill="none" stroke="orange" stroke-dasharray="5,2" d="M222.94,-319.66C234.9,-314.6 248.92,-309.18 262,-305.33 313.45,-290.23 373.62,-279.55 416.86,-273.04"/>
<polygon fill="orange" stroke="orange" points="221.23,-316.59 213.45,-323.78 224.02,-323.01 221.23,-316.59"/>
<text text-anchor="middle" x="322" y="-308.33" font-family="Helvetica" font-size="10.00"> &lt; Bool &gt;</text>
</g>
<!-- Node12&#45;&gt;Node8 -->
<g id="edge20" class="edge">
<title>Node12&#45;&gt;Node8</title>
<path fill="none" stroke="orange" stroke-dasharray="5,2" d="M205.96,-315.77C218.52,-300.07 239,-277.7 262,-265.33 306.94,-241.18 363.72,-229.99 407.35,-224.8"/>
<polygon fill="orange" stroke="orange" points="203.18,-313.65 199.84,-323.7 208.72,-317.93 203.18,-313.65"/>
<text text-anchor="middle" x="322" y="-268.33" font-family="Helvetica" font-size="10.00"> &lt; Complex &gt;</text>
</g>
<!-- Node12&#45;&gt;Node9 -->
<g id="edge21" class="edge">
<title>Node12&#45;&gt;Node9</title>
<path fill="none" stroke="orange" stroke-dasharray="5,2" d="M198.69,-314.1C207.64,-287.38 227.6,-239.48 262,-214.33 301.74,-185.28 356.05,-173.62 399.88,-169.17"/>
<polygon fill="orange" stroke="orange" points="195.3,-313.23 195.62,-323.82 201.97,-315.35 195.3,-313.23"/>
<text text-anchor="middle" x="322" y="-217.33" font-family="Helvetica" font-size="10.00"> &lt; MatrixComp &gt;</text>
</g>
<!-- Node12&#45;&gt;Node10 -->
<g id="edge22" class="edge">
<title>Node12&#45;&gt;Node10</title>
<path fill="none" stroke="orange" stroke-dasharray="5,2" d="M194.71,-313.48C198.99,-276.64 213.61,-197.76 262,-157.33 304.96,-121.45 369.75,-113.07 416.59,-112.35"/>
<polygon fill="orange" stroke="orange" points="191.22,-313.17 193.68,-323.48 198.18,-313.89 191.22,-313.17"/>
<text text-anchor="middle" x="322" y="-160.33" font-family="Helvetica" font-size="10.00"> &lt; Real &gt;</text>
</g>
<!-- Node12&#45;&gt;Node11 -->
<g id="edge23" class="edge">
<title>Node12&#45;&gt;Node11</title>
<path fill="none" stroke="orange" stroke-dasharray="5,2" d="M193.07,-313.24C194.32,-268.73 203.59,-161.01 262,-100.33 303.83,-56.89 372.75,-39.66 420.83,-32.82"/>
<polygon fill="orange" stroke="orange" points="189.57,-313.29 192.9,-323.35 196.57,-313.41 189.57,-313.29"/>
<text text-anchor="middle" x="322" y="-103.33" font-family="Helvetica" font-size="10.00"> &lt; CPS::Real &gt;</text>
</g>
<!-- Node13 -->
<g id="node13" class="node">
<title>Node13</title>
<g id="a_node13"><a xlink:href="class_c_p_s_1_1_attribute_dynamic.html" target="_top" xlink:title=" ">
<polygon fill="none" stroke="black" points="404.5,-348.83 404.5,-367.83 547.5,-367.83 547.5,-348.83 404.5,-348.83"/>
<text text-anchor="middle" x="476" y="-355.83" font-family="Helvetica" font-size="10.00">CPS::AttributeDynamic&lt; T &gt;</text>
</a>
</g>
</g>
<!-- Node12&#45;&gt;Node13 -->
<g id="edge12" class="edge">
<title>Node12&#45;&gt;Node13</title>
<path fill="none" stroke="midnightblue" d="M254.29,-342.46C256.9,-342.77 259.47,-343.06 262,-343.33 309.36,-348.43 362.84,-352.19 404.37,-354.67"/>
<polygon fill="midnightblue" stroke="midnightblue" points="254.55,-338.96 244.19,-341.18 253.67,-345.91 254.55,-338.96"/>
</g>
<!-- Node14 -->
<g id="node14" class="node">
<title>Node14</title>
<g id="a_node14"><a xlink:href="class_c_p_s_1_1_attribute_static.html" target="_top" xlink:title=" ">
<polygon fill="none" stroke="black" points="411,-386.83 411,-405.83 541,-405.83 541,-386.83 411,-386.83"/>
<text text-anchor="middle" x="476" y="-393.83" font-family="Helvetica" font-size="10.00">CPS::AttributeStatic&lt; T &gt;</text>
</a>
</g>
</g>
<!-- Node12&#45;&gt;Node14 -->
<g id="edge13" class="edge">
<title>Node12&#45;&gt;Node14</title>
<path fill="none" stroke="midnightblue" d="M221.43,-347.09C233.67,-352.54 248.3,-358.42 262,-362.33 310.97,-376.31 368.03,-385.04 410.75,-390.14"/>
<polygon fill="midnightblue" stroke="midnightblue" points="222.73,-343.84 212.18,-342.86 219.82,-350.21 222.73,-343.84"/>
</g>
</g>
</svg>
        <g id="navigator" transform="translate(0 0)" fill="#404254">
                <rect fill="#f2f5e9" fill-opacity="0.5" stroke="#606060" stroke-width=".5" x="0" y="0" width="60" height="60"/>
                <use id="zoomplus" xlink:href="#zoomPlus" x="17" y="9" onmousedown="handleZoom(evt,'in')"/>
                <use id="zoomminus" xlink:href="#zoomMin" x="42" y="9" onmousedown="handleZoom(evt,'out')"/>
                <use id="reset" xlink:href="#resetDef" x="30" y="36" onmousedown="handleReset()"/>
                <g id="arrowUp" xlink:href="#dirArrow" transform="translate(30 24)" onmousedown="handlePan(0,-1)">
                  <use xlink:href="#rim" fill="#404040">
                        <set attributeName="fill" to="#808080" begin="arrowUp.mouseover" end="arrowUp.mouseout"/>
                  </use>
                  <path fill="none" stroke="white" stroke-width="1.5" d="M0,-3.0v7 M-2.5,-0.5L0,-3.0L2.5,-0.5"/>
                </g>
                <g id="arrowRight" xlink:href="#dirArrow" transform="rotate(90) translate(36 -43)" onmousedown="handlePan(1,0)">
                  <use xlink:href="#rim" fill="#404040">
                        <set attributeName="fill" to="#808080" begin="arrowRight.mouseover" end="arrowRight.mouseout"/>
                  </use>
                  <path fill="none" stroke="white" stroke-width="1.5" d="M0,-3.0v7 M-2.5,-0.5L0,-3.0L2.5,-0.5"/>
                </g>
                <g id="arrowDown" xlink:href="#dirArrow" transform="rotate(180) translate(-30 -48)" onmousedown="handlePan(0,1)">
                  <use xlink:href="#rim" fill="#404040">
                        <set attributeName="fill" to="#808080" begin="arrowDown.mouseover" end="arrowDown.mouseout"/>
                  </use>
                  <path fill="none" stroke="white" stroke-width="1.5" d="M0,-3.0v7 M-2.5,-0.5L0,-3.0L2.5,-0.5"/>
                </g>
                <g id="arrowLeft" xlink:href="#dirArrow" transform="rotate(270) translate(-36 17)" onmousedown="handlePan(-1,0)">
                  <use xlink:href="#rim" fill="#404040">
                        <set attributeName="fill" to="#808080" begin="arrowLeft.mouseover" end="arrowLeft.mouseout"/>
                  </use>
                  <path fill="none" stroke="white" stroke-width="1.5" d="M0,-3.0v7 M-2.5,-0.5L0,-3.0L2.5,-0.5"/>
                </g>
        </g>
        <svg viewBox="0 0 15 15" width="100%" height="30px" preserveAspectRatio="xMaxYMin meet">
         <g id="arrow_out" transform="scale(0.3 0.3)">
          <a xlink:href="class_c_p_s_1_1_attribute_base__inherit__graph_org.svg" target="_base">
           <rect id="button" ry="5" rx="5" y="6" x="6" height="38" width="38"
                fill="#f2f5e9" fill-opacity="0.5" stroke="#606060" stroke-width="1.0"/>
           <path id="arrow"
             d="M 11.500037,31.436501 C 11.940474,20.09759 22.043105,11.32322 32.158766,21.979434 L 37.068811,17.246167 C 37.068811,17.246167 37.088388,32 37.088388,32 L 22.160133,31.978069 C 22.160133,31.978069 26.997745,27.140456 26.997745,27.140456 C 18.528582,18.264221 13.291696,25.230495 11.500037,31.436501 z"
             style="fill:#404040;"/>
          </a>
         </g>
        </svg>
</svg>
