<?xml version="1.0" encoding="UTF-8" standalone="no"?>
<!DOCTYPE svg PUBLIC "-//W3C//DTD SVG 1.1//EN"
 "http://www.w3.org/Graphics/SVG/1.1/DTD/svg11.dtd">
<!-- Generated by graphviz version 2.42.4 (0)
 -->
<!-- Title: CPS::SP::Ph1::PiLine Pages: 1 -->
<svg width="1785pt" height="450pt"
 viewBox="0.00 0.00 1785.00 450.00" xmlns="http://www.w3.org/2000/svg" xmlns:xlink="http://www.w3.org/1999/xlink">
<g id="graph0" class="graph" transform="scale(1 1) rotate(0) translate(4 446)">
<title>CPS::SP::Ph1::PiLine</title>
<!-- Node1 -->
<g id="node1" class="node">
<title>Node1</title>
<g id="a_node1"><a xlink:title="PI&#45;line static phasor model.">
<polygon fill="#bfbfbf" stroke="black" points="1664,-76.5 1664,-95.5 1777,-95.5 1777,-76.5 1664,-76.5"/>
<text text-anchor="middle" x="1720.5" y="-83.5" font-family="Helvetica,sans-Serif" font-size="10.00">CPS::SP::Ph1::PiLine</text>
</a>
</g>
</g>
<!-- Node2 -->
<g id="node2" class="node">
<title>Node2</title>
<g id="a_node2"><a xlink:href="class_c_p_s_1_1_sim_power_comp.html" target="_top" xlink:title=" ">
<polygon fill="none" stroke="black" points="1483,-115 1483,-145 1610,-145 1610,-115 1483,-115"/>
<text text-anchor="start" x="1491" y="-133" font-family="Helvetica,sans-Serif" font-size="10.00">CPS::SimPowerComp&lt;</text>
<text text-anchor="middle" x="1546.5" y="-122" font-family="Helvetica,sans-Serif" font-size="10.00"> Complex &gt;</text>
</a>
</g>
</g>
<!-- Node2&#45;&gt;Node1 -->
<g id="edge1" class="edge">
<title>Node2&#45;&gt;Node1</title>
<path fill="none" stroke="midnightblue" d="M1616.11,-112.45C1638.71,-106.67 1662.97,-100.46 1682.32,-95.51"/>
<polygon fill="midnightblue" stroke="midnightblue" points="1615.03,-109.11 1606.21,-114.98 1616.77,-115.89 1615.03,-109.11"/>
</g>
<!-- Node3 -->
<g id="node3" class="node">
<title>Node3</title>
<g id="a_node3"><a xlink:href="class_c_p_s_1_1_topological_power_comp.html" target="_top" xlink:title=" ">
<polygon fill="none" stroke="black" points="802,-59.5 802,-78.5 957,-78.5 957,-59.5 802,-59.5"/>
<text text-anchor="middle" x="879.5" y="-66.5" font-family="Helvetica,sans-Serif" font-size="10.00">CPS::TopologicalPowerComp</text>
</a>
</g>
</g>
<!-- Node3&#45;&gt;Node2 -->
<g id="edge2" class="edge">
<title>Node3&#45;&gt;Node2</title>
<path fill="none" stroke="midnightblue" d="M967.29,-67.22C1079.41,-66.54 1280.14,-70.84 1448,-104 1463.12,-106.99 1479.37,-110.99 1494.18,-114.96"/>
<polygon fill="midnightblue" stroke="midnightblue" points="967.03,-63.72 957.05,-67.3 967.08,-70.72 967.03,-63.72"/>
</g>
<!-- Node19 -->
<g id="node19" class="node">
<title>Node19</title>
<g id="a_node19"><a xlink:href="class_c_p_s_1_1_sim_power_comp.html" target="_top" xlink:title="Base class for all components that are transmitting power.">
<polygon fill="none" stroke="black" points="1154.5,-94 1154.5,-124 1281.5,-124 1281.5,-94 1154.5,-94"/>
<text text-anchor="start" x="1162.5" y="-112" font-family="Helvetica,sans-Serif" font-size="10.00">CPS::SimPowerComp&lt;</text>
<text text-anchor="middle" x="1218" y="-101" font-family="Helvetica,sans-Serif" font-size="10.00"> VarType &gt;</text>
</a>
</g>
</g>
<!-- Node3&#45;&gt;Node19 -->
<g id="edge26" class="edge">
<title>Node3&#45;&gt;Node19</title>
<path fill="none" stroke="midnightblue" d="M967.25,-79.31C1025.78,-86.27 1101.66,-95.29 1154.34,-101.55"/>
<polygon fill="midnightblue" stroke="midnightblue" points="967.62,-75.83 957.28,-78.13 966.8,-82.78 967.62,-75.83"/>
</g>
<!-- Node4 -->
<g id="node4" class="node">
<title>Node4</title>
<g id="a_node4"><a xlink:href="class_c_p_s_1_1_identified_object.html" target="_top" xlink:title=" ">
<polygon fill="none" stroke="black" points="138,-80.5 138,-99.5 257,-99.5 257,-80.5 138,-80.5"/>
<text text-anchor="middle" x="197.5" y="-87.5" font-family="Helvetica,sans-Serif" font-size="10.00">CPS::IdentifiedObject</text>
</a>
</g>
</g>
<!-- Node4&#45;&gt;Node3 -->
<g id="edge3" class="edge">
<title>Node4&#45;&gt;Node3</title>
<path fill="none" stroke="midnightblue" d="M267.12,-87.88C394.88,-83.94 668.35,-75.49 801.92,-71.37"/>
<polygon fill="midnightblue" stroke="midnightblue" points="266.95,-84.38 257.06,-88.19 267.17,-91.38 266.95,-84.38"/>
</g>
<!-- Node7 -->
<g id="node7" class="node">
<title>Node7</title>
<g id="a_node7"><a xlink:href="class_c_p_s_1_1_topological_node.html" target="_top" xlink:title=" ">
<polygon fill="none" stroke="black" points="464,-223.5 464,-242.5 586,-242.5 586,-223.5 464,-223.5"/>
<text text-anchor="middle" x="525" y="-230.5" font-family="Helvetica,sans-Serif" font-size="10.00">CPS::TopologicalNode</text>
</a>
</g>
</g>
<!-- Node4&#45;&gt;Node7 -->
<g id="edge7" class="edge">
<title>Node4&#45;&gt;Node7</title>
<path fill="none" stroke="midnightblue" d="M215.57,-106.74C230.15,-120.03 252.3,-138 275,-148 338.27,-175.86 363.26,-151.75 428,-176 459.95,-187.97 493.34,-210.42 511.09,-223.29"/>
<polygon fill="midnightblue" stroke="midnightblue" points="217.6,-103.84 207.92,-99.54 212.81,-108.94 217.6,-103.84"/>
</g>
<!-- Node15 -->
<g id="node15" class="node">
<title>Node15</title>
<g id="a_node15"><a xlink:href="class_c_p_s_1_1_topological_terminal.html" target="_top" xlink:title=" ">
<polygon fill="none" stroke="black" points="456,-97.5 456,-116.5 594,-116.5 594,-97.5 456,-97.5"/>
<text text-anchor="middle" x="525" y="-104.5" font-family="Helvetica,sans-Serif" font-size="10.00">CPS::TopologicalTerminal</text>
</a>
</g>
</g>
<!-- Node4&#45;&gt;Node15 -->
<g id="edge18" class="edge">
<title>Node4&#45;&gt;Node15</title>
<path fill="none" stroke="midnightblue" d="M267.16,-93.59C322.66,-96.48 400.38,-100.54 455.76,-103.44"/>
<polygon fill="midnightblue" stroke="midnightblue" points="267.24,-90.09 257.07,-93.06 266.87,-97.08 267.24,-90.09"/>
</g>
<!-- Node5 -->
<g id="node5" class="node">
<title>Node5</title>
<g id="a_node5"><a xlink:href="class_c_p_s_1_1_attribute_list.html" target="_top" xlink:title="Base class of objects having attributes to access member variables.">
<polygon fill="none" stroke="black" points="0,-47.5 0,-66.5 101,-66.5 101,-47.5 0,-47.5"/>
<text text-anchor="middle" x="50.5" y="-54.5" font-family="Helvetica,sans-Serif" font-size="10.00">CPS::AttributeList</text>
</a>
</g>
</g>
<!-- Node5&#45;&gt;Node4 -->
<g id="edge4" class="edge">
<title>Node5&#45;&gt;Node4</title>
<path fill="none" stroke="midnightblue" d="M103.63,-68.87C120.39,-72.68 138.73,-76.85 154.65,-80.48"/>
<polygon fill="midnightblue" stroke="midnightblue" points="103.97,-65.35 93.44,-66.54 102.41,-72.18 103.97,-65.35"/>
</g>
<!-- Node21 -->
<g id="node21" class="node">
<title>Node21</title>
<g id="a_node21"><a xlink:href="class_c_p_s_1_1_m_n_a_interface.html" target="_top" xlink:title="Interface to be implemented by all models used by the MNA solver.">
<polygon fill="none" stroke="black" points="143.5,-29.5 143.5,-48.5 251.5,-48.5 251.5,-29.5 143.5,-29.5"/>
<text text-anchor="middle" x="197.5" y="-36.5" font-family="Helvetica,sans-Serif" font-size="10.00">CPS::MNAInterface</text>
</a>
</g>
</g>
<!-- Node5&#45;&gt;Node21 -->
<g id="edge29" class="edge">
<title>Node5&#45;&gt;Node21</title>
<path fill="none" stroke="midnightblue" d="M111.33,-49.57C121.84,-48.27 132.72,-46.92 143.04,-45.64"/>
<polygon fill="midnightblue" stroke="midnightblue" points="110.89,-46.1 101.4,-50.81 111.76,-53.05 110.89,-46.1"/>
</g>
<!-- Node6 -->
<g id="node6" class="node">
<title>Node6</title>
<g id="a_node6"><a xlink:href="class_c_p_s_1_1_sim_node.html" target="_top" xlink:title=" ">
<polygon fill="none" stroke="black" points="1142,-269.5 1142,-288.5 1294,-288.5 1294,-269.5 1142,-269.5"/>
<text text-anchor="middle" x="1218" y="-276.5" font-family="Helvetica,sans-Serif" font-size="10.00">CPS::SimNode&lt; Complex &gt;</text>
</a>
</g>
</g>
<!-- Node6&#45;&gt;Node2 -->
<g id="edge5" class="edge">
<title>Node6&#45;&gt;Node2</title>
<path fill="none" stroke="#9a32cd" stroke-dasharray="5,2" d="M1249.06,-265.28C1310.3,-237.34 1449.07,-174.01 1512.62,-145.01"/>
<polygon fill="#9a32cd" stroke="#9a32cd" points="1247.57,-262.12 1239.92,-269.45 1250.47,-268.49 1247.57,-262.12"/>
<text text-anchor="middle" x="1384" y="-233" font-family="Helvetica,sans-Serif" font-size="10.00"> mVirtualNodes</text>
</g>
<!-- Node7&#45;&gt;Node6 -->
<g id="edge6" class="edge">
<title>Node7&#45;&gt;Node6</title>
<path fill="none" stroke="midnightblue" d="M596.43,-233.86C682.54,-235.31 832.66,-239.14 961,-249 1024.8,-253.9 1097.2,-262.69 1148.69,-269.49"/>
<polygon fill="midnightblue" stroke="midnightblue" points="596.31,-230.36 586.25,-233.7 596.19,-237.36 596.31,-230.36"/>
</g>
<!-- Node11 -->
<g id="node11" class="node">
<title>Node11</title>
<g id="a_node11"><a xlink:href="class_c_p_s_1_1_sim_node.html" target="_top" xlink:title=" ">
<polygon fill="none" stroke="black" points="806.5,-318.5 806.5,-337.5 952.5,-337.5 952.5,-318.5 806.5,-318.5"/>
<text text-anchor="middle" x="879.5" y="-325.5" font-family="Helvetica,sans-Serif" font-size="10.00">CPS::SimNode&lt; VarType &gt;</text>
</a>
</g>
</g>
<!-- Node7&#45;&gt;Node11 -->
<g id="edge12" class="edge">
<title>Node7&#45;&gt;Node11</title>
<path fill="none" stroke="midnightblue" d="M596.09,-238.44C649.3,-244.99 722.82,-259.39 780,-291 789.9,-296.47 788.12,-303.49 798,-309 805.02,-312.92 812.83,-316.03 820.73,-318.5"/>
<polygon fill="midnightblue" stroke="midnightblue" points="596.4,-234.95 586.06,-237.27 595.59,-241.9 596.4,-234.95"/>
</g>
<!-- Node8 -->
<g id="node8" class="node">
<title>Node8</title>
<g id="a_node8"><a xlink:title=" ">
<polygon fill="none" stroke="#bfbfbf" points="817.5,-258.5 817.5,-299.5 941.5,-299.5 941.5,-258.5 817.5,-258.5"/>
<text text-anchor="start" x="825.5" y="-287.5" font-family="Helvetica,sans-Serif" font-size="10.00">std::enable_shared</text>
<text text-anchor="start" x="825.5" y="-276.5" font-family="Helvetica,sans-Serif" font-size="10.00">_from_this&lt; SimNode</text>
<text text-anchor="middle" x="879.5" y="-265.5" font-family="Helvetica,sans-Serif" font-size="10.00">&lt; Complex &gt; &gt;</text>
</a>
</g>
</g>
<!-- Node8&#45;&gt;Node6 -->
<g id="edge8" class="edge">
<title>Node8&#45;&gt;Node6</title>
<path fill="none" stroke="midnightblue" d="M952,-279C1007.84,-279 1085.24,-279 1141.97,-279"/>
<polygon fill="midnightblue" stroke="midnightblue" points="951.83,-275.5 941.83,-279 951.83,-282.5 951.83,-275.5"/>
</g>
<!-- Node9 -->
<g id="node9" class="node">
<title>Node9</title>
<g id="a_node9"><a xlink:href="class_shared_factory.html" target="_top" xlink:title=" ">
<polygon fill="none" stroke="black" points="630.5,-362 630.5,-392 771.5,-392 771.5,-362 630.5,-362"/>
<text text-anchor="start" x="638.5" y="-380" font-family="Helvetica,sans-Serif" font-size="10.00">SharedFactory&lt; SimNode</text>
<text text-anchor="middle" x="701" y="-369" font-family="Helvetica,sans-Serif" font-size="10.00">&lt; Complex &gt; &gt;</text>
</a>
</g>
</g>
<!-- Node9&#45;&gt;Node6 -->
<g id="edge9" class="edge">
<title>Node9&#45;&gt;Node6</title>
<path fill="none" stroke="midnightblue" d="M781.6,-375.51C866.15,-372.1 1002.93,-361.35 1116,-328 1147.97,-318.57 1182.29,-299.88 1201.56,-288.5"/>
<polygon fill="midnightblue" stroke="midnightblue" points="781.42,-372.01 771.56,-375.89 781.68,-379 781.42,-372.01"/>
</g>
<!-- Node10 -->
<g id="node10" class="node">
<title>Node10</title>
<g id="a_node10"><a xlink:href="class_shared_factory.html" target="_top" xlink:title=" ">
<polygon fill="none" stroke="black" points="140.5,-327.5 140.5,-346.5 254.5,-346.5 254.5,-327.5 140.5,-327.5"/>
<text text-anchor="middle" x="197.5" y="-334.5" font-family="Helvetica,sans-Serif" font-size="10.00">SharedFactory&lt; T &gt;</text>
</a>
</g>
</g>
<!-- Node10&#45;&gt;Node9 -->
<g id="edge10" class="edge">
<title>Node10&#45;&gt;Node9</title>
<path fill="none" stroke="orange" stroke-dasharray="5,2" d="M251.46,-348.34C259.32,-349.75 267.35,-351.03 275,-352 399.47,-367.79 545.74,-373.63 630.17,-375.78"/>
<polygon fill="orange" stroke="orange" points="252.1,-344.9 241.62,-346.51 250.81,-351.78 252.1,-344.9"/>
<text text-anchor="middle" x="351.5" y="-369" font-family="Helvetica,sans-Serif" font-size="10.00"> &lt; SimNode&lt; Complex &gt; &gt;</text>
</g>
<!-- Node13 -->
<g id="node13" class="node">
<title>Node13</title>
<g id="a_node13"><a xlink:href="class_shared_factory.html" target="_top" xlink:title=" ">
<polygon fill="none" stroke="black" points="454.5,-322 454.5,-352 595.5,-352 595.5,-322 454.5,-322"/>
<text text-anchor="start" x="462.5" y="-340" font-family="Helvetica,sans-Serif" font-size="10.00">SharedFactory&lt; SimNode</text>
<text text-anchor="middle" x="525" y="-329" font-family="Helvetica,sans-Serif" font-size="10.00">&lt; VarType &gt; &gt;</text>
</a>
</g>
</g>
<!-- Node10&#45;&gt;Node13 -->
<g id="edge15" class="edge">
<title>Node10&#45;&gt;Node13</title>
<path fill="none" stroke="orange" stroke-dasharray="5,2" d="M264.84,-337C319.96,-337 398.15,-337 454.21,-337"/>
<polygon fill="orange" stroke="orange" points="264.83,-333.5 254.83,-337 264.83,-340.5 264.83,-333.5"/>
<text text-anchor="middle" x="351.5" y="-340" font-family="Helvetica,sans-Serif" font-size="10.00"> &lt; SimNode&lt; VarType &gt; &gt;</text>
</g>
<!-- Node16 -->
<g id="node16" class="node">
<title>Node16</title>
<g id="a_node16"><a xlink:href="class_shared_factory.html" target="_top" xlink:title=" ">
<polygon fill="none" stroke="black" points="622,-180 622,-210 780,-210 780,-180 622,-180"/>
<text text-anchor="start" x="630" y="-198" font-family="Helvetica,sans-Serif" font-size="10.00">SharedFactory&lt; SimTerminal</text>
<text text-anchor="middle" x="701" y="-187" font-family="Helvetica,sans-Serif" font-size="10.00">&lt; Complex &gt; &gt;</text>
</a>
</g>
</g>
<!-- Node10&#45;&gt;Node16 -->
<g id="edge20" class="edge">
<title>Node10&#45;&gt;Node16</title>
<path fill="none" stroke="orange" stroke-dasharray="5,2" d="M221.18,-321.92C263.36,-294.78 357.63,-238.26 446,-214 503.57,-198.2 571.05,-193.78 621.99,-193.13"/>
<polygon fill="orange" stroke="orange" points="219.24,-319.01 212.76,-327.4 223.05,-324.88 219.24,-319.01"/>
<text text-anchor="middle" x="351.5" y="-290" font-family="Helvetica,sans-Serif" font-size="10.00"> &lt; SimTerminal&lt; Complex &gt; &gt;</text>
</g>
<!-- Node18 -->
<g id="node18" class="node">
<title>Node18</title>
<g id="a_node18"><a xlink:href="class_shared_factory.html" target="_top" xlink:title=" ">
<polygon fill="none" stroke="black" points="446,-136 446,-166 604,-166 604,-136 446,-136"/>
<text text-anchor="start" x="454" y="-154" font-family="Helvetica,sans-Serif" font-size="10.00">SharedFactory&lt; SimTerminal</text>
<text text-anchor="middle" x="525" y="-143" font-family="Helvetica,sans-Serif" font-size="10.00">&lt; VarType &gt; &gt;</text>
</a>
</g>
</g>
<!-- Node10&#45;&gt;Node18 -->
<g id="edge24" class="edge">
<title>Node10&#45;&gt;Node18</title>
<path fill="none" stroke="orange" stroke-dasharray="5,2" d="M200.53,-317.02C205.54,-279.31 222.23,-198.21 275,-162 328.07,-125.58 403.54,-127.77 457.45,-136"/>
<polygon fill="orange" stroke="orange" points="197.02,-316.89 199.32,-327.23 203.97,-317.71 197.02,-316.89"/>
<text text-anchor="middle" x="351.5" y="-165" font-family="Helvetica,sans-Serif" font-size="10.00"> &lt; SimTerminal&lt; VarType &gt; &gt;</text>
</g>
<!-- Node22 -->
<g id="node22" class="node">
<title>Node22</title>
<g id="a_node22"><a xlink:href="class_shared_factory.html" target="_top" xlink:title=" ">
<polygon fill="none" stroke="black" points="979,-402.5 979,-421.5 1116,-421.5 1116,-402.5 979,-402.5"/>
<text text-anchor="middle" x="1047.5" y="-409.5" font-family="Helvetica,sans-Serif" font-size="10.00">SharedFactory&lt; PiLine &gt;</text>
</a>
</g>
</g>
<!-- Node10&#45;&gt;Node22 -->
<g id="edge31" class="edge">
<title>Node10&#45;&gt;Node22</title>
<path fill="none" stroke="orange" stroke-dasharray="5,2" d="M219.27,-352.49C234.01,-362.57 254.7,-374.92 275,-381 525.55,-456.1 842.37,-434.72 978.88,-420.31"/>
<polygon fill="orange" stroke="orange" points="221.11,-349.51 210.92,-346.59 217.07,-355.22 221.11,-349.51"/>
<text text-anchor="middle" x="525" y="-434" font-family="Helvetica,sans-Serif" font-size="10.00"> &lt; PiLine &gt;</text>
</g>
<!-- Node11&#45;&gt;Node6 -->
<g id="edge11" class="edge">
<title>Node11&#45;&gt;Node6</title>
<path fill="none" stroke="orange" stroke-dasharray="5,2" d="M955.76,-317.04C1014.57,-308.48 1095.49,-296.69 1151.62,-288.52"/>
<polygon fill="orange" stroke="orange" points="955.17,-313.59 945.78,-318.49 956.18,-320.52 955.17,-313.59"/>
<text text-anchor="middle" x="1047.5" y="-316" font-family="Helvetica,sans-Serif" font-size="10.00"> &lt; Complex &gt;</text>
</g>
<!-- Node12 -->
<g id="node12" class="node">
<title>Node12</title>
<g id="a_node12"><a xlink:title=" ">
<polygon fill="none" stroke="#bfbfbf" points="463,-261.5 463,-302.5 587,-302.5 587,-261.5 463,-261.5"/>
<text text-anchor="start" x="471" y="-290.5" font-family="Helvetica,sans-Serif" font-size="10.00">std::enable_shared</text>
<text text-anchor="start" x="471" y="-279.5" font-family="Helvetica,sans-Serif" font-size="10.00">_from_this&lt; SimNode</text>
<text text-anchor="middle" x="525" y="-268.5" font-family="Helvetica,sans-Serif" font-size="10.00">&lt; VarType &gt; &gt;</text>
</a>
</g>
</g>
<!-- Node12&#45;&gt;Node11 -->
<g id="edge13" class="edge">
<title>Node12&#45;&gt;Node11</title>
<path fill="none" stroke="midnightblue" d="M597.68,-291.35C658.48,-299.29 745.29,-310.62 806.25,-318.57"/>
<polygon fill="midnightblue" stroke="midnightblue" points="597.77,-287.84 587.4,-290.01 596.86,-294.78 597.77,-287.84"/>
</g>
<!-- Node13&#45;&gt;Node11 -->
<g id="edge14" class="edge">
<title>Node13&#45;&gt;Node11</title>
<path fill="none" stroke="midnightblue" d="M605.87,-334.96C666.09,-333.42 748,-331.33 806.28,-329.84"/>
<polygon fill="midnightblue" stroke="midnightblue" points="605.55,-331.47 595.64,-335.22 605.73,-338.47 605.55,-331.47"/>
</g>
<!-- Node14 -->
<g id="node14" class="node">
<title>Node14</title>
<g id="a_node14"><a xlink:href="class_c_p_s_1_1_sim_terminal.html" target="_top" xlink:title=" ">
<polygon fill="none" stroke="black" points="1134,-143.5 1134,-162.5 1302,-162.5 1302,-143.5 1134,-143.5"/>
<text text-anchor="middle" x="1218" y="-150.5" font-family="Helvetica,sans-Serif" font-size="10.00">CPS::SimTerminal&lt; Complex &gt;</text>
</a>
</g>
</g>
<!-- Node14&#45;&gt;Node2 -->
<g id="edge16" class="edge">
<title>Node14&#45;&gt;Node2</title>
<path fill="none" stroke="#9a32cd" stroke-dasharray="5,2" d="M1312.28,-146.43C1366.92,-142.58 1434.47,-137.82 1482.78,-134.42"/>
<polygon fill="#9a32cd" stroke="#9a32cd" points="1311.96,-142.94 1302.23,-147.14 1312.46,-149.93 1311.96,-142.94"/>
<text text-anchor="middle" x="1384" y="-148" font-family="Helvetica,sans-Serif" font-size="10.00"> mTerminals</text>
</g>
<!-- Node15&#45;&gt;Node14 -->
<g id="edge17" class="edge">
<title>Node15&#45;&gt;Node14</title>
<path fill="none" stroke="midnightblue" d="M604.27,-111.57C691.37,-116.73 836.28,-125.5 961,-134 1018.69,-137.93 1083.66,-142.76 1133.72,-146.56"/>
<polygon fill="midnightblue" stroke="midnightblue" points="604.39,-108.07 594.2,-110.98 603.98,-115.06 604.39,-108.07"/>
</g>
<!-- Node17 -->
<g id="node17" class="node">
<title>Node17</title>
<g id="a_node17"><a xlink:href="class_c_p_s_1_1_sim_terminal.html" target="_top" xlink:title=" ">
<polygon fill="none" stroke="black" points="798,-143.5 798,-162.5 961,-162.5 961,-143.5 798,-143.5"/>
<text text-anchor="middle" x="879.5" y="-150.5" font-family="Helvetica,sans-Serif" font-size="10.00">CPS::SimTerminal&lt; VarType &gt;</text>
</a>
</g>
</g>
<!-- Node15&#45;&gt;Node17 -->
<g id="edge22" class="edge">
<title>Node15&#45;&gt;Node17</title>
<path fill="none" stroke="midnightblue" d="M582.86,-118.41C595.7,-120.77 609.29,-123.12 622,-125 680.6,-133.68 747.11,-140.86 797.72,-145.78"/>
<polygon fill="midnightblue" stroke="midnightblue" points="583.23,-114.91 572.75,-116.51 581.94,-121.79 583.23,-114.91"/>
</g>
<!-- Node16&#45;&gt;Node14 -->
<g id="edge19" class="edge">
<title>Node16&#45;&gt;Node14</title>
<path fill="none" stroke="midnightblue" d="M790.38,-191.35C874.33,-187.38 1003.99,-179.95 1116,-168 1129.84,-166.52 1144.69,-164.54 1158.62,-162.5"/>
<polygon fill="midnightblue" stroke="midnightblue" points="790.2,-187.85 780.38,-191.81 790.53,-194.84 790.2,-187.85"/>
</g>
<!-- Node17&#45;&gt;Node14 -->
<g id="edge21" class="edge">
<title>Node17&#45;&gt;Node14</title>
<path fill="none" stroke="orange" stroke-dasharray="5,2" d="M971.38,-153C1021.99,-153 1084.53,-153 1133.84,-153"/>
<polygon fill="orange" stroke="orange" points="971.1,-149.5 961.1,-153 971.1,-156.5 971.1,-149.5"/>
<text text-anchor="middle" x="1047.5" y="-156" font-family="Helvetica,sans-Serif" font-size="10.00"> &lt; Complex &gt;</text>
</g>
<!-- Node18&#45;&gt;Node17 -->
<g id="edge23" class="edge">
<title>Node18&#45;&gt;Node17</title>
<path fill="none" stroke="midnightblue" d="M614.54,-151.5C670.8,-151.82 743.05,-152.23 797.74,-152.54"/>
<polygon fill="midnightblue" stroke="midnightblue" points="614.25,-148 604.23,-151.44 614.21,-155 614.25,-148"/>
</g>
<!-- Node19&#45;&gt;Node2 -->
<g id="edge25" class="edge">
<title>Node19&#45;&gt;Node2</title>
<path fill="none" stroke="orange" stroke-dasharray="5,2" d="M1292.08,-108.56C1337.11,-108.88 1396,-110.34 1448,-115 1459.34,-116.02 1471.37,-117.52 1482.97,-119.18"/>
<polygon fill="orange" stroke="orange" points="1291.83,-105.06 1281.81,-108.51 1291.8,-112.06 1291.83,-105.06"/>
<text text-anchor="middle" x="1384" y="-118" font-family="Helvetica,sans-Serif" font-size="10.00"> &lt; Complex &gt;</text>
</g>
<!-- Node20 -->
<g id="node20" class="node">
<title>Node20</title>
<g id="a_node20"><a xlink:href="class_c_p_s_1_1_m_n_a_tear_interface.html" target="_top" xlink:title=" ">
<polygon fill="none" stroke="black" points="1320,-24.5 1320,-43.5 1448,-43.5 1448,-24.5 1320,-24.5"/>
<text text-anchor="middle" x="1384" y="-31.5" font-family="Helvetica,sans-Serif" font-size="10.00">CPS::MNATearInterface</text>
</a>
</g>
</g>
<!-- Node20&#45;&gt;Node1 -->
<g id="edge27" class="edge">
<title>Node20&#45;&gt;Node1</title>
<path fill="none" stroke="midnightblue" d="M1439.98,-47.15C1442.74,-48.33 1445.43,-49.61 1448,-51 1457.42,-56.09 1456.14,-62.82 1466,-67 1529.9,-94.07 1610.95,-95.05 1663.97,-91.78"/>
<polygon fill="midnightblue" stroke="midnightblue" points="1440.98,-43.79 1430.39,-43.51 1438.49,-50.33 1440.98,-43.79"/>
</g>
<!-- Node21&#45;&gt;Node20 -->
<g id="edge28" class="edge">
<title>Node21&#45;&gt;Node20</title>
<path fill="none" stroke="midnightblue" d="M261.93,-35.28C327.52,-31.75 432.88,-27 524,-27 524,-27 524,-27 1048.5,-27 1143.03,-27 1252.56,-29.83 1319.81,-31.89"/>
<polygon fill="midnightblue" stroke="midnightblue" points="261.55,-31.79 251.76,-35.83 261.93,-38.78 261.55,-31.79"/>
</g>
<!-- Node22&#45;&gt;Node1 -->
<g id="edge30" class="edge">
<title>Node22&#45;&gt;Node1</title>
<path fill="none" stroke="midnightblue" d="M1086.42,-399.21C1181.49,-366.31 1436.01,-272.99 1627,-155 1657.68,-136.05 1690.95,-109.63 1708,-95.62"/>
<polygon fill="midnightblue" stroke="midnightblue" points="1085.25,-395.91 1076.94,-402.48 1087.53,-402.53 1085.25,-395.91"/>
</g>
<!-- Node23 -->
<g id="node23" class="node">
<title>Node23</title>
<g id="a_node23"><a xlink:href="class_c_p_s_1_1_base_1_1_ph1_1_1_pi_line.html" target="_top" xlink:title=" ">
<polygon fill="none" stroke="black" points="1484,-38.5 1484,-57.5 1609,-57.5 1609,-38.5 1484,-38.5"/>
<text text-anchor="middle" x="1546.5" y="-45.5" font-family="Helvetica,sans-Serif" font-size="10.00">CPS::Base::Ph1::PiLine</text>
</a>
</g>
</g>
<!-- Node23&#45;&gt;Node1 -->
<g id="edge32" class="edge">
<title>Node23&#45;&gt;Node1</title>
<path fill="none" stroke="midnightblue" d="M1600.7,-59.75C1625.02,-65.13 1653.45,-71.41 1676.41,-76.48"/>
<polygon fill="midnightblue" stroke="midnightblue" points="1601.42,-56.33 1590.9,-57.59 1599.91,-63.16 1601.42,-56.33"/>
</g>
<!-- Node24 -->
<g id="node24" class="node">
<title>Node24</title>
<g id="a_node24"><a xlink:href="class_c_p_s_1_1_p_f_solver_interface_branch.html" target="_top" xlink:title="Common base class of all Component templates.">
<polygon fill="none" stroke="black" points="1466,-0.5 1466,-19.5 1627,-19.5 1627,-0.5 1466,-0.5"/>
<text text-anchor="middle" x="1546.5" y="-7.5" font-family="Helvetica,sans-Serif" font-size="10.00">CPS::PFSolverInterfaceBranch</text>
</a>
</g>
</g>
<!-- Node24&#45;&gt;Node1 -->
<g id="edge33" class="edge">
<title>Node24&#45;&gt;Node1</title>
<path fill="none" stroke="midnightblue" d="M1608.36,-22.42C1614.74,-24.35 1621.07,-26.54 1627,-29 1657.49,-41.65 1689.52,-63.64 1706.74,-76.29"/>
<polygon fill="midnightblue" stroke="midnightblue" points="1608.88,-18.93 1598.31,-19.59 1606.99,-25.67 1608.88,-18.93"/>
</g>
</g>
</svg>
