<?xml version="1.0" encoding="UTF-8" standalone="no"?>
<!DOCTYPE svg PUBLIC "-//W3C//DTD SVG 1.1//EN"
 "http://www.w3.org/Graphics/SVG/1.1/DTD/svg11.dtd">
<!-- Generated by graphviz version 12.2.1 (20241206.2353)
 -->
<!-- Title: CPS::DP::Ph3::SSN::Full_Serial_RLC Pages: 1 -->
<!--zoomable 257 -->

<svg id="main" version="1.1" xmlns="http://www.w3.org/2000/svg" xmlns:xlink="http://www.w3.org/1999/xlink" xml:space="preserve" onload="init(evt)">

<style type="text/css"><![CDATA[
.node, .edge {opacity: 0.7;}
.node.selected, .edge.selected {opacity: 1;}
.edge:hover path { stroke: red; }
.edge:hover polygon { stroke: red; fill: red; }
]]></style>

<defs>
  <circle id="rim" cx="0" cy="0" r="7"/>
  <circle id="rim2" cx="0" cy="0" r="3.5"/>
  <g id="zoomPlus">
    <use xlink:href="#rim" fill="#404040"><set attributeName="fill" to="#808080" begin="zoomplus.mouseover" end="zoomplus.mouseout"/></use>
    <path d="M-4,0h8M0,-4v8" fill="none" stroke="white" stroke-width="1.5" pointer-events="none"/>
  </g>
  <g id="zoomMin">
    <use xlink:href="#rim" fill="#404040"><set attributeName="fill" to="#808080" begin="zoomminus.mouseover" end="zoomminus.mouseout"/></use>
    <path d="M-4,0h8" fill="none" stroke="white" stroke-width="1.5" pointer-events="none"/>
  </g>
  <g id="arrowUp" transform="translate(30 24)">
    <use xlink:href="#rim"/>
    <path pointer-events="none" fill="none" stroke="white" stroke-width="1.5" d="M0,-3.0v7 M-2.5,-0.5L0,-3.0L2.5,-0.5"/>
  </g>
  <g id="arrowRight" transform="rotate(90) translate(36 -43)">
    <use xlink:href="#rim"/>
    <path pointer-events="none" fill="none" stroke="white" stroke-width="1.5" d="M0,-3.0v7 M-2.5,-0.5L0,-3.0L2.5,-0.5"/>
  </g>
  <g id="arrowDown" transform="rotate(180) translate(-30 -48)">
    <use xlink:href="#rim"/>
    <path pointer-events="none" fill="none" stroke="white" stroke-width="1.5" d="M0,-3.0v7 M-2.5,-0.5L0,-3.0L2.5,-0.5"/>
  </g>
  <g id="arrowLeft" transform="rotate(270) translate(-36 17)">
    <use xlink:href="#rim"/>
    <path pointer-events="none" fill="none" stroke="white" stroke-width="1.5" d="M0,-3.0v7 M-2.5,-0.5L0,-3.0L2.5,-0.5"/>
  </g>
  <g id="resetDef">
    <use xlink:href="#rim2" fill="#404040"><set attributeName="fill" to="#808080" begin="reset.mouseover" end="reset.mouseout"/></use>
  </g>
</defs>
<script type="application/ecmascript">
var viewWidth = 1641;
var viewHeight = 257;
var sectionId = 'dynsection-0';
</script>
<script type="application/ecmascript" xlink:href="svg.min.js"/>
<svg id="graph" class="graph">
<g id="viewport">
<title>CPS::DP::Ph3::SSN::Full_Serial_RLC</title>
<!-- Node1 -->
<g id="Node000001" class="node">
<title>Node1</title>
<g id="a_Node000001"><a xlink:title="Series RLC one&#45;port as a three&#45;phase DP V&#45;type SSN component.">
<polygon fill="#999999" stroke="#666666" points="1633.25,-109.38 1526.5,-109.38 1526.5,-72.88 1633.25,-72.88 1633.25,-109.38"/>
<text text-anchor="start" x="1534.5" y="-95.88" font-family="Helvetica,sans-Serif" font-size="10.00">CPS::DP::Ph3::SSN::</text>
<text text-anchor="middle" x="1579.88" y="-81.62" font-family="Helvetica,sans-Serif" font-size="10.00">Full_Serial_RLC</text>
</a>
</g>
</g>
<!-- Node2 -->
<g id="Node000002" class="node">
<title>Node2</title>
<g id="a_Node000002"><a xlink:href="class_c_p_s_1_1_d_p_1_1_ph3_1_1_two_terminal_v_type_s_s_n_comp.html" target="_top" xlink:title="Three&#45;phase, two&#45;terminal V&#45;type SSN stamping layer.">
<polygon fill="white" stroke="#666666" points="1489.5,-211.38 1348.25,-211.38 1348.25,-174.88 1489.5,-174.88 1489.5,-211.38"/>
<text text-anchor="start" x="1356.25" y="-197.88" font-family="Helvetica,sans-Serif" font-size="10.00">CPS::DP::Ph3::TwoTerminal</text>
<text text-anchor="middle" x="1418.88" y="-183.62" font-family="Helvetica,sans-Serif" font-size="10.00">VTypeSSNComp</text>
</a>
</g>
</g>
<!-- Node2&#45;&gt;Node1 -->
<g id="edge1_Node000001_Node000002" class="edge">
<title>Node2&#45;&gt;Node1</title>
<g id="a_edge1_Node000001_Node000002"><a xlink:title=" ">
<path fill="none" stroke="#63b8ff" d="M1481.92,-169.36C1484.51,-168 1487.05,-166.58 1489.5,-165.12 1515.98,-149.36 1542.74,-126.01 1559.97,-109.77"/>
<polygon fill="#63b8ff" stroke="#63b8ff" points="1480.49,-166.17 1473.05,-173.72 1483.57,-172.45 1480.49,-166.17"/>
</a>
</g>
</g>
<!-- Node3 -->
<g id="Node000003" class="node">
<title>Node3</title>
<g id="a_Node000003"><a xlink:href="class_c_p_s_1_1_d_p_1_1_v_type_s_s_n_comp.html" target="_top" xlink:title="Abstract base for DP V&#45;type SSN components (input voltage, output current).">
<polygon fill="white" stroke="#666666" points="1226,-204.25 1093.75,-204.25 1093.75,-182 1226,-182 1226,-204.25"/>
<text text-anchor="middle" x="1159.88" y="-190.75" font-family="Helvetica,sans-Serif" font-size="10.00">CPS::DP::VTypeSSNComp</text>
</a>
</g>
</g>
<!-- Node3&#45;&gt;Node2 -->
<g id="edge2_Node000002_Node000003" class="edge">
<title>Node3&#45;&gt;Node2</title>
<g id="a_edge2_Node000002_Node000003"><a xlink:title=" ">
<path fill="none" stroke="#63b8ff" d="M1237.53,-193.12C1272.58,-193.12 1313.79,-193.12 1347.97,-193.12"/>
<polygon fill="#63b8ff" stroke="#63b8ff" points="1237.91,-189.63 1227.91,-193.13 1237.91,-196.63 1237.91,-189.63"/>
</a>
</g>
</g>
<!-- Node4 -->
<g id="Node000004" class="node">
<title>Node4</title>
<g id="a_Node000004"><a xlink:href="class_c_p_s_1_1_d_p_1_1_s_s_n_comp.html" target="_top" xlink:title="Abstract base class for DP/SFA state&#45;space nodal (SSN) components.">
<polygon fill="white" stroke="#666666" points="1056.75,-204.25 953,-204.25 953,-182 1056.75,-182 1056.75,-204.25"/>
<text text-anchor="middle" x="1004.88" y="-190.75" font-family="Helvetica,sans-Serif" font-size="10.00">CPS::DP::SSNComp</text>
</a>
</g>
</g>
<!-- Node4&#45;&gt;Node3 -->
<g id="edge3_Node000003_Node000004" class="edge">
<title>Node4&#45;&gt;Node3</title>
<g id="a_edge3_Node000003_Node000004"><a xlink:title=" ">
<path fill="none" stroke="#63b8ff" d="M1068.65,-193.12C1076.85,-193.12 1085.27,-193.12 1093.51,-193.12"/>
<polygon fill="#63b8ff" stroke="#63b8ff" points="1068.76,-189.63 1058.76,-193.13 1068.76,-196.63 1068.76,-189.63"/>
</a>
</g>
</g>
<!-- Node5 -->
<g id="Node000005" class="node">
<title>Node5</title>
<g id="a_Node000005"><a xlink:href="class_c_p_s_1_1_m_n_a_sim_power_comp.html" target="_top" xlink:title=" ">
<polygon fill="white" stroke="#666666" points="916,-211.38 780,-211.38 780,-174.88 916,-174.88 916,-211.38"/>
<text text-anchor="start" x="788" y="-197.88" font-family="Helvetica,sans-Serif" font-size="10.00">CPS::MNASimPowerComp</text>
<text text-anchor="middle" x="848" y="-183.62" font-family="Helvetica,sans-Serif" font-size="10.00">&lt; Complex &gt;</text>
</a>
</g>
</g>
<!-- Node5&#45;&gt;Node4 -->
<g id="edge4_Node000004_Node000005" class="edge">
<title>Node5&#45;&gt;Node4</title>
<g id="a_edge4_Node000004_Node000005"><a xlink:title=" ">
<path fill="none" stroke="#63b8ff" d="M927.71,-193.12C936.28,-193.12 944.82,-193.12 952.93,-193.12"/>
<polygon fill="#63b8ff" stroke="#63b8ff" points="927.99,-189.63 917.99,-193.13 927.99,-196.63 927.99,-189.63"/>
</a>
</g>
</g>
<!-- Node6 -->
<g id="Node000006" class="node">
<title>Node6</title>
<g id="a_Node000006"><a xlink:href="class_c_p_s_1_1_sim_power_comp.html" target="_top" xlink:title=" ">
<polygon fill="white" stroke="#666666" points="676.88,-156.38 558.12,-156.38 558.12,-119.88 676.88,-119.88 676.88,-156.38"/>
<text text-anchor="start" x="566.12" y="-142.88" font-family="Helvetica,sans-Serif" font-size="10.00">CPS::SimPowerComp&lt;</text>
<text text-anchor="middle" x="617.5" y="-128.62" font-family="Helvetica,sans-Serif" font-size="10.00"> Complex &gt;</text>
</a>
</g>
</g>
<!-- Node6&#45;&gt;Node5 -->
<g id="edge5_Node000005_Node000006" class="edge">
<title>Node6&#45;&gt;Node5</title>
<g id="a_edge5_Node000005_Node000006"><a xlink:title=" ">
<path fill="none" stroke="#63b8ff" d="M688.26,-154.92C717.37,-161.92 751.04,-170.03 779.87,-176.97"/>
<polygon fill="#63b8ff" stroke="#63b8ff" points="689.36,-151.58 678.82,-152.64 687.72,-158.39 689.36,-151.58"/>
</a>
</g>
</g>
<!-- Node7 -->
<g id="Node000007" class="node">
<title>Node7</title>
<g id="a_Node000007"><a xlink:href="class_c_p_s_1_1_topological_power_comp.html" target="_top" xlink:title=" ">
<polygon fill="white" stroke="#666666" points="299.25,-154.25 152,-154.25 152,-132 299.25,-132 299.25,-154.25"/>
<text text-anchor="middle" x="225.62" y="-140.75" font-family="Helvetica,sans-Serif" font-size="10.00">CPS::TopologicalPowerComp</text>
</a>
</g>
</g>
<!-- Node7&#45;&gt;Node6 -->
<g id="edge6_Node000006_Node000007" class="edge">
<title>Node7&#45;&gt;Node6</title>
<g id="a_edge6_Node000006_Node000007"><a xlink:title=" ">
<path fill="none" stroke="#63b8ff" d="M310.7,-142.05C385.18,-141.09 491.99,-139.72 557.67,-138.88"/>
<polygon fill="#63b8ff" stroke="#63b8ff" points="310.97,-138.54 301.01,-142.17 311.06,-145.54 310.97,-138.54"/>
</a>
</g>
</g>
<!-- Node9 -->
<g id="Node000009" class="node">
<title>Node9</title>
<g id="a_Node000009"><a xlink:href="class_c_p_s_1_1_sim_power_comp.html" target="_top" xlink:title="Base class for all components that are transmitting power.">
<polygon fill="white" stroke="#666666" points="455,-115.38 336.25,-115.38 336.25,-78.88 455,-78.88 455,-115.38"/>
<text text-anchor="start" x="344.25" y="-101.88" font-family="Helvetica,sans-Serif" font-size="10.00">CPS::SimPowerComp&lt;</text>
<text text-anchor="middle" x="395.62" y="-87.62" font-family="Helvetica,sans-Serif" font-size="10.00"> VarType &gt;</text>
</a>
</g>
</g>
<!-- Node7&#45;&gt;Node9 -->
<g id="edge9_Node000009_Node000007" class="edge">
<title>Node7&#45;&gt;Node9</title>
<g id="a_edge9_Node000009_Node000007"><a xlink:title=" ">
<path fill="none" stroke="#63b8ff" d="M280.1,-128.48C297.92,-123.6 317.87,-118.14 336.07,-113.16"/>
<polygon fill="#63b8ff" stroke="#63b8ff" points="279.2,-125.1 270.48,-131.12 281.05,-131.85 279.2,-125.1"/>
</a>
</g>
</g>
<!-- Node12 -->
<g id="Node000012" class="node">
<title>Node12</title>
<g id="a_Node000012"><a xlink:href="class_c_p_s_1_1_sim_power_comp.html" target="_top" xlink:title="Base class for all components that are transmitting power.">
<polygon fill="white" stroke="#666666" points="455,-207.38 336.25,-207.38 336.25,-170.88 455,-170.88 455,-207.38"/>
<text text-anchor="start" x="344.25" y="-193.88" font-family="Helvetica,sans-Serif" font-size="10.00">CPS::SimPowerComp&lt;</text>
<text text-anchor="middle" x="395.62" y="-179.62" font-family="Helvetica,sans-Serif" font-size="10.00"> VarType &gt;</text>
</a>
</g>
</g>
<!-- Node7&#45;&gt;Node12 -->
<g id="edge13_Node000012_Node000007" class="edge">
<title>Node7&#45;&gt;Node12</title>
<g id="a_edge13_Node000012_Node000007"><a xlink:title=" ">
<path fill="none" stroke="#63b8ff" d="M280.1,-157.77C297.92,-162.65 317.87,-168.11 336.07,-173.09"/>
<polygon fill="#63b8ff" stroke="#63b8ff" points="281.05,-154.4 270.48,-155.13 279.2,-161.15 281.05,-154.4"/>
</a>
</g>
</g>
<!-- Node8 -->
<g id="Node000008" class="node">
<title>Node8</title>
<g id="a_Node000008"><a xlink:href="class_c_p_s_1_1_identified_object.html" target="_top" xlink:title=" ">
<polygon fill="white" stroke="#666666" points="115,-154.25 0,-154.25 0,-132 115,-132 115,-154.25"/>
<text text-anchor="middle" x="57.5" y="-140.75" font-family="Helvetica,sans-Serif" font-size="10.00">CPS::IdentifiedObject</text>
</a>
</g>
</g>
<!-- Node8&#45;&gt;Node7 -->
<g id="edge7_Node000007_Node000008" class="edge">
<title>Node8&#45;&gt;Node7</title>
<g id="a_edge7_Node000007_Node000008"><a xlink:title=" ">
<path fill="none" stroke="#63b8ff" d="M126.7,-143.12C134.95,-143.12 143.41,-143.12 151.73,-143.12"/>
<polygon fill="#63b8ff" stroke="#63b8ff" points="126.72,-139.63 116.72,-143.13 126.72,-146.63 126.72,-139.63"/>
</a>
</g>
</g>
<!-- Node9&#45;&gt;Node6 -->
<g id="edge8_Node000006_Node000009" class="edge">
<title>Node9&#45;&gt;Node6</title>
<g id="a_edge8_Node000006_Node000009"><a xlink:title=" ">
<path fill="none" stroke="orange" stroke-dasharray="5,2" d="M466.73,-104.51C487.66,-107.21 510.6,-110.66 531.5,-114.88 540.05,-116.6 549,-118.71 557.76,-120.94"/>
<polygon fill="orange" stroke="orange" points="467.19,-101.04 456.84,-103.28 466.32,-107.99 467.19,-101.04"/>
</a>
</g>
<text text-anchor="middle" x="502.25" y="-119.62" font-family="Helvetica,sans-Serif" font-size="10.00" fill="grey"> &lt; Complex &gt;</text>
</g>
<!-- Node10 -->
<g id="Node000010" class="node">
<title>Node10</title>
<g id="a_Node000010"><a xlink:href="class_c_p_s_1_1_m_n_a_interface.html" target="_top" xlink:title="Interface to be implemented by all models used by the MNA solver.">
<polygon fill="white" stroke="#666666" points="448.62,-249.25 342.62,-249.25 342.62,-227 448.62,-227 448.62,-249.25"/>
<text text-anchor="middle" x="395.62" y="-235.75" font-family="Helvetica,sans-Serif" font-size="10.00">CPS::MNAInterface</text>
</a>
</g>
</g>
<!-- Node10&#45;&gt;Node5 -->
<g id="edge10_Node000005_Node000010" class="edge">
<title>Node10&#45;&gt;Node5</title>
<g id="a_edge10_Node000005_Node000010"><a xlink:title=" ">
<path fill="none" stroke="#63b8ff" d="M460.31,-236.85C533.54,-234.6 657.14,-228.36 762,-211.12 767.8,-210.17 773.81,-209.09 779.83,-207.94"/>
<polygon fill="#63b8ff" stroke="#63b8ff" points="460.41,-233.35 450.52,-237.14 460.62,-240.35 460.41,-233.35"/>
</a>
</g>
</g>
<!-- Node11 -->
<g id="Node000011" class="node">
<title>Node11</title>
<g id="a_Node000011"><a xlink:href="class_c_p_s_1_1_m_n_a_sim_power_comp.html" target="_top" xlink:title="Base class for all MNA components that are transmitting power.">
<polygon fill="white" stroke="#666666" points="685.5,-211.38 549.5,-211.38 549.5,-174.88 685.5,-174.88 685.5,-211.38"/>
<text text-anchor="start" x="557.5" y="-197.88" font-family="Helvetica,sans-Serif" font-size="10.00">CPS::MNASimPowerComp</text>
<text text-anchor="middle" x="617.5" y="-183.62" font-family="Helvetica,sans-Serif" font-size="10.00">&lt; VarType &gt;</text>
</a>
</g>
</g>
<!-- Node10&#45;&gt;Node11 -->
<g id="edge14_Node000011_Node000010" class="edge">
<title>Node10&#45;&gt;Node11</title>
<g id="a_edge14_Node000011_Node000010"><a xlink:title=" ">
<path fill="none" stroke="#63b8ff" d="M460.23,-225.11C488.09,-219.41 520.81,-212.71 549.09,-206.92"/>
<polygon fill="#63b8ff" stroke="#63b8ff" points="459.59,-221.67 450.49,-227.1 460.99,-228.52 459.59,-221.67"/>
</a>
</g>
</g>
<!-- Node11&#45;&gt;Node5 -->
<g id="edge11_Node000005_Node000011" class="edge">
<title>Node11&#45;&gt;Node5</title>
<g id="a_edge11_Node000005_Node000011"><a xlink:title=" ">
<path fill="none" stroke="orange" stroke-dasharray="5,2" d="M697.15,-193.12C724.04,-193.12 753.86,-193.12 779.77,-193.12"/>
<polygon fill="orange" stroke="orange" points="697.34,-189.63 687.34,-193.13 697.34,-196.63 697.34,-189.63"/>
</a>
</g>
<text text-anchor="middle" x="732.75" y="-197.88" font-family="Helvetica,sans-Serif" font-size="10.00" fill="grey"> &lt; Complex &gt;</text>
</g>
<!-- Node12&#45;&gt;Node11 -->
<g id="edge12_Node000011_Node000012" class="edge">
<title>Node12&#45;&gt;Node11</title>
<g id="a_edge12_Node000011_Node000012"><a xlink:title=" ">
<path fill="none" stroke="#63b8ff" d="M466.71,-190.4C493.07,-190.88 522.97,-191.42 549.08,-191.9"/>
<polygon fill="#63b8ff" stroke="#63b8ff" points="466.83,-186.9 456.77,-190.22 466.71,-193.9 466.83,-186.9"/>
</a>
</g>
</g>
<!-- Node13 -->
<g id="Node000013" class="node">
<title>Node13</title>
<g id="a_Node000013"><a xlink:href="class_shared_factory.html" target="_top" xlink:title=" ">
<polygon fill="white" stroke="#666666" points="1472.25,-156.38 1365.5,-156.38 1365.5,-119.88 1472.25,-119.88 1472.25,-156.38"/>
<text text-anchor="start" x="1373.5" y="-142.88" font-family="Helvetica,sans-Serif" font-size="10.00">SharedFactory&lt; Full</text>
<text text-anchor="middle" x="1418.88" y="-128.62" font-family="Helvetica,sans-Serif" font-size="10.00">_Serial_RLC &gt;</text>
</a>
</g>
</g>
<!-- Node13&#45;&gt;Node1 -->
<g id="edge15_Node000001_Node000013" class="edge">
<title>Node13&#45;&gt;Node1</title>
<g id="a_edge15_Node000001_Node000013"><a xlink:title=" ">
<path fill="none" stroke="#63b8ff" d="M1483.11,-119.43C1497.38,-115.21 1512.38,-110.78 1526.16,-106.71"/>
<polygon fill="#63b8ff" stroke="#63b8ff" points="1482.43,-115.98 1473.83,-122.18 1484.41,-122.7 1482.43,-115.98"/>
</a>
</g>
</g>
<!-- Node14 -->
<g id="Node000014" class="node">
<title>Node14</title>
<g id="a_Node000014"><a xlink:href="class_shared_factory.html" target="_top" xlink:title=" ">
<polygon fill="white" stroke="#666666" points="1212.12,-149.25 1107.62,-149.25 1107.62,-127 1212.12,-127 1212.12,-149.25"/>
<text text-anchor="middle" x="1159.88" y="-135.75" font-family="Helvetica,sans-Serif" font-size="10.00">SharedFactory&lt; T &gt;</text>
</a>
</g>
</g>
<!-- Node14&#45;&gt;Node13 -->
<g id="edge16_Node000013_Node000014" class="edge">
<title>Node14&#45;&gt;Node13</title>
<g id="a_edge16_Node000013_Node000014"><a xlink:title=" ">
<path fill="none" stroke="orange" stroke-dasharray="5,2" d="M1223.87,-138.12C1267.32,-138.12 1324.4,-138.12 1365.38,-138.12"/>
<polygon fill="orange" stroke="orange" points="1224.09,-134.63 1214.09,-138.13 1224.09,-141.63 1224.09,-134.63"/>
</a>
</g>
<text text-anchor="middle" x="1287.12" y="-142.88" font-family="Helvetica,sans-Serif" font-size="10.00" fill="grey"> &lt; Full_Serial_RLC &gt;</text>
</g>
<!-- Node15 -->
<g id="Node000015" class="node">
<title>Node15</title>
<g id="a_Node000015"><a xlink:href="class_c_p_s_1_1_base_1_1_ph3_1_1_resistor.html" target="_top" xlink:title=" ">
<polygon fill="white" stroke="#bfbfbf" points="1483.5,-102.25 1354.25,-102.25 1354.25,-80 1483.5,-80 1483.5,-102.25"/>
<text text-anchor="middle" x="1418.88" y="-88.75" font-family="Helvetica,sans-Serif" font-size="10.00">CPS::Base::Ph3::Resistor</text>
</a>
</g>
</g>
<!-- Node15&#45;&gt;Node1 -->
<g id="edge17_Node000001_Node000015" class="edge">
<title>Node15&#45;&gt;Node1</title>
<g id="a_edge17_Node000001_Node000015"><a xlink:title=" ">
<path fill="none" stroke="#63b8ff" d="M1494.96,-91.12C1505.48,-91.12 1516.09,-91.12 1526.07,-91.12"/>
<polygon fill="#63b8ff" stroke="#63b8ff" points="1495.14,-87.63 1485.14,-91.13 1495.14,-94.63 1495.14,-87.63"/>
</a>
</g>
</g>
<!-- Node16 -->
<g id="Node000016" class="node">
<title>Node16</title>
<g id="a_Node000016"><a xlink:href="class_c_p_s_1_1_base_1_1_ph3_1_1_inductor.html" target="_top" xlink:title=" ">
<polygon fill="white" stroke="#bfbfbf" points="1485,-62.25 1352.75,-62.25 1352.75,-40 1485,-40 1485,-62.25"/>
<text text-anchor="middle" x="1418.88" y="-48.75" font-family="Helvetica,sans-Serif" font-size="10.00">CPS::Base::Ph3::Inductor</text>
</a>
</g>
</g>
<!-- Node16&#45;&gt;Node1 -->
<g id="edge18_Node000001_Node000016" class="edge">
<title>Node16&#45;&gt;Node1</title>
<g id="a_edge18_Node000001_Node000016"><a xlink:title=" ">
<path fill="none" stroke="#63b8ff" d="M1476.78,-65.44C1492.92,-69.5 1510.4,-73.9 1526.27,-77.89"/>
<polygon fill="#63b8ff" stroke="#63b8ff" points="1477.88,-62.11 1467.33,-63.06 1476.18,-68.9 1477.88,-62.11"/>
</a>
</g>
</g>
<!-- Node17 -->
<g id="Node000017" class="node">
<title>Node17</title>
<g id="a_Node000017"><a xlink:href="class_c_p_s_1_1_base_1_1_ph3_1_1_capacitor.html" target="_top" xlink:title=" ">
<polygon fill="white" stroke="#bfbfbf" points="1486.5,-22.25 1351.25,-22.25 1351.25,0 1486.5,0 1486.5,-22.25"/>
<text text-anchor="middle" x="1418.88" y="-8.75" font-family="Helvetica,sans-Serif" font-size="10.00">CPS::Base::Ph3::Capacitor</text>
</a>
</g>
</g>
<!-- Node17&#45;&gt;Node1 -->
<g id="edge19_Node000001_Node000017" class="edge">
<title>Node17&#45;&gt;Node1</title>
<g id="a_edge19_Node000001_Node000017"><a xlink:title=" ">
<path fill="none" stroke="#63b8ff" d="M1478.52,-26.51C1482.28,-27.95 1485.97,-29.48 1489.5,-31.12 1513.39,-42.24 1538.08,-59.31 1555.44,-72.41"/>
<polygon fill="#63b8ff" stroke="#63b8ff" points="1479.81,-23.26 1469.22,-23.25 1477.49,-29.86 1479.81,-23.26"/>
</a>
</g>
</g>
</g>
</svg>

<g id="navigator" transform="translate(0 0)" fill="#404254">
  <rect fill="#f2f5e9" fill-opacity="0.5" stroke="#606060" stroke-width=".5" x="0" y="0" width="60" height="60"/>
  <use id="zoomplus" xlink:href="#zoomPlus" x="17" y="9" onmousedown="handleZoom(evt,'in')"/>
  <use id="zoomminus" xlink:href="#zoomMin" x="42" y="9" onmousedown="handleZoom(evt,'out')"/>
  <use id="reset" xlink:href="#resetDef" x="30" y="36" onmousedown="handleReset()"/>
   <use id="arrowup" xlink:href="#arrowUp" x="0" y="0" onmousedown="handlePan(0,-1)"/>
  <use id="arrowright" xlink:href="#arrowRight" x="0" y="0" onmousedown="handlePan(1,0)"/>
  <use id="arrowdown" xlink:href="#arrowDown" x="0" y="0" onmousedown="handlePan(0,1)"/>
  <use id="arrowleft" xlink:href="#arrowLeft" x="0" y="0" onmousedown="handlePan(-1,0)"/>
</g>
<svg viewBox="0 0 15 15" width="100%" height="30px" preserveAspectRatio="xMaxYMin meet">
 <g id="arrow_out" transform="scale(0.3 0.3)">
  <a xlink:href="class_c_p_s_1_1_d_p_1_1_ph3_1_1_s_s_n_1_1_full___serial___r_l_c__inherit__graph_org.svg" target="_base">
   <rect id="button" ry="5" rx="5" y="6" x="6" height="38" width="38"
        fill="#f2f5e9" fill-opacity="0.5" stroke="#606060" stroke-width="1.0"/>
   <path id="arrow"
     d="M 11.500037,31.436501 C 11.940474,20.09759 22.043105,11.32322 32.158766,21.979434 L 37.068811,17.246167 C 37.068811,17.246167 37.088388,32 37.088388,32 L 22.160133,31.978069 C 22.160133,31.978069 26.997745,27.140456 26.997745,27.140456 C 18.528582,18.264221 13.291696,25.230495 11.500037,31.436501 z"
     style="fill:#404040;"/>
  </a>
 </g>
</svg>

<style type='text/css'>
<![CDATA[
[data-mouse-over-selected='false'] { opacity: 0.7; }
[data-mouse-over-selected='true']  { opacity: 1.0; }
]]>
</style>
<script type="application/ecmascript"><![CDATA[
document.addEventListener('DOMContentLoaded', (event) => {
  highlightEdges();
  highlightAdjacentNodes();
});
]]></script>
</svg>
