<?xml version="1.0" encoding="UTF-8" standalone="no"?>
<!DOCTYPE svg PUBLIC "-//W3C//DTD SVG 1.1//EN"
 "http://www.w3.org/Graphics/SVG/1.1/DTD/svg11.dtd">
<!-- Generated by graphviz version 2.50.0 (0)
 -->
<!-- Title: CPS::Base::Ph3::Switch Pages: 1 -->
<svg width="740pt" height="221pt"
 viewBox="0.00 0.00 740.00 221.35" xmlns="http://www.w3.org/2000/svg" xmlns:xlink="http://www.w3.org/1999/xlink">
<g id="graph0" class="graph" transform="scale(1 1) rotate(0) translate(4 217.35)">
<title>CPS::Base::Ph3::Switch</title>
<!-- Node1 -->
<g id="node1" class="node">
<title>Node1</title>
<g id="a_node1"><a xlink:title="Dynamic Phasor Three&#45;Phase Switch.">
<polygon fill="#bfbfbf" stroke="black" points="610,-83.85 610,-102.85 732,-102.85 732,-83.85 610,-83.85"/>
<text text-anchor="middle" x="671" y="-90.85" font-family="Helvetica,sans-Serif" font-size="10.00">CPS::Base::Ph3::Switch</text>
</a>
</g>
</g>
<!-- Node2 -->
<g id="node2" class="node">
<title>Node2</title>
<g id="a_node2"><a xlink:href="class_c_p_s_1_1_attribute.html" target="_top" xlink:title=" ">
<polygon fill="none" stroke="black" points="358.5,-120.85 358.5,-139.85 478.5,-139.85 478.5,-120.85 358.5,-120.85"/>
<text text-anchor="middle" x="418.5" y="-127.85" font-family="Helvetica,sans-Serif" font-size="10.00">CPS::Attribute&lt; Bool &gt;</text>
</a>
</g>
</g>
<!-- Node2&#45;&gt;Node1 -->
<g id="edge1" class="edge">
<title>Node2&#45;&gt;Node1</title>
<path fill="none" stroke="#9a32cd" stroke-dasharray="5,2" d="M488.5,-120.15C526.45,-114.55 573.11,-107.66 609.61,-102.27"/>
<polygon fill="#9a32cd" stroke="#9a32cd" points="487.93,-116.7 478.55,-121.62 488.95,-123.63 487.93,-116.7"/>
<text text-anchor="middle" x="546.5" y="-119.35" font-family="Helvetica,sans-Serif" font-size="10.00"> mSwitchClosed</text>
</g>
<!-- Node3 -->
<g id="node3" class="node">
<title>Node3</title>
<g id="a_node3"><a xlink:href="class_c_p_s_1_1_attribute_base.html" target="_top" xlink:title=" ">
<polygon fill="none" stroke="black" points="5.5,-114.85 5.5,-133.85 110.5,-133.85 110.5,-114.85 5.5,-114.85"/>
<text text-anchor="middle" x="58" y="-121.85" font-family="Helvetica,sans-Serif" font-size="10.00">CPS::AttributeBase</text>
</a>
</g>
</g>
<!-- Node3&#45;&gt;Node2 -->
<g id="edge2" class="edge">
<title>Node3&#45;&gt;Node2</title>
<path fill="none" stroke="midnightblue" d="M120.94,-127.87C125.36,-128.06 129.75,-128.22 134,-128.35 211.49,-130.68 300.94,-130.9 358.3,-130.72"/>
<polygon fill="midnightblue" stroke="midnightblue" points="120.78,-124.36 110.63,-127.41 120.46,-131.36 120.78,-124.36"/>
</g>
<!-- Node5 -->
<g id="node5" class="node">
<title>Node5</title>
<g id="a_node5"><a xlink:href="class_c_p_s_1_1_attribute.html" target="_top" xlink:title=" ">
<polygon fill="none" stroke="black" points="159,-94.85 159,-113.85 263,-113.85 263,-94.85 159,-94.85"/>
<text text-anchor="middle" x="211" y="-101.85" font-family="Helvetica,sans-Serif" font-size="10.00">CPS::Attribute&lt; T &gt;</text>
</a>
</g>
</g>
<!-- Node3&#45;&gt;Node5 -->
<g id="edge5" class="edge">
<title>Node3&#45;&gt;Node5</title>
<path fill="none" stroke="midnightblue" d="M120.61,-116.19C133.35,-114.5 146.63,-112.74 158.94,-111.11"/>
<polygon fill="midnightblue" stroke="midnightblue" points="120,-112.74 110.54,-117.52 120.92,-119.68 120,-112.74"/>
</g>
<!-- Node7 -->
<g id="node7" class="node">
<title>Node7</title>
<g id="a_node7"><a xlink:href="class_c_p_s_1_1_attribute.html" target="_top" xlink:title=" ">
<polygon fill="none" stroke="black" points="354,-45.85 354,-64.85 483,-64.85 483,-45.85 354,-45.85"/>
<text text-anchor="middle" x="418.5" y="-52.85" font-family="Helvetica,sans-Serif" font-size="10.00">CPS::Attribute&lt; Matrix &gt;</text>
</a>
</g>
</g>
<!-- Node3&#45;&gt;Node7 -->
<g id="edge8" class="edge">
<title>Node3&#45;&gt;Node7</title>
<path fill="none" stroke="midnightblue" d="M110.46,-109.67C112.41,-108.35 114.27,-106.91 116,-105.35 145.92,-78.21 119.12,-44.34 153,-22.35 232.57,29.3 354.32,-22.93 399.66,-45.79"/>
<polygon fill="midnightblue" stroke="midnightblue" points="108.41,-106.8 101.38,-114.73 111.82,-112.92 108.41,-106.8"/>
</g>
<!-- Node4 -->
<g id="node4" class="node">
<title>Node4</title>
<g id="a_node4"><a xlink:title=" ">
<polygon fill="none" stroke="#bfbfbf" points="153,-171.85 153,-212.85 269,-212.85 269,-171.85 153,-171.85"/>
<text text-anchor="start" x="161" y="-200.85" font-family="Helvetica,sans-Serif" font-size="10.00">std::enable_shared</text>
<text text-anchor="start" x="161" y="-189.85" font-family="Helvetica,sans-Serif" font-size="10.00">_from_this&lt; Attribute</text>
<text text-anchor="middle" x="211" y="-178.85" font-family="Helvetica,sans-Serif" font-size="10.00">&lt; Bool &gt; &gt;</text>
</a>
</g>
</g>
<!-- Node4&#45;&gt;Node2 -->
<g id="edge3" class="edge">
<title>Node4&#45;&gt;Node2</title>
<path fill="none" stroke="midnightblue" d="M279.06,-174.01C297.56,-168.79 317.6,-162.99 336,-157.35 353.96,-151.84 373.98,-145.21 389.69,-139.9"/>
<polygon fill="midnightblue" stroke="midnightblue" points="277.94,-170.69 269.26,-176.76 279.83,-177.43 277.94,-170.69"/>
</g>
<!-- Node5&#45;&gt;Node2 -->
<g id="edge4" class="edge">
<title>Node5&#45;&gt;Node2</title>
<path fill="none" stroke="orange" stroke-dasharray="5,2" d="M272.98,-110.82C293.07,-113.06 315.51,-115.68 336,-118.35 343.23,-119.29 350.82,-120.33 358.33,-121.39"/>
<polygon fill="orange" stroke="orange" points="273.35,-107.34 263.03,-109.71 272.58,-114.29 273.35,-107.34"/>
<text text-anchor="middle" x="311.5" y="-121.35" font-family="Helvetica,sans-Serif" font-size="10.00"> &lt; Bool &gt;</text>
</g>
<!-- Node5&#45;&gt;Node7 -->
<g id="edge10" class="edge">
<title>Node5&#45;&gt;Node7</title>
<path fill="none" stroke="orange" stroke-dasharray="5,2" d="M262.25,-92.36C297.71,-83.91 344.56,-72.74 377.49,-64.89"/>
<polygon fill="orange" stroke="orange" points="261.03,-89.06 252.11,-94.78 262.65,-95.87 261.03,-89.06"/>
<text text-anchor="middle" x="311.5" y="-88.35" font-family="Helvetica,sans-Serif" font-size="10.00"> &lt; Matrix &gt;</text>
</g>
<!-- Node6 -->
<g id="node6" class="node">
<title>Node6</title>
<g id="a_node6"><a xlink:title=" ">
<polygon fill="none" stroke="#bfbfbf" points="0,-54.85 0,-95.85 116,-95.85 116,-54.85 0,-54.85"/>
<text text-anchor="start" x="8" y="-83.85" font-family="Helvetica,sans-Serif" font-size="10.00">std::enable_shared</text>
<text text-anchor="start" x="8" y="-72.85" font-family="Helvetica,sans-Serif" font-size="10.00">_from_this&lt; Attribute</text>
<text text-anchor="middle" x="58" y="-61.85" font-family="Helvetica,sans-Serif" font-size="10.00">&lt; T &gt; &gt;</text>
</a>
</g>
</g>
<!-- Node6&#45;&gt;Node5 -->
<g id="edge6" class="edge">
<title>Node6&#45;&gt;Node5</title>
<path fill="none" stroke="midnightblue" d="M126.09,-88.23C137.57,-90.44 149.32,-92.69 160.25,-94.79"/>
<polygon fill="midnightblue" stroke="midnightblue" points="126.57,-84.76 116.09,-86.31 125.25,-91.63 126.57,-84.76"/>
</g>
<!-- Node7&#45;&gt;Node1 -->
<g id="edge7" class="edge">
<title>Node7&#45;&gt;Node1</title>
<path fill="none" stroke="#9a32cd" stroke-dasharray="5,2" d="M493.29,-64.24C523.89,-68.17 559.72,-73.09 592,-78.35 601.94,-79.96 612.55,-81.88 622.64,-83.79"/>
<polygon fill="#9a32cd" stroke="#9a32cd" points="493.48,-60.73 483.12,-62.94 492.6,-67.68 493.48,-60.73"/>
<text text-anchor="middle" x="546.5" y="-92.35" font-family="Helvetica,sans-Serif" font-size="10.00"> mClosedResistance</text>
<text text-anchor="middle" x="546.5" y="-81.35" font-family="Helvetica,sans-Serif" font-size="10.00">mOpenResistance</text>
</g>
<!-- Node8 -->
<g id="node8" class="node">
<title>Node8</title>
<g id="a_node8"><a xlink:title=" ">
<polygon fill="none" stroke="#bfbfbf" points="153,-31.85 153,-72.85 269,-72.85 269,-31.85 153,-31.85"/>
<text text-anchor="start" x="161" y="-60.85" font-family="Helvetica,sans-Serif" font-size="10.00">std::enable_shared</text>
<text text-anchor="start" x="161" y="-49.85" font-family="Helvetica,sans-Serif" font-size="10.00">_from_this&lt; Attribute</text>
<text text-anchor="middle" x="211" y="-38.85" font-family="Helvetica,sans-Serif" font-size="10.00">&lt; Matrix &gt; &gt;</text>
</a>
</g>
</g>
<!-- Node8&#45;&gt;Node7 -->
<g id="edge9" class="edge">
<title>Node8&#45;&gt;Node7</title>
<path fill="none" stroke="midnightblue" d="M279.3,-53.33C303.23,-53.68 330.07,-54.07 353.7,-54.41"/>
<polygon fill="midnightblue" stroke="midnightblue" points="279.29,-49.83 269.24,-53.18 279.19,-56.83 279.29,-49.83"/>
</g>
</g>
</svg>
