<?xml version="1.0" encoding="UTF-8" standalone="no"?>
<!DOCTYPE svg PUBLIC "-//W3C//DTD SVG 1.1//EN"
 "http://www.w3.org/Graphics/SVG/1.1/DTD/svg11.dtd">
<!-- Generated by graphviz version 2.50.0 (0)
 -->
<!-- Title: CPS::DP::Ph3::SynchronGeneratorDQTrapez Pages: 1 -->
<svg width="583pt" height="455pt"
 viewBox="0.00 0.00 583.00 455.00" xmlns="http://www.w3.org/2000/svg" xmlns:xlink="http://www.w3.org/1999/xlink">
<g id="graph0" class="graph" transform="scale(1 1) rotate(0) translate(4 451)">
<title>CPS::DP::Ph3::SynchronGeneratorDQTrapez</title>
<!-- Node1 -->
<g id="node1" class="node">
<title>Node1</title>
<g id="a_node1"><a xlink:title=" ">
<polygon fill="#bfbfbf" stroke="black" points="228.5,-0.5 228.5,-30.5 403.5,-30.5 403.5,-0.5 228.5,-0.5"/>
<text text-anchor="start" x="236.5" y="-18.5" font-family="Helvetica,sans-Serif" font-size="10.00">CPS::DP::Ph3::SynchronGenerator</text>
<text text-anchor="middle" x="316" y="-7.5" font-family="Helvetica,sans-Serif" font-size="10.00">DQTrapez</text>
</a>
</g>
</g>
<!-- Node2 -->
<g id="node2" class="node">
<title>Node2</title>
<g id="a_node2"><a xlink:href="class_c_p_s_1_1_d_p_1_1_ph3_1_1_synchron_generator_d_q.html" target="_top" xlink:title="Synchronous generator model in dq&#45;reference frame.">
<polygon fill="none" stroke="black" points="119,-74 119,-93 309,-93 309,-74 119,-74"/>
<text text-anchor="middle" x="214" y="-81" font-family="Helvetica,sans-Serif" font-size="10.00">CPS::DP::Ph3::SynchronGeneratorDQ</text>
</a>
</g>
</g>
<!-- Node2&#45;&gt;Node1 -->
<g id="edge1" class="edge">
<title>Node2&#45;&gt;Node1</title>
<path fill="none" stroke="midnightblue" d="M236.12,-68.19C253.29,-57.08 276.97,-41.76 294.08,-30.68"/>
<polygon fill="midnightblue" stroke="midnightblue" points="233.83,-65.5 227.33,-73.87 237.63,-71.38 233.83,-65.5"/>
</g>
<!-- Node3 -->
<g id="node3" class="node">
<title>Node3</title>
<g id="a_node3"><a xlink:href="class_c_p_s_1_1_m_n_a_sim_power_comp.html" target="_top" xlink:title=" ">
<polygon fill="none" stroke="black" points="178.5,-146.5 178.5,-176.5 315.5,-176.5 315.5,-146.5 178.5,-146.5"/>
<text text-anchor="start" x="186.5" y="-164.5" font-family="Helvetica,sans-Serif" font-size="10.00">CPS::MNASimPowerComp</text>
<text text-anchor="middle" x="247" y="-153.5" font-family="Helvetica,sans-Serif" font-size="10.00">&lt; Complex &gt;</text>
</a>
</g>
</g>
<!-- Node3&#45;&gt;Node2 -->
<g id="edge2" class="edge">
<title>Node3&#45;&gt;Node2</title>
<path fill="none" stroke="midnightblue" d="M236.81,-137.02C230.32,-122.1 222.32,-103.65 217.72,-93.06"/>
<polygon fill="midnightblue" stroke="midnightblue" points="233.6,-138.43 240.79,-146.2 240.02,-135.64 233.6,-138.43"/>
</g>
<!-- Node4 -->
<g id="node4" class="node">
<title>Node4</title>
<g id="a_node4"><a xlink:href="class_c_p_s_1_1_sim_power_comp.html" target="_top" xlink:title=" ">
<polygon fill="none" stroke="black" points="333.5,-224.5 333.5,-254.5 452.5,-254.5 452.5,-224.5 333.5,-224.5"/>
<text text-anchor="start" x="341.5" y="-242.5" font-family="Helvetica,sans-Serif" font-size="10.00">CPS::SimPowerComp&lt;</text>
<text text-anchor="middle" x="393" y="-231.5" font-family="Helvetica,sans-Serif" font-size="10.00"> Complex &gt;</text>
</a>
</g>
</g>
<!-- Node4&#45;&gt;Node3 -->
<g id="edge3" class="edge">
<title>Node4&#45;&gt;Node3</title>
<path fill="none" stroke="midnightblue" d="M356.93,-219.53C342.36,-211.89 325.39,-203 310,-195 298.32,-188.92 285.39,-182.25 274.31,-176.54"/>
<polygon fill="midnightblue" stroke="midnightblue" points="355.63,-222.8 366.11,-224.35 358.88,-216.6 355.63,-222.8"/>
</g>
<!-- Node5 -->
<g id="node5" class="node">
<title>Node5</title>
<g id="a_node5"><a xlink:href="class_c_p_s_1_1_topological_power_comp.html" target="_top" xlink:title=" ">
<polygon fill="none" stroke="black" points="275,-370.5 275,-389.5 423,-389.5 423,-370.5 275,-370.5"/>
<text text-anchor="middle" x="349" y="-377.5" font-family="Helvetica,sans-Serif" font-size="10.00">CPS::TopologicalPowerComp</text>
</a>
</g>
</g>
<!-- Node5&#45;&gt;Node4 -->
<g id="edge4" class="edge">
<title>Node5&#45;&gt;Node4</title>
<path fill="none" stroke="midnightblue" d="M359.44,-361.69C364.15,-353.27 369.43,-342.86 373,-333 382.72,-306.11 388.47,-273.04 391.15,-254.62"/>
<polygon fill="midnightblue" stroke="midnightblue" points="356.32,-360.09 354.32,-370.5 362.37,-363.61 356.32,-360.09"/>
</g>
<!-- Node7 -->
<g id="node7" class="node">
<title>Node7</title>
<g id="a_node7"><a xlink:href="class_c_p_s_1_1_sim_power_comp.html" target="_top" xlink:title="Base class for all components that are transmitting power.">
<polygon fill="none" stroke="black" points="245.5,-302.5 245.5,-332.5 364.5,-332.5 364.5,-302.5 245.5,-302.5"/>
<text text-anchor="start" x="253.5" y="-320.5" font-family="Helvetica,sans-Serif" font-size="10.00">CPS::SimPowerComp&lt;</text>
<text text-anchor="middle" x="305" y="-309.5" font-family="Helvetica,sans-Serif" font-size="10.00"> VarType &gt;</text>
</a>
</g>
</g>
<!-- Node5&#45;&gt;Node7 -->
<g id="edge7" class="edge">
<title>Node5&#45;&gt;Node7</title>
<path fill="none" stroke="midnightblue" d="M336.61,-361.97C329.91,-352.75 321.73,-341.5 315.37,-332.76"/>
<polygon fill="midnightblue" stroke="midnightblue" points="333.98,-364.3 342.7,-370.33 339.64,-360.19 333.98,-364.3"/>
</g>
<!-- Node6 -->
<g id="node6" class="node">
<title>Node6</title>
<g id="a_node6"><a xlink:href="class_c_p_s_1_1_identified_object.html" target="_top" xlink:title=" ">
<polygon fill="none" stroke="black" points="291,-427.5 291,-446.5 407,-446.5 407,-427.5 291,-427.5"/>
<text text-anchor="middle" x="349" y="-434.5" font-family="Helvetica,sans-Serif" font-size="10.00">CPS::IdentifiedObject</text>
</a>
</g>
</g>
<!-- Node6&#45;&gt;Node5 -->
<g id="edge5" class="edge">
<title>Node6&#45;&gt;Node5</title>
<path fill="none" stroke="midnightblue" d="M349,-417.12C349,-407.82 349,-397.06 349,-389.71"/>
<polygon fill="midnightblue" stroke="midnightblue" points="345.5,-417.41 349,-427.41 352.5,-417.41 345.5,-417.41"/>
</g>
<!-- Node7&#45;&gt;Node4 -->
<g id="edge6" class="edge">
<title>Node7&#45;&gt;Node4</title>
<path fill="none" stroke="orange" stroke-dasharray="5,2" d="M309.41,-292.65C311.65,-285.67 314.99,-278.46 320,-273 327.12,-265.23 336.45,-259.21 346.05,-254.58"/>
<polygon fill="orange" stroke="orange" points="305.99,-291.92 306.87,-302.47 312.77,-293.67 305.99,-291.92"/>
<text text-anchor="middle" x="349.5" y="-276" font-family="Helvetica,sans-Serif" font-size="10.00"> &lt; Complex &gt;</text>
</g>
<!-- Node9 -->
<g id="node9" class="node">
<title>Node9</title>
<g id="a_node9"><a xlink:href="class_c_p_s_1_1_m_n_a_sim_power_comp.html" target="_top" xlink:title="Base class for all MNA components that are transmitting power.">
<polygon fill="none" stroke="black" points="178.5,-224.5 178.5,-254.5 315.5,-254.5 315.5,-224.5 178.5,-224.5"/>
<text text-anchor="start" x="186.5" y="-242.5" font-family="Helvetica,sans-Serif" font-size="10.00">CPS::MNASimPowerComp</text>
<text text-anchor="middle" x="247" y="-231.5" font-family="Helvetica,sans-Serif" font-size="10.00">&lt; VarType &gt;</text>
</a>
</g>
</g>
<!-- Node7&#45;&gt;Node9 -->
<g id="edge10" class="edge">
<title>Node7&#45;&gt;Node9</title>
<path fill="none" stroke="midnightblue" d="M287.78,-293.94C278.09,-281.23 266.27,-265.75 257.86,-254.73"/>
<polygon fill="midnightblue" stroke="midnightblue" points="285.24,-296.38 294.09,-302.2 290.81,-292.13 285.24,-296.38"/>
</g>
<!-- Node8 -->
<g id="node8" class="node">
<title>Node8</title>
<g id="a_node8"><a xlink:href="class_c_p_s_1_1_m_n_a_interface.html" target="_top" xlink:title="Interface to be implemented by all models used by the MNA solver.">
<polygon fill="none" stroke="black" points="108.5,-308 108.5,-327 215.5,-327 215.5,-308 108.5,-308"/>
<text text-anchor="middle" x="162" y="-315" font-family="Helvetica,sans-Serif" font-size="10.00">CPS::MNAInterface</text>
</a>
</g>
</g>
<!-- Node8&#45;&gt;Node3 -->
<g id="edge8" class="edge">
<title>Node8&#45;&gt;Node3</title>
<path fill="none" stroke="midnightblue" d="M159.22,-297.92C157.2,-278.34 156.66,-247.17 169,-224 180.02,-203.3 201.35,-187.24 218.92,-176.73"/>
<polygon fill="midnightblue" stroke="midnightblue" points="155.76,-298.49 160.49,-307.97 162.7,-297.61 155.76,-298.49"/>
</g>
<!-- Node8&#45;&gt;Node9 -->
<g id="edge11" class="edge">
<title>Node8&#45;&gt;Node9</title>
<path fill="none" stroke="midnightblue" d="M179.44,-300.9C194.69,-287.27 216.62,-267.66 231.32,-254.52"/>
<polygon fill="midnightblue" stroke="midnightblue" points="176.87,-298.51 171.75,-307.78 181.54,-303.73 176.87,-298.51"/>
</g>
<!-- Node9&#45;&gt;Node3 -->
<g id="edge9" class="edge">
<title>Node9&#45;&gt;Node3</title>
<path fill="none" stroke="orange" stroke-dasharray="5,2" d="M247,-214.09C247,-201.76 247,-187.22 247,-176.73"/>
<polygon fill="orange" stroke="orange" points="243.5,-214.2 247,-224.2 250.5,-214.21 243.5,-214.2"/>
<text text-anchor="middle" x="276.5" y="-198" font-family="Helvetica,sans-Serif" font-size="10.00"> &lt; Complex &gt;</text>
</g>
<!-- Node10 -->
<g id="node10" class="node">
<title>Node10</title>
<g id="a_node10"><a xlink:href="class_c_p_s_1_1_base_1_1_synchron_generator.html" target="_top" xlink:title="Base synchronous generator model.">
<polygon fill="none" stroke="black" points="0,-152 0,-171 160,-171 160,-152 0,-152"/>
<text text-anchor="middle" x="80" y="-159" font-family="Helvetica,sans-Serif" font-size="10.00">CPS::Base::SynchronGenerator</text>
</a>
</g>
</g>
<!-- Node10&#45;&gt;Node2 -->
<g id="edge12" class="edge">
<title>Node10&#45;&gt;Node2</title>
<path fill="none" stroke="midnightblue" d="M104.07,-146.85C131.54,-131.27 175.63,-106.26 198.74,-93.16"/>
<polygon fill="midnightblue" stroke="midnightblue" points="102.08,-143.95 95.11,-151.93 105.54,-150.04 102.08,-143.95"/>
</g>
<!-- Node11 -->
<g id="node11" class="node">
<title>Node11</title>
<g id="a_node11"><a xlink:href="class_shared_factory.html" target="_top" xlink:title=" ">
<polygon fill="none" stroke="black" points="327.5,-68.5 327.5,-98.5 510.5,-98.5 510.5,-68.5 327.5,-68.5"/>
<text text-anchor="start" x="335.5" y="-86.5" font-family="Helvetica,sans-Serif" font-size="10.00">SharedFactory&lt; SynchronGenerator</text>
<text text-anchor="middle" x="419" y="-75.5" font-family="Helvetica,sans-Serif" font-size="10.00">DQTrapez &gt;</text>
</a>
</g>
</g>
<!-- Node11&#45;&gt;Node1 -->
<g id="edge13" class="edge">
<title>Node11&#45;&gt;Node1</title>
<path fill="none" stroke="midnightblue" d="M388.32,-62.84C372.16,-52.49 352.71,-40.03 338.06,-30.64"/>
<polygon fill="midnightblue" stroke="midnightblue" points="386.6,-65.89 396.9,-68.34 390.37,-60 386.6,-65.89"/>
</g>
<!-- Node12 -->
<g id="node12" class="node">
<title>Node12</title>
<g id="a_node12"><a xlink:href="class_shared_factory.html" target="_top" xlink:title=" ">
<polygon fill="none" stroke="black" points="366.5,-152 366.5,-171 471.5,-171 471.5,-152 366.5,-152"/>
<text text-anchor="middle" x="419" y="-159" font-family="Helvetica,sans-Serif" font-size="10.00">SharedFactory&lt; T &gt;</text>
</a>
</g>
</g>
<!-- Node12&#45;&gt;Node11 -->
<g id="edge14" class="edge">
<title>Node12&#45;&gt;Node11</title>
<path fill="none" stroke="orange" stroke-dasharray="5,2" d="M419,-141.78C419,-128.4 419,-110.69 419,-98.52"/>
<polygon fill="orange" stroke="orange" points="415.5,-141.78 419,-151.78 422.5,-141.78 415.5,-141.78"/>
<text text-anchor="middle" x="497" y="-120" font-family="Helvetica,sans-Serif" font-size="10.00"> &lt; SynchronGeneratorDQTrapez &gt;</text>
</g>
</g>
</svg>
