<?xml version="1.0" encoding="UTF-8" standalone="no"?>
<!DOCTYPE svg PUBLIC "-//W3C//DTD SVG 1.1//EN"
 "http://www.w3.org/Graphics/SVG/1.1/DTD/svg11.dtd">
<!-- Generated by graphviz version 12.2.1 (20241206.2353)
 -->
<!-- Title: CPS::Signal::ExciterDC1 Pages: 1 -->
<svg width="404pt" height="221pt"
 viewBox="0.00 0.00 403.75 221.25" xmlns="http://www.w3.org/2000/svg" xmlns:xlink="http://www.w3.org/1999/xlink">
<g id="graph0" class="graph" transform="scale(1 1) rotate(0) translate(4 217.25)">
<title>CPS::Signal::ExciterDC1</title>
<!-- Node1 -->
<g id="Node000001" class="node">
<title>Node1</title>
<g id="a_Node000001"><a xlink:title=" ">
<polygon fill="#999999" stroke="#666666" points="234.25,-22.25 111,-22.25 111,0 234.25,0 234.25,-22.25"/>
<text text-anchor="middle" x="172.62" y="-8.75" font-family="Helvetica,sans-Serif" font-size="10.00">CPS::Signal::ExciterDC1</text>
</a>
</g>
</g>
<!-- Node2 -->
<g id="Node000002" class="node">
<title>Node2</title>
<g id="a_Node000002"><a xlink:href="class_c_p_s_1_1_base_1_1_exciter.html" target="_top" xlink:title="Base model for exciters.">
<polygon fill="white" stroke="#666666" points="99.25,-81.5 0,-81.5 0,-59.25 99.25,-59.25 99.25,-81.5"/>
<text text-anchor="middle" x="49.62" y="-68" font-family="Helvetica,sans-Serif" font-size="10.00">CPS::Base::Exciter</text>
</a>
</g>
</g>
<!-- Node2&#45;&gt;Node1 -->
<g id="edge1_Node000001_Node000002" class="edge">
<title>Node2&#45;&gt;Node1</title>
<g id="a_edge1_Node000001_Node000002"><a xlink:title=" ">
<path fill="none" stroke="#63b8ff" d="M82.46,-54.09C103.87,-44.12 131.26,-31.38 150.21,-22.56"/>
<polygon fill="#63b8ff" stroke="#63b8ff" points="81.15,-50.84 73.56,-58.24 84.1,-57.19 81.15,-50.84"/>
</a>
</g>
</g>
<!-- Node3 -->
<g id="Node000003" class="node">
<title>Node3</title>
<g id="a_Node000003"><a xlink:href="class_c_p_s_1_1_sim_signal_comp.html" target="_top" xlink:title=" ">
<polygon fill="white" stroke="#666666" points="227.5,-81.5 117.75,-81.5 117.75,-59.25 227.5,-59.25 227.5,-81.5"/>
<text text-anchor="middle" x="172.62" y="-68" font-family="Helvetica,sans-Serif" font-size="10.00">CPS::SimSignalComp</text>
</a>
</g>
</g>
<!-- Node3&#45;&gt;Node1 -->
<g id="edge2_Node000001_Node000003" class="edge">
<title>Node3&#45;&gt;Node1</title>
<g id="a_edge2_Node000001_Node000003"><a xlink:title=" ">
<path fill="none" stroke="#63b8ff" d="M172.62,-47.65C172.62,-39.05 172.62,-29.56 172.62,-22.56"/>
<polygon fill="#63b8ff" stroke="#63b8ff" points="169.13,-47.36 172.63,-57.36 176.13,-47.36 169.13,-47.36"/>
</a>
</g>
</g>
<!-- Node4 -->
<g id="Node000004" class="node">
<title>Node4</title>
<g id="a_Node000004"><a xlink:href="class_c_p_s_1_1_topological_signal_comp.html" target="_top" xlink:title=" ">
<polygon fill="white" stroke="#666666" points="244.75,-154 100.5,-154 100.5,-131.75 244.75,-131.75 244.75,-154"/>
<text text-anchor="middle" x="172.62" y="-140.5" font-family="Helvetica,sans-Serif" font-size="10.00">CPS::TopologicalSignalComp</text>
</a>
</g>
</g>
<!-- Node4&#45;&gt;Node3 -->
<g id="edge3_Node000003_Node000004" class="edge">
<title>Node4&#45;&gt;Node3</title>
<g id="a_edge3_Node000003_Node000004"><a xlink:title=" ">
<path fill="none" stroke="#63b8ff" d="M172.62,-119.97C172.62,-107.26 172.62,-91.83 172.62,-81.82"/>
<polygon fill="#63b8ff" stroke="#63b8ff" points="169.13,-119.96 172.63,-129.96 176.13,-119.96 169.13,-119.96"/>
</a>
</g>
</g>
<!-- Node5 -->
<g id="Node000005" class="node">
<title>Node5</title>
<g id="a_Node000005"><a xlink:href="class_c_p_s_1_1_identified_object.html" target="_top" xlink:title=" ">
<polygon fill="white" stroke="#666666" points="230.12,-213.25 115.12,-213.25 115.12,-191 230.12,-191 230.12,-213.25"/>
<text text-anchor="middle" x="172.62" y="-199.75" font-family="Helvetica,sans-Serif" font-size="10.00">CPS::IdentifiedObject</text>
</a>
</g>
</g>
<!-- Node5&#45;&gt;Node4 -->
<g id="edge4_Node000004_Node000005" class="edge">
<title>Node5&#45;&gt;Node4</title>
<g id="a_edge4_Node000004_Node000005"><a xlink:title=" ">
<path fill="none" stroke="#63b8ff" d="M172.62,-179.4C172.62,-170.8 172.62,-161.31 172.62,-154.31"/>
<polygon fill="#63b8ff" stroke="#63b8ff" points="169.13,-179.11 172.63,-189.11 176.13,-179.11 169.13,-179.11"/>
</a>
</g>
</g>
<!-- Node6 -->
<g id="Node000006" class="node">
<title>Node6</title>
<g id="a_Node000006"><a xlink:href="class_shared_factory.html" target="_top" xlink:title=" ">
<polygon fill="white" stroke="#666666" points="395.75,-81.5 245.5,-81.5 245.5,-59.25 395.75,-59.25 395.75,-81.5"/>
<text text-anchor="middle" x="320.62" y="-68" font-family="Helvetica,sans-Serif" font-size="10.00">SharedFactory&lt; ExciterDC1 &gt;</text>
</a>
</g>
</g>
<!-- Node6&#45;&gt;Node1 -->
<g id="edge5_Node000001_Node000006" class="edge">
<title>Node6&#45;&gt;Node1</title>
<g id="a_edge5_Node000001_Node000006"><a xlink:title=" ">
<path fill="none" stroke="#63b8ff" d="M282.91,-54.78C256.98,-44.76 223.17,-31.68 199.85,-22.66"/>
<polygon fill="#63b8ff" stroke="#63b8ff" points="281.48,-57.98 292.07,-58.33 284,-51.46 281.48,-57.98"/>
</a>
</g>
</g>
<!-- Node7 -->
<g id="Node000007" class="node">
<title>Node7</title>
<g id="a_Node000007"><a xlink:href="class_shared_factory.html" target="_top" xlink:title=" ">
<polygon fill="white" stroke="#666666" points="372.88,-154 268.38,-154 268.38,-131.75 372.88,-131.75 372.88,-154"/>
<text text-anchor="middle" x="320.62" y="-140.5" font-family="Helvetica,sans-Serif" font-size="10.00">SharedFactory&lt; T &gt;</text>
</a>
</g>
</g>
<!-- Node7&#45;&gt;Node6 -->
<g id="edge6_Node000006_Node000007" class="edge">
<title>Node7&#45;&gt;Node6</title>
<g id="a_edge6_Node000006_Node000007"><a xlink:title=" ">
<path fill="none" stroke="orange" stroke-dasharray="5,2" d="M320.62,-119.97C320.62,-107.26 320.62,-91.83 320.62,-81.82"/>
<polygon fill="orange" stroke="orange" points="317.13,-119.96 320.63,-129.96 324.13,-119.96 317.13,-119.96"/>
</a>
</g>
<text text-anchor="middle" x="355.5" y="-104.25" font-family="Helvetica,sans-Serif" font-size="10.00" fill="grey"> &lt; ExciterDC1 &gt;</text>
</g>
</g>
</svg>
