<?xml version="1.0" encoding="UTF-8" standalone="no"?>
<!DOCTYPE svg PUBLIC "-//W3C//DTD SVG 1.1//EN"
 "http://www.w3.org/Graphics/SVG/1.1/DTD/svg11.dtd">
<!-- Generated by graphviz version 2.50.0 (0)
 -->
<!-- Title: CPS::EMT::Ph3::SSN::Full_Serial_RLC Pages: 1 -->
<!--zoomable 392 -->
<svg id="main" version="1.1" xmlns="http://www.w3.org/2000/svg" xmlns:xlink="http://www.w3.org/1999/xlink" xml:space="preserve" onload="init(evt)">
<style type="text/css"><![CDATA[
.edge:hover path { stroke: red; }
.edge:hover polygon { stroke: red; fill: red; }
]]></style>
<script type="text/javascript"><![CDATA[
var edges = document.getElementsByTagName('g');
if (edges && edges.length) {
  for (var i=0;i<edges.length;i++) {
    if (edges[i].id.substr(0,4)=='edge') {
      edges[i].setAttribute('class','edge');
    }
  }
}
]]></script>
        <defs>
                <circle id="rim" cx="0" cy="0" r="7"/>
                <circle id="rim2" cx="0" cy="0" r="3.5"/>
                <g id="zoomPlus">
                        <use xlink:href="#rim" fill="#404040">
                                <set attributeName="fill" to="#808080" begin="zoomplus.mouseover" end="zoomplus.mouseout"/>
                        </use>
                        <path d="M-4,0h8M0,-4v8" fill="none" stroke="white" stroke-width="1.5" pointer-events="none"/>
                </g>
                <g id="zoomMin">
                        <use xlink:href="#rim" fill="#404040">
                                <set attributeName="fill" to="#808080" begin="zoomminus.mouseover" end="zoomminus.mouseout"/>
                        </use>
                        <path d="M-4,0h8" fill="none" stroke="white" stroke-width="1.5" pointer-events="none"/>
                </g>
                <g id="dirArrow">
                        <path fill="none" stroke="white" stroke-width="1.5" d="M0,-3.0v7 M-2.5,-0.5L0,-3.0L2.5,-0.5"/>
                </g>
               <g id="resetDef">
                       <use xlink:href="#rim2" fill="#404040">
                               <set attributeName="fill" to="#808080" begin="reset.mouseover" end="reset.mouseout"/>
                       </use>
               </g>
        </defs>

<script type="text/javascript">
var viewWidth = 1896;
var viewHeight = 392;
var sectionId = 'dynsection-1';
</script>
<script xlink:href="svgpan.js"/>
<svg id="graph" class="graph">
<g id="viewport">
<title>CPS::EMT::Ph3::SSN::Full_Serial_RLC</title>
<!-- Node1 -->
<g id="node1" class="node">
<title>Node1</title>
<g id="a_node1"><a xlink:title="Full_Serial_RLC.">
<polygon fill="#bfbfbf" stroke="black" points="1781,-77 1781,-107 1888,-107 1888,-77 1781,-77"/>
<text text-anchor="start" x="1789" y="-95" font-family="Helvetica,sans-Serif" font-size="10.00">CPS::EMT::Ph3::SSN</text>
<text text-anchor="middle" x="1834.5" y="-84" font-family="Helvetica,sans-Serif" font-size="10.00">::Full_Serial_RLC</text>
</a>
</g>
</g>
<!-- Node2 -->
<g id="node2" class="node">
<title>Node2</title>
<g id="a_node2"><a xlink:href="class_c_p_s_1_1_m_n_a_sim_power_comp.html" target="_top" xlink:title=" ">
<polygon fill="none" stroke="black" points="1607,-194 1607,-224 1744,-224 1744,-194 1607,-194"/>
<text text-anchor="start" x="1615" y="-212" font-family="Helvetica,sans-Serif" font-size="10.00">CPS::MNASimPowerComp</text>
<text text-anchor="middle" x="1675.5" y="-201" font-family="Helvetica,sans-Serif" font-size="10.00">&lt; Real &gt;</text>
</a>
</g>
</g>
<!-- Node2&#45;&gt;Node1 -->
<g id="edge1" class="edge">
<title>Node2&#45;&gt;Node1</title>
<path fill="none" stroke="midnightblue" d="M1708.76,-188C1725.23,-177.02 1745.45,-163.16 1763,-150 1781.51,-136.12 1801.84,-119.2 1815.89,-107.23"/>
<polygon fill="midnightblue" stroke="midnightblue" points="1706.43,-185.34 1700.03,-193.78 1710.3,-191.18 1706.43,-185.34"/>
</g>
<!-- Node3 -->
<g id="node3" class="node">
<title>Node3</title>
<g id="a_node3"><a xlink:href="class_c_p_s_1_1_sim_power_comp.html" target="_top" xlink:title=" ">
<polygon fill="none" stroke="black" points="1307,-287 1307,-317 1426,-317 1426,-287 1307,-287"/>
<text text-anchor="start" x="1315" y="-305" font-family="Helvetica,sans-Serif" font-size="10.00">CPS::SimPowerComp&lt;</text>
<text text-anchor="middle" x="1366.5" y="-294" font-family="Helvetica,sans-Serif" font-size="10.00"> Real &gt;</text>
</a>
</g>
</g>
<!-- Node3&#45;&gt;Node2 -->
<g id="edge2" class="edge">
<title>Node3&#45;&gt;Node2</title>
<path fill="none" stroke="midnightblue" d="M1436.31,-293.12C1480.8,-286.07 1539.44,-274.3 1589,-256 1611.25,-247.79 1634.73,-234.5 1651.45,-224.15"/>
<polygon fill="midnightblue" stroke="midnightblue" points="1435.53,-289.7 1426.18,-294.68 1436.6,-296.61 1435.53,-289.7"/>
</g>
<!-- Node4 -->
<g id="node4" class="node">
<title>Node4</title>
<g id="a_node4"><a xlink:href="class_c_p_s_1_1_topological_power_comp.html" target="_top" xlink:title=" ">
<polygon fill="none" stroke="black" points="881,-296.5 881,-315.5 1029,-315.5 1029,-296.5 881,-296.5"/>
<text text-anchor="middle" x="955" y="-303.5" font-family="Helvetica,sans-Serif" font-size="10.00">CPS::TopologicalPowerComp</text>
</a>
</g>
</g>
<!-- Node4&#45;&gt;Node3 -->
<g id="edge3" class="edge">
<title>Node4&#45;&gt;Node3</title>
<path fill="none" stroke="midnightblue" d="M1039.29,-305.88C1104.73,-305.69 1198.18,-305.21 1280,-304 1288.61,-303.87 1297.71,-303.7 1306.63,-303.51"/>
<polygon fill="midnightblue" stroke="midnightblue" points="1039.02,-302.38 1029.03,-305.91 1039.04,-309.38 1039.02,-302.38"/>
</g>
<!-- Node11 -->
<g id="node11" class="node">
<title>Node11</title>
<g id="a_node11"><a xlink:href="class_c_p_s_1_1_sim_power_comp.html" target="_top" xlink:title="Base class for all components that are transmitting power.">
<polygon fill="none" stroke="black" points="1071,-253 1071,-283 1190,-283 1190,-253 1071,-253"/>
<text text-anchor="start" x="1079" y="-271" font-family="Helvetica,sans-Serif" font-size="10.00">CPS::SimPowerComp&lt;</text>
<text text-anchor="middle" x="1130.5" y="-260" font-family="Helvetica,sans-Serif" font-size="10.00"> VarType &gt;</text>
</a>
</g>
</g>
<!-- Node4&#45;&gt;Node11 -->
<g id="edge12" class="edge">
<title>Node4&#45;&gt;Node11</title>
<path fill="none" stroke="midnightblue" d="M1009.68,-294.24C1029.11,-289.99 1051.15,-285.16 1070.98,-280.82"/>
<polygon fill="midnightblue" stroke="midnightblue" points="1008.8,-290.85 999.78,-296.41 1010.3,-297.69 1008.8,-290.85"/>
</g>
<!-- Node5 -->
<g id="node5" class="node">
<title>Node5</title>
<g id="a_node5"><a xlink:href="class_c_p_s_1_1_identified_object.html" target="_top" xlink:title=" ">
<polygon fill="none" stroke="black" points="664,-296.5 664,-315.5 780,-315.5 780,-296.5 664,-296.5"/>
<text text-anchor="middle" x="722" y="-303.5" font-family="Helvetica,sans-Serif" font-size="10.00">CPS::IdentifiedObject</text>
</a>
</g>
</g>
<!-- Node5&#45;&gt;Node4 -->
<g id="edge4" class="edge">
<title>Node5&#45;&gt;Node4</title>
<path fill="none" stroke="midnightblue" d="M790.34,-306C818.77,-306 851.94,-306 880.96,-306"/>
<polygon fill="midnightblue" stroke="midnightblue" points="790.1,-302.5 780.1,-306 790.1,-309.5 790.1,-302.5"/>
</g>
<!-- Node6 -->
<g id="node6" class="node">
<title>Node6</title>
<g id="a_node6"><a xlink:href="class_c_p_s_1_1_attribute.html" target="_top" xlink:title=" ">
<polygon fill="none" stroke="black" points="456,-296.5 456,-315.5 583,-315.5 583,-296.5 456,-296.5"/>
<text text-anchor="middle" x="519.5" y="-303.5" font-family="Helvetica,sans-Serif" font-size="10.00">CPS::Attribute&lt; String &gt;</text>
</a>
</g>
</g>
<!-- Node6&#45;&gt;Node5 -->
<g id="edge5" class="edge">
<title>Node6&#45;&gt;Node5</title>
<path fill="none" stroke="#9a32cd" stroke-dasharray="5,2" d="M593.29,-306C616.56,-306 641.98,-306 663.97,-306"/>
<polygon fill="#9a32cd" stroke="#9a32cd" points="593.11,-302.5 583.11,-306 593.11,-309.5 593.11,-302.5"/>
<text text-anchor="middle" x="626" y="-320" font-family="Helvetica,sans-Serif" font-size="10.00"> mName</text>
<text text-anchor="middle" x="626" y="-309" font-family="Helvetica,sans-Serif" font-size="10.00">mUID</text>
</g>
<!-- Node7 -->
<g id="node7" class="node">
<title>Node7</title>
<g id="a_node7"><a xlink:href="class_c_p_s_1_1_attribute_base.html" target="_top" xlink:title=" ">
<polygon fill="none" stroke="black" points="5.5,-198.5 5.5,-217.5 110.5,-217.5 110.5,-198.5 5.5,-198.5"/>
<text text-anchor="middle" x="58" y="-205.5" font-family="Helvetica,sans-Serif" font-size="10.00">CPS::AttributeBase</text>
</a>
</g>
</g>
<!-- Node7&#45;&gt;Node6 -->
<g id="edge6" class="edge">
<title>Node7&#45;&gt;Node6</title>
<path fill="none" stroke="midnightblue" d="M68.03,-226.48C82.04,-252.77 111.76,-299.88 153,-319 267.64,-372.14 424.91,-334.81 489.26,-315.55"/>
<polygon fill="midnightblue" stroke="midnightblue" points="71.12,-224.83 63.44,-217.53 64.89,-228.03 71.12,-224.83"/>
</g>
<!-- Node9 -->
<g id="node9" class="node">
<title>Node9</title>
<g id="a_node9"><a xlink:href="class_c_p_s_1_1_attribute.html" target="_top" xlink:title=" ">
<polygon fill="none" stroke="black" points="172,-230.5 172,-249.5 276,-249.5 276,-230.5 172,-230.5"/>
<text text-anchor="middle" x="224" y="-237.5" font-family="Helvetica,sans-Serif" font-size="10.00">CPS::Attribute&lt; T &gt;</text>
</a>
</g>
</g>
<!-- Node7&#45;&gt;Node9 -->
<g id="edge9" class="edge">
<title>Node7&#45;&gt;Node9</title>
<path fill="none" stroke="midnightblue" d="M117.82,-219.48C136.28,-223.08 156.45,-227.01 174.14,-230.47"/>
<polygon fill="midnightblue" stroke="midnightblue" points="118.25,-215.99 107.76,-217.51 116.91,-222.86 118.25,-215.99"/>
</g>
<!-- Node12 -->
<g id="node12" class="node">
<title>Node12</title>
<g id="a_node12"><a xlink:href="class_c_p_s_1_1_attribute.html" target="_top" xlink:title=" ">
<polygon fill="none" stroke="black" points="451,-180 451,-210 588,-210 588,-180 451,-180"/>
<text text-anchor="start" x="459" y="-198" font-family="Helvetica,sans-Serif" font-size="10.00">CPS::Attribute&lt; MatrixVar</text>
<text text-anchor="middle" x="519.5" y="-187" font-family="Helvetica,sans-Serif" font-size="10.00">&lt; VarType &gt; &gt;</text>
</a>
</g>
</g>
<!-- Node7&#45;&gt;Node12 -->
<g id="edge14" class="edge">
<title>Node7&#45;&gt;Node12</title>
<path fill="none" stroke="midnightblue" d="M120.96,-206.25C206.97,-203.81 361.99,-199.43 450.9,-196.91"/>
<polygon fill="midnightblue" stroke="midnightblue" points="120.71,-202.75 110.82,-206.53 120.91,-209.75 120.71,-202.75"/>
</g>
<!-- Node15 -->
<g id="node15" class="node">
<title>Node15</title>
<g id="a_node15"><a xlink:href="class_c_p_s_1_1_attribute.html" target="_top" xlink:title=" ">
<polygon fill="none" stroke="black" points="1066,-121.5 1066,-140.5 1195,-140.5 1195,-121.5 1066,-121.5"/>
<text text-anchor="middle" x="1130.5" y="-128.5" font-family="Helvetica,sans-Serif" font-size="10.00">CPS::Attribute&lt; Matrix &gt;</text>
</a>
</g>
</g>
<!-- Node7&#45;&gt;Node15 -->
<g id="edge19" class="edge">
<title>Node7&#45;&gt;Node15</title>
<path fill="none" stroke="midnightblue" d="M71.09,-190.21C87.19,-167.9 117.76,-130.03 153,-109 180.68,-92.48 190.76,-90 223,-90 223,-90 223,-90 956,-90 1010.47,-90 1072.05,-109.38 1105.22,-121.49"/>
<polygon fill="midnightblue" stroke="midnightblue" points="68.18,-188.27 65.29,-198.46 73.91,-192.3 68.18,-188.27"/>
</g>
<!-- Node8 -->
<g id="node8" class="node">
<title>Node8</title>
<g id="a_node8"><a xlink:title=" ">
<polygon fill="none" stroke="#bfbfbf" points="166,-268.5 166,-309.5 282,-309.5 282,-268.5 166,-268.5"/>
<text text-anchor="start" x="174" y="-297.5" font-family="Helvetica,sans-Serif" font-size="10.00">std::enable_shared</text>
<text text-anchor="start" x="174" y="-286.5" font-family="Helvetica,sans-Serif" font-size="10.00">_from_this&lt; Attribute</text>
<text text-anchor="middle" x="224" y="-275.5" font-family="Helvetica,sans-Serif" font-size="10.00">&lt; String &gt; &gt;</text>
</a>
</g>
</g>
<!-- Node8&#45;&gt;Node6 -->
<g id="edge7" class="edge">
<title>Node8&#45;&gt;Node6</title>
<path fill="none" stroke="midnightblue" d="M292.51,-292.91C341.66,-295.76 407.76,-299.59 455.77,-302.37"/>
<polygon fill="midnightblue" stroke="midnightblue" points="292.47,-289.4 282.29,-292.32 292.07,-296.39 292.47,-289.4"/>
</g>
<!-- Node9&#45;&gt;Node6 -->
<g id="edge8" class="edge">
<title>Node9&#45;&gt;Node6</title>
<path fill="none" stroke="orange" stroke-dasharray="5,2" d="M280.72,-251.65C291.42,-253.81 302.55,-256.02 313,-258 366.19,-268.09 380.4,-266.15 433,-279 452.81,-283.84 474.73,-290.8 491.42,-296.44"/>
<polygon fill="orange" stroke="orange" points="281.12,-248.16 270.62,-249.59 279.72,-255.02 281.12,-248.16"/>
<text text-anchor="middle" x="373" y="-282" font-family="Helvetica,sans-Serif" font-size="10.00"> &lt; String &gt;</text>
</g>
<!-- Node9&#45;&gt;Node12 -->
<g id="edge16" class="edge">
<title>Node9&#45;&gt;Node12</title>
<path fill="none" stroke="orange" stroke-dasharray="5,2" d="M278.89,-228.35C290.13,-226.09 301.93,-223.86 313,-222 358.78,-214.32 410.6,-207.52 450.75,-202.67"/>
<polygon fill="orange" stroke="orange" points="277.85,-224.99 268.75,-230.41 279.25,-231.84 277.85,-224.99"/>
<text text-anchor="middle" x="373" y="-225" font-family="Helvetica,sans-Serif" font-size="10.00"> &lt; MatrixVar&lt; VarType &gt; &gt;</text>
</g>
<!-- Node9&#45;&gt;Node15 -->
<g id="edge21" class="edge">
<title>Node9&#45;&gt;Node15</title>
<path fill="none" stroke="orange" stroke-dasharray="5,2" d="M286.01,-246C400.37,-255.75 654.28,-270.23 863,-231 960.13,-212.74 1068.15,-161.98 1110.77,-140.64"/>
<polygon fill="orange" stroke="orange" points="286.3,-242.52 276.04,-245.14 285.7,-249.49 286.3,-242.52"/>
<text text-anchor="middle" x="722" y="-256" font-family="Helvetica,sans-Serif" font-size="10.00"> &lt; Matrix &gt;</text>
</g>
<!-- Node10 -->
<g id="node10" class="node">
<title>Node10</title>
<g id="a_node10"><a xlink:title=" ">
<polygon fill="none" stroke="#bfbfbf" points="0,-342.5 0,-383.5 116,-383.5 116,-342.5 0,-342.5"/>
<text text-anchor="start" x="8" y="-371.5" font-family="Helvetica,sans-Serif" font-size="10.00">std::enable_shared</text>
<text text-anchor="start" x="8" y="-360.5" font-family="Helvetica,sans-Serif" font-size="10.00">_from_this&lt; Attribute</text>
<text text-anchor="middle" x="58" y="-349.5" font-family="Helvetica,sans-Serif" font-size="10.00">&lt; T &gt; &gt;</text>
</a>
</g>
</g>
<!-- Node10&#45;&gt;Node9 -->
<g id="edge10" class="edge">
<title>Node10&#45;&gt;Node9</title>
<path fill="none" stroke="midnightblue" d="M78.13,-333.92C95.1,-310.36 121.96,-278.05 153,-259 159.33,-255.11 166.46,-252.01 173.69,-249.53"/>
<polygon fill="midnightblue" stroke="midnightblue" points="75.22,-331.97 72.33,-342.16 80.95,-335.99 75.22,-331.97"/>
</g>
<!-- Node11&#45;&gt;Node3 -->
<g id="edge11" class="edge">
<title>Node11&#45;&gt;Node3</title>
<path fill="none" stroke="orange" stroke-dasharray="5,2" d="M1200.5,-278.03C1234.25,-282.93 1274.46,-288.77 1306.73,-293.46"/>
<polygon fill="orange" stroke="orange" points="1200.65,-274.51 1190.25,-276.54 1199.64,-281.44 1200.65,-274.51"/>
<text text-anchor="middle" x="1246.5" y="-292" font-family="Helvetica,sans-Serif" font-size="10.00"> &lt; Real &gt;</text>
</g>
<!-- Node17 -->
<g id="node17" class="node">
<title>Node17</title>
<g id="a_node17"><a xlink:href="class_c_p_s_1_1_m_n_a_sim_power_comp.html" target="_top" xlink:title="Base class for all MNA components that are transmitting power.">
<polygon fill="none" stroke="black" points="1298,-238 1298,-268 1435,-268 1435,-238 1298,-238"/>
<text text-anchor="start" x="1306" y="-256" font-family="Helvetica,sans-Serif" font-size="10.00">CPS::MNASimPowerComp</text>
<text text-anchor="middle" x="1366.5" y="-245" font-family="Helvetica,sans-Serif" font-size="10.00">&lt; VarType &gt;</text>
</a>
</g>
</g>
<!-- Node11&#45;&gt;Node17 -->
<g id="edge23" class="edge">
<title>Node11&#45;&gt;Node17</title>
<path fill="none" stroke="midnightblue" d="M1200.42,-263.58C1231.08,-261.62 1267.07,-259.31 1297.6,-257.35"/>
<polygon fill="midnightblue" stroke="midnightblue" points="1200,-260.1 1190.25,-264.23 1200.45,-267.09 1200,-260.1"/>
</g>
<!-- Node12&#45;&gt;Node11 -->
<g id="edge13" class="edge">
<title>Node12&#45;&gt;Node11</title>
<path fill="none" stroke="#9a32cd" stroke-dasharray="5,2" d="M598.34,-203.85C649.89,-209.74 718.99,-217.72 780,-225 882.29,-237.2 1001.34,-251.97 1070.77,-260.64"/>
<polygon fill="#9a32cd" stroke="#9a32cd" points="598.6,-200.36 588.27,-202.7 597.81,-207.31 598.6,-200.36"/>
<text text-anchor="middle" x="830.5" y="-249" font-family="Helvetica,sans-Serif" font-size="10.00"> mIntfCurrent</text>
<text text-anchor="middle" x="830.5" y="-238" font-family="Helvetica,sans-Serif" font-size="10.00">mIntfVoltage</text>
</g>
<!-- Node13 -->
<g id="node13" class="node">
<title>Node13</title>
<g id="a_node13"><a xlink:title=" ">
<polygon fill="none" stroke="#bfbfbf" points="153,-118.5 153,-159.5 295,-159.5 295,-118.5 153,-118.5"/>
<text text-anchor="start" x="161" y="-147.5" font-family="Helvetica,sans-Serif" font-size="10.00">std::enable_shared</text>
<text text-anchor="start" x="161" y="-136.5" font-family="Helvetica,sans-Serif" font-size="10.00">_from_this&lt; Attribute</text>
<text text-anchor="middle" x="224" y="-125.5" font-family="Helvetica,sans-Serif" font-size="10.00">&lt; MatrixVar&lt; VarType &gt; &gt; &gt;</text>
</a>
</g>
</g>
<!-- Node13&#45;&gt;Node12 -->
<g id="edge15" class="edge">
<title>Node13&#45;&gt;Node12</title>
<path fill="none" stroke="midnightblue" d="M305.22,-151.08C343.96,-157.27 391.03,-165.33 433,-174 441.68,-175.79 450.82,-177.85 459.76,-179.97"/>
<polygon fill="midnightblue" stroke="midnightblue" points="305.47,-147.57 295.05,-149.46 304.38,-154.48 305.47,-147.57"/>
</g>
<!-- Node14 -->
<g id="node14" class="node">
<title>Node14</title>
<g id="a_node14"><a xlink:href="class_c_p_s_1_1_m_n_a_interface.html" target="_top" xlink:title="Interface to be implemented by all models used by the MNA solver.">
<polygon fill="none" stroke="black" points="1077,-210.5 1077,-229.5 1184,-229.5 1184,-210.5 1077,-210.5"/>
<text text-anchor="middle" x="1130.5" y="-217.5" font-family="Helvetica,sans-Serif" font-size="10.00">CPS::MNAInterface</text>
</a>
</g>
</g>
<!-- Node14&#45;&gt;Node2 -->
<g id="edge17" class="edge">
<title>Node14&#45;&gt;Node2</title>
<path fill="none" stroke="midnightblue" d="M1194.29,-218.73C1297.17,-216.64 1500.75,-212.52 1606.75,-210.37"/>
<polygon fill="midnightblue" stroke="midnightblue" points="1193.99,-215.23 1184.06,-218.94 1194.13,-222.23 1193.99,-215.23"/>
</g>
<!-- Node14&#45;&gt;Node17 -->
<g id="edge24" class="edge">
<title>Node14&#45;&gt;Node17</title>
<path fill="none" stroke="midnightblue" d="M1194.12,-228.83C1226.06,-233.33 1264.94,-238.82 1297.6,-243.42"/>
<polygon fill="midnightblue" stroke="midnightblue" points="1194.4,-225.34 1184.01,-227.41 1193.43,-232.27 1194.4,-225.34"/>
</g>
<!-- Node15&#45;&gt;Node2 -->
<g id="edge18" class="edge">
<title>Node15&#45;&gt;Node2</title>
<path fill="none" stroke="#9a32cd" stroke-dasharray="5,2" d="M1205.08,-141.57C1310.91,-156.77 1504.59,-184.59 1606.96,-199.3"/>
<polygon fill="#9a32cd" stroke="#9a32cd" points="1205.51,-138.1 1195.12,-140.14 1204.52,-145.02 1205.51,-138.1"/>
<text text-anchor="middle" x="1366.5" y="-176" font-family="Helvetica,sans-Serif" font-size="10.00"> mRightVector</text>
</g>
<!-- Node15&#45;&gt;Node17 -->
<g id="edge25" class="edge">
<title>Node15&#45;&gt;Node17</title>
<path fill="none" stroke="#9a32cd" stroke-dasharray="5,2" d="M1158.93,-145.3C1203.45,-168.51 1291.02,-214.17 1336.51,-237.89"/>
<polygon fill="#9a32cd" stroke="#9a32cd" points="1160.35,-142.09 1149.86,-140.57 1157.11,-148.3 1160.35,-142.09"/>
<text text-anchor="middle" x="1246.5" y="-209" font-family="Helvetica,sans-Serif" font-size="10.00"> mRightVector</text>
</g>
<!-- Node20 -->
<g id="node20" class="node">
<title>Node20</title>
<g id="a_node20"><a xlink:href="class_c_p_s_1_1_base_1_1_ph3_1_1_resistor.html" target="_top" xlink:title=" ">
<polygon fill="none" stroke="black" points="1456,-38.5 1456,-57.5 1586,-57.5 1586,-38.5 1456,-38.5"/>
<text text-anchor="middle" x="1521" y="-45.5" font-family="Helvetica,sans-Serif" font-size="10.00">CPS::Base::Ph3::Resistor</text>
</a>
</g>
</g>
<!-- Node15&#45;&gt;Node20 -->
<g id="edge29" class="edge">
<title>Node15&#45;&gt;Node20</title>
<path fill="none" stroke="#9a32cd" stroke-dasharray="5,2" d="M1160.28,-117.06C1192.87,-101.97 1247.95,-78.52 1298,-67 1350.21,-54.99 1410.91,-50.41 1455.62,-48.74"/>
<polygon fill="#9a32cd" stroke="#9a32cd" points="1158.49,-114.04 1150.92,-121.46 1161.46,-120.38 1158.49,-114.04"/>
<text text-anchor="middle" x="1246.5" y="-96" font-family="Helvetica,sans-Serif" font-size="10.00"> mResistance</text>
</g>
<!-- Node21 -->
<g id="node21" class="node">
<title>Node21</title>
<g id="a_node21"><a xlink:href="class_c_p_s_1_1_base_1_1_ph3_1_1_inductor.html" target="_top" xlink:title=" ">
<polygon fill="none" stroke="black" points="1454.5,-0.5 1454.5,-19.5 1587.5,-19.5 1587.5,-0.5 1454.5,-0.5"/>
<text text-anchor="middle" x="1521" y="-7.5" font-family="Helvetica,sans-Serif" font-size="10.00">CPS::Base::Ph3::Inductor</text>
</a>
</g>
</g>
<!-- Node15&#45;&gt;Node21 -->
<g id="edge31" class="edge">
<title>Node15&#45;&gt;Node21</title>
<path fill="none" stroke="#9a32cd" stroke-dasharray="5,2" d="M1145.91,-113.15C1160.8,-96.04 1185.67,-70.96 1213,-58 1290.38,-21.31 1389.85,-11.66 1454.25,-9.63"/>
<polygon fill="#9a32cd" stroke="#9a32cd" points="1142.84,-111.36 1139.08,-121.27 1148.2,-115.87 1142.84,-111.36"/>
<text text-anchor="middle" x="1246.5" y="-61" font-family="Helvetica,sans-Serif" font-size="10.00"> mInductance</text>
</g>
<!-- Node22 -->
<g id="node22" class="node">
<title>Node22</title>
<g id="a_node22"><a xlink:href="class_c_p_s_1_1_base_1_1_ph3_1_1_capacitor.html" target="_top" xlink:title=" ">
<polygon fill="none" stroke="black" points="1453,-120.5 1453,-139.5 1589,-139.5 1589,-120.5 1453,-120.5"/>
<text text-anchor="middle" x="1521" y="-127.5" font-family="Helvetica,sans-Serif" font-size="10.00">CPS::Base::Ph3::Capacitor</text>
</a>
</g>
</g>
<!-- Node15&#45;&gt;Node22 -->
<g id="edge33" class="edge">
<title>Node15&#45;&gt;Node22</title>
<path fill="none" stroke="#9a32cd" stroke-dasharray="5,2" d="M1205.26,-125.33C1207.87,-125.2 1210.46,-125.09 1213,-125 1295.57,-121.96 1390.7,-124.44 1452.9,-126.86"/>
<polygon fill="#9a32cd" stroke="#9a32cd" points="1204.9,-121.84 1195.1,-125.86 1205.27,-128.83 1204.9,-121.84"/>
<text text-anchor="middle" x="1246.5" y="-128" font-family="Helvetica,sans-Serif" font-size="10.00"> mCapacitance</text>
</g>
<!-- Node16 -->
<g id="node16" class="node">
<title>Node16</title>
<g id="a_node16"><a xlink:title=" ">
<polygon fill="none" stroke="#bfbfbf" points="897,-118.5 897,-159.5 1013,-159.5 1013,-118.5 897,-118.5"/>
<text text-anchor="start" x="905" y="-147.5" font-family="Helvetica,sans-Serif" font-size="10.00">std::enable_shared</text>
<text text-anchor="start" x="905" y="-136.5" font-family="Helvetica,sans-Serif" font-size="10.00">_from_this&lt; Attribute</text>
<text text-anchor="middle" x="955" y="-125.5" font-family="Helvetica,sans-Serif" font-size="10.00">&lt; Matrix &gt; &gt;</text>
</a>
</g>
</g>
<!-- Node16&#45;&gt;Node15 -->
<g id="edge20" class="edge">
<title>Node16&#45;&gt;Node15</title>
<path fill="none" stroke="midnightblue" d="M1023.35,-135.89C1037.37,-135.25 1052.1,-134.57 1065.98,-133.93"/>
<polygon fill="midnightblue" stroke="midnightblue" points="1023.12,-132.4 1013.29,-136.36 1023.44,-139.39 1023.12,-132.4"/>
</g>
<!-- Node17&#45;&gt;Node2 -->
<g id="edge22" class="edge">
<title>Node17&#45;&gt;Node2</title>
<path fill="none" stroke="orange" stroke-dasharray="5,2" d="M1445.43,-242.98C1487.91,-237.39 1541.39,-230.12 1589,-223 1594.8,-222.13 1600.82,-221.2 1606.85,-220.25"/>
<polygon fill="orange" stroke="orange" points="1444.89,-239.52 1435.43,-244.29 1445.8,-246.46 1444.89,-239.52"/>
<text text-anchor="middle" x="1521" y="-244" font-family="Helvetica,sans-Serif" font-size="10.00"> &lt; Real &gt;</text>
</g>
<!-- Node18 -->
<g id="node18" class="node">
<title>Node18</title>
<g id="a_node18"><a xlink:href="class_shared_factory.html" target="_top" xlink:title=" ">
<polygon fill="none" stroke="black" points="1622,-77 1622,-107 1729,-107 1729,-77 1622,-77"/>
<text text-anchor="start" x="1630" y="-95" font-family="Helvetica,sans-Serif" font-size="10.00">SharedFactory&lt; Full</text>
<text text-anchor="middle" x="1675.5" y="-84" font-family="Helvetica,sans-Serif" font-size="10.00">_Serial_RLC &gt;</text>
</a>
</g>
</g>
<!-- Node18&#45;&gt;Node1 -->
<g id="edge26" class="edge">
<title>Node18&#45;&gt;Node1</title>
<path fill="none" stroke="midnightblue" d="M1739.55,-92C1753.28,-92 1767.66,-92 1780.92,-92"/>
<polygon fill="midnightblue" stroke="midnightblue" points="1739.22,-88.5 1729.22,-92 1739.22,-95.5 1739.22,-88.5"/>
</g>
<!-- Node19 -->
<g id="node19" class="node">
<title>Node19</title>
<g id="a_node19"><a xlink:href="class_shared_factory.html" target="_top" xlink:title=" ">
<polygon fill="none" stroke="black" points="1314,-76.5 1314,-95.5 1419,-95.5 1419,-76.5 1314,-76.5"/>
<text text-anchor="middle" x="1366.5" y="-83.5" font-family="Helvetica,sans-Serif" font-size="10.00">SharedFactory&lt; T &gt;</text>
</a>
</g>
</g>
<!-- Node19&#45;&gt;Node18 -->
<g id="edge27" class="edge">
<title>Node19&#45;&gt;Node18</title>
<path fill="none" stroke="orange" stroke-dasharray="5,2" d="M1429.46,-87.21C1485.92,-88.31 1568.42,-89.93 1621.78,-90.97"/>
<polygon fill="orange" stroke="orange" points="1429.3,-83.71 1419.23,-87.01 1429.16,-90.71 1429.3,-83.71"/>
<text text-anchor="middle" x="1521" y="-93" font-family="Helvetica,sans-Serif" font-size="10.00"> &lt; Full_Serial_RLC &gt;</text>
</g>
<!-- Node20&#45;&gt;Node1 -->
<g id="edge28" class="edge">
<title>Node20&#45;&gt;Node1</title>
<path fill="none" stroke="midnightblue" d="M1596.23,-50.88C1639.58,-53.42 1695.19,-58.17 1744,-67 1757.81,-69.5 1772.57,-73.18 1786.04,-76.96"/>
<polygon fill="midnightblue" stroke="midnightblue" points="1596.23,-47.37 1586.05,-50.31 1595.84,-54.36 1596.23,-47.37"/>
</g>
<!-- Node21&#45;&gt;Node1 -->
<g id="edge30" class="edge">
<title>Node21&#45;&gt;Node1</title>
<path fill="none" stroke="midnightblue" d="M1597.73,-17.49C1641.26,-23.14 1696.55,-32.63 1744,-48 1766.4,-55.26 1790.26,-67.22 1807.71,-76.84"/>
<polygon fill="midnightblue" stroke="midnightblue" points="1598.14,-14.02 1587.79,-16.24 1597.27,-20.96 1598.14,-14.02"/>
</g>
<!-- Node22&#45;&gt;Node1 -->
<g id="edge32" class="edge">
<title>Node22&#45;&gt;Node1</title>
<path fill="none" stroke="midnightblue" d="M1599.53,-129.51C1642.37,-128.23 1696.41,-124.95 1744,-117 1758.16,-114.64 1773.29,-110.89 1787.01,-107.02"/>
<polygon fill="midnightblue" stroke="midnightblue" points="1599.35,-126.02 1589.45,-129.79 1599.54,-133.02 1599.35,-126.02"/>
</g>
</g>
</svg>
        <g id="navigator" transform="translate(0 0)" fill="#404254">
                <rect fill="#f2f5e9" fill-opacity="0.5" stroke="#606060" stroke-width=".5" x="0" y="0" width="60" height="60"/>
                <use id="zoomplus" xlink:href="#zoomPlus" x="17" y="9" onmousedown="handleZoom(evt,'in')"/>
                <use id="zoomminus" xlink:href="#zoomMin" x="42" y="9" onmousedown="handleZoom(evt,'out')"/>
                <use id="reset" xlink:href="#resetDef" x="30" y="36" onmousedown="handleReset()"/>
                <g id="arrowUp" xlink:href="#dirArrow" transform="translate(30 24)" onmousedown="handlePan(0,-1)">
                  <use xlink:href="#rim" fill="#404040">
                        <set attributeName="fill" to="#808080" begin="arrowUp.mouseover" end="arrowUp.mouseout"/>
                  </use>
                  <path fill="none" stroke="white" stroke-width="1.5" d="M0,-3.0v7 M-2.5,-0.5L0,-3.0L2.5,-0.5"/>
                </g>
                <g id="arrowRight" xlink:href="#dirArrow" transform="rotate(90) translate(36 -43)" onmousedown="handlePan(1,0)">
                  <use xlink:href="#rim" fill="#404040">
                        <set attributeName="fill" to="#808080" begin="arrowRight.mouseover" end="arrowRight.mouseout"/>
                  </use>
                  <path fill="none" stroke="white" stroke-width="1.5" d="M0,-3.0v7 M-2.5,-0.5L0,-3.0L2.5,-0.5"/>
                </g>
                <g id="arrowDown" xlink:href="#dirArrow" transform="rotate(180) translate(-30 -48)" onmousedown="handlePan(0,1)">
                  <use xlink:href="#rim" fill="#404040">
                        <set attributeName="fill" to="#808080" begin="arrowDown.mouseover" end="arrowDown.mouseout"/>
                  </use>
                  <path fill="none" stroke="white" stroke-width="1.5" d="M0,-3.0v7 M-2.5,-0.5L0,-3.0L2.5,-0.5"/>
                </g>
                <g id="arrowLeft" xlink:href="#dirArrow" transform="rotate(270) translate(-36 17)" onmousedown="handlePan(-1,0)">
                  <use xlink:href="#rim" fill="#404040">
                        <set attributeName="fill" to="#808080" begin="arrowLeft.mouseover" end="arrowLeft.mouseout"/>
                  </use>
                  <path fill="none" stroke="white" stroke-width="1.5" d="M0,-3.0v7 M-2.5,-0.5L0,-3.0L2.5,-0.5"/>
                </g>
        </g>
        <svg viewBox="0 0 15 15" width="100%" height="30px" preserveAspectRatio="xMaxYMin meet">
         <g id="arrow_out" transform="scale(0.3 0.3)">
          <a xlink:href="class_c_p_s_1_1_e_m_t_1_1_ph3_1_1_s_s_n_1_1_full___serial___r_l_c__coll__graph_org.svg" target="_base">
           <rect id="button" ry="5" rx="5" y="6" x="6" height="38" width="38"
                fill="#f2f5e9" fill-opacity="0.5" stroke="#606060" stroke-width="1.0"/>
           <path id="arrow"
             d="M 11.500037,31.436501 C 11.940474,20.09759 22.043105,11.32322 32.158766,21.979434 L 37.068811,17.246167 C 37.068811,17.246167 37.088388,32 37.088388,32 L 22.160133,31.978069 C 22.160133,31.978069 26.997745,27.140456 26.997745,27.140456 C 18.528582,18.264221 13.291696,25.230495 11.500037,31.436501 z"
             style="fill:#404040;"/>
          </a>
         </g>
        </svg>
</svg>
