<?xml version="1.0" encoding="UTF-8" standalone="no"?>
<!DOCTYPE svg PUBLIC "-//W3C//DTD SVG 1.1//EN"
 "http://www.w3.org/Graphics/SVG/1.1/DTD/svg11.dtd">
<!-- Generated by graphviz version 2.42.4 (0)
 -->
<!-- Title: CPS::EMT::Ph3::AvVoltSourceInverterStateSpace Pages: 1 -->
<!--zoomable 445 -->
<svg id="main" version="1.1" xmlns="http://www.w3.org/2000/svg" xmlns:xlink="http://www.w3.org/1999/xlink" xml:space="preserve" onload="init(evt)">
<style type="text/css"><![CDATA[
.edge:hover path { stroke: red; }
.edge:hover polygon { stroke: red; fill: red; }
]]></style>
<script type="text/javascript"><![CDATA[
var edges = document.getElementsByTagName('g');
if (edges && edges.length) {
  for (var i=0;i<edges.length;i++) {
    if (edges[i].id.substr(0,4)=='edge') {
      edges[i].setAttribute('class','edge');
    }
  }
}
]]></script>
        <defs>
                <circle id="rim" cx="0" cy="0" r="7"/>
                <circle id="rim2" cx="0" cy="0" r="3.5"/>
                <g id="zoomPlus">
                        <use xlink:href="#rim" fill="#404040">
                                <set attributeName="fill" to="#808080" begin="zoomplus.mouseover" end="zoomplus.mouseout"/>
                        </use>
                        <path d="M-4,0h8M0,-4v8" fill="none" stroke="white" stroke-width="1.5" pointer-events="none"/>
                </g>
                <g id="zoomMin">
                        <use xlink:href="#rim" fill="#404040">
                                <set attributeName="fill" to="#808080" begin="zoomminus.mouseover" end="zoomminus.mouseout"/>
                        </use>
                        <path d="M-4,0h8" fill="none" stroke="white" stroke-width="1.5" pointer-events="none"/>
                </g>
                <g id="dirArrow">
                        <path fill="none" stroke="white" stroke-width="1.5" d="M0,-3.0v7 M-2.5,-0.5L0,-3.0L2.5,-0.5"/>
                </g>
               <g id="resetDef">
                       <use xlink:href="#rim2" fill="#404040">
                               <set attributeName="fill" to="#808080" begin="reset.mouseover" end="reset.mouseout"/>
                       </use>
               </g>
        </defs>

<script type="text/javascript">
var viewWidth = 1776;
var viewHeight = 445;
var sectionId = 'dynsection-1';
</script>
<script xlink:href="svgpan.js"/>
<svg id="graph" class="graph">
<g id="viewport">
<title>CPS::EMT::Ph3::AvVoltSourceInverterStateSpace</title>
<!-- Node1 -->
<g id="node1" class="node">
<title>Node1</title>
<g id="a_node1"><a xlink:title="average inverter model with LC filter">
<polygon fill="#bfbfbf" stroke="black" points="1613,-353 1613,-383 1768,-383 1768,-353 1613,-353"/>
<text text-anchor="start" x="1621" y="-371" font-family="Helvetica,sans-Serif" font-size="10.00">CPS::EMT::Ph3::AvVoltSource</text>
<text text-anchor="middle" x="1690.5" y="-360" font-family="Helvetica,sans-Serif" font-size="10.00">InverterStateSpace</text>
</a>
</g>
</g>
<!-- Node2 -->
<g id="node2" class="node">
<title>Node2</title>
<g id="a_node2"><a xlink:href="class_c_p_s_1_1_m_n_a_interface.html" target="_top" xlink:title="Interface to be implemented by all models used by the MNA solver.">
<polygon fill="none" stroke="black" points="295,-414.5 295,-433.5 403,-433.5 403,-414.5 295,-414.5"/>
<text text-anchor="middle" x="349" y="-421.5" font-family="Helvetica,sans-Serif" font-size="10.00">CPS::MNAInterface</text>
</a>
</g>
</g>
<!-- Node2&#45;&gt;Node1 -->
<g id="edge1" class="edge">
<title>Node2&#45;&gt;Node1</title>
<path fill="none" stroke="midnightblue" d="M413.46,-427.82C482.65,-431.66 596.65,-437 695,-437 695,-437 695,-437 1494.5,-437 1558.6,-437 1628.12,-403.45 1664.33,-383.14"/>
<polygon fill="midnightblue" stroke="midnightblue" points="413.35,-424.31 403.17,-427.25 412.96,-431.3 413.35,-424.31"/>
</g>
<!-- Node3 -->
<g id="node3" class="node">
<title>Node3</title>
<g id="a_node3"><a xlink:href="class_c_p_s_1_1_attribute_list.html" target="_top" xlink:title="Base class of objects having attributes to access member variables.">
<polygon fill="none" stroke="black" points="0,-269.5 0,-288.5 101,-288.5 101,-269.5 0,-269.5"/>
<text text-anchor="middle" x="50.5" y="-276.5" font-family="Helvetica,sans-Serif" font-size="10.00">CPS::AttributeList</text>
</a>
</g>
</g>
<!-- Node3&#45;&gt;Node2 -->
<g id="edge2" class="edge">
<title>Node3&#45;&gt;Node2</title>
<path fill="none" stroke="midnightblue" d="M75.22,-293.96C115.21,-318.73 199.15,-368.71 275,-401 287.1,-406.15 300.76,-410.76 312.97,-414.47"/>
<polygon fill="midnightblue" stroke="midnightblue" points="77.03,-290.97 66.69,-288.65 73.33,-296.91 77.03,-290.97"/>
</g>
<!-- Node6 -->
<g id="node6" class="node">
<title>Node6</title>
<g id="a_node6"><a xlink:href="class_c_p_s_1_1_identified_object.html" target="_top" xlink:title=" ">
<polygon fill="none" stroke="black" points="138,-93.5 138,-112.5 257,-112.5 257,-93.5 138,-93.5"/>
<text text-anchor="middle" x="197.5" y="-100.5" font-family="Helvetica,sans-Serif" font-size="10.00">CPS::IdentifiedObject</text>
</a>
</g>
</g>
<!-- Node3&#45;&gt;Node6 -->
<g id="edge6" class="edge">
<title>Node3&#45;&gt;Node6</title>
<path fill="none" stroke="midnightblue" d="M65.96,-261.45C96.09,-224.88 164.73,-141.56 188.34,-112.9"/>
<polygon fill="midnightblue" stroke="midnightblue" points="63.16,-259.34 59.5,-269.29 68.56,-263.79 63.16,-259.34"/>
</g>
<!-- Node4 -->
<g id="node4" class="node">
<title>Node4</title>
<g id="a_node4"><a xlink:href="class_c_p_s_1_1_sim_power_comp.html" target="_top" xlink:title=" ">
<polygon fill="none" stroke="black" points="1430,-117 1430,-147 1557,-147 1557,-117 1430,-117"/>
<text text-anchor="start" x="1438" y="-135" font-family="Helvetica,sans-Serif" font-size="10.00">CPS::SimPowerComp&lt;</text>
<text text-anchor="middle" x="1493.5" y="-124" font-family="Helvetica,sans-Serif" font-size="10.00"> Real &gt;</text>
</a>
</g>
</g>
<!-- Node4&#45;&gt;Node1 -->
<g id="edge3" class="edge">
<title>Node4&#45;&gt;Node1</title>
<path fill="none" stroke="midnightblue" d="M1513.56,-155.07C1553.19,-203.03 1643.54,-312.38 1676.86,-352.7"/>
<polygon fill="midnightblue" stroke="midnightblue" points="1516.06,-152.6 1506.99,-147.12 1510.67,-157.06 1516.06,-152.6"/>
</g>
<!-- Node5 -->
<g id="node5" class="node">
<title>Node5</title>
<g id="a_node5"><a xlink:href="class_c_p_s_1_1_topological_power_comp.html" target="_top" xlink:title=" ">
<polygon fill="none" stroke="black" points="797,-0.5 797,-19.5 952,-19.5 952,-0.5 797,-0.5"/>
<text text-anchor="middle" x="874.5" y="-7.5" font-family="Helvetica,sans-Serif" font-size="10.00">CPS::TopologicalPowerComp</text>
</a>
</g>
</g>
<!-- Node5&#45;&gt;Node4 -->
<g id="edge4" class="edge">
<title>Node5&#45;&gt;Node4</title>
<path fill="none" stroke="midnightblue" d="M962.1,-9.21C1048.93,-10.54 1185.64,-18.43 1299,-51 1359.03,-68.25 1425.47,-98.74 1462.79,-116.99"/>
<polygon fill="midnightblue" stroke="midnightblue" points="962.07,-5.71 952.03,-9.08 961.98,-12.71 962.07,-5.71"/>
</g>
<!-- Node20 -->
<g id="node20" class="node">
<title>Node20</title>
<g id="a_node20"><a xlink:href="class_c_p_s_1_1_sim_power_comp.html" target="_top" xlink:title="Base class for all components that are transmitting power.">
<polygon fill="none" stroke="black" points="1162.5,-61 1162.5,-91 1289.5,-91 1289.5,-61 1162.5,-61"/>
<text text-anchor="start" x="1170.5" y="-79" font-family="Helvetica,sans-Serif" font-size="10.00">CPS::SimPowerComp&lt;</text>
<text text-anchor="middle" x="1226" y="-68" font-family="Helvetica,sans-Serif" font-size="10.00"> VarType &gt;</text>
</a>
</g>
</g>
<!-- Node5&#45;&gt;Node20 -->
<g id="edge28" class="edge">
<title>Node5&#45;&gt;Node20</title>
<path fill="none" stroke="midnightblue" d="M962.05,-19.87C1012.78,-26.44 1077.9,-36.21 1135,-49 1149.65,-52.28 1165.39,-56.69 1179.55,-60.99"/>
<polygon fill="midnightblue" stroke="midnightblue" points="962.47,-16.4 952.11,-18.6 961.58,-23.34 962.47,-16.4"/>
</g>
<!-- Node6&#45;&gt;Node5 -->
<g id="edge5" class="edge">
<title>Node6&#45;&gt;Node5</title>
<path fill="none" stroke="midnightblue" d="M230.59,-89.72C244.11,-84.52 260.14,-78.89 275,-75 458.01,-27.09 681.42,-14.43 796.61,-11.13"/>
<polygon fill="midnightblue" stroke="midnightblue" points="229.26,-86.47 221.24,-93.39 231.82,-92.99 229.26,-86.47"/>
</g>
<!-- Node8 -->
<g id="node8" class="node">
<title>Node8</title>
<g id="a_node8"><a xlink:href="class_c_p_s_1_1_topological_terminal.html" target="_top" xlink:title=" ">
<polygon fill="none" stroke="black" points="451,-243.5 451,-262.5 589,-262.5 589,-243.5 451,-243.5"/>
<text text-anchor="middle" x="520" y="-250.5" font-family="Helvetica,sans-Serif" font-size="10.00">CPS::TopologicalTerminal</text>
</a>
</g>
</g>
<!-- Node6&#45;&gt;Node8 -->
<g id="edge9" class="edge">
<title>Node6&#45;&gt;Node8</title>
<path fill="none" stroke="midnightblue" d="M267.57,-101.98C316.09,-104.79 379.79,-116 423,-152 438.92,-165.26 428.23,-178.68 441,-195 457.53,-216.13 483.62,-233.39 501.01,-243.43"/>
<polygon fill="midnightblue" stroke="midnightblue" points="267.62,-98.48 257.46,-101.51 267.29,-105.48 267.62,-98.48"/>
</g>
<!-- Node14 -->
<g id="node14" class="node">
<title>Node14</title>
<g id="a_node14"><a xlink:href="class_c_p_s_1_1_topological_node.html" target="_top" xlink:title=" ">
<polygon fill="none" stroke="black" points="459,-57.5 459,-76.5 581,-76.5 581,-57.5 459,-57.5"/>
<text text-anchor="middle" x="520" y="-64.5" font-family="Helvetica,sans-Serif" font-size="10.00">CPS::TopologicalNode</text>
</a>
</g>
</g>
<!-- Node6&#45;&gt;Node14 -->
<g id="edge18" class="edge">
<title>Node6&#45;&gt;Node14</title>
<path fill="none" stroke="midnightblue" d="M267.29,-95.27C324.3,-88.87 404.51,-79.86 458.96,-73.74"/>
<polygon fill="midnightblue" stroke="midnightblue" points="266.83,-91.8 257.28,-96.4 267.61,-98.76 266.83,-91.8"/>
</g>
<!-- Node7 -->
<g id="node7" class="node">
<title>Node7</title>
<g id="a_node7"><a xlink:href="class_c_p_s_1_1_sim_terminal.html" target="_top" xlink:title=" ">
<polygon fill="none" stroke="black" points="1153,-255.5 1153,-274.5 1299,-274.5 1299,-255.5 1153,-255.5"/>
<text text-anchor="middle" x="1226" y="-262.5" font-family="Helvetica,sans-Serif" font-size="10.00">CPS::SimTerminal&lt; Real &gt;</text>
</a>
</g>
</g>
<!-- Node7&#45;&gt;Node4 -->
<g id="edge7" class="edge">
<title>Node7&#45;&gt;Node4</title>
<path fill="none" stroke="#9a32cd" stroke-dasharray="5,2" d="M1255.1,-250.92C1305.37,-225.74 1410.27,-173.19 1462.13,-147.21"/>
<polygon fill="#9a32cd" stroke="#9a32cd" points="1253.47,-247.83 1246.09,-255.43 1256.6,-254.09 1253.47,-247.83"/>
<text text-anchor="middle" x="1355" y="-222" font-family="Helvetica,sans-Serif" font-size="10.00"> mTerminals</text>
</g>
<!-- Node8&#45;&gt;Node7 -->
<g id="edge8" class="edge">
<title>Node8&#45;&gt;Node7</title>
<path fill="none" stroke="midnightblue" d="M599.19,-254.33C736.69,-256.68 1019.82,-261.5 1152.89,-263.77"/>
<polygon fill="midnightblue" stroke="midnightblue" points="599.2,-250.83 589.14,-254.16 599.08,-257.83 599.2,-250.83"/>
</g>
<!-- Node11 -->
<g id="node11" class="node">
<title>Node11</title>
<g id="a_node11"><a xlink:href="class_c_p_s_1_1_sim_terminal.html" target="_top" xlink:title=" ">
<polygon fill="none" stroke="black" points="793,-275.5 793,-294.5 956,-294.5 956,-275.5 793,-275.5"/>
<text text-anchor="middle" x="874.5" y="-282.5" font-family="Helvetica,sans-Serif" font-size="10.00">CPS::SimTerminal&lt; VarType &gt;</text>
</a>
</g>
</g>
<!-- Node8&#45;&gt;Node11 -->
<g id="edge13" class="edge">
<title>Node8&#45;&gt;Node11</title>
<path fill="none" stroke="midnightblue" d="M599.52,-260.13C657.07,-265.35 734.94,-272.42 792.96,-277.69"/>
<polygon fill="midnightblue" stroke="midnightblue" points="599.66,-256.63 589.38,-259.21 599.03,-263.6 599.66,-256.63"/>
</g>
<!-- Node9 -->
<g id="node9" class="node">
<title>Node9</title>
<g id="a_node9"><a xlink:href="class_shared_factory.html" target="_top" xlink:title=" ">
<polygon fill="none" stroke="black" points="617,-322 617,-352 775,-352 775,-322 617,-322"/>
<text text-anchor="start" x="625" y="-340" font-family="Helvetica,sans-Serif" font-size="10.00">SharedFactory&lt; SimTerminal</text>
<text text-anchor="middle" x="696" y="-329" font-family="Helvetica,sans-Serif" font-size="10.00">&lt; Real &gt; &gt;</text>
</a>
</g>
</g>
<!-- Node9&#45;&gt;Node7 -->
<g id="edge10" class="edge">
<title>Node9&#45;&gt;Node7</title>
<path fill="none" stroke="midnightblue" d="M785.41,-334.38C874.51,-330.38 1015.55,-320.3 1135,-295 1158.04,-290.12 1183.42,-281.33 1201.34,-274.52"/>
<polygon fill="midnightblue" stroke="midnightblue" points="785.18,-330.89 775.34,-334.82 785.48,-337.88 785.18,-330.89"/>
</g>
<!-- Node10 -->
<g id="node10" class="node">
<title>Node10</title>
<g id="a_node10"><a xlink:href="class_shared_factory.html" target="_top" xlink:title=" ">
<polygon fill="none" stroke="black" points="140.5,-287.5 140.5,-306.5 254.5,-306.5 254.5,-287.5 140.5,-287.5"/>
<text text-anchor="middle" x="197.5" y="-294.5" font-family="Helvetica,sans-Serif" font-size="10.00">SharedFactory&lt; T &gt;</text>
</a>
</g>
</g>
<!-- Node10&#45;&gt;Node9 -->
<g id="edge11" class="edge">
<title>Node10&#45;&gt;Node9</title>
<path fill="none" stroke="orange" stroke-dasharray="5,2" d="M251.46,-308.34C259.32,-309.74 267.35,-311.03 275,-312 393.66,-327.1 532.36,-333.11 616.91,-335.48"/>
<polygon fill="orange" stroke="orange" points="252.1,-304.9 241.62,-306.51 250.81,-311.78 252.1,-304.9"/>
<text text-anchor="middle" x="349" y="-328" font-family="Helvetica,sans-Serif" font-size="10.00"> &lt; SimTerminal&lt; Real &gt; &gt;</text>
</g>
<!-- Node12 -->
<g id="node12" class="node">
<title>Node12</title>
<g id="a_node12"><a xlink:href="class_shared_factory.html" target="_top" xlink:title=" ">
<polygon fill="none" stroke="black" points="441,-282 441,-312 599,-312 599,-282 441,-282"/>
<text text-anchor="start" x="449" y="-300" font-family="Helvetica,sans-Serif" font-size="10.00">SharedFactory&lt; SimTerminal</text>
<text text-anchor="middle" x="520" y="-289" font-family="Helvetica,sans-Serif" font-size="10.00">&lt; VarType &gt; &gt;</text>
</a>
</g>
</g>
<!-- Node10&#45;&gt;Node12 -->
<g id="edge15" class="edge">
<title>Node10&#45;&gt;Node12</title>
<path fill="none" stroke="orange" stroke-dasharray="5,2" d="M264.98,-297C316.15,-297 387.01,-297 440.89,-297"/>
<polygon fill="orange" stroke="orange" points="264.69,-293.5 254.69,-297 264.69,-300.5 264.69,-293.5"/>
<text text-anchor="middle" x="349" y="-300" font-family="Helvetica,sans-Serif" font-size="10.00"> &lt; SimTerminal&lt; VarType &gt; &gt;</text>
</g>
<!-- Node16 -->
<g id="node16" class="node">
<title>Node16</title>
<g id="a_node16"><a xlink:href="class_shared_factory.html" target="_top" xlink:title=" ">
<polygon fill="none" stroke="black" points="625.5,-197 625.5,-227 766.5,-227 766.5,-197 625.5,-197"/>
<text text-anchor="start" x="633.5" y="-215" font-family="Helvetica,sans-Serif" font-size="10.00">SharedFactory&lt; SimNode</text>
<text text-anchor="middle" x="696" y="-204" font-family="Helvetica,sans-Serif" font-size="10.00">&lt; Real &gt; &gt;</text>
</a>
</g>
</g>
<!-- Node10&#45;&gt;Node16 -->
<g id="edge21" class="edge">
<title>Node10&#45;&gt;Node16</title>
<path fill="none" stroke="orange" stroke-dasharray="5,2" d="M238.01,-284.55C285.64,-270.05 368.36,-246.49 441,-234 502.83,-223.37 574.07,-217.76 625.33,-214.88"/>
<polygon fill="orange" stroke="orange" points="236.92,-281.22 228.39,-287.5 238.98,-287.91 236.92,-281.22"/>
<text text-anchor="middle" x="349" y="-276" font-family="Helvetica,sans-Serif" font-size="10.00"> &lt; SimNode&lt; Real &gt; &gt;</text>
</g>
<!-- Node19 -->
<g id="node19" class="node">
<title>Node19</title>
<g id="a_node19"><a xlink:href="class_shared_factory.html" target="_top" xlink:title=" ">
<polygon fill="none" stroke="black" points="449.5,-156 449.5,-186 590.5,-186 590.5,-156 449.5,-156"/>
<text text-anchor="start" x="457.5" y="-174" font-family="Helvetica,sans-Serif" font-size="10.00">SharedFactory&lt; SimNode</text>
<text text-anchor="middle" x="520" y="-163" font-family="Helvetica,sans-Serif" font-size="10.00">&lt; VarType &gt; &gt;</text>
</a>
</g>
</g>
<!-- Node10&#45;&gt;Node19 -->
<g id="edge26" class="edge">
<title>Node10&#45;&gt;Node19</title>
<path fill="none" stroke="orange" stroke-dasharray="5,2" d="M204.92,-277.87C215.07,-251.04 237.59,-203.14 275,-182 327.88,-152.11 397.98,-152.23 449.47,-158.13"/>
<polygon fill="orange" stroke="orange" points="201.61,-276.74 201.53,-287.33 208.2,-279.1 201.61,-276.74"/>
<text text-anchor="middle" x="349" y="-185" font-family="Helvetica,sans-Serif" font-size="10.00"> &lt; SimNode&lt; VarType &gt; &gt;</text>
</g>
<!-- Node22 -->
<g id="node22" class="node">
<title>Node22</title>
<g id="a_node22"><a xlink:href="class_shared_factory.html" target="_top" xlink:title=" ">
<polygon fill="none" stroke="black" points="974,-372 974,-402 1135,-402 1135,-372 974,-372"/>
<text text-anchor="start" x="982" y="-390" font-family="Helvetica,sans-Serif" font-size="10.00">SharedFactory&lt; AvVoltSource</text>
<text text-anchor="middle" x="1054.5" y="-379" font-family="Helvetica,sans-Serif" font-size="10.00">InverterStateSpace &gt;</text>
</a>
</g>
</g>
<!-- Node10&#45;&gt;Node22 -->
<g id="edge31" class="edge">
<title>Node10&#45;&gt;Node22</title>
<path fill="none" stroke="orange" stroke-dasharray="5,2" d="M227.99,-311.03C237.42,-315.8 247.8,-321.37 257,-327 265.41,-332.16 265.71,-336.66 275,-340 401.79,-385.55 801.88,-388.68 973.76,-387.82"/>
<polygon fill="orange" stroke="orange" points="229.46,-307.85 218.95,-306.54 226.35,-314.12 229.46,-307.85"/>
<text text-anchor="start" x="449" y="-394" font-family="Helvetica,sans-Serif" font-size="10.00"> &lt; AvVoltSourceInverterState</text>
<text text-anchor="middle" x="520" y="-383" font-family="Helvetica,sans-Serif" font-size="10.00">Space &gt;</text>
</g>
<!-- Node11&#45;&gt;Node7 -->
<g id="edge12" class="edge">
<title>Node11&#45;&gt;Node7</title>
<path fill="none" stroke="orange" stroke-dasharray="5,2" d="M966.4,-279.8C1024.48,-276.47 1098.76,-272.22 1152.8,-269.13"/>
<polygon fill="orange" stroke="orange" points="965.9,-276.32 956.12,-280.39 966.3,-283.31 965.9,-276.32"/>
<text text-anchor="middle" x="1054.5" y="-283" font-family="Helvetica,sans-Serif" font-size="10.00"> &lt; Real &gt;</text>
</g>
<!-- Node12&#45;&gt;Node11 -->
<g id="edge14" class="edge">
<title>Node12&#45;&gt;Node11</title>
<path fill="none" stroke="midnightblue" d="M609.54,-293.99C665.8,-292.07 738.05,-289.61 792.74,-287.75"/>
<polygon fill="midnightblue" stroke="midnightblue" points="609.11,-290.5 599.23,-294.34 609.34,-297.49 609.11,-290.5"/>
</g>
<!-- Node13 -->
<g id="node13" class="node">
<title>Node13</title>
<g id="a_node13"><a xlink:href="class_c_p_s_1_1_sim_node.html" target="_top" xlink:title=" ">
<polygon fill="none" stroke="black" points="1161,-122.5 1161,-141.5 1291,-141.5 1291,-122.5 1161,-122.5"/>
<text text-anchor="middle" x="1226" y="-129.5" font-family="Helvetica,sans-Serif" font-size="10.00">CPS::SimNode&lt; Real &gt;</text>
</a>
</g>
</g>
<!-- Node13&#45;&gt;Node4 -->
<g id="edge16" class="edge">
<title>Node13&#45;&gt;Node4</title>
<path fill="none" stroke="#9a32cd" stroke-dasharray="5,2" d="M1301.34,-132C1341.78,-132 1391.26,-132 1429.74,-132"/>
<polygon fill="#9a32cd" stroke="#9a32cd" points="1301.27,-128.5 1291.27,-132 1301.27,-135.5 1301.27,-128.5"/>
<text text-anchor="middle" x="1355" y="-135" font-family="Helvetica,sans-Serif" font-size="10.00"> mVirtualNodes</text>
</g>
<!-- Node14&#45;&gt;Node13 -->
<g id="edge17" class="edge">
<title>Node14&#45;&gt;Node13</title>
<path fill="none" stroke="midnightblue" d="M591.39,-73.5C728.39,-86.15 1028.96,-113.9 1160.83,-126.08"/>
<polygon fill="midnightblue" stroke="midnightblue" points="591.3,-69.98 581.02,-72.54 590.66,-76.95 591.3,-69.98"/>
</g>
<!-- Node17 -->
<g id="node17" class="node">
<title>Node17</title>
<g id="a_node17"><a xlink:href="class_c_p_s_1_1_sim_node.html" target="_top" xlink:title=" ">
<polygon fill="none" stroke="black" points="801.5,-136.5 801.5,-155.5 947.5,-155.5 947.5,-136.5 801.5,-136.5"/>
<text text-anchor="middle" x="874.5" y="-143.5" font-family="Helvetica,sans-Serif" font-size="10.00">CPS::SimNode&lt; VarType &gt;</text>
</a>
</g>
</g>
<!-- Node14&#45;&gt;Node17 -->
<g id="edge23" class="edge">
<title>Node14&#45;&gt;Node17</title>
<path fill="none" stroke="midnightblue" d="M588.1,-80.34C591.89,-82.01 595.56,-83.89 599,-86 609.48,-92.43 606.25,-101.04 617,-107 632.93,-115.84 731.13,-129.08 801.27,-137.63"/>
<polygon fill="midnightblue" stroke="midnightblue" points="589.07,-76.96 578.48,-76.6 586.54,-83.48 589.07,-76.96"/>
</g>
<!-- Node15 -->
<g id="node15" class="node">
<title>Node15</title>
<g id="a_node15"><a xlink:title=" ">
<polygon fill="none" stroke="#bfbfbf" points="812.5,-38.5 812.5,-79.5 936.5,-79.5 936.5,-38.5 812.5,-38.5"/>
<text text-anchor="start" x="820.5" y="-67.5" font-family="Helvetica,sans-Serif" font-size="10.00">std::enable_shared</text>
<text text-anchor="start" x="820.5" y="-56.5" font-family="Helvetica,sans-Serif" font-size="10.00">_from_this&lt; SimNode</text>
<text text-anchor="middle" x="874.5" y="-45.5" font-family="Helvetica,sans-Serif" font-size="10.00">&lt; Real &gt; &gt;</text>
</a>
</g>
</g>
<!-- Node15&#45;&gt;Node13 -->
<g id="edge19" class="edge">
<title>Node15&#45;&gt;Node13</title>
<path fill="none" stroke="midnightblue" d="M946.97,-63.51C999.67,-68.07 1072.72,-76.98 1135,-94 1148.5,-97.69 1181.98,-112.41 1204.08,-122.41"/>
<polygon fill="midnightblue" stroke="midnightblue" points="946.97,-60 936.71,-62.66 946.38,-66.98 946.97,-60"/>
</g>
<!-- Node16&#45;&gt;Node13 -->
<g id="edge20" class="edge">
<title>Node16&#45;&gt;Node13</title>
<path fill="none" stroke="midnightblue" d="M776.74,-205.51C864.96,-197.52 1011.04,-181.86 1135,-157 1155.19,-152.95 1177.5,-146.77 1194.85,-141.56"/>
<polygon fill="midnightblue" stroke="midnightblue" points="776.19,-202.05 766.54,-206.43 776.81,-209.02 776.19,-202.05"/>
</g>
<!-- Node17&#45;&gt;Node13 -->
<g id="edge22" class="edge">
<title>Node17&#45;&gt;Node13</title>
<path fill="none" stroke="orange" stroke-dasharray="5,2" d="M958.07,-142.69C1020.11,-140.21 1103.86,-136.85 1160.9,-134.57"/>
<polygon fill="orange" stroke="orange" points="957.77,-139.2 947.92,-143.1 958.05,-146.2 957.77,-139.2"/>
<text text-anchor="middle" x="1054.5" y="-145" font-family="Helvetica,sans-Serif" font-size="10.00"> &lt; Real &gt;</text>
</g>
<!-- Node18 -->
<g id="node18" class="node">
<title>Node18</title>
<g id="a_node18"><a xlink:title=" ">
<polygon fill="none" stroke="#bfbfbf" points="458,-95.5 458,-136.5 582,-136.5 582,-95.5 458,-95.5"/>
<text text-anchor="start" x="466" y="-124.5" font-family="Helvetica,sans-Serif" font-size="10.00">std::enable_shared</text>
<text text-anchor="start" x="466" y="-113.5" font-family="Helvetica,sans-Serif" font-size="10.00">_from_this&lt; SimNode</text>
<text text-anchor="middle" x="520" y="-102.5" font-family="Helvetica,sans-Serif" font-size="10.00">&lt; VarType &gt; &gt;</text>
</a>
</g>
</g>
<!-- Node18&#45;&gt;Node17 -->
<g id="edge24" class="edge">
<title>Node18&#45;&gt;Node17</title>
<path fill="none" stroke="midnightblue" d="M592.18,-128.76C600.53,-129.99 608.94,-131.11 617,-132 679.06,-138.84 749.95,-142.39 801.46,-144.2"/>
<polygon fill="midnightblue" stroke="midnightblue" points="592.47,-125.27 582.06,-127.22 591.41,-132.19 592.47,-125.27"/>
</g>
<!-- Node19&#45;&gt;Node17 -->
<g id="edge25" class="edge">
<title>Node19&#45;&gt;Node17</title>
<path fill="none" stroke="midnightblue" d="M600.73,-167.76C650.81,-165.43 716.74,-161.86 775,-157 783.57,-156.29 792.56,-155.43 801.46,-154.52"/>
<polygon fill="midnightblue" stroke="midnightblue" points="600.44,-164.26 590.61,-168.22 600.76,-171.26 600.44,-164.26"/>
</g>
<!-- Node20&#45;&gt;Node4 -->
<g id="edge27" class="edge">
<title>Node20&#45;&gt;Node4</title>
<path fill="none" stroke="orange" stroke-dasharray="5,2" d="M1299.47,-91.29C1340.3,-99.9 1390.78,-110.54 1429.88,-118.79"/>
<polygon fill="orange" stroke="orange" points="1300.09,-87.84 1289.58,-89.2 1298.65,-94.69 1300.09,-87.84"/>
<text text-anchor="middle" x="1355" y="-114" font-family="Helvetica,sans-Serif" font-size="10.00"> &lt; Real &gt;</text>
</g>
<!-- Node21 -->
<g id="node21" class="node">
<title>Node21</title>
<g id="a_node21"><a xlink:href="class_c_p_s_1_1_base_1_1_ph1_1_1_voltage_source.html" target="_top" xlink:title=" ">
<polygon fill="none" stroke="black" points="1411,-339.5 1411,-358.5 1576,-358.5 1576,-339.5 1411,-339.5"/>
<text text-anchor="middle" x="1493.5" y="-346.5" font-family="Helvetica,sans-Serif" font-size="10.00">CPS::Base::Ph1::VoltageSource</text>
</a>
</g>
</g>
<!-- Node21&#45;&gt;Node1 -->
<g id="edge29" class="edge">
<title>Node21&#45;&gt;Node1</title>
<path fill="none" stroke="midnightblue" d="M1586.14,-357.93C1595.11,-358.8 1604.14,-359.68 1612.93,-360.54"/>
<polygon fill="midnightblue" stroke="midnightblue" points="1586.36,-354.43 1576.07,-356.95 1585.68,-361.4 1586.36,-354.43"/>
</g>
<!-- Node22&#45;&gt;Node1 -->
<g id="edge30" class="edge">
<title>Node22&#45;&gt;Node1</title>
<path fill="none" stroke="midnightblue" d="M1145.15,-384.91C1252.22,-382.31 1436.7,-377.55 1595,-372 1600.83,-371.8 1606.85,-371.57 1612.91,-371.34"/>
<polygon fill="midnightblue" stroke="midnightblue" points="1144.95,-381.41 1135.04,-385.15 1145.12,-388.41 1144.95,-381.41"/>
</g>
</g>
</svg>
        <g id="navigator" transform="translate(0 0)" fill="#404254">
                <rect fill="#f2f5e9" fill-opacity="0.5" stroke="#606060" stroke-width=".5" x="0" y="0" width="60" height="60"/>
                <use id="zoomplus" xlink:href="#zoomPlus" x="17" y="9" onmousedown="handleZoom(evt,'in')"/>
                <use id="zoomminus" xlink:href="#zoomMin" x="42" y="9" onmousedown="handleZoom(evt,'out')"/>
                <use id="reset" xlink:href="#resetDef" x="30" y="36" onmousedown="handleReset()"/>
                <g id="arrowUp" xlink:href="#dirArrow" transform="translate(30 24)" onmousedown="handlePan(0,-1)">
                  <use xlink:href="#rim" fill="#404040">
                        <set attributeName="fill" to="#808080" begin="arrowUp.mouseover" end="arrowUp.mouseout"/>
                  </use>
                  <path fill="none" stroke="white" stroke-width="1.5" d="M0,-3.0v7 M-2.5,-0.5L0,-3.0L2.5,-0.5"/>
                </g>
                <g id="arrowRight" xlink:href="#dirArrow" transform="rotate(90) translate(36 -43)" onmousedown="handlePan(1,0)">
                  <use xlink:href="#rim" fill="#404040">
                        <set attributeName="fill" to="#808080" begin="arrowRight.mouseover" end="arrowRight.mouseout"/>
                  </use>
                  <path fill="none" stroke="white" stroke-width="1.5" d="M0,-3.0v7 M-2.5,-0.5L0,-3.0L2.5,-0.5"/>
                </g>
                <g id="arrowDown" xlink:href="#dirArrow" transform="rotate(180) translate(-30 -48)" onmousedown="handlePan(0,1)">
                  <use xlink:href="#rim" fill="#404040">
                        <set attributeName="fill" to="#808080" begin="arrowDown.mouseover" end="arrowDown.mouseout"/>
                  </use>
                  <path fill="none" stroke="white" stroke-width="1.5" d="M0,-3.0v7 M-2.5,-0.5L0,-3.0L2.5,-0.5"/>
                </g>
                <g id="arrowLeft" xlink:href="#dirArrow" transform="rotate(270) translate(-36 17)" onmousedown="handlePan(-1,0)">
                  <use xlink:href="#rim" fill="#404040">
                        <set attributeName="fill" to="#808080" begin="arrowLeft.mouseover" end="arrowLeft.mouseout"/>
                  </use>
                  <path fill="none" stroke="white" stroke-width="1.5" d="M0,-3.0v7 M-2.5,-0.5L0,-3.0L2.5,-0.5"/>
                </g>
        </g>
        <svg viewBox="0 0 15 15" width="100%" height="30px" preserveAspectRatio="xMaxYMin meet">
         <g id="arrow_out" transform="scale(0.3 0.3)">
          <a xlink:href="class_c_p_s_1_1_e_m_t_1_1_ph3_1_1_av_volt_source_inverter_state_space__coll__graph_org.svg" target="_base">
           <rect id="button" ry="5" rx="5" y="6" x="6" height="38" width="38"
                fill="#f2f5e9" fill-opacity="0.5" stroke="#606060" stroke-width="1.0"/>
           <path id="arrow"
             d="M 11.500037,31.436501 C 11.940474,20.09759 22.043105,11.32322 32.158766,21.979434 L 37.068811,17.246167 C 37.068811,17.246167 37.088388,32 37.088388,32 L 22.160133,31.978069 C 22.160133,31.978069 26.997745,27.140456 26.997745,27.140456 C 18.528582,18.264221 13.291696,25.230495 11.500037,31.436501 z"
             style="fill:#404040;"/>
          </a>
         </g>
        </svg>
</svg>
