<?xml version="1.0" encoding="UTF-8" standalone="no"?>
<!DOCTYPE svg PUBLIC "-//W3C//DTD SVG 1.1//EN"
 "http://www.w3.org/Graphics/SVG/1.1/DTD/svg11.dtd">
<!-- Generated by graphviz version 2.42.4 (0)
 -->
<!-- Title: CPS::DP::Ph1::VoltageSourceRamp Pages: 1 -->
<svg width="1275pt" height="141pt"
 viewBox="0.00 0.00 1275.00 140.94" xmlns="http://www.w3.org/2000/svg" xmlns:xlink="http://www.w3.org/1999/xlink">
<g id="graph0" class="graph" transform="scale(1 1) rotate(0) translate(4 136.94)">
<title>CPS::DP::Ph1::VoltageSourceRamp</title>
<!-- Node1 -->
<g id="node1" class="node">
<title>Node1</title>
<g id="a_node1"><a xlink:title=" ">
<polygon fill="#bfbfbf" stroke="black" points="1084,-50 1084,-69 1267,-69 1267,-50 1084,-50"/>
<text text-anchor="middle" x="1175.5" y="-57" font-family="Helvetica,sans-Serif" font-size="10.00">CPS::DP::Ph1::VoltageSourceRamp</text>
</a>
</g>
</g>
<!-- Node2 -->
<g id="node2" class="node">
<title>Node2</title>
<g id="a_node2"><a xlink:href="class_c_p_s_1_1_sim_power_comp.html" target="_top" xlink:title=" ">
<polygon fill="none" stroke="black" points="900,-88.5 900,-118.5 1027,-118.5 1027,-88.5 900,-88.5"/>
<text text-anchor="start" x="908" y="-106.5" font-family="Helvetica,sans-Serif" font-size="10.00">CPS::SimPowerComp&lt;</text>
<text text-anchor="middle" x="963.5" y="-95.5" font-family="Helvetica,sans-Serif" font-size="10.00"> Complex &gt;</text>
</a>
</g>
</g>
<!-- Node2&#45;&gt;Node1 -->
<g id="edge1" class="edge">
<title>Node2&#45;&gt;Node1</title>
<path fill="none" stroke="midnightblue" d="M1037.39,-88.23C1067.87,-81.84 1102.34,-74.62 1129.1,-69.01"/>
<polygon fill="midnightblue" stroke="midnightblue" points="1036.29,-84.88 1027.22,-90.36 1037.73,-91.73 1036.29,-84.88"/>
</g>
<!-- Node3 -->
<g id="node3" class="node">
<title>Node3</title>
<g id="a_node3"><a xlink:href="class_c_p_s_1_1_topological_power_comp.html" target="_top" xlink:title=" ">
<polygon fill="none" stroke="black" points="401,-94 401,-113 556,-113 556,-94 401,-94"/>
<text text-anchor="middle" x="478.5" y="-101" font-family="Helvetica,sans-Serif" font-size="10.00">CPS::TopologicalPowerComp</text>
</a>
</g>
</g>
<!-- Node3&#45;&gt;Node2 -->
<g id="edge2" class="edge">
<title>Node3&#45;&gt;Node2</title>
<path fill="none" stroke="midnightblue" d="M523.32,-115.48C544.24,-120.6 569.73,-125.97 593,-128.5 700.54,-140.2 826.33,-125.72 899.93,-114.42"/>
<polygon fill="midnightblue" stroke="midnightblue" points="524,-112.04 513.45,-113 522.3,-118.83 524,-112.04"/>
</g>
<!-- Node6 -->
<g id="node6" class="node">
<title>Node6</title>
<g id="a_node6"><a xlink:href="class_c_p_s_1_1_sim_power_comp.html" target="_top" xlink:title="Base class for all components that are transmitting power.">
<polygon fill="none" stroke="black" points="593,-88.5 593,-118.5 720,-118.5 720,-88.5 593,-88.5"/>
<text text-anchor="start" x="601" y="-106.5" font-family="Helvetica,sans-Serif" font-size="10.00">CPS::SimPowerComp&lt;</text>
<text text-anchor="middle" x="656.5" y="-95.5" font-family="Helvetica,sans-Serif" font-size="10.00"> VarType &gt;</text>
</a>
</g>
</g>
<!-- Node3&#45;&gt;Node6 -->
<g id="edge6" class="edge">
<title>Node3&#45;&gt;Node6</title>
<path fill="none" stroke="midnightblue" d="M566.26,-103.5C575.21,-103.5 584.18,-103.5 592.79,-103.5"/>
<polygon fill="midnightblue" stroke="midnightblue" points="566.18,-100 556.18,-103.5 566.18,-107 566.18,-100"/>
</g>
<!-- Node4 -->
<g id="node4" class="node">
<title>Node4</title>
<g id="a_node4"><a xlink:href="class_c_p_s_1_1_identified_object.html" target="_top" xlink:title=" ">
<polygon fill="none" stroke="black" points="138,-93 138,-112 257,-112 257,-93 138,-93"/>
<text text-anchor="middle" x="197.5" y="-100" font-family="Helvetica,sans-Serif" font-size="10.00">CPS::IdentifiedObject</text>
</a>
</g>
</g>
<!-- Node4&#45;&gt;Node3 -->
<g id="edge3" class="edge">
<title>Node4&#45;&gt;Node3</title>
<path fill="none" stroke="midnightblue" d="M267.38,-102.75C307.9,-102.89 359.21,-103.08 400.98,-103.23"/>
<polygon fill="midnightblue" stroke="midnightblue" points="267.34,-99.25 257.33,-102.71 267.32,-106.25 267.34,-99.25"/>
</g>
<!-- Node5 -->
<g id="node5" class="node">
<title>Node5</title>
<g id="a_node5"><a xlink:href="class_c_p_s_1_1_attribute_list.html" target="_top" xlink:title="Base class of objects having attributes to access member variables.">
<polygon fill="none" stroke="black" points="0,-66 0,-85 101,-85 101,-66 0,-66"/>
<text text-anchor="middle" x="50.5" y="-73" font-family="Helvetica,sans-Serif" font-size="10.00">CPS::AttributeList</text>
</a>
</g>
</g>
<!-- Node5&#45;&gt;Node4 -->
<g id="edge4" class="edge">
<title>Node5&#45;&gt;Node4</title>
<path fill="none" stroke="midnightblue" d="M111.49,-86.67C122.62,-88.74 134.17,-90.89 145.03,-92.92"/>
<polygon fill="midnightblue" stroke="midnightblue" points="111.87,-83.18 101.4,-84.79 110.59,-90.06 111.87,-83.18"/>
</g>
<!-- Node7 -->
<g id="node7" class="node">
<title>Node7</title>
<g id="a_node7"><a xlink:href="class_c_p_s_1_1_m_n_a_interface.html" target="_top" xlink:title="Interface to be implemented by all models used by the MNA solver.">
<polygon fill="none" stroke="black" points="275,-53 275,-72 383,-72 383,-53 275,-53"/>
<text text-anchor="middle" x="329" y="-60" font-family="Helvetica,sans-Serif" font-size="10.00">CPS::MNAInterface</text>
</a>
</g>
</g>
<!-- Node5&#45;&gt;Node7 -->
<g id="edge8" class="edge">
<title>Node5&#45;&gt;Node7</title>
<path fill="none" stroke="midnightblue" d="M111.33,-72.69C160.02,-70.4 228.1,-67.2 274.88,-65"/>
<polygon fill="midnightblue" stroke="midnightblue" points="111.08,-69.19 101.25,-73.16 111.41,-76.19 111.08,-69.19"/>
</g>
<!-- Node6&#45;&gt;Node2 -->
<g id="edge5" class="edge">
<title>Node6&#45;&gt;Node2</title>
<path fill="none" stroke="orange" stroke-dasharray="5,2" d="M730.42,-103.5C782.04,-103.5 850.57,-103.5 899.76,-103.5"/>
<polygon fill="orange" stroke="orange" points="730.33,-100 720.33,-103.5 730.33,-107 730.33,-100"/>
<text text-anchor="middle" x="800" y="-106.5" font-family="Helvetica,sans-Serif" font-size="10.00"> &lt; Complex &gt;</text>
</g>
<!-- Node7&#45;&gt;Node1 -->
<g id="edge7" class="edge">
<title>Node7&#45;&gt;Node1</title>
<path fill="none" stroke="midnightblue" d="M393.49,-61.29C442.73,-60.46 512.7,-59.5 574,-59.5 574,-59.5 574,-59.5 964.5,-59.5 1003.6,-59.5 1046.8,-59.5 1083.8,-59.5"/>
<polygon fill="midnightblue" stroke="midnightblue" points="393.25,-57.8 383.31,-61.47 393.37,-64.79 393.25,-57.8"/>
</g>
<!-- Node8 -->
<g id="node8" class="node">
<title>Node8</title>
<g id="a_node8"><a xlink:href="class_shared_factory.html" target="_top" xlink:title=" ">
<polygon fill="none" stroke="black" points="880,-0.5 880,-30.5 1047,-30.5 1047,-0.5 880,-0.5"/>
<text text-anchor="start" x="888" y="-18.5" font-family="Helvetica,sans-Serif" font-size="10.00">SharedFactory&lt; VoltageSource</text>
<text text-anchor="middle" x="963.5" y="-7.5" font-family="Helvetica,sans-Serif" font-size="10.00">Ramp &gt;</text>
</a>
</g>
</g>
<!-- Node8&#45;&gt;Node1 -->
<g id="edge9" class="edge">
<title>Node8&#45;&gt;Node1</title>
<path fill="none" stroke="midnightblue" d="M1046.05,-32.59C1074.26,-38.5 1104.85,-44.91 1129.1,-49.99"/>
<polygon fill="midnightblue" stroke="midnightblue" points="1046.69,-29.14 1036.18,-30.52 1045.25,-36 1046.69,-29.14"/>
</g>
<!-- Node9 -->
<g id="node9" class="node">
<title>Node9</title>
<g id="a_node9"><a xlink:href="class_shared_factory.html" target="_top" xlink:title=" ">
<polygon fill="none" stroke="black" points="599.5,-6 599.5,-25 713.5,-25 713.5,-6 599.5,-6"/>
<text text-anchor="middle" x="656.5" y="-13" font-family="Helvetica,sans-Serif" font-size="10.00">SharedFactory&lt; T &gt;</text>
</a>
</g>
</g>
<!-- Node9&#45;&gt;Node8 -->
<g id="edge10" class="edge">
<title>Node9&#45;&gt;Node8</title>
<path fill="none" stroke="orange" stroke-dasharray="5,2" d="M723.91,-15.5C769.68,-15.5 830.84,-15.5 879.78,-15.5"/>
<polygon fill="orange" stroke="orange" points="723.8,-12 713.8,-15.5 723.8,-19 723.8,-12"/>
<text text-anchor="middle" x="800" y="-18.5" font-family="Helvetica,sans-Serif" font-size="10.00"> &lt; VoltageSourceRamp &gt;</text>
</g>
</g>
</svg>
