<?xml version="1.0" encoding="UTF-8" standalone="no"?>
<!DOCTYPE svg PUBLIC "-//W3C//DTD SVG 1.1//EN"
 "http://www.w3.org/Graphics/SVG/1.1/DTD/svg11.dtd">
<!-- Generated by graphviz version 12.2.1 (20241206.2353)
 -->
<!-- Title: CPS::EMT::Ph3::SeriesResistor Pages: 1 -->
<svg width="1151pt" height="212pt"
 viewBox="0.00 0.00 1151.00 212.38" xmlns="http://www.w3.org/2000/svg" xmlns:xlink="http://www.w3.org/1999/xlink">
<g id="graph0" class="graph" transform="scale(1 1) rotate(0) translate(4 208.38)">
<title>CPS::EMT::Ph3::SeriesResistor</title>
<!-- Node1 -->
<g id="Node000001" class="node">
<title>Node1</title>
<g id="a_Node000001"><a xlink:title="EMT three&#45;phase resistor.">
<polygon fill="#999999" stroke="#666666" points="1143,-66.25 988.25,-66.25 988.25,-44 1143,-44 1143,-66.25"/>
<text text-anchor="middle" x="1065.62" y="-52.75" font-family="Helvetica,sans-Serif" font-size="10.00">CPS::EMT::Ph3::SeriesResistor</text>
</a>
</g>
</g>
<!-- Node2 -->
<g id="Node000002" class="node">
<title>Node2</title>
<g id="a_Node000002"><a xlink:href="class_c_p_s_1_1_m_n_a_sim_power_comp.html" target="_top" xlink:title=" ">
<polygon fill="white" stroke="#666666" points="936.62,-121.38 800.62,-121.38 800.62,-84.88 936.62,-84.88 936.62,-121.38"/>
<text text-anchor="start" x="808.62" y="-107.88" font-family="Helvetica,sans-Serif" font-size="10.00">CPS::MNASimPowerComp</text>
<text text-anchor="middle" x="868.62" y="-93.62" font-family="Helvetica,sans-Serif" font-size="10.00">&lt; Real &gt;</text>
</a>
</g>
</g>
<!-- Node2&#45;&gt;Node1 -->
<g id="edge1_Node000001_Node000002" class="edge">
<title>Node2&#45;&gt;Node1</title>
<g id="a_edge1_Node000001_Node000002"><a xlink:title=" ">
<path fill="none" stroke="#63b8ff" d="M948.05,-83.82C971.59,-78.03 996.67,-71.85 1017.51,-66.72"/>
<polygon fill="#63b8ff" stroke="#63b8ff" points="947.35,-80.39 938.48,-86.18 949.02,-87.19 947.35,-80.39"/>
</a>
</g>
</g>
<!-- Node3 -->
<g id="Node000003" class="node">
<title>Node3</title>
<g id="a_Node000003"><a xlink:href="class_c_p_s_1_1_sim_power_comp.html" target="_top" xlink:title=" ">
<polygon fill="white" stroke="#666666" points="656.62,-168.38 537.88,-168.38 537.88,-131.88 656.62,-131.88 656.62,-168.38"/>
<text text-anchor="start" x="545.88" y="-154.88" font-family="Helvetica,sans-Serif" font-size="10.00">CPS::SimPowerComp&lt;</text>
<text text-anchor="middle" x="597.25" y="-140.62" font-family="Helvetica,sans-Serif" font-size="10.00"> Real &gt;</text>
</a>
</g>
</g>
<!-- Node3&#45;&gt;Node2 -->
<g id="edge2_Node000002_Node000003" class="edge">
<title>Node3&#45;&gt;Node2</title>
<g id="a_edge2_Node000002_Node000003"><a xlink:title=" ">
<path fill="none" stroke="#63b8ff" d="M668.24,-137.91C709.01,-130.8 760.15,-121.88 800.43,-114.85"/>
<polygon fill="#63b8ff" stroke="#63b8ff" points="667.77,-134.44 658.52,-139.61 668.98,-141.34 667.77,-134.44"/>
</a>
</g>
</g>
<!-- Node4 -->
<g id="Node000004" class="node">
<title>Node4</title>
<g id="a_Node000004"><a xlink:href="class_c_p_s_1_1_topological_power_comp.html" target="_top" xlink:title=" ">
<polygon fill="white" stroke="#666666" points="299.25,-151.25 152,-151.25 152,-129 299.25,-129 299.25,-151.25"/>
<text text-anchor="middle" x="225.62" y="-137.75" font-family="Helvetica,sans-Serif" font-size="10.00">CPS::TopologicalPowerComp</text>
</a>
</g>
</g>
<!-- Node4&#45;&gt;Node3 -->
<g id="edge3_Node000003_Node000004" class="edge">
<title>Node4&#45;&gt;Node3</title>
<g id="a_edge3_Node000003_Node000004"><a xlink:title=" ">
<path fill="none" stroke="#63b8ff" d="M310.96,-142.41C380.23,-144.28 476.56,-146.89 537.66,-148.54"/>
<polygon fill="#63b8ff" stroke="#63b8ff" points="311.26,-138.91 301.16,-142.14 311.07,-145.91 311.26,-138.91"/>
</a>
</g>
</g>
<!-- Node6 -->
<g id="Node000006" class="node">
<title>Node6</title>
<g id="a_Node000006"><a xlink:href="class_c_p_s_1_1_sim_power_comp.html" target="_top" xlink:title="Base class for all components that are transmitting power.">
<polygon fill="white" stroke="#666666" points="455,-204.38 336.25,-204.38 336.25,-167.88 455,-167.88 455,-204.38"/>
<text text-anchor="start" x="344.25" y="-190.88" font-family="Helvetica,sans-Serif" font-size="10.00">CPS::SimPowerComp&lt;</text>
<text text-anchor="middle" x="395.62" y="-176.62" font-family="Helvetica,sans-Serif" font-size="10.00"> VarType &gt;</text>
</a>
</g>
</g>
<!-- Node4&#45;&gt;Node6 -->
<g id="edge6_Node000006_Node000004" class="edge">
<title>Node4&#45;&gt;Node6</title>
<g id="a_edge6_Node000006_Node000004"><a xlink:title=" ">
<path fill="none" stroke="#63b8ff" d="M280.1,-154.77C297.92,-159.65 317.87,-165.11 336.07,-170.09"/>
<polygon fill="#63b8ff" stroke="#63b8ff" points="281.05,-151.4 270.48,-152.13 279.2,-158.15 281.05,-151.4"/>
</a>
</g>
</g>
<!-- Node9 -->
<g id="Node000009" class="node">
<title>Node9</title>
<g id="a_Node000009"><a xlink:href="class_c_p_s_1_1_sim_power_comp.html" target="_top" xlink:title="Base class for all components that are transmitting power.">
<polygon fill="white" stroke="#666666" points="455,-72.38 336.25,-72.38 336.25,-35.88 455,-35.88 455,-72.38"/>
<text text-anchor="start" x="344.25" y="-58.88" font-family="Helvetica,sans-Serif" font-size="10.00">CPS::SimPowerComp&lt;</text>
<text text-anchor="middle" x="395.62" y="-44.62" font-family="Helvetica,sans-Serif" font-size="10.00"> VarType &gt;</text>
</a>
</g>
</g>
<!-- Node4&#45;&gt;Node9 -->
<g id="edge10_Node000009_Node000004" class="edge">
<title>Node4&#45;&gt;Node9</title>
<g id="a_edge10_Node000009_Node000004"><a xlink:title=" ">
<path fill="none" stroke="#63b8ff" d="M257.04,-123.11C278.9,-111.05 309.17,-94.66 336.25,-81.12 341.74,-78.38 347.57,-75.57 353.34,-72.84"/>
<polygon fill="#63b8ff" stroke="#63b8ff" points="255.41,-120.02 248.36,-127.93 258.81,-126.14 255.41,-120.02"/>
</a>
</g>
</g>
<!-- Node5 -->
<g id="Node000005" class="node">
<title>Node5</title>
<g id="a_Node000005"><a xlink:href="class_c_p_s_1_1_identified_object.html" target="_top" xlink:title=" ">
<polygon fill="white" stroke="#666666" points="115,-151.25 0,-151.25 0,-129 115,-129 115,-151.25"/>
<text text-anchor="middle" x="57.5" y="-137.75" font-family="Helvetica,sans-Serif" font-size="10.00">CPS::IdentifiedObject</text>
</a>
</g>
</g>
<!-- Node5&#45;&gt;Node4 -->
<g id="edge4_Node000004_Node000005" class="edge">
<title>Node5&#45;&gt;Node4</title>
<g id="a_edge4_Node000004_Node000005"><a xlink:title=" ">
<path fill="none" stroke="#63b8ff" d="M126.7,-140.12C134.95,-140.12 143.41,-140.12 151.73,-140.12"/>
<polygon fill="#63b8ff" stroke="#63b8ff" points="126.72,-136.63 116.72,-140.13 126.72,-143.63 126.72,-136.63"/>
</a>
</g>
</g>
<!-- Node6&#45;&gt;Node3 -->
<g id="edge5_Node000003_Node000006" class="edge">
<title>Node6&#45;&gt;Node3</title>
<g id="a_edge5_Node000003_Node000006"><a xlink:title=" ">
<path fill="none" stroke="orange" stroke-dasharray="5,2" d="M466.6,-173.51C489.76,-169.33 515.28,-164.73 537.51,-160.72"/>
<polygon fill="orange" stroke="orange" points="466.15,-170.03 456.93,-175.25 467.39,-176.92 466.15,-170.03"/>
</a>
</g>
<text text-anchor="middle" x="492.12" y="-176.1" font-family="Helvetica,sans-Serif" font-size="10.00" fill="grey"> &lt; Real &gt;</text>
</g>
<!-- Node7 -->
<g id="Node000007" class="node">
<title>Node7</title>
<g id="a_Node000007"><a xlink:href="class_c_p_s_1_1_m_n_a_interface.html" target="_top" xlink:title="Interface to be implemented by all models used by the MNA solver.">
<polygon fill="white" stroke="#666666" points="448.62,-112.25 342.62,-112.25 342.62,-90 448.62,-90 448.62,-112.25"/>
<text text-anchor="middle" x="395.62" y="-98.75" font-family="Helvetica,sans-Serif" font-size="10.00">CPS::MNAInterface</text>
</a>
</g>
</g>
<!-- Node7&#45;&gt;Node2 -->
<g id="edge7_Node000002_Node000007" class="edge">
<title>Node7&#45;&gt;Node2</title>
<g id="a_edge7_Node000002_Node000007"><a xlink:title=" ">
<path fill="none" stroke="#63b8ff" d="M460.08,-101.39C548.92,-101.77 709.62,-102.45 800.42,-102.84"/>
<polygon fill="#63b8ff" stroke="#63b8ff" points="460.36,-97.9 450.34,-101.35 460.33,-104.9 460.36,-97.9"/>
</a>
</g>
</g>
<!-- Node8 -->
<g id="Node000008" class="node">
<title>Node8</title>
<g id="a_Node000008"><a xlink:href="class_c_p_s_1_1_m_n_a_sim_power_comp.html" target="_top" xlink:title="Base class for all MNA components that are transmitting power.">
<polygon fill="white" stroke="#666666" points="665.25,-76.38 529.25,-76.38 529.25,-39.88 665.25,-39.88 665.25,-76.38"/>
<text text-anchor="start" x="537.25" y="-62.88" font-family="Helvetica,sans-Serif" font-size="10.00">CPS::MNASimPowerComp</text>
<text text-anchor="middle" x="597.25" y="-48.62" font-family="Helvetica,sans-Serif" font-size="10.00">&lt; VarType &gt;</text>
</a>
</g>
</g>
<!-- Node7&#45;&gt;Node8 -->
<g id="edge11_Node000008_Node000007" class="edge">
<title>Node7&#45;&gt;Node8</title>
<g id="a_edge11_Node000008_Node000007"><a xlink:title=" ">
<path fill="none" stroke="#63b8ff" d="M460.28,-87.41C482.23,-82.69 506.88,-77.38 529.1,-72.59"/>
<polygon fill="#63b8ff" stroke="#63b8ff" points="459.59,-83.98 450.55,-89.51 461.07,-90.82 459.59,-83.98"/>
</a>
</g>
</g>
<!-- Node8&#45;&gt;Node2 -->
<g id="edge8_Node000002_Node000008" class="edge">
<title>Node8&#45;&gt;Node2</title>
<g id="a_edge8_Node000002_Node000008"><a xlink:title=" ">
<path fill="none" stroke="orange" stroke-dasharray="5,2" d="M676.79,-63.65C705.62,-66.38 738.43,-70.32 768,-75.88 780.16,-78.16 793,-81.19 805.28,-84.4"/>
<polygon fill="orange" stroke="orange" points="677.32,-60.18 667.04,-62.76 676.68,-67.16 677.32,-60.18"/>
</a>
</g>
<text text-anchor="middle" x="725.62" y="-80.62" font-family="Helvetica,sans-Serif" font-size="10.00" fill="grey"> &lt; Real &gt;</text>
</g>
<!-- Node9&#45;&gt;Node8 -->
<g id="edge9_Node000008_Node000009" class="edge">
<title>Node9&#45;&gt;Node8</title>
<g id="a_edge9_Node000008_Node000009"><a xlink:title=" ">
<path fill="none" stroke="#63b8ff" d="M466.79,-55.53C487.03,-55.94 509.05,-56.38 529.09,-56.78"/>
<polygon fill="#63b8ff" stroke="#63b8ff" points="467.02,-52.03 456.95,-55.33 466.88,-59.03 467.02,-52.03"/>
</a>
</g>
</g>
<!-- Node10 -->
<g id="Node000010" class="node">
<title>Node10</title>
<g id="a_Node000010"><a xlink:href="class_c_p_s_1_1_base_1_1_ph1_1_1_resistor.html" target="_top" xlink:title=" ">
<polygon fill="white" stroke="#bfbfbf" points="933.25,-66.25 804,-66.25 804,-44 933.25,-44 933.25,-66.25"/>
<text text-anchor="middle" x="868.62" y="-52.75" font-family="Helvetica,sans-Serif" font-size="10.00">CPS::Base::Ph1::Resistor</text>
</a>
</g>
</g>
<!-- Node10&#45;&gt;Node1 -->
<g id="edge12_Node000001_Node000010" class="edge">
<title>Node10&#45;&gt;Node1</title>
<g id="a_edge12_Node000001_Node000010"><a xlink:title=" ">
<path fill="none" stroke="#63b8ff" d="M944.89,-55.12C959,-55.12 973.76,-55.12 987.91,-55.12"/>
<polygon fill="#63b8ff" stroke="#63b8ff" points="945.26,-51.63 935.26,-55.13 945.26,-58.63 945.26,-51.63"/>
</a>
</g>
</g>
<!-- Node11 -->
<g id="Node000011" class="node">
<title>Node11</title>
<g id="a_Node000011"><a xlink:href="class_shared_factory.html" target="_top" xlink:title=" ">
<polygon fill="white" stroke="#666666" points="951.25,-23.25 786,-23.25 786,-1 951.25,-1 951.25,-23.25"/>
<text text-anchor="middle" x="868.62" y="-9.75" font-family="Helvetica,sans-Serif" font-size="10.00">SharedFactory&lt; SeriesResistor &gt;</text>
</a>
</g>
</g>
<!-- Node11&#45;&gt;Node1 -->
<g id="edge13_Node000001_Node000011" class="edge">
<title>Node11&#45;&gt;Node1</title>
<g id="a_edge13_Node000001_Node000011"><a xlink:title=" ">
<path fill="none" stroke="#63b8ff" d="M933.2,-26.14C958.7,-31.77 987.73,-38.17 1012.02,-43.52"/>
<polygon fill="#63b8ff" stroke="#63b8ff" points="934.14,-22.77 923.62,-24.03 932.63,-29.6 934.14,-22.77"/>
</a>
</g>
</g>
<!-- Node12 -->
<g id="Node000012" class="node">
<title>Node12</title>
<g id="a_Node000012"><a xlink:href="class_shared_factory.html" target="_top" xlink:title=" ">
<polygon fill="white" stroke="#666666" points="649.5,-22.25 545,-22.25 545,0 649.5,0 649.5,-22.25"/>
<text text-anchor="middle" x="597.25" y="-8.75" font-family="Helvetica,sans-Serif" font-size="10.00">SharedFactory&lt; T &gt;</text>
</a>
</g>
</g>
<!-- Node12&#45;&gt;Node11 -->
<g id="edge14_Node000011_Node000012" class="edge">
<title>Node12&#45;&gt;Node11</title>
<g id="a_edge14_Node000011_Node000012"><a xlink:title=" ">
<path fill="none" stroke="orange" stroke-dasharray="5,2" d="M661.05,-11.36C698.19,-11.5 745.65,-11.67 785.71,-11.82"/>
<polygon fill="orange" stroke="orange" points="661.4,-7.86 651.38,-11.32 661.37,-14.86 661.4,-7.86"/>
</a>
</g>
<text text-anchor="middle" x="725.62" y="-16.49" font-family="Helvetica,sans-Serif" font-size="10.00" fill="grey"> &lt; SeriesResistor &gt;</text>
</g>
</g>
</svg>
