<?xml version="1.0" encoding="UTF-8" standalone="no"?>
<!DOCTYPE svg PUBLIC "-//W3C//DTD SVG 1.1//EN"
 "http://www.w3.org/Graphics/SVG/1.1/DTD/svg11.dtd">
<!-- Generated by graphviz version 2.44.0 (0)
 -->
<!-- Title: DPsim::cuda::Vector&lt; T &gt; Pages: 1 -->
<svg width="349pt" height="186pt"
 viewBox="0.00 0.00 349.00 186.00" xmlns="http://www.w3.org/2000/svg" xmlns:xlink="http://www.w3.org/1999/xlink">
<g id="graph0" class="graph" transform="scale(1 1) rotate(0) translate(4 182)">
<title>DPsim::cuda::Vector&lt; T &gt;</title>
<!-- Node1 -->
<g id="node1" class="node">
<title>Node1</title>
<g id="a_node1"><a xlink:title=" ">
<polygon fill="#bfbfbf" stroke="black" points="0,-79 0,-98 131,-98 131,-79 0,-79"/>
<text text-anchor="middle" x="65.5" y="-86" font-family="Helvetica" font-size="10.00">DPsim::cuda::Vector&lt; T &gt;</text>
</a>
</g>
</g>
<!-- Node2 -->
<g id="node2" class="node">
<title>Node2</title>
<g id="a_node2"><a xlink:href="class_d_psim_1_1cuda_1_1_vector.html" target="_top" xlink:title=" ">
<polygon fill="none" stroke="black" points="234,-147.5 234,-177.5 341,-177.5 341,-147.5 234,-147.5"/>
<text text-anchor="start" x="242" y="-165.5" font-family="Helvetica" font-size="10.00">DPsim::cuda::Vector</text>
<text text-anchor="middle" x="287.5" y="-154.5" font-family="Helvetica" font-size="10.00">&lt; IndexType &gt;</text>
</a>
</g>
</g>
<!-- Node1&#45;&gt;Node2 -->
<g id="edge1" class="edge">
<title>Node1&#45;&gt;Node2</title>
<path fill="none" stroke="orange" stroke-dasharray="5,2" d="M100.66,-101.83C115.46,-107.47 133.01,-114 149,-119.5 177.62,-129.34 209.9,-139.49 235.99,-147.45"/>
<polygon fill="orange" stroke="orange" points="101.51,-98.4 90.92,-98.09 99,-104.94 101.51,-98.4"/>
<text text-anchor="middle" x="182.5" y="-142.5" font-family="Helvetica" font-size="10.00"> &lt; IndexType &gt;</text>
</g>
<!-- Node3 -->
<g id="node3" class="node">
<title>Node3</title>
<g id="a_node3"><a xlink:href="class_d_psim_1_1cuda_1_1_vector.html" target="_top" xlink:title=" ">
<polygon fill="none" stroke="black" points="234,-98.5 234,-128.5 341,-128.5 341,-98.5 234,-98.5"/>
<text text-anchor="start" x="242" y="-116.5" font-family="Helvetica" font-size="10.00">DPsim::cuda::Vector</text>
<text text-anchor="middle" x="287.5" y="-105.5" font-family="Helvetica" font-size="10.00">&lt; double &gt;</text>
</a>
</g>
</g>
<!-- Node1&#45;&gt;Node3 -->
<g id="edge2" class="edge">
<title>Node1&#45;&gt;Node3</title>
<path fill="none" stroke="orange" stroke-dasharray="5,2" d="M141.17,-96.99C171.61,-100.44 206.09,-104.36 233.82,-107.51"/>
<polygon fill="orange" stroke="orange" points="141.35,-93.48 131.02,-95.83 140.56,-100.44 141.35,-93.48"/>
<text text-anchor="middle" x="182.5" y="-107.5" font-family="Helvetica" font-size="10.00"> &lt; double &gt;</text>
</g>
<!-- Node4 -->
<g id="node4" class="node">
<title>Node4</title>
<g id="a_node4"><a xlink:href="class_d_psim_1_1cuda_1_1_vector.html" target="_top" xlink:title=" ">
<polygon fill="none" stroke="black" points="234,-49.5 234,-79.5 341,-79.5 341,-49.5 234,-49.5"/>
<text text-anchor="start" x="242" y="-67.5" font-family="Helvetica" font-size="10.00">DPsim::cuda::Vector</text>
<text text-anchor="middle" x="287.5" y="-56.5" font-family="Helvetica" font-size="10.00">&lt; ValueType &gt;</text>
</a>
</g>
</g>
<!-- Node1&#45;&gt;Node4 -->
<g id="edge3" class="edge">
<title>Node1&#45;&gt;Node4</title>
<path fill="none" stroke="orange" stroke-dasharray="5,2" d="M141.17,-80.35C171.61,-77.03 206.09,-73.27 233.82,-70.25"/>
<polygon fill="orange" stroke="orange" points="140.58,-76.9 131.02,-81.46 141.34,-83.86 140.58,-76.9"/>
<text text-anchor="middle" x="182.5" y="-81.5" font-family="Helvetica" font-size="10.00"> &lt; ValueType &gt;</text>
</g>
<!-- Node5 -->
<g id="node5" class="node">
<title>Node5</title>
<g id="a_node5"><a xlink:href="class_d_psim_1_1cuda_1_1_vector.html" target="_top" xlink:title=" ">
<polygon fill="none" stroke="black" points="234,-0.5 234,-30.5 341,-30.5 341,-0.5 234,-0.5"/>
<text text-anchor="start" x="242" y="-18.5" font-family="Helvetica" font-size="10.00">DPsim::cuda::Vector</text>
<text text-anchor="middle" x="287.5" y="-7.5" font-family="Helvetica" font-size="10.00">&lt; char &gt;</text>
</a>
</g>
</g>
<!-- Node1&#45;&gt;Node5 -->
<g id="edge4" class="edge">
<title>Node1&#45;&gt;Node5</title>
<path fill="none" stroke="orange" stroke-dasharray="5,2" d="M99.19,-75.13C114.25,-69.14 132.43,-62.17 149,-56.5 176.81,-46.98 208.2,-37.52 233.95,-30.1"/>
<polygon fill="orange" stroke="orange" points="97.77,-71.92 89.79,-78.89 100.37,-78.42 97.77,-71.92"/>
<text text-anchor="middle" x="182.5" y="-59.5" font-family="Helvetica" font-size="10.00"> &lt; char &gt;</text>
</g>
</g>
</svg>
