<?xml version="1.0" encoding="UTF-8" standalone="no"?>
<!DOCTYPE svg PUBLIC "-//W3C//DTD SVG 1.1//EN"
 "http://www.w3.org/Graphics/SVG/1.1/DTD/svg11.dtd">
<!-- Generated by graphviz version 12.2.1 (20241206.2353)
 -->
<!-- Title: DPsim::Solver Pages: 1 -->
<!--zoomable 251 -->

<svg id="main" version="1.1" xmlns="http://www.w3.org/2000/svg" xmlns:xlink="http://www.w3.org/1999/xlink" xml:space="preserve" onload="init(evt)">

<style type="text/css"><![CDATA[
.node, .edge {opacity: 0.7;}
.node.selected, .edge.selected {opacity: 1;}
.edge:hover path { stroke: red; }
.edge:hover polygon { stroke: red; fill: red; }
]]></style>

<defs>
  <circle id="rim" cx="0" cy="0" r="7"/>
  <circle id="rim2" cx="0" cy="0" r="3.5"/>
  <g id="zoomPlus">
    <use xlink:href="#rim" fill="#404040"><set attributeName="fill" to="#808080" begin="zoomplus.mouseover" end="zoomplus.mouseout"/></use>
    <path d="M-4,0h8M0,-4v8" fill="none" stroke="white" stroke-width="1.5" pointer-events="none"/>
  </g>
  <g id="zoomMin">
    <use xlink:href="#rim" fill="#404040"><set attributeName="fill" to="#808080" begin="zoomminus.mouseover" end="zoomminus.mouseout"/></use>
    <path d="M-4,0h8" fill="none" stroke="white" stroke-width="1.5" pointer-events="none"/>
  </g>
  <g id="arrowUp" transform="translate(30 24)">
    <use xlink:href="#rim"/>
    <path pointer-events="none" fill="none" stroke="white" stroke-width="1.5" d="M0,-3.0v7 M-2.5,-0.5L0,-3.0L2.5,-0.5"/>
  </g>
  <g id="arrowRight" transform="rotate(90) translate(36 -43)">
    <use xlink:href="#rim"/>
    <path pointer-events="none" fill="none" stroke="white" stroke-width="1.5" d="M0,-3.0v7 M-2.5,-0.5L0,-3.0L2.5,-0.5"/>
  </g>
  <g id="arrowDown" transform="rotate(180) translate(-30 -48)">
    <use xlink:href="#rim"/>
    <path pointer-events="none" fill="none" stroke="white" stroke-width="1.5" d="M0,-3.0v7 M-2.5,-0.5L0,-3.0L2.5,-0.5"/>
  </g>
  <g id="arrowLeft" transform="rotate(270) translate(-36 17)">
    <use xlink:href="#rim"/>
    <path pointer-events="none" fill="none" stroke="white" stroke-width="1.5" d="M0,-3.0v7 M-2.5,-0.5L0,-3.0L2.5,-0.5"/>
  </g>
  <g id="resetDef">
    <use xlink:href="#rim2" fill="#404040"><set attributeName="fill" to="#808080" begin="reset.mouseover" end="reset.mouseout"/></use>
  </g>
</defs>
<script type="application/ecmascript">
var viewWidth = 644;
var viewHeight = 251;
var sectionId = 'dynsection-0';
</script>
<script type="application/ecmascript" xlink:href="svg.min.js"/>
<svg id="graph" class="graph">
<g id="viewport">
<title>DPsim::Solver</title>
<!-- Node1 -->
<g id="Node000001" class="node">
<title>Node1</title>
<g id="a_Node000001"><a xlink:title="Base class for more specific solvers such as MNA, ODE or IDA.">
<polygon fill="#999999" stroke="#666666" points="80.5,-129.38 0,-129.38 0,-107.12 80.5,-107.12 80.5,-129.38"/>
<text text-anchor="middle" x="40.25" y="-115.88" font-family="Helvetica,sans-Serif" font-size="10.00">DPsim::Solver</text>
</a>
</g>
</g>
<!-- Node2 -->
<g id="Node000002" class="node">
<title>Node2</title>
<g id="a_Node000002"><a xlink:href="class_d_psim_1_1_d_a_e_solver.html" target="_top" xlink:title="Solver class which uses Differential Algebraic Equation(DAE) systems.">
<polygon fill="white" stroke="#666666" points="243.88,-243.38 144.62,-243.38 144.62,-221.12 243.88,-221.12 243.88,-243.38"/>
<text text-anchor="middle" x="194.25" y="-229.88" font-family="Helvetica,sans-Serif" font-size="10.00">DPsim::DAESolver</text>
</a>
</g>
</g>
<!-- Node1&#45;&gt;Node2 -->
<g id="edge1_Node000001_Node000002" class="edge">
<title>Node1&#45;&gt;Node2</title>
<g id="a_edge1_Node000001_Node000002"><a xlink:title=" ">
<path fill="none" stroke="#63b8ff" d="M52.82,-139.64C65.59,-161.2 88.14,-193.86 116.5,-212.25 124.82,-217.64 134.53,-221.59 144.19,-224.47"/>
<polygon fill="#63b8ff" stroke="#63b8ff" points="55.94,-138.05 47.95,-131.09 49.86,-141.52 55.94,-138.05"/>
</a>
</g>
</g>
<!-- Node3 -->
<g id="Node000003" class="node">
<title>Node3</title>
<g id="a_Node000003"><a xlink:href="class_d_psim_1_1_diakoptics_solver.html" target="_top" xlink:title=" ">
<polygon fill="white" stroke="#bfbfbf" points="258.12,-203.5 130.38,-203.5 130.38,-167 258.12,-167 258.12,-203.5"/>
<text text-anchor="start" x="138.38" y="-190" font-family="Helvetica,sans-Serif" font-size="10.00">DPsim::DiakopticsSolver</text>
<text text-anchor="middle" x="194.25" y="-175.75" font-family="Helvetica,sans-Serif" font-size="10.00">&lt; VarType &gt;</text>
</a>
</g>
</g>
<!-- Node1&#45;&gt;Node3 -->
<g id="edge2_Node000001_Node000003" class="edge">
<title>Node1&#45;&gt;Node3</title>
<g id="a_edge2_Node000001_Node000003"><a xlink:title=" ">
<path fill="none" stroke="#63b8ff" d="M70.78,-135.27C84.46,-142.81 101.06,-151.48 116.5,-158.25 123.1,-161.14 130.11,-163.96 137.12,-166.61"/>
<polygon fill="#63b8ff" stroke="#63b8ff" points="72.72,-132.35 62.29,-130.52 69.31,-138.46 72.72,-132.35"/>
</a>
</g>
</g>
<!-- Node4 -->
<g id="Node000004" class="node">
<title>Node4</title>
<g id="a_Node000004"><a xlink:href="class_d_psim_1_1_mna_solver.html" target="_top" xlink:title="Solver class using Modified Nodal Analysis (MNA).">
<polygon fill="white" stroke="#666666" points="272,-149.38 116.5,-149.38 116.5,-127.12 272,-127.12 272,-149.38"/>
<text text-anchor="middle" x="194.25" y="-135.88" font-family="Helvetica,sans-Serif" font-size="10.00">DPsim::MnaSolver&lt; VarType &gt;</text>
</a>
</g>
</g>
<!-- Node1&#45;&gt;Node4 -->
<g id="edge3_Node000001_Node000004" class="edge">
<title>Node1&#45;&gt;Node4</title>
<g id="a_edge3_Node000001_Node000004"><a xlink:title=" ">
<path fill="none" stroke="#63b8ff" d="M92.18,-124.95C99.91,-125.97 108.04,-127.04 116.18,-128.11"/>
<polygon fill="#63b8ff" stroke="#63b8ff" points="92.66,-121.48 82.29,-123.65 91.75,-128.42 92.66,-121.48"/>
</a>
</g>
</g>
<!-- Node7 -->
<g id="Node000007" class="node">
<title>Node7</title>
<g id="a_Node000007"><a xlink:href="class_d_psim_1_1_o_d_e_solver.html" target="_top" xlink:title="Solver class for ODE (Ordinary Differential Equation) systems.">
<polygon fill="white" stroke="#666666" points="244.62,-109.38 143.88,-109.38 143.88,-87.12 244.62,-87.12 244.62,-109.38"/>
<text text-anchor="middle" x="194.25" y="-95.88" font-family="Helvetica,sans-Serif" font-size="10.00">DPsim::ODESolver</text>
</a>
</g>
</g>
<!-- Node1&#45;&gt;Node7 -->
<g id="edge6_Node000001_Node000007" class="edge">
<title>Node1&#45;&gt;Node7</title>
<g id="a_edge6_Node000001_Node000007"><a xlink:title=" ">
<path fill="none" stroke="#63b8ff" d="M91.96,-111.58C108.58,-109.39 127.02,-106.96 143.56,-104.79"/>
<polygon fill="#63b8ff" stroke="#63b8ff" points="91.75,-108.08 82.29,-112.85 92.66,-115.02 91.75,-108.08"/>
</a>
</g>
</g>
<!-- Node8 -->
<g id="Node000008" class="node">
<title>Node8</title>
<g id="a_Node000008"><a xlink:href="class_d_psim_1_1_o_d_eint_solver.html" target="_top" xlink:title="Solver class which uses ODE systems.">
<polygon fill="white" stroke="#666666" points="250.62,-69.38 137.88,-69.38 137.88,-47.12 250.62,-47.12 250.62,-69.38"/>
<text text-anchor="middle" x="194.25" y="-55.88" font-family="Helvetica,sans-Serif" font-size="10.00">DPsim::ODEintSolver</text>
</a>
</g>
</g>
<!-- Node1&#45;&gt;Node8 -->
<g id="edge7_Node000001_Node000008" class="edge">
<title>Node1&#45;&gt;Node8</title>
<g id="a_edge7_Node000001_Node000008"><a xlink:title=" ">
<path fill="none" stroke="#63b8ff" d="M69.68,-101.11C83.46,-93.33 100.46,-84.5 116.5,-78.25 124.58,-75.1 133.33,-72.29 141.94,-69.84"/>
<polygon fill="#63b8ff" stroke="#63b8ff" points="68.07,-98 61.15,-106.03 71.56,-104.06 68.07,-98"/>
</a>
</g>
</g>
<!-- Node9 -->
<g id="Node000009" class="node">
<title>Node9</title>
<g id="a_Node000009"><a xlink:href="class_d_psim_1_1_p_f_solver.html" target="_top" xlink:title="Solver class using the nonlinear powerflow (PF) formulation.">
<polygon fill="white" stroke="#666666" points="240.12,-29.38 148.38,-29.38 148.38,-7.12 240.12,-7.12 240.12,-29.38"/>
<text text-anchor="middle" x="194.25" y="-15.88" font-family="Helvetica,sans-Serif" font-size="10.00">DPsim::PFSolver</text>
</a>
</g>
</g>
<!-- Node1&#45;&gt;Node9 -->
<g id="edge8_Node000001_Node000009" class="edge">
<title>Node1&#45;&gt;Node9</title>
<g id="a_edge8_Node000001_Node000009"><a xlink:title=" ">
<path fill="none" stroke="#63b8ff" d="M55.43,-97.55C69.03,-79.28 91.18,-53.27 116.5,-38.25 126.09,-32.56 137.3,-28.47 148.14,-25.53"/>
<polygon fill="#63b8ff" stroke="#63b8ff" points="52.67,-95.4 49.68,-105.56 58.36,-99.48 52.67,-95.4"/>
</a>
</g>
</g>
<!-- Node5 -->
<g id="Node000005" class="node">
<title>Node5</title>
<g id="a_Node000005"><a xlink:href="class_d_psim_1_1_mna_solver_direct.html" target="_top" xlink:title="Solver class using Modified Nodal Analysis (MNA).">
<polygon fill="white" stroke="#666666" points="445.12,-156.5 316.62,-156.5 316.62,-120 445.12,-120 445.12,-156.5"/>
<text text-anchor="start" x="324.62" y="-143" font-family="Helvetica,sans-Serif" font-size="10.00">DPsim::MnaSolverDirect</text>
<text text-anchor="middle" x="380.88" y="-128.75" font-family="Helvetica,sans-Serif" font-size="10.00">&lt; VarType &gt;</text>
</a>
</g>
</g>
<!-- Node4&#45;&gt;Node5 -->
<g id="edge4_Node000004_Node000005" class="edge">
<title>Node4&#45;&gt;Node5</title>
<g id="a_edge4_Node000004_Node000005"><a xlink:title=" ">
<path fill="none" stroke="#63b8ff" d="M283.87,-138.25C294.84,-138.25 305.89,-138.25 316.39,-138.25"/>
<polygon fill="#63b8ff" stroke="#63b8ff" points="283.99,-134.75 273.99,-138.25 283.99,-141.75 283.99,-134.75"/>
</a>
</g>
</g>
<!-- Node6 -->
<g id="Node000006" class="node">
<title>Node6</title>
<g id="a_Node000006"><a xlink:href="class_d_psim_1_1_mna_solver_plugin.html" target="_top" xlink:title=" ">
<polygon fill="white" stroke="#bfbfbf" points="627.25,-156.5 498,-156.5 498,-120 627.25,-120 627.25,-156.5"/>
<text text-anchor="start" x="506" y="-143" font-family="Helvetica,sans-Serif" font-size="10.00">DPsim::MnaSolverPlugin</text>
<text text-anchor="middle" x="562.62" y="-128.75" font-family="Helvetica,sans-Serif" font-size="10.00">&lt; VarType &gt;</text>
</a>
</g>
</g>
<!-- Node5&#45;&gt;Node6 -->
<g id="edge5_Node000005_Node000006" class="edge">
<title>Node5&#45;&gt;Node6</title>
<g id="a_edge5_Node000005_Node000006"><a xlink:title=" ">
<path fill="none" stroke="#63b8ff" d="M456.8,-138.25C470.42,-138.25 484.52,-138.25 497.78,-138.25"/>
<polygon fill="#63b8ff" stroke="#63b8ff" points="457.01,-134.75 447.01,-138.25 457.01,-141.75 457.01,-134.75"/>
</a>
</g>
</g>
<!-- Node10 -->
<g id="Node000010" class="node">
<title>Node10</title>
<g id="a_Node000010"><a xlink:href="class_d_psim_1_1_p_f_solver_power_polar.html" target="_top" xlink:title="Powerflow solver class considering power mismatch and voltages in polar coordinates.">
<polygon fill="white" stroke="#666666" points="453.75,-29.38 308,-29.38 308,-7.12 453.75,-7.12 453.75,-29.38"/>
<text text-anchor="middle" x="380.88" y="-15.88" font-family="Helvetica,sans-Serif" font-size="10.00">DPsim::PFSolverPowerPolar</text>
</a>
</g>
</g>
<!-- Node9&#45;&gt;Node10 -->
<g id="edge9_Node000009_Node000010" class="edge">
<title>Node9&#45;&gt;Node10</title>
<g id="a_edge9_Node000009_Node000010"><a xlink:title=" ">
<path fill="none" stroke="#63b8ff" d="M251.72,-18.25C269.42,-18.25 289.21,-18.25 307.84,-18.25"/>
<polygon fill="#63b8ff" stroke="#63b8ff" points="251.93,-14.75 241.93,-18.25 251.93,-21.75 251.93,-14.75"/>
</a>
</g>
</g>
<!-- Node11 -->
<g id="Node000011" class="node">
<title>Node11</title>
<g id="a_Node000011"><a xlink:href="class_d_psim_1_1_p_f_solver_power_polar_sparse.html" target="_top" xlink:title=" ">
<polygon fill="white" stroke="#666666" points="635.5,-36.5 489.75,-36.5 489.75,0 635.5,0 635.5,-36.5"/>
<text text-anchor="start" x="497.75" y="-23" font-family="Helvetica,sans-Serif" font-size="10.00">DPsim::PFSolverPowerPolar</text>
<text text-anchor="middle" x="562.62" y="-8.75" font-family="Helvetica,sans-Serif" font-size="10.00">Sparse</text>
</a>
</g>
</g>
<!-- Node10&#45;&gt;Node11 -->
<g id="edge10_Node000010_Node000011" class="edge">
<title>Node10&#45;&gt;Node11</title>
<g id="a_edge10_Node000010_Node000011"><a xlink:title=" ">
<path fill="none" stroke="#63b8ff" d="M465.46,-18.25C473.47,-18.25 481.55,-18.25 489.44,-18.25"/>
<polygon fill="#63b8ff" stroke="#63b8ff" points="465.72,-14.75 455.72,-18.25 465.72,-21.75 465.72,-14.75"/>
</a>
</g>
</g>
</g>
</svg>

<g id="navigator" transform="translate(0 0)" fill="#404254">
  <rect fill="#f2f5e9" fill-opacity="0.5" stroke="#606060" stroke-width=".5" x="0" y="0" width="60" height="60"/>
  <use id="zoomplus" xlink:href="#zoomPlus" x="17" y="9" onmousedown="handleZoom(evt,'in')"/>
  <use id="zoomminus" xlink:href="#zoomMin" x="42" y="9" onmousedown="handleZoom(evt,'out')"/>
  <use id="reset" xlink:href="#resetDef" x="30" y="36" onmousedown="handleReset()"/>
   <use id="arrowup" xlink:href="#arrowUp" x="0" y="0" onmousedown="handlePan(0,-1)"/>
  <use id="arrowright" xlink:href="#arrowRight" x="0" y="0" onmousedown="handlePan(1,0)"/>
  <use id="arrowdown" xlink:href="#arrowDown" x="0" y="0" onmousedown="handlePan(0,1)"/>
  <use id="arrowleft" xlink:href="#arrowLeft" x="0" y="0" onmousedown="handlePan(-1,0)"/>
</g>
<svg viewBox="0 0 15 15" width="100%" height="30px" preserveAspectRatio="xMaxYMin meet">
 <g id="arrow_out" transform="scale(0.3 0.3)">
  <a xlink:href="class_d_psim_1_1_solver__inherit__graph_org.svg" target="_base">
   <rect id="button" ry="5" rx="5" y="6" x="6" height="38" width="38"
        fill="#f2f5e9" fill-opacity="0.5" stroke="#606060" stroke-width="1.0"/>
   <path id="arrow"
     d="M 11.500037,31.436501 C 11.940474,20.09759 22.043105,11.32322 32.158766,21.979434 L 37.068811,17.246167 C 37.068811,17.246167 37.088388,32 37.088388,32 L 22.160133,31.978069 C 22.160133,31.978069 26.997745,27.140456 26.997745,27.140456 C 18.528582,18.264221 13.291696,25.230495 11.500037,31.436501 z"
     style="fill:#404040;"/>
  </a>
 </g>
</svg>

<style type='text/css'>
<![CDATA[
[data-mouse-over-selected='false'] { opacity: 0.7; }
[data-mouse-over-selected='true']  { opacity: 1.0; }
]]>
</style>
<script type="application/ecmascript"><![CDATA[
document.addEventListener('DOMContentLoaded', (event) => {
  highlightEdges();
  highlightAdjacentNodes();
});
]]></script>
</svg>
