<?xml version="1.0" encoding="UTF-8" standalone="no"?>
<!DOCTYPE svg PUBLIC "-//W3C//DTD SVG 1.1//EN"
 "http://www.w3.org/Graphics/SVG/1.1/DTD/svg11.dtd">
<!-- Generated by graphviz version 2.44.0 (0)
 -->
<!-- Title: CPS::PFSolverInterfaceBus Pages: 1 -->
<svg width="353pt" height="154pt"
 viewBox="0.00 0.00 353.00 153.50" xmlns="http://www.w3.org/2000/svg" xmlns:xlink="http://www.w3.org/1999/xlink">
<g id="graph0" class="graph" transform="scale(1 1) rotate(0) translate(4 149.5)">
<title>CPS::PFSolverInterfaceBus</title>
<!-- Node1 -->
<g id="node1" class="node">
<title>Node1</title>
<g id="a_node1"><a xlink:title="Common base class of all Component templates.">
<polygon fill="#bfbfbf" stroke="black" points="0,-69 0,-88 139,-88 139,-69 0,-69"/>
<text text-anchor="middle" x="69.5" y="-76" font-family="Helvetica" font-size="10.00">CPS::PFSolverInterfaceBus</text>
</a>
</g>
</g>
<!-- Node2 -->
<g id="node2" class="node">
<title>Node2</title>
<g id="a_node2"><a xlink:href="class_c_p_s_1_1_s_p_1_1_ph1_1_1_load.html" target="_top" xlink:title=" ">
<polygon fill="none" stroke="black" points="206.5,-126 206.5,-145 313.5,-145 313.5,-126 206.5,-126"/>
<text text-anchor="middle" x="260" y="-133" font-family="Helvetica" font-size="10.00">CPS::SP::Ph1::Load</text>
</a>
</g>
</g>
<!-- Node1&#45;&gt;Node2 -->
<g id="edge1" class="edge">
<title>Node1&#45;&gt;Node2</title>
<path fill="none" stroke="midnightblue" d="M103.73,-91.8C124.09,-99.65 150.8,-109.4 175,-116.5 186.91,-120 199.92,-123.22 212.08,-125.99"/>
<polygon fill="midnightblue" stroke="midnightblue" points="104.88,-88.49 94.29,-88.13 102.34,-95.02 104.88,-88.49"/>
</g>
<!-- Node3 -->
<g id="node3" class="node">
<title>Node3</title>
<g id="a_node3"><a xlink:href="class_c_p_s_1_1_s_p_1_1_ph1_1_1_network_injection.html" target="_top" xlink:title="Network injection model.">
<polygon fill="none" stroke="black" points="180,-88 180,-107 340,-107 340,-88 180,-88"/>
<text text-anchor="middle" x="260" y="-95" font-family="Helvetica" font-size="10.00">CPS::SP::Ph1::NetworkInjection</text>
</a>
</g>
</g>
<!-- Node1&#45;&gt;Node3 -->
<g id="edge2" class="edge">
<title>Node1&#45;&gt;Node3</title>
<path fill="none" stroke="midnightblue" d="M149.15,-86.43C159.32,-87.45 169.74,-88.5 179.91,-89.53"/>
<polygon fill="midnightblue" stroke="midnightblue" points="149.39,-82.93 139.09,-85.41 148.68,-89.9 149.39,-82.93"/>
</g>
<!-- Node4 -->
<g id="node4" class="node">
<title>Node4</title>
<g id="a_node4"><a xlink:href="class_c_p_s_1_1_s_p_1_1_ph1_1_1_synchron_generator.html" target="_top" xlink:title=" ">
<polygon fill="none" stroke="black" points="175,-50 175,-69 345,-69 345,-50 175,-50"/>
<text text-anchor="middle" x="260" y="-57" font-family="Helvetica" font-size="10.00">CPS::SP::Ph1::SynchronGenerator</text>
</a>
</g>
</g>
<!-- Node1&#45;&gt;Node4 -->
<g id="edge3" class="edge">
<title>Node1&#45;&gt;Node4</title>
<path fill="none" stroke="midnightblue" d="M149.25,-70.56C157.67,-69.71 166.25,-68.85 174.73,-67.99"/>
<polygon fill="midnightblue" stroke="midnightblue" points="148.68,-67.1 139.09,-71.59 149.39,-74.07 148.68,-67.1"/>
</g>
<!-- Node5 -->
<g id="node5" class="node">
<title>Node5</title>
<g id="a_node5"><a xlink:href="class_c_p_s_1_1_s_p_1_1_ph1_1_1_voltage_source_inverter.html" target="_top" xlink:title=" ">
<polygon fill="none" stroke="black" points="185.5,-0.5 185.5,-30.5 334.5,-30.5 334.5,-0.5 185.5,-0.5"/>
<text text-anchor="start" x="193.5" y="-18.5" font-family="Helvetica" font-size="10.00">CPS::SP::Ph1::VoltageSource</text>
<text text-anchor="middle" x="260" y="-7.5" font-family="Helvetica" font-size="10.00">Inverter</text>
</a>
</g>
</g>
<!-- Node1&#45;&gt;Node5 -->
<g id="edge4" class="edge">
<title>Node1&#45;&gt;Node5</title>
<path fill="none" stroke="midnightblue" d="M105.13,-65.32C125.39,-57.76 151.53,-48.25 175,-40.5 185.11,-37.16 195.98,-33.78 206.42,-30.62"/>
<polygon fill="midnightblue" stroke="midnightblue" points="103.83,-62.07 95.69,-68.86 106.28,-68.63 103.83,-62.07"/>
</g>
</g>
</svg>
