<?xml version="1.0" encoding="UTF-8" standalone="no"?>
<!DOCTYPE svg PUBLIC "-//W3C//DTD SVG 1.1//EN"
 "http://www.w3.org/Graphics/SVG/1.1/DTD/svg11.dtd">
<!-- Generated by graphviz version 2.50.0 (0)
 -->
<!-- Title: CPS::DP::Ph1::Transformer Pages: 1 -->
<!--zoomable 524 -->
<svg id="main" version="1.1" xmlns="http://www.w3.org/2000/svg" xmlns:xlink="http://www.w3.org/1999/xlink" xml:space="preserve" onload="init(evt)">
<style type="text/css"><![CDATA[
.edge:hover path { stroke: red; }
.edge:hover polygon { stroke: red; fill: red; }
]]></style>
<script type="text/javascript"><![CDATA[
var edges = document.getElementsByTagName('g');
if (edges && edges.length) {
  for (var i=0;i<edges.length;i++) {
    if (edges[i].id.substr(0,4)=='edge') {
      edges[i].setAttribute('class','edge');
    }
  }
}
]]></script>
        <defs>
                <circle id="rim" cx="0" cy="0" r="7"/>
                <circle id="rim2" cx="0" cy="0" r="3.5"/>
                <g id="zoomPlus">
                        <use xlink:href="#rim" fill="#404040">
                                <set attributeName="fill" to="#808080" begin="zoomplus.mouseover" end="zoomplus.mouseout"/>
                        </use>
                        <path d="M-4,0h8M0,-4v8" fill="none" stroke="white" stroke-width="1.5" pointer-events="none"/>
                </g>
                <g id="zoomMin">
                        <use xlink:href="#rim" fill="#404040">
                                <set attributeName="fill" to="#808080" begin="zoomminus.mouseover" end="zoomminus.mouseout"/>
                        </use>
                        <path d="M-4,0h8" fill="none" stroke="white" stroke-width="1.5" pointer-events="none"/>
                </g>
                <g id="dirArrow">
                        <path fill="none" stroke="white" stroke-width="1.5" d="M0,-3.0v7 M-2.5,-0.5L0,-3.0L2.5,-0.5"/>
                </g>
               <g id="resetDef">
                       <use xlink:href="#rim2" fill="#404040">
                               <set attributeName="fill" to="#808080" begin="reset.mouseover" end="reset.mouseout"/>
                       </use>
               </g>
        </defs>

<script type="text/javascript">
var viewWidth = 2247;
var viewHeight = 524;
var sectionId = 'dynsection-1';
</script>
<script xlink:href="svgpan.js"/>
<svg id="graph" class="graph">
<g id="viewport">
<title>CPS::DP::Ph1::Transformer</title>
<!-- Node1 -->
<g id="node1" class="node">
<title>Node1</title>
<g id="a_node1"><a xlink:title="Transformer that includes an inductance and resistance.">
<polygon fill="#bfbfbf" stroke="black" points="2097,-189.5 2097,-208.5 2239,-208.5 2239,-189.5 2097,-189.5"/>
<text text-anchor="middle" x="2168" y="-196.5" font-family="Helvetica,sans-Serif" font-size="10.00">CPS::DP::Ph1::Transformer</text>
</a>
</g>
</g>
<!-- Node2 -->
<g id="node2" class="node">
<title>Node2</title>
<g id="a_node2"><a xlink:href="class_c_p_s_1_1_composite_power_comp.html" target="_top" xlink:title=" ">
<polygon fill="none" stroke="black" points="1908,-316 1908,-346 2054,-346 2054,-316 1908,-316"/>
<text text-anchor="start" x="1916" y="-334" font-family="Helvetica,sans-Serif" font-size="10.00">CPS::CompositePowerComp</text>
<text text-anchor="middle" x="1981" y="-323" font-family="Helvetica,sans-Serif" font-size="10.00">&lt; Complex &gt;</text>
</a>
</g>
</g>
<!-- Node2&#45;&gt;Node1 -->
<g id="edge1" class="edge">
<title>Node2&#45;&gt;Node1</title>
<path fill="none" stroke="midnightblue" d="M2011.38,-310.03C2051.95,-281.09 2123.49,-230.04 2153.33,-208.75"/>
<polygon fill="midnightblue" stroke="midnightblue" points="2009.33,-307.2 2003.22,-315.86 2013.4,-312.9 2009.33,-307.2"/>
</g>
<!-- Node3 -->
<g id="node3" class="node">
<title>Node3</title>
<g id="a_node3"><a xlink:href="class_c_p_s_1_1_m_n_a_sim_power_comp.html" target="_top" xlink:title=" ">
<polygon fill="none" stroke="black" points="1646.5,-374 1646.5,-404 1783.5,-404 1783.5,-374 1646.5,-374"/>
<text text-anchor="start" x="1654.5" y="-392" font-family="Helvetica,sans-Serif" font-size="10.00">CPS::MNASimPowerComp</text>
<text text-anchor="middle" x="1715" y="-381" font-family="Helvetica,sans-Serif" font-size="10.00">&lt; Complex &gt;</text>
</a>
</g>
</g>
<!-- Node3&#45;&gt;Node2 -->
<g id="edge2" class="edge">
<title>Node3&#45;&gt;Node2</title>
<path fill="none" stroke="midnightblue" d="M1793.5,-371.97C1830.93,-363.75 1875.46,-353.97 1911.61,-346.02"/>
<polygon fill="midnightblue" stroke="midnightblue" points="1792.66,-368.57 1783.64,-374.14 1794.16,-375.41 1792.66,-368.57"/>
</g>
<!-- Node4 -->
<g id="node4" class="node">
<title>Node4</title>
<g id="a_node4"><a xlink:href="class_c_p_s_1_1_sim_power_comp.html" target="_top" xlink:title=" ">
<polygon fill="none" stroke="black" points="1419,-311 1419,-341 1538,-341 1538,-311 1419,-311"/>
<text text-anchor="start" x="1427" y="-329" font-family="Helvetica,sans-Serif" font-size="10.00">CPS::SimPowerComp&lt;</text>
<text text-anchor="middle" x="1478.5" y="-318" font-family="Helvetica,sans-Serif" font-size="10.00"> Complex &gt;</text>
</a>
</g>
</g>
<!-- Node4&#45;&gt;Node3 -->
<g id="edge3" class="edge">
<title>Node4&#45;&gt;Node3</title>
<path fill="none" stroke="midnightblue" d="M1545.18,-343.65C1580.75,-353.2 1624.23,-364.88 1658.15,-374"/>
<polygon fill="midnightblue" stroke="midnightblue" points="1545.94,-340.22 1535.37,-341.01 1544.12,-346.98 1545.94,-340.22"/>
</g>
<!-- Node5 -->
<g id="node5" class="node">
<title>Node5</title>
<g id="a_node5"><a xlink:href="class_c_p_s_1_1_topological_power_comp.html" target="_top" xlink:title=" ">
<polygon fill="none" stroke="black" points="945,-271.5 945,-290.5 1093,-290.5 1093,-271.5 945,-271.5"/>
<text text-anchor="middle" x="1019" y="-278.5" font-family="Helvetica,sans-Serif" font-size="10.00">CPS::TopologicalPowerComp</text>
</a>
</g>
</g>
<!-- Node5&#45;&gt;Node4 -->
<g id="edge4" class="edge">
<title>Node5&#45;&gt;Node4</title>
<path fill="none" stroke="midnightblue" d="M1103.21,-285.73C1162.37,-289.46 1243.68,-295.3 1315,-303 1349.56,-306.73 1388.09,-312.13 1418.95,-316.76"/>
<polygon fill="midnightblue" stroke="midnightblue" points="1103.36,-282.23 1093.16,-285.11 1102.93,-289.22 1103.36,-282.23"/>
</g>
<!-- Node12 -->
<g id="node12" class="node">
<title>Node12</title>
<g id="a_node12"><a xlink:href="class_c_p_s_1_1_sim_power_comp.html" target="_top" xlink:title="Base class for all components that are transmitting power.">
<polygon fill="none" stroke="black" points="1196,-313 1196,-343 1315,-343 1315,-313 1196,-313"/>
<text text-anchor="start" x="1204" y="-331" font-family="Helvetica,sans-Serif" font-size="10.00">CPS::SimPowerComp&lt;</text>
<text text-anchor="middle" x="1255.5" y="-320" font-family="Helvetica,sans-Serif" font-size="10.00"> VarType &gt;</text>
</a>
</g>
</g>
<!-- Node5&#45;&gt;Node12 -->
<g id="edge13" class="edge">
<title>Node5&#45;&gt;Node12</title>
<path fill="none" stroke="midnightblue" d="M1077.32,-292.49C1113.32,-299.7 1159.64,-308.99 1195.89,-316.25"/>
<polygon fill="midnightblue" stroke="midnightblue" points="1077.95,-289.04 1067.45,-290.51 1076.57,-295.91 1077.95,-289.04"/>
</g>
<!-- Node6 -->
<g id="node6" class="node">
<title>Node6</title>
<g id="a_node6"><a xlink:href="class_c_p_s_1_1_identified_object.html" target="_top" xlink:title=" ">
<polygon fill="none" stroke="black" points="710.5,-271.5 710.5,-290.5 826.5,-290.5 826.5,-271.5 710.5,-271.5"/>
<text text-anchor="middle" x="768.5" y="-278.5" font-family="Helvetica,sans-Serif" font-size="10.00">CPS::IdentifiedObject</text>
</a>
</g>
</g>
<!-- Node6&#45;&gt;Node5 -->
<g id="edge5" class="edge">
<title>Node6&#45;&gt;Node5</title>
<path fill="none" stroke="midnightblue" d="M836.64,-281C870.05,-281 910.51,-281 944.73,-281"/>
<polygon fill="midnightblue" stroke="midnightblue" points="836.51,-277.5 826.51,-281 836.51,-284.5 836.51,-277.5"/>
</g>
<!-- Node7 -->
<g id="node7" class="node">
<title>Node7</title>
<g id="a_node7"><a xlink:href="class_c_p_s_1_1_attribute.html" target="_top" xlink:title=" ">
<polygon fill="none" stroke="black" points="457,-271.5 457,-290.5 584,-290.5 584,-271.5 457,-271.5"/>
<text text-anchor="middle" x="520.5" y="-278.5" font-family="Helvetica,sans-Serif" font-size="10.00">CPS::Attribute&lt; String &gt;</text>
</a>
</g>
</g>
<!-- Node7&#45;&gt;Node6 -->
<g id="edge6" class="edge">
<title>Node7&#45;&gt;Node6</title>
<path fill="none" stroke="#9a32cd" stroke-dasharray="5,2" d="M594.45,-281C631.5,-281 675.85,-281 710.38,-281"/>
<polygon fill="#9a32cd" stroke="#9a32cd" points="594.21,-277.5 584.21,-281 594.21,-284.5 594.21,-277.5"/>
<text text-anchor="middle" x="641.5" y="-295" font-family="Helvetica,sans-Serif" font-size="10.00"> mName</text>
<text text-anchor="middle" x="641.5" y="-284" font-family="Helvetica,sans-Serif" font-size="10.00">mUID</text>
</g>
<!-- Node8 -->
<g id="node8" class="node">
<title>Node8</title>
<g id="a_node8"><a xlink:href="class_c_p_s_1_1_attribute_base.html" target="_top" xlink:title=" ">
<polygon fill="none" stroke="black" points="5.5,-271.5 5.5,-290.5 110.5,-290.5 110.5,-271.5 5.5,-271.5"/>
<text text-anchor="middle" x="58" y="-278.5" font-family="Helvetica,sans-Serif" font-size="10.00">CPS::AttributeBase</text>
</a>
</g>
</g>
<!-- Node8&#45;&gt;Node7 -->
<g id="edge7" class="edge">
<title>Node8&#45;&gt;Node7</title>
<path fill="none" stroke="midnightblue" d="M120.83,-285.51C131.55,-286.13 142.6,-286.67 153,-287 277.38,-290.97 308.62,-290.04 433,-286 440.67,-285.75 448.71,-285.4 456.68,-285"/>
<polygon fill="midnightblue" stroke="midnightblue" points="120.88,-282.01 110.69,-284.89 120.46,-288.99 120.88,-282.01"/>
</g>
<!-- Node10 -->
<g id="node10" class="node">
<title>Node10</title>
<g id="a_node10"><a xlink:href="class_c_p_s_1_1_attribute.html" target="_top" xlink:title=" ">
<polygon fill="none" stroke="black" points="172,-198.5 172,-217.5 276,-217.5 276,-198.5 172,-198.5"/>
<text text-anchor="middle" x="224" y="-205.5" font-family="Helvetica,sans-Serif" font-size="10.00">CPS::Attribute&lt; T &gt;</text>
</a>
</g>
</g>
<!-- Node8&#45;&gt;Node10 -->
<g id="edge10" class="edge">
<title>Node8&#45;&gt;Node10</title>
<path fill="none" stroke="midnightblue" d="M81.66,-265.77C100.19,-253.86 127.42,-237.61 153,-227 161.84,-223.33 171.6,-220.17 180.96,-217.53"/>
<polygon fill="midnightblue" stroke="midnightblue" points="79.52,-262.98 73.06,-271.38 83.35,-268.84 79.52,-262.98"/>
</g>
<!-- Node13 -->
<g id="node13" class="node">
<title>Node13</title>
<g id="a_node13"><a xlink:href="class_c_p_s_1_1_attribute.html" target="_top" xlink:title=" ">
<polygon fill="none" stroke="black" points="452,-333 452,-363 589,-363 589,-333 452,-333"/>
<text text-anchor="start" x="460" y="-351" font-family="Helvetica,sans-Serif" font-size="10.00">CPS::Attribute&lt; MatrixVar</text>
<text text-anchor="middle" x="520.5" y="-340" font-family="Helvetica,sans-Serif" font-size="10.00">&lt; VarType &gt; &gt;</text>
</a>
</g>
</g>
<!-- Node8&#45;&gt;Node13 -->
<g id="edge15" class="edge">
<title>Node8&#45;&gt;Node13</title>
<path fill="none" stroke="midnightblue" d="M68.97,-299.42C83.61,-324.28 113.53,-367.47 153,-385 265.37,-434.9 415.66,-388.99 483.54,-363.02"/>
<polygon fill="midnightblue" stroke="midnightblue" points="71.94,-297.56 63.96,-290.59 65.85,-301.01 71.94,-297.56"/>
</g>
<!-- Node16 -->
<g id="node16" class="node">
<title>Node16</title>
<g id="a_node16"><a xlink:href="class_c_p_s_1_1_attribute.html" target="_top" xlink:title=" ">
<polygon fill="none" stroke="black" points="456,-443.5 456,-462.5 585,-462.5 585,-443.5 456,-443.5"/>
<text text-anchor="middle" x="520.5" y="-450.5" font-family="Helvetica,sans-Serif" font-size="10.00">CPS::Attribute&lt; Matrix &gt;</text>
</a>
</g>
</g>
<!-- Node8&#45;&gt;Node16 -->
<g id="edge20" class="edge">
<title>Node8&#45;&gt;Node16</title>
<path fill="none" stroke="midnightblue" d="M61.32,-300.89C67.45,-343.23 88.33,-441.77 153,-483 266.04,-555.08 440.25,-488.72 499.2,-462.54"/>
<polygon fill="midnightblue" stroke="midnightblue" points="64.79,-300.42 60.01,-290.96 57.85,-301.34 64.79,-300.42"/>
</g>
<!-- Node23 -->
<g id="node23" class="node">
<title>Node23</title>
<g id="a_node23"><a xlink:href="class_c_p_s_1_1_attribute.html" target="_top" xlink:title=" ">
<polygon fill="none" stroke="black" points="461,-67.5 461,-86.5 580,-86.5 580,-67.5 461,-67.5"/>
<text text-anchor="middle" x="520.5" y="-74.5" font-family="Helvetica,sans-Serif" font-size="10.00">CPS::Attribute&lt; Real &gt;</text>
</a>
</g>
</g>
<!-- Node8&#45;&gt;Node23 -->
<g id="edge33" class="edge">
<title>Node8&#45;&gt;Node23</title>
<path fill="none" stroke="midnightblue" d="M61.95,-261.14C69.15,-220.56 91.76,-128.61 153,-89 202.25,-57.15 370.45,-64.93 460.87,-71.79"/>
<polygon fill="midnightblue" stroke="midnightblue" points="58.47,-260.7 60.31,-271.14 65.38,-261.84 58.47,-260.7"/>
</g>
<!-- Node25 -->
<g id="node25" class="node">
<title>Node25</title>
<g id="a_node25"><a xlink:href="class_c_p_s_1_1_attribute.html" target="_top" xlink:title=" ">
<polygon fill="none" stroke="black" points="451,-144.5 451,-163.5 590,-163.5 590,-144.5 451,-144.5"/>
<text text-anchor="middle" x="520.5" y="-151.5" font-family="Helvetica,sans-Serif" font-size="10.00">CPS::Attribute&lt; Complex &gt;</text>
</a>
</g>
</g>
<!-- Node8&#45;&gt;Node25 -->
<g id="edge37" class="edge">
<title>Node8&#45;&gt;Node25</title>
<path fill="none" stroke="midnightblue" d="M71.45,-263.14C87.56,-241.59 117.78,-206.12 153,-189 248.42,-142.6 374.2,-141.66 450.84,-146.73"/>
<polygon fill="midnightblue" stroke="midnightblue" points="68.48,-261.28 65.44,-271.43 74.14,-265.39 68.48,-261.28"/>
</g>
<!-- Node9 -->
<g id="node9" class="node">
<title>Node9</title>
<g id="a_node9"><a xlink:title=" ">
<polygon fill="none" stroke="#bfbfbf" points="166,-236.5 166,-277.5 282,-277.5 282,-236.5 166,-236.5"/>
<text text-anchor="start" x="174" y="-265.5" font-family="Helvetica,sans-Serif" font-size="10.00">std::enable_shared</text>
<text text-anchor="start" x="174" y="-254.5" font-family="Helvetica,sans-Serif" font-size="10.00">_from_this&lt; Attribute</text>
<text text-anchor="middle" x="224" y="-243.5" font-family="Helvetica,sans-Serif" font-size="10.00">&lt; String &gt; &gt;</text>
</a>
</g>
</g>
<!-- Node9&#45;&gt;Node7 -->
<g id="edge8" class="edge">
<title>Node9&#45;&gt;Node7</title>
<path fill="none" stroke="midnightblue" d="M292.39,-264.97C299.35,-265.7 306.31,-266.39 313,-267 361.13,-271.36 415.69,-275.01 456.63,-277.48"/>
<polygon fill="midnightblue" stroke="midnightblue" points="292.56,-261.47 282.24,-263.89 291.81,-268.43 292.56,-261.47"/>
</g>
<!-- Node10&#45;&gt;Node7 -->
<g id="edge9" class="edge">
<title>Node10&#45;&gt;Node7</title>
<path fill="none" stroke="orange" stroke-dasharray="5,2" d="M286.22,-203.79C328.57,-202.86 385.6,-205.61 433,-222 463.92,-232.69 494.13,-257.52 509.33,-271.31"/>
<polygon fill="orange" stroke="orange" points="285.95,-200.3 276.06,-204.09 286.16,-207.29 285.95,-200.3"/>
<text text-anchor="middle" x="373" y="-225" font-family="Helvetica,sans-Serif" font-size="10.00"> &lt; String &gt;</text>
</g>
<!-- Node10&#45;&gt;Node13 -->
<g id="edge17" class="edge">
<title>Node10&#45;&gt;Node13</title>
<path fill="none" stroke="orange" stroke-dasharray="5,2" d="M276.23,-220.44C282.62,-222.42 289.01,-224.61 295,-227 371.69,-257.61 455.79,-307.84 495.8,-332.85"/>
<polygon fill="orange" stroke="orange" points="276.81,-216.96 266.23,-217.5 274.84,-223.68 276.81,-216.96"/>
<text text-anchor="middle" x="373" y="-298" font-family="Helvetica,sans-Serif" font-size="10.00"> &lt; MatrixVar&lt; VarType &gt; &gt;</text>
</g>
<!-- Node10&#45;&gt;Node16 -->
<g id="edge22" class="edge">
<title>Node10&#45;&gt;Node16</title>
<path fill="none" stroke="orange" stroke-dasharray="5,2" d="M285.36,-219.31C288.89,-221.46 292.15,-224 295,-227 320.99,-254.37 292.02,-278.62 313,-310 359.29,-379.24 451.46,-424.76 495.28,-443.42"/>
<polygon fill="orange" stroke="orange" points="286.63,-216.04 276.12,-214.72 283.52,-222.31 286.63,-216.04"/>
<text text-anchor="middle" x="373" y="-414" font-family="Helvetica,sans-Serif" font-size="10.00"> &lt; Matrix &gt;</text>
</g>
<!-- Node10&#45;&gt;Node23 -->
<g id="edge35" class="edge">
<title>Node10&#45;&gt;Node23</title>
<path fill="none" stroke="orange" stroke-dasharray="5,2" d="M246.83,-192.58C264.21,-180.75 289.44,-164.54 313,-153 372.52,-123.84 446.21,-99.29 487.53,-86.5"/>
<polygon fill="orange" stroke="orange" points="244.76,-189.76 238.51,-198.32 248.73,-195.52 244.76,-189.76"/>
<text text-anchor="middle" x="373" y="-156" font-family="Helvetica,sans-Serif" font-size="10.00"> &lt; Real &gt;</text>
</g>
<!-- Node10&#45;&gt;Node25 -->
<g id="edge39" class="edge">
<title>Node10&#45;&gt;Node25</title>
<path fill="none" stroke="orange" stroke-dasharray="5,2" d="M274.56,-196.19C287.07,-193.36 300.5,-190.45 313,-188 360.6,-178.68 414.71,-169.84 455.6,-163.5"/>
<polygon fill="orange" stroke="orange" points="273.72,-192.79 264.76,-198.43 275.29,-199.61 273.72,-192.79"/>
<text text-anchor="middle" x="373" y="-191" font-family="Helvetica,sans-Serif" font-size="10.00"> &lt; Complex &gt;</text>
</g>
<!-- Node11 -->
<g id="node11" class="node">
<title>Node11</title>
<g id="a_node11"><a xlink:title=" ">
<polygon fill="none" stroke="#bfbfbf" points="0,-24.5 0,-65.5 116,-65.5 116,-24.5 0,-24.5"/>
<text text-anchor="start" x="8" y="-53.5" font-family="Helvetica,sans-Serif" font-size="10.00">std::enable_shared</text>
<text text-anchor="start" x="8" y="-42.5" font-family="Helvetica,sans-Serif" font-size="10.00">_from_this&lt; Attribute</text>
<text text-anchor="middle" x="58" y="-31.5" font-family="Helvetica,sans-Serif" font-size="10.00">&lt; T &gt; &gt;</text>
</a>
</g>
</g>
<!-- Node11&#45;&gt;Node10 -->
<g id="edge11" class="edge">
<title>Node11&#45;&gt;Node10</title>
<path fill="none" stroke="midnightblue" d="M82.89,-73.48C101.33,-94.93 127.85,-124.71 153,-149 172.2,-167.55 196.35,-187.16 210.68,-198.45"/>
<polygon fill="midnightblue" stroke="midnightblue" points="85.4,-71.02 76.24,-65.69 80.08,-75.57 85.4,-71.02"/>
</g>
<!-- Node12&#45;&gt;Node4 -->
<g id="edge12" class="edge">
<title>Node12&#45;&gt;Node4</title>
<path fill="none" stroke="orange" stroke-dasharray="5,2" d="M1325.66,-327.08C1328.14,-327.05 1330.59,-327.02 1333,-327 1361.22,-326.72 1392.55,-326.49 1418.79,-326.32"/>
<polygon fill="orange" stroke="orange" points="1325.35,-323.58 1315.39,-327.19 1325.43,-330.58 1325.35,-323.58"/>
<text text-anchor="middle" x="1362.5" y="-330" font-family="Helvetica,sans-Serif" font-size="10.00"> &lt; Complex &gt;</text>
</g>
<!-- Node18 -->
<g id="node18" class="node">
<title>Node18</title>
<g id="a_node18"><a xlink:href="class_c_p_s_1_1_m_n_a_sim_power_comp.html" target="_top" xlink:title="Base class for all MNA components that are transmitting power.">
<polygon fill="none" stroke="black" points="1410,-362 1410,-392 1547,-392 1547,-362 1410,-362"/>
<text text-anchor="start" x="1418" y="-380" font-family="Helvetica,sans-Serif" font-size="10.00">CPS::MNASimPowerComp</text>
<text text-anchor="middle" x="1478.5" y="-369" font-family="Helvetica,sans-Serif" font-size="10.00">&lt; VarType &gt;</text>
</a>
</g>
</g>
<!-- Node12&#45;&gt;Node18 -->
<g id="edge24" class="edge">
<title>Node12&#45;&gt;Node18</title>
<path fill="none" stroke="midnightblue" d="M1324.92,-343.17C1351.98,-349.17 1383,-356.05 1409.97,-362.03"/>
<polygon fill="midnightblue" stroke="midnightblue" points="1325.66,-339.75 1315.14,-341 1324.15,-346.58 1325.66,-339.75"/>
</g>
<!-- Node13&#45;&gt;Node12 -->
<g id="edge14" class="edge">
<title>Node13&#45;&gt;Node12</title>
<path fill="none" stroke="#9a32cd" stroke-dasharray="5,2" d="M599.48,-345.87C747.14,-341.84 1064.51,-333.18 1195.79,-329.6"/>
<polygon fill="#9a32cd" stroke="#9a32cd" points="599.05,-342.38 589.15,-346.15 599.24,-349.38 599.05,-342.38"/>
<text text-anchor="middle" x="894.5" y="-353" font-family="Helvetica,sans-Serif" font-size="10.00"> mIntfCurrent</text>
<text text-anchor="middle" x="894.5" y="-342" font-family="Helvetica,sans-Serif" font-size="10.00">mIntfVoltage</text>
</g>
<!-- Node14 -->
<g id="node14" class="node">
<title>Node14</title>
<g id="a_node14"><a xlink:title=" ">
<polygon fill="none" stroke="#bfbfbf" points="153,-334.5 153,-375.5 295,-375.5 295,-334.5 153,-334.5"/>
<text text-anchor="start" x="161" y="-363.5" font-family="Helvetica,sans-Serif" font-size="10.00">std::enable_shared</text>
<text text-anchor="start" x="161" y="-352.5" font-family="Helvetica,sans-Serif" font-size="10.00">_from_this&lt; Attribute</text>
<text text-anchor="middle" x="224" y="-341.5" font-family="Helvetica,sans-Serif" font-size="10.00">&lt; MatrixVar&lt; VarType &gt; &gt; &gt;</text>
</a>
</g>
</g>
<!-- Node14&#45;&gt;Node13 -->
<g id="edge16" class="edge">
<title>Node14&#45;&gt;Node13</title>
<path fill="none" stroke="midnightblue" d="M305.43,-353.74C344.02,-353.07 390.91,-352.13 433,-351 439.16,-350.83 445.56,-350.64 451.98,-350.44"/>
<polygon fill="midnightblue" stroke="midnightblue" points="305.23,-350.25 295.29,-353.92 305.35,-357.24 305.23,-350.25"/>
</g>
<!-- Node15 -->
<g id="node15" class="node">
<title>Node15</title>
<g id="a_node15"><a xlink:href="class_c_p_s_1_1_m_n_a_interface.html" target="_top" xlink:title="Interface to be implemented by all models used by the MNA solver.">
<polygon fill="none" stroke="black" points="1202,-411.5 1202,-430.5 1309,-430.5 1309,-411.5 1202,-411.5"/>
<text text-anchor="middle" x="1255.5" y="-418.5" font-family="Helvetica,sans-Serif" font-size="10.00">CPS::MNAInterface</text>
</a>
</g>
</g>
<!-- Node15&#45;&gt;Node3 -->
<g id="edge18" class="edge">
<title>Node15&#45;&gt;Node3</title>
<path fill="none" stroke="midnightblue" d="M1319.65,-418.63C1392.94,-415.6 1517.38,-409.55 1624,-400 1631.21,-399.35 1638.74,-398.58 1646.23,-397.76"/>
<polygon fill="midnightblue" stroke="midnightblue" points="1319.07,-415.15 1309.22,-419.06 1319.35,-422.15 1319.07,-415.15"/>
</g>
<!-- Node15&#45;&gt;Node18 -->
<g id="edge25" class="edge">
<title>Node15&#45;&gt;Node18</title>
<path fill="none" stroke="midnightblue" d="M1314.52,-409.45C1343.78,-403.62 1379.44,-396.52 1409.94,-390.45"/>
<polygon fill="midnightblue" stroke="midnightblue" points="1313.58,-406.07 1304.45,-411.45 1314.94,-412.93 1313.58,-406.07"/>
</g>
<!-- Node16&#45;&gt;Node3 -->
<g id="edge19" class="edge">
<title>Node16&#45;&gt;Node3</title>
<path fill="none" stroke="#9a32cd" stroke-dasharray="5,2" d="M595.33,-458.48C644.16,-461.64 709.62,-465 767.5,-465 767.5,-465 767.5,-465 1479.5,-465 1557.82,-465 1644,-426.16 1686.78,-404.02"/>
<polygon fill="#9a32cd" stroke="#9a32cd" points="595.38,-454.98 585.17,-457.81 594.92,-461.96 595.38,-454.98"/>
<text text-anchor="middle" x="1144.5" y="-468" font-family="Helvetica,sans-Serif" font-size="10.00"> mRightVector</text>
</g>
<!-- Node16&#45;&gt;Node18 -->
<g id="edge26" class="edge">
<title>Node16&#45;&gt;Node18</title>
<path fill="none" stroke="#9a32cd" stroke-dasharray="5,2" d="M548.4,-438.85C592.77,-416.86 684.63,-377 767.5,-377 767.5,-377 767.5,-377 1256.5,-377 1307.91,-377 1366.05,-377 1409.79,-377"/>
<polygon fill="#9a32cd" stroke="#9a32cd" points="546.78,-435.75 539.43,-443.37 549.93,-442 546.78,-435.75"/>
<text text-anchor="middle" x="1019" y="-380" font-family="Helvetica,sans-Serif" font-size="10.00"> mRightVector</text>
</g>
<!-- Node17 -->
<g id="node17" class="node">
<title>Node17</title>
<g id="a_node17"><a xlink:title=" ">
<polygon fill="none" stroke="#bfbfbf" points="166,-432.5 166,-473.5 282,-473.5 282,-432.5 166,-432.5"/>
<text text-anchor="start" x="174" y="-461.5" font-family="Helvetica,sans-Serif" font-size="10.00">std::enable_shared</text>
<text text-anchor="start" x="174" y="-450.5" font-family="Helvetica,sans-Serif" font-size="10.00">_from_this&lt; Attribute</text>
<text text-anchor="middle" x="224" y="-439.5" font-family="Helvetica,sans-Serif" font-size="10.00">&lt; Matrix &gt; &gt;</text>
</a>
</g>
</g>
<!-- Node17&#45;&gt;Node16 -->
<g id="edge21" class="edge">
<title>Node17&#45;&gt;Node16</title>
<path fill="none" stroke="midnightblue" d="M292.35,-453C341.48,-453 407.64,-453 455.89,-453"/>
<polygon fill="midnightblue" stroke="midnightblue" points="292.13,-449.5 282.13,-453 292.13,-456.5 292.13,-449.5"/>
</g>
<!-- Node18&#45;&gt;Node3 -->
<g id="edge23" class="edge">
<title>Node18&#45;&gt;Node3</title>
<path fill="none" stroke="orange" stroke-dasharray="5,2" d="M1557.04,-380.97C1585.84,-382.44 1618.28,-384.1 1646.15,-385.53"/>
<polygon fill="orange" stroke="orange" points="1557.18,-377.47 1547.01,-380.45 1556.82,-384.46 1557.18,-377.47"/>
<text text-anchor="middle" x="1594.5" y="-388" font-family="Helvetica,sans-Serif" font-size="10.00"> &lt; Complex &gt;</text>
</g>
<!-- Node19 -->
<g id="node19" class="node">
<title>Node19</title>
<g id="a_node19"><a xlink:href="class_c_p_s_1_1_composite_power_comp.html" target="_top" xlink:title="Base class for composite power components.">
<polygon fill="none" stroke="black" points="1642,-316 1642,-346 1788,-346 1788,-316 1642,-316"/>
<text text-anchor="start" x="1650" y="-334" font-family="Helvetica,sans-Serif" font-size="10.00">CPS::CompositePowerComp</text>
<text text-anchor="middle" x="1715" y="-323" font-family="Helvetica,sans-Serif" font-size="10.00">&lt; VarType &gt;</text>
</a>
</g>
</g>
<!-- Node18&#45;&gt;Node19 -->
<g id="edge28" class="edge">
<title>Node18&#45;&gt;Node19</title>
<path fill="none" stroke="midnightblue" d="M1556.91,-361.82C1584.21,-356.46 1614.78,-350.46 1641.64,-345.19"/>
<polygon fill="midnightblue" stroke="midnightblue" points="1556.15,-358.4 1547.01,-363.76 1557.5,-365.27 1556.15,-358.4"/>
</g>
<!-- Node19&#45;&gt;Node2 -->
<g id="edge27" class="edge">
<title>Node19&#45;&gt;Node2</title>
<path fill="none" stroke="orange" stroke-dasharray="5,2" d="M1798.36,-331C1833.47,-331 1874.06,-331 1907.95,-331"/>
<polygon fill="orange" stroke="orange" points="1798.14,-327.5 1788.14,-331 1798.14,-334.5 1798.14,-327.5"/>
<text text-anchor="middle" x="1845" y="-334" font-family="Helvetica,sans-Serif" font-size="10.00"> &lt; Complex &gt;</text>
</g>
<!-- Node20 -->
<g id="node20" class="node">
<title>Node20</title>
<g id="a_node20"><a xlink:href="class_shared_factory.html" target="_top" xlink:title=" ">
<polygon fill="none" stroke="black" points="1902,-151.5 1902,-170.5 2060,-170.5 2060,-151.5 1902,-151.5"/>
<text text-anchor="middle" x="1981" y="-158.5" font-family="Helvetica,sans-Serif" font-size="10.00">SharedFactory&lt; Transformer &gt;</text>
</a>
</g>
</g>
<!-- Node20&#45;&gt;Node1 -->
<g id="edge29" class="edge">
<title>Node20&#45;&gt;Node1</title>
<path fill="none" stroke="midnightblue" d="M2038.52,-172.61C2064.83,-178.01 2095.74,-184.36 2120.65,-189.48"/>
<polygon fill="midnightblue" stroke="midnightblue" points="2039.18,-169.17 2028.68,-170.59 2037.77,-176.03 2039.18,-169.17"/>
</g>
<!-- Node21 -->
<g id="node21" class="node">
<title>Node21</title>
<g id="a_node21"><a xlink:href="class_shared_factory.html" target="_top" xlink:title=" ">
<polygon fill="none" stroke="black" points="1662.5,-151.5 1662.5,-170.5 1767.5,-170.5 1767.5,-151.5 1662.5,-151.5"/>
<text text-anchor="middle" x="1715" y="-158.5" font-family="Helvetica,sans-Serif" font-size="10.00">SharedFactory&lt; T &gt;</text>
</a>
</g>
</g>
<!-- Node21&#45;&gt;Node20 -->
<g id="edge30" class="edge">
<title>Node21&#45;&gt;Node20</title>
<path fill="none" stroke="orange" stroke-dasharray="5,2" d="M1777.68,-161C1814.71,-161 1862.17,-161 1901.81,-161"/>
<polygon fill="orange" stroke="orange" points="1777.53,-157.5 1767.53,-161 1777.53,-164.5 1777.53,-157.5"/>
<text text-anchor="middle" x="1845" y="-164" font-family="Helvetica,sans-Serif" font-size="10.00"> &lt; Transformer &gt;</text>
</g>
<!-- Node22 -->
<g id="node22" class="node">
<title>Node22</title>
<g id="a_node22"><a xlink:href="class_c_p_s_1_1_base_1_1_ph1_1_1_transformer.html" target="_top" xlink:title=" ">
<polygon fill="none" stroke="black" points="693,-144.5 693,-163.5 844,-163.5 844,-144.5 693,-144.5"/>
<text text-anchor="middle" x="768.5" y="-151.5" font-family="Helvetica,sans-Serif" font-size="10.00">CPS::Base::Ph1::Transformer</text>
</a>
</g>
</g>
<!-- Node22&#45;&gt;Node1 -->
<g id="edge31" class="edge">
<title>Node22&#45;&gt;Node1</title>
<path fill="none" stroke="midnightblue" d="M811.25,-166.29C860.29,-179.61 944.32,-199 1018,-199 1018,-199 1018,-199 1982,-199 2019.9,-199 2062.17,-199 2096.72,-199"/>
<polygon fill="midnightblue" stroke="midnightblue" points="811.9,-162.83 801.33,-163.54 810.04,-169.58 811.9,-162.83"/>
</g>
<!-- Node23&#45;&gt;Node22 -->
<g id="edge32" class="edge">
<title>Node23&#45;&gt;Node22</title>
<path fill="none" stroke="#9a32cd" stroke-dasharray="5,2" d="M573.75,-88.89C603.66,-96.12 641.74,-106.06 675,-117 699.65,-125.1 727.17,-136.41 745.73,-144.39"/>
<polygon fill="#9a32cd" stroke="#9a32cd" points="574.48,-85.46 563.94,-86.54 572.85,-92.27 574.48,-85.46"/>
<text text-anchor="middle" x="641.5" y="-142" font-family="Helvetica,sans-Serif" font-size="10.00"> mInductance</text>
<text text-anchor="middle" x="641.5" y="-131" font-family="Helvetica,sans-Serif" font-size="10.00">mRatedPower</text>
<text text-anchor="middle" x="641.5" y="-120" font-family="Helvetica,sans-Serif" font-size="10.00">mResistance</text>
</g>
<!-- Node24 -->
<g id="node24" class="node">
<title>Node24</title>
<g id="a_node24"><a xlink:title=" ">
<polygon fill="none" stroke="#bfbfbf" points="166,-0.5 166,-41.5 282,-41.5 282,-0.5 166,-0.5"/>
<text text-anchor="start" x="174" y="-29.5" font-family="Helvetica,sans-Serif" font-size="10.00">std::enable_shared</text>
<text text-anchor="start" x="174" y="-18.5" font-family="Helvetica,sans-Serif" font-size="10.00">_from_this&lt; Attribute</text>
<text text-anchor="middle" x="224" y="-7.5" font-family="Helvetica,sans-Serif" font-size="10.00">&lt; Real &gt; &gt;</text>
</a>
</g>
</g>
<!-- Node24&#45;&gt;Node23 -->
<g id="edge34" class="edge">
<title>Node24&#45;&gt;Node23</title>
<path fill="none" stroke="midnightblue" d="M292.25,-31.07C333.1,-37.49 386.21,-46.4 433,-56 449.35,-59.36 467.3,-63.62 482.59,-67.42"/>
<polygon fill="midnightblue" stroke="midnightblue" points="292.57,-27.57 282.15,-29.49 291.49,-34.49 292.57,-27.57"/>
</g>
<!-- Node25&#45;&gt;Node22 -->
<g id="edge36" class="edge">
<title>Node25&#45;&gt;Node22</title>
<path fill="none" stroke="#9a32cd" stroke-dasharray="5,2" d="M600.34,-154C630,-154 663.61,-154 692.88,-154"/>
<polygon fill="#9a32cd" stroke="#9a32cd" points="600.02,-150.5 590.02,-154 600.02,-157.5 600.02,-150.5"/>
<text text-anchor="middle" x="641.5" y="-157" font-family="Helvetica,sans-Serif" font-size="10.00"> mRatio</text>
</g>
<!-- Node26 -->
<g id="node26" class="node">
<title>Node26</title>
<g id="a_node26"><a xlink:title=" ">
<polygon fill="none" stroke="#bfbfbf" points="166,-98.5 166,-139.5 282,-139.5 282,-98.5 166,-98.5"/>
<text text-anchor="start" x="174" y="-127.5" font-family="Helvetica,sans-Serif" font-size="10.00">std::enable_shared</text>
<text text-anchor="start" x="174" y="-116.5" font-family="Helvetica,sans-Serif" font-size="10.00">_from_this&lt; Attribute</text>
<text text-anchor="middle" x="224" y="-105.5" font-family="Helvetica,sans-Serif" font-size="10.00">&lt; Complex &gt; &gt;</text>
</a>
</g>
</g>
<!-- Node26&#45;&gt;Node25 -->
<g id="edge38" class="edge">
<title>Node26&#45;&gt;Node25</title>
<path fill="none" stroke="midnightblue" d="M292.48,-126.59C333.2,-131.21 386.09,-137.31 433,-143 438.71,-143.69 444.63,-144.42 450.58,-145.16"/>
<polygon fill="midnightblue" stroke="midnightblue" points="292.74,-123.09 282.41,-125.44 291.95,-130.05 292.74,-123.09"/>
</g>
</g>
</svg>
        <g id="navigator" transform="translate(0 0)" fill="#404254">
                <rect fill="#f2f5e9" fill-opacity="0.5" stroke="#606060" stroke-width=".5" x="0" y="0" width="60" height="60"/>
                <use id="zoomplus" xlink:href="#zoomPlus" x="17" y="9" onmousedown="handleZoom(evt,'in')"/>
                <use id="zoomminus" xlink:href="#zoomMin" x="42" y="9" onmousedown="handleZoom(evt,'out')"/>
                <use id="reset" xlink:href="#resetDef" x="30" y="36" onmousedown="handleReset()"/>
                <g id="arrowUp" xlink:href="#dirArrow" transform="translate(30 24)" onmousedown="handlePan(0,-1)">
                  <use xlink:href="#rim" fill="#404040">
                        <set attributeName="fill" to="#808080" begin="arrowUp.mouseover" end="arrowUp.mouseout"/>
                  </use>
                  <path fill="none" stroke="white" stroke-width="1.5" d="M0,-3.0v7 M-2.5,-0.5L0,-3.0L2.5,-0.5"/>
                </g>
                <g id="arrowRight" xlink:href="#dirArrow" transform="rotate(90) translate(36 -43)" onmousedown="handlePan(1,0)">
                  <use xlink:href="#rim" fill="#404040">
                        <set attributeName="fill" to="#808080" begin="arrowRight.mouseover" end="arrowRight.mouseout"/>
                  </use>
                  <path fill="none" stroke="white" stroke-width="1.5" d="M0,-3.0v7 M-2.5,-0.5L0,-3.0L2.5,-0.5"/>
                </g>
                <g id="arrowDown" xlink:href="#dirArrow" transform="rotate(180) translate(-30 -48)" onmousedown="handlePan(0,1)">
                  <use xlink:href="#rim" fill="#404040">
                        <set attributeName="fill" to="#808080" begin="arrowDown.mouseover" end="arrowDown.mouseout"/>
                  </use>
                  <path fill="none" stroke="white" stroke-width="1.5" d="M0,-3.0v7 M-2.5,-0.5L0,-3.0L2.5,-0.5"/>
                </g>
                <g id="arrowLeft" xlink:href="#dirArrow" transform="rotate(270) translate(-36 17)" onmousedown="handlePan(-1,0)">
                  <use xlink:href="#rim" fill="#404040">
                        <set attributeName="fill" to="#808080" begin="arrowLeft.mouseover" end="arrowLeft.mouseout"/>
                  </use>
                  <path fill="none" stroke="white" stroke-width="1.5" d="M0,-3.0v7 M-2.5,-0.5L0,-3.0L2.5,-0.5"/>
                </g>
        </g>
        <svg viewBox="0 0 15 15" width="100%" height="30px" preserveAspectRatio="xMaxYMin meet">
         <g id="arrow_out" transform="scale(0.3 0.3)">
          <a xlink:href="class_c_p_s_1_1_d_p_1_1_ph1_1_1_transformer__coll__graph_org.svg" target="_base">
           <rect id="button" ry="5" rx="5" y="6" x="6" height="38" width="38"
                fill="#f2f5e9" fill-opacity="0.5" stroke="#606060" stroke-width="1.0"/>
           <path id="arrow"
             d="M 11.500037,31.436501 C 11.940474,20.09759 22.043105,11.32322 32.158766,21.979434 L 37.068811,17.246167 C 37.068811,17.246167 37.088388,32 37.088388,32 L 22.160133,31.978069 C 22.160133,31.978069 26.997745,27.140456 26.997745,27.140456 C 18.528582,18.264221 13.291696,25.230495 11.500037,31.436501 z"
             style="fill:#404040;"/>
          </a>
         </g>
        </svg>
</svg>
