<?xml version="1.0" encoding="UTF-8" standalone="no"?>
<!DOCTYPE svg PUBLIC "-//W3C//DTD SVG 1.1//EN"
 "http://www.w3.org/Graphics/SVG/1.1/DTD/svg11.dtd">
<!-- Generated by graphviz version 2.42.4 (0)
 -->
<!-- Title: CPS::SP::Ph1::Inductor Pages: 1 -->
<svg width="1162pt" height="192pt"
 viewBox="0.00 0.00 1162.00 192.00" xmlns="http://www.w3.org/2000/svg" xmlns:xlink="http://www.w3.org/1999/xlink">
<g id="graph0" class="graph" transform="scale(1 1) rotate(0) translate(4 188)">
<title>CPS::SP::Ph1::Inductor</title>
<!-- Node1 -->
<g id="node1" class="node">
<title>Node1</title>
<g id="a_node1"><a xlink:title="Static phasor inductor model.">
<polygon fill="#bfbfbf" stroke="black" points="1031,-113.5 1031,-132.5 1154,-132.5 1154,-113.5 1031,-113.5"/>
<text text-anchor="middle" x="1092.5" y="-120.5" font-family="Helvetica,sans-Serif" font-size="10.00">CPS::SP::Ph1::Inductor</text>
</a>
</g>
</g>
<!-- Node2 -->
<g id="node2" class="node">
<title>Node2</title>
<g id="a_node2"><a xlink:href="class_c_p_s_1_1_base_1_1_ph1_1_1_inductor.html" target="_top" xlink:title=" ">
<polygon fill="none" stroke="black" points="852.5,-164.5 852.5,-183.5 987.5,-183.5 987.5,-164.5 852.5,-164.5"/>
<text text-anchor="middle" x="920" y="-171.5" font-family="Helvetica,sans-Serif" font-size="10.00">CPS::Base::Ph1::Inductor</text>
</a>
</g>
</g>
<!-- Node2&#45;&gt;Node1 -->
<g id="edge1" class="edge">
<title>Node2&#45;&gt;Node1</title>
<path fill="none" stroke="midnightblue" d="M970.03,-161.95C983.98,-158.32 999.14,-154.18 1013,-150 1030.66,-144.67 1050.29,-137.92 1065.5,-132.5"/>
<polygon fill="midnightblue" stroke="midnightblue" points="968.94,-158.61 960.13,-164.49 970.69,-165.39 968.94,-158.61"/>
</g>
<!-- Node3 -->
<g id="node3" class="node">
<title>Node3</title>
<g id="a_node3"><a xlink:href="class_c_p_s_1_1_m_n_a_tear_interface.html" target="_top" xlink:title=" ">
<polygon fill="none" stroke="black" points="467,-126.5 467,-145.5 595,-145.5 595,-126.5 467,-126.5"/>
<text text-anchor="middle" x="531" y="-133.5" font-family="Helvetica,sans-Serif" font-size="10.00">CPS::MNATearInterface</text>
</a>
</g>
</g>
<!-- Node3&#45;&gt;Node1 -->
<g id="edge2" class="edge">
<title>Node3&#45;&gt;Node1</title>
<path fill="none" stroke="midnightblue" d="M605.25,-134.3C716.79,-131.71 927.18,-126.82 1030.76,-124.41"/>
<polygon fill="midnightblue" stroke="midnightblue" points="605.01,-130.8 595.09,-134.53 605.17,-137.8 605.01,-130.8"/>
</g>
<!-- Node4 -->
<g id="node4" class="node">
<title>Node4</title>
<g id="a_node4"><a xlink:href="class_c_p_s_1_1_m_n_a_interface.html" target="_top" xlink:title="Interface to be implemented by all models used by the MNA solver.">
<polygon fill="none" stroke="black" points="143.5,-126.5 143.5,-145.5 251.5,-145.5 251.5,-126.5 143.5,-126.5"/>
<text text-anchor="middle" x="197.5" y="-133.5" font-family="Helvetica,sans-Serif" font-size="10.00">CPS::MNAInterface</text>
</a>
</g>
</g>
<!-- Node4&#45;&gt;Node3 -->
<g id="edge3" class="edge">
<title>Node4&#45;&gt;Node3</title>
<path fill="none" stroke="midnightblue" d="M262.06,-136C320.99,-136 408.2,-136 466.96,-136"/>
<polygon fill="midnightblue" stroke="midnightblue" points="261.76,-132.5 251.76,-136 261.76,-139.5 261.76,-132.5"/>
</g>
<!-- Node5 -->
<g id="node5" class="node">
<title>Node5</title>
<g id="a_node5"><a xlink:href="class_c_p_s_1_1_attribute_list.html" target="_top" xlink:title="Base class of objects having attributes to access member variables.">
<polygon fill="none" stroke="black" points="0,-106.5 0,-125.5 101,-125.5 101,-106.5 0,-106.5"/>
<text text-anchor="middle" x="50.5" y="-113.5" font-family="Helvetica,sans-Serif" font-size="10.00">CPS::AttributeList</text>
</a>
</g>
</g>
<!-- Node5&#45;&gt;Node4 -->
<g id="edge4" class="edge">
<title>Node5&#45;&gt;Node4</title>
<path fill="none" stroke="midnightblue" d="M111.33,-124.25C121.84,-125.7 132.72,-127.2 143.04,-128.63"/>
<polygon fill="midnightblue" stroke="midnightblue" points="111.79,-120.78 101.4,-122.88 110.83,-127.72 111.79,-120.78"/>
</g>
<!-- Node8 -->
<g id="node8" class="node">
<title>Node8</title>
<g id="a_node8"><a xlink:href="class_c_p_s_1_1_identified_object.html" target="_top" xlink:title=" ">
<polygon fill="none" stroke="black" points="138,-88.5 138,-107.5 257,-107.5 257,-88.5 138,-88.5"/>
<text text-anchor="middle" x="197.5" y="-95.5" font-family="Helvetica,sans-Serif" font-size="10.00">CPS::IdentifiedObject</text>
</a>
</g>
</g>
<!-- Node5&#45;&gt;Node8 -->
<g id="edge8" class="edge">
<title>Node5&#45;&gt;Node8</title>
<path fill="none" stroke="midnightblue" d="M111.46,-108.56C120.16,-107.48 129.1,-106.37 137.77,-105.29"/>
<polygon fill="midnightblue" stroke="midnightblue" points="110.89,-105.1 101.4,-109.81 111.76,-112.05 110.89,-105.1"/>
</g>
<!-- Node6 -->
<g id="node6" class="node">
<title>Node6</title>
<g id="a_node6"><a xlink:href="class_c_p_s_1_1_sim_power_comp.html" target="_top" xlink:title=" ">
<polygon fill="none" stroke="black" points="856.5,-77 856.5,-107 983.5,-107 983.5,-77 856.5,-77"/>
<text text-anchor="start" x="864.5" y="-95" font-family="Helvetica,sans-Serif" font-size="10.00">CPS::SimPowerComp&lt;</text>
<text text-anchor="middle" x="920" y="-84" font-family="Helvetica,sans-Serif" font-size="10.00"> Complex &gt;</text>
</a>
</g>
</g>
<!-- Node6&#45;&gt;Node1 -->
<g id="edge5" class="edge">
<title>Node6&#45;&gt;Node1</title>
<path fill="none" stroke="midnightblue" d="M993.48,-105.18C1008.79,-107.96 1024.67,-110.85 1039.07,-113.47"/>
<polygon fill="midnightblue" stroke="midnightblue" points="993.98,-101.71 983.52,-103.37 992.73,-108.6 993.98,-101.71"/>
</g>
<!-- Node7 -->
<g id="node7" class="node">
<title>Node7</title>
<g id="a_node7"><a xlink:href="class_c_p_s_1_1_topological_power_comp.html" target="_top" xlink:title=" ">
<polygon fill="none" stroke="black" points="294,-88.5 294,-107.5 449,-107.5 449,-88.5 294,-88.5"/>
<text text-anchor="middle" x="371.5" y="-95.5" font-family="Helvetica,sans-Serif" font-size="10.00">CPS::TopologicalPowerComp</text>
</a>
</g>
</g>
<!-- Node7&#45;&gt;Node6 -->
<g id="edge6" class="edge">
<title>Node7&#45;&gt;Node6</title>
<path fill="none" stroke="midnightblue" d="M459.19,-97.05C569.76,-95.83 758.35,-93.76 856.1,-92.69"/>
<polygon fill="midnightblue" stroke="midnightblue" points="459.02,-93.55 449.06,-97.16 459.1,-100.55 459.02,-93.55"/>
</g>
<!-- Node9 -->
<g id="node9" class="node">
<title>Node9</title>
<g id="a_node9"><a xlink:href="class_c_p_s_1_1_sim_power_comp.html" target="_top" xlink:title="Base class for all components that are transmitting power.">
<polygon fill="none" stroke="black" points="613,-39 613,-69 740,-69 740,-39 613,-39"/>
<text text-anchor="start" x="621" y="-57" font-family="Helvetica,sans-Serif" font-size="10.00">CPS::SimPowerComp&lt;</text>
<text text-anchor="middle" x="676.5" y="-46" font-family="Helvetica,sans-Serif" font-size="10.00"> VarType &gt;</text>
</a>
</g>
</g>
<!-- Node7&#45;&gt;Node9 -->
<g id="edge10" class="edge">
<title>Node7&#45;&gt;Node9</title>
<path fill="none" stroke="midnightblue" d="M446.62,-86.99C453.51,-85.97 460.38,-84.97 467,-84 516.03,-76.84 571.57,-68.86 612.99,-62.92"/>
<polygon fill="midnightblue" stroke="midnightblue" points="445.93,-83.55 436.54,-88.48 446.95,-90.48 445.93,-83.55"/>
</g>
<!-- Node8&#45;&gt;Node7 -->
<g id="edge7" class="edge">
<title>Node8&#45;&gt;Node7</title>
<path fill="none" stroke="midnightblue" d="M267.31,-98C276.02,-98 284.98,-98 293.81,-98"/>
<polygon fill="midnightblue" stroke="midnightblue" points="267.21,-94.5 257.21,-98 267.21,-101.5 267.21,-94.5"/>
</g>
<!-- Node9&#45;&gt;Node6 -->
<g id="edge9" class="edge">
<title>Node9&#45;&gt;Node6</title>
<path fill="none" stroke="orange" stroke-dasharray="5,2" d="M750.3,-62C775.03,-65.03 802.77,-68.78 828,-73 837.23,-74.54 846.95,-76.36 856.47,-78.25"/>
<polygon fill="orange" stroke="orange" points="750.62,-58.51 740.27,-60.78 749.78,-65.46 750.62,-58.51"/>
<text text-anchor="middle" x="793" y="-76" font-family="Helvetica,sans-Serif" font-size="10.00"> &lt; Complex &gt;</text>
</g>
<!-- Node10 -->
<g id="node10" class="node">
<title>Node10</title>
<g id="a_node10"><a xlink:href="class_shared_factory.html" target="_top" xlink:title=" ">
<polygon fill="none" stroke="black" points="846,-19.5 846,-38.5 994,-38.5 994,-19.5 846,-19.5"/>
<text text-anchor="middle" x="920" y="-26.5" font-family="Helvetica,sans-Serif" font-size="10.00">SharedFactory&lt; Inductor &gt;</text>
</a>
</g>
</g>
<!-- Node10&#45;&gt;Node1 -->
<g id="edge11" class="edge">
<title>Node10&#45;&gt;Node1</title>
<path fill="none" stroke="midnightblue" d="M948.03,-43.25C961.83,-50.58 978.85,-59.68 994,-68 1022.45,-83.62 1055.27,-102.27 1074.66,-113.34"/>
<polygon fill="midnightblue" stroke="midnightblue" points="949.54,-40.09 939.06,-38.5 946.26,-46.28 949.54,-40.09"/>
</g>
<!-- Node11 -->
<g id="node11" class="node">
<title>Node11</title>
<g id="a_node11"><a xlink:href="class_shared_factory.html" target="_top" xlink:title=" ">
<polygon fill="none" stroke="black" points="619.5,-0.5 619.5,-19.5 733.5,-19.5 733.5,-0.5 619.5,-0.5"/>
<text text-anchor="middle" x="676.5" y="-7.5" font-family="Helvetica,sans-Serif" font-size="10.00">SharedFactory&lt; T &gt;</text>
</a>
</g>
</g>
<!-- Node11&#45;&gt;Node10 -->
<g id="edge12" class="edge">
<title>Node11&#45;&gt;Node10</title>
<path fill="none" stroke="orange" stroke-dasharray="5,2" d="M743.56,-15.2C775.26,-17.69 813.32,-20.69 845.89,-23.25"/>
<polygon fill="orange" stroke="orange" points="743.76,-11.7 733.51,-14.41 743.21,-18.68 743.76,-11.7"/>
<text text-anchor="middle" x="793" y="-25" font-family="Helvetica,sans-Serif" font-size="10.00"> &lt; Inductor &gt;</text>
</g>
</g>
</svg>
