<?xml version="1.0" encoding="UTF-8" standalone="no"?>
<!DOCTYPE svg PUBLIC "-//W3C//DTD SVG 1.1//EN"
 "http://www.w3.org/Graphics/SVG/1.1/DTD/svg11.dtd">
<!-- Generated by graphviz version 2.50.0 (0)
 -->
<!-- Title: CPS::AttributeBase Pages: 1 -->
<svg width="567pt" height="562pt"
 viewBox="0.00 0.00 567.00 562.39" xmlns="http://www.w3.org/2000/svg" xmlns:xlink="http://www.w3.org/1999/xlink">
<g id="graph0" class="graph" transform="scale(1 1) rotate(0) translate(4 558.39)">
<title>CPS::AttributeBase</title>
<!-- Node1 -->
<g id="node1" class="node">
<title>Node1</title>
<g id="a_node1"><a xlink:title=" ">
<polygon fill="#bfbfbf" stroke="black" points="0,-233.12 0,-252.12 105,-252.12 105,-233.12 0,-233.12"/>
<text text-anchor="middle" x="52.5" y="-240.12" font-family="Helvetica,sans-Serif" font-size="10.00">CPS::AttributeBase</text>
</a>
</g>
</g>
<!-- Node2 -->
<g id="node2" class="node">
<title>Node2</title>
<g id="a_node2"><a xlink:href="class_c_p_s_1_1_attribute.html" target="_top" xlink:title=" ">
<polygon fill="none" stroke="black" points="412.5,-381.62 412.5,-411.62 549.5,-411.62 549.5,-381.62 412.5,-381.62"/>
<text text-anchor="start" x="420.5" y="-399.62" font-family="Helvetica,sans-Serif" font-size="10.00">CPS::Attribute&lt; MatrixVar</text>
<text text-anchor="middle" x="481" y="-388.62" font-family="Helvetica,sans-Serif" font-size="10.00">&lt; Complex &gt; &gt;</text>
</a>
</g>
</g>
<!-- Node1&#45;&gt;Node2 -->
<g id="edge1" class="edge">
<title>Node1&#45;&gt;Node2</title>
<path fill="none" stroke="midnightblue" d="M68.04,-259.9C99.41,-295.67 177.6,-376.93 264,-406.62 313.17,-423.51 372.36,-419.2 416.34,-411.68"/>
<polygon fill="midnightblue" stroke="midnightblue" points="70.6,-257.51 61.42,-252.23 65.3,-262.09 70.6,-257.51"/>
</g>
<!-- Node3 -->
<g id="node3" class="node">
<title>Node3</title>
<g id="a_node3"><a xlink:href="class_c_p_s_1_1_attribute.html" target="_top" xlink:title=" ">
<polygon fill="none" stroke="black" points="412.5,-520.62 412.5,-550.62 549.5,-550.62 549.5,-520.62 412.5,-520.62"/>
<text text-anchor="start" x="420.5" y="-538.62" font-family="Helvetica,sans-Serif" font-size="10.00">CPS::Attribute&lt; MatrixVar</text>
<text text-anchor="middle" x="481" y="-527.62" font-family="Helvetica,sans-Serif" font-size="10.00">&lt; VarType &gt; &gt;</text>
</a>
</g>
</g>
<!-- Node1&#45;&gt;Node3 -->
<g id="edge2" class="edge">
<title>Node1&#45;&gt;Node3</title>
<path fill="none" stroke="midnightblue" d="M55.46,-262.52C60.93,-308.13 80.3,-421.43 142,-488.62 209.53,-562.14 334.59,-559.24 412.2,-548.66"/>
<polygon fill="midnightblue" stroke="midnightblue" points="58.92,-262.01 54.35,-252.45 51.96,-262.77 58.92,-262.01"/>
</g>
<!-- Node4 -->
<g id="node4" class="node">
<title>Node4</title>
<g id="a_node4"><a xlink:href="class_c_p_s_1_1_attribute.html" target="_top" xlink:title=" ">
<polygon fill="none" stroke="black" points="417.5,-480.12 417.5,-499.12 544.5,-499.12 544.5,-480.12 417.5,-480.12"/>
<text text-anchor="middle" x="481" y="-487.12" font-family="Helvetica,sans-Serif" font-size="10.00">CPS::Attribute&lt; String &gt;</text>
</a>
</g>
</g>
<!-- Node1&#45;&gt;Node4 -->
<g id="edge3" class="edge">
<title>Node1&#45;&gt;Node4</title>
<path fill="none" stroke="midnightblue" d="M59.01,-262.17C70.07,-298.83 97.75,-379.1 142,-433.62 184.63,-486.13 199.8,-503.31 264,-524.62 315.04,-541.55 333.83,-541.16 385,-524.62 394.39,-521.58 394.12,-515.92 403,-511.62 413.51,-506.52 425.41,-502.39 436.66,-499.16"/>
<polygon fill="midnightblue" stroke="midnightblue" points="62.28,-260.89 56.12,-252.27 55.57,-262.85 62.28,-260.89"/>
</g>
<!-- Node5 -->
<g id="node5" class="node">
<title>Node5</title>
<g id="a_node5"><a xlink:href="class_c_p_s_1_1_attribute.html" target="_top" xlink:title=" ">
<polygon fill="none" stroke="black" points="424.5,-438.12 424.5,-457.12 537.5,-457.12 537.5,-438.12 424.5,-438.12"/>
<text text-anchor="middle" x="481" y="-445.12" font-family="Helvetica,sans-Serif" font-size="10.00">CPS::Attribute&lt; Int &gt;</text>
</a>
</g>
</g>
<!-- Node1&#45;&gt;Node5 -->
<g id="edge4" class="edge">
<title>Node1&#45;&gt;Node5</title>
<path fill="none" stroke="midnightblue" d="M62.48,-261.33C76.6,-289.47 106.14,-343.36 142,-380.62 187.83,-428.23 200.95,-445.82 264,-465.62 327.9,-485.68 407.37,-469.14 449.86,-457.2"/>
<polygon fill="midnightblue" stroke="midnightblue" points="65.54,-259.63 57.99,-252.21 59.26,-262.72 65.54,-259.63"/>
</g>
<!-- Node6 -->
<g id="node6" class="node">
<title>Node6</title>
<g id="a_node6"><a xlink:href="class_c_p_s_1_1_attribute.html" target="_top" xlink:title=" ">
<polygon fill="none" stroke="black" points="416.5,-221.12 416.5,-240.12 545.5,-240.12 545.5,-221.12 416.5,-221.12"/>
<text text-anchor="middle" x="481" y="-228.12" font-family="Helvetica,sans-Serif" font-size="10.00">CPS::Attribute&lt; Matrix &gt;</text>
</a>
</g>
</g>
<!-- Node1&#45;&gt;Node6 -->
<g id="edge5" class="edge">
<title>Node1&#45;&gt;Node6</title>
<path fill="none" stroke="midnightblue" d="M115.36,-235.56C157.25,-231.14 213.88,-225.87 264,-223.62 317.72,-221.2 331.26,-221.64 385,-223.62 395.16,-223.99 405.93,-224.59 416.41,-225.28"/>
<polygon fill="midnightblue" stroke="midnightblue" points="114.89,-232.09 105.32,-236.63 115.63,-239.05 114.89,-232.09"/>
</g>
<!-- Node7 -->
<g id="node7" class="node">
<title>Node7</title>
<g id="a_node7"><a xlink:href="class_c_p_s_1_1_attribute.html" target="_top" xlink:title=" ">
<polygon fill="none" stroke="black" points="421,-162.12 421,-181.12 541,-181.12 541,-162.12 421,-162.12"/>
<text text-anchor="middle" x="481" y="-169.12" font-family="Helvetica,sans-Serif" font-size="10.00">CPS::Attribute&lt; Bool &gt;</text>
</a>
</g>
</g>
<!-- Node1&#45;&gt;Node7 -->
<g id="edge6" class="edge">
<title>Node1&#45;&gt;Node7</title>
<path fill="none" stroke="midnightblue" d="M81.56,-228.54C121.08,-209.59 195.92,-176.82 264,-164.62 316.93,-155.12 331.26,-162.64 385,-164.62 396.65,-165.04 409.09,-165.77 421,-166.59"/>
<polygon fill="midnightblue" stroke="midnightblue" points="79.76,-225.52 72.3,-233.04 82.82,-231.82 79.76,-225.52"/>
</g>
<!-- Node8 -->
<g id="node8" class="node">
<title>Node8</title>
<g id="a_node8"><a xlink:href="class_c_p_s_1_1_attribute.html" target="_top" xlink:title=" ">
<polygon fill="none" stroke="black" points="411.5,-103.12 411.5,-122.12 550.5,-122.12 550.5,-103.12 411.5,-103.12"/>
<text text-anchor="middle" x="481" y="-110.12" font-family="Helvetica,sans-Serif" font-size="10.00">CPS::Attribute&lt; Complex &gt;</text>
</a>
</g>
</g>
<!-- Node1&#45;&gt;Node8 -->
<g id="edge7" class="edge">
<title>Node1&#45;&gt;Node8</title>
<path fill="none" stroke="midnightblue" d="M70.04,-225.54C87.01,-208.63 114.73,-182.73 142,-164.62 192.17,-131.28 205.29,-119.07 264,-105.62 317.4,-93.38 380.14,-97.38 424.21,-103.07"/>
<polygon fill="midnightblue" stroke="midnightblue" points="67.16,-223.47 62.62,-233.04 72.14,-228.39 67.16,-223.47"/>
</g>
<!-- Node9 -->
<g id="node9" class="node">
<title>Node9</title>
<g id="a_node9"><a xlink:href="class_c_p_s_1_1_attribute.html" target="_top" xlink:title=" ">
<polygon fill="none" stroke="black" points="403,-60.12 403,-79.12 559,-79.12 559,-60.12 403,-60.12"/>
<text text-anchor="middle" x="481" y="-67.12" font-family="Helvetica,sans-Serif" font-size="10.00">CPS::Attribute&lt; MatrixComp &gt;</text>
</a>
</g>
</g>
<!-- Node1&#45;&gt;Node9 -->
<g id="edge8" class="edge">
<title>Node1&#45;&gt;Node9</title>
<path fill="none" stroke="midnightblue" d="M61.86,-223.47C75.19,-194.83 103.71,-140.57 142,-106.62 187.21,-66.52 205.15,-60.3 264,-46.62 329.01,-31.49 407.38,-48.28 449.56,-60.08"/>
<polygon fill="midnightblue" stroke="midnightblue" points="58.58,-222.23 57.65,-232.78 64.96,-225.11 58.58,-222.23"/>
</g>
<!-- Node10 -->
<g id="node10" class="node">
<title>Node10</title>
<g id="a_node10"><a xlink:href="class_c_p_s_1_1_attribute.html" target="_top" xlink:title=" ">
<polygon fill="none" stroke="black" points="421.5,-12.12 421.5,-31.12 540.5,-31.12 540.5,-12.12 421.5,-12.12"/>
<text text-anchor="middle" x="481" y="-19.12" font-family="Helvetica,sans-Serif" font-size="10.00">CPS::Attribute&lt; Real &gt;</text>
</a>
</g>
</g>
<!-- Node1&#45;&gt;Node10 -->
<g id="edge9" class="edge">
<title>Node1&#45;&gt;Node10</title>
<path fill="none" stroke="midnightblue" d="M55.96,-222.78C62.16,-182.18 82.42,-89.91 142,-47.62 231.02,15.58 368.5,0.84 437.47,-12.07"/>
<polygon fill="midnightblue" stroke="midnightblue" points="52.48,-222.38 54.57,-232.77 59.42,-223.35 52.48,-222.38"/>
</g>
<!-- Node11 -->
<g id="node11" class="node">
<title>Node11</title>
<g id="a_node11"><a xlink:href="class_c_p_s_1_1_attribute.html" target="_top" xlink:title=" ">
<polygon fill="none" stroke="black" points="142,-280.12 142,-299.12 246,-299.12 246,-280.12 142,-280.12"/>
<text text-anchor="middle" x="194" y="-287.12" font-family="Helvetica,sans-Serif" font-size="10.00">CPS::Attribute&lt; T &gt;</text>
</a>
</g>
</g>
<!-- Node1&#45;&gt;Node11 -->
<g id="edge10" class="edge">
<title>Node1&#45;&gt;Node11</title>
<path fill="none" stroke="midnightblue" d="M91.5,-255.42C114.47,-263.16 143.28,-272.86 164.33,-279.96"/>
<polygon fill="midnightblue" stroke="midnightblue" points="92.32,-252 81.73,-252.13 90.09,-258.64 92.32,-252"/>
</g>
<!-- Node11&#45;&gt;Node2 -->
<g id="edge13" class="edge">
<title>Node11&#45;&gt;Node2</title>
<path fill="none" stroke="orange" stroke-dasharray="5,2" d="M217.73,-304.86C230.82,-313.1 247.83,-322.93 264,-329.62 315.41,-350.86 331.95,-344.87 385,-361.62 403.77,-367.54 424.3,-374.98 441.46,-381.48"/>
<polygon fill="orange" stroke="orange" points="219.26,-301.69 208.96,-299.21 215.47,-307.57 219.26,-301.69"/>
<text text-anchor="middle" x="324.5" y="-364.62" font-family="Helvetica,sans-Serif" font-size="10.00"> &lt; MatrixVar&lt; Complex &gt; &gt;</text>
</g>
<!-- Node11&#45;&gt;Node3 -->
<g id="edge14" class="edge">
<title>Node11&#45;&gt;Node3</title>
<path fill="none" stroke="orange" stroke-dasharray="5,2" d="M195.95,-309.59C198.96,-349.36 211.52,-438.66 264,-485.62 304.3,-521.68 365.43,-533.21 412.38,-536.29"/>
<polygon fill="orange" stroke="orange" points="199.44,-309.32 195.32,-299.55 192.45,-309.75 199.44,-309.32"/>
<text text-anchor="middle" x="324.5" y="-535.62" font-family="Helvetica,sans-Serif" font-size="10.00"> &lt; MatrixVar&lt; VarType &gt; &gt;</text>
</g>
<!-- Node11&#45;&gt;Node4 -->
<g id="edge15" class="edge">
<title>Node11&#45;&gt;Node4</title>
<path fill="none" stroke="orange" stroke-dasharray="5,2" d="M199.03,-309.19C206.41,-339.96 225.04,-399.43 264,-431.62 288.32,-451.71 368.8,-469.66 424.34,-480.1"/>
<polygon fill="orange" stroke="orange" points="202.41,-308.25 196.81,-299.26 195.58,-309.78 202.41,-308.25"/>
<text text-anchor="middle" x="324.5" y="-473.62" font-family="Helvetica,sans-Serif" font-size="10.00"> &lt; String &gt;</text>
</g>
<!-- Node11&#45;&gt;Node5 -->
<g id="edge16" class="edge">
<title>Node11&#45;&gt;Node5</title>
<path fill="none" stroke="orange" stroke-dasharray="5,2" d="M205.88,-307.77C217.93,-326.45 239,-355.22 264,-372.62 293.97,-393.48 392.45,-423.1 445.47,-438.11"/>
<polygon fill="orange" stroke="orange" points="208.83,-305.89 200.57,-299.27 202.9,-309.6 208.83,-305.89"/>
<text text-anchor="middle" x="324.5" y="-421.62" font-family="Helvetica,sans-Serif" font-size="10.00"> &lt; Int &gt;</text>
</g>
<!-- Node11&#45;&gt;Node6 -->
<g id="edge17" class="edge">
<title>Node11&#45;&gt;Node6</title>
<path fill="none" stroke="orange" stroke-dasharray="5,2" d="M255.42,-278.21C258.32,-277.67 261.19,-277.14 264,-276.62 317.75,-266.67 331.58,-266.2 385,-254.62 404.78,-250.32 426.7,-244.84 444.5,-240.19"/>
<polygon fill="orange" stroke="orange" points="254.68,-274.79 245.49,-280.06 255.96,-281.67 254.68,-274.79"/>
<text text-anchor="middle" x="324.5" y="-279.62" font-family="Helvetica,sans-Serif" font-size="10.00"> &lt; Matrix &gt;</text>
</g>
<!-- Node11&#45;&gt;Node7 -->
<g id="edge18" class="edge">
<title>Node11&#45;&gt;Node7</title>
<path fill="none" stroke="orange" stroke-dasharray="5,2" d="M214.5,-273.72C227.81,-263.46 246.2,-250.45 264,-241.62 296.58,-225.45 394.39,-196.23 446.49,-181.16"/>
<polygon fill="orange" stroke="orange" points="212.23,-271.05 206.54,-279.98 216.56,-276.55 212.23,-271.05"/>
<text text-anchor="middle" x="324.5" y="-244.62" font-family="Helvetica,sans-Serif" font-size="10.00"> &lt; Bool &gt;</text>
</g>
<!-- Node11&#45;&gt;Node8 -->
<g id="edge19" class="edge">
<title>Node11&#45;&gt;Node8</title>
<path fill="none" stroke="orange" stroke-dasharray="5,2" d="M202.92,-270.59C213.54,-247.34 234.51,-208.29 264,-185.62 278.98,-174.09 391.85,-139.13 448.19,-122.12"/>
<polygon fill="orange" stroke="orange" points="199.59,-269.48 198.78,-280.05 206,-272.29 199.59,-269.48"/>
<text text-anchor="middle" x="324.5" y="-188.62" font-family="Helvetica,sans-Serif" font-size="10.00"> &lt; Complex &gt;</text>
</g>
<!-- Node11&#45;&gt;Node9 -->
<g id="edge20" class="edge">
<title>Node11&#45;&gt;Node9</title>
<path fill="none" stroke="orange" stroke-dasharray="5,2" d="M197.83,-269.88C203.76,-235.88 220.72,-166.29 264,-128.62 287.86,-107.85 368.68,-89.64 424.4,-79.13"/>
<polygon fill="orange" stroke="orange" points="194.34,-269.52 196.22,-279.95 201.25,-270.63 194.34,-269.52"/>
<text text-anchor="middle" x="324.5" y="-131.62" font-family="Helvetica,sans-Serif" font-size="10.00"> &lt; MatrixComp &gt;</text>
</g>
<!-- Node11&#45;&gt;Node10 -->
<g id="edge21" class="edge">
<title>Node11&#45;&gt;Node10</title>
<path fill="none" stroke="orange" stroke-dasharray="5,2" d="M195.23,-269.46C196.87,-226.73 206.95,-126.65 264,-73.62 306.38,-34.22 373.25,-23.14 421.37,-20.72"/>
<polygon fill="orange" stroke="orange" points="191.73,-269.6 194.97,-279.68 198.73,-269.78 191.73,-269.6"/>
<text text-anchor="middle" x="324.5" y="-76.62" font-family="Helvetica,sans-Serif" font-size="10.00"> &lt; Real &gt;</text>
</g>
<!-- Node12 -->
<g id="node12" class="node">
<title>Node12</title>
<g id="a_node12"><a xlink:href="class_c_p_s_1_1_attribute_dynamic.html" target="_top" xlink:title=" ">
<polygon fill="none" stroke="black" points="409,-286.12 409,-305.12 553,-305.12 553,-286.12 409,-286.12"/>
<text text-anchor="middle" x="481" y="-293.12" font-family="Helvetica,sans-Serif" font-size="10.00">CPS::AttributeDynamic&lt; T &gt;</text>
</a>
</g>
</g>
<!-- Node11&#45;&gt;Node12 -->
<g id="edge11" class="edge">
<title>Node11&#45;&gt;Node12</title>
<path fill="none" stroke="midnightblue" d="M256.43,-290.91C301.18,-291.85 361.91,-293.13 408.78,-294.12"/>
<polygon fill="midnightblue" stroke="midnightblue" points="256.35,-287.41 246.28,-290.69 256.21,-294.4 256.35,-287.41"/>
</g>
<!-- Node13 -->
<g id="node13" class="node">
<title>Node13</title>
<g id="a_node13"><a xlink:href="class_c_p_s_1_1_attribute_static.html" target="_top" xlink:title=" ">
<polygon fill="none" stroke="black" points="416.5,-324.12 416.5,-343.12 545.5,-343.12 545.5,-324.12 416.5,-324.12"/>
<text text-anchor="middle" x="481" y="-331.12" font-family="Helvetica,sans-Serif" font-size="10.00">CPS::AttributeStatic&lt; T &gt;</text>
</a>
</g>
</g>
<!-- Node11&#45;&gt;Node13 -->
<g id="edge12" class="edge">
<title>Node11&#45;&gt;Node13</title>
<path fill="none" stroke="midnightblue" d="M240.12,-301.54C248.05,-303.4 256.24,-305.18 264,-306.62 314.91,-316.04 373.19,-323.11 416.37,-327.64"/>
<polygon fill="midnightblue" stroke="midnightblue" points="240.83,-298.11 230.28,-299.15 239.18,-304.91 240.83,-298.11"/>
</g>
</g>
</svg>
