<?xml version="1.0" encoding="UTF-8" standalone="no"?>
<!DOCTYPE svg PUBLIC "-//W3C//DTD SVG 1.1//EN"
 "http://www.w3.org/Graphics/SVG/1.1/DTD/svg11.dtd">
<!-- Generated by graphviz version 12.2.1 (20241206.2353)
 -->
<!-- Title: CPS::Signal::DecouplingLineEMT Pages: 1 -->
<svg width="335pt" height="236pt"
 viewBox="0.00 0.00 335.38 235.50" xmlns="http://www.w3.org/2000/svg" xmlns:xlink="http://www.w3.org/1999/xlink">

<svg id="main" version="1.1" xmlns="http://www.w3.org/2000/svg" xmlns:xlink="http://www.w3.org/1999/xlink" xml:space="preserve">

<style type="text/css"><![CDATA[
.node, .edge {opacity: 0.7;}
.node.selected, .edge.selected {opacity: 1;}
.edge:hover path { stroke: red; }
.edge:hover polygon { stroke: red; fill: red; }
]]></style>
<script type="application/ecmascript" xlink:href="svg.min.js"/>
<svg id="graph" class="graph">
<g id="graph0" class="graph" transform="scale(1 1) rotate(0) translate(4 231.5)">
<title>CPS::Signal::DecouplingLineEMT</title>
<!-- Node1 -->
<g id="Node000001" class="node">
<title>Node1</title>
<g id="a_Node000001"><a xlink:title=" ">
<polygon fill="#999999" stroke="#666666" points="226,-22.25 62.25,-22.25 62.25,0 226,0 226,-22.25"/>
<text text-anchor="middle" x="144.12" y="-8.75" font-family="Helvetica,sans-Serif" font-size="10.00">CPS::Signal::DecouplingLineEMT</text>
</a>
</g>
</g>
<!-- Node2 -->
<g id="Node000002" class="node">
<title>Node2</title>
<g id="a_Node000002"><a xlink:href="class_c_p_s_1_1_sim_signal_comp.html" target="_top" xlink:title=" ">
<polygon fill="white" stroke="#666666" points="127,-88.62 17.25,-88.62 17.25,-66.38 127,-66.38 127,-88.62"/>
<text text-anchor="middle" x="72.12" y="-75.12" font-family="Helvetica,sans-Serif" font-size="10.00">CPS::SimSignalComp</text>
</a>
</g>
</g>
<!-- Node2&#45;&gt;Node1 -->
<g id="edge1_Node000001_Node000002" class="edge">
<title>Node2&#45;&gt;Node1</title>
<g id="a_edge1_Node000001_Node000002"><a xlink:title=" ">
<path fill="none" stroke="#63b8ff" d="M91.99,-58.74C104.95,-47.15 121.42,-32.42 132.35,-22.66"/>
<polygon fill="#63b8ff" stroke="#63b8ff" points="89.94,-55.87 84.82,-65.15 94.61,-61.09 89.94,-55.87"/>
</a>
</g>
</g>
<!-- Node3 -->
<g id="Node000003" class="node">
<title>Node3</title>
<g id="a_Node000003"><a xlink:href="class_c_p_s_1_1_topological_signal_comp.html" target="_top" xlink:title=" ">
<polygon fill="white" stroke="#666666" points="144.25,-168.25 0,-168.25 0,-146 144.25,-146 144.25,-168.25"/>
<text text-anchor="middle" x="72.12" y="-154.75" font-family="Helvetica,sans-Serif" font-size="10.00">CPS::TopologicalSignalComp</text>
</a>
</g>
</g>
<!-- Node3&#45;&gt;Node2 -->
<g id="edge2_Node000002_Node000003" class="edge">
<title>Node3&#45;&gt;Node2</title>
<g id="a_edge2_Node000002_Node000003"><a xlink:title=" ">
<path fill="none" stroke="#63b8ff" d="M72.12,-134.38C72.12,-119.47 72.12,-100.37 72.12,-88.8"/>
<polygon fill="#63b8ff" stroke="#63b8ff" points="68.63,-134.14 72.13,-144.14 75.63,-134.14 68.63,-134.14"/>
</a>
</g>
</g>
<!-- Node4 -->
<g id="Node000004" class="node">
<title>Node4</title>
<g id="a_Node000004"><a xlink:href="class_c_p_s_1_1_identified_object.html" target="_top" xlink:title=" ">
<polygon fill="white" stroke="#666666" points="129.62,-227.5 14.62,-227.5 14.62,-205.25 129.62,-205.25 129.62,-227.5"/>
<text text-anchor="middle" x="72.12" y="-214" font-family="Helvetica,sans-Serif" font-size="10.00">CPS::IdentifiedObject</text>
</a>
</g>
</g>
<!-- Node4&#45;&gt;Node3 -->
<g id="edge3_Node000003_Node000004" class="edge">
<title>Node4&#45;&gt;Node3</title>
<g id="a_edge3_Node000003_Node000004"><a xlink:title=" ">
<path fill="none" stroke="#63b8ff" d="M72.12,-193.65C72.12,-185.05 72.12,-175.56 72.12,-168.56"/>
<polygon fill="#63b8ff" stroke="#63b8ff" points="68.63,-193.36 72.13,-203.36 75.63,-193.36 68.63,-193.36"/>
</a>
</g>
</g>
<!-- Node5 -->
<g id="Node000005" class="node">
<title>Node5</title>
<g id="a_Node000005"><a xlink:href="class_shared_factory.html" target="_top" xlink:title=" ">
<polygon fill="white" stroke="#666666" points="288.88,-95.75 145.38,-95.75 145.38,-59.25 288.88,-59.25 288.88,-95.75"/>
<text text-anchor="start" x="153.38" y="-82.25" font-family="Helvetica,sans-Serif" font-size="10.00">SharedFactory&lt; Decoupling</text>
<text text-anchor="middle" x="217.12" y="-68" font-family="Helvetica,sans-Serif" font-size="10.00">LineEMT &gt;</text>
</a>
</g>
</g>
<!-- Node5&#45;&gt;Node1 -->
<g id="edge4_Node000001_Node000005" class="edge">
<title>Node5&#45;&gt;Node1</title>
<g id="a_edge4_Node000001_Node000005"><a xlink:title=" ">
<path fill="none" stroke="#63b8ff" d="M188.78,-51.5C177.41,-41.48 164.93,-30.47 156.06,-22.65"/>
<polygon fill="#63b8ff" stroke="#63b8ff" points="186.23,-53.92 196.04,-57.91 190.86,-48.67 186.23,-53.92"/>
</a>
</g>
</g>
<!-- Node6 -->
<g id="Node000006" class="node">
<title>Node6</title>
<g id="a_Node000006"><a xlink:href="class_shared_factory.html" target="_top" xlink:title=" ">
<polygon fill="white" stroke="#666666" points="269.38,-168.25 164.88,-168.25 164.88,-146 269.38,-146 269.38,-168.25"/>
<text text-anchor="middle" x="217.12" y="-154.75" font-family="Helvetica,sans-Serif" font-size="10.00">SharedFactory&lt; T &gt;</text>
</a>
</g>
</g>
<!-- Node6&#45;&gt;Node5 -->
<g id="edge5_Node000005_Node000006" class="edge">
<title>Node6&#45;&gt;Node5</title>
<g id="a_edge5_Node000005_Node000006"><a xlink:title=" ">
<path fill="none" stroke="orange" stroke-dasharray="5,2" d="M217.12,-134.36C217.12,-122.32 217.12,-107.54 217.12,-96.22"/>
<polygon fill="orange" stroke="orange" points="213.63,-134.14 217.13,-144.14 220.63,-134.14 213.63,-134.14"/>
</a>
</g>
<text text-anchor="middle" x="272.25" y="-118.5" font-family="Helvetica,sans-Serif" font-size="10.00" fill="grey"> &lt; DecouplingLineEMT &gt;</text>
</g>
</g>
</svg>
</svg>

<style type='text/css'>
<![CDATA[
[data-mouse-over-selected='false'] { opacity: 0.7; }
[data-mouse-over-selected='true']  { opacity: 1.0; }
]]>
</style>
<script type="application/ecmascript"><![CDATA[
document.addEventListener('DOMContentLoaded', (event) => {
  highlightEdges();
  highlightAdjacentNodes();
});
]]></script>
</svg>
