<?xml version="1.0" encoding="UTF-8" standalone="no"?>
<!DOCTYPE svg PUBLIC "-//W3C//DTD SVG 1.1//EN"
 "http://www.w3.org/Graphics/SVG/1.1/DTD/svg11.dtd">
<!-- Generated by graphviz version 2.44.0 (0)
 -->
<!-- Title: CPS::AttributeDynamic&lt; T &gt; Pages: 1 -->
<svg width="547pt" height="129pt"
 viewBox="0.00 0.00 547.00 128.50" xmlns="http://www.w3.org/2000/svg" xmlns:xlink="http://www.w3.org/1999/xlink">
<g id="graph0" class="graph" transform="scale(1 1) rotate(0) translate(4 124.5)">
<title>CPS::AttributeDynamic&lt; T &gt;</title>
<!-- Node1 -->
<g id="node1" class="node">
<title>Node1</title>
<g id="a_node1"><a xlink:title=" ">
<polygon fill="#bfbfbf" stroke="black" points="396,-27 396,-46 539,-46 539,-27 396,-27"/>
<text text-anchor="middle" x="467.5" y="-34" font-family="Helvetica" font-size="10.00">CPS::AttributeDynamic&lt; T &gt;</text>
</a>
</g>
</g>
<!-- Node2 -->
<g id="node2" class="node">
<title>Node2</title>
<g id="a_node2"><a xlink:href="class_c_p_s_1_1_attribute.html" target="_top" xlink:title=" ">
<polygon fill="none" stroke="black" points="243.5,-52 243.5,-71 347.5,-71 347.5,-52 243.5,-52"/>
<text text-anchor="middle" x="295.5" y="-59" font-family="Helvetica" font-size="10.00">CPS::Attribute&lt; T &gt;</text>
</a>
</g>
</g>
<!-- Node2&#45;&gt;Node1 -->
<g id="edge1" class="edge">
<title>Node2&#45;&gt;Node1</title>
<path fill="none" stroke="midnightblue" d="M357.7,-52.5C371.97,-50.4 387.22,-48.16 401.64,-46.04"/>
<polygon fill="midnightblue" stroke="midnightblue" points="356.89,-49.08 347.51,-54 357.91,-56.01 356.89,-49.08"/>
</g>
<!-- Node3 -->
<g id="node3" class="node">
<title>Node3</title>
<g id="a_node3"><a xlink:href="class_c_p_s_1_1_attribute_base.html" target="_top" xlink:title=" ">
<polygon fill="none" stroke="black" points="2.5,-101 2.5,-120 105.5,-120 105.5,-101 2.5,-101"/>
<text text-anchor="middle" x="54" y="-108" font-family="Helvetica" font-size="10.00">CPS::AttributeBase</text>
</a>
</g>
</g>
<!-- Node3&#45;&gt;Node2 -->
<g id="edge2" class="edge">
<title>Node3&#45;&gt;Node2</title>
<path fill="none" stroke="midnightblue" d="M111.42,-98.96C152.94,-90.46 208.72,-79.05 247.76,-71.06"/>
<polygon fill="midnightblue" stroke="midnightblue" points="110.56,-95.56 101.46,-100.99 111.96,-102.42 110.56,-95.56"/>
</g>
<!-- Node4 -->
<g id="node4" class="node">
<title>Node4</title>
<g id="a_node4"><a xlink:title=" ">
<polygon fill="none" stroke="#bfbfbf" points="0,-41 0,-82 108,-82 108,-41 0,-41"/>
<text text-anchor="start" x="8" y="-70" font-family="Helvetica" font-size="10.00">std::enable_shared</text>
<text text-anchor="start" x="8" y="-59" font-family="Helvetica" font-size="10.00">_from_this&lt; Attribute</text>
<text text-anchor="middle" x="54" y="-48" font-family="Helvetica" font-size="10.00">&lt; T &gt; &gt;</text>
</a>
</g>
</g>
<!-- Node4&#45;&gt;Node2 -->
<g id="edge3" class="edge">
<title>Node4&#45;&gt;Node2</title>
<path fill="none" stroke="midnightblue" d="M118.34,-61.5C157.31,-61.5 206.61,-61.5 243.14,-61.5"/>
<polygon fill="midnightblue" stroke="midnightblue" points="118.15,-58 108.15,-61.5 118.15,-65 118.15,-58"/>
</g>
<!-- Node5 -->
<g id="node5" class="node">
<title>Node5</title>
<g id="a_node5"><a xlink:href="class_shared_factory.html" target="_top" xlink:title=" ">
<polygon fill="none" stroke="black" points="232,-0.5 232,-30.5 359,-30.5 359,-0.5 232,-0.5"/>
<text text-anchor="start" x="240" y="-18.5" font-family="Helvetica" font-size="10.00">SharedFactory&lt; Attribute</text>
<text text-anchor="middle" x="295.5" y="-7.5" font-family="Helvetica" font-size="10.00">Dynamic&lt; T &gt; &gt;</text>
</a>
</g>
</g>
<!-- Node5&#45;&gt;Node1 -->
<g id="edge4" class="edge">
<title>Node5&#45;&gt;Node1</title>
<path fill="none" stroke="midnightblue" d="M369.5,-24.52C378.26,-25.6 387.19,-26.7 395.92,-27.78"/>
<polygon fill="midnightblue" stroke="midnightblue" points="369.67,-21.01 359.32,-23.26 368.81,-27.96 369.67,-21.01"/>
</g>
<!-- Node6 -->
<g id="node6" class="node">
<title>Node6</title>
<g id="a_node6"><a xlink:href="class_shared_factory.html" target="_top" xlink:title=" ">
<polygon fill="none" stroke="black" points="1.5,-3 1.5,-22 106.5,-22 106.5,-3 1.5,-3"/>
<text text-anchor="middle" x="54" y="-10" font-family="Helvetica" font-size="10.00">SharedFactory&lt; T &gt;</text>
</a>
</g>
</g>
<!-- Node6&#45;&gt;Node5 -->
<g id="edge5" class="edge">
<title>Node6&#45;&gt;Node5</title>
<path fill="none" stroke="orange" stroke-dasharray="5,2" d="M116.86,-13.27C152.2,-13.72 196.39,-14.27 231.86,-14.72"/>
<polygon fill="orange" stroke="orange" points="116.72,-9.77 106.67,-13.15 116.63,-16.77 116.72,-9.77"/>
<text text-anchor="start" x="126" y="-28.5" font-family="Helvetica" font-size="10.00"> &lt; AttributeDynamic</text>
<text text-anchor="middle" x="170" y="-17.5" font-family="Helvetica" font-size="10.00">&lt; T &gt; &gt;</text>
</g>
</g>
</svg>
