<?xml version="1.0" encoding="UTF-8" standalone="no"?>
<!DOCTYPE svg PUBLIC "-//W3C//DTD SVG 1.1//EN"
 "http://www.w3.org/Graphics/SVG/1.1/DTD/svg11.dtd">
<!-- Generated by graphviz version 2.50.0 (0)
 -->
<!-- Title: CPS::SP::Ph1::Load Pages: 1 -->
<svg width="1320pt" height="187pt"
 viewBox="0.00 0.00 1320.00 186.50" xmlns="http://www.w3.org/2000/svg" xmlns:xlink="http://www.w3.org/1999/xlink">
<g id="graph0" class="graph" transform="scale(1 1) rotate(0) translate(4 182.5)">
<title>CPS::SP::Ph1::Load</title>
<!-- Node1 -->
<g id="node1" class="node">
<title>Node1</title>
<g id="a_node1"><a xlink:title=" ">
<polygon fill="#bfbfbf" stroke="black" points="1208,-38.5 1208,-57.5 1312,-57.5 1312,-38.5 1208,-38.5"/>
<text text-anchor="middle" x="1260" y="-45.5" font-family="Helvetica,sans-Serif" font-size="10.00">CPS::SP::Ph1::Load</text>
</a>
</g>
</g>
<!-- Node2 -->
<g id="node2" class="node">
<title>Node2</title>
<g id="a_node2"><a xlink:href="class_c_p_s_1_1_composite_power_comp.html" target="_top" xlink:title=" ">
<polygon fill="none" stroke="black" points="1025,-77 1025,-107 1171,-107 1171,-77 1025,-77"/>
<text text-anchor="start" x="1033" y="-95" font-family="Helvetica,sans-Serif" font-size="10.00">CPS::CompositePowerComp</text>
<text text-anchor="middle" x="1098" y="-84" font-family="Helvetica,sans-Serif" font-size="10.00">&lt; Complex &gt;</text>
</a>
</g>
</g>
<!-- Node2&#45;&gt;Node1 -->
<g id="edge1" class="edge">
<title>Node2&#45;&gt;Node1</title>
<path fill="none" stroke="midnightblue" d="M1163.35,-74.3C1184.13,-68.59 1206.37,-62.47 1224.17,-57.58"/>
<polygon fill="midnightblue" stroke="midnightblue" points="1162.33,-70.95 1153.62,-76.98 1164.19,-77.7 1162.33,-70.95"/>
</g>
<!-- Node3 -->
<g id="node3" class="node">
<title>Node3</title>
<g id="a_node3"><a xlink:href="class_c_p_s_1_1_m_n_a_sim_power_comp.html" target="_top" xlink:title=" ">
<polygon fill="none" stroke="black" points="788.5,-126 788.5,-156 925.5,-156 925.5,-126 788.5,-126"/>
<text text-anchor="start" x="796.5" y="-144" font-family="Helvetica,sans-Serif" font-size="10.00">CPS::MNASimPowerComp</text>
<text text-anchor="middle" x="857" y="-133" font-family="Helvetica,sans-Serif" font-size="10.00">&lt; Complex &gt;</text>
</a>
</g>
</g>
<!-- Node3&#45;&gt;Node2 -->
<g id="edge2" class="edge">
<title>Node3&#45;&gt;Node2</title>
<path fill="none" stroke="midnightblue" d="M935.49,-125.11C964.13,-119.24 996.46,-112.61 1024.62,-106.84"/>
<polygon fill="midnightblue" stroke="midnightblue" points="934.62,-121.72 925.53,-127.16 936.03,-128.58 934.62,-121.72"/>
</g>
<!-- Node4 -->
<g id="node4" class="node">
<title>Node4</title>
<g id="a_node4"><a xlink:href="class_c_p_s_1_1_sim_power_comp.html" target="_top" xlink:title=" ">
<polygon fill="none" stroke="black" points="561,-148 561,-178 680,-178 680,-148 561,-148"/>
<text text-anchor="start" x="569" y="-166" font-family="Helvetica,sans-Serif" font-size="10.00">CPS::SimPowerComp&lt;</text>
<text text-anchor="middle" x="620.5" y="-155" font-family="Helvetica,sans-Serif" font-size="10.00"> Complex &gt;</text>
</a>
</g>
</g>
<!-- Node4&#45;&gt;Node3 -->
<g id="edge3" class="edge">
<title>Node4&#45;&gt;Node3</title>
<path fill="none" stroke="midnightblue" d="M690.31,-156.54C721.18,-153.65 757.47,-150.24 788.21,-147.36"/>
<polygon fill="midnightblue" stroke="midnightblue" points="689.7,-153.09 680.07,-157.51 690.35,-160.06 689.7,-153.09"/>
</g>
<!-- Node5 -->
<g id="node5" class="node">
<title>Node5</title>
<g id="a_node5"><a xlink:href="class_c_p_s_1_1_topological_power_comp.html" target="_top" xlink:title=" ">
<polygon fill="none" stroke="black" points="153,-147.5 153,-166.5 301,-166.5 301,-147.5 153,-147.5"/>
<text text-anchor="middle" x="227" y="-154.5" font-family="Helvetica,sans-Serif" font-size="10.00">CPS::TopologicalPowerComp</text>
</a>
</g>
</g>
<!-- Node5&#45;&gt;Node4 -->
<g id="edge4" class="edge">
<title>Node5&#45;&gt;Node4</title>
<path fill="none" stroke="midnightblue" d="M311.3,-160.88C372.82,-163.33 458.62,-165.88 534,-165 542.61,-164.9 551.71,-164.74 560.63,-164.56"/>
<polygon fill="midnightblue" stroke="midnightblue" points="311.39,-157.38 301.26,-160.47 311.11,-164.37 311.39,-157.38"/>
</g>
<!-- Node7 -->
<g id="node7" class="node">
<title>Node7</title>
<g id="a_node7"><a xlink:href="class_c_p_s_1_1_sim_power_comp.html" target="_top" xlink:title="Base class for all components that are transmitting power.">
<polygon fill="none" stroke="black" points="338,-120 338,-150 457,-150 457,-120 338,-120"/>
<text text-anchor="start" x="346" y="-138" font-family="Helvetica,sans-Serif" font-size="10.00">CPS::SimPowerComp&lt;</text>
<text text-anchor="middle" x="397.5" y="-127" font-family="Helvetica,sans-Serif" font-size="10.00"> VarType &gt;</text>
</a>
</g>
</g>
<!-- Node5&#45;&gt;Node7 -->
<g id="edge7" class="edge">
<title>Node5&#45;&gt;Node7</title>
<path fill="none" stroke="midnightblue" d="M311.12,-146.15C320.18,-144.97 329.25,-143.78 337.92,-142.65"/>
<polygon fill="midnightblue" stroke="midnightblue" points="310.39,-142.71 300.93,-147.48 311.3,-149.65 310.39,-142.71"/>
</g>
<!-- Node6 -->
<g id="node6" class="node">
<title>Node6</title>
<g id="a_node6"><a xlink:href="class_c_p_s_1_1_identified_object.html" target="_top" xlink:title=" ">
<polygon fill="none" stroke="black" points="0,-147.5 0,-166.5 116,-166.5 116,-147.5 0,-147.5"/>
<text text-anchor="middle" x="58" y="-154.5" font-family="Helvetica,sans-Serif" font-size="10.00">CPS::IdentifiedObject</text>
</a>
</g>
</g>
<!-- Node6&#45;&gt;Node5 -->
<g id="edge5" class="edge">
<title>Node6&#45;&gt;Node5</title>
<path fill="none" stroke="midnightblue" d="M126.13,-157C134.88,-157 143.88,-157 152.72,-157"/>
<polygon fill="midnightblue" stroke="midnightblue" points="126,-153.5 116,-157 126,-160.5 126,-153.5"/>
</g>
<!-- Node7&#45;&gt;Node4 -->
<g id="edge6" class="edge">
<title>Node7&#45;&gt;Node4</title>
<path fill="none" stroke="orange" stroke-dasharray="5,2" d="M467.14,-143.7C497.22,-147.51 532.14,-151.93 560.97,-155.58"/>
<polygon fill="orange" stroke="orange" points="467.5,-140.21 457.14,-142.43 466.62,-147.16 467.5,-140.21"/>
<text text-anchor="middle" x="504.5" y="-154" font-family="Helvetica,sans-Serif" font-size="10.00"> &lt; Complex &gt;</text>
</g>
<!-- Node9 -->
<g id="node9" class="node">
<title>Node9</title>
<g id="a_node9"><a xlink:href="class_c_p_s_1_1_m_n_a_sim_power_comp.html" target="_top" xlink:title="Base class for all MNA components that are transmitting power.">
<polygon fill="none" stroke="black" points="552,-99 552,-129 689,-129 689,-99 552,-99"/>
<text text-anchor="start" x="560" y="-117" font-family="Helvetica,sans-Serif" font-size="10.00">CPS::MNASimPowerComp</text>
<text text-anchor="middle" x="620.5" y="-106" font-family="Helvetica,sans-Serif" font-size="10.00">&lt; VarType &gt;</text>
</a>
</g>
</g>
<!-- Node7&#45;&gt;Node9 -->
<g id="edge10" class="edge">
<title>Node7&#45;&gt;Node9</title>
<path fill="none" stroke="midnightblue" d="M467.28,-128.46C494.25,-125.9 525.11,-122.97 551.97,-120.42"/>
<polygon fill="midnightblue" stroke="midnightblue" points="466.77,-125 457.14,-129.43 467.43,-131.97 466.77,-125"/>
</g>
<!-- Node8 -->
<g id="node8" class="node">
<title>Node8</title>
<g id="a_node8"><a xlink:href="class_c_p_s_1_1_m_n_a_interface.html" target="_top" xlink:title="Interface to be implemented by all models used by the MNA solver.">
<polygon fill="none" stroke="black" points="344,-71.5 344,-90.5 451,-90.5 451,-71.5 344,-71.5"/>
<text text-anchor="middle" x="397.5" y="-78.5" font-family="Helvetica,sans-Serif" font-size="10.00">CPS::MNAInterface</text>
</a>
</g>
</g>
<!-- Node8&#45;&gt;Node3 -->
<g id="edge8" class="edge">
<title>Node8&#45;&gt;Node3</title>
<path fill="none" stroke="midnightblue" d="M461.42,-78.17C520.58,-76.64 611.39,-77.18 689,-90 701.04,-91.99 763.99,-111.65 809.05,-125.96"/>
<polygon fill="midnightblue" stroke="midnightblue" points="461.02,-74.68 451.12,-78.47 461.22,-81.68 461.02,-74.68"/>
</g>
<!-- Node8&#45;&gt;Node9 -->
<g id="edge11" class="edge">
<title>Node8&#45;&gt;Node9</title>
<path fill="none" stroke="midnightblue" d="M461.31,-90.38C489.55,-94.6 522.94,-99.58 551.75,-103.88"/>
<polygon fill="midnightblue" stroke="midnightblue" points="461.56,-86.88 451.15,-88.86 460.53,-93.8 461.56,-86.88"/>
</g>
<!-- Node9&#45;&gt;Node3 -->
<g id="edge9" class="edge">
<title>Node9&#45;&gt;Node3</title>
<path fill="none" stroke="orange" stroke-dasharray="5,2" d="M699.04,-122.93C727.84,-126.24 760.28,-129.98 788.15,-133.19"/>
<polygon fill="orange" stroke="orange" points="699.35,-119.44 689.01,-121.77 698.55,-126.39 699.35,-119.44"/>
<text text-anchor="middle" x="736.5" y="-132" font-family="Helvetica,sans-Serif" font-size="10.00"> &lt; Complex &gt;</text>
</g>
<!-- Node10 -->
<g id="node10" class="node">
<title>Node10</title>
<g id="a_node10"><a xlink:href="class_c_p_s_1_1_composite_power_comp.html" target="_top" xlink:title="Base class for composite power components.">
<polygon fill="none" stroke="black" points="784,-77 784,-107 930,-107 930,-77 784,-77"/>
<text text-anchor="start" x="792" y="-95" font-family="Helvetica,sans-Serif" font-size="10.00">CPS::CompositePowerComp</text>
<text text-anchor="middle" x="857" y="-84" font-family="Helvetica,sans-Serif" font-size="10.00">&lt; VarType &gt;</text>
</a>
</g>
</g>
<!-- Node9&#45;&gt;Node10 -->
<g id="edge13" class="edge">
<title>Node9&#45;&gt;Node10</title>
<path fill="none" stroke="midnightblue" d="M699.27,-106.7C726.48,-104.15 756.9,-101.3 783.64,-98.79"/>
<polygon fill="midnightblue" stroke="midnightblue" points="698.64,-103.25 689.01,-107.67 699.3,-110.22 698.64,-103.25"/>
</g>
<!-- Node10&#45;&gt;Node2 -->
<g id="edge12" class="edge">
<title>Node10&#45;&gt;Node2</title>
<path fill="none" stroke="orange" stroke-dasharray="5,2" d="M940.38,-92C967.8,-92 998.11,-92 1024.7,-92"/>
<polygon fill="orange" stroke="orange" points="940.03,-88.5 930.03,-92 940.03,-95.5 940.03,-88.5"/>
<text text-anchor="middle" x="977.5" y="-95" font-family="Helvetica,sans-Serif" font-size="10.00"> &lt; Complex &gt;</text>
</g>
<!-- Node11 -->
<g id="node11" class="node">
<title>Node11</title>
<g id="a_node11"><a xlink:href="class_shared_factory.html" target="_top" xlink:title=" ">
<polygon fill="none" stroke="black" points="1037,-38.5 1037,-57.5 1159,-57.5 1159,-38.5 1037,-38.5"/>
<text text-anchor="middle" x="1098" y="-45.5" font-family="Helvetica,sans-Serif" font-size="10.00">SharedFactory&lt; Load &gt;</text>
</a>
</g>
</g>
<!-- Node11&#45;&gt;Node1 -->
<g id="edge14" class="edge">
<title>Node11&#45;&gt;Node1</title>
<path fill="none" stroke="midnightblue" d="M1169.32,-48C1182.26,-48 1195.55,-48 1207.8,-48"/>
<polygon fill="midnightblue" stroke="midnightblue" points="1169.03,-44.5 1159.03,-48 1169.03,-51.5 1169.03,-44.5"/>
</g>
<!-- Node12 -->
<g id="node12" class="node">
<title>Node12</title>
<g id="a_node12"><a xlink:href="class_shared_factory.html" target="_top" xlink:title=" ">
<polygon fill="none" stroke="black" points="804.5,-38.5 804.5,-57.5 909.5,-57.5 909.5,-38.5 804.5,-38.5"/>
<text text-anchor="middle" x="857" y="-45.5" font-family="Helvetica,sans-Serif" font-size="10.00">SharedFactory&lt; T &gt;</text>
</a>
</g>
</g>
<!-- Node12&#45;&gt;Node11 -->
<g id="edge15" class="edge">
<title>Node12&#45;&gt;Node11</title>
<path fill="none" stroke="orange" stroke-dasharray="5,2" d="M919.93,-48C955.88,-48 1000.98,-48 1036.66,-48"/>
<polygon fill="orange" stroke="orange" points="919.57,-44.5 909.57,-48 919.57,-51.5 919.57,-44.5"/>
<text text-anchor="middle" x="977.5" y="-51" font-family="Helvetica,sans-Serif" font-size="10.00"> &lt; Load &gt;</text>
</g>
<!-- Node13 -->
<g id="node13" class="node">
<title>Node13</title>
<g id="a_node13"><a xlink:href="class_c_p_s_1_1_p_f_solver_interface_bus.html" target="_top" xlink:title="Common base class of all Component templates.">
<polygon fill="none" stroke="black" points="1027.5,-0.5 1027.5,-19.5 1168.5,-19.5 1168.5,-0.5 1027.5,-0.5"/>
<text text-anchor="middle" x="1098" y="-7.5" font-family="Helvetica,sans-Serif" font-size="10.00">CPS::PFSolverInterfaceBus</text>
</a>
</g>
</g>
<!-- Node13&#45;&gt;Node1 -->
<g id="edge16" class="edge">
<title>Node13&#45;&gt;Node1</title>
<path fill="none" stroke="midnightblue" d="M1149.39,-21.97C1171.81,-27.29 1197.85,-33.48 1218.92,-38.48"/>
<polygon fill="midnightblue" stroke="midnightblue" points="1149.91,-18.49 1139.37,-19.59 1148.3,-25.31 1149.91,-18.49"/>
</g>
</g>
</svg>
