<?xml version="1.0" encoding="UTF-8" standalone="no"?>
<!DOCTYPE svg PUBLIC "-//W3C//DTD SVG 1.1//EN"
 "http://www.w3.org/Graphics/SVG/1.1/DTD/svg11.dtd">
<!-- Generated by graphviz version 12.2.1 (20241206.2353)
 -->
<!-- Title: CPS::SP::Ph1::SynchronGenerator Pages: 1 -->
<svg width="1009pt" height="140pt"
 viewBox="0.00 0.00 1009.00 140.25" xmlns="http://www.w3.org/2000/svg" xmlns:xlink="http://www.w3.org/1999/xlink">
<g id="graph0" class="graph" transform="scale(1 1) rotate(0) translate(4 136.25)">
<title>CPS::SP::Ph1::SynchronGenerator</title>
<!-- Node1 -->
<g id="Node000001" class="node">
<title>Node1</title>
<g id="a_Node000001"><a xlink:title=" ">
<polygon fill="#999999" stroke="#666666" points="1001,-62.25 829,-62.25 829,-40 1001,-40 1001,-62.25"/>
<text text-anchor="middle" x="915" y="-48.75" font-family="Helvetica,sans-Serif" font-size="10.00">CPS::SP::Ph1::SynchronGenerator</text>
</a>
</g>
</g>
<!-- Node2 -->
<g id="Node000002" class="node">
<title>Node2</title>
<g id="a_Node000002"><a xlink:href="class_c_p_s_1_1_sim_power_comp.html" target="_top" xlink:title=" ">
<polygon fill="white" stroke="#666666" points="756,-116.38 637.25,-116.38 637.25,-79.88 756,-79.88 756,-116.38"/>
<text text-anchor="start" x="645.25" y="-102.88" font-family="Helvetica,sans-Serif" font-size="10.00">CPS::SimPowerComp&lt;</text>
<text text-anchor="middle" x="696.62" y="-88.62" font-family="Helvetica,sans-Serif" font-size="10.00"> Complex &gt;</text>
</a>
</g>
</g>
<!-- Node2&#45;&gt;Node1 -->
<g id="edge1_Node000001_Node000002" class="edge">
<title>Node2&#45;&gt;Node1</title>
<g id="a_edge1_Node000001_Node000002"><a xlink:title=" ">
<path fill="none" stroke="#63b8ff" d="M767.39,-82.97C797.68,-76.39 832.57,-68.81 860.72,-62.7"/>
<polygon fill="#63b8ff" stroke="#63b8ff" points="766.97,-79.48 757.94,-85.02 768.46,-86.32 766.97,-79.48"/>
</a>
</g>
</g>
<!-- Node3 -->
<g id="Node000003" class="node">
<title>Node3</title>
<g id="a_Node000003"><a xlink:href="class_c_p_s_1_1_topological_power_comp.html" target="_top" xlink:title=" ">
<polygon fill="white" stroke="#666666" points="299.25,-132.25 152,-132.25 152,-110 299.25,-110 299.25,-132.25"/>
<text text-anchor="middle" x="225.62" y="-118.75" font-family="Helvetica,sans-Serif" font-size="10.00">CPS::TopologicalPowerComp</text>
</a>
</g>
</g>
<!-- Node3&#45;&gt;Node2 -->
<g id="edge2_Node000002_Node000003" class="edge">
<title>Node3&#45;&gt;Node2</title>
<g id="a_edge2_Node000002_Node000003"><a xlink:title=" ">
<path fill="none" stroke="#63b8ff" d="M311.23,-124.52C319.68,-124.77 328.13,-124.98 336.25,-125.12 446.08,-127.13 474.12,-128.67 583.25,-116.12 600.72,-114.12 619.62,-111.33 636.86,-108.55"/>
<polygon fill="#63b8ff" stroke="#63b8ff" points="311.35,-121.02 301.25,-124.21 311.13,-128.02 311.35,-121.02"/>
</a>
</g>
</g>
<!-- Node5 -->
<g id="Node000005" class="node">
<title>Node5</title>
<g id="a_Node000005"><a xlink:href="class_c_p_s_1_1_sim_power_comp.html" target="_top" xlink:title="Base class for all components that are transmitting power.">
<polygon fill="white" stroke="#666666" points="455,-116.38 336.25,-116.38 336.25,-79.88 455,-79.88 455,-116.38"/>
<text text-anchor="start" x="344.25" y="-102.88" font-family="Helvetica,sans-Serif" font-size="10.00">CPS::SimPowerComp&lt;</text>
<text text-anchor="middle" x="395.62" y="-88.62" font-family="Helvetica,sans-Serif" font-size="10.00"> VarType &gt;</text>
</a>
</g>
</g>
<!-- Node3&#45;&gt;Node5 -->
<g id="edge5_Node000005_Node000003" class="edge">
<title>Node3&#45;&gt;Node5</title>
<g id="a_edge5_Node000005_Node000003"><a xlink:title=" ">
<path fill="none" stroke="#63b8ff" d="M310.58,-109.63C319.16,-108.46 327.74,-107.28 335.96,-106.16"/>
<polygon fill="#63b8ff" stroke="#63b8ff" points="310.27,-106.14 300.83,-110.97 311.22,-113.08 310.27,-106.14"/>
</a>
</g>
</g>
<!-- Node4 -->
<g id="Node000004" class="node">
<title>Node4</title>
<g id="a_Node000004"><a xlink:href="class_c_p_s_1_1_identified_object.html" target="_top" xlink:title=" ">
<polygon fill="white" stroke="#666666" points="115,-132.25 0,-132.25 0,-110 115,-110 115,-132.25"/>
<text text-anchor="middle" x="57.5" y="-118.75" font-family="Helvetica,sans-Serif" font-size="10.00">CPS::IdentifiedObject</text>
</a>
</g>
</g>
<!-- Node4&#45;&gt;Node3 -->
<g id="edge3_Node000003_Node000004" class="edge">
<title>Node4&#45;&gt;Node3</title>
<g id="a_edge3_Node000003_Node000004"><a xlink:title=" ">
<path fill="none" stroke="#63b8ff" d="M126.7,-121.12C134.95,-121.12 143.41,-121.12 151.73,-121.12"/>
<polygon fill="#63b8ff" stroke="#63b8ff" points="126.72,-117.63 116.72,-121.13 126.72,-124.63 126.72,-117.63"/>
</a>
</g>
</g>
<!-- Node5&#45;&gt;Node2 -->
<g id="edge4_Node000002_Node000005" class="edge">
<title>Node5&#45;&gt;Node2</title>
<g id="a_edge4_Node000002_Node000005"><a xlink:title=" ">
<path fill="none" stroke="orange" stroke-dasharray="5,2" d="M466.75,-98.12C518.44,-98.12 587.98,-98.12 636.79,-98.12"/>
<polygon fill="orange" stroke="orange" points="466.85,-94.63 456.85,-98.13 466.85,-101.63 466.85,-94.63"/>
</a>
</g>
<text text-anchor="middle" x="528.12" y="-102.88" font-family="Helvetica,sans-Serif" font-size="10.00" fill="grey"> &lt; Complex &gt;</text>
</g>
<!-- Node6 -->
<g id="Node000006" class="node">
<title>Node6</title>
<g id="a_Node000006"><a xlink:href="class_shared_factory.html" target="_top" xlink:title=" ">
<polygon fill="white" stroke="#666666" points="792,-62.25 601.25,-62.25 601.25,-40 792,-40 792,-62.25"/>
<text text-anchor="middle" x="696.62" y="-48.75" font-family="Helvetica,sans-Serif" font-size="10.00">SharedFactory&lt; SynchronGenerator &gt;</text>
</a>
</g>
</g>
<!-- Node6&#45;&gt;Node1 -->
<g id="edge6_Node000001_Node000006" class="edge">
<title>Node6&#45;&gt;Node1</title>
<g id="a_edge6_Node000001_Node000006"><a xlink:title=" ">
<path fill="none" stroke="#63b8ff" d="M803.67,-51.12C812.1,-51.12 820.54,-51.12 828.79,-51.12"/>
<polygon fill="#63b8ff" stroke="#63b8ff" points="803.73,-47.63 793.73,-51.13 803.73,-54.63 803.73,-47.63"/>
</a>
</g>
</g>
<!-- Node7 -->
<g id="Node000007" class="node">
<title>Node7</title>
<g id="a_Node000007"><a xlink:href="class_shared_factory.html" target="_top" xlink:title=" ">
<polygon fill="white" stroke="#666666" points="447.88,-62.25 343.38,-62.25 343.38,-40 447.88,-40 447.88,-62.25"/>
<text text-anchor="middle" x="395.62" y="-48.75" font-family="Helvetica,sans-Serif" font-size="10.00">SharedFactory&lt; T &gt;</text>
</a>
</g>
</g>
<!-- Node7&#45;&gt;Node6 -->
<g id="edge7_Node000006_Node000007" class="edge">
<title>Node7&#45;&gt;Node6</title>
<g id="a_edge7_Node000006_Node000007"><a xlink:title=" ">
<path fill="none" stroke="orange" stroke-dasharray="5,2" d="M459.81,-51.12C500.72,-51.12 554.76,-51.12 600.78,-51.12"/>
<polygon fill="orange" stroke="orange" points="459.88,-47.63 449.88,-51.13 459.88,-54.63 459.88,-47.63"/>
</a>
</g>
<text text-anchor="middle" x="528.12" y="-55.88" font-family="Helvetica,sans-Serif" font-size="10.00" fill="grey"> &lt; SynchronGenerator &gt;</text>
</g>
<!-- Node8 -->
<g id="Node000008" class="node">
<title>Node8</title>
<g id="a_Node000008"><a xlink:href="class_c_p_s_1_1_p_f_solver_interface_bus.html" target="_top" xlink:title="Common base class of all Component templates.">
<polygon fill="white" stroke="#666666" points="766.88,-22.25 626.38,-22.25 626.38,0 766.88,0 766.88,-22.25"/>
<text text-anchor="middle" x="696.62" y="-8.75" font-family="Helvetica,sans-Serif" font-size="10.00">CPS::PFSolverInterfaceBus</text>
</a>
</g>
</g>
<!-- Node8&#45;&gt;Node1 -->
<g id="edge8_Node000001_Node000008" class="edge">
<title>Node8&#45;&gt;Node1</title>
<g id="a_edge8_Node000001_Node000008"><a xlink:title=" ">
<path fill="none" stroke="#63b8ff" d="M771.78,-24.83C797.68,-29.62 826.47,-34.94 851.34,-39.54"/>
<polygon fill="#63b8ff" stroke="#63b8ff" points="772.46,-21.4 761.99,-23.02 771.19,-28.28 772.46,-21.4"/>
</a>
</g>
</g>
</g>
</svg>
