<?xml version="1.0" encoding="UTF-8" standalone="no"?>
<!DOCTYPE svg PUBLIC "-//W3C//DTD SVG 1.1//EN"
 "http://www.w3.org/Graphics/SVG/1.1/DTD/svg11.dtd">
<!-- Generated by graphviz version 2.44.0 (0)
 -->
<!-- Title: CPS::SimNode&lt; VarType &gt; Pages: 1 -->
<svg width="1237pt" height="331pt"
 viewBox="0.00 0.00 1237.00 331.00" xmlns="http://www.w3.org/2000/svg" xmlns:xlink="http://www.w3.org/1999/xlink">
<g id="graph0" class="graph" transform="scale(1 1) rotate(0) translate(4 327)">
<title>CPS::SimNode&lt; VarType &gt;</title>
<!-- Node1 -->
<g id="node1" class="node">
<title>Node1</title>
<g id="a_node1"><a xlink:title=" ">
<polygon fill="#bfbfbf" stroke="black" points="1092,-168.5 1092,-187.5 1229,-187.5 1229,-168.5 1092,-168.5"/>
<text text-anchor="middle" x="1160.5" y="-175.5" font-family="Helvetica" font-size="10.00">CPS::SimNode&lt; VarType &gt;</text>
</a>
</g>
</g>
<!-- Node2 -->
<g id="node2" class="node">
<title>Node2</title>
<g id="a_node2"><a xlink:href="class_c_p_s_1_1_topological_node.html" target="_top" xlink:title=" ">
<polygon fill="none" stroke="black" points="931.5,-132.5 931.5,-151.5 1047.5,-151.5 1047.5,-132.5 931.5,-132.5"/>
<text text-anchor="middle" x="989.5" y="-139.5" font-family="Helvetica" font-size="10.00">CPS::TopologicalNode</text>
</a>
</g>
</g>
<!-- Node2&#45;&gt;Node1 -->
<g id="edge1" class="edge">
<title>Node2&#45;&gt;Node1</title>
<path fill="none" stroke="midnightblue" d="M1045.4,-153.7C1067.84,-158.47 1093.47,-163.93 1114.74,-168.47"/>
<polygon fill="midnightblue" stroke="midnightblue" points="1045.85,-150.21 1035.35,-151.55 1044.4,-157.06 1045.85,-150.21"/>
</g>
<!-- Node3 -->
<g id="node3" class="node">
<title>Node3</title>
<g id="a_node3"><a xlink:href="class_c_p_s_1_1_identified_object.html" target="_top" xlink:title=" ">
<polygon fill="none" stroke="black" points="661,-106.5 661,-125.5 773,-125.5 773,-106.5 661,-106.5"/>
<text text-anchor="middle" x="717" y="-113.5" font-family="Helvetica" font-size="10.00">CPS::IdentifiedObject</text>
</a>
</g>
</g>
<!-- Node3&#45;&gt;Node2 -->
<g id="edge2" class="edge">
<title>Node3&#45;&gt;Node2</title>
<path fill="none" stroke="midnightblue" d="M783.05,-122.25C828.21,-126.59 887.81,-132.32 931.18,-136.49"/>
<polygon fill="midnightblue" stroke="midnightblue" points="783.35,-118.77 773.07,-121.29 782.68,-125.73 783.35,-118.77"/>
</g>
<!-- Node4 -->
<g id="node4" class="node">
<title>Node4</title>
<g id="a_node4"><a xlink:href="class_c_p_s_1_1_attribute_list.html" target="_top" xlink:title="Base class of objects having attributes to access member variables.">
<polygon fill="none" stroke="black" points="463,-106.5 463,-125.5 559,-125.5 559,-106.5 463,-106.5"/>
<text text-anchor="middle" x="511" y="-113.5" font-family="Helvetica" font-size="10.00">CPS::AttributeList</text>
</a>
</g>
</g>
<!-- Node4&#45;&gt;Node3 -->
<g id="edge3" class="edge">
<title>Node4&#45;&gt;Node3</title>
<path fill="none" stroke="midnightblue" d="M569.33,-116C597.99,-116 632.51,-116 660.86,-116"/>
<polygon fill="midnightblue" stroke="midnightblue" points="569.06,-112.5 559.06,-116 569.06,-119.5 569.06,-112.5"/>
</g>
<!-- Node5 -->
<g id="node5" class="node">
<title>Node5</title>
<g id="a_node5"><a xlink:href="class_c_p_s_1_1_attribute.html" target="_top" xlink:title=" ">
<polygon fill="none" stroke="black" points="449,-64.5 449,-83.5 573,-83.5 573,-64.5 449,-64.5"/>
<text text-anchor="middle" x="511" y="-71.5" font-family="Helvetica" font-size="10.00">CPS::Attribute&lt; String &gt;</text>
</a>
</g>
</g>
<!-- Node5&#45;&gt;Node3 -->
<g id="edge4" class="edge">
<title>Node5&#45;&gt;Node3</title>
<path fill="none" stroke="#9a32cd" stroke-dasharray="5,2" d="M583.29,-79.44C602.83,-81.82 623.89,-85.2 643,-90 651.32,-92.09 652.94,-94.04 661,-97 669.63,-100.17 679.07,-103.48 687.66,-106.44"/>
<polygon fill="#9a32cd" stroke="#9a32cd" points="583.57,-75.95 573.23,-78.29 582.77,-82.91 583.57,-75.95"/>
<text text-anchor="middle" x="624" y="-104" font-family="Helvetica" font-size="10.00"> mName</text>
<text text-anchor="middle" x="624" y="-93" font-family="Helvetica" font-size="10.00">mUID</text>
</g>
<!-- Node6 -->
<g id="node6" class="node">
<title>Node6</title>
<g id="a_node6"><a xlink:href="class_c_p_s_1_1_attribute_base.html" target="_top" xlink:title=" ">
<polygon fill="none" stroke="black" points="2.5,-192.5 2.5,-211.5 105.5,-211.5 105.5,-192.5 2.5,-192.5"/>
<text text-anchor="middle" x="54" y="-199.5" font-family="Helvetica" font-size="10.00">CPS::AttributeBase</text>
</a>
</g>
</g>
<!-- Node6&#45;&gt;Node5 -->
<g id="edge5" class="edge">
<title>Node6&#45;&gt;Node5</title>
<path fill="none" stroke="midnightblue" d="M63.62,-183.09C76.85,-156.58 104.92,-109.34 145,-89 196.39,-62.92 358.79,-66.31 448.67,-70.47"/>
<polygon fill="midnightblue" stroke="midnightblue" points="60.3,-181.91 59.14,-192.44 66.61,-184.93 60.3,-181.91"/>
</g>
<!-- Node8 -->
<g id="node8" class="node">
<title>Node8</title>
<g id="a_node8"><a xlink:href="class_c_p_s_1_1_attribute.html" target="_top" xlink:title=" ">
<polygon fill="none" stroke="black" points="162,-158.5 162,-177.5 266,-177.5 266,-158.5 162,-158.5"/>
<text text-anchor="middle" x="214" y="-165.5" font-family="Helvetica" font-size="10.00">CPS::Attribute&lt; T &gt;</text>
</a>
</g>
</g>
<!-- Node6&#45;&gt;Node8 -->
<g id="edge8" class="edge">
<title>Node6&#45;&gt;Node8</title>
<path fill="none" stroke="midnightblue" d="M109.32,-190.31C128.67,-186.15 150.21,-181.51 168.63,-177.55"/>
<polygon fill="midnightblue" stroke="midnightblue" points="108.47,-186.91 99.43,-192.44 109.94,-193.76 108.47,-186.91"/>
</g>
<!-- Node10 -->
<g id="node10" class="node">
<title>Node10</title>
<g id="a_node10"><a xlink:href="class_c_p_s_1_1_attribute.html" target="_top" xlink:title=" ">
<polygon fill="none" stroke="black" points="435,-152.5 435,-171.5 587,-171.5 587,-152.5 435,-152.5"/>
<text text-anchor="middle" x="511" y="-159.5" font-family="Helvetica" font-size="10.00">CPS::Attribute&lt; MatrixComp &gt;</text>
</a>
</g>
</g>
<!-- Node6&#45;&gt;Node10 -->
<g id="edge11" class="edge">
<title>Node6&#45;&gt;Node10</title>
<path fill="none" stroke="midnightblue" d="M115.94,-211.96C188.67,-221.8 313.45,-232.21 417,-208 446.99,-200.99 478.41,-182.82 495.97,-171.53"/>
<polygon fill="midnightblue" stroke="midnightblue" points="115.98,-208.43 105.59,-210.51 115.01,-215.36 115.98,-208.43"/>
</g>
<!-- Node15 -->
<g id="node15" class="node">
<title>Node15</title>
<g id="a_node15"><a xlink:href="class_c_p_s_1_1_attribute.html" target="_top" xlink:title=" ">
<polygon fill="none" stroke="black" points="445.5,-233 445.5,-263 576.5,-263 576.5,-233 445.5,-233"/>
<text text-anchor="start" x="453.5" y="-251" font-family="Helvetica" font-size="10.00">CPS::Attribute&lt; MatrixVar</text>
<text text-anchor="middle" x="511" y="-240" font-family="Helvetica" font-size="10.00">&lt; VarType &gt; &gt;</text>
</a>
</g>
</g>
<!-- Node6&#45;&gt;Node15 -->
<g id="edge18" class="edge">
<title>Node6&#45;&gt;Node15</title>
<path fill="none" stroke="midnightblue" d="M86.13,-215.45C103.17,-222.11 124.86,-229.47 145,-233 249.01,-251.23 372.13,-252.09 445.49,-250.47"/>
<polygon fill="midnightblue" stroke="midnightblue" points="87.26,-212.13 76.68,-211.64 84.64,-218.63 87.26,-212.13"/>
</g>
<!-- Node7 -->
<g id="node7" class="node">
<title>Node7</title>
<g id="a_node7"><a xlink:title=" ">
<polygon fill="none" stroke="#bfbfbf" points="160,-0.5 160,-41.5 268,-41.5 268,-0.5 160,-0.5"/>
<text text-anchor="start" x="168" y="-29.5" font-family="Helvetica" font-size="10.00">std::enable_shared</text>
<text text-anchor="start" x="168" y="-18.5" font-family="Helvetica" font-size="10.00">_from_this&lt; Attribute</text>
<text text-anchor="middle" x="214" y="-7.5" font-family="Helvetica" font-size="10.00">&lt; String &gt; &gt;</text>
</a>
</g>
</g>
<!-- Node7&#45;&gt;Node5 -->
<g id="edge6" class="edge">
<title>Node7&#45;&gt;Node5</title>
<path fill="none" stroke="midnightblue" d="M278.32,-31.64C318.16,-38.42 370.63,-47.5 417,-56 431.56,-58.67 447.37,-61.69 461.77,-64.48"/>
<polygon fill="midnightblue" stroke="midnightblue" points="278.66,-28.15 268.21,-29.93 277.49,-35.05 278.66,-28.15"/>
</g>
<!-- Node8&#45;&gt;Node5 -->
<g id="edge7" class="edge">
<title>Node8&#45;&gt;Node5</title>
<path fill="none" stroke="orange" stroke-dasharray="5,2" d="M260.5,-155.67C268.04,-153.52 275.76,-151.25 283,-149 351.19,-127.83 367.08,-119.03 435,-97 449.12,-92.42 464.81,-87.57 478.18,-83.51"/>
<polygon fill="orange" stroke="orange" points="259.43,-152.34 250.76,-158.42 261.33,-159.08 259.43,-152.34"/>
<text text-anchor="middle" x="359" y="-145" font-family="Helvetica" font-size="10.00"> &lt; String &gt;</text>
</g>
<!-- Node8&#45;&gt;Node10 -->
<g id="edge13" class="edge">
<title>Node8&#45;&gt;Node10</title>
<path fill="none" stroke="orange" stroke-dasharray="5,2" d="M276.37,-164.03C284.65,-163.61 293.03,-163.25 301,-163 345.25,-161.61 394.79,-161.32 434.53,-161.39"/>
<polygon fill="orange" stroke="orange" points="276.17,-160.54 266.37,-164.56 276.54,-167.53 276.17,-160.54"/>
<text text-anchor="middle" x="359" y="-166" font-family="Helvetica" font-size="10.00"> &lt; MatrixComp &gt;</text>
</g>
<!-- Node8&#45;&gt;Node15 -->
<g id="edge20" class="edge">
<title>Node8&#45;&gt;Node15</title>
<path fill="none" stroke="orange" stroke-dasharray="5,2" d="M259.94,-180.19C312.14,-194.34 398.25,-217.7 454.56,-232.96"/>
<polygon fill="orange" stroke="orange" points="260.86,-176.81 250.29,-177.57 259.03,-183.57 260.86,-176.81"/>
<text text-anchor="middle" x="359" y="-225" font-family="Helvetica" font-size="10.00"> &lt; MatrixVar&lt; VarType &gt; &gt;</text>
</g>
<!-- Node9 -->
<g id="node9" class="node">
<title>Node9</title>
<g id="a_node9"><a xlink:title=" ">
<polygon fill="none" stroke="#bfbfbf" points="0,-24.5 0,-65.5 108,-65.5 108,-24.5 0,-24.5"/>
<text text-anchor="start" x="8" y="-53.5" font-family="Helvetica" font-size="10.00">std::enable_shared</text>
<text text-anchor="start" x="8" y="-42.5" font-family="Helvetica" font-size="10.00">_from_this&lt; Attribute</text>
<text text-anchor="middle" x="54" y="-31.5" font-family="Helvetica" font-size="10.00">&lt; T &gt; &gt;</text>
</a>
</g>
</g>
<!-- Node9&#45;&gt;Node8 -->
<g id="edge9" class="edge">
<title>Node9&#45;&gt;Node8</title>
<path fill="none" stroke="midnightblue" d="M73.29,-74.35C89.4,-97.86 114.96,-129.96 145,-149 151.11,-152.87 158.01,-155.97 165.02,-158.44"/>
<polygon fill="midnightblue" stroke="midnightblue" points="76.05,-72.18 67.58,-65.81 70.22,-76.07 76.05,-72.18"/>
</g>
<!-- Node10&#45;&gt;Node2 -->
<g id="edge10" class="edge">
<title>Node10&#45;&gt;Node2</title>
<path fill="none" stroke="#9a32cd" stroke-dasharray="5,2" d="M597.26,-158.42C693.72,-154.37 848.18,-147.89 931.23,-144.4"/>
<polygon fill="#9a32cd" stroke="#9a32cd" points="597.08,-154.93 587.24,-158.84 597.38,-161.92 597.08,-154.93"/>
<text text-anchor="middle" x="717" y="-158" font-family="Helvetica" font-size="10.00"> mInitialVoltage</text>
</g>
<!-- Node11 -->
<g id="node11" class="node">
<title>Node11</title>
<g id="a_node11"><a xlink:title=" ">
<polygon fill="none" stroke="#bfbfbf" points="160,-98.5 160,-139.5 268,-139.5 268,-98.5 160,-98.5"/>
<text text-anchor="start" x="168" y="-127.5" font-family="Helvetica" font-size="10.00">std::enable_shared</text>
<text text-anchor="start" x="168" y="-116.5" font-family="Helvetica" font-size="10.00">_from_this&lt; Attribute</text>
<text text-anchor="middle" x="214" y="-105.5" font-family="Helvetica" font-size="10.00">&lt; MatrixComp &gt; &gt;</text>
</a>
</g>
</g>
<!-- Node11&#45;&gt;Node10 -->
<g id="edge12" class="edge">
<title>Node11&#45;&gt;Node10</title>
<path fill="none" stroke="midnightblue" d="M278.15,-99.97C319.89,-91.08 374.53,-86.75 417,-109 429.45,-115.52 423.86,-126.43 435,-135 444.98,-142.68 457.35,-148.31 469.14,-152.38"/>
<polygon fill="midnightblue" stroke="midnightblue" points="277.36,-96.56 268.38,-102.18 278.9,-103.39 277.36,-96.56"/>
</g>
<!-- Node12 -->
<g id="node12" class="node">
<title>Node12</title>
<g id="a_node12"><a xlink:title=" ">
<polygon fill="none" stroke="#bfbfbf" points="933.5,-170.5 933.5,-211.5 1045.5,-211.5 1045.5,-170.5 933.5,-170.5"/>
<text text-anchor="start" x="941.5" y="-199.5" font-family="Helvetica" font-size="10.00">std::enable_shared</text>
<text text-anchor="start" x="941.5" y="-188.5" font-family="Helvetica" font-size="10.00">_from_this&lt; SimNode</text>
<text text-anchor="middle" x="989.5" y="-177.5" font-family="Helvetica" font-size="10.00">&lt; VarType &gt; &gt;</text>
</a>
</g>
</g>
<!-- Node12&#45;&gt;Node1 -->
<g id="edge14" class="edge">
<title>Node12&#45;&gt;Node1</title>
<path fill="none" stroke="midnightblue" d="M1056.03,-185.96C1067.81,-185.05 1080.11,-184.11 1091.94,-183.2"/>
<polygon fill="midnightblue" stroke="midnightblue" points="1055.54,-182.49 1045.84,-186.74 1056.08,-189.47 1055.54,-182.49"/>
</g>
<!-- Node13 -->
<g id="node13" class="node">
<title>Node13</title>
<g id="a_node13"><a xlink:href="class_shared_factory.html" target="_top" xlink:title=" ">
<polygon fill="none" stroke="black" points="924,-76 924,-106 1055,-106 1055,-76 924,-76"/>
<text text-anchor="start" x="932" y="-94" font-family="Helvetica" font-size="10.00">SharedFactory&lt; SimNode</text>
<text text-anchor="middle" x="989.5" y="-83" font-family="Helvetica" font-size="10.00">&lt; VarType &gt; &gt;</text>
</a>
</g>
</g>
<!-- Node13&#45;&gt;Node1 -->
<g id="edge15" class="edge">
<title>Node13&#45;&gt;Node1</title>
<path fill="none" stroke="midnightblue" d="M1030.42,-110.62C1038.57,-114.68 1047.07,-118.95 1055,-123 1085.49,-138.58 1120.67,-157.24 1141.45,-168.33"/>
<polygon fill="midnightblue" stroke="midnightblue" points="1031.93,-107.46 1021.42,-106.15 1028.82,-113.73 1031.93,-107.46"/>
</g>
<!-- Node14 -->
<g id="node14" class="node">
<title>Node14</title>
<g id="a_node14"><a xlink:href="class_shared_factory.html" target="_top" xlink:title=" ">
<polygon fill="none" stroke="black" points="664.5,-68.5 664.5,-87.5 769.5,-87.5 769.5,-68.5 664.5,-68.5"/>
<text text-anchor="middle" x="717" y="-75.5" font-family="Helvetica" font-size="10.00">SharedFactory&lt; T &gt;</text>
</a>
</g>
</g>
<!-- Node14&#45;&gt;Node13 -->
<g id="edge16" class="edge">
<title>Node14&#45;&gt;Node13</title>
<path fill="none" stroke="orange" stroke-dasharray="5,2" d="M779.58,-80.96C822.65,-83.03 880.05,-85.79 923.79,-87.89"/>
<polygon fill="orange" stroke="orange" points="779.67,-77.46 769.52,-80.48 779.34,-84.45 779.67,-77.46"/>
<text text-anchor="middle" x="848.5" y="-90" font-family="Helvetica" font-size="10.00"> &lt; SimNode&lt; VarType &gt; &gt;</text>
</g>
<!-- Node15&#45;&gt;Node1 -->
<g id="edge17" class="edge">
<title>Node15&#45;&gt;Node1</title>
<path fill="none" stroke="#9a32cd" stroke-dasharray="5,2" d="M587.15,-252.23C692.95,-256.4 891.2,-257.63 1055,-221 1086.78,-213.89 1121.29,-197.92 1141.62,-187.57"/>
<polygon fill="#9a32cd" stroke="#9a32cd" points="587.03,-248.72 576.9,-251.81 586.74,-255.72 587.03,-248.72"/>
<text text-anchor="middle" x="848.5" y="-266" font-family="Helvetica" font-size="10.00"> mApparentPower</text>
<text text-anchor="middle" x="848.5" y="-255" font-family="Helvetica" font-size="10.00">mVoltage</text>
</g>
<!-- Node16 -->
<g id="node16" class="node">
<title>Node16</title>
<g id="a_node16"><a xlink:title=" ">
<polygon fill="none" stroke="#bfbfbf" points="145,-281.5 145,-322.5 283,-322.5 283,-281.5 145,-281.5"/>
<text text-anchor="start" x="153" y="-310.5" font-family="Helvetica" font-size="10.00">std::enable_shared</text>
<text text-anchor="start" x="153" y="-299.5" font-family="Helvetica" font-size="10.00">_from_this&lt; Attribute</text>
<text text-anchor="middle" x="214" y="-288.5" font-family="Helvetica" font-size="10.00">&lt; MatrixVar&lt; VarType &gt; &gt; &gt;</text>
</a>
</g>
</g>
<!-- Node16&#45;&gt;Node15 -->
<g id="edge19" class="edge">
<title>Node16&#45;&gt;Node15</title>
<path fill="none" stroke="midnightblue" d="M293.68,-288.93C331.08,-282.57 376.4,-274.66 417,-267 426.15,-265.27 435.79,-263.38 445.26,-261.49"/>
<polygon fill="midnightblue" stroke="midnightblue" points="292.62,-285.56 283.35,-290.68 293.79,-292.46 292.62,-285.56"/>
</g>
</g>
</svg>
