<?xml version="1.0" encoding="UTF-8" standalone="no"?>
<!DOCTYPE svg PUBLIC "-//W3C//DTD SVG 1.1//EN"
 "http://www.w3.org/Graphics/SVG/1.1/DTD/svg11.dtd">
<!-- Generated by graphviz version 2.44.0 (0)
 -->
<!-- Title: CPS::DP::Ph1::VoltageSourceRamp Pages: 1 -->
<!--zoomable 542 -->
<svg id="main" version="1.1" xmlns="http://www.w3.org/2000/svg" xmlns:xlink="http://www.w3.org/1999/xlink" xml:space="preserve" onload="init(evt)">
<style type="text/css"><![CDATA[
.edge:hover path { stroke: red; }
.edge:hover polygon { stroke: red; fill: red; }
]]></style>
<script type="text/javascript"><![CDATA[
var edges = document.getElementsByTagName('g');
if (edges && edges.length) {
  for (var i=0;i<edges.length;i++) {
    if (edges[i].id.substr(0,4)=='edge') {
      edges[i].setAttribute('class','edge');
    }
  }
}
]]></script>
        <defs>
                <circle id="rim" cx="0" cy="0" r="7"/>
                <circle id="rim2" cx="0" cy="0" r="3.5"/>
                <g id="zoomPlus">
                        <use xlink:href="#rim" fill="#404040">
                                <set attributeName="fill" to="#808080" begin="zoomplus.mouseover" end="zoomplus.mouseout"/>
                        </use>
                        <path d="M-4,0h8M0,-4v8" fill="none" stroke="white" stroke-width="1.5" pointer-events="none"/>
                </g>
                <g id="zoomMin">
                        <use xlink:href="#rim" fill="#404040">
                                <set attributeName="fill" to="#808080" begin="zoomminus.mouseover" end="zoomminus.mouseout"/>
                        </use>
                        <path d="M-4,0h8" fill="none" stroke="white" stroke-width="1.5" pointer-events="none"/>
                </g>
                <g id="dirArrow">
                        <path fill="none" stroke="white" stroke-width="1.5" d="M0,-3.0v7 M-2.5,-0.5L0,-3.0L2.5,-0.5"/>
                </g>
               <g id="resetDef">
                       <use xlink:href="#rim2" fill="#404040">
                               <set attributeName="fill" to="#808080" begin="reset.mouseover" end="reset.mouseout"/>
                       </use>
               </g>
        </defs>

<script type="text/javascript">
var viewWidth = 1758;
var viewHeight = 542;
var sectionId = 'dynsection-1';
</script>
<script xlink:href="svgpan.js"/>
<svg id="graph" class="graph">
<g id="viewport">
<title>CPS::DP::Ph1::VoltageSourceRamp</title>
<!-- Node1 -->
<g id="node1" class="node">
<title>Node1</title>
<g id="a_node1"><a xlink:title=" ">
<polygon fill="#bfbfbf" stroke="black" points="1574,-228.57 1574,-247.57 1750,-247.57 1750,-228.57 1574,-228.57"/>
<text text-anchor="middle" x="1662" y="-235.57" font-family="Helvetica" font-size="10.00">CPS::DP::Ph1::VoltageSourceRamp</text>
</a>
</g>
</g>
<!-- Node2 -->
<g id="node2" class="node">
<title>Node2</title>
<g id="a_node2"><a xlink:href="class_c_p_s_1_1_sim_power_comp.html" target="_top" xlink:title=" ">
<polygon fill="none" stroke="black" points="1400.5,-223.07 1400.5,-253.07 1520.5,-253.07 1520.5,-223.07 1400.5,-223.07"/>
<text text-anchor="start" x="1408.5" y="-241.07" font-family="Helvetica" font-size="10.00">CPS::SimPowerComp&lt;</text>
<text text-anchor="middle" x="1460.5" y="-230.07" font-family="Helvetica" font-size="10.00"> Complex &gt;</text>
</a>
</g>
</g>
<!-- Node2&#45;&gt;Node1 -->
<g id="edge1" class="edge">
<title>Node2&#45;&gt;Node1</title>
<path fill="none" stroke="midnightblue" d="M1530.91,-238.07C1544.7,-238.07 1559.34,-238.07 1573.64,-238.07"/>
<polygon fill="midnightblue" stroke="midnightblue" points="1530.55,-234.57 1520.55,-238.07 1530.55,-241.57 1530.55,-234.57"/>
</g>
<!-- Node3 -->
<g id="node3" class="node">
<title>Node3</title>
<g id="a_node3"><a xlink:href="class_c_p_s_1_1_topological_power_comp.html" target="_top" xlink:title=" ">
<polygon fill="none" stroke="black" points="877,-203.57 877,-222.57 1023,-222.57 1023,-203.57 877,-203.57"/>
<text text-anchor="middle" x="950" y="-210.57" font-family="Helvetica" font-size="10.00">CPS::TopologicalPowerComp</text>
</a>
</g>
</g>
<!-- Node3&#45;&gt;Node2 -->
<g id="edge2" class="edge">
<title>Node3&#45;&gt;Node2</title>
<path fill="none" stroke="midnightblue" d="M1033.08,-217.11C1135.95,-222.17 1309.73,-230.71 1400.42,-235.17"/>
<polygon fill="midnightblue" stroke="midnightblue" points="1033.21,-213.61 1023.05,-216.62 1032.86,-220.6 1033.21,-213.61"/>
</g>
<!-- Node11 -->
<g id="node11" class="node">
<title>Node11</title>
<g id="a_node11"><a xlink:href="class_c_p_s_1_1_sim_power_comp.html" target="_top" xlink:title="Base class for all components that are transmitting power.">
<polygon fill="none" stroke="black" points="1118,-242.07 1118,-272.07 1238,-272.07 1238,-242.07 1118,-242.07"/>
<text text-anchor="start" x="1126" y="-260.07" font-family="Helvetica" font-size="10.00">CPS::SimPowerComp&lt;</text>
<text text-anchor="middle" x="1178" y="-249.07" font-family="Helvetica" font-size="10.00"> VarType &gt;</text>
</a>
</g>
</g>
<!-- Node3&#45;&gt;Node11 -->
<g id="edge12" class="edge">
<title>Node3&#45;&gt;Node11</title>
<path fill="none" stroke="midnightblue" d="M1010.05,-224.57C1043.19,-231.02 1084.42,-239.05 1117.62,-245.51"/>
<polygon fill="midnightblue" stroke="midnightblue" points="1010.52,-221.1 1000.04,-222.62 1009.19,-227.97 1010.52,-221.1"/>
</g>
<!-- Node4 -->
<g id="node4" class="node">
<title>Node4</title>
<g id="a_node4"><a xlink:href="class_c_p_s_1_1_identified_object.html" target="_top" xlink:title=" ">
<polygon fill="none" stroke="black" points="671,-184.57 671,-203.57 783,-203.57 783,-184.57 671,-184.57"/>
<text text-anchor="middle" x="727" y="-191.57" font-family="Helvetica" font-size="10.00">CPS::IdentifiedObject</text>
</a>
</g>
</g>
<!-- Node4&#45;&gt;Node3 -->
<g id="edge3" class="edge">
<title>Node4&#45;&gt;Node3</title>
<path fill="none" stroke="midnightblue" d="M793.43,-199.7C819.71,-201.96 850.09,-204.57 877,-206.88"/>
<polygon fill="midnightblue" stroke="midnightblue" points="793.46,-196.19 783.2,-198.82 792.86,-203.16 793.46,-196.19"/>
</g>
<!-- Node5 -->
<g id="node5" class="node">
<title>Node5</title>
<g id="a_node5"><a xlink:href="class_c_p_s_1_1_attribute_list.html" target="_top" xlink:title="Base class of objects having attributes to access member variables.">
<polygon fill="none" stroke="black" points="455.5,-131.57 455.5,-150.57 551.5,-150.57 551.5,-131.57 455.5,-131.57"/>
<text text-anchor="middle" x="503.5" y="-138.57" font-family="Helvetica" font-size="10.00">CPS::AttributeList</text>
</a>
</g>
</g>
<!-- Node5&#45;&gt;Node4 -->
<g id="edge4" class="edge">
<title>Node5&#45;&gt;Node4</title>
<path fill="none" stroke="midnightblue" d="M554.13,-152.95C593.94,-162.47 649.1,-175.67 686.09,-184.52"/>
<polygon fill="midnightblue" stroke="midnightblue" points="554.9,-149.53 544.36,-150.61 553.27,-156.34 554.9,-149.53"/>
</g>
<!-- Node14 -->
<g id="node14" class="node">
<title>Node14</title>
<g id="a_node14"><a xlink:href="class_c_p_s_1_1_m_n_a_interface.html" target="_top" xlink:title="Interface to be implemented by all models used by the MNA solver.">
<polygon fill="none" stroke="black" points="675,-126.57 675,-145.57 779,-145.57 779,-126.57 675,-126.57"/>
<text text-anchor="middle" x="727" y="-133.57" font-family="Helvetica" font-size="10.00">CPS::MNAInterface</text>
</a>
</g>
</g>
<!-- Node5&#45;&gt;Node14 -->
<g id="edge18" class="edge">
<title>Node5&#45;&gt;Node14</title>
<path fill="none" stroke="midnightblue" d="M561.82,-139.78C596.82,-138.99 641.18,-137.99 674.97,-137.22"/>
<polygon fill="midnightblue" stroke="midnightblue" points="561.66,-136.28 551.75,-140.01 561.82,-143.28 561.66,-136.28"/>
</g>
<!-- Node6 -->
<g id="node6" class="node">
<title>Node6</title>
<g id="a_node6"><a xlink:href="class_c_p_s_1_1_attribute.html" target="_top" xlink:title=" ">
<polygon fill="none" stroke="black" points="441.5,-174.57 441.5,-193.57 565.5,-193.57 565.5,-174.57 441.5,-174.57"/>
<text text-anchor="middle" x="503.5" y="-181.57" font-family="Helvetica" font-size="10.00">CPS::Attribute&lt; String &gt;</text>
</a>
</g>
</g>
<!-- Node6&#45;&gt;Node4 -->
<g id="edge5" class="edge">
<title>Node6&#45;&gt;Node4</title>
<path fill="none" stroke="#9a32cd" stroke-dasharray="5,2" d="M575.85,-187.29C606.62,-188.68 642.05,-190.28 670.77,-191.58"/>
<polygon fill="#9a32cd" stroke="#9a32cd" points="575.76,-183.79 565.61,-186.83 575.44,-190.78 575.76,-183.79"/>
<text text-anchor="middle" x="621.5" y="-205.07" font-family="Helvetica" font-size="10.00"> mName</text>
<text text-anchor="middle" x="621.5" y="-194.07" font-family="Helvetica" font-size="10.00">mUID</text>
</g>
<!-- Node7 -->
<g id="node7" class="node">
<title>Node7</title>
<g id="a_node7"><a xlink:href="class_c_p_s_1_1_attribute_base.html" target="_top" xlink:title=" ">
<polygon fill="none" stroke="black" points="2.5,-270.57 2.5,-289.57 105.5,-289.57 105.5,-270.57 2.5,-270.57"/>
<text text-anchor="middle" x="54" y="-277.57" font-family="Helvetica" font-size="10.00">CPS::AttributeBase</text>
</a>
</g>
</g>
<!-- Node7&#45;&gt;Node6 -->
<g id="edge6" class="edge">
<title>Node7&#45;&gt;Node6</title>
<path fill="none" stroke="midnightblue" d="M66.2,-261.88C81.06,-239.67 109.58,-203.21 145,-188.07 250.88,-142.83 391.03,-161.06 460.18,-174.52"/>
<polygon fill="midnightblue" stroke="midnightblue" points="63.17,-260.12 60.69,-270.42 69.05,-263.92 63.17,-260.12"/>
</g>
<!-- Node9 -->
<g id="node9" class="node">
<title>Node9</title>
<g id="a_node9"><a xlink:href="class_c_p_s_1_1_attribute.html" target="_top" xlink:title=" ">
<polygon fill="none" stroke="black" points="162,-295.57 162,-314.57 266,-314.57 266,-295.57 162,-295.57"/>
<text text-anchor="middle" x="214" y="-302.57" font-family="Helvetica" font-size="10.00">CPS::Attribute&lt; T &gt;</text>
</a>
</g>
</g>
<!-- Node7&#45;&gt;Node9 -->
<g id="edge9" class="edge">
<title>Node7&#45;&gt;Node9</title>
<path fill="none" stroke="midnightblue" d="M116.17,-289.75C131.3,-292.15 147.36,-294.69 161.96,-297"/>
<polygon fill="midnightblue" stroke="midnightblue" points="116.29,-286.23 105.86,-288.12 115.19,-293.14 116.29,-286.23"/>
</g>
<!-- Node12 -->
<g id="node12" class="node">
<title>Node12</title>
<g id="a_node12"><a xlink:href="class_c_p_s_1_1_attribute.html" target="_top" xlink:title=" ">
<polygon fill="none" stroke="black" points="438,-248.07 438,-278.07 569,-278.07 569,-248.07 438,-248.07"/>
<text text-anchor="start" x="446" y="-266.07" font-family="Helvetica" font-size="10.00">CPS::Attribute&lt; MatrixVar</text>
<text text-anchor="middle" x="503.5" y="-255.07" font-family="Helvetica" font-size="10.00">&lt; VarType &gt; &gt;</text>
</a>
</g>
</g>
<!-- Node7&#45;&gt;Node12 -->
<g id="edge14" class="edge">
<title>Node7&#45;&gt;Node12</title>
<path fill="none" stroke="midnightblue" d="M116.09,-277.75C200.42,-274.55 351.83,-268.8 437.95,-265.53"/>
<polygon fill="midnightblue" stroke="midnightblue" points="115.76,-274.26 105.9,-278.14 116.02,-281.26 115.76,-274.26"/>
</g>
<!-- Node15 -->
<g id="node15" class="node">
<title>Node15</title>
<g id="a_node15"><a xlink:href="class_c_p_s_1_1_attribute.html" target="_top" xlink:title=" ">
<polygon fill="none" stroke="black" points="441,-82.57 441,-101.57 566,-101.57 566,-82.57 441,-82.57"/>
<text text-anchor="middle" x="503.5" y="-89.57" font-family="Helvetica" font-size="10.00">CPS::Attribute&lt; Matrix &gt;</text>
</a>
</g>
</g>
<!-- Node7&#45;&gt;Node15 -->
<g id="edge20" class="edge">
<title>Node7&#45;&gt;Node15</title>
<path fill="none" stroke="midnightblue" d="M55.1,-260.11C56.56,-210.98 67.96,-84.22 145,-30.07 256.58,48.35 435.12,-50.22 487.56,-82.5"/>
<polygon fill="midnightblue" stroke="midnightblue" points="51.59,-260.3 54.91,-270.36 58.59,-260.42 51.59,-260.3"/>
</g>
<!-- Node19 -->
<g id="node19" class="node">
<title>Node19</title>
<g id="a_node19"><a xlink:href="class_c_p_s_1_1_attribute.html" target="_top" xlink:title=" ">
<polygon fill="none" stroke="black" points="444.5,-344.57 444.5,-363.57 562.5,-363.57 562.5,-344.57 444.5,-344.57"/>
<text text-anchor="middle" x="503.5" y="-351.57" font-family="Helvetica" font-size="10.00">CPS::Attribute&lt; Real &gt;</text>
</a>
</g>
</g>
<!-- Node7&#45;&gt;Node19 -->
<g id="edge26" class="edge">
<title>Node7&#45;&gt;Node19</title>
<path fill="none" stroke="midnightblue" d="M80.96,-294.47C124.71,-317.73 216.65,-362.38 301,-376.07 351.89,-384.33 365.85,-382.55 417,-376.07 435.86,-373.69 456.5,-368.45 472.79,-363.68"/>
<polygon fill="midnightblue" stroke="midnightblue" points="82.34,-291.24 71.88,-289.58 79.02,-297.4 82.34,-291.24"/>
</g>
<!-- Node21 -->
<g id="node21" class="node">
<title>Node21</title>
<g id="a_node21"><a xlink:href="class_c_p_s_1_1_attribute.html" target="_top" xlink:title=" ">
<polygon fill="none" stroke="black" points="435,-430.57 435,-449.57 572,-449.57 572,-430.57 435,-430.57"/>
<text text-anchor="middle" x="503.5" y="-437.57" font-family="Helvetica" font-size="10.00">CPS::Attribute&lt; Complex &gt;</text>
</a>
</g>
</g>
<!-- Node7&#45;&gt;Node21 -->
<g id="edge30" class="edge">
<title>Node7&#45;&gt;Node21</title>
<path fill="none" stroke="midnightblue" d="M68.07,-298.15C79.39,-314.23 95.81,-338.6 108,-361.07 127.46,-396.93 110.83,-422.79 145,-445.07 191.27,-475.25 346.03,-461.05 436.05,-449.59"/>
<polygon fill="midnightblue" stroke="midnightblue" points="70.72,-295.84 62.07,-289.73 65.02,-299.9 70.72,-295.84"/>
</g>
<!-- Node8 -->
<g id="node8" class="node">
<title>Node8</title>
<g id="a_node8"><a xlink:title=" ">
<polygon fill="none" stroke="#bfbfbf" points="160,-99.57 160,-140.57 268,-140.57 268,-99.57 160,-99.57"/>
<text text-anchor="start" x="168" y="-128.57" font-family="Helvetica" font-size="10.00">std::enable_shared</text>
<text text-anchor="start" x="168" y="-117.57" font-family="Helvetica" font-size="10.00">_from_this&lt; Attribute</text>
<text text-anchor="middle" x="214" y="-106.57" font-family="Helvetica" font-size="10.00">&lt; String &gt; &gt;</text>
</a>
</g>
</g>
<!-- Node8&#45;&gt;Node6 -->
<g id="edge7" class="edge">
<title>Node8&#45;&gt;Node6</title>
<path fill="none" stroke="midnightblue" d="M277.98,-106.94C320.36,-101.59 375.81,-101.65 417,-127.07 431.22,-135.85 422.29,-149.23 435,-160.07 442.38,-166.37 451.53,-171.06 460.68,-174.53"/>
<polygon fill="midnightblue" stroke="midnightblue" points="277.47,-103.48 268.05,-108.33 278.44,-110.41 277.47,-103.48"/>
</g>
<!-- Node9&#45;&gt;Node6 -->
<g id="edge8" class="edge">
<title>Node9&#45;&gt;Node6</title>
<path fill="none" stroke="orange" stroke-dasharray="5,2" d="M242.09,-290.7C258.87,-282.01 280.96,-270.94 301,-262.07 362.41,-234.91 436.45,-207.6 475.44,-193.63"/>
<polygon fill="orange" stroke="orange" points="240.13,-287.78 232.88,-295.51 243.37,-293.99 240.13,-287.78"/>
<text text-anchor="middle" x="359" y="-265.07" font-family="Helvetica" font-size="10.00"> &lt; String &gt;</text>
</g>
<!-- Node9&#45;&gt;Node12 -->
<g id="edge16" class="edge">
<title>Node9&#45;&gt;Node12</title>
<path fill="none" stroke="orange" stroke-dasharray="5,2" d="M276.22,-296.13C323.73,-289.19 389.42,-279.59 437.79,-272.53"/>
<polygon fill="orange" stroke="orange" points="275.46,-292.7 266.07,-297.61 276.47,-299.63 275.46,-292.7"/>
<text text-anchor="middle" x="359" y="-295.07" font-family="Helvetica" font-size="10.00"> &lt; MatrixVar&lt; VarType &gt; &gt;</text>
</g>
<!-- Node9&#45;&gt;Node15 -->
<g id="edge22" class="edge">
<title>Node9&#45;&gt;Node15</title>
<path fill="none" stroke="orange" stroke-dasharray="5,2" d="M238.93,-289.68C253.35,-279.38 271.15,-264.69 283,-248.07 295.99,-229.86 286.56,-218.15 301,-201.07 345.64,-148.28 373.53,-153.72 435,-122.07 449.37,-114.68 465.94,-107.29 479.07,-101.7"/>
<polygon fill="orange" stroke="orange" points="236.73,-286.95 230.48,-295.5 240.7,-292.71 236.73,-286.95"/>
<text text-anchor="middle" x="359" y="-204.07" font-family="Helvetica" font-size="10.00"> &lt; Matrix &gt;</text>
</g>
<!-- Node9&#45;&gt;Node19 -->
<g id="edge28" class="edge">
<title>Node9&#45;&gt;Node19</title>
<path fill="none" stroke="orange" stroke-dasharray="5,2" d="M276.55,-310.82C316.74,-315.1 370.25,-321.82 417,-331.07 435.09,-334.65 455.01,-339.93 471.07,-344.53"/>
<polygon fill="orange" stroke="orange" points="276.67,-307.31 266.37,-309.75 275.95,-314.27 276.67,-307.31"/>
<text text-anchor="middle" x="359" y="-334.07" font-family="Helvetica" font-size="10.00"> &lt; Real &gt;</text>
</g>
<!-- Node9&#45;&gt;Node21 -->
<g id="edge32" class="edge">
<title>Node9&#45;&gt;Node21</title>
<path fill="none" stroke="orange" stroke-dasharray="5,2" d="M244.77,-319.05C303.29,-346.53 431.96,-406.95 482.01,-430.45"/>
<polygon fill="orange" stroke="orange" points="246.22,-315.86 235.68,-314.78 243.24,-322.2 246.22,-315.86"/>
<text text-anchor="middle" x="359" y="-399.07" font-family="Helvetica" font-size="10.00"> &lt; Complex &gt;</text>
</g>
<!-- Node10 -->
<g id="node10" class="node">
<title>Node10</title>
<g id="a_node10"><a xlink:title=" ">
<polygon fill="none" stroke="#bfbfbf" points="0,-370.57 0,-411.57 108,-411.57 108,-370.57 0,-370.57"/>
<text text-anchor="start" x="8" y="-399.57" font-family="Helvetica" font-size="10.00">std::enable_shared</text>
<text text-anchor="start" x="8" y="-388.57" font-family="Helvetica" font-size="10.00">_from_this&lt; Attribute</text>
<text text-anchor="middle" x="54" y="-377.57" font-family="Helvetica" font-size="10.00">&lt; T &gt; &gt;</text>
</a>
</g>
</g>
<!-- Node10&#45;&gt;Node9 -->
<g id="edge10" class="edge">
<title>Node10&#45;&gt;Node9</title>
<path fill="none" stroke="midnightblue" d="M101.89,-365.55C133.34,-348.43 172.95,-326.87 195.39,-314.66"/>
<polygon fill="midnightblue" stroke="midnightblue" points="99.95,-362.62 92.84,-370.47 103.3,-368.77 99.95,-362.62"/>
</g>
<!-- Node11&#45;&gt;Node2 -->
<g id="edge11" class="edge">
<title>Node11&#45;&gt;Node2</title>
<path fill="none" stroke="orange" stroke-dasharray="5,2" d="M1248.19,-252.39C1294.93,-249.22 1355.98,-245.08 1400.44,-242.07"/>
<polygon fill="orange" stroke="orange" points="1247.88,-248.9 1238.14,-253.07 1248.36,-255.88 1247.88,-248.9"/>
<text text-anchor="middle" x="1311" y="-255.07" font-family="Helvetica" font-size="10.00"> &lt; Complex &gt;</text>
</g>
<!-- Node12&#45;&gt;Node11 -->
<g id="edge13" class="edge">
<title>Node12&#45;&gt;Node11</title>
<path fill="none" stroke="#9a32cd" stroke-dasharray="5,2" d="M579.52,-262.4C714.38,-261.2 995.09,-258.7 1117.63,-257.6"/>
<polygon fill="#9a32cd" stroke="#9a32cd" points="579.26,-258.91 569.29,-262.49 579.32,-265.91 579.26,-258.91"/>
<text text-anchor="middle" x="830" y="-275.07" font-family="Helvetica" font-size="10.00"> mIntfCurrent</text>
<text text-anchor="middle" x="830" y="-264.07" font-family="Helvetica" font-size="10.00">mIntfVoltage</text>
</g>
<!-- Node13 -->
<g id="node13" class="node">
<title>Node13</title>
<g id="a_node13"><a xlink:title=" ">
<polygon fill="none" stroke="#bfbfbf" points="145,-197.57 145,-238.57 283,-238.57 283,-197.57 145,-197.57"/>
<text text-anchor="start" x="153" y="-226.57" font-family="Helvetica" font-size="10.00">std::enable_shared</text>
<text text-anchor="start" x="153" y="-215.57" font-family="Helvetica" font-size="10.00">_from_this&lt; Attribute</text>
<text text-anchor="middle" x="214" y="-204.57" font-family="Helvetica" font-size="10.00">&lt; MatrixVar&lt; VarType &gt; &gt; &gt;</text>
</a>
</g>
</g>
<!-- Node13&#45;&gt;Node12 -->
<g id="edge15" class="edge">
<title>Node13&#45;&gt;Node12</title>
<path fill="none" stroke="midnightblue" d="M293.76,-209.37C331.55,-207.38 377.17,-208.23 417,-218.07 440.29,-223.83 464.24,-237.19 480.84,-247.87"/>
<polygon fill="midnightblue" stroke="midnightblue" points="293.09,-205.9 283.32,-210 293.51,-212.89 293.09,-205.9"/>
</g>
<!-- Node14&#45;&gt;Node1 -->
<g id="edge17" class="edge">
<title>Node14&#45;&gt;Node1</title>
<path fill="none" stroke="midnightblue" d="M770.83,-148.21C815.07,-159.65 886.29,-175.07 949,-175.07 949,-175.07 949,-175.07 1461.5,-175.07 1531.6,-175.07 1609.39,-210.88 1643.44,-228.5"/>
<polygon fill="midnightblue" stroke="midnightblue" points="771.56,-144.78 761,-145.61 769.78,-151.55 771.56,-144.78"/>
</g>
<!-- Node15&#45;&gt;Node14 -->
<g id="edge19" class="edge">
<title>Node15&#45;&gt;Node14</title>
<path fill="none" stroke="#9a32cd" stroke-dasharray="5,2" d="M562.43,-103.58C598.41,-110.73 644.09,-119.8 678.03,-126.54"/>
<polygon fill="#9a32cd" stroke="#9a32cd" points="563.05,-100.14 552.56,-101.62 561.69,-107 563.05,-100.14"/>
<text text-anchor="middle" x="621.5" y="-124.07" font-family="Helvetica" font-size="10.00"> mRightVector</text>
</g>
<!-- Node16 -->
<g id="node16" class="node">
<title>Node16</title>
<g id="a_node16"><a xlink:title=" ">
<polygon fill="none" stroke="#bfbfbf" points="160,-39.57 160,-80.57 268,-80.57 268,-39.57 160,-39.57"/>
<text text-anchor="start" x="168" y="-68.57" font-family="Helvetica" font-size="10.00">std::enable_shared</text>
<text text-anchor="start" x="168" y="-57.57" font-family="Helvetica" font-size="10.00">_from_this&lt; Attribute</text>
<text text-anchor="middle" x="214" y="-46.57" font-family="Helvetica" font-size="10.00">&lt; Matrix &gt; &gt;</text>
</a>
</g>
</g>
<!-- Node16&#45;&gt;Node15 -->
<g id="edge21" class="edge">
<title>Node16&#45;&gt;Node15</title>
<path fill="none" stroke="midnightblue" d="M278.1,-67.1C326.43,-72.48 392.76,-79.86 440.75,-85.2"/>
<polygon fill="midnightblue" stroke="midnightblue" points="278.39,-63.61 268.07,-65.98 277.62,-70.56 278.39,-63.61"/>
</g>
<!-- Node17 -->
<g id="node17" class="node">
<title>Node17</title>
<g id="a_node17"><a xlink:href="class_shared_factory.html" target="_top" xlink:title=" ">
<polygon fill="none" stroke="black" points="1384,-116.07 1384,-146.07 1537,-146.07 1537,-116.07 1384,-116.07"/>
<text text-anchor="start" x="1392" y="-134.07" font-family="Helvetica" font-size="10.00">SharedFactory&lt; VoltageSource</text>
<text text-anchor="middle" x="1460.5" y="-123.07" font-family="Helvetica" font-size="10.00">Ramp &gt;</text>
</a>
</g>
</g>
<!-- Node17&#45;&gt;Node1 -->
<g id="edge23" class="edge">
<title>Node17&#45;&gt;Node1</title>
<path fill="none" stroke="midnightblue" d="M1528.85,-149.46C1538.16,-152.86 1547.46,-156.73 1556,-161.07 1593.69,-180.22 1632.34,-212.48 1650.44,-228.48"/>
<polygon fill="midnightblue" stroke="midnightblue" points="1529.75,-146.07 1519.16,-146.09 1527.45,-152.68 1529.75,-146.07"/>
</g>
<!-- Node18 -->
<g id="node18" class="node">
<title>Node18</title>
<g id="a_node18"><a xlink:href="class_shared_factory.html" target="_top" xlink:title=" ">
<polygon fill="none" stroke="black" points="1125.5,-121.57 1125.5,-140.57 1230.5,-140.57 1230.5,-121.57 1125.5,-121.57"/>
<text text-anchor="middle" x="1178" y="-128.57" font-family="Helvetica" font-size="10.00">SharedFactory&lt; T &gt;</text>
</a>
</g>
</g>
<!-- Node18&#45;&gt;Node17 -->
<g id="edge24" class="edge">
<title>Node18&#45;&gt;Node17</title>
<path fill="none" stroke="orange" stroke-dasharray="5,2" d="M1240.91,-131.07C1283.08,-131.07 1339.16,-131.07 1383.96,-131.07"/>
<polygon fill="orange" stroke="orange" points="1240.77,-127.57 1230.77,-131.07 1240.77,-134.57 1240.77,-127.57"/>
<text text-anchor="middle" x="1311" y="-134.07" font-family="Helvetica" font-size="10.00"> &lt; VoltageSourceRamp &gt;</text>
</g>
<!-- Node19&#45;&gt;Node1 -->
<g id="edge25" class="edge">
<title>Node19&#45;&gt;Node1</title>
<path fill="none" stroke="#9a32cd" stroke-dasharray="5,2" d="M541.7,-341.48C585.32,-327.86 660.05,-308.07 726,-308.07 726,-308.07 726,-308.07 1461.5,-308.07 1533.44,-308.07 1612.17,-267.04 1645.12,-247.81"/>
<polygon fill="#9a32cd" stroke="#9a32cd" points="540.56,-338.17 532.09,-344.54 542.68,-344.84 540.56,-338.17"/>
<text text-anchor="middle" x="1070.5" y="-311.07" font-family="Helvetica" font-size="10.00"> mSrcFreq</text>
</g>
<!-- Node20 -->
<g id="node20" class="node">
<title>Node20</title>
<g id="a_node20"><a xlink:title=" ">
<polygon fill="none" stroke="#bfbfbf" points="160,-394.57 160,-435.57 268,-435.57 268,-394.57 160,-394.57"/>
<text text-anchor="start" x="168" y="-423.57" font-family="Helvetica" font-size="10.00">std::enable_shared</text>
<text text-anchor="start" x="168" y="-412.57" font-family="Helvetica" font-size="10.00">_from_this&lt; Attribute</text>
<text text-anchor="middle" x="214" y="-401.57" font-family="Helvetica" font-size="10.00">&lt; Real &gt; &gt;</text>
</a>
</g>
</g>
<!-- Node20&#45;&gt;Node19 -->
<g id="edge27" class="edge">
<title>Node20&#45;&gt;Node19</title>
<path fill="none" stroke="midnightblue" d="M278.67,-417.62C319.07,-417.54 372.01,-414.3 417,-401.07 444.63,-392.95 473.27,-374.89 489.39,-363.67"/>
<polygon fill="midnightblue" stroke="midnightblue" points="278.43,-414.11 268.42,-417.57 278.4,-421.11 278.43,-414.11"/>
</g>
<!-- Node21&#45;&gt;Node1 -->
<g id="edge29" class="edge">
<title>Node21&#45;&gt;Node1</title>
<path fill="none" stroke="#9a32cd" stroke-dasharray="5,2" d="M528.31,-425.26C567.82,-402.13 650.11,-360.07 726,-360.07 726,-360.07 726,-360.07 1461.5,-360.07 1547.57,-360.07 1627.9,-276.41 1652.97,-247.65"/>
<polygon fill="#9a32cd" stroke="#9a32cd" points="526.45,-422.29 519.66,-430.42 530.04,-428.3 526.45,-422.29"/>
<text text-anchor="middle" x="1070.5" y="-363.07" font-family="Helvetica" font-size="10.00"> mVoltageRef</text>
</g>
<!-- Node22 -->
<g id="node22" class="node">
<title>Node22</title>
<g id="a_node22"><a xlink:title=" ">
<polygon fill="none" stroke="#bfbfbf" points="160,-492.57 160,-533.57 268,-533.57 268,-492.57 160,-492.57"/>
<text text-anchor="start" x="168" y="-521.57" font-family="Helvetica" font-size="10.00">std::enable_shared</text>
<text text-anchor="start" x="168" y="-510.57" font-family="Helvetica" font-size="10.00">_from_this&lt; Attribute</text>
<text text-anchor="middle" x="214" y="-499.57" font-family="Helvetica" font-size="10.00">&lt; Complex &gt; &gt;</text>
</a>
</g>
</g>
<!-- Node22&#45;&gt;Node21 -->
<g id="edge31" class="edge">
<title>Node22&#45;&gt;Node21</title>
<path fill="none" stroke="midnightblue" d="M278.11,-506.21C318.42,-500.83 371.48,-491.9 417,-478.07 441.09,-470.76 467.35,-458.37 484.33,-449.73"/>
<polygon fill="midnightblue" stroke="midnightblue" points="277.61,-502.74 268.15,-507.5 278.51,-509.68 277.61,-502.74"/>
</g>
</g>
</svg>
        <g id="navigator" transform="translate(0 0)" fill="#404254">
                <rect fill="#f2f5e9" fill-opacity="0.5" stroke="#606060" stroke-width=".5" x="0" y="0" width="60" height="60"/>
                <use id="zoomplus" xlink:href="#zoomPlus" x="17" y="9" onmousedown="handleZoom(evt,'in')"/>
                <use id="zoomminus" xlink:href="#zoomMin" x="42" y="9" onmousedown="handleZoom(evt,'out')"/>
                <use id="reset" xlink:href="#resetDef" x="30" y="36" onmousedown="handleReset()"/>
                <g id="arrowUp" xlink:href="#dirArrow" transform="translate(30 24)" onmousedown="handlePan(0,-1)">
                  <use xlink:href="#rim" fill="#404040">
                        <set attributeName="fill" to="#808080" begin="arrowUp.mouseover" end="arrowUp.mouseout"/>
                  </use>
                  <path fill="none" stroke="white" stroke-width="1.5" d="M0,-3.0v7 M-2.5,-0.5L0,-3.0L2.5,-0.5"/>
                </g>
                <g id="arrowRight" xlink:href="#dirArrow" transform="rotate(90) translate(36 -43)" onmousedown="handlePan(1,0)">
                  <use xlink:href="#rim" fill="#404040">
                        <set attributeName="fill" to="#808080" begin="arrowRight.mouseover" end="arrowRight.mouseout"/>
                  </use>
                  <path fill="none" stroke="white" stroke-width="1.5" d="M0,-3.0v7 M-2.5,-0.5L0,-3.0L2.5,-0.5"/>
                </g>
                <g id="arrowDown" xlink:href="#dirArrow" transform="rotate(180) translate(-30 -48)" onmousedown="handlePan(0,1)">
                  <use xlink:href="#rim" fill="#404040">
                        <set attributeName="fill" to="#808080" begin="arrowDown.mouseover" end="arrowDown.mouseout"/>
                  </use>
                  <path fill="none" stroke="white" stroke-width="1.5" d="M0,-3.0v7 M-2.5,-0.5L0,-3.0L2.5,-0.5"/>
                </g>
                <g id="arrowLeft" xlink:href="#dirArrow" transform="rotate(270) translate(-36 17)" onmousedown="handlePan(-1,0)">
                  <use xlink:href="#rim" fill="#404040">
                        <set attributeName="fill" to="#808080" begin="arrowLeft.mouseover" end="arrowLeft.mouseout"/>
                  </use>
                  <path fill="none" stroke="white" stroke-width="1.5" d="M0,-3.0v7 M-2.5,-0.5L0,-3.0L2.5,-0.5"/>
                </g>
        </g>
        <svg viewBox="0 0 15 15" width="100%" height="30px" preserveAspectRatio="xMaxYMin meet">
         <g id="arrow_out" transform="scale(0.3 0.3)">
          <a xlink:href="class_c_p_s_1_1_d_p_1_1_ph1_1_1_voltage_source_ramp__coll__graph_org.svg" target="_base">
           <rect id="button" ry="5" rx="5" y="6" x="6" height="38" width="38"
                fill="#f2f5e9" fill-opacity="0.5" stroke="#606060" stroke-width="1.0"/>
           <path id="arrow"
             d="M 11.500037,31.436501 C 11.940474,20.09759 22.043105,11.32322 32.158766,21.979434 L 37.068811,17.246167 C 37.068811,17.246167 37.088388,32 37.088388,32 L 22.160133,31.978069 C 22.160133,31.978069 26.997745,27.140456 26.997745,27.140456 C 18.528582,18.264221 13.291696,25.230495 11.500037,31.436501 z"
             style="fill:#404040;"/>
          </a>
         </g>
        </svg>
</svg>
