<?xml version="1.0" encoding="UTF-8" standalone="no"?>
<!DOCTYPE svg PUBLIC "-//W3C//DTD SVG 1.1//EN"
 "http://www.w3.org/Graphics/SVG/1.1/DTD/svg11.dtd">
<!-- Generated by graphviz version 2.44.0 (0)
 -->
<!-- Title: CPS::DP::Ph1::Inverter Pages: 1 -->
<!--zoomable 331 -->
<svg id="main" version="1.1" xmlns="http://www.w3.org/2000/svg" xmlns:xlink="http://www.w3.org/1999/xlink" xml:space="preserve" onload="init(evt)">
<style type="text/css"><![CDATA[
.edge:hover path { stroke: red; }
.edge:hover polygon { stroke: red; fill: red; }
]]></style>
<script type="text/javascript"><![CDATA[
var edges = document.getElementsByTagName('g');
if (edges && edges.length) {
  for (var i=0;i<edges.length;i++) {
    if (edges[i].id.substr(0,4)=='edge') {
      edges[i].setAttribute('class','edge');
    }
  }
}
]]></script>
        <defs>
                <circle id="rim" cx="0" cy="0" r="7"/>
                <circle id="rim2" cx="0" cy="0" r="3.5"/>
                <g id="zoomPlus">
                        <use xlink:href="#rim" fill="#404040">
                                <set attributeName="fill" to="#808080" begin="zoomplus.mouseover" end="zoomplus.mouseout"/>
                        </use>
                        <path d="M-4,0h8M0,-4v8" fill="none" stroke="white" stroke-width="1.5" pointer-events="none"/>
                </g>
                <g id="zoomMin">
                        <use xlink:href="#rim" fill="#404040">
                                <set attributeName="fill" to="#808080" begin="zoomminus.mouseover" end="zoomminus.mouseout"/>
                        </use>
                        <path d="M-4,0h8" fill="none" stroke="white" stroke-width="1.5" pointer-events="none"/>
                </g>
                <g id="dirArrow">
                        <path fill="none" stroke="white" stroke-width="1.5" d="M0,-3.0v7 M-2.5,-0.5L0,-3.0L2.5,-0.5"/>
                </g>
               <g id="resetDef">
                       <use xlink:href="#rim2" fill="#404040">
                               <set attributeName="fill" to="#808080" begin="reset.mouseover" end="reset.mouseout"/>
                       </use>
               </g>
        </defs>

<script type="text/javascript">
var viewWidth = 1568;
var viewHeight = 331;
var sectionId = 'dynsection-1';
</script>
<script xlink:href="svgpan.js"/>
<svg id="graph" class="graph">
<g id="viewport">
<title>CPS::DP::Ph1::Inverter</title>
<!-- Node1 -->
<g id="node1" class="node">
<title>Node1</title>
<g id="a_node1"><a xlink:title="Single phase inverter model.">
<polygon fill="#bfbfbf" stroke="black" points="1440,-134.5 1440,-153.5 1560,-153.5 1560,-134.5 1440,-134.5"/>
<text text-anchor="middle" x="1500" y="-141.5" font-family="Helvetica" font-size="10.00">CPS::DP::Ph1::Inverter</text>
</a>
</g>
</g>
<!-- Node2 -->
<g id="node2" class="node">
<title>Node2</title>
<g id="a_node2"><a xlink:href="class_c_p_s_1_1_sim_power_comp.html" target="_top" xlink:title=" ">
<polygon fill="none" stroke="black" points="1277,-129 1277,-159 1397,-159 1397,-129 1277,-129"/>
<text text-anchor="start" x="1285" y="-147" font-family="Helvetica" font-size="10.00">CPS::SimPowerComp&lt;</text>
<text text-anchor="middle" x="1337" y="-136" font-family="Helvetica" font-size="10.00"> Complex &gt;</text>
</a>
</g>
</g>
<!-- Node2&#45;&gt;Node1 -->
<g id="edge1" class="edge">
<title>Node2&#45;&gt;Node1</title>
<path fill="none" stroke="midnightblue" d="M1407.35,-144C1418.22,-144 1429.36,-144 1439.97,-144"/>
<polygon fill="midnightblue" stroke="midnightblue" points="1407.04,-140.5 1397.04,-144 1407.04,-147.5 1407.04,-140.5"/>
</g>
<!-- Node3 -->
<g id="node3" class="node">
<title>Node3</title>
<g id="a_node3"><a xlink:href="class_c_p_s_1_1_topological_power_comp.html" target="_top" xlink:title=" ">
<polygon fill="none" stroke="black" points="871,-113.5 871,-132.5 1017,-132.5 1017,-113.5 871,-113.5"/>
<text text-anchor="middle" x="944" y="-120.5" font-family="Helvetica" font-size="10.00">CPS::TopologicalPowerComp</text>
</a>
</g>
</g>
<!-- Node3&#45;&gt;Node2 -->
<g id="edge2" class="edge">
<title>Node3&#45;&gt;Node2</title>
<path fill="none" stroke="midnightblue" d="M1027.5,-124.98C1071.09,-126.26 1125.47,-128.21 1174,-131 1208.08,-132.96 1246.14,-135.97 1276.8,-138.6"/>
<polygon fill="midnightblue" stroke="midnightblue" points="1027.33,-121.48 1017.24,-124.69 1027.13,-128.47 1027.33,-121.48"/>
</g>
<!-- Node11 -->
<g id="node11" class="node">
<title>Node11</title>
<g id="a_node11"><a xlink:href="class_c_p_s_1_1_sim_power_comp.html" target="_top" xlink:title="Base class for all components that are transmitting power.">
<polygon fill="none" stroke="black" points="1054,-141 1054,-171 1174,-171 1174,-141 1054,-141"/>
<text text-anchor="start" x="1062" y="-159" font-family="Helvetica" font-size="10.00">CPS::SimPowerComp&lt;</text>
<text text-anchor="middle" x="1114" y="-148" font-family="Helvetica" font-size="10.00"> VarType &gt;</text>
</a>
</g>
</g>
<!-- Node3&#45;&gt;Node11 -->
<g id="edge12" class="edge">
<title>Node3&#45;&gt;Node11</title>
<path fill="none" stroke="midnightblue" d="M1003.52,-134.49C1019.79,-137.69 1037.47,-141.16 1053.79,-144.37"/>
<polygon fill="midnightblue" stroke="midnightblue" points="1004.08,-131.04 993.59,-132.54 1002.73,-137.91 1004.08,-131.04"/>
</g>
<!-- Node4 -->
<g id="node4" class="node">
<title>Node4</title>
<g id="a_node4"><a xlink:href="class_c_p_s_1_1_identified_object.html" target="_top" xlink:title=" ">
<polygon fill="none" stroke="black" points="665,-113.5 665,-132.5 777,-132.5 777,-113.5 665,-113.5"/>
<text text-anchor="middle" x="721" y="-120.5" font-family="Helvetica" font-size="10.00">CPS::IdentifiedObject</text>
</a>
</g>
</g>
<!-- Node4&#45;&gt;Node3 -->
<g id="edge3" class="edge">
<title>Node4&#45;&gt;Node3</title>
<path fill="none" stroke="midnightblue" d="M787.43,-123C813.71,-123 844.09,-123 871,-123"/>
<polygon fill="midnightblue" stroke="midnightblue" points="787.2,-119.5 777.2,-123 787.2,-126.5 787.2,-119.5"/>
</g>
<!-- Node5 -->
<g id="node5" class="node">
<title>Node5</title>
<g id="a_node5"><a xlink:href="class_c_p_s_1_1_attribute_list.html" target="_top" xlink:title="Base class of objects having attributes to access member variables.">
<polygon fill="none" stroke="black" points="452.5,-197.5 452.5,-216.5 548.5,-216.5 548.5,-197.5 452.5,-197.5"/>
<text text-anchor="middle" x="500.5" y="-204.5" font-family="Helvetica" font-size="10.00">CPS::AttributeList</text>
</a>
</g>
</g>
<!-- Node5&#45;&gt;Node4 -->
<g id="edge4" class="edge">
<title>Node5&#45;&gt;Node4</title>
<path fill="none" stroke="midnightblue" d="M544.28,-194.35C551.56,-192.02 559.03,-189.52 566,-187 614.19,-169.56 669.36,-145.64 698.82,-132.54"/>
<polygon fill="midnightblue" stroke="midnightblue" points="543.01,-191.08 534.51,-197.41 545.1,-197.76 543.01,-191.08"/>
</g>
<!-- Node14 -->
<g id="node14" class="node">
<title>Node14</title>
<g id="a_node14"><a xlink:href="class_c_p_s_1_1_m_n_a_interface.html" target="_top" xlink:title="Interface to be implemented by all models used by the MNA solver.">
<polygon fill="none" stroke="black" points="669,-202.5 669,-221.5 773,-221.5 773,-202.5 669,-202.5"/>
<text text-anchor="middle" x="721" y="-209.5" font-family="Helvetica" font-size="10.00">CPS::MNAInterface</text>
</a>
</g>
</g>
<!-- Node5&#45;&gt;Node14 -->
<g id="edge18" class="edge">
<title>Node5&#45;&gt;Node14</title>
<path fill="none" stroke="midnightblue" d="M558.91,-208.31C592.99,-209.09 635.82,-210.07 668.75,-210.83"/>
<polygon fill="midnightblue" stroke="midnightblue" points="558.72,-204.81 548.64,-208.08 558.56,-211.81 558.72,-204.81"/>
</g>
<!-- Node6 -->
<g id="node6" class="node">
<title>Node6</title>
<g id="a_node6"><a xlink:href="class_c_p_s_1_1_attribute.html" target="_top" xlink:title=" ">
<polygon fill="none" stroke="black" points="438.5,-84.5 438.5,-103.5 562.5,-103.5 562.5,-84.5 438.5,-84.5"/>
<text text-anchor="middle" x="500.5" y="-91.5" font-family="Helvetica" font-size="10.00">CPS::Attribute&lt; String &gt;</text>
</a>
</g>
</g>
<!-- Node6&#45;&gt;Node4 -->
<g id="edge5" class="edge">
<title>Node6&#45;&gt;Node4</title>
<path fill="none" stroke="#9a32cd" stroke-dasharray="5,2" d="M572.62,-103.44C602.56,-107.41 636.86,-111.97 664.83,-115.68"/>
<polygon fill="#9a32cd" stroke="#9a32cd" points="573.03,-99.96 562.65,-102.12 572.11,-106.9 573.03,-99.96"/>
<text text-anchor="middle" x="615.5" y="-127" font-family="Helvetica" font-size="10.00"> mName</text>
<text text-anchor="middle" x="615.5" y="-116" font-family="Helvetica" font-size="10.00">mUID</text>
</g>
<!-- Node7 -->
<g id="node7" class="node">
<title>Node7</title>
<g id="a_node7"><a xlink:href="class_c_p_s_1_1_attribute_base.html" target="_top" xlink:title=" ">
<polygon fill="none" stroke="black" points="2.5,-192.5 2.5,-211.5 105.5,-211.5 105.5,-192.5 2.5,-192.5"/>
<text text-anchor="middle" x="54" y="-199.5" font-family="Helvetica" font-size="10.00">CPS::AttributeBase</text>
</a>
</g>
</g>
<!-- Node7&#45;&gt;Node6 -->
<g id="edge6" class="edge">
<title>Node7&#45;&gt;Node6</title>
<path fill="none" stroke="midnightblue" d="M63.33,-183.22C76.36,-156.5 104.33,-108.6 145,-89 253.12,-36.89 402.21,-67.07 467.13,-84.41"/>
<polygon fill="midnightblue" stroke="midnightblue" points="60.14,-181.78 59.08,-192.32 66.49,-184.74 60.14,-181.78"/>
</g>
<!-- Node9 -->
<g id="node9" class="node">
<title>Node9</title>
<g id="a_node9"><a xlink:href="class_c_p_s_1_1_attribute.html" target="_top" xlink:title=" ">
<polygon fill="none" stroke="black" points="162,-158.5 162,-177.5 266,-177.5 266,-158.5 162,-158.5"/>
<text text-anchor="middle" x="214" y="-165.5" font-family="Helvetica" font-size="10.00">CPS::Attribute&lt; T &gt;</text>
</a>
</g>
</g>
<!-- Node7&#45;&gt;Node9 -->
<g id="edge9" class="edge">
<title>Node7&#45;&gt;Node9</title>
<path fill="none" stroke="midnightblue" d="M109.32,-190.31C128.67,-186.15 150.21,-181.51 168.63,-177.55"/>
<polygon fill="midnightblue" stroke="midnightblue" points="108.47,-186.91 99.43,-192.44 109.94,-193.76 108.47,-186.91"/>
</g>
<!-- Node12 -->
<g id="node12" class="node">
<title>Node12</title>
<g id="a_node12"><a xlink:href="class_c_p_s_1_1_attribute.html" target="_top" xlink:title=" ">
<polygon fill="none" stroke="black" points="435,-147 435,-177 566,-177 566,-147 435,-147"/>
<text text-anchor="start" x="443" y="-165" font-family="Helvetica" font-size="10.00">CPS::Attribute&lt; MatrixVar</text>
<text text-anchor="middle" x="500.5" y="-154" font-family="Helvetica" font-size="10.00">&lt; VarType &gt; &gt;</text>
</a>
</g>
</g>
<!-- Node7&#45;&gt;Node12 -->
<g id="edge14" class="edge">
<title>Node7&#45;&gt;Node12</title>
<path fill="none" stroke="midnightblue" d="M98.41,-214.01C168.81,-231.07 310.69,-255.35 417,-208 427.92,-203.13 425.2,-194.86 435,-188 440.94,-183.85 447.63,-180.21 454.41,-177.08"/>
<polygon fill="midnightblue" stroke="midnightblue" points="99.11,-210.57 88.56,-211.55 97.41,-217.36 99.11,-210.57"/>
</g>
<!-- Node15 -->
<g id="node15" class="node">
<title>Node15</title>
<g id="a_node15"><a xlink:href="class_c_p_s_1_1_attribute.html" target="_top" xlink:title=" ">
<polygon fill="none" stroke="black" points="438,-236.5 438,-255.5 563,-255.5 563,-236.5 438,-236.5"/>
<text text-anchor="middle" x="500.5" y="-243.5" font-family="Helvetica" font-size="10.00">CPS::Attribute&lt; Matrix &gt;</text>
</a>
</g>
</g>
<!-- Node7&#45;&gt;Node15 -->
<g id="edge20" class="edge">
<title>Node7&#45;&gt;Node15</title>
<path fill="none" stroke="midnightblue" d="M80.2,-216.38C97.73,-225.35 121.99,-235.79 145,-239 246.97,-253.22 367.01,-251.85 437.99,-249.19"/>
<polygon fill="midnightblue" stroke="midnightblue" points="81.68,-213.2 71.2,-211.6 78.39,-219.38 81.68,-213.2"/>
</g>
<!-- Node8 -->
<g id="node8" class="node">
<title>Node8</title>
<g id="a_node8"><a xlink:title=" ">
<polygon fill="none" stroke="#bfbfbf" points="160,-0.5 160,-41.5 268,-41.5 268,-0.5 160,-0.5"/>
<text text-anchor="start" x="168" y="-29.5" font-family="Helvetica" font-size="10.00">std::enable_shared</text>
<text text-anchor="start" x="168" y="-18.5" font-family="Helvetica" font-size="10.00">_from_this&lt; Attribute</text>
<text text-anchor="middle" x="214" y="-7.5" font-family="Helvetica" font-size="10.00">&lt; String &gt; &gt;</text>
</a>
</g>
</g>
<!-- Node8&#45;&gt;Node6 -->
<g id="edge7" class="edge">
<title>Node8&#45;&gt;Node6</title>
<path fill="none" stroke="midnightblue" d="M278.17,-27.66C318.51,-32.95 371.57,-41.87 417,-56 440.49,-63.31 465.99,-75.82 482.32,-84.48"/>
<polygon fill="midnightblue" stroke="midnightblue" points="278.57,-24.18 268.2,-26.39 277.68,-31.12 278.57,-24.18"/>
</g>
<!-- Node9&#45;&gt;Node6 -->
<g id="edge8" class="edge">
<title>Node9&#45;&gt;Node6</title>
<path fill="none" stroke="orange" stroke-dasharray="5,2" d="M261.31,-155.96C317.47,-141.35 411.02,-117.01 462.58,-103.6"/>
<polygon fill="orange" stroke="orange" points="260.41,-152.57 251.61,-158.48 262.17,-159.35 260.41,-152.57"/>
<text text-anchor="middle" x="359" y="-148" font-family="Helvetica" font-size="10.00"> &lt; String &gt;</text>
</g>
<!-- Node9&#45;&gt;Node12 -->
<g id="edge16" class="edge">
<title>Node9&#45;&gt;Node12</title>
<path fill="none" stroke="orange" stroke-dasharray="5,2" d="M276.37,-164.03C284.65,-163.62 293.03,-163.25 301,-163 345.61,-161.59 395.88,-161.35 434.67,-161.46"/>
<polygon fill="orange" stroke="orange" points="276.17,-160.54 266.37,-164.57 276.54,-167.53 276.17,-160.54"/>
<text text-anchor="middle" x="359" y="-166" font-family="Helvetica" font-size="10.00"> &lt; MatrixVar&lt; VarType &gt; &gt;</text>
</g>
<!-- Node9&#45;&gt;Node15 -->
<g id="edge22" class="edge">
<title>Node9&#45;&gt;Node15</title>
<path fill="none" stroke="orange" stroke-dasharray="5,2" d="M259.66,-180.24C316.42,-195.81 413.22,-222.34 464.77,-236.48"/>
<polygon fill="orange" stroke="orange" points="260.45,-176.83 249.89,-177.56 258.6,-183.58 260.45,-176.83"/>
<text text-anchor="middle" x="359" y="-225" font-family="Helvetica" font-size="10.00"> &lt; Matrix &gt;</text>
</g>
<!-- Node10 -->
<g id="node10" class="node">
<title>Node10</title>
<g id="a_node10"><a xlink:title=" ">
<polygon fill="none" stroke="#bfbfbf" points="0,-24.5 0,-65.5 108,-65.5 108,-24.5 0,-24.5"/>
<text text-anchor="start" x="8" y="-53.5" font-family="Helvetica" font-size="10.00">std::enable_shared</text>
<text text-anchor="start" x="8" y="-42.5" font-family="Helvetica" font-size="10.00">_from_this&lt; Attribute</text>
<text text-anchor="middle" x="54" y="-31.5" font-family="Helvetica" font-size="10.00">&lt; T &gt; &gt;</text>
</a>
</g>
</g>
<!-- Node10&#45;&gt;Node9 -->
<g id="edge10" class="edge">
<title>Node10&#45;&gt;Node9</title>
<path fill="none" stroke="midnightblue" d="M73.29,-74.35C89.4,-97.86 114.96,-129.96 145,-149 151.11,-152.87 158.01,-155.97 165.02,-158.44"/>
<polygon fill="midnightblue" stroke="midnightblue" points="76.05,-72.18 67.58,-65.81 70.22,-76.07 76.05,-72.18"/>
</g>
<!-- Node11&#45;&gt;Node2 -->
<g id="edge11" class="edge">
<title>Node11&#45;&gt;Node2</title>
<path fill="none" stroke="orange" stroke-dasharray="5,2" d="M1184.52,-152.22C1214.23,-150.61 1248.55,-148.75 1277,-147.2"/>
<polygon fill="orange" stroke="orange" points="1184.02,-148.75 1174.22,-152.78 1184.4,-155.74 1184.02,-148.75"/>
<text text-anchor="middle" x="1222.5" y="-155" font-family="Helvetica" font-size="10.00"> &lt; Complex &gt;</text>
</g>
<!-- Node12&#45;&gt;Node11 -->
<g id="edge13" class="edge">
<title>Node12&#45;&gt;Node11</title>
<path fill="none" stroke="#9a32cd" stroke-dasharray="5,2" d="M576.15,-161.27C699.09,-160.06 941.66,-157.68 1053.71,-156.58"/>
<polygon fill="#9a32cd" stroke="#9a32cd" points="576.04,-157.77 566.07,-161.37 576.11,-164.77 576.04,-157.77"/>
<text text-anchor="middle" x="824" y="-174" font-family="Helvetica" font-size="10.00"> mIntfCurrent</text>
<text text-anchor="middle" x="824" y="-163" font-family="Helvetica" font-size="10.00">mIntfVoltage</text>
</g>
<!-- Node13 -->
<g id="node13" class="node">
<title>Node13</title>
<g id="a_node13"><a xlink:title=" ">
<polygon fill="none" stroke="#bfbfbf" points="145,-98.5 145,-139.5 283,-139.5 283,-98.5 145,-98.5"/>
<text text-anchor="start" x="153" y="-127.5" font-family="Helvetica" font-size="10.00">std::enable_shared</text>
<text text-anchor="start" x="153" y="-116.5" font-family="Helvetica" font-size="10.00">_from_this&lt; Attribute</text>
<text text-anchor="middle" x="214" y="-105.5" font-family="Helvetica" font-size="10.00">&lt; MatrixVar&lt; VarType &gt; &gt; &gt;</text>
</a>
</g>
</g>
<!-- Node13&#45;&gt;Node12 -->
<g id="edge15" class="edge">
<title>Node13&#45;&gt;Node12</title>
<path fill="none" stroke="midnightblue" d="M293.19,-103.24C331.25,-98.54 377.26,-97.33 417,-109 442.16,-116.38 466.9,-134.06 482.63,-146.98"/>
<polygon fill="midnightblue" stroke="midnightblue" points="292.64,-99.78 283.19,-104.57 293.57,-106.72 292.64,-99.78"/>
</g>
<!-- Node14&#45;&gt;Node1 -->
<g id="edge17" class="edge">
<title>Node14&#45;&gt;Node1</title>
<path fill="none" stroke="midnightblue" d="M783.38,-209.44C827.73,-207.81 889.05,-206 943,-206 943,-206 943,-206 1338,-206 1395.51,-206 1457.32,-171.12 1484.63,-153.69"/>
<polygon fill="midnightblue" stroke="midnightblue" points="783.2,-205.94 773.34,-209.82 783.47,-212.94 783.2,-205.94"/>
</g>
<!-- Node15&#45;&gt;Node14 -->
<g id="edge19" class="edge">
<title>Node15&#45;&gt;Node14</title>
<path fill="none" stroke="#9a32cd" stroke-dasharray="5,2" d="M572.66,-234.93C604.03,-230.05 640.19,-224.42 668.83,-219.96"/>
<polygon fill="#9a32cd" stroke="#9a32cd" points="572,-231.49 562.65,-236.48 573.07,-238.4 572,-231.49"/>
<text text-anchor="middle" x="615.5" y="-236" font-family="Helvetica" font-size="10.00"> mRightVector</text>
</g>
<!-- Node16 -->
<g id="node16" class="node">
<title>Node16</title>
<g id="a_node16"><a xlink:title=" ">
<polygon fill="none" stroke="#bfbfbf" points="160,-281.5 160,-322.5 268,-322.5 268,-281.5 160,-281.5"/>
<text text-anchor="start" x="168" y="-310.5" font-family="Helvetica" font-size="10.00">std::enable_shared</text>
<text text-anchor="start" x="168" y="-299.5" font-family="Helvetica" font-size="10.00">_from_this&lt; Attribute</text>
<text text-anchor="middle" x="214" y="-288.5" font-family="Helvetica" font-size="10.00">&lt; Matrix &gt; &gt;</text>
</a>
</g>
</g>
<!-- Node16&#45;&gt;Node15 -->
<g id="edge21" class="edge">
<title>Node16&#45;&gt;Node15</title>
<path fill="none" stroke="midnightblue" d="M278.5,-292.29C318.41,-285.88 370.89,-276.85 417,-267 432.61,-263.67 449.73,-259.41 464.31,-255.6"/>
<polygon fill="midnightblue" stroke="midnightblue" points="277.7,-288.88 268.38,-293.91 278.81,-295.79 277.7,-288.88"/>
</g>
<!-- Node17 -->
<g id="node17" class="node">
<title>Node17</title>
<g id="a_node17"><a xlink:href="class_shared_factory.html" target="_top" xlink:title=" ">
<polygon fill="none" stroke="black" points="1271,-71.5 1271,-90.5 1403,-90.5 1403,-71.5 1271,-71.5"/>
<text text-anchor="middle" x="1337" y="-78.5" font-family="Helvetica" font-size="10.00">SharedFactory&lt; Inverter &gt;</text>
</a>
</g>
</g>
<!-- Node17&#45;&gt;Node1 -->
<g id="edge23" class="edge">
<title>Node17&#45;&gt;Node1</title>
<path fill="none" stroke="midnightblue" d="M1371.91,-94.27C1402.65,-106.3 1447.21,-123.73 1474.58,-134.45"/>
<polygon fill="midnightblue" stroke="midnightblue" points="1373.04,-90.95 1362.45,-90.57 1370.49,-97.47 1373.04,-90.95"/>
</g>
<!-- Node18 -->
<g id="node18" class="node">
<title>Node18</title>
<g id="a_node18"><a xlink:href="class_shared_factory.html" target="_top" xlink:title=" ">
<polygon fill="none" stroke="black" points="1061.5,-64.5 1061.5,-83.5 1166.5,-83.5 1166.5,-64.5 1061.5,-64.5"/>
<text text-anchor="middle" x="1114" y="-71.5" font-family="Helvetica" font-size="10.00">SharedFactory&lt; T &gt;</text>
</a>
</g>
</g>
<!-- Node18&#45;&gt;Node17 -->
<g id="edge24" class="edge">
<title>Node18&#45;&gt;Node17</title>
<path fill="none" stroke="orange" stroke-dasharray="5,2" d="M1176.66,-75.95C1206.01,-76.88 1241.11,-77.99 1270.9,-78.94"/>
<polygon fill="orange" stroke="orange" points="1176.64,-72.45 1166.54,-75.63 1176.42,-79.45 1176.64,-72.45"/>
<text text-anchor="middle" x="1222.5" y="-82" font-family="Helvetica" font-size="10.00"> &lt; Inverter &gt;</text>
</g>
</g>
</svg>
        <g id="navigator" transform="translate(0 0)" fill="#404254">
                <rect fill="#f2f5e9" fill-opacity="0.5" stroke="#606060" stroke-width=".5" x="0" y="0" width="60" height="60"/>
                <use id="zoomplus" xlink:href="#zoomPlus" x="17" y="9" onmousedown="handleZoom(evt,'in')"/>
                <use id="zoomminus" xlink:href="#zoomMin" x="42" y="9" onmousedown="handleZoom(evt,'out')"/>
                <use id="reset" xlink:href="#resetDef" x="30" y="36" onmousedown="handleReset()"/>
                <g id="arrowUp" xlink:href="#dirArrow" transform="translate(30 24)" onmousedown="handlePan(0,-1)">
                  <use xlink:href="#rim" fill="#404040">
                        <set attributeName="fill" to="#808080" begin="arrowUp.mouseover" end="arrowUp.mouseout"/>
                  </use>
                  <path fill="none" stroke="white" stroke-width="1.5" d="M0,-3.0v7 M-2.5,-0.5L0,-3.0L2.5,-0.5"/>
                </g>
                <g id="arrowRight" xlink:href="#dirArrow" transform="rotate(90) translate(36 -43)" onmousedown="handlePan(1,0)">
                  <use xlink:href="#rim" fill="#404040">
                        <set attributeName="fill" to="#808080" begin="arrowRight.mouseover" end="arrowRight.mouseout"/>
                  </use>
                  <path fill="none" stroke="white" stroke-width="1.5" d="M0,-3.0v7 M-2.5,-0.5L0,-3.0L2.5,-0.5"/>
                </g>
                <g id="arrowDown" xlink:href="#dirArrow" transform="rotate(180) translate(-30 -48)" onmousedown="handlePan(0,1)">
                  <use xlink:href="#rim" fill="#404040">
                        <set attributeName="fill" to="#808080" begin="arrowDown.mouseover" end="arrowDown.mouseout"/>
                  </use>
                  <path fill="none" stroke="white" stroke-width="1.5" d="M0,-3.0v7 M-2.5,-0.5L0,-3.0L2.5,-0.5"/>
                </g>
                <g id="arrowLeft" xlink:href="#dirArrow" transform="rotate(270) translate(-36 17)" onmousedown="handlePan(-1,0)">
                  <use xlink:href="#rim" fill="#404040">
                        <set attributeName="fill" to="#808080" begin="arrowLeft.mouseover" end="arrowLeft.mouseout"/>
                  </use>
                  <path fill="none" stroke="white" stroke-width="1.5" d="M0,-3.0v7 M-2.5,-0.5L0,-3.0L2.5,-0.5"/>
                </g>
        </g>
        <svg viewBox="0 0 15 15" width="100%" height="30px" preserveAspectRatio="xMaxYMin meet">
         <g id="arrow_out" transform="scale(0.3 0.3)">
          <a xlink:href="class_c_p_s_1_1_d_p_1_1_ph1_1_1_inverter__coll__graph_org.svg" target="_base">
           <rect id="button" ry="5" rx="5" y="6" x="6" height="38" width="38"
                fill="#f2f5e9" fill-opacity="0.5" stroke="#606060" stroke-width="1.0"/>
           <path id="arrow"
             d="M 11.500037,31.436501 C 11.940474,20.09759 22.043105,11.32322 32.158766,21.979434 L 37.068811,17.246167 C 37.068811,17.246167 37.088388,32 37.088388,32 L 22.160133,31.978069 C 22.160133,31.978069 26.997745,27.140456 26.997745,27.140456 C 18.528582,18.264221 13.291696,25.230495 11.500037,31.436501 z"
             style="fill:#404040;"/>
          </a>
         </g>
        </svg>
</svg>
