<?xml version="1.0" encoding="UTF-8" standalone="no"?>
<!DOCTYPE svg PUBLIC "-//W3C//DTD SVG 1.1//EN"
 "http://www.w3.org/Graphics/SVG/1.1/DTD/svg11.dtd">
<!-- Generated by graphviz version 2.44.0 (0)
 -->
<!-- Title: CPS::EMT::Ph3::Switch Pages: 1 -->
<svg width="1103pt" height="154pt"
 viewBox="0.00 0.00 1103.00 154.00" xmlns="http://www.w3.org/2000/svg" xmlns:xlink="http://www.w3.org/1999/xlink">
<g id="graph0" class="graph" transform="scale(1 1) rotate(0) translate(4 150)">
<title>CPS::EMT::Ph3::Switch</title>
<!-- Node1 -->
<g id="node1" class="node">
<title>Node1</title>
<g id="a_node1"><a xlink:title="Dynamic phasor switch.">
<polygon fill="#bfbfbf" stroke="black" points="972,-60.5 972,-79.5 1095,-79.5 1095,-60.5 972,-60.5"/>
<text text-anchor="middle" x="1033.5" y="-67.5" font-family="Helvetica" font-size="10.00">CPS::EMT::Ph3::Switch</text>
</a>
</g>
</g>
<!-- Node2 -->
<g id="node2" class="node">
<title>Node2</title>
<g id="a_node2"><a xlink:href="class_c_p_s_1_1_base_1_1_ph3_1_1_switch.html" target="_top" xlink:title="Dynamic Phasor Three&#45;Phase Switch.">
<polygon fill="none" stroke="black" points="808,-126.5 808,-145.5 933,-145.5 933,-126.5 808,-126.5"/>
<text text-anchor="middle" x="870.5" y="-133.5" font-family="Helvetica" font-size="10.00">CPS::Base::Ph3::Switch</text>
</a>
</g>
</g>
<!-- Node2&#45;&gt;Node1 -->
<g id="edge1" class="edge">
<title>Node2&#45;&gt;Node1</title>
<path fill="none" stroke="midnightblue" d="M916.73,-123.43C922.92,-121.43 929.16,-119.27 935,-117 963.73,-105.86 995.67,-89.7 1014.91,-79.53"/>
<polygon fill="midnightblue" stroke="midnightblue" points="915.61,-120.11 907.1,-126.43 917.69,-126.8 915.61,-120.11"/>
</g>
<!-- Node3 -->
<g id="node3" class="node">
<title>Node3</title>
<g id="a_node3"><a xlink:href="class_c_p_s_1_1_sim_power_comp.html" target="_top" xlink:title=" ">
<polygon fill="none" stroke="black" points="810.5,-77 810.5,-107 930.5,-107 930.5,-77 810.5,-77"/>
<text text-anchor="start" x="818.5" y="-95" font-family="Helvetica" font-size="10.00">CPS::SimPowerComp&lt;</text>
<text text-anchor="middle" x="870.5" y="-84" font-family="Helvetica" font-size="10.00"> Real &gt;</text>
</a>
</g>
</g>
<!-- Node3&#45;&gt;Node1 -->
<g id="edge2" class="edge">
<title>Node3&#45;&gt;Node1</title>
<path fill="none" stroke="midnightblue" d="M940.45,-82.58C950.89,-81.15 961.6,-79.69 971.85,-78.29"/>
<polygon fill="midnightblue" stroke="midnightblue" points="939.97,-79.11 930.54,-83.93 940.92,-86.05 939.97,-79.11"/>
</g>
<!-- Node4 -->
<g id="node4" class="node">
<title>Node4</title>
<g id="a_node4"><a xlink:href="class_c_p_s_1_1_topological_power_comp.html" target="_top" xlink:title=" ">
<polygon fill="none" stroke="black" points="282,-82.5 282,-101.5 428,-101.5 428,-82.5 282,-82.5"/>
<text text-anchor="middle" x="355" y="-89.5" font-family="Helvetica" font-size="10.00">CPS::TopologicalPowerComp</text>
</a>
</g>
</g>
<!-- Node4&#45;&gt;Node3 -->
<g id="edge3" class="edge">
<title>Node4&#45;&gt;Node3</title>
<path fill="none" stroke="midnightblue" d="M422.51,-102.97C430.41,-104.09 438.38,-105.13 446,-106 566.21,-119.68 597.32,-125.58 718,-117 749.35,-114.77 756.98,-112.07 788,-107 795.24,-105.82 802.83,-104.51 810.35,-103.18"/>
<polygon fill="midnightblue" stroke="midnightblue" points="422.96,-99.5 412.56,-101.52 421.95,-106.43 422.96,-99.5"/>
</g>
<!-- Node7 -->
<g id="node7" class="node">
<title>Node7</title>
<g id="a_node7"><a xlink:href="class_c_p_s_1_1_sim_power_comp.html" target="_top" xlink:title="Base class for all components that are transmitting power.">
<polygon fill="none" stroke="black" points="598,-77 598,-107 718,-107 718,-77 598,-77"/>
<text text-anchor="start" x="606" y="-95" font-family="Helvetica" font-size="10.00">CPS::SimPowerComp&lt;</text>
<text text-anchor="middle" x="658" y="-84" font-family="Helvetica" font-size="10.00"> VarType &gt;</text>
</a>
</g>
</g>
<!-- Node4&#45;&gt;Node7 -->
<g id="edge7" class="edge">
<title>Node4&#45;&gt;Node7</title>
<path fill="none" stroke="midnightblue" d="M438.32,-92C488.74,-92 552.1,-92 597.62,-92"/>
<polygon fill="midnightblue" stroke="midnightblue" points="438.1,-88.5 428.1,-92 438.1,-95.5 438.1,-88.5"/>
</g>
<!-- Node5 -->
<g id="node5" class="node">
<title>Node5</title>
<g id="a_node5"><a xlink:href="class_c_p_s_1_1_identified_object.html" target="_top" xlink:title=" ">
<polygon fill="none" stroke="black" points="133,-82.5 133,-101.5 245,-101.5 245,-82.5 133,-82.5"/>
<text text-anchor="middle" x="189" y="-89.5" font-family="Helvetica" font-size="10.00">CPS::IdentifiedObject</text>
</a>
</g>
</g>
<!-- Node5&#45;&gt;Node4 -->
<g id="edge4" class="edge">
<title>Node5&#45;&gt;Node4</title>
<path fill="none" stroke="midnightblue" d="M255.21,-92C263.98,-92 273.02,-92 281.89,-92"/>
<polygon fill="midnightblue" stroke="midnightblue" points="255.07,-88.5 245.07,-92 255.07,-95.5 255.07,-88.5"/>
</g>
<!-- Node6 -->
<g id="node6" class="node">
<title>Node6</title>
<g id="a_node6"><a xlink:href="class_c_p_s_1_1_attribute_list.html" target="_top" xlink:title="Base class of objects having attributes to access member variables.">
<polygon fill="none" stroke="black" points="0,-61.5 0,-80.5 96,-80.5 96,-61.5 0,-61.5"/>
<text text-anchor="middle" x="48" y="-68.5" font-family="Helvetica" font-size="10.00">CPS::AttributeList</text>
</a>
</g>
</g>
<!-- Node6&#45;&gt;Node5 -->
<g id="edge5" class="edge">
<title>Node6&#45;&gt;Node5</title>
<path fill="none" stroke="midnightblue" d="M106.22,-79.65C115.02,-80.97 124.08,-82.34 132.83,-83.66"/>
<polygon fill="midnightblue" stroke="midnightblue" points="106.47,-76.14 96.06,-78.11 105.42,-83.06 106.47,-76.14"/>
</g>
<!-- Node11 -->
<g id="node11" class="node">
<title>Node11</title>
<g id="a_node11"><a xlink:href="class_c_p_s_1_1_m_n_a_interface.html" target="_top" xlink:title="Interface to be implemented by all models used by the MNA solver.">
<polygon fill="none" stroke="black" points="137,-43.5 137,-62.5 241,-62.5 241,-43.5 137,-43.5"/>
<text text-anchor="middle" x="189" y="-50.5" font-family="Helvetica" font-size="10.00">CPS::MNAInterface</text>
</a>
</g>
</g>
<!-- Node6&#45;&gt;Node11 -->
<g id="edge12" class="edge">
<title>Node6&#45;&gt;Node11</title>
<path fill="none" stroke="midnightblue" d="M106.05,-63.61C116.2,-62.3 126.72,-60.94 136.7,-59.64"/>
<polygon fill="midnightblue" stroke="midnightblue" points="105.53,-60.15 96.06,-64.91 106.43,-67.09 105.53,-60.15"/>
</g>
<!-- Node7&#45;&gt;Node3 -->
<g id="edge6" class="edge">
<title>Node7&#45;&gt;Node3</title>
<path fill="none" stroke="orange" stroke-dasharray="5,2" d="M728.55,-92C755.04,-92 784.95,-92 810.38,-92"/>
<polygon fill="orange" stroke="orange" points="728.2,-88.5 718.2,-92 728.2,-95.5 728.2,-88.5"/>
<text text-anchor="middle" x="762" y="-95" font-family="Helvetica" font-size="10.00"> &lt; Real &gt;</text>
</g>
<!-- Node8 -->
<g id="node8" class="node">
<title>Node8</title>
<g id="a_node8"><a xlink:href="class_shared_factory.html" target="_top" xlink:title=" ">
<polygon fill="none" stroke="black" points="806,-0.5 806,-19.5 935,-19.5 935,-0.5 806,-0.5"/>
<text text-anchor="middle" x="870.5" y="-7.5" font-family="Helvetica" font-size="10.00">SharedFactory&lt; Switch &gt;</text>
</a>
</g>
</g>
<!-- Node8&#45;&gt;Node1 -->
<g id="edge8" class="edge">
<title>Node8&#45;&gt;Node1</title>
<path fill="none" stroke="midnightblue" d="M918.47,-22.37C930.18,-25.81 942.64,-29.77 954,-34 974.94,-41.8 998.09,-52.71 1013.79,-60.48"/>
<polygon fill="midnightblue" stroke="midnightblue" points="919.42,-19 908.84,-19.61 917.49,-25.73 919.42,-19"/>
</g>
<!-- Node9 -->
<g id="node9" class="node">
<title>Node9</title>
<g id="a_node9"><a xlink:href="class_shared_factory.html" target="_top" xlink:title=" ">
<polygon fill="none" stroke="black" points="605.5,-0.5 605.5,-19.5 710.5,-19.5 710.5,-0.5 605.5,-0.5"/>
<text text-anchor="middle" x="658" y="-7.5" font-family="Helvetica" font-size="10.00">SharedFactory&lt; T &gt;</text>
</a>
</g>
</g>
<!-- Node9&#45;&gt;Node8 -->
<g id="edge9" class="edge">
<title>Node9&#45;&gt;Node8</title>
<path fill="none" stroke="orange" stroke-dasharray="5,2" d="M720.79,-10C747.57,-10 778.91,-10 805.89,-10"/>
<polygon fill="orange" stroke="orange" points="720.76,-6.5 710.76,-10 720.76,-13.5 720.76,-6.5"/>
<text text-anchor="middle" x="762" y="-13" font-family="Helvetica" font-size="10.00"> &lt; Switch &gt;</text>
</g>
<!-- Node10 -->
<g id="node10" class="node">
<title>Node10</title>
<g id="a_node10"><a xlink:href="class_c_p_s_1_1_m_n_a_switch_interface.html" target="_top" xlink:title="MNA interface to be used by switching devices.">
<polygon fill="none" stroke="black" points="446,-39.5 446,-58.5 580,-58.5 580,-39.5 446,-39.5"/>
<text text-anchor="middle" x="513" y="-46.5" font-family="Helvetica" font-size="10.00">CPS::MNASwitchInterface</text>
</a>
</g>
</g>
<!-- Node10&#45;&gt;Node1 -->
<g id="edge10" class="edge">
<title>Node10&#45;&gt;Node1</title>
<path fill="none" stroke="midnightblue" d="M590.28,-52.09C693.92,-56.29 877.14,-63.71 971.93,-67.55"/>
<polygon fill="midnightblue" stroke="midnightblue" points="590.33,-48.59 580.2,-51.68 590.05,-55.58 590.33,-48.59"/>
</g>
<!-- Node11&#45;&gt;Node10 -->
<g id="edge11" class="edge">
<title>Node11&#45;&gt;Node10</title>
<path fill="none" stroke="midnightblue" d="M251.09,-52.24C306.74,-51.55 388.71,-50.53 445.88,-49.82"/>
<polygon fill="midnightblue" stroke="midnightblue" points="250.98,-48.74 241.02,-52.37 251.06,-55.74 250.98,-48.74"/>
</g>
</g>
</svg>
