<?xml version="1.0" encoding="UTF-8" standalone="no"?>
<!DOCTYPE svg PUBLIC "-//W3C//DTD SVG 1.1//EN"
 "http://www.w3.org/Graphics/SVG/1.1/DTD/svg11.dtd">
<!-- Generated by graphviz version 2.50.0 (0)
 -->
<!-- Title: CPS::DP::Ph3::Inductor Pages: 1 -->
<!--zoomable 338 -->
<svg id="main" version="1.1" xmlns="http://www.w3.org/2000/svg" xmlns:xlink="http://www.w3.org/1999/xlink" xml:space="preserve" onload="init(evt)">
<style type="text/css"><![CDATA[
.edge:hover path { stroke: red; }
.edge:hover polygon { stroke: red; fill: red; }
]]></style>
<script type="text/javascript"><![CDATA[
var edges = document.getElementsByTagName('g');
if (edges && edges.length) {
  for (var i=0;i<edges.length;i++) {
    if (edges[i].id.substr(0,4)=='edge') {
      edges[i].setAttribute('class','edge');
    }
  }
}
]]></script>
        <defs>
                <circle id="rim" cx="0" cy="0" r="7"/>
                <circle id="rim2" cx="0" cy="0" r="3.5"/>
                <g id="zoomPlus">
                        <use xlink:href="#rim" fill="#404040">
                                <set attributeName="fill" to="#808080" begin="zoomplus.mouseover" end="zoomplus.mouseout"/>
                        </use>
                        <path d="M-4,0h8M0,-4v8" fill="none" stroke="white" stroke-width="1.5" pointer-events="none"/>
                </g>
                <g id="zoomMin">
                        <use xlink:href="#rim" fill="#404040">
                                <set attributeName="fill" to="#808080" begin="zoomminus.mouseover" end="zoomminus.mouseout"/>
                        </use>
                        <path d="M-4,0h8" fill="none" stroke="white" stroke-width="1.5" pointer-events="none"/>
                </g>
                <g id="dirArrow">
                        <path fill="none" stroke="white" stroke-width="1.5" d="M0,-3.0v7 M-2.5,-0.5L0,-3.0L2.5,-0.5"/>
                </g>
               <g id="resetDef">
                       <use xlink:href="#rim2" fill="#404040">
                               <set attributeName="fill" to="#808080" begin="reset.mouseover" end="reset.mouseout"/>
                       </use>
               </g>
        </defs>

<script type="text/javascript">
var viewWidth = 1913;
var viewHeight = 338;
var sectionId = 'dynsection-1';
</script>
<script xlink:href="svgpan.js"/>
<svg id="graph" class="graph">
<g id="viewport">
<title>CPS::DP::Ph3::Inductor</title>
<!-- Node1 -->
<g id="node1" class="node">
<title>Node1</title>
<g id="a_node1"><a xlink:title="Inductor.">
<polygon fill="#bfbfbf" stroke="black" points="1781,-57.5 1781,-76.5 1905,-76.5 1905,-57.5 1781,-57.5"/>
<text text-anchor="middle" x="1843" y="-64.5" font-family="Helvetica,sans-Serif" font-size="10.00">CPS::DP::Ph3::Inductor</text>
</a>
</g>
</g>
<!-- Node2 -->
<g id="node2" class="node">
<title>Node2</title>
<g id="a_node2"><a xlink:href="class_c_p_s_1_1_m_n_a_sim_power_comp.html" target="_top" xlink:title=" ">
<polygon fill="none" stroke="black" points="1605.5,-150 1605.5,-180 1742.5,-180 1742.5,-150 1605.5,-150"/>
<text text-anchor="start" x="1613.5" y="-168" font-family="Helvetica,sans-Serif" font-size="10.00">CPS::MNASimPowerComp</text>
<text text-anchor="middle" x="1674" y="-157" font-family="Helvetica,sans-Serif" font-size="10.00">&lt; Complex &gt;</text>
</a>
</g>
</g>
<!-- Node2&#45;&gt;Node1 -->
<g id="edge1" class="edge">
<title>Node2&#45;&gt;Node1</title>
<path fill="none" stroke="midnightblue" d="M1709.78,-144.59C1745.29,-123.75 1798.86,-92.31 1825.6,-76.62"/>
<polygon fill="midnightblue" stroke="midnightblue" points="1707.58,-141.82 1700.73,-149.9 1711.12,-147.86 1707.58,-141.82"/>
</g>
<!-- Node3 -->
<g id="node3" class="node">
<title>Node3</title>
<g id="a_node3"><a xlink:href="class_c_p_s_1_1_sim_power_comp.html" target="_top" xlink:title=" ">
<polygon fill="none" stroke="black" points="1307,-199 1307,-229 1426,-229 1426,-199 1307,-199"/>
<text text-anchor="start" x="1315" y="-217" font-family="Helvetica,sans-Serif" font-size="10.00">CPS::SimPowerComp&lt;</text>
<text text-anchor="middle" x="1366.5" y="-206" font-family="Helvetica,sans-Serif" font-size="10.00"> Complex &gt;</text>
</a>
</g>
</g>
<!-- Node3&#45;&gt;Node2 -->
<g id="edge2" class="edge">
<title>Node3&#45;&gt;Node2</title>
<path fill="none" stroke="midnightblue" d="M1436.51,-203.56C1479.53,-196.97 1536.02,-188.2 1586,-180 1592.2,-178.98 1598.65,-177.91 1605.1,-176.82"/>
<polygon fill="midnightblue" stroke="midnightblue" points="1435.79,-200.13 1426.43,-205.1 1436.84,-207.05 1435.79,-200.13"/>
</g>
<!-- Node4 -->
<g id="node4" class="node">
<title>Node4</title>
<g id="a_node4"><a xlink:href="class_c_p_s_1_1_topological_power_comp.html" target="_top" xlink:title=" ">
<polygon fill="none" stroke="black" points="881,-221.5 881,-240.5 1029,-240.5 1029,-221.5 881,-221.5"/>
<text text-anchor="middle" x="955" y="-228.5" font-family="Helvetica,sans-Serif" font-size="10.00">CPS::TopologicalPowerComp</text>
</a>
</g>
</g>
<!-- Node4&#45;&gt;Node3 -->
<g id="edge3" class="edge">
<title>Node4&#45;&gt;Node3</title>
<path fill="none" stroke="midnightblue" d="M1039.69,-227.53C1119.23,-224.22 1236.82,-219.34 1306.84,-216.44"/>
<polygon fill="midnightblue" stroke="midnightblue" points="1039.06,-224.05 1029.21,-227.96 1039.35,-231.04 1039.06,-224.05"/>
</g>
<!-- Node11 -->
<g id="node11" class="node">
<title>Node11</title>
<g id="a_node11"><a xlink:href="class_c_p_s_1_1_sim_power_comp.html" target="_top" xlink:title="Base class for all components that are transmitting power.">
<polygon fill="none" stroke="black" points="1071,-169 1071,-199 1190,-199 1190,-169 1071,-169"/>
<text text-anchor="start" x="1079" y="-187" font-family="Helvetica,sans-Serif" font-size="10.00">CPS::SimPowerComp&lt;</text>
<text text-anchor="middle" x="1130.5" y="-176" font-family="Helvetica,sans-Serif" font-size="10.00"> VarType &gt;</text>
</a>
</g>
</g>
<!-- Node4&#45;&gt;Node11 -->
<g id="edge12" class="edge">
<title>Node4&#45;&gt;Node11</title>
<path fill="none" stroke="midnightblue" d="M1000.98,-218.82C1023.26,-212.78 1050.38,-205.43 1073.95,-199.05"/>
<polygon fill="midnightblue" stroke="midnightblue" points="999.85,-215.5 991.11,-221.49 1001.68,-222.25 999.85,-215.5"/>
</g>
<!-- Node5 -->
<g id="node5" class="node">
<title>Node5</title>
<g id="a_node5"><a xlink:href="class_c_p_s_1_1_identified_object.html" target="_top" xlink:title=" ">
<polygon fill="none" stroke="black" points="664,-227.5 664,-246.5 780,-246.5 780,-227.5 664,-227.5"/>
<text text-anchor="middle" x="722" y="-234.5" font-family="Helvetica,sans-Serif" font-size="10.00">CPS::IdentifiedObject</text>
</a>
</g>
</g>
<!-- Node5&#45;&gt;Node4 -->
<g id="edge4" class="edge">
<title>Node5&#45;&gt;Node4</title>
<path fill="none" stroke="midnightblue" d="M790.34,-235.25C818.77,-234.51 851.94,-233.65 880.96,-232.9"/>
<polygon fill="midnightblue" stroke="midnightblue" points="790.01,-231.76 780.1,-235.52 790.19,-238.76 790.01,-231.76"/>
</g>
<!-- Node6 -->
<g id="node6" class="node">
<title>Node6</title>
<g id="a_node6"><a xlink:href="class_c_p_s_1_1_attribute.html" target="_top" xlink:title=" ">
<polygon fill="none" stroke="black" points="456,-239.5 456,-258.5 583,-258.5 583,-239.5 456,-239.5"/>
<text text-anchor="middle" x="519.5" y="-246.5" font-family="Helvetica,sans-Serif" font-size="10.00">CPS::Attribute&lt; String &gt;</text>
</a>
</g>
</g>
<!-- Node6&#45;&gt;Node5 -->
<g id="edge5" class="edge">
<title>Node6&#45;&gt;Node5</title>
<path fill="none" stroke="#9a32cd" stroke-dasharray="5,2" d="M593.29,-244.64C616.56,-243.25 641.98,-241.73 663.97,-240.41"/>
<polygon fill="#9a32cd" stroke="#9a32cd" points="592.89,-241.16 583.11,-245.25 593.31,-248.15 592.89,-241.16"/>
<text text-anchor="middle" x="626" y="-257" font-family="Helvetica,sans-Serif" font-size="10.00"> mName</text>
<text text-anchor="middle" x="626" y="-246" font-family="Helvetica,sans-Serif" font-size="10.00">mUID</text>
</g>
<!-- Node7 -->
<g id="node7" class="node">
<title>Node7</title>
<g id="a_node7"><a xlink:href="class_c_p_s_1_1_attribute_base.html" target="_top" xlink:title=" ">
<polygon fill="none" stroke="black" points="5.5,-144.5 5.5,-163.5 110.5,-163.5 110.5,-144.5 5.5,-144.5"/>
<text text-anchor="middle" x="58" y="-151.5" font-family="Helvetica,sans-Serif" font-size="10.00">CPS::AttributeBase</text>
</a>
</g>
</g>
<!-- Node7&#45;&gt;Node6 -->
<g id="edge6" class="edge">
<title>Node7&#45;&gt;Node6</title>
<path fill="none" stroke="midnightblue" d="M68.03,-172.48C82.04,-198.77 111.76,-245.88 153,-265 268.25,-318.42 426.51,-278.61 490.23,-258.63"/>
<polygon fill="midnightblue" stroke="midnightblue" points="71.12,-170.83 63.44,-163.53 64.89,-174.03 71.12,-170.83"/>
</g>
<!-- Node9 -->
<g id="node9" class="node">
<title>Node9</title>
<g id="a_node9"><a xlink:href="class_c_p_s_1_1_attribute.html" target="_top" xlink:title=" ">
<polygon fill="none" stroke="black" points="172,-176.5 172,-195.5 276,-195.5 276,-176.5 172,-176.5"/>
<text text-anchor="middle" x="224" y="-183.5" font-family="Helvetica,sans-Serif" font-size="10.00">CPS::Attribute&lt; T &gt;</text>
</a>
</g>
</g>
<!-- Node7&#45;&gt;Node9 -->
<g id="edge9" class="edge">
<title>Node7&#45;&gt;Node9</title>
<path fill="none" stroke="midnightblue" d="M117.82,-165.48C136.28,-169.08 156.45,-173.01 174.14,-176.47"/>
<polygon fill="midnightblue" stroke="midnightblue" points="118.25,-161.99 107.76,-163.51 116.91,-168.86 118.25,-161.99"/>
</g>
<!-- Node12 -->
<g id="node12" class="node">
<title>Node12</title>
<g id="a_node12"><a xlink:href="class_c_p_s_1_1_attribute.html" target="_top" xlink:title=" ">
<polygon fill="none" stroke="black" points="451,-126 451,-156 588,-156 588,-126 451,-126"/>
<text text-anchor="start" x="459" y="-144" font-family="Helvetica,sans-Serif" font-size="10.00">CPS::Attribute&lt; MatrixVar</text>
<text text-anchor="middle" x="519.5" y="-133" font-family="Helvetica,sans-Serif" font-size="10.00">&lt; VarType &gt; &gt;</text>
</a>
</g>
</g>
<!-- Node7&#45;&gt;Node12 -->
<g id="edge14" class="edge">
<title>Node7&#45;&gt;Node12</title>
<path fill="none" stroke="midnightblue" d="M120.96,-152.25C206.97,-149.81 361.99,-145.43 450.9,-142.91"/>
<polygon fill="midnightblue" stroke="midnightblue" points="120.71,-148.75 110.82,-152.53 120.91,-155.75 120.71,-148.75"/>
</g>
<!-- Node15 -->
<g id="node15" class="node">
<title>Node15</title>
<g id="a_node15"><a xlink:href="class_c_p_s_1_1_attribute.html" target="_top" xlink:title=" ">
<polygon fill="none" stroke="black" points="1066,-93.5 1066,-112.5 1195,-112.5 1195,-93.5 1066,-93.5"/>
<text text-anchor="middle" x="1130.5" y="-100.5" font-family="Helvetica,sans-Serif" font-size="10.00">CPS::Attribute&lt; Matrix &gt;</text>
</a>
</g>
</g>
<!-- Node7&#45;&gt;Node15 -->
<g id="edge19" class="edge">
<title>Node7&#45;&gt;Node15</title>
<path fill="none" stroke="midnightblue" d="M71.68,-136.14C88.03,-114.45 118.49,-78.24 153,-58 180.81,-41.69 190.76,-39 223,-39 223,-39 223,-39 956,-39 1017.96,-39 1085.11,-75.38 1114.41,-93.28"/>
<polygon fill="midnightblue" stroke="midnightblue" points="68.67,-134.33 65.57,-144.46 74.31,-138.48 68.67,-134.33"/>
</g>
<!-- Node8 -->
<g id="node8" class="node">
<title>Node8</title>
<g id="a_node8"><a xlink:title=" ">
<polygon fill="none" stroke="#bfbfbf" points="166,-214.5 166,-255.5 282,-255.5 282,-214.5 166,-214.5"/>
<text text-anchor="start" x="174" y="-243.5" font-family="Helvetica,sans-Serif" font-size="10.00">std::enable_shared</text>
<text text-anchor="start" x="174" y="-232.5" font-family="Helvetica,sans-Serif" font-size="10.00">_from_this&lt; Attribute</text>
<text text-anchor="middle" x="224" y="-221.5" font-family="Helvetica,sans-Serif" font-size="10.00">&lt; String &gt; &gt;</text>
</a>
</g>
</g>
<!-- Node8&#45;&gt;Node6 -->
<g id="edge7" class="edge">
<title>Node8&#45;&gt;Node6</title>
<path fill="none" stroke="midnightblue" d="M292.51,-238.22C341.66,-240.56 407.76,-243.72 455.77,-246.01"/>
<polygon fill="midnightblue" stroke="midnightblue" points="292.44,-234.71 282.29,-237.73 292.11,-241.71 292.44,-234.71"/>
</g>
<!-- Node9&#45;&gt;Node6 -->
<g id="edge8" class="edge">
<title>Node9&#45;&gt;Node6</title>
<path fill="none" stroke="orange" stroke-dasharray="5,2" d="M280.72,-197.65C291.42,-199.81 302.55,-202.02 313,-204 366.19,-214.09 380.2,-213 433,-225 451.19,-229.13 471.29,-234.72 487.42,-239.47"/>
<polygon fill="orange" stroke="orange" points="281.12,-194.16 270.62,-195.59 279.72,-201.02 281.12,-194.16"/>
<text text-anchor="middle" x="373" y="-228" font-family="Helvetica,sans-Serif" font-size="10.00"> &lt; String &gt;</text>
</g>
<!-- Node9&#45;&gt;Node12 -->
<g id="edge16" class="edge">
<title>Node9&#45;&gt;Node12</title>
<path fill="none" stroke="orange" stroke-dasharray="5,2" d="M278.89,-174.35C290.13,-172.09 301.93,-169.86 313,-168 358.78,-160.32 410.6,-153.52 450.75,-148.67"/>
<polygon fill="orange" stroke="orange" points="277.85,-170.99 268.75,-176.41 279.25,-177.84 277.85,-170.99"/>
<text text-anchor="middle" x="373" y="-171" font-family="Helvetica,sans-Serif" font-size="10.00"> &lt; MatrixVar&lt; VarType &gt; &gt;</text>
</g>
<!-- Node9&#45;&gt;Node15 -->
<g id="edge21" class="edge">
<title>Node9&#45;&gt;Node15</title>
<path fill="none" stroke="orange" stroke-dasharray="5,2" d="M286.5,-190.33C400.76,-197.24 653.26,-207.09 863,-177 953.55,-164.01 1056.91,-129.38 1103.87,-112.5"/>
<polygon fill="orange" stroke="orange" points="286.4,-186.82 276.21,-189.7 285.97,-193.81 286.4,-186.82"/>
<text text-anchor="middle" x="722" y="-197" font-family="Helvetica,sans-Serif" font-size="10.00"> &lt; Matrix &gt;</text>
</g>
<!-- Node10 -->
<g id="node10" class="node">
<title>Node10</title>
<g id="a_node10"><a xlink:title=" ">
<polygon fill="none" stroke="#bfbfbf" points="0,-288.5 0,-329.5 116,-329.5 116,-288.5 0,-288.5"/>
<text text-anchor="start" x="8" y="-317.5" font-family="Helvetica,sans-Serif" font-size="10.00">std::enable_shared</text>
<text text-anchor="start" x="8" y="-306.5" font-family="Helvetica,sans-Serif" font-size="10.00">_from_this&lt; Attribute</text>
<text text-anchor="middle" x="58" y="-295.5" font-family="Helvetica,sans-Serif" font-size="10.00">&lt; T &gt; &gt;</text>
</a>
</g>
</g>
<!-- Node10&#45;&gt;Node9 -->
<g id="edge10" class="edge">
<title>Node10&#45;&gt;Node9</title>
<path fill="none" stroke="midnightblue" d="M78.13,-279.92C95.1,-256.36 121.96,-224.05 153,-205 159.33,-201.11 166.46,-198.01 173.69,-195.53"/>
<polygon fill="midnightblue" stroke="midnightblue" points="75.22,-277.97 72.33,-288.16 80.95,-281.99 75.22,-277.97"/>
</g>
<!-- Node11&#45;&gt;Node3 -->
<g id="edge11" class="edge">
<title>Node11&#45;&gt;Node3</title>
<path fill="none" stroke="orange" stroke-dasharray="5,2" d="M1200.5,-192.85C1234.25,-197.17 1274.46,-202.33 1306.73,-206.47"/>
<polygon fill="orange" stroke="orange" points="1200.61,-189.33 1190.25,-191.53 1199.72,-196.27 1200.61,-189.33"/>
<text text-anchor="middle" x="1246.5" y="-205" font-family="Helvetica,sans-Serif" font-size="10.00"> &lt; Complex &gt;</text>
</g>
<!-- Node17 -->
<g id="node17" class="node">
<title>Node17</title>
<g id="a_node17"><a xlink:href="class_c_p_s_1_1_m_n_a_sim_power_comp.html" target="_top" xlink:title="Base class for all MNA components that are transmitting power.">
<polygon fill="none" stroke="black" points="1298,-150 1298,-180 1435,-180 1435,-150 1298,-150"/>
<text text-anchor="start" x="1306" y="-168" font-family="Helvetica,sans-Serif" font-size="10.00">CPS::MNASimPowerComp</text>
<text text-anchor="middle" x="1366.5" y="-157" font-family="Helvetica,sans-Serif" font-size="10.00">&lt; VarType &gt;</text>
</a>
</g>
</g>
<!-- Node11&#45;&gt;Node17 -->
<g id="edge23" class="edge">
<title>Node11&#45;&gt;Node17</title>
<path fill="none" stroke="midnightblue" d="M1200.42,-178.4C1231.08,-175.91 1267.07,-172.99 1297.6,-170.51"/>
<polygon fill="midnightblue" stroke="midnightblue" points="1199.93,-174.93 1190.25,-179.23 1200.5,-181.91 1199.93,-174.93"/>
</g>
<!-- Node12&#45;&gt;Node11 -->
<g id="edge13" class="edge">
<title>Node12&#45;&gt;Node11</title>
<path fill="none" stroke="#9a32cd" stroke-dasharray="5,2" d="M598.14,-146.48C721.68,-155.2 960.28,-172.05 1070.74,-179.85"/>
<polygon fill="#9a32cd" stroke="#9a32cd" points="598.22,-142.98 588,-145.77 597.73,-149.96 598.22,-142.98"/>
<text text-anchor="middle" x="830.5" y="-178" font-family="Helvetica,sans-Serif" font-size="10.00"> mIntfCurrent</text>
<text text-anchor="middle" x="830.5" y="-167" font-family="Helvetica,sans-Serif" font-size="10.00">mIntfVoltage</text>
</g>
<!-- Node13 -->
<g id="node13" class="node">
<title>Node13</title>
<g id="a_node13"><a xlink:title=" ">
<polygon fill="none" stroke="#bfbfbf" points="153,-67.5 153,-108.5 295,-108.5 295,-67.5 153,-67.5"/>
<text text-anchor="start" x="161" y="-96.5" font-family="Helvetica,sans-Serif" font-size="10.00">std::enable_shared</text>
<text text-anchor="start" x="161" y="-85.5" font-family="Helvetica,sans-Serif" font-size="10.00">_from_this&lt; Attribute</text>
<text text-anchor="middle" x="224" y="-74.5" font-family="Helvetica,sans-Serif" font-size="10.00">&lt; MatrixVar&lt; VarType &gt; &gt; &gt;</text>
</a>
</g>
</g>
<!-- Node13&#45;&gt;Node12 -->
<g id="edge15" class="edge">
<title>Node13&#45;&gt;Node12</title>
<path fill="none" stroke="midnightblue" d="M305.25,-98.66C344,-104.24 391.06,-111.64 433,-120 441.84,-121.76 451.15,-123.83 460.24,-125.96"/>
<polygon fill="midnightblue" stroke="midnightblue" points="305.47,-95.16 295.08,-97.21 304.48,-102.09 305.47,-95.16"/>
</g>
<!-- Node14 -->
<g id="node14" class="node">
<title>Node14</title>
<g id="a_node14"><a xlink:href="class_c_p_s_1_1_m_n_a_interface.html" target="_top" xlink:title="Interface to be implemented by all models used by the MNA solver.">
<polygon fill="none" stroke="black" points="1077,-265.5 1077,-284.5 1184,-284.5 1184,-265.5 1077,-265.5"/>
<text text-anchor="middle" x="1130.5" y="-272.5" font-family="Helvetica,sans-Serif" font-size="10.00">CPS::MNAInterface</text>
</a>
</g>
</g>
<!-- Node14&#45;&gt;Node2 -->
<g id="edge17" class="edge">
<title>Node14&#45;&gt;Node2</title>
<path fill="none" stroke="midnightblue" d="M1194.55,-271.89C1283.8,-265.99 1451.12,-249.39 1586,-204 1605.61,-197.4 1626.81,-187.95 1643.38,-180"/>
<polygon fill="midnightblue" stroke="midnightblue" points="1194.08,-268.41 1184.33,-272.54 1194.53,-275.4 1194.08,-268.41"/>
</g>
<!-- Node14&#45;&gt;Node17 -->
<g id="edge24" class="edge">
<title>Node14&#45;&gt;Node17</title>
<path fill="none" stroke="midnightblue" d="M1185.03,-262.66C1215.26,-253.72 1252.39,-239.21 1280,-217 1291.24,-207.96 1286.68,-198.94 1298,-190 1302.8,-186.2 1308.24,-182.94 1313.9,-180.16"/>
<polygon fill="midnightblue" stroke="midnightblue" points="1183.73,-259.39 1175.07,-265.49 1185.64,-266.13 1183.73,-259.39"/>
</g>
<!-- Node15&#45;&gt;Node2 -->
<g id="edge18" class="edge">
<title>Node15&#45;&gt;Node2</title>
<path fill="none" stroke="#9a32cd" stroke-dasharray="5,2" d="M1205.27,-108.37C1266.8,-113.14 1356.74,-120.77 1435,-130 1492.65,-136.8 1557.86,-146.53 1605.43,-154.01"/>
<polygon fill="#9a32cd" stroke="#9a32cd" points="1205.5,-104.88 1195.26,-107.6 1204.96,-111.86 1205.5,-104.88"/>
<text text-anchor="middle" x="1366.5" y="-133" font-family="Helvetica,sans-Serif" font-size="10.00"> mRightVector</text>
</g>
<!-- Node15&#45;&gt;Node17 -->
<g id="edge25" class="edge">
<title>Node15&#45;&gt;Node17</title>
<path fill="none" stroke="#9a32cd" stroke-dasharray="5,2" d="M1177.69,-115.24C1215.21,-125.18 1268.29,-139.24 1308.45,-149.88"/>
<polygon fill="#9a32cd" stroke="#9a32cd" points="1178.11,-111.73 1167.55,-112.55 1176.32,-118.5 1178.11,-111.73"/>
<text text-anchor="middle" x="1246.5" y="-144" font-family="Helvetica,sans-Serif" font-size="10.00"> mRightVector</text>
</g>
<!-- Node18 -->
<g id="node18" class="node">
<title>Node18</title>
<g id="a_node18"><a xlink:href="class_c_p_s_1_1_base_1_1_ph3_1_1_inductor.html" target="_top" xlink:title=" ">
<polygon fill="none" stroke="black" points="1453,-66.5 1453,-85.5 1586,-85.5 1586,-66.5 1453,-66.5"/>
<text text-anchor="middle" x="1519.5" y="-73.5" font-family="Helvetica,sans-Serif" font-size="10.00">CPS::Base::Ph3::Inductor</text>
</a>
</g>
</g>
<!-- Node15&#45;&gt;Node18 -->
<g id="edge27" class="edge">
<title>Node15&#45;&gt;Node18</title>
<path fill="none" stroke="#9a32cd" stroke-dasharray="5,2" d="M1187.05,-91.68C1195.71,-90.24 1204.57,-88.94 1213,-88 1295.3,-78.86 1390.74,-76.4 1452.74,-75.88"/>
<polygon fill="#9a32cd" stroke="#9a32cd" points="1186.27,-88.27 1177.02,-93.44 1187.47,-95.16 1186.27,-88.27"/>
<text text-anchor="middle" x="1246.5" y="-91" font-family="Helvetica,sans-Serif" font-size="10.00"> mInductance</text>
</g>
<!-- Node16 -->
<g id="node16" class="node">
<title>Node16</title>
<g id="a_node16"><a xlink:title=" ">
<polygon fill="none" stroke="#bfbfbf" points="897,-73.5 897,-114.5 1013,-114.5 1013,-73.5 897,-73.5"/>
<text text-anchor="start" x="905" y="-102.5" font-family="Helvetica,sans-Serif" font-size="10.00">std::enable_shared</text>
<text text-anchor="start" x="905" y="-91.5" font-family="Helvetica,sans-Serif" font-size="10.00">_from_this&lt; Attribute</text>
<text text-anchor="middle" x="955" y="-80.5" font-family="Helvetica,sans-Serif" font-size="10.00">&lt; Matrix &gt; &gt;</text>
</a>
</g>
</g>
<!-- Node16&#45;&gt;Node15 -->
<g id="edge20" class="edge">
<title>Node16&#45;&gt;Node15</title>
<path fill="none" stroke="midnightblue" d="M1023.35,-97.49C1037.37,-98.22 1052.1,-98.99 1065.98,-99.71"/>
<polygon fill="midnightblue" stroke="midnightblue" points="1023.46,-93.99 1013.29,-96.97 1023.1,-100.99 1023.46,-93.99"/>
</g>
<!-- Node17&#45;&gt;Node2 -->
<g id="edge22" class="edge">
<title>Node17&#45;&gt;Node2</title>
<path fill="none" stroke="orange" stroke-dasharray="5,2" d="M1445.31,-165C1494.73,-165 1558.07,-165 1605.39,-165"/>
<polygon fill="orange" stroke="orange" points="1445.3,-161.5 1435.3,-165 1445.3,-168.5 1445.3,-161.5"/>
<text text-anchor="middle" x="1519.5" y="-168" font-family="Helvetica,sans-Serif" font-size="10.00"> &lt; Complex &gt;</text>
</g>
<!-- Node18&#45;&gt;Node1 -->
<g id="edge26" class="edge">
<title>Node18&#45;&gt;Node1</title>
<path fill="none" stroke="midnightblue" d="M1596.41,-75.66C1644.23,-75.22 1707.24,-74.22 1763,-72 1768.77,-71.77 1774.77,-71.48 1780.77,-71.16"/>
<polygon fill="midnightblue" stroke="midnightblue" points="1596.11,-72.16 1586.14,-75.75 1596.17,-79.16 1596.11,-72.16"/>
</g>
<!-- Node19 -->
<g id="node19" class="node">
<title>Node19</title>
<g id="a_node19"><a xlink:href="class_c_p_s_1_1_m_n_a_tear_interface.html" target="_top" xlink:title=" ">
<polygon fill="none" stroke="black" points="1611,-38.5 1611,-57.5 1737,-57.5 1737,-38.5 1611,-38.5"/>
<text text-anchor="middle" x="1674" y="-45.5" font-family="Helvetica,sans-Serif" font-size="10.00">CPS::MNATearInterface</text>
</a>
</g>
</g>
<!-- Node19&#45;&gt;Node1 -->
<g id="edge28" class="edge">
<title>Node19&#45;&gt;Node1</title>
<path fill="none" stroke="midnightblue" d="M1747.35,-56.23C1758.53,-57.5 1769.98,-58.81 1780.87,-60.05"/>
<polygon fill="midnightblue" stroke="midnightblue" points="1747.52,-52.73 1737.18,-55.07 1746.72,-59.68 1747.52,-52.73"/>
</g>
<!-- Node20 -->
<g id="node20" class="node">
<title>Node20</title>
<g id="a_node20"><a xlink:href="class_shared_factory.html" target="_top" xlink:title=" ">
<polygon fill="none" stroke="black" points="1604,-0.5 1604,-19.5 1744,-19.5 1744,-0.5 1604,-0.5"/>
<text text-anchor="middle" x="1674" y="-7.5" font-family="Helvetica,sans-Serif" font-size="10.00">SharedFactory&lt; Inductor &gt;</text>
</a>
</g>
</g>
<!-- Node20&#45;&gt;Node1 -->
<g id="edge29" class="edge">
<title>Node20&#45;&gt;Node1</title>
<path fill="none" stroke="midnightblue" d="M1722.28,-22.34C1729.59,-24.44 1737.03,-26.69 1744,-29 1770.16,-37.65 1799.56,-49.32 1819.27,-57.43"/>
<polygon fill="midnightblue" stroke="midnightblue" points="1723.02,-18.91 1712.45,-19.57 1721.13,-25.65 1723.02,-18.91"/>
</g>
<!-- Node21 -->
<g id="node21" class="node">
<title>Node21</title>
<g id="a_node21"><a xlink:href="class_shared_factory.html" target="_top" xlink:title=" ">
<polygon fill="none" stroke="black" points="1314,-0.5 1314,-19.5 1419,-19.5 1419,-0.5 1314,-0.5"/>
<text text-anchor="middle" x="1366.5" y="-7.5" font-family="Helvetica,sans-Serif" font-size="10.00">SharedFactory&lt; T &gt;</text>
</a>
</g>
</g>
<!-- Node21&#45;&gt;Node20 -->
<g id="edge30" class="edge">
<title>Node21&#45;&gt;Node20</title>
<path fill="none" stroke="orange" stroke-dasharray="5,2" d="M1429.47,-10C1480.08,-10 1551.54,-10 1603.97,-10"/>
<polygon fill="orange" stroke="orange" points="1429.32,-6.5 1419.32,-10 1429.32,-13.5 1429.32,-6.5"/>
<text text-anchor="middle" x="1519.5" y="-13" font-family="Helvetica,sans-Serif" font-size="10.00"> &lt; Inductor &gt;</text>
</g>
</g>
</svg>
        <g id="navigator" transform="translate(0 0)" fill="#404254">
                <rect fill="#f2f5e9" fill-opacity="0.5" stroke="#606060" stroke-width=".5" x="0" y="0" width="60" height="60"/>
                <use id="zoomplus" xlink:href="#zoomPlus" x="17" y="9" onmousedown="handleZoom(evt,'in')"/>
                <use id="zoomminus" xlink:href="#zoomMin" x="42" y="9" onmousedown="handleZoom(evt,'out')"/>
                <use id="reset" xlink:href="#resetDef" x="30" y="36" onmousedown="handleReset()"/>
                <g id="arrowUp" xlink:href="#dirArrow" transform="translate(30 24)" onmousedown="handlePan(0,-1)">
                  <use xlink:href="#rim" fill="#404040">
                        <set attributeName="fill" to="#808080" begin="arrowUp.mouseover" end="arrowUp.mouseout"/>
                  </use>
                  <path fill="none" stroke="white" stroke-width="1.5" d="M0,-3.0v7 M-2.5,-0.5L0,-3.0L2.5,-0.5"/>
                </g>
                <g id="arrowRight" xlink:href="#dirArrow" transform="rotate(90) translate(36 -43)" onmousedown="handlePan(1,0)">
                  <use xlink:href="#rim" fill="#404040">
                        <set attributeName="fill" to="#808080" begin="arrowRight.mouseover" end="arrowRight.mouseout"/>
                  </use>
                  <path fill="none" stroke="white" stroke-width="1.5" d="M0,-3.0v7 M-2.5,-0.5L0,-3.0L2.5,-0.5"/>
                </g>
                <g id="arrowDown" xlink:href="#dirArrow" transform="rotate(180) translate(-30 -48)" onmousedown="handlePan(0,1)">
                  <use xlink:href="#rim" fill="#404040">
                        <set attributeName="fill" to="#808080" begin="arrowDown.mouseover" end="arrowDown.mouseout"/>
                  </use>
                  <path fill="none" stroke="white" stroke-width="1.5" d="M0,-3.0v7 M-2.5,-0.5L0,-3.0L2.5,-0.5"/>
                </g>
                <g id="arrowLeft" xlink:href="#dirArrow" transform="rotate(270) translate(-36 17)" onmousedown="handlePan(-1,0)">
                  <use xlink:href="#rim" fill="#404040">
                        <set attributeName="fill" to="#808080" begin="arrowLeft.mouseover" end="arrowLeft.mouseout"/>
                  </use>
                  <path fill="none" stroke="white" stroke-width="1.5" d="M0,-3.0v7 M-2.5,-0.5L0,-3.0L2.5,-0.5"/>
                </g>
        </g>
        <svg viewBox="0 0 15 15" width="100%" height="30px" preserveAspectRatio="xMaxYMin meet">
         <g id="arrow_out" transform="scale(0.3 0.3)">
          <a xlink:href="class_c_p_s_1_1_d_p_1_1_ph3_1_1_inductor__coll__graph_org.svg" target="_base">
           <rect id="button" ry="5" rx="5" y="6" x="6" height="38" width="38"
                fill="#f2f5e9" fill-opacity="0.5" stroke="#606060" stroke-width="1.0"/>
           <path id="arrow"
             d="M 11.500037,31.436501 C 11.940474,20.09759 22.043105,11.32322 32.158766,21.979434 L 37.068811,17.246167 C 37.068811,17.246167 37.088388,32 37.088388,32 L 22.160133,31.978069 C 22.160133,31.978069 26.997745,27.140456 26.997745,27.140456 C 18.528582,18.264221 13.291696,25.230495 11.500037,31.436501 z"
             style="fill:#404040;"/>
          </a>
         </g>
        </svg>
</svg>
