<?xml version="1.0" encoding="UTF-8" standalone="no"?>
<!DOCTYPE svg PUBLIC "-//W3C//DTD SVG 1.1//EN"
 "http://www.w3.org/Graphics/SVG/1.1/DTD/svg11.dtd">
<!-- Generated by graphviz version 2.42.4 (0)
 -->
<!-- Title: CPS::Signal::DecouplingLine Pages: 1 -->
<svg width="341pt" height="277pt"
 viewBox="0.00 0.00 340.50 277.00" xmlns="http://www.w3.org/2000/svg" xmlns:xlink="http://www.w3.org/1999/xlink">
<g id="graph0" class="graph" transform="scale(1 1) rotate(0) translate(4 273)">
<title>CPS::Signal::DecouplingLine</title>
<!-- Node1 -->
<g id="node1" class="node">
<title>Node1</title>
<g id="a_node1"><a xlink:title=" ">
<polygon fill="#bfbfbf" stroke="black" points="77.5,-0.5 77.5,-19.5 229.5,-19.5 229.5,-0.5 77.5,-0.5"/>
<text text-anchor="middle" x="153.5" y="-7.5" font-family="Helvetica,sans-Serif" font-size="10.00">CPS::Signal::DecouplingLine</text>
</a>
</g>
</g>
<!-- Node2 -->
<g id="node2" class="node">
<title>Node2</title>
<g id="a_node2"><a xlink:href="class_c_p_s_1_1_sim_signal_comp.html" target="_top" xlink:title=" ">
<polygon fill="none" stroke="black" points="18,-63 18,-82 137,-82 137,-63 18,-63"/>
<text text-anchor="middle" x="77.5" y="-70" font-family="Helvetica,sans-Serif" font-size="10.00">CPS::SimSignalComp</text>
</a>
</g>
</g>
<!-- Node2&#45;&gt;Node1 -->
<g id="edge1" class="edge">
<title>Node2&#45;&gt;Node1</title>
<path fill="none" stroke="midnightblue" d="M96.28,-56.55C110.86,-44.94 130.56,-29.26 142.63,-19.65"/>
<polygon fill="midnightblue" stroke="midnightblue" points="94.03,-53.87 88.39,-62.83 98.39,-59.34 94.03,-53.87"/>
</g>
<!-- Node3 -->
<g id="node3" class="node">
<title>Node3</title>
<g id="a_node3"><a xlink:href="class_c_p_s_1_1_topological_signal_comp.html" target="_top" xlink:title=" ">
<polygon fill="none" stroke="black" points="0,-135.5 0,-154.5 155,-154.5 155,-135.5 0,-135.5"/>
<text text-anchor="middle" x="77.5" y="-142.5" font-family="Helvetica,sans-Serif" font-size="10.00">CPS::TopologicalSignalComp</text>
</a>
</g>
</g>
<!-- Node3&#45;&gt;Node2 -->
<g id="edge2" class="edge">
<title>Node3&#45;&gt;Node2</title>
<path fill="none" stroke="midnightblue" d="M77.5,-124.94C77.5,-111.03 77.5,-92.82 77.5,-82.22"/>
<polygon fill="midnightblue" stroke="midnightblue" points="74,-125.36 77.5,-135.36 81,-125.36 74,-125.36"/>
</g>
<!-- Node4 -->
<g id="node4" class="node">
<title>Node4</title>
<g id="a_node4"><a xlink:href="class_c_p_s_1_1_identified_object.html" target="_top" xlink:title=" ">
<polygon fill="none" stroke="black" points="18,-192.5 18,-211.5 137,-211.5 137,-192.5 18,-192.5"/>
<text text-anchor="middle" x="77.5" y="-199.5" font-family="Helvetica,sans-Serif" font-size="10.00">CPS::IdentifiedObject</text>
</a>
</g>
</g>
<!-- Node4&#45;&gt;Node3 -->
<g id="edge3" class="edge">
<title>Node4&#45;&gt;Node3</title>
<path fill="none" stroke="midnightblue" d="M77.5,-182.12C77.5,-172.82 77.5,-162.06 77.5,-154.71"/>
<polygon fill="midnightblue" stroke="midnightblue" points="74,-182.41 77.5,-192.41 81,-182.41 74,-182.41"/>
</g>
<!-- Node5 -->
<g id="node5" class="node">
<title>Node5</title>
<g id="a_node5"><a xlink:href="class_c_p_s_1_1_attribute_list.html" target="_top" xlink:title="Base class of objects having attributes to access member variables.">
<polygon fill="none" stroke="black" points="27,-249.5 27,-268.5 128,-268.5 128,-249.5 27,-249.5"/>
<text text-anchor="middle" x="77.5" y="-256.5" font-family="Helvetica,sans-Serif" font-size="10.00">CPS::AttributeList</text>
</a>
</g>
</g>
<!-- Node5&#45;&gt;Node4 -->
<g id="edge4" class="edge">
<title>Node5&#45;&gt;Node4</title>
<path fill="none" stroke="midnightblue" d="M77.5,-239.12C77.5,-229.82 77.5,-219.06 77.5,-211.71"/>
<polygon fill="midnightblue" stroke="midnightblue" points="74,-239.41 77.5,-249.41 81,-239.41 74,-239.41"/>
</g>
<!-- Node6 -->
<g id="node6" class="node">
<title>Node6</title>
<g id="a_node6"><a xlink:href="class_shared_factory.html" target="_top" xlink:title=" ">
<polygon fill="none" stroke="black" points="155.5,-57.5 155.5,-87.5 307.5,-87.5 307.5,-57.5 155.5,-57.5"/>
<text text-anchor="start" x="163.5" y="-75.5" font-family="Helvetica,sans-Serif" font-size="10.00">SharedFactory&lt; Decoupling</text>
<text text-anchor="middle" x="231.5" y="-64.5" font-family="Helvetica,sans-Serif" font-size="10.00">Line &gt;</text>
</a>
</g>
</g>
<!-- Node6&#45;&gt;Node1 -->
<g id="edge5" class="edge">
<title>Node6&#45;&gt;Node1</title>
<path fill="none" stroke="midnightblue" d="M205.16,-51.07C191.29,-40.31 175.03,-27.7 164.51,-19.54"/>
<polygon fill="midnightblue" stroke="midnightblue" points="203.36,-54.1 213.41,-57.47 207.65,-48.57 203.36,-54.1"/>
</g>
<!-- Node7 -->
<g id="node7" class="node">
<title>Node7</title>
<g id="a_node7"><a xlink:href="class_shared_factory.html" target="_top" xlink:title=" ">
<polygon fill="none" stroke="black" points="174.5,-135.5 174.5,-154.5 288.5,-154.5 288.5,-135.5 174.5,-135.5"/>
<text text-anchor="middle" x="231.5" y="-142.5" font-family="Helvetica,sans-Serif" font-size="10.00">SharedFactory&lt; T &gt;</text>
</a>
</g>
</g>
<!-- Node7&#45;&gt;Node6 -->
<g id="edge6" class="edge">
<title>Node7&#45;&gt;Node6</title>
<path fill="none" stroke="orange" stroke-dasharray="5,2" d="M231.5,-125.24C231.5,-113.41 231.5,-98.38 231.5,-87.58"/>
<polygon fill="orange" stroke="orange" points="228,-125.36 231.5,-135.36 235,-125.36 228,-125.36"/>
<text text-anchor="middle" x="282" y="-109" font-family="Helvetica,sans-Serif" font-size="10.00"> &lt; DecouplingLine &gt;</text>
</g>
</g>
</svg>
