<?xml version="1.0" encoding="UTF-8" standalone="no"?>
<!DOCTYPE svg PUBLIC "-//W3C//DTD SVG 1.1//EN"
 "http://www.w3.org/Graphics/SVG/1.1/DTD/svg11.dtd">
<!-- Generated by graphviz version 12.2.1 (20241206.2353)
 -->
<!-- Title: DPsim::RealTimeSimulation Pages: 1 -->
<svg width="1118pt" height="525pt"
 viewBox="0.00 0.00 1117.75 524.62" xmlns="http://www.w3.org/2000/svg" xmlns:xlink="http://www.w3.org/1999/xlink">
<g id="graph0" class="graph" transform="scale(1 1) rotate(0) translate(4 520.62)">
<title>DPsim::RealTimeSimulation</title>
<!-- Node1 -->
<g id="Node000001" class="node">
<title>Node1</title>
<g id="a_Node000001"><a xlink:title="Extending Simulation class by real&#45;time functionality.">
<polygon fill="#999999" stroke="#666666" points="1109.75,-178.5 968.5,-178.5 968.5,-156.25 1109.75,-156.25 1109.75,-178.5"/>
<text text-anchor="middle" x="1039.12" y="-165" font-family="Helvetica,sans-Serif" font-size="10.00">DPsim::RealTimeSimulation</text>
</a>
</g>
</g>
<!-- Node2 -->
<g id="Node000002" class="node">
<title>Node2</title>
<g id="a_Node000002"><a xlink:href="class_d_psim_1_1_simulation.html" target="_top" xlink:title="The Simulation holds a SystemTopology and a Solver.">
<polygon fill="white" stroke="#666666" points="894.25,-204.5 795,-204.5 795,-182.25 894.25,-182.25 894.25,-204.5"/>
<text text-anchor="middle" x="844.62" y="-191" font-family="Helvetica,sans-Serif" font-size="10.00">DPsim::Simulation</text>
</a>
</g>
</g>
<!-- Node2&#45;&gt;Node1 -->
<g id="edge1_Node000001_Node000002" class="edge">
<title>Node2&#45;&gt;Node1</title>
<g id="a_edge1_Node000001_Node000002"><a xlink:title=" ">
<path fill="none" stroke="#63b8ff" d="M906,-185.22C925.69,-182.56 947.73,-179.58 968.08,-176.84"/>
<polygon fill="#63b8ff" stroke="#63b8ff" points="905.64,-181.74 896.2,-186.54 906.58,-188.67 905.64,-181.74"/>
</a>
</g>
</g>
<!-- Node3 -->
<g id="Node000003" class="node">
<title>Node3</title>
<g id="a_Node000003"><a xlink:href="class_c_p_s_1_1_attribute_list.html" target="_top" xlink:title="Base class of objects having attributes to access member variables.">
<polygon fill="white" stroke="#666666" points="578.62,-458.5 480.88,-458.5 480.88,-436.25 578.62,-436.25 578.62,-458.5"/>
<text text-anchor="middle" x="529.75" y="-445" font-family="Helvetica,sans-Serif" font-size="10.00">CPS::AttributeList</text>
</a>
</g>
</g>
<!-- Node3&#45;&gt;Node2 -->
<g id="edge2_Node000002_Node000003" class="edge">
<title>Node3&#45;&gt;Node2</title>
<g id="a_edge2_Node000002_Node000003"><a xlink:title=" ">
<path fill="none" stroke="#63b8ff" d="M590.39,-453.51C645.35,-455.76 725.91,-449.97 777,-405.38 838.91,-351.34 843.92,-240.46 843.86,-204.74"/>
<polygon fill="#63b8ff" stroke="#63b8ff" points="590.75,-450.02 580.58,-452.99 590.38,-457.01 590.75,-450.02"/>
</a>
</g>
</g>
<!-- Node4 -->
<g id="Node000004" class="node">
<title>Node4</title>
<g id="a_Node000004"><a xlink:href="class_shared_factory.html" target="_top" xlink:title=" ">
<polygon fill="white" stroke="#666666" points="362,-516.62 228.25,-516.62 228.25,-480.12 362,-480.12 362,-516.62"/>
<text text-anchor="start" x="236.25" y="-503.12" font-family="Helvetica,sans-Serif" font-size="10.00">SharedFactory&lt; Attribute</text>
<text text-anchor="middle" x="295.12" y="-488.88" font-family="Helvetica,sans-Serif" font-size="10.00">List &gt;</text>
</a>
</g>
</g>
<!-- Node4&#45;&gt;Node3 -->
<g id="edge3_Node000003_Node000004" class="edge">
<title>Node4&#45;&gt;Node3</title>
<g id="a_edge3_Node000003_Node000004"><a xlink:title=" ">
<path fill="none" stroke="#63b8ff" d="M373.72,-481.36C408.99,-473.63 449.61,-464.72 480.43,-457.97"/>
<polygon fill="#63b8ff" stroke="#63b8ff" points="372.97,-477.94 363.95,-483.5 374.47,-484.78 372.97,-477.94"/>
</a>
</g>
</g>
<!-- Node5 -->
<g id="Node000005" class="node">
<title>Node5</title>
<g id="a_Node000005"><a xlink:href="class_shared_factory.html" target="_top" xlink:title=" ">
<polygon fill="white" stroke="#666666" points="109.75,-509.5 5.25,-509.5 5.25,-487.25 109.75,-487.25 109.75,-509.5"/>
<text text-anchor="middle" x="57.5" y="-496" font-family="Helvetica,sans-Serif" font-size="10.00">SharedFactory&lt; T &gt;</text>
</a>
</g>
</g>
<!-- Node5&#45;&gt;Node4 -->
<g id="edge4_Node000004_Node000005" class="edge">
<title>Node5&#45;&gt;Node4</title>
<g id="a_edge4_Node000004_Node000005"><a xlink:title=" ">
<path fill="none" stroke="orange" stroke-dasharray="5,2" d="M121.54,-498.38C154.49,-498.38 194.8,-498.38 228.18,-498.38"/>
<polygon fill="orange" stroke="orange" points="121.72,-494.88 111.72,-498.38 121.72,-501.88 121.72,-494.88"/>
</a>
</g>
<text text-anchor="middle" x="171.62" y="-503.12" font-family="Helvetica,sans-Serif" font-size="10.00" fill="grey"> &lt; AttributeList &gt;</text>
</g>
<!-- Node6 -->
<g id="Node000006" class="node">
<title>Node6</title>
<g id="a_Node000006"><a xlink:href="class_c_p_s_1_1_attribute.html" target="_top" xlink:title=" ">
<polygon fill="white" stroke="#666666" points="592.88,-387.5 466.62,-387.5 466.62,-365.25 592.88,-365.25 592.88,-387.5"/>
<text text-anchor="middle" x="529.75" y="-374" font-family="Helvetica,sans-Serif" font-size="10.00">CPS::Attribute&lt; String &gt;</text>
</a>
</g>
</g>
<!-- Node6&#45;&gt;Node2 -->
<g id="edge5_Node000002_Node000006" class="edge">
<title>Node6&#45;&gt;Node2</title>
<g id="a_edge5_Node000002_Node000006"><a xlink:title=" ">
<path fill="none" stroke="#9a32cd" stroke-dasharray="5,2" d="M604.5,-385.95C657.49,-388.81 727.94,-383.89 777,-347.38 825.14,-311.54 838.95,-233.66 842.5,-204.6"/>
<polygon fill="#9a32cd" stroke="#9a32cd" points="604.85,-382.47 594.64,-385.31 604.39,-389.45 604.85,-382.47"/>
</a>
</g>
<text text-anchor="middle" x="696.75" y="-391.38" font-family="Helvetica,sans-Serif" font-size="10.00" fill="grey"> mName</text>
</g>
<!-- Node7 -->
<g id="Node000007" class="node">
<title>Node7</title>
<g id="a_Node000007"><a xlink:href="class_c_p_s_1_1_attribute_base.html" target="_top" xlink:title=" ">
<polygon fill="white" stroke="#666666" points="109.75,-233.5 5.25,-233.5 5.25,-211.25 109.75,-211.25 109.75,-233.5"/>
<text text-anchor="middle" x="57.5" y="-220" font-family="Helvetica,sans-Serif" font-size="10.00">CPS::AttributeBase</text>
</a>
</g>
</g>
<!-- Node7&#45;&gt;Node6 -->
<g id="edge6_Node000006_Node000007" class="edge">
<title>Node7&#45;&gt;Node6</title>
<g id="a_edge6_Node000006_Node000007"><a xlink:title=" ">
<path fill="none" stroke="#63b8ff" d="M74.42,-242.34C101.81,-274.95 161.37,-338.57 228.25,-364.38 306.07,-394.4 403.78,-391.63 466.26,-385.3"/>
<polygon fill="#63b8ff" stroke="#63b8ff" points="77.3,-240.33 68.24,-234.83 71.89,-244.77 77.3,-240.33"/>
</a>
</g>
</g>
<!-- Node9 -->
<g id="Node000009" class="node">
<title>Node9</title>
<g id="a_Node000009"><a xlink:href="class_c_p_s_1_1_attribute.html" target="_top" xlink:title=" ">
<polygon fill="white" stroke="#666666" points="347,-279.5 243.25,-279.5 243.25,-257.25 347,-257.25 347,-279.5"/>
<text text-anchor="middle" x="295.12" y="-266" font-family="Helvetica,sans-Serif" font-size="10.00">CPS::Attribute&lt; T &gt;</text>
</a>
</g>
</g>
<!-- Node7&#45;&gt;Node9 -->
<g id="edge9_Node000009_Node000007" class="edge">
<title>Node7&#45;&gt;Node9</title>
<g id="a_edge9_Node000009_Node000007"><a xlink:title=" ">
<path fill="none" stroke="#63b8ff" d="M121.17,-234.61C159.22,-242.04 207.18,-251.4 242.94,-258.38"/>
<polygon fill="#63b8ff" stroke="#63b8ff" points="122.18,-231.24 111.69,-232.76 120.84,-238.11 122.18,-231.24"/>
</a>
</g>
</g>
<!-- Node11 -->
<g id="Node000011" class="node">
<title>Node11</title>
<g id="a_Node000011"><a xlink:href="class_c_p_s_1_1_attribute.html" target="_top" xlink:title=" ">
<polygon fill="white" stroke="#666666" points="588.75,-303.5 470.75,-303.5 470.75,-281.25 588.75,-281.25 588.75,-303.5"/>
<text text-anchor="middle" x="529.75" y="-290" font-family="Helvetica,sans-Serif" font-size="10.00">CPS::Attribute&lt; Real &gt;</text>
</a>
</g>
</g>
<!-- Node7&#45;&gt;Node11 -->
<g id="edge12_Node000011_Node000007" class="edge">
<title>Node7&#45;&gt;Node11</title>
<g id="a_edge12_Node000011_Node000007"><a xlink:title=" ">
<path fill="none" stroke="#63b8ff" d="M121.07,-214.59C198.64,-207.19 333.93,-201.74 443,-236.38 471.81,-245.52 500.17,-267.22 515.97,-280.76"/>
<polygon fill="#63b8ff" stroke="#63b8ff" points="121.16,-211.06 111.56,-215.54 121.86,-218.03 121.16,-211.06"/>
</a>
</g>
</g>
<!-- Node13 -->
<g id="Node000013" class="node">
<title>Node13</title>
<g id="a_Node000013"><a xlink:href="class_c_p_s_1_1_attribute.html" target="_top" xlink:title=" ">
<polygon fill="white" stroke="#666666" points="589.5,-233.5 470,-233.5 470,-211.25 589.5,-211.25 589.5,-233.5"/>
<text text-anchor="middle" x="529.75" y="-220" font-family="Helvetica,sans-Serif" font-size="10.00">CPS::Attribute&lt; Bool &gt;</text>
</a>
</g>
</g>
<!-- Node7&#45;&gt;Node13 -->
<g id="edge16_Node000013_Node000007" class="edge">
<title>Node7&#45;&gt;Node13</title>
<g id="a_edge16_Node000013_Node000007"><a xlink:title=" ">
<path fill="none" stroke="#63b8ff" d="M121.01,-209.47C197.43,-195.68 330.48,-178.12 443,-196.38 451.32,-197.73 452.95,-199.85 461,-202.38 469.89,-205.17 479.48,-208.07 488.56,-210.76"/>
<polygon fill="#63b8ff" stroke="#63b8ff" points="120.84,-205.94 111.65,-211.19 122.11,-212.82 120.84,-205.94"/>
</a>
</g>
</g>
<!-- Node15 -->
<g id="Node000015" class="node">
<title>Node15</title>
<g id="a_Node000015"><a xlink:href="class_c_p_s_1_1_attribute.html" target="_top" xlink:title=" ">
<polygon fill="white" stroke="#666666" points="583.5,-193.62 476,-193.62 476,-157.12 583.5,-157.12 583.5,-193.62"/>
<text text-anchor="start" x="484" y="-180.12" font-family="Helvetica,sans-Serif" font-size="10.00">CPS::Attribute&lt; CPS</text>
<text text-anchor="middle" x="529.75" y="-165.88" font-family="Helvetica,sans-Serif" font-size="10.00">::UInt &gt;</text>
</a>
</g>
</g>
<!-- Node7&#45;&gt;Node15 -->
<g id="edge20_Node000015_Node000007" class="edge">
<title>Node7&#45;&gt;Node15</title>
<g id="a_edge20_Node000015_Node000007"><a xlink:title=" ">
<path fill="none" stroke="#63b8ff" d="M76.49,-202.81C105.18,-173.21 164.6,-118.28 228.25,-97.38 319.45,-67.42 365.9,-63.2 443,-120.38 454.88,-129.19 449.58,-138.97 461,-148.38 465.4,-152 470.34,-155.18 475.5,-157.97"/>
<polygon fill="#63b8ff" stroke="#63b8ff" points="73.99,-200.36 69.64,-210.02 79.06,-205.18 73.99,-200.36"/>
</a>
</g>
</g>
<!-- Node8 -->
<g id="Node000008" class="node">
<title>Node8</title>
<g id="a_Node000008"><a xlink:title=" ">
<polygon fill="white" stroke="#bfbfbf" points="352.62,-461.75 237.62,-461.75 237.62,-411 352.62,-411 352.62,-461.75"/>
<text text-anchor="start" x="245.62" y="-448.25" font-family="Helvetica,sans-Serif" font-size="10.00">std::enable_shared</text>
<text text-anchor="start" x="245.62" y="-434" font-family="Helvetica,sans-Serif" font-size="10.00">_from_this&lt; Attribute</text>
<text text-anchor="middle" x="295.12" y="-419.75" font-family="Helvetica,sans-Serif" font-size="10.00">&lt; String &gt; &gt;</text>
</a>
</g>
</g>
<!-- Node8&#45;&gt;Node6 -->
<g id="edge7_Node000006_Node000008" class="edge">
<title>Node8&#45;&gt;Node6</title>
<g id="a_edge7_Node000006_Node000008"><a xlink:title=" ">
<path fill="none" stroke="#63b8ff" d="M364.16,-418.83C402.68,-408.89 449.77,-396.75 483.7,-387.99"/>
<polygon fill="#63b8ff" stroke="#63b8ff" points="363.31,-415.43 354.5,-421.32 365.05,-422.21 363.31,-415.43"/>
</a>
</g>
</g>
<!-- Node9&#45;&gt;Node6 -->
<g id="edge8_Node000006_Node000009" class="edge">
<title>Node9&#45;&gt;Node6</title>
<g id="a_edge8_Node000006_Node000009"><a xlink:title=" ">
<path fill="none" stroke="orange" stroke-dasharray="5,2" d="M334.45,-284.32C343.52,-288.19 353.13,-292.36 362,-296.38 413.64,-319.72 473.34,-348.9 505.43,-364.78"/>
<polygon fill="orange" stroke="orange" points="336.1,-281.22 325.53,-280.54 333.37,-287.66 336.1,-281.22"/>
</a>
</g>
<text text-anchor="middle" x="411.5" y="-337.63" font-family="Helvetica,sans-Serif" font-size="10.00" fill="grey"> &lt; String &gt;</text>
</g>
<!-- Node9&#45;&gt;Node11 -->
<g id="edge14_Node000011_Node000009" class="edge">
<title>Node9&#45;&gt;Node11</title>
<g id="a_edge14_Node000011_Node000009"><a xlink:title=" ">
<path fill="none" stroke="orange" stroke-dasharray="5,2" d="M358.91,-274.85C393.67,-278.44 436.59,-282.87 470.58,-286.37"/>
<polygon fill="orange" stroke="orange" points="359.28,-271.37 348.97,-273.83 358.56,-278.33 359.28,-271.37"/>
</a>
</g>
<text text-anchor="middle" x="411.5" y="-287.98" font-family="Helvetica,sans-Serif" font-size="10.00" fill="grey"> &lt; Real &gt;</text>
</g>
<!-- Node9&#45;&gt;Node13 -->
<g id="edge18_Node000013_Node000009" class="edge">
<title>Node9&#45;&gt;Node13</title>
<g id="a_edge18_Node000013_Node000009"><a xlink:title=" ">
<path fill="none" stroke="orange" stroke-dasharray="5,2" d="M358.42,-256.06C393.12,-249.19 436.08,-240.7 470.17,-233.96"/>
<polygon fill="orange" stroke="orange" points="358.08,-252.56 348.95,-257.93 359.44,-259.42 358.08,-252.56"/>
</a>
</g>
<text text-anchor="middle" x="411.5" y="-255.6" font-family="Helvetica,sans-Serif" font-size="10.00" fill="grey"> &lt; Bool &gt;</text>
</g>
<!-- Node9&#45;&gt;Node15 -->
<g id="edge22_Node000015_Node000009" class="edge">
<title>Node9&#45;&gt;Node15</title>
<g id="a_edge22_Node000015_Node000009"><a xlink:title=" ">
<path fill="none" stroke="orange" stroke-dasharray="5,2" d="M324.33,-250.97C340.28,-241.61 360.81,-230.33 380,-222.12 410.86,-208.92 446.73,-197.54 475.51,-189.32"/>
<polygon fill="orange" stroke="orange" points="322.66,-247.89 315.87,-256.02 326.25,-253.9 322.66,-247.89"/>
</a>
</g>
<text text-anchor="middle" x="411.5" y="-226.88" font-family="Helvetica,sans-Serif" font-size="10.00" fill="grey"> &lt; CPS::UInt &gt;</text>
</g>
<!-- Node10 -->
<g id="Node000010" class="node">
<title>Node10</title>
<g id="a_Node000010"><a xlink:title=" ">
<polygon fill="white" stroke="#bfbfbf" points="115,-433.75 0,-433.75 0,-383 115,-383 115,-433.75"/>
<text text-anchor="start" x="8" y="-420.25" font-family="Helvetica,sans-Serif" font-size="10.00">std::enable_shared</text>
<text text-anchor="start" x="8" y="-406" font-family="Helvetica,sans-Serif" font-size="10.00">_from_this&lt; Attribute</text>
<text text-anchor="middle" x="57.5" y="-391.75" font-family="Helvetica,sans-Serif" font-size="10.00">&lt; T &gt; &gt;</text>
</a>
</g>
</g>
<!-- Node10&#45;&gt;Node9 -->
<g id="edge10_Node000009_Node000010" class="edge">
<title>Node10&#45;&gt;Node9</title>
<g id="a_edge10_Node000009_Node000010"><a xlink:title=" ">
<path fill="none" stroke="#63b8ff" d="M102.48,-376.15C135.98,-352.42 183.75,-320.26 228.25,-296.38 239.53,-290.32 252.39,-284.61 263.75,-279.94"/>
<polygon fill="#63b8ff" stroke="#63b8ff" points="100.77,-373.08 94.66,-381.73 104.84,-378.78 100.77,-373.08"/>
</a>
</g>
</g>
<!-- Node11&#45;&gt;Node2 -->
<g id="edge11_Node000002_Node000011" class="edge">
<title>Node11&#45;&gt;Node2</title>
<g id="a_edge11_Node000002_Node000011"><a xlink:title=" ">
<path fill="none" stroke="#9a32cd" stroke-dasharray="5,2" d="M600.46,-299.66C651.99,-301.94 722.39,-298.34 777,-270.38 805.79,-255.63 827.47,-222.62 837.49,-204.99"/>
<polygon fill="#9a32cd" stroke="#9a32cd" points="600.8,-296.17 590.62,-299.13 600.42,-303.16 600.8,-296.17"/>
</a>
</g>
<text text-anchor="middle" x="696.75" y="-333.47" font-family="Helvetica,sans-Serif" font-size="10.00" fill="grey"> mFinalTime</text>
<text text-anchor="middle" x="696.75" y="-319.22" font-family="Helvetica,sans-Serif" font-size="10.00" fill="grey">mPFBaseApparentPowerFallback</text>
<text text-anchor="middle" x="696.75" y="-304.97" font-family="Helvetica,sans-Serif" font-size="10.00" fill="grey">mTimeStep</text>
</g>
<!-- Node12 -->
<g id="Node000012" class="node">
<title>Node12</title>
<g id="a_Node000012"><a xlink:title=" ">
<polygon fill="white" stroke="#bfbfbf" points="352.62,-355.75 237.62,-355.75 237.62,-305 352.62,-305 352.62,-355.75"/>
<text text-anchor="start" x="245.62" y="-342.25" font-family="Helvetica,sans-Serif" font-size="10.00">std::enable_shared</text>
<text text-anchor="start" x="245.62" y="-328" font-family="Helvetica,sans-Serif" font-size="10.00">_from_this&lt; Attribute</text>
<text text-anchor="middle" x="295.12" y="-313.75" font-family="Helvetica,sans-Serif" font-size="10.00">&lt; Real &gt; &gt;</text>
</a>
</g>
</g>
<!-- Node12&#45;&gt;Node11 -->
<g id="edge13_Node000011_Node000012" class="edge">
<title>Node12&#45;&gt;Node11</title>
<g id="a_edge13_Node000011_Node000012"><a xlink:title=" ">
<path fill="none" stroke="#63b8ff" d="M364.07,-347.08C389.23,-350.61 417.76,-351.43 443,-344.38 471.17,-336.5 499.3,-316.57 515.3,-303.79"/>
<polygon fill="#63b8ff" stroke="#63b8ff" points="364.69,-343.64 354.27,-345.52 363.6,-350.55 364.69,-343.64"/>
</a>
</g>
</g>
<!-- Node13&#45;&gt;Node2 -->
<g id="edge15_Node000002_Node000013" class="edge">
<title>Node13&#45;&gt;Node2</title>
<g id="a_edge15_Node000002_Node000013"><a xlink:title=" ">
<path fill="none" stroke="#9a32cd" stroke-dasharray="5,2" d="M601.15,-214.89C606.35,-214.37 611.5,-213.86 616.5,-213.38 677.97,-207.44 748.86,-201.31 794.87,-197.43"/>
<polygon fill="#9a32cd" stroke="#9a32cd" points="600.88,-211.4 591.29,-215.89 601.59,-218.36 600.88,-211.4"/>
</a>
</g>
<text text-anchor="middle" x="696.75" y="-260.88" font-family="Helvetica,sans-Serif" font-size="10.00" fill="grey"> mPFKeepLastSolution</text>
<text text-anchor="middle" x="696.75" y="-246.62" font-family="Helvetica,sans-Serif" font-size="10.00" fill="grey">mPFSolverUseSparse</text>
<text text-anchor="middle" x="696.75" y="-232.38" font-family="Helvetica,sans-Serif" font-size="10.00" fill="grey">mSplitSubnets</text>
<text text-anchor="middle" x="696.75" y="-218.12" font-family="Helvetica,sans-Serif" font-size="10.00" fill="grey">mSteadyStateInit</text>
</g>
<!-- Node14 -->
<g id="Node000014" class="node">
<title>Node14</title>
<g id="a_Node000014"><a xlink:title=" ">
<polygon fill="white" stroke="#bfbfbf" points="352.62,-156.75 237.62,-156.75 237.62,-106 352.62,-106 352.62,-156.75"/>
<text text-anchor="start" x="245.62" y="-143.25" font-family="Helvetica,sans-Serif" font-size="10.00">std::enable_shared</text>
<text text-anchor="start" x="245.62" y="-129" font-family="Helvetica,sans-Serif" font-size="10.00">_from_this&lt; Attribute</text>
<text text-anchor="middle" x="295.12" y="-114.75" font-family="Helvetica,sans-Serif" font-size="10.00">&lt; Bool &gt; &gt;</text>
</a>
</g>
</g>
<!-- Node14&#45;&gt;Node13 -->
<g id="edge17_Node000013_Node000014" class="edge">
<title>Node14&#45;&gt;Node13</title>
<g id="a_edge17_Node000013_Node000014"><a xlink:title=" ">
<path fill="none" stroke="#63b8ff" d="M364.36,-123.14C391.47,-123.47 421.3,-128.8 443,-146.38 463.32,-162.83 442.29,-184.11 461,-202.38 464.42,-205.72 468.37,-208.5 472.62,-210.83"/>
<polygon fill="#63b8ff" stroke="#63b8ff" points="364.41,-119.64 354.46,-123.26 364.5,-126.64 364.41,-119.64"/>
</a>
</g>
</g>
<!-- Node15&#45;&gt;Node2 -->
<g id="edge19_Node000002_Node000015" class="edge">
<title>Node15&#45;&gt;Node2</title>
<g id="a_edge19_Node000002_Node000015"><a xlink:title=" ">
<path fill="none" stroke="#9a32cd" stroke-dasharray="5,2" d="M595.1,-171.19C644.95,-169.01 715.63,-168.21 777,-176.12 786.36,-177.33 796.29,-179.44 805.54,-181.77"/>
<polygon fill="#9a32cd" stroke="#9a32cd" points="595.18,-167.69 585.35,-171.65 595.51,-174.68 595.18,-167.69"/>
</a>
</g>
<text text-anchor="middle" x="696.75" y="-180.88" font-family="Helvetica,sans-Serif" font-size="10.00" fill="grey"> mPFMaxIterations</text>
</g>
<!-- Node16 -->
<g id="Node000016" class="node">
<title>Node16</title>
<g id="a_Node000016"><a xlink:title=" ">
<polygon fill="white" stroke="#bfbfbf" points="352.62,-50.75 237.62,-50.75 237.62,0 352.62,0 352.62,-50.75"/>
<text text-anchor="start" x="245.62" y="-37.25" font-family="Helvetica,sans-Serif" font-size="10.00">std::enable_shared</text>
<text text-anchor="start" x="245.62" y="-23" font-family="Helvetica,sans-Serif" font-size="10.00">_from_this&lt; Attribute</text>
<text text-anchor="middle" x="295.12" y="-8.75" font-family="Helvetica,sans-Serif" font-size="10.00">&lt; CPS::UInt &gt; &gt;</text>
</a>
</g>
</g>
<!-- Node16&#45;&gt;Node15 -->
<g id="edge21_Node000015_Node000016" class="edge">
<title>Node16&#45;&gt;Node15</title>
<g id="a_edge21_Node000015_Node000016"><a xlink:title=" ">
<path fill="none" stroke="#63b8ff" d="M364.2,-28.25C392.16,-32.91 422.69,-43.05 443,-64.38 469.34,-92.02 436.36,-119.21 461,-148.38 465.08,-153.21 470.16,-157.19 475.68,-160.46"/>
<polygon fill="#63b8ff" stroke="#63b8ff" points="364.71,-24.79 354.32,-26.84 363.72,-31.72 364.71,-24.79"/>
</a>
</g>
</g>
<!-- Node17 -->
<g id="Node000017" class="node">
<title>Node17</title>
<g id="a_Node000017"><a xlink:href="class_d_psim_1_1_event_queue.html" target="_top" xlink:title=" ">
<polygon fill="white" stroke="#bfbfbf" points="584.25,-139.5 475.25,-139.5 475.25,-117.25 584.25,-117.25 584.25,-139.5"/>
<text text-anchor="middle" x="529.75" y="-126" font-family="Helvetica,sans-Serif" font-size="10.00">DPsim::EventQueue</text>
</a>
</g>
</g>
<!-- Node17&#45;&gt;Node2 -->
<g id="edge23_Node000002_Node000017" class="edge">
<title>Node17&#45;&gt;Node2</title>
<g id="a_edge23_Node000002_Node000017"><a xlink:title=" ">
<path fill="none" stroke="#9a32cd" stroke-dasharray="5,2" d="M596.02,-121.06C648.07,-118.25 721.22,-121.27 777,-151.12 788.21,-157.13 784.8,-165.77 795,-173.38 799.32,-176.59 804.23,-179.39 809.23,-181.79"/>
<polygon fill="#9a32cd" stroke="#9a32cd" points="595.86,-117.56 586.1,-121.69 596.3,-124.55 595.86,-117.56"/>
</a>
</g>
<text text-anchor="middle" x="696.75" y="-155.88" font-family="Helvetica,sans-Serif" font-size="10.00" fill="grey"> mEvents</text>
</g>
<!-- Node18 -->
<g id="Node000018" class="node">
<title>Node18</title>
<g id="a_Node000018"><a xlink:href="class_c_p_s_1_1_system_topology.html" target="_top" xlink:title=" ">
<polygon fill="white" stroke="#bfbfbf" points="587.25,-99.5 472.25,-99.5 472.25,-77.25 587.25,-77.25 587.25,-99.5"/>
<text text-anchor="middle" x="529.75" y="-86" font-family="Helvetica,sans-Serif" font-size="10.00">CPS::SystemTopology</text>
</a>
</g>
</g>
<!-- Node18&#45;&gt;Node2 -->
<g id="edge24_Node000002_Node000018" class="edge">
<title>Node18&#45;&gt;Node2</title>
<g id="a_edge24_Node000002_Node000018"><a xlink:title=" ">
<path fill="none" stroke="#9a32cd" stroke-dasharray="5,2" d="M585.3,-74.54C640.08,-64.14 723.8,-58.25 777,-102.12 802.2,-122.9 773.61,-148.69 795,-173.38 797.87,-176.69 801.37,-179.46 805.17,-181.78"/>
<polygon fill="#9a32cd" stroke="#9a32cd" points="584.66,-71.1 575.55,-76.51 586.05,-77.96 584.66,-71.1"/>
</a>
</g>
<text text-anchor="middle" x="696.75" y="-106.88" font-family="Helvetica,sans-Serif" font-size="10.00" fill="grey"> mSystem</text>
</g>
<!-- Node19 -->
<g id="Node000019" class="node">
<title>Node19</title>
<g id="a_Node000019"><a xlink:href="class_d_psim_1_1_direct_linear_solver_configuration.html" target="_top" xlink:title=" ">
<polygon fill="white" stroke="#bfbfbf" points="598.5,-59.62 461,-59.62 461,-23.12 598.5,-23.12 598.5,-59.62"/>
<text text-anchor="start" x="469" y="-46.12" font-family="Helvetica,sans-Serif" font-size="10.00">DPsim::DirectLinearSolver</text>
<text text-anchor="middle" x="529.75" y="-31.88" font-family="Helvetica,sans-Serif" font-size="10.00">Configuration</text>
</a>
</g>
</g>
<!-- Node19&#45;&gt;Node2 -->
<g id="edge25_Node000002_Node000019" class="edge">
<title>Node19&#45;&gt;Node2</title>
<g id="a_edge25_Node000002_Node000019"><a xlink:title=" ">
<path fill="none" stroke="#9a32cd" stroke-dasharray="5,2" d="M607.18,-20.47C661.22,-10.69 731.81,-8.75 777,-49.12 818.61,-86.3 760.69,-129.37 795,-173.38 797.58,-176.69 800.81,-179.45 804.36,-181.76"/>
<polygon fill="#9a32cd" stroke="#9a32cd" points="606.55,-17.03 597.41,-22.38 607.89,-23.9 606.55,-17.03"/>
</a>
</g>
<text text-anchor="middle" x="696.75" y="-53.88" font-family="Helvetica,sans-Serif" font-size="10.00" fill="grey"> mDirectLinearSolverConfiguration</text>
</g>
<!-- Node20 -->
<g id="Node000020" class="node">
<title>Node20</title>
<g id="a_Node000020"><a xlink:href="class_d_psim_1_1_timer.html" target="_top" xlink:title=" ">
<polygon fill="white" stroke="#bfbfbf" points="883.75,-164.5 805.5,-164.5 805.5,-142.25 883.75,-142.25 883.75,-164.5"/>
<text text-anchor="middle" x="844.62" y="-151" font-family="Helvetica,sans-Serif" font-size="10.00">DPsim::Timer</text>
</a>
</g>
</g>
<!-- Node20&#45;&gt;Node1 -->
<g id="edge26_Node000001_Node000020" class="edge">
<title>Node20&#45;&gt;Node1</title>
<g id="a_edge26_Node000001_Node000020"><a xlink:title=" ">
<path fill="none" stroke="#9a32cd" stroke-dasharray="5,2" d="M895.13,-155.69C912.63,-156.61 932.45,-157.78 950.5,-159.12 956.29,-159.56 962.29,-160.04 968.32,-160.55"/>
<polygon fill="#9a32cd" stroke="#9a32cd" points="895.68,-152.21 885.51,-155.2 895.32,-159.21 895.68,-152.21"/>
</a>
</g>
<text text-anchor="middle" x="931.38" y="-163.88" font-family="Helvetica,sans-Serif" font-size="10.00" fill="grey"> mTimer</text>
</g>
</g>
</svg>
