<?xml version="1.0" encoding="UTF-8" standalone="no"?>
<!DOCTYPE svg PUBLIC "-//W3C//DTD SVG 1.1//EN"
 "http://www.w3.org/Graphics/SVG/1.1/DTD/svg11.dtd">
<!-- Generated by graphviz version 12.2.1 (20241206.2353)
 -->
<!-- Title: CPS::MNAInterface Pages: 1 -->
<svg width="801pt" height="1923pt"
 viewBox="0.00 0.00 800.75 1923.25" xmlns="http://www.w3.org/2000/svg" xmlns:xlink="http://www.w3.org/1999/xlink">
<g id="graph0" class="graph" transform="scale(1 1) rotate(0) translate(4 1919.25)">
<title>CPS::MNAInterface</title>
<!-- Node1 -->
<g id="Node000001" class="node">
<title>Node1</title>
<g id="a_Node000001"><a xlink:title="Interface to be implemented by all models used by the MNA solver.">
<polygon fill="#999999" stroke="#666666" points="106,-402.25 0,-402.25 0,-380 106,-380 106,-402.25"/>
<text text-anchor="middle" x="53" y="-388.75" font-family="Helvetica,sans-Serif" font-size="10.00">CPS::MNAInterface</text>
</a>
</g>
</g>
<!-- Node2 -->
<g id="Node000002" class="node">
<title>Node2</title>
<g id="a_Node000002"><a xlink:href="class_c_p_s_1_1_m_n_a_sim_power_comp.html" target="_top" xlink:title=" ">
<polygon fill="white" stroke="#666666" points="566.5,-1051.38 430.5,-1051.38 430.5,-1014.88 566.5,-1014.88 566.5,-1051.38"/>
<text text-anchor="start" x="438.5" y="-1037.88" font-family="Helvetica,sans-Serif" font-size="10.00">CPS::MNASimPowerComp</text>
<text text-anchor="middle" x="498.5" y="-1023.62" font-family="Helvetica,sans-Serif" font-size="10.00">&lt; Complex &gt;</text>
</a>
</g>
</g>
<!-- Node1&#45;&gt;Node2 -->
<g id="edge1_Node000001_Node000002" class="edge">
<title>Node1&#45;&gt;Node2</title>
<g id="a_edge1_Node000001_Node000002"><a xlink:title=" ">
<path fill="none" stroke="#63b8ff" d="M67.71,-411.84C109.84,-475.37 241.34,-672.94 354,-834.12 400.85,-901.16 458.14,-979.58 483.86,-1014.6"/>
<polygon fill="#63b8ff" stroke="#63b8ff" points="70.8,-410.17 62.36,-403.77 64.97,-414.04 70.8,-410.17"/>
</a>
</g>
</g>
<!-- Node96 -->
<g id="Node000096" class="node">
<title>Node96</title>
<g id="a_Node000096"><a xlink:href="class_c_p_s_1_1_m_n_a_sim_power_comp.html" target="_top" xlink:title=" ">
<polygon fill="white" stroke="orangered" points="566.5,-194.38 430.5,-194.38 430.5,-157.88 566.5,-157.88 566.5,-194.38"/>
<text text-anchor="start" x="438.5" y="-180.88" font-family="Helvetica,sans-Serif" font-size="10.00">CPS::MNASimPowerComp</text>
<text text-anchor="middle" x="498.5" y="-166.62" font-family="Helvetica,sans-Serif" font-size="10.00">&lt; Real &gt;</text>
</a>
</g>
</g>
<!-- Node1&#45;&gt;Node96 -->
<g id="edge40_Node000001_Node000096" class="edge">
<title>Node1&#45;&gt;Node96</title>
<g id="a_edge40_Node000001_Node000096"><a xlink:title=" ">
<path fill="none" stroke="#63b8ff" d="M88,-374.64C169.14,-335.31 373.63,-236.17 459.06,-194.76"/>
<polygon fill="#63b8ff" stroke="#63b8ff" points="86.68,-371.39 79.21,-378.91 89.73,-377.69 86.68,-371.39"/>
</a>
</g>
</g>
<!-- Node161 -->
<g id="Node000161" class="node">
<title>Node161</title>
<g id="a_Node000161"><a xlink:href="class_c_p_s_1_1_d_p_1_1_ph3_1_1_synchron_generator_v_b_r.html" target="_top" xlink:title=" ">
<polygon fill="white" stroke="#666666" points="336,-379.25 143,-379.25 143,-357 336,-357 336,-379.25"/>
<text text-anchor="middle" x="239.5" y="-365.75" font-family="Helvetica,sans-Serif" font-size="10.00">CPS::DP::Ph3::SynchronGeneratorVBR</text>
</a>
</g>
</g>
<!-- Node1&#45;&gt;Node161 -->
<g id="edge47_Node000001_Node000161" class="edge">
<title>Node1&#45;&gt;Node161</title>
<g id="a_edge47_Node000001_Node000161"><a xlink:title=" ">
<path fill="none" stroke="#63b8ff" d="M117.57,-383.2C126.59,-382.08 136.03,-380.9 145.48,-379.72"/>
<polygon fill="#63b8ff" stroke="#63b8ff" points="117.37,-379.7 107.88,-384.41 118.23,-386.64 117.37,-379.7"/>
</a>
</g>
</g>
<!-- Node162 -->
<g id="Node000162" class="node">
<title>Node162</title>
<g id="a_Node000162"><a xlink:href="class_c_p_s_1_1_m_n_a_sim_power_comp.html" target="_top" xlink:title="Base class for all MNA components that are transmitting power.">
<polygon fill="#fff0f0" stroke="red" points="307.5,-433.38 171.5,-433.38 171.5,-396.88 307.5,-396.88 307.5,-433.38"/>
<text text-anchor="start" x="179.5" y="-419.88" font-family="Helvetica,sans-Serif" font-size="10.00">CPS::MNASimPowerComp</text>
<text text-anchor="middle" x="239.5" y="-405.62" font-family="Helvetica,sans-Serif" font-size="10.00">&lt; VarType &gt;</text>
</a>
</g>
</g>
<!-- Node1&#45;&gt;Node162 -->
<g id="edge48_Node000001_Node000162" class="edge">
<title>Node1&#45;&gt;Node162</title>
<g id="a_edge48_Node000001_Node000162"><a xlink:title=" ">
<path fill="none" stroke="#63b8ff" d="M117.51,-399.39C134.81,-401.64 153.62,-404.08 171.14,-406.36"/>
<polygon fill="#63b8ff" stroke="#63b8ff" points="118.25,-395.95 107.88,-398.13 117.34,-402.89 118.25,-395.95"/>
</a>
</g>
</g>
<!-- Node3 -->
<g id="Node000003" class="node">
<title>Node3</title>
<g id="a_Node000003"><a xlink:href="class_c_p_s_1_1_base_1_1_reduced_order_synchron_generator.html" target="_top" xlink:title=" ">
<polygon fill="white" stroke="orangered" points="787.5,-1675.38 608.75,-1675.38 608.75,-1638.88 787.5,-1638.88 787.5,-1675.38"/>
<text text-anchor="start" x="616.75" y="-1661.88" font-family="Helvetica,sans-Serif" font-size="10.00">CPS::Base::ReducedOrderSynchron</text>
<text text-anchor="middle" x="698.12" y="-1647.62" font-family="Helvetica,sans-Serif" font-size="10.00">Generator&lt; Complex &gt;</text>
</a>
</g>
</g>
<!-- Node2&#45;&gt;Node3 -->
<g id="edge2_Node000002_Node000003" class="edge">
<title>Node2&#45;&gt;Node3</title>
<g id="a_edge2_Node000002_Node000003"><a xlink:title=" ">
<path fill="none" stroke="#63b8ff" d="M500.58,-1063.27C505.09,-1172.42 526.01,-1544.95 603.5,-1629.12 606.83,-1632.74 610.61,-1635.9 614.69,-1638.66"/>
<polygon fill="#63b8ff" stroke="#63b8ff" points="504.08,-1063.23 500.19,-1053.37 497.08,-1063.5 504.08,-1063.23"/>
</a>
</g>
</g>
<!-- Node20 -->
<g id="Node000020" class="node">
<title>Node20</title>
<g id="a_Node000020"><a xlink:href="class_c_p_s_1_1_composite_power_comp.html" target="_top" xlink:title=" ">
<polygon fill="white" stroke="orangered" points="771,-1620.38 625.25,-1620.38 625.25,-1583.88 771,-1583.88 771,-1620.38"/>
<text text-anchor="start" x="633.25" y="-1606.88" font-family="Helvetica,sans-Serif" font-size="10.00">CPS::CompositePowerComp</text>
<text text-anchor="middle" x="698.12" y="-1592.62" font-family="Helvetica,sans-Serif" font-size="10.00">&lt; Complex &gt;</text>
</a>
</g>
</g>
<!-- Node2&#45;&gt;Node20 -->
<g id="edge3_Node000002_Node000020" class="edge">
<title>Node2&#45;&gt;Node20</title>
<g id="a_edge3_Node000002_Node000020"><a xlink:title=" ">
<path fill="none" stroke="#63b8ff" d="M502.7,-1062.87C511.42,-1140.01 538.1,-1352.5 584.5,-1524.12 590.81,-1547.48 585.76,-1558.68 603.5,-1575.12 609.7,-1580.87 617.06,-1585.41 624.87,-1588.98"/>
<polygon fill="#63b8ff" stroke="#63b8ff" points="506.21,-1062.73 501.62,-1053.18 499.25,-1063.5 506.21,-1062.73"/>
</a>
</g>
</g>
<!-- Node43 -->
<g id="Node000043" class="node">
<title>Node43</title>
<g id="a_Node000043"><a xlink:href="class_c_p_s_1_1_d_p_1_1_ph1_1_1_capacitor.html" target="_top" xlink:title="Capacitor model.">
<polygon fill="white" stroke="#666666" points="761.25,-1566.25 635,-1566.25 635,-1544 761.25,-1544 761.25,-1566.25"/>
<text text-anchor="middle" x="698.12" y="-1552.75" font-family="Helvetica,sans-Serif" font-size="10.00">CPS::DP::Ph1::Capacitor</text>
</a>
</g>
</g>
<!-- Node2&#45;&gt;Node43 -->
<g id="edge4_Node000002_Node000043" class="edge">
<title>Node2&#45;&gt;Node43</title>
<g id="a_edge4_Node000002_Node000043"><a xlink:title=" ">
<path fill="none" stroke="#63b8ff" d="M501.31,-1063.18C507.88,-1161.33 533.79,-1469.86 603.5,-1535.12 612.11,-1543.19 623.15,-1548.32 634.61,-1551.52"/>
<polygon fill="#63b8ff" stroke="#63b8ff" points="504.81,-1063.04 500.67,-1053.29 497.83,-1063.49 504.81,-1063.04"/>
</a>
</g>
</g>
<!-- Node44 -->
<g id="Node000044" class="node">
<title>Node44</title>
<g id="a_Node000044"><a xlink:href="class_c_p_s_1_1_d_p_1_1_ph1_1_1_controlled_current_source.html" target="_top" xlink:title="Dynamic phasor ideal current source.">
<polygon fill="white" stroke="#666666" points="763.5,-1526.38 632.75,-1526.38 632.75,-1489.88 763.5,-1489.88 763.5,-1526.38"/>
<text text-anchor="start" x="640.75" y="-1512.88" font-family="Helvetica,sans-Serif" font-size="10.00">CPS::DP::Ph1::Controlled</text>
<text text-anchor="middle" x="698.12" y="-1498.62" font-family="Helvetica,sans-Serif" font-size="10.00">CurrentSource</text>
</a>
</g>
</g>
<!-- Node2&#45;&gt;Node44 -->
<g id="edge5_Node000002_Node000044" class="edge">
<title>Node2&#45;&gt;Node44</title>
<g id="a_edge5_Node000002_Node000044"><a xlink:title=" ">
<path fill="none" stroke="#63b8ff" d="M502.37,-1062.9C511.67,-1153.01 543.84,-1420.34 603.5,-1480.12 611.53,-1488.17 621.77,-1493.92 632.51,-1498.03"/>
<polygon fill="#63b8ff" stroke="#63b8ff" points="505.87,-1062.73 501.39,-1053.14 498.91,-1063.44 505.87,-1062.73"/>
</a>
</g>
</g>
<!-- Node45 -->
<g id="Node000045" class="node">
<title>Node45</title>
<g id="a_Node000045"><a xlink:href="class_c_p_s_1_1_d_p_1_1_ph1_1_1_controlled_voltage_source.html" target="_top" xlink:title="Controlled Ideal Voltage source model.">
<polygon fill="white" stroke="#666666" points="763.5,-1471.38 632.75,-1471.38 632.75,-1434.88 763.5,-1434.88 763.5,-1471.38"/>
<text text-anchor="start" x="640.75" y="-1457.88" font-family="Helvetica,sans-Serif" font-size="10.00">CPS::DP::Ph1::Controlled</text>
<text text-anchor="middle" x="698.12" y="-1443.62" font-family="Helvetica,sans-Serif" font-size="10.00">VoltageSource</text>
</a>
</g>
</g>
<!-- Node2&#45;&gt;Node45 -->
<g id="edge6_Node000002_Node000045" class="edge">
<title>Node2&#45;&gt;Node45</title>
<g id="a_edge6_Node000002_Node000045"><a xlink:title=" ">
<path fill="none" stroke="#63b8ff" d="M503.21,-1062.99C514.14,-1145.98 548.9,-1376.54 603.5,-1426.12 611.77,-1433.63 621.99,-1439.06 632.62,-1442.99"/>
<polygon fill="#63b8ff" stroke="#63b8ff" points="506.69,-1062.61 501.94,-1053.14 499.75,-1063.51 506.69,-1062.61"/>
</a>
</g>
</g>
<!-- Node46 -->
<g id="Node000046" class="node">
<title>Node46</title>
<g id="a_Node000046"><a xlink:href="class_c_p_s_1_1_d_p_1_1_ph1_1_1_current_source.html" target="_top" xlink:title="Dynamic phasor ideal current source.">
<polygon fill="white" stroke="#666666" points="773.25,-1417.25 623,-1417.25 623,-1395 773.25,-1395 773.25,-1417.25"/>
<text text-anchor="middle" x="698.12" y="-1403.75" font-family="Helvetica,sans-Serif" font-size="10.00">CPS::DP::Ph1::CurrentSource</text>
</a>
</g>
</g>
<!-- Node2&#45;&gt;Node46 -->
<g id="edge7_Node000002_Node000046" class="edge">
<title>Node2&#45;&gt;Node46</title>
<g id="a_edge7_Node000002_Node000046"><a xlink:title=" ">
<path fill="none" stroke="#63b8ff" d="M503.93,-1063C516.05,-1140.44 552.33,-1344.52 603.5,-1386.12 609.17,-1390.74 615.66,-1394.36 622.52,-1397.19"/>
<polygon fill="#63b8ff" stroke="#63b8ff" points="507.4,-1062.55 502.42,-1053.2 500.48,-1063.61 507.4,-1062.55"/>
</a>
</g>
</g>
<!-- Node47 -->
<g id="Node000047" class="node">
<title>Node47</title>
<g id="a_Node000047"><a xlink:href="class_c_p_s_1_1_d_p_1_1_ph1_1_1_inductor.html" target="_top" xlink:title="Inductor.">
<polygon fill="white" stroke="#666666" points="759.75,-1377.25 636.5,-1377.25 636.5,-1355 759.75,-1355 759.75,-1377.25"/>
<text text-anchor="middle" x="698.12" y="-1363.75" font-family="Helvetica,sans-Serif" font-size="10.00">CPS::DP::Ph1::Inductor</text>
</a>
</g>
</g>
<!-- Node2&#45;&gt;Node47 -->
<g id="edge8_Node000002_Node000047" class="edge">
<title>Node2&#45;&gt;Node47</title>
<g id="a_edge8_Node000002_Node000047"><a xlink:title=" ">
<path fill="none" stroke="#63b8ff" d="M499.59,-1062.76C501.53,-1125.98 515.73,-1274.15 603.5,-1346.12 612.88,-1353.82 624.53,-1358.75 636.38,-1361.87"/>
<polygon fill="#63b8ff" stroke="#63b8ff" points="503.1,-1063.07 499.38,-1053.15 496.1,-1063.22 503.1,-1063.07"/>
</a>
</g>
</g>
<!-- Node48 -->
<g id="Node000048" class="node">
<title>Node48</title>
<g id="a_Node000048"><a xlink:href="class_c_p_s_1_1_d_p_1_1_ph1_1_1_inverter.html" target="_top" xlink:title="Single phase inverter model.">
<polygon fill="white" stroke="#666666" points="759.38,-1337.25 636.88,-1337.25 636.88,-1315 759.38,-1315 759.38,-1337.25"/>
<text text-anchor="middle" x="698.12" y="-1323.75" font-family="Helvetica,sans-Serif" font-size="10.00">CPS::DP::Ph1::Inverter</text>
</a>
</g>
</g>
<!-- Node2&#45;&gt;Node48 -->
<g id="edge9_Node000002_Node000048" class="edge">
<title>Node2&#45;&gt;Node48</title>
<g id="a_edge9_Node000002_Node000048"><a xlink:title=" ">
<path fill="none" stroke="#63b8ff" d="M501.81,-1063.15C507.84,-1119.8 529.24,-1242.47 603.5,-1306.12 612.84,-1314.13 624.6,-1319.18 636.61,-1322.31"/>
<polygon fill="#63b8ff" stroke="#63b8ff" points="505.3,-1062.92 500.86,-1053.3 498.33,-1063.59 505.3,-1062.92"/>
</a>
</g>
</g>
<!-- Node49 -->
<g id="Node000049" class="node">
<title>Node49</title>
<g id="a_Node000049"><a xlink:href="class_c_p_s_1_1_d_p_1_1_ph1_1_1_mixed_v_type_variable_s_s_n_comp.html" target="_top" xlink:title=" ">
<polygon fill="#fff0f0" stroke="red" points="768,-1297.38 628.25,-1297.38 628.25,-1260.88 768,-1260.88 768,-1297.38"/>
<text text-anchor="start" x="636.25" y="-1283.88" font-family="Helvetica,sans-Serif" font-size="10.00">CPS::DP::Ph1::MixedVType</text>
<text text-anchor="middle" x="698.12" y="-1269.62" font-family="Helvetica,sans-Serif" font-size="10.00">VariableSSNComp</text>
</a>
</g>
</g>
<!-- Node2&#45;&gt;Node49 -->
<g id="edge10_Node000002_Node000049" class="edge">
<title>Node2&#45;&gt;Node49</title>
<g id="a_edge10_Node000002_Node000049"><a xlink:title=" ">
<path fill="none" stroke="#63b8ff" d="M505.56,-1062.91C516.67,-1109.84 544.75,-1200.82 603.5,-1251.12 610.72,-1257.3 619.26,-1262.12 628.19,-1265.87"/>
<polygon fill="#63b8ff" stroke="#63b8ff" points="508.99,-1062.17 503.37,-1053.19 502.16,-1063.71 508.99,-1062.17"/>
</a>
</g>
</g>
<!-- Node52 -->
<g id="Node000052" class="node">
<title>Node52</title>
<g id="a_Node000052"><a xlink:href="class_c_p_s_1_1_d_p_1_1_ph1_1_1_profile_voltage_source.html" target="_top" xlink:title=" ">
<polygon fill="white" stroke="#bfbfbf" points="772.12,-1242.38 624.12,-1242.38 624.12,-1205.88 772.12,-1205.88 772.12,-1242.38"/>
<text text-anchor="start" x="632.12" y="-1228.88" font-family="Helvetica,sans-Serif" font-size="10.00">CPS::DP::Ph1::ProfileVoltage</text>
<text text-anchor="middle" x="698.12" y="-1214.62" font-family="Helvetica,sans-Serif" font-size="10.00">Source</text>
</a>
</g>
</g>
<!-- Node2&#45;&gt;Node52 -->
<g id="edge11_Node000002_Node000052" class="edge">
<title>Node2&#45;&gt;Node52</title>
<g id="a_edge11_Node000002_Node000052"><a xlink:title=" ">
<path fill="none" stroke="#63b8ff" d="M510.35,-1062.28C525.55,-1099.15 556.68,-1162.03 603.5,-1197.12 609.73,-1201.79 616.74,-1205.65 624.05,-1208.85"/>
<polygon fill="#63b8ff" stroke="#63b8ff" points="513.66,-1061.14 506.7,-1053.14 507.15,-1063.73 513.66,-1061.14"/>
</a>
</g>
</g>
<!-- Node53 -->
<g id="Node000053" class="node">
<title>Node53</title>
<g id="a_Node000053"><a xlink:href="class_c_p_s_1_1_d_p_1_1_ph1_1_1_res_ind_series.html" target="_top" xlink:title="resistor inductor series element">
<polygon fill="white" stroke="#666666" points="769.88,-1188.25 626.38,-1188.25 626.38,-1166 769.88,-1166 769.88,-1188.25"/>
<text text-anchor="middle" x="698.12" y="-1174.75" font-family="Helvetica,sans-Serif" font-size="10.00">CPS::DP::Ph1::ResIndSeries</text>
</a>
</g>
</g>
<!-- Node2&#45;&gt;Node53 -->
<g id="edge12_Node000002_Node000053" class="edge">
<title>Node2&#45;&gt;Node53</title>
<g id="a_edge12_Node000002_Node000053"><a xlink:title=" ">
<path fill="none" stroke="#63b8ff" d="M515.46,-1061.46C533.18,-1090.18 564.48,-1133.64 603.5,-1157.12 610.48,-1161.32 618.22,-1164.65 626.17,-1167.28"/>
<polygon fill="#63b8ff" stroke="#63b8ff" points="518.48,-1059.69 510.34,-1052.91 512.48,-1063.29 518.48,-1059.69"/>
</a>
</g>
</g>
<!-- Node54 -->
<g id="Node000054" class="node">
<title>Node54</title>
<g id="a_Node000054"><a xlink:href="class_c_p_s_1_1_d_p_1_1_ph1_1_1_resistor.html" target="_top" xlink:title="Dynamic phasor resistor model.">
<polygon fill="white" stroke="#666666" points="758.25,-1148.25 638,-1148.25 638,-1126 758.25,-1126 758.25,-1148.25"/>
<text text-anchor="middle" x="698.12" y="-1134.75" font-family="Helvetica,sans-Serif" font-size="10.00">CPS::DP::Ph1::Resistor</text>
</a>
</g>
</g>
<!-- Node2&#45;&gt;Node54 -->
<g id="edge13_Node000002_Node000054" class="edge">
<title>Node2&#45;&gt;Node54</title>
<g id="a_edge13_Node000002_Node000054"><a xlink:title=" ">
<path fill="none" stroke="#63b8ff" d="M524.95,-1059.48C544.66,-1078.35 573.57,-1102.85 603.5,-1117.12 614.15,-1122.2 626.1,-1126 637.8,-1128.84"/>
<polygon fill="#63b8ff" stroke="#63b8ff" points="527.5,-1057.08 517.91,-1052.59 522.6,-1062.08 527.5,-1057.08"/>
</a>
</g>
</g>
<!-- Node55 -->
<g id="Node000055" class="node">
<title>Node55</title>
<g id="a_Node000055"><a xlink:href="class_c_p_s_1_1_d_p_1_1_ph1_1_1_switch.html" target="_top" xlink:title="Dynamic phasor switch.">
<polygon fill="white" stroke="#666666" points="754.12,-1108.25 642.12,-1108.25 642.12,-1086 754.12,-1086 754.12,-1108.25"/>
<text text-anchor="middle" x="698.12" y="-1094.75" font-family="Helvetica,sans-Serif" font-size="10.00">CPS::DP::Ph1::Switch</text>
</a>
</g>
</g>
<!-- Node2&#45;&gt;Node55 -->
<g id="edge14_Node000002_Node000055" class="edge">
<title>Node2&#45;&gt;Node55</title>
<g id="a_edge14_Node000002_Node000055"><a xlink:title=" ">
<path fill="none" stroke="#63b8ff" d="M549.09,-1056.37C566.08,-1063.72 585.38,-1071.41 603.5,-1077.12 615.71,-1080.97 629.04,-1084.31 641.72,-1087.11"/>
<polygon fill="#63b8ff" stroke="#63b8ff" points="550.79,-1053.29 540.22,-1052.47 547.96,-1059.7 550.79,-1053.29"/>
</a>
</g>
</g>
<!-- Node56 -->
<g id="Node000056" class="node">
<title>Node56</title>
<g id="a_Node000056"><a xlink:href="class_c_p_s_1_1_d_p_1_1_ph1_1_1_voltage_source.html" target="_top" xlink:title="Ideal Voltage source model.">
<polygon fill="white" stroke="#666666" points="772.88,-1068.25 623.38,-1068.25 623.38,-1046 772.88,-1046 772.88,-1068.25"/>
<text text-anchor="middle" x="698.12" y="-1054.75" font-family="Helvetica,sans-Serif" font-size="10.00">CPS::DP::Ph1::VoltageSource</text>
</a>
</g>
</g>
<!-- Node2&#45;&gt;Node56 -->
<g id="edge15_Node000002_Node000056" class="edge">
<title>Node2&#45;&gt;Node56</title>
<g id="a_edge15_Node000002_Node000056"><a xlink:title=" ">
<path fill="none" stroke="#63b8ff" d="M578.17,-1042.68C593.02,-1044.48 608.5,-1046.36 623.2,-1048.15"/>
<polygon fill="#63b8ff" stroke="#63b8ff" points="578.81,-1039.23 568.46,-1041.5 577.97,-1046.18 578.81,-1039.23"/>
</a>
</g>
</g>
<!-- Node57 -->
<g id="Node000057" class="node">
<title>Node57</title>
<g id="a_Node000057"><a xlink:href="class_c_p_s_1_1_d_p_1_1_ph1_1_1_voltage_source_norton.html" target="_top" xlink:title="Resistive dynamic phasor voltage source.">
<polygon fill="white" stroke="#666666" points="772.88,-1028.38 623.38,-1028.38 623.38,-991.88 772.88,-991.88 772.88,-1028.38"/>
<text text-anchor="start" x="631.38" y="-1014.88" font-family="Helvetica,sans-Serif" font-size="10.00">CPS::DP::Ph1::VoltageSource</text>
<text text-anchor="middle" x="698.12" y="-1000.62" font-family="Helvetica,sans-Serif" font-size="10.00">Norton</text>
</a>
</g>
</g>
<!-- Node2&#45;&gt;Node57 -->
<g id="edge16_Node000002_Node000057" class="edge">
<title>Node2&#45;&gt;Node57</title>
<g id="a_edge16_Node000002_Node000057"><a xlink:title=" ">
<path fill="none" stroke="#63b8ff" d="M578.17,-1023.97C593.02,-1022.24 608.5,-1020.44 623.2,-1018.73"/>
<polygon fill="#63b8ff" stroke="#63b8ff" points="577.99,-1020.47 568.46,-1025.1 578.8,-1027.42 577.99,-1020.47"/>
</a>
</g>
</g>
<!-- Node58 -->
<g id="Node000058" class="node">
<title>Node58</title>
<g id="a_Node000058"><a xlink:href="class_c_p_s_1_1_d_p_1_1_ph1_1_1var_res_switch.html" target="_top" xlink:title="Switch with variable resistance to avoid numerical oscillations, when an inductive current is suddenl...">
<polygon fill="white" stroke="#666666" points="769.88,-974.25 626.38,-974.25 626.38,-952 769.88,-952 769.88,-974.25"/>
<text text-anchor="middle" x="698.12" y="-960.75" font-family="Helvetica,sans-Serif" font-size="10.00">CPS::DP::Ph1::varResSwitch</text>
</a>
</g>
</g>
<!-- Node2&#45;&gt;Node58 -->
<g id="edge17_Node000002_Node000058" class="edge">
<title>Node2&#45;&gt;Node58</title>
<g id="a_edge17_Node000002_Node000058"><a xlink:title=" ">
<path fill="none" stroke="#63b8ff" d="M542.89,-1009.42C561.18,-1000.18 582.96,-990.14 603.5,-983.12 612.86,-979.93 622.92,-977.14 632.86,-974.73"/>
<polygon fill="#63b8ff" stroke="#63b8ff" points="541.47,-1006.21 534.18,-1013.9 544.67,-1012.43 541.47,-1006.21"/>
</a>
</g>
</g>
<!-- Node59 -->
<g id="Node000059" class="node">
<title>Node59</title>
<g id="a_Node000059"><a xlink:href="class_c_p_s_1_1_d_p_1_1_ph3_1_1_capacitor.html" target="_top" xlink:title="Capacitor model.">
<polygon fill="white" stroke="#666666" points="761.25,-934.25 635,-934.25 635,-912 761.25,-912 761.25,-934.25"/>
<text text-anchor="middle" x="698.12" y="-920.75" font-family="Helvetica,sans-Serif" font-size="10.00">CPS::DP::Ph3::Capacitor</text>
</a>
</g>
</g>
<!-- Node2&#45;&gt;Node59 -->
<g id="edge18_Node000002_Node000059" class="edge">
<title>Node2&#45;&gt;Node59</title>
<g id="a_edge18_Node000002_Node000059"><a xlink:title=" ">
<path fill="none" stroke="#63b8ff" d="M523.27,-1006.21C542.8,-985.8 572.27,-958.67 603.5,-943.12 613.17,-938.31 623.97,-934.65 634.69,-931.87"/>
<polygon fill="#63b8ff" stroke="#63b8ff" points="520.83,-1003.7 516.56,-1013.39 525.94,-1008.47 520.83,-1003.7"/>
</a>
</g>
</g>
<!-- Node60 -->
<g id="Node000060" class="node">
<title>Node60</title>
<g id="a_Node000060"><a xlink:href="class_c_p_s_1_1_d_p_1_1_ph3_1_1_current_source.html" target="_top" xlink:title="Ideal current source model.">
<polygon fill="white" stroke="#666666" points="773.25,-894.25 623,-894.25 623,-872 773.25,-872 773.25,-894.25"/>
<text text-anchor="middle" x="698.12" y="-880.75" font-family="Helvetica,sans-Serif" font-size="10.00">CPS::DP::Ph3::CurrentSource</text>
</a>
</g>
</g>
<!-- Node2&#45;&gt;Node60 -->
<g id="edge19_Node000002_Node000060" class="edge">
<title>Node2&#45;&gt;Node60</title>
<g id="a_edge19_Node000002_Node000060"><a xlink:title=" ">
<path fill="none" stroke="#63b8ff" d="M514.33,-1004.8C531.6,-974.72 563.02,-928.12 603.5,-903.12 609.44,-899.46 615.95,-896.45 622.68,-894"/>
<polygon fill="#63b8ff" stroke="#63b8ff" points="511.36,-1002.93 509.55,-1013.37 517.48,-1006.34 511.36,-1002.93"/>
</a>
</g>
</g>
<!-- Node61 -->
<g id="Node000061" class="node">
<title>Node61</title>
<g id="a_Node000061"><a xlink:href="class_c_p_s_1_1_d_p_1_1_ph3_1_1_inductor.html" target="_top" xlink:title="Inductor.">
<polygon fill="white" stroke="#666666" points="759.75,-854.25 636.5,-854.25 636.5,-832 759.75,-832 759.75,-854.25"/>
<text text-anchor="middle" x="698.12" y="-840.75" font-family="Helvetica,sans-Serif" font-size="10.00">CPS::DP::Ph3::Inductor</text>
</a>
</g>
</g>
<!-- Node2&#45;&gt;Node61 -->
<g id="edge20_Node000002_Node000061" class="edge">
<title>Node2&#45;&gt;Node61</title>
<g id="a_edge20_Node000002_Node000061"><a xlink:title=" ">
<path fill="none" stroke="#63b8ff" d="M509.03,-1004.08C523.24,-965.56 553.77,-898.34 603.5,-863.12 613.13,-856.31 624.62,-851.73 636.2,-848.68"/>
<polygon fill="#63b8ff" stroke="#63b8ff" points="505.86,-1002.57 505.81,-1013.17 512.45,-1004.91 505.86,-1002.57"/>
</a>
</g>
</g>
<!-- Node62 -->
<g id="Node000062" class="node">
<title>Node62</title>
<g id="a_Node000062"><a xlink:href="class_c_p_s_1_1_d_p_1_1_ph3_1_1_mixed_v_type_variable_s_s_n_comp.html" target="_top" xlink:title=" ">
<polygon fill="#fff0f0" stroke="red" points="768,-814.38 628.25,-814.38 628.25,-777.88 768,-777.88 768,-814.38"/>
<text text-anchor="start" x="636.25" y="-800.88" font-family="Helvetica,sans-Serif" font-size="10.00">CPS::DP::Ph3::MixedVType</text>
<text text-anchor="middle" x="698.12" y="-786.62" font-family="Helvetica,sans-Serif" font-size="10.00">VariableSSNComp</text>
</a>
</g>
</g>
<!-- Node2&#45;&gt;Node62 -->
<g id="edge21_Node000002_Node000062" class="edge">
<title>Node2&#45;&gt;Node62</title>
<g id="a_edge21_Node000002_Node000062"><a xlink:title=" ">
<path fill="none" stroke="#63b8ff" d="M506.08,-1003.38C517.72,-957.78 546.32,-870.89 603.5,-823.12 610.64,-817.16 619.04,-812.51 627.81,-808.89"/>
<polygon fill="#63b8ff" stroke="#63b8ff" points="502.68,-1002.54 503.72,-1013.09 509.48,-1004.2 502.68,-1002.54"/>
</a>
</g>
</g>
<!-- Node64 -->
<g id="Node000064" class="node">
<title>Node64</title>
<g id="a_Node000064"><a xlink:href="class_c_p_s_1_1_d_p_1_1_ph3_1_1_resistor.html" target="_top" xlink:title=" ">
<polygon fill="white" stroke="#bfbfbf" points="758.25,-760.25 638,-760.25 638,-738 758.25,-738 758.25,-760.25"/>
<text text-anchor="middle" x="698.12" y="-746.75" font-family="Helvetica,sans-Serif" font-size="10.00">CPS::DP::Ph3::Resistor</text>
</a>
</g>
</g>
<!-- Node2&#45;&gt;Node64 -->
<g id="edge22_Node000002_Node000064" class="edge">
<title>Node2&#45;&gt;Node64</title>
<g id="a_edge22_Node000002_Node000064"><a xlink:title=" ">
<path fill="none" stroke="#63b8ff" d="M502.22,-1003.32C508.93,-948.17 531.35,-830.27 603.5,-769.12 613.14,-760.96 625.3,-755.88 637.65,-752.77"/>
<polygon fill="#63b8ff" stroke="#63b8ff" points="498.75,-1002.88 501.12,-1013.2 505.71,-1003.65 498.75,-1002.88"/>
</a>
</g>
</g>
<!-- Node65 -->
<g id="Node000065" class="node">
<title>Node65</title>
<g id="a_Node000065"><a xlink:href="class_c_p_s_1_1_d_p_1_1_ph3_1_1_series_resistor.html" target="_top" xlink:title=" ">
<polygon fill="white" stroke="#bfbfbf" points="772.5,-720.25 623.75,-720.25 623.75,-698 772.5,-698 772.5,-720.25"/>
<text text-anchor="middle" x="698.12" y="-706.75" font-family="Helvetica,sans-Serif" font-size="10.00">CPS::DP::Ph3::SeriesResistor</text>
</a>
</g>
</g>
<!-- Node2&#45;&gt;Node65 -->
<g id="edge23_Node000002_Node000065" class="edge">
<title>Node2&#45;&gt;Node65</title>
<g id="a_edge23_Node000002_Node000065"><a xlink:title=" ">
<path fill="none" stroke="#63b8ff" d="M500.44,-1003.23C504.07,-941.95 521.42,-801.74 603.5,-729.12 609.35,-723.95 616.21,-720 623.51,-717"/>
<polygon fill="#63b8ff" stroke="#63b8ff" points="496.95,-1003.05 499.94,-1013.21 503.94,-1003.4 496.95,-1003.05"/>
</a>
</g>
</g>
<!-- Node66 -->
<g id="Node000066" class="node">
<title>Node66</title>
<g id="a_Node000066"><a xlink:href="class_c_p_s_1_1_d_p_1_1_ph3_1_1_series_switch.html" target="_top" xlink:title="Dynamic phasor three&#45;phase switch.">
<polygon fill="white" stroke="#666666" points="768.38,-680.25 627.88,-680.25 627.88,-658 768.38,-658 768.38,-680.25"/>
<text text-anchor="middle" x="698.12" y="-666.75" font-family="Helvetica,sans-Serif" font-size="10.00">CPS::DP::Ph3::SeriesSwitch</text>
</a>
</g>
</g>
<!-- Node2&#45;&gt;Node66 -->
<g id="edge24_Node000002_Node000066" class="edge">
<title>Node2&#45;&gt;Node66</title>
<g id="a_edge24_Node000002_Node000066"><a xlink:title=" ">
<path fill="none" stroke="#63b8ff" d="M498.8,-1003.3C498.98,-935.99 509.56,-771.76 603.5,-689.12 610.49,-682.98 618.9,-678.56 627.78,-675.42"/>
<polygon fill="#63b8ff" stroke="#63b8ff" points="495.3,-1003.21 498.86,-1013.18 502.3,-1003.16 495.3,-1003.21"/>
</a>
</g>
</g>
<!-- Node67 -->
<g id="Node000067" class="node">
<title>Node67</title>
<g id="a_Node000067"><a xlink:href="class_c_p_s_1_1_d_p_1_1_ph3_1_1_synchron_generator_d_q.html" target="_top" xlink:title="Synchronous generator model in dq&#45;reference frame.">
<polygon fill="#fff0f0" stroke="red" points="792.75,-640.25 603.5,-640.25 603.5,-618 792.75,-618 792.75,-640.25"/>
<text text-anchor="middle" x="698.12" y="-626.75" font-family="Helvetica,sans-Serif" font-size="10.00">CPS::DP::Ph3::SynchronGeneratorDQ</text>
</a>
</g>
</g>
<!-- Node2&#45;&gt;Node67 -->
<g id="edge25_Node000002_Node000067" class="edge">
<title>Node2&#45;&gt;Node67</title>
<g id="a_edge25_Node000002_Node000067"><a xlink:title=" ">
<path fill="none" stroke="#63b8ff" d="M503.34,-1003.32C514.49,-921.59 549.57,-696.84 603.5,-649.12 607.23,-645.82 611.38,-643.02 615.79,-640.64"/>
<polygon fill="#63b8ff" stroke="#63b8ff" points="499.9,-1002.64 502.04,-1013.02 506.84,-1003.57 499.9,-1002.64"/>
</a>
</g>
</g>
<!-- Node70 -->
<g id="Node000070" class="node">
<title>Node70</title>
<g id="a_Node000070"><a xlink:href="class_c_p_s_1_1_d_p_1_1_ph3_1_1_voltage_source.html" target="_top" xlink:title="Ideal Voltage source model.">
<polygon fill="white" stroke="#666666" points="772.88,-600.25 623.38,-600.25 623.38,-578 772.88,-578 772.88,-600.25"/>
<text text-anchor="middle" x="698.12" y="-586.75" font-family="Helvetica,sans-Serif" font-size="10.00">CPS::DP::Ph3::VoltageSource</text>
</a>
</g>
</g>
<!-- Node2&#45;&gt;Node70 -->
<g id="edge26_Node000002_Node000070" class="edge">
<title>Node2&#45;&gt;Node70</title>
<g id="a_edge26_Node000002_Node000070"><a xlink:title=" ">
<path fill="none" stroke="#63b8ff" d="M502.53,-1003.19C512.04,-915.61 544.22,-662.7 603.5,-609.12 609.17,-604 615.83,-600.07 622.93,-597.07"/>
<polygon fill="#63b8ff" stroke="#63b8ff" points="499.08,-1002.59 501.5,-1012.91 506.04,-1003.33 499.08,-1002.59"/>
</a>
</g>
</g>
<!-- Node71 -->
<g id="Node000071" class="node">
<title>Node71</title>
<g id="a_Node000071"><a xlink:href="class_c_p_s_1_1_d_p_1_1_s_s_n_comp.html" target="_top" xlink:title="Abstract base class for DP/SFA state&#45;space nodal (SSN) components.">
<polygon fill="#fff0f0" stroke="red" points="750,-560.25 646.25,-560.25 646.25,-538 750,-538 750,-560.25"/>
<text text-anchor="middle" x="698.12" y="-546.75" font-family="Helvetica,sans-Serif" font-size="10.00">CPS::DP::SSNComp</text>
</a>
</g>
</g>
<!-- Node2&#45;&gt;Node71 -->
<g id="edge27_Node000002_Node000071" class="edge">
<title>Node2&#45;&gt;Node71</title>
<g id="a_edge27_Node000002_Node000071"><a xlink:title=" ">
<path fill="none" stroke="#63b8ff" d="M501.81,-1003.17C509.65,-910.04 538.43,-628.22 603.5,-569.12 615.07,-558.62 630.76,-553.13 645.99,-550.4"/>
<polygon fill="#63b8ff" stroke="#63b8ff" points="498.34,-1002.78 501.01,-1013.03 505.31,-1003.35 498.34,-1002.78"/>
</a>
</g>
</g>
<!-- Node84 -->
<g id="Node000084" class="node">
<title>Node84</title>
<g id="a_Node000084"><a xlink:href="class_c_p_s_1_1_s_p_1_1_ph1_1_1_capacitor.html" target="_top" xlink:title=" ">
<polygon fill="white" stroke="#bfbfbf" points="760.12,-520.25 636.12,-520.25 636.12,-498 760.12,-498 760.12,-520.25"/>
<text text-anchor="middle" x="698.12" y="-506.75" font-family="Helvetica,sans-Serif" font-size="10.00">CPS::SP::Ph1::Capacitor</text>
</a>
</g>
</g>
<!-- Node2&#45;&gt;Node84 -->
<g id="edge28_Node000002_Node000084" class="edge">
<title>Node2&#45;&gt;Node84</title>
<g id="a_edge28_Node000002_Node000084"><a xlink:title=" ">
<path fill="none" stroke="#63b8ff" d="M501.21,-1003.21C507.46,-904.81 532.61,-593.81 603.5,-529.12 612.46,-520.95 623.93,-515.81 635.74,-512.64"/>
<polygon fill="#63b8ff" stroke="#63b8ff" points="497.72,-1002.92 500.6,-1013.12 504.7,-1003.35 497.72,-1002.92"/>
</a>
</g>
</g>
<!-- Node85 -->
<g id="Node000085" class="node">
<title>Node85</title>
<g id="a_Node000085"><a xlink:href="class_c_p_s_1_1_s_p_1_1_ph1_1_1_controlled_current_source.html" target="_top" xlink:title="Ideal Current source model.">
<polygon fill="white" stroke="#666666" points="762.38,-480.38 633.88,-480.38 633.88,-443.88 762.38,-443.88 762.38,-480.38"/>
<text text-anchor="start" x="641.88" y="-466.88" font-family="Helvetica,sans-Serif" font-size="10.00">CPS::SP::Ph1::Controlled</text>
<text text-anchor="middle" x="698.12" y="-452.62" font-family="Helvetica,sans-Serif" font-size="10.00">CurrentSource</text>
</a>
</g>
</g>
<!-- Node2&#45;&gt;Node85 -->
<g id="edge29_Node000002_Node000085" class="edge">
<title>Node2&#45;&gt;Node85</title>
<g id="a_edge29_Node000002_Node000085"><a xlink:title=" ">
<path fill="none" stroke="#63b8ff" d="M503.32,-1003.41C513.4,-927.24 542.88,-719.02 584.5,-549.12 591.16,-521.96 583.47,-508.65 603.5,-489.12 611.86,-480.98 622.51,-475.26 633.62,-471.26"/>
<polygon fill="#63b8ff" stroke="#63b8ff" points="499.89,-1002.61 502.06,-1012.98 506.83,-1003.52 499.89,-1002.61"/>
</a>
</g>
</g>
<!-- Node86 -->
<g id="Node000086" class="node">
<title>Node86</title>
<g id="a_Node000086"><a xlink:href="class_c_p_s_1_1_s_p_1_1_ph1_1_1_controlled_voltage_source.html" target="_top" xlink:title="Ideal Voltage source model.">
<polygon fill="white" stroke="#666666" points="762.38,-425.38 633.88,-425.38 633.88,-388.88 762.38,-388.88 762.38,-425.38"/>
<text text-anchor="start" x="641.88" y="-411.88" font-family="Helvetica,sans-Serif" font-size="10.00">CPS::SP::Ph1::Controlled</text>
<text text-anchor="middle" x="698.12" y="-397.62" font-family="Helvetica,sans-Serif" font-size="10.00">VoltageSource</text>
</a>
</g>
</g>
<!-- Node2&#45;&gt;Node86 -->
<g id="edge30_Node000002_Node000086" class="edge">
<title>Node2&#45;&gt;Node86</title>
<g id="a_edge30_Node000002_Node000086"><a xlink:title=" ">
<path fill="none" stroke="#63b8ff" d="M500.65,-1002.96C505.42,-893.73 527.13,-520.82 603.5,-435.12 611.51,-426.13 622.29,-419.97 633.67,-415.77"/>
<polygon fill="#63b8ff" stroke="#63b8ff" points="497.16,-1002.73 500.24,-1012.87 504.15,-1003.02 497.16,-1002.73"/>
</a>
</g>
</g>
<!-- Node87 -->
<g id="Node000087" class="node">
<title>Node87</title>
<g id="a_Node000087"><a xlink:href="class_c_p_s_1_1_s_p_1_1_ph1_1_1_inductor.html" target="_top" xlink:title="Static phasor inductor model.">
<polygon fill="white" stroke="#666666" points="758.62,-371.25 637.62,-371.25 637.62,-349 758.62,-349 758.62,-371.25"/>
<text text-anchor="middle" x="698.12" y="-357.75" font-family="Helvetica,sans-Serif" font-size="10.00">CPS::SP::Ph1::Inductor</text>
</a>
</g>
</g>
<!-- Node2&#45;&gt;Node87 -->
<g id="edge31_Node000002_Node000087" class="edge">
<title>Node2&#45;&gt;Node87</title>
<g id="a_edge31_Node000002_Node000087"><a xlink:title=" ">
<path fill="none" stroke="#63b8ff" d="M499.73,-1003.23C501.3,-887.15 513.21,-468.39 603.5,-380.12 612.65,-371.18 624.77,-365.8 637.24,-362.66"/>
<polygon fill="#63b8ff" stroke="#63b8ff" points="496.24,-1003.13 499.62,-1013.17 503.24,-1003.21 496.24,-1003.13"/>
</a>
</g>
</g>
<!-- Node88 -->
<g id="Node000088" class="node">
<title>Node88</title>
<g id="a_Node000088"><a xlink:href="class_c_p_s_1_1_s_p_1_1_ph1_1_1_resistor.html" target="_top" xlink:title="Static phasor resistor model.">
<polygon fill="white" stroke="#666666" points="757.12,-331.25 639.12,-331.25 639.12,-309 757.12,-309 757.12,-331.25"/>
<text text-anchor="middle" x="698.12" y="-317.75" font-family="Helvetica,sans-Serif" font-size="10.00">CPS::SP::Ph1::Resistor</text>
</a>
</g>
</g>
<!-- Node2&#45;&gt;Node88 -->
<g id="edge32_Node000002_Node000088" class="edge">
<title>Node2&#45;&gt;Node88</title>
<g id="a_edge32_Node000002_Node000088"><a xlink:title=" ">
<path fill="none" stroke="#63b8ff" d="M501.67,-1003.17C508.68,-911.82 533.3,-629.01 584.5,-400.12 590.61,-372.83 582.79,-358.93 603.5,-340.12 613.22,-331.3 625.86,-326.01 638.69,-322.93"/>
<polygon fill="#63b8ff" stroke="#63b8ff" points="498.19,-1002.79 500.93,-1013.03 505.17,-1003.32 498.19,-1002.79"/>
</a>
</g>
</g>
<!-- Node89 -->
<g id="Node000089" class="node">
<title>Node89</title>
<g id="a_Node000089"><a xlink:href="class_c_p_s_1_1_s_p_1_1_ph1_1_1_switch.html" target="_top" xlink:title="Dynamic phasor switch.">
<polygon fill="white" stroke="#666666" points="753,-291.25 643.25,-291.25 643.25,-269 753,-269 753,-291.25"/>
<text text-anchor="middle" x="698.12" y="-277.75" font-family="Helvetica,sans-Serif" font-size="10.00">CPS::SP::Ph1::Switch</text>
</a>
</g>
</g>
<!-- Node2&#45;&gt;Node89 -->
<g id="edge33_Node000002_Node000089" class="edge">
<title>Node2&#45;&gt;Node89</title>
<g id="a_edge33_Node000002_Node000089"><a xlink:title=" ">
<path fill="none" stroke="#63b8ff" d="M502.69,-1002.96C512.59,-910.9 544.56,-625.57 584.5,-391.12 591.44,-350.4 574.35,-329.41 603.5,-300.12 613.94,-289.64 628.43,-284.03 642.9,-281.17"/>
<polygon fill="#63b8ff" stroke="#63b8ff" points="499.21,-1002.58 501.63,-1012.9 506.17,-1003.33 499.21,-1002.58"/>
</a>
</g>
</g>
<!-- Node90 -->
<g id="Node000090" class="node">
<title>Node90</title>
<g id="a_Node000090"><a xlink:href="class_c_p_s_1_1_s_p_1_1_ph1_1_1_voltage_source.html" target="_top" xlink:title="Ideal Voltage source model.">
<polygon fill="white" stroke="#666666" points="771.75,-1915.25 624.5,-1915.25 624.5,-1893 771.75,-1893 771.75,-1915.25"/>
<text text-anchor="middle" x="698.12" y="-1901.75" font-family="Helvetica,sans-Serif" font-size="10.00">CPS::SP::Ph1::VoltageSource</text>
</a>
</g>
</g>
<!-- Node2&#45;&gt;Node90 -->
<g id="edge34_Node000002_Node000090" class="edge">
<title>Node2&#45;&gt;Node90</title>
<g id="a_edge34_Node000002_Node000090"><a xlink:title=" ">
<path fill="none" stroke="#63b8ff" d="M501.87,-1062.89C510.19,-1164.83 540,-1509.26 584.5,-1791.12 591.08,-1832.8 573.8,-1854.16 603.5,-1884.12 609.35,-1890.03 616.49,-1894.39 624.18,-1897.58"/>
<polygon fill="#63b8ff" stroke="#63b8ff" points="505.38,-1062.87 501.08,-1053.18 498.4,-1063.43 505.38,-1062.87"/>
</a>
</g>
</g>
<!-- Node91 -->
<g id="Node000091" class="node">
<title>Node91</title>
<g id="a_Node000091"><a xlink:href="class_c_p_s_1_1_s_p_1_1_ph1_1_1var_res_switch.html" target="_top" xlink:title="Switch with variable resistance to avoid numerical oscillations, when an inductive current is suddenl...">
<polygon fill="white" stroke="#666666" points="768.75,-1875.25 627.5,-1875.25 627.5,-1853 768.75,-1853 768.75,-1875.25"/>
<text text-anchor="middle" x="698.12" y="-1861.75" font-family="Helvetica,sans-Serif" font-size="10.00">CPS::SP::Ph1::varResSwitch</text>
</a>
</g>
</g>
<!-- Node2&#45;&gt;Node91 -->
<g id="edge35_Node000002_Node000091" class="edge">
<title>Node2&#45;&gt;Node91</title>
<g id="a_edge35_Node000002_Node000091"><a xlink:title=" ">
<path fill="none" stroke="#63b8ff" d="M502.27,-1062.99C511.55,-1161.12 543.28,-1482.44 584.5,-1746.12 591.35,-1789.96 572.43,-1812.46 603.5,-1844.12 610.14,-1850.89 618.46,-1855.63 627.39,-1858.92"/>
<polygon fill="#63b8ff" stroke="#63b8ff" points="505.77,-1062.78 501.35,-1053.15 498.8,-1063.44 505.77,-1062.78"/>
</a>
</g>
</g>
<!-- Node92 -->
<g id="Node000092" class="node">
<title>Node92</title>
<g id="a_Node000092"><a xlink:href="class_c_p_s_1_1_s_p_1_1_ph3_1_1_capacitor.html" target="_top" xlink:title="Capacitor model.">
<polygon fill="white" stroke="#666666" points="760.12,-1835.25 636.12,-1835.25 636.12,-1813 760.12,-1813 760.12,-1835.25"/>
<text text-anchor="middle" x="698.12" y="-1821.75" font-family="Helvetica,sans-Serif" font-size="10.00">CPS::SP::Ph3::Capacitor</text>
</a>
</g>
</g>
<!-- Node2&#45;&gt;Node92 -->
<g id="edge36_Node000002_Node000092" class="edge">
<title>Node2&#45;&gt;Node92</title>
<g id="a_edge36_Node000002_Node000092"><a xlink:title=" ">
<path fill="none" stroke="#63b8ff" d="M501.79,-1063.03C509.49,-1159.88 536.71,-1473.52 584.5,-1729.12 590.82,-1762.93 578.73,-1780.27 603.5,-1804.12 612.36,-1812.66 623.92,-1817.93 635.88,-1821.11"/>
<polygon fill="#63b8ff" stroke="#63b8ff" points="505.3,-1063.01 501.03,-1053.32 498.32,-1063.56 505.3,-1063.01"/>
</a>
</g>
</g>
<!-- Node93 -->
<g id="Node000093" class="node">
<title>Node93</title>
<g id="a_Node000093"><a xlink:href="class_c_p_s_1_1_s_p_1_1_ph3_1_1_inductor.html" target="_top" xlink:title="Inductor.">
<polygon fill="white" stroke="#666666" points="758.62,-1795.25 637.62,-1795.25 637.62,-1773 758.62,-1773 758.62,-1795.25"/>
<text text-anchor="middle" x="698.12" y="-1781.75" font-family="Helvetica,sans-Serif" font-size="10.00">CPS::SP::Ph3::Inductor</text>
</a>
</g>
</g>
<!-- Node2&#45;&gt;Node93 -->
<g id="edge37_Node000002_Node000093" class="edge">
<title>Node2&#45;&gt;Node93</title>
<g id="a_edge37_Node000002_Node000093"><a xlink:title=" ">
<path fill="none" stroke="#63b8ff" d="M500.77,-1063.19C505.35,-1159.24 524.1,-1466.82 584.5,-1713.12 590.26,-1736.62 585.19,-1748.32 603.5,-1764.12 613.06,-1772.38 625.2,-1777.5 637.54,-1780.61"/>
<polygon fill="#63b8ff" stroke="#63b8ff" points="504.27,-1063.14 500.32,-1053.31 497.28,-1063.46 504.27,-1063.14"/>
</a>
</g>
</g>
<!-- Node94 -->
<g id="Node000094" class="node">
<title>Node94</title>
<g id="a_Node000094"><a xlink:href="class_c_p_s_1_1_s_p_1_1_ph3_1_1_resistor.html" target="_top" xlink:title=" ">
<polygon fill="white" stroke="#bfbfbf" points="757.12,-1755.25 639.12,-1755.25 639.12,-1733 757.12,-1733 757.12,-1755.25"/>
<text text-anchor="middle" x="698.12" y="-1741.75" font-family="Helvetica,sans-Serif" font-size="10.00">CPS::SP::Ph3::Resistor</text>
</a>
</g>
</g>
<!-- Node2&#45;&gt;Node94 -->
<g id="edge38_Node000002_Node000094" class="edge">
<title>Node2&#45;&gt;Node94</title>
<g id="a_edge38_Node000002_Node000094"><a xlink:title=" ">
<path fill="none" stroke="#63b8ff" d="M499.5,-1062.76C500.12,-1182.55 508.86,-1629.05 603.5,-1724.12 613,-1733.67 625.86,-1739.17 639,-1742.24"/>
<polygon fill="#63b8ff" stroke="#63b8ff" points="503,-1063.1 499.46,-1053.12 496,-1063.13 503,-1063.1"/>
</a>
</g>
</g>
<!-- Node95 -->
<g id="Node000095" class="node">
<title>Node95</title>
<g id="a_Node000095"><a xlink:href="class_c_p_s_1_1_s_p_1_1_ph3_1_1_voltage_source.html" target="_top" xlink:title="Ideal Voltage source model.">
<polygon fill="white" stroke="#666666" points="771.75,-1715.25 624.5,-1715.25 624.5,-1693 771.75,-1693 771.75,-1715.25"/>
<text text-anchor="middle" x="698.12" y="-1701.75" font-family="Helvetica,sans-Serif" font-size="10.00">CPS::SP::Ph3::VoltageSource</text>
</a>
</g>
</g>
<!-- Node2&#45;&gt;Node95 -->
<g id="edge39_Node000002_Node000095" class="edge">
<title>Node2&#45;&gt;Node95</title>
<g id="a_edge39_Node000002_Node000095"><a xlink:title=" ">
<path fill="none" stroke="#63b8ff" d="M502.48,-1062.89C511.41,-1149.12 540.08,-1406.32 584.5,-1616.12 591,-1646.82 580.63,-1662.63 603.5,-1684.12 609.43,-1689.7 616.53,-1693.88 624.12,-1696.98"/>
<polygon fill="#63b8ff" stroke="#63b8ff" points="505.99,-1062.75 501.48,-1053.16 499.02,-1063.47 505.99,-1062.75"/>
</a>
</g>
</g>
<!-- Node97 -->
<g id="Node000097" class="node">
<title>Node97</title>
<g id="a_Node000097"><a xlink:href="class_c_p_s_1_1_base_1_1_reduced_order_synchron_generator.html" target="_top" xlink:title=" ">
<polygon fill="white" stroke="orangered" points="787.5,-171.38 608.75,-171.38 608.75,-134.88 787.5,-134.88 787.5,-171.38"/>
<text text-anchor="start" x="616.75" y="-157.88" font-family="Helvetica,sans-Serif" font-size="10.00">CPS::Base::ReducedOrderSynchron</text>
<text text-anchor="middle" x="698.12" y="-143.62" font-family="Helvetica,sans-Serif" font-size="10.00">Generator&lt; Real &gt;</text>
</a>
</g>
</g>
<!-- Node96&#45;&gt;Node97 -->
<g id="edge41_Node000096_Node000097" class="edge">
<title>Node96&#45;&gt;Node97</title>
<g id="a_edge41_Node000096_Node000097"><a xlink:title=" ">
<path fill="none" stroke="#63b8ff" d="M578.36,-166.95C588.2,-165.8 598.32,-164.62 608.3,-163.46"/>
<polygon fill="#63b8ff" stroke="#63b8ff" points="577.99,-163.47 568.46,-168.1 578.8,-170.42 577.99,-163.47"/>
</a>
</g>
</g>
<!-- Node105 -->
<g id="Node000105" class="node">
<title>Node105</title>
<g id="a_Node000105"><a xlink:href="class_c_p_s_1_1_composite_power_comp.html" target="_top" xlink:title=" ">
<polygon fill="white" stroke="orangered" points="771,-116.38 625.25,-116.38 625.25,-79.88 771,-79.88 771,-116.38"/>
<text text-anchor="start" x="633.25" y="-102.88" font-family="Helvetica,sans-Serif" font-size="10.00">CPS::CompositePowerComp</text>
<text text-anchor="middle" x="698.12" y="-88.62" font-family="Helvetica,sans-Serif" font-size="10.00">&lt; Real &gt;</text>
</a>
</g>
</g>
<!-- Node96&#45;&gt;Node105 -->
<g id="edge42_Node000096_Node000105" class="edge">
<title>Node96&#45;&gt;Node105</title>
<g id="a_edge42_Node000096_Node000105"><a xlink:title=" ">
<path fill="none" stroke="#63b8ff" d="M544.72,-152.47C562.73,-143.56 583.82,-133.74 603.5,-126.12 611.96,-122.85 620.98,-119.72 629.95,-116.82"/>
<polygon fill="#63b8ff" stroke="#63b8ff" points="543.23,-149.3 535.86,-156.91 546.37,-155.56 543.23,-149.3"/>
</a>
</g>
</g>
<!-- Node118 -->
<g id="Node000118" class="node">
<title>Node118</title>
<g id="a_Node000118"><a xlink:href="class_c_p_s_1_1_e_m_t_1_1_ph1_1_1_capacitor.html" target="_top" xlink:title="Capacitor model.">
<polygon fill="white" stroke="#666666" points="764.25,-62.25 632,-62.25 632,-40 764.25,-40 764.25,-62.25"/>
<text text-anchor="middle" x="698.12" y="-48.75" font-family="Helvetica,sans-Serif" font-size="10.00">CPS::EMT::Ph1::Capacitor</text>
</a>
</g>
</g>
<!-- Node96&#45;&gt;Node118 -->
<g id="edge43_Node000096_Node000118" class="edge">
<title>Node96&#45;&gt;Node118</title>
<g id="a_edge43_Node000096_Node000118"><a xlink:title=" ">
<path fill="none" stroke="#63b8ff" d="M519.18,-148.66C538.04,-124.44 568.72,-90.14 603.5,-71.12 612.25,-66.34 622.04,-62.7 631.91,-59.93"/>
<polygon fill="#63b8ff" stroke="#63b8ff" points="516.49,-146.42 513.23,-156.5 522.06,-150.65 516.49,-146.42"/>
</a>
</g>
</g>
<!-- Node119 -->
<g id="Node000119" class="node">
<title>Node119</title>
<g id="a_Node000119"><a xlink:href="class_c_p_s_1_1_e_m_t_1_1_ph1_1_1_current_source.html" target="_top" xlink:title="Ideal current source model.">
<polygon fill="white" stroke="#666666" points="776.25,-22.25 620,-22.25 620,0 776.25,0 776.25,-22.25"/>
<text text-anchor="middle" x="698.12" y="-8.75" font-family="Helvetica,sans-Serif" font-size="10.00">CPS::EMT::Ph1::CurrentSource</text>
</a>
</g>
</g>
<!-- Node96&#45;&gt;Node119 -->
<g id="edge44_Node000096_Node000119" class="edge">
<title>Node96&#45;&gt;Node119</title>
<g id="a_edge44_Node000096_Node000119"><a xlink:title=" ">
<path fill="none" stroke="#63b8ff" d="M512.01,-147.58C528.16,-114.21 559.53,-59.9 603.5,-31.12 608.65,-27.76 614.26,-24.95 620.1,-22.6"/>
<polygon fill="#63b8ff" stroke="#63b8ff" points="509.02,-145.71 507.94,-156.25 515.36,-148.68 509.02,-145.71"/>
</a>
</g>
</g>
<!-- Node120 -->
<g id="Node000120" class="node">
<title>Node120</title>
<g id="a_Node000120"><a xlink:href="class_c_p_s_1_1_e_m_t_1_1_ph1_1_1_inductor.html" target="_top" xlink:title="Inductor.">
<polygon fill="white" stroke="#666666" points="762.75,-251.25 633.5,-251.25 633.5,-229 762.75,-229 762.75,-251.25"/>
<text text-anchor="middle" x="698.12" y="-237.75" font-family="Helvetica,sans-Serif" font-size="10.00">CPS::EMT::Ph1::Inductor</text>
</a>
</g>
</g>
<!-- Node96&#45;&gt;Node120 -->
<g id="edge45_Node000096_Node000120" class="edge">
<title>Node96&#45;&gt;Node120</title>
<g id="a_edge45_Node000096_Node000120"><a xlink:title=" ">
<path fill="none" stroke="#63b8ff" d="M549.09,-199.37C566.08,-206.72 585.38,-214.41 603.5,-220.12 613.49,-223.27 624.23,-226.08 634.75,-228.53"/>
<polygon fill="#63b8ff" stroke="#63b8ff" points="550.79,-196.29 540.22,-195.47 547.96,-202.7 550.79,-196.29"/>
</a>
</g>
</g>
<!-- Node121 -->
<g id="Node000121" class="node">
<title>Node121</title>
<g id="a_Node000121"><a xlink:href="class_c_p_s_1_1_e_m_t_1_1_ph1_1_1_resistor.html" target="_top" xlink:title="EMT Resistor.">
<polygon fill="white" stroke="#666666" points="761.25,-211.25 635,-211.25 635,-189 761.25,-189 761.25,-211.25"/>
<text text-anchor="middle" x="698.12" y="-197.75" font-family="Helvetica,sans-Serif" font-size="10.00">CPS::EMT::Ph1::Resistor</text>
</a>
</g>
</g>
<!-- Node96&#45;&gt;Node121 -->
<g id="edge46_Node000096_Node000121" class="edge">
<title>Node96&#45;&gt;Node121</title>
<g id="a_edge46_Node000096_Node000121"><a xlink:title=" ">
<path fill="none" stroke="#63b8ff" d="M578.17,-185.68C596.93,-187.96 616.7,-190.36 634.62,-192.53"/>
<polygon fill="#63b8ff" stroke="#63b8ff" points="578.81,-182.23 568.46,-184.5 577.97,-189.18 578.81,-182.23"/>
</a>
</g>
</g>
<!-- Node162&#45;&gt;Node2 -->
<g id="edge49_Node000162_Node000002" class="edge">
<title>Node162&#45;&gt;Node2</title>
<g id="a_edge49_Node000162_Node000002"><a xlink:title=" ">
<path fill="none" stroke="orange" stroke-dasharray="5,2" d="M252.5,-443.99C297.16,-551.38 453,-926.13 489.71,-1014.4"/>
<polygon fill="orange" stroke="orange" points="255.84,-442.91 248.77,-435.02 249.38,-445.6 255.84,-442.91"/>
</a>
</g>
<text text-anchor="middle" x="383.25" y="-820.34" font-family="Helvetica,sans-Serif" font-size="10.00" fill="grey"> &lt; Complex &gt;</text>
</g>
<!-- Node162&#45;&gt;Node96 -->
<g id="edge50_Node000162_Node000096" class="edge">
<title>Node162&#45;&gt;Node96</title>
<g id="a_edge50_Node000162_Node000096"><a xlink:title=" ">
<path fill="none" stroke="orange" stroke-dasharray="5,2" d="M318.33,-397.84C324.54,-395.07 330.53,-391.85 336,-388.12 412.5,-336.05 468.04,-235.95 488.68,-194.65"/>
<polygon fill="orange" stroke="orange" points="317.08,-394.57 309.1,-401.55 319.68,-401.07 317.08,-394.57"/>
</a>
</g>
<text text-anchor="middle" x="383.25" y="-375.48" font-family="Helvetica,sans-Serif" font-size="10.00" fill="grey"> &lt; Real &gt;</text>
</g>
</g>
</svg>
