<?xml version="1.0" encoding="UTF-8" standalone="no"?>
<!DOCTYPE svg PUBLIC "-//W3C//DTD SVG 1.1//EN"
 "http://www.w3.org/Graphics/SVG/1.1/DTD/svg11.dtd">
<!-- Generated by graphviz version 2.44.0 (0)
 -->
<!-- Title: CPS::EMT::Ph3::ReducedOrderSynchronGeneratorVBR Pages: 1 -->
<!--zoomable 127 -->
<svg id="main" version="1.1" xmlns="http://www.w3.org/2000/svg" xmlns:xlink="http://www.w3.org/1999/xlink" xml:space="preserve" onload="init(evt)">
<style type="text/css"><![CDATA[
.edge:hover path { stroke: red; }
.edge:hover polygon { stroke: red; fill: red; }
]]></style>
<script type="text/javascript"><![CDATA[
var edges = document.getElementsByTagName('g');
if (edges && edges.length) {
  for (var i=0;i<edges.length;i++) {
    if (edges[i].id.substr(0,4)=='edge') {
      edges[i].setAttribute('class','edge');
    }
  }
}
]]></script>
        <defs>
                <circle id="rim" cx="0" cy="0" r="7"/>
                <circle id="rim2" cx="0" cy="0" r="3.5"/>
                <g id="zoomPlus">
                        <use xlink:href="#rim" fill="#404040">
                                <set attributeName="fill" to="#808080" begin="zoomplus.mouseover" end="zoomplus.mouseout"/>
                        </use>
                        <path d="M-4,0h8M0,-4v8" fill="none" stroke="white" stroke-width="1.5" pointer-events="none"/>
                </g>
                <g id="zoomMin">
                        <use xlink:href="#rim" fill="#404040">
                                <set attributeName="fill" to="#808080" begin="zoomminus.mouseover" end="zoomminus.mouseout"/>
                        </use>
                        <path d="M-4,0h8" fill="none" stroke="white" stroke-width="1.5" pointer-events="none"/>
                </g>
                <g id="dirArrow">
                        <path fill="none" stroke="white" stroke-width="1.5" d="M0,-3.0v7 M-2.5,-0.5L0,-3.0L2.5,-0.5"/>
                </g>
               <g id="resetDef">
                       <use xlink:href="#rim2" fill="#404040">
                               <set attributeName="fill" to="#808080" begin="reset.mouseover" end="reset.mouseout"/>
                       </use>
               </g>
        </defs>

<script type="text/javascript">
var viewWidth = 1291;
var viewHeight = 127;
var sectionId = 'dynsection-1';
</script>
<script xlink:href="svgpan.js"/>
<svg id="graph" class="graph">
<g id="viewport">
<title>CPS::EMT::Ph3::ReducedOrderSynchronGeneratorVBR</title>
<!-- Node1 -->
<g id="node1" class="node">
<title>Node1</title>
<g id="a_node1"><a xlink:title="Base class for EMT VBR simplefied synchronous generator models.">
<polygon fill="#bfbfbf" stroke="black" points="1128,-7 1128,-37 1283,-37 1283,-7 1128,-7"/>
<text text-anchor="start" x="1136" y="-25" font-family="Helvetica" font-size="10.00">CPS::EMT::Ph3::ReducedOrder</text>
<text text-anchor="middle" x="1205.5" y="-14" font-family="Helvetica" font-size="10.00">SynchronGeneratorVBR</text>
</a>
</g>
</g>
<!-- Node2 -->
<g id="node2" class="node">
<title>Node2</title>
<g id="a_node2"><a xlink:href="class_c_p_s_1_1_base_1_1_reduced_order_synchron_generator.html" target="_top" xlink:title=" ">
<polygon fill="none" stroke="black" points="915,-39 915,-69 1091,-69 1091,-39 915,-39"/>
<text text-anchor="start" x="923" y="-57" font-family="Helvetica" font-size="10.00">CPS::Base::ReducedOrderSynchron</text>
<text text-anchor="middle" x="1003" y="-46" font-family="Helvetica" font-size="10.00">Generator&lt; Real &gt;</text>
</a>
</g>
</g>
<!-- Node2&#45;&gt;Node1 -->
<g id="edge1" class="edge">
<title>Node2&#45;&gt;Node1</title>
<path fill="none" stroke="midnightblue" d="M1101.17,-38.49C1110.14,-37.06 1119.15,-35.62 1127.9,-34.23"/>
<polygon fill="midnightblue" stroke="midnightblue" points="1100.39,-35.07 1091.07,-40.1 1101.49,-41.98 1100.39,-35.07"/>
</g>
<!-- Node3 -->
<g id="node3" class="node">
<title>Node3</title>
<g id="a_node3"><a xlink:href="class_c_p_s_1_1_sim_power_comp.html" target="_top" xlink:title=" ">
<polygon fill="none" stroke="black" points="690,-88 690,-118 810,-118 810,-88 690,-88"/>
<text text-anchor="start" x="698" y="-106" font-family="Helvetica" font-size="10.00">CPS::SimPowerComp&lt;</text>
<text text-anchor="middle" x="750" y="-95" font-family="Helvetica" font-size="10.00"> Real &gt;</text>
</a>
</g>
</g>
<!-- Node3&#45;&gt;Node2 -->
<g id="edge2" class="edge">
<title>Node3&#45;&gt;Node2</title>
<path fill="none" stroke="midnightblue" d="M820.06,-89.52C852.64,-83.16 891.64,-75.55 925.15,-69"/>
<polygon fill="midnightblue" stroke="midnightblue" points="819.31,-86.1 810.17,-91.45 820.65,-92.97 819.31,-86.1"/>
</g>
<!-- Node4 -->
<g id="node4" class="node">
<title>Node4</title>
<g id="a_node4"><a xlink:href="class_c_p_s_1_1_topological_power_comp.html" target="_top" xlink:title=" ">
<polygon fill="none" stroke="black" points="282,-65.5 282,-84.5 428,-84.5 428,-65.5 282,-65.5"/>
<text text-anchor="middle" x="355" y="-72.5" font-family="Helvetica" font-size="10.00">CPS::TopologicalPowerComp</text>
</a>
</g>
</g>
<!-- Node4&#45;&gt;Node3 -->
<g id="edge3" class="edge">
<title>Node4&#45;&gt;Node3</title>
<path fill="none" stroke="midnightblue" d="M399.98,-87.16C419.7,-92.07 443.35,-97.23 465,-100 542.28,-109.88 632.35,-108.71 689.98,-106.36"/>
<polygon fill="midnightblue" stroke="midnightblue" points="400.61,-83.71 390.05,-84.63 398.88,-90.49 400.61,-83.71"/>
</g>
<!-- Node7 -->
<g id="node7" class="node">
<title>Node7</title>
<g id="a_node7"><a xlink:href="class_c_p_s_1_1_sim_power_comp.html" target="_top" xlink:title="Base class for all components that are transmitting power.">
<polygon fill="none" stroke="black" points="465,-60 465,-90 585,-90 585,-60 465,-60"/>
<text text-anchor="start" x="473" y="-78" font-family="Helvetica" font-size="10.00">CPS::SimPowerComp&lt;</text>
<text text-anchor="middle" x="525" y="-67" font-family="Helvetica" font-size="10.00"> VarType &gt;</text>
</a>
</g>
</g>
<!-- Node4&#45;&gt;Node7 -->
<g id="edge7" class="edge">
<title>Node4&#45;&gt;Node7</title>
<path fill="none" stroke="midnightblue" d="M438.34,-75C447.34,-75 456.36,-75 464.99,-75"/>
<polygon fill="midnightblue" stroke="midnightblue" points="438.22,-71.5 428.22,-75 438.22,-78.5 438.22,-71.5"/>
</g>
<!-- Node5 -->
<g id="node5" class="node">
<title>Node5</title>
<g id="a_node5"><a xlink:href="class_c_p_s_1_1_identified_object.html" target="_top" xlink:title=" ">
<polygon fill="none" stroke="black" points="133,-63.5 133,-82.5 245,-82.5 245,-63.5 133,-63.5"/>
<text text-anchor="middle" x="189" y="-70.5" font-family="Helvetica" font-size="10.00">CPS::IdentifiedObject</text>
</a>
</g>
</g>
<!-- Node5&#45;&gt;Node4 -->
<g id="edge4" class="edge">
<title>Node5&#45;&gt;Node4</title>
<path fill="none" stroke="midnightblue" d="M255.21,-73.8C263.98,-73.9 273.02,-74.01 281.89,-74.12"/>
<polygon fill="midnightblue" stroke="midnightblue" points="255.11,-70.29 245.07,-73.67 255.02,-77.29 255.11,-70.29"/>
</g>
<!-- Node6 -->
<g id="node6" class="node">
<title>Node6</title>
<g id="a_node6"><a xlink:href="class_c_p_s_1_1_attribute_list.html" target="_top" xlink:title="Base class of objects having attributes to access member variables.">
<polygon fill="none" stroke="black" points="0,-36.5 0,-55.5 96,-55.5 96,-36.5 0,-36.5"/>
<text text-anchor="middle" x="48" y="-43.5" font-family="Helvetica" font-size="10.00">CPS::AttributeList</text>
</a>
</g>
</g>
<!-- Node6&#45;&gt;Node5 -->
<g id="edge5" class="edge">
<title>Node6&#45;&gt;Node5</title>
<path fill="none" stroke="midnightblue" d="M105.99,-57.07C116.98,-59.2 128.39,-61.42 139.09,-63.5"/>
<polygon fill="midnightblue" stroke="midnightblue" points="106.54,-53.61 96.06,-55.14 105.21,-60.48 106.54,-53.61"/>
</g>
<!-- Node8 -->
<g id="node8" class="node">
<title>Node8</title>
<g id="a_node8"><a xlink:href="class_c_p_s_1_1_m_n_a_interface.html" target="_top" xlink:title="Interface to be implemented by all models used by the MNA solver.">
<polygon fill="none" stroke="black" points="473,-21.5 473,-40.5 577,-40.5 577,-21.5 473,-21.5"/>
<text text-anchor="middle" x="525" y="-28.5" font-family="Helvetica" font-size="10.00">CPS::MNAInterface</text>
</a>
</g>
</g>
<!-- Node6&#45;&gt;Node8 -->
<g id="edge9" class="edge">
<title>Node6&#45;&gt;Node8</title>
<path fill="none" stroke="midnightblue" d="M106.41,-44.19C199.95,-41.23 383.75,-35.43 472.98,-32.61"/>
<polygon fill="midnightblue" stroke="midnightblue" points="106.17,-40.69 96.28,-44.51 106.39,-47.69 106.17,-40.69"/>
</g>
<!-- Node7&#45;&gt;Node3 -->
<g id="edge6" class="edge">
<title>Node7&#45;&gt;Node3</title>
<path fill="none" stroke="orange" stroke-dasharray="5,2" d="M595.26,-83.7C625.61,-87.51 660.85,-91.93 689.94,-95.58"/>
<polygon fill="orange" stroke="orange" points="595.53,-80.2 585.17,-82.43 594.66,-87.15 595.53,-80.2"/>
<text text-anchor="middle" x="623.5" y="-92" font-family="Helvetica" font-size="10.00"> &lt; Real &gt;</text>
</g>
<!-- Node9 -->
<g id="node9" class="node">
<title>Node9</title>
<g id="a_node9"><a xlink:href="class_c_p_s_1_1_base_1_1_reduced_order_synchron_generator.html" target="_top" xlink:title=" ">
<polygon fill="none" stroke="black" points="662,-39 662,-69 838,-69 838,-39 662,-39"/>
<text text-anchor="start" x="670" y="-57" font-family="Helvetica" font-size="10.00">CPS::Base::ReducedOrderSynchron</text>
<text text-anchor="middle" x="750" y="-46" font-family="Helvetica" font-size="10.00">Generator&lt; VarType &gt;</text>
</a>
</g>
</g>
<!-- Node7&#45;&gt;Node9 -->
<g id="edge11" class="edge">
<title>Node7&#45;&gt;Node9</title>
<path fill="none" stroke="midnightblue" d="M595.3,-68.47C616.35,-66.49 639.76,-64.29 661.83,-62.21"/>
<polygon fill="midnightblue" stroke="midnightblue" points="594.8,-65.01 585.17,-69.43 595.46,-71.97 594.8,-65.01"/>
</g>
<!-- Node8&#45;&gt;Node2 -->
<g id="edge8" class="edge">
<title>Node8&#45;&gt;Node2</title>
<path fill="none" stroke="midnightblue" d="M587.16,-29.91C610.57,-29.54 637.52,-29.18 662,-29 740.22,-28.42 760,-23.09 838,-29 864.71,-31.02 893.66,-34.88 919.69,-38.96"/>
<polygon fill="midnightblue" stroke="midnightblue" points="586.96,-26.41 577.02,-30.07 587.07,-33.41 586.96,-26.41"/>
</g>
<!-- Node8&#45;&gt;Node9 -->
<g id="edge12" class="edge">
<title>Node8&#45;&gt;Node9</title>
<path fill="none" stroke="midnightblue" d="M587.13,-37.3C610.16,-39.68 636.83,-42.43 661.79,-45.01"/>
<polygon fill="midnightblue" stroke="midnightblue" points="587.47,-33.82 577.16,-36.28 586.75,-40.78 587.47,-33.82"/>
</g>
<!-- Node9&#45;&gt;Node2 -->
<g id="edge10" class="edge">
<title>Node9&#45;&gt;Node2</title>
<path fill="none" stroke="orange" stroke-dasharray="5,2" d="M848.36,-54C870.2,-54 893.24,-54 914.65,-54"/>
<polygon fill="orange" stroke="orange" points="848.08,-50.5 838.08,-54 848.08,-57.5 848.08,-50.5"/>
<text text-anchor="middle" x="876.5" y="-57" font-family="Helvetica" font-size="10.00"> &lt; Real &gt;</text>
</g>
<!-- Node10 -->
<g id="node10" class="node">
<title>Node10</title>
<g id="a_node10"><a xlink:href="class_c_p_s_1_1_m_n_a_variable_comp_interface.html" target="_top" xlink:title="MNA interface to be used by elements that require recomputing of the system matrix.">
<polygon fill="none" stroke="black" points="921,-0.5 921,-19.5 1085,-19.5 1085,-0.5 921,-0.5"/>
<text text-anchor="middle" x="1003" y="-7.5" font-family="Helvetica" font-size="10.00">CPS::MNAVariableCompInterface</text>
</a>
</g>
</g>
<!-- Node10&#45;&gt;Node1 -->
<g id="edge13" class="edge">
<title>Node10&#45;&gt;Node1</title>
<path fill="none" stroke="midnightblue" d="M1095.25,-15.46C1106.2,-16.12 1117.28,-16.78 1127.99,-17.42"/>
<polygon fill="midnightblue" stroke="midnightblue" points="1095.45,-11.97 1085.26,-14.86 1095.03,-18.95 1095.45,-11.97"/>
</g>
</g>
</svg>
        <g id="navigator" transform="translate(0 0)" fill="#404254">
                <rect fill="#f2f5e9" fill-opacity="0.5" stroke="#606060" stroke-width=".5" x="0" y="0" width="60" height="60"/>
                <use id="zoomplus" xlink:href="#zoomPlus" x="17" y="9" onmousedown="handleZoom(evt,'in')"/>
                <use id="zoomminus" xlink:href="#zoomMin" x="42" y="9" onmousedown="handleZoom(evt,'out')"/>
                <use id="reset" xlink:href="#resetDef" x="30" y="36" onmousedown="handleReset()"/>
                <g id="arrowUp" xlink:href="#dirArrow" transform="translate(30 24)" onmousedown="handlePan(0,-1)">
                  <use xlink:href="#rim" fill="#404040">
                        <set attributeName="fill" to="#808080" begin="arrowUp.mouseover" end="arrowUp.mouseout"/>
                  </use>
                  <path fill="none" stroke="white" stroke-width="1.5" d="M0,-3.0v7 M-2.5,-0.5L0,-3.0L2.5,-0.5"/>
                </g>
                <g id="arrowRight" xlink:href="#dirArrow" transform="rotate(90) translate(36 -43)" onmousedown="handlePan(1,0)">
                  <use xlink:href="#rim" fill="#404040">
                        <set attributeName="fill" to="#808080" begin="arrowRight.mouseover" end="arrowRight.mouseout"/>
                  </use>
                  <path fill="none" stroke="white" stroke-width="1.5" d="M0,-3.0v7 M-2.5,-0.5L0,-3.0L2.5,-0.5"/>
                </g>
                <g id="arrowDown" xlink:href="#dirArrow" transform="rotate(180) translate(-30 -48)" onmousedown="handlePan(0,1)">
                  <use xlink:href="#rim" fill="#404040">
                        <set attributeName="fill" to="#808080" begin="arrowDown.mouseover" end="arrowDown.mouseout"/>
                  </use>
                  <path fill="none" stroke="white" stroke-width="1.5" d="M0,-3.0v7 M-2.5,-0.5L0,-3.0L2.5,-0.5"/>
                </g>
                <g id="arrowLeft" xlink:href="#dirArrow" transform="rotate(270) translate(-36 17)" onmousedown="handlePan(-1,0)">
                  <use xlink:href="#rim" fill="#404040">
                        <set attributeName="fill" to="#808080" begin="arrowLeft.mouseover" end="arrowLeft.mouseout"/>
                  </use>
                  <path fill="none" stroke="white" stroke-width="1.5" d="M0,-3.0v7 M-2.5,-0.5L0,-3.0L2.5,-0.5"/>
                </g>
        </g>
        <svg viewBox="0 0 15 15" width="100%" height="30px" preserveAspectRatio="xMaxYMin meet">
         <g id="arrow_out" transform="scale(0.3 0.3)">
          <a xlink:href="class_c_p_s_1_1_e_m_t_1_1_ph3_1_1_reduced_order_synchron_generator_v_b_r__coll__graph_org.svg" target="_base">
           <rect id="button" ry="5" rx="5" y="6" x="6" height="38" width="38"
                fill="#f2f5e9" fill-opacity="0.5" stroke="#606060" stroke-width="1.0"/>
           <path id="arrow"
             d="M 11.500037,31.436501 C 11.940474,20.09759 22.043105,11.32322 32.158766,21.979434 L 37.068811,17.246167 C 37.068811,17.246167 37.088388,32 37.088388,32 L 22.160133,31.978069 C 22.160133,31.978069 26.997745,27.140456 26.997745,27.140456 C 18.528582,18.264221 13.291696,25.230495 11.500037,31.436501 z"
             style="fill:#404040;"/>
          </a>
         </g>
        </svg>
</svg>
