<?xml version="1.0" encoding="UTF-8" standalone="no"?>
<!DOCTYPE svg PUBLIC "-//W3C//DTD SVG 1.1//EN"
 "http://www.w3.org/Graphics/SVG/1.1/DTD/svg11.dtd">
<!-- Generated by graphviz version 2.50.0 (0)
 -->
<!-- Title: CPS::SimPowerComp&lt; VarType &gt; Pages: 1 -->
<svg width="1193pt" height="229pt"
 viewBox="0.00 0.00 1193.00 229.17" xmlns="http://www.w3.org/2000/svg" xmlns:xlink="http://www.w3.org/1999/xlink">
<g id="graph0" class="graph" transform="scale(1 1) rotate(0) translate(4 225.17)">
<title>CPS::SimPowerComp&lt; VarType &gt;</title>
<!-- Node1 -->
<g id="node1" class="node">
<title>Node1</title>
<g id="a_node1"><a xlink:title="Base class for all components that are transmitting power.">
<polygon fill="#bfbfbf" stroke="black" points="1066,-80.17 1066,-110.17 1185,-110.17 1185,-80.17 1066,-80.17"/>
<text text-anchor="start" x="1074" y="-98.17" font-family="Helvetica,sans-Serif" font-size="10.00">CPS::SimPowerComp&lt;</text>
<text text-anchor="middle" x="1125.5" y="-87.17" font-family="Helvetica,sans-Serif" font-size="10.00"> VarType &gt;</text>
</a>
</g>
</g>
<!-- Node2 -->
<g id="node2" class="node">
<title>Node2</title>
<g id="a_node2"><a xlink:href="class_c_p_s_1_1_topological_power_comp.html" target="_top" xlink:title=" ">
<polygon fill="none" stroke="black" points="881,-111.67 881,-130.67 1029,-130.67 1029,-111.67 881,-111.67"/>
<text text-anchor="middle" x="955" y="-118.67" font-family="Helvetica,sans-Serif" font-size="10.00">CPS::TopologicalPowerComp</text>
</a>
</g>
</g>
<!-- Node2&#45;&gt;Node1 -->
<g id="edge1" class="edge">
<title>Node2&#45;&gt;Node1</title>
<path fill="none" stroke="midnightblue" d="M1027.84,-110.08C1040.51,-108.13 1053.55,-106.11 1065.81,-104.22"/>
<polygon fill="midnightblue" stroke="midnightblue" points="1027.14,-106.65 1017.79,-111.63 1028.2,-113.57 1027.14,-106.65"/>
</g>
<!-- Node3 -->
<g id="node3" class="node">
<title>Node3</title>
<g id="a_node3"><a xlink:href="class_c_p_s_1_1_identified_object.html" target="_top" xlink:title=" ">
<polygon fill="none" stroke="black" points="664,-112.67 664,-131.67 780,-131.67 780,-112.67 664,-112.67"/>
<text text-anchor="middle" x="722" y="-119.67" font-family="Helvetica,sans-Serif" font-size="10.00">CPS::IdentifiedObject</text>
</a>
</g>
</g>
<!-- Node3&#45;&gt;Node2 -->
<g id="edge2" class="edge">
<title>Node3&#45;&gt;Node2</title>
<path fill="none" stroke="midnightblue" d="M790.34,-121.87C818.77,-121.75 851.94,-121.61 880.96,-121.48"/>
<polygon fill="midnightblue" stroke="midnightblue" points="790.09,-118.38 780.1,-121.92 790.12,-125.38 790.09,-118.38"/>
</g>
<!-- Node4 -->
<g id="node4" class="node">
<title>Node4</title>
<g id="a_node4"><a xlink:href="class_c_p_s_1_1_attribute.html" target="_top" xlink:title=" ">
<polygon fill="none" stroke="black" points="456,-125.67 456,-144.67 583,-144.67 583,-125.67 456,-125.67"/>
<text text-anchor="middle" x="519.5" y="-132.67" font-family="Helvetica,sans-Serif" font-size="10.00">CPS::Attribute&lt; String &gt;</text>
</a>
</g>
</g>
<!-- Node4&#45;&gt;Node3 -->
<g id="edge3" class="edge">
<title>Node4&#45;&gt;Node3</title>
<path fill="none" stroke="#9a32cd" stroke-dasharray="5,2" d="M593.29,-130.45C616.56,-128.94 641.98,-127.29 663.97,-125.86"/>
<polygon fill="#9a32cd" stroke="#9a32cd" points="592.87,-126.97 583.11,-131.11 593.32,-133.95 592.87,-126.97"/>
<text text-anchor="middle" x="626" y="-143.17" font-family="Helvetica,sans-Serif" font-size="10.00"> mName</text>
<text text-anchor="middle" x="626" y="-132.17" font-family="Helvetica,sans-Serif" font-size="10.00">mUID</text>
</g>
<!-- Node5 -->
<g id="node5" class="node">
<title>Node5</title>
<g id="a_node5"><a xlink:href="class_c_p_s_1_1_attribute_base.html" target="_top" xlink:title=" ">
<polygon fill="none" stroke="black" points="5.5,-121.67 5.5,-140.67 110.5,-140.67 110.5,-121.67 5.5,-121.67"/>
<text text-anchor="middle" x="58" y="-128.67" font-family="Helvetica,sans-Serif" font-size="10.00">CPS::AttributeBase</text>
</a>
</g>
</g>
<!-- Node5&#45;&gt;Node4 -->
<g id="edge4" class="edge">
<title>Node5&#45;&gt;Node4</title>
<path fill="none" stroke="midnightblue" d="M120.94,-135.59C125.36,-135.82 129.75,-136.01 134,-136.17 266.8,-140.96 300.12,-138.72 433,-137.17 440.42,-137.08 448.21,-136.95 455.93,-136.8"/>
<polygon fill="midnightblue" stroke="midnightblue" points="120.8,-132.08 110.62,-135.02 120.41,-139.07 120.8,-132.08"/>
</g>
<!-- Node7 -->
<g id="node7" class="node">
<title>Node7</title>
<g id="a_node7"><a xlink:href="class_c_p_s_1_1_attribute.html" target="_top" xlink:title=" ">
<polygon fill="none" stroke="black" points="172,-102.67 172,-121.67 276,-121.67 276,-102.67 172,-102.67"/>
<text text-anchor="middle" x="224" y="-109.67" font-family="Helvetica,sans-Serif" font-size="10.00">CPS::Attribute&lt; T &gt;</text>
</a>
</g>
</g>
<!-- Node5&#45;&gt;Node7 -->
<g id="edge7" class="edge">
<title>Node5&#45;&gt;Node7</title>
<path fill="none" stroke="midnightblue" d="M121.11,-123.97C137.81,-122.03 155.69,-119.96 171.73,-118.11"/>
<polygon fill="midnightblue" stroke="midnightblue" points="120.42,-120.53 110.89,-125.15 121.23,-127.48 120.42,-120.53"/>
</g>
<!-- Node9 -->
<g id="node9" class="node">
<title>Node9</title>
<g id="a_node9"><a xlink:href="class_c_p_s_1_1_attribute.html" target="_top" xlink:title=" ">
<polygon fill="none" stroke="black" points="451,-65.17 451,-95.17 588,-95.17 588,-65.17 451,-65.17"/>
<text text-anchor="start" x="459" y="-83.17" font-family="Helvetica,sans-Serif" font-size="10.00">CPS::Attribute&lt; MatrixVar</text>
<text text-anchor="middle" x="519.5" y="-72.17" font-family="Helvetica,sans-Serif" font-size="10.00">&lt; VarType &gt; &gt;</text>
</a>
</g>
</g>
<!-- Node5&#45;&gt;Node9 -->
<g id="edge10" class="edge">
<title>Node5&#45;&gt;Node9</title>
<path fill="none" stroke="midnightblue" d="M109.88,-116.86C112.05,-115.44 114.1,-113.88 116,-112.17 145.68,-85.37 119.41,-51.86 153,-30.17 261.68,40.02 426.42,-31.69 491.08,-65.06"/>
<polygon fill="midnightblue" stroke="midnightblue" points="108.17,-113.8 101.07,-121.66 111.53,-119.94 108.17,-113.8"/>
</g>
<!-- Node6 -->
<g id="node6" class="node">
<title>Node6</title>
<g id="a_node6"><a xlink:title=" ">
<polygon fill="none" stroke="#bfbfbf" points="166,-179.67 166,-220.67 282,-220.67 282,-179.67 166,-179.67"/>
<text text-anchor="start" x="174" y="-208.67" font-family="Helvetica,sans-Serif" font-size="10.00">std::enable_shared</text>
<text text-anchor="start" x="174" y="-197.67" font-family="Helvetica,sans-Serif" font-size="10.00">_from_this&lt; Attribute</text>
<text text-anchor="middle" x="224" y="-186.67" font-family="Helvetica,sans-Serif" font-size="10.00">&lt; String &gt; &gt;</text>
</a>
</g>
</g>
<!-- Node6&#45;&gt;Node4 -->
<g id="edge5" class="edge">
<title>Node6&#45;&gt;Node4</title>
<path fill="none" stroke="midnightblue" d="M292.21,-191.83C333.24,-186 386.58,-177.12 433,-165.17 454.33,-159.67 477.9,-151.22 494.88,-144.68"/>
<polygon fill="midnightblue" stroke="midnightblue" points="291.47,-188.39 282.05,-193.24 292.44,-195.33 291.47,-188.39"/>
</g>
<!-- Node7&#45;&gt;Node4 -->
<g id="edge6" class="edge">
<title>Node7&#45;&gt;Node4</title>
<path fill="none" stroke="orange" stroke-dasharray="5,2" d="M286.54,-115.7C327.96,-118.23 383.8,-121.92 433,-126.17 440.44,-126.81 448.23,-127.54 455.95,-128.31"/>
<polygon fill="orange" stroke="orange" points="286.52,-112.19 276.33,-115.08 286.1,-119.18 286.52,-112.19"/>
<text text-anchor="middle" x="373" y="-129.17" font-family="Helvetica,sans-Serif" font-size="10.00"> &lt; String &gt;</text>
</g>
<!-- Node7&#45;&gt;Node9 -->
<g id="edge12" class="edge">
<title>Node7&#45;&gt;Node9</title>
<path fill="none" stroke="orange" stroke-dasharray="5,2" d="M286.22,-105.16C295.2,-104.14 304.34,-103.12 313,-102.17 359.01,-97.09 410.83,-91.54 450.92,-87.29"/>
<polygon fill="orange" stroke="orange" points="285.72,-101.69 276.18,-106.29 286.51,-108.65 285.72,-101.69"/>
<text text-anchor="middle" x="373" y="-105.17" font-family="Helvetica,sans-Serif" font-size="10.00"> &lt; MatrixVar&lt; VarType &gt; &gt;</text>
</g>
<!-- Node8 -->
<g id="node8" class="node">
<title>Node8</title>
<g id="a_node8"><a xlink:title=" ">
<polygon fill="none" stroke="#bfbfbf" points="0,-61.67 0,-102.67 116,-102.67 116,-61.67 0,-61.67"/>
<text text-anchor="start" x="8" y="-90.67" font-family="Helvetica,sans-Serif" font-size="10.00">std::enable_shared</text>
<text text-anchor="start" x="8" y="-79.67" font-family="Helvetica,sans-Serif" font-size="10.00">_from_this&lt; Attribute</text>
<text text-anchor="middle" x="58" y="-68.67" font-family="Helvetica,sans-Serif" font-size="10.00">&lt; T &gt; &gt;</text>
</a>
</g>
</g>
<!-- Node8&#45;&gt;Node7 -->
<g id="edge8" class="edge">
<title>Node8&#45;&gt;Node7</title>
<path fill="none" stroke="midnightblue" d="M126.27,-94.47C141.53,-97.26 157.5,-100.18 171.97,-102.83"/>
<polygon fill="midnightblue" stroke="midnightblue" points="126.83,-91.02 116.36,-92.66 125.57,-97.9 126.83,-91.02"/>
</g>
<!-- Node9&#45;&gt;Node1 -->
<g id="edge9" class="edge">
<title>Node9&#45;&gt;Node1</title>
<path fill="none" stroke="#9a32cd" stroke-dasharray="5,2" d="M598.09,-82.09C720.67,-85.14 956.41,-90.99 1065.92,-93.71"/>
<polygon fill="#9a32cd" stroke="#9a32cd" points="598.11,-78.59 588.03,-81.84 597.94,-85.59 598.11,-78.59"/>
<text text-anchor="middle" x="830.5" y="-103.17" font-family="Helvetica,sans-Serif" font-size="10.00"> mIntfCurrent</text>
<text text-anchor="middle" x="830.5" y="-92.17" font-family="Helvetica,sans-Serif" font-size="10.00">mIntfVoltage</text>
</g>
<!-- Node10 -->
<g id="node10" class="node">
<title>Node10</title>
<g id="a_node10"><a xlink:title=" ">
<polygon fill="none" stroke="#bfbfbf" points="153,-39.67 153,-80.67 295,-80.67 295,-39.67 153,-39.67"/>
<text text-anchor="start" x="161" y="-68.67" font-family="Helvetica,sans-Serif" font-size="10.00">std::enable_shared</text>
<text text-anchor="start" x="161" y="-57.67" font-family="Helvetica,sans-Serif" font-size="10.00">_from_this&lt; Attribute</text>
<text text-anchor="middle" x="224" y="-46.67" font-family="Helvetica,sans-Serif" font-size="10.00">&lt; MatrixVar&lt; VarType &gt; &gt; &gt;</text>
</a>
</g>
</g>
<!-- Node10&#45;&gt;Node9 -->
<g id="edge11" class="edge">
<title>Node10&#45;&gt;Node9</title>
<path fill="none" stroke="midnightblue" d="M305.46,-64.14C344.06,-66.21 390.95,-68.99 433,-72.17 438.8,-72.6 444.81,-73.09 450.85,-73.61"/>
<polygon fill="midnightblue" stroke="midnightblue" points="305.5,-60.63 295.32,-63.6 305.12,-67.62 305.5,-60.63"/>
</g>
</g>
</svg>
