<?xml version="1.0" encoding="UTF-8" standalone="no"?>
<!DOCTYPE svg PUBLIC "-//W3C//DTD SVG 1.1//EN"
 "http://www.w3.org/Graphics/SVG/1.1/DTD/svg11.dtd">
<!-- Generated by graphviz version 2.44.0 (0)
 -->
<!-- Title: CPS::SP::Ph1::NetworkInjection Pages: 1 -->
<!--zoomable 543 -->
<svg id="main" version="1.1" xmlns="http://www.w3.org/2000/svg" xmlns:xlink="http://www.w3.org/1999/xlink" xml:space="preserve" onload="init(evt)">
<style type="text/css"><![CDATA[
.edge:hover path { stroke: red; }
.edge:hover polygon { stroke: red; fill: red; }
]]></style>
<script type="text/javascript"><![CDATA[
var edges = document.getElementsByTagName('g');
if (edges && edges.length) {
  for (var i=0;i<edges.length;i++) {
    if (edges[i].id.substr(0,4)=='edge') {
      edges[i].setAttribute('class','edge');
    }
  }
}
]]></script>
        <defs>
                <circle id="rim" cx="0" cy="0" r="7"/>
                <circle id="rim2" cx="0" cy="0" r="3.5"/>
                <g id="zoomPlus">
                        <use xlink:href="#rim" fill="#404040">
                                <set attributeName="fill" to="#808080" begin="zoomplus.mouseover" end="zoomplus.mouseout"/>
                        </use>
                        <path d="M-4,0h8M0,-4v8" fill="none" stroke="white" stroke-width="1.5" pointer-events="none"/>
                </g>
                <g id="zoomMin">
                        <use xlink:href="#rim" fill="#404040">
                                <set attributeName="fill" to="#808080" begin="zoomminus.mouseover" end="zoomminus.mouseout"/>
                        </use>
                        <path d="M-4,0h8" fill="none" stroke="white" stroke-width="1.5" pointer-events="none"/>
                </g>
                <g id="dirArrow">
                        <path fill="none" stroke="white" stroke-width="1.5" d="M0,-3.0v7 M-2.5,-0.5L0,-3.0L2.5,-0.5"/>
                </g>
               <g id="resetDef">
                       <use xlink:href="#rim2" fill="#404040">
                               <set attributeName="fill" to="#808080" begin="reset.mouseover" end="reset.mouseout"/>
                       </use>
               </g>
        </defs>

<script type="text/javascript">
var viewWidth = 1799;
var viewHeight = 543;
var sectionId = 'dynsection-1';
</script>
<script xlink:href="svgpan.js"/>
<svg id="graph" class="graph">
<g id="viewport">
<title>CPS::SP::Ph1::NetworkInjection</title>
<!-- Node1 -->
<g id="node1" class="node">
<title>Node1</title>
<g id="a_node1"><a xlink:title="Network injection model.">
<polygon fill="#bfbfbf" stroke="black" points="1631,-166.77 1631,-185.77 1791,-185.77 1791,-166.77 1631,-166.77"/>
<text text-anchor="middle" x="1711" y="-173.77" font-family="Helvetica" font-size="10.00">CPS::SP::Ph1::NetworkInjection</text>
</a>
</g>
</g>
<!-- Node2 -->
<g id="node2" class="node">
<title>Node2</title>
<g id="a_node2"><a xlink:href="class_c_p_s_1_1_sim_power_comp.html" target="_top" xlink:title=" ">
<polygon fill="none" stroke="black" points="1447.5,-205.27 1447.5,-235.27 1567.5,-235.27 1567.5,-205.27 1447.5,-205.27"/>
<text text-anchor="start" x="1455.5" y="-223.27" font-family="Helvetica" font-size="10.00">CPS::SimPowerComp&lt;</text>
<text text-anchor="middle" x="1507.5" y="-212.27" font-family="Helvetica" font-size="10.00"> Complex &gt;</text>
</a>
</g>
</g>
<!-- Node2&#45;&gt;Node1 -->
<g id="edge1" class="edge">
<title>Node2&#45;&gt;Node1</title>
<path fill="none" stroke="midnightblue" d="M1577.41,-205.23C1606.85,-198.8 1640.33,-191.49 1666.29,-185.82"/>
<polygon fill="midnightblue" stroke="midnightblue" points="1576.62,-201.82 1567.6,-207.37 1578.11,-208.65 1576.62,-201.82"/>
</g>
<!-- Node3 -->
<g id="node3" class="node">
<title>Node3</title>
<g id="a_node3"><a xlink:href="class_c_p_s_1_1_topological_power_comp.html" target="_top" xlink:title=" ">
<polygon fill="none" stroke="black" points="877,-204.77 877,-223.77 1023,-223.77 1023,-204.77 877,-204.77"/>
<text text-anchor="middle" x="950" y="-211.77" font-family="Helvetica" font-size="10.00">CPS::TopologicalPowerComp</text>
</a>
</g>
</g>
<!-- Node3&#45;&gt;Node2 -->
<g id="edge2" class="edge">
<title>Node3&#45;&gt;Node2</title>
<path fill="none" stroke="midnightblue" d="M1033.06,-215.16C1146.27,-216.38 1347.65,-218.56 1447.29,-219.63"/>
<polygon fill="midnightblue" stroke="midnightblue" points="1033.09,-211.66 1023.05,-215.05 1033.01,-218.66 1033.09,-211.66"/>
</g>
<!-- Node11 -->
<g id="node11" class="node">
<title>Node11</title>
<g id="a_node11"><a xlink:href="class_c_p_s_1_1_sim_power_comp.html" target="_top" xlink:title="Base class for all components that are transmitting power.">
<polygon fill="none" stroke="black" points="1170,-243.27 1170,-273.27 1290,-273.27 1290,-243.27 1170,-243.27"/>
<text text-anchor="start" x="1178" y="-261.27" font-family="Helvetica" font-size="10.00">CPS::SimPowerComp&lt;</text>
<text text-anchor="middle" x="1230" y="-250.27" font-family="Helvetica" font-size="10.00"> VarType &gt;</text>
</a>
</g>
</g>
<!-- Node3&#45;&gt;Node11 -->
<g id="edge12" class="edge">
<title>Node3&#45;&gt;Node11</title>
<path fill="none" stroke="midnightblue" d="M1021.48,-225.43C1067.29,-232.68 1126.36,-242.03 1169.75,-248.9"/>
<polygon fill="midnightblue" stroke="midnightblue" points="1021.75,-221.93 1011.32,-223.82 1020.65,-228.84 1021.75,-221.93"/>
</g>
<!-- Node4 -->
<g id="node4" class="node">
<title>Node4</title>
<g id="a_node4"><a xlink:href="class_c_p_s_1_1_identified_object.html" target="_top" xlink:title=" ">
<polygon fill="none" stroke="black" points="671,-191.77 671,-210.77 783,-210.77 783,-191.77 671,-191.77"/>
<text text-anchor="middle" x="727" y="-198.77" font-family="Helvetica" font-size="10.00">CPS::IdentifiedObject</text>
</a>
</g>
</g>
<!-- Node4&#45;&gt;Node3 -->
<g id="edge3" class="edge">
<title>Node4&#45;&gt;Node3</title>
<path fill="none" stroke="midnightblue" d="M793.43,-205.12C819.71,-206.67 850.09,-208.46 877,-210.04"/>
<polygon fill="midnightblue" stroke="midnightblue" points="793.39,-201.61 783.2,-204.52 792.97,-208.6 793.39,-201.61"/>
</g>
<!-- Node5 -->
<g id="node5" class="node">
<title>Node5</title>
<g id="a_node5"><a xlink:href="class_c_p_s_1_1_attribute_list.html" target="_top" xlink:title="Base class of objects having attributes to access member variables.">
<polygon fill="none" stroke="black" points="455.5,-138.77 455.5,-157.77 551.5,-157.77 551.5,-138.77 455.5,-138.77"/>
<text text-anchor="middle" x="503.5" y="-145.77" font-family="Helvetica" font-size="10.00">CPS::AttributeList</text>
</a>
</g>
</g>
<!-- Node5&#45;&gt;Node4 -->
<g id="edge4" class="edge">
<title>Node5&#45;&gt;Node4</title>
<path fill="none" stroke="midnightblue" d="M554.13,-160.15C593.94,-169.67 649.1,-182.87 686.09,-191.72"/>
<polygon fill="midnightblue" stroke="midnightblue" points="554.9,-156.73 544.36,-157.81 553.27,-163.54 554.9,-156.73"/>
</g>
<!-- Node17 -->
<g id="node17" class="node">
<title>Node17</title>
<g id="a_node17"><a xlink:href="class_c_p_s_1_1_m_n_a_interface.html" target="_top" xlink:title="Interface to be implemented by all models used by the MNA solver.">
<polygon fill="none" stroke="black" points="675,-133.77 675,-152.77 779,-152.77 779,-133.77 675,-133.77"/>
<text text-anchor="middle" x="727" y="-140.77" font-family="Helvetica" font-size="10.00">CPS::MNAInterface</text>
</a>
</g>
</g>
<!-- Node5&#45;&gt;Node17 -->
<g id="edge21" class="edge">
<title>Node5&#45;&gt;Node17</title>
<path fill="none" stroke="midnightblue" d="M561.82,-146.98C596.82,-146.19 641.18,-145.19 674.97,-144.43"/>
<polygon fill="midnightblue" stroke="midnightblue" points="561.66,-143.48 551.75,-147.21 561.82,-150.48 561.66,-143.48"/>
</g>
<!-- Node6 -->
<g id="node6" class="node">
<title>Node6</title>
<g id="a_node6"><a xlink:href="class_c_p_s_1_1_attribute.html" target="_top" xlink:title=" ">
<polygon fill="none" stroke="black" points="441.5,-186.77 441.5,-205.77 565.5,-205.77 565.5,-186.77 441.5,-186.77"/>
<text text-anchor="middle" x="503.5" y="-193.77" font-family="Helvetica" font-size="10.00">CPS::Attribute&lt; String &gt;</text>
</a>
</g>
</g>
<!-- Node6&#45;&gt;Node4 -->
<g id="edge5" class="edge">
<title>Node6&#45;&gt;Node4</title>
<path fill="none" stroke="#9a32cd" stroke-dasharray="5,2" d="M575.85,-197.88C606.62,-198.58 642.05,-199.38 670.77,-200.03"/>
<polygon fill="#9a32cd" stroke="#9a32cd" points="575.69,-194.38 565.61,-197.65 575.53,-201.38 575.69,-194.38"/>
<text text-anchor="middle" x="621.5" y="-213.27" font-family="Helvetica" font-size="10.00"> mName</text>
<text text-anchor="middle" x="621.5" y="-202.27" font-family="Helvetica" font-size="10.00">mUID</text>
</g>
<!-- Node7 -->
<g id="node7" class="node">
<title>Node7</title>
<g id="a_node7"><a xlink:href="class_c_p_s_1_1_attribute_base.html" target="_top" xlink:title=" ">
<polygon fill="none" stroke="black" points="2.5,-271.77 2.5,-290.77 105.5,-290.77 105.5,-271.77 2.5,-271.77"/>
<text text-anchor="middle" x="54" y="-278.77" font-family="Helvetica" font-size="10.00">CPS::AttributeBase</text>
</a>
</g>
</g>
<!-- Node7&#45;&gt;Node6 -->
<g id="edge6" class="edge">
<title>Node7&#45;&gt;Node6</title>
<path fill="none" stroke="midnightblue" d="M66.17,-263.02C81,-240.74 109.5,-204.21 145,-189.27 255.44,-142.82 402.55,-170.39 468.27,-186.77"/>
<polygon fill="midnightblue" stroke="midnightblue" points="63.13,-261.28 60.67,-271.59 69.02,-265.06 63.13,-261.28"/>
</g>
<!-- Node9 -->
<g id="node9" class="node">
<title>Node9</title>
<g id="a_node9"><a xlink:href="class_c_p_s_1_1_attribute.html" target="_top" xlink:title=" ">
<polygon fill="none" stroke="black" points="162,-296.77 162,-315.77 266,-315.77 266,-296.77 162,-296.77"/>
<text text-anchor="middle" x="214" y="-303.77" font-family="Helvetica" font-size="10.00">CPS::Attribute&lt; T &gt;</text>
</a>
</g>
</g>
<!-- Node7&#45;&gt;Node9 -->
<g id="edge9" class="edge">
<title>Node7&#45;&gt;Node9</title>
<path fill="none" stroke="midnightblue" d="M116.17,-290.95C131.3,-293.35 147.36,-295.89 161.96,-298.2"/>
<polygon fill="midnightblue" stroke="midnightblue" points="116.29,-287.43 105.86,-289.32 115.19,-294.34 116.29,-287.43"/>
</g>
<!-- Node12 -->
<g id="node12" class="node">
<title>Node12</title>
<g id="a_node12"><a xlink:href="class_c_p_s_1_1_attribute.html" target="_top" xlink:title=" ">
<polygon fill="none" stroke="black" points="438,-249.27 438,-279.27 569,-279.27 569,-249.27 438,-249.27"/>
<text text-anchor="start" x="446" y="-267.27" font-family="Helvetica" font-size="10.00">CPS::Attribute&lt; MatrixVar</text>
<text text-anchor="middle" x="503.5" y="-256.27" font-family="Helvetica" font-size="10.00">&lt; VarType &gt; &gt;</text>
</a>
</g>
</g>
<!-- Node7&#45;&gt;Node12 -->
<g id="edge14" class="edge">
<title>Node7&#45;&gt;Node12</title>
<path fill="none" stroke="midnightblue" d="M116.09,-278.95C200.42,-275.75 351.83,-270 437.95,-266.73"/>
<polygon fill="midnightblue" stroke="midnightblue" points="115.76,-275.46 105.9,-279.34 116.02,-282.46 115.76,-275.46"/>
</g>
<!-- Node18 -->
<g id="node18" class="node">
<title>Node18</title>
<g id="a_node18"><a xlink:href="class_c_p_s_1_1_attribute.html" target="_top" xlink:title=" ">
<polygon fill="none" stroke="black" points="441,-74.77 441,-93.77 566,-93.77 566,-74.77 441,-74.77"/>
<text text-anchor="middle" x="503.5" y="-81.77" font-family="Helvetica" font-size="10.00">CPS::Attribute&lt; Matrix &gt;</text>
</a>
</g>
</g>
<!-- Node7&#45;&gt;Node18 -->
<g id="edge23" class="edge">
<title>Node7&#45;&gt;Node18</title>
<path fill="none" stroke="midnightblue" d="M55.1,-261.31C56.56,-212.18 67.96,-85.42 145,-31.27 255.37,46.3 432.51,-43.81 486.42,-74.66"/>
<polygon fill="midnightblue" stroke="midnightblue" points="51.59,-261.5 54.91,-271.56 58.59,-261.62 51.59,-261.5"/>
</g>
<!-- Node21 -->
<g id="node21" class="node">
<title>Node21</title>
<g id="a_node21"><a xlink:href="class_c_p_s_1_1_attribute.html" target="_top" xlink:title=" ">
<polygon fill="none" stroke="black" points="444.5,-351.77 444.5,-370.77 562.5,-370.77 562.5,-351.77 444.5,-351.77"/>
<text text-anchor="middle" x="503.5" y="-358.77" font-family="Helvetica" font-size="10.00">CPS::Attribute&lt; Real &gt;</text>
</a>
</g>
</g>
<!-- Node7&#45;&gt;Node21 -->
<g id="edge28" class="edge">
<title>Node7&#45;&gt;Node21</title>
<path fill="none" stroke="midnightblue" d="M80.96,-295.67C124.71,-318.93 216.65,-363.58 301,-377.27 351.89,-385.53 365.66,-382.04 417,-377.27 431.13,-375.96 446.42,-373.46 460.1,-370.81"/>
<polygon fill="midnightblue" stroke="midnightblue" points="82.34,-292.44 71.88,-290.78 79.02,-298.6 82.34,-292.44"/>
</g>
<!-- Node23 -->
<g id="node23" class="node">
<title>Node23</title>
<g id="a_node23"><a xlink:href="class_c_p_s_1_1_attribute.html" target="_top" xlink:title=" ">
<polygon fill="none" stroke="black" points="435,-437.77 435,-456.77 572,-456.77 572,-437.77 435,-437.77"/>
<text text-anchor="middle" x="503.5" y="-444.77" font-family="Helvetica" font-size="10.00">CPS::Attribute&lt; Complex &gt;</text>
</a>
</g>
</g>
<!-- Node7&#45;&gt;Node23 -->
<g id="edge32" class="edge">
<title>Node7&#45;&gt;Node23</title>
<path fill="none" stroke="midnightblue" d="M68.07,-299.36C79.39,-315.43 95.81,-339.8 108,-362.27 127.46,-398.13 110.86,-423.94 145,-446.27 191.03,-476.39 344.7,-465.28 434.89,-455.6"/>
<polygon fill="midnightblue" stroke="midnightblue" points="70.72,-297.04 62.07,-290.93 65.02,-301.1 70.72,-297.04"/>
</g>
<!-- Node8 -->
<g id="node8" class="node">
<title>Node8</title>
<g id="a_node8"><a xlink:title=" ">
<polygon fill="none" stroke="#bfbfbf" points="160,-100.77 160,-141.77 268,-141.77 268,-100.77 160,-100.77"/>
<text text-anchor="start" x="168" y="-129.77" font-family="Helvetica" font-size="10.00">std::enable_shared</text>
<text text-anchor="start" x="168" y="-118.77" font-family="Helvetica" font-size="10.00">_from_this&lt; Attribute</text>
<text text-anchor="middle" x="214" y="-107.77" font-family="Helvetica" font-size="10.00">&lt; String &gt; &gt;</text>
</a>
</g>
</g>
<!-- Node8&#45;&gt;Node6 -->
<g id="edge7" class="edge">
<title>Node8&#45;&gt;Node6</title>
<path fill="none" stroke="midnightblue" d="M278.11,-107.33C320.79,-101.53 376.55,-101.39 417,-128.27 432.9,-138.84 421.32,-153.96 435,-167.27 443.96,-175.99 455.95,-182.29 467.34,-186.73"/>
<polygon fill="midnightblue" stroke="midnightblue" points="277.48,-103.89 268.11,-108.82 278.51,-110.81 277.48,-103.89"/>
</g>
<!-- Node9&#45;&gt;Node6 -->
<g id="edge8" class="edge">
<title>Node9&#45;&gt;Node6</title>
<path fill="none" stroke="orange" stroke-dasharray="5,2" d="M240.94,-291.66C257.75,-282.52 280.29,-270.9 301,-262.27 358.26,-238.42 427.44,-217.37 468.04,-205.77"/>
<polygon fill="orange" stroke="orange" points="238.84,-288.82 231.76,-296.7 242.21,-294.95 238.84,-288.82"/>
<text text-anchor="middle" x="359" y="-265.27" font-family="Helvetica" font-size="10.00"> &lt; String &gt;</text>
</g>
<!-- Node9&#45;&gt;Node12 -->
<g id="edge16" class="edge">
<title>Node9&#45;&gt;Node12</title>
<path fill="none" stroke="orange" stroke-dasharray="5,2" d="M276.22,-297.33C323.73,-290.39 389.42,-280.79 437.79,-273.73"/>
<polygon fill="orange" stroke="orange" points="275.46,-293.9 266.07,-298.81 276.47,-300.83 275.46,-293.9"/>
<text text-anchor="middle" x="359" y="-295.27" font-family="Helvetica" font-size="10.00"> &lt; MatrixVar&lt; VarType &gt; &gt;</text>
</g>
<!-- Node9&#45;&gt;Node18 -->
<g id="edge25" class="edge">
<title>Node9&#45;&gt;Node18</title>
<path fill="none" stroke="orange" stroke-dasharray="5,2" d="M238.76,-290.75C253.11,-280.4 270.9,-265.71 283,-249.27 295.29,-232.59 287.47,-221.97 301,-206.27 350.53,-148.81 434.08,-110.57 476.34,-93.86"/>
<polygon fill="orange" stroke="orange" points="236.55,-288.02 230.35,-296.61 240.55,-293.76 236.55,-288.02"/>
<text text-anchor="middle" x="359" y="-209.27" font-family="Helvetica" font-size="10.00"> &lt; Matrix &gt;</text>
</g>
<!-- Node9&#45;&gt;Node21 -->
<g id="edge30" class="edge">
<title>Node9&#45;&gt;Node21</title>
<path fill="none" stroke="orange" stroke-dasharray="5,2" d="M276.09,-310.95C316.45,-314.81 370.32,-321.47 417,-332.27 438.23,-337.19 461.61,-345.31 478.55,-351.72"/>
<polygon fill="orange" stroke="orange" points="276.42,-307.46 266.14,-310.02 275.77,-314.43 276.42,-307.46"/>
<text text-anchor="middle" x="359" y="-335.27" font-family="Helvetica" font-size="10.00"> &lt; Real &gt;</text>
</g>
<!-- Node9&#45;&gt;Node23 -->
<g id="edge34" class="edge">
<title>Node9&#45;&gt;Node23</title>
<path fill="none" stroke="orange" stroke-dasharray="5,2" d="M243.82,-320.41C302.26,-349.07 433.37,-413.37 482.98,-437.7"/>
<polygon fill="orange" stroke="orange" points="245.28,-317.23 234.76,-315.96 242.2,-323.51 245.28,-317.23"/>
<text text-anchor="middle" x="359" y="-404.27" font-family="Helvetica" font-size="10.00"> &lt; Complex &gt;</text>
</g>
<!-- Node10 -->
<g id="node10" class="node">
<title>Node10</title>
<g id="a_node10"><a xlink:title=" ">
<polygon fill="none" stroke="#bfbfbf" points="0,-371.77 0,-412.77 108,-412.77 108,-371.77 0,-371.77"/>
<text text-anchor="start" x="8" y="-400.77" font-family="Helvetica" font-size="10.00">std::enable_shared</text>
<text text-anchor="start" x="8" y="-389.77" font-family="Helvetica" font-size="10.00">_from_this&lt; Attribute</text>
<text text-anchor="middle" x="54" y="-378.77" font-family="Helvetica" font-size="10.00">&lt; T &gt; &gt;</text>
</a>
</g>
</g>
<!-- Node10&#45;&gt;Node9 -->
<g id="edge10" class="edge">
<title>Node10&#45;&gt;Node9</title>
<path fill="none" stroke="midnightblue" d="M101.89,-366.75C133.34,-349.63 172.95,-328.07 195.39,-315.86"/>
<polygon fill="midnightblue" stroke="midnightblue" points="99.95,-363.82 92.84,-371.67 103.3,-369.97 99.95,-363.82"/>
</g>
<!-- Node11&#45;&gt;Node2 -->
<g id="edge11" class="edge">
<title>Node11&#45;&gt;Node2</title>
<path fill="none" stroke="orange" stroke-dasharray="5,2" d="M1300.16,-248.73C1345.56,-242.47 1404.3,-234.37 1447.5,-228.41"/>
<polygon fill="orange" stroke="orange" points="1299.53,-245.29 1290.1,-250.12 1300.49,-252.22 1299.53,-245.29"/>
<text text-anchor="middle" x="1355.5" y="-249.27" font-family="Helvetica" font-size="10.00"> &lt; Complex &gt;</text>
</g>
<!-- Node12&#45;&gt;Node11 -->
<g id="edge13" class="edge">
<title>Node12&#45;&gt;Node11</title>
<path fill="none" stroke="#9a32cd" stroke-dasharray="5,2" d="M579.21,-263.65C723.67,-262.46 1038.56,-259.85 1169.77,-258.76"/>
<polygon fill="#9a32cd" stroke="#9a32cd" points="579.08,-260.16 569.11,-263.74 579.14,-267.15 579.08,-260.16"/>
<text text-anchor="middle" x="830" y="-275.27" font-family="Helvetica" font-size="10.00"> mIntfCurrent</text>
<text text-anchor="middle" x="830" y="-264.27" font-family="Helvetica" font-size="10.00">mIntfVoltage</text>
</g>
<!-- Node13 -->
<g id="node13" class="node">
<title>Node13</title>
<g id="a_node13"><a xlink:title=" ">
<polygon fill="none" stroke="#bfbfbf" points="145,-198.77 145,-239.77 283,-239.77 283,-198.77 145,-198.77"/>
<text text-anchor="start" x="153" y="-227.77" font-family="Helvetica" font-size="10.00">std::enable_shared</text>
<text text-anchor="start" x="153" y="-216.77" font-family="Helvetica" font-size="10.00">_from_this&lt; Attribute</text>
<text text-anchor="middle" x="214" y="-205.77" font-family="Helvetica" font-size="10.00">&lt; MatrixVar&lt; VarType &gt; &gt; &gt;</text>
</a>
</g>
</g>
<!-- Node13&#45;&gt;Node12 -->
<g id="edge15" class="edge">
<title>Node13&#45;&gt;Node12</title>
<path fill="none" stroke="midnightblue" d="M293.76,-210.57C331.55,-208.58 377.17,-209.43 417,-219.27 440.29,-225.03 464.24,-238.39 480.84,-249.07"/>
<polygon fill="midnightblue" stroke="midnightblue" points="293.09,-207.1 283.32,-211.2 293.51,-214.09 293.09,-207.1"/>
</g>
<!-- Node14 -->
<g id="node14" class="node">
<title>Node14</title>
<g id="a_node14"><a xlink:href="class_shared_factory.html" target="_top" xlink:title=" ">
<polygon fill="none" stroke="black" points="1421,-128.77 1421,-147.77 1594,-147.77 1594,-128.77 1421,-128.77"/>
<text text-anchor="middle" x="1507.5" y="-135.77" font-family="Helvetica" font-size="10.00">SharedFactory&lt; NetworkInjection &gt;</text>
</a>
</g>
</g>
<!-- Node14&#45;&gt;Node1 -->
<g id="edge17" class="edge">
<title>Node14&#45;&gt;Node1</title>
<path fill="none" stroke="midnightblue" d="M1569.05,-149.69C1597.88,-155.13 1631.96,-161.56 1659.39,-166.73"/>
<polygon fill="midnightblue" stroke="midnightblue" points="1569.56,-146.23 1559.09,-147.81 1568.27,-153.11 1569.56,-146.23"/>
</g>
<!-- Node15 -->
<g id="node15" class="node">
<title>Node15</title>
<g id="a_node15"><a xlink:href="class_shared_factory.html" target="_top" xlink:title=" ">
<polygon fill="none" stroke="black" points="1177.5,-128.77 1177.5,-147.77 1282.5,-147.77 1282.5,-128.77 1177.5,-128.77"/>
<text text-anchor="middle" x="1230" y="-135.77" font-family="Helvetica" font-size="10.00">SharedFactory&lt; T &gt;</text>
</a>
</g>
</g>
<!-- Node15&#45;&gt;Node14 -->
<g id="edge18" class="edge">
<title>Node15&#45;&gt;Node14</title>
<path fill="none" stroke="orange" stroke-dasharray="5,2" d="M1293.15,-138.27C1330.84,-138.27 1379.48,-138.27 1420.8,-138.27"/>
<polygon fill="orange" stroke="orange" points="1292.82,-134.77 1282.82,-138.27 1292.82,-141.77 1292.82,-134.77"/>
<text text-anchor="middle" x="1355.5" y="-141.27" font-family="Helvetica" font-size="10.00"> &lt; NetworkInjection &gt;</text>
</g>
<!-- Node16 -->
<g id="node16" class="node">
<title>Node16</title>
<g id="a_node16"><a xlink:href="class_c_p_s_1_1_p_f_solver_interface_bus.html" target="_top" xlink:title="Common base class of all Component templates.">
<polygon fill="none" stroke="black" points="1438,-90.77 1438,-109.77 1577,-109.77 1577,-90.77 1438,-90.77"/>
<text text-anchor="middle" x="1507.5" y="-97.77" font-family="Helvetica" font-size="10.00">CPS::PFSolverInterfaceBus</text>
</a>
</g>
</g>
<!-- Node16&#45;&gt;Node1 -->
<g id="edge19" class="edge">
<title>Node16&#45;&gt;Node1</title>
<path fill="none" stroke="midnightblue" d="M1570.36,-112.18C1578.4,-114.26 1586.45,-116.62 1594,-119.27 1631.05,-132.28 1671.65,-154.14 1693.64,-166.67"/>
<polygon fill="midnightblue" stroke="midnightblue" points="1571.15,-108.77 1560.6,-109.78 1569.47,-115.56 1571.15,-108.77"/>
</g>
<!-- Node17&#45;&gt;Node1 -->
<g id="edge20" class="edge">
<title>Node17&#45;&gt;Node1</title>
<path fill="none" stroke="midnightblue" d="M777.65,-154.99C822.23,-164.47 889.62,-176.27 949,-176.27 949,-176.27 949,-176.27 1508.5,-176.27 1548.73,-176.27 1593.48,-176.27 1630.57,-176.27"/>
<polygon fill="midnightblue" stroke="midnightblue" points="778.17,-151.52 767.66,-152.82 776.69,-158.36 778.17,-151.52"/>
</g>
<!-- Node18&#45;&gt;Node17 -->
<g id="edge22" class="edge">
<title>Node18&#45;&gt;Node17</title>
<path fill="none" stroke="#9a32cd" stroke-dasharray="5,2" d="M550.45,-96.51C591.99,-107.58 652.29,-123.64 690.3,-133.76"/>
<polygon fill="#9a32cd" stroke="#9a32cd" points="551.14,-93.08 540.58,-93.88 549.34,-99.84 551.14,-93.08"/>
<text text-anchor="middle" x="621.5" y="-125.27" font-family="Helvetica" font-size="10.00"> mRightVector</text>
</g>
<!-- Node19 -->
<g id="node19" class="node">
<title>Node19</title>
<g id="a_node19"><a xlink:title=" ">
<polygon fill="none" stroke="#bfbfbf" points="160,-40.77 160,-81.77 268,-81.77 268,-40.77 160,-40.77"/>
<text text-anchor="start" x="168" y="-69.77" font-family="Helvetica" font-size="10.00">std::enable_shared</text>
<text text-anchor="start" x="168" y="-58.77" font-family="Helvetica" font-size="10.00">_from_this&lt; Attribute</text>
<text text-anchor="middle" x="214" y="-47.77" font-family="Helvetica" font-size="10.00">&lt; Matrix &gt; &gt;</text>
</a>
</g>
</g>
<!-- Node19&#45;&gt;Node18 -->
<g id="edge24" class="edge">
<title>Node19&#45;&gt;Node18</title>
<path fill="none" stroke="midnightblue" d="M278.1,-66.32C326.43,-70.19 392.76,-75.49 440.75,-79.33"/>
<polygon fill="midnightblue" stroke="midnightblue" points="278.31,-62.83 268.07,-65.52 277.76,-69.8 278.31,-62.83"/>
</g>
<!-- Node20 -->
<g id="node20" class="node">
<title>Node20</title>
<g id="a_node20"><a xlink:href="class_c_p_s_1_1_d_a_e_interface.html" target="_top" xlink:title=" ">
<polygon fill="none" stroke="black" points="1456,-52.77 1456,-71.77 1559,-71.77 1559,-52.77 1456,-52.77"/>
<text text-anchor="middle" x="1507.5" y="-59.77" font-family="Helvetica" font-size="10.00">CPS::DAEInterface</text>
</a>
</g>
</g>
<!-- Node20&#45;&gt;Node1 -->
<g id="edge26" class="edge">
<title>Node20&#45;&gt;Node1</title>
<path fill="none" stroke="midnightblue" d="M1568.86,-71.95C1577.52,-74.4 1586.15,-77.46 1594,-81.27 1639.89,-103.58 1683.51,-147.42 1701.43,-166.74"/>
<polygon fill="midnightblue" stroke="midnightblue" points="1569.66,-68.54 1559.1,-69.43 1567.91,-75.32 1569.66,-68.54"/>
</g>
<!-- Node21&#45;&gt;Node1 -->
<g id="edge27" class="edge">
<title>Node21&#45;&gt;Node1</title>
<path fill="none" stroke="#9a32cd" stroke-dasharray="5,2" d="M542.44,-348.74C586.18,-335.42 660.47,-316.27 726,-316.27 726,-316.27 726,-316.27 1508.5,-316.27 1600.08,-316.27 1679.96,-217.53 1703.2,-185.9"/>
<polygon fill="#9a32cd" stroke="#9a32cd" points="541.31,-345.42 532.8,-351.73 543.39,-352.11 541.31,-345.42"/>
<text text-anchor="middle" x="1096.5" y="-363.27" font-family="Helvetica" font-size="10.00"> mActivePowerInjection</text>
<text text-anchor="middle" x="1096.5" y="-352.27" font-family="Helvetica" font-size="10.00">mReactivePowerInjection</text>
<text text-anchor="middle" x="1096.5" y="-341.27" font-family="Helvetica" font-size="10.00">mSrcFreq</text>
<text text-anchor="middle" x="1096.5" y="-330.27" font-family="Helvetica" font-size="10.00">mVoltageSetPoint</text>
<text text-anchor="middle" x="1096.5" y="-319.27" font-family="Helvetica" font-size="10.00">mVoltageSetPointPerUnit</text>
</g>
<!-- Node22 -->
<g id="node22" class="node">
<title>Node22</title>
<g id="a_node22"><a xlink:title=" ">
<polygon fill="none" stroke="#bfbfbf" points="160,-395.77 160,-436.77 268,-436.77 268,-395.77 160,-395.77"/>
<text text-anchor="start" x="168" y="-424.77" font-family="Helvetica" font-size="10.00">std::enable_shared</text>
<text text-anchor="start" x="168" y="-413.77" font-family="Helvetica" font-size="10.00">_from_this&lt; Attribute</text>
<text text-anchor="middle" x="214" y="-402.77" font-family="Helvetica" font-size="10.00">&lt; Real &gt; &gt;</text>
</a>
</g>
</g>
<!-- Node22&#45;&gt;Node21 -->
<g id="edge29" class="edge">
<title>Node22&#45;&gt;Node21</title>
<path fill="none" stroke="midnightblue" d="M278.43,-417.95C318.73,-417.54 371.66,-414.24 417,-402.27 442.94,-395.42 470.51,-380.67 487.12,-370.86"/>
<polygon fill="midnightblue" stroke="midnightblue" points="278.19,-414.45 268.2,-418 278.22,-421.45 278.19,-414.45"/>
</g>
<!-- Node23&#45;&gt;Node1 -->
<g id="edge31" class="edge">
<title>Node23&#45;&gt;Node1</title>
<path fill="none" stroke="#9a32cd" stroke-dasharray="5,2" d="M582.23,-437.86C624.65,-433.5 678.14,-429.27 726,-429.27 726,-429.27 726,-429.27 1508.5,-429.27 1635.4,-429.27 1695.28,-232.1 1707.58,-185.88"/>
<polygon fill="#9a32cd" stroke="#9a32cd" points="581.82,-434.38 572.24,-438.91 582.55,-441.34 581.82,-434.38"/>
<text text-anchor="middle" x="1096.5" y="-432.27" font-family="Helvetica" font-size="10.00"> mVoltageRef</text>
</g>
<!-- Node24 -->
<g id="node24" class="node">
<title>Node24</title>
<g id="a_node24"><a xlink:title=" ">
<polygon fill="none" stroke="#bfbfbf" points="160,-493.77 160,-534.77 268,-534.77 268,-493.77 160,-493.77"/>
<text text-anchor="start" x="168" y="-522.77" font-family="Helvetica" font-size="10.00">std::enable_shared</text>
<text text-anchor="start" x="168" y="-511.77" font-family="Helvetica" font-size="10.00">_from_this&lt; Attribute</text>
<text text-anchor="middle" x="214" y="-500.77" font-family="Helvetica" font-size="10.00">&lt; Complex &gt; &gt;</text>
</a>
</g>
</g>
<!-- Node24&#45;&gt;Node23 -->
<g id="edge33" class="edge">
<title>Node24&#45;&gt;Node23</title>
<path fill="none" stroke="midnightblue" d="M278.25,-506.41C318.41,-500.66 371.24,-491.68 417,-479.27 439.03,-473.3 463.33,-463.92 480.37,-456.86"/>
<polygon fill="midnightblue" stroke="midnightblue" points="277.75,-502.94 268.33,-507.8 278.72,-509.88 277.75,-502.94"/>
</g>
</g>
</svg>
        <g id="navigator" transform="translate(0 0)" fill="#404254">
                <rect fill="#f2f5e9" fill-opacity="0.5" stroke="#606060" stroke-width=".5" x="0" y="0" width="60" height="60"/>
                <use id="zoomplus" xlink:href="#zoomPlus" x="17" y="9" onmousedown="handleZoom(evt,'in')"/>
                <use id="zoomminus" xlink:href="#zoomMin" x="42" y="9" onmousedown="handleZoom(evt,'out')"/>
                <use id="reset" xlink:href="#resetDef" x="30" y="36" onmousedown="handleReset()"/>
                <g id="arrowUp" xlink:href="#dirArrow" transform="translate(30 24)" onmousedown="handlePan(0,-1)">
                  <use xlink:href="#rim" fill="#404040">
                        <set attributeName="fill" to="#808080" begin="arrowUp.mouseover" end="arrowUp.mouseout"/>
                  </use>
                  <path fill="none" stroke="white" stroke-width="1.5" d="M0,-3.0v7 M-2.5,-0.5L0,-3.0L2.5,-0.5"/>
                </g>
                <g id="arrowRight" xlink:href="#dirArrow" transform="rotate(90) translate(36 -43)" onmousedown="handlePan(1,0)">
                  <use xlink:href="#rim" fill="#404040">
                        <set attributeName="fill" to="#808080" begin="arrowRight.mouseover" end="arrowRight.mouseout"/>
                  </use>
                  <path fill="none" stroke="white" stroke-width="1.5" d="M0,-3.0v7 M-2.5,-0.5L0,-3.0L2.5,-0.5"/>
                </g>
                <g id="arrowDown" xlink:href="#dirArrow" transform="rotate(180) translate(-30 -48)" onmousedown="handlePan(0,1)">
                  <use xlink:href="#rim" fill="#404040">
                        <set attributeName="fill" to="#808080" begin="arrowDown.mouseover" end="arrowDown.mouseout"/>
                  </use>
                  <path fill="none" stroke="white" stroke-width="1.5" d="M0,-3.0v7 M-2.5,-0.5L0,-3.0L2.5,-0.5"/>
                </g>
                <g id="arrowLeft" xlink:href="#dirArrow" transform="rotate(270) translate(-36 17)" onmousedown="handlePan(-1,0)">
                  <use xlink:href="#rim" fill="#404040">
                        <set attributeName="fill" to="#808080" begin="arrowLeft.mouseover" end="arrowLeft.mouseout"/>
                  </use>
                  <path fill="none" stroke="white" stroke-width="1.5" d="M0,-3.0v7 M-2.5,-0.5L0,-3.0L2.5,-0.5"/>
                </g>
        </g>
        <svg viewBox="0 0 15 15" width="100%" height="30px" preserveAspectRatio="xMaxYMin meet">
         <g id="arrow_out" transform="scale(0.3 0.3)">
          <a xlink:href="class_c_p_s_1_1_s_p_1_1_ph1_1_1_network_injection__coll__graph_org.svg" target="_base">
           <rect id="button" ry="5" rx="5" y="6" x="6" height="38" width="38"
                fill="#f2f5e9" fill-opacity="0.5" stroke="#606060" stroke-width="1.0"/>
           <path id="arrow"
             d="M 11.500037,31.436501 C 11.940474,20.09759 22.043105,11.32322 32.158766,21.979434 L 37.068811,17.246167 C 37.068811,17.246167 37.088388,32 37.088388,32 L 22.160133,31.978069 C 22.160133,31.978069 26.997745,27.140456 26.997745,27.140456 C 18.528582,18.264221 13.291696,25.230495 11.500037,31.436501 z"
             style="fill:#404040;"/>
          </a>
         </g>
        </svg>
</svg>
