<?xml version="1.0" encoding="UTF-8" standalone="no"?>
<!DOCTYPE svg PUBLIC "-//W3C//DTD SVG 1.1//EN"
 "http://www.w3.org/Graphics/SVG/1.1/DTD/svg11.dtd">
<!-- Generated by graphviz version 12.2.1 (20241206.2353)
 -->
<!-- Title: CPS::Signal::DecouplingIdealTransformer_DP_Ph1 Pages: 1 -->
<svg width="371pt" height="264pt"
 viewBox="0.00 0.00 370.88 264.00" xmlns="http://www.w3.org/2000/svg" xmlns:xlink="http://www.w3.org/1999/xlink">

<svg id="main" version="1.1" xmlns="http://www.w3.org/2000/svg" xmlns:xlink="http://www.w3.org/1999/xlink" xml:space="preserve">

<style type="text/css"><![CDATA[
.node, .edge {opacity: 0.7;}
.node.selected, .edge.selected {opacity: 1;}
.edge:hover path { stroke: red; }
.edge:hover polygon { stroke: red; fill: red; }
]]></style>
<script type="application/ecmascript" xlink:href="svg.min.js"/>
<svg id="graph" class="graph">
<g id="graph0" class="graph" transform="scale(1 1) rotate(0) translate(4 260)">
<title>CPS::Signal::DecouplingIdealTransformer_DP_Ph1</title>
<!-- Node1 -->
<g id="Node000001" class="node">
<title>Node1</title>
<g id="a_Node000001"><a xlink:title=" ">
<polygon fill="#999999" stroke="#666666" points="218.12,-36.5 70.12,-36.5 70.12,0 218.12,0 218.12,-36.5"/>
<text text-anchor="start" x="78.12" y="-23" font-family="Helvetica,sans-Serif" font-size="10.00">CPS::Signal::DecouplingIdeal</text>
<text text-anchor="middle" x="144.12" y="-8.75" font-family="Helvetica,sans-Serif" font-size="10.00">Transformer_DP_Ph1</text>
</a>
</g>
</g>
<!-- Node2 -->
<g id="Node000002" class="node">
<title>Node2</title>
<g id="a_Node000002"><a xlink:href="class_c_p_s_1_1_sim_signal_comp.html" target="_top" xlink:title=" ">
<polygon fill="white" stroke="#666666" points="127,-102.88 17.25,-102.88 17.25,-80.62 127,-80.62 127,-102.88"/>
<text text-anchor="middle" x="72.12" y="-89.38" font-family="Helvetica,sans-Serif" font-size="10.00">CPS::SimSignalComp</text>
</a>
</g>
</g>
<!-- Node2&#45;&gt;Node1 -->
<g id="edge1_Node000001_Node000002" class="edge">
<title>Node2&#45;&gt;Node1</title>
<g id="a_edge1_Node000001_Node000002"><a xlink:title=" ">
<path fill="none" stroke="#63b8ff" d="M90.85,-72.15C101.85,-61.23 115.67,-47.51 126.47,-36.78"/>
<polygon fill="#63b8ff" stroke="#63b8ff" points="88.45,-69.6 83.82,-79.13 93.38,-74.57 88.45,-69.6"/>
</a>
</g>
</g>
<!-- Node3 -->
<g id="Node000003" class="node">
<title>Node3</title>
<g id="a_Node000003"><a xlink:href="class_c_p_s_1_1_topological_signal_comp.html" target="_top" xlink:title=" ">
<polygon fill="white" stroke="#666666" points="144.25,-196.75 0,-196.75 0,-174.5 144.25,-174.5 144.25,-196.75"/>
<text text-anchor="middle" x="72.12" y="-183.25" font-family="Helvetica,sans-Serif" font-size="10.00">CPS::TopologicalSignalComp</text>
</a>
</g>
</g>
<!-- Node3&#45;&gt;Node2 -->
<g id="edge2_Node000002_Node000003" class="edge">
<title>Node3&#45;&gt;Node2</title>
<g id="a_edge2_Node000002_Node000003"><a xlink:title=" ">
<path fill="none" stroke="#63b8ff" d="M72.12,-162.74C72.12,-143.91 72.12,-117.57 72.12,-103.17"/>
<polygon fill="#63b8ff" stroke="#63b8ff" points="68.63,-162.57 72.13,-172.57 75.63,-162.57 68.63,-162.57"/>
</a>
</g>
</g>
<!-- Node4 -->
<g id="Node000004" class="node">
<title>Node4</title>
<g id="a_Node000004"><a xlink:href="class_c_p_s_1_1_identified_object.html" target="_top" xlink:title=" ">
<polygon fill="white" stroke="#666666" points="129.62,-256 14.62,-256 14.62,-233.75 129.62,-233.75 129.62,-256"/>
<text text-anchor="middle" x="72.12" y="-242.5" font-family="Helvetica,sans-Serif" font-size="10.00">CPS::IdentifiedObject</text>
</a>
</g>
</g>
<!-- Node4&#45;&gt;Node3 -->
<g id="edge3_Node000003_Node000004" class="edge">
<title>Node4&#45;&gt;Node3</title>
<g id="a_edge3_Node000003_Node000004"><a xlink:title=" ">
<path fill="none" stroke="#63b8ff" d="M72.12,-222.15C72.12,-213.55 72.12,-204.06 72.12,-197.06"/>
<polygon fill="#63b8ff" stroke="#63b8ff" points="68.63,-221.86 72.13,-231.86 75.63,-221.86 68.63,-221.86"/>
</a>
</g>
</g>
<!-- Node5 -->
<g id="Node000005" class="node">
<title>Node5</title>
<g id="a_Node000005"><a xlink:href="class_shared_factory.html" target="_top" xlink:title=" ">
<polygon fill="white" stroke="#666666" points="291.38,-110 144.88,-110 144.88,-73.5 291.38,-73.5 291.38,-110"/>
<text text-anchor="start" x="152.88" y="-96.5" font-family="Helvetica,sans-Serif" font-size="10.00">SharedFactory&lt; Decoupling</text>
<text text-anchor="middle" x="218.12" y="-82.25" font-family="Helvetica,sans-Serif" font-size="10.00">IdealTransformer_DP_Ph1 &gt;</text>
</a>
</g>
</g>
<!-- Node5&#45;&gt;Node1 -->
<g id="edge4_Node000001_Node000005" class="edge">
<title>Node5&#45;&gt;Node1</title>
<g id="a_edge4_Node000001_Node000005"><a xlink:title=" ">
<path fill="none" stroke="#63b8ff" d="M191.68,-65.19C182,-55.85 171.28,-45.48 162.46,-36.97"/>
<polygon fill="#63b8ff" stroke="#63b8ff" points="189.12,-67.59 198.74,-72.02 193.98,-62.56 189.12,-67.59"/>
</a>
</g>
</g>
<!-- Node6 -->
<g id="Node000006" class="node">
<title>Node6</title>
<g id="a_Node000006"><a xlink:href="class_shared_factory.html" target="_top" xlink:title=" ">
<polygon fill="white" stroke="#666666" points="270.38,-196.75 165.88,-196.75 165.88,-174.5 270.38,-174.5 270.38,-196.75"/>
<text text-anchor="middle" x="218.12" y="-183.25" font-family="Helvetica,sans-Serif" font-size="10.00">SharedFactory&lt; T &gt;</text>
</a>
</g>
</g>
<!-- Node6&#45;&gt;Node5 -->
<g id="edge5_Node000005_Node000006" class="edge">
<title>Node6&#45;&gt;Node5</title>
<g id="a_edge5_Node000005_Node000006"><a xlink:title=" ">
<path fill="none" stroke="orange" stroke-dasharray="5,2" d="M218.12,-162.64C218.12,-146.64 218.12,-125.26 218.12,-110.38"/>
<polygon fill="orange" stroke="orange" points="214.63,-162.57 218.13,-172.57 221.63,-162.57 214.63,-162.57"/>
</a>
</g>
<text text-anchor="start" x="218.12" y="-147" font-family="Helvetica,sans-Serif" font-size="10.00" fill="grey"> &lt; DecouplingIdealTransformer</text>
<text text-anchor="middle" x="290.5" y="-132.75" font-family="Helvetica,sans-Serif" font-size="10.00" fill="grey">_DP_Ph1 &gt;</text>
</g>
</g>
</svg>
</svg>

<style type='text/css'>
<![CDATA[
[data-mouse-over-selected='false'] { opacity: 0.7; }
[data-mouse-over-selected='true']  { opacity: 1.0; }
]]>
</style>
<script type="application/ecmascript"><![CDATA[
document.addEventListener('DOMContentLoaded', (event) => {
  highlightEdges();
  highlightAdjacentNodes();
});
]]></script>
</svg>
