<?xml version="1.0" encoding="UTF-8" standalone="no"?>
<!DOCTYPE svg PUBLIC "-//W3C//DTD SVG 1.1//EN"
 "http://www.w3.org/Graphics/SVG/1.1/DTD/svg11.dtd">
<!-- Generated by graphviz version 12.2.1 (20241206.2353)
 -->
<!-- Title: CPS::DP::Ph1::Resistor Pages: 1 -->
<svg width="1082pt" height="286pt"
 viewBox="0.00 0.00 1082.00 286.38" xmlns="http://www.w3.org/2000/svg" xmlns:xlink="http://www.w3.org/1999/xlink">
<g id="graph0" class="graph" transform="scale(1 1) rotate(0) translate(4 282.38)">
<title>CPS::DP::Ph1::Resistor</title>
<!-- Node1 -->
<g id="Node000001" class="node">
<title>Node1</title>
<g id="a_Node000001"><a xlink:title="Dynamic phasor resistor model.">
<polygon fill="#999999" stroke="#666666" points="1074,-102.25 953.75,-102.25 953.75,-80 1074,-80 1074,-102.25"/>
<text text-anchor="middle" x="1013.88" y="-88.75" font-family="Helvetica,sans-Serif" font-size="10.00">CPS::DP::Ph1::Resistor</text>
</a>
</g>
</g>
<!-- Node2 -->
<g id="Node000002" class="node">
<title>Node2</title>
<g id="a_Node000002"><a xlink:href="class_c_p_s_1_1_m_n_a_sim_power_comp.html" target="_top" xlink:title=" ">
<polygon fill="white" stroke="#666666" points="916.38,-196.38 780.38,-196.38 780.38,-159.88 916.38,-159.88 916.38,-196.38"/>
<text text-anchor="start" x="788.38" y="-182.88" font-family="Helvetica,sans-Serif" font-size="10.00">CPS::MNASimPowerComp</text>
<text text-anchor="middle" x="848.38" y="-168.62" font-family="Helvetica,sans-Serif" font-size="10.00">&lt; Complex &gt;</text>
</a>
</g>
</g>
<!-- Node2&#45;&gt;Node1 -->
<g id="edge1_Node000001_Node000002" class="edge">
<title>Node2&#45;&gt;Node1</title>
<g id="a_edge1_Node000001_Node000002"><a xlink:title=" ">
<path fill="none" stroke="#63b8ff" d="M909.04,-154.89C911.66,-153.65 914.24,-152.4 916.75,-151.12 945.87,-136.35 977.64,-115.51 996.38,-102.68"/>
<polygon fill="#63b8ff" stroke="#63b8ff" points="907.83,-151.59 900.15,-158.89 910.7,-157.97 907.83,-151.59"/>
</a>
</g>
</g>
<!-- Node3 -->
<g id="Node000003" class="node">
<title>Node3</title>
<g id="a_Node000003"><a xlink:href="class_c_p_s_1_1_sim_power_comp.html" target="_top" xlink:title=" ">
<polygon fill="white" stroke="#666666" points="676.88,-242.38 558.12,-242.38 558.12,-205.88 676.88,-205.88 676.88,-242.38"/>
<text text-anchor="start" x="566.12" y="-228.88" font-family="Helvetica,sans-Serif" font-size="10.00">CPS::SimPowerComp&lt;</text>
<text text-anchor="middle" x="617.5" y="-214.62" font-family="Helvetica,sans-Serif" font-size="10.00"> Complex &gt;</text>
</a>
</g>
</g>
<!-- Node3&#45;&gt;Node2 -->
<g id="edge2_Node000002_Node000003" class="edge">
<title>Node3&#45;&gt;Node2</title>
<g id="a_edge2_Node000002_Node000003"><a xlink:title=" ">
<path fill="none" stroke="#63b8ff" d="M688.08,-210.14C717.25,-204.28 751.03,-197.49 779.97,-191.67"/>
<polygon fill="#63b8ff" stroke="#63b8ff" points="687.74,-206.64 678.63,-212.04 689.12,-213.5 687.74,-206.64"/>
</a>
</g>
</g>
<!-- Node4 -->
<g id="Node000004" class="node">
<title>Node4</title>
<g id="a_Node000004"><a xlink:href="class_c_p_s_1_1_topological_power_comp.html" target="_top" xlink:title=" ">
<polygon fill="white" stroke="#666666" points="299.25,-225.25 152,-225.25 152,-203 299.25,-203 299.25,-225.25"/>
<text text-anchor="middle" x="225.62" y="-211.75" font-family="Helvetica,sans-Serif" font-size="10.00">CPS::TopologicalPowerComp</text>
</a>
</g>
</g>
<!-- Node4&#45;&gt;Node3 -->
<g id="edge3_Node000003_Node000004" class="edge">
<title>Node4&#45;&gt;Node3</title>
<g id="a_edge3_Node000003_Node000004"><a xlink:title=" ">
<path fill="none" stroke="#63b8ff" d="M310.7,-216.28C385.18,-218.19 491.99,-220.93 557.67,-222.62"/>
<polygon fill="#63b8ff" stroke="#63b8ff" points="311.1,-212.79 301.01,-216.03 310.92,-219.79 311.1,-212.79"/>
</a>
</g>
</g>
<!-- Node6 -->
<g id="Node000006" class="node">
<title>Node6</title>
<g id="a_Node000006"><a xlink:href="class_c_p_s_1_1_sim_power_comp.html" target="_top" xlink:title="Base class for all components that are transmitting power.">
<polygon fill="white" stroke="#666666" points="455,-278.38 336.25,-278.38 336.25,-241.88 455,-241.88 455,-278.38"/>
<text text-anchor="start" x="344.25" y="-264.88" font-family="Helvetica,sans-Serif" font-size="10.00">CPS::SimPowerComp&lt;</text>
<text text-anchor="middle" x="395.62" y="-250.62" font-family="Helvetica,sans-Serif" font-size="10.00"> VarType &gt;</text>
</a>
</g>
</g>
<!-- Node4&#45;&gt;Node6 -->
<g id="edge6_Node000006_Node000004" class="edge">
<title>Node4&#45;&gt;Node6</title>
<g id="a_edge6_Node000006_Node000004"><a xlink:title=" ">
<path fill="none" stroke="#63b8ff" d="M280.1,-228.77C297.92,-233.65 317.87,-239.11 336.07,-244.09"/>
<polygon fill="#63b8ff" stroke="#63b8ff" points="281.05,-225.4 270.48,-226.13 279.2,-232.15 281.05,-225.4"/>
</a>
</g>
</g>
<!-- Node9 -->
<g id="Node000009" class="node">
<title>Node9</title>
<g id="a_Node000009"><a xlink:href="class_c_p_s_1_1_sim_power_comp.html" target="_top" xlink:title="Base class for all components that are transmitting power.">
<polygon fill="white" stroke="#666666" points="455,-146.38 336.25,-146.38 336.25,-109.88 455,-109.88 455,-146.38"/>
<text text-anchor="start" x="344.25" y="-132.88" font-family="Helvetica,sans-Serif" font-size="10.00">CPS::SimPowerComp&lt;</text>
<text text-anchor="middle" x="395.62" y="-118.62" font-family="Helvetica,sans-Serif" font-size="10.00"> VarType &gt;</text>
</a>
</g>
</g>
<!-- Node4&#45;&gt;Node9 -->
<g id="edge10_Node000009_Node000004" class="edge">
<title>Node4&#45;&gt;Node9</title>
<g id="a_edge10_Node000009_Node000004"><a xlink:title=" ">
<path fill="none" stroke="#63b8ff" d="M257.04,-197.11C278.9,-185.05 309.17,-168.66 336.25,-155.12 341.74,-152.38 347.57,-149.57 353.34,-146.84"/>
<polygon fill="#63b8ff" stroke="#63b8ff" points="255.41,-194.02 248.36,-201.93 258.81,-200.14 255.41,-194.02"/>
</a>
</g>
</g>
<!-- Node5 -->
<g id="Node000005" class="node">
<title>Node5</title>
<g id="a_Node000005"><a xlink:href="class_c_p_s_1_1_identified_object.html" target="_top" xlink:title=" ">
<polygon fill="white" stroke="#666666" points="115,-225.25 0,-225.25 0,-203 115,-203 115,-225.25"/>
<text text-anchor="middle" x="57.5" y="-211.75" font-family="Helvetica,sans-Serif" font-size="10.00">CPS::IdentifiedObject</text>
</a>
</g>
</g>
<!-- Node5&#45;&gt;Node4 -->
<g id="edge4_Node000004_Node000005" class="edge">
<title>Node5&#45;&gt;Node4</title>
<g id="a_edge4_Node000004_Node000005"><a xlink:title=" ">
<path fill="none" stroke="#63b8ff" d="M126.7,-214.12C134.95,-214.12 143.41,-214.12 151.73,-214.12"/>
<polygon fill="#63b8ff" stroke="#63b8ff" points="126.72,-210.63 116.72,-214.13 126.72,-217.63 126.72,-210.63"/>
</a>
</g>
</g>
<!-- Node6&#45;&gt;Node3 -->
<g id="edge5_Node000003_Node000006" class="edge">
<title>Node6&#45;&gt;Node3</title>
<g id="a_edge5_Node000003_Node000006"><a xlink:title=" ">
<path fill="none" stroke="orange" stroke-dasharray="5,2" d="M466.28,-248.72C495.68,-243.91 529.53,-238.36 557.65,-233.76"/>
<polygon fill="orange" stroke="orange" points="466.06,-245.21 456.75,-250.28 467.19,-252.12 466.06,-245.21"/>
</a>
</g>
<text text-anchor="middle" x="502.25" y="-252.2" font-family="Helvetica,sans-Serif" font-size="10.00" fill="grey"> &lt; Complex &gt;</text>
</g>
<!-- Node7 -->
<g id="Node000007" class="node">
<title>Node7</title>
<g id="a_Node000007"><a xlink:href="class_c_p_s_1_1_m_n_a_interface.html" target="_top" xlink:title="Interface to be implemented by all models used by the MNA solver.">
<polygon fill="white" stroke="#666666" points="448.62,-186.25 342.62,-186.25 342.62,-164 448.62,-164 448.62,-186.25"/>
<text text-anchor="middle" x="395.62" y="-172.75" font-family="Helvetica,sans-Serif" font-size="10.00">CPS::MNAInterface</text>
</a>
</g>
</g>
<!-- Node7&#45;&gt;Node2 -->
<g id="edge7_Node000002_Node000007" class="edge">
<title>Node7&#45;&gt;Node2</title>
<g id="a_edge7_Node000002_Node000007"><a xlink:title=" ">
<path fill="none" stroke="#63b8ff" d="M460.26,-175.55C544.82,-176.11 693.57,-177.1 779.98,-177.68"/>
<polygon fill="#63b8ff" stroke="#63b8ff" points="460.31,-172.05 450.29,-175.48 460.26,-179.05 460.31,-172.05"/>
</a>
</g>
</g>
<!-- Node8 -->
<g id="Node000008" class="node">
<title>Node8</title>
<g id="a_Node000008"><a xlink:href="class_c_p_s_1_1_m_n_a_sim_power_comp.html" target="_top" xlink:title="Base class for all MNA components that are transmitting power.">
<polygon fill="white" stroke="#666666" points="685.5,-150.38 549.5,-150.38 549.5,-113.88 685.5,-113.88 685.5,-150.38"/>
<text text-anchor="start" x="557.5" y="-136.88" font-family="Helvetica,sans-Serif" font-size="10.00">CPS::MNASimPowerComp</text>
<text text-anchor="middle" x="617.5" y="-122.62" font-family="Helvetica,sans-Serif" font-size="10.00">&lt; VarType &gt;</text>
</a>
</g>
</g>
<!-- Node7&#45;&gt;Node8 -->
<g id="edge11_Node000008_Node000007" class="edge">
<title>Node7&#45;&gt;Node8</title>
<g id="a_edge11_Node000008_Node000007"><a xlink:title=" ">
<path fill="none" stroke="#63b8ff" d="M460.23,-162.69C488.09,-157.24 520.81,-150.84 549.09,-145.31"/>
<polygon fill="#63b8ff" stroke="#63b8ff" points="459.64,-159.24 450.5,-164.59 460.98,-166.11 459.64,-159.24"/>
</a>
</g>
</g>
<!-- Node8&#45;&gt;Node2 -->
<g id="edge8_Node000002_Node000008" class="edge">
<title>Node8&#45;&gt;Node2</title>
<g id="a_edge8_Node000002_Node000008"><a xlink:title=" ">
<path fill="none" stroke="orange" stroke-dasharray="5,2" d="M697.04,-139.02C718.27,-141.65 741.14,-145.18 762,-149.88 773.27,-152.41 785.16,-155.84 796.37,-159.44"/>
<polygon fill="orange" stroke="orange" points="697.62,-135.56 687.28,-137.86 696.8,-142.51 697.62,-135.56"/>
</a>
</g>
<text text-anchor="middle" x="732.75" y="-154.62" font-family="Helvetica,sans-Serif" font-size="10.00" fill="grey"> &lt; Complex &gt;</text>
</g>
<!-- Node9&#45;&gt;Node8 -->
<g id="edge9_Node000008_Node000009" class="edge">
<title>Node9&#45;&gt;Node8</title>
<g id="a_edge9_Node000008_Node000009"><a xlink:title=" ">
<path fill="none" stroke="#63b8ff" d="M466.71,-129.4C493.07,-129.88 522.97,-130.42 549.08,-130.9"/>
<polygon fill="#63b8ff" stroke="#63b8ff" points="466.83,-125.9 456.77,-129.22 466.71,-132.9 466.83,-125.9"/>
</a>
</g>
</g>
<!-- Node10 -->
<g id="Node000010" class="node">
<title>Node10</title>
<g id="a_Node000010"><a xlink:href="class_c_p_s_1_1_base_1_1_ph1_1_1_resistor.html" target="_top" xlink:title=" ">
<polygon fill="white" stroke="#bfbfbf" points="913,-142.25 783.75,-142.25 783.75,-120 913,-120 913,-142.25"/>
<text text-anchor="middle" x="848.38" y="-128.75" font-family="Helvetica,sans-Serif" font-size="10.00">CPS::Base::Ph1::Resistor</text>
</a>
</g>
</g>
<!-- Node10&#45;&gt;Node1 -->
<g id="edge12_Node000001_Node000010" class="edge">
<title>Node10&#45;&gt;Node1</title>
<g id="a_edge12_Node000001_Node000010"><a xlink:title=" ">
<path fill="none" stroke="#63b8ff" d="M907.84,-116.82C926.73,-112.2 947.42,-107.14 965.41,-102.74"/>
<polygon fill="#63b8ff" stroke="#63b8ff" points="907.02,-113.42 898.14,-119.2 908.68,-120.22 907.02,-113.42"/>
</a>
</g>
</g>
<!-- Node11 -->
<g id="Node000011" class="node">
<title>Node11</title>
<g id="a_Node000011"><a xlink:href="class_c_p_s_1_1_m_n_a_tear_interface.html" target="_top" xlink:title=" ">
<polygon fill="white" stroke="#bfbfbf" points="911.12,-102.25 785.62,-102.25 785.62,-80 911.12,-80 911.12,-102.25"/>
<text text-anchor="middle" x="848.38" y="-88.75" font-family="Helvetica,sans-Serif" font-size="10.00">CPS::MNATearInterface</text>
</a>
</g>
</g>
<!-- Node11&#45;&gt;Node1 -->
<g id="edge13_Node000001_Node000011" class="edge">
<title>Node11&#45;&gt;Node1</title>
<g id="a_edge13_Node000001_Node000011"><a xlink:title=" ">
<path fill="none" stroke="#63b8ff" d="M922.68,-91.12C932.97,-91.12 943.43,-91.12 953.41,-91.12"/>
<polygon fill="#63b8ff" stroke="#63b8ff" points="922.7,-87.63 912.7,-91.13 922.7,-94.63 922.7,-87.63"/>
</a>
</g>
</g>
<!-- Node12 -->
<g id="Node000012" class="node">
<title>Node12</title>
<g id="a_Node000012"><a xlink:href="class_c_p_s_1_1_d_a_e_interface.html" target="_top" xlink:title=" ">
<polygon fill="white" stroke="#bfbfbf" points="899.12,-62.25 797.62,-62.25 797.62,-40 899.12,-40 899.12,-62.25"/>
<text text-anchor="middle" x="848.38" y="-48.75" font-family="Helvetica,sans-Serif" font-size="10.00">CPS::DAEInterface</text>
</a>
</g>
</g>
<!-- Node12&#45;&gt;Node1 -->
<g id="edge14_Node000001_Node000012" class="edge">
<title>Node12&#45;&gt;Node1</title>
<g id="a_edge14_Node000001_Node000012"><a xlink:title=" ">
<path fill="none" stroke="#63b8ff" d="M907.84,-65.43C926.73,-70.05 947.42,-75.11 965.41,-79.51"/>
<polygon fill="#63b8ff" stroke="#63b8ff" points="908.68,-62.03 898.14,-63.05 907.02,-68.83 908.68,-62.03"/>
</a>
</g>
</g>
<!-- Node13 -->
<g id="Node000013" class="node">
<title>Node13</title>
<g id="a_Node000013"><a xlink:href="class_shared_factory.html" target="_top" xlink:title=" ">
<polygon fill="white" stroke="#666666" points="916.75,-22.25 780,-22.25 780,0 916.75,0 916.75,-22.25"/>
<text text-anchor="middle" x="848.38" y="-8.75" font-family="Helvetica,sans-Serif" font-size="10.00">SharedFactory&lt; Resistor &gt;</text>
</a>
</g>
</g>
<!-- Node13&#45;&gt;Node1 -->
<g id="edge15_Node000001_Node000013" class="edge">
<title>Node13&#45;&gt;Node1</title>
<g id="a_edge15_Node000001_Node000013"><a xlink:title=" ">
<path fill="none" stroke="#63b8ff" d="M905.16,-26.39C909.13,-27.87 913.03,-29.45 916.75,-31.12 946.88,-44.7 978.86,-66.3 997.29,-79.54"/>
<polygon fill="#63b8ff" stroke="#63b8ff" points="906.59,-23.18 896,-23.2 904.29,-29.79 906.59,-23.18"/>
</a>
</g>
</g>
<!-- Node14 -->
<g id="Node000014" class="node">
<title>Node14</title>
<g id="a_Node000014"><a xlink:href="class_shared_factory.html" target="_top" xlink:title=" ">
<polygon fill="white" stroke="#666666" points="669.75,-22.25 565.25,-22.25 565.25,0 669.75,0 669.75,-22.25"/>
<text text-anchor="middle" x="617.5" y="-8.75" font-family="Helvetica,sans-Serif" font-size="10.00">SharedFactory&lt; T &gt;</text>
</a>
</g>
</g>
<!-- Node14&#45;&gt;Node13 -->
<g id="edge16_Node000013_Node000014" class="edge">
<title>Node14&#45;&gt;Node13</title>
<g id="a_edge16_Node000013_Node000014"><a xlink:title=" ">
<path fill="none" stroke="orange" stroke-dasharray="5,2" d="M681.52,-11.12C712.05,-11.12 748.74,-11.12 779.84,-11.12"/>
<polygon fill="orange" stroke="orange" points="681.66,-7.63 671.66,-11.13 681.66,-14.63 681.66,-7.63"/>
</a>
</g>
<text text-anchor="middle" x="732.75" y="-15.88" font-family="Helvetica,sans-Serif" font-size="10.00" fill="grey"> &lt; Resistor &gt;</text>
</g>
</g>
</svg>
