<?xml version="1.0" encoding="UTF-8" standalone="no"?>
<!DOCTYPE svg PUBLIC "-//W3C//DTD SVG 1.1//EN"
 "http://www.w3.org/Graphics/SVG/1.1/DTD/svg11.dtd">
<!-- Generated by graphviz version 12.2.1 (20241206.2353)
 -->
<!-- Title: CPS::DP::Ph1::AvVoltageSourceInverterDQ Pages: 1 -->
<svg width="1467pt" height="242pt"
 viewBox="0.00 0.00 1467.00 241.50" xmlns="http://www.w3.org/2000/svg" xmlns:xlink="http://www.w3.org/1999/xlink">
<g id="graph0" class="graph" transform="scale(1 1) rotate(0) translate(4 237.5)">
<title>CPS::DP::Ph1::AvVoltageSourceInverterDQ</title>
<!-- Node1 -->
<g id="Node000001" class="node">
<title>Node1</title>
<g id="a_Node000001"><a xlink:title=" ">
<polygon fill="#999999" stroke="#666666" points="1459,-91.5 1297.5,-91.5 1297.5,-55 1459,-55 1459,-91.5"/>
<text text-anchor="start" x="1305.5" y="-78" font-family="Helvetica,sans-Serif" font-size="10.00">CPS::DP::Ph1::AvVoltageSource</text>
<text text-anchor="middle" x="1378.25" y="-63.75" font-family="Helvetica,sans-Serif" font-size="10.00">InverterDQ</text>
</a>
</g>
</g>
<!-- Node2 -->
<g id="Node000002" class="node">
<title>Node2</title>
<g id="a_Node000002"><a xlink:href="class_c_p_s_1_1_composite_power_comp.html" target="_top" xlink:title=" ">
<polygon fill="white" stroke="#666666" points="1260.12,-146.5 1114.38,-146.5 1114.38,-110 1260.12,-110 1260.12,-146.5"/>
<text text-anchor="start" x="1122.38" y="-133" font-family="Helvetica,sans-Serif" font-size="10.00">CPS::CompositePowerComp</text>
<text text-anchor="middle" x="1187.25" y="-118.75" font-family="Helvetica,sans-Serif" font-size="10.00">&lt; Complex &gt;</text>
</a>
</g>
</g>
<!-- Node2&#45;&gt;Node1 -->
<g id="edge1_Node000001_Node000002" class="edge">
<title>Node2&#45;&gt;Node1</title>
<g id="a_edge1_Node000001_Node000002"><a xlink:title=" ">
<path fill="none" stroke="#63b8ff" d="M1263.16,-106.45C1279.6,-101.67 1296.87,-96.64 1312.86,-91.99"/>
<polygon fill="#63b8ff" stroke="#63b8ff" points="1262.58,-102.98 1253.95,-109.13 1264.53,-109.7 1262.58,-102.98"/>
</a>
</g>
</g>
<!-- Node3 -->
<g id="Node000003" class="node">
<title>Node3</title>
<g id="a_Node000003"><a xlink:href="class_c_p_s_1_1_m_n_a_sim_power_comp.html" target="_top" xlink:title=" ">
<polygon fill="white" stroke="#666666" points="920.88,-180.5 784.88,-180.5 784.88,-144 920.88,-144 920.88,-180.5"/>
<text text-anchor="start" x="792.88" y="-167" font-family="Helvetica,sans-Serif" font-size="10.00">CPS::MNASimPowerComp</text>
<text text-anchor="middle" x="852.88" y="-152.75" font-family="Helvetica,sans-Serif" font-size="10.00">&lt; Complex &gt;</text>
</a>
</g>
</g>
<!-- Node3&#45;&gt;Node2 -->
<g id="edge2_Node000002_Node000003" class="edge">
<title>Node3&#45;&gt;Node2</title>
<g id="a_edge2_Node000002_Node000003"><a xlink:title=" ">
<path fill="none" stroke="#63b8ff" d="M932.58,-154.2C987.55,-148.58 1060.39,-141.13 1113.91,-135.65"/>
<polygon fill="#63b8ff" stroke="#63b8ff" points="932.23,-150.72 922.64,-155.22 932.95,-157.68 932.23,-150.72"/>
</a>
</g>
</g>
<!-- Node4 -->
<g id="Node000004" class="node">
<title>Node4</title>
<g id="a_Node000004"><a xlink:href="class_c_p_s_1_1_sim_power_comp.html" target="_top" xlink:title=" ">
<polygon fill="white" stroke="#666666" points="676.88,-233.5 558.12,-233.5 558.12,-197 676.88,-197 676.88,-233.5"/>
<text text-anchor="start" x="566.12" y="-220" font-family="Helvetica,sans-Serif" font-size="10.00">CPS::SimPowerComp&lt;</text>
<text text-anchor="middle" x="617.5" y="-205.75" font-family="Helvetica,sans-Serif" font-size="10.00"> Complex &gt;</text>
</a>
</g>
</g>
<!-- Node4&#45;&gt;Node3 -->
<g id="edge3_Node000003_Node000004" class="edge">
<title>Node4&#45;&gt;Node3</title>
<g id="a_edge3_Node000003_Node000004"><a xlink:title=" ">
<path fill="none" stroke="#63b8ff" d="M688.1,-199.88C711.58,-194.65 737.94,-188.74 762,-183.25 769.34,-181.57 777.02,-179.8 784.66,-178.03"/>
<polygon fill="#63b8ff" stroke="#63b8ff" points="687.66,-196.39 678.65,-201.98 689.18,-203.22 687.66,-196.39"/>
</a>
</g>
</g>
<!-- Node5 -->
<g id="Node000005" class="node">
<title>Node5</title>
<g id="a_Node000005"><a xlink:href="class_c_p_s_1_1_topological_power_comp.html" target="_top" xlink:title=" ">
<polygon fill="white" stroke="#666666" points="299.25,-201.38 152,-201.38 152,-179.12 299.25,-179.12 299.25,-201.38"/>
<text text-anchor="middle" x="225.62" y="-187.88" font-family="Helvetica,sans-Serif" font-size="10.00">CPS::TopologicalPowerComp</text>
</a>
</g>
</g>
<!-- Node5&#45;&gt;Node4 -->
<g id="edge4_Node000004_Node000005" class="edge">
<title>Node5&#45;&gt;Node4</title>
<g id="a_edge4_Node000004_Node000005"><a xlink:title=" ">
<path fill="none" stroke="#63b8ff" d="M276.23,-204.75C294.88,-209.6 316.38,-214.47 336.25,-217.25 422.22,-229.28 444.77,-225.82 531.5,-222.25 540.08,-221.9 549.14,-221.35 558.01,-220.7"/>
<polygon fill="#63b8ff" stroke="#63b8ff" points="277.34,-201.43 266.78,-202.23 275.53,-208.19 277.34,-201.43"/>
</a>
</g>
</g>
<!-- Node7 -->
<g id="Node000007" class="node">
<title>Node7</title>
<g id="a_Node000007"><a xlink:href="class_c_p_s_1_1_sim_power_comp.html" target="_top" xlink:title="Base class for all components that are transmitting power.">
<polygon fill="white" stroke="#666666" points="455,-208.5 336.25,-208.5 336.25,-172 455,-172 455,-208.5"/>
<text text-anchor="start" x="344.25" y="-195" font-family="Helvetica,sans-Serif" font-size="10.00">CPS::SimPowerComp&lt;</text>
<text text-anchor="middle" x="395.62" y="-180.75" font-family="Helvetica,sans-Serif" font-size="10.00"> VarType &gt;</text>
</a>
</g>
</g>
<!-- Node5&#45;&gt;Node7 -->
<g id="edge7_Node000007_Node000005" class="edge">
<title>Node5&#45;&gt;Node7</title>
<g id="a_edge7_Node000007_Node000005"><a xlink:title=" ">
<path fill="none" stroke="#63b8ff" d="M310.58,-190.25C319.16,-190.25 327.74,-190.25 335.96,-190.25"/>
<polygon fill="#63b8ff" stroke="#63b8ff" points="310.85,-186.75 300.85,-190.25 310.85,-193.75 310.85,-186.75"/>
</a>
</g>
</g>
<!-- Node10 -->
<g id="Node000010" class="node">
<title>Node10</title>
<g id="a_Node000010"><a xlink:href="class_c_p_s_1_1_sim_power_comp.html" target="_top" xlink:title="Base class for all components that are transmitting power.">
<polygon fill="white" stroke="#666666" points="455,-114.5 336.25,-114.5 336.25,-78 455,-78 455,-114.5"/>
<text text-anchor="start" x="344.25" y="-101" font-family="Helvetica,sans-Serif" font-size="10.00">CPS::SimPowerComp&lt;</text>
<text text-anchor="middle" x="395.62" y="-86.75" font-family="Helvetica,sans-Serif" font-size="10.00"> VarType &gt;</text>
</a>
</g>
</g>
<!-- Node5&#45;&gt;Node10 -->
<g id="edge11_Node000010_Node000005" class="edge">
<title>Node5&#45;&gt;Node10</title>
<g id="a_edge11_Node000010_Node000005"><a xlink:title=" ">
<path fill="none" stroke="#63b8ff" d="M253.7,-172.49C275.58,-158.44 307.38,-138.68 336.25,-123.25 341.47,-120.46 347.03,-117.67 352.57,-114.99"/>
<polygon fill="#63b8ff" stroke="#63b8ff" points="251.87,-169.51 245.38,-177.88 255.67,-175.39 251.87,-169.51"/>
</a>
</g>
</g>
<!-- Node6 -->
<g id="Node000006" class="node">
<title>Node6</title>
<g id="a_Node000006"><a xlink:href="class_c_p_s_1_1_identified_object.html" target="_top" xlink:title=" ">
<polygon fill="white" stroke="#666666" points="115,-201.38 0,-201.38 0,-179.12 115,-179.12 115,-201.38"/>
<text text-anchor="middle" x="57.5" y="-187.88" font-family="Helvetica,sans-Serif" font-size="10.00">CPS::IdentifiedObject</text>
</a>
</g>
</g>
<!-- Node6&#45;&gt;Node5 -->
<g id="edge5_Node000005_Node000006" class="edge">
<title>Node6&#45;&gt;Node5</title>
<g id="a_edge5_Node000005_Node000006"><a xlink:title=" ">
<path fill="none" stroke="#63b8ff" d="M126.7,-190.25C134.95,-190.25 143.41,-190.25 151.73,-190.25"/>
<polygon fill="#63b8ff" stroke="#63b8ff" points="126.72,-186.75 116.72,-190.25 126.72,-193.75 126.72,-186.75"/>
</a>
</g>
</g>
<!-- Node7&#45;&gt;Node4 -->
<g id="edge6_Node000004_Node000007" class="edge">
<title>Node7&#45;&gt;Node4</title>
<g id="a_edge6_Node000004_Node000007"><a xlink:title=" ">
<path fill="none" stroke="orange" stroke-dasharray="5,2" d="M466.67,-198.21C495.98,-201.55 529.65,-205.38 557.65,-208.56"/>
<polygon fill="orange" stroke="orange" points="467.09,-194.74 456.76,-197.09 466.3,-201.7 467.09,-194.74"/>
</a>
</g>
<text text-anchor="middle" x="502.25" y="-209.74" font-family="Helvetica,sans-Serif" font-size="10.00" fill="grey"> &lt; Complex &gt;</text>
</g>
<!-- Node8 -->
<g id="Node000008" class="node">
<title>Node8</title>
<g id="a_Node000008"><a xlink:href="class_c_p_s_1_1_m_n_a_interface.html" target="_top" xlink:title="Interface to be implemented by all models used by the MNA solver.">
<polygon fill="white" stroke="#666666" points="448.62,-154.38 342.62,-154.38 342.62,-132.12 448.62,-132.12 448.62,-154.38"/>
<text text-anchor="middle" x="395.62" y="-140.88" font-family="Helvetica,sans-Serif" font-size="10.00">CPS::MNAInterface</text>
</a>
</g>
</g>
<!-- Node8&#45;&gt;Node3 -->
<g id="edge8_Node000003_Node000008" class="edge">
<title>Node8&#45;&gt;Node3</title>
<g id="a_edge8_Node000003_Node000008"><a xlink:title=" ">
<path fill="none" stroke="#63b8ff" d="M460.24,-147.55C464.55,-147.8 468.84,-148.04 473,-148.25 581.96,-153.83 708.65,-158.05 784.44,-160.34"/>
<polygon fill="#63b8ff" stroke="#63b8ff" points="460.49,-144.06 450.3,-146.95 460.07,-151.05 460.49,-144.06"/>
</a>
</g>
</g>
<!-- Node9 -->
<g id="Node000009" class="node">
<title>Node9</title>
<g id="a_Node000009"><a xlink:href="class_c_p_s_1_1_m_n_a_sim_power_comp.html" target="_top" xlink:title="Base class for all MNA components that are transmitting power.">
<polygon fill="white" stroke="#666666" points="685.5,-141.5 549.5,-141.5 549.5,-105 685.5,-105 685.5,-141.5"/>
<text text-anchor="start" x="557.5" y="-128" font-family="Helvetica,sans-Serif" font-size="10.00">CPS::MNASimPowerComp</text>
<text text-anchor="middle" x="617.5" y="-113.75" font-family="Helvetica,sans-Serif" font-size="10.00">&lt; VarType &gt;</text>
</a>
</g>
</g>
<!-- Node8&#45;&gt;Node9 -->
<g id="edge12_Node000009_Node000008" class="edge">
<title>Node8&#45;&gt;Node9</title>
<g id="a_edge12_Node000009_Node000008"><a xlink:title=" ">
<path fill="none" stroke="#63b8ff" d="M460.23,-137.46C488.09,-134.93 520.81,-131.95 549.09,-129.38"/>
<polygon fill="#63b8ff" stroke="#63b8ff" points="460.16,-133.96 450.52,-138.35 460.79,-140.93 460.16,-133.96"/>
</a>
</g>
</g>
<!-- Node12 -->
<g id="Node000012" class="node">
<title>Node12</title>
<g id="a_Node000012"><a xlink:href="class_c_p_s_1_1_m_n_a_sim_power_comp.html" target="_top" xlink:title="Base class for all MNA components that are transmitting power.">
<polygon fill="white" stroke="#666666" points="685.5,-86.5 549.5,-86.5 549.5,-50 685.5,-50 685.5,-86.5"/>
<text text-anchor="start" x="557.5" y="-73" font-family="Helvetica,sans-Serif" font-size="10.00">CPS::MNASimPowerComp</text>
<text text-anchor="middle" x="617.5" y="-58.75" font-family="Helvetica,sans-Serif" font-size="10.00">&lt; VarType &gt;</text>
</a>
</g>
</g>
<!-- Node8&#45;&gt;Node12 -->
<g id="edge16_Node000012_Node000008" class="edge">
<title>Node8&#45;&gt;Node12</title>
<g id="a_edge16_Node000012_Node000008"><a xlink:title=" ">
<path fill="none" stroke="#63b8ff" d="M441.28,-128.02C476.05,-116.16 524.48,-99.64 561.62,-86.97"/>
<polygon fill="#63b8ff" stroke="#63b8ff" points="440.27,-124.67 431.93,-131.21 442.53,-131.29 440.27,-124.67"/>
</a>
</g>
</g>
<!-- Node9&#45;&gt;Node3 -->
<g id="edge9_Node000003_Node000009" class="edge">
<title>Node9&#45;&gt;Node3</title>
<g id="a_edge9_Node000003_Node000009"><a xlink:title=" ">
<path fill="none" stroke="orange" stroke-dasharray="5,2" d="M697.11,-131.4C718.25,-134.02 741.06,-137.24 762,-141 769.42,-142.33 777.14,-143.89 784.81,-145.55"/>
<polygon fill="orange" stroke="orange" points="697.74,-127.96 687.39,-130.23 696.9,-134.9 697.74,-127.96"/>
</a>
</g>
<text text-anchor="middle" x="732.75" y="-145.75" font-family="Helvetica,sans-Serif" font-size="10.00" fill="grey"> &lt; Complex &gt;</text>
</g>
<!-- Node10&#45;&gt;Node9 -->
<g id="edge10_Node000009_Node000010" class="edge">
<title>Node10&#45;&gt;Node9</title>
<g id="a_edge10_Node000009_Node000010"><a xlink:title=" ">
<path fill="none" stroke="#63b8ff" d="M466.35,-104.81C492.8,-108.06 522.85,-111.75 549.08,-114.97"/>
<polygon fill="#63b8ff" stroke="#63b8ff" points="467.11,-101.38 456.76,-103.63 466.26,-108.33 467.11,-101.38"/>
</a>
</g>
</g>
<!-- Node10&#45;&gt;Node12 -->
<g id="edge15_Node000012_Node000010" class="edge">
<title>Node10&#45;&gt;Node12</title>
<g id="a_edge15_Node000012_Node000010"><a xlink:title=" ">
<path fill="none" stroke="#63b8ff" d="M466.46,-83.2C468.66,-82.87 470.85,-82.55 473,-82.25 497.79,-78.78 525.11,-75.88 549.2,-73.64"/>
<polygon fill="#63b8ff" stroke="#63b8ff" points="466.16,-79.71 456.83,-84.74 467.26,-86.62 466.16,-79.71"/>
</a>
</g>
</g>
<!-- Node11 -->
<g id="Node000011" class="node">
<title>Node11</title>
<g id="a_Node000011"><a xlink:href="class_c_p_s_1_1_composite_power_comp.html" target="_top" xlink:title="Base class for composite power components.">
<polygon fill="white" stroke="#666666" points="925.75,-113.5 780,-113.5 780,-77 925.75,-77 925.75,-113.5"/>
<text text-anchor="start" x="788" y="-100" font-family="Helvetica,sans-Serif" font-size="10.00">CPS::CompositePowerComp</text>
<text text-anchor="middle" x="852.88" y="-85.75" font-family="Helvetica,sans-Serif" font-size="10.00">&lt; VarType &gt;</text>
</a>
</g>
</g>
<!-- Node11&#45;&gt;Node2 -->
<g id="edge13_Node000002_Node000011" class="edge">
<title>Node11&#45;&gt;Node2</title>
<g id="a_edge13_Node000002_Node000011"><a xlink:title=" ">
<path fill="none" stroke="orange" stroke-dasharray="5,2" d="M937.35,-103.54C991.74,-108.94 1061.99,-115.91 1113.98,-121.08"/>
<polygon fill="orange" stroke="orange" points="937.8,-100.07 927.5,-102.56 937.11,-107.03 937.8,-100.07"/>
</a>
</g>
<text text-anchor="middle" x="1019.88" y="-123.25" font-family="Helvetica,sans-Serif" font-size="10.00" fill="grey"> &lt; Complex &gt;</text>
</g>
<!-- Node12&#45;&gt;Node11 -->
<g id="edge14_Node000011_Node000012" class="edge">
<title>Node12&#45;&gt;Node11</title>
<g id="a_edge14_Node000011_Node000012"><a xlink:title=" ">
<path fill="none" stroke="#63b8ff" d="M696.97,-77.33C723.77,-80.43 753.6,-83.88 779.87,-86.92"/>
<polygon fill="#63b8ff" stroke="#63b8ff" points="697.53,-73.87 687.19,-76.2 696.72,-80.82 697.53,-73.87"/>
</a>
</g>
</g>
<!-- Node13 -->
<g id="Node000013" class="node">
<title>Node13</title>
<g id="a_Node000013"><a xlink:href="class_c_p_s_1_1_base_1_1_av_voltage_source_inverter_d_q.html" target="_top" xlink:title="Base model of average inverter.">
<polygon fill="white" stroke="#666666" points="1260.5,-91.5 1114,-91.5 1114,-55 1260.5,-55 1260.5,-91.5"/>
<text text-anchor="start" x="1122" y="-78" font-family="Helvetica,sans-Serif" font-size="10.00">CPS::Base::AvVoltageSource</text>
<text text-anchor="middle" x="1187.25" y="-63.75" font-family="Helvetica,sans-Serif" font-size="10.00">InverterDQ</text>
</a>
</g>
</g>
<!-- Node13&#45;&gt;Node1 -->
<g id="edge17_Node000001_Node000013" class="edge">
<title>Node13&#45;&gt;Node1</title>
<g id="a_edge17_Node000001_Node000013"><a xlink:title=" ">
<path fill="none" stroke="#63b8ff" d="M1272.03,-73.25C1280.34,-73.25 1288.77,-73.25 1297.05,-73.25"/>
<polygon fill="#63b8ff" stroke="#63b8ff" points="1272.3,-69.75 1262.3,-73.25 1272.3,-76.75 1272.3,-69.75"/>
</a>
</g>
</g>
<!-- Node14 -->
<g id="Node000014" class="node">
<title>Node14</title>
<g id="a_Node000014"><a xlink:href="class_shared_factory.html" target="_top" xlink:title=" ">
<polygon fill="white" stroke="#666666" points="1256.38,-36.5 1118.12,-36.5 1118.12,0 1256.38,0 1256.38,-36.5"/>
<text text-anchor="start" x="1126.12" y="-23" font-family="Helvetica,sans-Serif" font-size="10.00">SharedFactory&lt; AvVoltage</text>
<text text-anchor="middle" x="1187.25" y="-8.75" font-family="Helvetica,sans-Serif" font-size="10.00">SourceInverterDQ &gt;</text>
</a>
</g>
</g>
<!-- Node14&#45;&gt;Node1 -->
<g id="edge18_Node000001_Node000014" class="edge">
<title>Node14&#45;&gt;Node1</title>
<g id="a_edge18_Node000001_Node000014"><a xlink:title=" ">
<path fill="none" stroke="#63b8ff" d="M1263.16,-40.05C1279.6,-44.83 1296.87,-49.86 1312.86,-54.51"/>
<polygon fill="#63b8ff" stroke="#63b8ff" points="1264.53,-36.8 1253.95,-37.37 1262.58,-43.52 1264.53,-36.8"/>
</a>
</g>
</g>
<!-- Node15 -->
<g id="Node000015" class="node">
<title>Node15</title>
<g id="a_Node000015"><a xlink:href="class_shared_factory.html" target="_top" xlink:title=" ">
<polygon fill="white" stroke="#666666" points="905.12,-29.38 800.62,-29.38 800.62,-7.12 905.12,-7.12 905.12,-29.38"/>
<text text-anchor="middle" x="852.88" y="-15.88" font-family="Helvetica,sans-Serif" font-size="10.00">SharedFactory&lt; T &gt;</text>
</a>
</g>
</g>
<!-- Node15&#45;&gt;Node14 -->
<g id="edge19_Node000014_Node000015" class="edge">
<title>Node15&#45;&gt;Node14</title>
<g id="a_edge19_Node000014_Node000015"><a xlink:title=" ">
<path fill="none" stroke="orange" stroke-dasharray="5,2" d="M916.9,-18.25C974.28,-18.25 1058.82,-18.25 1117.83,-18.25"/>
<polygon fill="orange" stroke="orange" points="916.96,-14.75 906.96,-18.25 916.96,-21.75 916.96,-14.75"/>
</a>
</g>
<text text-anchor="middle" x="1019.88" y="-23" font-family="Helvetica,sans-Serif" font-size="10.00" fill="grey"> &lt; AvVoltageSourceInverterDQ &gt;</text>
</g>
</g>
</svg>
