<?xml version="1.0" encoding="UTF-8" standalone="no"?>
<!DOCTYPE svg PUBLIC "-//W3C//DTD SVG 1.1//EN"
 "http://www.w3.org/Graphics/SVG/1.1/DTD/svg11.dtd">
<!-- Generated by graphviz version 12.2.1 (20241206.2353)
 -->
<!-- Title: CPS::Signal::SteamTurbine Pages: 1 -->
<svg width="441pt" height="221pt"
 viewBox="0.00 0.00 441.12 221.25" xmlns="http://www.w3.org/2000/svg" xmlns:xlink="http://www.w3.org/1999/xlink">

<svg id="main" version="1.1" xmlns="http://www.w3.org/2000/svg" xmlns:xlink="http://www.w3.org/1999/xlink" xml:space="preserve">

<style type="text/css"><![CDATA[
.node, .edge {opacity: 0.7;}
.node.selected, .edge.selected {opacity: 1;}
.edge:hover path { stroke: red; }
.edge:hover polygon { stroke: red; fill: red; }
]]></style>
<script type="application/ecmascript" xlink:href="svg.min.js"/>
<svg id="graph" class="graph">
<g id="graph0" class="graph" transform="scale(1 1) rotate(0) translate(4 217.25)">
<title>CPS::Signal::SteamTurbine</title>
<!-- Node1 -->
<g id="Node000001" class="node">
<title>Node1</title>
<g id="a_Node000001"><a xlink:title=" ">
<polygon fill="#999999" stroke="#666666" points="265.88,-22.25 128.38,-22.25 128.38,0 265.88,0 265.88,-22.25"/>
<text text-anchor="middle" x="197.12" y="-8.75" font-family="Helvetica,sans-Serif" font-size="10.00">CPS::Signal::SteamTurbine</text>
</a>
</g>
</g>
<!-- Node2 -->
<g id="Node000002" class="node">
<title>Node2</title>
<g id="a_Node000002"><a xlink:href="class_c_p_s_1_1_sim_signal_comp.html" target="_top" xlink:title=" ">
<polygon fill="white" stroke="#666666" points="127,-81.5 17.25,-81.5 17.25,-59.25 127,-59.25 127,-81.5"/>
<text text-anchor="middle" x="72.12" y="-68" font-family="Helvetica,sans-Serif" font-size="10.00">CPS::SimSignalComp</text>
</a>
</g>
</g>
<!-- Node2&#45;&gt;Node1 -->
<g id="edge1_Node000001_Node000002" class="edge">
<title>Node2&#45;&gt;Node1</title>
<g id="a_edge1_Node000001_Node000002"><a xlink:title=" ">
<path fill="none" stroke="#63b8ff" d="M105.49,-54.09C127.26,-44.12 155.09,-31.38 174.34,-22.56"/>
<polygon fill="#63b8ff" stroke="#63b8ff" points="104.06,-50.9 96.43,-58.24 106.98,-57.26 104.06,-50.9"/>
</a>
</g>
</g>
<!-- Node3 -->
<g id="Node000003" class="node">
<title>Node3</title>
<g id="a_Node000003"><a xlink:href="class_c_p_s_1_1_topological_signal_comp.html" target="_top" xlink:title=" ">
<polygon fill="white" stroke="#666666" points="144.25,-154 0,-154 0,-131.75 144.25,-131.75 144.25,-154"/>
<text text-anchor="middle" x="72.12" y="-140.5" font-family="Helvetica,sans-Serif" font-size="10.00">CPS::TopologicalSignalComp</text>
</a>
</g>
</g>
<!-- Node3&#45;&gt;Node2 -->
<g id="edge2_Node000002_Node000003" class="edge">
<title>Node3&#45;&gt;Node2</title>
<g id="a_edge2_Node000002_Node000003"><a xlink:title=" ">
<path fill="none" stroke="#63b8ff" d="M72.12,-119.97C72.12,-107.26 72.12,-91.83 72.12,-81.82"/>
<polygon fill="#63b8ff" stroke="#63b8ff" points="68.63,-119.96 72.13,-129.96 75.63,-119.96 68.63,-119.96"/>
</a>
</g>
</g>
<!-- Node4 -->
<g id="Node000004" class="node">
<title>Node4</title>
<g id="a_Node000004"><a xlink:href="class_c_p_s_1_1_identified_object.html" target="_top" xlink:title=" ">
<polygon fill="white" stroke="#666666" points="129.62,-213.25 14.62,-213.25 14.62,-191 129.62,-191 129.62,-213.25"/>
<text text-anchor="middle" x="72.12" y="-199.75" font-family="Helvetica,sans-Serif" font-size="10.00">CPS::IdentifiedObject</text>
</a>
</g>
</g>
<!-- Node4&#45;&gt;Node3 -->
<g id="edge3_Node000003_Node000004" class="edge">
<title>Node4&#45;&gt;Node3</title>
<g id="a_edge3_Node000003_Node000004"><a xlink:title=" ">
<path fill="none" stroke="#63b8ff" d="M72.12,-179.4C72.12,-170.8 72.12,-161.31 72.12,-154.31"/>
<polygon fill="#63b8ff" stroke="#63b8ff" points="68.63,-179.11 72.13,-189.11 75.63,-179.11 68.63,-179.11"/>
</a>
</g>
</g>
<!-- Node5 -->
<g id="Node000005" class="node">
<title>Node5</title>
<g id="a_Node000005"><a xlink:href="class_c_p_s_1_1_base_1_1_turbine.html" target="_top" xlink:title="Base model for Turbines.">
<polygon fill="white" stroke="#666666" points="249,-81.5 145.25,-81.5 145.25,-59.25 249,-59.25 249,-81.5"/>
<text text-anchor="middle" x="197.12" y="-68" font-family="Helvetica,sans-Serif" font-size="10.00">CPS::Base::Turbine</text>
</a>
</g>
</g>
<!-- Node5&#45;&gt;Node1 -->
<g id="edge4_Node000001_Node000005" class="edge">
<title>Node5&#45;&gt;Node1</title>
<g id="a_edge4_Node000001_Node000005"><a xlink:title=" ">
<path fill="none" stroke="#63b8ff" d="M197.12,-47.65C197.12,-39.05 197.12,-29.56 197.12,-22.56"/>
<polygon fill="#63b8ff" stroke="#63b8ff" points="193.63,-47.36 197.13,-57.36 200.63,-47.36 193.63,-47.36"/>
</a>
</g>
</g>
<!-- Node6 -->
<g id="Node000006" class="node">
<title>Node6</title>
<g id="a_Node000006"><a xlink:href="class_shared_factory.html" target="_top" xlink:title=" ">
<polygon fill="white" stroke="#666666" points="431.38,-81.5 266.88,-81.5 266.88,-59.25 431.38,-59.25 431.38,-81.5"/>
<text text-anchor="middle" x="349.12" y="-68" font-family="Helvetica,sans-Serif" font-size="10.00">SharedFactory&lt; SteamTurbine &gt;</text>
</a>
</g>
</g>
<!-- Node6&#45;&gt;Node1 -->
<g id="edge5_Node000001_Node000006" class="edge">
<title>Node6&#45;&gt;Node1</title>
<g id="a_edge5_Node000001_Node000006"><a xlink:title=" ">
<path fill="none" stroke="#63b8ff" d="M310.74,-54.92C284.07,-44.87 249.14,-31.72 225.08,-22.66"/>
<polygon fill="#63b8ff" stroke="#63b8ff" points="309.24,-58.09 319.83,-58.34 311.7,-51.54 309.24,-58.09"/>
</a>
</g>
</g>
<!-- Node7 -->
<g id="Node000007" class="node">
<title>Node7</title>
<g id="a_Node000007"><a xlink:href="class_shared_factory.html" target="_top" xlink:title=" ">
<polygon fill="white" stroke="#666666" points="401.38,-154 296.88,-154 296.88,-131.75 401.38,-131.75 401.38,-154"/>
<text text-anchor="middle" x="349.12" y="-140.5" font-family="Helvetica,sans-Serif" font-size="10.00">SharedFactory&lt; T &gt;</text>
</a>
</g>
</g>
<!-- Node7&#45;&gt;Node6 -->
<g id="edge6_Node000006_Node000007" class="edge">
<title>Node7&#45;&gt;Node6</title>
<g id="a_edge6_Node000006_Node000007"><a xlink:title=" ">
<path fill="none" stroke="orange" stroke-dasharray="5,2" d="M349.12,-119.97C349.12,-107.26 349.12,-91.83 349.12,-81.82"/>
<polygon fill="orange" stroke="orange" points="345.63,-119.96 349.13,-129.96 352.63,-119.96 345.63,-119.96"/>
</a>
</g>
<text text-anchor="middle" x="391.12" y="-104.25" font-family="Helvetica,sans-Serif" font-size="10.00" fill="grey"> &lt; SteamTurbine &gt;</text>
</g>
</g>
</svg>
</svg>

<style type='text/css'>
<![CDATA[
[data-mouse-over-selected='false'] { opacity: 0.7; }
[data-mouse-over-selected='true']  { opacity: 1.0; }
]]>
</style>
<script type="application/ecmascript"><![CDATA[
document.addEventListener('DOMContentLoaded', (event) => {
  highlightEdges();
  highlightAdjacentNodes();
});
]]></script>
</svg>
