<?xml version="1.0" encoding="UTF-8" standalone="no"?>
<!DOCTYPE svg PUBLIC "-//W3C//DTD SVG 1.1//EN"
 "http://www.w3.org/Graphics/SVG/1.1/DTD/svg11.dtd">
<!-- Generated by graphviz version 12.2.1 (20241206.2353)
 -->
<!-- Title: CPS::DP::Ph1::VoltageSourceRamp Pages: 1 -->
<!--zoomable 216 -->

<svg id="main" version="1.1" xmlns="http://www.w3.org/2000/svg" xmlns:xlink="http://www.w3.org/1999/xlink" xml:space="preserve" onload="init(evt)">

<style type="text/css"><![CDATA[
.node, .edge {opacity: 0.7;}
.node.selected, .edge.selected {opacity: 1;}
.edge:hover path { stroke: red; }
.edge:hover polygon { stroke: red; fill: red; }
]]></style>

<defs>
  <circle id="rim" cx="0" cy="0" r="7"/>
  <circle id="rim2" cx="0" cy="0" r="3.5"/>
  <g id="zoomPlus">
    <use xlink:href="#rim" fill="#404040"><set attributeName="fill" to="#808080" begin="zoomplus.mouseover" end="zoomplus.mouseout"/></use>
    <path d="M-4,0h8M0,-4v8" fill="none" stroke="white" stroke-width="1.5" pointer-events="none"/>
  </g>
  <g id="zoomMin">
    <use xlink:href="#rim" fill="#404040"><set attributeName="fill" to="#808080" begin="zoomminus.mouseover" end="zoomminus.mouseout"/></use>
    <path d="M-4,0h8" fill="none" stroke="white" stroke-width="1.5" pointer-events="none"/>
  </g>
  <g id="arrowUp" transform="translate(30 24)">
    <use xlink:href="#rim"/>
    <path pointer-events="none" fill="none" stroke="white" stroke-width="1.5" d="M0,-3.0v7 M-2.5,-0.5L0,-3.0L2.5,-0.5"/>
  </g>
  <g id="arrowRight" transform="rotate(90) translate(36 -43)">
    <use xlink:href="#rim"/>
    <path pointer-events="none" fill="none" stroke="white" stroke-width="1.5" d="M0,-3.0v7 M-2.5,-0.5L0,-3.0L2.5,-0.5"/>
  </g>
  <g id="arrowDown" transform="rotate(180) translate(-30 -48)">
    <use xlink:href="#rim"/>
    <path pointer-events="none" fill="none" stroke="white" stroke-width="1.5" d="M0,-3.0v7 M-2.5,-0.5L0,-3.0L2.5,-0.5"/>
  </g>
  <g id="arrowLeft" transform="rotate(270) translate(-36 17)">
    <use xlink:href="#rim"/>
    <path pointer-events="none" fill="none" stroke="white" stroke-width="1.5" d="M0,-3.0v7 M-2.5,-0.5L0,-3.0L2.5,-0.5"/>
  </g>
  <g id="resetDef">
    <use xlink:href="#rim2" fill="#404040"><set attributeName="fill" to="#808080" begin="reset.mouseover" end="reset.mouseout"/></use>
  </g>
</defs>
<script type="application/ecmascript">
var viewWidth = 1452;
var viewHeight = 216;
var sectionId = 'dynsection-0';
</script>
<script type="application/ecmascript" xlink:href="svg.min.js"/>
<svg id="graph" class="graph">
<g id="viewport">
<title>CPS::DP::Ph1::VoltageSourceRamp</title>
<!-- Node1 -->
<g id="Node000001" class="node">
<title>Node1</title>
<g id="a_Node000001"><a xlink:title=" ">
<polygon fill="#999999" stroke="#666666" points="1444,-56.38 1268.25,-56.38 1268.25,-34.12 1444,-34.12 1444,-56.38"/>
<text text-anchor="middle" x="1356.12" y="-42.88" font-family="Helvetica,sans-Serif" font-size="10.00">CPS::DP::Ph1::VoltageSourceRamp</text>
</a>
</g>
</g>
<!-- Node2 -->
<g id="Node000002" class="node">
<title>Node2</title>
<g id="a_Node000002"><a xlink:href="class_c_p_s_1_1_composite_power_comp.html" target="_top" xlink:title=" ">
<polygon fill="white" stroke="#666666" points="1225.25,-91.5 1079.5,-91.5 1079.5,-55 1225.25,-55 1225.25,-91.5"/>
<text text-anchor="start" x="1087.5" y="-78" font-family="Helvetica,sans-Serif" font-size="10.00">CPS::CompositePowerComp</text>
<text text-anchor="middle" x="1152.38" y="-63.75" font-family="Helvetica,sans-Serif" font-size="10.00">&lt; Complex &gt;</text>
</a>
</g>
</g>
<!-- Node2&#45;&gt;Node1 -->
<g id="edge1_Node000001_Node000002" class="edge">
<title>Node2&#45;&gt;Node1</title>
<g id="a_edge1_Node000001_Node000002"><a xlink:title=" ">
<path fill="none" stroke="#63b8ff" d="M1236.98,-61.65C1248.45,-60.06 1260.22,-58.42 1271.69,-56.83"/>
<polygon fill="#63b8ff" stroke="#63b8ff" points="1236.56,-58.17 1227.14,-63.01 1237.53,-65.1 1236.56,-58.17"/>
</a>
</g>
</g>
<!-- Node3 -->
<g id="Node000003" class="node">
<title>Node3</title>
<g id="a_Node000003"><a xlink:href="class_c_p_s_1_1_m_n_a_sim_power_comp.html" target="_top" xlink:title=" ">
<polygon fill="white" stroke="#666666" points="920.88,-154.5 784.88,-154.5 784.88,-118 920.88,-118 920.88,-154.5"/>
<text text-anchor="start" x="792.88" y="-141" font-family="Helvetica,sans-Serif" font-size="10.00">CPS::MNASimPowerComp</text>
<text text-anchor="middle" x="852.88" y="-126.75" font-family="Helvetica,sans-Serif" font-size="10.00">&lt; Complex &gt;</text>
</a>
</g>
</g>
<!-- Node3&#45;&gt;Node2 -->
<g id="edge2_Node000002_Node000003" class="edge">
<title>Node3&#45;&gt;Node2</title>
<g id="a_edge2_Node000002_Node000003"><a xlink:title=" ">
<path fill="none" stroke="#63b8ff" d="M932.02,-119.7C977.54,-110.06 1034.54,-97.99 1079.02,-88.57"/>
<polygon fill="#63b8ff" stroke="#63b8ff" points="931.55,-116.22 922.49,-121.72 933,-123.07 931.55,-116.22"/>
</a>
</g>
</g>
<!-- Node4 -->
<g id="Node000004" class="node">
<title>Node4</title>
<g id="a_Node000004"><a xlink:href="class_c_p_s_1_1_sim_power_comp.html" target="_top" xlink:title=" ">
<polygon fill="white" stroke="#666666" points="676.88,-207.5 558.12,-207.5 558.12,-171 676.88,-171 676.88,-207.5"/>
<text text-anchor="start" x="566.12" y="-194" font-family="Helvetica,sans-Serif" font-size="10.00">CPS::SimPowerComp&lt;</text>
<text text-anchor="middle" x="617.5" y="-179.75" font-family="Helvetica,sans-Serif" font-size="10.00"> Complex &gt;</text>
</a>
</g>
</g>
<!-- Node4&#45;&gt;Node3 -->
<g id="edge3_Node000003_Node000004" class="edge">
<title>Node4&#45;&gt;Node3</title>
<g id="a_edge3_Node000003_Node000004"><a xlink:title=" ">
<path fill="none" stroke="#63b8ff" d="M688.1,-173.88C711.58,-168.65 737.94,-162.74 762,-157.25 769.34,-155.57 777.02,-153.8 784.66,-152.03"/>
<polygon fill="#63b8ff" stroke="#63b8ff" points="687.66,-170.39 678.65,-175.98 689.18,-177.22 687.66,-170.39"/>
</a>
</g>
</g>
<!-- Node5 -->
<g id="Node000005" class="node">
<title>Node5</title>
<g id="a_Node000005"><a xlink:href="class_c_p_s_1_1_topological_power_comp.html" target="_top" xlink:title=" ">
<polygon fill="white" stroke="#666666" points="299.25,-175.38 152,-175.38 152,-153.12 299.25,-153.12 299.25,-175.38"/>
<text text-anchor="middle" x="225.62" y="-161.88" font-family="Helvetica,sans-Serif" font-size="10.00">CPS::TopologicalPowerComp</text>
</a>
</g>
</g>
<!-- Node5&#45;&gt;Node4 -->
<g id="edge4_Node000004_Node000005" class="edge">
<title>Node5&#45;&gt;Node4</title>
<g id="a_edge4_Node000004_Node000005"><a xlink:title=" ">
<path fill="none" stroke="#63b8ff" d="M276.23,-178.75C294.88,-183.6 316.38,-188.47 336.25,-191.25 422.22,-203.28 444.77,-199.82 531.5,-196.25 540.08,-195.9 549.14,-195.35 558.01,-194.7"/>
<polygon fill="#63b8ff" stroke="#63b8ff" points="277.34,-175.43 266.78,-176.23 275.53,-182.19 277.34,-175.43"/>
</a>
</g>
</g>
<!-- Node7 -->
<g id="Node000007" class="node">
<title>Node7</title>
<g id="a_Node000007"><a xlink:href="class_c_p_s_1_1_sim_power_comp.html" target="_top" xlink:title="Base class for all components that are transmitting power.">
<polygon fill="white" stroke="#666666" points="455,-182.5 336.25,-182.5 336.25,-146 455,-146 455,-182.5"/>
<text text-anchor="start" x="344.25" y="-169" font-family="Helvetica,sans-Serif" font-size="10.00">CPS::SimPowerComp&lt;</text>
<text text-anchor="middle" x="395.62" y="-154.75" font-family="Helvetica,sans-Serif" font-size="10.00"> VarType &gt;</text>
</a>
</g>
</g>
<!-- Node5&#45;&gt;Node7 -->
<g id="edge7_Node000007_Node000005" class="edge">
<title>Node5&#45;&gt;Node7</title>
<g id="a_edge7_Node000007_Node000005"><a xlink:title=" ">
<path fill="none" stroke="#63b8ff" d="M310.58,-164.25C319.16,-164.25 327.74,-164.25 335.96,-164.25"/>
<polygon fill="#63b8ff" stroke="#63b8ff" points="310.85,-160.75 300.85,-164.25 310.85,-167.75 310.85,-160.75"/>
</a>
</g>
</g>
<!-- Node10 -->
<g id="Node000010" class="node">
<title>Node10</title>
<g id="a_Node000010"><a xlink:href="class_c_p_s_1_1_sim_power_comp.html" target="_top" xlink:title="Base class for all components that are transmitting power.">
<polygon fill="white" stroke="#666666" points="455,-88.5 336.25,-88.5 336.25,-52 455,-52 455,-88.5"/>
<text text-anchor="start" x="344.25" y="-75" font-family="Helvetica,sans-Serif" font-size="10.00">CPS::SimPowerComp&lt;</text>
<text text-anchor="middle" x="395.62" y="-60.75" font-family="Helvetica,sans-Serif" font-size="10.00"> VarType &gt;</text>
</a>
</g>
</g>
<!-- Node5&#45;&gt;Node10 -->
<g id="edge11_Node000010_Node000005" class="edge">
<title>Node5&#45;&gt;Node10</title>
<g id="a_edge11_Node000010_Node000005"><a xlink:title=" ">
<path fill="none" stroke="#63b8ff" d="M253.7,-146.49C275.58,-132.44 307.38,-112.68 336.25,-97.25 341.47,-94.46 347.03,-91.67 352.57,-88.99"/>
<polygon fill="#63b8ff" stroke="#63b8ff" points="251.87,-143.51 245.38,-151.88 255.67,-149.39 251.87,-143.51"/>
</a>
</g>
</g>
<!-- Node6 -->
<g id="Node000006" class="node">
<title>Node6</title>
<g id="a_Node000006"><a xlink:href="class_c_p_s_1_1_identified_object.html" target="_top" xlink:title=" ">
<polygon fill="white" stroke="#666666" points="115,-175.38 0,-175.38 0,-153.12 115,-153.12 115,-175.38"/>
<text text-anchor="middle" x="57.5" y="-161.88" font-family="Helvetica,sans-Serif" font-size="10.00">CPS::IdentifiedObject</text>
</a>
</g>
</g>
<!-- Node6&#45;&gt;Node5 -->
<g id="edge5_Node000005_Node000006" class="edge">
<title>Node6&#45;&gt;Node5</title>
<g id="a_edge5_Node000005_Node000006"><a xlink:title=" ">
<path fill="none" stroke="#63b8ff" d="M126.7,-164.25C134.95,-164.25 143.41,-164.25 151.73,-164.25"/>
<polygon fill="#63b8ff" stroke="#63b8ff" points="126.72,-160.75 116.72,-164.25 126.72,-167.75 126.72,-160.75"/>
</a>
</g>
</g>
<!-- Node7&#45;&gt;Node4 -->
<g id="edge6_Node000004_Node000007" class="edge">
<title>Node7&#45;&gt;Node4</title>
<g id="a_edge6_Node000004_Node000007"><a xlink:title=" ">
<path fill="none" stroke="orange" stroke-dasharray="5,2" d="M466.67,-172.21C495.98,-175.55 529.65,-179.38 557.65,-182.56"/>
<polygon fill="orange" stroke="orange" points="467.09,-168.74 456.76,-171.09 466.3,-175.7 467.09,-168.74"/>
</a>
</g>
<text text-anchor="middle" x="502.25" y="-183.74" font-family="Helvetica,sans-Serif" font-size="10.00" fill="grey"> &lt; Complex &gt;</text>
</g>
<!-- Node8 -->
<g id="Node000008" class="node">
<title>Node8</title>
<g id="a_Node000008"><a xlink:href="class_c_p_s_1_1_m_n_a_interface.html" target="_top" xlink:title="Interface to be implemented by all models used by the MNA solver.">
<polygon fill="white" stroke="#666666" points="448.62,-128.38 342.62,-128.38 342.62,-106.12 448.62,-106.12 448.62,-128.38"/>
<text text-anchor="middle" x="395.62" y="-114.88" font-family="Helvetica,sans-Serif" font-size="10.00">CPS::MNAInterface</text>
</a>
</g>
</g>
<!-- Node8&#45;&gt;Node3 -->
<g id="edge8_Node000003_Node000008" class="edge">
<title>Node8&#45;&gt;Node3</title>
<g id="a_edge8_Node000003_Node000008"><a xlink:title=" ">
<path fill="none" stroke="#63b8ff" d="M460.24,-121.55C464.55,-121.8 468.84,-122.04 473,-122.25 581.96,-127.83 708.65,-132.05 784.44,-134.34"/>
<polygon fill="#63b8ff" stroke="#63b8ff" points="460.49,-118.06 450.3,-120.95 460.07,-125.05 460.49,-118.06"/>
</a>
</g>
</g>
<!-- Node9 -->
<g id="Node000009" class="node">
<title>Node9</title>
<g id="a_Node000009"><a xlink:href="class_c_p_s_1_1_m_n_a_sim_power_comp.html" target="_top" xlink:title="Base class for all MNA components that are transmitting power.">
<polygon fill="white" stroke="#666666" points="685.5,-115.5 549.5,-115.5 549.5,-79 685.5,-79 685.5,-115.5"/>
<text text-anchor="start" x="557.5" y="-102" font-family="Helvetica,sans-Serif" font-size="10.00">CPS::MNASimPowerComp</text>
<text text-anchor="middle" x="617.5" y="-87.75" font-family="Helvetica,sans-Serif" font-size="10.00">&lt; VarType &gt;</text>
</a>
</g>
</g>
<!-- Node8&#45;&gt;Node9 -->
<g id="edge12_Node000009_Node000008" class="edge">
<title>Node8&#45;&gt;Node9</title>
<g id="a_edge12_Node000009_Node000008"><a xlink:title=" ">
<path fill="none" stroke="#63b8ff" d="M460.23,-111.46C488.09,-108.93 520.81,-105.95 549.09,-103.38"/>
<polygon fill="#63b8ff" stroke="#63b8ff" points="460.16,-107.96 450.52,-112.35 460.79,-114.93 460.16,-107.96"/>
</a>
</g>
</g>
<!-- Node12 -->
<g id="Node000012" class="node">
<title>Node12</title>
<g id="a_Node000012"><a xlink:href="class_c_p_s_1_1_m_n_a_sim_power_comp.html" target="_top" xlink:title="Base class for all MNA components that are transmitting power.">
<polygon fill="white" stroke="#666666" points="685.5,-60.5 549.5,-60.5 549.5,-24 685.5,-24 685.5,-60.5"/>
<text text-anchor="start" x="557.5" y="-47" font-family="Helvetica,sans-Serif" font-size="10.00">CPS::MNASimPowerComp</text>
<text text-anchor="middle" x="617.5" y="-32.75" font-family="Helvetica,sans-Serif" font-size="10.00">&lt; VarType &gt;</text>
</a>
</g>
</g>
<!-- Node8&#45;&gt;Node12 -->
<g id="edge16_Node000012_Node000008" class="edge">
<title>Node8&#45;&gt;Node12</title>
<g id="a_edge16_Node000012_Node000008"><a xlink:title=" ">
<path fill="none" stroke="#63b8ff" d="M441.28,-102.02C476.05,-90.16 524.48,-73.64 561.62,-60.97"/>
<polygon fill="#63b8ff" stroke="#63b8ff" points="440.27,-98.67 431.93,-105.21 442.53,-105.29 440.27,-98.67"/>
</a>
</g>
</g>
<!-- Node9&#45;&gt;Node3 -->
<g id="edge9_Node000003_Node000009" class="edge">
<title>Node9&#45;&gt;Node3</title>
<g id="a_edge9_Node000003_Node000009"><a xlink:title=" ">
<path fill="none" stroke="orange" stroke-dasharray="5,2" d="M697.11,-105.4C718.25,-108.02 741.06,-111.24 762,-115 769.42,-116.33 777.14,-117.89 784.81,-119.55"/>
<polygon fill="orange" stroke="orange" points="697.74,-101.96 687.39,-104.23 696.9,-108.9 697.74,-101.96"/>
</a>
</g>
<text text-anchor="middle" x="732.75" y="-119.75" font-family="Helvetica,sans-Serif" font-size="10.00" fill="grey"> &lt; Complex &gt;</text>
</g>
<!-- Node10&#45;&gt;Node9 -->
<g id="edge10_Node000009_Node000010" class="edge">
<title>Node10&#45;&gt;Node9</title>
<g id="a_edge10_Node000009_Node000010"><a xlink:title=" ">
<path fill="none" stroke="#63b8ff" d="M466.35,-78.81C492.8,-82.06 522.85,-85.75 549.08,-88.97"/>
<polygon fill="#63b8ff" stroke="#63b8ff" points="467.11,-75.38 456.76,-77.63 466.26,-82.33 467.11,-75.38"/>
</a>
</g>
</g>
<!-- Node10&#45;&gt;Node12 -->
<g id="edge15_Node000012_Node000010" class="edge">
<title>Node10&#45;&gt;Node12</title>
<g id="a_edge15_Node000012_Node000010"><a xlink:title=" ">
<path fill="none" stroke="#63b8ff" d="M466.46,-57.2C468.66,-56.87 470.85,-56.55 473,-56.25 497.79,-52.78 525.11,-49.88 549.2,-47.64"/>
<polygon fill="#63b8ff" stroke="#63b8ff" points="466.16,-53.71 456.83,-58.74 467.26,-60.62 466.16,-53.71"/>
</a>
</g>
</g>
<!-- Node11 -->
<g id="Node000011" class="node">
<title>Node11</title>
<g id="a_Node000011"><a xlink:href="class_c_p_s_1_1_composite_power_comp.html" target="_top" xlink:title="Base class for composite power components.">
<polygon fill="white" stroke="#666666" points="925.75,-87.5 780,-87.5 780,-51 925.75,-51 925.75,-87.5"/>
<text text-anchor="start" x="788" y="-74" font-family="Helvetica,sans-Serif" font-size="10.00">CPS::CompositePowerComp</text>
<text text-anchor="middle" x="852.88" y="-59.75" font-family="Helvetica,sans-Serif" font-size="10.00">&lt; VarType &gt;</text>
</a>
</g>
</g>
<!-- Node11&#45;&gt;Node2 -->
<g id="edge13_Node000002_Node000011" class="edge">
<title>Node11&#45;&gt;Node2</title>
<g id="a_edge13_Node000002_Node000011"><a xlink:title=" ">
<path fill="none" stroke="orange" stroke-dasharray="5,2" d="M937.32,-70.37C981.98,-70.97 1036.44,-71.7 1079.25,-72.28"/>
<polygon fill="orange" stroke="orange" points="937.45,-66.87 927.4,-70.24 937.36,-73.87 937.45,-66.87"/>
</a>
</g>
<text text-anchor="middle" x="999.62" y="-76.71" font-family="Helvetica,sans-Serif" font-size="10.00" fill="grey"> &lt; Complex &gt;</text>
</g>
<!-- Node12&#45;&gt;Node11 -->
<g id="edge14_Node000011_Node000012" class="edge">
<title>Node12&#45;&gt;Node11</title>
<g id="a_edge14_Node000011_Node000012"><a xlink:title=" ">
<path fill="none" stroke="#63b8ff" d="M696.97,-51.33C723.77,-54.43 753.6,-57.88 779.87,-60.92"/>
<polygon fill="#63b8ff" stroke="#63b8ff" points="697.53,-47.87 687.19,-50.2 696.72,-54.82 697.53,-47.87"/>
</a>
</g>
</g>
<!-- Node13 -->
<g id="Node000013" class="node">
<title>Node13</title>
<g id="a_Node000013"><a xlink:href="class_shared_factory.html" target="_top" xlink:title=" ">
<polygon fill="white" stroke="#666666" points="1231.25,-36.5 1073.5,-36.5 1073.5,0 1231.25,0 1231.25,-36.5"/>
<text text-anchor="start" x="1081.5" y="-23" font-family="Helvetica,sans-Serif" font-size="10.00">SharedFactory&lt; VoltageSource</text>
<text text-anchor="middle" x="1152.38" y="-8.75" font-family="Helvetica,sans-Serif" font-size="10.00">Ramp &gt;</text>
</a>
</g>
</g>
<!-- Node13&#45;&gt;Node1 -->
<g id="edge17_Node000001_Node000013" class="edge">
<title>Node13&#45;&gt;Node1</title>
<g id="a_edge17_Node000001_Node000013"><a xlink:title=" ">
<path fill="none" stroke="#63b8ff" d="M1242.81,-30.22C1251.35,-31.36 1260,-32.52 1268.51,-33.66"/>
<polygon fill="#63b8ff" stroke="#63b8ff" points="1243.54,-26.79 1233.17,-28.93 1242.61,-33.72 1243.54,-26.79"/>
</a>
</g>
</g>
<!-- Node14 -->
<g id="Node000014" class="node">
<title>Node14</title>
<g id="a_Node000014"><a xlink:href="class_shared_factory.html" target="_top" xlink:title=" ">
<polygon fill="white" stroke="#666666" points="905.12,-29.38 800.62,-29.38 800.62,-7.12 905.12,-7.12 905.12,-29.38"/>
<text text-anchor="middle" x="852.88" y="-15.88" font-family="Helvetica,sans-Serif" font-size="10.00">SharedFactory&lt; T &gt;</text>
</a>
</g>
</g>
<!-- Node14&#45;&gt;Node13 -->
<g id="edge18_Node000013_Node000014" class="edge">
<title>Node14&#45;&gt;Node13</title>
<g id="a_edge18_Node000013_Node000014"><a xlink:title=" ">
<path fill="none" stroke="orange" stroke-dasharray="5,2" d="M916.58,-18.25C962.21,-18.25 1024.29,-18.25 1073.15,-18.25"/>
<polygon fill="orange" stroke="orange" points="916.87,-14.75 906.87,-18.25 916.87,-21.75 916.87,-14.75"/>
</a>
</g>
<text text-anchor="middle" x="999.62" y="-23" font-family="Helvetica,sans-Serif" font-size="10.00" fill="grey"> &lt; VoltageSourceRamp &gt;</text>
</g>
</g>
</svg>

<g id="navigator" transform="translate(0 0)" fill="#404254">
  <rect fill="#f2f5e9" fill-opacity="0.5" stroke="#606060" stroke-width=".5" x="0" y="0" width="60" height="60"/>
  <use id="zoomplus" xlink:href="#zoomPlus" x="17" y="9" onmousedown="handleZoom(evt,'in')"/>
  <use id="zoomminus" xlink:href="#zoomMin" x="42" y="9" onmousedown="handleZoom(evt,'out')"/>
  <use id="reset" xlink:href="#resetDef" x="30" y="36" onmousedown="handleReset()"/>
   <use id="arrowup" xlink:href="#arrowUp" x="0" y="0" onmousedown="handlePan(0,-1)"/>
  <use id="arrowright" xlink:href="#arrowRight" x="0" y="0" onmousedown="handlePan(1,0)"/>
  <use id="arrowdown" xlink:href="#arrowDown" x="0" y="0" onmousedown="handlePan(0,1)"/>
  <use id="arrowleft" xlink:href="#arrowLeft" x="0" y="0" onmousedown="handlePan(-1,0)"/>
</g>
<svg viewBox="0 0 15 15" width="100%" height="30px" preserveAspectRatio="xMaxYMin meet">
 <g id="arrow_out" transform="scale(0.3 0.3)">
  <a xlink:href="class_c_p_s_1_1_d_p_1_1_ph1_1_1_voltage_source_ramp__inherit__graph_org.svg" target="_base">
   <rect id="button" ry="5" rx="5" y="6" x="6" height="38" width="38"
        fill="#f2f5e9" fill-opacity="0.5" stroke="#606060" stroke-width="1.0"/>
   <path id="arrow"
     d="M 11.500037,31.436501 C 11.940474,20.09759 22.043105,11.32322 32.158766,21.979434 L 37.068811,17.246167 C 37.068811,17.246167 37.088388,32 37.088388,32 L 22.160133,31.978069 C 22.160133,31.978069 26.997745,27.140456 26.997745,27.140456 C 18.528582,18.264221 13.291696,25.230495 11.500037,31.436501 z"
     style="fill:#404040;"/>
  </a>
 </g>
</svg>

<style type='text/css'>
<![CDATA[
[data-mouse-over-selected='false'] { opacity: 0.7; }
[data-mouse-over-selected='true']  { opacity: 1.0; }
]]>
</style>
<script type="application/ecmascript"><![CDATA[
document.addEventListener('DOMContentLoaded', (event) => {
  highlightEdges();
  highlightAdjacentNodes();
});
]]></script>
</svg>
