<?xml version="1.0" encoding="UTF-8" standalone="no"?>
<!DOCTYPE svg PUBLIC "-//W3C//DTD SVG 1.1//EN"
 "http://www.w3.org/Graphics/SVG/1.1/DTD/svg11.dtd">
<!-- Generated by graphviz version 12.2.1 (20241206.2353)
 -->
<!-- Title: DPsim::GpuSparseAdapter Pages: 1 -->
<svg width="309pt" height="232pt"
 viewBox="0.00 0.00 309.15 232.25" xmlns="http://www.w3.org/2000/svg" xmlns:xlink="http://www.w3.org/1999/xlink">
<g id="graph0" class="graph" transform="scale(1 1) rotate(0) translate(4 228.25)">
<title>DPsim::GpuSparseAdapter</title>
<!-- Node1 -->
<g id="Node000001" class="node">
<title>Node1</title>
<g id="a_Node000001"><a xlink:title=" ">
<polygon fill="#999999" stroke="#666666" points="212,-22.25 71.5,-22.25 71.5,0 212,0 212,-22.25"/>
<text text-anchor="middle" x="141.75" y="-8.75" font-family="Helvetica,sans-Serif" font-size="10.00">DPsim::GpuSparseAdapter</text>
</a>
</g>
</g>
<!-- Node2 -->
<g id="Node000002" class="node">
<title>Node2</title>
<g id="a_Node000002"><a xlink:href="class_d_psim_1_1_direct_linear_solver.html" target="_top" xlink:title=" ">
<polygon fill="white" stroke="#bfbfbf" points="140.5,-130.38 3,-130.38 3,-108.12 140.5,-108.12 140.5,-130.38"/>
<text text-anchor="middle" x="71.75" y="-116.88" font-family="Helvetica,sans-Serif" font-size="10.00">DPsim::DirectLinearSolver</text>
</a>
</g>
</g>
<!-- Node2&#45;&gt;Node1 -->
<g id="edge1_Node000001_Node000002" class="edge">
<title>Node2&#45;&gt;Node1</title>
<g id="a_edge1_Node000001_Node000002"><a xlink:title=" ">
<path fill="none" stroke="#63b8ff" d="M85.03,-98.12C99.84,-75.66 123.25,-40.18 134.81,-22.65"/>
<polygon fill="#63b8ff" stroke="#63b8ff" points="82.14,-96.15 79.55,-106.42 87.98,-100 82.14,-96.15"/>
</a>
</g>
</g>
<!-- Node3 -->
<g id="Node000003" class="node">
<title>Node3</title>
<g id="a_Node000003"><a xlink:href="class_d_psim_1_1_direct_linear_solver_configuration.html" target="_top" xlink:title=" ">
<polygon fill="white" stroke="#bfbfbf" points="137.5,-224.25 0,-224.25 0,-187.75 137.5,-187.75 137.5,-224.25"/>
<text text-anchor="start" x="8" y="-210.75" font-family="Helvetica,sans-Serif" font-size="10.00">DPsim::DirectLinearSolver</text>
<text text-anchor="middle" x="68.75" y="-196.5" font-family="Helvetica,sans-Serif" font-size="10.00">Configuration</text>
</a>
</g>
</g>
<!-- Node3&#45;&gt;Node2 -->
<g id="edge2_Node000002_Node000003" class="edge">
<title>Node3&#45;&gt;Node2</title>
<g id="a_edge2_Node000002_Node000003"><a xlink:title=" ">
<path fill="none" stroke="#9a32cd" stroke-dasharray="5,2" d="M69.77,-176.18C70.32,-160.53 70.98,-142.13 71.38,-130.83"/>
<polygon fill="#9a32cd" stroke="#9a32cd" points="66.28,-175.81 69.43,-185.93 73.28,-176.06 66.28,-175.81"/>
</a>
</g>
<text text-anchor="middle" x="107.55" y="-160.25" font-family="Helvetica,sans-Serif" font-size="10.00" fill="grey"> mConfiguration</text>
</g>
<!-- Node4 -->
<g id="Node000004" class="node">
<title>Node4</title>
<g id="a_Node000004"><a xlink:href="class_d_psim_1_1cuda_1_1_vector.html" target="_top" xlink:title=" ">
<polygon fill="white" stroke="#bfbfbf" points="273.62,-137.5 163.88,-137.5 163.88,-101 273.62,-101 273.62,-137.5"/>
<text text-anchor="start" x="171.88" y="-124" font-family="Helvetica,sans-Serif" font-size="10.00">DPsim::cuda::Vector</text>
<text text-anchor="middle" x="218.75" y="-109.75" font-family="Helvetica,sans-Serif" font-size="10.00">&lt; double &gt;</text>
</a>
</g>
</g>
<!-- Node4&#45;&gt;Node1 -->
<g id="edge3_Node000001_Node000004" class="edge">
<title>Node4&#45;&gt;Node1</title>
<g id="a_edge3_Node000001_Node000004"><a xlink:title=" ">
<path fill="none" stroke="#9a32cd" stroke-dasharray="5,2" d="M199.29,-91.43C183.07,-69.08 160.84,-38.44 149.34,-22.58"/>
<polygon fill="#9a32cd" stroke="#9a32cd" points="196.44,-93.46 205.15,-99.5 202.11,-89.35 196.44,-93.46"/>
</a>
</g>
<text text-anchor="middle" x="246.4" y="-73.5" font-family="Helvetica,sans-Serif" font-size="10.00" fill="grey"> mGpuIntermediateVec</text>
<text text-anchor="middle" x="246.4" y="-59.25" font-family="Helvetica,sans-Serif" font-size="10.00" fill="grey">mGpuLhsVec</text>
<text text-anchor="middle" x="246.4" y="-45" font-family="Helvetica,sans-Serif" font-size="10.00" fill="grey">mGpuRhsVec</text>
</g>
<!-- Node5 -->
<g id="Node000005" class="node">
<title>Node5</title>
<g id="a_Node000005"><a xlink:href="class_d_psim_1_1cuda_1_1_vector.html" target="_top" xlink:title=" ">
<polygon fill="white" stroke="#bfbfbf" points="287.5,-217.12 156,-217.12 156,-194.88 287.5,-194.88 287.5,-217.12"/>
<text text-anchor="middle" x="221.75" y="-203.62" font-family="Helvetica,sans-Serif" font-size="10.00">DPsim::cuda::Vector&lt; T &gt;</text>
</a>
</g>
</g>
<!-- Node5&#45;&gt;Node4 -->
<g id="edge4_Node000004_Node000005" class="edge">
<title>Node5&#45;&gt;Node4</title>
<g id="a_edge4_Node000004_Node000005"><a xlink:title=" ">
<path fill="none" stroke="orange" stroke-dasharray="5,2" d="M220.99,-183.47C220.49,-169.33 219.84,-151.07 219.37,-137.81"/>
<polygon fill="orange" stroke="orange" points="217.48,-183.23 221.33,-193.1 224.47,-182.98 217.48,-183.23"/>
</a>
</g>
<text text-anchor="middle" x="245.93" y="-160.25" font-family="Helvetica,sans-Serif" font-size="10.00" fill="grey"> &lt; double &gt;</text>
</g>
</g>
</svg>
