<?xml version="1.0" encoding="UTF-8" standalone="no"?>
<!DOCTYPE svg PUBLIC "-//W3C//DTD SVG 1.1//EN"
 "http://www.w3.org/Graphics/SVG/1.1/DTD/svg11.dtd">
<!-- Generated by graphviz version 2.50.0 (0)
 -->
<!-- Title: CPS::EMT::Ph1::Inductor Pages: 1 -->
<svg width="1080pt" height="165pt"
 viewBox="0.00 0.00 1080.00 164.50" xmlns="http://www.w3.org/2000/svg" xmlns:xlink="http://www.w3.org/1999/xlink">
<g id="graph0" class="graph" transform="scale(1 1) rotate(0) translate(4 160.5)">
<title>CPS::EMT::Ph1::Inductor</title>
<!-- Node1 -->
<g id="node1" class="node">
<title>Node1</title>
<g id="a_node1"><a xlink:title="Inductor.">
<polygon fill="#bfbfbf" stroke="black" points="942,-38.5 942,-57.5 1072,-57.5 1072,-38.5 942,-38.5"/>
<text text-anchor="middle" x="1007" y="-45.5" font-family="Helvetica,sans-Serif" font-size="10.00">CPS::EMT::Ph1::Inductor</text>
</a>
</g>
</g>
<!-- Node2 -->
<g id="node2" class="node">
<title>Node2</title>
<g id="a_node2"><a xlink:href="class_c_p_s_1_1_m_n_a_sim_power_comp.html" target="_top" xlink:title=" ">
<polygon fill="none" stroke="black" points="766.5,-77 766.5,-107 903.5,-107 903.5,-77 766.5,-77"/>
<text text-anchor="start" x="774.5" y="-95" font-family="Helvetica,sans-Serif" font-size="10.00">CPS::MNASimPowerComp</text>
<text text-anchor="middle" x="835" y="-84" font-family="Helvetica,sans-Serif" font-size="10.00">&lt; Real &gt;</text>
</a>
</g>
</g>
<!-- Node2&#45;&gt;Node1 -->
<g id="edge1" class="edge">
<title>Node2&#45;&gt;Node1</title>
<path fill="none" stroke="midnightblue" d="M903.81,-74.45C926.15,-68.67 950.13,-62.46 969.25,-57.51"/>
<polygon fill="midnightblue" stroke="midnightblue" points="902.83,-71.09 894.03,-76.98 904.59,-77.86 902.83,-71.09"/>
</g>
<!-- Node3 -->
<g id="node3" class="node">
<title>Node3</title>
<g id="a_node3"><a xlink:href="class_c_p_s_1_1_sim_power_comp.html" target="_top" xlink:title=" ">
<polygon fill="none" stroke="black" points="541,-126 541,-156 660,-156 660,-126 541,-126"/>
<text text-anchor="start" x="549" y="-144" font-family="Helvetica,sans-Serif" font-size="10.00">CPS::SimPowerComp&lt;</text>
<text text-anchor="middle" x="600.5" y="-133" font-family="Helvetica,sans-Serif" font-size="10.00"> Real &gt;</text>
</a>
</g>
</g>
<!-- Node3&#45;&gt;Node2 -->
<g id="edge2" class="edge">
<title>Node3&#45;&gt;Node2</title>
<path fill="none" stroke="midnightblue" d="M670.24,-126.51C700.56,-120.12 736.08,-112.64 766.28,-106.27"/>
<polygon fill="midnightblue" stroke="midnightblue" points="669.23,-123.15 660.17,-128.64 670.68,-130 669.23,-123.15"/>
</g>
<!-- Node4 -->
<g id="node4" class="node">
<title>Node4</title>
<g id="a_node4"><a xlink:href="class_c_p_s_1_1_topological_power_comp.html" target="_top" xlink:title=" ">
<polygon fill="none" stroke="black" points="153,-125.5 153,-144.5 301,-144.5 301,-125.5 153,-125.5"/>
<text text-anchor="middle" x="227" y="-132.5" font-family="Helvetica,sans-Serif" font-size="10.00">CPS::TopologicalPowerComp</text>
</a>
</g>
</g>
<!-- Node4&#45;&gt;Node3 -->
<g id="edge3" class="edge">
<title>Node4&#45;&gt;Node3</title>
<path fill="none" stroke="midnightblue" d="M311.22,-139.07C368.27,-141.43 445.71,-143.8 514,-143 522.61,-142.9 531.71,-142.74 540.63,-142.56"/>
<polygon fill="midnightblue" stroke="midnightblue" points="311.3,-135.57 301.17,-138.64 311.01,-142.56 311.3,-135.57"/>
</g>
<!-- Node6 -->
<g id="node6" class="node">
<title>Node6</title>
<g id="a_node6"><a xlink:href="class_c_p_s_1_1_sim_power_comp.html" target="_top" xlink:title="Base class for all components that are transmitting power.">
<polygon fill="none" stroke="black" points="338,-98 338,-128 457,-128 457,-98 338,-98"/>
<text text-anchor="start" x="346" y="-116" font-family="Helvetica,sans-Serif" font-size="10.00">CPS::SimPowerComp&lt;</text>
<text text-anchor="middle" x="397.5" y="-105" font-family="Helvetica,sans-Serif" font-size="10.00"> VarType &gt;</text>
</a>
</g>
</g>
<!-- Node4&#45;&gt;Node6 -->
<g id="edge6" class="edge">
<title>Node4&#45;&gt;Node6</title>
<path fill="none" stroke="midnightblue" d="M311.12,-124.15C320.18,-122.97 329.25,-121.78 337.92,-120.65"/>
<polygon fill="midnightblue" stroke="midnightblue" points="310.39,-120.71 300.93,-125.48 311.3,-127.65 310.39,-120.71"/>
</g>
<!-- Node5 -->
<g id="node5" class="node">
<title>Node5</title>
<g id="a_node5"><a xlink:href="class_c_p_s_1_1_identified_object.html" target="_top" xlink:title=" ">
<polygon fill="none" stroke="black" points="0,-125.5 0,-144.5 116,-144.5 116,-125.5 0,-125.5"/>
<text text-anchor="middle" x="58" y="-132.5" font-family="Helvetica,sans-Serif" font-size="10.00">CPS::IdentifiedObject</text>
</a>
</g>
</g>
<!-- Node5&#45;&gt;Node4 -->
<g id="edge4" class="edge">
<title>Node5&#45;&gt;Node4</title>
<path fill="none" stroke="midnightblue" d="M126.13,-135C134.88,-135 143.88,-135 152.72,-135"/>
<polygon fill="midnightblue" stroke="midnightblue" points="126,-131.5 116,-135 126,-138.5 126,-131.5"/>
</g>
<!-- Node6&#45;&gt;Node3 -->
<g id="edge5" class="edge">
<title>Node6&#45;&gt;Node3</title>
<path fill="none" stroke="orange" stroke-dasharray="5,2" d="M467.24,-122.58C491.15,-125.91 517.73,-129.61 540.75,-132.82"/>
<polygon fill="orange" stroke="orange" points="467.57,-119.09 457.18,-121.17 466.6,-126.02 467.57,-119.09"/>
<text text-anchor="middle" x="494.5" y="-131" font-family="Helvetica,sans-Serif" font-size="10.00"> &lt; Real &gt;</text>
</g>
<!-- Node8 -->
<g id="node8" class="node">
<title>Node8</title>
<g id="a_node8"><a xlink:href="class_c_p_s_1_1_m_n_a_sim_power_comp.html" target="_top" xlink:title="Base class for all MNA components that are transmitting power.">
<polygon fill="none" stroke="black" points="532,-77 532,-107 669,-107 669,-77 532,-77"/>
<text text-anchor="start" x="540" y="-95" font-family="Helvetica,sans-Serif" font-size="10.00">CPS::MNASimPowerComp</text>
<text text-anchor="middle" x="600.5" y="-84" font-family="Helvetica,sans-Serif" font-size="10.00">&lt; VarType &gt;</text>
</a>
</g>
</g>
<!-- Node6&#45;&gt;Node8 -->
<g id="edge9" class="edge">
<title>Node6&#45;&gt;Node8</title>
<path fill="none" stroke="midnightblue" d="M467.25,-105.82C488.15,-103.63 511.08,-101.24 531.9,-99.06"/>
<polygon fill="midnightblue" stroke="midnightblue" points="466.76,-102.35 457.18,-106.87 467.49,-109.31 466.76,-102.35"/>
</g>
<!-- Node7 -->
<g id="node7" class="node">
<title>Node7</title>
<g id="a_node7"><a xlink:href="class_c_p_s_1_1_m_n_a_interface.html" target="_top" xlink:title="Interface to be implemented by all models used by the MNA solver.">
<polygon fill="none" stroke="black" points="344,-49.5 344,-68.5 451,-68.5 451,-49.5 344,-49.5"/>
<text text-anchor="middle" x="397.5" y="-56.5" font-family="Helvetica,sans-Serif" font-size="10.00">CPS::MNAInterface</text>
</a>
</g>
</g>
<!-- Node7&#45;&gt;Node2 -->
<g id="edge7" class="edge">
<title>Node7&#45;&gt;Node2</title>
<path fill="none" stroke="midnightblue" d="M461.49,-59.12C516.39,-59.69 598.1,-61.68 669,-68 701.15,-70.86 736.59,-75.79 766.36,-80.43"/>
<polygon fill="midnightblue" stroke="midnightblue" points="461.25,-55.61 451.22,-59.02 461.19,-62.61 461.25,-55.61"/>
</g>
<!-- Node7&#45;&gt;Node8 -->
<g id="edge10" class="edge">
<title>Node7&#45;&gt;Node8</title>
<path fill="none" stroke="midnightblue" d="M461.12,-69.28C483.53,-72.96 508.89,-77.12 531.72,-80.87"/>
<polygon fill="midnightblue" stroke="midnightblue" points="461.48,-65.79 451.05,-67.63 460.35,-72.7 461.48,-65.79"/>
</g>
<!-- Node8&#45;&gt;Node2 -->
<g id="edge8" class="edge">
<title>Node8&#45;&gt;Node2</title>
<path fill="none" stroke="orange" stroke-dasharray="5,2" d="M679.27,-92C707.45,-92 739.03,-92 766.27,-92"/>
<polygon fill="orange" stroke="orange" points="679.06,-88.5 669.06,-92 679.06,-95.5 679.06,-88.5"/>
<text text-anchor="middle" x="717" y="-95" font-family="Helvetica,sans-Serif" font-size="10.00"> &lt; Real &gt;</text>
</g>
<!-- Node9 -->
<g id="node9" class="node">
<title>Node9</title>
<g id="a_node9"><a xlink:href="class_c_p_s_1_1_base_1_1_ph1_1_1_inductor.html" target="_top" xlink:title=" ">
<polygon fill="none" stroke="black" points="768.5,-38.5 768.5,-57.5 901.5,-57.5 901.5,-38.5 768.5,-38.5"/>
<text text-anchor="middle" x="835" y="-45.5" font-family="Helvetica,sans-Serif" font-size="10.00">CPS::Base::Ph1::Inductor</text>
</a>
</g>
</g>
<!-- Node9&#45;&gt;Node1 -->
<g id="edge11" class="edge">
<title>Node9&#45;&gt;Node1</title>
<path fill="none" stroke="midnightblue" d="M912.02,-48C921.98,-48 932.11,-48 941.85,-48"/>
<polygon fill="midnightblue" stroke="midnightblue" points="911.73,-44.5 901.73,-48 911.73,-51.5 911.73,-44.5"/>
</g>
<!-- Node10 -->
<g id="node10" class="node">
<title>Node10</title>
<g id="a_node10"><a xlink:href="class_shared_factory.html" target="_top" xlink:title=" ">
<polygon fill="none" stroke="black" points="765,-0.5 765,-19.5 905,-19.5 905,-0.5 765,-0.5"/>
<text text-anchor="middle" x="835" y="-7.5" font-family="Helvetica,sans-Serif" font-size="10.00">SharedFactory&lt; Inductor &gt;</text>
</a>
</g>
</g>
<!-- Node10&#45;&gt;Node1 -->
<g id="edge12" class="edge">
<title>Node10&#45;&gt;Node1</title>
<path fill="none" stroke="midnightblue" d="M888.9,-21.82C912.87,-27.18 940.82,-33.43 963.41,-38.48"/>
<polygon fill="midnightblue" stroke="midnightblue" points="889.42,-18.35 878.9,-19.59 887.89,-25.19 889.42,-18.35"/>
</g>
<!-- Node11 -->
<g id="node11" class="node">
<title>Node11</title>
<g id="a_node11"><a xlink:href="class_shared_factory.html" target="_top" xlink:title=" ">
<polygon fill="none" stroke="black" points="548,-0.5 548,-19.5 653,-19.5 653,-0.5 548,-0.5"/>
<text text-anchor="middle" x="600.5" y="-7.5" font-family="Helvetica,sans-Serif" font-size="10.00">SharedFactory&lt; T &gt;</text>
</a>
</g>
</g>
<!-- Node11&#45;&gt;Node10 -->
<g id="edge13" class="edge">
<title>Node11&#45;&gt;Node10</title>
<path fill="none" stroke="orange" stroke-dasharray="5,2" d="M663.42,-10C694.68,-10 732.7,-10 764.9,-10"/>
<polygon fill="orange" stroke="orange" points="663.1,-6.5 653.1,-10 663.1,-13.5 663.1,-6.5"/>
<text text-anchor="middle" x="717" y="-13" font-family="Helvetica,sans-Serif" font-size="10.00"> &lt; Inductor &gt;</text>
</g>
</g>
</svg>
