<?xml version="1.0" encoding="UTF-8" standalone="no"?>
<!DOCTYPE svg PUBLIC "-//W3C//DTD SVG 1.1//EN"
 "http://www.w3.org/Graphics/SVG/1.1/DTD/svg11.dtd">
<!-- Generated by graphviz version 2.42.4 (0)
 -->
<!-- Title: DPsim::cuda::Vector&lt; T &gt; Pages: 1 -->
<svg width="377pt" height="186pt"
 viewBox="0.00 0.00 377.00 186.00" xmlns="http://www.w3.org/2000/svg" xmlns:xlink="http://www.w3.org/1999/xlink">
<g id="graph0" class="graph" transform="scale(1 1) rotate(0) translate(4 182)">
<title>DPsim::cuda::Vector&lt; T &gt;</title>
<!-- Node1 -->
<g id="node1" class="node">
<title>Node1</title>
<g id="a_node1"><a xlink:title=" ">
<polygon fill="#bfbfbf" stroke="black" points="0,-79 0,-98 143,-98 143,-79 0,-79"/>
<text text-anchor="middle" x="71.5" y="-86" font-family="Helvetica,sans-Serif" font-size="10.00">DPsim::cuda::Vector&lt; T &gt;</text>
</a>
</g>
</g>
<!-- Node2 -->
<g id="node2" class="node">
<title>Node2</title>
<g id="a_node2"><a xlink:href="class_d_psim_1_1cuda_1_1_vector.html" target="_top" xlink:title=" ">
<polygon fill="none" stroke="black" points="255,-147.5 255,-177.5 369,-177.5 369,-147.5 255,-147.5"/>
<text text-anchor="start" x="263" y="-165.5" font-family="Helvetica,sans-Serif" font-size="10.00">DPsim::cuda::Vector</text>
<text text-anchor="middle" x="312" y="-154.5" font-family="Helvetica,sans-Serif" font-size="10.00">&lt; IndexType &gt;</text>
</a>
</g>
</g>
<!-- Node1&#45;&gt;Node2 -->
<g id="edge1" class="edge">
<title>Node1&#45;&gt;Node2</title>
<path fill="none" stroke="orange" stroke-dasharray="5,2" d="M108.24,-101.55C124.3,-107.27 143.53,-113.94 161,-119.5 192.11,-129.4 227.16,-139.5 255.56,-147.43"/>
<polygon fill="orange" stroke="orange" points="109.29,-98.21 98.7,-98.12 106.93,-104.8 109.29,-98.21"/>
<text text-anchor="middle" x="199" y="-144.5" font-family="Helvetica,sans-Serif" font-size="10.00"> &lt; IndexType &gt;</text>
</g>
<!-- Node3 -->
<g id="node3" class="node">
<title>Node3</title>
<g id="a_node3"><a xlink:href="class_d_psim_1_1cuda_1_1_vector.html" target="_top" xlink:title=" ">
<polygon fill="none" stroke="black" points="255,-98.5 255,-128.5 369,-128.5 369,-98.5 255,-98.5"/>
<text text-anchor="start" x="263" y="-116.5" font-family="Helvetica,sans-Serif" font-size="10.00">DPsim::cuda::Vector</text>
<text text-anchor="middle" x="312" y="-105.5" font-family="Helvetica,sans-Serif" font-size="10.00">&lt; double &gt;</text>
</a>
</g>
</g>
<!-- Node1&#45;&gt;Node3 -->
<g id="edge2" class="edge">
<title>Node1&#45;&gt;Node3</title>
<path fill="none" stroke="orange" stroke-dasharray="5,2" d="M153.31,-96.97C186.74,-100.47 224.68,-104.45 254.97,-107.63"/>
<polygon fill="orange" stroke="orange" points="153.4,-93.46 143.09,-95.9 152.67,-100.42 153.4,-93.46"/>
<text text-anchor="middle" x="199" y="-107.5" font-family="Helvetica,sans-Serif" font-size="10.00"> &lt; double &gt;</text>
</g>
<!-- Node4 -->
<g id="node4" class="node">
<title>Node4</title>
<g id="a_node4"><a xlink:href="class_d_psim_1_1cuda_1_1_vector.html" target="_top" xlink:title=" ">
<polygon fill="none" stroke="black" points="255,-49.5 255,-79.5 369,-79.5 369,-49.5 255,-49.5"/>
<text text-anchor="start" x="263" y="-67.5" font-family="Helvetica,sans-Serif" font-size="10.00">DPsim::cuda::Vector</text>
<text text-anchor="middle" x="312" y="-56.5" font-family="Helvetica,sans-Serif" font-size="10.00">&lt; ValueType &gt;</text>
</a>
</g>
</g>
<!-- Node1&#45;&gt;Node4 -->
<g id="edge3" class="edge">
<title>Node1&#45;&gt;Node4</title>
<path fill="none" stroke="orange" stroke-dasharray="5,2" d="M153.31,-80.37C186.74,-77 224.68,-73.19 254.97,-70.14"/>
<polygon fill="orange" stroke="orange" points="152.69,-76.91 143.09,-81.4 153.39,-83.88 152.69,-76.91"/>
<text text-anchor="middle" x="199" y="-81.5" font-family="Helvetica,sans-Serif" font-size="10.00"> &lt; ValueType &gt;</text>
</g>
<!-- Node5 -->
<g id="node5" class="node">
<title>Node5</title>
<g id="a_node5"><a xlink:href="class_d_psim_1_1cuda_1_1_vector.html" target="_top" xlink:title=" ">
<polygon fill="none" stroke="black" points="255,-0.5 255,-30.5 369,-30.5 369,-0.5 255,-0.5"/>
<text text-anchor="start" x="263" y="-18.5" font-family="Helvetica,sans-Serif" font-size="10.00">DPsim::cuda::Vector</text>
<text text-anchor="middle" x="312" y="-7.5" font-family="Helvetica,sans-Serif" font-size="10.00">&lt; char &gt;</text>
</a>
</g>
</g>
<!-- Node1&#45;&gt;Node5 -->
<g id="edge4" class="edge">
<title>Node1&#45;&gt;Node5</title>
<path fill="none" stroke="orange" stroke-dasharray="5,2" d="M106.77,-75.38C123.09,-69.32 142.94,-62.22 161,-56.5 191.75,-46.75 226.48,-37.17 254.77,-29.73"/>
<polygon fill="orange" stroke="orange" points="105.25,-72.21 97.11,-79 107.71,-78.77 105.25,-72.21"/>
<text text-anchor="middle" x="199" y="-59.5" font-family="Helvetica,sans-Serif" font-size="10.00"> &lt; char &gt;</text>
</g>
</g>
</svg>
