<?xml version="1.0" encoding="UTF-8" standalone="no"?>
<!DOCTYPE svg PUBLIC "-//W3C//DTD SVG 1.1//EN"
 "http://www.w3.org/Graphics/SVG/1.1/DTD/svg11.dtd">
<!-- Generated by graphviz version 2.44.0 (0)
 -->
<!-- Title: CPS::Signal::DecouplingLine Pages: 1 -->
<!--zoomable 316 -->
<svg id="main" version="1.1" xmlns="http://www.w3.org/2000/svg" xmlns:xlink="http://www.w3.org/1999/xlink" xml:space="preserve" onload="init(evt)">
<style type="text/css"><![CDATA[
.edge:hover path { stroke: red; }
.edge:hover polygon { stroke: red; fill: red; }
]]></style>
<script type="text/javascript"><![CDATA[
var edges = document.getElementsByTagName('g');
if (edges && edges.length) {
  for (var i=0;i<edges.length;i++) {
    if (edges[i].id.substr(0,4)=='edge') {
      edges[i].setAttribute('class','edge');
    }
  }
}
]]></script>
        <defs>
                <circle id="rim" cx="0" cy="0" r="7"/>
                <circle id="rim2" cx="0" cy="0" r="3.5"/>
                <g id="zoomPlus">
                        <use xlink:href="#rim" fill="#404040">
                                <set attributeName="fill" to="#808080" begin="zoomplus.mouseover" end="zoomplus.mouseout"/>
                        </use>
                        <path d="M-4,0h8M0,-4v8" fill="none" stroke="white" stroke-width="1.5" pointer-events="none"/>
                </g>
                <g id="zoomMin">
                        <use xlink:href="#rim" fill="#404040">
                                <set attributeName="fill" to="#808080" begin="zoomminus.mouseover" end="zoomminus.mouseout"/>
                        </use>
                        <path d="M-4,0h8" fill="none" stroke="white" stroke-width="1.5" pointer-events="none"/>
                </g>
                <g id="dirArrow">
                        <path fill="none" stroke="white" stroke-width="1.5" d="M0,-3.0v7 M-2.5,-0.5L0,-3.0L2.5,-0.5"/>
                </g>
               <g id="resetDef">
                       <use xlink:href="#rim2" fill="#404040">
                               <set attributeName="fill" to="#808080" begin="reset.mouseover" end="reset.mouseout"/>
                       </use>
               </g>
        </defs>

<script type="text/javascript">
var viewWidth = 1307;
var viewHeight = 316;
var sectionId = 'dynsection-1';
</script>
<script xlink:href="svgpan.js"/>
<svg id="graph" class="graph">
<g id="viewport">
<title>CPS::Signal::DecouplingLine</title>
<!-- Node1 -->
<g id="node1" class="node">
<title>Node1</title>
<g id="a_node1"><a xlink:title=" ">
<polygon fill="#bfbfbf" stroke="black" points="1156,-158.92 1156,-177.92 1299,-177.92 1299,-158.92 1156,-158.92"/>
<text text-anchor="middle" x="1227.5" y="-165.92" font-family="Helvetica" font-size="10.00">CPS::Signal::DecouplingLine</text>
</a>
</g>
</g>
<!-- Node2 -->
<g id="node2" class="node">
<title>Node2</title>
<g id="a_node2"><a xlink:href="class_c_p_s_1_1_sim_signal_comp.html" target="_top" xlink:title=" ">
<polygon fill="none" stroke="black" points="992.5,-229.92 992.5,-248.92 1106.5,-248.92 1106.5,-229.92 992.5,-229.92"/>
<text text-anchor="middle" x="1049.5" y="-236.92" font-family="Helvetica" font-size="10.00">CPS::SimSignalComp</text>
</a>
</g>
</g>
<!-- Node2&#45;&gt;Node1 -->
<g id="edge1" class="edge">
<title>Node2&#45;&gt;Node1</title>
<path fill="none" stroke="midnightblue" d="M1099.34,-227.03C1106.01,-225.01 1112.72,-222.78 1119,-220.42 1151.78,-208.05 1188.13,-189.35 1209.05,-178.07"/>
<polygon fill="midnightblue" stroke="midnightblue" points="1098.27,-223.7 1089.65,-229.86 1100.23,-230.42 1098.27,-223.7"/>
</g>
<!-- Node3 -->
<g id="node3" class="node">
<title>Node3</title>
<g id="a_node3"><a xlink:href="class_c_p_s_1_1_topological_signal_comp.html" target="_top" xlink:title=" ">
<polygon fill="none" stroke="black" points="710,-229.92 710,-248.92 856,-248.92 856,-229.92 710,-229.92"/>
<text text-anchor="middle" x="783" y="-236.92" font-family="Helvetica" font-size="10.00">CPS::TopologicalSignalComp</text>
</a>
</g>
</g>
<!-- Node3&#45;&gt;Node2 -->
<g id="edge2" class="edge">
<title>Node3&#45;&gt;Node2</title>
<path fill="none" stroke="midnightblue" d="M866.5,-239.42C907.37,-239.42 955.68,-239.42 992.24,-239.42"/>
<polygon fill="midnightblue" stroke="midnightblue" points="866.28,-235.92 856.28,-239.42 866.28,-242.92 866.28,-235.92"/>
</g>
<!-- Node4 -->
<g id="node4" class="node">
<title>Node4</title>
<g id="a_node4"><a xlink:href="class_c_p_s_1_1_identified_object.html" target="_top" xlink:title=" ">
<polygon fill="none" stroke="black" points="561,-229.92 561,-248.92 673,-248.92 673,-229.92 561,-229.92"/>
<text text-anchor="middle" x="617" y="-236.92" font-family="Helvetica" font-size="10.00">CPS::IdentifiedObject</text>
</a>
</g>
</g>
<!-- Node4&#45;&gt;Node3 -->
<g id="edge3" class="edge">
<title>Node4&#45;&gt;Node3</title>
<path fill="none" stroke="midnightblue" d="M683.21,-239.42C691.98,-239.42 701.02,-239.42 709.89,-239.42"/>
<polygon fill="midnightblue" stroke="midnightblue" points="683.07,-235.92 673.07,-239.42 683.07,-242.92 683.07,-235.92"/>
</g>
<!-- Node5 -->
<g id="node5" class="node">
<title>Node5</title>
<g id="a_node5"><a xlink:href="class_c_p_s_1_1_attribute_list.html" target="_top" xlink:title="Base class of objects having attributes to access member variables.">
<polygon fill="none" stroke="black" points="370.5,-266.92 370.5,-285.92 466.5,-285.92 466.5,-266.92 370.5,-266.92"/>
<text text-anchor="middle" x="418.5" y="-273.92" font-family="Helvetica" font-size="10.00">CPS::AttributeList</text>
</a>
</g>
</g>
<!-- Node5&#45;&gt;Node4 -->
<g id="edge4" class="edge">
<title>Node5&#45;&gt;Node4</title>
<path fill="none" stroke="midnightblue" d="M476.8,-272.23C497.77,-270.1 521.59,-266.96 543,-262.42 558.86,-259.05 576.18,-253.67 589.97,-248.96"/>
<polygon fill="midnightblue" stroke="midnightblue" points="476.37,-268.76 466.76,-273.2 477.05,-275.73 476.37,-268.76"/>
</g>
<!-- Node6 -->
<g id="node6" class="node">
<title>Node6</title>
<g id="a_node6"><a xlink:href="class_c_p_s_1_1_attribute.html" target="_top" xlink:title=" ">
<polygon fill="none" stroke="black" points="356.5,-228.92 356.5,-247.92 480.5,-247.92 480.5,-228.92 356.5,-228.92"/>
<text text-anchor="middle" x="418.5" y="-235.92" font-family="Helvetica" font-size="10.00">CPS::Attribute&lt; String &gt;</text>
</a>
</g>
</g>
<!-- Node6&#45;&gt;Node4 -->
<g id="edge5" class="edge">
<title>Node6&#45;&gt;Node4</title>
<path fill="none" stroke="#9a32cd" stroke-dasharray="5,2" d="M490.71,-238.78C513.85,-238.9 539.17,-239.02 560.95,-239.14"/>
<polygon fill="#9a32cd" stroke="#9a32cd" points="490.61,-235.28 480.6,-238.73 490.58,-242.28 490.61,-235.28"/>
<text text-anchor="middle" x="524" y="-252.42" font-family="Helvetica" font-size="10.00"> mName</text>
<text text-anchor="middle" x="524" y="-241.42" font-family="Helvetica" font-size="10.00">mUID</text>
</g>
<!-- Node7 -->
<g id="node7" class="node">
<title>Node7</title>
<g id="a_node7"><a xlink:href="class_c_p_s_1_1_attribute_base.html" target="_top" xlink:title=" ">
<polygon fill="none" stroke="black" points="2.5,-105.92 2.5,-124.92 105.5,-124.92 105.5,-105.92 2.5,-105.92"/>
<text text-anchor="middle" x="54" y="-112.92" font-family="Helvetica" font-size="10.00">CPS::AttributeBase</text>
</a>
</g>
</g>
<!-- Node7&#45;&gt;Node6 -->
<g id="edge6" class="edge">
<title>Node7&#45;&gt;Node6</title>
<path fill="none" stroke="midnightblue" d="M64.91,-134.12C79.04,-158.62 107.46,-200.65 145,-219.42 211.49,-252.65 298.72,-252.31 356.37,-247.05"/>
<polygon fill="midnightblue" stroke="midnightblue" points="67.82,-132.15 59.9,-125.1 61.7,-135.54 67.82,-132.15"/>
</g>
<!-- Node9 -->
<g id="node9" class="node">
<title>Node9</title>
<g id="a_node9"><a xlink:href="class_c_p_s_1_1_attribute.html" target="_top" xlink:title=" ">
<polygon fill="none" stroke="black" points="147,-130.92 147,-149.92 251,-149.92 251,-130.92 147,-130.92"/>
<text text-anchor="middle" x="199" y="-137.92" font-family="Helvetica" font-size="10.00">CPS::Attribute&lt; T &gt;</text>
</a>
</g>
</g>
<!-- Node7&#45;&gt;Node9 -->
<g id="edge9" class="edge">
<title>Node7&#45;&gt;Node9</title>
<path fill="none" stroke="midnightblue" d="M115.98,-126.08C126.27,-127.87 136.86,-129.73 146.86,-131.48"/>
<polygon fill="midnightblue" stroke="midnightblue" points="116.27,-122.57 105.82,-124.3 115.07,-129.47 116.27,-122.57"/>
</g>
<!-- Node13 -->
<g id="node13" class="node">
<title>Node13</title>
<g id="a_node13"><a xlink:href="class_c_p_s_1_1_attribute.html" target="_top" xlink:title=" ">
<polygon fill="none" stroke="black" points="350,-44.92 350,-63.92 487,-63.92 487,-44.92 350,-44.92"/>
<text text-anchor="middle" x="418.5" y="-51.92" font-family="Helvetica" font-size="10.00">CPS::Attribute&lt; Complex &gt;</text>
</a>
</g>
</g>
<!-- Node7&#45;&gt;Node13 -->
<g id="edge14" class="edge">
<title>Node7&#45;&gt;Node13</title>
<path fill="none" stroke="midnightblue" d="M64.93,-97.03C79.06,-73.03 107.49,-32.12 145,-15.42 233.41,23.96 352.46,-23.36 398.35,-44.86"/>
<polygon fill="midnightblue" stroke="midnightblue" points="61.8,-95.46 59.91,-105.88 67.89,-98.91 61.8,-95.46"/>
</g>
<!-- Node15 -->
<g id="node15" class="node">
<title>Node15</title>
<g id="a_node15"><a xlink:href="class_c_p_s_1_1_attribute.html" target="_top" xlink:title=" ">
<polygon fill="none" stroke="black" points="356,-141.92 356,-160.92 481,-160.92 481,-141.92 356,-141.92"/>
<text text-anchor="middle" x="418.5" y="-148.92" font-family="Helvetica" font-size="10.00">CPS::Attribute&lt; Matrix &gt;</text>
</a>
</g>
</g>
<!-- Node7&#45;&gt;Node15 -->
<g id="edge18" class="edge">
<title>Node7&#45;&gt;Node15</title>
<path fill="none" stroke="midnightblue" d="M101.62,-103.61C157.49,-91.53 253.4,-77.39 332,-99.42 361.44,-107.67 390.81,-129.15 406.3,-141.77"/>
<polygon fill="midnightblue" stroke="midnightblue" points="100.67,-100.24 91.67,-105.84 102.19,-107.07 100.67,-100.24"/>
</g>
<!-- Node8 -->
<g id="node8" class="node">
<title>Node8</title>
<g id="a_node8"><a xlink:title=" ">
<polygon fill="none" stroke="#bfbfbf" points="145,-266.92 145,-307.92 253,-307.92 253,-266.92 145,-266.92"/>
<text text-anchor="start" x="153" y="-295.92" font-family="Helvetica" font-size="10.00">std::enable_shared</text>
<text text-anchor="start" x="153" y="-284.92" font-family="Helvetica" font-size="10.00">_from_this&lt; Attribute</text>
<text text-anchor="middle" x="199" y="-273.92" font-family="Helvetica" font-size="10.00">&lt; String &gt; &gt;</text>
</a>
</g>
</g>
<!-- Node8&#45;&gt;Node6 -->
<g id="edge7" class="edge">
<title>Node8&#45;&gt;Node6</title>
<path fill="none" stroke="midnightblue" d="M263.12,-273.2C299.08,-265.09 343.19,-255.16 375.03,-247.98"/>
<polygon fill="midnightblue" stroke="midnightblue" points="262.19,-269.82 253.21,-275.43 263.73,-276.65 262.19,-269.82"/>
</g>
<!-- Node9&#45;&gt;Node6 -->
<g id="edge8" class="edge">
<title>Node9&#45;&gt;Node6</title>
<path fill="none" stroke="orange" stroke-dasharray="5,2" d="M237.93,-153.47C243.03,-155.39 248.16,-157.39 253,-159.42 307.08,-182.02 368.9,-213.21 399.04,-228.77"/>
<polygon fill="orange" stroke="orange" points="238.86,-150.09 228.26,-149.94 236.45,-156.66 238.86,-150.09"/>
<text text-anchor="middle" x="301.5" y="-197.42" font-family="Helvetica" font-size="10.00"> &lt; String &gt;</text>
</g>
<!-- Node9&#45;&gt;Node13 -->
<g id="edge16" class="edge">
<title>Node9&#45;&gt;Node13</title>
<path fill="none" stroke="orange" stroke-dasharray="5,2" d="M233.54,-127.15C277.72,-109.68 354.35,-79.39 393.28,-63.99"/>
<polygon fill="orange" stroke="orange" points="232.12,-123.95 224.11,-130.88 234.69,-130.46 232.12,-123.95"/>
<text text-anchor="middle" x="301.5" y="-113.42" font-family="Helvetica" font-size="10.00"> &lt; Complex &gt;</text>
</g>
<!-- Node9&#45;&gt;Node15 -->
<g id="edge20" class="edge">
<title>Node9&#45;&gt;Node15</title>
<path fill="none" stroke="orange" stroke-dasharray="5,2" d="M261.44,-143.52C290.94,-145.01 326.19,-146.8 355.73,-148.29"/>
<polygon fill="orange" stroke="orange" points="261.43,-140.02 251.27,-143.01 261.08,-147.01 261.43,-140.02"/>
<text text-anchor="middle" x="301.5" y="-150.42" font-family="Helvetica" font-size="10.00"> &lt; Matrix &gt;</text>
</g>
<!-- Node10 -->
<g id="node10" class="node">
<title>Node10</title>
<g id="a_node10"><a xlink:title=" ">
<polygon fill="none" stroke="#bfbfbf" points="0,-242.92 0,-283.92 108,-283.92 108,-242.92 0,-242.92"/>
<text text-anchor="start" x="8" y="-271.92" font-family="Helvetica" font-size="10.00">std::enable_shared</text>
<text text-anchor="start" x="8" y="-260.92" font-family="Helvetica" font-size="10.00">_from_this&lt; Attribute</text>
<text text-anchor="middle" x="54" y="-249.92" font-family="Helvetica" font-size="10.00">&lt; T &gt; &gt;</text>
</a>
</g>
</g>
<!-- Node10&#45;&gt;Node9 -->
<g id="edge10" class="edge">
<title>Node10&#45;&gt;Node9</title>
<path fill="none" stroke="midnightblue" d="M73.95,-234.21C90.3,-211.07 115.83,-179.4 145,-159.42 150.48,-155.66 156.79,-152.56 163.1,-150.03"/>
<polygon fill="midnightblue" stroke="midnightblue" points="70.94,-232.4 68.14,-242.62 76.7,-236.38 70.94,-232.4"/>
</g>
<!-- Node11 -->
<g id="node11" class="node">
<title>Node11</title>
<g id="a_node11"><a xlink:href="class_shared_factory.html" target="_top" xlink:title=" ">
<polygon fill="none" stroke="black" points="980,-180.42 980,-210.42 1119,-210.42 1119,-180.42 980,-180.42"/>
<text text-anchor="start" x="988" y="-198.42" font-family="Helvetica" font-size="10.00">SharedFactory&lt; Decoupling</text>
<text text-anchor="middle" x="1049.5" y="-187.42" font-family="Helvetica" font-size="10.00">Line &gt;</text>
</a>
</g>
</g>
<!-- Node11&#45;&gt;Node1 -->
<g id="edge11" class="edge">
<title>Node11&#45;&gt;Node1</title>
<path fill="none" stroke="midnightblue" d="M1128.96,-183.38C1140.85,-181.55 1152.97,-179.69 1164.45,-177.93"/>
<polygon fill="midnightblue" stroke="midnightblue" points="1128.4,-179.92 1119.05,-184.9 1129.47,-186.84 1128.4,-179.92"/>
</g>
<!-- Node12 -->
<g id="node12" class="node">
<title>Node12</title>
<g id="a_node12"><a xlink:href="class_shared_factory.html" target="_top" xlink:title=" ">
<polygon fill="none" stroke="black" points="730.5,-185.92 730.5,-204.92 835.5,-204.92 835.5,-185.92 730.5,-185.92"/>
<text text-anchor="middle" x="783" y="-192.92" font-family="Helvetica" font-size="10.00">SharedFactory&lt; T &gt;</text>
</a>
</g>
</g>
<!-- Node12&#45;&gt;Node11 -->
<g id="edge12" class="edge">
<title>Node12&#45;&gt;Node11</title>
<path fill="none" stroke="orange" stroke-dasharray="5,2" d="M845.83,-195.42C886.04,-195.42 938.5,-195.42 979.97,-195.42"/>
<polygon fill="orange" stroke="orange" points="845.63,-191.92 835.63,-195.42 845.63,-198.92 845.63,-191.92"/>
<text text-anchor="middle" x="918" y="-198.42" font-family="Helvetica" font-size="10.00"> &lt; DecouplingLine &gt;</text>
</g>
<!-- Node13&#45;&gt;Node1 -->
<g id="edge13" class="edge">
<title>Node13&#45;&gt;Node1</title>
<path fill="none" stroke="#9a32cd" stroke-dasharray="5,2" d="M497.66,-59.64C533.67,-61.62 576.99,-63.42 616,-63.42 616,-63.42 616,-63.42 1050.5,-63.42 1124.51,-63.42 1194.44,-132.73 1218.06,-158.73"/>
<polygon fill="#9a32cd" stroke="#9a32cd" points="497.4,-56.12 487.22,-59.05 497,-63.11 497.4,-56.12"/>
<text text-anchor="middle" x="783" y="-99.42" font-family="Helvetica" font-size="10.00"> mSrcCur1</text>
<text text-anchor="middle" x="783" y="-88.42" font-family="Helvetica" font-size="10.00">mSrcCur1Ref</text>
<text text-anchor="middle" x="783" y="-77.42" font-family="Helvetica" font-size="10.00">mSrcCur2</text>
<text text-anchor="middle" x="783" y="-66.42" font-family="Helvetica" font-size="10.00">mSrcCur2Ref</text>
</g>
<!-- Node14 -->
<g id="node14" class="node">
<title>Node14</title>
<g id="a_node14"><a xlink:title=" ">
<polygon fill="none" stroke="#bfbfbf" points="145,-24.92 145,-65.92 253,-65.92 253,-24.92 145,-24.92"/>
<text text-anchor="start" x="153" y="-53.92" font-family="Helvetica" font-size="10.00">std::enable_shared</text>
<text text-anchor="start" x="153" y="-42.92" font-family="Helvetica" font-size="10.00">_from_this&lt; Attribute</text>
<text text-anchor="middle" x="199" y="-31.92" font-family="Helvetica" font-size="10.00">&lt; Complex &gt; &gt;</text>
</a>
</g>
</g>
<!-- Node14&#45;&gt;Node13 -->
<g id="edge15" class="edge">
<title>Node14&#45;&gt;Node13</title>
<path fill="none" stroke="midnightblue" d="M263.34,-48.04C290.41,-49.16 322.06,-50.47 349.61,-51.61"/>
<polygon fill="midnightblue" stroke="midnightblue" points="263.34,-44.53 253.21,-47.62 263.05,-51.53 263.34,-44.53"/>
</g>
<!-- Node15&#45;&gt;Node1 -->
<g id="edge17" class="edge">
<title>Node15&#45;&gt;Node1</title>
<path fill="none" stroke="#9a32cd" stroke-dasharray="5,2" d="M491.26,-151.42C528.48,-151.42 574.68,-151.42 616,-151.42 616,-151.42 616,-151.42 1050.5,-151.42 1086.57,-151.42 1126.61,-155 1159.37,-158.87"/>
<polygon fill="#9a32cd" stroke="#9a32cd" points="491.01,-147.92 481.01,-151.42 491.01,-154.92 491.01,-147.92"/>
<text text-anchor="middle" x="783" y="-154.42" font-family="Helvetica" font-size="10.00"> mStates</text>
</g>
<!-- Node16 -->
<g id="node16" class="node">
<title>Node16</title>
<g id="a_node16"><a xlink:title=" ">
<polygon fill="none" stroke="#bfbfbf" points="145,-168.92 145,-209.92 253,-209.92 253,-168.92 145,-168.92"/>
<text text-anchor="start" x="153" y="-197.92" font-family="Helvetica" font-size="10.00">std::enable_shared</text>
<text text-anchor="start" x="153" y="-186.92" font-family="Helvetica" font-size="10.00">_from_this&lt; Attribute</text>
<text text-anchor="middle" x="199" y="-175.92" font-family="Helvetica" font-size="10.00">&lt; Matrix &gt; &gt;</text>
</a>
</g>
</g>
<!-- Node16&#45;&gt;Node15 -->
<g id="edge19" class="edge">
<title>Node16&#45;&gt;Node15</title>
<path fill="none" stroke="midnightblue" d="M263,-201.78C285.1,-204 309.91,-204.09 332,-198.42 360.22,-191.17 389.11,-172.44 405.04,-160.94"/>
<polygon fill="midnightblue" stroke="midnightblue" points="263.39,-198.3 253.05,-200.62 262.58,-205.25 263.39,-198.3"/>
</g>
</g>
</svg>
        <g id="navigator" transform="translate(0 0)" fill="#404254">
                <rect fill="#f2f5e9" fill-opacity="0.5" stroke="#606060" stroke-width=".5" x="0" y="0" width="60" height="60"/>
                <use id="zoomplus" xlink:href="#zoomPlus" x="17" y="9" onmousedown="handleZoom(evt,'in')"/>
                <use id="zoomminus" xlink:href="#zoomMin" x="42" y="9" onmousedown="handleZoom(evt,'out')"/>
                <use id="reset" xlink:href="#resetDef" x="30" y="36" onmousedown="handleReset()"/>
                <g id="arrowUp" xlink:href="#dirArrow" transform="translate(30 24)" onmousedown="handlePan(0,-1)">
                  <use xlink:href="#rim" fill="#404040">
                        <set attributeName="fill" to="#808080" begin="arrowUp.mouseover" end="arrowUp.mouseout"/>
                  </use>
                  <path fill="none" stroke="white" stroke-width="1.5" d="M0,-3.0v7 M-2.5,-0.5L0,-3.0L2.5,-0.5"/>
                </g>
                <g id="arrowRight" xlink:href="#dirArrow" transform="rotate(90) translate(36 -43)" onmousedown="handlePan(1,0)">
                  <use xlink:href="#rim" fill="#404040">
                        <set attributeName="fill" to="#808080" begin="arrowRight.mouseover" end="arrowRight.mouseout"/>
                  </use>
                  <path fill="none" stroke="white" stroke-width="1.5" d="M0,-3.0v7 M-2.5,-0.5L0,-3.0L2.5,-0.5"/>
                </g>
                <g id="arrowDown" xlink:href="#dirArrow" transform="rotate(180) translate(-30 -48)" onmousedown="handlePan(0,1)">
                  <use xlink:href="#rim" fill="#404040">
                        <set attributeName="fill" to="#808080" begin="arrowDown.mouseover" end="arrowDown.mouseout"/>
                  </use>
                  <path fill="none" stroke="white" stroke-width="1.5" d="M0,-3.0v7 M-2.5,-0.5L0,-3.0L2.5,-0.5"/>
                </g>
                <g id="arrowLeft" xlink:href="#dirArrow" transform="rotate(270) translate(-36 17)" onmousedown="handlePan(-1,0)">
                  <use xlink:href="#rim" fill="#404040">
                        <set attributeName="fill" to="#808080" begin="arrowLeft.mouseover" end="arrowLeft.mouseout"/>
                  </use>
                  <path fill="none" stroke="white" stroke-width="1.5" d="M0,-3.0v7 M-2.5,-0.5L0,-3.0L2.5,-0.5"/>
                </g>
        </g>
        <svg viewBox="0 0 15 15" width="100%" height="30px" preserveAspectRatio="xMaxYMin meet">
         <g id="arrow_out" transform="scale(0.3 0.3)">
          <a xlink:href="class_c_p_s_1_1_signal_1_1_decoupling_line__coll__graph_org.svg" target="_base">
           <rect id="button" ry="5" rx="5" y="6" x="6" height="38" width="38"
                fill="#f2f5e9" fill-opacity="0.5" stroke="#606060" stroke-width="1.0"/>
           <path id="arrow"
             d="M 11.500037,31.436501 C 11.940474,20.09759 22.043105,11.32322 32.158766,21.979434 L 37.068811,17.246167 C 37.068811,17.246167 37.088388,32 37.088388,32 L 22.160133,31.978069 C 22.160133,31.978069 26.997745,27.140456 26.997745,27.140456 C 18.528582,18.264221 13.291696,25.230495 11.500037,31.436501 z"
             style="fill:#404040;"/>
          </a>
         </g>
        </svg>
</svg>
