<?xml version="1.0" encoding="UTF-8" standalone="no"?>
<!DOCTYPE svg PUBLIC "-//W3C//DTD SVG 1.1//EN"
 "http://www.w3.org/Graphics/SVG/1.1/DTD/svg11.dtd">
<!-- Generated by graphviz version 2.42.4 (0)
 -->
<!-- Title: CPS::EMT::Ph1::VoltageSource Pages: 1 -->
<svg width="1804pt" height="605pt"
 viewBox="0.00 0.00 1804.00 604.73" xmlns="http://www.w3.org/2000/svg" xmlns:xlink="http://www.w3.org/1999/xlink">
<g id="graph0" class="graph" transform="scale(1 1) rotate(0) translate(4 600.73)">
<title>CPS::EMT::Ph1::VoltageSource</title>
<!-- Node1 -->
<g id="node1" class="node">
<title>Node1</title>
<g id="a_node1"><a xlink:title="Ideal Voltage source model.">
<polygon fill="#bfbfbf" stroke="black" points="1635,-194.23 1635,-213.23 1796,-213.23 1796,-194.23 1635,-194.23"/>
<text text-anchor="middle" x="1715.5" y="-201.23" font-family="Helvetica,sans-Serif" font-size="10.00">CPS::EMT::Ph1::VoltageSource</text>
</a>
</g>
</g>
<!-- Node2 -->
<g id="node2" class="node">
<title>Node2</title>
<g id="a_node2"><a xlink:href="class_c_p_s_1_1_m_n_a_interface.html" target="_top" xlink:title="Interface to be implemented by all models used by the MNA solver.">
<polygon fill="none" stroke="black" points="334,-577.23 334,-596.23 442,-596.23 442,-577.23 334,-577.23"/>
<text text-anchor="middle" x="388" y="-584.23" font-family="Helvetica,sans-Serif" font-size="10.00">CPS::MNAInterface</text>
</a>
</g>
</g>
<!-- Node2&#45;&gt;Node1 -->
<g id="edge1" class="edge">
<title>Node2&#45;&gt;Node1</title>
<path fill="none" stroke="midnightblue" d="M452.48,-589.08C521.68,-591.44 635.7,-594.73 734,-594.73 734,-594.73 734,-594.73 1535.5,-594.73 1708.7,-594.73 1714.99,-273.6 1714.64,-213.39"/>
<polygon fill="midnightblue" stroke="midnightblue" points="452.3,-585.57 442.18,-588.73 452.06,-592.57 452.3,-585.57"/>
</g>
<!-- Node3 -->
<g id="node3" class="node">
<title>Node3</title>
<g id="a_node3"><a xlink:href="class_c_p_s_1_1_attribute_list.html" target="_top" xlink:title="Base class of objects having attributes to access member variables.">
<polygon fill="none" stroke="black" points="0,-547.23 0,-566.23 101,-566.23 101,-547.23 0,-547.23"/>
<text text-anchor="middle" x="50.5" y="-554.23" font-family="Helvetica,sans-Serif" font-size="10.00">CPS::AttributeList</text>
</a>
</g>
</g>
<!-- Node3&#45;&gt;Node2 -->
<g id="edge2" class="edge">
<title>Node3&#45;&gt;Node2</title>
<path fill="none" stroke="midnightblue" d="M111.22,-562.07C174.47,-567.72 273.38,-576.57 333.97,-581.99"/>
<polygon fill="midnightblue" stroke="midnightblue" points="111.28,-558.56 101,-561.15 110.65,-565.53 111.28,-558.56"/>
</g>
<!-- Node6 -->
<g id="node6" class="node">
<title>Node6</title>
<g id="a_node6"><a xlink:href="class_c_p_s_1_1_identified_object.html" target="_top" xlink:title=" ">
<polygon fill="none" stroke="black" points="157.5,-522.23 157.5,-541.23 276.5,-541.23 276.5,-522.23 157.5,-522.23"/>
<text text-anchor="middle" x="217" y="-529.23" font-family="Helvetica,sans-Serif" font-size="10.00">CPS::IdentifiedObject</text>
</a>
</g>
</g>
<!-- Node3&#45;&gt;Node6 -->
<g id="edge6" class="edge">
<title>Node3&#45;&gt;Node6</title>
<path fill="none" stroke="midnightblue" d="M111.47,-547.61C126.45,-545.34 142.49,-542.9 157.4,-540.63"/>
<polygon fill="midnightblue" stroke="midnightblue" points="110.66,-544.2 101.3,-549.16 111.71,-551.12 110.66,-544.2"/>
</g>
<!-- Node4 -->
<g id="node4" class="node">
<title>Node4</title>
<g id="a_node4"><a xlink:href="class_c_p_s_1_1_sim_power_comp.html" target="_top" xlink:title=" ">
<polygon fill="none" stroke="black" points="1471,-432.73 1471,-462.73 1598,-462.73 1598,-432.73 1471,-432.73"/>
<text text-anchor="start" x="1479" y="-450.73" font-family="Helvetica,sans-Serif" font-size="10.00">CPS::SimPowerComp&lt;</text>
<text text-anchor="middle" x="1534.5" y="-439.73" font-family="Helvetica,sans-Serif" font-size="10.00"> Real &gt;</text>
</a>
</g>
</g>
<!-- Node4&#45;&gt;Node1 -->
<g id="edge3" class="edge">
<title>Node4&#45;&gt;Node1</title>
<path fill="none" stroke="midnightblue" d="M1552.79,-424.16C1591.06,-371.99 1681.59,-248.58 1707.48,-213.3"/>
<polygon fill="midnightblue" stroke="midnightblue" points="1549.79,-422.33 1546.7,-432.46 1555.43,-426.47 1549.79,-422.33"/>
</g>
<!-- Node5 -->
<g id="node5" class="node">
<title>Node5</title>
<g id="a_node5"><a xlink:href="class_c_p_s_1_1_topological_power_comp.html" target="_top" xlink:title=" ">
<polygon fill="none" stroke="black" points="836,-541.23 836,-560.23 991,-560.23 991,-541.23 836,-541.23"/>
<text text-anchor="middle" x="913.5" y="-548.23" font-family="Helvetica,sans-Serif" font-size="10.00">CPS::TopologicalPowerComp</text>
</a>
</g>
</g>
<!-- Node5&#45;&gt;Node4 -->
<g id="edge4" class="edge">
<title>Node5&#45;&gt;Node4</title>
<path fill="none" stroke="midnightblue" d="M985.53,-539.65C1088.63,-523.45 1285.72,-492.04 1453,-462.73 1458.74,-461.72 1464.71,-460.65 1470.68,-459.57"/>
<polygon fill="midnightblue" stroke="midnightblue" points="984.89,-536.21 975.55,-541.22 985.97,-543.13 984.89,-536.21"/>
</g>
<!-- Node20 -->
<g id="node20" class="node">
<title>Node20</title>
<g id="a_node20"><a xlink:href="class_c_p_s_1_1_sim_power_comp.html" target="_top" xlink:title="Base class for all components that are transmitting power.">
<polygon fill="none" stroke="black" points="1220.5,-535.73 1220.5,-565.73 1347.5,-565.73 1347.5,-535.73 1220.5,-535.73"/>
<text text-anchor="start" x="1228.5" y="-553.73" font-family="Helvetica,sans-Serif" font-size="10.00">CPS::SimPowerComp&lt;</text>
<text text-anchor="middle" x="1284" y="-542.73" font-family="Helvetica,sans-Serif" font-size="10.00"> VarType &gt;</text>
</a>
</g>
</g>
<!-- Node5&#45;&gt;Node20 -->
<g id="edge28" class="edge">
<title>Node5&#45;&gt;Node20</title>
<path fill="none" stroke="midnightblue" d="M1001.46,-550.73C1068.7,-550.73 1160.17,-550.73 1220.36,-550.73"/>
<polygon fill="midnightblue" stroke="midnightblue" points="1001.3,-547.23 991.3,-550.73 1001.3,-554.23 1001.3,-547.23"/>
</g>
<!-- Node6&#45;&gt;Node5 -->
<g id="edge5" class="edge">
<title>Node6&#45;&gt;Node5</title>
<path fill="none" stroke="midnightblue" d="M286.85,-536.37C295.97,-536.89 305.21,-537.36 314,-537.73 501.43,-545.62 722.09,-548.84 835.94,-550.06"/>
<polygon fill="midnightblue" stroke="midnightblue" points="286.8,-532.86 276.62,-535.77 286.4,-539.85 286.8,-532.86"/>
</g>
<!-- Node8 -->
<g id="node8" class="node">
<title>Node8</title>
<g id="a_node8"><a xlink:href="class_c_p_s_1_1_topological_terminal.html" target="_top" xlink:title=" ">
<polygon fill="none" stroke="black" points="490,-321.23 490,-340.23 628,-340.23 628,-321.23 490,-321.23"/>
<text text-anchor="middle" x="559" y="-328.23" font-family="Helvetica,sans-Serif" font-size="10.00">CPS::TopologicalTerminal</text>
</a>
</g>
</g>
<!-- Node6&#45;&gt;Node8 -->
<g id="edge9" class="edge">
<title>Node6&#45;&gt;Node8</title>
<path fill="none" stroke="midnightblue" d="M286.63,-520.48C340.78,-508.27 414.81,-483.68 462,-435.73 477.98,-419.49 466.23,-405.88 480,-387.73 495.92,-366.75 521.65,-350.07 539.17,-340.3"/>
<polygon fill="midnightblue" stroke="midnightblue" points="285.79,-517.08 276.76,-522.62 287.27,-523.92 285.79,-517.08"/>
</g>
<!-- Node14 -->
<g id="node14" class="node">
<title>Node14</title>
<g id="a_node14"><a xlink:href="class_c_p_s_1_1_topological_node.html" target="_top" xlink:title=" ">
<polygon fill="none" stroke="black" points="498,-507.23 498,-526.23 620,-526.23 620,-507.23 498,-507.23"/>
<text text-anchor="middle" x="559" y="-514.23" font-family="Helvetica,sans-Serif" font-size="10.00">CPS::TopologicalNode</text>
</a>
</g>
</g>
<!-- Node6&#45;&gt;Node14 -->
<g id="edge18" class="edge">
<title>Node6&#45;&gt;Node14</title>
<path fill="none" stroke="midnightblue" d="M286.9,-528.69C348.82,-525.96 438.83,-521.99 497.89,-519.38"/>
<polygon fill="midnightblue" stroke="midnightblue" points="286.67,-525.2 276.84,-529.13 286.98,-532.19 286.67,-525.2"/>
</g>
<!-- Node7 -->
<g id="node7" class="node">
<title>Node7</title>
<g id="a_node7"><a xlink:href="class_c_p_s_1_1_sim_terminal.html" target="_top" xlink:title=" ">
<polygon fill="none" stroke="black" points="1211,-309.23 1211,-328.23 1357,-328.23 1357,-309.23 1211,-309.23"/>
<text text-anchor="middle" x="1284" y="-316.23" font-family="Helvetica,sans-Serif" font-size="10.00">CPS::SimTerminal&lt; Real &gt;</text>
</a>
</g>
</g>
<!-- Node7&#45;&gt;Node4 -->
<g id="edge7" class="edge">
<title>Node7&#45;&gt;Node4</title>
<path fill="none" stroke="#9a32cd" stroke-dasharray="5,2" d="M1312.75,-333.13C1360.15,-357.74 1456.27,-407.64 1504.51,-432.68"/>
<polygon fill="#9a32cd" stroke="#9a32cd" points="1314.17,-329.93 1303.68,-328.42 1310.94,-336.14 1314.17,-329.93"/>
<text text-anchor="middle" x="1415" y="-405.73" font-family="Helvetica,sans-Serif" font-size="10.00"> mTerminals</text>
</g>
<!-- Node8&#45;&gt;Node7 -->
<g id="edge8" class="edge">
<title>Node8&#45;&gt;Node7</title>
<path fill="none" stroke="midnightblue" d="M638.3,-329.64C757.58,-327.94 991.96,-324.47 1191,-320.73 1197.39,-320.61 1204.03,-320.48 1210.68,-320.34"/>
<polygon fill="midnightblue" stroke="midnightblue" points="638.12,-326.14 628.17,-329.78 638.21,-333.14 638.12,-326.14"/>
</g>
<!-- Node11 -->
<g id="node11" class="node">
<title>Node11</title>
<g id="a_node11"><a xlink:href="class_c_p_s_1_1_sim_terminal.html" target="_top" xlink:title=" ">
<polygon fill="none" stroke="black" points="832,-287.23 832,-306.23 995,-306.23 995,-287.23 832,-287.23"/>
<text text-anchor="middle" x="913.5" y="-294.23" font-family="Helvetica,sans-Serif" font-size="10.00">CPS::SimTerminal&lt; VarType &gt;</text>
</a>
</g>
</g>
<!-- Node8&#45;&gt;Node11 -->
<g id="edge13" class="edge">
<title>Node8&#45;&gt;Node11</title>
<path fill="none" stroke="midnightblue" d="M638.52,-323.15C696.07,-317.6 773.94,-310.09 831.96,-304.5"/>
<polygon fill="midnightblue" stroke="midnightblue" points="638,-319.69 628.38,-324.13 638.67,-326.66 638,-319.69"/>
</g>
<!-- Node9 -->
<g id="node9" class="node">
<title>Node9</title>
<g id="a_node9"><a xlink:href="class_shared_factory.html" target="_top" xlink:title=" ">
<polygon fill="none" stroke="black" points="656,-230.73 656,-260.73 814,-260.73 814,-230.73 656,-230.73"/>
<text text-anchor="start" x="664" y="-248.73" font-family="Helvetica,sans-Serif" font-size="10.00">SharedFactory&lt; SimTerminal</text>
<text text-anchor="middle" x="735" y="-237.73" font-family="Helvetica,sans-Serif" font-size="10.00">&lt; Real &gt; &gt;</text>
</a>
</g>
</g>
<!-- Node9&#45;&gt;Node7 -->
<g id="edge10" class="edge">
<title>Node9&#45;&gt;Node7</title>
<path fill="none" stroke="midnightblue" d="M824.21,-252.38C916.21,-260.07 1064.4,-274.58 1191,-296.73 1209.77,-300.01 1230.41,-304.84 1247.39,-309.13"/>
<polygon fill="midnightblue" stroke="midnightblue" points="824.36,-248.88 814.11,-251.54 823.78,-255.85 824.36,-248.88"/>
</g>
<!-- Node10 -->
<g id="node10" class="node">
<title>Node10</title>
<g id="a_node10"><a xlink:href="class_shared_factory.html" target="_top" xlink:title=" ">
<polygon fill="none" stroke="black" points="160,-214.23 160,-233.23 274,-233.23 274,-214.23 160,-214.23"/>
<text text-anchor="middle" x="217" y="-221.23" font-family="Helvetica,sans-Serif" font-size="10.00">SharedFactory&lt; T &gt;</text>
</a>
</g>
</g>
<!-- Node10&#45;&gt;Node9 -->
<g id="edge11" class="edge">
<title>Node10&#45;&gt;Node9</title>
<path fill="none" stroke="orange" stroke-dasharray="5,2" d="M284.27,-226.55C379.38,-230.61 554.25,-238.06 655.64,-242.39"/>
<polygon fill="orange" stroke="orange" points="284.34,-223.05 274.2,-226.12 284.05,-230.05 284.34,-223.05"/>
<text text-anchor="middle" x="388" y="-237.73" font-family="Helvetica,sans-Serif" font-size="10.00"> &lt; SimTerminal&lt; Real &gt; &gt;</text>
</g>
<!-- Node12 -->
<g id="node12" class="node">
<title>Node12</title>
<g id="a_node12"><a xlink:href="class_shared_factory.html" target="_top" xlink:title=" ">
<polygon fill="none" stroke="black" points="480,-271.73 480,-301.73 638,-301.73 638,-271.73 480,-271.73"/>
<text text-anchor="start" x="488" y="-289.73" font-family="Helvetica,sans-Serif" font-size="10.00">SharedFactory&lt; SimTerminal</text>
<text text-anchor="middle" x="559" y="-278.73" font-family="Helvetica,sans-Serif" font-size="10.00">&lt; VarType &gt; &gt;</text>
</a>
</g>
</g>
<!-- Node10&#45;&gt;Node12 -->
<g id="edge15" class="edge">
<title>Node10&#45;&gt;Node12</title>
<path fill="none" stroke="orange" stroke-dasharray="5,2" d="M249.84,-237.01C268.28,-244.2 292.11,-252.62 314,-257.73 368.63,-270.48 431.52,-277.78 479.76,-281.87"/>
<polygon fill="orange" stroke="orange" points="251.05,-233.73 240.46,-233.29 248.46,-240.23 251.05,-233.73"/>
<text text-anchor="middle" x="388" y="-283.73" font-family="Helvetica,sans-Serif" font-size="10.00"> &lt; SimTerminal&lt; VarType &gt; &gt;</text>
</g>
<!-- Node16 -->
<g id="node16" class="node">
<title>Node16</title>
<g id="a_node16"><a xlink:href="class_shared_factory.html" target="_top" xlink:title=" ">
<polygon fill="none" stroke="black" points="664.5,-355.73 664.5,-385.73 805.5,-385.73 805.5,-355.73 664.5,-355.73"/>
<text text-anchor="start" x="672.5" y="-373.73" font-family="Helvetica,sans-Serif" font-size="10.00">SharedFactory&lt; SimNode</text>
<text text-anchor="middle" x="735" y="-362.73" font-family="Helvetica,sans-Serif" font-size="10.00">&lt; Real &gt; &gt;</text>
</a>
</g>
</g>
<!-- Node10&#45;&gt;Node16 -->
<g id="edge21" class="edge">
<title>Node10&#45;&gt;Node16</title>
<path fill="none" stroke="orange" stroke-dasharray="5,2" d="M236.05,-240.16C254.48,-256.21 284.5,-280.41 314,-295.73 426.9,-354.36 577.35,-368.08 664.16,-370.76"/>
<polygon fill="orange" stroke="orange" points="238.24,-237.43 228.44,-233.42 233.6,-242.67 238.24,-237.43"/>
<text text-anchor="middle" x="388" y="-348.73" font-family="Helvetica,sans-Serif" font-size="10.00"> &lt; SimNode&lt; Real &gt; &gt;</text>
</g>
<!-- Node19 -->
<g id="node19" class="node">
<title>Node19</title>
<g id="a_node19"><a xlink:href="class_shared_factory.html" target="_top" xlink:title=" ">
<polygon fill="none" stroke="black" points="488.5,-397.73 488.5,-427.73 629.5,-427.73 629.5,-397.73 488.5,-397.73"/>
<text text-anchor="start" x="496.5" y="-415.73" font-family="Helvetica,sans-Serif" font-size="10.00">SharedFactory&lt; SimNode</text>
<text text-anchor="middle" x="559" y="-404.73" font-family="Helvetica,sans-Serif" font-size="10.00">&lt; VarType &gt; &gt;</text>
</a>
</g>
</g>
<!-- Node10&#45;&gt;Node19 -->
<g id="edge26" class="edge">
<title>Node10&#45;&gt;Node19</title>
<path fill="none" stroke="orange" stroke-dasharray="5,2" d="M223.48,-243.26C234.36,-278.05 262.22,-350.22 314,-383.73 365.57,-417.1 436.33,-422.11 488.37,-420.1"/>
<polygon fill="orange" stroke="orange" points="226.75,-241.96 220.54,-233.38 220.04,-243.96 226.75,-241.96"/>
<text text-anchor="middle" x="388" y="-423.73" font-family="Helvetica,sans-Serif" font-size="10.00"> &lt; SimNode&lt; VarType &gt; &gt;</text>
</g>
<!-- Node21 -->
<g id="node21" class="node">
<title>Node21</title>
<g id="a_node21"><a xlink:href="class_shared_factory.html" target="_top" xlink:title=" ">
<polygon fill="none" stroke="black" points="1013,-194.23 1013,-213.23 1191,-213.23 1191,-194.23 1013,-194.23"/>
<text text-anchor="middle" x="1102" y="-201.23" font-family="Helvetica,sans-Serif" font-size="10.00">SharedFactory&lt; VoltageSource &gt;</text>
</a>
</g>
</g>
<!-- Node10&#45;&gt;Node21 -->
<g id="edge30" class="edge">
<title>Node10&#45;&gt;Node21</title>
<path fill="none" stroke="orange" stroke-dasharray="5,2" d="M284.7,-222.22C441.94,-218.66 835.84,-209.73 1012.66,-205.73"/>
<polygon fill="orange" stroke="orange" points="284.16,-218.73 274.24,-222.45 284.32,-225.73 284.16,-218.73"/>
<text text-anchor="middle" x="559" y="-220.73" font-family="Helvetica,sans-Serif" font-size="10.00"> &lt; VoltageSource &gt;</text>
</g>
<!-- Node25 -->
<g id="node25" class="node">
<title>Node25</title>
<g id="a_node25"><a xlink:href="class_shared_factory.html" target="_top" xlink:title=" ">
<polygon fill="none" stroke="black" points="665,-67.73 665,-97.73 805,-97.73 805,-67.73 665,-67.73"/>
<text text-anchor="start" x="673" y="-85.73" font-family="Helvetica,sans-Serif" font-size="10.00">SharedFactory&lt; Attribute</text>
<text text-anchor="middle" x="735" y="-74.73" font-family="Helvetica,sans-Serif" font-size="10.00">&lt; Real &gt; &gt;</text>
</a>
</g>
</g>
<!-- Node10&#45;&gt;Node25 -->
<g id="edge35" class="edge">
<title>Node10&#45;&gt;Node25</title>
<path fill="none" stroke="orange" stroke-dasharray="5,2" d="M224.87,-204.28C237.16,-172.85 266.18,-111.9 314,-86.73 430.79,-25.25 592.39,-48.71 677.05,-67.73"/>
<polygon fill="orange" stroke="orange" points="221.44,-203.46 221.22,-214.05 228,-205.91 221.44,-203.46"/>
<text text-anchor="middle" x="388" y="-89.73" font-family="Helvetica,sans-Serif" font-size="10.00"> &lt; Attribute&lt; Real &gt; &gt;</text>
</g>
<!-- Node27 -->
<g id="node27" class="node">
<title>Node27</title>
<g id="a_node27"><a xlink:href="class_shared_factory.html" target="_top" xlink:title=" ">
<polygon fill="none" stroke="black" points="489,-98.73 489,-128.73 629,-128.73 629,-98.73 489,-98.73"/>
<text text-anchor="start" x="497" y="-116.73" font-family="Helvetica,sans-Serif" font-size="10.00">SharedFactory&lt; Attribute</text>
<text text-anchor="middle" x="559" y="-105.73" font-family="Helvetica,sans-Serif" font-size="10.00">&lt; T &gt; &gt;</text>
</a>
</g>
</g>
<!-- Node10&#45;&gt;Node27 -->
<g id="edge39" class="edge">
<title>Node10&#45;&gt;Node27</title>
<path fill="none" stroke="orange" stroke-dasharray="5,2" d="M229.3,-205.39C245,-181.83 275.82,-141.91 314,-124.73 369.01,-99.97 438.22,-99.33 488.87,-103.65"/>
<polygon fill="orange" stroke="orange" points="226.17,-203.8 223.7,-214.1 232.05,-207.58 226.17,-203.8"/>
<text text-anchor="middle" x="388" y="-127.73" font-family="Helvetica,sans-Serif" font-size="10.00"> &lt; Attribute&lt; T &gt; &gt;</text>
</g>
<!-- Node29 -->
<g id="node29" class="node">
<title>Node29</title>
<g id="a_node29"><a xlink:href="class_shared_factory.html" target="_top" xlink:title=" ">
<polygon fill="none" stroke="black" points="665,-144.73 665,-174.73 805,-174.73 805,-144.73 665,-144.73"/>
<text text-anchor="start" x="673" y="-162.73" font-family="Helvetica,sans-Serif" font-size="10.00">SharedFactory&lt; Attribute</text>
<text text-anchor="middle" x="735" y="-151.73" font-family="Helvetica,sans-Serif" font-size="10.00">&lt; Complex &gt; &gt;</text>
</a>
</g>
</g>
<!-- Node10&#45;&gt;Node29 -->
<g id="edge43" class="edge">
<title>Node10&#45;&gt;Node29</title>
<path fill="none" stroke="orange" stroke-dasharray="5,2" d="M242.38,-209.01C261.21,-198.47 288.32,-185.06 314,-178.73 434.65,-148.98 580.58,-150.39 664.81,-154.68"/>
<polygon fill="orange" stroke="orange" points="240.52,-206.04 233.59,-214.06 244,-212.11 240.52,-206.04"/>
<text text-anchor="middle" x="388" y="-181.73" font-family="Helvetica,sans-Serif" font-size="10.00"> &lt; Attribute&lt; Complex &gt; &gt;</text>
</g>
<!-- Node11&#45;&gt;Node7 -->
<g id="edge12" class="edge">
<title>Node11&#45;&gt;Node7</title>
<path fill="none" stroke="orange" stroke-dasharray="5,2" d="M1005.26,-299.84C1059.25,-301.98 1129.09,-305.25 1191,-309.73 1197.4,-310.19 1204.05,-310.73 1210.71,-311.31"/>
<polygon fill="orange" stroke="orange" points="1005.15,-296.33 995.02,-299.44 1004.88,-303.33 1005.15,-296.33"/>
<text text-anchor="middle" x="1102" y="-312.73" font-family="Helvetica,sans-Serif" font-size="10.00"> &lt; Real &gt;</text>
</g>
<!-- Node12&#45;&gt;Node11 -->
<g id="edge14" class="edge">
<title>Node12&#45;&gt;Node11</title>
<path fill="none" stroke="midnightblue" d="M648.54,-289.24C704.8,-290.84 777.05,-292.89 831.74,-294.44"/>
<polygon fill="midnightblue" stroke="midnightblue" points="648.33,-285.73 638.23,-288.95 648.13,-292.73 648.33,-285.73"/>
</g>
<!-- Node13 -->
<g id="node13" class="node">
<title>Node13</title>
<g id="a_node13"><a xlink:href="class_c_p_s_1_1_sim_node.html" target="_top" xlink:title=" ">
<polygon fill="none" stroke="black" points="1219,-438.23 1219,-457.23 1349,-457.23 1349,-438.23 1219,-438.23"/>
<text text-anchor="middle" x="1284" y="-445.23" font-family="Helvetica,sans-Serif" font-size="10.00">CPS::SimNode&lt; Real &gt;</text>
</a>
</g>
</g>
<!-- Node13&#45;&gt;Node4 -->
<g id="edge16" class="edge">
<title>Node13&#45;&gt;Node4</title>
<path fill="none" stroke="#9a32cd" stroke-dasharray="5,2" d="M1359.61,-447.73C1395.06,-447.73 1436.95,-447.73 1470.74,-447.73"/>
<polygon fill="#9a32cd" stroke="#9a32cd" points="1359.32,-444.23 1349.32,-447.73 1359.32,-451.23 1359.32,-444.23"/>
<text text-anchor="middle" x="1415" y="-450.73" font-family="Helvetica,sans-Serif" font-size="10.00"> mVirtualNodes</text>
</g>
<!-- Node14&#45;&gt;Node13 -->
<g id="edge17" class="edge">
<title>Node14&#45;&gt;Node13</title>
<path fill="none" stroke="midnightblue" d="M630.58,-518.88C748.08,-521.07 990.68,-519.64 1191,-479.73 1215.71,-474.8 1242.82,-464.77 1261.17,-457.25"/>
<polygon fill="midnightblue" stroke="midnightblue" points="630.36,-515.38 620.29,-518.68 630.22,-522.38 630.36,-515.38"/>
</g>
<!-- Node17 -->
<g id="node17" class="node">
<title>Node17</title>
<g id="a_node17"><a xlink:href="class_c_p_s_1_1_sim_node.html" target="_top" xlink:title=" ">
<polygon fill="none" stroke="black" points="840.5,-461.23 840.5,-480.23 986.5,-480.23 986.5,-461.23 840.5,-461.23"/>
<text text-anchor="middle" x="913.5" y="-468.23" font-family="Helvetica,sans-Serif" font-size="10.00">CPS::SimNode&lt; VarType &gt;</text>
</a>
</g>
</g>
<!-- Node14&#45;&gt;Node17 -->
<g id="edge23" class="edge">
<title>Node14&#45;&gt;Node17</title>
<path fill="none" stroke="midnightblue" d="M630.26,-506.31C638.92,-505.08 647.66,-503.86 656,-502.73 718.15,-494.32 788.88,-485.56 840.31,-479.33"/>
<polygon fill="midnightblue" stroke="midnightblue" points="629.55,-502.88 620.15,-507.76 630.54,-509.81 629.55,-502.88"/>
</g>
<!-- Node15 -->
<g id="node15" class="node">
<title>Node15</title>
<g id="a_node15"><a xlink:title=" ">
<polygon fill="none" stroke="#bfbfbf" points="851.5,-401.23 851.5,-442.23 975.5,-442.23 975.5,-401.23 851.5,-401.23"/>
<text text-anchor="start" x="859.5" y="-430.23" font-family="Helvetica,sans-Serif" font-size="10.00">std::enable_shared</text>
<text text-anchor="start" x="859.5" y="-419.23" font-family="Helvetica,sans-Serif" font-size="10.00">_from_this&lt; SimNode</text>
<text text-anchor="middle" x="913.5" y="-408.23" font-family="Helvetica,sans-Serif" font-size="10.00">&lt; Real &gt; &gt;</text>
</a>
</g>
</g>
<!-- Node15&#45;&gt;Node13 -->
<g id="edge19" class="edge">
<title>Node15&#45;&gt;Node13</title>
<path fill="none" stroke="midnightblue" d="M985.89,-426.77C1053.39,-431.53 1153.77,-438.61 1218.8,-443.2"/>
<polygon fill="midnightblue" stroke="midnightblue" points="985.99,-423.26 975.76,-426.05 985.49,-430.25 985.99,-423.26"/>
</g>
<!-- Node16&#45;&gt;Node13 -->
<g id="edge20" class="edge">
<title>Node16&#45;&gt;Node13</title>
<path fill="none" stroke="midnightblue" d="M815.73,-375.42C867.04,-378.87 935.09,-384.27 995,-391.73 1082.66,-402.64 1104.53,-406.67 1191,-424.73 1209.69,-428.63 1230.34,-433.72 1247.32,-438.12"/>
<polygon fill="midnightblue" stroke="midnightblue" points="815.91,-371.92 805.7,-374.75 815.44,-378.9 815.91,-371.92"/>
</g>
<!-- Node17&#45;&gt;Node13 -->
<g id="edge22" class="edge">
<title>Node17&#45;&gt;Node13</title>
<path fill="none" stroke="orange" stroke-dasharray="5,2" d="M996.97,-465.58C1064.01,-461.4 1157.24,-455.58 1218.81,-451.73"/>
<polygon fill="orange" stroke="orange" points="996.63,-462.1 986.86,-466.21 997.06,-469.08 996.63,-462.1"/>
<text text-anchor="middle" x="1102" y="-467.73" font-family="Helvetica,sans-Serif" font-size="10.00"> &lt; Real &gt;</text>
</g>
<!-- Node18 -->
<g id="node18" class="node">
<title>Node18</title>
<g id="a_node18"><a xlink:title=" ">
<polygon fill="none" stroke="#bfbfbf" points="497,-447.23 497,-488.23 621,-488.23 621,-447.23 497,-447.23"/>
<text text-anchor="start" x="505" y="-476.23" font-family="Helvetica,sans-Serif" font-size="10.00">std::enable_shared</text>
<text text-anchor="start" x="505" y="-465.23" font-family="Helvetica,sans-Serif" font-size="10.00">_from_this&lt; SimNode</text>
<text text-anchor="middle" x="559" y="-454.23" font-family="Helvetica,sans-Serif" font-size="10.00">&lt; VarType &gt; &gt;</text>
</a>
</g>
</g>
<!-- Node18&#45;&gt;Node17 -->
<g id="edge24" class="edge">
<title>Node18&#45;&gt;Node17</title>
<path fill="none" stroke="midnightblue" d="M631.68,-468.34C692.48,-468.86 779.29,-469.59 840.25,-470.11"/>
<polygon fill="midnightblue" stroke="midnightblue" points="631.43,-464.84 621.4,-468.25 631.37,-471.84 631.43,-464.84"/>
</g>
<!-- Node19&#45;&gt;Node17 -->
<g id="edge25" class="edge">
<title>Node19&#45;&gt;Node17</title>
<path fill="none" stroke="midnightblue" d="M639.91,-425.88C705.27,-436.63 796.16,-451.59 854.66,-461.21"/>
<polygon fill="midnightblue" stroke="midnightblue" points="640.08,-422.36 629.64,-424.19 638.94,-429.26 640.08,-422.36"/>
</g>
<!-- Node20&#45;&gt;Node4 -->
<g id="edge27" class="edge">
<title>Node20&#45;&gt;Node4</title>
<path fill="none" stroke="orange" stroke-dasharray="5,2" d="M1358.01,-546.61C1388.58,-542.67 1423.73,-535.11 1453,-520.73 1481.28,-506.84 1506.92,-480 1521.33,-463.03"/>
<polygon fill="orange" stroke="orange" points="1357.35,-543.17 1347.83,-547.82 1358.18,-550.12 1357.35,-543.17"/>
<text text-anchor="middle" x="1415" y="-545.73" font-family="Helvetica,sans-Serif" font-size="10.00"> &lt; Real &gt;</text>
</g>
<!-- Node21&#45;&gt;Node1 -->
<g id="edge29" class="edge">
<title>Node21&#45;&gt;Node1</title>
<path fill="none" stroke="midnightblue" d="M1201.58,-203.73C1321.98,-203.73 1523.3,-203.73 1634.54,-203.73"/>
<polygon fill="midnightblue" stroke="midnightblue" points="1201.26,-200.23 1191.26,-203.73 1201.26,-207.23 1201.26,-200.23"/>
</g>
<!-- Node22 -->
<g id="node22" class="node">
<title>Node22</title>
<g id="a_node22"><a xlink:href="class_c_p_s_1_1_attribute.html" target="_top" xlink:title=" ">
<polygon fill="none" stroke="black" points="1220,-87.23 1220,-106.23 1348,-106.23 1348,-87.23 1220,-87.23"/>
<text text-anchor="middle" x="1284" y="-94.23" font-family="Helvetica,sans-Serif" font-size="10.00">CPS::Attribute&lt; Real &gt;</text>
</a>
</g>
</g>
<!-- Node22&#45;&gt;Node1 -->
<g id="edge31" class="edge">
<title>Node22&#45;&gt;Node1</title>
<path fill="none" stroke="#9a32cd" stroke-dasharray="5,2" d="M1358.33,-102.69C1422.65,-109.32 1518.11,-122.6 1598,-147.73 1635.68,-159.58 1676.61,-181.6 1698.52,-194.21"/>
<polygon fill="#9a32cd" stroke="#9a32cd" points="1358.58,-99.2 1348.28,-101.68 1357.88,-106.16 1358.58,-99.2"/>
<text text-anchor="middle" x="1534.5" y="-150.73" font-family="Helvetica,sans-Serif" font-size="10.00"> mSrcFreq</text>
</g>
<!-- Node23 -->
<g id="node23" class="node">
<title>Node23</title>
<g id="a_node23"><a xlink:href="class_c_p_s_1_1_attribute_base.html" target="_top" xlink:title=" ">
<polygon fill="none" stroke="black" points="505,-17.23 505,-36.23 613,-36.23 613,-17.23 505,-17.23"/>
<text text-anchor="middle" x="559" y="-24.23" font-family="Helvetica,sans-Serif" font-size="10.00">CPS::AttributeBase</text>
</a>
</g>
</g>
<!-- Node23&#45;&gt;Node22 -->
<g id="edge32" class="edge">
<title>Node23&#45;&gt;Node22</title>
<path fill="none" stroke="midnightblue" d="M623.09,-16.2C634.03,-14.76 645.32,-13.5 656,-12.73 806.27,-1.83 845.85,8.58 995,-12.73 1095.54,-27.09 1210.02,-68.31 1258.86,-87.14"/>
<polygon fill="midnightblue" stroke="midnightblue" points="622.59,-12.74 613.17,-17.57 623.55,-19.67 622.59,-12.74"/>
</g>
<!-- Node26 -->
<g id="node26" class="node">
<title>Node26</title>
<g id="a_node26"><a xlink:href="class_c_p_s_1_1_attribute.html" target="_top" xlink:title=" ">
<polygon fill="none" stroke="black" points="857,-99.23 857,-118.23 970,-118.23 970,-99.23 857,-99.23"/>
<text text-anchor="middle" x="913.5" y="-106.23" font-family="Helvetica,sans-Serif" font-size="10.00">CPS::Attribute&lt; T &gt;</text>
</a>
</g>
</g>
<!-- Node23&#45;&gt;Node26 -->
<g id="edge37" class="edge">
<title>Node23&#45;&gt;Node26</title>
<path fill="none" stroke="midnightblue" d="M623.29,-34.54C686.54,-42.69 779.24,-55.66 814,-65.73 843.21,-74.19 875.16,-89.31 894.51,-99.18"/>
<polygon fill="midnightblue" stroke="midnightblue" points="623.38,-31.02 613.02,-33.23 622.49,-37.97 623.38,-31.02"/>
</g>
<!-- Node28 -->
<g id="node28" class="node">
<title>Node28</title>
<g id="a_node28"><a xlink:href="class_c_p_s_1_1_attribute.html" target="_top" xlink:title=" ">
<polygon fill="none" stroke="black" points="1209,-135.23 1209,-154.23 1359,-154.23 1359,-135.23 1209,-135.23"/>
<text text-anchor="middle" x="1284" y="-142.23" font-family="Helvetica,sans-Serif" font-size="10.00">CPS::Attribute&lt; Complex &gt;</text>
</a>
</g>
</g>
<!-- Node23&#45;&gt;Node28 -->
<g id="edge41" class="edge">
<title>Node23&#45;&gt;Node28</title>
<path fill="none" stroke="midnightblue" d="M623.43,-28.64C674.89,-30.58 749.25,-34.23 814,-40.73 898.24,-49.18 1116.35,-55.78 1191,-95.73 1201.54,-101.37 1199.17,-108.92 1209,-115.73 1221.02,-124.06 1235.78,-130.46 1248.94,-135.1"/>
<polygon fill="midnightblue" stroke="midnightblue" points="623.25,-25.13 613.13,-28.27 623,-32.13 623.25,-25.13"/>
</g>
<!-- Node24 -->
<g id="node24" class="node">
<title>Node24</title>
<g id="a_node24"><a xlink:title=" ">
<polygon fill="none" stroke="#bfbfbf" points="138,-11.73 138,-41.73 296,-41.73 296,-11.73 138,-11.73"/>
<text text-anchor="start" x="146" y="-29.73" font-family="Helvetica,sans-Serif" font-size="10.00">std::enable_shared</text>
<text text-anchor="middle" x="217" y="-18.73" font-family="Helvetica,sans-Serif" font-size="10.00">_from_this&lt; AttributeBase &gt;</text>
</a>
</g>
</g>
<!-- Node24&#45;&gt;Node23 -->
<g id="edge33" class="edge">
<title>Node24&#45;&gt;Node23</title>
<path fill="none" stroke="midnightblue" d="M306.33,-26.73C369.3,-26.73 451.88,-26.73 504.95,-26.73"/>
<polygon fill="midnightblue" stroke="midnightblue" points="306,-23.23 296,-26.73 306,-30.23 306,-23.23"/>
</g>
<!-- Node25&#45;&gt;Node22 -->
<g id="edge34" class="edge">
<title>Node25&#45;&gt;Node22</title>
<path fill="none" stroke="midnightblue" d="M815.31,-84.76C924.66,-87.56 1119.54,-92.54 1219.71,-95.11"/>
<polygon fill="midnightblue" stroke="midnightblue" points="815.09,-81.25 805,-84.49 814.91,-88.25 815.09,-81.25"/>
</g>
<!-- Node26&#45;&gt;Node22 -->
<g id="edge36" class="edge">
<title>Node26&#45;&gt;Node22</title>
<path fill="none" stroke="orange" stroke-dasharray="5,2" d="M980.52,-105.95C991.37,-105.52 1002.5,-105.1 1013,-104.73 1083.89,-102.24 1165.26,-99.9 1219.98,-98.4"/>
<polygon fill="orange" stroke="orange" points="980.09,-102.46 970.23,-106.36 980.37,-109.46 980.09,-102.46"/>
<text text-anchor="middle" x="1102" y="-107.73" font-family="Helvetica,sans-Serif" font-size="10.00"> &lt; Real &gt;</text>
</g>
<!-- Node26&#45;&gt;Node28 -->
<g id="edge44" class="edge">
<title>Node26&#45;&gt;Node28</title>
<path fill="none" stroke="orange" stroke-dasharray="5,2" d="M980.07,-115.13C1044.23,-121.4 1141.83,-130.94 1208.8,-137.48"/>
<polygon fill="orange" stroke="orange" points="980.36,-111.65 970.07,-114.16 979.68,-118.61 980.36,-111.65"/>
<text text-anchor="middle" x="1102" y="-138.73" font-family="Helvetica,sans-Serif" font-size="10.00"> &lt; Complex &gt;</text>
</g>
<!-- Node27&#45;&gt;Node26 -->
<g id="edge38" class="edge">
<title>Node27&#45;&gt;Node26</title>
<path fill="none" stroke="midnightblue" d="M639.61,-112.6C705.78,-111.66 798.27,-110.35 856.76,-109.52"/>
<polygon fill="midnightblue" stroke="midnightblue" points="639.17,-109.1 629.22,-112.75 639.27,-116.1 639.17,-109.1"/>
</g>
<!-- Node28&#45;&gt;Node1 -->
<g id="edge40" class="edge">
<title>Node28&#45;&gt;Node1</title>
<path fill="none" stroke="#9a32cd" stroke-dasharray="5,2" d="M1369.59,-151.54C1432.75,-157.2 1521.07,-166.33 1598,-178.73 1623.83,-182.89 1652.58,-189.05 1675.06,-194.2"/>
<polygon fill="#9a32cd" stroke="#9a32cd" points="1369.55,-148.02 1359.28,-150.62 1368.93,-154.99 1369.55,-148.02"/>
<text text-anchor="middle" x="1534.5" y="-181.73" font-family="Helvetica,sans-Serif" font-size="10.00"> mVoltageRef</text>
</g>
<!-- Node29&#45;&gt;Node28 -->
<g id="edge42" class="edge">
<title>Node29&#45;&gt;Node28</title>
<path fill="none" stroke="midnightblue" d="M815.23,-158.76C906.02,-157.48 1059.29,-154.75 1191,-149.73 1196.75,-149.51 1202.71,-149.25 1208.7,-148.97"/>
<polygon fill="midnightblue" stroke="midnightblue" points="814.96,-155.27 805.01,-158.9 815.06,-162.27 814.96,-155.27"/>
</g>
</g>
</svg>
