<?xml version="1.0" encoding="UTF-8" standalone="no"?>
<!DOCTYPE svg PUBLIC "-//W3C//DTD SVG 1.1//EN"
 "http://www.w3.org/Graphics/SVG/1.1/DTD/svg11.dtd">
<!-- Generated by graphviz version 12.2.1 (20241206.2353)
 -->
<!-- Title: CPS::EMT::Ph3::SSN::Inductor Pages: 1 -->
<svg width="1592pt" height="178pt"
 viewBox="0.00 0.00 1591.75 178.38" xmlns="http://www.w3.org/2000/svg" xmlns:xlink="http://www.w3.org/1999/xlink">
<g id="graph0" class="graph" transform="scale(1 1) rotate(0) translate(4 174.38)">
<title>CPS::EMT::Ph3::SSN::Inductor</title>
<!-- Node1 -->
<g id="Node000001" class="node">
<title>Node1</title>
<g id="a_Node000001"><a xlink:title="Inductor.">
<polygon fill="#999999" stroke="#666666" points="1583.75,-85.5 1477,-85.5 1477,-49 1583.75,-49 1583.75,-85.5"/>
<text text-anchor="start" x="1485" y="-72" font-family="Helvetica,sans-Serif" font-size="10.00">CPS::EMT::Ph3::SSN</text>
<text text-anchor="middle" x="1530.38" y="-57.75" font-family="Helvetica,sans-Serif" font-size="10.00">::Inductor</text>
</a>
</g>
</g>
<!-- Node2 -->
<g id="Node000002" class="node">
<title>Node2</title>
<g id="a_Node000002"><a xlink:href="class_c_p_s_1_1_e_m_t_1_1_ph3_1_1_two_terminal_v_type_s_s_n_comp.html" target="_top" xlink:title="Abstract base class for three&#45;phase, two&#45;terminal, V&#45;type SSN components.">
<polygon fill="white" stroke="#666666" points="1440,-132.5 1292.75,-132.5 1292.75,-96 1440,-96 1440,-132.5"/>
<text text-anchor="start" x="1300.75" y="-119" font-family="Helvetica,sans-Serif" font-size="10.00">CPS::EMT::Ph3::TwoTerminal</text>
<text text-anchor="middle" x="1366.38" y="-104.75" font-family="Helvetica,sans-Serif" font-size="10.00">VTypeSSNComp</text>
</a>
</g>
</g>
<!-- Node2&#45;&gt;Node1 -->
<g id="edge1_Node000001_Node000002" class="edge">
<title>Node2&#45;&gt;Node1</title>
<g id="a_edge1_Node000001_Node000002"><a xlink:title=" ">
<path fill="none" stroke="#63b8ff" d="M1442.74,-92.38C1454.17,-89.07 1465.74,-85.71 1476.55,-82.58"/>
<polygon fill="#63b8ff" stroke="#63b8ff" points="1441.95,-88.97 1433.32,-95.12 1443.9,-95.69 1441.95,-88.97"/>
</a>
</g>
</g>
<!-- Node3 -->
<g id="Node000003" class="node">
<title>Node3</title>
<g id="a_Node000003"><a xlink:href="class_c_p_s_1_1_e_m_t_1_1_v_type_s_s_n_comp.html" target="_top" xlink:title="Abstract base class for EMT V&#45;type SSN components.">
<polygon fill="white" stroke="#666666" points="1197.5,-125.38 1059.25,-125.38 1059.25,-103.12 1197.5,-103.12 1197.5,-125.38"/>
<text text-anchor="middle" x="1128.38" y="-111.88" font-family="Helvetica,sans-Serif" font-size="10.00">CPS::EMT::VTypeSSNComp</text>
</a>
</g>
</g>
<!-- Node3&#45;&gt;Node2 -->
<g id="edge2_Node000002_Node000003" class="edge">
<title>Node3&#45;&gt;Node2</title>
<g id="a_edge2_Node000002_Node000003"><a xlink:title=" ">
<path fill="none" stroke="#63b8ff" d="M1209.3,-114.25C1236.24,-114.25 1266.14,-114.25 1292.51,-114.25"/>
<polygon fill="#63b8ff" stroke="#63b8ff" points="1209.47,-110.75 1199.47,-114.25 1209.47,-117.75 1209.47,-110.75"/>
</a>
</g>
</g>
<!-- Node4 -->
<g id="Node000004" class="node">
<title>Node4</title>
<g id="a_Node000004"><a xlink:href="class_c_p_s_1_1_e_m_t_1_1_s_s_n_comp.html" target="_top" xlink:title="Abstract base class for EMT state&#45;space nodal (SSN) components.">
<polygon fill="white" stroke="#666666" points="1022.25,-125.38 912.5,-125.38 912.5,-103.12 1022.25,-103.12 1022.25,-125.38"/>
<text text-anchor="middle" x="967.38" y="-111.88" font-family="Helvetica,sans-Serif" font-size="10.00">CPS::EMT::SSNComp</text>
</a>
</g>
</g>
<!-- Node4&#45;&gt;Node3 -->
<g id="edge3_Node000003_Node000004" class="edge">
<title>Node4&#45;&gt;Node3</title>
<g id="a_edge3_Node000003_Node000004"><a xlink:title=" ">
<path fill="none" stroke="#63b8ff" d="M1034.1,-114.25C1042.32,-114.25 1050.74,-114.25 1059.01,-114.25"/>
<polygon fill="#63b8ff" stroke="#63b8ff" points="1034.16,-110.75 1024.16,-114.25 1034.16,-117.75 1034.16,-110.75"/>
</a>
</g>
</g>
<!-- Node5 -->
<g id="Node000005" class="node">
<title>Node5</title>
<g id="a_Node000005"><a xlink:href="class_c_p_s_1_1_m_n_a_sim_power_comp.html" target="_top" xlink:title=" ">
<polygon fill="white" stroke="#666666" points="875.5,-132.5 739.5,-132.5 739.5,-96 875.5,-96 875.5,-132.5"/>
<text text-anchor="start" x="747.5" y="-119" font-family="Helvetica,sans-Serif" font-size="10.00">CPS::MNASimPowerComp</text>
<text text-anchor="middle" x="807.5" y="-104.75" font-family="Helvetica,sans-Serif" font-size="10.00">&lt; Real &gt;</text>
</a>
</g>
</g>
<!-- Node5&#45;&gt;Node4 -->
<g id="edge4_Node000004_Node000005" class="edge">
<title>Node5&#45;&gt;Node4</title>
<g id="a_edge4_Node000004_Node000005"><a xlink:title=" ">
<path fill="none" stroke="#63b8ff" d="M887.3,-114.25C895.67,-114.25 904.05,-114.25 912.06,-114.25"/>
<polygon fill="#63b8ff" stroke="#63b8ff" points="887.42,-110.75 877.42,-114.25 887.42,-117.75 887.42,-110.75"/>
</a>
</g>
</g>
<!-- Node6 -->
<g id="Node000006" class="node">
<title>Node6</title>
<g id="a_Node000006"><a xlink:href="class_c_p_s_1_1_sim_power_comp.html" target="_top" xlink:title=" ">
<polygon fill="white" stroke="#666666" points="656.62,-77.5 537.88,-77.5 537.88,-41 656.62,-41 656.62,-77.5"/>
<text text-anchor="start" x="545.88" y="-64" font-family="Helvetica,sans-Serif" font-size="10.00">CPS::SimPowerComp&lt;</text>
<text text-anchor="middle" x="597.25" y="-49.75" font-family="Helvetica,sans-Serif" font-size="10.00"> Real &gt;</text>
</a>
</g>
</g>
<!-- Node6&#45;&gt;Node5 -->
<g id="edge5_Node000005_Node000006" class="edge">
<title>Node6&#45;&gt;Node5</title>
<g id="a_edge5_Node000005_Node000006"><a xlink:title=" ">
<path fill="none" stroke="#63b8ff" d="M668.15,-77.71C691.12,-83.78 716.6,-90.51 739.36,-96.52"/>
<polygon fill="#63b8ff" stroke="#63b8ff" points="669.12,-74.35 658.55,-75.18 667.33,-81.11 669.12,-74.35"/>
</a>
</g>
</g>
<!-- Node7 -->
<g id="Node000007" class="node">
<title>Node7</title>
<g id="a_Node000007"><a xlink:href="class_c_p_s_1_1_topological_power_comp.html" target="_top" xlink:title=" ">
<polygon fill="white" stroke="#666666" points="299.25,-75.38 152,-75.38 152,-53.12 299.25,-53.12 299.25,-75.38"/>
<text text-anchor="middle" x="225.62" y="-61.88" font-family="Helvetica,sans-Serif" font-size="10.00">CPS::TopologicalPowerComp</text>
</a>
</g>
</g>
<!-- Node7&#45;&gt;Node6 -->
<g id="edge6_Node000006_Node000007" class="edge">
<title>Node7&#45;&gt;Node6</title>
<g id="a_edge6_Node000006_Node000007"><a xlink:title=" ">
<path fill="none" stroke="#63b8ff" d="M310.96,-63.11C380.23,-62.17 476.56,-60.87 537.66,-60.04"/>
<polygon fill="#63b8ff" stroke="#63b8ff" points="311.12,-59.61 301.16,-63.24 311.21,-66.61 311.12,-59.61"/>
</a>
</g>
</g>
<!-- Node9 -->
<g id="Node000009" class="node">
<title>Node9</title>
<g id="a_Node000009"><a xlink:href="class_c_p_s_1_1_sim_power_comp.html" target="_top" xlink:title="Base class for all components that are transmitting power.">
<polygon fill="white" stroke="#666666" points="455,-36.5 336.25,-36.5 336.25,0 455,0 455,-36.5"/>
<text text-anchor="start" x="344.25" y="-23" font-family="Helvetica,sans-Serif" font-size="10.00">CPS::SimPowerComp&lt;</text>
<text text-anchor="middle" x="395.62" y="-8.75" font-family="Helvetica,sans-Serif" font-size="10.00"> VarType &gt;</text>
</a>
</g>
</g>
<!-- Node7&#45;&gt;Node9 -->
<g id="edge9_Node000009_Node000007" class="edge">
<title>Node7&#45;&gt;Node9</title>
<g id="a_edge9_Node000009_Node000007"><a xlink:title=" ">
<path fill="none" stroke="#63b8ff" d="M280.1,-49.61C297.92,-44.73 317.87,-39.27 336.07,-34.28"/>
<polygon fill="#63b8ff" stroke="#63b8ff" points="279.2,-46.23 270.48,-52.24 281.05,-52.98 279.2,-46.23"/>
</a>
</g>
</g>
<!-- Node12 -->
<g id="Node000012" class="node">
<title>Node12</title>
<g id="a_Node000012"><a xlink:href="class_c_p_s_1_1_sim_power_comp.html" target="_top" xlink:title="Base class for all components that are transmitting power.">
<polygon fill="white" stroke="#666666" points="455,-128.5 336.25,-128.5 336.25,-92 455,-92 455,-128.5"/>
<text text-anchor="start" x="344.25" y="-115" font-family="Helvetica,sans-Serif" font-size="10.00">CPS::SimPowerComp&lt;</text>
<text text-anchor="middle" x="395.62" y="-100.75" font-family="Helvetica,sans-Serif" font-size="10.00"> VarType &gt;</text>
</a>
</g>
</g>
<!-- Node7&#45;&gt;Node12 -->
<g id="edge13_Node000012_Node000007" class="edge">
<title>Node7&#45;&gt;Node12</title>
<g id="a_edge13_Node000012_Node000007"><a xlink:title=" ">
<path fill="none" stroke="#63b8ff" d="M280.1,-78.89C297.92,-83.77 317.87,-89.23 336.07,-94.22"/>
<polygon fill="#63b8ff" stroke="#63b8ff" points="281.05,-75.52 270.48,-76.26 279.2,-82.27 281.05,-75.52"/>
</a>
</g>
</g>
<!-- Node8 -->
<g id="Node000008" class="node">
<title>Node8</title>
<g id="a_Node000008"><a xlink:href="class_c_p_s_1_1_identified_object.html" target="_top" xlink:title=" ">
<polygon fill="white" stroke="#666666" points="115,-75.38 0,-75.38 0,-53.12 115,-53.12 115,-75.38"/>
<text text-anchor="middle" x="57.5" y="-61.88" font-family="Helvetica,sans-Serif" font-size="10.00">CPS::IdentifiedObject</text>
</a>
</g>
</g>
<!-- Node8&#45;&gt;Node7 -->
<g id="edge7_Node000007_Node000008" class="edge">
<title>Node8&#45;&gt;Node7</title>
<g id="a_edge7_Node000007_Node000008"><a xlink:title=" ">
<path fill="none" stroke="#63b8ff" d="M126.7,-64.25C134.95,-64.25 143.41,-64.25 151.73,-64.25"/>
<polygon fill="#63b8ff" stroke="#63b8ff" points="126.72,-60.75 116.72,-64.25 126.72,-67.75 126.72,-60.75"/>
</a>
</g>
</g>
<!-- Node9&#45;&gt;Node6 -->
<g id="edge8_Node000006_Node000009" class="edge">
<title>Node9&#45;&gt;Node6</title>
<g id="a_edge8_Node000006_Node000009"><a xlink:title=" ">
<path fill="none" stroke="orange" stroke-dasharray="5,2" d="M466.62,-27.8C481.41,-30.18 496.89,-32.93 511.25,-36 519.78,-37.82 528.72,-39.98 537.48,-42.24"/>
<polygon fill="orange" stroke="orange" points="467.38,-24.37 456.96,-26.29 466.3,-31.29 467.38,-24.37"/>
</a>
</g>
<text text-anchor="middle" x="492.12" y="-40.75" font-family="Helvetica,sans-Serif" font-size="10.00" fill="grey"> &lt; Real &gt;</text>
</g>
<!-- Node10 -->
<g id="Node000010" class="node">
<title>Node10</title>
<g id="a_Node000010"><a xlink:href="class_c_p_s_1_1_m_n_a_interface.html" target="_top" xlink:title="Interface to be implemented by all models used by the MNA solver.">
<polygon fill="white" stroke="#666666" points="448.62,-170.38 342.62,-170.38 342.62,-148.12 448.62,-148.12 448.62,-170.38"/>
<text text-anchor="middle" x="395.62" y="-156.88" font-family="Helvetica,sans-Serif" font-size="10.00">CPS::MNAInterface</text>
</a>
</g>
</g>
<!-- Node10&#45;&gt;Node5 -->
<g id="edge10_Node000005_Node000010" class="edge">
<title>Node10&#45;&gt;Node5</title>
<g id="a_edge10_Node000005_Node000010"><a xlink:title=" ">
<path fill="none" stroke="#63b8ff" d="M460.23,-156.63C514.75,-154 595.33,-149.17 665.25,-141.25 690.41,-138.4 696.61,-136.87 721.5,-132.25 727.28,-131.18 733.28,-130.01 739.28,-128.81"/>
<polygon fill="#63b8ff" stroke="#63b8ff" points="460.34,-153.13 450.51,-157.09 460.67,-160.12 460.34,-153.13"/>
</a>
</g>
</g>
<!-- Node11 -->
<g id="Node000011" class="node">
<title>Node11</title>
<g id="a_Node000011"><a xlink:href="class_c_p_s_1_1_m_n_a_sim_power_comp.html" target="_top" xlink:title="Base class for all MNA components that are transmitting power.">
<polygon fill="white" stroke="#666666" points="665.25,-132.5 529.25,-132.5 529.25,-96 665.25,-96 665.25,-132.5"/>
<text text-anchor="start" x="537.25" y="-119" font-family="Helvetica,sans-Serif" font-size="10.00">CPS::MNASimPowerComp</text>
<text text-anchor="middle" x="597.25" y="-104.75" font-family="Helvetica,sans-Serif" font-size="10.00">&lt; VarType &gt;</text>
</a>
</g>
</g>
<!-- Node10&#45;&gt;Node11 -->
<g id="edge14_Node000011_Node000010" class="edge">
<title>Node10&#45;&gt;Node11</title>
<g id="a_edge14_Node000011_Node000010"><a xlink:title=" ">
<path fill="none" stroke="#63b8ff" d="M459,-145.19C481.18,-140.19 506.24,-134.54 528.82,-129.45"/>
<polygon fill="#63b8ff" stroke="#63b8ff" points="458.5,-141.72 449.51,-147.33 460.03,-148.54 458.5,-141.72"/>
</a>
</g>
</g>
<!-- Node11&#45;&gt;Node5 -->
<g id="edge11_Node000005_Node000011" class="edge">
<title>Node11&#45;&gt;Node5</title>
<g id="a_edge11_Node000005_Node000011"><a xlink:title=" ">
<path fill="none" stroke="orange" stroke-dasharray="5,2" d="M677.08,-114.25C697.49,-114.25 719.28,-114.25 739.05,-114.25"/>
<polygon fill="orange" stroke="orange" points="677.09,-110.75 667.09,-114.25 677.09,-117.75 677.09,-110.75"/>
</a>
</g>
<text text-anchor="middle" x="702.38" y="-119" font-family="Helvetica,sans-Serif" font-size="10.00" fill="grey"> &lt; Real &gt;</text>
</g>
<!-- Node12&#45;&gt;Node11 -->
<g id="edge12_Node000011_Node000012" class="edge">
<title>Node12&#45;&gt;Node11</title>
<g id="a_edge12_Node000011_Node000012"><a xlink:title=" ">
<path fill="none" stroke="#63b8ff" d="M466.79,-111.66C487.03,-112.06 509.05,-112.5 529.09,-112.9"/>
<polygon fill="#63b8ff" stroke="#63b8ff" points="467.02,-108.16 456.95,-111.46 466.88,-115.16 467.02,-108.16"/>
</a>
</g>
</g>
<!-- Node13 -->
<g id="Node000013" class="node">
<title>Node13</title>
<g id="a_Node000013"><a xlink:href="class_c_p_s_1_1_base_1_1_ph3_1_1_inductor.html" target="_top" xlink:title=" ">
<polygon fill="white" stroke="#bfbfbf" points="1432.5,-78.38 1300.25,-78.38 1300.25,-56.12 1432.5,-56.12 1432.5,-78.38"/>
<text text-anchor="middle" x="1366.38" y="-64.88" font-family="Helvetica,sans-Serif" font-size="10.00">CPS::Base::Ph3::Inductor</text>
</a>
</g>
</g>
<!-- Node13&#45;&gt;Node1 -->
<g id="edge15_Node000001_Node000013" class="edge">
<title>Node13&#45;&gt;Node1</title>
<g id="a_edge15_Node000001_Node000013"><a xlink:title=" ">
<path fill="none" stroke="#63b8ff" d="M1444.18,-67.25C1455.17,-67.25 1466.26,-67.25 1476.64,-67.25"/>
<polygon fill="#63b8ff" stroke="#63b8ff" points="1444.31,-63.75 1434.31,-67.25 1444.31,-70.75 1444.31,-63.75"/>
</a>
</g>
</g>
<!-- Node14 -->
<g id="Node000014" class="node">
<title>Node14</title>
<g id="a_Node000014"><a xlink:href="class_shared_factory.html" target="_top" xlink:title=" ">
<polygon fill="white" stroke="#666666" points="1436.25,-38.38 1296.5,-38.38 1296.5,-16.12 1436.25,-16.12 1436.25,-38.38"/>
<text text-anchor="middle" x="1366.38" y="-24.88" font-family="Helvetica,sans-Serif" font-size="10.00">SharedFactory&lt; Inductor &gt;</text>
</a>
</g>
</g>
<!-- Node14&#45;&gt;Node1 -->
<g id="edge16_Node000001_Node000014" class="edge">
<title>Node14&#45;&gt;Node1</title>
<g id="a_edge16_Node000001_Node000014"><a xlink:title=" ">
<path fill="none" stroke="#63b8ff" d="M1425.04,-41.49C1441.86,-45.64 1460.15,-50.16 1476.65,-54.23"/>
<polygon fill="#63b8ff" stroke="#63b8ff" points="1426.25,-38.18 1415.7,-39.18 1424.57,-44.98 1426.25,-38.18"/>
</a>
</g>
</g>
<!-- Node15 -->
<g id="Node000015" class="node">
<title>Node15</title>
<g id="a_Node000015"><a xlink:href="class_shared_factory.html" target="_top" xlink:title=" ">
<polygon fill="white" stroke="#666666" points="1180.62,-38.38 1076.12,-38.38 1076.12,-16.12 1180.62,-16.12 1180.62,-38.38"/>
<text text-anchor="middle" x="1128.38" y="-24.88" font-family="Helvetica,sans-Serif" font-size="10.00">SharedFactory&lt; T &gt;</text>
</a>
</g>
</g>
<!-- Node15&#45;&gt;Node14 -->
<g id="edge17_Node000014_Node000015" class="edge">
<title>Node15&#45;&gt;Node14</title>
<g id="a_edge17_Node000014_Node000015"><a xlink:title=" ">
<path fill="none" stroke="orange" stroke-dasharray="5,2" d="M1192.32,-27.25C1224.3,-27.25 1263.24,-27.25 1296.07,-27.25"/>
<polygon fill="orange" stroke="orange" points="1192.39,-23.75 1182.39,-27.25 1192.39,-30.75 1192.39,-23.75"/>
</a>
</g>
<text text-anchor="middle" x="1245.12" y="-32" font-family="Helvetica,sans-Serif" font-size="10.00" fill="grey"> &lt; Inductor &gt;</text>
</g>
</g>
</svg>
