<?xml version="1.0" encoding="UTF-8" standalone="no"?>
<!DOCTYPE svg PUBLIC "-//W3C//DTD SVG 1.1//EN"
 "http://www.w3.org/Graphics/SVG/1.1/DTD/svg11.dtd">
<!-- Generated by graphviz version 2.50.0 (0)
 -->
<!-- Title: CPS::SP::Ph3::Capacitor Pages: 1 -->
<svg width="1101pt" height="165pt"
 viewBox="0.00 0.00 1101.00 164.50" xmlns="http://www.w3.org/2000/svg" xmlns:xlink="http://www.w3.org/1999/xlink">
<g id="graph0" class="graph" transform="scale(1 1) rotate(0) translate(4 160.5)">
<title>CPS::SP::Ph3::Capacitor</title>
<!-- Node1 -->
<g id="node1" class="node">
<title>Node1</title>
<g id="a_node1"><a xlink:title="Capacitor model.">
<polygon fill="#bfbfbf" stroke="black" points="968,-38.5 968,-57.5 1093,-57.5 1093,-38.5 968,-38.5"/>
<text text-anchor="middle" x="1030.5" y="-45.5" font-family="Helvetica,sans-Serif" font-size="10.00">CPS::SP::Ph3::Capacitor</text>
</a>
</g>
</g>
<!-- Node2 -->
<g id="node2" class="node">
<title>Node2</title>
<g id="a_node2"><a xlink:href="class_c_p_s_1_1_m_n_a_sim_power_comp.html" target="_top" xlink:title=" ">
<polygon fill="none" stroke="black" points="791,-77 791,-107 928,-107 928,-77 791,-77"/>
<text text-anchor="start" x="799" y="-95" font-family="Helvetica,sans-Serif" font-size="10.00">CPS::MNASimPowerComp</text>
<text text-anchor="middle" x="859.5" y="-84" font-family="Helvetica,sans-Serif" font-size="10.00">&lt; Complex &gt;</text>
</a>
</g>
</g>
<!-- Node2&#45;&gt;Node1 -->
<g id="edge1" class="edge">
<title>Node2&#45;&gt;Node1</title>
<path fill="none" stroke="midnightblue" d="M927.91,-74.45C950.12,-68.67 973.96,-62.46 992.96,-57.51"/>
<polygon fill="midnightblue" stroke="midnightblue" points="926.98,-71.07 918.19,-76.98 928.75,-77.85 926.98,-71.07"/>
</g>
<!-- Node3 -->
<g id="node3" class="node">
<title>Node3</title>
<g id="a_node3"><a xlink:href="class_c_p_s_1_1_sim_power_comp.html" target="_top" xlink:title=" ">
<polygon fill="none" stroke="black" points="561,-126 561,-156 680,-156 680,-126 561,-126"/>
<text text-anchor="start" x="569" y="-144" font-family="Helvetica,sans-Serif" font-size="10.00">CPS::SimPowerComp&lt;</text>
<text text-anchor="middle" x="620.5" y="-133" font-family="Helvetica,sans-Serif" font-size="10.00"> Complex &gt;</text>
</a>
</g>
</g>
<!-- Node3&#45;&gt;Node2 -->
<g id="edge2" class="edge">
<title>Node3&#45;&gt;Node2</title>
<path fill="none" stroke="midnightblue" d="M690.16,-126.8C721.86,-120.25 759.38,-112.49 790.94,-105.97"/>
<polygon fill="midnightblue" stroke="midnightblue" points="689.17,-123.44 680.08,-128.89 690.59,-130.29 689.17,-123.44"/>
</g>
<!-- Node4 -->
<g id="node4" class="node">
<title>Node4</title>
<g id="a_node4"><a xlink:href="class_c_p_s_1_1_topological_power_comp.html" target="_top" xlink:title=" ">
<polygon fill="none" stroke="black" points="153,-125.5 153,-144.5 301,-144.5 301,-125.5 153,-125.5"/>
<text text-anchor="middle" x="227" y="-132.5" font-family="Helvetica,sans-Serif" font-size="10.00">CPS::TopologicalPowerComp</text>
</a>
</g>
</g>
<!-- Node4&#45;&gt;Node3 -->
<g id="edge3" class="edge">
<title>Node4&#45;&gt;Node3</title>
<path fill="none" stroke="midnightblue" d="M311.3,-138.88C372.82,-141.33 458.62,-143.88 534,-143 542.61,-142.9 551.71,-142.74 560.63,-142.56"/>
<polygon fill="midnightblue" stroke="midnightblue" points="311.39,-135.38 301.26,-138.47 311.11,-142.37 311.39,-135.38"/>
</g>
<!-- Node6 -->
<g id="node6" class="node">
<title>Node6</title>
<g id="a_node6"><a xlink:href="class_c_p_s_1_1_sim_power_comp.html" target="_top" xlink:title="Base class for all components that are transmitting power.">
<polygon fill="none" stroke="black" points="338,-98 338,-128 457,-128 457,-98 338,-98"/>
<text text-anchor="start" x="346" y="-116" font-family="Helvetica,sans-Serif" font-size="10.00">CPS::SimPowerComp&lt;</text>
<text text-anchor="middle" x="397.5" y="-105" font-family="Helvetica,sans-Serif" font-size="10.00"> VarType &gt;</text>
</a>
</g>
</g>
<!-- Node4&#45;&gt;Node6 -->
<g id="edge6" class="edge">
<title>Node4&#45;&gt;Node6</title>
<path fill="none" stroke="midnightblue" d="M311.12,-124.15C320.18,-122.97 329.25,-121.78 337.92,-120.65"/>
<polygon fill="midnightblue" stroke="midnightblue" points="310.39,-120.71 300.93,-125.48 311.3,-127.65 310.39,-120.71"/>
</g>
<!-- Node5 -->
<g id="node5" class="node">
<title>Node5</title>
<g id="a_node5"><a xlink:href="class_c_p_s_1_1_identified_object.html" target="_top" xlink:title=" ">
<polygon fill="none" stroke="black" points="0,-125.5 0,-144.5 116,-144.5 116,-125.5 0,-125.5"/>
<text text-anchor="middle" x="58" y="-132.5" font-family="Helvetica,sans-Serif" font-size="10.00">CPS::IdentifiedObject</text>
</a>
</g>
</g>
<!-- Node5&#45;&gt;Node4 -->
<g id="edge4" class="edge">
<title>Node5&#45;&gt;Node4</title>
<path fill="none" stroke="midnightblue" d="M126.13,-135C134.88,-135 143.88,-135 152.72,-135"/>
<polygon fill="midnightblue" stroke="midnightblue" points="126,-131.5 116,-135 126,-138.5 126,-131.5"/>
</g>
<!-- Node6&#45;&gt;Node3 -->
<g id="edge5" class="edge">
<title>Node6&#45;&gt;Node3</title>
<path fill="none" stroke="orange" stroke-dasharray="5,2" d="M467.14,-121.7C497.22,-125.51 532.14,-129.93 560.97,-133.58"/>
<polygon fill="orange" stroke="orange" points="467.5,-118.21 457.14,-120.43 466.62,-125.16 467.5,-118.21"/>
<text text-anchor="middle" x="504.5" y="-132" font-family="Helvetica,sans-Serif" font-size="10.00"> &lt; Complex &gt;</text>
</g>
<!-- Node8 -->
<g id="node8" class="node">
<title>Node8</title>
<g id="a_node8"><a xlink:href="class_c_p_s_1_1_m_n_a_sim_power_comp.html" target="_top" xlink:title="Base class for all MNA components that are transmitting power.">
<polygon fill="none" stroke="black" points="552,-77 552,-107 689,-107 689,-77 552,-77"/>
<text text-anchor="start" x="560" y="-95" font-family="Helvetica,sans-Serif" font-size="10.00">CPS::MNASimPowerComp</text>
<text text-anchor="middle" x="620.5" y="-84" font-family="Helvetica,sans-Serif" font-size="10.00">&lt; VarType &gt;</text>
</a>
</g>
</g>
<!-- Node6&#45;&gt;Node8 -->
<g id="edge9" class="edge">
<title>Node6&#45;&gt;Node8</title>
<path fill="none" stroke="midnightblue" d="M467.28,-106.46C494.25,-103.9 525.11,-100.97 551.97,-98.42"/>
<polygon fill="midnightblue" stroke="midnightblue" points="466.77,-103 457.14,-107.43 467.43,-109.97 466.77,-103"/>
</g>
<!-- Node7 -->
<g id="node7" class="node">
<title>Node7</title>
<g id="a_node7"><a xlink:href="class_c_p_s_1_1_m_n_a_interface.html" target="_top" xlink:title="Interface to be implemented by all models used by the MNA solver.">
<polygon fill="none" stroke="black" points="344,-49.5 344,-68.5 451,-68.5 451,-49.5 344,-49.5"/>
<text text-anchor="middle" x="397.5" y="-56.5" font-family="Helvetica,sans-Serif" font-size="10.00">CPS::MNAInterface</text>
</a>
</g>
</g>
<!-- Node7&#45;&gt;Node2 -->
<g id="edge7" class="edge">
<title>Node7&#45;&gt;Node2</title>
<path fill="none" stroke="midnightblue" d="M461.34,-58.96C520.26,-59.4 610.75,-61.27 689,-68 722.61,-70.89 759.73,-75.94 790.65,-80.66"/>
<polygon fill="midnightblue" stroke="midnightblue" points="461.1,-55.46 451.08,-58.9 461.06,-62.46 461.1,-55.46"/>
</g>
<!-- Node7&#45;&gt;Node8 -->
<g id="edge10" class="edge">
<title>Node7&#45;&gt;Node8</title>
<path fill="none" stroke="midnightblue" d="M461.31,-68.38C489.55,-72.6 522.94,-77.58 551.75,-81.88"/>
<polygon fill="midnightblue" stroke="midnightblue" points="461.56,-64.88 451.15,-66.86 460.53,-71.8 461.56,-64.88"/>
</g>
<!-- Node8&#45;&gt;Node2 -->
<g id="edge8" class="edge">
<title>Node8&#45;&gt;Node2</title>
<path fill="none" stroke="orange" stroke-dasharray="5,2" d="M699.37,-92C728.91,-92 762.29,-92 790.81,-92"/>
<polygon fill="orange" stroke="orange" points="699.1,-88.5 689.1,-92 699.1,-95.5 699.1,-88.5"/>
<text text-anchor="middle" x="738.5" y="-95" font-family="Helvetica,sans-Serif" font-size="10.00"> &lt; Complex &gt;</text>
</g>
<!-- Node9 -->
<g id="node9" class="node">
<title>Node9</title>
<g id="a_node9"><a xlink:href="class_c_p_s_1_1_base_1_1_ph3_1_1_capacitor.html" target="_top" xlink:title=" ">
<polygon fill="none" stroke="black" points="791.5,-38.5 791.5,-57.5 927.5,-57.5 927.5,-38.5 791.5,-38.5"/>
<text text-anchor="middle" x="859.5" y="-45.5" font-family="Helvetica,sans-Serif" font-size="10.00">CPS::Base::Ph3::Capacitor</text>
</a>
</g>
</g>
<!-- Node9&#45;&gt;Node1 -->
<g id="edge11" class="edge">
<title>Node9&#45;&gt;Node1</title>
<path fill="none" stroke="midnightblue" d="M937.81,-48C947.91,-48 958.14,-48 967.93,-48"/>
<polygon fill="midnightblue" stroke="midnightblue" points="937.78,-44.5 927.78,-48 937.78,-51.5 937.78,-44.5"/>
</g>
<!-- Node10 -->
<g id="node10" class="node">
<title>Node10</title>
<g id="a_node10"><a xlink:href="class_shared_factory.html" target="_top" xlink:title=" ">
<polygon fill="none" stroke="black" points="788,-0.5 788,-19.5 931,-19.5 931,-0.5 788,-0.5"/>
<text text-anchor="middle" x="859.5" y="-7.5" font-family="Helvetica,sans-Serif" font-size="10.00">SharedFactory&lt; Capacitor &gt;</text>
</a>
</g>
</g>
<!-- Node10&#45;&gt;Node1 -->
<g id="edge12" class="edge">
<title>Node10&#45;&gt;Node1</title>
<path fill="none" stroke="midnightblue" d="M913.09,-21.82C936.91,-27.18 964.71,-33.43 987.16,-38.48"/>
<polygon fill="midnightblue" stroke="midnightblue" points="913.67,-18.37 903.15,-19.59 912.13,-25.2 913.67,-18.37"/>
</g>
<!-- Node11 -->
<g id="node11" class="node">
<title>Node11</title>
<g id="a_node11"><a xlink:href="class_shared_factory.html" target="_top" xlink:title=" ">
<polygon fill="none" stroke="black" points="568,-0.5 568,-19.5 673,-19.5 673,-0.5 568,-0.5"/>
<text text-anchor="middle" x="620.5" y="-7.5" font-family="Helvetica,sans-Serif" font-size="10.00">SharedFactory&lt; T &gt;</text>
</a>
</g>
</g>
<!-- Node11&#45;&gt;Node10 -->
<g id="edge13" class="edge">
<title>Node11&#45;&gt;Node10</title>
<path fill="none" stroke="orange" stroke-dasharray="5,2" d="M683.32,-10C715.26,-10 754.39,-10 787.56,-10"/>
<polygon fill="orange" stroke="orange" points="683.22,-6.5 673.22,-10 683.22,-13.5 683.22,-6.5"/>
<text text-anchor="middle" x="738.5" y="-13" font-family="Helvetica,sans-Serif" font-size="10.00"> &lt; Capacitor &gt;</text>
</g>
</g>
</svg>
