<?xml version="1.0" encoding="UTF-8" standalone="no"?>
<!DOCTYPE svg PUBLIC "-//W3C//DTD SVG 1.1//EN"
 "http://www.w3.org/Graphics/SVG/1.1/DTD/svg11.dtd">
<!-- Generated by graphviz version 12.2.1 (20241206.2353)
 -->
<!-- Title: CPS::Signal::PowerControllerVSI Pages: 1 -->
<!--zoomable 372 -->

<svg id="main" version="1.1" xmlns="http://www.w3.org/2000/svg" xmlns:xlink="http://www.w3.org/1999/xlink" xml:space="preserve" onload="init(evt)">

<style type="text/css"><![CDATA[
.node, .edge {opacity: 0.7;}
.node.selected, .edge.selected {opacity: 1;}
.edge:hover path { stroke: red; }
.edge:hover polygon { stroke: red; fill: red; }
]]></style>

<defs>
  <circle id="rim" cx="0" cy="0" r="7"/>
  <circle id="rim2" cx="0" cy="0" r="3.5"/>
  <g id="zoomPlus">
    <use xlink:href="#rim" fill="#404040"><set attributeName="fill" to="#808080" begin="zoomplus.mouseover" end="zoomplus.mouseout"/></use>
    <path d="M-4,0h8M0,-4v8" fill="none" stroke="white" stroke-width="1.5" pointer-events="none"/>
  </g>
  <g id="zoomMin">
    <use xlink:href="#rim" fill="#404040"><set attributeName="fill" to="#808080" begin="zoomminus.mouseover" end="zoomminus.mouseout"/></use>
    <path d="M-4,0h8" fill="none" stroke="white" stroke-width="1.5" pointer-events="none"/>
  </g>
  <g id="arrowUp" transform="translate(30 24)">
    <use xlink:href="#rim"/>
    <path pointer-events="none" fill="none" stroke="white" stroke-width="1.5" d="M0,-3.0v7 M-2.5,-0.5L0,-3.0L2.5,-0.5"/>
  </g>
  <g id="arrowRight" transform="rotate(90) translate(36 -43)">
    <use xlink:href="#rim"/>
    <path pointer-events="none" fill="none" stroke="white" stroke-width="1.5" d="M0,-3.0v7 M-2.5,-0.5L0,-3.0L2.5,-0.5"/>
  </g>
  <g id="arrowDown" transform="rotate(180) translate(-30 -48)">
    <use xlink:href="#rim"/>
    <path pointer-events="none" fill="none" stroke="white" stroke-width="1.5" d="M0,-3.0v7 M-2.5,-0.5L0,-3.0L2.5,-0.5"/>
  </g>
  <g id="arrowLeft" transform="rotate(270) translate(-36 17)">
    <use xlink:href="#rim"/>
    <path pointer-events="none" fill="none" stroke="white" stroke-width="1.5" d="M0,-3.0v7 M-2.5,-0.5L0,-3.0L2.5,-0.5"/>
  </g>
  <g id="resetDef">
    <use xlink:href="#rim2" fill="#404040"><set attributeName="fill" to="#808080" begin="reset.mouseover" end="reset.mouseout"/></use>
  </g>
</defs>
<script type="application/ecmascript">
var viewWidth = 1374;
var viewHeight = 372;
var sectionId = 'dynsection-1';
</script>
<script type="application/ecmascript" xlink:href="svg.min.js"/>
<svg id="graph" class="graph">
<g id="viewport">
<title>CPS::Signal::PowerControllerVSI</title>
<!-- Node1 -->
<g id="Node000001" class="node">
<title>Node1</title>
<g id="a_Node000001"><a xlink:title=" ">
<polygon fill="#999999" stroke="#666666" points="1366,-178.15 1202.25,-178.15 1202.25,-155.9 1366,-155.9 1366,-178.15"/>
<text text-anchor="middle" x="1284.12" y="-164.65" font-family="Helvetica,sans-Serif" font-size="10.00">CPS::Signal::PowerControllerVSI</text>
</a>
</g>
</g>
<!-- Node2 -->
<g id="Node000002" class="node">
<title>Node2</title>
<g id="a_Node000002"><a xlink:href="class_c_p_s_1_1_sim_signal_comp.html" target="_top" xlink:title=" ">
<polygon fill="white" stroke="#666666" points="1136.38,-291.15 1026.62,-291.15 1026.62,-268.9 1136.38,-268.9 1136.38,-291.15"/>
<text text-anchor="middle" x="1081.5" y="-277.65" font-family="Helvetica,sans-Serif" font-size="10.00">CPS::SimSignalComp</text>
</a>
</g>
</g>
<!-- Node2&#45;&gt;Node1 -->
<g id="edge1_Node000001_Node000002" class="edge">
<title>Node2&#45;&gt;Node1</title>
<g id="a_edge1_Node000001_Node000002"><a xlink:title=" ">
<path fill="none" stroke="#63b8ff" d="M1112.63,-263.06C1153.98,-239.76 1227.24,-198.5 1262.73,-178.51"/>
<polygon fill="#63b8ff" stroke="#63b8ff" points="1111.16,-259.87 1104.16,-267.82 1114.59,-265.97 1111.16,-259.87"/>
</a>
</g>
</g>
<!-- Node3 -->
<g id="Node000003" class="node">
<title>Node3</title>
<g id="a_Node000003"><a xlink:href="class_c_p_s_1_1_topological_signal_comp.html" target="_top" xlink:title=" ">
<polygon fill="white" stroke="#666666" points="851.5,-309.15 707.25,-309.15 707.25,-286.9 851.5,-286.9 851.5,-309.15"/>
<text text-anchor="middle" x="779.38" y="-295.65" font-family="Helvetica,sans-Serif" font-size="10.00">CPS::TopologicalSignalComp</text>
</a>
</g>
</g>
<!-- Node3&#45;&gt;Node2 -->
<g id="edge2_Node000002_Node000003" class="edge">
<title>Node3&#45;&gt;Node2</title>
<g id="a_edge2_Node000002_Node000003"><a xlink:title=" ">
<path fill="none" stroke="#63b8ff" d="M863.12,-293.06C915.21,-289.94 980.97,-285.99 1026.45,-283.27"/>
<polygon fill="#63b8ff" stroke="#63b8ff" points="863.16,-289.55 853.39,-293.65 863.58,-296.54 863.16,-289.55"/>
</a>
</g>
</g>
<!-- Node4 -->
<g id="Node000004" class="node">
<title>Node4</title>
<g id="a_Node000004"><a xlink:href="class_c_p_s_1_1_identified_object.html" target="_top" xlink:title=" ">
<polygon fill="white" stroke="#666666" points="670.25,-305.15 555.25,-305.15 555.25,-282.9 670.25,-282.9 670.25,-305.15"/>
<text text-anchor="middle" x="612.75" y="-291.65" font-family="Helvetica,sans-Serif" font-size="10.00">CPS::IdentifiedObject</text>
</a>
</g>
</g>
<!-- Node4&#45;&gt;Node3 -->
<g id="edge3_Node000003_Node000004" class="edge">
<title>Node4&#45;&gt;Node3</title>
<g id="a_edge3_Node000003_Node000004"><a xlink:title=" ">
<path fill="none" stroke="#63b8ff" d="M681.87,-295.68C690.09,-295.88 698.51,-296.08 706.79,-296.28"/>
<polygon fill="#63b8ff" stroke="#63b8ff" points="682,-292.18 671.92,-295.44 681.83,-299.18 682,-292.18"/>
</a>
</g>
</g>
<!-- Node5 -->
<g id="Node000005" class="node">
<title>Node5</title>
<g id="a_Node000005"><a xlink:href="class_c_p_s_1_1_attribute.html" target="_top" xlink:title=" ">
<polygon fill="white" stroke="#666666" points="479.12,-298.15 352.88,-298.15 352.88,-275.9 479.12,-275.9 479.12,-298.15"/>
<text text-anchor="middle" x="416" y="-284.65" font-family="Helvetica,sans-Serif" font-size="10.00">CPS::Attribute&lt; String &gt;</text>
</a>
</g>
</g>
<!-- Node5&#45;&gt;Node4 -->
<g id="edge4_Node000004_Node000005" class="edge">
<title>Node5&#45;&gt;Node4</title>
<g id="a_edge4_Node000004_Node000005"><a xlink:title=" ">
<path fill="none" stroke="#9a32cd" stroke-dasharray="5,2" d="M490.72,-289.67C511.99,-290.44 534.88,-291.26 554.96,-291.98"/>
<polygon fill="#9a32cd" stroke="#9a32cd" points="491.06,-286.18 480.94,-289.32 490.8,-293.18 491.06,-286.18"/>
</a>
</g>
<text text-anchor="middle" x="517.75" y="-310.15" font-family="Helvetica,sans-Serif" font-size="10.00" fill="grey"> mName</text>
<text text-anchor="middle" x="517.75" y="-295.9" font-family="Helvetica,sans-Serif" font-size="10.00" fill="grey">mUID</text>
</g>
<!-- Node6 -->
<g id="Node000006" class="node">
<title>Node6</title>
<g id="a_Node000006"><a xlink:href="class_c_p_s_1_1_attribute_base.html" target="_top" xlink:title=" ">
<polygon fill="white" stroke="#666666" points="109.75,-138.15 5.25,-138.15 5.25,-115.9 109.75,-115.9 109.75,-138.15"/>
<text text-anchor="middle" x="57.5" y="-124.65" font-family="Helvetica,sans-Serif" font-size="10.00">CPS::AttributeBase</text>
</a>
</g>
</g>
<!-- Node6&#45;&gt;Node5 -->
<g id="edge5_Node000005_Node000006" class="edge">
<title>Node6&#45;&gt;Node5</title>
<g id="a_edge5_Node000005_Node000006"><a xlink:title=" ">
<path fill="none" stroke="#63b8ff" d="M65.97,-148.79C78.29,-180.95 106.15,-240.23 152,-267.02 213.08,-302.72 296.23,-302.62 352.56,-296.92"/>
<polygon fill="#63b8ff" stroke="#63b8ff" points="69.37,-147.9 62.65,-139.7 62.8,-150.3 69.37,-147.9"/>
</a>
</g>
</g>
<!-- Node8 -->
<g id="Node000008" class="node">
<title>Node8</title>
<g id="a_Node000008"><a xlink:href="class_c_p_s_1_1_attribute.html" target="_top" xlink:title=" ">
<polygon fill="white" stroke="#666666" points="261.38,-184.15 157.62,-184.15 157.62,-161.9 261.38,-161.9 261.38,-184.15"/>
<text text-anchor="middle" x="209.5" y="-170.65" font-family="Helvetica,sans-Serif" font-size="10.00">CPS::Attribute&lt; T &gt;</text>
</a>
</g>
</g>
<!-- Node6&#45;&gt;Node8 -->
<g id="edge8_Node000008_Node000006" class="edge">
<title>Node6&#45;&gt;Node8</title>
<g id="a_edge8_Node000008_Node000006"><a xlink:title=" ">
<path fill="none" stroke="#63b8ff" d="M107.12,-141.94C127.73,-148.26 151.39,-155.51 170.66,-161.42"/>
<polygon fill="#63b8ff" stroke="#63b8ff" points="108.39,-138.66 97.8,-139.08 106.33,-145.35 108.39,-138.66"/>
</a>
</g>
</g>
<!-- Node12 -->
<g id="Node000012" class="node">
<title>Node12</title>
<g id="a_Node000012"><a xlink:href="class_c_p_s_1_1_attribute.html" target="_top" xlink:title=" ">
<polygon fill="white" stroke="#666666" points="475,-61.15 357,-61.15 357,-38.9 475,-38.9 475,-61.15"/>
<text text-anchor="middle" x="416" y="-47.65" font-family="Helvetica,sans-Serif" font-size="10.00">CPS::Attribute&lt; Real &gt;</text>
</a>
</g>
</g>
<!-- Node6&#45;&gt;Node12 -->
<g id="edge13_Node000012_Node000006" class="edge">
<title>Node6&#45;&gt;Node12</title>
<g id="a_edge13_Node000012_Node000006"><a xlink:title=" ">
<path fill="none" stroke="#63b8ff" d="M68.89,-105.86C83.33,-79.16 112.24,-34.52 152,-16.02 233.19,21.74 342.83,-17.5 390.82,-38.54"/>
<polygon fill="#63b8ff" stroke="#63b8ff" points="65.95,-103.92 64.45,-114.41 72.17,-107.15 65.95,-103.92"/>
</a>
</g>
</g>
<!-- Node14 -->
<g id="Node000014" class="node">
<title>Node14</title>
<g id="a_Node000014"><a xlink:href="class_c_p_s_1_1_attribute.html" target="_top" xlink:title=" ">
<polygon fill="white" stroke="#666666" points="480.25,-169.15 351.75,-169.15 351.75,-146.9 480.25,-146.9 480.25,-169.15"/>
<text text-anchor="middle" x="416" y="-155.65" font-family="Helvetica,sans-Serif" font-size="10.00">CPS::Attribute&lt; Matrix &gt;</text>
</a>
</g>
</g>
<!-- Node6&#45;&gt;Node14 -->
<g id="edge17_Node000014_Node000006" class="edge">
<title>Node6&#45;&gt;Node14</title>
<g id="a_edge17_Node000014_Node000006"><a xlink:title=" ">
<path fill="none" stroke="#63b8ff" d="M121.28,-115.31C177.69,-107 262.38,-100.04 333.75,-117.02 357.57,-122.7 382.33,-136.53 398.16,-146.56"/>
<polygon fill="#63b8ff" stroke="#63b8ff" points="120.88,-111.83 111.53,-116.81 121.95,-118.75 120.88,-111.83"/>
</a>
</g>
</g>
<!-- Node7 -->
<g id="Node000007" class="node">
<title>Node7</title>
<g id="a_Node000007"><a xlink:title=" ">
<polygon fill="white" stroke="#bfbfbf" points="267,-364.4 152,-364.4 152,-313.65 267,-313.65 267,-364.4"/>
<text text-anchor="start" x="160" y="-350.9" font-family="Helvetica,sans-Serif" font-size="10.00">std::enable_shared</text>
<text text-anchor="start" x="160" y="-336.65" font-family="Helvetica,sans-Serif" font-size="10.00">_from_this&lt; Attribute</text>
<text text-anchor="middle" x="209.5" y="-322.4" font-family="Helvetica,sans-Serif" font-size="10.00">&lt; String &gt; &gt;</text>
</a>
</g>
</g>
<!-- Node7&#45;&gt;Node5 -->
<g id="edge6_Node000005_Node000007" class="edge">
<title>Node7&#45;&gt;Node5</title>
<g id="a_edge6_Node000005_Node000007"><a xlink:title=" ">
<path fill="none" stroke="#63b8ff" d="M278.26,-321.79C308.17,-314.19 342.53,-305.45 369.33,-298.64"/>
<polygon fill="#63b8ff" stroke="#63b8ff" points="277.76,-318.31 268.93,-324.17 279.49,-325.09 277.76,-318.31"/>
</a>
</g>
</g>
<!-- Node8&#45;&gt;Node5 -->
<g id="edge7_Node000005_Node000008" class="edge">
<title>Node8&#45;&gt;Node5</title>
<g id="a_edge7_Node000005_Node000008"><a xlink:title=" ">
<path fill="none" stroke="orange" stroke-dasharray="5,2" d="M247.36,-189.31C253.96,-192.41 260.73,-195.73 267,-199.02 315.16,-224.33 369.65,-258.13 397.12,-275.56"/>
<polygon fill="orange" stroke="orange" points="249.14,-186.28 238.6,-185.26 246.21,-192.63 249.14,-186.28"/>
</a>
</g>
<text text-anchor="middle" x="309.38" y="-240.84" font-family="Helvetica,sans-Serif" font-size="10.00" fill="grey"> &lt; String &gt;</text>
</g>
<!-- Node8&#45;&gt;Node12 -->
<g id="edge15_Node000012_Node000008" class="edge">
<title>Node8&#45;&gt;Node12</title>
<g id="a_edge15_Node000012_Node000008"><a xlink:title=" ">
<path fill="none" stroke="orange" stroke-dasharray="5,2" d="M239.48,-155.59C281.97,-130.04 360.02,-83.09 395.96,-61.48"/>
<polygon fill="orange" stroke="orange" points="237.8,-152.52 231.04,-160.67 241.41,-158.52 237.8,-152.52"/>
</a>
</g>
<text text-anchor="middle" x="309.38" y="-130.91" font-family="Helvetica,sans-Serif" font-size="10.00" fill="grey"> &lt; Real &gt;</text>
</g>
<!-- Node8&#45;&gt;Node14 -->
<g id="edge19_Node000014_Node000008" class="edge">
<title>Node8&#45;&gt;Node14</title>
<g id="a_edge19_Node000014_Node000008"><a xlink:title=" ">
<path fill="none" stroke="orange" stroke-dasharray="5,2" d="M273,-168.44C297.91,-166.61 326.55,-164.51 351.56,-162.68"/>
<polygon fill="orange" stroke="orange" points="273.07,-164.93 263.35,-169.15 273.58,-171.91 273.07,-164.93"/>
</a>
</g>
<text text-anchor="middle" x="309.38" y="-172.06" font-family="Helvetica,sans-Serif" font-size="10.00" fill="grey"> &lt; Matrix &gt;</text>
</g>
<!-- Node9 -->
<g id="Node000009" class="node">
<title>Node9</title>
<g id="a_Node000009"><a xlink:title=" ">
<polygon fill="white" stroke="#bfbfbf" points="115,-336.4 0,-336.4 0,-285.65 115,-285.65 115,-336.4"/>
<text text-anchor="start" x="8" y="-322.9" font-family="Helvetica,sans-Serif" font-size="10.00">std::enable_shared</text>
<text text-anchor="start" x="8" y="-308.65" font-family="Helvetica,sans-Serif" font-size="10.00">_from_this&lt; Attribute</text>
<text text-anchor="middle" x="57.5" y="-294.4" font-family="Helvetica,sans-Serif" font-size="10.00">&lt; T &gt; &gt;</text>
</a>
</g>
</g>
<!-- Node9&#45;&gt;Node8 -->
<g id="edge9_Node000008_Node000009" class="edge">
<title>Node9&#45;&gt;Node8</title>
<g id="a_edge9_Node000008_Node000009"><a xlink:title=" ">
<path fill="none" stroke="#63b8ff" d="M81.21,-276.34C98.38,-252.22 123.77,-220.63 152,-199.02 159.46,-193.32 168.38,-188.48 176.89,-184.59"/>
<polygon fill="#63b8ff" stroke="#63b8ff" points="78.53,-274.07 75.69,-284.27 84.28,-278.07 78.53,-274.07"/>
</a>
</g>
</g>
<!-- Node10 -->
<g id="Node000010" class="node">
<title>Node10</title>
<g id="a_Node000010"><a xlink:href="class_shared_factory.html" target="_top" xlink:title=" ">
<polygon fill="white" stroke="#666666" points="1165.25,-223.27 997.75,-223.27 997.75,-186.77 1165.25,-186.77 1165.25,-223.27"/>
<text text-anchor="start" x="1005.75" y="-209.77" font-family="Helvetica,sans-Serif" font-size="10.00">SharedFactory&lt; PowerController</text>
<text text-anchor="middle" x="1081.5" y="-195.52" font-family="Helvetica,sans-Serif" font-size="10.00">VSI &gt;</text>
</a>
</g>
</g>
<!-- Node10&#45;&gt;Node1 -->
<g id="edge10_Node000001_Node000010" class="edge">
<title>Node10&#45;&gt;Node1</title>
<g id="a_edge10_Node000001_Node000010"><a xlink:title=" ">
<path fill="none" stroke="#63b8ff" d="M1176.68,-187.19C1192.04,-184.28 1207.59,-181.33 1221.89,-178.62"/>
<polygon fill="#63b8ff" stroke="#63b8ff" points="1176.21,-183.71 1167.04,-189.01 1177.51,-190.59 1176.21,-183.71"/>
</a>
</g>
</g>
<!-- Node11 -->
<g id="Node000011" class="node">
<title>Node11</title>
<g id="a_Node000011"><a xlink:href="class_shared_factory.html" target="_top" xlink:title=" ">
<polygon fill="white" stroke="#666666" points="831.62,-269.15 727.12,-269.15 727.12,-246.9 831.62,-246.9 831.62,-269.15"/>
<text text-anchor="middle" x="779.38" y="-255.65" font-family="Helvetica,sans-Serif" font-size="10.00">SharedFactory&lt; T &gt;</text>
</a>
</g>
</g>
<!-- Node11&#45;&gt;Node10 -->
<g id="edge11_Node000010_Node000011" class="edge">
<title>Node11&#45;&gt;Node10</title>
<g id="a_edge11_Node000010_Node000011"><a xlink:title=" ">
<path fill="none" stroke="orange" stroke-dasharray="5,2" d="M843.28,-246.92C888.02,-239.01 948.6,-228.32 997.33,-219.71"/>
<polygon fill="orange" stroke="orange" points="842.7,-243.46 833.46,-248.65 843.92,-250.36 842.7,-243.46"/>
</a>
</g>
<text text-anchor="middle" x="924.62" y="-245.63" font-family="Helvetica,sans-Serif" font-size="10.00" fill="grey"> &lt; PowerControllerVSI &gt;</text>
</g>
<!-- Node12&#45;&gt;Node1 -->
<g id="edge12_Node000001_Node000012" class="edge">
<title>Node12&#45;&gt;Node1</title>
<g id="a_edge12_Node000001_Node000012"><a xlink:title=" ">
<path fill="none" stroke="#9a32cd" stroke-dasharray="5,2" d="M486.59,-50.02C523.73,-50.02 570.23,-50.02 611.75,-50.02 611.75,-50.02 611.75,-50.02 1082.5,-50.02 1165.96,-50.02 1245.62,-126.52 1273.06,-155.81"/>
<polygon fill="#9a32cd" stroke="#9a32cd" points="486.89,-46.52 476.89,-50.02 486.89,-53.52 486.89,-46.52"/>
</a>
</g>
<text text-anchor="middle" x="779.38" y="-97.52" font-family="Helvetica,sans-Serif" font-size="10.00" fill="grey"> mIrc_d</text>
<text text-anchor="middle" x="779.38" y="-83.27" font-family="Helvetica,sans-Serif" font-size="10.00" fill="grey">mIrc_q</text>
<text text-anchor="middle" x="779.38" y="-69.02" font-family="Helvetica,sans-Serif" font-size="10.00" fill="grey">mVc_d</text>
<text text-anchor="middle" x="779.38" y="-54.77" font-family="Helvetica,sans-Serif" font-size="10.00" fill="grey">mVc_q</text>
</g>
<!-- Node13 -->
<g id="Node000013" class="node">
<title>Node13</title>
<g id="a_Node000013"><a xlink:title=" ">
<polygon fill="white" stroke="#bfbfbf" points="267,-75.4 152,-75.4 152,-24.65 267,-24.65 267,-75.4"/>
<text text-anchor="start" x="160" y="-61.9" font-family="Helvetica,sans-Serif" font-size="10.00">std::enable_shared</text>
<text text-anchor="start" x="160" y="-47.65" font-family="Helvetica,sans-Serif" font-size="10.00">_from_this&lt; Attribute</text>
<text text-anchor="middle" x="209.5" y="-33.4" font-family="Helvetica,sans-Serif" font-size="10.00">&lt; Real &gt; &gt;</text>
</a>
</g>
</g>
<!-- Node13&#45;&gt;Node12 -->
<g id="edge14_Node000012_Node000013" class="edge">
<title>Node13&#45;&gt;Node12</title>
<g id="a_edge14_Node000012_Node000013"><a xlink:title=" ">
<path fill="none" stroke="#63b8ff" d="M278.8,-50.02C304,-50.02 332.31,-50.02 356.56,-50.02"/>
<polygon fill="#63b8ff" stroke="#63b8ff" points="278.98,-46.52 268.98,-50.02 278.98,-53.52 278.98,-46.52"/>
</a>
</g>
</g>
<!-- Node14&#45;&gt;Node1 -->
<g id="edge16_Node000001_Node000014" class="edge">
<title>Node14&#45;&gt;Node1</title>
<g id="a_edge16_Node000001_Node000014"><a xlink:title=" ">
<path fill="none" stroke="#9a32cd" stroke-dasharray="5,2" d="M491.94,-149.55C528.1,-146.15 572.12,-143.02 611.75,-143.02 611.75,-143.02 611.75,-143.02 1082.5,-143.02 1128.45,-143.02 1179.91,-149.31 1219.21,-155.45"/>
<polygon fill="#9a32cd" stroke="#9a32cd" points="491.62,-146.06 482,-150.51 492.29,-153.03 491.62,-146.06"/>
</a>
</g>
<text text-anchor="middle" x="779.38" y="-219.02" font-family="Helvetica,sans-Serif" font-size="10.00" fill="grey"> mInputCurr</text>
<text text-anchor="middle" x="779.38" y="-204.77" font-family="Helvetica,sans-Serif" font-size="10.00" fill="grey">mInputPrev</text>
<text text-anchor="middle" x="779.38" y="-190.52" font-family="Helvetica,sans-Serif" font-size="10.00" fill="grey">mOutputCurr</text>
<text text-anchor="middle" x="779.38" y="-176.27" font-family="Helvetica,sans-Serif" font-size="10.00" fill="grey">mOutputPrev</text>
<text text-anchor="middle" x="779.38" y="-162.02" font-family="Helvetica,sans-Serif" font-size="10.00" fill="grey">mStateCurr</text>
<text text-anchor="middle" x="779.38" y="-147.77" font-family="Helvetica,sans-Serif" font-size="10.00" fill="grey">mStatePrev</text>
</g>
<!-- Node15 -->
<g id="Node000015" class="node">
<title>Node15</title>
<g id="a_Node000015"><a xlink:title=" ">
<polygon fill="white" stroke="#bfbfbf" points="267,-258.4 152,-258.4 152,-207.65 267,-207.65 267,-258.4"/>
<text text-anchor="start" x="160" y="-244.9" font-family="Helvetica,sans-Serif" font-size="10.00">std::enable_shared</text>
<text text-anchor="start" x="160" y="-230.65" font-family="Helvetica,sans-Serif" font-size="10.00">_from_this&lt; Attribute</text>
<text text-anchor="middle" x="209.5" y="-216.4" font-family="Helvetica,sans-Serif" font-size="10.00">&lt; Matrix &gt; &gt;</text>
</a>
</g>
</g>
<!-- Node15&#45;&gt;Node14 -->
<g id="edge18_Node000014_Node000015" class="edge">
<title>Node15&#45;&gt;Node14</title>
<g id="a_edge18_Node000014_Node000015"><a xlink:title=" ">
<path fill="none" stroke="#63b8ff" d="M278.61,-236.12C297.01,-234.96 316.58,-231.83 333.75,-225.02 364.01,-213.04 391.47,-185.33 405.39,-169.56"/>
<polygon fill="#63b8ff" stroke="#63b8ff" points="278.68,-232.61 268.84,-236.53 278.98,-239.6 278.68,-232.61"/>
</a>
</g>
</g>
</g>
</svg>

<g id="navigator" transform="translate(0 0)" fill="#404254">
  <rect fill="#f2f5e9" fill-opacity="0.5" stroke="#606060" stroke-width=".5" x="0" y="0" width="60" height="60"/>
  <use id="zoomplus" xlink:href="#zoomPlus" x="17" y="9" onmousedown="handleZoom(evt,'in')"/>
  <use id="zoomminus" xlink:href="#zoomMin" x="42" y="9" onmousedown="handleZoom(evt,'out')"/>
  <use id="reset" xlink:href="#resetDef" x="30" y="36" onmousedown="handleReset()"/>
   <use id="arrowup" xlink:href="#arrowUp" x="0" y="0" onmousedown="handlePan(0,-1)"/>
  <use id="arrowright" xlink:href="#arrowRight" x="0" y="0" onmousedown="handlePan(1,0)"/>
  <use id="arrowdown" xlink:href="#arrowDown" x="0" y="0" onmousedown="handlePan(0,1)"/>
  <use id="arrowleft" xlink:href="#arrowLeft" x="0" y="0" onmousedown="handlePan(-1,0)"/>
</g>
<svg viewBox="0 0 15 15" width="100%" height="30px" preserveAspectRatio="xMaxYMin meet">
 <g id="arrow_out" transform="scale(0.3 0.3)">
  <a xlink:href="class_c_p_s_1_1_signal_1_1_power_controller_v_s_i__coll__graph_org.svg" target="_base">
   <rect id="button" ry="5" rx="5" y="6" x="6" height="38" width="38"
        fill="#f2f5e9" fill-opacity="0.5" stroke="#606060" stroke-width="1.0"/>
   <path id="arrow"
     d="M 11.500037,31.436501 C 11.940474,20.09759 22.043105,11.32322 32.158766,21.979434 L 37.068811,17.246167 C 37.068811,17.246167 37.088388,32 37.088388,32 L 22.160133,31.978069 C 22.160133,31.978069 26.997745,27.140456 26.997745,27.140456 C 18.528582,18.264221 13.291696,25.230495 11.500037,31.436501 z"
     style="fill:#404040;"/>
  </a>
 </g>
</svg>

<style type='text/css'>
<![CDATA[
[data-mouse-over-selected='false'] { opacity: 0.7; }
[data-mouse-over-selected='true']  { opacity: 1.0; }
]]>
</style>
<script type="application/ecmascript"><![CDATA[
document.addEventListener('DOMContentLoaded', (event) => {
  highlightEdges();
  highlightAdjacentNodes();
});
]]></script>
</svg>
