<?xml version="1.0" encoding="UTF-8" standalone="no"?>
<!DOCTYPE svg PUBLIC "-//W3C//DTD SVG 1.1//EN"
 "http://www.w3.org/Graphics/SVG/1.1/DTD/svg11.dtd">
<!-- Generated by graphviz version 2.42.4 (0)
 -->
<!-- Title: CPS::EMT::Ph3::AvVoltSourceInverterStateSpace Pages: 1 -->
<svg width="1263pt" height="166pt"
 viewBox="0.00 0.00 1263.00 165.50" xmlns="http://www.w3.org/2000/svg" xmlns:xlink="http://www.w3.org/1999/xlink">
<g id="graph0" class="graph" transform="scale(1 1) rotate(0) translate(4 161.5)">
<title>CPS::EMT::Ph3::AvVoltSourceInverterStateSpace</title>
<!-- Node1 -->
<g id="node1" class="node">
<title>Node1</title>
<g id="a_node1"><a xlink:title="average inverter model with LC filter">
<polygon fill="#bfbfbf" stroke="black" points="1100,-66.5 1100,-96.5 1255,-96.5 1255,-66.5 1100,-66.5"/>
<text text-anchor="start" x="1108" y="-84.5" font-family="Helvetica,sans-Serif" font-size="10.00">CPS::EMT::Ph3::AvVoltSource</text>
<text text-anchor="middle" x="1177.5" y="-73.5" font-family="Helvetica,sans-Serif" font-size="10.00">InverterStateSpace</text>
</a>
</g>
</g>
<!-- Node2 -->
<g id="node2" class="node">
<title>Node2</title>
<g id="a_node2"><a xlink:href="class_c_p_s_1_1_m_n_a_interface.html" target="_top" xlink:title="Interface to be implemented by all models used by the MNA solver.">
<polygon fill="none" stroke="black" points="275,-138 275,-157 383,-157 383,-138 275,-138"/>
<text text-anchor="middle" x="329" y="-145" font-family="Helvetica,sans-Serif" font-size="10.00">CPS::MNAInterface</text>
</a>
</g>
</g>
<!-- Node2&#45;&gt;Node1 -->
<g id="edge1" class="edge">
<title>Node2&#45;&gt;Node1</title>
<path fill="none" stroke="midnightblue" d="M393.49,-147.5C442.74,-147.5 512.7,-147.5 574,-147.5 574,-147.5 574,-147.5 981.5,-147.5 1044.58,-147.5 1113.37,-116.13 1150.01,-96.64"/>
<polygon fill="midnightblue" stroke="midnightblue" points="393.31,-144 383.31,-147.5 393.31,-151 393.31,-144"/>
</g>
<!-- Node3 -->
<g id="node3" class="node">
<title>Node3</title>
<g id="a_node3"><a xlink:href="class_c_p_s_1_1_attribute_list.html" target="_top" xlink:title="Base class of objects having attributes to access member variables.">
<polygon fill="none" stroke="black" points="0,-119 0,-138 101,-138 101,-119 0,-119"/>
<text text-anchor="middle" x="50.5" y="-126" font-family="Helvetica,sans-Serif" font-size="10.00">CPS::AttributeList</text>
</a>
</g>
</g>
<!-- Node3&#45;&gt;Node2 -->
<g id="edge2" class="edge">
<title>Node3&#45;&gt;Node2</title>
<path fill="none" stroke="midnightblue" d="M111.33,-132.95C113.92,-133.14 116.49,-133.32 119,-133.5 171.96,-137.24 232.49,-141.26 274.73,-144.04"/>
<polygon fill="midnightblue" stroke="midnightblue" points="111.49,-129.46 101.26,-132.23 110.98,-136.44 111.49,-129.46"/>
</g>
<!-- Node6 -->
<g id="node6" class="node">
<title>Node6</title>
<g id="a_node6"><a xlink:href="class_c_p_s_1_1_identified_object.html" target="_top" xlink:title=" ">
<polygon fill="none" stroke="black" points="138,-100 138,-119 257,-119 257,-100 138,-100"/>
<text text-anchor="middle" x="197.5" y="-107" font-family="Helvetica,sans-Serif" font-size="10.00">CPS::IdentifiedObject</text>
</a>
</g>
</g>
<!-- Node3&#45;&gt;Node6 -->
<g id="edge6" class="edge">
<title>Node3&#45;&gt;Node6</title>
<path fill="none" stroke="midnightblue" d="M111.46,-120.64C120.16,-119.5 129.1,-118.33 137.77,-117.2"/>
<polygon fill="midnightblue" stroke="midnightblue" points="110.86,-117.19 101.4,-121.96 111.77,-124.13 110.86,-117.19"/>
</g>
<!-- Node4 -->
<g id="node4" class="node">
<title>Node4</title>
<g id="a_node4"><a xlink:href="class_c_p_s_1_1_sim_power_comp.html" target="_top" xlink:title=" ">
<polygon fill="none" stroke="black" points="917,-88.5 917,-118.5 1044,-118.5 1044,-88.5 917,-88.5"/>
<text text-anchor="start" x="925" y="-106.5" font-family="Helvetica,sans-Serif" font-size="10.00">CPS::SimPowerComp&lt;</text>
<text text-anchor="middle" x="980.5" y="-95.5" font-family="Helvetica,sans-Serif" font-size="10.00"> Real &gt;</text>
</a>
</g>
</g>
<!-- Node4&#45;&gt;Node1 -->
<g id="edge3" class="edge">
<title>Node4&#45;&gt;Node1</title>
<path fill="none" stroke="midnightblue" d="M1054.14,-95.31C1068.99,-93.63 1084.67,-91.86 1099.66,-90.17"/>
<polygon fill="midnightblue" stroke="midnightblue" points="1053.55,-91.85 1044,-96.45 1054.33,-98.81 1053.55,-91.85"/>
</g>
<!-- Node5 -->
<g id="node5" class="node">
<title>Node5</title>
<g id="a_node5"><a xlink:href="class_c_p_s_1_1_topological_power_comp.html" target="_top" xlink:title=" ">
<polygon fill="none" stroke="black" points="401,-100 401,-119 556,-119 556,-100 401,-100"/>
<text text-anchor="middle" x="478.5" y="-107" font-family="Helvetica,sans-Serif" font-size="10.00">CPS::TopologicalPowerComp</text>
</a>
</g>
</g>
<!-- Node5&#45;&gt;Node4 -->
<g id="edge4" class="edge">
<title>Node5&#45;&gt;Node4</title>
<path fill="none" stroke="midnightblue" d="M566.34,-108.46C666.43,-107.26 828.47,-105.31 916.94,-104.25"/>
<polygon fill="midnightblue" stroke="midnightblue" points="566.21,-104.96 556.26,-108.58 566.3,-111.96 566.21,-104.96"/>
</g>
<!-- Node7 -->
<g id="node7" class="node">
<title>Node7</title>
<g id="a_node7"><a xlink:href="class_c_p_s_1_1_sim_power_comp.html" target="_top" xlink:title="Base class for all components that are transmitting power.">
<polygon fill="none" stroke="black" points="593,-50.5 593,-80.5 720,-80.5 720,-50.5 593,-50.5"/>
<text text-anchor="start" x="601" y="-68.5" font-family="Helvetica,sans-Serif" font-size="10.00">CPS::SimPowerComp&lt;</text>
<text text-anchor="middle" x="656.5" y="-57.5" font-family="Helvetica,sans-Serif" font-size="10.00"> VarType &gt;</text>
</a>
</g>
</g>
<!-- Node5&#45;&gt;Node7 -->
<g id="edge8" class="edge">
<title>Node5&#45;&gt;Node7</title>
<path fill="none" stroke="midnightblue" d="M527.6,-97.47C548.48,-92.25 573.16,-86.09 595.24,-80.57"/>
<polygon fill="midnightblue" stroke="midnightblue" points="526.54,-94.13 517.69,-99.95 528.24,-100.92 526.54,-94.13"/>
</g>
<!-- Node6&#45;&gt;Node5 -->
<g id="edge5" class="edge">
<title>Node6&#45;&gt;Node5</title>
<path fill="none" stroke="midnightblue" d="M267.38,-109.5C307.9,-109.5 359.21,-109.5 400.98,-109.5"/>
<polygon fill="midnightblue" stroke="midnightblue" points="267.33,-106 257.33,-109.5 267.33,-113 267.33,-106"/>
</g>
<!-- Node7&#45;&gt;Node4 -->
<g id="edge7" class="edge">
<title>Node7&#45;&gt;Node4</title>
<path fill="none" stroke="orange" stroke-dasharray="5,2" d="M730.25,-69.8C773.82,-72.86 830.22,-77.64 880,-84.5 891.93,-86.14 904.61,-88.27 916.77,-90.5"/>
<polygon fill="orange" stroke="orange" points="730.25,-66.3 720.03,-69.1 729.77,-73.28 730.25,-66.3"/>
<text text-anchor="middle" x="809" y="-87.5" font-family="Helvetica,sans-Serif" font-size="10.00"> &lt; Real &gt;</text>
</g>
<!-- Node8 -->
<g id="node8" class="node">
<title>Node8</title>
<g id="a_node8"><a xlink:href="class_c_p_s_1_1_base_1_1_ph1_1_1_voltage_source.html" target="_top" xlink:title=" ">
<polygon fill="none" stroke="black" points="898,-50 898,-69 1063,-69 1063,-50 898,-50"/>
<text text-anchor="middle" x="980.5" y="-57" font-family="Helvetica,sans-Serif" font-size="10.00">CPS::Base::Ph1::VoltageSource</text>
</a>
</g>
</g>
<!-- Node8&#45;&gt;Node1 -->
<g id="edge9" class="edge">
<title>Node8&#45;&gt;Node1</title>
<path fill="none" stroke="midnightblue" d="M1073.14,-69.84C1082.11,-70.85 1091.14,-71.87 1099.93,-72.86"/>
<polygon fill="midnightblue" stroke="midnightblue" points="1073.4,-66.35 1063.07,-68.7 1072.61,-73.3 1073.4,-66.35"/>
</g>
<!-- Node9 -->
<g id="node9" class="node">
<title>Node9</title>
<g id="a_node9"><a xlink:href="class_shared_factory.html" target="_top" xlink:title=" ">
<polygon fill="none" stroke="black" points="900,-0.5 900,-30.5 1061,-30.5 1061,-0.5 900,-0.5"/>
<text text-anchor="start" x="908" y="-18.5" font-family="Helvetica,sans-Serif" font-size="10.00">SharedFactory&lt; AvVoltSource</text>
<text text-anchor="middle" x="980.5" y="-7.5" font-family="Helvetica,sans-Serif" font-size="10.00">InverterStateSpace &gt;</text>
</a>
</g>
</g>
<!-- Node9&#45;&gt;Node1 -->
<g id="edge10" class="edge">
<title>Node9&#45;&gt;Node1</title>
<path fill="none" stroke="midnightblue" d="M1041.78,-33.63C1048.94,-35.89 1056.15,-38.21 1063,-40.5 1087.44,-48.66 1114.6,-58.44 1136.22,-66.41"/>
<polygon fill="midnightblue" stroke="midnightblue" points="1042.64,-30.23 1032.05,-30.59 1040.55,-36.91 1042.64,-30.23"/>
</g>
<!-- Node10 -->
<g id="node10" class="node">
<title>Node10</title>
<g id="a_node10"><a xlink:href="class_shared_factory.html" target="_top" xlink:title=" ">
<polygon fill="none" stroke="black" points="599.5,-6 599.5,-25 713.5,-25 713.5,-6 599.5,-6"/>
<text text-anchor="middle" x="656.5" y="-13" font-family="Helvetica,sans-Serif" font-size="10.00">SharedFactory&lt; T &gt;</text>
</a>
</g>
</g>
<!-- Node10&#45;&gt;Node9 -->
<g id="edge11" class="edge">
<title>Node10&#45;&gt;Node9</title>
<path fill="none" stroke="orange" stroke-dasharray="5,2" d="M723.86,-15.5C774.96,-15.5 845.78,-15.5 899.93,-15.5"/>
<polygon fill="orange" stroke="orange" points="723.59,-12 713.59,-15.5 723.59,-19 723.59,-12"/>
<text text-anchor="start" x="738" y="-29.5" font-family="Helvetica,sans-Serif" font-size="10.00"> &lt; AvVoltSourceInverterState</text>
<text text-anchor="middle" x="809" y="-18.5" font-family="Helvetica,sans-Serif" font-size="10.00">Space &gt;</text>
</g>
</g>
</svg>
