<?xml version="1.0" encoding="UTF-8" standalone="no"?>
<!DOCTYPE svg PUBLIC "-//W3C//DTD SVG 1.1//EN"
 "http://www.w3.org/Graphics/SVG/1.1/DTD/svg11.dtd">
<!-- Generated by graphviz version 2.50.0 (0)
 -->
<!-- Title: CPS::DP::Ph1::SynchronGenerator4OrderVBR Pages: 1 -->
<svg width="2636pt" height="438pt"
 viewBox="0.00 0.00 2636.00 437.74" xmlns="http://www.w3.org/2000/svg" xmlns:xlink="http://www.w3.org/1999/xlink">
<g id="graph0" class="graph" transform="scale(1 1) rotate(0) translate(4 433.74)">
<title>CPS::DP::Ph1::SynchronGenerator4OrderVBR</title>
<!-- Node1 -->
<g id="node1" class="node">
<title>Node1</title>
<g id="a_node1"><a xlink:title="Voltage&#45;Behind&#45;Reactance (VBR) implementation of 4th order synchronous generator model.">
<polygon fill="#bfbfbf" stroke="black" points="2447,-56.74 2447,-86.74 2628,-86.74 2628,-56.74 2447,-56.74"/>
<text text-anchor="start" x="2455" y="-74.74" font-family="Helvetica,sans-Serif" font-size="10.00">CPS::DP::Ph1::SynchronGenerator4</text>
<text text-anchor="middle" x="2537.5" y="-63.74" font-family="Helvetica,sans-Serif" font-size="10.00">OrderVBR</text>
</a>
</g>
</g>
<!-- Node2 -->
<g id="node2" class="node">
<title>Node2</title>
<g id="a_node2"><a xlink:href="class_c_p_s_1_1_d_p_1_1_ph1_1_1_reduced_order_synchron_generator_v_b_r.html" target="_top" xlink:title="Base class for DP VBR synchronous generator model single phase.">
<polygon fill="none" stroke="black" points="2239.5,-128.74 2239.5,-158.74 2391.5,-158.74 2391.5,-128.74 2239.5,-128.74"/>
<text text-anchor="start" x="2247.5" y="-146.74" font-family="Helvetica,sans-Serif" font-size="10.00">CPS::DP::Ph1::ReducedOrder</text>
<text text-anchor="middle" x="2315.5" y="-135.74" font-family="Helvetica,sans-Serif" font-size="10.00">SynchronGeneratorVBR</text>
</a>
</g>
</g>
<!-- Node2&#45;&gt;Node1 -->
<g id="edge1" class="edge">
<title>Node2&#45;&gt;Node1</title>
<path fill="none" stroke="midnightblue" d="M2371.88,-125.61C2408.44,-113.65 2455.8,-98.15 2490.33,-86.85"/>
<polygon fill="midnightblue" stroke="midnightblue" points="2370.77,-122.29 2362.35,-128.73 2372.94,-128.95 2370.77,-122.29"/>
</g>
<!-- Node3 -->
<g id="node3" class="node">
<title>Node3</title>
<g id="a_node3"><a xlink:href="class_c_p_s_1_1_base_1_1_reduced_order_synchron_generator.html" target="_top" xlink:title=" ">
<polygon fill="none" stroke="black" points="1870,-106.74 1870,-136.74 2049,-136.74 2049,-106.74 1870,-106.74"/>
<text text-anchor="start" x="1878" y="-124.74" font-family="Helvetica,sans-Serif" font-size="10.00">CPS::Base::ReducedOrderSynchron</text>
<text text-anchor="middle" x="1959.5" y="-113.74" font-family="Helvetica,sans-Serif" font-size="10.00">Generator&lt; Complex &gt;</text>
</a>
</g>
</g>
<!-- Node3&#45;&gt;Node2 -->
<g id="edge2" class="edge">
<title>Node3&#45;&gt;Node2</title>
<path fill="none" stroke="midnightblue" d="M2059.48,-127.89C2116.48,-131.43 2186.96,-135.81 2239.37,-139.07"/>
<polygon fill="midnightblue" stroke="midnightblue" points="2059.57,-124.39 2049.37,-127.26 2059.14,-131.37 2059.57,-124.39"/>
</g>
<!-- Node4 -->
<g id="node4" class="node">
<title>Node4</title>
<g id="a_node4"><a xlink:href="class_c_p_s_1_1_m_n_a_sim_power_comp.html" target="_top" xlink:title=" ">
<polygon fill="none" stroke="black" points="1617,-231.74 1617,-261.74 1754,-261.74 1754,-231.74 1617,-231.74"/>
<text text-anchor="start" x="1625" y="-249.74" font-family="Helvetica,sans-Serif" font-size="10.00">CPS::MNASimPowerComp</text>
<text text-anchor="middle" x="1685.5" y="-238.74" font-family="Helvetica,sans-Serif" font-size="10.00">&lt; Complex &gt;</text>
</a>
</g>
</g>
<!-- Node4&#45;&gt;Node3 -->
<g id="edge3" class="edge">
<title>Node4&#45;&gt;Node3</title>
<path fill="none" stroke="midnightblue" d="M1718.55,-226.39C1754.35,-204.35 1814.56,-169.34 1870,-146.74 1879.02,-143.06 1888.76,-139.72 1898.38,-136.75"/>
<polygon fill="midnightblue" stroke="midnightblue" points="1716.65,-223.45 1710,-231.69 1720.34,-229.4 1716.65,-223.45"/>
</g>
<!-- Node5 -->
<g id="node5" class="node">
<title>Node5</title>
<g id="a_node5"><a xlink:href="class_c_p_s_1_1_sim_power_comp.html" target="_top" xlink:title=" ">
<polygon fill="none" stroke="black" points="1373,-280.74 1373,-310.74 1492,-310.74 1492,-280.74 1373,-280.74"/>
<text text-anchor="start" x="1381" y="-298.74" font-family="Helvetica,sans-Serif" font-size="10.00">CPS::SimPowerComp&lt;</text>
<text text-anchor="middle" x="1432.5" y="-287.74" font-family="Helvetica,sans-Serif" font-size="10.00"> Complex &gt;</text>
</a>
</g>
</g>
<!-- Node5&#45;&gt;Node4 -->
<g id="edge4" class="edge">
<title>Node5&#45;&gt;Node4</title>
<path fill="none" stroke="midnightblue" d="M1501.9,-282.38C1537.68,-275.4 1581.34,-266.88 1616.99,-259.92"/>
<polygon fill="midnightblue" stroke="midnightblue" points="1501.18,-278.96 1492.03,-284.31 1502.52,-285.83 1501.18,-278.96"/>
</g>
<!-- Node6 -->
<g id="node6" class="node">
<title>Node6</title>
<g id="a_node6"><a xlink:href="class_c_p_s_1_1_topological_power_comp.html" target="_top" xlink:title=" ">
<polygon fill="none" stroke="black" points="881,-329.24 881,-348.24 1029,-348.24 1029,-329.24 881,-329.24"/>
<text text-anchor="middle" x="955" y="-336.24" font-family="Helvetica,sans-Serif" font-size="10.00">CPS::TopologicalPowerComp</text>
</a>
</g>
</g>
<!-- Node6&#45;&gt;Node5 -->
<g id="edge5" class="edge">
<title>Node6&#45;&gt;Node5</title>
<path fill="none" stroke="midnightblue" d="M1039.4,-332.46C1118.41,-326.32 1240.37,-316.38 1346,-305.74 1354.62,-304.87 1363.73,-303.88 1372.66,-302.87"/>
<polygon fill="midnightblue" stroke="midnightblue" points="1038.72,-329 1029.02,-333.26 1039.26,-335.98 1038.72,-329"/>
</g>
<!-- Node13 -->
<g id="node13" class="node">
<title>Node13</title>
<g id="a_node13"><a xlink:href="class_c_p_s_1_1_sim_power_comp.html" target="_top" xlink:title="Base class for all components that are transmitting power.">
<polygon fill="none" stroke="black" points="1137,-268.74 1137,-298.74 1256,-298.74 1256,-268.74 1137,-268.74"/>
<text text-anchor="start" x="1145" y="-286.74" font-family="Helvetica,sans-Serif" font-size="10.00">CPS::SimPowerComp&lt;</text>
<text text-anchor="middle" x="1196.5" y="-275.74" font-family="Helvetica,sans-Serif" font-size="10.00"> VarType &gt;</text>
</a>
</g>
</g>
<!-- Node6&#45;&gt;Node13 -->
<g id="edge14" class="edge">
<title>Node6&#45;&gt;Node13</title>
<path fill="none" stroke="midnightblue" d="M1007.27,-326.96C1045.22,-318.25 1096.99,-306.36 1136.63,-297.25"/>
<polygon fill="midnightblue" stroke="midnightblue" points="1006.41,-323.57 997.44,-329.22 1007.97,-330.39 1006.41,-323.57"/>
</g>
<!-- Node7 -->
<g id="node7" class="node">
<title>Node7</title>
<g id="a_node7"><a xlink:href="class_c_p_s_1_1_identified_object.html" target="_top" xlink:title=" ">
<polygon fill="none" stroke="black" points="664,-330.24 664,-349.24 780,-349.24 780,-330.24 664,-330.24"/>
<text text-anchor="middle" x="722" y="-337.24" font-family="Helvetica,sans-Serif" font-size="10.00">CPS::IdentifiedObject</text>
</a>
</g>
</g>
<!-- Node7&#45;&gt;Node6 -->
<g id="edge6" class="edge">
<title>Node7&#45;&gt;Node6</title>
<path fill="none" stroke="midnightblue" d="M790.34,-339.44C818.77,-339.32 851.94,-339.18 880.96,-339.05"/>
<polygon fill="midnightblue" stroke="midnightblue" points="790.09,-335.95 780.1,-339.49 790.12,-342.95 790.09,-335.95"/>
</g>
<!-- Node8 -->
<g id="node8" class="node">
<title>Node8</title>
<g id="a_node8"><a xlink:href="class_c_p_s_1_1_attribute.html" target="_top" xlink:title=" ">
<polygon fill="none" stroke="black" points="456,-330.24 456,-349.24 583,-349.24 583,-330.24 456,-330.24"/>
<text text-anchor="middle" x="519.5" y="-337.24" font-family="Helvetica,sans-Serif" font-size="10.00">CPS::Attribute&lt; String &gt;</text>
</a>
</g>
</g>
<!-- Node8&#45;&gt;Node7 -->
<g id="edge7" class="edge">
<title>Node8&#45;&gt;Node7</title>
<path fill="none" stroke="#9a32cd" stroke-dasharray="5,2" d="M593.29,-339.74C616.56,-339.74 641.98,-339.74 663.97,-339.74"/>
<polygon fill="#9a32cd" stroke="#9a32cd" points="593.11,-336.24 583.11,-339.74 593.11,-343.24 593.11,-336.24"/>
<text text-anchor="middle" x="626" y="-353.74" font-family="Helvetica,sans-Serif" font-size="10.00"> mName</text>
<text text-anchor="middle" x="626" y="-342.74" font-family="Helvetica,sans-Serif" font-size="10.00">mUID</text>
</g>
<!-- Node9 -->
<g id="node9" class="node">
<title>Node9</title>
<g id="a_node9"><a xlink:href="class_c_p_s_1_1_attribute_base.html" target="_top" xlink:title=" ">
<polygon fill="none" stroke="black" points="5.5,-214.24 5.5,-233.24 110.5,-233.24 110.5,-214.24 5.5,-214.24"/>
<text text-anchor="middle" x="58" y="-221.24" font-family="Helvetica,sans-Serif" font-size="10.00">CPS::AttributeBase</text>
</a>
</g>
</g>
<!-- Node9&#45;&gt;Node8 -->
<g id="edge8" class="edge">
<title>Node9&#45;&gt;Node8</title>
<path fill="none" stroke="midnightblue" d="M109.06,-238.17C111.55,-239.83 113.89,-241.68 116,-243.74 149.06,-275.92 115,-314.56 153,-340.74 200.42,-373.4 364.32,-359.25 455.7,-348.24"/>
<polygon fill="midnightblue" stroke="midnightblue" points="110.59,-235.02 100.15,-233.24 107.2,-241.14 110.59,-235.02"/>
</g>
<!-- Node11 -->
<g id="node11" class="node">
<title>Node11</title>
<g id="a_node11"><a xlink:href="class_c_p_s_1_1_attribute.html" target="_top" xlink:title=" ">
<polygon fill="none" stroke="black" points="172,-252.24 172,-271.24 276,-271.24 276,-252.24 172,-252.24"/>
<text text-anchor="middle" x="224" y="-259.24" font-family="Helvetica,sans-Serif" font-size="10.00">CPS::Attribute&lt; T &gt;</text>
</a>
</g>
</g>
<!-- Node9&#45;&gt;Node11 -->
<g id="edge11" class="edge">
<title>Node9&#45;&gt;Node11</title>
<path fill="none" stroke="midnightblue" d="M110.34,-235.63C133.39,-240.97 160.22,-247.19 181.91,-252.22"/>
<polygon fill="midnightblue" stroke="midnightblue" points="110.92,-232.17 100.38,-233.33 109.34,-238.99 110.92,-232.17"/>
</g>
<!-- Node14 -->
<g id="node14" class="node">
<title>Node14</title>
<g id="a_node14"><a xlink:href="class_c_p_s_1_1_attribute.html" target="_top" xlink:title=" ">
<polygon fill="none" stroke="black" points="451,-263.74 451,-293.74 588,-293.74 588,-263.74 451,-263.74"/>
<text text-anchor="start" x="459" y="-281.74" font-family="Helvetica,sans-Serif" font-size="10.00">CPS::Attribute&lt; MatrixVar</text>
<text text-anchor="middle" x="519.5" y="-270.74" font-family="Helvetica,sans-Serif" font-size="10.00">&lt; VarType &gt; &gt;</text>
</a>
</g>
</g>
<!-- Node9&#45;&gt;Node14 -->
<g id="edge16" class="edge">
<title>Node9&#45;&gt;Node14</title>
<path fill="none" stroke="midnightblue" d="M120.81,-227.63C168.48,-230.9 236.02,-236.09 295,-242.74 356.58,-249.67 371.86,-252.59 433,-262.74 438.81,-263.7 444.83,-264.74 450.87,-265.82"/>
<polygon fill="midnightblue" stroke="midnightblue" points="120.87,-224.13 110.65,-226.95 120.39,-231.11 120.87,-224.13"/>
</g>
<!-- Node17 -->
<g id="node17" class="node">
<title>Node17</title>
<g id="a_node17"><a xlink:href="class_c_p_s_1_1_attribute.html" target="_top" xlink:title=" ">
<polygon fill="none" stroke="black" points="1132,-158.24 1132,-177.24 1261,-177.24 1261,-158.24 1132,-158.24"/>
<text text-anchor="middle" x="1196.5" y="-165.24" font-family="Helvetica,sans-Serif" font-size="10.00">CPS::Attribute&lt; Matrix &gt;</text>
</a>
</g>
</g>
<!-- Node9&#45;&gt;Node17 -->
<g id="edge21" class="edge">
<title>Node9&#45;&gt;Node17</title>
<path fill="none" stroke="midnightblue" d="M73.56,-206.07C99.97,-176.16 159,-118.74 223,-118.74 223,-118.74 223,-118.74 956,-118.74 1033.88,-118.74 1123.17,-143.91 1167.49,-158.17"/>
<polygon fill="midnightblue" stroke="midnightblue" points="70.57,-204.18 66.72,-214.05 75.89,-208.74 70.57,-204.18"/>
</g>
<!-- Node21 -->
<g id="node21" class="node">
<title>Node21</title>
<g id="a_node21"><a xlink:href="class_c_p_s_1_1_attribute.html" target="_top" xlink:title=" ">
<polygon fill="none" stroke="black" points="460,-39.24 460,-58.24 579,-58.24 579,-39.24 460,-39.24"/>
<text text-anchor="middle" x="519.5" y="-46.24" font-family="Helvetica,sans-Serif" font-size="10.00">CPS::Attribute&lt; Real &gt;</text>
</a>
</g>
</g>
<!-- Node9&#45;&gt;Node21 -->
<g id="edge31" class="edge">
<title>Node9&#45;&gt;Node21</title>
<path fill="none" stroke="midnightblue" d="M61.95,-204.01C69.16,-163.74 91.78,-72.66 153,-34.74 263.66,33.82 431.47,-16.4 493.94,-39.13"/>
<polygon fill="midnightblue" stroke="midnightblue" points="58.49,-203.5 60.31,-213.94 65.39,-204.64 58.49,-203.5"/>
</g>
<!-- Node10 -->
<g id="node10" class="node">
<title>Node10</title>
<g id="a_node10"><a xlink:title=" ">
<polygon fill="none" stroke="#bfbfbf" points="166,-388.24 166,-429.24 282,-429.24 282,-388.24 166,-388.24"/>
<text text-anchor="start" x="174" y="-417.24" font-family="Helvetica,sans-Serif" font-size="10.00">std::enable_shared</text>
<text text-anchor="start" x="174" y="-406.24" font-family="Helvetica,sans-Serif" font-size="10.00">_from_this&lt; Attribute</text>
<text text-anchor="middle" x="224" y="-395.24" font-family="Helvetica,sans-Serif" font-size="10.00">&lt; String &gt; &gt;</text>
</a>
</g>
</g>
<!-- Node10&#45;&gt;Node8 -->
<g id="edge9" class="edge">
<title>Node10&#45;&gt;Node8</title>
<path fill="none" stroke="midnightblue" d="M292.13,-401.11C333.27,-395.54 386.74,-386.67 433,-373.74 455.77,-367.37 480.79,-357 497.85,-349.39"/>
<polygon fill="midnightblue" stroke="midnightblue" points="291.67,-397.64 282.21,-402.42 292.59,-404.58 291.67,-397.64"/>
</g>
<!-- Node11&#45;&gt;Node8 -->
<g id="edge10" class="edge">
<title>Node11&#45;&gt;Node8</title>
<path fill="none" stroke="orange" stroke-dasharray="5,2" d="M272.72,-273.96C280.22,-276.09 287.85,-278.38 295,-280.74 303.15,-283.42 304.82,-285.12 313,-287.74 367.86,-305.27 432.45,-320.8 474.36,-330.22"/>
<polygon fill="orange" stroke="orange" points="273.57,-270.57 263,-271.26 271.7,-277.31 273.57,-270.57"/>
<text text-anchor="middle" x="373" y="-321.74" font-family="Helvetica,sans-Serif" font-size="10.00"> &lt; String &gt;</text>
</g>
<!-- Node11&#45;&gt;Node14 -->
<g id="edge18" class="edge">
<title>Node11&#45;&gt;Node14</title>
<path fill="none" stroke="orange" stroke-dasharray="5,2" d="M286.39,-265.29C334.47,-268.08 401.3,-271.95 450.9,-274.82"/>
<polygon fill="orange" stroke="orange" points="286.31,-261.78 276.12,-264.7 285.9,-268.77 286.31,-261.78"/>
<text text-anchor="middle" x="373" y="-275.74" font-family="Helvetica,sans-Serif" font-size="10.00"> &lt; MatrixVar&lt; VarType &gt; &gt;</text>
</g>
<!-- Node11&#45;&gt;Node17 -->
<g id="edge23" class="edge">
<title>Node11&#45;&gt;Node17</title>
<path fill="none" stroke="orange" stroke-dasharray="5,2" d="M272.64,-249.87C330.42,-236.53 430.97,-216.74 518.5,-216.74 518.5,-216.74 518.5,-216.74 956,-216.74 1033.88,-216.74 1123.17,-191.56 1167.49,-177.3"/>
<polygon fill="orange" stroke="orange" points="271.65,-246.5 262.71,-252.19 273.24,-253.32 271.65,-246.5"/>
<text text-anchor="middle" x="722" y="-219.74" font-family="Helvetica,sans-Serif" font-size="10.00"> &lt; Matrix &gt;</text>
</g>
<!-- Node11&#45;&gt;Node21 -->
<g id="edge33" class="edge">
<title>Node11&#45;&gt;Node21</title>
<path fill="none" stroke="orange" stroke-dasharray="5,2" d="M244.35,-245.76C262,-231.33 288.91,-209.67 313,-191.74 383.25,-139.44 470.23,-80.87 504.08,-58.31"/>
<polygon fill="orange" stroke="orange" points="242,-243.16 236.49,-252.21 246.44,-248.57 242,-243.16"/>
<text text-anchor="middle" x="373" y="-194.74" font-family="Helvetica,sans-Serif" font-size="10.00"> &lt; Real &gt;</text>
</g>
<!-- Node12 -->
<g id="node12" class="node">
<title>Node12</title>
<g id="a_node12"><a xlink:title=" ">
<polygon fill="none" stroke="#bfbfbf" points="0,-253.24 0,-294.24 116,-294.24 116,-253.24 0,-253.24"/>
<text text-anchor="start" x="8" y="-282.24" font-family="Helvetica,sans-Serif" font-size="10.00">std::enable_shared</text>
<text text-anchor="start" x="8" y="-271.24" font-family="Helvetica,sans-Serif" font-size="10.00">_from_this&lt; Attribute</text>
<text text-anchor="middle" x="58" y="-260.24" font-family="Helvetica,sans-Serif" font-size="10.00">&lt; T &gt; &gt;</text>
</a>
</g>
</g>
<!-- Node12&#45;&gt;Node11 -->
<g id="edge12" class="edge">
<title>Node12&#45;&gt;Node11</title>
<path fill="none" stroke="midnightblue" d="M126.7,-268.78C141.84,-267.67 157.64,-266.52 171.97,-265.47"/>
<polygon fill="midnightblue" stroke="midnightblue" points="126.08,-265.32 116.36,-269.54 126.59,-272.3 126.08,-265.32"/>
</g>
<!-- Node13&#45;&gt;Node5 -->
<g id="edge13" class="edge">
<title>Node13&#45;&gt;Node5</title>
<path fill="none" stroke="orange" stroke-dasharray="5,2" d="M1266.5,-287.27C1300.25,-289.01 1340.46,-291.07 1372.73,-292.72"/>
<polygon fill="orange" stroke="orange" points="1266.41,-283.77 1256.25,-286.75 1266.05,-290.76 1266.41,-283.77"/>
<text text-anchor="middle" x="1312.5" y="-293.74" font-family="Helvetica,sans-Serif" font-size="10.00"> &lt; Complex &gt;</text>
</g>
<!-- Node19 -->
<g id="node19" class="node">
<title>Node19</title>
<g id="a_node19"><a xlink:href="class_c_p_s_1_1_m_n_a_sim_power_comp.html" target="_top" xlink:title="Base class for all MNA components that are transmitting power.">
<polygon fill="none" stroke="black" points="1364,-231.74 1364,-261.74 1501,-261.74 1501,-231.74 1364,-231.74"/>
<text text-anchor="start" x="1372" y="-249.74" font-family="Helvetica,sans-Serif" font-size="10.00">CPS::MNASimPowerComp</text>
<text text-anchor="middle" x="1432.5" y="-238.74" font-family="Helvetica,sans-Serif" font-size="10.00">&lt; VarType &gt;</text>
</a>
</g>
</g>
<!-- Node13&#45;&gt;Node19 -->
<g id="edge25" class="edge">
<title>Node13&#45;&gt;Node19</title>
<path fill="none" stroke="midnightblue" d="M1266.42,-272.84C1297.08,-267.99 1333.07,-262.3 1363.6,-257.47"/>
<polygon fill="midnightblue" stroke="midnightblue" points="1265.58,-269.43 1256.25,-274.45 1266.67,-276.34 1265.58,-269.43"/>
</g>
<!-- Node14&#45;&gt;Node13 -->
<g id="edge15" class="edge">
<title>Node14&#45;&gt;Node13</title>
<path fill="none" stroke="#9a32cd" stroke-dasharray="5,2" d="M598.39,-279.31C735.09,-280.33 1015.23,-282.4 1136.91,-283.3"/>
<polygon fill="#9a32cd" stroke="#9a32cd" points="598.03,-275.81 588,-279.24 597.97,-282.81 598.03,-275.81"/>
<text text-anchor="middle" x="830.5" y="-294.74" font-family="Helvetica,sans-Serif" font-size="10.00"> mIntfCurrent</text>
<text text-anchor="middle" x="830.5" y="-283.74" font-family="Helvetica,sans-Serif" font-size="10.00">mIntfVoltage</text>
</g>
<!-- Node15 -->
<g id="node15" class="node">
<title>Node15</title>
<g id="a_node15"><a xlink:title=" ">
<polygon fill="none" stroke="#bfbfbf" points="153,-290.24 153,-331.24 295,-331.24 295,-290.24 153,-290.24"/>
<text text-anchor="start" x="161" y="-319.24" font-family="Helvetica,sans-Serif" font-size="10.00">std::enable_shared</text>
<text text-anchor="start" x="161" y="-308.24" font-family="Helvetica,sans-Serif" font-size="10.00">_from_this&lt; Attribute</text>
<text text-anchor="middle" x="224" y="-297.24" font-family="Helvetica,sans-Serif" font-size="10.00">&lt; MatrixVar&lt; VarType &gt; &gt; &gt;</text>
</a>
</g>
</g>
<!-- Node15&#45;&gt;Node14 -->
<g id="edge17" class="edge">
<title>Node15&#45;&gt;Node14</title>
<path fill="none" stroke="midnightblue" d="M305.45,-301.96C351.06,-296.99 407.47,-290.84 450.79,-286.12"/>
<polygon fill="midnightblue" stroke="midnightblue" points="304.86,-298.51 295.3,-303.07 305.62,-305.47 304.86,-298.51"/>
</g>
<!-- Node16 -->
<g id="node16" class="node">
<title>Node16</title>
<g id="a_node16"><a xlink:href="class_c_p_s_1_1_m_n_a_interface.html" target="_top" xlink:title="Interface to be implemented by all models used by the MNA solver.">
<polygon fill="none" stroke="black" points="1143,-367.24 1143,-386.24 1250,-386.24 1250,-367.24 1143,-367.24"/>
<text text-anchor="middle" x="1196.5" y="-374.24" font-family="Helvetica,sans-Serif" font-size="10.00">CPS::MNAInterface</text>
</a>
</g>
</g>
<!-- Node16&#45;&gt;Node4 -->
<g id="edge19" class="edge">
<title>Node16&#45;&gt;Node4</title>
<path fill="none" stroke="midnightblue" d="M1260.08,-368.94C1322.05,-360.34 1419.24,-344.5 1501,-320.74 1555.76,-304.82 1616.66,-278.43 1652.71,-261.84"/>
<polygon fill="midnightblue" stroke="midnightblue" points="1259.5,-365.48 1250.06,-370.3 1260.45,-372.42 1259.5,-365.48"/>
</g>
<!-- Node16&#45;&gt;Node19 -->
<g id="edge26" class="edge">
<title>Node16&#45;&gt;Node19</title>
<path fill="none" stroke="midnightblue" d="M1235.37,-363.49C1267.53,-350.85 1313.51,-329.34 1346,-299.74 1356.94,-289.77 1352.47,-281 1364,-271.74 1368.77,-267.9 1374.19,-264.62 1379.83,-261.81"/>
<polygon fill="midnightblue" stroke="midnightblue" points="1233.96,-360.29 1225.87,-367.13 1236.46,-366.83 1233.96,-360.29"/>
</g>
<!-- Node17&#45;&gt;Node1 -->
<g id="edge39" class="edge">
<title>Node17&#45;&gt;Node1</title>
<path fill="none" stroke="#9a32cd" stroke-dasharray="5,2" d="M1226.23,-153.73C1241.57,-146.78 1260.96,-138.8 1279,-133.74 1351.22,-113.48 1457.5,-71.74 1684.5,-71.74 1684.5,-71.74 1684.5,-71.74 2316.5,-71.74 2359.37,-71.74 2406.95,-71.74 2446.85,-71.74"/>
<polygon fill="#9a32cd" stroke="#9a32cd" points="1224.38,-150.73 1216.78,-158.12 1227.33,-157.08 1224.38,-150.73"/>
<text text-anchor="middle" x="1822.5" y="-74.74" font-family="Helvetica,sans-Serif" font-size="10.00"> mEdq_t</text>
</g>
<!-- Node17&#45;&gt;Node4 -->
<g id="edge20" class="edge">
<title>Node17&#45;&gt;Node4</title>
<path fill="none" stroke="#9a32cd" stroke-dasharray="5,2" d="M1271.29,-177.5C1332.84,-185.87 1422.79,-198.61 1501,-211.74 1539.38,-218.18 1582.1,-226.27 1616.66,-233.05"/>
<polygon fill="#9a32cd" stroke="#9a32cd" points="1271.66,-174.02 1261.28,-176.14 1270.72,-180.95 1271.66,-174.02"/>
<text text-anchor="middle" x="1432.5" y="-214.74" font-family="Helvetica,sans-Serif" font-size="10.00"> mRightVector</text>
</g>
<!-- Node17&#45;&gt;Node19 -->
<g id="edge27" class="edge">
<title>Node17&#45;&gt;Node19</title>
<path fill="none" stroke="#9a32cd" stroke-dasharray="5,2" d="M1223.98,-181.98C1239.66,-190.02 1260.1,-199.81 1279,-206.74 1306.24,-216.72 1337.07,-225.3 1363.84,-231.92"/>
<polygon fill="#9a32cd" stroke="#9a32cd" points="1225.37,-178.76 1214.89,-177.25 1222.14,-184.97 1225.37,-178.76"/>
<text text-anchor="middle" x="1312.5" y="-229.74" font-family="Helvetica,sans-Serif" font-size="10.00"> mRightVector</text>
</g>
<!-- Node20 -->
<g id="node20" class="node">
<title>Node20</title>
<g id="a_node20"><a xlink:href="class_c_p_s_1_1_base_1_1_reduced_order_synchron_generator.html" target="_top" xlink:title=" ">
<polygon fill="none" stroke="black" points="1596,-106.74 1596,-136.74 1775,-136.74 1775,-106.74 1596,-106.74"/>
<text text-anchor="start" x="1604" y="-124.74" font-family="Helvetica,sans-Serif" font-size="10.00">CPS::Base::ReducedOrderSynchron</text>
<text text-anchor="middle" x="1685.5" y="-113.74" font-family="Helvetica,sans-Serif" font-size="10.00">Generator&lt; VarType &gt;</text>
</a>
</g>
</g>
<!-- Node17&#45;&gt;Node20 -->
<g id="edge34" class="edge">
<title>Node17&#45;&gt;Node20</title>
<path fill="none" stroke="#9a32cd" stroke-dasharray="5,2" d="M1248.12,-156.01C1280.96,-148.9 1324.79,-140.34 1364,-135.74 1442,-126.59 1531.3,-123.27 1595.8,-122.13"/>
<polygon fill="#9a32cd" stroke="#9a32cd" points="1247.31,-152.6 1238.29,-158.17 1248.81,-159.44 1247.31,-152.6"/>
<text text-anchor="middle" x="1432.5" y="-171.74" font-family="Helvetica,sans-Serif" font-size="10.00"> mIdq</text>
<text text-anchor="middle" x="1432.5" y="-160.74" font-family="Helvetica,sans-Serif" font-size="10.00">mIdq0</text>
<text text-anchor="middle" x="1432.5" y="-149.74" font-family="Helvetica,sans-Serif" font-size="10.00">mVdq</text>
<text text-anchor="middle" x="1432.5" y="-138.74" font-family="Helvetica,sans-Serif" font-size="10.00">mVdq0</text>
</g>
<!-- Node18 -->
<g id="node18" class="node">
<title>Node18</title>
<g id="a_node18"><a xlink:title=" ">
<polygon fill="none" stroke="#bfbfbf" points="897,-147.24 897,-188.24 1013,-188.24 1013,-147.24 897,-147.24"/>
<text text-anchor="start" x="905" y="-176.24" font-family="Helvetica,sans-Serif" font-size="10.00">std::enable_shared</text>
<text text-anchor="start" x="905" y="-165.24" font-family="Helvetica,sans-Serif" font-size="10.00">_from_this&lt; Attribute</text>
<text text-anchor="middle" x="955" y="-154.24" font-family="Helvetica,sans-Serif" font-size="10.00">&lt; Matrix &gt; &gt;</text>
</a>
</g>
</g>
<!-- Node18&#45;&gt;Node17 -->
<g id="edge22" class="edge">
<title>Node18&#45;&gt;Node17</title>
<path fill="none" stroke="midnightblue" d="M1023.36,-167.74C1057.31,-167.74 1098.26,-167.74 1131.71,-167.74"/>
<polygon fill="midnightblue" stroke="midnightblue" points="1023.06,-164.24 1013.06,-167.74 1023.06,-171.24 1023.06,-164.24"/>
</g>
<!-- Node19&#45;&gt;Node4 -->
<g id="edge24" class="edge">
<title>Node19&#45;&gt;Node4</title>
<path fill="none" stroke="orange" stroke-dasharray="5,2" d="M1511.38,-246.74C1545.13,-246.74 1584.27,-246.74 1616.79,-246.74"/>
<polygon fill="orange" stroke="orange" points="1511.09,-243.24 1501.09,-246.74 1511.09,-250.24 1511.09,-243.24"/>
<text text-anchor="middle" x="1548.5" y="-249.74" font-family="Helvetica,sans-Serif" font-size="10.00"> &lt; Complex &gt;</text>
</g>
<!-- Node19&#45;&gt;Node20 -->
<g id="edge29" class="edge">
<title>Node19&#45;&gt;Node20</title>
<path fill="none" stroke="midnightblue" d="M1477.72,-227.54C1485.51,-224.02 1493.52,-220.33 1501,-216.74 1556.94,-189.85 1621.07,-155.92 1656.78,-136.74"/>
<polygon fill="midnightblue" stroke="midnightblue" points="1476.07,-224.44 1468.37,-231.71 1478.93,-230.83 1476.07,-224.44"/>
</g>
<!-- Node20&#45;&gt;Node3 -->
<g id="edge28" class="edge">
<title>Node20&#45;&gt;Node3</title>
<path fill="none" stroke="orange" stroke-dasharray="5,2" d="M1785.28,-121.74C1812.96,-121.74 1842.88,-121.74 1869.93,-121.74"/>
<polygon fill="orange" stroke="orange" points="1785.19,-118.24 1775.19,-121.74 1785.19,-125.24 1785.19,-118.24"/>
<text text-anchor="middle" x="1822.5" y="-124.74" font-family="Helvetica,sans-Serif" font-size="10.00"> &lt; Complex &gt;</text>
</g>
<!-- Node21&#45;&gt;Node20 -->
<g id="edge30" class="edge">
<title>Node21&#45;&gt;Node20</title>
<path fill="none" stroke="#9a32cd" stroke-dasharray="5,2" d="M589.34,-43.09C628,-40.39 677.16,-37.74 721,-37.74 721,-37.74 721,-37.74 1313.5,-37.74 1436.99,-37.74 1578.03,-82.56 1645.09,-106.72"/>
<polygon fill="#9a32cd" stroke="#9a32cd" points="588.96,-39.61 579.23,-43.82 589.46,-46.59 588.96,-39.61"/>
<text text-anchor="middle" x="1080.5" y="-95.74" font-family="Helvetica,sans-Serif" font-size="10.00"> mDelta</text>
<text text-anchor="middle" x="1080.5" y="-84.74" font-family="Helvetica,sans-Serif" font-size="10.00">mEf</text>
<text text-anchor="middle" x="1080.5" y="-73.74" font-family="Helvetica,sans-Serif" font-size="10.00">mElecTorque</text>
<text text-anchor="middle" x="1080.5" y="-62.74" font-family="Helvetica,sans-Serif" font-size="10.00">mMechTorque</text>
<text text-anchor="middle" x="1080.5" y="-51.74" font-family="Helvetica,sans-Serif" font-size="10.00">mOmMech</text>
<text text-anchor="middle" x="1080.5" y="-40.74" font-family="Helvetica,sans-Serif" font-size="10.00">mThetaMech</text>
</g>
<!-- Node22 -->
<g id="node22" class="node">
<title>Node22</title>
<g id="a_node22"><a xlink:title=" ">
<polygon fill="none" stroke="#bfbfbf" points="166,-44.24 166,-85.24 282,-85.24 282,-44.24 166,-44.24"/>
<text text-anchor="start" x="174" y="-73.24" font-family="Helvetica,sans-Serif" font-size="10.00">std::enable_shared</text>
<text text-anchor="start" x="174" y="-62.24" font-family="Helvetica,sans-Serif" font-size="10.00">_from_this&lt; Attribute</text>
<text text-anchor="middle" x="224" y="-51.24" font-family="Helvetica,sans-Serif" font-size="10.00">&lt; Real &gt; &gt;</text>
</a>
</g>
</g>
<!-- Node22&#45;&gt;Node21 -->
<g id="edge32" class="edge">
<title>Node22&#45;&gt;Node21</title>
<path fill="none" stroke="midnightblue" d="M292.47,-61.06C343.04,-58.3 411.55,-54.57 459.85,-51.93"/>
<polygon fill="midnightblue" stroke="midnightblue" points="292.08,-57.57 282.29,-61.61 292.46,-64.56 292.08,-57.57"/>
</g>
<!-- Node23 -->
<g id="node23" class="node">
<title>Node23</title>
<g id="a_node23"><a xlink:href="class_c_p_s_1_1_m_n_a_variable_comp_interface.html" target="_top" xlink:title="MNA interface to be used by elements that require recomputing of the system matrix.">
<polygon fill="none" stroke="black" points="1874.5,-194.24 1874.5,-213.24 2044.5,-213.24 2044.5,-194.24 1874.5,-194.24"/>
<text text-anchor="middle" x="1959.5" y="-201.24" font-family="Helvetica,sans-Serif" font-size="10.00">CPS::MNAVariableCompInterface</text>
</a>
</g>
</g>
<!-- Node23&#45;&gt;Node2 -->
<g id="edge35" class="edge">
<title>Node23&#45;&gt;Node2</title>
<path fill="none" stroke="midnightblue" d="M2054.59,-194.53C2099.7,-189.4 2154.38,-182.13 2203,-172.74 2222.54,-168.96 2243.74,-163.74 2262.35,-158.77"/>
<polygon fill="midnightblue" stroke="midnightblue" points="2054.08,-191.07 2044.53,-195.66 2054.86,-198.02 2054.08,-191.07"/>
</g>
<!-- Node24 -->
<g id="node24" class="node">
<title>Node24</title>
<g id="a_node24"><a xlink:href="class_c_p_s_1_1_d_p_1_1_ph1_1_1_d_p_d_q_interface.html" target="_top" xlink:title="Class providing interface with DP domain for all components in DQ domain.">
<polygon fill="none" stroke="black" points="1882,-156.24 1882,-175.24 2037,-175.24 2037,-156.24 1882,-156.24"/>
<text text-anchor="middle" x="1959.5" y="-163.24" font-family="Helvetica,sans-Serif" font-size="10.00">CPS::DP::Ph1::DPDQInterface</text>
</a>
</g>
</g>
<!-- Node24&#45;&gt;Node2 -->
<g id="edge36" class="edge">
<title>Node24&#45;&gt;Node2</title>
<path fill="none" stroke="#9a32cd" stroke-dasharray="5,2" d="M2047.33,-160.34C2106.17,-156.68 2183.15,-151.9 2239.36,-148.41"/>
<polygon fill="#9a32cd" stroke="#9a32cd" points="2047.08,-156.85 2037.31,-160.96 2047.51,-163.84 2047.08,-156.85"/>
<text text-anchor="middle" x="2135" y="-160.74" font-family="Helvetica,sans-Serif" font-size="10.00"> mDomainInterface</text>
</g>
<!-- Node25 -->
<g id="node25" class="node">
<title>Node25</title>
<g id="a_node25"><a xlink:href="class_shared_factory.html" target="_top" xlink:title=" ">
<polygon fill="none" stroke="black" points="2221,-12.74 2221,-42.74 2410,-42.74 2410,-12.74 2221,-12.74"/>
<text text-anchor="start" x="2229" y="-30.74" font-family="Helvetica,sans-Serif" font-size="10.00">SharedFactory&lt; SynchronGenerator4</text>
<text text-anchor="middle" x="2315.5" y="-19.74" font-family="Helvetica,sans-Serif" font-size="10.00">OrderVBR &gt;</text>
</a>
</g>
</g>
<!-- Node25&#45;&gt;Node1 -->
<g id="edge37" class="edge">
<title>Node25&#45;&gt;Node1</title>
<path fill="none" stroke="midnightblue" d="M2401.49,-44.73C2421.22,-48.68 2442.09,-52.85 2461.37,-56.71"/>
<polygon fill="midnightblue" stroke="midnightblue" points="2402.09,-41.28 2391.6,-42.76 2400.72,-48.15 2402.09,-41.28"/>
</g>
<!-- Node26 -->
<g id="node26" class="node">
<title>Node26</title>
<g id="a_node26"><a xlink:href="class_shared_factory.html" target="_top" xlink:title=" ">
<polygon fill="none" stroke="black" points="1907,-18.24 1907,-37.24 2012,-37.24 2012,-18.24 1907,-18.24"/>
<text text-anchor="middle" x="1959.5" y="-25.24" font-family="Helvetica,sans-Serif" font-size="10.00">SharedFactory&lt; T &gt;</text>
</a>
</g>
</g>
<!-- Node26&#45;&gt;Node25 -->
<g id="edge38" class="edge">
<title>Node26&#45;&gt;Node25</title>
<path fill="none" stroke="orange" stroke-dasharray="5,2" d="M2022.62,-27.74C2077.48,-27.74 2158.24,-27.74 2220.91,-27.74"/>
<polygon fill="orange" stroke="orange" points="2022.35,-24.24 2012.35,-27.74 2022.35,-31.24 2022.35,-24.24"/>
<text text-anchor="start" x="2067" y="-41.74" font-family="Helvetica,sans-Serif" font-size="10.00"> &lt; SynchronGenerator4Order</text>
<text text-anchor="middle" x="2135" y="-30.74" font-family="Helvetica,sans-Serif" font-size="10.00">VBR &gt;</text>
</g>
</g>
</svg>
