<?xml version="1.0" encoding="UTF-8" standalone="no"?>
<!DOCTYPE svg PUBLIC "-//W3C//DTD SVG 1.1//EN"
 "http://www.w3.org/Graphics/SVG/1.1/DTD/svg11.dtd">
<!-- Generated by graphviz version 2.50.0 (0)
 -->
<!-- Title: CPS::DP::Ph1::PiLine Pages: 1 -->
<svg width="2203pt" height="468pt"
 viewBox="0.00 0.00 2203.00 467.52" xmlns="http://www.w3.org/2000/svg" xmlns:xlink="http://www.w3.org/1999/xlink">
<g id="graph0" class="graph" transform="scale(1 1) rotate(0) translate(4 463.52)">
<title>CPS::DP::Ph1::PiLine</title>
<!-- Node1 -->
<g id="node1" class="node">
<title>Node1</title>
<g id="a_node1"><a xlink:title="PI&#45;line dynamic phasor model.">
<polygon fill="#bfbfbf" stroke="black" points="2084,-78.38 2084,-97.38 2195,-97.38 2195,-78.38 2084,-78.38"/>
<text text-anchor="middle" x="2139.5" y="-85.38" font-family="Helvetica,sans-Serif" font-size="10.00">CPS::DP::Ph1::PiLine</text>
</a>
</g>
</g>
<!-- Node2 -->
<g id="node2" class="node">
<title>Node2</title>
<g id="a_node2"><a xlink:href="class_c_p_s_1_1_composite_power_comp.html" target="_top" xlink:title=" ">
<polygon fill="none" stroke="black" points="1901,-135.88 1901,-165.88 2047,-165.88 2047,-135.88 1901,-135.88"/>
<text text-anchor="start" x="1909" y="-153.88" font-family="Helvetica,sans-Serif" font-size="10.00">CPS::CompositePowerComp</text>
<text text-anchor="middle" x="1974" y="-142.88" font-family="Helvetica,sans-Serif" font-size="10.00">&lt; Complex &gt;</text>
</a>
</g>
</g>
<!-- Node2&#45;&gt;Node1 -->
<g id="edge1" class="edge">
<title>Node2&#45;&gt;Node1</title>
<path fill="none" stroke="midnightblue" d="M2029.15,-132.47C2035.19,-130.3 2041.24,-128.07 2047,-125.88 2070.95,-116.76 2098.02,-105.38 2116.46,-97.46"/>
<polygon fill="midnightblue" stroke="midnightblue" points="2027.96,-129.17 2019.7,-135.82 2030.3,-135.77 2027.96,-129.17"/>
</g>
<!-- Node3 -->
<g id="node3" class="node">
<title>Node3</title>
<g id="a_node3"><a xlink:href="class_c_p_s_1_1_m_n_a_sim_power_comp.html" target="_top" xlink:title=" ">
<polygon fill="none" stroke="black" points="1664.5,-199.88 1664.5,-229.88 1801.5,-229.88 1801.5,-199.88 1664.5,-199.88"/>
<text text-anchor="start" x="1672.5" y="-217.88" font-family="Helvetica,sans-Serif" font-size="10.00">CPS::MNASimPowerComp</text>
<text text-anchor="middle" x="1733" y="-206.88" font-family="Helvetica,sans-Serif" font-size="10.00">&lt; Complex &gt;</text>
</a>
</g>
</g>
<!-- Node3&#45;&gt;Node2 -->
<g id="edge2" class="edge">
<title>Node3&#45;&gt;Node2</title>
<path fill="none" stroke="midnightblue" d="M1800.14,-197.17C1836.83,-187.34 1881.96,-175.26 1916.9,-165.9"/>
<polygon fill="midnightblue" stroke="midnightblue" points="1798.79,-193.91 1790.03,-199.87 1800.6,-200.67 1798.79,-193.91"/>
</g>
<!-- Node4 -->
<g id="node4" class="node">
<title>Node4</title>
<g id="a_node4"><a xlink:href="class_c_p_s_1_1_sim_power_comp.html" target="_top" xlink:title=" ">
<polygon fill="none" stroke="black" points="1437,-296.88 1437,-326.88 1556,-326.88 1556,-296.88 1437,-296.88"/>
<text text-anchor="start" x="1445" y="-314.88" font-family="Helvetica,sans-Serif" font-size="10.00">CPS::SimPowerComp&lt;</text>
<text text-anchor="middle" x="1496.5" y="-303.88" font-family="Helvetica,sans-Serif" font-size="10.00"> Complex &gt;</text>
</a>
</g>
</g>
<!-- Node4&#45;&gt;Node3 -->
<g id="edge3" class="edge">
<title>Node4&#45;&gt;Node3</title>
<path fill="none" stroke="midnightblue" d="M1566.26,-303.88C1590.88,-299.4 1618.38,-292.49 1642,-281.88 1670.78,-268.94 1699.18,-245.55 1716.15,-230.11"/>
<polygon fill="midnightblue" stroke="midnightblue" points="1565.52,-300.45 1556.26,-305.59 1566.71,-307.35 1565.52,-300.45"/>
</g>
<!-- Node5 -->
<g id="node5" class="node">
<title>Node5</title>
<g id="a_node5"><a xlink:href="class_c_p_s_1_1_topological_power_comp.html" target="_top" xlink:title=" ">
<polygon fill="none" stroke="black" points="963,-352.38 963,-371.38 1111,-371.38 1111,-352.38 963,-352.38"/>
<text text-anchor="middle" x="1037" y="-359.38" font-family="Helvetica,sans-Serif" font-size="10.00">CPS::TopologicalPowerComp</text>
</a>
</g>
</g>
<!-- Node5&#45;&gt;Node4 -->
<g id="edge4" class="edge">
<title>Node5&#45;&gt;Node4</title>
<path fill="none" stroke="midnightblue" d="M1121.42,-356.79C1197.03,-351.52 1311.39,-341.92 1410,-326.88 1418.64,-325.56 1427.76,-324.07 1436.68,-322.55"/>
<polygon fill="midnightblue" stroke="midnightblue" points="1120.75,-353.33 1111.01,-357.5 1121.23,-360.31 1120.75,-353.33"/>
</g>
<!-- Node12 -->
<g id="node12" class="node">
<title>Node12</title>
<g id="a_node12"><a xlink:href="class_c_p_s_1_1_sim_power_comp.html" target="_top" xlink:title="Base class for all components that are transmitting power.">
<polygon fill="none" stroke="black" points="1214,-296.88 1214,-326.88 1333,-326.88 1333,-296.88 1214,-296.88"/>
<text text-anchor="start" x="1222" y="-314.88" font-family="Helvetica,sans-Serif" font-size="10.00">CPS::SimPowerComp&lt;</text>
<text text-anchor="middle" x="1273.5" y="-303.88" font-family="Helvetica,sans-Serif" font-size="10.00"> VarType &gt;</text>
</a>
</g>
</g>
<!-- Node5&#45;&gt;Node12 -->
<g id="edge13" class="edge">
<title>Node5&#45;&gt;Node12</title>
<path fill="none" stroke="midnightblue" d="M1092.59,-350.24C1128.93,-342.49 1176.65,-332.32 1213.81,-324.39"/>
<polygon fill="midnightblue" stroke="midnightblue" points="1091.71,-346.85 1082.66,-352.36 1093.17,-353.69 1091.71,-346.85"/>
</g>
<!-- Node6 -->
<g id="node6" class="node">
<title>Node6</title>
<g id="a_node6"><a xlink:href="class_c_p_s_1_1_identified_object.html" target="_top" xlink:title=" ">
<polygon fill="none" stroke="black" points="691,-371.38 691,-390.38 807,-390.38 807,-371.38 691,-371.38"/>
<text text-anchor="middle" x="749" y="-378.38" font-family="Helvetica,sans-Serif" font-size="10.00">CPS::IdentifiedObject</text>
</a>
</g>
</g>
<!-- Node6&#45;&gt;Node5 -->
<g id="edge5" class="edge">
<title>Node6&#45;&gt;Node5</title>
<path fill="none" stroke="midnightblue" d="M817.43,-376.4C861.14,-373.49 918.06,-369.71 962.86,-366.74"/>
<polygon fill="midnightblue" stroke="midnightblue" points="816.93,-372.92 807.19,-377.08 817.4,-379.91 816.93,-372.92"/>
</g>
<!-- Node7 -->
<g id="node7" class="node">
<title>Node7</title>
<g id="a_node7"><a xlink:href="class_c_p_s_1_1_attribute.html" target="_top" xlink:title=" ">
<polygon fill="none" stroke="black" points="456,-384.38 456,-403.38 583,-403.38 583,-384.38 456,-384.38"/>
<text text-anchor="middle" x="519.5" y="-391.38" font-family="Helvetica,sans-Serif" font-size="10.00">CPS::Attribute&lt; String &gt;</text>
</a>
</g>
</g>
<!-- Node7&#45;&gt;Node6 -->
<g id="edge6" class="edge">
<title>Node7&#45;&gt;Node6</title>
<path fill="none" stroke="#9a32cd" stroke-dasharray="5,2" d="M593.33,-389.72C624.9,-387.91 661.32,-385.83 690.89,-384.14"/>
<polygon fill="#9a32cd" stroke="#9a32cd" points="593.05,-386.23 583.27,-390.29 593.45,-393.21 593.05,-386.23"/>
<text text-anchor="middle" x="639.5" y="-402.88" font-family="Helvetica,sans-Serif" font-size="10.00"> mName</text>
<text text-anchor="middle" x="639.5" y="-391.88" font-family="Helvetica,sans-Serif" font-size="10.00">mUID</text>
</g>
<!-- Node8 -->
<g id="node8" class="node">
<title>Node8</title>
<g id="a_node8"><a xlink:href="class_c_p_s_1_1_attribute_base.html" target="_top" xlink:title=" ">
<polygon fill="none" stroke="black" points="5.5,-209.38 5.5,-228.38 110.5,-228.38 110.5,-209.38 5.5,-209.38"/>
<text text-anchor="middle" x="58" y="-216.38" font-family="Helvetica,sans-Serif" font-size="10.00">CPS::AttributeBase</text>
</a>
</g>
</g>
<!-- Node8&#45;&gt;Node7 -->
<g id="edge7" class="edge">
<title>Node8&#45;&gt;Node7</title>
<path fill="none" stroke="midnightblue" d="M61.03,-238.73C66.65,-281.94 86.68,-384.07 153,-426.88 265.68,-499.61 440.18,-430.42 498.65,-403.53"/>
<polygon fill="midnightblue" stroke="midnightblue" points="64.49,-238.17 59.85,-228.64 57.54,-238.98 64.49,-238.17"/>
</g>
<!-- Node10 -->
<g id="node10" class="node">
<title>Node10</title>
<g id="a_node10"><a xlink:href="class_c_p_s_1_1_attribute.html" target="_top" xlink:title=" ">
<polygon fill="none" stroke="black" points="172,-171.38 172,-190.38 276,-190.38 276,-171.38 172,-171.38"/>
<text text-anchor="middle" x="224" y="-178.38" font-family="Helvetica,sans-Serif" font-size="10.00">CPS::Attribute&lt; T &gt;</text>
</a>
</g>
</g>
<!-- Node8&#45;&gt;Node10 -->
<g id="edge10" class="edge">
<title>Node8&#45;&gt;Node10</title>
<path fill="none" stroke="midnightblue" d="M110.34,-206.98C133.39,-201.64 160.22,-195.42 181.91,-190.4"/>
<polygon fill="midnightblue" stroke="midnightblue" points="109.34,-203.62 100.38,-209.29 110.92,-210.44 109.34,-203.62"/>
</g>
<!-- Node13 -->
<g id="node13" class="node">
<title>Node13</title>
<g id="a_node13"><a xlink:href="class_c_p_s_1_1_attribute.html" target="_top" xlink:title=" ">
<polygon fill="none" stroke="black" points="451,-296.88 451,-326.88 588,-326.88 588,-296.88 451,-296.88"/>
<text text-anchor="start" x="459" y="-314.88" font-family="Helvetica,sans-Serif" font-size="10.00">CPS::Attribute&lt; MatrixVar</text>
<text text-anchor="middle" x="519.5" y="-303.88" font-family="Helvetica,sans-Serif" font-size="10.00">&lt; VarType &gt; &gt;</text>
</a>
</g>
</g>
<!-- Node8&#45;&gt;Node13 -->
<g id="edge15" class="edge">
<title>Node8&#45;&gt;Node13</title>
<path fill="none" stroke="midnightblue" d="M92.61,-232.11C140.64,-250.37 232.05,-282.75 313,-297.88 358.52,-306.39 410.57,-309.87 450.9,-311.23"/>
<polygon fill="midnightblue" stroke="midnightblue" points="93.63,-228.75 83.04,-228.44 91.12,-235.29 93.63,-228.75"/>
</g>
<!-- Node16 -->
<g id="node16" class="node">
<title>Node16</title>
<g id="a_node16"><a xlink:href="class_c_p_s_1_1_attribute.html" target="_top" xlink:title=" ">
<polygon fill="none" stroke="black" points="455,-208.38 455,-227.38 584,-227.38 584,-208.38 455,-208.38"/>
<text text-anchor="middle" x="519.5" y="-215.38" font-family="Helvetica,sans-Serif" font-size="10.00">CPS::Attribute&lt; Matrix &gt;</text>
</a>
</g>
</g>
<!-- Node8&#45;&gt;Node16 -->
<g id="edge20" class="edge">
<title>Node8&#45;&gt;Node16</title>
<path fill="none" stroke="midnightblue" d="M120.84,-218.74C208.08,-218.55 366.5,-218.21 454.76,-218.02"/>
<polygon fill="midnightblue" stroke="midnightblue" points="120.81,-215.24 110.82,-218.77 120.82,-222.24 120.81,-215.24"/>
</g>
<!-- Node22 -->
<g id="node22" class="node">
<title>Node22</title>
<g id="a_node22"><a xlink:href="class_c_p_s_1_1_attribute.html" target="_top" xlink:title=" ">
<polygon fill="none" stroke="black" points="460,-59.38 460,-78.38 579,-78.38 579,-59.38 460,-59.38"/>
<text text-anchor="middle" x="519.5" y="-66.38" font-family="Helvetica,sans-Serif" font-size="10.00">CPS::Attribute&lt; Real &gt;</text>
</a>
</g>
</g>
<!-- Node8&#45;&gt;Node22 -->
<g id="edge32" class="edge">
<title>Node8&#45;&gt;Node22</title>
<path fill="none" stroke="midnightblue" d="M110.77,-203.75C112.65,-202.27 114.41,-200.66 116,-198.88 164.69,-144.5 95.87,-84.3 153,-38.88 258.9,45.33 440.83,-30.93 499.6,-59.28"/>
<polygon fill="midnightblue" stroke="midnightblue" points="108.45,-201.07 101.84,-209.34 112.17,-207 108.45,-201.07"/>
</g>
<!-- Node9 -->
<g id="node9" class="node">
<title>Node9</title>
<g id="a_node9"><a xlink:title=" ">
<polygon fill="none" stroke="#bfbfbf" points="166,-376.38 166,-417.38 282,-417.38 282,-376.38 166,-376.38"/>
<text text-anchor="start" x="174" y="-405.38" font-family="Helvetica,sans-Serif" font-size="10.00">std::enable_shared</text>
<text text-anchor="start" x="174" y="-394.38" font-family="Helvetica,sans-Serif" font-size="10.00">_from_this&lt; Attribute</text>
<text text-anchor="middle" x="224" y="-383.38" font-family="Helvetica,sans-Serif" font-size="10.00">&lt; String &gt; &gt;</text>
</a>
</g>
</g>
<!-- Node9&#45;&gt;Node7 -->
<g id="edge8" class="edge">
<title>Node9&#45;&gt;Node7</title>
<path fill="none" stroke="midnightblue" d="M292.51,-396.19C341.66,-395.69 407.76,-395.01 455.77,-394.52"/>
<polygon fill="midnightblue" stroke="midnightblue" points="292.25,-392.69 282.29,-396.29 292.32,-399.69 292.25,-392.69"/>
</g>
<!-- Node10&#45;&gt;Node7 -->
<g id="edge9" class="edge">
<title>Node10&#45;&gt;Node7</title>
<path fill="none" stroke="orange" stroke-dasharray="5,2" d="M240.96,-197.74C257.97,-215.26 286.1,-242.99 313,-263.88 378.53,-314.75 464.54,-364.12 500.98,-384.32"/>
<polygon fill="orange" stroke="orange" points="243.42,-195.25 233.97,-190.47 238.38,-200.1 243.42,-195.25"/>
<text text-anchor="middle" x="373" y="-346.88" font-family="Helvetica,sans-Serif" font-size="10.00"> &lt; String &gt;</text>
</g>
<!-- Node10&#45;&gt;Node13 -->
<g id="edge17" class="edge">
<title>Node10&#45;&gt;Node13</title>
<path fill="none" stroke="orange" stroke-dasharray="5,2" d="M263.57,-193.6C319.34,-212.09 417.52,-245.04 433,-252.88 457.46,-265.26 483.01,-283.74 499.74,-296.71"/>
<polygon fill="orange" stroke="orange" points="264.61,-190.26 254.02,-190.44 262.41,-196.9 264.61,-190.26"/>
<text text-anchor="middle" x="373" y="-255.88" font-family="Helvetica,sans-Serif" font-size="10.00"> &lt; MatrixVar&lt; VarType &gt; &gt;</text>
</g>
<!-- Node10&#45;&gt;Node16 -->
<g id="edge22" class="edge">
<title>Node10&#45;&gt;Node16</title>
<path fill="none" stroke="orange" stroke-dasharray="5,2" d="M286.46,-181.32C328.08,-182.45 384.17,-185.59 433,-193.88 452.46,-197.18 473.83,-203.18 490.34,-208.35"/>
<polygon fill="orange" stroke="orange" points="286.29,-177.82 276.21,-181.08 286.12,-184.81 286.29,-177.82"/>
<text text-anchor="middle" x="373" y="-196.88" font-family="Helvetica,sans-Serif" font-size="10.00"> &lt; Matrix &gt;</text>
</g>
<!-- Node10&#45;&gt;Node22 -->
<g id="edge34" class="edge">
<title>Node10&#45;&gt;Node22</title>
<path fill="none" stroke="orange" stroke-dasharray="5,2" d="M267.04,-168.25C276.3,-165.31 286.02,-162.09 295,-158.88 369.83,-132.1 456.7,-95.49 496.51,-78.4"/>
<polygon fill="orange" stroke="orange" points="265.73,-165 257.24,-171.33 267.83,-171.67 265.73,-165"/>
<text text-anchor="middle" x="373" y="-154.88" font-family="Helvetica,sans-Serif" font-size="10.00"> &lt; Real &gt;</text>
</g>
<!-- Node11 -->
<g id="node11" class="node">
<title>Node11</title>
<g id="a_node11"><a xlink:title=" ">
<polygon fill="none" stroke="#bfbfbf" points="0,-148.38 0,-189.38 116,-189.38 116,-148.38 0,-148.38"/>
<text text-anchor="start" x="8" y="-177.38" font-family="Helvetica,sans-Serif" font-size="10.00">std::enable_shared</text>
<text text-anchor="start" x="8" y="-166.38" font-family="Helvetica,sans-Serif" font-size="10.00">_from_this&lt; Attribute</text>
<text text-anchor="middle" x="58" y="-155.38" font-family="Helvetica,sans-Serif" font-size="10.00">&lt; T &gt; &gt;</text>
</a>
</g>
</g>
<!-- Node11&#45;&gt;Node10 -->
<g id="edge11" class="edge">
<title>Node11&#45;&gt;Node10</title>
<path fill="none" stroke="midnightblue" d="M126.7,-173.83C141.84,-174.94 157.64,-176.1 171.97,-177.14"/>
<polygon fill="midnightblue" stroke="midnightblue" points="126.59,-170.31 116.36,-173.07 126.08,-177.3 126.59,-170.31"/>
</g>
<!-- Node12&#45;&gt;Node4 -->
<g id="edge12" class="edge">
<title>Node12&#45;&gt;Node4</title>
<path fill="none" stroke="orange" stroke-dasharray="5,2" d="M1343.53,-311.88C1373.52,-311.88 1408.27,-311.88 1436.97,-311.88"/>
<polygon fill="orange" stroke="orange" points="1343.14,-308.38 1333.14,-311.88 1343.14,-315.38 1343.14,-308.38"/>
<text text-anchor="middle" x="1380.5" y="-314.88" font-family="Helvetica,sans-Serif" font-size="10.00"> &lt; Complex &gt;</text>
</g>
<!-- Node18 -->
<g id="node18" class="node">
<title>Node18</title>
<g id="a_node18"><a xlink:href="class_c_p_s_1_1_m_n_a_sim_power_comp.html" target="_top" xlink:title="Base class for all MNA components that are transmitting power.">
<polygon fill="none" stroke="black" points="1428,-199.88 1428,-229.88 1565,-229.88 1565,-199.88 1428,-199.88"/>
<text text-anchor="start" x="1436" y="-217.88" font-family="Helvetica,sans-Serif" font-size="10.00">CPS::MNASimPowerComp</text>
<text text-anchor="middle" x="1496.5" y="-206.88" font-family="Helvetica,sans-Serif" font-size="10.00">&lt; VarType &gt;</text>
</a>
</g>
</g>
<!-- Node12&#45;&gt;Node18 -->
<g id="edge24" class="edge">
<title>Node12&#45;&gt;Node18</title>
<path fill="none" stroke="midnightblue" d="M1318.45,-292.59C1360.41,-274.17 1422.79,-246.79 1461.21,-229.93"/>
<polygon fill="midnightblue" stroke="midnightblue" points="1316.78,-289.5 1309.03,-296.72 1319.59,-295.91 1316.78,-289.5"/>
</g>
<!-- Node13&#45;&gt;Node12 -->
<g id="edge14" class="edge">
<title>Node13&#45;&gt;Node12</title>
<path fill="none" stroke="#9a32cd" stroke-dasharray="5,2" d="M598.36,-311.88C749.54,-311.88 1079.73,-311.88 1213.98,-311.88"/>
<polygon fill="#9a32cd" stroke="#9a32cd" points="598.23,-308.38 588.23,-311.88 598.23,-315.38 598.23,-308.38"/>
<text text-anchor="middle" x="885" y="-325.88" font-family="Helvetica,sans-Serif" font-size="10.00"> mIntfCurrent</text>
<text text-anchor="middle" x="885" y="-314.88" font-family="Helvetica,sans-Serif" font-size="10.00">mIntfVoltage</text>
</g>
<!-- Node14 -->
<g id="node14" class="node">
<title>Node14</title>
<g id="a_node14"><a xlink:title=" ">
<polygon fill="none" stroke="#bfbfbf" points="153,-316.38 153,-357.38 295,-357.38 295,-316.38 153,-316.38"/>
<text text-anchor="start" x="161" y="-345.38" font-family="Helvetica,sans-Serif" font-size="10.00">std::enable_shared</text>
<text text-anchor="start" x="161" y="-334.38" font-family="Helvetica,sans-Serif" font-size="10.00">_from_this&lt; Attribute</text>
<text text-anchor="middle" x="224" y="-323.38" font-family="Helvetica,sans-Serif" font-size="10.00">&lt; MatrixVar&lt; VarType &gt; &gt; &gt;</text>
</a>
</g>
</g>
<!-- Node14&#45;&gt;Node13 -->
<g id="edge16" class="edge">
<title>Node14&#45;&gt;Node13</title>
<path fill="none" stroke="midnightblue" d="M305.51,-332.6C344.12,-330.26 391.01,-326.99 433,-322.88 438.81,-322.31 444.83,-321.66 450.87,-320.96"/>
<polygon fill="midnightblue" stroke="midnightblue" points="305.14,-329.12 295.37,-333.21 305.56,-336.1 305.14,-329.12"/>
</g>
<!-- Node15 -->
<g id="node15" class="node">
<title>Node15</title>
<g id="a_node15"><a xlink:href="class_c_p_s_1_1_m_n_a_interface.html" target="_top" xlink:title="Interface to be implemented by all models used by the MNA solver.">
<polygon fill="none" stroke="black" points="1220,-164.38 1220,-183.38 1327,-183.38 1327,-164.38 1220,-164.38"/>
<text text-anchor="middle" x="1273.5" y="-171.38" font-family="Helvetica,sans-Serif" font-size="10.00">CPS::MNAInterface</text>
</a>
</g>
</g>
<!-- Node15&#45;&gt;Node3 -->
<g id="edge18" class="edge">
<title>Node15&#45;&gt;Node3</title>
<path fill="none" stroke="midnightblue" d="M1337.35,-176.03C1396.27,-178.4 1486.76,-182.98 1565,-190.88 1597.79,-194.19 1634.01,-199.22 1664.31,-203.83"/>
<polygon fill="midnightblue" stroke="midnightblue" points="1337.22,-172.52 1327.09,-175.62 1336.94,-179.51 1337.22,-172.52"/>
</g>
<!-- Node15&#45;&gt;Node18 -->
<g id="edge25" class="edge">
<title>Node15&#45;&gt;Node18</title>
<path fill="none" stroke="midnightblue" d="M1335.63,-185.22C1364.23,-190.52 1398.38,-196.86 1427.77,-202.31"/>
<polygon fill="midnightblue" stroke="midnightblue" points="1336.23,-181.77 1325.76,-183.39 1334.95,-188.65 1336.23,-181.77"/>
</g>
<!-- Node16&#45;&gt;Node3 -->
<g id="edge19" class="edge">
<title>Node16&#45;&gt;Node3</title>
<path fill="none" stroke="#9a32cd" stroke-dasharray="5,2" d="M556.09,-230.71C600.42,-245.53 678.78,-267.88 748,-267.88 748,-267.88 748,-267.88 1497.5,-267.88 1566.79,-267.88 1644.82,-245.59 1691.12,-229.92"/>
<polygon fill="#9a32cd" stroke="#9a32cd" points="556.96,-227.31 546.37,-227.4 554.7,-233.94 556.96,-227.31"/>
<text text-anchor="middle" x="1162.5" y="-270.88" font-family="Helvetica,sans-Serif" font-size="10.00"> mRightVector</text>
</g>
<!-- Node16&#45;&gt;Node18 -->
<g id="edge26" class="edge">
<title>Node16&#45;&gt;Node18</title>
<path fill="none" stroke="#9a32cd" stroke-dasharray="5,2" d="M594.39,-217.88C638.89,-217.88 696.7,-217.88 748,-217.88 748,-217.88 748,-217.88 1274.5,-217.88 1325.92,-217.88 1384.06,-217.06 1427.8,-216.27"/>
<polygon fill="#9a32cd" stroke="#9a32cd" points="594.24,-214.38 584.24,-217.88 594.24,-221.38 594.24,-214.38"/>
<text text-anchor="middle" x="1037" y="-220.88" font-family="Helvetica,sans-Serif" font-size="10.00"> mRightVector</text>
</g>
<!-- Node17 -->
<g id="node17" class="node">
<title>Node17</title>
<g id="a_node17"><a xlink:title=" ">
<polygon fill="none" stroke="#bfbfbf" points="166,-108.38 166,-149.38 282,-149.38 282,-108.38 166,-108.38"/>
<text text-anchor="start" x="174" y="-137.38" font-family="Helvetica,sans-Serif" font-size="10.00">std::enable_shared</text>
<text text-anchor="start" x="174" y="-126.38" font-family="Helvetica,sans-Serif" font-size="10.00">_from_this&lt; Attribute</text>
<text text-anchor="middle" x="224" y="-115.38" font-family="Helvetica,sans-Serif" font-size="10.00">&lt; Matrix &gt; &gt;</text>
</a>
</g>
</g>
<!-- Node17&#45;&gt;Node16 -->
<g id="edge21" class="edge">
<title>Node17&#45;&gt;Node16</title>
<path fill="none" stroke="midnightblue" d="M292.15,-121.2C334.2,-119.07 388.62,-121.31 433,-139.88 468.4,-154.69 498.57,-190.82 511.61,-208.21"/>
<polygon fill="midnightblue" stroke="midnightblue" points="291.79,-117.72 282.02,-121.81 292.21,-124.71 291.79,-117.72"/>
</g>
<!-- Node18&#45;&gt;Node3 -->
<g id="edge23" class="edge">
<title>Node18&#45;&gt;Node3</title>
<path fill="none" stroke="orange" stroke-dasharray="5,2" d="M1575.04,-214.88C1603.84,-214.88 1636.28,-214.88 1664.15,-214.88"/>
<polygon fill="orange" stroke="orange" points="1575.01,-211.38 1565.01,-214.88 1575.01,-218.38 1575.01,-211.38"/>
<text text-anchor="middle" x="1612.5" y="-217.88" font-family="Helvetica,sans-Serif" font-size="10.00"> &lt; Complex &gt;</text>
</g>
<!-- Node19 -->
<g id="node19" class="node">
<title>Node19</title>
<g id="a_node19"><a xlink:href="class_c_p_s_1_1_composite_power_comp.html" target="_top" xlink:title="Base class for composite power components.">
<polygon fill="none" stroke="black" points="1660,-129.88 1660,-159.88 1806,-159.88 1806,-129.88 1660,-129.88"/>
<text text-anchor="start" x="1668" y="-147.88" font-family="Helvetica,sans-Serif" font-size="10.00">CPS::CompositePowerComp</text>
<text text-anchor="middle" x="1733" y="-136.88" font-family="Helvetica,sans-Serif" font-size="10.00">&lt; VarType &gt;</text>
</a>
</g>
</g>
<!-- Node18&#45;&gt;Node19 -->
<g id="edge28" class="edge">
<title>Node18&#45;&gt;Node19</title>
<path fill="none" stroke="midnightblue" d="M1557.8,-196.88C1596.1,-185.45 1645.1,-170.82 1681.37,-159.99"/>
<polygon fill="midnightblue" stroke="midnightblue" points="1556.39,-193.65 1547.81,-199.86 1558.39,-200.35 1556.39,-193.65"/>
</g>
<!-- Node19&#45;&gt;Node2 -->
<g id="edge27" class="edge">
<title>Node19&#45;&gt;Node2</title>
<path fill="none" stroke="orange" stroke-dasharray="5,2" d="M1816.38,-146.95C1843.8,-147.63 1874.11,-148.4 1900.7,-149.06"/>
<polygon fill="orange" stroke="orange" points="1816.12,-143.44 1806.03,-146.69 1815.94,-150.44 1816.12,-143.44"/>
<text text-anchor="middle" x="1853.5" y="-150.88" font-family="Helvetica,sans-Serif" font-size="10.00"> &lt; Complex &gt;</text>
</g>
<!-- Node20 -->
<g id="node20" class="node">
<title>Node20</title>
<g id="a_node20"><a xlink:href="class_c_p_s_1_1_m_n_a_tear_interface.html" target="_top" xlink:title=" ">
<polygon fill="none" stroke="black" points="1911,-97.38 1911,-116.38 2037,-116.38 2037,-97.38 1911,-97.38"/>
<text text-anchor="middle" x="1974" y="-104.38" font-family="Helvetica,sans-Serif" font-size="10.00">CPS::MNATearInterface</text>
</a>
</g>
</g>
<!-- Node20&#45;&gt;Node1 -->
<g id="edge29" class="edge">
<title>Node20&#45;&gt;Node1</title>
<path fill="none" stroke="midnightblue" d="M2047.46,-98.46C2059.69,-97.04 2072.2,-95.58 2083.88,-94.22"/>
<polygon fill="midnightblue" stroke="midnightblue" points="2046.81,-95.01 2037.28,-99.64 2047.62,-101.96 2046.81,-95.01"/>
</g>
<!-- Node21 -->
<g id="node21" class="node">
<title>Node21</title>
<g id="a_node21"><a xlink:href="class_c_p_s_1_1_base_1_1_ph1_1_1_pi_line.html" target="_top" xlink:title=" ">
<polygon fill="none" stroke="black" points="825,-59.38 825,-78.38 945,-78.38 945,-59.38 825,-59.38"/>
<text text-anchor="middle" x="885" y="-66.38" font-family="Helvetica,sans-Serif" font-size="10.00">CPS::Base::Ph1::PiLine</text>
</a>
</g>
</g>
<!-- Node21&#45;&gt;Node1 -->
<g id="edge30" class="edge">
<title>Node21&#45;&gt;Node1</title>
<path fill="none" stroke="midnightblue" d="M955.22,-68.88C1010.94,-68.88 1091.26,-68.88 1161.5,-68.88 1161.5,-68.88 1161.5,-68.88 1975,-68.88 2011.43,-68.88 2052.13,-73.59 2083.81,-78.32"/>
<polygon fill="midnightblue" stroke="midnightblue" points="955.12,-65.38 945.12,-68.88 955.12,-72.38 955.12,-65.38"/>
</g>
<!-- Node22&#45;&gt;Node21 -->
<g id="edge31" class="edge">
<title>Node22&#45;&gt;Node21</title>
<path fill="none" stroke="#9a32cd" stroke-dasharray="5,2" d="M589.51,-68.88C657.6,-68.88 760.58,-68.88 824.98,-68.88"/>
<polygon fill="#9a32cd" stroke="#9a32cd" points="589.31,-65.38 579.31,-68.88 589.31,-72.38 589.31,-65.38"/>
<text text-anchor="middle" x="639.5" y="-104.88" font-family="Helvetica,sans-Serif" font-size="10.00"> mParallelCap</text>
<text text-anchor="middle" x="639.5" y="-93.88" font-family="Helvetica,sans-Serif" font-size="10.00">mParallelCond</text>
<text text-anchor="middle" x="639.5" y="-82.88" font-family="Helvetica,sans-Serif" font-size="10.00">mSeriesInd</text>
<text text-anchor="middle" x="639.5" y="-71.88" font-family="Helvetica,sans-Serif" font-size="10.00">mSeriesRes</text>
</g>
<!-- Node23 -->
<g id="node23" class="node">
<title>Node23</title>
<g id="a_node23"><a xlink:title=" ">
<polygon fill="none" stroke="#bfbfbf" points="166,-48.38 166,-89.38 282,-89.38 282,-48.38 166,-48.38"/>
<text text-anchor="start" x="174" y="-77.38" font-family="Helvetica,sans-Serif" font-size="10.00">std::enable_shared</text>
<text text-anchor="start" x="174" y="-66.38" font-family="Helvetica,sans-Serif" font-size="10.00">_from_this&lt; Attribute</text>
<text text-anchor="middle" x="224" y="-55.38" font-family="Helvetica,sans-Serif" font-size="10.00">&lt; Real &gt; &gt;</text>
</a>
</g>
</g>
<!-- Node23&#45;&gt;Node22 -->
<g id="edge33" class="edge">
<title>Node23&#45;&gt;Node22</title>
<path fill="none" stroke="midnightblue" d="M292.47,-68.88C343.04,-68.88 411.55,-68.88 459.85,-68.88"/>
<polygon fill="midnightblue" stroke="midnightblue" points="292.29,-65.38 282.29,-68.88 292.29,-72.38 292.29,-65.38"/>
</g>
<!-- Node24 -->
<g id="node24" class="node">
<title>Node24</title>
<g id="a_node24"><a xlink:href="class_shared_factory.html" target="_top" xlink:title=" ">
<polygon fill="none" stroke="black" points="1910,-21.38 1910,-40.38 2038,-40.38 2038,-21.38 1910,-21.38"/>
<text text-anchor="middle" x="1974" y="-28.38" font-family="Helvetica,sans-Serif" font-size="10.00">SharedFactory&lt; PiLine &gt;</text>
</a>
</g>
</g>
<!-- Node24&#45;&gt;Node1 -->
<g id="edge35" class="edge">
<title>Node24&#45;&gt;Node1</title>
<path fill="none" stroke="midnightblue" d="M2026.82,-42.92C2039.75,-46.37 2053.49,-50.42 2066,-54.88 2084.76,-61.57 2105.35,-71.17 2119.78,-78.3"/>
<polygon fill="midnightblue" stroke="midnightblue" points="2027.69,-39.53 2017.13,-40.41 2025.93,-46.31 2027.69,-39.53"/>
</g>
<!-- Node25 -->
<g id="node25" class="node">
<title>Node25</title>
<g id="a_node25"><a xlink:href="class_shared_factory.html" target="_top" xlink:title=" ">
<polygon fill="none" stroke="black" points="1680.5,-21.38 1680.5,-40.38 1785.5,-40.38 1785.5,-21.38 1680.5,-21.38"/>
<text text-anchor="middle" x="1733" y="-28.38" font-family="Helvetica,sans-Serif" font-size="10.00">SharedFactory&lt; T &gt;</text>
</a>
</g>
</g>
<!-- Node25&#45;&gt;Node24 -->
<g id="edge36" class="edge">
<title>Node25&#45;&gt;Node24</title>
<path fill="none" stroke="orange" stroke-dasharray="5,2" d="M1795.65,-30.88C1830.64,-30.88 1874.34,-30.88 1909.61,-30.88"/>
<polygon fill="orange" stroke="orange" points="1795.57,-27.38 1785.57,-30.88 1795.57,-34.38 1795.57,-27.38"/>
<text text-anchor="middle" x="1853.5" y="-33.88" font-family="Helvetica,sans-Serif" font-size="10.00"> &lt; PiLine &gt;</text>
</g>
</g>
</svg>
