<?xml version="1.0" encoding="UTF-8" standalone="no"?>
<!DOCTYPE svg PUBLIC "-//W3C//DTD SVG 1.1//EN"
 "http://www.w3.org/Graphics/SVG/1.1/DTD/svg11.dtd">
<!-- Generated by graphviz version 12.2.1 (20241206.2353)
 -->
<!-- Title: CPS::MNAInterface Pages: 1 -->
<svg width="801pt" height="1879pt"
 viewBox="0.00 0.00 800.75 1879.38" xmlns="http://www.w3.org/2000/svg" xmlns:xlink="http://www.w3.org/1999/xlink">
<g id="graph0" class="graph" transform="scale(1 1) rotate(0) translate(4 1875.38)">
<title>CPS::MNAInterface</title>
<!-- Node1 -->
<g id="Node000001" class="node">
<title>Node1</title>
<g id="a_Node000001"><a xlink:title="Interface to be implemented by all models used by the MNA solver.">
<polygon fill="#999999" stroke="#666666" points="106,-957.38 0,-957.38 0,-935.12 106,-935.12 106,-957.38"/>
<text text-anchor="middle" x="53" y="-943.88" font-family="Helvetica,sans-Serif" font-size="10.00">CPS::MNAInterface</text>
</a>
</g>
</g>
<!-- Node2 -->
<g id="Node000002" class="node">
<title>Node2</title>
<g id="a_Node000002"><a xlink:href="class_c_p_s_1_1_m_n_a_sim_power_comp.html" target="_top" xlink:title=" ">
<polygon fill="white" stroke="#666666" points="566.5,-1232.5 430.5,-1232.5 430.5,-1196 566.5,-1196 566.5,-1232.5"/>
<text text-anchor="start" x="438.5" y="-1219" font-family="Helvetica,sans-Serif" font-size="10.00">CPS::MNASimPowerComp</text>
<text text-anchor="middle" x="498.5" y="-1204.75" font-family="Helvetica,sans-Serif" font-size="10.00">&lt; Complex &gt;</text>
</a>
</g>
</g>
<!-- Node1&#45;&gt;Node2 -->
<g id="edge1_Node000001_Node000002" class="edge">
<title>Node1&#45;&gt;Node2</title>
<g id="a_edge1_Node000001_Node000002"><a xlink:title=" ">
<path fill="none" stroke="#63b8ff" d="M82.89,-963.71C162.5,-1011.81 384.51,-1145.97 466.53,-1195.54"/>
<polygon fill="#63b8ff" stroke="#63b8ff" points="84.72,-960.72 74.35,-958.55 81.1,-966.72 84.72,-960.72"/>
</a>
</g>
</g>
<!-- Node72 -->
<g id="Node000072" class="node">
<title>Node72</title>
<g id="a_Node000072"><a xlink:href="class_c_p_s_1_1_m_n_a_sim_power_comp.html" target="_top" xlink:title=" ">
<polygon fill="white" stroke="orangered" points="566.5,-357.5 430.5,-357.5 430.5,-321 566.5,-321 566.5,-357.5"/>
<text text-anchor="start" x="438.5" y="-344" font-family="Helvetica,sans-Serif" font-size="10.00">CPS::MNASimPowerComp</text>
<text text-anchor="middle" x="498.5" y="-329.75" font-family="Helvetica,sans-Serif" font-size="10.00">&lt; Real &gt;</text>
</a>
</g>
</g>
<!-- Node1&#45;&gt;Node72 -->
<g id="edge32_Node000001_Node000072" class="edge">
<title>Node1&#45;&gt;Node72</title>
<g id="a_edge32_Node000001_Node000072"><a xlink:title=" ">
<path fill="none" stroke="#63b8ff" d="M69.08,-925.61C137.54,-831.92 418.56,-447.3 483.89,-357.88"/>
<polygon fill="#63b8ff" stroke="#63b8ff" points="66.43,-923.31 63.36,-933.44 72.08,-927.43 66.43,-923.31"/>
</a>
</g>
</g>
<!-- Node134 -->
<g id="Node000134" class="node">
<title>Node134</title>
<g id="a_Node000134"><a xlink:href="class_c_p_s_1_1_d_p_1_1_ph3_1_1_synchron_generator_v_b_r.html" target="_top" xlink:title=" ">
<polygon fill="white" stroke="#666666" points="336,-934.38 143,-934.38 143,-912.12 336,-912.12 336,-934.38"/>
<text text-anchor="middle" x="239.5" y="-920.88" font-family="Helvetica,sans-Serif" font-size="10.00">CPS::DP::Ph3::SynchronGeneratorVBR</text>
</a>
</g>
</g>
<!-- Node1&#45;&gt;Node134 -->
<g id="edge47_Node000001_Node000134" class="edge">
<title>Node1&#45;&gt;Node134</title>
<g id="a_edge47_Node000001_Node000134"><a xlink:title=" ">
<path fill="none" stroke="#63b8ff" d="M117.57,-938.33C126.59,-937.2 136.03,-936.02 145.48,-934.85"/>
<polygon fill="#63b8ff" stroke="#63b8ff" points="117.37,-934.82 107.88,-939.53 118.23,-941.77 117.37,-934.82"/>
</a>
</g>
</g>
<!-- Node135 -->
<g id="Node000135" class="node">
<title>Node135</title>
<g id="a_Node000135"><a xlink:href="class_c_p_s_1_1_m_n_a_sim_power_comp.html" target="_top" xlink:title="Base class for all MNA components that are transmitting power.">
<polygon fill="#fff0f0" stroke="red" points="307.5,-988.5 171.5,-988.5 171.5,-952 307.5,-952 307.5,-988.5"/>
<text text-anchor="start" x="179.5" y="-975" font-family="Helvetica,sans-Serif" font-size="10.00">CPS::MNASimPowerComp</text>
<text text-anchor="middle" x="239.5" y="-960.75" font-family="Helvetica,sans-Serif" font-size="10.00">&lt; VarType &gt;</text>
</a>
</g>
</g>
<!-- Node1&#45;&gt;Node135 -->
<g id="edge48_Node000001_Node000135" class="edge">
<title>Node1&#45;&gt;Node135</title>
<g id="a_edge48_Node000001_Node000135"><a xlink:title=" ">
<path fill="none" stroke="#63b8ff" d="M117.51,-954.51C134.81,-956.76 153.62,-959.21 171.14,-961.49"/>
<polygon fill="#63b8ff" stroke="#63b8ff" points="118.25,-951.08 107.88,-953.26 117.34,-958.02 118.25,-951.08"/>
</a>
</g>
</g>
<!-- Node3 -->
<g id="Node000003" class="node">
<title>Node3</title>
<g id="a_Node000003"><a xlink:href="class_c_p_s_1_1_base_1_1_reduced_order_synchron_generator.html" target="_top" xlink:title=" ">
<polygon fill="white" stroke="orangered" points="787.5,-1311.5 608.75,-1311.5 608.75,-1275 787.5,-1275 787.5,-1311.5"/>
<text text-anchor="start" x="616.75" y="-1298" font-family="Helvetica,sans-Serif" font-size="10.00">CPS::Base::ReducedOrderSynchron</text>
<text text-anchor="middle" x="698.12" y="-1283.75" font-family="Helvetica,sans-Serif" font-size="10.00">Generator&lt; Complex &gt;</text>
</a>
</g>
</g>
<!-- Node2&#45;&gt;Node3 -->
<g id="edge2_Node000002_Node000003" class="edge">
<title>Node2&#45;&gt;Node3</title>
<g id="a_edge2_Node000002_Node000003"><a xlink:title=" ">
<path fill="none" stroke="#63b8ff" d="M543.99,-1238.08C562.14,-1247.27 583.53,-1257.43 603.5,-1265.25 611.87,-1268.53 620.79,-1271.65 629.67,-1274.54"/>
<polygon fill="#63b8ff" stroke="#63b8ff" points="545.84,-1235.09 535.34,-1233.65 542.64,-1241.32 545.84,-1235.09"/>
</a>
</g>
</g>
<!-- Node20 -->
<g id="Node000020" class="node">
<title>Node20</title>
<g id="a_Node000020"><a xlink:href="class_c_p_s_1_1_composite_power_comp.html" target="_top" xlink:title=" ">
<polygon fill="white" stroke="orangered" points="771,-1256.5 625.25,-1256.5 625.25,-1220 771,-1220 771,-1256.5"/>
<text text-anchor="start" x="633.25" y="-1243" font-family="Helvetica,sans-Serif" font-size="10.00">CPS::CompositePowerComp</text>
<text text-anchor="middle" x="698.12" y="-1228.75" font-family="Helvetica,sans-Serif" font-size="10.00">&lt; Complex &gt;</text>
</a>
</g>
</g>
<!-- Node2&#45;&gt;Node20 -->
<g id="edge3_Node000002_Node000020" class="edge">
<title>Node2&#45;&gt;Node20</title>
<g id="a_edge3_Node000002_Node000020"><a xlink:title=" ">
<path fill="none" stroke="#63b8ff" d="M578.07,-1223.79C593.52,-1225.67 609.67,-1227.63 624.91,-1229.48"/>
<polygon fill="#63b8ff" stroke="#63b8ff" points="578.81,-1220.36 568.46,-1222.62 577.97,-1227.3 578.81,-1220.36"/>
</a>
</g>
</g>
<!-- Node42 -->
<g id="Node000042" class="node">
<title>Node42</title>
<g id="a_Node000042"><a xlink:href="class_c_p_s_1_1_d_p_1_1_ph1_1_1_capacitor.html" target="_top" xlink:title="Capacitor model.">
<polygon fill="white" stroke="#666666" points="761.25,-1202.38 635,-1202.38 635,-1180.12 761.25,-1180.12 761.25,-1202.38"/>
<text text-anchor="middle" x="698.12" y="-1188.88" font-family="Helvetica,sans-Serif" font-size="10.00">CPS::DP::Ph1::Capacitor</text>
</a>
</g>
</g>
<!-- Node2&#45;&gt;Node42 -->
<g id="edge4_Node000002_Node000042" class="edge">
<title>Node2&#45;&gt;Node42</title>
<g id="a_edge4_Node000002_Node000042"><a xlink:title=" ">
<path fill="none" stroke="#63b8ff" d="M578.17,-1205.09C596.93,-1202.91 616.7,-1200.61 634.62,-1198.52"/>
<polygon fill="#63b8ff" stroke="#63b8ff" points="577.99,-1201.59 568.46,-1206.22 578.8,-1208.54 577.99,-1201.59"/>
</a>
</g>
</g>
<!-- Node43 -->
<g id="Node000043" class="node">
<title>Node43</title>
<g id="a_Node000043"><a xlink:href="class_c_p_s_1_1_d_p_1_1_ph1_1_1_current_source.html" target="_top" xlink:title="Dynamic phasor ideal current source.">
<polygon fill="white" stroke="#666666" points="773.25,-1162.38 623,-1162.38 623,-1140.12 773.25,-1140.12 773.25,-1162.38"/>
<text text-anchor="middle" x="698.12" y="-1148.88" font-family="Helvetica,sans-Serif" font-size="10.00">CPS::DP::Ph1::CurrentSource</text>
</a>
</g>
</g>
<!-- Node2&#45;&gt;Node43 -->
<g id="edge5_Node000002_Node000043" class="edge">
<title>Node2&#45;&gt;Node43</title>
<g id="a_edge5_Node000002_Node000043"><a xlink:title=" ">
<path fill="none" stroke="#63b8ff" d="M550.01,-1191.21C566.79,-1184.14 585.73,-1176.77 603.5,-1171.25 613.58,-1168.12 624.42,-1165.31 635.02,-1162.86"/>
<polygon fill="#63b8ff" stroke="#63b8ff" points="549.07,-1187.8 541.26,-1194.96 551.83,-1194.23 549.07,-1187.8"/>
</a>
</g>
</g>
<!-- Node44 -->
<g id="Node000044" class="node">
<title>Node44</title>
<g id="a_Node000044"><a xlink:href="class_c_p_s_1_1_d_p_1_1_ph1_1_1_inductor.html" target="_top" xlink:title="Inductor.">
<polygon fill="white" stroke="#666666" points="759.75,-1122.38 636.5,-1122.38 636.5,-1100.12 759.75,-1100.12 759.75,-1122.38"/>
<text text-anchor="middle" x="698.12" y="-1108.88" font-family="Helvetica,sans-Serif" font-size="10.00">CPS::DP::Ph1::Inductor</text>
</a>
</g>
</g>
<!-- Node2&#45;&gt;Node44 -->
<g id="edge6_Node000002_Node000044" class="edge">
<title>Node2&#45;&gt;Node44</title>
<g id="a_edge6_Node000002_Node000044"><a xlink:title=" ">
<path fill="none" stroke="#63b8ff" d="M525.37,-1187.87C545.1,-1169.28 573.85,-1145.28 603.5,-1131.25 613.72,-1126.42 625.11,-1122.74 636.34,-1119.94"/>
<polygon fill="#63b8ff" stroke="#63b8ff" points="523.09,-1185.21 518.32,-1194.67 527.95,-1190.25 523.09,-1185.21"/>
</a>
</g>
</g>
<!-- Node45 -->
<g id="Node000045" class="node">
<title>Node45</title>
<g id="a_Node000045"><a xlink:href="class_c_p_s_1_1_d_p_1_1_ph1_1_1_inverter.html" target="_top" xlink:title="Single phase inverter model.">
<polygon fill="white" stroke="#666666" points="759.38,-1082.38 636.88,-1082.38 636.88,-1060.12 759.38,-1060.12 759.38,-1082.38"/>
<text text-anchor="middle" x="698.12" y="-1068.88" font-family="Helvetica,sans-Serif" font-size="10.00">CPS::DP::Ph1::Inverter</text>
</a>
</g>
</g>
<!-- Node2&#45;&gt;Node45 -->
<g id="edge7_Node000002_Node000045" class="edge">
<title>Node2&#45;&gt;Node45</title>
<g id="a_edge7_Node000002_Node000045"><a xlink:title=" ">
<path fill="none" stroke="#63b8ff" d="M515.52,-1186.14C533.28,-1157.65 564.61,-1114.54 603.5,-1091.25 613.48,-1085.27 625,-1081.07 636.48,-1078.11"/>
<polygon fill="#63b8ff" stroke="#63b8ff" points="512.57,-1184.25 510.39,-1194.62 518.56,-1187.88 512.57,-1184.25"/>
</a>
</g>
</g>
<!-- Node46 -->
<g id="Node000046" class="node">
<title>Node46</title>
<g id="a_Node000046"><a xlink:href="class_c_p_s_1_1_d_p_1_1_ph1_1_1_profile_voltage_source.html" target="_top" xlink:title=" ">
<polygon fill="white" stroke="#bfbfbf" points="772.12,-1042.5 624.12,-1042.5 624.12,-1006 772.12,-1006 772.12,-1042.5"/>
<text text-anchor="start" x="632.12" y="-1029" font-family="Helvetica,sans-Serif" font-size="10.00">CPS::DP::Ph1::ProfileVoltage</text>
<text text-anchor="middle" x="698.12" y="-1014.75" font-family="Helvetica,sans-Serif" font-size="10.00">Source</text>
</a>
</g>
</g>
<!-- Node2&#45;&gt;Node46 -->
<g id="edge8_Node000002_Node000046" class="edge">
<title>Node2&#45;&gt;Node46</title>
<g id="a_edge8_Node000002_Node000046"><a xlink:title=" ">
<path fill="none" stroke="#63b8ff" d="M510.39,-1185.27C525.65,-1148.63 556.84,-1086.13 603.5,-1051.25 609.73,-1046.59 616.75,-1042.74 624.07,-1039.54"/>
<polygon fill="#63b8ff" stroke="#63b8ff" points="507.23,-1183.76 506.74,-1194.35 513.72,-1186.38 507.23,-1183.76"/>
</a>
</g>
</g>
<!-- Node47 -->
<g id="Node000047" class="node">
<title>Node47</title>
<g id="a_Node000047"><a xlink:href="class_c_p_s_1_1_d_p_1_1_ph1_1_1_res_ind_series.html" target="_top" xlink:title="resistor inductor series element">
<polygon fill="white" stroke="#666666" points="769.88,-988.38 626.38,-988.38 626.38,-966.12 769.88,-966.12 769.88,-988.38"/>
<text text-anchor="middle" x="698.12" y="-974.88" font-family="Helvetica,sans-Serif" font-size="10.00">CPS::DP::Ph1::ResIndSeries</text>
</a>
</g>
</g>
<!-- Node2&#45;&gt;Node47 -->
<g id="edge9_Node000002_Node000047" class="edge">
<title>Node2&#45;&gt;Node47</title>
<g id="a_edge9_Node000002_Node000047"><a xlink:title=" ">
<path fill="none" stroke="#63b8ff" d="M505,-1184.7C515.42,-1137.4 542.69,-1045.15 603.5,-997.25 610.16,-992 617.88,-988.06 625.98,-985.09"/>
<polygon fill="#63b8ff" stroke="#63b8ff" points="501.63,-1183.71 503.01,-1194.22 508.48,-1185.14 501.63,-1183.71"/>
</a>
</g>
</g>
<!-- Node48 -->
<g id="Node000048" class="node">
<title>Node48</title>
<g id="a_Node000048"><a xlink:href="class_c_p_s_1_1_d_p_1_1_ph1_1_1_resistor.html" target="_top" xlink:title="Dynamic phasor resistor model.">
<polygon fill="white" stroke="#666666" points="758.25,-948.38 638,-948.38 638,-926.12 758.25,-926.12 758.25,-948.38"/>
<text text-anchor="middle" x="698.12" y="-934.88" font-family="Helvetica,sans-Serif" font-size="10.00">CPS::DP::Ph1::Resistor</text>
</a>
</g>
</g>
<!-- Node2&#45;&gt;Node48 -->
<g id="edge10_Node000002_Node000048" class="edge">
<title>Node2&#45;&gt;Node48</title>
<g id="a_edge10_Node000002_Node000048"><a xlink:title=" ">
<path fill="none" stroke="#63b8ff" d="M502.59,-1184.43C509.84,-1130.39 533.07,-1016.38 603.5,-957.25 613.17,-949.13 625.36,-944.07 637.7,-940.96"/>
<polygon fill="#63b8ff" stroke="#63b8ff" points="499.14,-1183.76 501.39,-1194.12 506.09,-1184.62 499.14,-1183.76"/>
</a>
</g>
</g>
<!-- Node49 -->
<g id="Node000049" class="node">
<title>Node49</title>
<g id="a_Node000049"><a xlink:href="class_c_p_s_1_1_d_p_1_1_ph1_1_1_switch.html" target="_top" xlink:title="Dynamic phasor switch.">
<polygon fill="white" stroke="#666666" points="754.12,-908.38 642.12,-908.38 642.12,-886.12 754.12,-886.12 754.12,-908.38"/>
<text text-anchor="middle" x="698.12" y="-894.88" font-family="Helvetica,sans-Serif" font-size="10.00">CPS::DP::Ph1::Switch</text>
</a>
</g>
</g>
<!-- Node2&#45;&gt;Node49 -->
<g id="edge11_Node000002_Node000049" class="edge">
<title>Node2&#45;&gt;Node49</title>
<g id="a_edge11_Node000002_Node000049"><a xlink:title=" ">
<path fill="none" stroke="#63b8ff" d="M500.74,-1184.17C504.94,-1123.84 523.29,-987.8 603.5,-917.25 614.11,-907.92 627.99,-902.58 641.81,-899.61"/>
<polygon fill="#63b8ff" stroke="#63b8ff" points="497.26,-1183.82 500.15,-1194.01 504.24,-1184.24 497.26,-1183.82"/>
</a>
</g>
</g>
<!-- Node50 -->
<g id="Node000050" class="node">
<title>Node50</title>
<g id="a_Node000050"><a xlink:href="class_c_p_s_1_1_d_p_1_1_ph1_1_1_voltage_source.html" target="_top" xlink:title="Ideal Voltage source model.">
<polygon fill="white" stroke="#666666" points="772.88,-868.38 623.38,-868.38 623.38,-846.12 772.88,-846.12 772.88,-868.38"/>
<text text-anchor="middle" x="698.12" y="-854.88" font-family="Helvetica,sans-Serif" font-size="10.00">CPS::DP::Ph1::VoltageSource</text>
</a>
</g>
</g>
<!-- Node2&#45;&gt;Node50 -->
<g id="edge12_Node000002_Node000050" class="edge">
<title>Node2&#45;&gt;Node50</title>
<g id="a_edge12_Node000002_Node000050"><a xlink:title=" ">
<path fill="none" stroke="#63b8ff" d="M499.09,-1184.62C499.89,-1118.52 511.76,-958.41 603.5,-877.25 609.23,-872.18 615.92,-868.29 623.04,-865.32"/>
<polygon fill="#63b8ff" stroke="#63b8ff" points="495.59,-1184.31 499.05,-1194.32 502.59,-1184.33 495.59,-1184.31"/>
</a>
</g>
</g>
<!-- Node51 -->
<g id="Node000051" class="node">
<title>Node51</title>
<g id="a_Node000051"><a xlink:href="class_c_p_s_1_1_d_p_1_1_ph1_1_1_voltage_source_norton.html" target="_top" xlink:title="Resistive dynamic phasor voltage source.">
<polygon fill="white" stroke="#666666" points="772.88,-828.5 623.38,-828.5 623.38,-792 772.88,-792 772.88,-828.5"/>
<text text-anchor="start" x="631.38" y="-815" font-family="Helvetica,sans-Serif" font-size="10.00">CPS::DP::Ph1::VoltageSource</text>
<text text-anchor="middle" x="698.12" y="-800.75" font-family="Helvetica,sans-Serif" font-size="10.00">Norton</text>
</a>
</g>
</g>
<!-- Node2&#45;&gt;Node51 -->
<g id="edge13_Node000002_Node000051" class="edge">
<title>Node2&#45;&gt;Node51</title>
<g id="a_edge13_Node000002_Node000051"><a xlink:title=" ">
<path fill="none" stroke="#63b8ff" d="M503.71,-1184.38C515.65,-1103.95 552.2,-885.68 603.5,-837.25 609.16,-831.91 615.81,-827.61 622.91,-824.16"/>
<polygon fill="#63b8ff" stroke="#63b8ff" points="500.27,-1183.73 502.29,-1194.13 507.19,-1184.74 500.27,-1183.73"/>
</a>
</g>
</g>
<!-- Node52 -->
<g id="Node000052" class="node">
<title>Node52</title>
<g id="a_Node000052"><a xlink:href="class_c_p_s_1_1_d_p_1_1_ph1_1_1var_res_switch.html" target="_top" xlink:title="Switch with variable resistance to avoid numerical oscillations, when an inductive current is suddenl...">
<polygon fill="white" stroke="#666666" points="769.88,-774.38 626.38,-774.38 626.38,-752.12 769.88,-752.12 769.88,-774.38"/>
<text text-anchor="middle" x="698.12" y="-760.88" font-family="Helvetica,sans-Serif" font-size="10.00">CPS::DP::Ph1::varResSwitch</text>
</a>
</g>
</g>
<!-- Node2&#45;&gt;Node52 -->
<g id="edge14_Node000002_Node000052" class="edge">
<title>Node2&#45;&gt;Node52</title>
<g id="a_edge14_Node000002_Node000052"><a xlink:title=" ">
<path fill="none" stroke="#63b8ff" d="M502.58,-1184.29C512.26,-1096.02 544.99,-839.6 603.5,-783.25 609.96,-777.02 617.87,-772.53 626.32,-769.33"/>
<polygon fill="#63b8ff" stroke="#63b8ff" points="499.11,-1183.77 501.53,-1194.09 506.07,-1184.52 499.11,-1183.77"/>
</a>
</g>
</g>
<!-- Node53 -->
<g id="Node000053" class="node">
<title>Node53</title>
<g id="a_Node000053"><a xlink:href="class_c_p_s_1_1_d_p_1_1_ph3_1_1_capacitor.html" target="_top" xlink:title="Capacitor model.">
<polygon fill="white" stroke="#666666" points="761.25,-734.38 635,-734.38 635,-712.12 761.25,-712.12 761.25,-734.38"/>
<text text-anchor="middle" x="698.12" y="-720.88" font-family="Helvetica,sans-Serif" font-size="10.00">CPS::DP::Ph3::Capacitor</text>
</a>
</g>
</g>
<!-- Node2&#45;&gt;Node53 -->
<g id="edge15_Node000002_Node000053" class="edge">
<title>Node2&#45;&gt;Node53</title>
<g id="a_edge15_Node000002_Node000053"><a xlink:title=" ">
<path fill="none" stroke="#63b8ff" d="M501.7,-1184.46C509.27,-1090.57 537.5,-803.47 603.5,-743.25 612.22,-735.3 623.3,-730.22 634.77,-727.03"/>
<polygon fill="#63b8ff" stroke="#63b8ff" points="498.23,-1183.91 500.94,-1194.15 505.21,-1184.45 498.23,-1183.91"/>
</a>
</g>
</g>
<!-- Node54 -->
<g id="Node000054" class="node">
<title>Node54</title>
<g id="a_Node000054"><a xlink:href="class_c_p_s_1_1_d_p_1_1_ph3_1_1_inductor.html" target="_top" xlink:title="Inductor.">
<polygon fill="white" stroke="#666666" points="759.75,-694.38 636.5,-694.38 636.5,-672.12 759.75,-672.12 759.75,-694.38"/>
<text text-anchor="middle" x="698.12" y="-680.88" font-family="Helvetica,sans-Serif" font-size="10.00">CPS::DP::Ph3::Inductor</text>
</a>
</g>
</g>
<!-- Node2&#45;&gt;Node54 -->
<g id="edge16_Node000002_Node000054" class="edge">
<title>Node2&#45;&gt;Node54</title>
<g id="a_edge16_Node000002_Node000054"><a xlink:title=" ">
<path fill="none" stroke="#63b8ff" d="M501.08,-1184.54C507.01,-1085.43 531.36,-768.76 603.5,-703.25 612.61,-694.98 624.27,-689.82 636.25,-686.66"/>
<polygon fill="#63b8ff" stroke="#63b8ff" points="497.6,-1184.07 500.52,-1194.26 504.59,-1184.48 497.6,-1184.07"/>
</a>
</g>
</g>
<!-- Node55 -->
<g id="Node000055" class="node">
<title>Node55</title>
<g id="a_Node000055"><a xlink:href="class_c_p_s_1_1_d_p_1_1_ph3_1_1_resistor.html" target="_top" xlink:title=" ">
<polygon fill="white" stroke="#bfbfbf" points="758.25,-654.38 638,-654.38 638,-632.12 758.25,-632.12 758.25,-654.38"/>
<text text-anchor="middle" x="698.12" y="-640.88" font-family="Helvetica,sans-Serif" font-size="10.00">CPS::DP::Ph3::Resistor</text>
</a>
</g>
</g>
<!-- Node2&#45;&gt;Node55 -->
<g id="edge17_Node000002_Node000055" class="edge">
<title>Node2&#45;&gt;Node55</title>
<g id="a_edge17_Node000002_Node000055"><a xlink:title=" ">
<path fill="none" stroke="#63b8ff" d="M503.15,-1184.57C512.93,-1107.54 541.93,-895.23 584.5,-722.25 591.08,-695.5 583.06,-681.72 603.5,-663.25 613,-654.67 625.25,-649.44 637.74,-646.32"/>
<polygon fill="#63b8ff" stroke="#63b8ff" points="499.71,-1183.88 501.93,-1194.24 506.65,-1184.75 499.71,-1183.88"/>
</a>
</g>
</g>
<!-- Node56 -->
<g id="Node000056" class="node">
<title>Node56</title>
<g id="a_Node000056"><a xlink:href="class_c_p_s_1_1_d_p_1_1_ph3_1_1_series_resistor.html" target="_top" xlink:title=" ">
<polygon fill="white" stroke="#bfbfbf" points="772.5,-1871.38 623.75,-1871.38 623.75,-1849.12 772.5,-1849.12 772.5,-1871.38"/>
<text text-anchor="middle" x="698.12" y="-1857.88" font-family="Helvetica,sans-Serif" font-size="10.00">CPS::DP::Ph3::SeriesResistor</text>
</a>
</g>
</g>
<!-- Node2&#45;&gt;Node56 -->
<g id="edge18_Node000002_Node000056" class="edge">
<title>Node2&#45;&gt;Node56</title>
<g id="a_edge18_Node000002_Node000056"><a xlink:title=" ">
<path fill="none" stroke="#63b8ff" d="M499.94,-1244.05C502.24,-1356.99 516.5,-1756.47 603.5,-1840.25 609.25,-1845.78 616.13,-1849.95 623.52,-1853.06"/>
<polygon fill="#63b8ff" stroke="#63b8ff" points="503.44,-1244.32 499.76,-1234.39 496.44,-1244.45 503.44,-1244.32"/>
</a>
</g>
</g>
<!-- Node57 -->
<g id="Node000057" class="node">
<title>Node57</title>
<g id="a_Node000057"><a xlink:href="class_c_p_s_1_1_d_p_1_1_ph3_1_1_series_switch.html" target="_top" xlink:title="Dynamic phasor three&#45;phase switch.">
<polygon fill="white" stroke="#666666" points="768.38,-1831.38 627.88,-1831.38 627.88,-1809.12 768.38,-1809.12 768.38,-1831.38"/>
<text text-anchor="middle" x="698.12" y="-1817.88" font-family="Helvetica,sans-Serif" font-size="10.00">CPS::DP::Ph3::SeriesSwitch</text>
</a>
</g>
</g>
<!-- Node2&#45;&gt;Node57 -->
<g id="edge19_Node000002_Node000057" class="edge">
<title>Node2&#45;&gt;Node57</title>
<g id="a_edge19_Node000002_Node000057"><a xlink:title=" ">
<path fill="none" stroke="#63b8ff" d="M502.12,-1243.87C509.78,-1325.5 534.8,-1560.22 584.5,-1749.25 590.65,-1772.64 585.19,-1784.44 603.5,-1800.25 610.42,-1806.22 618.69,-1810.56 627.4,-1813.67"/>
<polygon fill="#63b8ff" stroke="#63b8ff" points="505.61,-1243.68 501.21,-1234.04 498.64,-1244.32 505.61,-1243.68"/>
</a>
</g>
</g>
<!-- Node58 -->
<g id="Node000058" class="node">
<title>Node58</title>
<g id="a_Node000058"><a xlink:href="class_c_p_s_1_1_d_p_1_1_ph3_1_1_synchron_generator_d_q.html" target="_top" xlink:title="Synchronous generator model in dq&#45;reference frame.">
<polygon fill="#fff0f0" stroke="red" points="792.75,-1791.38 603.5,-1791.38 603.5,-1769.12 792.75,-1769.12 792.75,-1791.38"/>
<text text-anchor="middle" x="698.12" y="-1777.88" font-family="Helvetica,sans-Serif" font-size="10.00">CPS::DP::Ph3::SynchronGeneratorDQ</text>
</a>
</g>
</g>
<!-- Node2&#45;&gt;Node58 -->
<g id="edge20_Node000002_Node000058" class="edge">
<title>Node2&#45;&gt;Node58</title>
<g id="a_edge20_Node000002_Node000058"><a xlink:title=" ">
<path fill="none" stroke="#63b8ff" d="M500.79,-1244.14C505.87,-1347.57 528.16,-1687.93 603.5,-1760.25 606.98,-1763.59 610.87,-1766.43 615.03,-1768.84"/>
<polygon fill="#63b8ff" stroke="#63b8ff" points="504.29,-1244.07 500.32,-1234.25 497.29,-1244.4 504.29,-1244.07"/>
</a>
</g>
</g>
<!-- Node61 -->
<g id="Node000061" class="node">
<title>Node61</title>
<g id="a_Node000061"><a xlink:href="class_c_p_s_1_1_d_p_1_1_ph3_1_1_voltage_source.html" target="_top" xlink:title="Ideal Voltage source model.">
<polygon fill="white" stroke="#666666" points="772.88,-1751.38 623.38,-1751.38 623.38,-1729.12 772.88,-1729.12 772.88,-1751.38"/>
<text text-anchor="middle" x="698.12" y="-1737.88" font-family="Helvetica,sans-Serif" font-size="10.00">CPS::DP::Ph3::VoltageSource</text>
</a>
</g>
</g>
<!-- Node2&#45;&gt;Node61 -->
<g id="edge21_Node000002_Node000061" class="edge">
<title>Node2&#45;&gt;Node61</title>
<g id="a_edge21_Node000002_Node000061"><a xlink:title=" ">
<path fill="none" stroke="#63b8ff" d="M503.07,-1243.92C512.33,-1317.37 539.57,-1513.15 584.5,-1671.25 590.89,-1693.72 585.72,-1705.1 603.5,-1720.25 609.32,-1725.21 616.07,-1729.03 623.23,-1731.97"/>
<polygon fill="#63b8ff" stroke="#63b8ff" points="506.59,-1243.81 501.88,-1234.32 499.64,-1244.68 506.59,-1243.81"/>
</a>
</g>
</g>
<!-- Node62 -->
<g id="Node000062" class="node">
<title>Node62</title>
<g id="a_Node000062"><a xlink:href="class_c_p_s_1_1_s_p_1_1_ph1_1_1_capacitor.html" target="_top" xlink:title=" ">
<polygon fill="white" stroke="#bfbfbf" points="760.12,-1711.38 636.12,-1711.38 636.12,-1689.12 760.12,-1689.12 760.12,-1711.38"/>
<text text-anchor="middle" x="698.12" y="-1697.88" font-family="Helvetica,sans-Serif" font-size="10.00">CPS::SP::Ph1::Capacitor</text>
</a>
</g>
</g>
<!-- Node2&#45;&gt;Node62 -->
<g id="edge22_Node000002_Node000062" class="edge">
<title>Node2&#45;&gt;Node62</title>
<g id="a_edge22_Node000002_Node000062"><a xlink:title=" ">
<path fill="none" stroke="#63b8ff" d="M501.63,-1244.17C508.95,-1337.86 536.44,-1622.72 603.5,-1680.25 612.58,-1688.04 623.96,-1693.03 635.63,-1696.18"/>
<polygon fill="#63b8ff" stroke="#63b8ff" points="505.12,-1243.97 500.88,-1234.26 498.14,-1244.49 505.12,-1243.97"/>
</a>
</g>
</g>
<!-- Node63 -->
<g id="Node000063" class="node">
<title>Node63</title>
<g id="a_Node000063"><a xlink:href="class_c_p_s_1_1_s_p_1_1_ph1_1_1_inductor.html" target="_top" xlink:title="Static phasor inductor model.">
<polygon fill="white" stroke="#666666" points="758.62,-1671.38 637.62,-1671.38 637.62,-1649.12 758.62,-1649.12 758.62,-1671.38"/>
<text text-anchor="middle" x="698.12" y="-1657.88" font-family="Helvetica,sans-Serif" font-size="10.00">CPS::SP::Ph1::Inductor</text>
</a>
</g>
</g>
<!-- Node2&#45;&gt;Node63 -->
<g id="edge23_Node000002_Node000063" class="edge">
<title>Node2&#45;&gt;Node63</title>
<g id="a_edge23_Node000002_Node000063"><a xlink:title=" ">
<path fill="none" stroke="#63b8ff" d="M502.33,-1244.19C511.33,-1332.36 542.34,-1588.14 603.5,-1640.25 612.99,-1648.33 624.95,-1653.4 637.13,-1656.52"/>
<polygon fill="#63b8ff" stroke="#63b8ff" points="505.83,-1244.01 501.36,-1234.41 498.87,-1244.71 505.83,-1244.01"/>
</a>
</g>
</g>
<!-- Node64 -->
<g id="Node000064" class="node">
<title>Node64</title>
<g id="a_Node000064"><a xlink:href="class_c_p_s_1_1_s_p_1_1_ph1_1_1_resistor.html" target="_top" xlink:title="Static phasor resistor model.">
<polygon fill="white" stroke="#666666" points="757.12,-1631.38 639.12,-1631.38 639.12,-1609.12 757.12,-1609.12 757.12,-1631.38"/>
<text text-anchor="middle" x="698.12" y="-1617.88" font-family="Helvetica,sans-Serif" font-size="10.00">CPS::SP::Ph1::Resistor</text>
</a>
</g>
</g>
<!-- Node2&#45;&gt;Node64 -->
<g id="edge24_Node000002_Node000064" class="edge">
<title>Node2&#45;&gt;Node64</title>
<g id="a_edge24_Node000002_Node000064"><a xlink:title=" ">
<path fill="none" stroke="#63b8ff" d="M503.15,-1243.75C513.91,-1325.71 548.3,-1553.21 603.5,-1600.25 613.49,-1608.77 626.24,-1613.93 639.08,-1617"/>
<polygon fill="#63b8ff" stroke="#63b8ff" points="506.65,-1243.51 501.9,-1234.04 499.7,-1244.41 506.65,-1243.51"/>
</a>
</g>
</g>
<!-- Node65 -->
<g id="Node000065" class="node">
<title>Node65</title>
<g id="a_Node000065"><a xlink:href="class_c_p_s_1_1_s_p_1_1_ph1_1_1_switch.html" target="_top" xlink:title="Dynamic phasor switch.">
<polygon fill="white" stroke="#666666" points="753,-1591.38 643.25,-1591.38 643.25,-1569.12 753,-1569.12 753,-1591.38"/>
<text text-anchor="middle" x="698.12" y="-1577.88" font-family="Helvetica,sans-Serif" font-size="10.00">CPS::SP::Ph1::Switch</text>
</a>
</g>
</g>
<!-- Node2&#45;&gt;Node65 -->
<g id="edge25_Node000002_Node000065" class="edge">
<title>Node2&#45;&gt;Node65</title>
<g id="a_edge25_Node000002_Node000065"><a xlink:title=" ">
<path fill="none" stroke="#63b8ff" d="M504.14,-1244.02C516.65,-1320.24 553.55,-1519.29 603.5,-1560.25 614.68,-1569.42 629.08,-1574.67 643.21,-1577.6"/>
<polygon fill="#63b8ff" stroke="#63b8ff" points="507.63,-1243.7 502.58,-1234.38 500.72,-1244.81 507.63,-1243.7"/>
</a>
</g>
</g>
<!-- Node66 -->
<g id="Node000066" class="node">
<title>Node66</title>
<g id="a_Node000066"><a xlink:href="class_c_p_s_1_1_s_p_1_1_ph1_1_1_voltage_source.html" target="_top" xlink:title="Ideal Voltage source model.">
<polygon fill="white" stroke="#666666" points="771.75,-1551.38 624.5,-1551.38 624.5,-1529.12 771.75,-1529.12 771.75,-1551.38"/>
<text text-anchor="middle" x="698.12" y="-1537.88" font-family="Helvetica,sans-Serif" font-size="10.00">CPS::SP::Ph1::VoltageSource</text>
</a>
</g>
</g>
<!-- Node2&#45;&gt;Node66 -->
<g id="edge26_Node000002_Node000066" class="edge">
<title>Node2&#45;&gt;Node66</title>
<g id="a_edge26_Node000002_Node000066"><a xlink:title=" ">
<path fill="none" stroke="#63b8ff" d="M499.85,-1244.08C502.33,-1306.4 517.58,-1450.4 603.5,-1520.25 609.69,-1525.28 616.85,-1529.13 624.4,-1532.06"/>
<polygon fill="#63b8ff" stroke="#63b8ff" points="503.35,-1244.15 499.55,-1234.27 496.35,-1244.37 503.35,-1244.15"/>
</a>
</g>
</g>
<!-- Node67 -->
<g id="Node000067" class="node">
<title>Node67</title>
<g id="a_Node000067"><a xlink:href="class_c_p_s_1_1_s_p_1_1_ph1_1_1var_res_switch.html" target="_top" xlink:title="Switch with variable resistance to avoid numerical oscillations, when an inductive current is suddenl...">
<polygon fill="white" stroke="#666666" points="768.75,-1511.38 627.5,-1511.38 627.5,-1489.12 768.75,-1489.12 768.75,-1511.38"/>
<text text-anchor="middle" x="698.12" y="-1497.88" font-family="Helvetica,sans-Serif" font-size="10.00">CPS::SP::Ph1::varResSwitch</text>
</a>
</g>
</g>
<!-- Node2&#45;&gt;Node67 -->
<g id="edge27_Node000002_Node000067" class="edge">
<title>Node2&#45;&gt;Node67</title>
<g id="a_edge27_Node000002_Node000067"><a xlink:title=" ">
<path fill="none" stroke="#63b8ff" d="M501.86,-1244.22C507.98,-1300.12 529.48,-1420.08 603.5,-1480.25 610.46,-1485.91 618.66,-1490.07 627.25,-1493.12"/>
<polygon fill="#63b8ff" stroke="#63b8ff" points="505.37,-1244.11 500.9,-1234.5 498.4,-1244.8 505.37,-1244.11"/>
</a>
</g>
</g>
<!-- Node68 -->
<g id="Node000068" class="node">
<title>Node68</title>
<g id="a_Node000068"><a xlink:href="class_c_p_s_1_1_s_p_1_1_ph3_1_1_capacitor.html" target="_top" xlink:title="Capacitor model.">
<polygon fill="white" stroke="#666666" points="760.12,-1471.38 636.12,-1471.38 636.12,-1449.12 760.12,-1449.12 760.12,-1471.38"/>
<text text-anchor="middle" x="698.12" y="-1457.88" font-family="Helvetica,sans-Serif" font-size="10.00">CPS::SP::Ph3::Capacitor</text>
</a>
</g>
</g>
<!-- Node2&#45;&gt;Node68 -->
<g id="edge28_Node000002_Node000068" class="edge">
<title>Node2&#45;&gt;Node68</title>
<g id="a_edge28_Node000002_Node000068"><a xlink:title=" ">
<path fill="none" stroke="#63b8ff" d="M504.41,-1243.96C514.13,-1292.86 540.57,-1389.88 603.5,-1440.25 612.84,-1447.73 624.34,-1452.58 636.03,-1455.7"/>
<polygon fill="#63b8ff" stroke="#63b8ff" points="507.9,-1243.57 502.62,-1234.39 501.02,-1244.86 507.9,-1243.57"/>
</a>
</g>
</g>
<!-- Node69 -->
<g id="Node000069" class="node">
<title>Node69</title>
<g id="a_Node000069"><a xlink:href="class_c_p_s_1_1_s_p_1_1_ph3_1_1_inductor.html" target="_top" xlink:title="Inductor.">
<polygon fill="white" stroke="#666666" points="758.62,-1431.38 637.62,-1431.38 637.62,-1409.12 758.62,-1409.12 758.62,-1431.38"/>
<text text-anchor="middle" x="698.12" y="-1417.88" font-family="Helvetica,sans-Serif" font-size="10.00">CPS::SP::Ph3::Inductor</text>
</a>
</g>
</g>
<!-- Node2&#45;&gt;Node69 -->
<g id="edge29_Node000002_Node000069" class="edge">
<title>Node2&#45;&gt;Node69</title>
<g id="a_edge29_Node000002_Node000069"><a xlink:title=" ">
<path fill="none" stroke="#63b8ff" d="M507.47,-1243.51C520.4,-1285.14 550.03,-1360.79 603.5,-1400.25 613.4,-1407.55 625.4,-1412.3 637.45,-1415.37"/>
<polygon fill="#63b8ff" stroke="#63b8ff" points="510.9,-1242.76 504.69,-1234.18 504.19,-1244.76 510.9,-1242.76"/>
</a>
</g>
</g>
<!-- Node70 -->
<g id="Node000070" class="node">
<title>Node70</title>
<g id="a_Node000070"><a xlink:href="class_c_p_s_1_1_s_p_1_1_ph3_1_1_resistor.html" target="_top" xlink:title=" ">
<polygon fill="white" stroke="#bfbfbf" points="757.12,-1391.38 639.12,-1391.38 639.12,-1369.12 757.12,-1369.12 757.12,-1391.38"/>
<text text-anchor="middle" x="698.12" y="-1377.88" font-family="Helvetica,sans-Serif" font-size="10.00">CPS::SP::Ph3::Resistor</text>
</a>
</g>
</g>
<!-- Node2&#45;&gt;Node70 -->
<g id="edge30_Node000002_Node000070" class="edge">
<title>Node2&#45;&gt;Node70</title>
<g id="a_edge30_Node000002_Node000070"><a xlink:title=" ">
<path fill="none" stroke="#63b8ff" d="M511.96,-1242.99C528.06,-1276.58 559.37,-1331.27 603.5,-1360.25 614.06,-1367.18 626.6,-1371.76 639.01,-1374.78"/>
<polygon fill="#63b8ff" stroke="#63b8ff" points="515.29,-1241.85 507.9,-1234.26 508.94,-1244.8 515.29,-1241.85"/>
</a>
</g>
</g>
<!-- Node71 -->
<g id="Node000071" class="node">
<title>Node71</title>
<g id="a_Node000071"><a xlink:href="class_c_p_s_1_1_s_p_1_1_ph3_1_1_voltage_source.html" target="_top" xlink:title="Ideal Voltage source model.">
<polygon fill="white" stroke="#666666" points="771.75,-1351.38 624.5,-1351.38 624.5,-1329.12 771.75,-1329.12 771.75,-1351.38"/>
<text text-anchor="middle" x="698.12" y="-1337.88" font-family="Helvetica,sans-Serif" font-size="10.00">CPS::SP::Ph3::VoltageSource</text>
</a>
</g>
</g>
<!-- Node2&#45;&gt;Node71 -->
<g id="edge31_Node000002_Node000071" class="edge">
<title>Node2&#45;&gt;Node71</title>
<g id="a_edge31_Node000002_Node000071"><a xlink:title=" ">
<path fill="none" stroke="#63b8ff" d="M519.12,-1241.98C537.95,-1266.43 568.6,-1301.06 603.5,-1320.25 609.91,-1323.77 616.88,-1326.68 624.03,-1329.07"/>
<polygon fill="#63b8ff" stroke="#63b8ff" points="521.98,-1239.95 513.18,-1234.05 516.38,-1244.15 521.98,-1239.95"/>
</a>
</g>
</g>
<!-- Node73 -->
<g id="Node000073" class="node">
<title>Node73</title>
<g id="a_Node000073"><a xlink:href="class_c_p_s_1_1_base_1_1_reduced_order_synchron_generator.html" target="_top" xlink:title=" ">
<polygon fill="white" stroke="orangered" points="787.5,-519.5 608.75,-519.5 608.75,-483 787.5,-483 787.5,-519.5"/>
<text text-anchor="start" x="616.75" y="-506" font-family="Helvetica,sans-Serif" font-size="10.00">CPS::Base::ReducedOrderSynchron</text>
<text text-anchor="middle" x="698.12" y="-491.75" font-family="Helvetica,sans-Serif" font-size="10.00">Generator&lt; Real &gt;</text>
</a>
</g>
</g>
<!-- Node72&#45;&gt;Node73 -->
<g id="edge33_Node000072_Node000073" class="edge">
<title>Node72&#45;&gt;Node73</title>
<g id="a_edge33_Node000072_Node000073"><a xlink:title=" ">
<path fill="none" stroke="#63b8ff" d="M514.52,-367.82C531.95,-398.29 563.51,-445.85 603.5,-473.25 608.68,-476.8 614.32,-479.91 620.17,-482.63"/>
<polygon fill="#63b8ff" stroke="#63b8ff" points="517.6,-366.18 509.68,-359.14 511.49,-369.58 517.6,-366.18"/>
</a>
</g>
</g>
<!-- Node81 -->
<g id="Node000081" class="node">
<title>Node81</title>
<g id="a_Node000081"><a xlink:href="class_c_p_s_1_1_composite_power_comp.html" target="_top" xlink:title=" ">
<polygon fill="white" stroke="orangered" points="771,-464.5 625.25,-464.5 625.25,-428 771,-428 771,-464.5"/>
<text text-anchor="start" x="633.25" y="-451" font-family="Helvetica,sans-Serif" font-size="10.00">CPS::CompositePowerComp</text>
<text text-anchor="middle" x="698.12" y="-436.75" font-family="Helvetica,sans-Serif" font-size="10.00">&lt; Real &gt;</text>
</a>
</g>
</g>
<!-- Node72&#45;&gt;Node81 -->
<g id="edge34_Node000072_Node000081" class="edge">
<title>Node72&#45;&gt;Node81</title>
<g id="a_edge34_Node000072_Node000081"><a xlink:title=" ">
<path fill="none" stroke="#63b8ff" d="M527.59,-365.57C547.47,-382.96 575.47,-405.07 603.5,-419.25 610.29,-422.69 617.59,-425.75 625.01,-428.46"/>
<polygon fill="#63b8ff" stroke="#63b8ff" points="529.98,-363.02 520.19,-358.97 525.32,-368.24 529.98,-363.02"/>
</a>
</g>
</g>
<!-- Node92 -->
<g id="Node000092" class="node">
<title>Node92</title>
<g id="a_Node000092"><a xlink:href="class_c_p_s_1_1_e_m_t_1_1_ph1_1_1_capacitor.html" target="_top" xlink:title="Capacitor model.">
<polygon fill="white" stroke="#666666" points="764.25,-410.38 632,-410.38 632,-388.12 764.25,-388.12 764.25,-410.38"/>
<text text-anchor="middle" x="698.12" y="-396.88" font-family="Helvetica,sans-Serif" font-size="10.00">CPS::EMT::Ph1::Capacitor</text>
</a>
</g>
</g>
<!-- Node72&#45;&gt;Node92 -->
<g id="edge35_Node000072_Node000092" class="edge">
<title>Node72&#45;&gt;Node92</title>
<g id="a_edge35_Node000072_Node000092"><a xlink:title=" ">
<path fill="none" stroke="#63b8ff" d="M554.13,-362.11C569.89,-368.2 587.23,-374.42 603.5,-379.25 613.94,-382.35 625.16,-385.17 636.09,-387.66"/>
<polygon fill="#63b8ff" stroke="#63b8ff" points="555.5,-358.89 544.92,-358.49 552.94,-365.4 555.5,-358.89"/>
</a>
</g>
</g>
<!-- Node93 -->
<g id="Node000093" class="node">
<title>Node93</title>
<g id="a_Node000093"><a xlink:href="class_c_p_s_1_1_e_m_t_1_1_ph1_1_1_current_source.html" target="_top" xlink:title="Ideal current source model.">
<polygon fill="white" stroke="#666666" points="776.25,-370.38 620,-370.38 620,-348.12 776.25,-348.12 776.25,-370.38"/>
<text text-anchor="middle" x="698.12" y="-356.88" font-family="Helvetica,sans-Serif" font-size="10.00">CPS::EMT::Ph1::CurrentSource</text>
</a>
</g>
</g>
<!-- Node72&#45;&gt;Node93 -->
<g id="edge36_Node000072_Node000093" class="edge">
<title>Node72&#45;&gt;Node93</title>
<g id="a_edge36_Node000072_Node000093"><a xlink:title=" ">
<path fill="none" stroke="#63b8ff" d="M578.29,-347.22C591.95,-348.61 606.15,-350.04 619.77,-351.42"/>
<polygon fill="#63b8ff" stroke="#63b8ff" points="578.77,-343.75 568.46,-346.23 578.06,-350.72 578.77,-343.75"/>
</a>
</g>
</g>
<!-- Node94 -->
<g id="Node000094" class="node">
<title>Node94</title>
<g id="a_Node000094"><a xlink:href="class_c_p_s_1_1_e_m_t_1_1_ph1_1_1_inductor.html" target="_top" xlink:title="Inductor.">
<polygon fill="white" stroke="#666666" points="762.75,-330.38 633.5,-330.38 633.5,-308.12 762.75,-308.12 762.75,-330.38"/>
<text text-anchor="middle" x="698.12" y="-316.88" font-family="Helvetica,sans-Serif" font-size="10.00">CPS::EMT::Ph1::Inductor</text>
</a>
</g>
</g>
<!-- Node72&#45;&gt;Node94 -->
<g id="edge37_Node000072_Node000094" class="edge">
<title>Node72&#45;&gt;Node94</title>
<g id="a_edge37_Node000072_Node000094"><a xlink:title=" ">
<path fill="none" stroke="#63b8ff" d="M578.2,-331.29C596.49,-329.43 615.74,-327.49 633.3,-325.71"/>
<polygon fill="#63b8ff" stroke="#63b8ff" points="578.06,-327.78 568.46,-332.27 578.77,-334.75 578.06,-327.78"/>
</a>
</g>
</g>
<!-- Node95 -->
<g id="Node000095" class="node">
<title>Node95</title>
<g id="a_Node000095"><a xlink:href="class_c_p_s_1_1_e_m_t_1_1_ph1_1_1_resistor.html" target="_top" xlink:title="EMT Resistor.">
<polygon fill="white" stroke="#666666" points="761.25,-290.38 635,-290.38 635,-268.12 761.25,-268.12 761.25,-290.38"/>
<text text-anchor="middle" x="698.12" y="-276.88" font-family="Helvetica,sans-Serif" font-size="10.00">CPS::EMT::Ph1::Resistor</text>
</a>
</g>
</g>
<!-- Node72&#45;&gt;Node95 -->
<g id="edge38_Node000072_Node000095" class="edge">
<title>Node72&#45;&gt;Node95</title>
<g id="a_edge38_Node000072_Node000095"><a xlink:title=" ">
<path fill="none" stroke="#63b8ff" d="M554.13,-316.39C569.89,-310.3 587.23,-304.08 603.5,-299.25 613.94,-296.15 625.16,-293.33 636.09,-290.84"/>
<polygon fill="#63b8ff" stroke="#63b8ff" points="552.94,-313.1 544.92,-320.01 555.5,-319.61 552.94,-313.1"/>
</a>
</g>
</g>
<!-- Node96 -->
<g id="Node000096" class="node">
<title>Node96</title>
<g id="a_Node000096"><a xlink:href="class_c_p_s_1_1_e_m_t_1_1_ph1_1_1_s_s_n_1_1_full___serial___r_l_c.html" target="_top" xlink:title="Full_Serial_RLC.">
<polygon fill="white" stroke="#666666" points="751.5,-250.5 644.75,-250.5 644.75,-214 751.5,-214 751.5,-250.5"/>
<text text-anchor="start" x="652.75" y="-237" font-family="Helvetica,sans-Serif" font-size="10.00">CPS::EMT::Ph1::SSN</text>
<text text-anchor="middle" x="698.12" y="-222.75" font-family="Helvetica,sans-Serif" font-size="10.00">::Full_Serial_RLC</text>
</a>
</g>
</g>
<!-- Node72&#45;&gt;Node96 -->
<g id="edge39_Node000072_Node000096" class="edge">
<title>Node72&#45;&gt;Node96</title>
<g id="a_edge39_Node000072_Node000096"><a xlink:title=" ">
<path fill="none" stroke="#63b8ff" d="M527.59,-312.93C547.47,-295.54 575.47,-273.43 603.5,-259.25 616.18,-252.84 630.62,-247.73 644.3,-243.75"/>
<polygon fill="#63b8ff" stroke="#63b8ff" points="525.32,-310.26 520.19,-319.53 529.98,-315.48 525.32,-310.26"/>
</a>
</g>
</g>
<!-- Node97 -->
<g id="Node000097" class="node">
<title>Node97</title>
<g id="a_Node000097"><a xlink:href="class_c_p_s_1_1_e_m_t_1_1_ph1_1_1_s_s_n_type_i2_t.html" target="_top" xlink:title="SSNTypeI2T Model for a one phase, two terminal I&#45;type SSN component which can be represented using a ...">
<polygon fill="white" stroke="#666666" points="770.25,-196.38 626,-196.38 626,-174.12 770.25,-174.12 770.25,-196.38"/>
<text text-anchor="middle" x="698.12" y="-182.88" font-family="Helvetica,sans-Serif" font-size="10.00">CPS::EMT::Ph1::SSNTypeI2T</text>
</a>
</g>
</g>
<!-- Node72&#45;&gt;Node97 -->
<g id="edge40_Node000072_Node000097" class="edge">
<title>Node72&#45;&gt;Node97</title>
<g id="a_edge40_Node000072_Node000097"><a xlink:title=" ">
<path fill="none" stroke="#63b8ff" d="M513.61,-310.97C530.58,-279.99 562.05,-231.28 603.5,-205.25 610.26,-201.01 617.77,-197.65 625.52,-195"/>
<polygon fill="#63b8ff" stroke="#63b8ff" points="510.73,-308.92 509.13,-319.39 516.91,-312.21 510.73,-308.92"/>
</a>
</g>
</g>
<!-- Node98 -->
<g id="Node000098" class="node">
<title>Node98</title>
<g id="a_Node000098"><a xlink:href="class_c_p_s_1_1_e_m_t_1_1_ph1_1_1_s_s_n_type_v2_t.html" target="_top" xlink:title="SSNTypeV2T Model for a one phase, two terminal V&#45;type SSN component which can be represented using a ...">
<polygon fill="white" stroke="#666666" points="771.38,-156.38 624.88,-156.38 624.88,-134.12 771.38,-134.12 771.38,-156.38"/>
<text text-anchor="middle" x="698.12" y="-142.88" font-family="Helvetica,sans-Serif" font-size="10.00">CPS::EMT::Ph1::SSNTypeV2T</text>
</a>
</g>
</g>
<!-- Node72&#45;&gt;Node98 -->
<g id="edge41_Node000072_Node000098" class="edge">
<title>Node72&#45;&gt;Node98</title>
<g id="a_edge41_Node000072_Node000098"><a xlink:title=" ">
<path fill="none" stroke="#63b8ff" d="M508.73,-309.84C522.67,-270.47 552.97,-201.42 603.5,-165.25 609.85,-160.7 617.03,-157.15 624.51,-154.38"/>
<polygon fill="#63b8ff" stroke="#63b8ff" points="505.47,-308.54 505.56,-319.14 512.1,-310.8 505.47,-308.54"/>
</a>
</g>
</g>
<!-- Node99 -->
<g id="Node000099" class="node">
<title>Node99</title>
<g id="a_Node000099"><a xlink:href="class_c_p_s_1_1_e_m_t_1_1_ph1_1_1_switch.html" target="_top" xlink:title="One phase EMT switch.">
<polygon fill="white" stroke="#666666" points="757.12,-116.38 639.12,-116.38 639.12,-94.12 757.12,-94.12 757.12,-116.38"/>
<text text-anchor="middle" x="698.12" y="-102.88" font-family="Helvetica,sans-Serif" font-size="10.00">CPS::EMT::Ph1::Switch</text>
</a>
</g>
</g>
<!-- Node72&#45;&gt;Node99 -->
<g id="edge42_Node000072_Node000099" class="edge">
<title>Node72&#45;&gt;Node99</title>
<g id="a_edge42_Node000072_Node000099"><a xlink:title=" ">
<path fill="none" stroke="#63b8ff" d="M505.28,-309.45C515.98,-262.6 543.52,-172.23 603.5,-125.25 613.71,-117.26 626.38,-112.28 639.08,-109.22"/>
<polygon fill="#63b8ff" stroke="#63b8ff" points="501.87,-308.64 503.17,-319.16 508.71,-310.13 501.87,-308.64"/>
</a>
</g>
</g>
<!-- Node100 -->
<g id="Node000100" class="node">
<title>Node100</title>
<g id="a_Node000100"><a xlink:href="class_c_p_s_1_1_e_m_t_1_1_ph1_1_1_voltage_source.html" target="_top" xlink:title="Ideal Voltage source model.">
<polygon fill="white" stroke="#666666" points="775.88,-76.38 620.38,-76.38 620.38,-54.12 775.88,-54.12 775.88,-76.38"/>
<text text-anchor="middle" x="698.12" y="-62.88" font-family="Helvetica,sans-Serif" font-size="10.00">CPS::EMT::Ph1::VoltageSource</text>
</a>
</g>
</g>
<!-- Node72&#45;&gt;Node100 -->
<g id="edge43_Node000072_Node000100" class="edge">
<title>Node72&#45;&gt;Node100</title>
<g id="a_edge43_Node000072_Node000100"><a xlink:title=" ">
<path fill="none" stroke="#63b8ff" d="M502.75,-309.44C510.24,-255.87 533.8,-143.52 603.5,-85.25 608.47,-81.09 614.1,-77.74 620.08,-75.04"/>
<polygon fill="#63b8ff" stroke="#63b8ff" points="499.28,-308.96 501.47,-319.33 506.22,-309.86 499.28,-308.96"/>
</a>
</g>
</g>
<!-- Node101 -->
<g id="Node000101" class="node">
<title>Node101</title>
<g id="a_Node000101"><a xlink:href="class_c_p_s_1_1_e_m_t_1_1_ph1_1_1_voltage_source_norton.html" target="_top" xlink:title="Voltage source as Norton equivalent.">
<polygon fill="white" stroke="#666666" points="775.88,-36.5 620.38,-36.5 620.38,0 775.88,0 775.88,-36.5"/>
<text text-anchor="start" x="628.38" y="-23" font-family="Helvetica,sans-Serif" font-size="10.00">CPS::EMT::Ph1::VoltageSource</text>
<text text-anchor="middle" x="698.12" y="-8.75" font-family="Helvetica,sans-Serif" font-size="10.00">Norton</text>
</a>
</g>
</g>
<!-- Node72&#45;&gt;Node101 -->
<g id="edge44_Node000072_Node000101" class="edge">
<title>Node72&#45;&gt;Node101</title>
<g id="a_edge44_Node000072_Node000101"><a xlink:title=" ">
<path fill="none" stroke="#63b8ff" d="M501.31,-309.52C506.53,-250.42 526.64,-117.68 603.5,-45.25 608.42,-40.61 614.1,-36.76 620.16,-33.57"/>
<polygon fill="#63b8ff" stroke="#63b8ff" points="497.85,-308.88 500.55,-319.13 504.83,-309.44 497.85,-308.88"/>
</a>
</g>
</g>
<!-- Node102 -->
<g id="Node000102" class="node">
<title>Node102</title>
<g id="a_Node000102"><a xlink:href="class_c_p_s_1_1_e_m_t_1_1_ph3_1_1_capacitor.html" target="_top" xlink:title="Capacitor model.">
<polygon fill="white" stroke="#666666" points="764.25,-614.38 632,-614.38 632,-592.12 764.25,-592.12 764.25,-614.38"/>
<text text-anchor="middle" x="698.12" y="-600.88" font-family="Helvetica,sans-Serif" font-size="10.00">CPS::EMT::Ph3::Capacitor</text>
</a>
</g>
</g>
<!-- Node72&#45;&gt;Node102 -->
<g id="edge45_Node000072_Node000102" class="edge">
<title>Node72&#45;&gt;Node102</title>
<g id="a_edge45_Node000072_Node000102"><a xlink:title=" ">
<path fill="none" stroke="#63b8ff" d="M503.31,-369.06C511.59,-421 536.24,-527.83 603.5,-583.25 611.71,-590.01 621.67,-594.65 631.98,-597.79"/>
<polygon fill="#63b8ff" stroke="#63b8ff" points="506.81,-368.84 501.88,-359.47 499.89,-369.87 506.81,-368.84"/>
</a>
</g>
</g>
<!-- Node103 -->
<g id="Node000103" class="node">
<title>Node103</title>
<g id="a_Node000103"><a xlink:href="class_c_p_s_1_1_e_m_t_1_1_ph3_1_1_controlled_current_source.html" target="_top" xlink:title="Ideal current source model.">
<polygon fill="white" stroke="#666666" points="766.5,-574.5 629.75,-574.5 629.75,-538 766.5,-538 766.5,-574.5"/>
<text text-anchor="start" x="637.75" y="-561" font-family="Helvetica,sans-Serif" font-size="10.00">CPS::EMT::Ph3::Controlled</text>
<text text-anchor="middle" x="698.12" y="-546.75" font-family="Helvetica,sans-Serif" font-size="10.00">CurrentSource</text>
</a>
</g>
</g>
<!-- Node72&#45;&gt;Node103 -->
<g id="edge46_Node000072_Node000103" class="edge">
<title>Node72&#45;&gt;Node103</title>
<g id="a_edge46_Node000072_Node000103"><a xlink:title=" ">
<path fill="none" stroke="#63b8ff" d="M507.87,-368.72C521.22,-410.38 551.29,-486.1 603.5,-528.25 611.16,-534.43 620.15,-539.25 629.48,-543"/>
<polygon fill="#63b8ff" stroke="#63b8ff" points="511.28,-367.9 504.99,-359.38 504.59,-369.96 511.28,-367.9"/>
</a>
</g>
</g>
<!-- Node135&#45;&gt;Node2 -->
<g id="edge49_Node000135_Node000002" class="edge">
<title>Node135&#45;&gt;Node2</title>
<g id="a_edge49_Node000135_Node000002"><a xlink:title=" ">
<path fill="none" stroke="orange" stroke-dasharray="5,2" d="M318.98,-972.99C351.07,-977.75 386.64,-988.14 412.5,-1010 470.87,-1059.34 489.86,-1155.39 495.42,-1195.72"/>
<polygon fill="orange" stroke="orange" points="319.67,-969.55 309.3,-971.73 318.77,-976.49 319.67,-969.55"/>
</a>
</g>
<text text-anchor="middle" x="383.25" y="-1014.75" font-family="Helvetica,sans-Serif" font-size="10.00" fill="grey"> &lt; Complex &gt;</text>
</g>
<!-- Node135&#45;&gt;Node72 -->
<g id="edge50_Node000135_Node000072" class="edge">
<title>Node135&#45;&gt;Node72</title>
<g id="a_edge50_Node000135_Node000072"><a xlink:title=" ">
<path fill="none" stroke="orange" stroke-dasharray="5,2" d="M317.63,-955.83C324.33,-952.47 330.61,-948.33 336,-943.25 425.55,-858.84 483.17,-450.1 495.16,-357.8"/>
<polygon fill="orange" stroke="orange" points="316.69,-952.42 308.92,-959.63 319.49,-958.84 316.69,-952.42"/>
</a>
</g>
<text text-anchor="middle" x="383.25" y="-917.66" font-family="Helvetica,sans-Serif" font-size="10.00" fill="grey"> &lt; Real &gt;</text>
</g>
</g>
</svg>
