<?xml version="1.0" encoding="UTF-8" standalone="no"?>
<!DOCTYPE svg PUBLIC "-//W3C//DTD SVG 1.1//EN"
 "http://www.w3.org/Graphics/SVG/1.1/DTD/svg11.dtd">
<!-- Generated by graphviz version 12.2.1 (20241206.2353)
 -->
<!-- Title: CPS::EMT::VTypeVariableSSNComp Pages: 1 -->
<svg width="1821pt" height="178pt"
 viewBox="0.00 0.00 1821.25 178.38" xmlns="http://www.w3.org/2000/svg" xmlns:xlink="http://www.w3.org/1999/xlink">
<g id="graph0" class="graph" transform="scale(1 1) rotate(0) translate(4 174.38)">
<title>CPS::EMT::VTypeVariableSSNComp</title>
<!-- Node1 -->
<g id="Node000001" class="node">
<title>Node1</title>
<g id="a_Node000001"><a xlink:title="Abstract base class for variable EMT V&#45;type SSN components.">
<polygon fill="#999999" stroke="#666666" points="1441.75,-97.38 1266,-97.38 1266,-75.12 1441.75,-75.12 1441.75,-97.38"/>
<text text-anchor="middle" x="1353.88" y="-83.88" font-family="Helvetica,sans-Serif" font-size="10.00">CPS::EMT::VTypeVariableSSNComp</text>
</a>
</g>
</g>
<!-- Node13 -->
<g id="Node000013" class="node">
<title>Node13</title>
<g id="a_Node000013"><a xlink:href="class_c_p_s_1_1_e_m_t_1_1_ph3_1_1_two_terminal_v_type_variable_s_s_n_comp.html" target="_top" xlink:title="Abstract base class for three&#45;phase, two&#45;terminal, variable V&#45;type SSN components.">
<polygon fill="white" stroke="#666666" points="1626,-104.5 1478.75,-104.5 1478.75,-68 1626,-68 1626,-104.5"/>
<text text-anchor="start" x="1486.75" y="-91" font-family="Helvetica,sans-Serif" font-size="10.00">CPS::EMT::Ph3::TwoTerminal</text>
<text text-anchor="middle" x="1552.38" y="-76.75" font-family="Helvetica,sans-Serif" font-size="10.00">VTypeVariableSSNComp</text>
</a>
</g>
</g>
<!-- Node1&#45;&gt;Node13 -->
<g id="edge15_Node000001_Node000013" class="edge">
<title>Node1&#45;&gt;Node13</title>
<g id="a_edge15_Node000001_Node000013"><a xlink:title=" ">
<path fill="none" stroke="#63b8ff" d="M1453.59,-86.25C1461.95,-86.25 1470.31,-86.25 1478.42,-86.25"/>
<polygon fill="#63b8ff" stroke="#63b8ff" points="1453.72,-82.75 1443.72,-86.25 1453.72,-89.75 1453.72,-82.75"/>
</a>
</g>
</g>
<!-- Node2 -->
<g id="Node000002" class="node">
<title>Node2</title>
<g id="a_Node000002"><a xlink:href="class_c_p_s_1_1_e_m_t_1_1_v_type_s_s_n_comp.html" target="_top" xlink:title="Abstract base class for EMT V&#45;type SSN components.">
<polygon fill="white" stroke="#666666" points="1213.25,-125.38 1075,-125.38 1075,-103.12 1213.25,-103.12 1213.25,-125.38"/>
<text text-anchor="middle" x="1144.12" y="-111.88" font-family="Helvetica,sans-Serif" font-size="10.00">CPS::EMT::VTypeSSNComp</text>
</a>
</g>
</g>
<!-- Node2&#45;&gt;Node1 -->
<g id="edge1_Node000001_Node000002" class="edge">
<title>Node2&#45;&gt;Node1</title>
<g id="a_edge1_Node000001_Node000002"><a xlink:title=" ">
<path fill="none" stroke="#63b8ff" d="M1225.08,-103.47C1238.78,-101.63 1253.08,-99.7 1266.93,-97.83"/>
<polygon fill="#63b8ff" stroke="#63b8ff" points="1224.67,-100 1215.23,-104.8 1225.6,-106.93 1224.67,-100"/>
</a>
</g>
</g>
<!-- Node3 -->
<g id="Node000003" class="node">
<title>Node3</title>
<g id="a_Node000003"><a xlink:href="class_c_p_s_1_1_e_m_t_1_1_s_s_n_comp.html" target="_top" xlink:title="Abstract base class for EMT state&#45;space nodal (SSN) components.">
<polygon fill="white" stroke="#666666" points="1022.25,-125.38 912.5,-125.38 912.5,-103.12 1022.25,-103.12 1022.25,-125.38"/>
<text text-anchor="middle" x="967.38" y="-111.88" font-family="Helvetica,sans-Serif" font-size="10.00">CPS::EMT::SSNComp</text>
</a>
</g>
</g>
<!-- Node3&#45;&gt;Node2 -->
<g id="edge2_Node000002_Node000003" class="edge">
<title>Node3&#45;&gt;Node2</title>
<g id="a_edge2_Node000002_Node000003"><a xlink:title=" ">
<path fill="none" stroke="#63b8ff" d="M1034.13,-114.25C1047.36,-114.25 1061.3,-114.25 1074.63,-114.25"/>
<polygon fill="#63b8ff" stroke="#63b8ff" points="1034.22,-110.75 1024.22,-114.25 1034.22,-117.75 1034.22,-110.75"/>
</a>
</g>
</g>
<!-- Node4 -->
<g id="Node000004" class="node">
<title>Node4</title>
<g id="a_Node000004"><a xlink:href="class_c_p_s_1_1_m_n_a_sim_power_comp.html" target="_top" xlink:title=" ">
<polygon fill="white" stroke="#666666" points="875.5,-132.5 739.5,-132.5 739.5,-96 875.5,-96 875.5,-132.5"/>
<text text-anchor="start" x="747.5" y="-119" font-family="Helvetica,sans-Serif" font-size="10.00">CPS::MNASimPowerComp</text>
<text text-anchor="middle" x="807.5" y="-104.75" font-family="Helvetica,sans-Serif" font-size="10.00">&lt; Real &gt;</text>
</a>
</g>
</g>
<!-- Node4&#45;&gt;Node3 -->
<g id="edge3_Node000003_Node000004" class="edge">
<title>Node4&#45;&gt;Node3</title>
<g id="a_edge3_Node000003_Node000004"><a xlink:title=" ">
<path fill="none" stroke="#63b8ff" d="M887.3,-114.25C895.67,-114.25 904.05,-114.25 912.06,-114.25"/>
<polygon fill="#63b8ff" stroke="#63b8ff" points="887.42,-110.75 877.42,-114.25 887.42,-117.75 887.42,-110.75"/>
</a>
</g>
</g>
<!-- Node5 -->
<g id="Node000005" class="node">
<title>Node5</title>
<g id="a_Node000005"><a xlink:href="class_c_p_s_1_1_sim_power_comp.html" target="_top" xlink:title=" ">
<polygon fill="white" stroke="#666666" points="656.62,-77.5 537.88,-77.5 537.88,-41 656.62,-41 656.62,-77.5"/>
<text text-anchor="start" x="545.88" y="-64" font-family="Helvetica,sans-Serif" font-size="10.00">CPS::SimPowerComp&lt;</text>
<text text-anchor="middle" x="597.25" y="-49.75" font-family="Helvetica,sans-Serif" font-size="10.00"> Real &gt;</text>
</a>
</g>
</g>
<!-- Node5&#45;&gt;Node4 -->
<g id="edge4_Node000004_Node000005" class="edge">
<title>Node5&#45;&gt;Node4</title>
<g id="a_edge4_Node000004_Node000005"><a xlink:title=" ">
<path fill="none" stroke="#63b8ff" d="M668.15,-77.71C691.12,-83.78 716.6,-90.51 739.36,-96.52"/>
<polygon fill="#63b8ff" stroke="#63b8ff" points="669.12,-74.35 658.55,-75.18 667.33,-81.11 669.12,-74.35"/>
</a>
</g>
</g>
<!-- Node6 -->
<g id="Node000006" class="node">
<title>Node6</title>
<g id="a_Node000006"><a xlink:href="class_c_p_s_1_1_topological_power_comp.html" target="_top" xlink:title=" ">
<polygon fill="white" stroke="#666666" points="299.25,-75.38 152,-75.38 152,-53.12 299.25,-53.12 299.25,-75.38"/>
<text text-anchor="middle" x="225.62" y="-61.88" font-family="Helvetica,sans-Serif" font-size="10.00">CPS::TopologicalPowerComp</text>
</a>
</g>
</g>
<!-- Node6&#45;&gt;Node5 -->
<g id="edge5_Node000005_Node000006" class="edge">
<title>Node6&#45;&gt;Node5</title>
<g id="a_edge5_Node000005_Node000006"><a xlink:title=" ">
<path fill="none" stroke="#63b8ff" d="M310.96,-63.11C380.23,-62.17 476.56,-60.87 537.66,-60.04"/>
<polygon fill="#63b8ff" stroke="#63b8ff" points="311.12,-59.61 301.16,-63.24 311.21,-66.61 311.12,-59.61"/>
</a>
</g>
</g>
<!-- Node8 -->
<g id="Node000008" class="node">
<title>Node8</title>
<g id="a_Node000008"><a xlink:href="class_c_p_s_1_1_sim_power_comp.html" target="_top" xlink:title="Base class for all components that are transmitting power.">
<polygon fill="white" stroke="#666666" points="455,-36.5 336.25,-36.5 336.25,0 455,0 455,-36.5"/>
<text text-anchor="start" x="344.25" y="-23" font-family="Helvetica,sans-Serif" font-size="10.00">CPS::SimPowerComp&lt;</text>
<text text-anchor="middle" x="395.62" y="-8.75" font-family="Helvetica,sans-Serif" font-size="10.00"> VarType &gt;</text>
</a>
</g>
</g>
<!-- Node6&#45;&gt;Node8 -->
<g id="edge8_Node000008_Node000006" class="edge">
<title>Node6&#45;&gt;Node8</title>
<g id="a_edge8_Node000008_Node000006"><a xlink:title=" ">
<path fill="none" stroke="#63b8ff" d="M280.1,-49.61C297.92,-44.73 317.87,-39.27 336.07,-34.28"/>
<polygon fill="#63b8ff" stroke="#63b8ff" points="279.2,-46.23 270.48,-52.24 281.05,-52.98 279.2,-46.23"/>
</a>
</g>
</g>
<!-- Node11 -->
<g id="Node000011" class="node">
<title>Node11</title>
<g id="a_Node000011"><a xlink:href="class_c_p_s_1_1_sim_power_comp.html" target="_top" xlink:title="Base class for all components that are transmitting power.">
<polygon fill="white" stroke="#666666" points="455,-128.5 336.25,-128.5 336.25,-92 455,-92 455,-128.5"/>
<text text-anchor="start" x="344.25" y="-115" font-family="Helvetica,sans-Serif" font-size="10.00">CPS::SimPowerComp&lt;</text>
<text text-anchor="middle" x="395.62" y="-100.75" font-family="Helvetica,sans-Serif" font-size="10.00"> VarType &gt;</text>
</a>
</g>
</g>
<!-- Node6&#45;&gt;Node11 -->
<g id="edge12_Node000011_Node000006" class="edge">
<title>Node6&#45;&gt;Node11</title>
<g id="a_edge12_Node000011_Node000006"><a xlink:title=" ">
<path fill="none" stroke="#63b8ff" d="M280.1,-78.89C297.92,-83.77 317.87,-89.23 336.07,-94.22"/>
<polygon fill="#63b8ff" stroke="#63b8ff" points="281.05,-75.52 270.48,-76.26 279.2,-82.27 281.05,-75.52"/>
</a>
</g>
</g>
<!-- Node7 -->
<g id="Node000007" class="node">
<title>Node7</title>
<g id="a_Node000007"><a xlink:href="class_c_p_s_1_1_identified_object.html" target="_top" xlink:title=" ">
<polygon fill="white" stroke="#666666" points="115,-75.38 0,-75.38 0,-53.12 115,-53.12 115,-75.38"/>
<text text-anchor="middle" x="57.5" y="-61.88" font-family="Helvetica,sans-Serif" font-size="10.00">CPS::IdentifiedObject</text>
</a>
</g>
</g>
<!-- Node7&#45;&gt;Node6 -->
<g id="edge6_Node000006_Node000007" class="edge">
<title>Node7&#45;&gt;Node6</title>
<g id="a_edge6_Node000006_Node000007"><a xlink:title=" ">
<path fill="none" stroke="#63b8ff" d="M126.7,-64.25C134.95,-64.25 143.41,-64.25 151.73,-64.25"/>
<polygon fill="#63b8ff" stroke="#63b8ff" points="126.72,-60.75 116.72,-64.25 126.72,-67.75 126.72,-60.75"/>
</a>
</g>
</g>
<!-- Node8&#45;&gt;Node5 -->
<g id="edge7_Node000005_Node000008" class="edge">
<title>Node8&#45;&gt;Node5</title>
<g id="a_edge7_Node000005_Node000008"><a xlink:title=" ">
<path fill="none" stroke="orange" stroke-dasharray="5,2" d="M466.62,-27.8C481.41,-30.18 496.89,-32.93 511.25,-36 519.78,-37.82 528.72,-39.98 537.48,-42.24"/>
<polygon fill="orange" stroke="orange" points="467.38,-24.37 456.96,-26.29 466.3,-31.29 467.38,-24.37"/>
</a>
</g>
<text text-anchor="middle" x="492.12" y="-40.75" font-family="Helvetica,sans-Serif" font-size="10.00" fill="grey"> &lt; Real &gt;</text>
</g>
<!-- Node9 -->
<g id="Node000009" class="node">
<title>Node9</title>
<g id="a_Node000009"><a xlink:href="class_c_p_s_1_1_m_n_a_interface.html" target="_top" xlink:title="Interface to be implemented by all models used by the MNA solver.">
<polygon fill="white" stroke="#666666" points="448.62,-170.38 342.62,-170.38 342.62,-148.12 448.62,-148.12 448.62,-170.38"/>
<text text-anchor="middle" x="395.62" y="-156.88" font-family="Helvetica,sans-Serif" font-size="10.00">CPS::MNAInterface</text>
</a>
</g>
</g>
<!-- Node9&#45;&gt;Node4 -->
<g id="edge9_Node000004_Node000009" class="edge">
<title>Node9&#45;&gt;Node4</title>
<g id="a_edge9_Node000004_Node000009"><a xlink:title=" ">
<path fill="none" stroke="#63b8ff" d="M460.23,-156.63C514.75,-154 595.33,-149.17 665.25,-141.25 690.41,-138.4 696.61,-136.87 721.5,-132.25 727.28,-131.18 733.28,-130.01 739.28,-128.81"/>
<polygon fill="#63b8ff" stroke="#63b8ff" points="460.34,-153.13 450.51,-157.09 460.67,-160.12 460.34,-153.13"/>
</a>
</g>
</g>
<!-- Node10 -->
<g id="Node000010" class="node">
<title>Node10</title>
<g id="a_Node000010"><a xlink:href="class_c_p_s_1_1_m_n_a_sim_power_comp.html" target="_top" xlink:title="Base class for all MNA components that are transmitting power.">
<polygon fill="white" stroke="#666666" points="665.25,-132.5 529.25,-132.5 529.25,-96 665.25,-96 665.25,-132.5"/>
<text text-anchor="start" x="537.25" y="-119" font-family="Helvetica,sans-Serif" font-size="10.00">CPS::MNASimPowerComp</text>
<text text-anchor="middle" x="597.25" y="-104.75" font-family="Helvetica,sans-Serif" font-size="10.00">&lt; VarType &gt;</text>
</a>
</g>
</g>
<!-- Node9&#45;&gt;Node10 -->
<g id="edge13_Node000010_Node000009" class="edge">
<title>Node9&#45;&gt;Node10</title>
<g id="a_edge13_Node000010_Node000009"><a xlink:title=" ">
<path fill="none" stroke="#63b8ff" d="M459,-145.19C481.18,-140.19 506.24,-134.54 528.82,-129.45"/>
<polygon fill="#63b8ff" stroke="#63b8ff" points="458.5,-141.72 449.51,-147.33 460.03,-148.54 458.5,-141.72"/>
</a>
</g>
</g>
<!-- Node10&#45;&gt;Node4 -->
<g id="edge10_Node000004_Node000010" class="edge">
<title>Node10&#45;&gt;Node4</title>
<g id="a_edge10_Node000004_Node000010"><a xlink:title=" ">
<path fill="none" stroke="orange" stroke-dasharray="5,2" d="M677.08,-114.25C697.49,-114.25 719.28,-114.25 739.05,-114.25"/>
<polygon fill="orange" stroke="orange" points="677.09,-110.75 667.09,-114.25 677.09,-117.75 677.09,-110.75"/>
</a>
</g>
<text text-anchor="middle" x="702.38" y="-119" font-family="Helvetica,sans-Serif" font-size="10.00" fill="grey"> &lt; Real &gt;</text>
</g>
<!-- Node11&#45;&gt;Node10 -->
<g id="edge11_Node000010_Node000011" class="edge">
<title>Node11&#45;&gt;Node10</title>
<g id="a_edge11_Node000010_Node000011"><a xlink:title=" ">
<path fill="none" stroke="#63b8ff" d="M466.79,-111.66C487.03,-112.06 509.05,-112.5 529.09,-112.9"/>
<polygon fill="#63b8ff" stroke="#63b8ff" points="467.02,-108.16 456.95,-111.46 466.88,-115.16 467.02,-108.16"/>
</a>
</g>
</g>
<!-- Node12 -->
<g id="Node000012" class="node">
<title>Node12</title>
<g id="a_Node000012"><a xlink:href="class_c_p_s_1_1_m_n_a_variable_comp_interface.html" target="_top" xlink:title="MNA interface to be used by elements that require recomputing of the system matrix.">
<polygon fill="white" stroke="#666666" points="1229,-85.38 1059.25,-85.38 1059.25,-63.12 1229,-63.12 1229,-85.38"/>
<text text-anchor="middle" x="1144.12" y="-71.88" font-family="Helvetica,sans-Serif" font-size="10.00">CPS::MNAVariableCompInterface</text>
</a>
</g>
</g>
<!-- Node12&#45;&gt;Node1 -->
<g id="edge14_Node000001_Node000012" class="edge">
<title>Node12&#45;&gt;Node1</title>
<g id="a_edge14_Node000001_Node000012"><a xlink:title=" ">
<path fill="none" stroke="#63b8ff" d="M1240.59,-79.76C1248.89,-80.24 1257.27,-80.73 1265.51,-81.2"/>
<polygon fill="#63b8ff" stroke="#63b8ff" points="1241.02,-76.28 1230.84,-79.2 1240.62,-83.27 1241.02,-76.28"/>
</a>
</g>
</g>
<!-- Node14 -->
<g id="Node000014" class="node">
<title>Node14</title>
<g id="a_Node000014"><a xlink:href="class_c_p_s_1_1_e_m_t_1_1_ph3_1_1_av_volt_source_inverter_state_space.html" target="_top" xlink:title=" ">
<polygon fill="white" stroke="#bfbfbf" points="1813.25,-132.5 1663,-132.5 1663,-96 1813.25,-96 1813.25,-132.5"/>
<text text-anchor="start" x="1671" y="-119" font-family="Helvetica,sans-Serif" font-size="10.00">CPS::EMT::Ph3::AvVoltSource</text>
<text text-anchor="middle" x="1738.12" y="-104.75" font-family="Helvetica,sans-Serif" font-size="10.00">InverterStateSpace</text>
</a>
</g>
</g>
<!-- Node13&#45;&gt;Node14 -->
<g id="edge16_Node000013_Node000014" class="edge">
<title>Node13&#45;&gt;Node14</title>
<g id="a_edge16_Node000013_Node000014"><a xlink:title=" ">
<path fill="none" stroke="#63b8ff" d="M1637.54,-99.08C1645.88,-100.35 1654.29,-101.63 1662.52,-102.88"/>
<polygon fill="#63b8ff" stroke="#63b8ff" points="1638.17,-95.63 1627.76,-97.58 1637.12,-102.55 1638.17,-95.63"/>
</a>
</g>
</g>
<!-- Node15 -->
<g id="Node000015" class="node">
<title>Node15</title>
<g id="a_Node000015"><a xlink:href="class_c_p_s_1_1_e_m_t_1_1_ph3_1_1_piecewise_linear_inductor.html" target="_top" xlink:title="Three&#45;phase, two&#45;terminal, piecewise&#45;linear flux&#45;state inductor.">
<polygon fill="white" stroke="#666666" points="1804.62,-77.5 1671.62,-77.5 1671.62,-41 1804.62,-41 1804.62,-77.5"/>
<text text-anchor="start" x="1679.62" y="-64" font-family="Helvetica,sans-Serif" font-size="10.00">CPS::EMT::Ph3::Piecewise</text>
<text text-anchor="middle" x="1738.12" y="-49.75" font-family="Helvetica,sans-Serif" font-size="10.00">LinearInductor</text>
</a>
</g>
</g>
<!-- Node13&#45;&gt;Node15 -->
<g id="edge17_Node000013_Node000015" class="edge">
<title>Node13&#45;&gt;Node15</title>
<g id="a_edge17_Node000013_Node000015"><a xlink:title=" ">
<path fill="none" stroke="#63b8ff" d="M1637.49,-73.89C1648.79,-72.23 1660.25,-70.55 1671.18,-68.94"/>
<polygon fill="#63b8ff" stroke="#63b8ff" points="1637.14,-70.4 1627.76,-75.32 1638.16,-77.33 1637.14,-70.4"/>
</a>
</g>
</g>
</g>
</svg>
