<?xml version="1.0" encoding="UTF-8" standalone="no"?>
<!DOCTYPE svg PUBLIC "-//W3C//DTD SVG 1.1//EN"
 "http://www.w3.org/Graphics/SVG/1.1/DTD/svg11.dtd">
<!-- Generated by graphviz version 2.42.4 (0)
 -->
<!-- Title: DPsim::MnaSolverGpuSparse&lt; VarType &gt; Pages: 1 -->
<svg width="417pt" height="273pt"
 viewBox="0.00 0.00 416.50 273.00" xmlns="http://www.w3.org/2000/svg" xmlns:xlink="http://www.w3.org/1999/xlink">
<g id="graph0" class="graph" transform="scale(1 1) rotate(0) translate(4 269)">
<title>DPsim::MnaSolverGpuSparse&lt; VarType &gt;</title>
<!-- Node1 -->
<g id="node1" class="node">
<title>Node1</title>
<g id="a_node1"><a xlink:title=" ">
<polygon fill="#bfbfbf" stroke="black" points="161.5,-0.5 161.5,-30.5 319.5,-30.5 319.5,-0.5 161.5,-0.5"/>
<text text-anchor="start" x="169.5" y="-18.5" font-family="Helvetica,sans-Serif" font-size="10.00">DPsim::MnaSolverGpuSparse</text>
<text text-anchor="middle" x="240.5" y="-7.5" font-family="Helvetica,sans-Serif" font-size="10.00">&lt; VarType &gt;</text>
</a>
</g>
</g>
<!-- Node2 -->
<g id="node2" class="node">
<title>Node2</title>
<g id="a_node2"><a xlink:href="class_d_psim_1_1_mna_solver_eigen_sparse.html" target="_top" xlink:title="Solver class using Modified Nodal Analysis (MNA).">
<polygon fill="none" stroke="black" points="79.5,-100.5 79.5,-130.5 245.5,-130.5 245.5,-100.5 79.5,-100.5"/>
<text text-anchor="start" x="87.5" y="-118.5" font-family="Helvetica,sans-Serif" font-size="10.00">DPsim::MnaSolverEigenSparse</text>
<text text-anchor="middle" x="162.5" y="-107.5" font-family="Helvetica,sans-Serif" font-size="10.00">&lt; VarType &gt;</text>
</a>
</g>
</g>
<!-- Node2&#45;&gt;Node1 -->
<g id="edge1" class="edge">
<title>Node2&#45;&gt;Node1</title>
<path fill="none" stroke="midnightblue" d="M179.92,-92.61C195.03,-73.63 216.44,-46.73 229.35,-30.51"/>
<polygon fill="midnightblue" stroke="midnightblue" points="177.16,-90.46 173.68,-100.46 182.64,-94.81 177.16,-90.46"/>
</g>
<!-- Node3 -->
<g id="node3" class="node">
<title>Node3</title>
<g id="a_node3"><a xlink:href="class_d_psim_1_1_mna_solver.html" target="_top" xlink:title="Solver class using Modified Nodal Analysis (MNA).">
<polygon fill="none" stroke="black" points="70,-178.5 70,-197.5 237,-197.5 237,-178.5 70,-178.5"/>
<text text-anchor="middle" x="153.5" y="-185.5" font-family="Helvetica,sans-Serif" font-size="10.00">DPsim::MnaSolver&lt; VarType &gt;</text>
</a>
</g>
</g>
<!-- Node3&#45;&gt;Node2 -->
<g id="edge2" class="edge">
<title>Node3&#45;&gt;Node2</title>
<path fill="none" stroke="midnightblue" d="M155.9,-168.24C157.41,-156.41 159.32,-141.38 160.7,-130.58"/>
<polygon fill="midnightblue" stroke="midnightblue" points="152.4,-167.99 154.6,-178.36 159.34,-168.88 152.4,-167.99"/>
</g>
<!-- Node4 -->
<g id="node4" class="node">
<title>Node4</title>
<g id="a_node4"><a xlink:href="class_d_psim_1_1_solver.html" target="_top" xlink:title="Base class for more specific solvers such as MNA, ODE or IDA.">
<polygon fill="none" stroke="black" points="0,-245.5 0,-264.5 85,-264.5 85,-245.5 0,-245.5"/>
<text text-anchor="middle" x="42.5" y="-252.5" font-family="Helvetica,sans-Serif" font-size="10.00">DPsim::Solver</text>
</a>
</g>
</g>
<!-- Node4&#45;&gt;Node3 -->
<g id="edge3" class="edge">
<title>Node4&#45;&gt;Node3</title>
<path fill="none" stroke="midnightblue" d="M66.21,-240.12C88.2,-227.24 120.24,-208.48 138.77,-197.63"/>
<polygon fill="midnightblue" stroke="midnightblue" points="64.33,-237.16 57.47,-245.23 67.87,-243.2 64.33,-237.16"/>
</g>
<!-- Node5 -->
<g id="node5" class="node">
<title>Node5</title>
<g id="a_node5"><a xlink:href="class_c_p_s_1_1_attribute_list.html" target="_top" xlink:title="Base class of objects having attributes to access member variables.">
<polygon fill="none" stroke="black" points="103,-245.5 103,-264.5 204,-264.5 204,-245.5 103,-245.5"/>
<text text-anchor="middle" x="153.5" y="-252.5" font-family="Helvetica,sans-Serif" font-size="10.00">CPS::AttributeList</text>
</a>
</g>
</g>
<!-- Node5&#45;&gt;Node3 -->
<g id="edge4" class="edge">
<title>Node5&#45;&gt;Node3</title>
<path fill="none" stroke="midnightblue" d="M153.5,-235.04C153.5,-222.67 153.5,-207.12 153.5,-197.63"/>
<polygon fill="midnightblue" stroke="midnightblue" points="150,-235.23 153.5,-245.23 157,-235.23 150,-235.23"/>
</g>
<!-- Node6 -->
<g id="node6" class="node">
<title>Node6</title>
<g id="a_node6"><a xlink:href="class_c_p_s_1_1_system_topology.html" target="_top" xlink:title=" ">
<polygon fill="none" stroke="black" points="222.5,-245.5 222.5,-264.5 344.5,-264.5 344.5,-245.5 222.5,-245.5"/>
<text text-anchor="middle" x="283.5" y="-252.5" font-family="Helvetica,sans-Serif" font-size="10.00">CPS::SystemTopology</text>
</a>
</g>
</g>
<!-- Node6&#45;&gt;Node3 -->
<g id="edge5" class="edge">
<title>Node6&#45;&gt;Node3</title>
<path fill="none" stroke="#9a32cd" stroke-dasharray="5,2" d="M257.05,-240.77C231.3,-227.9 192.92,-208.71 170.83,-197.67"/>
<polygon fill="#9a32cd" stroke="#9a32cd" points="255.73,-244.03 266.24,-245.37 258.86,-237.77 255.73,-244.03"/>
<text text-anchor="middle" x="251.5" y="-219" font-family="Helvetica,sans-Serif" font-size="10.00"> mSystem</text>
</g>
<!-- Node7 -->
<g id="node7" class="node">
<title>Node7</title>
<g id="a_node7"><a xlink:href="class_d_psim_1_1cuda_1_1_vector.html" target="_top" xlink:title=" ">
<polygon fill="none" stroke="black" points="267.5,-100.5 267.5,-130.5 381.5,-130.5 381.5,-100.5 267.5,-100.5"/>
<text text-anchor="start" x="275.5" y="-118.5" font-family="Helvetica,sans-Serif" font-size="10.00">DPsim::cuda::Vector</text>
<text text-anchor="middle" x="324.5" y="-107.5" font-family="Helvetica,sans-Serif" font-size="10.00">&lt; double &gt;</text>
</a>
</g>
</g>
<!-- Node7&#45;&gt;Node1 -->
<g id="edge6" class="edge">
<title>Node7&#45;&gt;Node1</title>
<path fill="none" stroke="#9a32cd" stroke-dasharray="5,2" d="M305.74,-92.61C289.47,-73.63 266.41,-46.73 252.51,-30.51"/>
<polygon fill="#9a32cd" stroke="#9a32cd" points="303.3,-95.14 312.46,-100.46 308.61,-90.59 303.3,-95.14"/>
<text text-anchor="middle" x="352" y="-74" font-family="Helvetica,sans-Serif" font-size="10.00"> mGpuIntermediateVec</text>
<text text-anchor="middle" x="352" y="-63" font-family="Helvetica,sans-Serif" font-size="10.00">mGpuLhsVec</text>
<text text-anchor="middle" x="352" y="-52" font-family="Helvetica,sans-Serif" font-size="10.00">mGpuRhsVec</text>
</g>
<!-- Node8 -->
<g id="node8" class="node">
<title>Node8</title>
<g id="a_node8"><a xlink:href="class_d_psim_1_1cuda_1_1_vector.html" target="_top" xlink:title=" ">
<polygon fill="none" stroke="black" points="255,-178.5 255,-197.5 398,-197.5 398,-178.5 255,-178.5"/>
<text text-anchor="middle" x="326.5" y="-185.5" font-family="Helvetica,sans-Serif" font-size="10.00">DPsim::cuda::Vector&lt; T &gt;</text>
</a>
</g>
</g>
<!-- Node8&#45;&gt;Node7 -->
<g id="edge7" class="edge">
<title>Node8&#45;&gt;Node7</title>
<path fill="none" stroke="orange" stroke-dasharray="5,2" d="M325.97,-168.24C325.63,-156.41 325.21,-141.38 324.9,-130.58"/>
<polygon fill="orange" stroke="orange" points="322.47,-168.46 326.25,-178.36 329.47,-168.26 322.47,-168.46"/>
<text text-anchor="middle" x="355" y="-152" font-family="Helvetica,sans-Serif" font-size="10.00"> &lt; double &gt;</text>
</g>
</g>
</svg>
