<?xml version="1.0" encoding="UTF-8" standalone="no"?>
<!DOCTYPE svg PUBLIC "-//W3C//DTD SVG 1.1//EN"
 "http://www.w3.org/Graphics/SVG/1.1/DTD/svg11.dtd">
<!-- Generated by graphviz version 2.50.0 (0)
 -->
<!-- Title: DPsim::MnaSolverPlugin&lt; VarType &gt; Pages: 1 -->
<!--zoomable 164 -->
<svg id="main" version="1.1" xmlns="http://www.w3.org/2000/svg" xmlns:xlink="http://www.w3.org/1999/xlink" xml:space="preserve" onload="init(evt)">
<style type="text/css"><![CDATA[
.edge:hover path { stroke: red; }
.edge:hover polygon { stroke: red; fill: red; }
]]></style>
<script type="text/javascript"><![CDATA[
var edges = document.getElementsByTagName('g');
if (edges && edges.length) {
  for (var i=0;i<edges.length;i++) {
    if (edges[i].id.substr(0,4)=='edge') {
      edges[i].setAttribute('class','edge');
    }
  }
}
]]></script>
        <defs>
                <circle id="rim" cx="0" cy="0" r="7"/>
                <circle id="rim2" cx="0" cy="0" r="3.5"/>
                <g id="zoomPlus">
                        <use xlink:href="#rim" fill="#404040">
                                <set attributeName="fill" to="#808080" begin="zoomplus.mouseover" end="zoomplus.mouseout"/>
                        </use>
                        <path d="M-4,0h8M0,-4v8" fill="none" stroke="white" stroke-width="1.5" pointer-events="none"/>
                </g>
                <g id="zoomMin">
                        <use xlink:href="#rim" fill="#404040">
                                <set attributeName="fill" to="#808080" begin="zoomminus.mouseover" end="zoomminus.mouseout"/>
                        </use>
                        <path d="M-4,0h8" fill="none" stroke="white" stroke-width="1.5" pointer-events="none"/>
                </g>
                <g id="dirArrow">
                        <path fill="none" stroke="white" stroke-width="1.5" d="M0,-3.0v7 M-2.5,-0.5L0,-3.0L2.5,-0.5"/>
                </g>
               <g id="resetDef">
                       <use xlink:href="#rim2" fill="#404040">
                               <set attributeName="fill" to="#808080" begin="reset.mouseover" end="reset.mouseout"/>
                       </use>
               </g>
        </defs>

<script type="text/javascript">
var viewWidth = 1238;
var viewHeight = 164;
var sectionId = 'dynsection-1';
</script>
<script xlink:href="svgpan.js"/>
<svg id="graph" class="graph">
<g id="viewport">
<title>DPsim::MnaSolverPlugin&lt; VarType &gt;</title>
<!-- Node1 -->
<g id="node1" class="node">
<title>Node1</title>
<g id="a_node1"><a xlink:title=" ">
<polygon fill="#bfbfbf" stroke="black" points="1100,-35 1100,-65 1230,-65 1230,-35 1100,-35"/>
<text text-anchor="start" x="1108" y="-53" font-family="Helvetica,sans-Serif" font-size="10.00">DPsim::MnaSolverPlugin</text>
<text text-anchor="middle" x="1165" y="-42" font-family="Helvetica,sans-Serif" font-size="10.00">&lt; VarType &gt;</text>
</a>
</g>
</g>
<!-- Node2 -->
<g id="node2" class="node">
<title>Node2</title>
<g id="a_node2"><a xlink:href="class_d_psim_1_1_mna_solver_direct.html" target="_top" xlink:title="Solver class using Modified Nodal Analysis (MNA).">
<polygon fill="none" stroke="black" points="895,-66 895,-96 1024,-96 1024,-66 895,-66"/>
<text text-anchor="start" x="903" y="-84" font-family="Helvetica,sans-Serif" font-size="10.00">DPsim::MnaSolverDirect</text>
<text text-anchor="middle" x="959.5" y="-73" font-family="Helvetica,sans-Serif" font-size="10.00">&lt; VarType &gt;</text>
</a>
</g>
</g>
<!-- Node2&#45;&gt;Node1 -->
<g id="edge1" class="edge">
<title>Node2&#45;&gt;Node1</title>
<path fill="none" stroke="midnightblue" d="M1034.12,-69.78C1055.65,-66.51 1079,-62.95 1099.88,-59.77"/>
<polygon fill="midnightblue" stroke="midnightblue" points="1033.41,-66.35 1024.05,-71.32 1034.46,-73.27 1033.41,-66.35"/>
</g>
<!-- Node3 -->
<g id="node3" class="node">
<title>Node3</title>
<g id="a_node3"><a xlink:href="class_d_psim_1_1_mna_solver.html" target="_top" xlink:title="Solver class using Modified Nodal Analysis (MNA).">
<polygon fill="none" stroke="black" points="600,-98.5 600,-117.5 756,-117.5 756,-98.5 600,-98.5"/>
<text text-anchor="middle" x="678" y="-105.5" font-family="Helvetica,sans-Serif" font-size="10.00">DPsim::MnaSolver&lt; VarType &gt;</text>
</a>
</g>
</g>
<!-- Node3&#45;&gt;Node2 -->
<g id="edge2" class="edge">
<title>Node3&#45;&gt;Node2</title>
<path fill="none" stroke="midnightblue" d="M766.25,-99.57C807.88,-95.55 856.78,-90.83 894.84,-87.15"/>
<polygon fill="midnightblue" stroke="midnightblue" points="765.73,-96.11 756.11,-100.55 766.4,-103.07 765.73,-96.11"/>
</g>
<!-- Node4 -->
<g id="node4" class="node">
<title>Node4</title>
<g id="a_node4"><a xlink:href="class_d_psim_1_1_solver.html" target="_top" xlink:title="Base class for more specific solvers such as MNA, ODE or IDA.">
<polygon fill="none" stroke="black" points="378,-136.5 378,-155.5 459,-155.5 459,-136.5 378,-136.5"/>
<text text-anchor="middle" x="418.5" y="-143.5" font-family="Helvetica,sans-Serif" font-size="10.00">DPsim::Solver</text>
</a>
</g>
</g>
<!-- Node4&#45;&gt;Node3 -->
<g id="edge3" class="edge">
<title>Node4&#45;&gt;Node3</title>
<path fill="none" stroke="midnightblue" d="M469.32,-139.16C501.49,-134.69 544.24,-128.65 582,-123 593.56,-121.27 605.9,-119.36 617.73,-117.51"/>
<polygon fill="midnightblue" stroke="midnightblue" points="468.69,-135.71 459.26,-140.55 469.65,-142.65 468.69,-135.71"/>
</g>
<!-- Node5 -->
<g id="node5" class="node">
<title>Node5</title>
<g id="a_node5"><a xlink:href="class_c_p_s_1_1_system_topology.html" target="_top" xlink:title=" ">
<polygon fill="none" stroke="black" points="360.5,-98.5 360.5,-117.5 476.5,-117.5 476.5,-98.5 360.5,-98.5"/>
<text text-anchor="middle" x="418.5" y="-105.5" font-family="Helvetica,sans-Serif" font-size="10.00">CPS::SystemTopology</text>
</a>
</g>
</g>
<!-- Node5&#45;&gt;Node3 -->
<g id="edge4" class="edge">
<title>Node5&#45;&gt;Node3</title>
<path fill="none" stroke="#9a32cd" stroke-dasharray="5,2" d="M486.69,-108C521.41,-108 563.94,-108 599.99,-108"/>
<polygon fill="#9a32cd" stroke="#9a32cd" points="486.65,-104.5 476.65,-108 486.65,-111.5 486.65,-104.5"/>
<text text-anchor="middle" x="541.5" y="-111" font-family="Helvetica,sans-Serif" font-size="10.00"> mSystem</text>
</g>
<!-- Node6 -->
<g id="node6" class="node">
<title>Node6</title>
<g id="a_node6"><a xlink:href="class_c_p_s_1_1_attribute.html" target="_top" xlink:title=" ">
<polygon fill="none" stroke="black" points="354,-60.5 354,-79.5 483,-79.5 483,-60.5 354,-60.5"/>
<text text-anchor="middle" x="418.5" y="-67.5" font-family="Helvetica,sans-Serif" font-size="10.00">CPS::Attribute&lt; Matrix &gt;</text>
</a>
</g>
</g>
<!-- Node6&#45;&gt;Node3 -->
<g id="edge5" class="edge">
<title>Node6&#45;&gt;Node3</title>
<path fill="none" stroke="#9a32cd" stroke-dasharray="5,2" d="M493.26,-80.19C521.08,-84.09 553.01,-88.66 582,-93 593.56,-94.73 605.9,-96.64 617.73,-98.49"/>
<polygon fill="#9a32cd" stroke="#9a32cd" points="493.59,-76.7 483.2,-78.78 492.62,-83.63 493.59,-76.7"/>
<text text-anchor="middle" x="541.5" y="-96" font-family="Helvetica,sans-Serif" font-size="10.00"> mLeftSideVector</text>
</g>
<!-- Node7 -->
<g id="node7" class="node">
<title>Node7</title>
<g id="a_node7"><a xlink:href="class_c_p_s_1_1_attribute_base.html" target="_top" xlink:title=" ">
<polygon fill="none" stroke="black" points="5.5,-97.5 5.5,-116.5 110.5,-116.5 110.5,-97.5 5.5,-97.5"/>
<text text-anchor="middle" x="58" y="-104.5" font-family="Helvetica,sans-Serif" font-size="10.00">CPS::AttributeBase</text>
</a>
</g>
</g>
<!-- Node7&#45;&gt;Node6 -->
<g id="edge6" class="edge">
<title>Node7&#45;&gt;Node6</title>
<path fill="none" stroke="midnightblue" d="M120.89,-103.91C177.15,-100.67 262.38,-94.67 336,-85 347.13,-83.54 359.04,-81.57 370.22,-79.55"/>
<polygon fill="midnightblue" stroke="midnightblue" points="120.52,-100.42 110.73,-104.48 120.91,-107.41 120.52,-100.42"/>
</g>
<!-- Node9 -->
<g id="node9" class="node">
<title>Node9</title>
<g id="a_node9"><a xlink:href="class_c_p_s_1_1_attribute.html" target="_top" xlink:title=" ">
<polygon fill="none" stroke="black" points="159,-60.5 159,-79.5 263,-79.5 263,-60.5 159,-60.5"/>
<text text-anchor="middle" x="211" y="-67.5" font-family="Helvetica,sans-Serif" font-size="10.00">CPS::Attribute&lt; T &gt;</text>
</a>
</g>
</g>
<!-- Node7&#45;&gt;Node9 -->
<g id="edge9" class="edge">
<title>Node7&#45;&gt;Node9</title>
<path fill="none" stroke="midnightblue" d="M107.67,-95.07C128.15,-90.06 151.67,-84.29 170.98,-79.56"/>
<polygon fill="midnightblue" stroke="midnightblue" points="106.77,-91.69 97.89,-97.47 108.43,-98.49 106.77,-91.69"/>
</g>
<!-- Node8 -->
<g id="node8" class="node">
<title>Node8</title>
<g id="a_node8"><a xlink:title=" ">
<polygon fill="none" stroke="#bfbfbf" points="153,-0.5 153,-41.5 269,-41.5 269,-0.5 153,-0.5"/>
<text text-anchor="start" x="161" y="-29.5" font-family="Helvetica,sans-Serif" font-size="10.00">std::enable_shared</text>
<text text-anchor="start" x="161" y="-18.5" font-family="Helvetica,sans-Serif" font-size="10.00">_from_this&lt; Attribute</text>
<text text-anchor="middle" x="211" y="-7.5" font-family="Helvetica,sans-Serif" font-size="10.00">&lt; Matrix &gt; &gt;</text>
</a>
</g>
</g>
<!-- Node8&#45;&gt;Node6 -->
<g id="edge7" class="edge">
<title>Node8&#45;&gt;Node6</title>
<path fill="none" stroke="midnightblue" d="M279.14,-37.01C311.64,-44.76 349.56,-53.8 377.48,-60.46"/>
<polygon fill="midnightblue" stroke="midnightblue" points="279.78,-33.56 269.24,-34.65 278.16,-40.37 279.78,-33.56"/>
</g>
<!-- Node9&#45;&gt;Node6 -->
<g id="edge8" class="edge">
<title>Node9&#45;&gt;Node6</title>
<path fill="none" stroke="orange" stroke-dasharray="5,2" d="M273.31,-70C298.71,-70 328.17,-70 353.82,-70"/>
<polygon fill="orange" stroke="orange" points="273.06,-66.5 263.06,-70 273.06,-73.5 273.06,-66.5"/>
<text text-anchor="middle" x="311.5" y="-73" font-family="Helvetica,sans-Serif" font-size="10.00"> &lt; Matrix &gt;</text>
</g>
<!-- Node10 -->
<g id="node10" class="node">
<title>Node10</title>
<g id="a_node10"><a xlink:title=" ">
<polygon fill="none" stroke="#bfbfbf" points="0,-37.5 0,-78.5 116,-78.5 116,-37.5 0,-37.5"/>
<text text-anchor="start" x="8" y="-66.5" font-family="Helvetica,sans-Serif" font-size="10.00">std::enable_shared</text>
<text text-anchor="start" x="8" y="-55.5" font-family="Helvetica,sans-Serif" font-size="10.00">_from_this&lt; Attribute</text>
<text text-anchor="middle" x="58" y="-44.5" font-family="Helvetica,sans-Serif" font-size="10.00">&lt; T &gt; &gt;</text>
</a>
</g>
</g>
<!-- Node10&#45;&gt;Node9 -->
<g id="edge10" class="edge">
<title>Node10&#45;&gt;Node9</title>
<path fill="none" stroke="midnightblue" d="M126.07,-63.33C137.05,-64.2 148.27,-65.09 158.79,-65.93"/>
<polygon fill="midnightblue" stroke="midnightblue" points="126.33,-59.84 116.09,-62.54 125.78,-66.82 126.33,-59.84"/>
</g>
<!-- Node11 -->
<g id="node11" class="node">
<title>Node11</title>
<g id="a_node11"><a xlink:href="class_d_psim_1_1_direct_linear_solver_configuration.html" target="_top" xlink:title=" ">
<polygon fill="none" stroke="black" points="609,-49 609,-79 747,-79 747,-49 609,-49"/>
<text text-anchor="start" x="617" y="-67" font-family="Helvetica,sans-Serif" font-size="10.00">DPsim::DirectLinearSolver</text>
<text text-anchor="middle" x="678" y="-56" font-family="Helvetica,sans-Serif" font-size="10.00">Configuration</text>
</a>
</g>
</g>
<!-- Node11&#45;&gt;Node2 -->
<g id="edge11" class="edge">
<title>Node11&#45;&gt;Node2</title>
<path fill="none" stroke="#9a32cd" stroke-dasharray="5,2" d="M757.36,-67.32C793.76,-69.03 837.61,-71.31 877,-74 882.81,-74.4 888.85,-74.84 894.89,-75.32"/>
<polygon fill="#9a32cd" stroke="#9a32cd" points="757.45,-63.82 747.3,-66.86 757.13,-70.81 757.45,-63.82"/>
<text text-anchor="middle" x="825.5" y="-77" font-family="Helvetica,sans-Serif" font-size="10.00"> mConfigurationInUse</text>
</g>
<!-- Node12 -->
<g id="node12" class="node">
<title>Node12</title>
<g id="a_node12"><a xlink:href="structdpsim__mna__plugin.html" target="_top" xlink:title=" ">
<polygon fill="none" stroke="black" points="908.5,-27.5 908.5,-46.5 1010.5,-46.5 1010.5,-27.5 908.5,-27.5"/>
<text text-anchor="middle" x="959.5" y="-34.5" font-family="Helvetica,sans-Serif" font-size="10.00">dpsim_mna_plugin</text>
</a>
</g>
</g>
<!-- Node12&#45;&gt;Node1 -->
<g id="edge12" class="edge">
<title>Node12&#45;&gt;Node1</title>
<path fill="none" stroke="#9a32cd" stroke-dasharray="5,2" d="M1020.6,-40.84C1045.55,-42.43 1074.53,-44.28 1099.88,-45.9"/>
<polygon fill="#9a32cd" stroke="#9a32cd" points="1020.75,-37.34 1010.54,-40.2 1020.3,-44.33 1020.75,-37.34"/>
<text text-anchor="middle" x="1062" y="-48" font-family="Helvetica,sans-Serif" font-size="10.00"> mPlugin</text>
</g>
</g>
</svg>
        <g id="navigator" transform="translate(0 0)" fill="#404254">
                <rect fill="#f2f5e9" fill-opacity="0.5" stroke="#606060" stroke-width=".5" x="0" y="0" width="60" height="60"/>
                <use id="zoomplus" xlink:href="#zoomPlus" x="17" y="9" onmousedown="handleZoom(evt,'in')"/>
                <use id="zoomminus" xlink:href="#zoomMin" x="42" y="9" onmousedown="handleZoom(evt,'out')"/>
                <use id="reset" xlink:href="#resetDef" x="30" y="36" onmousedown="handleReset()"/>
                <g id="arrowUp" xlink:href="#dirArrow" transform="translate(30 24)" onmousedown="handlePan(0,-1)">
                  <use xlink:href="#rim" fill="#404040">
                        <set attributeName="fill" to="#808080" begin="arrowUp.mouseover" end="arrowUp.mouseout"/>
                  </use>
                  <path fill="none" stroke="white" stroke-width="1.5" d="M0,-3.0v7 M-2.5,-0.5L0,-3.0L2.5,-0.5"/>
                </g>
                <g id="arrowRight" xlink:href="#dirArrow" transform="rotate(90) translate(36 -43)" onmousedown="handlePan(1,0)">
                  <use xlink:href="#rim" fill="#404040">
                        <set attributeName="fill" to="#808080" begin="arrowRight.mouseover" end="arrowRight.mouseout"/>
                  </use>
                  <path fill="none" stroke="white" stroke-width="1.5" d="M0,-3.0v7 M-2.5,-0.5L0,-3.0L2.5,-0.5"/>
                </g>
                <g id="arrowDown" xlink:href="#dirArrow" transform="rotate(180) translate(-30 -48)" onmousedown="handlePan(0,1)">
                  <use xlink:href="#rim" fill="#404040">
                        <set attributeName="fill" to="#808080" begin="arrowDown.mouseover" end="arrowDown.mouseout"/>
                  </use>
                  <path fill="none" stroke="white" stroke-width="1.5" d="M0,-3.0v7 M-2.5,-0.5L0,-3.0L2.5,-0.5"/>
                </g>
                <g id="arrowLeft" xlink:href="#dirArrow" transform="rotate(270) translate(-36 17)" onmousedown="handlePan(-1,0)">
                  <use xlink:href="#rim" fill="#404040">
                        <set attributeName="fill" to="#808080" begin="arrowLeft.mouseover" end="arrowLeft.mouseout"/>
                  </use>
                  <path fill="none" stroke="white" stroke-width="1.5" d="M0,-3.0v7 M-2.5,-0.5L0,-3.0L2.5,-0.5"/>
                </g>
        </g>
        <svg viewBox="0 0 15 15" width="100%" height="30px" preserveAspectRatio="xMaxYMin meet">
         <g id="arrow_out" transform="scale(0.3 0.3)">
          <a xlink:href="class_d_psim_1_1_mna_solver_plugin__coll__graph_org.svg" target="_base">
           <rect id="button" ry="5" rx="5" y="6" x="6" height="38" width="38"
                fill="#f2f5e9" fill-opacity="0.5" stroke="#606060" stroke-width="1.0"/>
           <path id="arrow"
             d="M 11.500037,31.436501 C 11.940474,20.09759 22.043105,11.32322 32.158766,21.979434 L 37.068811,17.246167 C 37.068811,17.246167 37.088388,32 37.088388,32 L 22.160133,31.978069 C 22.160133,31.978069 26.997745,27.140456 26.997745,27.140456 C 18.528582,18.264221 13.291696,25.230495 11.500037,31.436501 z"
             style="fill:#404040;"/>
          </a>
         </g>
        </svg>
</svg>
