<?xml version="1.0" encoding="UTF-8" standalone="no"?>
<!DOCTYPE svg PUBLIC "-//W3C//DTD SVG 1.1//EN"
 "http://www.w3.org/Graphics/SVG/1.1/DTD/svg11.dtd">
<!-- Generated by graphviz version 12.2.1 (20241206.2353)
 -->
<!-- Title: CPS::EMT::Ph3::AvVoltageSourceInverterDQ Pages: 1 -->
<!--zoomable 242 -->

<svg id="main" version="1.1" xmlns="http://www.w3.org/2000/svg" xmlns:xlink="http://www.w3.org/1999/xlink" xml:space="preserve" onload="init(evt)">

<style type="text/css"><![CDATA[
.node, .edge {opacity: 0.7;}
.node.selected, .edge.selected {opacity: 1;}
.edge:hover path { stroke: red; }
.edge:hover polygon { stroke: red; fill: red; }
]]></style>

<defs>
  <circle id="rim" cx="0" cy="0" r="7"/>
  <circle id="rim2" cx="0" cy="0" r="3.5"/>
  <g id="zoomPlus">
    <use xlink:href="#rim" fill="#404040"><set attributeName="fill" to="#808080" begin="zoomplus.mouseover" end="zoomplus.mouseout"/></use>
    <path d="M-4,0h8M0,-4v8" fill="none" stroke="white" stroke-width="1.5" pointer-events="none"/>
  </g>
  <g id="zoomMin">
    <use xlink:href="#rim" fill="#404040"><set attributeName="fill" to="#808080" begin="zoomminus.mouseover" end="zoomminus.mouseout"/></use>
    <path d="M-4,0h8" fill="none" stroke="white" stroke-width="1.5" pointer-events="none"/>
  </g>
  <g id="arrowUp" transform="translate(30 24)">
    <use xlink:href="#rim"/>
    <path pointer-events="none" fill="none" stroke="white" stroke-width="1.5" d="M0,-3.0v7 M-2.5,-0.5L0,-3.0L2.5,-0.5"/>
  </g>
  <g id="arrowRight" transform="rotate(90) translate(36 -43)">
    <use xlink:href="#rim"/>
    <path pointer-events="none" fill="none" stroke="white" stroke-width="1.5" d="M0,-3.0v7 M-2.5,-0.5L0,-3.0L2.5,-0.5"/>
  </g>
  <g id="arrowDown" transform="rotate(180) translate(-30 -48)">
    <use xlink:href="#rim"/>
    <path pointer-events="none" fill="none" stroke="white" stroke-width="1.5" d="M0,-3.0v7 M-2.5,-0.5L0,-3.0L2.5,-0.5"/>
  </g>
  <g id="arrowLeft" transform="rotate(270) translate(-36 17)">
    <use xlink:href="#rim"/>
    <path pointer-events="none" fill="none" stroke="white" stroke-width="1.5" d="M0,-3.0v7 M-2.5,-0.5L0,-3.0L2.5,-0.5"/>
  </g>
  <g id="resetDef">
    <use xlink:href="#rim2" fill="#404040"><set attributeName="fill" to="#808080" begin="reset.mouseover" end="reset.mouseout"/></use>
  </g>
</defs>
<script type="application/ecmascript">
var viewWidth = 1401;
var viewHeight = 242;
var sectionId = 'dynsection-0';
</script>
<script type="application/ecmascript" xlink:href="svg.min.js"/>
<svg id="graph" class="graph">
<g id="viewport">
<title>CPS::EMT::Ph3::AvVoltageSourceInverterDQ</title>
<!-- Node1 -->
<g id="Node000001" class="node">
<title>Node1</title>
<g id="a_Node000001"><a xlink:title=" ">
<polygon fill="#999999" stroke="#666666" points="1393,-91.5 1257,-91.5 1257,-55 1393,-55 1393,-91.5"/>
<text text-anchor="start" x="1265" y="-78" font-family="Helvetica,sans-Serif" font-size="10.00">CPS::EMT::Ph3::AvVoltage</text>
<text text-anchor="middle" x="1325" y="-63.75" font-family="Helvetica,sans-Serif" font-size="10.00">SourceInverterDQ</text>
</a>
</g>
</g>
<!-- Node2 -->
<g id="Node000002" class="node">
<title>Node2</title>
<g id="a_Node000002"><a xlink:href="class_c_p_s_1_1_composite_power_comp.html" target="_top" xlink:title=" ">
<polygon fill="white" stroke="#666666" points="1219.62,-146.5 1073.88,-146.5 1073.88,-110 1219.62,-110 1219.62,-146.5"/>
<text text-anchor="start" x="1081.88" y="-133" font-family="Helvetica,sans-Serif" font-size="10.00">CPS::CompositePowerComp</text>
<text text-anchor="middle" x="1146.75" y="-118.75" font-family="Helvetica,sans-Serif" font-size="10.00">&lt; Real &gt;</text>
</a>
</g>
</g>
<!-- Node2&#45;&gt;Node1 -->
<g id="edge1_Node000001_Node000002" class="edge">
<title>Node2&#45;&gt;Node1</title>
<g id="a_edge1_Node000001_Node000002"><a xlink:title=" ">
<path fill="none" stroke="#63b8ff" d="M1218.31,-106.23C1233.48,-101.5 1249.37,-96.54 1264.09,-91.94"/>
<polygon fill="#63b8ff" stroke="#63b8ff" points="1217.37,-102.86 1208.87,-109.18 1219.45,-109.54 1217.37,-102.86"/>
</a>
</g>
</g>
<!-- Node3 -->
<g id="Node000003" class="node">
<title>Node3</title>
<g id="a_Node000003"><a xlink:href="class_c_p_s_1_1_m_n_a_sim_power_comp.html" target="_top" xlink:title=" ">
<polygon fill="white" stroke="#666666" points="880.38,-180.5 744.38,-180.5 744.38,-144 880.38,-144 880.38,-180.5"/>
<text text-anchor="start" x="752.38" y="-167" font-family="Helvetica,sans-Serif" font-size="10.00">CPS::MNASimPowerComp</text>
<text text-anchor="middle" x="812.38" y="-152.75" font-family="Helvetica,sans-Serif" font-size="10.00">&lt; Real &gt;</text>
</a>
</g>
</g>
<!-- Node3&#45;&gt;Node2 -->
<g id="edge2_Node000002_Node000003" class="edge">
<title>Node3&#45;&gt;Node2</title>
<g id="a_edge2_Node000002_Node000003"><a xlink:title=" ">
<path fill="none" stroke="#63b8ff" d="M892.08,-154.2C947.05,-148.58 1019.89,-141.13 1073.41,-135.65"/>
<polygon fill="#63b8ff" stroke="#63b8ff" points="891.73,-150.72 882.14,-155.22 892.45,-157.68 891.73,-150.72"/>
</a>
</g>
</g>
<!-- Node4 -->
<g id="Node000004" class="node">
<title>Node4</title>
<g id="a_Node000004"><a xlink:href="class_c_p_s_1_1_sim_power_comp.html" target="_top" xlink:title=" ">
<polygon fill="white" stroke="#666666" points="656.62,-233.5 537.88,-233.5 537.88,-197 656.62,-197 656.62,-233.5"/>
<text text-anchor="start" x="545.88" y="-220" font-family="Helvetica,sans-Serif" font-size="10.00">CPS::SimPowerComp&lt;</text>
<text text-anchor="middle" x="597.25" y="-205.75" font-family="Helvetica,sans-Serif" font-size="10.00"> Real &gt;</text>
</a>
</g>
</g>
<!-- Node4&#45;&gt;Node3 -->
<g id="edge3_Node000003_Node000004" class="edge">
<title>Node4&#45;&gt;Node3</title>
<g id="a_edge3_Node000003_Node000004"><a xlink:title=" ">
<path fill="none" stroke="#63b8ff" d="M668.05,-197.89C692.5,-191.81 719.88,-185 744.11,-178.98"/>
<polygon fill="#63b8ff" stroke="#63b8ff" points="667.38,-194.45 658.52,-200.26 669.07,-201.25 667.38,-194.45"/>
</a>
</g>
</g>
<!-- Node5 -->
<g id="Node000005" class="node">
<title>Node5</title>
<g id="a_Node000005"><a xlink:href="class_c_p_s_1_1_topological_power_comp.html" target="_top" xlink:title=" ">
<polygon fill="white" stroke="#666666" points="299.25,-201.38 152,-201.38 152,-179.12 299.25,-179.12 299.25,-201.38"/>
<text text-anchor="middle" x="225.62" y="-187.88" font-family="Helvetica,sans-Serif" font-size="10.00">CPS::TopologicalPowerComp</text>
</a>
</g>
</g>
<!-- Node5&#45;&gt;Node4 -->
<g id="edge4_Node000004_Node000005" class="edge">
<title>Node5&#45;&gt;Node4</title>
<g id="a_edge4_Node000004_Node000005"><a xlink:title=" ">
<path fill="none" stroke="#63b8ff" d="M276.23,-204.75C294.88,-209.6 316.38,-214.47 336.25,-217.25 413.31,-228.03 433.51,-225.45 511.25,-222.25 519.83,-221.9 528.89,-221.35 537.76,-220.7"/>
<polygon fill="#63b8ff" stroke="#63b8ff" points="277.34,-201.43 266.78,-202.23 275.53,-208.19 277.34,-201.43"/>
</a>
</g>
</g>
<!-- Node7 -->
<g id="Node000007" class="node">
<title>Node7</title>
<g id="a_Node000007"><a xlink:href="class_c_p_s_1_1_sim_power_comp.html" target="_top" xlink:title="Base class for all components that are transmitting power.">
<polygon fill="white" stroke="#666666" points="455,-208.5 336.25,-208.5 336.25,-172 455,-172 455,-208.5"/>
<text text-anchor="start" x="344.25" y="-195" font-family="Helvetica,sans-Serif" font-size="10.00">CPS::SimPowerComp&lt;</text>
<text text-anchor="middle" x="395.62" y="-180.75" font-family="Helvetica,sans-Serif" font-size="10.00"> VarType &gt;</text>
</a>
</g>
</g>
<!-- Node5&#45;&gt;Node7 -->
<g id="edge7_Node000007_Node000005" class="edge">
<title>Node5&#45;&gt;Node7</title>
<g id="a_edge7_Node000007_Node000005"><a xlink:title=" ">
<path fill="none" stroke="#63b8ff" d="M310.58,-190.25C319.16,-190.25 327.74,-190.25 335.96,-190.25"/>
<polygon fill="#63b8ff" stroke="#63b8ff" points="310.85,-186.75 300.85,-190.25 310.85,-193.75 310.85,-186.75"/>
</a>
</g>
</g>
<!-- Node10 -->
<g id="Node000010" class="node">
<title>Node10</title>
<g id="a_Node000010"><a xlink:href="class_c_p_s_1_1_sim_power_comp.html" target="_top" xlink:title="Base class for all components that are transmitting power.">
<polygon fill="white" stroke="#666666" points="455,-114.5 336.25,-114.5 336.25,-78 455,-78 455,-114.5"/>
<text text-anchor="start" x="344.25" y="-101" font-family="Helvetica,sans-Serif" font-size="10.00">CPS::SimPowerComp&lt;</text>
<text text-anchor="middle" x="395.62" y="-86.75" font-family="Helvetica,sans-Serif" font-size="10.00"> VarType &gt;</text>
</a>
</g>
</g>
<!-- Node5&#45;&gt;Node10 -->
<g id="edge11_Node000010_Node000005" class="edge">
<title>Node5&#45;&gt;Node10</title>
<g id="a_edge11_Node000010_Node000005"><a xlink:title=" ">
<path fill="none" stroke="#63b8ff" d="M253.7,-172.49C275.58,-158.44 307.38,-138.68 336.25,-123.25 341.47,-120.46 347.03,-117.67 352.57,-114.99"/>
<polygon fill="#63b8ff" stroke="#63b8ff" points="251.87,-169.51 245.38,-177.88 255.67,-175.39 251.87,-169.51"/>
</a>
</g>
</g>
<!-- Node6 -->
<g id="Node000006" class="node">
<title>Node6</title>
<g id="a_Node000006"><a xlink:href="class_c_p_s_1_1_identified_object.html" target="_top" xlink:title=" ">
<polygon fill="white" stroke="#666666" points="115,-201.38 0,-201.38 0,-179.12 115,-179.12 115,-201.38"/>
<text text-anchor="middle" x="57.5" y="-187.88" font-family="Helvetica,sans-Serif" font-size="10.00">CPS::IdentifiedObject</text>
</a>
</g>
</g>
<!-- Node6&#45;&gt;Node5 -->
<g id="edge5_Node000005_Node000006" class="edge">
<title>Node6&#45;&gt;Node5</title>
<g id="a_edge5_Node000005_Node000006"><a xlink:title=" ">
<path fill="none" stroke="#63b8ff" d="M126.7,-190.25C134.95,-190.25 143.41,-190.25 151.73,-190.25"/>
<polygon fill="#63b8ff" stroke="#63b8ff" points="126.72,-186.75 116.72,-190.25 126.72,-193.75 126.72,-186.75"/>
</a>
</g>
</g>
<!-- Node7&#45;&gt;Node4 -->
<g id="edge6_Node000004_Node000007" class="edge">
<title>Node7&#45;&gt;Node4</title>
<g id="a_edge6_Node000004_Node000007"><a xlink:title=" ">
<path fill="none" stroke="orange" stroke-dasharray="5,2" d="M466.6,-199.01C489.76,-201.91 515.28,-205.11 537.51,-207.89"/>
<polygon fill="orange" stroke="orange" points="467.3,-195.57 456.94,-197.8 466.43,-202.52 467.3,-195.57"/>
</a>
</g>
<text text-anchor="middle" x="492.12" y="-209" font-family="Helvetica,sans-Serif" font-size="10.00" fill="grey"> &lt; Real &gt;</text>
</g>
<!-- Node8 -->
<g id="Node000008" class="node">
<title>Node8</title>
<g id="a_Node000008"><a xlink:href="class_c_p_s_1_1_m_n_a_interface.html" target="_top" xlink:title="Interface to be implemented by all models used by the MNA solver.">
<polygon fill="white" stroke="#666666" points="448.62,-154.38 342.62,-154.38 342.62,-132.12 448.62,-132.12 448.62,-154.38"/>
<text text-anchor="middle" x="395.62" y="-140.88" font-family="Helvetica,sans-Serif" font-size="10.00">CPS::MNAInterface</text>
</a>
</g>
</g>
<!-- Node8&#45;&gt;Node3 -->
<g id="edge8_Node000003_Node000008" class="edge">
<title>Node8&#45;&gt;Node3</title>
<g id="a_edge8_Node000003_Node000008"><a xlink:title=" ">
<path fill="none" stroke="#63b8ff" d="M460.38,-146.75C482.22,-147.91 506.8,-149.18 529.25,-150.25 602.7,-153.75 686.94,-157.27 744.1,-159.58"/>
<polygon fill="#63b8ff" stroke="#63b8ff" points="460.59,-143.25 450.41,-146.21 460.21,-150.24 460.59,-143.25"/>
</a>
</g>
</g>
<!-- Node9 -->
<g id="Node000009" class="node">
<title>Node9</title>
<g id="a_Node000009"><a xlink:href="class_c_p_s_1_1_m_n_a_sim_power_comp.html" target="_top" xlink:title="Base class for all MNA components that are transmitting power.">
<polygon fill="white" stroke="#666666" points="665.25,-141.5 529.25,-141.5 529.25,-105 665.25,-105 665.25,-141.5"/>
<text text-anchor="start" x="537.25" y="-128" font-family="Helvetica,sans-Serif" font-size="10.00">CPS::MNASimPowerComp</text>
<text text-anchor="middle" x="597.25" y="-113.75" font-family="Helvetica,sans-Serif" font-size="10.00">&lt; VarType &gt;</text>
</a>
</g>
</g>
<!-- Node8&#45;&gt;Node9 -->
<g id="edge12_Node000009_Node000008" class="edge">
<title>Node8&#45;&gt;Node9</title>
<g id="a_edge12_Node000009_Node000008"><a xlink:title=" ">
<path fill="none" stroke="#63b8ff" d="M460.28,-136.87C482.23,-134.67 506.88,-132.2 529.1,-129.98"/>
<polygon fill="#63b8ff" stroke="#63b8ff" points="460.18,-133.36 450.58,-137.84 460.88,-140.33 460.18,-133.36"/>
</a>
</g>
</g>
<!-- Node12 -->
<g id="Node000012" class="node">
<title>Node12</title>
<g id="a_Node000012"><a xlink:href="class_c_p_s_1_1_m_n_a_sim_power_comp.html" target="_top" xlink:title="Base class for all MNA components that are transmitting power.">
<polygon fill="white" stroke="#666666" points="665.25,-86.5 529.25,-86.5 529.25,-50 665.25,-50 665.25,-86.5"/>
<text text-anchor="start" x="537.25" y="-73" font-family="Helvetica,sans-Serif" font-size="10.00">CPS::MNASimPowerComp</text>
<text text-anchor="middle" x="597.25" y="-58.75" font-family="Helvetica,sans-Serif" font-size="10.00">&lt; VarType &gt;</text>
</a>
</g>
</g>
<!-- Node8&#45;&gt;Node12 -->
<g id="edge16_Node000012_Node000008" class="edge">
<title>Node8&#45;&gt;Node12</title>
<g id="a_edge16_Node000012_Node000008"><a xlink:title=" ">
<path fill="none" stroke="#63b8ff" d="M442.08,-127.88C446.46,-126.34 450.82,-124.78 455,-123.25 486.76,-111.63 522.22,-97.82 549.67,-86.94"/>
<polygon fill="#63b8ff" stroke="#63b8ff" points="441,-124.55 432.71,-131.14 443.3,-131.16 441,-124.55"/>
</a>
</g>
</g>
<!-- Node9&#45;&gt;Node3 -->
<g id="edge9_Node000003_Node000009" class="edge">
<title>Node9&#45;&gt;Node3</title>
<g id="a_edge9_Node000003_Node000009"><a xlink:title=" ">
<path fill="none" stroke="orange" stroke-dasharray="5,2" d="M676.84,-133.5C691.71,-135.74 707.11,-138.27 721.5,-141 728.9,-142.41 736.62,-144.01 744.28,-145.7"/>
<polygon fill="orange" stroke="orange" points="677.5,-130.06 667.09,-132.06 676.48,-136.98 677.5,-130.06"/>
</a>
</g>
<text text-anchor="middle" x="702.38" y="-145.75" font-family="Helvetica,sans-Serif" font-size="10.00" fill="grey"> &lt; Real &gt;</text>
</g>
<!-- Node10&#45;&gt;Node9 -->
<g id="edge10_Node000009_Node000010" class="edge">
<title>Node10&#45;&gt;Node9</title>
<g id="a_edge10_Node000009_Node000010"><a xlink:title=" ">
<path fill="none" stroke="#63b8ff" d="M466.79,-105.74C487.03,-108.48 509.05,-111.46 529.09,-114.17"/>
<polygon fill="#63b8ff" stroke="#63b8ff" points="467.32,-102.28 456.94,-104.41 466.38,-109.22 467.32,-102.28"/>
</a>
</g>
</g>
<!-- Node10&#45;&gt;Node12 -->
<g id="edge15_Node000012_Node000010" class="edge">
<title>Node10&#45;&gt;Node12</title>
<g id="a_edge15_Node000012_Node000010"><a xlink:title=" ">
<path fill="none" stroke="#63b8ff" d="M466.47,-83.25C468.67,-82.9 470.85,-82.57 473,-82.25 491.11,-79.57 510.78,-77.12 528.98,-75.05"/>
<polygon fill="#63b8ff" stroke="#63b8ff" points="466.15,-79.75 456.84,-84.82 467.28,-86.66 466.15,-79.75"/>
</a>
</g>
</g>
<!-- Node11 -->
<g id="Node000011" class="node">
<title>Node11</title>
<g id="a_Node000011"><a xlink:href="class_c_p_s_1_1_composite_power_comp.html" target="_top" xlink:title="Base class for composite power components.">
<polygon fill="white" stroke="#666666" points="885.25,-113.5 739.5,-113.5 739.5,-77 885.25,-77 885.25,-113.5"/>
<text text-anchor="start" x="747.5" y="-100" font-family="Helvetica,sans-Serif" font-size="10.00">CPS::CompositePowerComp</text>
<text text-anchor="middle" x="812.38" y="-85.75" font-family="Helvetica,sans-Serif" font-size="10.00">&lt; VarType &gt;</text>
</a>
</g>
</g>
<!-- Node11&#45;&gt;Node2 -->
<g id="edge13_Node000002_Node000011" class="edge">
<title>Node11&#45;&gt;Node2</title>
<g id="a_edge13_Node000002_Node000011"><a xlink:title=" ">
<path fill="none" stroke="orange" stroke-dasharray="5,2" d="M896.85,-103.54C951.24,-108.94 1021.49,-115.91 1073.48,-121.08"/>
<polygon fill="orange" stroke="orange" points="897.3,-100.07 887,-102.56 896.61,-107.03 897.3,-100.07"/>
</a>
</g>
<text text-anchor="middle" x="979.38" y="-123.25" font-family="Helvetica,sans-Serif" font-size="10.00" fill="grey"> &lt; Real &gt;</text>
</g>
<!-- Node12&#45;&gt;Node11 -->
<g id="edge14_Node000011_Node000012" class="edge">
<title>Node12&#45;&gt;Node11</title>
<g id="a_edge14_Node000011_Node000012"><a xlink:title=" ">
<path fill="none" stroke="#63b8ff" d="M676.85,-78.21C697.27,-80.79 719.16,-83.57 739.22,-86.11"/>
<polygon fill="#63b8ff" stroke="#63b8ff" points="677.55,-74.77 667.19,-76.98 676.67,-81.71 677.55,-74.77"/>
</a>
</g>
</g>
<!-- Node13 -->
<g id="Node000013" class="node">
<title>Node13</title>
<g id="a_Node000013"><a xlink:href="class_c_p_s_1_1_base_1_1_av_voltage_source_inverter_d_q.html" target="_top" xlink:title="Base model of average inverter.">
<polygon fill="white" stroke="#666666" points="1220,-91.5 1073.5,-91.5 1073.5,-55 1220,-55 1220,-91.5"/>
<text text-anchor="start" x="1081.5" y="-78" font-family="Helvetica,sans-Serif" font-size="10.00">CPS::Base::AvVoltageSource</text>
<text text-anchor="middle" x="1146.75" y="-63.75" font-family="Helvetica,sans-Serif" font-size="10.00">InverterDQ</text>
</a>
</g>
</g>
<!-- Node13&#45;&gt;Node1 -->
<g id="edge17_Node000001_Node000013" class="edge">
<title>Node13&#45;&gt;Node1</title>
<g id="a_edge17_Node000001_Node000013"><a xlink:title=" ">
<path fill="none" stroke="#63b8ff" d="M1231.74,-73.25C1240.06,-73.25 1248.43,-73.25 1256.55,-73.25"/>
<polygon fill="#63b8ff" stroke="#63b8ff" points="1231.97,-69.75 1221.97,-73.25 1231.97,-76.75 1231.97,-69.75"/>
</a>
</g>
</g>
<!-- Node14 -->
<g id="Node000014" class="node">
<title>Node14</title>
<g id="a_Node000014"><a xlink:href="class_shared_factory.html" target="_top" xlink:title=" ">
<polygon fill="white" stroke="#666666" points="1215.88,-36.5 1077.62,-36.5 1077.62,0 1215.88,0 1215.88,-36.5"/>
<text text-anchor="start" x="1085.62" y="-23" font-family="Helvetica,sans-Serif" font-size="10.00">SharedFactory&lt; AvVoltage</text>
<text text-anchor="middle" x="1146.75" y="-8.75" font-family="Helvetica,sans-Serif" font-size="10.00">SourceInverterDQ &gt;</text>
</a>
</g>
</g>
<!-- Node14&#45;&gt;Node1 -->
<g id="edge18_Node000001_Node000014" class="edge">
<title>Node14&#45;&gt;Node1</title>
<g id="a_edge18_Node000001_Node000014"><a xlink:title=" ">
<path fill="none" stroke="#63b8ff" d="M1218.31,-40.27C1233.48,-45 1249.37,-49.96 1264.09,-54.56"/>
<polygon fill="#63b8ff" stroke="#63b8ff" points="1219.45,-36.96 1208.87,-37.32 1217.37,-43.64 1219.45,-36.96"/>
</a>
</g>
</g>
<!-- Node15 -->
<g id="Node000015" class="node">
<title>Node15</title>
<g id="a_Node000015"><a xlink:href="class_shared_factory.html" target="_top" xlink:title=" ">
<polygon fill="white" stroke="#666666" points="864.62,-29.38 760.12,-29.38 760.12,-7.12 864.62,-7.12 864.62,-29.38"/>
<text text-anchor="middle" x="812.38" y="-15.88" font-family="Helvetica,sans-Serif" font-size="10.00">SharedFactory&lt; T &gt;</text>
</a>
</g>
</g>
<!-- Node15&#45;&gt;Node14 -->
<g id="edge19_Node000014_Node000015" class="edge">
<title>Node15&#45;&gt;Node14</title>
<g id="a_edge19_Node000014_Node000015"><a xlink:title=" ">
<path fill="none" stroke="orange" stroke-dasharray="5,2" d="M876.4,-18.25C933.78,-18.25 1018.32,-18.25 1077.33,-18.25"/>
<polygon fill="orange" stroke="orange" points="876.46,-14.75 866.46,-18.25 876.46,-21.75 876.46,-14.75"/>
</a>
</g>
<text text-anchor="middle" x="979.38" y="-23" font-family="Helvetica,sans-Serif" font-size="10.00" fill="grey"> &lt; AvVoltageSourceInverterDQ &gt;</text>
</g>
</g>
</svg>

<g id="navigator" transform="translate(0 0)" fill="#404254">
  <rect fill="#f2f5e9" fill-opacity="0.5" stroke="#606060" stroke-width=".5" x="0" y="0" width="60" height="60"/>
  <use id="zoomplus" xlink:href="#zoomPlus" x="17" y="9" onmousedown="handleZoom(evt,'in')"/>
  <use id="zoomminus" xlink:href="#zoomMin" x="42" y="9" onmousedown="handleZoom(evt,'out')"/>
  <use id="reset" xlink:href="#resetDef" x="30" y="36" onmousedown="handleReset()"/>
   <use id="arrowup" xlink:href="#arrowUp" x="0" y="0" onmousedown="handlePan(0,-1)"/>
  <use id="arrowright" xlink:href="#arrowRight" x="0" y="0" onmousedown="handlePan(1,0)"/>
  <use id="arrowdown" xlink:href="#arrowDown" x="0" y="0" onmousedown="handlePan(0,1)"/>
  <use id="arrowleft" xlink:href="#arrowLeft" x="0" y="0" onmousedown="handlePan(-1,0)"/>
</g>
<svg viewBox="0 0 15 15" width="100%" height="30px" preserveAspectRatio="xMaxYMin meet">
 <g id="arrow_out" transform="scale(0.3 0.3)">
  <a xlink:href="class_c_p_s_1_1_e_m_t_1_1_ph3_1_1_av_voltage_source_inverter_d_q__inherit__graph_org.svg" target="_base">
   <rect id="button" ry="5" rx="5" y="6" x="6" height="38" width="38"
        fill="#f2f5e9" fill-opacity="0.5" stroke="#606060" stroke-width="1.0"/>
   <path id="arrow"
     d="M 11.500037,31.436501 C 11.940474,20.09759 22.043105,11.32322 32.158766,21.979434 L 37.068811,17.246167 C 37.068811,17.246167 37.088388,32 37.088388,32 L 22.160133,31.978069 C 22.160133,31.978069 26.997745,27.140456 26.997745,27.140456 C 18.528582,18.264221 13.291696,25.230495 11.500037,31.436501 z"
     style="fill:#404040;"/>
  </a>
 </g>
</svg>

<style type='text/css'>
<![CDATA[
[data-mouse-over-selected='false'] { opacity: 0.7; }
[data-mouse-over-selected='true']  { opacity: 1.0; }
]]>
</style>
<script type="application/ecmascript"><![CDATA[
document.addEventListener('DOMContentLoaded', (event) => {
  highlightEdges();
  highlightAdjacentNodes();
});
]]></script>
</svg>
