<?xml version="1.0" encoding="UTF-8" standalone="no"?>
<!DOCTYPE svg PUBLIC "-//W3C//DTD SVG 1.1//EN"
 "http://www.w3.org/Graphics/SVG/1.1/DTD/svg11.dtd">
<!-- Generated by graphviz version 2.44.0 (0)
 -->
<!-- Title: CPS::SP::Ph1::VDNode Pages: 1 -->
<!--zoomable 333 -->
<svg id="main" version="1.1" xmlns="http://www.w3.org/2000/svg" xmlns:xlink="http://www.w3.org/1999/xlink" xml:space="preserve" onload="init(evt)">
<style type="text/css"><![CDATA[
.edge:hover path { stroke: red; }
.edge:hover polygon { stroke: red; fill: red; }
]]></style>
<script type="text/javascript"><![CDATA[
var edges = document.getElementsByTagName('g');
if (edges && edges.length) {
  for (var i=0;i<edges.length;i++) {
    if (edges[i].id.substr(0,4)=='edge') {
      edges[i].setAttribute('class','edge');
    }
  }
}
]]></script>
        <defs>
                <circle id="rim" cx="0" cy="0" r="7"/>
                <circle id="rim2" cx="0" cy="0" r="3.5"/>
                <g id="zoomPlus">
                        <use xlink:href="#rim" fill="#404040">
                                <set attributeName="fill" to="#808080" begin="zoomplus.mouseover" end="zoomplus.mouseout"/>
                        </use>
                        <path d="M-4,0h8M0,-4v8" fill="none" stroke="white" stroke-width="1.5" pointer-events="none"/>
                </g>
                <g id="zoomMin">
                        <use xlink:href="#rim" fill="#404040">
                                <set attributeName="fill" to="#808080" begin="zoomminus.mouseover" end="zoomminus.mouseout"/>
                        </use>
                        <path d="M-4,0h8" fill="none" stroke="white" stroke-width="1.5" pointer-events="none"/>
                </g>
                <g id="dirArrow">
                        <path fill="none" stroke="white" stroke-width="1.5" d="M0,-3.0v7 M-2.5,-0.5L0,-3.0L2.5,-0.5"/>
                </g>
               <g id="resetDef">
                       <use xlink:href="#rim2" fill="#404040">
                               <set attributeName="fill" to="#808080" begin="reset.mouseover" end="reset.mouseout"/>
                       </use>
               </g>
        </defs>

<script type="text/javascript">
var viewWidth = 1662;
var viewHeight = 333;
var sectionId = 'dynsection-1';
</script>
<script xlink:href="svgpan.js"/>
<svg id="graph" class="graph">
<g id="viewport">
<title>CPS::SP::Ph1::VDNode</title>
<!-- Node1 -->
<g id="node1" class="node">
<title>Node1</title>
<g id="a_node1"><a xlink:title=" ">
<polygon fill="#bfbfbf" stroke="black" points="1530,-140.5 1530,-159.5 1654,-159.5 1654,-140.5 1530,-140.5"/>
<text text-anchor="middle" x="1592" y="-147.5" font-family="Helvetica" font-size="10.00">CPS::SP::Ph1::VDNode</text>
</a>
</g>
</g>
<!-- Node2 -->
<g id="node2" class="node">
<title>Node2</title>
<g id="a_node2"><a xlink:href="class_c_p_s_1_1_sim_power_comp.html" target="_top" xlink:title=" ">
<polygon fill="none" stroke="black" points="1364.5,-135 1364.5,-165 1484.5,-165 1484.5,-135 1364.5,-135"/>
<text text-anchor="start" x="1372.5" y="-153" font-family="Helvetica" font-size="10.00">CPS::SimPowerComp&lt;</text>
<text text-anchor="middle" x="1424.5" y="-142" font-family="Helvetica" font-size="10.00"> Complex &gt;</text>
</a>
</g>
</g>
<!-- Node2&#45;&gt;Node1 -->
<g id="edge1" class="edge">
<title>Node2&#45;&gt;Node1</title>
<path fill="none" stroke="midnightblue" d="M1494.88,-150C1506.51,-150 1518.5,-150 1529.9,-150"/>
<polygon fill="midnightblue" stroke="midnightblue" points="1494.78,-146.5 1484.78,-150 1494.78,-153.5 1494.78,-146.5"/>
</g>
<!-- Node3 -->
<g id="node3" class="node">
<title>Node3</title>
<g id="a_node3"><a xlink:href="class_c_p_s_1_1_topological_power_comp.html" target="_top" xlink:title=" ">
<polygon fill="none" stroke="black" points="846,-103.5 846,-122.5 992,-122.5 992,-103.5 846,-103.5"/>
<text text-anchor="middle" x="919" y="-110.5" font-family="Helvetica" font-size="10.00">CPS::TopologicalPowerComp</text>
</a>
</g>
</g>
<!-- Node3&#45;&gt;Node2 -->
<g id="edge2" class="edge">
<title>Node3&#45;&gt;Node2</title>
<path fill="none" stroke="midnightblue" d="M1002.48,-116.4C1071.18,-119.52 1171.55,-124.77 1259,-132 1293.93,-134.89 1332.93,-139.11 1364.18,-142.74"/>
<polygon fill="midnightblue" stroke="midnightblue" points="1002.31,-112.89 992.16,-115.93 1001.99,-119.88 1002.31,-112.89"/>
</g>
<!-- Node11 -->
<g id="node11" class="node">
<title>Node11</title>
<g id="a_node11"><a xlink:href="class_c_p_s_1_1_sim_power_comp.html" target="_top" xlink:title="Base class for all components that are transmitting power.">
<polygon fill="none" stroke="black" points="1139,-142 1139,-172 1259,-172 1259,-142 1139,-142"/>
<text text-anchor="start" x="1147" y="-160" font-family="Helvetica" font-size="10.00">CPS::SimPowerComp&lt;</text>
<text text-anchor="middle" x="1199" y="-149" font-family="Helvetica" font-size="10.00"> VarType &gt;</text>
</a>
</g>
</g>
<!-- Node3&#45;&gt;Node11 -->
<g id="edge12" class="edge">
<title>Node3&#45;&gt;Node11</title>
<path fill="none" stroke="midnightblue" d="M990.48,-124.15C1036.29,-131.41 1095.36,-140.75 1138.75,-147.62"/>
<polygon fill="midnightblue" stroke="midnightblue" points="990.75,-120.65 980.32,-122.55 989.65,-127.57 990.75,-120.65"/>
</g>
<!-- Node4 -->
<g id="node4" class="node">
<title>Node4</title>
<g id="a_node4"><a xlink:href="class_c_p_s_1_1_identified_object.html" target="_top" xlink:title=" ">
<polygon fill="none" stroke="black" points="640,-100.5 640,-119.5 752,-119.5 752,-100.5 640,-100.5"/>
<text text-anchor="middle" x="696" y="-107.5" font-family="Helvetica" font-size="10.00">CPS::IdentifiedObject</text>
</a>
</g>
</g>
<!-- Node4&#45;&gt;Node3 -->
<g id="edge3" class="edge">
<title>Node4&#45;&gt;Node3</title>
<path fill="none" stroke="midnightblue" d="M762.43,-110.89C788.71,-111.24 819.09,-111.66 846,-112.02"/>
<polygon fill="midnightblue" stroke="midnightblue" points="762.24,-107.39 752.2,-110.75 762.15,-114.38 762.24,-107.39"/>
</g>
<!-- Node5 -->
<g id="node5" class="node">
<title>Node5</title>
<g id="a_node5"><a xlink:href="class_c_p_s_1_1_attribute_list.html" target="_top" xlink:title="Base class of objects having attributes to access member variables.">
<polygon fill="none" stroke="black" points="452.5,-100.5 452.5,-119.5 548.5,-119.5 548.5,-100.5 452.5,-100.5"/>
<text text-anchor="middle" x="500.5" y="-107.5" font-family="Helvetica" font-size="10.00">CPS::AttributeList</text>
</a>
</g>
</g>
<!-- Node5&#45;&gt;Node4 -->
<g id="edge4" class="edge">
<title>Node5&#45;&gt;Node4</title>
<path fill="none" stroke="midnightblue" d="M559.13,-110C584.7,-110 614.66,-110 639.92,-110"/>
<polygon fill="midnightblue" stroke="midnightblue" points="558.84,-106.5 548.84,-110 558.84,-113.5 558.84,-106.5"/>
</g>
<!-- Node6 -->
<g id="node6" class="node">
<title>Node6</title>
<g id="a_node6"><a xlink:href="class_c_p_s_1_1_attribute.html" target="_top" xlink:title=" ">
<polygon fill="none" stroke="black" points="438.5,-61.5 438.5,-80.5 562.5,-80.5 562.5,-61.5 438.5,-61.5"/>
<text text-anchor="middle" x="500.5" y="-68.5" font-family="Helvetica" font-size="10.00">CPS::Attribute&lt; String &gt;</text>
</a>
</g>
</g>
<!-- Node6&#45;&gt;Node4 -->
<g id="edge5" class="edge">
<title>Node6&#45;&gt;Node4</title>
<path fill="none" stroke="#9a32cd" stroke-dasharray="5,2" d="M572.68,-75.88C589,-77.77 606.2,-80.39 622,-84 639.31,-87.96 658.18,-94.75 672.4,-100.4"/>
<polygon fill="#9a32cd" stroke="#9a32cd" points="572.96,-72.39 562.64,-74.79 572.21,-79.35 572.96,-72.39"/>
<text text-anchor="middle" x="603" y="-98" font-family="Helvetica" font-size="10.00"> mName</text>
<text text-anchor="middle" x="603" y="-87" font-family="Helvetica" font-size="10.00">mUID</text>
</g>
<!-- Node7 -->
<g id="node7" class="node">
<title>Node7</title>
<g id="a_node7"><a xlink:href="class_c_p_s_1_1_attribute_base.html" target="_top" xlink:title=" ">
<polygon fill="none" stroke="black" points="2.5,-181.5 2.5,-200.5 105.5,-200.5 105.5,-181.5 2.5,-181.5"/>
<text text-anchor="middle" x="54" y="-188.5" font-family="Helvetica" font-size="10.00">CPS::AttributeBase</text>
</a>
</g>
</g>
<!-- Node7&#45;&gt;Node6 -->
<g id="edge6" class="edge">
<title>Node7&#45;&gt;Node6</title>
<path fill="none" stroke="midnightblue" d="M65.93,-172.72C80.67,-149.96 109.26,-112 145,-95 239.7,-49.95 364.95,-54.15 438.42,-62.05"/>
<polygon fill="midnightblue" stroke="midnightblue" points="62.81,-171.11 60.48,-181.44 68.75,-174.82 62.81,-171.11"/>
</g>
<!-- Node9 -->
<g id="node9" class="node">
<title>Node9</title>
<g id="a_node9"><a xlink:href="class_c_p_s_1_1_attribute.html" target="_top" xlink:title=" ">
<polygon fill="none" stroke="black" points="162,-104.5 162,-123.5 266,-123.5 266,-104.5 162,-104.5"/>
<text text-anchor="middle" x="214" y="-111.5" font-family="Helvetica" font-size="10.00">CPS::Attribute&lt; T &gt;</text>
</a>
</g>
</g>
<!-- Node7&#45;&gt;Node9 -->
<g id="edge9" class="edge">
<title>Node7&#45;&gt;Node9</title>
<path fill="none" stroke="midnightblue" d="M75.48,-175.25C93.08,-162.35 119.59,-144.42 145,-133 153.27,-129.28 162.45,-126.12 171.31,-123.52"/>
<polygon fill="midnightblue" stroke="midnightblue" points="73.05,-172.69 67.13,-181.48 77.24,-178.3 73.05,-172.69"/>
</g>
<!-- Node12 -->
<g id="node12" class="node">
<title>Node12</title>
<g id="a_node12"><a xlink:href="class_c_p_s_1_1_attribute.html" target="_top" xlink:title=" ">
<polygon fill="none" stroke="black" points="435,-148 435,-178 566,-178 566,-148 435,-148"/>
<text text-anchor="start" x="443" y="-166" font-family="Helvetica" font-size="10.00">CPS::Attribute&lt; MatrixVar</text>
<text text-anchor="middle" x="500.5" y="-155" font-family="Helvetica" font-size="10.00">&lt; VarType &gt; &gt;</text>
</a>
</g>
</g>
<!-- Node7&#45;&gt;Node12 -->
<g id="edge14" class="edge">
<title>Node7&#45;&gt;Node12</title>
<path fill="none" stroke="midnightblue" d="M105.69,-202.59C176.57,-216.75 308.77,-235.6 417,-208 439.61,-202.24 462.7,-188.87 478.68,-178.19"/>
<polygon fill="midnightblue" stroke="midnightblue" points="106.19,-199.12 95.69,-200.55 104.78,-205.98 106.19,-199.12"/>
</g>
<!-- Node16 -->
<g id="node16" class="node">
<title>Node16</title>
<g id="a_node16"><a xlink:href="class_c_p_s_1_1_attribute.html" target="_top" xlink:title=" ">
<polygon fill="none" stroke="black" points="441.5,-221.5 441.5,-240.5 559.5,-240.5 559.5,-221.5 441.5,-221.5"/>
<text text-anchor="middle" x="500.5" y="-228.5" font-family="Helvetica" font-size="10.00">CPS::Attribute&lt; Real &gt;</text>
</a>
</g>
</g>
<!-- Node7&#45;&gt;Node16 -->
<g id="edge20" class="edge">
<title>Node7&#45;&gt;Node16</title>
<path fill="none" stroke="midnightblue" d="M80.58,-205.42C98.1,-214.45 122.22,-225.24 145,-230 247.57,-251.42 370.5,-244.79 441.35,-237.95"/>
<polygon fill="midnightblue" stroke="midnightblue" points="82.04,-202.23 71.57,-200.63 78.76,-208.41 82.04,-202.23"/>
</g>
<!-- Node8 -->
<g id="node8" class="node">
<title>Node8</title>
<g id="a_node8"><a xlink:title=" ">
<polygon fill="none" stroke="#bfbfbf" points="160,-0.5 160,-41.5 268,-41.5 268,-0.5 160,-0.5"/>
<text text-anchor="start" x="168" y="-29.5" font-family="Helvetica" font-size="10.00">std::enable_shared</text>
<text text-anchor="start" x="168" y="-18.5" font-family="Helvetica" font-size="10.00">_from_this&lt; Attribute</text>
<text text-anchor="middle" x="214" y="-7.5" font-family="Helvetica" font-size="10.00">&lt; String &gt; &gt;</text>
</a>
</g>
</g>
<!-- Node8&#45;&gt;Node6 -->
<g id="edge7" class="edge">
<title>Node8&#45;&gt;Node6</title>
<path fill="none" stroke="midnightblue" d="M278.28,-31.83C318.11,-38.67 370.58,-47.76 417,-56 426.89,-57.76 437.44,-59.65 447.58,-61.49"/>
<polygon fill="midnightblue" stroke="midnightblue" points="278.63,-28.34 268.18,-30.09 277.45,-35.23 278.63,-28.34"/>
</g>
<!-- Node9&#45;&gt;Node6 -->
<g id="edge8" class="edge">
<title>Node9&#45;&gt;Node6</title>
<path fill="none" stroke="orange" stroke-dasharray="5,2" d="M276.12,-104.76C324.04,-97.52 390.4,-87.49 438.33,-80.25"/>
<polygon fill="orange" stroke="orange" points="275.56,-101.31 266.19,-106.26 276.6,-108.23 275.56,-101.31"/>
<text text-anchor="middle" x="359" y="-104" font-family="Helvetica" font-size="10.00"> &lt; String &gt;</text>
</g>
<!-- Node9&#45;&gt;Node12 -->
<g id="edge16" class="edge">
<title>Node9&#45;&gt;Node12</title>
<path fill="none" stroke="orange" stroke-dasharray="5,2" d="M275.98,-124.05C316.08,-130.71 369.69,-139.72 417,-148 422.74,-149 428.69,-150.06 434.66,-151.13"/>
<polygon fill="orange" stroke="orange" points="276.53,-120.59 266.09,-122.41 275.38,-127.5 276.53,-120.59"/>
<text text-anchor="middle" x="359" y="-151" font-family="Helvetica" font-size="10.00"> &lt; MatrixVar&lt; VarType &gt; &gt;</text>
</g>
<!-- Node9&#45;&gt;Node16 -->
<g id="edge22" class="edge">
<title>Node9&#45;&gt;Node16</title>
<path fill="none" stroke="orange" stroke-dasharray="5,2" d="M275.17,-127.92C277.91,-129.44 280.54,-131.13 283,-133 295.37,-142.43 288.91,-153.22 301,-163 341.5,-195.76 398.69,-213.14 441.29,-222.1"/>
<polygon fill="orange" stroke="orange" points="276.6,-124.73 266.07,-123.6 273.6,-131.05 276.6,-124.73"/>
<text text-anchor="middle" x="359" y="-219" font-family="Helvetica" font-size="10.00"> &lt; Real &gt;</text>
</g>
<!-- Node10 -->
<g id="node10" class="node">
<title>Node10</title>
<g id="a_node10"><a xlink:title=" ">
<polygon fill="none" stroke="#bfbfbf" points="0,-24.5 0,-65.5 108,-65.5 108,-24.5 0,-24.5"/>
<text text-anchor="start" x="8" y="-53.5" font-family="Helvetica" font-size="10.00">std::enable_shared</text>
<text text-anchor="start" x="8" y="-42.5" font-family="Helvetica" font-size="10.00">_from_this&lt; Attribute</text>
<text text-anchor="middle" x="54" y="-31.5" font-family="Helvetica" font-size="10.00">&lt; T &gt; &gt;</text>
</a>
</g>
</g>
<!-- Node10&#45;&gt;Node9 -->
<g id="edge10" class="edge">
<title>Node10&#45;&gt;Node9</title>
<path fill="none" stroke="midnightblue" d="M111.16,-69.52C138.75,-81.57 170.41,-95.4 191.01,-104.4"/>
<polygon fill="midnightblue" stroke="midnightblue" points="112.54,-66.31 101.98,-65.52 109.74,-72.73 112.54,-66.31"/>
</g>
<!-- Node11&#45;&gt;Node2 -->
<g id="edge11" class="edge">
<title>Node11&#45;&gt;Node2</title>
<path fill="none" stroke="orange" stroke-dasharray="5,2" d="M1269.13,-154.83C1299.56,-153.88 1334.94,-152.77 1364.15,-151.86"/>
<polygon fill="orange" stroke="orange" points="1268.9,-151.34 1259.01,-155.15 1269.12,-158.34 1268.9,-151.34"/>
<text text-anchor="middle" x="1307.5" y="-158" font-family="Helvetica" font-size="10.00"> &lt; Complex &gt;</text>
</g>
<!-- Node12&#45;&gt;Node11 -->
<g id="edge13" class="edge">
<title>Node12&#45;&gt;Node11</title>
<path fill="none" stroke="#9a32cd" stroke-dasharray="5,2" d="M576.25,-162.36C715.61,-161.16 1012.41,-158.6 1138.91,-157.51"/>
<polygon fill="#9a32cd" stroke="#9a32cd" points="576.06,-158.86 566.09,-162.44 576.12,-165.86 576.06,-158.86"/>
<text text-anchor="middle" x="799" y="-175" font-family="Helvetica" font-size="10.00"> mIntfCurrent</text>
<text text-anchor="middle" x="799" y="-164" font-family="Helvetica" font-size="10.00">mIntfVoltage</text>
</g>
<!-- Node13 -->
<g id="node13" class="node">
<title>Node13</title>
<g id="a_node13"><a xlink:title=" ">
<polygon fill="none" stroke="#bfbfbf" points="145,-142.5 145,-183.5 283,-183.5 283,-142.5 145,-142.5"/>
<text text-anchor="start" x="153" y="-171.5" font-family="Helvetica" font-size="10.00">std::enable_shared</text>
<text text-anchor="start" x="153" y="-160.5" font-family="Helvetica" font-size="10.00">_from_this&lt; Attribute</text>
<text text-anchor="middle" x="214" y="-149.5" font-family="Helvetica" font-size="10.00">&lt; MatrixVar&lt; VarType &gt; &gt; &gt;</text>
</a>
</g>
</g>
<!-- Node13&#45;&gt;Node12 -->
<g id="edge15" class="edge">
<title>Node13&#45;&gt;Node12</title>
<path fill="none" stroke="midnightblue" d="M293.34,-163C337.82,-163 392.84,-163 434.84,-163"/>
<polygon fill="midnightblue" stroke="midnightblue" points="293.14,-159.5 283.14,-163 293.14,-166.5 293.14,-159.5"/>
</g>
<!-- Node14 -->
<g id="node14" class="node">
<title>Node14</title>
<g id="a_node14"><a xlink:href="class_shared_factory.html" target="_top" xlink:title=" ">
<polygon fill="none" stroke="black" points="1356,-77.5 1356,-96.5 1493,-96.5 1493,-77.5 1356,-77.5"/>
<text text-anchor="middle" x="1424.5" y="-84.5" font-family="Helvetica" font-size="10.00">SharedFactory&lt; VDNode &gt;</text>
</a>
</g>
</g>
<!-- Node14&#45;&gt;Node1 -->
<g id="edge17" class="edge">
<title>Node14&#45;&gt;Node1</title>
<path fill="none" stroke="midnightblue" d="M1460.36,-100.27C1491.96,-112.3 1537.76,-129.73 1565.9,-140.45"/>
<polygon fill="midnightblue" stroke="midnightblue" points="1461.23,-96.85 1450.64,-96.57 1458.74,-103.4 1461.23,-96.85"/>
</g>
<!-- Node15 -->
<g id="node15" class="node">
<title>Node15</title>
<g id="a_node15"><a xlink:href="class_shared_factory.html" target="_top" xlink:title=" ">
<polygon fill="none" stroke="black" points="1146.5,-65.5 1146.5,-84.5 1251.5,-84.5 1251.5,-65.5 1146.5,-65.5"/>
<text text-anchor="middle" x="1199" y="-72.5" font-family="Helvetica" font-size="10.00">SharedFactory&lt; T &gt;</text>
</a>
</g>
</g>
<!-- Node15&#45;&gt;Node14 -->
<g id="edge18" class="edge">
<title>Node15&#45;&gt;Node14</title>
<path fill="none" stroke="orange" stroke-dasharray="5,2" d="M1261.62,-78.31C1290.8,-79.88 1325.74,-81.75 1355.67,-83.36"/>
<polygon fill="orange" stroke="orange" points="1261.73,-74.81 1251.56,-77.77 1261.35,-81.8 1261.73,-74.81"/>
<text text-anchor="middle" x="1307.5" y="-86" font-family="Helvetica" font-size="10.00"> &lt; VDNode &gt;</text>
</g>
<!-- Node16&#45;&gt;Node1 -->
<g id="edge19" class="edge">
<title>Node16&#45;&gt;Node1</title>
<path fill="none" stroke="#9a32cd" stroke-dasharray="5,2" d="M553.16,-219.41C591.97,-211.71 646.55,-203 695,-203 695,-203 695,-203 1425.5,-203 1481.62,-203 1543.55,-175.02 1573.23,-159.72"/>
<polygon fill="#9a32cd" stroke="#9a32cd" points="552.25,-216.02 543.15,-221.44 553.64,-222.88 552.25,-216.02"/>
<text text-anchor="middle" x="1065.5" y="-217" font-family="Helvetica" font-size="10.00"> mDeltaSetPoint</text>
<text text-anchor="middle" x="1065.5" y="-206" font-family="Helvetica" font-size="10.00">mVoltageSetPointPerUnit</text>
</g>
<!-- Node17 -->
<g id="node17" class="node">
<title>Node17</title>
<g id="a_node17"><a xlink:title=" ">
<polygon fill="none" stroke="#bfbfbf" points="160,-283.5 160,-324.5 268,-324.5 268,-283.5 160,-283.5"/>
<text text-anchor="start" x="168" y="-312.5" font-family="Helvetica" font-size="10.00">std::enable_shared</text>
<text text-anchor="start" x="168" y="-301.5" font-family="Helvetica" font-size="10.00">_from_this&lt; Attribute</text>
<text text-anchor="middle" x="214" y="-290.5" font-family="Helvetica" font-size="10.00">&lt; Real &gt; &gt;</text>
</a>
</g>
</g>
<!-- Node17&#45;&gt;Node16 -->
<g id="edge21" class="edge">
<title>Node17&#45;&gt;Node16</title>
<path fill="none" stroke="midnightblue" d="M278.17,-297.34C318.51,-292.05 371.57,-283.13 417,-269 440.49,-261.69 465.99,-249.18 482.32,-240.52"/>
<polygon fill="midnightblue" stroke="midnightblue" points="277.68,-293.88 268.2,-298.61 278.57,-300.82 277.68,-293.88"/>
</g>
</g>
</svg>
        <g id="navigator" transform="translate(0 0)" fill="#404254">
                <rect fill="#f2f5e9" fill-opacity="0.5" stroke="#606060" stroke-width=".5" x="0" y="0" width="60" height="60"/>
                <use id="zoomplus" xlink:href="#zoomPlus" x="17" y="9" onmousedown="handleZoom(evt,'in')"/>
                <use id="zoomminus" xlink:href="#zoomMin" x="42" y="9" onmousedown="handleZoom(evt,'out')"/>
                <use id="reset" xlink:href="#resetDef" x="30" y="36" onmousedown="handleReset()"/>
                <g id="arrowUp" xlink:href="#dirArrow" transform="translate(30 24)" onmousedown="handlePan(0,-1)">
                  <use xlink:href="#rim" fill="#404040">
                        <set attributeName="fill" to="#808080" begin="arrowUp.mouseover" end="arrowUp.mouseout"/>
                  </use>
                  <path fill="none" stroke="white" stroke-width="1.5" d="M0,-3.0v7 M-2.5,-0.5L0,-3.0L2.5,-0.5"/>
                </g>
                <g id="arrowRight" xlink:href="#dirArrow" transform="rotate(90) translate(36 -43)" onmousedown="handlePan(1,0)">
                  <use xlink:href="#rim" fill="#404040">
                        <set attributeName="fill" to="#808080" begin="arrowRight.mouseover" end="arrowRight.mouseout"/>
                  </use>
                  <path fill="none" stroke="white" stroke-width="1.5" d="M0,-3.0v7 M-2.5,-0.5L0,-3.0L2.5,-0.5"/>
                </g>
                <g id="arrowDown" xlink:href="#dirArrow" transform="rotate(180) translate(-30 -48)" onmousedown="handlePan(0,1)">
                  <use xlink:href="#rim" fill="#404040">
                        <set attributeName="fill" to="#808080" begin="arrowDown.mouseover" end="arrowDown.mouseout"/>
                  </use>
                  <path fill="none" stroke="white" stroke-width="1.5" d="M0,-3.0v7 M-2.5,-0.5L0,-3.0L2.5,-0.5"/>
                </g>
                <g id="arrowLeft" xlink:href="#dirArrow" transform="rotate(270) translate(-36 17)" onmousedown="handlePan(-1,0)">
                  <use xlink:href="#rim" fill="#404040">
                        <set attributeName="fill" to="#808080" begin="arrowLeft.mouseover" end="arrowLeft.mouseout"/>
                  </use>
                  <path fill="none" stroke="white" stroke-width="1.5" d="M0,-3.0v7 M-2.5,-0.5L0,-3.0L2.5,-0.5"/>
                </g>
        </g>
        <svg viewBox="0 0 15 15" width="100%" height="30px" preserveAspectRatio="xMaxYMin meet">
         <g id="arrow_out" transform="scale(0.3 0.3)">
          <a xlink:href="class_c_p_s_1_1_s_p_1_1_ph1_1_1_v_d_node__coll__graph_org.svg" target="_base">
           <rect id="button" ry="5" rx="5" y="6" x="6" height="38" width="38"
                fill="#f2f5e9" fill-opacity="0.5" stroke="#606060" stroke-width="1.0"/>
           <path id="arrow"
             d="M 11.500037,31.436501 C 11.940474,20.09759 22.043105,11.32322 32.158766,21.979434 L 37.068811,17.246167 C 37.068811,17.246167 37.088388,32 37.088388,32 L 22.160133,31.978069 C 22.160133,31.978069 26.997745,27.140456 26.997745,27.140456 C 18.528582,18.264221 13.291696,25.230495 11.500037,31.436501 z"
             style="fill:#404040;"/>
          </a>
         </g>
        </svg>
</svg>
