<?xml version="1.0" encoding="UTF-8" standalone="no"?>
<!DOCTYPE svg PUBLIC "-//W3C//DTD SVG 1.1//EN"
 "http://www.w3.org/Graphics/SVG/1.1/DTD/svg11.dtd">
<!-- Generated by graphviz version 2.44.0 (0)
 -->
<!-- Title: DPsim::MnaSolverEigenSparse&lt; VarType &gt; Pages: 1 -->
<svg width="324pt" height="218pt"
 viewBox="0.00 0.00 323.50 218.00" xmlns="http://www.w3.org/2000/svg" xmlns:xlink="http://www.w3.org/1999/xlink">
<g id="graph0" class="graph" transform="scale(1 1) rotate(0) translate(4 214)">
<title>DPsim::MnaSolverEigenSparse&lt; VarType &gt;</title>
<!-- Node1 -->
<g id="node1" class="node">
<title>Node1</title>
<g id="a_node1"><a xlink:title="Solver class using Modified Nodal Analysis (MNA).">
<polygon fill="#bfbfbf" stroke="black" points="80,-67.5 80,-97.5 235,-97.5 235,-67.5 80,-67.5"/>
<text text-anchor="start" x="88" y="-85.5" font-family="Helvetica" font-size="10.00">DPsim::MnaSolverEigenSparse</text>
<text text-anchor="middle" x="157.5" y="-74.5" font-family="Helvetica" font-size="10.00">&lt; VarType &gt;</text>
</a>
</g>
</g>
<!-- Node5 -->
<g id="node5" class="node">
<title>Node5</title>
<g id="a_node5"><a xlink:href="class_d_psim_1_1_mna_solver_gpu_magma.html" target="_top" xlink:title=" ">
<polygon fill="none" stroke="black" points="0,-0.5 0,-30.5 149,-30.5 149,-0.5 0,-0.5"/>
<text text-anchor="start" x="8" y="-18.5" font-family="Helvetica" font-size="10.00">DPsim::MnaSolverGpuMagma</text>
<text text-anchor="middle" x="74.5" y="-7.5" font-family="Helvetica" font-size="10.00">&lt; VarType &gt;</text>
</a>
</g>
</g>
<!-- Node1&#45;&gt;Node5 -->
<g id="edge4" class="edge">
<title>Node1&#45;&gt;Node5</title>
<path fill="none" stroke="midnightblue" d="M131.54,-61.17C118.85,-51.23 103.89,-39.51 92.47,-30.58"/>
<polygon fill="midnightblue" stroke="midnightblue" points="129.46,-63.99 139.49,-67.4 133.78,-58.47 129.46,-63.99"/>
</g>
<!-- Node6 -->
<g id="node6" class="node">
<title>Node6</title>
<g id="a_node6"><a xlink:href="class_d_psim_1_1_mna_solver_gpu_sparse.html" target="_top" xlink:title=" ">
<polygon fill="none" stroke="black" points="167.5,-0.5 167.5,-30.5 315.5,-30.5 315.5,-0.5 167.5,-0.5"/>
<text text-anchor="start" x="175.5" y="-18.5" font-family="Helvetica" font-size="10.00">DPsim::MnaSolverGpuSparse</text>
<text text-anchor="middle" x="241.5" y="-7.5" font-family="Helvetica" font-size="10.00">&lt; VarType &gt;</text>
</a>
</g>
</g>
<!-- Node1&#45;&gt;Node6 -->
<g id="edge5" class="edge">
<title>Node1&#45;&gt;Node6</title>
<path fill="none" stroke="midnightblue" d="M183.78,-61.17C196.62,-51.23 211.76,-39.51 223.31,-30.58"/>
<polygon fill="midnightblue" stroke="midnightblue" points="181.49,-58.51 175.73,-67.4 185.78,-64.04 181.49,-58.51"/>
</g>
<!-- Node2 -->
<g id="node2" class="node">
<title>Node2</title>
<g id="a_node2"><a xlink:href="class_d_psim_1_1_mna_solver.html" target="_top" xlink:title="Solver class using Modified Nodal Analysis (MNA).">
<polygon fill="none" stroke="black" points="81.5,-134.5 81.5,-153.5 233.5,-153.5 233.5,-134.5 81.5,-134.5"/>
<text text-anchor="middle" x="157.5" y="-141.5" font-family="Helvetica" font-size="10.00">DPsim::MnaSolver&lt; VarType &gt;</text>
</a>
</g>
</g>
<!-- Node2&#45;&gt;Node1 -->
<g id="edge1" class="edge">
<title>Node2&#45;&gt;Node1</title>
<path fill="none" stroke="midnightblue" d="M157.5,-124.23C157.5,-115.59 157.5,-105.5 157.5,-97.52"/>
<polygon fill="midnightblue" stroke="midnightblue" points="154,-124.48 157.5,-134.48 161,-124.48 154,-124.48"/>
</g>
<!-- Node3 -->
<g id="node3" class="node">
<title>Node3</title>
<g id="a_node3"><a xlink:href="class_d_psim_1_1_solver.html" target="_top" xlink:title="Base class for more specific solvers such as MNA, ODE or IDA.">
<polygon fill="none" stroke="black" points="64.5,-190.5 64.5,-209.5 144.5,-209.5 144.5,-190.5 64.5,-190.5"/>
<text text-anchor="middle" x="104.5" y="-197.5" font-family="Helvetica" font-size="10.00">DPsim::Solver</text>
</a>
</g>
</g>
<!-- Node3&#45;&gt;Node2 -->
<g id="edge2" class="edge">
<title>Node3&#45;&gt;Node2</title>
<path fill="none" stroke="midnightblue" d="M120.48,-182.72C129.82,-173.2 141.25,-161.56 148.91,-153.75"/>
<polygon fill="midnightblue" stroke="midnightblue" points="117.76,-180.49 113.25,-190.08 122.75,-185.4 117.76,-180.49"/>
</g>
<!-- Node4 -->
<g id="node4" class="node">
<title>Node4</title>
<g id="a_node4"><a xlink:href="class_c_p_s_1_1_attribute_list.html" target="_top" xlink:title="Base class of objects having attributes to access member variables.">
<polygon fill="none" stroke="black" points="162.5,-190.5 162.5,-209.5 258.5,-209.5 258.5,-190.5 162.5,-190.5"/>
<text text-anchor="middle" x="210.5" y="-197.5" font-family="Helvetica" font-size="10.00">CPS::AttributeList</text>
</a>
</g>
</g>
<!-- Node4&#45;&gt;Node2 -->
<g id="edge3" class="edge">
<title>Node4&#45;&gt;Node2</title>
<path fill="none" stroke="midnightblue" d="M194.52,-182.72C185.18,-173.2 173.75,-161.56 166.09,-153.75"/>
<polygon fill="midnightblue" stroke="midnightblue" points="192.25,-185.4 201.75,-190.08 197.24,-180.49 192.25,-185.4"/>
</g>
</g>
</svg>
