<?xml version="1.0" encoding="UTF-8" standalone="no"?>
<!DOCTYPE svg PUBLIC "-//W3C//DTD SVG 1.1//EN"
 "http://www.w3.org/Graphics/SVG/1.1/DTD/svg11.dtd">
<!-- Generated by graphviz version 2.50.0 (0)
 -->
<!-- Title: CPS::SP::Ph1::RXLine Pages: 1 -->
<svg width="2238pt" height="504pt"
 viewBox="0.00 0.00 2238.00 504.38" xmlns="http://www.w3.org/2000/svg" xmlns:xlink="http://www.w3.org/1999/xlink">
<g id="graph0" class="graph" transform="scale(1 1) rotate(0) translate(4 500.38)">
<title>CPS::SP::Ph1::RXLine</title>
<!-- Node1 -->
<g id="node1" class="node">
<title>Node1</title>
<g id="a_node1"><a xlink:title=" ">
<polygon fill="#bfbfbf" stroke="black" points="2117,-148.88 2117,-167.88 2230,-167.88 2230,-148.88 2117,-148.88"/>
<text text-anchor="middle" x="2173.5" y="-155.88" font-family="Helvetica,sans-Serif" font-size="10.00">CPS::SP::Ph1::RXLine</text>
</a>
</g>
</g>
<!-- Node2 -->
<g id="node2" class="node">
<title>Node2</title>
<g id="a_node2"><a xlink:href="class_c_p_s_1_1_composite_power_comp.html" target="_top" xlink:title=" ">
<polygon fill="none" stroke="black" points="1929,-309.38 1929,-339.38 2075,-339.38 2075,-309.38 1929,-309.38"/>
<text text-anchor="start" x="1937" y="-327.38" font-family="Helvetica,sans-Serif" font-size="10.00">CPS::CompositePowerComp</text>
<text text-anchor="middle" x="2002" y="-316.38" font-family="Helvetica,sans-Serif" font-size="10.00">&lt; Complex &gt;</text>
</a>
</g>
</g>
<!-- Node2&#45;&gt;Node1 -->
<g id="edge1" class="edge">
<title>Node2&#45;&gt;Node1</title>
<path fill="none" stroke="midnightblue" d="M2032.98,-303.28C2052.64,-288.82 2078.42,-268.65 2099,-248.38 2126.16,-221.63 2153.28,-185.32 2165.61,-168.15"/>
<polygon fill="midnightblue" stroke="midnightblue" points="2030.72,-300.59 2024.69,-309.3 2034.83,-306.25 2030.72,-300.59"/>
</g>
<!-- Node3 -->
<g id="node3" class="node">
<title>Node3</title>
<g id="a_node3"><a xlink:href="class_c_p_s_1_1_m_n_a_sim_power_comp.html" target="_top" xlink:title=" ">
<polygon fill="none" stroke="black" points="1687.5,-309.38 1687.5,-339.38 1824.5,-339.38 1824.5,-309.38 1687.5,-309.38"/>
<text text-anchor="start" x="1695.5" y="-327.38" font-family="Helvetica,sans-Serif" font-size="10.00">CPS::MNASimPowerComp</text>
<text text-anchor="middle" x="1756" y="-316.38" font-family="Helvetica,sans-Serif" font-size="10.00">&lt; Complex &gt;</text>
</a>
</g>
</g>
<!-- Node3&#45;&gt;Node2 -->
<g id="edge2" class="edge">
<title>Node3&#45;&gt;Node2</title>
<path fill="none" stroke="midnightblue" d="M1834.71,-324.38C1864.92,-324.38 1899.32,-324.38 1928.96,-324.38"/>
<polygon fill="midnightblue" stroke="midnightblue" points="1834.64,-320.88 1824.64,-324.38 1834.64,-327.88 1834.64,-320.88"/>
</g>
<!-- Node4 -->
<g id="node4" class="node">
<title>Node4</title>
<g id="a_node4"><a xlink:href="class_c_p_s_1_1_sim_power_comp.html" target="_top" xlink:title=" ">
<polygon fill="none" stroke="black" points="1460,-397.38 1460,-427.38 1579,-427.38 1579,-397.38 1460,-397.38"/>
<text text-anchor="start" x="1468" y="-415.38" font-family="Helvetica,sans-Serif" font-size="10.00">CPS::SimPowerComp&lt;</text>
<text text-anchor="middle" x="1519.5" y="-404.38" font-family="Helvetica,sans-Serif" font-size="10.00"> Complex &gt;</text>
</a>
</g>
</g>
<!-- Node4&#45;&gt;Node3 -->
<g id="edge3" class="edge">
<title>Node4&#45;&gt;Node3</title>
<path fill="none" stroke="midnightblue" d="M1583.75,-394.29C1609.47,-386.07 1639.15,-375.48 1665,-363.38 1673.49,-359.41 1674.6,-356.54 1683,-352.38 1692.38,-347.74 1702.72,-343.33 1712.58,-339.43"/>
<polygon fill="midnightblue" stroke="midnightblue" points="1582.6,-390.98 1574.11,-397.31 1584.7,-397.66 1582.6,-390.98"/>
</g>
<!-- Node5 -->
<g id="node5" class="node">
<title>Node5</title>
<g id="a_node5"><a xlink:href="class_c_p_s_1_1_topological_power_comp.html" target="_top" xlink:title=" ">
<polygon fill="none" stroke="black" points="982,-416.88 982,-435.88 1130,-435.88 1130,-416.88 982,-416.88"/>
<text text-anchor="middle" x="1056" y="-423.88" font-family="Helvetica,sans-Serif" font-size="10.00">CPS::TopologicalPowerComp</text>
</a>
</g>
</g>
<!-- Node5&#45;&gt;Node4 -->
<g id="edge4" class="edge">
<title>Node5&#45;&gt;Node4</title>
<path fill="none" stroke="midnightblue" d="M1140.27,-423.85C1232.57,-421.05 1379.06,-416.61 1459.98,-414.16"/>
<polygon fill="midnightblue" stroke="midnightblue" points="1140.02,-420.36 1130.13,-424.16 1140.23,-427.36 1140.02,-420.36"/>
</g>
<!-- Node12 -->
<g id="node12" class="node">
<title>Node12</title>
<g id="a_node12"><a xlink:href="class_c_p_s_1_1_sim_power_comp.html" target="_top" xlink:title="Base class for all components that are transmitting power.">
<polygon fill="none" stroke="black" points="1172,-362.38 1172,-392.38 1291,-392.38 1291,-362.38 1172,-362.38"/>
<text text-anchor="start" x="1180" y="-380.38" font-family="Helvetica,sans-Serif" font-size="10.00">CPS::SimPowerComp&lt;</text>
<text text-anchor="middle" x="1231.5" y="-369.38" font-family="Helvetica,sans-Serif" font-size="10.00"> VarType &gt;</text>
</a>
</g>
</g>
<!-- Node5&#45;&gt;Node12 -->
<g id="edge13" class="edge">
<title>Node5&#45;&gt;Node12</title>
<path fill="none" stroke="midnightblue" d="M1100.78,-414.02C1124.02,-407.45 1152.74,-399.34 1177.26,-392.42"/>
<polygon fill="midnightblue" stroke="midnightblue" points="1099.54,-410.73 1090.86,-416.82 1101.44,-417.47 1099.54,-410.73"/>
</g>
<!-- Node6 -->
<g id="node6" class="node">
<title>Node6</title>
<g id="a_node6"><a xlink:href="class_c_p_s_1_1_identified_object.html" target="_top" xlink:title=" ">
<polygon fill="none" stroke="black" points="710,-416.88 710,-435.88 826,-435.88 826,-416.88 710,-416.88"/>
<text text-anchor="middle" x="768" y="-423.88" font-family="Helvetica,sans-Serif" font-size="10.00">CPS::IdentifiedObject</text>
</a>
</g>
</g>
<!-- Node6&#45;&gt;Node5 -->
<g id="edge5" class="edge">
<title>Node6&#45;&gt;Node5</title>
<path fill="none" stroke="midnightblue" d="M836.43,-426.38C880.14,-426.38 937.06,-426.38 981.86,-426.38"/>
<polygon fill="midnightblue" stroke="midnightblue" points="836.19,-422.88 826.19,-426.38 836.19,-429.88 836.19,-422.88"/>
</g>
<!-- Node7 -->
<g id="node7" class="node">
<title>Node7</title>
<g id="a_node7"><a xlink:href="class_c_p_s_1_1_attribute.html" target="_top" xlink:title=" ">
<polygon fill="none" stroke="black" points="465.5,-416.88 465.5,-435.88 592.5,-435.88 592.5,-416.88 465.5,-416.88"/>
<text text-anchor="middle" x="529" y="-423.88" font-family="Helvetica,sans-Serif" font-size="10.00">CPS::Attribute&lt; String &gt;</text>
</a>
</g>
</g>
<!-- Node7&#45;&gt;Node6 -->
<g id="edge6" class="edge">
<title>Node7&#45;&gt;Node6</title>
<path fill="none" stroke="#9a32cd" stroke-dasharray="5,2" d="M602.58,-426.38C637.01,-426.38 677.55,-426.38 709.76,-426.38"/>
<polygon fill="#9a32cd" stroke="#9a32cd" points="602.58,-422.88 592.58,-426.38 602.58,-429.88 602.58,-422.88"/>
<text text-anchor="middle" x="658.5" y="-440.38" font-family="Helvetica,sans-Serif" font-size="10.00"> mName</text>
<text text-anchor="middle" x="658.5" y="-429.38" font-family="Helvetica,sans-Serif" font-size="10.00">mUID</text>
</g>
<!-- Node8 -->
<g id="node8" class="node">
<title>Node8</title>
<g id="a_node8"><a xlink:href="class_c_p_s_1_1_attribute_base.html" target="_top" xlink:title=" ">
<polygon fill="none" stroke="black" points="5.5,-215.88 5.5,-234.88 110.5,-234.88 110.5,-215.88 5.5,-215.88"/>
<text text-anchor="middle" x="58" y="-222.88" font-family="Helvetica,sans-Serif" font-size="10.00">CPS::AttributeBase</text>
</a>
</g>
</g>
<!-- Node8&#45;&gt;Node7 -->
<g id="edge7" class="edge">
<title>Node8&#45;&gt;Node7</title>
<path fill="none" stroke="midnightblue" d="M62.57,-245.2C70.73,-284.08 94.77,-369.87 153,-407.38 203,-439.6 372.29,-435.54 465.38,-430.55"/>
<polygon fill="midnightblue" stroke="midnightblue" points="65.95,-244.28 60.59,-235.14 59.08,-245.63 65.95,-244.28"/>
</g>
<!-- Node10 -->
<g id="node10" class="node">
<title>Node10</title>
<g id="a_node10"><a xlink:href="class_c_p_s_1_1_attribute.html" target="_top" xlink:title=" ">
<polygon fill="none" stroke="black" points="172,-259.88 172,-278.88 276,-278.88 276,-259.88 172,-259.88"/>
<text text-anchor="middle" x="224" y="-266.88" font-family="Helvetica,sans-Serif" font-size="10.00">CPS::Attribute&lt; T &gt;</text>
</a>
</g>
</g>
<!-- Node8&#45;&gt;Node10 -->
<g id="edge10" class="edge">
<title>Node8&#45;&gt;Node10</title>
<path fill="none" stroke="midnightblue" d="M104.3,-237.54C130.55,-244.58 163.11,-253.31 187.48,-259.85"/>
<polygon fill="midnightblue" stroke="midnightblue" points="105.15,-234.14 94.59,-234.93 103.34,-240.9 105.15,-234.14"/>
</g>
<!-- Node13 -->
<g id="node13" class="node">
<title>Node13</title>
<g id="a_node13"><a xlink:href="class_c_p_s_1_1_attribute.html" target="_top" xlink:title=" ">
<polygon fill="none" stroke="black" points="460.5,-326.38 460.5,-356.38 597.5,-356.38 597.5,-326.38 460.5,-326.38"/>
<text text-anchor="start" x="468.5" y="-344.38" font-family="Helvetica,sans-Serif" font-size="10.00">CPS::Attribute&lt; MatrixVar</text>
<text text-anchor="middle" x="529" y="-333.38" font-family="Helvetica,sans-Serif" font-size="10.00">&lt; VarType &gt; &gt;</text>
</a>
</g>
</g>
<!-- Node8&#45;&gt;Node13 -->
<g id="edge15" class="edge">
<title>Node8&#45;&gt;Node13</title>
<path fill="none" stroke="midnightblue" d="M77.93,-241.69C95.99,-256.32 124.57,-277.17 153,-288.38 254.99,-328.62 383.22,-338.92 460.23,-341.22"/>
<polygon fill="midnightblue" stroke="midnightblue" points="79.89,-238.77 69.96,-235.07 75.42,-244.15 79.89,-238.77"/>
</g>
<!-- Node16 -->
<g id="node16" class="node">
<title>Node16</title>
<g id="a_node16"><a xlink:href="class_c_p_s_1_1_attribute.html" target="_top" xlink:title=" ">
<polygon fill="none" stroke="black" points="1167,-250.88 1167,-269.88 1296,-269.88 1296,-250.88 1167,-250.88"/>
<text text-anchor="middle" x="1231.5" y="-257.88" font-family="Helvetica,sans-Serif" font-size="10.00">CPS::Attribute&lt; Matrix &gt;</text>
</a>
</g>
</g>
<!-- Node8&#45;&gt;Node16 -->
<g id="edge20" class="edge">
<title>Node8&#45;&gt;Node16</title>
<path fill="none" stroke="midnightblue" d="M120.72,-217.06C151.41,-213.6 189.09,-210.38 223,-210.38 223,-210.38 223,-210.38 1057,-210.38 1114.84,-210.38 1179.42,-236.35 1210.99,-250.86"/>
<polygon fill="midnightblue" stroke="midnightblue" points="120.12,-213.6 110.59,-218.23 120.93,-220.55 120.12,-213.6"/>
</g>
<!-- Node24 -->
<g id="node24" class="node">
<title>Node24</title>
<g id="a_node24"><a xlink:href="class_c_p_s_1_1_attribute.html" target="_top" xlink:title=" ">
<polygon fill="none" stroke="black" points="469.5,-52.88 469.5,-71.88 588.5,-71.88 588.5,-52.88 469.5,-52.88"/>
<text text-anchor="middle" x="529" y="-59.88" font-family="Helvetica,sans-Serif" font-size="10.00">CPS::Attribute&lt; Real &gt;</text>
</a>
</g>
</g>
<!-- Node8&#45;&gt;Node24 -->
<g id="edge34" class="edge">
<title>Node8&#45;&gt;Node24</title>
<path fill="none" stroke="midnightblue" d="M61.84,-205.36C68.85,-164.47 91.12,-71.99 153,-33.38 269.34,39.2 447.15,-26.81 507.3,-52.88"/>
<polygon fill="midnightblue" stroke="midnightblue" points="58.35,-205.01 60.25,-215.43 65.27,-206.1 58.35,-205.01"/>
</g>
<!-- Node26 -->
<g id="node26" class="node">
<title>Node26</title>
<g id="a_node26"><a xlink:href="class_c_p_s_1_1_attribute.html" target="_top" xlink:title=" ">
<polygon fill="none" stroke="black" points="451,-127.88 451,-146.88 607,-146.88 607,-127.88 451,-127.88"/>
<text text-anchor="middle" x="529" y="-134.88" font-family="Helvetica,sans-Serif" font-size="10.00">CPS::Attribute&lt; MatrixComp &gt;</text>
</a>
</g>
</g>
<!-- Node8&#45;&gt;Node26 -->
<g id="edge39" class="edge">
<title>Node8&#45;&gt;Node26</title>
<path fill="none" stroke="midnightblue" d="M70.33,-207.37C85.8,-184.66 115.89,-146.75 153,-131.38 269.4,-83.17 424.08,-111.27 492.67,-127.86"/>
<polygon fill="midnightblue" stroke="midnightblue" points="67.36,-205.51 64.79,-215.79 73.21,-209.36 67.36,-205.51"/>
</g>
<!-- Node9 -->
<g id="node9" class="node">
<title>Node9</title>
<g id="a_node9"><a xlink:title=" ">
<polygon fill="none" stroke="#bfbfbf" points="166,-454.88 166,-495.88 282,-495.88 282,-454.88 166,-454.88"/>
<text text-anchor="start" x="174" y="-483.88" font-family="Helvetica,sans-Serif" font-size="10.00">std::enable_shared</text>
<text text-anchor="start" x="174" y="-472.88" font-family="Helvetica,sans-Serif" font-size="10.00">_from_this&lt; Attribute</text>
<text text-anchor="middle" x="224" y="-461.88" font-family="Helvetica,sans-Serif" font-size="10.00">&lt; String &gt; &gt;</text>
</a>
</g>
</g>
<!-- Node9&#45;&gt;Node7 -->
<g id="edge8" class="edge">
<title>Node9&#45;&gt;Node7</title>
<path fill="none" stroke="midnightblue" d="M292.33,-464.49C345.31,-455.93 418.4,-444.11 469.08,-435.91"/>
<polygon fill="midnightblue" stroke="midnightblue" points="291.66,-461.06 282.35,-466.11 292.78,-467.97 291.66,-461.06"/>
</g>
<!-- Node10&#45;&gt;Node7 -->
<g id="edge9" class="edge">
<title>Node10&#45;&gt;Node7</title>
<path fill="none" stroke="orange" stroke-dasharray="5,2" d="M250.76,-284.1C268.22,-293.99 291.87,-307.2 313,-318.38 384.25,-356.09 470.27,-398.33 508.29,-416.83"/>
<polygon fill="orange" stroke="orange" points="252.18,-280.88 241.75,-278.99 248.72,-286.97 252.18,-280.88"/>
<text text-anchor="middle" x="373" y="-380.38" font-family="Helvetica,sans-Serif" font-size="10.00"> &lt; String &gt;</text>
</g>
<!-- Node10&#45;&gt;Node13 -->
<g id="edge17" class="edge">
<title>Node10&#45;&gt;Node13</title>
<path fill="none" stroke="orange" stroke-dasharray="5,2" d="M286.01,-277.85C337.17,-285.23 406.07,-295.89 433,-303.38 454.22,-309.28 477.17,-318.38 495.2,-326.2"/>
<polygon fill="orange" stroke="orange" points="286.43,-274.37 276.03,-276.42 285.43,-281.3 286.43,-274.37"/>
<text text-anchor="middle" x="373" y="-306.38" font-family="Helvetica,sans-Serif" font-size="10.00"> &lt; MatrixVar&lt; VarType &gt; &gt;</text>
</g>
<!-- Node10&#45;&gt;Node16 -->
<g id="edge22" class="edge">
<title>Node10&#45;&gt;Node16</title>
<path fill="none" stroke="orange" stroke-dasharray="5,2" d="M286.47,-271.56C415.37,-275.99 723.46,-285.97 982,-289.38 1047.77,-290.25 1064.87,-298.59 1130,-289.38 1156.07,-285.69 1184.85,-276.88 1204.91,-269.93"/>
<polygon fill="orange" stroke="orange" points="286.51,-268.05 276.39,-271.21 286.26,-275.05 286.51,-268.05"/>
<text text-anchor="middle" x="768" y="-289.38" font-family="Helvetica,sans-Serif" font-size="10.00"> &lt; Matrix &gt;</text>
</g>
<!-- Node10&#45;&gt;Node24 -->
<g id="edge36" class="edge">
<title>Node10&#45;&gt;Node24</title>
<path fill="none" stroke="orange" stroke-dasharray="5,2" d="M240.42,-252.1C257.17,-233.92 285.27,-205.12 313,-184.38 379.33,-134.78 467.85,-90.62 507.4,-71.9"/>
<polygon fill="orange" stroke="orange" points="237.7,-249.88 233.56,-259.64 242.88,-254.59 237.7,-249.88"/>
<text text-anchor="middle" x="373" y="-187.38" font-family="Helvetica,sans-Serif" font-size="10.00"> &lt; Real &gt;</text>
</g>
<!-- Node10&#45;&gt;Node26 -->
<g id="edge41" class="edge">
<title>Node10&#45;&gt;Node26</title>
<path fill="none" stroke="orange" stroke-dasharray="5,2" d="M266.67,-256.73C318.35,-240.81 403.27,-213.8 433,-199.38 464.54,-184.09 498.15,-160.09 515.7,-146.88"/>
<polygon fill="orange" stroke="orange" points="265.34,-253.48 256.81,-259.76 267.39,-260.17 265.34,-253.48"/>
<text text-anchor="middle" x="373" y="-243.38" font-family="Helvetica,sans-Serif" font-size="10.00"> &lt; MatrixComp &gt;</text>
</g>
<!-- Node11 -->
<g id="node11" class="node">
<title>Node11</title>
<g id="a_node11"><a xlink:title=" ">
<polygon fill="none" stroke="#bfbfbf" points="0,-430.88 0,-471.88 116,-471.88 116,-430.88 0,-430.88"/>
<text text-anchor="start" x="8" y="-459.88" font-family="Helvetica,sans-Serif" font-size="10.00">std::enable_shared</text>
<text text-anchor="start" x="8" y="-448.88" font-family="Helvetica,sans-Serif" font-size="10.00">_from_this&lt; Attribute</text>
<text text-anchor="middle" x="58" y="-437.88" font-family="Helvetica,sans-Serif" font-size="10.00">&lt; T &gt; &gt;</text>
</a>
</g>
</g>
<!-- Node11&#45;&gt;Node10 -->
<g id="edge11" class="edge">
<title>Node11&#45;&gt;Node10</title>
<path fill="none" stroke="midnightblue" d="M84.34,-423.26C121.85,-381.63 190.32,-305.65 214.37,-278.96"/>
<polygon fill="midnightblue" stroke="midnightblue" points="81.59,-421.09 77.49,-430.86 86.79,-425.77 81.59,-421.09"/>
</g>
<!-- Node12&#45;&gt;Node4 -->
<g id="edge12" class="edge">
<title>Node12&#45;&gt;Node4</title>
<path fill="none" stroke="orange" stroke-dasharray="5,2" d="M1301.13,-385.78C1349.46,-391.69 1413.49,-399.53 1459.52,-405.16"/>
<polygon fill="orange" stroke="orange" points="1301.42,-382.29 1291.07,-384.55 1300.57,-389.24 1301.42,-382.29"/>
<text text-anchor="middle" x="1373.5" y="-403.38" font-family="Helvetica,sans-Serif" font-size="10.00"> &lt; Complex &gt;</text>
</g>
<!-- Node18 -->
<g id="node18" class="node">
<title>Node18</title>
<g id="a_node18"><a xlink:href="class_c_p_s_1_1_m_n_a_sim_power_comp.html" target="_top" xlink:title="Base class for all MNA components that are transmitting power.">
<polygon fill="none" stroke="black" points="1451,-348.38 1451,-378.38 1588,-378.38 1588,-348.38 1451,-348.38"/>
<text text-anchor="start" x="1459" y="-366.38" font-family="Helvetica,sans-Serif" font-size="10.00">CPS::MNASimPowerComp</text>
<text text-anchor="middle" x="1519.5" y="-355.38" font-family="Helvetica,sans-Serif" font-size="10.00">&lt; VarType &gt;</text>
</a>
</g>
</g>
<!-- Node12&#45;&gt;Node18 -->
<g id="edge24" class="edge">
<title>Node12&#45;&gt;Node18</title>
<path fill="none" stroke="midnightblue" d="M1301.12,-374.02C1346.52,-371.8 1405.8,-368.9 1450.98,-366.69"/>
<polygon fill="midnightblue" stroke="midnightblue" points="1300.88,-370.53 1291.07,-374.51 1301.23,-377.52 1300.88,-370.53"/>
</g>
<!-- Node13&#45;&gt;Node12 -->
<g id="edge14" class="edge">
<title>Node13&#45;&gt;Node12</title>
<path fill="none" stroke="#9a32cd" stroke-dasharray="5,2" d="M608.14,-345.4C749.72,-352.67 1045.67,-367.88 1171.67,-374.36"/>
<polygon fill="#9a32cd" stroke="#9a32cd" points="607.97,-341.88 597.8,-344.87 607.61,-348.87 607.97,-341.88"/>
<text text-anchor="middle" x="904" y="-377.38" font-family="Helvetica,sans-Serif" font-size="10.00"> mIntfCurrent</text>
<text text-anchor="middle" x="904" y="-366.38" font-family="Helvetica,sans-Serif" font-size="10.00">mIntfVoltage</text>
</g>
<!-- Node14 -->
<g id="node14" class="node">
<title>Node14</title>
<g id="a_node14"><a xlink:title=" ">
<polygon fill="none" stroke="#bfbfbf" points="153,-356.88 153,-397.88 295,-397.88 295,-356.88 153,-356.88"/>
<text text-anchor="start" x="161" y="-385.88" font-family="Helvetica,sans-Serif" font-size="10.00">std::enable_shared</text>
<text text-anchor="start" x="161" y="-374.88" font-family="Helvetica,sans-Serif" font-size="10.00">_from_this&lt; Attribute</text>
<text text-anchor="middle" x="224" y="-363.88" font-family="Helvetica,sans-Serif" font-size="10.00">&lt; MatrixVar&lt; VarType &gt; &gt; &gt;</text>
</a>
</g>
</g>
<!-- Node14&#45;&gt;Node13 -->
<g id="edge16" class="edge">
<title>Node14&#45;&gt;Node13</title>
<path fill="none" stroke="midnightblue" d="M305.51,-381.52C344.31,-382.07 391.35,-380.62 433,-373.38 452.89,-369.92 474.26,-363.03 491.69,-356.52"/>
<polygon fill="midnightblue" stroke="midnightblue" points="305.38,-378.02 295.32,-381.33 305.25,-385.02 305.38,-378.02"/>
</g>
<!-- Node15 -->
<g id="node15" class="node">
<title>Node15</title>
<g id="a_node15"><a xlink:href="class_c_p_s_1_1_m_n_a_interface.html" target="_top" xlink:title="Interface to be implemented by all models used by the MNA solver.">
<polygon fill="none" stroke="black" points="1178,-316.88 1178,-335.88 1285,-335.88 1285,-316.88 1178,-316.88"/>
<text text-anchor="middle" x="1231.5" y="-323.88" font-family="Helvetica,sans-Serif" font-size="10.00">CPS::MNAInterface</text>
</a>
</g>
</g>
<!-- Node15&#45;&gt;Node3 -->
<g id="edge18" class="edge">
<title>Node15&#45;&gt;Node3</title>
<path fill="none" stroke="midnightblue" d="M1295.63,-326.14C1394.56,-325.76 1585.34,-325.03 1687.13,-324.64"/>
<polygon fill="midnightblue" stroke="midnightblue" points="1295.46,-322.64 1285.48,-326.18 1295.49,-329.64 1295.46,-322.64"/>
</g>
<!-- Node15&#45;&gt;Node18 -->
<g id="edge25" class="edge">
<title>Node15&#45;&gt;Node18</title>
<path fill="none" stroke="midnightblue" d="M1295.44,-334.52C1341.45,-340.48 1403.79,-348.54 1450.86,-354.63"/>
<polygon fill="midnightblue" stroke="midnightblue" points="1295.66,-331.02 1285.29,-333.21 1294.76,-337.96 1295.66,-331.02"/>
</g>
<!-- Node16&#45;&gt;Node1 -->
<g id="edge42" class="edge">
<title>Node16&#45;&gt;Node1</title>
<path fill="none" stroke="#9a32cd" stroke-dasharray="5,2" d="M1306.36,-249.96C1364.01,-242.73 1446.19,-234.38 1518.5,-234.38 1518.5,-234.38 1518.5,-234.38 2003,-234.38 2067.18,-234.38 2134,-188.46 2160.58,-168.01"/>
<polygon fill="#9a32cd" stroke="#9a32cd" points="1305.72,-246.51 1296.24,-251.25 1306.61,-253.46 1305.72,-246.51"/>
<text text-anchor="middle" x="1756" y="-248.38" font-family="Helvetica,sans-Serif" font-size="10.00"> mActivePowerBranch</text>
<text text-anchor="middle" x="1756" y="-237.38" font-family="Helvetica,sans-Serif" font-size="10.00">mReactivePowerBranch</text>
</g>
<!-- Node16&#45;&gt;Node3 -->
<g id="edge19" class="edge">
<title>Node16&#45;&gt;Node3</title>
<path fill="none" stroke="#9a32cd" stroke-dasharray="5,2" d="M1306.69,-265.6C1344.54,-268.53 1391.29,-272.57 1433,-277.38 1521.11,-287.54 1622.26,-302.91 1687.31,-313.29"/>
<polygon fill="#9a32cd" stroke="#9a32cd" points="1306.5,-262.07 1296.26,-264.8 1305.96,-269.05 1306.5,-262.07"/>
<text text-anchor="middle" x="1519.5" y="-300.38" font-family="Helvetica,sans-Serif" font-size="10.00"> mRightVector</text>
</g>
<!-- Node16&#45;&gt;Node18 -->
<g id="edge26" class="edge">
<title>Node16&#45;&gt;Node18</title>
<path fill="none" stroke="#9a32cd" stroke-dasharray="5,2" d="M1280.19,-272.56C1321.29,-283.6 1381.88,-301.2 1433,-321.38 1452.69,-329.15 1474.07,-339.65 1490.52,-348.21"/>
<polygon fill="#9a32cd" stroke="#9a32cd" points="1281,-269.15 1270.44,-269.96 1279.2,-275.92 1281,-269.15"/>
<text text-anchor="middle" x="1373.5" y="-324.38" font-family="Helvetica,sans-Serif" font-size="10.00"> mRightVector</text>
</g>
<!-- Node17 -->
<g id="node17" class="node">
<title>Node17</title>
<g id="a_node17"><a xlink:title=" ">
<polygon fill="none" stroke="#bfbfbf" points="998,-238.88 998,-279.88 1114,-279.88 1114,-238.88 998,-238.88"/>
<text text-anchor="start" x="1006" y="-267.88" font-family="Helvetica,sans-Serif" font-size="10.00">std::enable_shared</text>
<text text-anchor="start" x="1006" y="-256.88" font-family="Helvetica,sans-Serif" font-size="10.00">_from_this&lt; Attribute</text>
<text text-anchor="middle" x="1056" y="-245.88" font-family="Helvetica,sans-Serif" font-size="10.00">&lt; Matrix &gt; &gt;</text>
</a>
</g>
</g>
<!-- Node17&#45;&gt;Node16 -->
<g id="edge21" class="edge">
<title>Node17&#45;&gt;Node16</title>
<path fill="none" stroke="midnightblue" d="M1124.35,-259.77C1138.37,-259.85 1153.1,-259.94 1166.98,-260.02"/>
<polygon fill="midnightblue" stroke="midnightblue" points="1124.31,-256.27 1114.29,-259.71 1124.27,-263.27 1124.31,-256.27"/>
</g>
<!-- Node18&#45;&gt;Node3 -->
<g id="edge23" class="edge">
<title>Node18&#45;&gt;Node3</title>
<path fill="none" stroke="orange" stroke-dasharray="5,2" d="M1598.04,-350.49C1626.84,-345.69 1659.28,-340.3 1687.15,-335.67"/>
<polygon fill="orange" stroke="orange" points="1597.3,-347.06 1588.01,-352.15 1598.45,-353.96 1597.3,-347.06"/>
<text text-anchor="middle" x="1635.5" y="-351.38" font-family="Helvetica,sans-Serif" font-size="10.00"> &lt; Complex &gt;</text>
</g>
<!-- Node19 -->
<g id="node19" class="node">
<title>Node19</title>
<g id="a_node19"><a xlink:href="class_c_p_s_1_1_composite_power_comp.html" target="_top" xlink:title="Base class for composite power components.">
<polygon fill="none" stroke="black" points="1683,-361.38 1683,-391.38 1829,-391.38 1829,-361.38 1683,-361.38"/>
<text text-anchor="start" x="1691" y="-379.38" font-family="Helvetica,sans-Serif" font-size="10.00">CPS::CompositePowerComp</text>
<text text-anchor="middle" x="1756" y="-368.38" font-family="Helvetica,sans-Serif" font-size="10.00">&lt; VarType &gt;</text>
</a>
</g>
</g>
<!-- Node18&#45;&gt;Node19 -->
<g id="edge28" class="edge">
<title>Node18&#45;&gt;Node19</title>
<path fill="none" stroke="midnightblue" d="M1598.27,-367.69C1625.48,-369.2 1655.9,-370.89 1682.64,-372.37"/>
<polygon fill="midnightblue" stroke="midnightblue" points="1598.19,-364.18 1588.01,-367.12 1597.8,-371.17 1598.19,-364.18"/>
</g>
<!-- Node19&#45;&gt;Node2 -->
<g id="edge27" class="edge">
<title>Node19&#45;&gt;Node2</title>
<path fill="none" stroke="orange" stroke-dasharray="5,2" d="M1837.61,-359.2C1867.66,-352.8 1901.52,-345.58 1930.58,-339.39"/>
<polygon fill="orange" stroke="orange" points="1836.63,-355.83 1827.57,-361.34 1838.08,-362.68 1836.63,-355.83"/>
<text text-anchor="middle" x="1876.5" y="-359.38" font-family="Helvetica,sans-Serif" font-size="10.00"> &lt; Complex &gt;</text>
</g>
<!-- Node20 -->
<g id="node20" class="node">
<title>Node20</title>
<g id="a_node20"><a xlink:href="class_shared_factory.html" target="_top" xlink:title=" ">
<polygon fill="none" stroke="black" points="1936.5,-186.88 1936.5,-205.88 2067.5,-205.88 2067.5,-186.88 1936.5,-186.88"/>
<text text-anchor="middle" x="2002" y="-193.88" font-family="Helvetica,sans-Serif" font-size="10.00">SharedFactory&lt; RXLine &gt;</text>
</a>
</g>
</g>
<!-- Node20&#45;&gt;Node1 -->
<g id="edge29" class="edge">
<title>Node20&#45;&gt;Node1</title>
<path fill="none" stroke="midnightblue" d="M2055.74,-184.56C2079.64,-179.2 2107.52,-172.95 2130.04,-167.9"/>
<polygon fill="midnightblue" stroke="midnightblue" points="2054.76,-181.19 2045.77,-186.79 2056.3,-188.02 2054.76,-181.19"/>
</g>
<!-- Node21 -->
<g id="node21" class="node">
<title>Node21</title>
<g id="a_node21"><a xlink:href="class_shared_factory.html" target="_top" xlink:title=" ">
<polygon fill="none" stroke="black" points="1703.5,-178.88 1703.5,-197.88 1808.5,-197.88 1808.5,-178.88 1703.5,-178.88"/>
<text text-anchor="middle" x="1756" y="-185.88" font-family="Helvetica,sans-Serif" font-size="10.00">SharedFactory&lt; T &gt;</text>
</a>
</g>
</g>
<!-- Node21&#45;&gt;Node20 -->
<g id="edge30" class="edge">
<title>Node21&#45;&gt;Node20</title>
<path fill="none" stroke="orange" stroke-dasharray="5,2" d="M1819.08,-190.42C1854.93,-191.59 1899.98,-193.07 1936.27,-194.26"/>
<polygon fill="orange" stroke="orange" points="1818.86,-186.91 1808.75,-190.08 1818.63,-193.9 1818.86,-186.91"/>
<text text-anchor="middle" x="1876.5" y="-195.38" font-family="Helvetica,sans-Serif" font-size="10.00"> &lt; RXLine &gt;</text>
</g>
<!-- Node22 -->
<g id="node22" class="node">
<title>Node22</title>
<g id="a_node22"><a xlink:href="class_c_p_s_1_1_p_f_solver_interface_branch.html" target="_top" xlink:title="Common base class of all Component templates.">
<polygon fill="none" stroke="black" points="1924,-148.88 1924,-167.88 2080,-167.88 2080,-148.88 1924,-148.88"/>
<text text-anchor="middle" x="2002" y="-155.88" font-family="Helvetica,sans-Serif" font-size="10.00">CPS::PFSolverInterfaceBranch</text>
</a>
</g>
</g>
<!-- Node22&#45;&gt;Node1 -->
<g id="edge31" class="edge">
<title>Node22&#45;&gt;Node1</title>
<path fill="none" stroke="midnightblue" d="M2090.36,-158.38C2099.27,-158.38 2108.14,-158.38 2116.58,-158.38"/>
<polygon fill="midnightblue" stroke="midnightblue" points="2090.31,-154.88 2080.31,-158.38 2090.31,-161.88 2090.31,-154.88"/>
</g>
<!-- Node23 -->
<g id="node23" class="node">
<title>Node23</title>
<g id="a_node23"><a xlink:href="class_c_p_s_1_1_base_1_1_ph1_1_1_pi_line.html" target="_top" xlink:title=" ">
<polygon fill="none" stroke="black" points="844,-59.88 844,-78.88 964,-78.88 964,-59.88 844,-59.88"/>
<text text-anchor="middle" x="904" y="-66.88" font-family="Helvetica,sans-Serif" font-size="10.00">CPS::Base::Ph1::PiLine</text>
</a>
</g>
</g>
<!-- Node23&#45;&gt;Node1 -->
<g id="edge32" class="edge">
<title>Node23&#45;&gt;Node1</title>
<path fill="none" stroke="midnightblue" d="M974.49,-72.88C1023.08,-75.03 1089.48,-77.38 1148,-77.38 1148,-77.38 1148,-77.38 2003,-77.38 2068.56,-77.38 2135.66,-127.32 2161.47,-148.77"/>
<polygon fill="midnightblue" stroke="midnightblue" points="974.55,-69.38 964.4,-72.43 974.23,-76.38 974.55,-69.38"/>
</g>
<!-- Node24&#45;&gt;Node1 -->
<g id="edge37" class="edge">
<title>Node24&#45;&gt;Node1</title>
<path fill="none" stroke="#9a32cd" stroke-dasharray="5,2" d="M576.64,-50.41C624.19,-39.27 700.22,-24.38 767,-24.38 767,-24.38 767,-24.38 2003,-24.38 2083.28,-24.38 2147.79,-118.02 2166.79,-148.74"/>
<polygon fill="#9a32cd" stroke="#9a32cd" points="575.57,-47.07 566.65,-52.79 577.19,-53.88 575.57,-47.07"/>
<text text-anchor="middle" x="1373.5" y="-49.38" font-family="Helvetica,sans-Serif" font-size="10.00"> mActivePowerInjection</text>
<text text-anchor="middle" x="1373.5" y="-38.38" font-family="Helvetica,sans-Serif" font-size="10.00">mInductance</text>
<text text-anchor="middle" x="1373.5" y="-27.38" font-family="Helvetica,sans-Serif" font-size="10.00">mReactivePowerInjection</text>
</g>
<!-- Node24&#45;&gt;Node23 -->
<g id="edge33" class="edge">
<title>Node24&#45;&gt;Node23</title>
<path fill="none" stroke="#9a32cd" stroke-dasharray="5,2" d="M599.21,-62.47C627.92,-62.59 661.57,-62.85 692,-63.38 743.3,-64.27 801.59,-65.98 843.89,-67.35"/>
<polygon fill="#9a32cd" stroke="#9a32cd" points="598.88,-58.97 588.87,-62.43 598.86,-65.97 598.88,-58.97"/>
<text text-anchor="middle" x="658.5" y="-99.38" font-family="Helvetica,sans-Serif" font-size="10.00"> mParallelCap</text>
<text text-anchor="middle" x="658.5" y="-88.38" font-family="Helvetica,sans-Serif" font-size="10.00">mParallelCond</text>
<text text-anchor="middle" x="658.5" y="-77.38" font-family="Helvetica,sans-Serif" font-size="10.00">mSeriesInd</text>
<text text-anchor="middle" x="658.5" y="-66.38" font-family="Helvetica,sans-Serif" font-size="10.00">mSeriesRes</text>
</g>
<!-- Node25 -->
<g id="node25" class="node">
<title>Node25</title>
<g id="a_node25"><a xlink:title=" ">
<polygon fill="none" stroke="#bfbfbf" points="166,-42.88 166,-83.88 282,-83.88 282,-42.88 166,-42.88"/>
<text text-anchor="start" x="174" y="-71.88" font-family="Helvetica,sans-Serif" font-size="10.00">std::enable_shared</text>
<text text-anchor="start" x="174" y="-60.88" font-family="Helvetica,sans-Serif" font-size="10.00">_from_this&lt; Attribute</text>
<text text-anchor="middle" x="224" y="-49.88" font-family="Helvetica,sans-Serif" font-size="10.00">&lt; Real &gt; &gt;</text>
</a>
</g>
</g>
<!-- Node25&#45;&gt;Node24 -->
<g id="edge35" class="edge">
<title>Node25&#45;&gt;Node24</title>
<path fill="none" stroke="midnightblue" d="M292.68,-63.16C345.72,-62.98 418.76,-62.74 469.34,-62.57"/>
<polygon fill="midnightblue" stroke="midnightblue" points="292.34,-59.66 282.35,-63.19 292.36,-66.66 292.34,-59.66"/>
</g>
<!-- Node26&#45;&gt;Node1 -->
<g id="edge38" class="edge">
<title>Node26&#45;&gt;Node1</title>
<path fill="none" stroke="#9a32cd" stroke-dasharray="5,2" d="M617.52,-132.81C721.71,-127.78 901,-120.38 1055,-120.38 1055,-120.38 1055,-120.38 2003,-120.38 2054.87,-120.38 2113.56,-137.53 2146.48,-148.79"/>
<polygon fill="#9a32cd" stroke="#9a32cd" points="617.18,-129.33 607.36,-133.31 617.52,-136.32 617.18,-129.33"/>
<text text-anchor="middle" x="1373.5" y="-123.38" font-family="Helvetica,sans-Serif" font-size="10.00"> mCurrent</text>
</g>
<!-- Node27 -->
<g id="node27" class="node">
<title>Node27</title>
<g id="a_node27"><a xlink:title=" ">
<polygon fill="none" stroke="#bfbfbf" points="166,-140.88 166,-181.88 282,-181.88 282,-140.88 166,-140.88"/>
<text text-anchor="start" x="174" y="-169.88" font-family="Helvetica,sans-Serif" font-size="10.00">std::enable_shared</text>
<text text-anchor="start" x="174" y="-158.88" font-family="Helvetica,sans-Serif" font-size="10.00">_from_this&lt; Attribute</text>
<text text-anchor="middle" x="224" y="-147.88" font-family="Helvetica,sans-Serif" font-size="10.00">&lt; MatrixComp &gt; &gt;</text>
</a>
</g>
</g>
<!-- Node27&#45;&gt;Node26 -->
<g id="edge40" class="edge">
<title>Node27&#45;&gt;Node26</title>
<path fill="none" stroke="midnightblue" d="M292.41,-156.04C339.31,-152.33 401.96,-147.36 450.86,-143.49"/>
<polygon fill="midnightblue" stroke="midnightblue" points="292.04,-152.56 282.35,-156.84 292.59,-159.54 292.04,-152.56"/>
</g>
</g>
</svg>
