<?xml version="1.0" encoding="UTF-8" standalone="no"?>
<!DOCTYPE svg PUBLIC "-//W3C//DTD SVG 1.1//EN"
 "http://www.w3.org/Graphics/SVG/1.1/DTD/svg11.dtd">
<!-- Generated by graphviz version 12.2.1 (20241206.2353)
 -->
<!-- Title: CPS::Signal::SignalGenerator Pages: 1 -->
<!--zoomable 164 -->

<svg id="main" version="1.1" xmlns="http://www.w3.org/2000/svg" xmlns:xlink="http://www.w3.org/1999/xlink" xml:space="preserve" onload="init(evt)">

<style type="text/css"><![CDATA[
.node, .edge {opacity: 0.7;}
.node.selected, .edge.selected {opacity: 1;}
.edge:hover path { stroke: red; }
.edge:hover polygon { stroke: red; fill: red; }
]]></style>

<defs>
  <circle id="rim" cx="0" cy="0" r="7"/>
  <circle id="rim2" cx="0" cy="0" r="3.5"/>
  <g id="zoomPlus">
    <use xlink:href="#rim" fill="#404040"><set attributeName="fill" to="#808080" begin="zoomplus.mouseover" end="zoomplus.mouseout"/></use>
    <path d="M-4,0h8M0,-4v8" fill="none" stroke="white" stroke-width="1.5" pointer-events="none"/>
  </g>
  <g id="zoomMin">
    <use xlink:href="#rim" fill="#404040"><set attributeName="fill" to="#808080" begin="zoomminus.mouseover" end="zoomminus.mouseout"/></use>
    <path d="M-4,0h8" fill="none" stroke="white" stroke-width="1.5" pointer-events="none"/>
  </g>
  <g id="arrowUp" transform="translate(30 24)">
    <use xlink:href="#rim"/>
    <path pointer-events="none" fill="none" stroke="white" stroke-width="1.5" d="M0,-3.0v7 M-2.5,-0.5L0,-3.0L2.5,-0.5"/>
  </g>
  <g id="arrowRight" transform="rotate(90) translate(36 -43)">
    <use xlink:href="#rim"/>
    <path pointer-events="none" fill="none" stroke="white" stroke-width="1.5" d="M0,-3.0v7 M-2.5,-0.5L0,-3.0L2.5,-0.5"/>
  </g>
  <g id="arrowDown" transform="rotate(180) translate(-30 -48)">
    <use xlink:href="#rim"/>
    <path pointer-events="none" fill="none" stroke="white" stroke-width="1.5" d="M0,-3.0v7 M-2.5,-0.5L0,-3.0L2.5,-0.5"/>
  </g>
  <g id="arrowLeft" transform="rotate(270) translate(-36 17)">
    <use xlink:href="#rim"/>
    <path pointer-events="none" fill="none" stroke="white" stroke-width="1.5" d="M0,-3.0v7 M-2.5,-0.5L0,-3.0L2.5,-0.5"/>
  </g>
  <g id="resetDef">
    <use xlink:href="#rim2" fill="#404040"><set attributeName="fill" to="#808080" begin="reset.mouseover" end="reset.mouseout"/></use>
  </g>
</defs>
<script type="application/ecmascript">
var viewWidth = 835;
var viewHeight = 164;
var sectionId = 'dynsection-0';
</script>
<script type="application/ecmascript" xlink:href="svg.min.js"/>
<svg id="graph" class="graph">
<g id="viewport">
<title>CPS::Signal::SignalGenerator</title>
<!-- Node1 -->
<g id="Node000001" class="node">
<title>Node1</title>
<g id="a_Node000001"><a xlink:title="Model to generate generic signals.">
<polygon fill="#999999" stroke="#666666" points="625,-92.25 477,-92.25 477,-70 625,-70 625,-92.25"/>
<text text-anchor="middle" x="551" y="-78.75" font-family="Helvetica,sans-Serif" font-size="10.00">CPS::Signal::SignalGenerator</text>
</a>
</g>
</g>
<!-- Node5 -->
<g id="Node000005" class="node">
<title>Node5</title>
<g id="a_Node000005"><a xlink:href="class_c_p_s_1_1_signal_1_1_cosine_f_m_generator.html" target="_top" xlink:title="Model to generate signals containing a frequency ramp.">
<polygon fill="white" stroke="#666666" points="827,-156.25 661,-156.25 661,-134 827,-134 827,-156.25"/>
<text text-anchor="middle" x="744" y="-142.75" font-family="Helvetica,sans-Serif" font-size="10.00">CPS::Signal::CosineFMGenerator</text>
</a>
</g>
</g>
<!-- Node1&#45;&gt;Node5 -->
<g id="edge4_Node000001_Node000005" class="edge">
<title>Node1&#45;&gt;Node5</title>
<g id="a_edge4_Node000001_Node000005"><a xlink:title=" ">
<path fill="none" stroke="#63b8ff" d="M587.98,-97.18C609,-106.17 636.19,-117.14 661,-125.12 670.48,-128.18 680.72,-131.02 690.63,-133.55"/>
<polygon fill="#63b8ff" stroke="#63b8ff" points="589.56,-94.05 578.99,-93.29 586.78,-100.47 589.56,-94.05"/>
</a>
</g>
</g>
<!-- Node6 -->
<g id="Node000006" class="node">
<title>Node6</title>
<g id="a_Node000006"><a xlink:href="class_c_p_s_1_1_signal_1_1_d_c_generator.html" target="_top" xlink:title="Model to generate sinusoidal signals.">
<polygon fill="white" stroke="#666666" points="811.25,-116.25 676.75,-116.25 676.75,-94 811.25,-94 811.25,-116.25"/>
<text text-anchor="middle" x="744" y="-102.75" font-family="Helvetica,sans-Serif" font-size="10.00">CPS::Signal::DCGenerator</text>
</a>
</g>
</g>
<!-- Node1&#45;&gt;Node6 -->
<g id="edge5_Node000001_Node000006" class="edge">
<title>Node1&#45;&gt;Node6</title>
<g id="a_edge5_Node000001_Node000006"><a xlink:title=" ">
<path fill="none" stroke="#63b8ff" d="M636.46,-91.74C649.86,-93.42 663.55,-95.14 676.47,-96.76"/>
<polygon fill="#63b8ff" stroke="#63b8ff" points="637.16,-88.3 626.8,-90.52 636.29,-95.24 637.16,-88.3"/>
</a>
</g>
</g>
<!-- Node7 -->
<g id="Node000007" class="node">
<title>Node7</title>
<g id="a_Node000007"><a xlink:href="class_c_p_s_1_1_signal_1_1_frequency_ramp_generator.html" target="_top" xlink:title="Model to generate signals containing a frequency ramp.">
<polygon fill="white" stroke="#666666" points="817.62,-76.38 670.38,-76.38 670.38,-39.88 817.62,-39.88 817.62,-76.38"/>
<text text-anchor="start" x="678.38" y="-62.88" font-family="Helvetica,sans-Serif" font-size="10.00">CPS::Signal::FrequencyRamp</text>
<text text-anchor="middle" x="744" y="-48.62" font-family="Helvetica,sans-Serif" font-size="10.00">Generator</text>
</a>
</g>
</g>
<!-- Node1&#45;&gt;Node7 -->
<g id="edge6_Node000001_Node000007" class="edge">
<title>Node1&#45;&gt;Node7</title>
<g id="a_edge6_Node000001_Node000007"><a xlink:title=" ">
<path fill="none" stroke="#63b8ff" d="M636.38,-70.96C647.56,-69.62 658.93,-68.25 669.9,-66.93"/>
<polygon fill="#63b8ff" stroke="#63b8ff" points="636.31,-67.45 626.8,-72.12 637.15,-74.4 636.31,-67.45"/>
</a>
</g>
</g>
<!-- Node8 -->
<g id="Node000008" class="node">
<title>Node8</title>
<g id="a_Node000008"><a xlink:href="class_c_p_s_1_1_signal_1_1_sine_wave_generator.html" target="_top" xlink:title="Model to generate sinusoidal signals.">
<polygon fill="white" stroke="#666666" points="827,-22.25 661,-22.25 661,0 827,0 827,-22.25"/>
<text text-anchor="middle" x="744" y="-8.75" font-family="Helvetica,sans-Serif" font-size="10.00">CPS::Signal::SineWaveGenerator</text>
</a>
</g>
</g>
<!-- Node1&#45;&gt;Node8 -->
<g id="edge7_Node000001_Node000008" class="edge">
<title>Node1&#45;&gt;Node8</title>
<g id="a_edge7_Node000001_Node000008"><a xlink:title=" ">
<path fill="none" stroke="#63b8ff" d="M584.16,-64.4C605.52,-53.79 634.42,-40.37 661,-31.12 670,-28 679.71,-25.17 689.2,-22.69"/>
<polygon fill="#63b8ff" stroke="#63b8ff" points="582.74,-61.2 575.38,-68.82 585.89,-67.45 582.74,-61.2"/>
</a>
</g>
</g>
<!-- Node2 -->
<g id="Node000002" class="node">
<title>Node2</title>
<g id="a_Node000002"><a xlink:href="class_c_p_s_1_1_sim_signal_comp.html" target="_top" xlink:title=" ">
<polygon fill="white" stroke="#666666" points="441,-92.25 331.25,-92.25 331.25,-70 441,-70 441,-92.25"/>
<text text-anchor="middle" x="386.12" y="-78.75" font-family="Helvetica,sans-Serif" font-size="10.00">CPS::SimSignalComp</text>
</a>
</g>
</g>
<!-- Node2&#45;&gt;Node1 -->
<g id="edge1_Node000001_Node000002" class="edge">
<title>Node2&#45;&gt;Node1</title>
<g id="a_edge1_Node000001_Node000002"><a xlink:title=" ">
<path fill="none" stroke="#63b8ff" d="M452.69,-81.12C460.55,-81.12 468.62,-81.12 476.58,-81.12"/>
<polygon fill="#63b8ff" stroke="#63b8ff" points="452.87,-77.63 442.87,-81.13 452.87,-84.63 452.87,-77.63"/>
</a>
</g>
</g>
<!-- Node3 -->
<g id="Node000003" class="node">
<title>Node3</title>
<g id="a_Node000003"><a xlink:href="class_c_p_s_1_1_topological_signal_comp.html" target="_top" xlink:title=" ">
<polygon fill="white" stroke="#666666" points="295.25,-92.25 151,-92.25 151,-70 295.25,-70 295.25,-92.25"/>
<text text-anchor="middle" x="223.12" y="-78.75" font-family="Helvetica,sans-Serif" font-size="10.00">CPS::TopologicalSignalComp</text>
</a>
</g>
</g>
<!-- Node3&#45;&gt;Node2 -->
<g id="edge2_Node000002_Node000003" class="edge">
<title>Node3&#45;&gt;Node2</title>
<g id="a_edge2_Node000002_Node000003"><a xlink:title=" ">
<path fill="none" stroke="#63b8ff" d="M307.19,-81.12C315.33,-81.12 323.44,-81.12 331.19,-81.12"/>
<polygon fill="#63b8ff" stroke="#63b8ff" points="307.19,-77.63 297.19,-81.13 307.19,-84.63 307.19,-77.63"/>
</a>
</g>
</g>
<!-- Node4 -->
<g id="Node000004" class="node">
<title>Node4</title>
<g id="a_Node000004"><a xlink:href="class_c_p_s_1_1_identified_object.html" target="_top" xlink:title=" ">
<polygon fill="white" stroke="#666666" points="115,-92.25 0,-92.25 0,-70 115,-70 115,-92.25"/>
<text text-anchor="middle" x="57.5" y="-78.75" font-family="Helvetica,sans-Serif" font-size="10.00">CPS::IdentifiedObject</text>
</a>
</g>
</g>
<!-- Node4&#45;&gt;Node3 -->
<g id="edge3_Node000003_Node000004" class="edge">
<title>Node4&#45;&gt;Node3</title>
<g id="a_edge3_Node000003_Node000004"><a xlink:title=" ">
<path fill="none" stroke="#63b8ff" d="M126.73,-81.12C134.67,-81.12 142.78,-81.12 150.75,-81.12"/>
<polygon fill="#63b8ff" stroke="#63b8ff" points="126.78,-77.63 116.78,-81.13 126.78,-84.63 126.78,-77.63"/>
</a>
</g>
</g>
</g>
</svg>

<g id="navigator" transform="translate(0 0)" fill="#404254">
  <rect fill="#f2f5e9" fill-opacity="0.5" stroke="#606060" stroke-width=".5" x="0" y="0" width="60" height="60"/>
  <use id="zoomplus" xlink:href="#zoomPlus" x="17" y="9" onmousedown="handleZoom(evt,'in')"/>
  <use id="zoomminus" xlink:href="#zoomMin" x="42" y="9" onmousedown="handleZoom(evt,'out')"/>
  <use id="reset" xlink:href="#resetDef" x="30" y="36" onmousedown="handleReset()"/>
   <use id="arrowup" xlink:href="#arrowUp" x="0" y="0" onmousedown="handlePan(0,-1)"/>
  <use id="arrowright" xlink:href="#arrowRight" x="0" y="0" onmousedown="handlePan(1,0)"/>
  <use id="arrowdown" xlink:href="#arrowDown" x="0" y="0" onmousedown="handlePan(0,1)"/>
  <use id="arrowleft" xlink:href="#arrowLeft" x="0" y="0" onmousedown="handlePan(-1,0)"/>
</g>
<svg viewBox="0 0 15 15" width="100%" height="30px" preserveAspectRatio="xMaxYMin meet">
 <g id="arrow_out" transform="scale(0.3 0.3)">
  <a xlink:href="class_c_p_s_1_1_signal_1_1_signal_generator__inherit__graph_org.svg" target="_base">
   <rect id="button" ry="5" rx="5" y="6" x="6" height="38" width="38"
        fill="#f2f5e9" fill-opacity="0.5" stroke="#606060" stroke-width="1.0"/>
   <path id="arrow"
     d="M 11.500037,31.436501 C 11.940474,20.09759 22.043105,11.32322 32.158766,21.979434 L 37.068811,17.246167 C 37.068811,17.246167 37.088388,32 37.088388,32 L 22.160133,31.978069 C 22.160133,31.978069 26.997745,27.140456 26.997745,27.140456 C 18.528582,18.264221 13.291696,25.230495 11.500037,31.436501 z"
     style="fill:#404040;"/>
  </a>
 </g>
</svg>

<style type='text/css'>
<![CDATA[
[data-mouse-over-selected='false'] { opacity: 0.7; }
[data-mouse-over-selected='true']  { opacity: 1.0; }
]]>
</style>
<script type="application/ecmascript"><![CDATA[
document.addEventListener('DOMContentLoaded', (event) => {
  highlightEdges();
  highlightAdjacentNodes();
});
]]></script>
</svg>
