<?xml version="1.0" encoding="UTF-8" standalone="no"?>
<!DOCTYPE svg PUBLIC "-//W3C//DTD SVG 1.1//EN"
 "http://www.w3.org/Graphics/SVG/1.1/DTD/svg11.dtd">
<!-- Generated by graphviz version 2.44.0 (0)
 -->
<!-- Title: CPS::DP::Ph1::SynchronGeneratorIdeal Pages: 1 -->
<!--zoomable 456 -->
<svg id="main" version="1.1" xmlns="http://www.w3.org/2000/svg" xmlns:xlink="http://www.w3.org/1999/xlink" xml:space="preserve" onload="init(evt)">
<style type="text/css"><![CDATA[
.edge:hover path { stroke: red; }
.edge:hover polygon { stroke: red; fill: red; }
]]></style>
<script type="text/javascript"><![CDATA[
var edges = document.getElementsByTagName('g');
if (edges && edges.length) {
  for (var i=0;i<edges.length;i++) {
    if (edges[i].id.substr(0,4)=='edge') {
      edges[i].setAttribute('class','edge');
    }
  }
}
]]></script>
        <defs>
                <circle id="rim" cx="0" cy="0" r="7"/>
                <circle id="rim2" cx="0" cy="0" r="3.5"/>
                <g id="zoomPlus">
                        <use xlink:href="#rim" fill="#404040">
                                <set attributeName="fill" to="#808080" begin="zoomplus.mouseover" end="zoomplus.mouseout"/>
                        </use>
                        <path d="M-4,0h8M0,-4v8" fill="none" stroke="white" stroke-width="1.5" pointer-events="none"/>
                </g>
                <g id="zoomMin">
                        <use xlink:href="#rim" fill="#404040">
                                <set attributeName="fill" to="#808080" begin="zoomminus.mouseover" end="zoomminus.mouseout"/>
                        </use>
                        <path d="M-4,0h8" fill="none" stroke="white" stroke-width="1.5" pointer-events="none"/>
                </g>
                <g id="dirArrow">
                        <path fill="none" stroke="white" stroke-width="1.5" d="M0,-3.0v7 M-2.5,-0.5L0,-3.0L2.5,-0.5"/>
                </g>
               <g id="resetDef">
                       <use xlink:href="#rim2" fill="#404040">
                               <set attributeName="fill" to="#808080" begin="reset.mouseover" end="reset.mouseout"/>
                       </use>
               </g>
        </defs>

<script type="text/javascript">
var viewWidth = 1791;
var viewHeight = 456;
var sectionId = 'dynsection-1';
</script>
<script xlink:href="svgpan.js"/>
<svg id="graph" class="graph">
<g id="viewport">
<title>CPS::DP::Ph1::SynchronGeneratorIdeal</title>
<!-- Node1 -->
<g id="node1" class="node">
<title>Node1</title>
<g id="a_node1"><a xlink:title="Ideal voltage source representing a synchronous generator.">
<polygon fill="#bfbfbf" stroke="black" points="1612,-187 1612,-217 1783,-217 1783,-187 1612,-187"/>
<text text-anchor="start" x="1620" y="-205" font-family="Helvetica" font-size="10.00">CPS::DP::Ph1::SynchronGenerator</text>
<text text-anchor="middle" x="1697.5" y="-194" font-family="Helvetica" font-size="10.00">Ideal</text>
</a>
</g>
</g>
<!-- Node2 -->
<g id="node2" class="node">
<title>Node2</title>
<g id="a_node2"><a xlink:href="class_c_p_s_1_1_sim_power_comp.html" target="_top" xlink:title=" ">
<polygon fill="none" stroke="black" points="1428,-245 1428,-275 1548,-275 1548,-245 1428,-245"/>
<text text-anchor="start" x="1436" y="-263" font-family="Helvetica" font-size="10.00">CPS::SimPowerComp&lt;</text>
<text text-anchor="middle" x="1488" y="-252" font-family="Helvetica" font-size="10.00"> Complex &gt;</text>
</a>
</g>
</g>
<!-- Node2&#45;&gt;Node1 -->
<g id="edge1" class="edge">
<title>Node2&#45;&gt;Node1</title>
<path fill="none" stroke="midnightblue" d="M1552.67,-242.2C1581.47,-234.15 1615.14,-224.74 1642.66,-217.05"/>
<polygon fill="midnightblue" stroke="midnightblue" points="1551.39,-238.93 1542.71,-244.99 1553.28,-245.67 1551.39,-238.93"/>
</g>
<!-- Node3 -->
<g id="node3" class="node">
<title>Node3</title>
<g id="a_node3"><a xlink:href="class_c_p_s_1_1_topological_power_comp.html" target="_top" xlink:title=" ">
<polygon fill="none" stroke="black" points="877,-262.5 877,-281.5 1023,-281.5 1023,-262.5 877,-262.5"/>
<text text-anchor="middle" x="950" y="-269.5" font-family="Helvetica" font-size="10.00">CPS::TopologicalPowerComp</text>
</a>
</g>
</g>
<!-- Node3&#45;&gt;Node2 -->
<g id="edge2" class="edge">
<title>Node3&#45;&gt;Node2</title>
<path fill="none" stroke="midnightblue" d="M1033.3,-270.16C1142.26,-267.72 1331.77,-263.48 1427.72,-261.33"/>
<polygon fill="midnightblue" stroke="midnightblue" points="1032.93,-266.66 1023.01,-270.39 1033.08,-273.66 1032.93,-266.66"/>
</g>
<!-- Node11 -->
<g id="node11" class="node">
<title>Node11</title>
<g id="a_node11"><a xlink:href="class_c_p_s_1_1_sim_power_comp.html" target="_top" xlink:title="Base class for all components that are transmitting power.">
<polygon fill="none" stroke="black" points="1118,-289 1118,-319 1238,-319 1238,-289 1118,-289"/>
<text text-anchor="start" x="1126" y="-307" font-family="Helvetica" font-size="10.00">CPS::SimPowerComp&lt;</text>
<text text-anchor="middle" x="1178" y="-296" font-family="Helvetica" font-size="10.00"> VarType &gt;</text>
</a>
</g>
</g>
<!-- Node3&#45;&gt;Node11 -->
<g id="edge12" class="edge">
<title>Node3&#45;&gt;Node11</title>
<path fill="none" stroke="midnightblue" d="M1028.38,-282.96C1057.62,-287.1 1090.41,-291.74 1117.74,-295.61"/>
<polygon fill="midnightblue" stroke="midnightblue" points="1028.59,-279.45 1018.2,-281.51 1027.61,-286.38 1028.59,-279.45"/>
</g>
<!-- Node4 -->
<g id="node4" class="node">
<title>Node4</title>
<g id="a_node4"><a xlink:href="class_c_p_s_1_1_identified_object.html" target="_top" xlink:title=" ">
<polygon fill="none" stroke="black" points="671,-262.5 671,-281.5 783,-281.5 783,-262.5 671,-262.5"/>
<text text-anchor="middle" x="727" y="-269.5" font-family="Helvetica" font-size="10.00">CPS::IdentifiedObject</text>
</a>
</g>
</g>
<!-- Node4&#45;&gt;Node3 -->
<g id="edge3" class="edge">
<title>Node4&#45;&gt;Node3</title>
<path fill="none" stroke="midnightblue" d="M793.43,-272C819.71,-272 850.09,-272 877,-272"/>
<polygon fill="midnightblue" stroke="midnightblue" points="793.2,-268.5 783.2,-272 793.2,-275.5 793.2,-268.5"/>
</g>
<!-- Node5 -->
<g id="node5" class="node">
<title>Node5</title>
<g id="a_node5"><a xlink:href="class_c_p_s_1_1_attribute_list.html" target="_top" xlink:title="Base class of objects having attributes to access member variables.">
<polygon fill="none" stroke="black" points="455.5,-228.5 455.5,-247.5 551.5,-247.5 551.5,-228.5 455.5,-228.5"/>
<text text-anchor="middle" x="503.5" y="-235.5" font-family="Helvetica" font-size="10.00">CPS::AttributeList</text>
</a>
</g>
</g>
<!-- Node5&#45;&gt;Node4 -->
<g id="edge4" class="edge">
<title>Node5&#45;&gt;Node4</title>
<path fill="none" stroke="midnightblue" d="M561.85,-246.8C595.36,-251.95 637.45,-258.41 670.61,-263.5"/>
<polygon fill="midnightblue" stroke="midnightblue" points="562.16,-243.31 551.75,-245.25 561.1,-250.23 562.16,-243.31"/>
</g>
<!-- Node14 -->
<g id="node14" class="node">
<title>Node14</title>
<g id="a_node14"><a xlink:href="class_c_p_s_1_1_m_n_a_interface.html" target="_top" xlink:title="Interface to be implemented by all models used by the MNA solver.">
<polygon fill="none" stroke="black" points="675,-205.5 675,-224.5 779,-224.5 779,-205.5 675,-205.5"/>
<text text-anchor="middle" x="727" y="-212.5" font-family="Helvetica" font-size="10.00">CPS::MNAInterface</text>
</a>
</g>
</g>
<!-- Node5&#45;&gt;Node14 -->
<g id="edge18" class="edge">
<title>Node5&#45;&gt;Node14</title>
<path fill="none" stroke="midnightblue" d="M561.82,-232.05C596.82,-228.41 641.18,-223.81 674.97,-220.3"/>
<polygon fill="midnightblue" stroke="midnightblue" points="561.33,-228.58 551.75,-233.09 562.05,-235.54 561.33,-228.58"/>
</g>
<!-- Node6 -->
<g id="node6" class="node">
<title>Node6</title>
<g id="a_node6"><a xlink:href="class_c_p_s_1_1_attribute.html" target="_top" xlink:title=" ">
<polygon fill="none" stroke="black" points="441.5,-270.5 441.5,-289.5 565.5,-289.5 565.5,-270.5 441.5,-270.5"/>
<text text-anchor="middle" x="503.5" y="-277.5" font-family="Helvetica" font-size="10.00">CPS::Attribute&lt; String &gt;</text>
</a>
</g>
</g>
<!-- Node6&#45;&gt;Node4 -->
<g id="edge5" class="edge">
<title>Node6&#45;&gt;Node4</title>
<path fill="none" stroke="#9a32cd" stroke-dasharray="5,2" d="M575.85,-277.42C606.62,-276.31 642.05,-275.03 670.77,-273.99"/>
<polygon fill="#9a32cd" stroke="#9a32cd" points="575.48,-273.93 565.61,-277.79 575.73,-280.93 575.48,-273.93"/>
<text text-anchor="middle" x="621.5" y="-290" font-family="Helvetica" font-size="10.00"> mName</text>
<text text-anchor="middle" x="621.5" y="-279" font-family="Helvetica" font-size="10.00">mUID</text>
</g>
<!-- Node7 -->
<g id="node7" class="node">
<title>Node7</title>
<g id="a_node7"><a xlink:href="class_c_p_s_1_1_attribute_base.html" target="_top" xlink:title=" ">
<polygon fill="none" stroke="black" points="2.5,-232.5 2.5,-251.5 105.5,-251.5 105.5,-232.5 2.5,-232.5"/>
<text text-anchor="middle" x="54" y="-239.5" font-family="Helvetica" font-size="10.00">CPS::AttributeBase</text>
</a>
</g>
</g>
<!-- Node7&#45;&gt;Node6 -->
<g id="edge6" class="edge">
<title>Node7&#45;&gt;Node6</title>
<path fill="none" stroke="midnightblue" d="M68.5,-259.55C84.42,-278.69 112.8,-308.28 145,-321 257.45,-365.42 299.75,-355.54 417,-326 444.95,-318.96 473.71,-300.8 489.73,-289.52"/>
<polygon fill="midnightblue" stroke="midnightblue" points="71.1,-257.19 62.1,-251.59 65.64,-261.58 71.1,-257.19"/>
</g>
<!-- Node9 -->
<g id="node9" class="node">
<title>Node9</title>
<g id="a_node9"><a xlink:href="class_c_p_s_1_1_attribute.html" target="_top" xlink:title=" ">
<polygon fill="none" stroke="black" points="162,-194.5 162,-213.5 266,-213.5 266,-194.5 162,-194.5"/>
<text text-anchor="middle" x="214" y="-201.5" font-family="Helvetica" font-size="10.00">CPS::Attribute&lt; T &gt;</text>
</a>
</g>
</g>
<!-- Node7&#45;&gt;Node9 -->
<g id="edge9" class="edge">
<title>Node7&#45;&gt;Node9</title>
<path fill="none" stroke="midnightblue" d="M104.76,-230.03C126.9,-224.71 152.61,-218.52 173.42,-213.52"/>
<polygon fill="midnightblue" stroke="midnightblue" points="103.77,-226.67 94.87,-232.41 105.41,-233.48 103.77,-226.67"/>
</g>
<!-- Node12 -->
<g id="node12" class="node">
<title>Node12</title>
<g id="a_node12"><a xlink:href="class_c_p_s_1_1_attribute.html" target="_top" xlink:title=" ">
<polygon fill="none" stroke="black" points="438,-338 438,-368 569,-368 569,-338 438,-338"/>
<text text-anchor="start" x="446" y="-356" font-family="Helvetica" font-size="10.00">CPS::Attribute&lt; MatrixVar</text>
<text text-anchor="middle" x="503.5" y="-345" font-family="Helvetica" font-size="10.00">&lt; VarType &gt; &gt;</text>
</a>
</g>
</g>
<!-- Node7&#45;&gt;Node12 -->
<g id="edge14" class="edge">
<title>Node7&#45;&gt;Node12</title>
<path fill="none" stroke="midnightblue" d="M63.96,-260.65C77.46,-286.29 105.66,-331.37 145,-350 239.1,-394.56 363.38,-382.01 437.89,-368.06"/>
<polygon fill="midnightblue" stroke="midnightblue" points="67.01,-258.92 59.38,-251.57 60.76,-262.08 67.01,-258.92"/>
</g>
<!-- Node15 -->
<g id="node15" class="node">
<title>Node15</title>
<g id="a_node15"><a xlink:href="class_c_p_s_1_1_attribute.html" target="_top" xlink:title=" ">
<polygon fill="none" stroke="black" points="441,-182.5 441,-201.5 566,-201.5 566,-182.5 441,-182.5"/>
<text text-anchor="middle" x="503.5" y="-189.5" font-family="Helvetica" font-size="10.00">CPS::Attribute&lt; Matrix &gt;</text>
</a>
</g>
</g>
<!-- Node7&#45;&gt;Node15 -->
<g id="edge20" class="edge">
<title>Node7&#45;&gt;Node15</title>
<path fill="none" stroke="midnightblue" d="M115.76,-246.97C204.51,-253.29 364.71,-260.83 417,-238 427.66,-233.34 425.38,-225.53 435,-219 445.76,-211.7 458.78,-205.9 470.51,-201.58"/>
<polygon fill="midnightblue" stroke="midnightblue" points="115.79,-243.47 105.57,-246.23 115.28,-250.45 115.79,-243.47"/>
</g>
<!-- Node19 -->
<g id="node19" class="node">
<title>Node19</title>
<g id="a_node19"><a xlink:href="class_c_p_s_1_1_attribute.html" target="_top" xlink:title=" ">
<polygon fill="none" stroke="black" points="435,-102.5 435,-121.5 572,-121.5 572,-102.5 435,-102.5"/>
<text text-anchor="middle" x="503.5" y="-109.5" font-family="Helvetica" font-size="10.00">CPS::Attribute&lt; Complex &gt;</text>
</a>
</g>
</g>
<!-- Node7&#45;&gt;Node19 -->
<g id="edge26" class="edge">
<title>Node7&#45;&gt;Node19</title>
<path fill="none" stroke="midnightblue" d="M58.16,-222.49C65.52,-184.25 87.76,-100.11 145,-65 258.39,4.55 429.86,-73.75 484.86,-102.37"/>
<polygon fill="midnightblue" stroke="midnightblue" points="54.71,-221.93 56.39,-232.39 61.6,-223.16 54.71,-221.93"/>
</g>
<!-- Node8 -->
<g id="node8" class="node">
<title>Node8</title>
<g id="a_node8"><a xlink:title=" ">
<polygon fill="none" stroke="#bfbfbf" points="160,-270.5 160,-311.5 268,-311.5 268,-270.5 160,-270.5"/>
<text text-anchor="start" x="168" y="-299.5" font-family="Helvetica" font-size="10.00">std::enable_shared</text>
<text text-anchor="start" x="168" y="-288.5" font-family="Helvetica" font-size="10.00">_from_this&lt; Attribute</text>
<text text-anchor="middle" x="214" y="-277.5" font-family="Helvetica" font-size="10.00">&lt; String &gt; &gt;</text>
</a>
</g>
</g>
<!-- Node8&#45;&gt;Node6 -->
<g id="edge7" class="edge">
<title>Node8&#45;&gt;Node6</title>
<path fill="none" stroke="midnightblue" d="M278.13,-288.58C326.64,-286.73 393.24,-284.18 441.27,-282.34"/>
<polygon fill="midnightblue" stroke="midnightblue" points="277.93,-285.09 268.07,-288.97 278.19,-292.08 277.93,-285.09"/>
</g>
<!-- Node9&#45;&gt;Node6 -->
<g id="edge8" class="edge">
<title>Node9&#45;&gt;Node6</title>
<path fill="none" stroke="orange" stroke-dasharray="5,2" d="M260.96,-216.15C318.02,-231.23 414.19,-256.65 466.3,-270.43"/>
<polygon fill="orange" stroke="orange" points="261.68,-212.72 251.12,-213.55 259.89,-219.49 261.68,-212.72"/>
<text text-anchor="middle" x="359" y="-258" font-family="Helvetica" font-size="10.00"> &lt; String &gt;</text>
</g>
<!-- Node9&#45;&gt;Node12 -->
<g id="edge16" class="edge">
<title>Node9&#45;&gt;Node12</title>
<path fill="none" stroke="orange" stroke-dasharray="5,2" d="M233.35,-220.4C250.11,-234.78 276,-255.6 301,-270 351.65,-299.18 414.56,-323.37 456.48,-337.96"/>
<polygon fill="orange" stroke="orange" points="235.31,-217.46 225.48,-213.53 230.71,-222.74 235.31,-217.46"/>
<text text-anchor="middle" x="359" y="-325" font-family="Helvetica" font-size="10.00"> &lt; MatrixVar&lt; VarType &gt; &gt;</text>
</g>
<!-- Node9&#45;&gt;Node15 -->
<g id="edge22" class="edge">
<title>Node9&#45;&gt;Node15</title>
<path fill="none" stroke="orange" stroke-dasharray="5,2" d="M276.3,-195.23C284.59,-194.32 292.99,-193.53 301,-193 347.77,-189.9 400.79,-189.78 440.7,-190.36"/>
<polygon fill="orange" stroke="orange" points="275.81,-191.76 266.29,-196.4 276.63,-198.72 275.81,-191.76"/>
<text text-anchor="middle" x="359" y="-196" font-family="Helvetica" font-size="10.00"> &lt; Matrix &gt;</text>
</g>
<!-- Node9&#45;&gt;Node19 -->
<g id="edge28" class="edge">
<title>Node9&#45;&gt;Node19</title>
<path fill="none" stroke="orange" stroke-dasharray="5,2" d="M264.79,-191.55C270.99,-189.57 277.2,-187.38 283,-185 291.47,-181.52 292.59,-178.61 301,-175 355.91,-151.46 422.59,-132.35 463.78,-121.58"/>
<polygon fill="orange" stroke="orange" points="263.64,-188.24 255.08,-194.49 265.67,-194.94 263.64,-188.24"/>
<text text-anchor="middle" x="359" y="-178" font-family="Helvetica" font-size="10.00"> &lt; Complex &gt;</text>
</g>
<!-- Node10 -->
<g id="node10" class="node">
<title>Node10</title>
<g id="a_node10"><a xlink:title=" ">
<polygon fill="none" stroke="#bfbfbf" points="0,-0.5 0,-41.5 108,-41.5 108,-0.5 0,-0.5"/>
<text text-anchor="start" x="8" y="-29.5" font-family="Helvetica" font-size="10.00">std::enable_shared</text>
<text text-anchor="start" x="8" y="-18.5" font-family="Helvetica" font-size="10.00">_from_this&lt; Attribute</text>
<text text-anchor="middle" x="54" y="-7.5" font-family="Helvetica" font-size="10.00">&lt; T &gt; &gt;</text>
</a>
</g>
</g>
<!-- Node10&#45;&gt;Node9 -->
<g id="edge10" class="edge">
<title>Node10&#45;&gt;Node9</title>
<path fill="none" stroke="midnightblue" d="M63.61,-51.27C75.7,-88.3 101.28,-150.31 145,-185 149.99,-188.96 155.76,-192.1 161.79,-194.58"/>
<polygon fill="midnightblue" stroke="midnightblue" points="66.89,-50.03 60.55,-41.53 60.21,-52.12 66.89,-50.03"/>
</g>
<!-- Node11&#45;&gt;Node2 -->
<g id="edge11" class="edge">
<title>Node11&#45;&gt;Node2</title>
<path fill="none" stroke="orange" stroke-dasharray="5,2" d="M1248.21,-294.11C1302.28,-286.39 1376.62,-275.77 1427.92,-268.44"/>
<polygon fill="orange" stroke="orange" points="1247.43,-290.69 1238.02,-295.57 1248.42,-297.62 1247.43,-290.69"/>
<text text-anchor="middle" x="1319.5" y="-295" font-family="Helvetica" font-size="10.00"> &lt; Complex &gt;</text>
</g>
<!-- Node12&#45;&gt;Node11 -->
<g id="edge13" class="edge">
<title>Node12&#45;&gt;Node11</title>
<path fill="none" stroke="#9a32cd" stroke-dasharray="5,2" d="M579.52,-347.53C714.38,-337.71 995.09,-317.25 1117.63,-308.33"/>
<polygon fill="#9a32cd" stroke="#9a32cd" points="579.01,-344.06 569.29,-348.28 579.52,-351.04 579.01,-344.06"/>
<text text-anchor="middle" x="830" y="-345" font-family="Helvetica" font-size="10.00"> mIntfCurrent</text>
<text text-anchor="middle" x="830" y="-334" font-family="Helvetica" font-size="10.00">mIntfVoltage</text>
</g>
<!-- Node13 -->
<g id="node13" class="node">
<title>Node13</title>
<g id="a_node13"><a xlink:title=" ">
<polygon fill="none" stroke="#bfbfbf" points="145,-406.5 145,-447.5 283,-447.5 283,-406.5 145,-406.5"/>
<text text-anchor="start" x="153" y="-435.5" font-family="Helvetica" font-size="10.00">std::enable_shared</text>
<text text-anchor="start" x="153" y="-424.5" font-family="Helvetica" font-size="10.00">_from_this&lt; Attribute</text>
<text text-anchor="middle" x="214" y="-413.5" font-family="Helvetica" font-size="10.00">&lt; MatrixVar&lt; VarType &gt; &gt; &gt;</text>
</a>
</g>
</g>
<!-- Node13&#45;&gt;Node12 -->
<g id="edge15" class="edge">
<title>Node13&#45;&gt;Node12</title>
<path fill="none" stroke="midnightblue" d="M293.31,-418.2C331.21,-412.74 377.04,-404.35 417,-392 436.8,-385.88 457.99,-376.24 474.33,-368.07"/>
<polygon fill="midnightblue" stroke="midnightblue" points="292.77,-414.74 283.36,-419.59 293.74,-421.67 292.77,-414.74"/>
</g>
<!-- Node14&#45;&gt;Node1 -->
<g id="edge17" class="edge">
<title>Node14&#45;&gt;Node1</title>
<path fill="none" stroke="midnightblue" d="M789.4,-215C833.74,-215 895.07,-215 949,-215 949,-215 949,-215 1489,-215 1529.43,-215 1574.2,-212.51 1611.77,-209.71"/>
<polygon fill="midnightblue" stroke="midnightblue" points="789.35,-211.5 779.35,-215 789.35,-218.5 789.35,-211.5"/>
</g>
<!-- Node15&#45;&gt;Node14 -->
<g id="edge19" class="edge">
<title>Node15&#45;&gt;Node14</title>
<path fill="none" stroke="#9a32cd" stroke-dasharray="5,2" d="M576.42,-199.47C608.49,-202.8 645.53,-206.64 674.72,-209.68"/>
<polygon fill="#9a32cd" stroke="#9a32cd" points="576.51,-195.96 566.2,-198.41 575.79,-202.92 576.51,-195.96"/>
<text text-anchor="middle" x="621.5" y="-209" font-family="Helvetica" font-size="10.00"> mRightVector</text>
</g>
<!-- Node16 -->
<g id="node16" class="node">
<title>Node16</title>
<g id="a_node16"><a xlink:title=" ">
<polygon fill="none" stroke="#bfbfbf" points="160,-134.5 160,-175.5 268,-175.5 268,-134.5 160,-134.5"/>
<text text-anchor="start" x="168" y="-163.5" font-family="Helvetica" font-size="10.00">std::enable_shared</text>
<text text-anchor="start" x="168" y="-152.5" font-family="Helvetica" font-size="10.00">_from_this&lt; Attribute</text>
<text text-anchor="middle" x="214" y="-141.5" font-family="Helvetica" font-size="10.00">&lt; Matrix &gt; &gt;</text>
</a>
</g>
</g>
<!-- Node16&#45;&gt;Node15 -->
<g id="edge21" class="edge">
<title>Node16&#45;&gt;Node15</title>
<path fill="none" stroke="midnightblue" d="M278.31,-138.71C318.7,-131.05 371.77,-126.12 417,-139 446.73,-147.47 476.22,-169.56 491.59,-182.39"/>
<polygon fill="midnightblue" stroke="midnightblue" points="277.45,-135.31 268.33,-140.7 278.82,-142.18 277.45,-135.31"/>
</g>
<!-- Node17 -->
<g id="node17" class="node">
<title>Node17</title>
<g id="a_node17"><a xlink:href="class_shared_factory.html" target="_top" xlink:title=" ">
<polygon fill="none" stroke="black" points="1401,-156 1401,-186 1575,-186 1575,-156 1401,-156"/>
<text text-anchor="start" x="1409" y="-174" font-family="Helvetica" font-size="10.00">SharedFactory&lt; SynchronGenerator</text>
<text text-anchor="middle" x="1488" y="-163" font-family="Helvetica" font-size="10.00">Ideal &gt;</text>
</a>
</g>
</g>
<!-- Node17&#45;&gt;Node1 -->
<g id="edge23" class="edge">
<title>Node17&#45;&gt;Node1</title>
<path fill="none" stroke="midnightblue" d="M1585.21,-185.37C1594.12,-186.71 1603.11,-188.05 1611.91,-189.36"/>
<polygon fill="midnightblue" stroke="midnightblue" points="1585.6,-181.89 1575.2,-183.88 1584.57,-188.82 1585.6,-181.89"/>
</g>
<!-- Node18 -->
<g id="node18" class="node">
<title>Node18</title>
<g id="a_node18"><a xlink:href="class_shared_factory.html" target="_top" xlink:title=" ">
<polygon fill="none" stroke="black" points="1125.5,-161.5 1125.5,-180.5 1230.5,-180.5 1230.5,-161.5 1125.5,-161.5"/>
<text text-anchor="middle" x="1178" y="-168.5" font-family="Helvetica" font-size="10.00">SharedFactory&lt; T &gt;</text>
</a>
</g>
</g>
<!-- Node18&#45;&gt;Node17 -->
<g id="edge24" class="edge">
<title>Node18&#45;&gt;Node17</title>
<path fill="none" stroke="orange" stroke-dasharray="5,2" d="M1240.67,-171C1286.61,-171 1349.94,-171 1400.88,-171"/>
<polygon fill="orange" stroke="orange" points="1240.55,-167.5 1230.55,-171 1240.55,-174.5 1240.55,-167.5"/>
<text text-anchor="middle" x="1319.5" y="-174" font-family="Helvetica" font-size="10.00"> &lt; SynchronGeneratorIdeal &gt;</text>
</g>
<!-- Node19&#45;&gt;Node1 -->
<g id="edge25" class="edge">
<title>Node19&#45;&gt;Node1</title>
<path fill="none" stroke="#9a32cd" stroke-dasharray="5,2" d="M582.61,-114.62C625.02,-115.83 678.38,-117 726,-117 726,-117 726,-117 1489,-117 1561.99,-117 1639.37,-162.6 1675.56,-187"/>
<polygon fill="#9a32cd" stroke="#9a32cd" points="582.45,-111.12 572.35,-114.32 582.24,-118.11 582.45,-111.12"/>
<text text-anchor="middle" x="1070.5" y="-120" font-family="Helvetica" font-size="10.00"> mVoltageRef</text>
</g>
<!-- Node20 -->
<g id="node20" class="node">
<title>Node20</title>
<g id="a_node20"><a xlink:title=" ">
<polygon fill="none" stroke="#bfbfbf" points="160,-74.5 160,-115.5 268,-115.5 268,-74.5 160,-74.5"/>
<text text-anchor="start" x="168" y="-103.5" font-family="Helvetica" font-size="10.00">std::enable_shared</text>
<text text-anchor="start" x="168" y="-92.5" font-family="Helvetica" font-size="10.00">_from_this&lt; Attribute</text>
<text text-anchor="middle" x="214" y="-81.5" font-family="Helvetica" font-size="10.00">&lt; Complex &gt; &gt;</text>
</a>
</g>
</g>
<!-- Node20&#45;&gt;Node19 -->
<g id="edge27" class="edge">
<title>Node20&#45;&gt;Node19</title>
<path fill="none" stroke="midnightblue" d="M278.28,-98.74C324.63,-101.48 387.42,-105.2 434.77,-108"/>
<polygon fill="midnightblue" stroke="midnightblue" points="278.26,-95.23 268.07,-98.14 277.84,-102.22 278.26,-95.23"/>
</g>
</g>
</svg>
        <g id="navigator" transform="translate(0 0)" fill="#404254">
                <rect fill="#f2f5e9" fill-opacity="0.5" stroke="#606060" stroke-width=".5" x="0" y="0" width="60" height="60"/>
                <use id="zoomplus" xlink:href="#zoomPlus" x="17" y="9" onmousedown="handleZoom(evt,'in')"/>
                <use id="zoomminus" xlink:href="#zoomMin" x="42" y="9" onmousedown="handleZoom(evt,'out')"/>
                <use id="reset" xlink:href="#resetDef" x="30" y="36" onmousedown="handleReset()"/>
                <g id="arrowUp" xlink:href="#dirArrow" transform="translate(30 24)" onmousedown="handlePan(0,-1)">
                  <use xlink:href="#rim" fill="#404040">
                        <set attributeName="fill" to="#808080" begin="arrowUp.mouseover" end="arrowUp.mouseout"/>
                  </use>
                  <path fill="none" stroke="white" stroke-width="1.5" d="M0,-3.0v7 M-2.5,-0.5L0,-3.0L2.5,-0.5"/>
                </g>
                <g id="arrowRight" xlink:href="#dirArrow" transform="rotate(90) translate(36 -43)" onmousedown="handlePan(1,0)">
                  <use xlink:href="#rim" fill="#404040">
                        <set attributeName="fill" to="#808080" begin="arrowRight.mouseover" end="arrowRight.mouseout"/>
                  </use>
                  <path fill="none" stroke="white" stroke-width="1.5" d="M0,-3.0v7 M-2.5,-0.5L0,-3.0L2.5,-0.5"/>
                </g>
                <g id="arrowDown" xlink:href="#dirArrow" transform="rotate(180) translate(-30 -48)" onmousedown="handlePan(0,1)">
                  <use xlink:href="#rim" fill="#404040">
                        <set attributeName="fill" to="#808080" begin="arrowDown.mouseover" end="arrowDown.mouseout"/>
                  </use>
                  <path fill="none" stroke="white" stroke-width="1.5" d="M0,-3.0v7 M-2.5,-0.5L0,-3.0L2.5,-0.5"/>
                </g>
                <g id="arrowLeft" xlink:href="#dirArrow" transform="rotate(270) translate(-36 17)" onmousedown="handlePan(-1,0)">
                  <use xlink:href="#rim" fill="#404040">
                        <set attributeName="fill" to="#808080" begin="arrowLeft.mouseover" end="arrowLeft.mouseout"/>
                  </use>
                  <path fill="none" stroke="white" stroke-width="1.5" d="M0,-3.0v7 M-2.5,-0.5L0,-3.0L2.5,-0.5"/>
                </g>
        </g>
        <svg viewBox="0 0 15 15" width="100%" height="30px" preserveAspectRatio="xMaxYMin meet">
         <g id="arrow_out" transform="scale(0.3 0.3)">
          <a xlink:href="class_c_p_s_1_1_d_p_1_1_ph1_1_1_synchron_generator_ideal__coll__graph_org.svg" target="_base">
           <rect id="button" ry="5" rx="5" y="6" x="6" height="38" width="38"
                fill="#f2f5e9" fill-opacity="0.5" stroke="#606060" stroke-width="1.0"/>
           <path id="arrow"
             d="M 11.500037,31.436501 C 11.940474,20.09759 22.043105,11.32322 32.158766,21.979434 L 37.068811,17.246167 C 37.068811,17.246167 37.088388,32 37.088388,32 L 22.160133,31.978069 C 22.160133,31.978069 26.997745,27.140456 26.997745,27.140456 C 18.528582,18.264221 13.291696,25.230495 11.500037,31.436501 z"
             style="fill:#404040;"/>
          </a>
         </g>
        </svg>
</svg>
