<?xml version="1.0" encoding="UTF-8" standalone="no"?>
<!DOCTYPE svg PUBLIC "-//W3C//DTD SVG 1.1//EN"
 "http://www.w3.org/Graphics/SVG/1.1/DTD/svg11.dtd">
<!-- Generated by graphviz version 12.2.1 (20241206.2353)
 -->
<!-- Title: CPS::EMT::Ph3::AvVoltSourceInverterStateSpace Pages: 1 -->
<svg width="1191pt" height="221pt"
 viewBox="0.00 0.00 1190.75 220.50" xmlns="http://www.w3.org/2000/svg" xmlns:xlink="http://www.w3.org/1999/xlink">
<g id="graph0" class="graph" transform="scale(1 1) rotate(0) translate(4 216.5)">
<title>CPS::EMT::Ph3::AvVoltSourceInverterStateSpace</title>
<!-- Node1 -->
<g id="Node000001" class="node">
<title>Node1</title>
<g id="a_Node000001"><a xlink:title="average inverter model with LC filter">
<polygon fill="#999999" stroke="#666666" points="1182.75,-83.5 1032.5,-83.5 1032.5,-47 1182.75,-47 1182.75,-83.5"/>
<text text-anchor="start" x="1040.5" y="-70" font-family="Helvetica,sans-Serif" font-size="10.00">CPS::EMT::Ph3::AvVoltSource</text>
<text text-anchor="middle" x="1107.62" y="-55.75" font-family="Helvetica,sans-Serif" font-size="10.00">InverterStateSpace</text>
</a>
</g>
</g>
<!-- Node2 -->
<g id="Node000002" class="node">
<title>Node2</title>
<g id="a_Node000002"><a xlink:href="class_c_p_s_1_1_m_n_a_sim_power_comp.html" target="_top" xlink:title=" ">
<polygon fill="white" stroke="#666666" points="984.25,-130.5 848.25,-130.5 848.25,-94 984.25,-94 984.25,-130.5"/>
<text text-anchor="start" x="856.25" y="-117" font-family="Helvetica,sans-Serif" font-size="10.00">CPS::MNASimPowerComp</text>
<text text-anchor="middle" x="916.25" y="-102.75" font-family="Helvetica,sans-Serif" font-size="10.00">&lt; Real &gt;</text>
</a>
</g>
</g>
<!-- Node2&#45;&gt;Node1 -->
<g id="edge1_Node000001_Node000002" class="edge">
<title>Node2&#45;&gt;Node1</title>
<g id="a_edge1_Node000001_Node000002"><a xlink:title=" ">
<path fill="none" stroke="#63b8ff" d="M995.54,-92.82C1007.64,-89.82 1020.12,-86.72 1032.14,-83.74"/>
<polygon fill="#63b8ff" stroke="#63b8ff" points="994.88,-89.38 986.02,-95.18 996.57,-96.17 994.88,-89.38"/>
</a>
</g>
</g>
<!-- Node3 -->
<g id="Node000003" class="node">
<title>Node3</title>
<g id="a_Node000003"><a xlink:href="class_c_p_s_1_1_sim_power_comp.html" target="_top" xlink:title=" ">
<polygon fill="white" stroke="#666666" points="656.62,-176.5 537.88,-176.5 537.88,-140 656.62,-140 656.62,-176.5"/>
<text text-anchor="start" x="545.88" y="-163" font-family="Helvetica,sans-Serif" font-size="10.00">CPS::SimPowerComp&lt;</text>
<text text-anchor="middle" x="597.25" y="-148.75" font-family="Helvetica,sans-Serif" font-size="10.00"> Real &gt;</text>
</a>
</g>
</g>
<!-- Node3&#45;&gt;Node2 -->
<g id="edge2_Node000002_Node000003" class="edge">
<title>Node3&#45;&gt;Node2</title>
<g id="a_edge2_Node000002_Node000003"><a xlink:title=" ">
<path fill="none" stroke="#63b8ff" d="M668.12,-148.13C711.54,-141.84 768.52,-133.58 819,-126.25 828.36,-124.89 838.23,-123.46 847.94,-122.05"/>
<polygon fill="#63b8ff" stroke="#63b8ff" points="667.71,-144.65 658.31,-149.55 668.71,-151.58 667.71,-144.65"/>
</a>
</g>
</g>
<!-- Node4 -->
<g id="Node000004" class="node">
<title>Node4</title>
<g id="a_Node000004"><a xlink:href="class_c_p_s_1_1_topological_power_comp.html" target="_top" xlink:title=" ">
<polygon fill="white" stroke="#666666" points="299.25,-159.38 152,-159.38 152,-137.12 299.25,-137.12 299.25,-159.38"/>
<text text-anchor="middle" x="225.62" y="-145.88" font-family="Helvetica,sans-Serif" font-size="10.00">CPS::TopologicalPowerComp</text>
</a>
</g>
</g>
<!-- Node4&#45;&gt;Node3 -->
<g id="edge3_Node000003_Node000004" class="edge">
<title>Node4&#45;&gt;Node3</title>
<g id="a_edge3_Node000003_Node000004"><a xlink:title=" ">
<path fill="none" stroke="#63b8ff" d="M310.96,-150.53C380.23,-152.41 476.56,-155.01 537.66,-156.66"/>
<polygon fill="#63b8ff" stroke="#63b8ff" points="311.26,-147.04 301.16,-150.27 311.07,-154.04 311.26,-147.04"/>
</a>
</g>
</g>
<!-- Node6 -->
<g id="Node000006" class="node">
<title>Node6</title>
<g id="a_Node000006"><a xlink:href="class_c_p_s_1_1_sim_power_comp.html" target="_top" xlink:title="Base class for all components that are transmitting power.">
<polygon fill="white" stroke="#666666" points="455,-212.5 336.25,-212.5 336.25,-176 455,-176 455,-212.5"/>
<text text-anchor="start" x="344.25" y="-199" font-family="Helvetica,sans-Serif" font-size="10.00">CPS::SimPowerComp&lt;</text>
<text text-anchor="middle" x="395.62" y="-184.75" font-family="Helvetica,sans-Serif" font-size="10.00"> VarType &gt;</text>
</a>
</g>
</g>
<!-- Node4&#45;&gt;Node6 -->
<g id="edge6_Node000006_Node000004" class="edge">
<title>Node4&#45;&gt;Node6</title>
<g id="a_edge6_Node000006_Node000004"><a xlink:title=" ">
<path fill="none" stroke="#63b8ff" d="M280.1,-162.89C297.92,-167.77 317.87,-173.23 336.07,-178.22"/>
<polygon fill="#63b8ff" stroke="#63b8ff" points="281.05,-159.52 270.48,-160.26 279.2,-166.27 281.05,-159.52"/>
</a>
</g>
</g>
<!-- Node9 -->
<g id="Node000009" class="node">
<title>Node9</title>
<g id="a_Node000009"><a xlink:href="class_c_p_s_1_1_sim_power_comp.html" target="_top" xlink:title="Base class for all components that are transmitting power.">
<polygon fill="white" stroke="#666666" points="455,-80.5 336.25,-80.5 336.25,-44 455,-44 455,-80.5"/>
<text text-anchor="start" x="344.25" y="-67" font-family="Helvetica,sans-Serif" font-size="10.00">CPS::SimPowerComp&lt;</text>
<text text-anchor="middle" x="395.62" y="-52.75" font-family="Helvetica,sans-Serif" font-size="10.00"> VarType &gt;</text>
</a>
</g>
</g>
<!-- Node4&#45;&gt;Node9 -->
<g id="edge10_Node000009_Node000004" class="edge">
<title>Node4&#45;&gt;Node9</title>
<g id="a_edge10_Node000009_Node000004"><a xlink:title=" ">
<path fill="none" stroke="#63b8ff" d="M257.04,-131.24C278.9,-119.17 309.17,-102.79 336.25,-89.25 341.74,-86.5 347.57,-83.69 353.34,-80.97"/>
<polygon fill="#63b8ff" stroke="#63b8ff" points="255.41,-128.14 248.36,-136.05 258.81,-134.26 255.41,-128.14"/>
</a>
</g>
</g>
<!-- Node5 -->
<g id="Node000005" class="node">
<title>Node5</title>
<g id="a_Node000005"><a xlink:href="class_c_p_s_1_1_identified_object.html" target="_top" xlink:title=" ">
<polygon fill="white" stroke="#666666" points="115,-159.38 0,-159.38 0,-137.12 115,-137.12 115,-159.38"/>
<text text-anchor="middle" x="57.5" y="-145.88" font-family="Helvetica,sans-Serif" font-size="10.00">CPS::IdentifiedObject</text>
</a>
</g>
</g>
<!-- Node5&#45;&gt;Node4 -->
<g id="edge4_Node000004_Node000005" class="edge">
<title>Node5&#45;&gt;Node4</title>
<g id="a_edge4_Node000004_Node000005"><a xlink:title=" ">
<path fill="none" stroke="#63b8ff" d="M126.7,-148.25C134.95,-148.25 143.41,-148.25 151.73,-148.25"/>
<polygon fill="#63b8ff" stroke="#63b8ff" points="126.72,-144.75 116.72,-148.25 126.72,-151.75 126.72,-144.75"/>
</a>
</g>
</g>
<!-- Node6&#45;&gt;Node3 -->
<g id="edge5_Node000003_Node000006" class="edge">
<title>Node6&#45;&gt;Node3</title>
<g id="a_edge5_Node000003_Node000006"><a xlink:title=" ">
<path fill="none" stroke="orange" stroke-dasharray="5,2" d="M466.6,-181.63C489.76,-177.45 515.28,-172.85 537.51,-168.84"/>
<polygon fill="orange" stroke="orange" points="466.15,-178.16 456.93,-183.37 467.39,-185.04 466.15,-178.16"/>
</a>
</g>
<text text-anchor="middle" x="492.12" y="-184.22" font-family="Helvetica,sans-Serif" font-size="10.00" fill="grey"> &lt; Real &gt;</text>
</g>
<!-- Node7 -->
<g id="Node000007" class="node">
<title>Node7</title>
<g id="a_Node000007"><a xlink:href="class_c_p_s_1_1_m_n_a_interface.html" target="_top" xlink:title="Interface to be implemented by all models used by the MNA solver.">
<polygon fill="white" stroke="#666666" points="448.62,-120.38 342.62,-120.38 342.62,-98.12 448.62,-98.12 448.62,-120.38"/>
<text text-anchor="middle" x="395.62" y="-106.88" font-family="Helvetica,sans-Serif" font-size="10.00">CPS::MNAInterface</text>
</a>
</g>
</g>
<!-- Node7&#45;&gt;Node2 -->
<g id="edge7_Node000002_Node000007" class="edge">
<title>Node7&#45;&gt;Node2</title>
<g id="a_edge7_Node000002_Node000007"><a xlink:title=" ">
<path fill="none" stroke="#63b8ff" d="M459.99,-109.62C558.48,-110.19 747.44,-111.28 848.16,-111.86"/>
<polygon fill="#63b8ff" stroke="#63b8ff" points="460.26,-106.12 450.24,-109.56 460.22,-113.12 460.26,-106.12"/>
</a>
</g>
</g>
<!-- Node8 -->
<g id="Node000008" class="node">
<title>Node8</title>
<g id="a_Node000008"><a xlink:href="class_c_p_s_1_1_m_n_a_sim_power_comp.html" target="_top" xlink:title="Base class for all MNA components that are transmitting power.">
<polygon fill="white" stroke="#666666" points="665.25,-84.5 529.25,-84.5 529.25,-48 665.25,-48 665.25,-84.5"/>
<text text-anchor="start" x="537.25" y="-71" font-family="Helvetica,sans-Serif" font-size="10.00">CPS::MNASimPowerComp</text>
<text text-anchor="middle" x="597.25" y="-56.75" font-family="Helvetica,sans-Serif" font-size="10.00">&lt; VarType &gt;</text>
</a>
</g>
</g>
<!-- Node7&#45;&gt;Node8 -->
<g id="edge11_Node000008_Node000007" class="edge">
<title>Node7&#45;&gt;Node8</title>
<g id="a_edge11_Node000008_Node000007"><a xlink:title=" ">
<path fill="none" stroke="#63b8ff" d="M460.28,-95.54C482.23,-90.81 506.88,-85.5 529.1,-80.71"/>
<polygon fill="#63b8ff" stroke="#63b8ff" points="459.59,-92.11 450.55,-97.63 461.07,-98.95 459.59,-92.11"/>
</a>
</g>
</g>
<!-- Node8&#45;&gt;Node2 -->
<g id="edge8_Node000002_Node000008" class="edge">
<title>Node8&#45;&gt;Node2</title>
<g id="a_edge8_Node000002_Node000008"><a xlink:title=" ">
<path fill="none" stroke="orange" stroke-dasharray="5,2" d="M676.75,-68.64C719.15,-70.92 772.25,-75.35 819,-84 832.01,-86.41 845.78,-89.87 858.71,-93.56"/>
<polygon fill="orange" stroke="orange" points="677.05,-65.16 666.88,-68.15 676.7,-72.15 677.05,-65.16"/>
</a>
</g>
<text text-anchor="middle" x="751.12" y="-88.75" font-family="Helvetica,sans-Serif" font-size="10.00" fill="grey"> &lt; Real &gt;</text>
</g>
<!-- Node9&#45;&gt;Node8 -->
<g id="edge9_Node000008_Node000009" class="edge">
<title>Node9&#45;&gt;Node8</title>
<g id="a_edge9_Node000008_Node000009"><a xlink:title=" ">
<path fill="none" stroke="#63b8ff" d="M466.79,-63.66C487.03,-64.06 509.05,-64.5 529.09,-64.9"/>
<polygon fill="#63b8ff" stroke="#63b8ff" points="467.02,-60.16 456.95,-63.46 466.88,-67.16 467.02,-60.16"/>
</a>
</g>
</g>
<!-- Node10 -->
<g id="Node000010" class="node">
<title>Node10</title>
<g id="a_Node000010"><a xlink:href="class_c_p_s_1_1_base_1_1_ph1_1_1_voltage_source.html" target="_top" xlink:title=" ">
<polygon fill="white" stroke="#bfbfbf" points="995.5,-76.38 837,-76.38 837,-54.12 995.5,-54.12 995.5,-76.38"/>
<text text-anchor="middle" x="916.25" y="-62.88" font-family="Helvetica,sans-Serif" font-size="10.00">CPS::Base::Ph1::VoltageSource</text>
</a>
</g>
</g>
<!-- Node10&#45;&gt;Node1 -->
<g id="edge12_Node000001_Node000010" class="edge">
<title>Node10&#45;&gt;Node1</title>
<g id="a_edge12_Node000001_Node000010"><a xlink:title=" ">
<path fill="none" stroke="#63b8ff" d="M1007.24,-65.25C1015.58,-65.25 1023.97,-65.25 1032.15,-65.25"/>
<polygon fill="#63b8ff" stroke="#63b8ff" points="1007.43,-61.75 997.43,-65.25 1007.43,-68.75 1007.43,-61.75"/>
</a>
</g>
</g>
<!-- Node11 -->
<g id="Node000011" class="node">
<title>Node11</title>
<g id="a_Node000011"><a xlink:href="class_shared_factory.html" target="_top" xlink:title=" ">
<polygon fill="white" stroke="#666666" points="992.5,-36.5 840,-36.5 840,0 992.5,0 992.5,-36.5"/>
<text text-anchor="start" x="848" y="-23" font-family="Helvetica,sans-Serif" font-size="10.00">SharedFactory&lt; AvVoltSource</text>
<text text-anchor="middle" x="916.25" y="-8.75" font-family="Helvetica,sans-Serif" font-size="10.00">InverterStateSpace &gt;</text>
</a>
</g>
</g>
<!-- Node11&#45;&gt;Node1 -->
<g id="edge13_Node000001_Node000011" class="edge">
<title>Node11&#45;&gt;Node1</title>
<g id="a_edge13_Node000001_Node000011"><a xlink:title=" ">
<path fill="none" stroke="#63b8ff" d="M1003.7,-39.71C1013.19,-42.06 1022.79,-44.44 1032.11,-46.76"/>
<polygon fill="#63b8ff" stroke="#63b8ff" points="1004.66,-36.34 994.11,-37.33 1002.97,-43.13 1004.66,-36.34"/>
</a>
</g>
</g>
<!-- Node12 -->
<g id="Node000012" class="node">
<title>Node12</title>
<g id="a_Node000012"><a xlink:href="class_shared_factory.html" target="_top" xlink:title=" ">
<polygon fill="white" stroke="#666666" points="649.5,-29.38 545,-29.38 545,-7.12 649.5,-7.12 649.5,-29.38"/>
<text text-anchor="middle" x="597.25" y="-15.88" font-family="Helvetica,sans-Serif" font-size="10.00">SharedFactory&lt; T &gt;</text>
</a>
</g>
</g>
<!-- Node12&#45;&gt;Node11 -->
<g id="edge14_Node000011_Node000012" class="edge">
<title>Node12&#45;&gt;Node11</title>
<g id="a_edge14_Node000011_Node000012"><a xlink:title=" ">
<path fill="none" stroke="orange" stroke-dasharray="5,2" d="M661.15,-18.25C712.48,-18.25 785.16,-18.25 839.65,-18.25"/>
<polygon fill="orange" stroke="orange" points="661.4,-14.75 651.4,-18.25 661.4,-21.75 661.4,-14.75"/>
</a>
</g>
<text text-anchor="start" x="683.25" y="-37.25" font-family="Helvetica,sans-Serif" font-size="10.00" fill="grey"> &lt; AvVoltSourceInverterState</text>
<text text-anchor="middle" x="751.12" y="-23" font-family="Helvetica,sans-Serif" font-size="10.00" fill="grey">Space &gt;</text>
</g>
</g>
</svg>
