<?xml version="1.0" encoding="UTF-8" standalone="no"?>
<!DOCTYPE svg PUBLIC "-//W3C//DTD SVG 1.1//EN"
 "http://www.w3.org/Graphics/SVG/1.1/DTD/svg11.dtd">
<!-- Generated by graphviz version 2.44.0 (0)
 -->
<!-- Title: CPS::Signal::TurbineGovernor Pages: 1 -->
<svg width="334pt" height="266pt"
 viewBox="0.00 0.00 334.00 266.00" xmlns="http://www.w3.org/2000/svg" xmlns:xlink="http://www.w3.org/1999/xlink">
<g id="graph0" class="graph" transform="scale(1 1) rotate(0) translate(4 262)">
<title>CPS::Signal::TurbineGovernor</title>
<!-- Node1 -->
<g id="node1" class="node">
<title>Node1</title>
<g id="a_node1"><a xlink:title="Turbine governor model to be used with synchronous generator.">
<polygon fill="#bfbfbf" stroke="black" points="78,-0.5 78,-19.5 226,-19.5 226,-0.5 78,-0.5"/>
<text text-anchor="middle" x="152" y="-7.5" font-family="Helvetica" font-size="10.00">CPS::Signal::TurbineGovernor</text>
</a>
</g>
</g>
<!-- Node2 -->
<g id="node2" class="node">
<title>Node2</title>
<g id="a_node2"><a xlink:href="class_c_p_s_1_1_sim_signal_comp.html" target="_top" xlink:title=" ">
<polygon fill="none" stroke="black" points="16,-57.5 16,-76.5 130,-76.5 130,-57.5 16,-57.5"/>
<text text-anchor="middle" x="73" y="-64.5" font-family="Helvetica" font-size="10.00">CPS::SimSignalComp</text>
</a>
</g>
</g>
<!-- Node2&#45;&gt;Node1 -->
<g id="edge1" class="edge">
<title>Node2&#45;&gt;Node1</title>
<path fill="none" stroke="midnightblue" d="M93.77,-51.54C108.4,-41.35 127.48,-28.07 139.74,-19.53"/>
<polygon fill="midnightblue" stroke="midnightblue" points="91.55,-48.82 85.34,-57.41 95.55,-54.56 91.55,-48.82"/>
</g>
<!-- Node3 -->
<g id="node3" class="node">
<title>Node3</title>
<g id="a_node3"><a xlink:href="class_c_p_s_1_1_topological_signal_comp.html" target="_top" xlink:title=" ">
<polygon fill="none" stroke="black" points="0,-124.5 0,-143.5 146,-143.5 146,-124.5 0,-124.5"/>
<text text-anchor="middle" x="73" y="-131.5" font-family="Helvetica" font-size="10.00">CPS::TopologicalSignalComp</text>
</a>
</g>
</g>
<!-- Node3&#45;&gt;Node2 -->
<g id="edge2" class="edge">
<title>Node3&#45;&gt;Node2</title>
<path fill="none" stroke="midnightblue" d="M73,-114.04C73,-101.67 73,-86.12 73,-76.63"/>
<polygon fill="midnightblue" stroke="midnightblue" points="69.5,-114.23 73,-124.23 76.5,-114.23 69.5,-114.23"/>
</g>
<!-- Node4 -->
<g id="node4" class="node">
<title>Node4</title>
<g id="a_node4"><a xlink:href="class_c_p_s_1_1_identified_object.html" target="_top" xlink:title=" ">
<polygon fill="none" stroke="black" points="17,-181.5 17,-200.5 129,-200.5 129,-181.5 17,-181.5"/>
<text text-anchor="middle" x="73" y="-188.5" font-family="Helvetica" font-size="10.00">CPS::IdentifiedObject</text>
</a>
</g>
</g>
<!-- Node4&#45;&gt;Node3 -->
<g id="edge3" class="edge">
<title>Node4&#45;&gt;Node3</title>
<path fill="none" stroke="midnightblue" d="M73,-171.12C73,-161.82 73,-151.06 73,-143.71"/>
<polygon fill="midnightblue" stroke="midnightblue" points="69.5,-171.41 73,-181.41 76.5,-171.41 69.5,-171.41"/>
</g>
<!-- Node5 -->
<g id="node5" class="node">
<title>Node5</title>
<g id="a_node5"><a xlink:href="class_c_p_s_1_1_attribute_list.html" target="_top" xlink:title="Base class of objects having attributes to access member variables.">
<polygon fill="none" stroke="black" points="25,-238.5 25,-257.5 121,-257.5 121,-238.5 25,-238.5"/>
<text text-anchor="middle" x="73" y="-245.5" font-family="Helvetica" font-size="10.00">CPS::AttributeList</text>
</a>
</g>
</g>
<!-- Node5&#45;&gt;Node4 -->
<g id="edge4" class="edge">
<title>Node5&#45;&gt;Node4</title>
<path fill="none" stroke="midnightblue" d="M73,-228.12C73,-218.82 73,-208.06 73,-200.71"/>
<polygon fill="midnightblue" stroke="midnightblue" points="69.5,-228.41 73,-238.41 76.5,-228.41 69.5,-228.41"/>
</g>
<!-- Node6 -->
<g id="node6" class="node">
<title>Node6</title>
<g id="a_node6"><a xlink:href="class_shared_factory.html" target="_top" xlink:title=" ">
<polygon fill="none" stroke="black" points="148,-57.5 148,-76.5 318,-76.5 318,-57.5 148,-57.5"/>
<text text-anchor="middle" x="233" y="-64.5" font-family="Helvetica" font-size="10.00">SharedFactory&lt; TurbineGovernor &gt;</text>
</a>
</g>
</g>
<!-- Node6&#45;&gt;Node1 -->
<g id="edge5" class="edge">
<title>Node6&#45;&gt;Node1</title>
<path fill="none" stroke="midnightblue" d="M211.7,-51.54C196.7,-41.35 177.14,-28.07 164.57,-19.53"/>
<polygon fill="midnightblue" stroke="midnightblue" points="210.1,-54.68 220.34,-57.41 214.04,-48.89 210.1,-54.68"/>
</g>
<!-- Node7 -->
<g id="node7" class="node">
<title>Node7</title>
<g id="a_node7"><a xlink:href="class_shared_factory.html" target="_top" xlink:title=" ">
<polygon fill="none" stroke="black" points="180.5,-124.5 180.5,-143.5 285.5,-143.5 285.5,-124.5 180.5,-124.5"/>
<text text-anchor="middle" x="233" y="-131.5" font-family="Helvetica" font-size="10.00">SharedFactory&lt; T &gt;</text>
</a>
</g>
</g>
<!-- Node7&#45;&gt;Node6 -->
<g id="edge6" class="edge">
<title>Node7&#45;&gt;Node6</title>
<path fill="none" stroke="orange" stroke-dasharray="5,2" d="M233,-114.04C233,-101.67 233,-86.12 233,-76.63"/>
<polygon fill="orange" stroke="orange" points="229.5,-114.23 233,-124.23 236.5,-114.23 229.5,-114.23"/>
<text text-anchor="middle" x="279.5" y="-98" font-family="Helvetica" font-size="10.00"> &lt; TurbineGovernor &gt;</text>
</g>
</g>
</svg>
