<?xml version="1.0" encoding="UTF-8" standalone="no"?>
<!DOCTYPE svg PUBLIC "-//W3C//DTD SVG 1.1//EN"
 "http://www.w3.org/Graphics/SVG/1.1/DTD/svg11.dtd">
<!-- Generated by graphviz version 12.2.1 (20241206.2353)
 -->
<!-- Title: CPS::Signal::ExciterST1Parameters Pages: 1 -->
<svg width="369pt" height="176pt"
 viewBox="0.00 0.00 369.38 176.25" xmlns="http://www.w3.org/2000/svg" xmlns:xlink="http://www.w3.org/1999/xlink">
<g id="graph0" class="graph" transform="scale(1 1) rotate(0) translate(4 172.25)">
<title>CPS::Signal::ExciterST1Parameters</title>
<!-- Node1 -->
<g id="Node000001" class="node">
<title>Node1</title>
<g id="a_Node000001"><a xlink:title=" ">
<polygon fill="#999999" stroke="#666666" points="210.75,-22.25 36.5,-22.25 36.5,0 210.75,0 210.75,-22.25"/>
<text text-anchor="middle" x="123.62" y="-8.75" font-family="Helvetica,sans-Serif" font-size="10.00">CPS::Signal::ExciterST1Parameters</text>
</a>
</g>
</g>
<!-- Node2 -->
<g id="Node000002" class="node">
<title>Node2</title>
<g id="a_Node000002"><a xlink:href="class_c_p_s_1_1_base_1_1_exciter_parameters.html" target="_top" xlink:title=" ">
<polygon fill="white" stroke="#bfbfbf" points="153.25,-88.62 0,-88.62 0,-66.38 153.25,-66.38 153.25,-88.62"/>
<text text-anchor="middle" x="76.62" y="-75.12" font-family="Helvetica,sans-Serif" font-size="10.00">CPS::Base::ExciterParameters</text>
</a>
</g>
</g>
<!-- Node2&#45;&gt;Node1 -->
<g id="edge1_Node000001_Node000002" class="edge">
<title>Node2&#45;&gt;Node1</title>
<g id="a_edge1_Node000001_Node000002"><a xlink:title=" ">
<path fill="none" stroke="#63b8ff" d="M90.83,-57.05C99.08,-45.75 109.15,-31.95 115.94,-22.66"/>
<polygon fill="#63b8ff" stroke="#63b8ff" points="88.14,-54.79 85.07,-64.93 93.79,-58.92 88.14,-54.79"/>
</a>
</g>
</g>
<!-- Node3 -->
<g id="Node000003" class="node">
<title>Node3</title>
<g id="a_Node000003"><a xlink:href="class_shared_factory.html" target="_top" xlink:title=" ">
<polygon fill="white" stroke="#666666" points="310.12,-95.75 171.12,-95.75 171.12,-59.25 310.12,-59.25 310.12,-95.75"/>
<text text-anchor="start" x="179.12" y="-82.25" font-family="Helvetica,sans-Serif" font-size="10.00">SharedFactory&lt; ExciterST1</text>
<text text-anchor="middle" x="240.62" y="-68" font-family="Helvetica,sans-Serif" font-size="10.00">Parameters &gt;</text>
</a>
</g>
</g>
<!-- Node3&#45;&gt;Node1 -->
<g id="edge2_Node000001_Node000003" class="edge">
<title>Node3&#45;&gt;Node1</title>
<g id="a_edge2_Node000001_Node000003"><a xlink:title=" ">
<path fill="none" stroke="#63b8ff" d="M198.65,-53.41C179.54,-42.89 157.87,-30.97 142.75,-22.65"/>
<polygon fill="#63b8ff" stroke="#63b8ff" points="196.88,-56.43 207.33,-58.18 200.25,-50.29 196.88,-56.43"/>
</a>
</g>
</g>
<!-- Node4 -->
<g id="Node000004" class="node">
<title>Node4</title>
<g id="a_Node000004"><a xlink:href="class_shared_factory.html" target="_top" xlink:title=" ">
<polygon fill="white" stroke="#666666" points="292.88,-168.25 188.38,-168.25 188.38,-146 292.88,-146 292.88,-168.25"/>
<text text-anchor="middle" x="240.62" y="-154.75" font-family="Helvetica,sans-Serif" font-size="10.00">SharedFactory&lt; T &gt;</text>
</a>
</g>
</g>
<!-- Node4&#45;&gt;Node3 -->
<g id="edge3_Node000003_Node000004" class="edge">
<title>Node4&#45;&gt;Node3</title>
<g id="a_edge3_Node000003_Node000004"><a xlink:title=" ">
<path fill="none" stroke="orange" stroke-dasharray="5,2" d="M240.62,-134.36C240.62,-122.32 240.62,-107.54 240.62,-96.22"/>
<polygon fill="orange" stroke="orange" points="237.13,-134.14 240.63,-144.14 244.13,-134.14 237.13,-134.14"/>
</a>
</g>
<text text-anchor="middle" x="301" y="-118.5" font-family="Helvetica,sans-Serif" font-size="10.00" fill="grey"> &lt; ExciterST1Parameters &gt;</text>
</g>
</g>
</svg>
