<?xml version="1.0" encoding="UTF-8" standalone="no"?>
<!DOCTYPE svg PUBLIC "-//W3C//DTD SVG 1.1//EN"
 "http://www.w3.org/Graphics/SVG/1.1/DTD/svg11.dtd">
<!-- Generated by graphviz version 2.50.0 (0)
 -->
<!-- Title: DPsim::DAESolver Pages: 1 -->
<svg width="1819pt" height="473pt"
 viewBox="0.00 0.00 1819.00 472.68" xmlns="http://www.w3.org/2000/svg" xmlns:xlink="http://www.w3.org/1999/xlink">
<g id="graph0" class="graph" transform="scale(1 1) rotate(0) translate(4 468.68)">
<title>DPsim::DAESolver</title>
<!-- Node1 -->
<g id="node1" class="node">
<title>Node1</title>
<g id="a_node1"><a xlink:title="Solver class which uses Differential Algebraic Equation(DAE) systems.">
<polygon fill="#bfbfbf" stroke="black" points="1711,-246.87 1711,-265.87 1811,-265.87 1811,-246.87 1711,-246.87"/>
<text text-anchor="middle" x="1761" y="-253.87" font-family="Helvetica,sans-Serif" font-size="10.00">DPsim::DAESolver</text>
</a>
</g>
</g>
<!-- Node2 -->
<g id="node2" class="node">
<title>Node2</title>
<g id="a_node2"><a xlink:href="class_d_psim_1_1_solver.html" target="_top" xlink:title="Base class for more specific solvers such as MNA, ODE or IDA.">
<polygon fill="none" stroke="black" points="1519.5,-284.87 1519.5,-303.87 1600.5,-303.87 1600.5,-284.87 1519.5,-284.87"/>
<text text-anchor="middle" x="1560" y="-291.87" font-family="Helvetica,sans-Serif" font-size="10.00">DPsim::Solver</text>
</a>
</g>
</g>
<!-- Node2&#45;&gt;Node1 -->
<g id="edge1" class="edge">
<title>Node2&#45;&gt;Node1</title>
<path fill="none" stroke="midnightblue" d="M1610.57,-286.31C1635.37,-282.13 1665.83,-276.77 1693,-271.37 1701.42,-269.69 1710.4,-267.78 1718.96,-265.88"/>
<polygon fill="midnightblue" stroke="midnightblue" points="1609.94,-282.86 1600.66,-287.97 1611.1,-289.77 1609.94,-282.86"/>
</g>
<!-- Node3 -->
<g id="node3" class="node">
<title>Node3</title>
<g id="a_node3"><a xlink:href="class_c_p_s_1_1_system_topology.html" target="_top" xlink:title=" ">
<polygon fill="none" stroke="black" points="1502,-246.87 1502,-265.87 1618,-265.87 1618,-246.87 1502,-246.87"/>
<text text-anchor="middle" x="1560" y="-253.87" font-family="Helvetica,sans-Serif" font-size="10.00">CPS::SystemTopology</text>
</a>
</g>
</g>
<!-- Node3&#45;&gt;Node1 -->
<g id="edge2" class="edge">
<title>Node3&#45;&gt;Node1</title>
<path fill="none" stroke="#9a32cd" stroke-dasharray="5,2" d="M1628.19,-256.37C1655.22,-256.37 1685.83,-256.37 1710.73,-256.37"/>
<polygon fill="#9a32cd" stroke="#9a32cd" points="1628.03,-252.87 1618.03,-256.37 1628.03,-259.87 1628.03,-252.87"/>
<text text-anchor="middle" x="1670" y="-259.37" font-family="Helvetica,sans-Serif" font-size="10.00"> mSystem</text>
</g>
<!-- Node4 -->
<g id="node4" class="node">
<title>Node4</title>
<g id="a_node4"><a xlink:href="class_c_p_s_1_1_sim_node.html" target="_top" xlink:title=" ">
<polygon fill="none" stroke="black" points="1491,-208.87 1491,-227.87 1629,-227.87 1629,-208.87 1491,-208.87"/>
<text text-anchor="middle" x="1560" y="-215.87" font-family="Helvetica,sans-Serif" font-size="10.00">CPS::SimNode&lt; Complex &gt;</text>
</a>
</g>
</g>
<!-- Node4&#45;&gt;Node1 -->
<g id="edge3" class="edge">
<title>Node4&#45;&gt;Node1</title>
<path fill="none" stroke="#9a32cd" stroke-dasharray="5,2" d="M1629.17,-229.61C1649.73,-233.17 1672.32,-237.25 1693,-241.37 1701.42,-243.04 1710.4,-244.96 1718.96,-246.86"/>
<polygon fill="#9a32cd" stroke="#9a32cd" points="1629.72,-226.15 1619.27,-227.91 1628.53,-233.05 1629.72,-226.15"/>
<text text-anchor="middle" x="1670" y="-244.37" font-family="Helvetica,sans-Serif" font-size="10.00"> mNodes</text>
</g>
<!-- Node5 -->
<g id="node5" class="node">
<title>Node5</title>
<g id="a_node5"><a xlink:href="class_c_p_s_1_1_topological_node.html" target="_top" xlink:title=" ">
<polygon fill="none" stroke="black" points="964,-306.87 964,-325.87 1080,-325.87 1080,-306.87 964,-306.87"/>
<text text-anchor="middle" x="1022" y="-313.87" font-family="Helvetica,sans-Serif" font-size="10.00">CPS::TopologicalNode</text>
</a>
</g>
</g>
<!-- Node5&#45;&gt;Node4 -->
<g id="edge4" class="edge">
<title>Node5&#45;&gt;Node4</title>
<path fill="none" stroke="midnightblue" d="M1090.5,-321.63C1166.31,-325.55 1292.3,-326.08 1396,-297.37 1433.37,-287.02 1442.15,-279.86 1473,-256.37 1482.25,-249.32 1481.04,-243.37 1491,-237.37 1497.4,-233.51 1504.62,-230.41 1511.89,-227.93"/>
<polygon fill="midnightblue" stroke="midnightblue" points="1090.32,-318.11 1080.15,-321.05 1089.94,-325.1 1090.32,-318.11"/>
</g>
<!-- Node19 -->
<g id="node19" class="node">
<title>Node19</title>
<g id="a_node19"><a xlink:href="class_c_p_s_1_1_sim_node.html" target="_top" xlink:title=" ">
<polygon fill="none" stroke="black" points="1259,-208.87 1259,-227.87 1396,-227.87 1396,-208.87 1259,-208.87"/>
<text text-anchor="middle" x="1327.5" y="-215.87" font-family="Helvetica,sans-Serif" font-size="10.00">CPS::SimNode&lt; VarType &gt;</text>
</a>
</g>
</g>
<!-- Node5&#45;&gt;Node19 -->
<g id="edge24" class="edge">
<title>Node5&#45;&gt;Node19</title>
<path fill="none" stroke="midnightblue" d="M1090.34,-307.54C1149.88,-299.2 1229.11,-286.65 1241,-277.37 1256.37,-265.38 1244.23,-250.09 1259,-237.37 1263.52,-233.48 1268.78,-230.38 1274.34,-227.91"/>
<polygon fill="midnightblue" stroke="midnightblue" points="1089.65,-304.1 1080.22,-308.94 1090.61,-311.03 1089.65,-304.1"/>
</g>
<!-- Node6 -->
<g id="node6" class="node">
<title>Node6</title>
<g id="a_node6"><a xlink:href="class_c_p_s_1_1_identified_object.html" target="_top" xlink:title=" ">
<polygon fill="none" stroke="black" points="685,-356.87 685,-375.87 801,-375.87 801,-356.87 685,-356.87"/>
<text text-anchor="middle" x="743" y="-363.87" font-family="Helvetica,sans-Serif" font-size="10.00">CPS::IdentifiedObject</text>
</a>
</g>
</g>
<!-- Node6&#45;&gt;Node5 -->
<g id="edge5" class="edge">
<title>Node6&#45;&gt;Node5</title>
<path fill="none" stroke="midnightblue" d="M806.84,-355.03C855.46,-346.25 922.02,-334.24 967.97,-325.94"/>
<polygon fill="midnightblue" stroke="midnightblue" points="805.97,-351.63 796.75,-356.85 807.22,-358.52 805.97,-351.63"/>
</g>
<!-- Node7 -->
<g id="node7" class="node">
<title>Node7</title>
<g id="a_node7"><a xlink:href="class_c_p_s_1_1_attribute.html" target="_top" xlink:title=" ">
<polygon fill="none" stroke="black" points="467.5,-385.87 467.5,-404.87 594.5,-404.87 594.5,-385.87 467.5,-385.87"/>
<text text-anchor="middle" x="531" y="-392.87" font-family="Helvetica,sans-Serif" font-size="10.00">CPS::Attribute&lt; String &gt;</text>
</a>
</g>
</g>
<!-- Node7&#45;&gt;Node6 -->
<g id="edge6" class="edge">
<title>Node7&#45;&gt;Node6</title>
<path fill="none" stroke="#9a32cd" stroke-dasharray="5,2" d="M604.64,-385.34C630.92,-381.71 660.21,-377.66 684.97,-374.25"/>
<polygon fill="#9a32cd" stroke="#9a32cd" points="604.15,-381.87 594.72,-386.71 605.11,-388.81 604.15,-381.87"/>
<text text-anchor="middle" x="647" y="-395.37" font-family="Helvetica,sans-Serif" font-size="10.00"> mName</text>
<text text-anchor="middle" x="647" y="-384.37" font-family="Helvetica,sans-Serif" font-size="10.00">mUID</text>
</g>
<!-- Node8 -->
<g id="node8" class="node">
<title>Node8</title>
<g id="a_node8"><a xlink:href="class_c_p_s_1_1_attribute_base.html" target="_top" xlink:title=" ">
<polygon fill="none" stroke="black" points="5.5,-213.87 5.5,-232.87 110.5,-232.87 110.5,-213.87 5.5,-213.87"/>
<text text-anchor="middle" x="58" y="-220.87" font-family="Helvetica,sans-Serif" font-size="10.00">CPS::AttributeBase</text>
</a>
</g>
</g>
<!-- Node8&#45;&gt;Node7 -->
<g id="edge7" class="edge">
<title>Node8&#45;&gt;Node7</title>
<path fill="none" stroke="midnightblue" d="M61.03,-243.22C66.65,-286.43 86.68,-388.56 153,-431.37 270.11,-506.96 451.8,-432.67 510.8,-404.89"/>
<polygon fill="midnightblue" stroke="midnightblue" points="64.49,-242.66 59.85,-233.13 57.54,-243.47 64.49,-242.66"/>
</g>
<!-- Node10 -->
<g id="node10" class="node">
<title>Node10</title>
<g id="a_node10"><a xlink:href="class_c_p_s_1_1_attribute.html" target="_top" xlink:title=" ">
<polygon fill="none" stroke="black" points="172.5,-175.87 172.5,-194.87 276.5,-194.87 276.5,-175.87 172.5,-175.87"/>
<text text-anchor="middle" x="224.5" y="-182.87" font-family="Helvetica,sans-Serif" font-size="10.00">CPS::Attribute&lt; T &gt;</text>
</a>
</g>
</g>
<!-- Node8&#45;&gt;Node10 -->
<g id="edge10" class="edge">
<title>Node8&#45;&gt;Node10</title>
<path fill="none" stroke="midnightblue" d="M110.5,-211.47C133.62,-206.13 160.53,-199.92 182.29,-194.89"/>
<polygon fill="midnightblue" stroke="midnightblue" points="109.47,-208.12 100.51,-213.78 111.04,-214.94 109.47,-208.12"/>
</g>
<!-- Node12 -->
<g id="node12" class="node">
<title>Node12</title>
<g id="a_node12"><a xlink:href="class_c_p_s_1_1_attribute.html" target="_top" xlink:title=" ">
<polygon fill="none" stroke="black" points="453,-306.87 453,-325.87 609,-325.87 609,-306.87 453,-306.87"/>
<text text-anchor="middle" x="531" y="-313.87" font-family="Helvetica,sans-Serif" font-size="10.00">CPS::Attribute&lt; MatrixComp &gt;</text>
</a>
</g>
</g>
<!-- Node8&#45;&gt;Node12 -->
<g id="edge13" class="edge">
<title>Node8&#45;&gt;Node12</title>
<path fill="none" stroke="midnightblue" d="M92.74,-236.63C140.96,-254.93 232.73,-287.36 314,-302.37 359.64,-310.8 411.51,-314.35 452.98,-315.77"/>
<polygon fill="midnightblue" stroke="midnightblue" points="93.72,-233.26 83.13,-232.95 91.22,-239.8 93.72,-233.26"/>
</g>
<!-- Node17 -->
<g id="node17" class="node">
<title>Node17</title>
<g id="a_node17"><a xlink:href="class_c_p_s_1_1_attribute.html" target="_top" xlink:title=" ">
<polygon fill="none" stroke="black" points="462.5,-54.37 462.5,-84.37 599.5,-84.37 599.5,-54.37 462.5,-54.37"/>
<text text-anchor="start" x="470.5" y="-72.37" font-family="Helvetica,sans-Serif" font-size="10.00">CPS::Attribute&lt; MatrixVar</text>
<text text-anchor="middle" x="531" y="-61.37" font-family="Helvetica,sans-Serif" font-size="10.00">&lt; Complex &gt; &gt;</text>
</a>
</g>
</g>
<!-- Node8&#45;&gt;Node17 -->
<g id="edge20" class="edge">
<title>Node8&#45;&gt;Node17</title>
<path fill="none" stroke="midnightblue" d="M110.77,-208.25C112.66,-206.77 114.41,-205.15 116,-203.37 165.44,-147.93 94.95,-86.72 153,-40.37 255.85,41.75 428.85,-22.55 499.03,-54.29"/>
<polygon fill="midnightblue" stroke="midnightblue" points="108.46,-205.57 101.85,-213.85 112.18,-211.5 108.46,-205.57"/>
</g>
<!-- Node22 -->
<g id="node22" class="node">
<title>Node22</title>
<g id="a_node22"><a xlink:href="class_c_p_s_1_1_attribute.html" target="_top" xlink:title=" ">
<polygon fill="none" stroke="black" points="462.5,-195.37 462.5,-225.37 599.5,-225.37 599.5,-195.37 462.5,-195.37"/>
<text text-anchor="start" x="470.5" y="-213.37" font-family="Helvetica,sans-Serif" font-size="10.00">CPS::Attribute&lt; MatrixVar</text>
<text text-anchor="middle" x="531" y="-202.37" font-family="Helvetica,sans-Serif" font-size="10.00">&lt; VarType &gt; &gt;</text>
</a>
</g>
</g>
<!-- Node8&#45;&gt;Node22 -->
<g id="edge29" class="edge">
<title>Node8&#45;&gt;Node22</title>
<path fill="none" stroke="midnightblue" d="M120.89,-221.66C209.21,-219.22 370.81,-214.76 462.25,-212.24"/>
<polygon fill="midnightblue" stroke="midnightblue" points="120.65,-218.17 110.75,-221.94 120.85,-225.16 120.65,-218.17"/>
</g>
<!-- Node9 -->
<g id="node9" class="node">
<title>Node9</title>
<g id="a_node9"><a xlink:title=" ">
<polygon fill="none" stroke="#bfbfbf" points="166.5,-380.87 166.5,-421.87 282.5,-421.87 282.5,-380.87 166.5,-380.87"/>
<text text-anchor="start" x="174.5" y="-409.87" font-family="Helvetica,sans-Serif" font-size="10.00">std::enable_shared</text>
<text text-anchor="start" x="174.5" y="-398.87" font-family="Helvetica,sans-Serif" font-size="10.00">_from_this&lt; Attribute</text>
<text text-anchor="middle" x="224.5" y="-387.87" font-family="Helvetica,sans-Serif" font-size="10.00">&lt; String &gt; &gt;</text>
</a>
</g>
</g>
<!-- Node9&#45;&gt;Node7 -->
<g id="edge8" class="edge">
<title>Node9&#45;&gt;Node7</title>
<path fill="none" stroke="midnightblue" d="M292.93,-400.04C345.04,-399.01 416.64,-397.6 467.48,-396.6"/>
<polygon fill="midnightblue" stroke="midnightblue" points="292.7,-396.54 282.77,-400.24 292.84,-403.54 292.7,-396.54"/>
</g>
<!-- Node10&#45;&gt;Node7 -->
<g id="edge9" class="edge">
<title>Node10&#45;&gt;Node7</title>
<path fill="none" stroke="orange" stroke-dasharray="5,2" d="M241.43,-202.4C258.44,-220.06 286.65,-247.9 314,-268.37 381.92,-319.19 471.69,-366.28 510.62,-385.83"/>
<polygon fill="orange" stroke="orange" points="243.88,-199.89 234.45,-195.06 238.81,-204.72 243.88,-199.89"/>
<text text-anchor="middle" x="374.5" y="-347.37" font-family="Helvetica,sans-Serif" font-size="10.00"> &lt; String &gt;</text>
</g>
<!-- Node10&#45;&gt;Node12 -->
<g id="edge15" class="edge">
<title>Node10&#45;&gt;Node12</title>
<path fill="none" stroke="orange" stroke-dasharray="5,2" d="M265.42,-197.91C317.19,-214.37 404.48,-242.88 435,-257.37 465.69,-271.95 498.82,-294.16 516.7,-306.77"/>
<polygon fill="orange" stroke="orange" points="266.47,-194.57 255.88,-194.88 264.35,-201.24 266.47,-194.57"/>
<text text-anchor="middle" x="374.5" y="-260.37" font-family="Helvetica,sans-Serif" font-size="10.00"> &lt; MatrixComp &gt;</text>
</g>
<!-- Node10&#45;&gt;Node17 -->
<g id="edge22" class="edge">
<title>Node10&#45;&gt;Node17</title>
<path fill="none" stroke="orange" stroke-dasharray="5,2" d="M262.6,-172.45C273.39,-168.63 285.19,-164.39 296,-160.37 365.66,-134.48 446.33,-102.71 492.44,-84.38"/>
<polygon fill="orange" stroke="orange" points="261.29,-169.2 253.02,-175.83 263.62,-175.8 261.29,-169.2"/>
<text text-anchor="middle" x="374.5" y="-156.37" font-family="Helvetica,sans-Serif" font-size="10.00"> &lt; MatrixVar&lt; Complex &gt; &gt;</text>
</g>
<!-- Node10&#45;&gt;Node22 -->
<g id="edge31" class="edge">
<title>Node10&#45;&gt;Node22</title>
<path fill="none" stroke="orange" stroke-dasharray="5,2" d="M286.83,-188.14C328.63,-190.29 385.23,-193.69 435,-198.37 443.85,-199.2 453.16,-200.21 462.33,-201.29"/>
<polygon fill="orange" stroke="orange" points="286.96,-184.65 276.8,-187.64 286.61,-191.64 286.96,-184.65"/>
<text text-anchor="middle" x="374.5" y="-201.37" font-family="Helvetica,sans-Serif" font-size="10.00"> &lt; MatrixVar&lt; VarType &gt; &gt;</text>
</g>
<!-- Node11 -->
<g id="node11" class="node">
<title>Node11</title>
<g id="a_node11"><a xlink:title=" ">
<polygon fill="none" stroke="#bfbfbf" points="0,-152.87 0,-193.87 116,-193.87 116,-152.87 0,-152.87"/>
<text text-anchor="start" x="8" y="-181.87" font-family="Helvetica,sans-Serif" font-size="10.00">std::enable_shared</text>
<text text-anchor="start" x="8" y="-170.87" font-family="Helvetica,sans-Serif" font-size="10.00">_from_this&lt; Attribute</text>
<text text-anchor="middle" x="58" y="-159.87" font-family="Helvetica,sans-Serif" font-size="10.00">&lt; T &gt; &gt;</text>
</a>
</g>
</g>
<!-- Node11&#45;&gt;Node10 -->
<g id="edge11" class="edge">
<title>Node11&#45;&gt;Node10</title>
<path fill="none" stroke="midnightblue" d="M126.08,-178.26C141.51,-179.39 157.68,-180.57 172.3,-181.63"/>
<polygon fill="midnightblue" stroke="midnightblue" points="126.3,-174.77 116.07,-177.53 125.79,-181.75 126.3,-174.77"/>
</g>
<!-- Node12&#45;&gt;Node5 -->
<g id="edge12" class="edge">
<title>Node12&#45;&gt;Node5</title>
<path fill="none" stroke="#9a32cd" stroke-dasharray="5,2" d="M619.25,-316.37C718.79,-316.37 878.73,-316.37 963.67,-316.37"/>
<polygon fill="#9a32cd" stroke="#9a32cd" points="619.21,-312.87 609.21,-316.37 619.21,-319.87 619.21,-312.87"/>
<text text-anchor="middle" x="743" y="-319.37" font-family="Helvetica,sans-Serif" font-size="10.00"> mInitialVoltage</text>
</g>
<!-- Node13 -->
<g id="node13" class="node">
<title>Node13</title>
<g id="a_node13"><a xlink:title=" ">
<polygon fill="none" stroke="#bfbfbf" points="166.5,-320.87 166.5,-361.87 282.5,-361.87 282.5,-320.87 166.5,-320.87"/>
<text text-anchor="start" x="174.5" y="-349.87" font-family="Helvetica,sans-Serif" font-size="10.00">std::enable_shared</text>
<text text-anchor="start" x="174.5" y="-338.87" font-family="Helvetica,sans-Serif" font-size="10.00">_from_this&lt; Attribute</text>
<text text-anchor="middle" x="224.5" y="-327.87" font-family="Helvetica,sans-Serif" font-size="10.00">&lt; MatrixComp &gt; &gt;</text>
</a>
</g>
</g>
<!-- Node13&#45;&gt;Node12 -->
<g id="edge14" class="edge">
<title>Node13&#45;&gt;Node12</title>
<path fill="none" stroke="midnightblue" d="M293.08,-337.69C334.16,-335.24 387.65,-331.69 435,-327.37 440.79,-326.84 446.77,-326.25 452.78,-325.63"/>
<polygon fill="midnightblue" stroke="midnightblue" points="292.69,-334.21 282.91,-338.29 293.1,-341.19 292.69,-334.21"/>
</g>
<!-- Node14 -->
<g id="node14" class="node">
<title>Node14</title>
<g id="a_node14"><a xlink:title=" ">
<polygon fill="none" stroke="#bfbfbf" points="1270,-246.87 1270,-287.87 1385,-287.87 1385,-246.87 1270,-246.87"/>
<text text-anchor="start" x="1278" y="-275.87" font-family="Helvetica,sans-Serif" font-size="10.00">std::enable_shared</text>
<text text-anchor="start" x="1278" y="-264.87" font-family="Helvetica,sans-Serif" font-size="10.00">_from_this&lt; SimNode</text>
<text text-anchor="middle" x="1327.5" y="-253.87" font-family="Helvetica,sans-Serif" font-size="10.00">&lt; Complex &gt; &gt;</text>
</a>
</g>
</g>
<!-- Node14&#45;&gt;Node4 -->
<g id="edge16" class="edge">
<title>Node14&#45;&gt;Node4</title>
<path fill="none" stroke="midnightblue" d="M1395.2,-253.19C1433.39,-245.07 1480.29,-235.1 1514.11,-227.91"/>
<polygon fill="midnightblue" stroke="midnightblue" points="1394.24,-249.82 1385.18,-255.32 1395.69,-256.66 1394.24,-249.82"/>
</g>
<!-- Node15 -->
<g id="node15" class="node">
<title>Node15</title>
<g id="a_node15"><a xlink:href="class_shared_factory.html" target="_top" xlink:title=" ">
<polygon fill="none" stroke="black" points="1107,-112.37 1107,-142.37 1241,-142.37 1241,-112.37 1107,-112.37"/>
<text text-anchor="start" x="1115" y="-130.37" font-family="Helvetica,sans-Serif" font-size="10.00">SharedFactory&lt; SimNode</text>
<text text-anchor="middle" x="1174" y="-119.37" font-family="Helvetica,sans-Serif" font-size="10.00">&lt; Complex &gt; &gt;</text>
</a>
</g>
</g>
<!-- Node15&#45;&gt;Node4 -->
<g id="edge17" class="edge">
<title>Node15&#45;&gt;Node4</title>
<path fill="none" stroke="midnightblue" d="M1248.47,-144.78C1328.86,-163.83 1454.8,-193.68 1518.78,-208.84"/>
<polygon fill="midnightblue" stroke="midnightblue" points="1248.95,-141.3 1238.41,-142.4 1247.33,-148.11 1248.95,-141.3"/>
</g>
<!-- Node16 -->
<g id="node16" class="node">
<title>Node16</title>
<g id="a_node16"><a xlink:href="class_shared_factory.html" target="_top" xlink:title=" ">
<polygon fill="none" stroke="black" points="690.5,-134.87 690.5,-153.87 795.5,-153.87 795.5,-134.87 690.5,-134.87"/>
<text text-anchor="middle" x="743" y="-141.87" font-family="Helvetica,sans-Serif" font-size="10.00">SharedFactory&lt; T &gt;</text>
</a>
</g>
</g>
<!-- Node16&#45;&gt;Node15 -->
<g id="edge18" class="edge">
<title>Node16&#45;&gt;Node15</title>
<path fill="none" stroke="orange" stroke-dasharray="5,2" d="M806.16,-141.91C886.18,-138.74 1024.66,-133.25 1106.66,-130"/>
<polygon fill="orange" stroke="orange" points="805.6,-138.43 795.75,-142.32 805.88,-145.42 805.6,-138.43"/>
<text text-anchor="middle" x="878" y="-144.37" font-family="Helvetica,sans-Serif" font-size="10.00"> &lt; SimNode&lt; Complex &gt; &gt;</text>
</g>
<!-- Node21 -->
<g id="node21" class="node">
<title>Node21</title>
<g id="a_node21"><a xlink:href="class_shared_factory.html" target="_top" xlink:title=" ">
<polygon fill="none" stroke="black" points="955,-207.37 955,-237.37 1089,-237.37 1089,-207.37 955,-207.37"/>
<text text-anchor="start" x="963" y="-225.37" font-family="Helvetica,sans-Serif" font-size="10.00">SharedFactory&lt; SimNode</text>
<text text-anchor="middle" x="1022" y="-214.37" font-family="Helvetica,sans-Serif" font-size="10.00">&lt; VarType &gt; &gt;</text>
</a>
</g>
</g>
<!-- Node16&#45;&gt;Node21 -->
<g id="edge27" class="edge">
<title>Node16&#45;&gt;Node21</title>
<path fill="none" stroke="orange" stroke-dasharray="5,2" d="M787.89,-156.73C836.6,-170.44 915.22,-192.58 967.5,-207.3"/>
<polygon fill="orange" stroke="orange" points="788.54,-153.28 777.97,-153.93 786.64,-160.01 788.54,-153.28"/>
<text text-anchor="middle" x="878" y="-199.37" font-family="Helvetica,sans-Serif" font-size="10.00"> &lt; SimNode&lt; VarType &gt; &gt;</text>
</g>
<!-- Node17&#45;&gt;Node4 -->
<g id="edge19" class="edge">
<title>Node17&#45;&gt;Node4</title>
<path fill="none" stroke="#9a32cd" stroke-dasharray="5,2" d="M609.74,-68.82C649.33,-68.59 698.23,-68.37 742,-68.37 742,-68.37 742,-68.37 1328.5,-68.37 1431.63,-68.37 1524.82,-175.16 1551.43,-208.53"/>
<polygon fill="#9a32cd" stroke="#9a32cd" points="609.6,-65.32 599.62,-68.88 609.64,-72.32 609.6,-65.32"/>
<text text-anchor="middle" x="1022" y="-82.37" font-family="Helvetica,sans-Serif" font-size="10.00"> mApparentPower</text>
<text text-anchor="middle" x="1022" y="-71.37" font-family="Helvetica,sans-Serif" font-size="10.00">mVoltage</text>
</g>
<!-- Node18 -->
<g id="node18" class="node">
<title>Node18</title>
<g id="a_node18"><a xlink:title=" ">
<polygon fill="none" stroke="#bfbfbf" points="153,-49.87 153,-90.87 296,-90.87 296,-49.87 153,-49.87"/>
<text text-anchor="start" x="161" y="-78.87" font-family="Helvetica,sans-Serif" font-size="10.00">std::enable_shared</text>
<text text-anchor="start" x="161" y="-67.87" font-family="Helvetica,sans-Serif" font-size="10.00">_from_this&lt; Attribute</text>
<text text-anchor="middle" x="224.5" y="-56.87" font-family="Helvetica,sans-Serif" font-size="10.00">&lt; MatrixVar&lt; Complex &gt; &gt; &gt;</text>
</a>
</g>
</g>
<!-- Node18&#45;&gt;Node17 -->
<g id="edge21" class="edge">
<title>Node18&#45;&gt;Node17</title>
<path fill="none" stroke="midnightblue" d="M306.31,-70.1C354.99,-69.94 416.27,-69.74 462.37,-69.59"/>
<polygon fill="midnightblue" stroke="midnightblue" points="306.11,-66.6 296.12,-70.14 306.14,-73.6 306.11,-66.6"/>
</g>
<!-- Node19&#45;&gt;Node4 -->
<g id="edge23" class="edge">
<title>Node19&#45;&gt;Node4</title>
<path fill="none" stroke="orange" stroke-dasharray="5,2" d="M1406.4,-218.37C1433.7,-218.37 1464.14,-218.37 1490.6,-218.37"/>
<polygon fill="orange" stroke="orange" points="1406.1,-214.87 1396.1,-218.37 1406.1,-221.87 1406.1,-214.87"/>
<text text-anchor="middle" x="1443.5" y="-221.37" font-family="Helvetica,sans-Serif" font-size="10.00"> &lt; Complex &gt;</text>
</g>
<!-- Node20 -->
<g id="node20" class="node">
<title>Node20</title>
<g id="a_node20"><a xlink:title=" ">
<polygon fill="none" stroke="#bfbfbf" points="964.5,-146.87 964.5,-187.87 1079.5,-187.87 1079.5,-146.87 964.5,-146.87"/>
<text text-anchor="start" x="972.5" y="-175.87" font-family="Helvetica,sans-Serif" font-size="10.00">std::enable_shared</text>
<text text-anchor="start" x="972.5" y="-164.87" font-family="Helvetica,sans-Serif" font-size="10.00">_from_this&lt; SimNode</text>
<text text-anchor="middle" x="1022" y="-153.87" font-family="Helvetica,sans-Serif" font-size="10.00">&lt; VarType &gt; &gt;</text>
</a>
</g>
</g>
<!-- Node20&#45;&gt;Node19 -->
<g id="edge25" class="edge">
<title>Node20&#45;&gt;Node19</title>
<path fill="none" stroke="midnightblue" d="M1089.88,-178.61C1143.8,-187.67 1218.78,-200.27 1269.79,-208.84"/>
<polygon fill="midnightblue" stroke="midnightblue" points="1090.17,-175.11 1079.73,-176.9 1089.01,-182.01 1090.17,-175.11"/>
</g>
<!-- Node21&#45;&gt;Node19 -->
<g id="edge26" class="edge">
<title>Node21&#45;&gt;Node19</title>
<path fill="none" stroke="midnightblue" d="M1099.47,-221.36C1148.52,-220.72 1211.62,-219.88 1258.84,-219.26"/>
<polygon fill="midnightblue" stroke="midnightblue" points="1099.18,-217.87 1089.23,-221.5 1099.27,-224.86 1099.18,-217.87"/>
</g>
<!-- Node22&#45;&gt;Node19 -->
<g id="edge28" class="edge">
<title>Node22&#45;&gt;Node19</title>
<path fill="none" stroke="#9a32cd" stroke-dasharray="5,2" d="M609.8,-220.9C717.42,-234.24 917.81,-254.68 1089,-247.37 1156.74,-244.48 1173.82,-243.51 1241,-234.37 1253.72,-232.64 1267.42,-230.29 1280.04,-227.93"/>
<polygon fill="#9a32cd" stroke="#9a32cd" points="610.04,-217.4 599.68,-219.63 609.17,-224.35 610.04,-217.4"/>
<text text-anchor="middle" x="878" y="-261.37" font-family="Helvetica,sans-Serif" font-size="10.00"> mApparentPower</text>
<text text-anchor="middle" x="878" y="-250.37" font-family="Helvetica,sans-Serif" font-size="10.00">mVoltage</text>
</g>
<!-- Node23 -->
<g id="node23" class="node">
<title>Node23</title>
<g id="a_node23"><a xlink:title=" ">
<polygon fill="none" stroke="#bfbfbf" points="153.5,-109.87 153.5,-150.87 295.5,-150.87 295.5,-109.87 153.5,-109.87"/>
<text text-anchor="start" x="161.5" y="-138.87" font-family="Helvetica,sans-Serif" font-size="10.00">std::enable_shared</text>
<text text-anchor="start" x="161.5" y="-127.87" font-family="Helvetica,sans-Serif" font-size="10.00">_from_this&lt; Attribute</text>
<text text-anchor="middle" x="224.5" y="-116.87" font-family="Helvetica,sans-Serif" font-size="10.00">&lt; MatrixVar&lt; VarType &gt; &gt; &gt;</text>
</a>
</g>
</g>
<!-- Node23&#45;&gt;Node22 -->
<g id="edge30" class="edge">
<title>Node23&#45;&gt;Node22</title>
<path fill="none" stroke="midnightblue" d="M305.98,-125.78C345.81,-125.99 394.02,-130.01 435,-144.37 466.08,-155.26 496.33,-179.28 514.05,-195.14"/>
<polygon fill="midnightblue" stroke="midnightblue" points="305.76,-122.28 295.77,-125.81 305.78,-129.28 305.76,-122.28"/>
</g>
</g>
</svg>
