<?xml version="1.0" encoding="UTF-8" standalone="no"?>
<!DOCTYPE svg PUBLIC "-//W3C//DTD SVG 1.1//EN"
 "http://www.w3.org/Graphics/SVG/1.1/DTD/svg11.dtd">
<!-- Generated by graphviz version 12.2.1 (20241206.2353)
 -->
<!-- Title: CPS::EMT::Ph1::SSN::Full_Serial_RLC Pages: 1 -->
<svg width="1075pt" height="329pt"
 viewBox="0.00 0.00 1075.25 329.38" xmlns="http://www.w3.org/2000/svg" xmlns:xlink="http://www.w3.org/1999/xlink">
<g id="graph0" class="graph" transform="scale(1 1) rotate(0) translate(4 325.38)">
<title>CPS::EMT::Ph1::SSN::Full_Serial_RLC</title>
<!-- Node1 -->
<g id="Node000001" class="node">
<title>Node1</title>
<g id="a_Node000001"><a xlink:title="Full_Serial_RLC.">
<polygon fill="#999999" stroke="#666666" points="1067.25,-109.38 960.5,-109.38 960.5,-72.88 1067.25,-72.88 1067.25,-109.38"/>
<text text-anchor="start" x="968.5" y="-95.88" font-family="Helvetica,sans-Serif" font-size="10.00">CPS::EMT::Ph1::SSN</text>
<text text-anchor="middle" x="1013.88" y="-81.62" font-family="Helvetica,sans-Serif" font-size="10.00">::Full_Serial_RLC</text>
</a>
</g>
</g>
<!-- Node2 -->
<g id="Node000002" class="node">
<title>Node2</title>
<g id="a_Node000002"><a xlink:href="class_c_p_s_1_1_m_n_a_sim_power_comp.html" target="_top" xlink:title=" ">
<polygon fill="white" stroke="#666666" points="923.5,-230.38 787.5,-230.38 787.5,-193.88 923.5,-193.88 923.5,-230.38"/>
<text text-anchor="start" x="795.5" y="-216.88" font-family="Helvetica,sans-Serif" font-size="10.00">CPS::MNASimPowerComp</text>
<text text-anchor="middle" x="855.5" y="-202.62" font-family="Helvetica,sans-Serif" font-size="10.00">&lt; Real &gt;</text>
</a>
</g>
</g>
<!-- Node2&#45;&gt;Node1 -->
<g id="edge1_Node000001_Node000002" class="edge">
<title>Node2&#45;&gt;Node1</title>
<g id="a_edge1_Node000001_Node000002"><a xlink:title=" ">
<path fill="none" stroke="#63b8ff" d="M893.44,-187C903.32,-180.07 913.91,-172.44 923.5,-165.12 947.2,-147.04 973.37,-125.14 991.23,-109.87"/>
<polygon fill="#63b8ff" stroke="#63b8ff" points="891.69,-183.95 885.48,-192.54 895.69,-189.7 891.69,-183.95"/>
</a>
</g>
</g>
<!-- Node3 -->
<g id="Node000003" class="node">
<title>Node3</title>
<g id="a_Node000003"><a xlink:href="class_c_p_s_1_1_sim_power_comp.html" target="_top" xlink:title=" ">
<polygon fill="white" stroke="#666666" points="656.62,-285.38 537.88,-285.38 537.88,-248.88 656.62,-248.88 656.62,-285.38"/>
<text text-anchor="start" x="545.88" y="-271.88" font-family="Helvetica,sans-Serif" font-size="10.00">CPS::SimPowerComp&lt;</text>
<text text-anchor="middle" x="597.25" y="-257.62" font-family="Helvetica,sans-Serif" font-size="10.00"> Real &gt;</text>
</a>
</g>
</g>
<!-- Node3&#45;&gt;Node2 -->
<g id="edge2_Node000002_Node000003" class="edge">
<title>Node3&#45;&gt;Node2</title>
<g id="a_edge2_Node000002_Node000003"><a xlink:title=" ">
<path fill="none" stroke="#63b8ff" d="M667.95,-255.4C699.13,-249.82 736.28,-242.71 769.5,-235.12 775.31,-233.8 781.33,-232.34 787.35,-230.83"/>
<polygon fill="#63b8ff" stroke="#63b8ff" points="667.47,-251.93 658.24,-257.12 668.69,-258.82 667.47,-251.93"/>
</a>
</g>
</g>
<!-- Node4 -->
<g id="Node000004" class="node">
<title>Node4</title>
<g id="a_Node000004"><a xlink:href="class_c_p_s_1_1_topological_power_comp.html" target="_top" xlink:title=" ">
<polygon fill="white" stroke="#666666" points="299.25,-268.25 152,-268.25 152,-246 299.25,-246 299.25,-268.25"/>
<text text-anchor="middle" x="225.62" y="-254.75" font-family="Helvetica,sans-Serif" font-size="10.00">CPS::TopologicalPowerComp</text>
</a>
</g>
</g>
<!-- Node4&#45;&gt;Node3 -->
<g id="edge3_Node000003_Node000004" class="edge">
<title>Node4&#45;&gt;Node3</title>
<g id="a_edge3_Node000003_Node000004"><a xlink:title=" ">
<path fill="none" stroke="#63b8ff" d="M310.96,-259.41C380.23,-261.28 476.56,-263.89 537.66,-265.54"/>
<polygon fill="#63b8ff" stroke="#63b8ff" points="311.26,-255.91 301.16,-259.14 311.07,-262.91 311.26,-255.91"/>
</a>
</g>
</g>
<!-- Node6 -->
<g id="Node000006" class="node">
<title>Node6</title>
<g id="a_Node000006"><a xlink:href="class_c_p_s_1_1_sim_power_comp.html" target="_top" xlink:title="Base class for all components that are transmitting power.">
<polygon fill="white" stroke="#666666" points="455,-321.38 336.25,-321.38 336.25,-284.88 455,-284.88 455,-321.38"/>
<text text-anchor="start" x="344.25" y="-307.88" font-family="Helvetica,sans-Serif" font-size="10.00">CPS::SimPowerComp&lt;</text>
<text text-anchor="middle" x="395.62" y="-293.62" font-family="Helvetica,sans-Serif" font-size="10.00"> VarType &gt;</text>
</a>
</g>
</g>
<!-- Node4&#45;&gt;Node6 -->
<g id="edge6_Node000006_Node000004" class="edge">
<title>Node4&#45;&gt;Node6</title>
<g id="a_edge6_Node000006_Node000004"><a xlink:title=" ">
<path fill="none" stroke="#63b8ff" d="M280.1,-271.77C297.92,-276.65 317.87,-282.11 336.07,-287.09"/>
<polygon fill="#63b8ff" stroke="#63b8ff" points="281.05,-268.4 270.48,-269.13 279.2,-275.15 281.05,-268.4"/>
</a>
</g>
</g>
<!-- Node9 -->
<g id="Node000009" class="node">
<title>Node9</title>
<g id="a_Node000009"><a xlink:href="class_c_p_s_1_1_sim_power_comp.html" target="_top" xlink:title="Base class for all components that are transmitting power.">
<polygon fill="white" stroke="#666666" points="455,-189.38 336.25,-189.38 336.25,-152.88 455,-152.88 455,-189.38"/>
<text text-anchor="start" x="344.25" y="-175.88" font-family="Helvetica,sans-Serif" font-size="10.00">CPS::SimPowerComp&lt;</text>
<text text-anchor="middle" x="395.62" y="-161.62" font-family="Helvetica,sans-Serif" font-size="10.00"> VarType &gt;</text>
</a>
</g>
</g>
<!-- Node4&#45;&gt;Node9 -->
<g id="edge10_Node000009_Node000004" class="edge">
<title>Node4&#45;&gt;Node9</title>
<g id="a_edge10_Node000009_Node000004"><a xlink:title=" ">
<path fill="none" stroke="#63b8ff" d="M257.04,-240.11C278.9,-228.05 309.17,-211.66 336.25,-198.12 341.74,-195.38 347.57,-192.57 353.34,-189.84"/>
<polygon fill="#63b8ff" stroke="#63b8ff" points="255.41,-237.02 248.36,-244.93 258.81,-243.14 255.41,-237.02"/>
</a>
</g>
</g>
<!-- Node5 -->
<g id="Node000005" class="node">
<title>Node5</title>
<g id="a_Node000005"><a xlink:href="class_c_p_s_1_1_identified_object.html" target="_top" xlink:title=" ">
<polygon fill="white" stroke="#666666" points="115,-268.25 0,-268.25 0,-246 115,-246 115,-268.25"/>
<text text-anchor="middle" x="57.5" y="-254.75" font-family="Helvetica,sans-Serif" font-size="10.00">CPS::IdentifiedObject</text>
</a>
</g>
</g>
<!-- Node5&#45;&gt;Node4 -->
<g id="edge4_Node000004_Node000005" class="edge">
<title>Node5&#45;&gt;Node4</title>
<g id="a_edge4_Node000004_Node000005"><a xlink:title=" ">
<path fill="none" stroke="#63b8ff" d="M126.7,-257.12C134.95,-257.12 143.41,-257.12 151.73,-257.12"/>
<polygon fill="#63b8ff" stroke="#63b8ff" points="126.72,-253.63 116.72,-257.13 126.72,-260.63 126.72,-253.63"/>
</a>
</g>
</g>
<!-- Node6&#45;&gt;Node3 -->
<g id="edge5_Node000003_Node000006" class="edge">
<title>Node6&#45;&gt;Node3</title>
<g id="a_edge5_Node000003_Node000006"><a xlink:title=" ">
<path fill="none" stroke="orange" stroke-dasharray="5,2" d="M466.6,-290.51C489.76,-286.33 515.28,-281.73 537.51,-277.72"/>
<polygon fill="orange" stroke="orange" points="466.15,-287.03 456.93,-292.25 467.39,-293.92 466.15,-287.03"/>
</a>
</g>
<text text-anchor="middle" x="492.12" y="-293.1" font-family="Helvetica,sans-Serif" font-size="10.00" fill="grey"> &lt; Real &gt;</text>
</g>
<!-- Node7 -->
<g id="Node000007" class="node">
<title>Node7</title>
<g id="a_Node000007"><a xlink:href="class_c_p_s_1_1_m_n_a_interface.html" target="_top" xlink:title="Interface to be implemented by all models used by the MNA solver.">
<polygon fill="white" stroke="#666666" points="448.62,-229.25 342.62,-229.25 342.62,-207 448.62,-207 448.62,-229.25"/>
<text text-anchor="middle" x="395.62" y="-215.75" font-family="Helvetica,sans-Serif" font-size="10.00">CPS::MNAInterface</text>
</a>
</g>
</g>
<!-- Node7&#45;&gt;Node2 -->
<g id="edge7_Node000002_Node000007" class="edge">
<title>Node7&#45;&gt;Node2</title>
<g id="a_edge7_Node000002_Node000007"><a xlink:title=" ">
<path fill="none" stroke="#63b8ff" d="M460.14,-217.29C546.24,-216.16 699.32,-214.16 787.29,-213.01"/>
<polygon fill="#63b8ff" stroke="#63b8ff" points="460.17,-213.79 450.22,-217.42 460.26,-220.79 460.17,-213.79"/>
</a>
</g>
</g>
<!-- Node8 -->
<g id="Node000008" class="node">
<title>Node8</title>
<g id="a_Node000008"><a xlink:href="class_c_p_s_1_1_m_n_a_sim_power_comp.html" target="_top" xlink:title="Base class for all MNA components that are transmitting power.">
<polygon fill="white" stroke="#666666" points="665.25,-193.38 529.25,-193.38 529.25,-156.88 665.25,-156.88 665.25,-193.38"/>
<text text-anchor="start" x="537.25" y="-179.88" font-family="Helvetica,sans-Serif" font-size="10.00">CPS::MNASimPowerComp</text>
<text text-anchor="middle" x="597.25" y="-165.62" font-family="Helvetica,sans-Serif" font-size="10.00">&lt; VarType &gt;</text>
</a>
</g>
</g>
<!-- Node7&#45;&gt;Node8 -->
<g id="edge11_Node000008_Node000007" class="edge">
<title>Node7&#45;&gt;Node8</title>
<g id="a_edge11_Node000008_Node000007"><a xlink:title=" ">
<path fill="none" stroke="#63b8ff" d="M460.28,-204.41C482.23,-199.69 506.88,-194.38 529.1,-189.59"/>
<polygon fill="#63b8ff" stroke="#63b8ff" points="459.59,-200.98 450.55,-206.51 461.07,-207.82 459.59,-200.98"/>
</a>
</g>
</g>
<!-- Node8&#45;&gt;Node2 -->
<g id="edge8_Node000002_Node000008" class="edge">
<title>Node8&#45;&gt;Node2</title>
<g id="a_edge8_Node000002_Node000008"><a xlink:title=" ">
<path fill="none" stroke="orange" stroke-dasharray="5,2" d="M676.98,-181.3C706.14,-184.11 739.43,-187.93 769.5,-192.88 775.32,-193.83 781.34,-194.95 787.37,-196.14"/>
<polygon fill="orange" stroke="orange" points="677.38,-177.82 667.1,-180.37 676.73,-184.79 677.38,-177.82"/>
</a>
</g>
<text text-anchor="middle" x="726.38" y="-197.62" font-family="Helvetica,sans-Serif" font-size="10.00" fill="grey"> &lt; Real &gt;</text>
</g>
<!-- Node9&#45;&gt;Node8 -->
<g id="edge9_Node000008_Node000009" class="edge">
<title>Node9&#45;&gt;Node8</title>
<g id="a_edge9_Node000008_Node000009"><a xlink:title=" ">
<path fill="none" stroke="#63b8ff" d="M466.79,-172.53C487.03,-172.94 509.05,-173.38 529.09,-173.78"/>
<polygon fill="#63b8ff" stroke="#63b8ff" points="467.02,-169.03 456.95,-172.33 466.88,-176.03 467.02,-169.03"/>
</a>
</g>
</g>
<!-- Node10 -->
<g id="Node000010" class="node">
<title>Node10</title>
<g id="a_Node000010"><a xlink:href="class_shared_factory.html" target="_top" xlink:title=" ">
<polygon fill="white" stroke="#666666" points="908.88,-156.38 802.12,-156.38 802.12,-119.88 908.88,-119.88 908.88,-156.38"/>
<text text-anchor="start" x="810.12" y="-142.88" font-family="Helvetica,sans-Serif" font-size="10.00">SharedFactory&lt; Full</text>
<text text-anchor="middle" x="855.5" y="-128.62" font-family="Helvetica,sans-Serif" font-size="10.00">_Serial_RLC &gt;</text>
</a>
</g>
</g>
<!-- Node10&#45;&gt;Node1 -->
<g id="edge12_Node000001_Node000010" class="edge">
<title>Node10&#45;&gt;Node1</title>
<g id="a_edge12_Node000001_Node000010"><a xlink:title=" ">
<path fill="none" stroke="#63b8ff" d="M919.65,-119.15C933.12,-115.1 947.21,-110.86 960.24,-106.94"/>
<polygon fill="#63b8ff" stroke="#63b8ff" points="919.02,-115.68 910.46,-121.91 921.04,-122.38 919.02,-115.68"/>
</a>
</g>
</g>
<!-- Node11 -->
<g id="Node000011" class="node">
<title>Node11</title>
<g id="a_Node000011"><a xlink:href="class_shared_factory.html" target="_top" xlink:title=" ">
<polygon fill="white" stroke="#666666" points="649.5,-139.25 545,-139.25 545,-117 649.5,-117 649.5,-139.25"/>
<text text-anchor="middle" x="597.25" y="-125.75" font-family="Helvetica,sans-Serif" font-size="10.00">SharedFactory&lt; T &gt;</text>
</a>
</g>
</g>
<!-- Node11&#45;&gt;Node10 -->
<g id="edge13_Node000010_Node000011" class="edge">
<title>Node11&#45;&gt;Node10</title>
<g id="a_edge13_Node000010_Node000011"><a xlink:title=" ">
<path fill="none" stroke="orange" stroke-dasharray="5,2" d="M661.3,-130.59C704.43,-132.27 760.96,-134.47 801.71,-136.07"/>
<polygon fill="orange" stroke="orange" points="661.44,-127.09 651.31,-130.2 661.17,-134.08 661.44,-127.09"/>
</a>
</g>
<text text-anchor="middle" x="726.38" y="-139.35" font-family="Helvetica,sans-Serif" font-size="10.00" fill="grey"> &lt; Full_Serial_RLC &gt;</text>
</g>
<!-- Node12 -->
<g id="Node000012" class="node">
<title>Node12</title>
<g id="a_Node000012"><a xlink:href="class_c_p_s_1_1_base_1_1_ph1_1_1_resistor.html" target="_top" xlink:title=" ">
<polygon fill="white" stroke="#bfbfbf" points="920.12,-102.25 790.88,-102.25 790.88,-80 920.12,-80 920.12,-102.25"/>
<text text-anchor="middle" x="855.5" y="-88.75" font-family="Helvetica,sans-Serif" font-size="10.00">CPS::Base::Ph1::Resistor</text>
</a>
</g>
</g>
<!-- Node12&#45;&gt;Node1 -->
<g id="edge14_Node000001_Node000012" class="edge">
<title>Node12&#45;&gt;Node1</title>
<g id="a_edge14_Node000001_Node000012"><a xlink:title=" ">
<path fill="none" stroke="#63b8ff" d="M932.07,-91.12C941.56,-91.12 951.1,-91.12 960.13,-91.12"/>
<polygon fill="#63b8ff" stroke="#63b8ff" points="932.07,-87.63 922.07,-91.13 932.07,-94.63 932.07,-87.63"/>
</a>
</g>
</g>
<!-- Node13 -->
<g id="Node000013" class="node">
<title>Node13</title>
<g id="a_Node000013"><a xlink:href="class_c_p_s_1_1_base_1_1_ph1_1_1_inductor.html" target="_top" xlink:title=" ">
<polygon fill="white" stroke="#bfbfbf" points="921.62,-62.25 789.38,-62.25 789.38,-40 921.62,-40 921.62,-62.25"/>
<text text-anchor="middle" x="855.5" y="-48.75" font-family="Helvetica,sans-Serif" font-size="10.00">CPS::Base::Ph1::Inductor</text>
</a>
</g>
</g>
<!-- Node13&#45;&gt;Node1 -->
<g id="edge15_Node000001_Node000013" class="edge">
<title>Node13&#45;&gt;Node1</title>
<g id="a_edge15_Node000001_Node000013"><a xlink:title=" ">
<path fill="none" stroke="#63b8ff" d="M912.7,-65.5C928.13,-69.45 944.79,-73.71 960.02,-77.6"/>
<polygon fill="#63b8ff" stroke="#63b8ff" points="913.75,-62.16 903.2,-63.07 912.02,-68.94 913.75,-62.16"/>
</a>
</g>
</g>
<!-- Node14 -->
<g id="Node000014" class="node">
<title>Node14</title>
<g id="a_Node000014"><a xlink:href="class_c_p_s_1_1_base_1_1_ph1_1_1_capacitor.html" target="_top" xlink:title=" ">
<polygon fill="white" stroke="#bfbfbf" points="923.12,-22.25 787.88,-22.25 787.88,0 923.12,0 923.12,-22.25"/>
<text text-anchor="middle" x="855.5" y="-8.75" font-family="Helvetica,sans-Serif" font-size="10.00">CPS::Base::Ph1::Capacitor</text>
</a>
</g>
</g>
<!-- Node14&#45;&gt;Node1 -->
<g id="edge16_Node000001_Node000014" class="edge">
<title>Node14&#45;&gt;Node1</title>
<g id="a_edge16_Node000001_Node000014"><a xlink:title=" ">
<path fill="none" stroke="#63b8ff" d="M912.56,-26.46C916.31,-27.92 919.99,-29.47 923.5,-31.12 947.33,-42.36 972.03,-59.42 989.4,-72.48"/>
<polygon fill="#63b8ff" stroke="#63b8ff" points="913.91,-23.23 903.31,-23.15 911.55,-29.82 913.91,-23.23"/>
</a>
</g>
</g>
</g>
</svg>
