<?xml version="1.0" encoding="UTF-8" standalone="no"?>
<!DOCTYPE svg PUBLIC "-//W3C//DTD SVG 1.1//EN"
 "http://www.w3.org/Graphics/SVG/1.1/DTD/svg11.dtd">
<!-- Generated by graphviz version 2.42.4 (0)
 -->
<!-- Title: CPS::SP::Ph1::varResSwitch Pages: 1 -->
<svg width="1250pt" height="230pt"
 viewBox="0.00 0.00 1250.00 230.00" xmlns="http://www.w3.org/2000/svg" xmlns:xlink="http://www.w3.org/1999/xlink">
<g id="graph0" class="graph" transform="scale(1 1) rotate(0) translate(4 226)">
<title>CPS::SP::Ph1::varResSwitch</title>
<!-- Node1 -->
<g id="node1" class="node">
<title>Node1</title>
<g id="a_node1"><a xlink:title="Switch with variable resistance to avoid numerical oscillations, when an inductive current is suddenl...">
<polygon fill="#bfbfbf" stroke="black" points="1093,-126.5 1093,-145.5 1242,-145.5 1242,-126.5 1093,-126.5"/>
<text text-anchor="middle" x="1167.5" y="-133.5" font-family="Helvetica,sans-Serif" font-size="10.00">CPS::SP::Ph1::varResSwitch</text>
</a>
</g>
</g>
<!-- Node2 -->
<g id="node2" class="node">
<title>Node2</title>
<g id="a_node2"><a xlink:href="class_c_p_s_1_1_base_1_1_ph1_1_1_switch.html" target="_top" xlink:title="Dynamic Phasor Three&#45;Phase Switch.">
<polygon fill="none" stroke="black" points="904,-202.5 904,-221.5 1032,-221.5 1032,-202.5 904,-202.5"/>
<text text-anchor="middle" x="968" y="-209.5" font-family="Helvetica,sans-Serif" font-size="10.00">CPS::Base::Ph1::Switch</text>
</a>
</g>
</g>
<!-- Node2&#45;&gt;Node1 -->
<g id="edge1" class="edge">
<title>Node2&#45;&gt;Node1</title>
<path fill="none" stroke="midnightblue" d="M1033.25,-199.97C1041,-197.93 1048.74,-195.61 1056,-193 1091.54,-180.2 1130.13,-158.27 1150.99,-145.66"/>
<polygon fill="midnightblue" stroke="midnightblue" points="1032.32,-196.59 1023.46,-202.4 1034,-203.39 1032.32,-196.59"/>
</g>
<!-- Node3 -->
<g id="node3" class="node">
<title>Node3</title>
<g id="a_node3"><a xlink:href="class_c_p_s_1_1_m_n_a_variable_comp_interface.html" target="_top" xlink:title="MNA interface to be used by elements that require recomputing of the system matrix.">
<polygon fill="none" stroke="black" points="880,-164.5 880,-183.5 1056,-183.5 1056,-164.5 880,-164.5"/>
<text text-anchor="middle" x="968" y="-171.5" font-family="Helvetica,sans-Serif" font-size="10.00">CPS::MNAVariableCompInterface</text>
</a>
</g>
</g>
<!-- Node3&#45;&gt;Node1 -->
<g id="edge2" class="edge">
<title>Node3&#45;&gt;Node1</title>
<path fill="none" stroke="midnightblue" d="M1028.71,-162.51C1056.89,-157.09 1090.13,-150.69 1116.9,-145.54"/>
<polygon fill="midnightblue" stroke="midnightblue" points="1027.74,-159.13 1018.58,-164.46 1029.06,-166.01 1027.74,-159.13"/>
</g>
<!-- Node4 -->
<g id="node4" class="node">
<title>Node4</title>
<g id="a_node4"><a xlink:href="class_c_p_s_1_1_m_n_a_switch_interface.html" target="_top" xlink:title="MNA interface to be used by switching devices.">
<polygon fill="none" stroke="black" points="467,-126.5 467,-145.5 607,-145.5 607,-126.5 467,-126.5"/>
<text text-anchor="middle" x="537" y="-133.5" font-family="Helvetica,sans-Serif" font-size="10.00">CPS::MNASwitchInterface</text>
</a>
</g>
</g>
<!-- Node4&#45;&gt;Node1 -->
<g id="edge3" class="edge">
<title>Node4&#45;&gt;Node1</title>
<path fill="none" stroke="midnightblue" d="M617.13,-136C739.73,-136 973.86,-136 1092.97,-136"/>
<polygon fill="midnightblue" stroke="midnightblue" points="617.06,-132.5 607.06,-136 617.06,-139.5 617.06,-132.5"/>
</g>
<!-- Node5 -->
<g id="node5" class="node">
<title>Node5</title>
<g id="a_node5"><a xlink:href="class_c_p_s_1_1_m_n_a_interface.html" target="_top" xlink:title="Interface to be implemented by all models used by the MNA solver.">
<polygon fill="none" stroke="black" points="143.5,-126.5 143.5,-145.5 251.5,-145.5 251.5,-126.5 143.5,-126.5"/>
<text text-anchor="middle" x="197.5" y="-133.5" font-family="Helvetica,sans-Serif" font-size="10.00">CPS::MNAInterface</text>
</a>
</g>
</g>
<!-- Node5&#45;&gt;Node4 -->
<g id="edge4" class="edge">
<title>Node5&#45;&gt;Node4</title>
<path fill="none" stroke="midnightblue" d="M261.81,-136C320.19,-136 406.67,-136 466.84,-136"/>
<polygon fill="midnightblue" stroke="midnightblue" points="261.61,-132.5 251.61,-136 261.61,-139.5 261.61,-132.5"/>
</g>
<!-- Node6 -->
<g id="node6" class="node">
<title>Node6</title>
<g id="a_node6"><a xlink:href="class_c_p_s_1_1_attribute_list.html" target="_top" xlink:title="Base class of objects having attributes to access member variables.">
<polygon fill="none" stroke="black" points="0,-106.5 0,-125.5 101,-125.5 101,-106.5 0,-106.5"/>
<text text-anchor="middle" x="50.5" y="-113.5" font-family="Helvetica,sans-Serif" font-size="10.00">CPS::AttributeList</text>
</a>
</g>
</g>
<!-- Node6&#45;&gt;Node5 -->
<g id="edge5" class="edge">
<title>Node6&#45;&gt;Node5</title>
<path fill="none" stroke="midnightblue" d="M111.33,-124.25C121.84,-125.7 132.72,-127.2 143.04,-128.63"/>
<polygon fill="midnightblue" stroke="midnightblue" points="111.79,-120.78 101.4,-122.88 110.83,-127.72 111.79,-120.78"/>
</g>
<!-- Node9 -->
<g id="node9" class="node">
<title>Node9</title>
<g id="a_node9"><a xlink:href="class_c_p_s_1_1_identified_object.html" target="_top" xlink:title=" ">
<polygon fill="none" stroke="black" points="138,-88.5 138,-107.5 257,-107.5 257,-88.5 138,-88.5"/>
<text text-anchor="middle" x="197.5" y="-95.5" font-family="Helvetica,sans-Serif" font-size="10.00">CPS::IdentifiedObject</text>
</a>
</g>
</g>
<!-- Node6&#45;&gt;Node9 -->
<g id="edge9" class="edge">
<title>Node6&#45;&gt;Node9</title>
<path fill="none" stroke="midnightblue" d="M111.46,-108.56C120.16,-107.48 129.1,-106.37 137.77,-105.29"/>
<polygon fill="midnightblue" stroke="midnightblue" points="110.89,-105.1 101.4,-109.81 111.76,-112.05 110.89,-105.1"/>
</g>
<!-- Node7 -->
<g id="node7" class="node">
<title>Node7</title>
<g id="a_node7"><a xlink:href="class_c_p_s_1_1_sim_power_comp.html" target="_top" xlink:title=" ">
<polygon fill="none" stroke="black" points="904.5,-77 904.5,-107 1031.5,-107 1031.5,-77 904.5,-77"/>
<text text-anchor="start" x="912.5" y="-95" font-family="Helvetica,sans-Serif" font-size="10.00">CPS::SimPowerComp&lt;</text>
<text text-anchor="middle" x="968" y="-84" font-family="Helvetica,sans-Serif" font-size="10.00"> Complex &gt;</text>
</a>
</g>
</g>
<!-- Node7&#45;&gt;Node1 -->
<g id="edge6" class="edge">
<title>Node7&#45;&gt;Node1</title>
<path fill="none" stroke="midnightblue" d="M1041.75,-108.21C1069.26,-114.34 1099.67,-121.11 1123.58,-126.44"/>
<polygon fill="midnightblue" stroke="midnightblue" points="1042.28,-104.74 1031.76,-105.98 1040.76,-111.57 1042.28,-104.74"/>
</g>
<!-- Node8 -->
<g id="node8" class="node">
<title>Node8</title>
<g id="a_node8"><a xlink:href="class_c_p_s_1_1_topological_power_comp.html" target="_top" xlink:title=" ">
<polygon fill="none" stroke="black" points="294,-88.5 294,-107.5 449,-107.5 449,-88.5 294,-88.5"/>
<text text-anchor="middle" x="371.5" y="-95.5" font-family="Helvetica,sans-Serif" font-size="10.00">CPS::TopologicalPowerComp</text>
</a>
</g>
</g>
<!-- Node8&#45;&gt;Node7 -->
<g id="edge7" class="edge">
<title>Node8&#45;&gt;Node7</title>
<path fill="none" stroke="midnightblue" d="M459.36,-97.12C580.61,-95.9 797.7,-93.71 904.36,-92.63"/>
<polygon fill="midnightblue" stroke="midnightblue" points="458.97,-93.63 449,-97.23 459.04,-100.63 458.97,-93.63"/>
</g>
<!-- Node10 -->
<g id="node10" class="node">
<title>Node10</title>
<g id="a_node10"><a xlink:href="class_c_p_s_1_1_sim_power_comp.html" target="_top" xlink:title="Base class for all components that are transmitting power.">
<polygon fill="none" stroke="black" points="625,-39 625,-69 752,-69 752,-39 625,-39"/>
<text text-anchor="start" x="633" y="-57" font-family="Helvetica,sans-Serif" font-size="10.00">CPS::SimPowerComp&lt;</text>
<text text-anchor="middle" x="688.5" y="-46" font-family="Helvetica,sans-Serif" font-size="10.00"> VarType &gt;</text>
</a>
</g>
</g>
<!-- Node8&#45;&gt;Node10 -->
<g id="edge11" class="edge">
<title>Node8&#45;&gt;Node10</title>
<path fill="none" stroke="midnightblue" d="M446.27,-86.99C453.27,-85.97 460.27,-84.96 467,-84 520.17,-76.45 580.6,-68.25 624.74,-62.34"/>
<polygon fill="midnightblue" stroke="midnightblue" points="445.41,-83.57 436.03,-88.48 446.43,-90.5 445.41,-83.57"/>
</g>
<!-- Node9&#45;&gt;Node8 -->
<g id="edge8" class="edge">
<title>Node9&#45;&gt;Node8</title>
<path fill="none" stroke="midnightblue" d="M267.31,-98C276.02,-98 284.98,-98 293.81,-98"/>
<polygon fill="midnightblue" stroke="midnightblue" points="267.21,-94.5 257.21,-98 267.21,-101.5 267.21,-94.5"/>
</g>
<!-- Node10&#45;&gt;Node7 -->
<g id="edge10" class="edge">
<title>Node10&#45;&gt;Node7</title>
<path fill="none" stroke="orange" stroke-dasharray="5,2" d="M762.53,-60.91C793.3,-64.12 829.45,-68.27 862,-73 875.75,-75 890.45,-77.46 904.38,-79.93"/>
<polygon fill="orange" stroke="orange" points="762.62,-57.4 752.32,-59.86 761.9,-64.37 762.62,-57.4"/>
<text text-anchor="middle" x="816" y="-76" font-family="Helvetica,sans-Serif" font-size="10.00"> &lt; Complex &gt;</text>
</g>
<!-- Node11 -->
<g id="node11" class="node">
<title>Node11</title>
<g id="a_node11"><a xlink:href="class_shared_factory.html" target="_top" xlink:title=" ">
<polygon fill="none" stroke="black" points="881,-19.5 881,-38.5 1055,-38.5 1055,-19.5 881,-19.5"/>
<text text-anchor="middle" x="968" y="-26.5" font-family="Helvetica,sans-Serif" font-size="10.00">SharedFactory&lt; varResSwitch &gt;</text>
</a>
</g>
</g>
<!-- Node11&#45;&gt;Node1 -->
<g id="edge12" class="edge">
<title>Node11&#45;&gt;Node1</title>
<path fill="none" stroke="midnightblue" d="M1001.9,-42.54C1018.38,-49.63 1038.51,-58.75 1056,-68 1091.64,-86.85 1131.46,-112.59 1152.2,-126.36"/>
<polygon fill="midnightblue" stroke="midnightblue" points="1003.23,-39.31 992.66,-38.62 1000.49,-45.75 1003.23,-39.31"/>
</g>
<!-- Node12 -->
<g id="node12" class="node">
<title>Node12</title>
<g id="a_node12"><a xlink:href="class_shared_factory.html" target="_top" xlink:title=" ">
<polygon fill="none" stroke="black" points="631.5,-0.5 631.5,-19.5 745.5,-19.5 745.5,-0.5 631.5,-0.5"/>
<text text-anchor="middle" x="688.5" y="-7.5" font-family="Helvetica,sans-Serif" font-size="10.00">SharedFactory&lt; T &gt;</text>
</a>
</g>
</g>
<!-- Node12&#45;&gt;Node11 -->
<g id="edge13" class="edge">
<title>Node12&#45;&gt;Node11</title>
<path fill="none" stroke="orange" stroke-dasharray="5,2" d="M755.95,-14.55C793.39,-17.11 840.59,-20.35 880.85,-23.1"/>
<polygon fill="orange" stroke="orange" points="755.87,-11.04 745.66,-13.84 755.39,-18.02 755.87,-11.04"/>
<text text-anchor="middle" x="816" y="-25" font-family="Helvetica,sans-Serif" font-size="10.00"> &lt; varResSwitch &gt;</text>
</g>
</g>
</svg>
