<?xml version="1.0" encoding="UTF-8" standalone="no"?>
<!DOCTYPE svg PUBLIC "-//W3C//DTD SVG 1.1//EN"
 "http://www.w3.org/Graphics/SVG/1.1/DTD/svg11.dtd">
<!-- Generated by graphviz version 2.50.0 (0)
 -->
<!-- Title: CPS::DAEInterface Pages: 1 -->
<svg width="310pt" height="256pt"
 viewBox="0.00 0.00 310.00 256.00" xmlns="http://www.w3.org/2000/svg" xmlns:xlink="http://www.w3.org/1999/xlink">
<g id="graph0" class="graph" transform="scale(1 1) rotate(0) translate(4 252)">
<title>CPS::DAEInterface</title>
<!-- Node1 -->
<g id="node1" class="node">
<title>Node1</title>
<g id="a_node1"><a xlink:title=" ">
<polygon fill="#bfbfbf" stroke="black" points="0,-114.5 0,-133.5 102,-133.5 102,-114.5 0,-114.5"/>
<text text-anchor="middle" x="51" y="-121.5" font-family="Helvetica,sans-Serif" font-size="10.00">CPS::DAEInterface</text>
</a>
</g>
</g>
<!-- Node2 -->
<g id="node2" class="node">
<title>Node2</title>
<g id="a_node2"><a xlink:href="class_c_p_s_1_1_d_p_1_1_ph1_1_1_network_injection.html" target="_top" xlink:title="Network injection model.">
<polygon fill="none" stroke="black" points="138,-228.5 138,-247.5 302,-247.5 302,-228.5 138,-228.5"/>
<text text-anchor="middle" x="220" y="-235.5" font-family="Helvetica,sans-Serif" font-size="10.00">CPS::DP::Ph1::NetworkInjection</text>
</a>
</g>
</g>
<!-- Node1&#45;&gt;Node2 -->
<g id="edge1" class="edge">
<title>Node1&#45;&gt;Node2</title>
<path fill="none" stroke="midnightblue" d="M63.38,-142.18C77.95,-163.89 105.28,-199.71 138,-219 144.59,-222.89 151.93,-225.98 159.42,-228.44"/>
<polygon fill="midnightblue" stroke="midnightblue" points="66.16,-140.03 57.77,-133.56 60.29,-143.85 66.16,-140.03"/>
</g>
<!-- Node3 -->
<g id="node3" class="node">
<title>Node3</title>
<g id="a_node3"><a xlink:href="class_c_p_s_1_1_d_p_1_1_ph1_1_1_resistor.html" target="_top" xlink:title="Dynamic phasor resistor model.">
<polygon fill="none" stroke="black" points="159.5,-190.5 159.5,-209.5 280.5,-209.5 280.5,-190.5 159.5,-190.5"/>
<text text-anchor="middle" x="220" y="-197.5" font-family="Helvetica,sans-Serif" font-size="10.00">CPS::DP::Ph1::Resistor</text>
</a>
</g>
</g>
<!-- Node1&#45;&gt;Node3 -->
<g id="edge2" class="edge">
<title>Node1&#45;&gt;Node3</title>
<path fill="none" stroke="midnightblue" d="M71.38,-139.78C88.09,-152.63 113.36,-170.35 138,-181 146.88,-184.84 156.67,-187.97 166.27,-190.5"/>
<polygon fill="midnightblue" stroke="midnightblue" points="73.49,-136.99 63.47,-133.56 69.17,-142.49 73.49,-136.99"/>
</g>
<!-- Node4 -->
<g id="node4" class="node">
<title>Node4</title>
<g id="a_node4"><a xlink:href="class_c_p_s_1_1_d_p_1_1_ph1_1_1_voltage_source.html" target="_top" xlink:title="Ideal Voltage source model.">
<polygon fill="none" stroke="black" points="145,-152.5 145,-171.5 295,-171.5 295,-152.5 145,-152.5"/>
<text text-anchor="middle" x="220" y="-159.5" font-family="Helvetica,sans-Serif" font-size="10.00">CPS::DP::Ph1::VoltageSource</text>
</a>
</g>
</g>
<!-- Node1&#45;&gt;Node4 -->
<g id="edge3" class="edge">
<title>Node1&#45;&gt;Node4</title>
<path fill="none" stroke="midnightblue" d="M103.96,-135.82C127.51,-141.18 154.97,-147.43 177.16,-152.48"/>
<polygon fill="midnightblue" stroke="midnightblue" points="104.67,-132.4 94.14,-133.59 103.12,-139.22 104.67,-132.4"/>
</g>
<!-- Node5 -->
<g id="node5" class="node">
<title>Node5</title>
<g id="a_node5"><a xlink:href="class_c_p_s_1_1_d_p_1_1_ph3_1_1_voltage_source.html" target="_top" xlink:title="Ideal Voltage source model.">
<polygon fill="none" stroke="black" points="145,-114.5 145,-133.5 295,-133.5 295,-114.5 145,-114.5"/>
<text text-anchor="middle" x="220" y="-121.5" font-family="Helvetica,sans-Serif" font-size="10.00">CPS::DP::Ph3::VoltageSource</text>
</a>
</g>
</g>
<!-- Node1&#45;&gt;Node5 -->
<g id="edge4" class="edge">
<title>Node1&#45;&gt;Node5</title>
<path fill="none" stroke="midnightblue" d="M112.43,-124C122.95,-124 134.01,-124 144.85,-124"/>
<polygon fill="midnightblue" stroke="midnightblue" points="112.11,-120.5 102.11,-124 112.11,-127.5 112.11,-120.5"/>
</g>
<!-- Node6 -->
<g id="node6" class="node">
<title>Node6</title>
<g id="a_node6"><a xlink:href="class_c_p_s_1_1_s_p_1_1_ph1_1_1_network_injection.html" target="_top" xlink:title="Network injection model.">
<polygon fill="none" stroke="black" points="139,-76.5 139,-95.5 301,-95.5 301,-76.5 139,-76.5"/>
<text text-anchor="middle" x="220" y="-83.5" font-family="Helvetica,sans-Serif" font-size="10.00">CPS::SP::Ph1::NetworkInjection</text>
</a>
</g>
</g>
<!-- Node1&#45;&gt;Node6 -->
<g id="edge5" class="edge">
<title>Node1&#45;&gt;Node6</title>
<path fill="none" stroke="midnightblue" d="M103.96,-112.18C127.51,-106.82 154.97,-100.57 177.16,-95.52"/>
<polygon fill="midnightblue" stroke="midnightblue" points="103.12,-108.78 94.14,-114.41 104.67,-115.6 103.12,-108.78"/>
</g>
<!-- Node7 -->
<g id="node7" class="node">
<title>Node7</title>
<g id="a_node7"><a xlink:href="class_c_p_s_1_1_s_p_1_1_ph1_1_1_voltage_source.html" target="_top" xlink:title="Ideal Voltage source model.">
<polygon fill="none" stroke="black" points="146,-38.5 146,-57.5 294,-57.5 294,-38.5 146,-38.5"/>
<text text-anchor="middle" x="220" y="-45.5" font-family="Helvetica,sans-Serif" font-size="10.00">CPS::SP::Ph1::VoltageSource</text>
</a>
</g>
</g>
<!-- Node1&#45;&gt;Node7 -->
<g id="edge6" class="edge">
<title>Node1&#45;&gt;Node7</title>
<path fill="none" stroke="midnightblue" d="M71.38,-108.22C88.09,-95.37 113.36,-77.65 138,-67 146.88,-63.16 156.67,-60.03 166.27,-57.5"/>
<polygon fill="midnightblue" stroke="midnightblue" points="69.17,-105.51 63.47,-114.44 73.49,-111.01 69.17,-105.51"/>
</g>
<!-- Node8 -->
<g id="node8" class="node">
<title>Node8</title>
<g id="a_node8"><a xlink:href="class_c_p_s_1_1_s_p_1_1_ph3_1_1_voltage_source.html" target="_top" xlink:title="Ideal Voltage source model.">
<polygon fill="none" stroke="black" points="146,-0.5 146,-19.5 294,-19.5 294,-0.5 146,-0.5"/>
<text text-anchor="middle" x="220" y="-7.5" font-family="Helvetica,sans-Serif" font-size="10.00">CPS::SP::Ph3::VoltageSource</text>
</a>
</g>
</g>
<!-- Node1&#45;&gt;Node8 -->
<g id="edge7" class="edge">
<title>Node1&#45;&gt;Node8</title>
<path fill="none" stroke="midnightblue" d="M63.38,-105.82C77.95,-84.11 105.28,-48.29 138,-29 144.59,-25.11 151.93,-22.02 159.42,-19.56"/>
<polygon fill="midnightblue" stroke="midnightblue" points="60.29,-104.15 57.77,-114.44 66.16,-107.97 60.29,-104.15"/>
</g>
</g>
</svg>
