<?xml version="1.0" encoding="UTF-8" standalone="no"?>
<!DOCTYPE svg PUBLIC "-//W3C//DTD SVG 1.1//EN"
 "http://www.w3.org/Graphics/SVG/1.1/DTD/svg11.dtd">
<!-- Generated by graphviz version 2.50.0 (0)
 -->
<!-- Title: CPS::TopologicalPowerComp Pages: 1 -->
<!--zoomable 1352 -->
<svg id="main" version="1.1" xmlns="http://www.w3.org/2000/svg" xmlns:xlink="http://www.w3.org/1999/xlink" xml:space="preserve" onload="init(evt)">
<style type="text/css"><![CDATA[
.edge:hover path { stroke: red; }
.edge:hover polygon { stroke: red; fill: red; }
]]></style>
<script type="text/javascript"><![CDATA[
var edges = document.getElementsByTagName('g');
if (edges && edges.length) {
  for (var i=0;i<edges.length;i++) {
    if (edges[i].id.substr(0,4)=='edge') {
      edges[i].setAttribute('class','edge');
    }
  }
}
]]></script>
        <defs>
                <circle id="rim" cx="0" cy="0" r="7"/>
                <circle id="rim2" cx="0" cy="0" r="3.5"/>
                <g id="zoomPlus">
                        <use xlink:href="#rim" fill="#404040">
                                <set attributeName="fill" to="#808080" begin="zoomplus.mouseover" end="zoomplus.mouseout"/>
                        </use>
                        <path d="M-4,0h8M0,-4v8" fill="none" stroke="white" stroke-width="1.5" pointer-events="none"/>
                </g>
                <g id="zoomMin">
                        <use xlink:href="#rim" fill="#404040">
                                <set attributeName="fill" to="#808080" begin="zoomminus.mouseover" end="zoomminus.mouseout"/>
                        </use>
                        <path d="M-4,0h8" fill="none" stroke="white" stroke-width="1.5" pointer-events="none"/>
                </g>
                <g id="dirArrow">
                        <path fill="none" stroke="white" stroke-width="1.5" d="M0,-3.0v7 M-2.5,-0.5L0,-3.0L2.5,-0.5"/>
                </g>
               <g id="resetDef">
                       <use xlink:href="#rim2" fill="#404040">
                               <set attributeName="fill" to="#808080" begin="reset.mouseover" end="reset.mouseout"/>
                       </use>
               </g>
        </defs>

<script type="text/javascript">
var viewWidth = 1213;
var viewHeight = 1352;
var sectionId = 'dynsection-0';
</script>
<script xlink:href="svgpan.js"/>
<svg id="graph" class="graph">
<g id="viewport">
<title>CPS::TopologicalPowerComp</title>
<!-- Node1 -->
<g id="node1" class="node">
<title>Node1</title>
<g id="a_node1"><a xlink:title=" ">
<polygon fill="#bfbfbf" stroke="black" points="153,-671 153,-690 301,-690 301,-671 153,-671"/>
<text text-anchor="middle" x="227" y="-678" font-family="Helvetica,sans-Serif" font-size="10.00">CPS::TopologicalPowerComp</text>
</a>
</g>
</g>
<!-- Node3 -->
<g id="node3" class="node">
<title>Node3</title>
<g id="a_node3"><a xlink:href="class_c_p_s_1_1_sim_power_comp.html" target="_top" xlink:title=" ">
<polygon fill="none" stroke="black" points="561,-764.5 561,-794.5 680,-794.5 680,-764.5 561,-764.5"/>
<text text-anchor="start" x="569" y="-782.5" font-family="Helvetica,sans-Serif" font-size="10.00">CPS::SimPowerComp&lt;</text>
<text text-anchor="middle" x="620.5" y="-771.5" font-family="Helvetica,sans-Serif" font-size="10.00"> Complex &gt;</text>
</a>
</g>
</g>
<!-- Node1&#45;&gt;Node3 -->
<g id="edge2" class="edge">
<title>Node1&#45;&gt;Node3</title>
<path fill="none" stroke="midnightblue" d="M265.52,-693.28C313.6,-709.29 399.74,-736.78 475,-754.5 503,-761.09 534.44,-766.74 560.82,-770.98"/>
<polygon fill="midnightblue" stroke="midnightblue" points="266.45,-689.9 255.86,-690.04 264.23,-696.53 266.45,-689.9"/>
</g>
<!-- Node80 -->
<g id="node43" class="node">
<title>Node80</title>
<g id="a_node43"><a xlink:href="class_c_p_s_1_1_sim_power_comp.html" target="_top" xlink:title=" ">
<polygon fill="none" stroke="black" points="561,-606.5 561,-636.5 680,-636.5 680,-606.5 561,-606.5"/>
<text text-anchor="start" x="569" y="-624.5" font-family="Helvetica,sans-Serif" font-size="10.00">CPS::SimPowerComp&lt;</text>
<text text-anchor="middle" x="620.5" y="-613.5" font-family="Helvetica,sans-Serif" font-size="10.00"> Real &gt;</text>
</a>
</g>
</g>
<!-- Node1&#45;&gt;Node80 -->
<g id="edge42" class="edge">
<title>Node1&#45;&gt;Node80</title>
<path fill="none" stroke="midnightblue" d="M275.27,-668.63C294.62,-664.07 317.3,-659.09 338,-655.5 414.51,-642.22 503.62,-632.4 560.75,-626.81"/>
<polygon fill="midnightblue" stroke="midnightblue" points="274.39,-665.24 265.48,-670.97 276.02,-672.05 274.39,-665.24"/>
</g>
<!-- Node127 -->
<g id="node48" class="node">
<title>Node127</title>
<g id="a_node48"><a xlink:href="class_c_p_s_1_1_sim_power_comp.html" target="_top" xlink:title="Base class for all components that are transmitting power.">
<polygon fill="none" stroke="black" points="338,-665.5 338,-695.5 457,-695.5 457,-665.5 338,-665.5"/>
<text text-anchor="start" x="346" y="-683.5" font-family="Helvetica,sans-Serif" font-size="10.00">CPS::SimPowerComp&lt;</text>
<text text-anchor="middle" x="397.5" y="-672.5" font-family="Helvetica,sans-Serif" font-size="10.00"> VarType &gt;</text>
</a>
</g>
</g>
<!-- Node1&#45;&gt;Node127 -->
<g id="edge47" class="edge">
<title>Node1&#45;&gt;Node127</title>
<path fill="none" stroke="midnightblue" d="M311.43,-680.5C320.32,-680.5 329.23,-680.5 337.75,-680.5"/>
<polygon fill="midnightblue" stroke="midnightblue" points="311.42,-677 301.42,-680.5 311.42,-684 311.42,-677"/>
</g>
<!-- Node2 -->
<g id="node2" class="node">
<title>Node2</title>
<g id="a_node2"><a xlink:href="class_c_p_s_1_1_identified_object.html" target="_top" xlink:title=" ">
<polygon fill="none" stroke="black" points="0,-671 0,-690 116,-690 116,-671 0,-671"/>
<text text-anchor="middle" x="58" y="-678" font-family="Helvetica,sans-Serif" font-size="10.00">CPS::IdentifiedObject</text>
</a>
</g>
</g>
<!-- Node2&#45;&gt;Node1 -->
<g id="edge1" class="edge">
<title>Node2&#45;&gt;Node1</title>
<path fill="none" stroke="midnightblue" d="M126.13,-680.5C134.88,-680.5 143.88,-680.5 152.72,-680.5"/>
<polygon fill="midnightblue" stroke="midnightblue" points="126,-677 116,-680.5 126,-684 126,-677"/>
</g>
<!-- Node4 -->
<g id="node4" class="node">
<title>Node4</title>
<g id="a_node4"><a xlink:href="class_c_p_s_1_1_m_n_a_sim_power_comp.html" target="_top" xlink:title=" ">
<polygon fill="none" stroke="black" points="812.5,-663.5 812.5,-693.5 949.5,-693.5 949.5,-663.5 812.5,-663.5"/>
<text text-anchor="start" x="820.5" y="-681.5" font-family="Helvetica,sans-Serif" font-size="10.00">CPS::MNASimPowerComp</text>
<text text-anchor="middle" x="881" y="-670.5" font-family="Helvetica,sans-Serif" font-size="10.00">&lt; Complex &gt;</text>
</a>
</g>
</g>
<!-- Node3&#45;&gt;Node4 -->
<g id="edge3" class="edge">
<title>Node3&#45;&gt;Node4</title>
<path fill="none" stroke="midnightblue" d="M658.7,-759.71C691.12,-743.06 739.74,-719.46 784,-703.5 794.04,-699.88 804.85,-696.54 815.47,-693.57"/>
<polygon fill="midnightblue" stroke="midnightblue" points="656.87,-756.72 649.6,-764.43 660.09,-762.94 656.87,-756.72"/>
</g>
<!-- Node73 -->
<g id="node36" class="node">
<title>Node73</title>
<g id="a_node36"><a xlink:href="class_c_p_s_1_1_d_p_1_1_ph3_1_1_synchron_generator_v_b_r.html" target="_top" xlink:title=" ">
<polygon fill="none" stroke="black" points="784,-827 784,-846 978,-846 978,-827 784,-827"/>
<text text-anchor="middle" x="881" y="-834" font-family="Helvetica,sans-Serif" font-size="10.00">CPS::DP::Ph3::SynchronGeneratorVBR</text>
</a>
</g>
</g>
<!-- Node3&#45;&gt;Node73 -->
<g id="edge35" class="edge">
<title>Node3&#45;&gt;Node73</title>
<path fill="none" stroke="midnightblue" d="M684.89,-797.07C692.32,-798.98 699.82,-800.83 707,-802.5 746.8,-811.75 792.14,-820.6 826.41,-826.95"/>
<polygon fill="midnightblue" stroke="midnightblue" points="685.74,-793.68 675.18,-794.54 683.97,-800.45 685.74,-793.68"/>
</g>
<!-- Node74 -->
<g id="node37" class="node">
<title>Node74</title>
<g id="a_node37"><a xlink:href="class_c_p_s_1_1_s_p_1_1_ph1_1_1_p_q_node.html" target="_top" xlink:title=" ">
<polygon fill="none" stroke="black" points="821,-789 821,-808 941,-808 941,-789 821,-789"/>
<text text-anchor="middle" x="881" y="-796" font-family="Helvetica,sans-Serif" font-size="10.00">CPS::SP::Ph1::PQNode</text>
</a>
</g>
</g>
<!-- Node3&#45;&gt;Node74 -->
<g id="edge36" class="edge">
<title>Node3&#45;&gt;Node74</title>
<path fill="none" stroke="midnightblue" d="M690.25,-784.55C730.88,-787.54 781.82,-791.28 820.68,-794.14"/>
<polygon fill="midnightblue" stroke="midnightblue" points="690.39,-781.05 680.16,-783.81 689.87,-788.04 690.39,-781.05"/>
</g>
<!-- Node75 -->
<g id="node38" class="node">
<title>Node75</title>
<g id="a_node38"><a xlink:href="class_c_p_s_1_1_s_p_1_1_ph1_1_1_p_v_node.html" target="_top" xlink:title=" ">
<polygon fill="none" stroke="black" points="821.5,-751 821.5,-770 940.5,-770 940.5,-751 821.5,-751"/>
<text text-anchor="middle" x="881" y="-758" font-family="Helvetica,sans-Serif" font-size="10.00">CPS::SP::Ph1::PVNode</text>
</a>
</g>
</g>
<!-- Node3&#45;&gt;Node75 -->
<g id="edge37" class="edge">
<title>Node3&#45;&gt;Node75</title>
<path fill="none" stroke="midnightblue" d="M690.29,-774.44C731.07,-771.45 782.22,-767.69 821.13,-764.83"/>
<polygon fill="midnightblue" stroke="midnightblue" points="689.87,-770.96 680.16,-775.19 690.39,-777.95 689.87,-770.96"/>
</g>
<!-- Node76 -->
<g id="node39" class="node">
<title>Node76</title>
<g id="a_node39"><a xlink:href="class_c_p_s_1_1_s_p_1_1_ph1_1_1_shunt.html" target="_top" xlink:title=" ">
<polygon fill="none" stroke="black" points="827,-713 827,-732 935,-732 935,-713 827,-713"/>
<text text-anchor="middle" x="881" y="-720" font-family="Helvetica,sans-Serif" font-size="10.00">CPS::SP::Ph1::Shunt</text>
</a>
</g>
</g>
<!-- Node3&#45;&gt;Node76 -->
<g id="edge38" class="edge">
<title>Node3&#45;&gt;Node76</title>
<path fill="none" stroke="midnightblue" d="M690.07,-762.92C719.01,-756.06 753.09,-748.17 784,-741.5 798.95,-738.27 815.25,-734.97 830.11,-732.04"/>
<polygon fill="midnightblue" stroke="midnightblue" points="688.98,-759.58 680.06,-765.29 690.6,-766.39 688.98,-759.58"/>
</g>
<!-- Node77 -->
<g id="node40" class="node">
<title>Node77</title>
<g id="a_node40"><a xlink:href="class_c_p_s_1_1_s_p_1_1_ph1_1_1_synchron_generator.html" target="_top" xlink:title=" ">
<polygon fill="none" stroke="black" points="794.5,-953 794.5,-972 967.5,-972 967.5,-953 794.5,-953"/>
<text text-anchor="middle" x="881" y="-960" font-family="Helvetica,sans-Serif" font-size="10.00">CPS::SP::Ph1::SynchronGenerator</text>
</a>
</g>
</g>
<!-- Node3&#45;&gt;Node77 -->
<g id="edge39" class="edge">
<title>Node3&#45;&gt;Node77</title>
<path fill="none" stroke="midnightblue" d="M636.14,-802.99C651.8,-826.96 678.29,-864.41 707,-891.5 737.04,-919.84 745.88,-927.62 784,-943.5 793.33,-947.39 803.51,-950.49 813.64,-952.97"/>
<polygon fill="midnightblue" stroke="midnightblue" points="639.04,-801.02 630.68,-794.51 633.15,-804.81 639.04,-801.02"/>
</g>
<!-- Node78 -->
<g id="node41" class="node">
<title>Node78</title>
<g id="a_node41"><a xlink:href="class_c_p_s_1_1_s_p_1_1_ph1_1_1_v_d_node.html" target="_top" xlink:title=" ">
<polygon fill="none" stroke="black" points="821,-915 821,-934 941,-934 941,-915 821,-915"/>
<text text-anchor="middle" x="881" y="-922" font-family="Helvetica,sans-Serif" font-size="10.00">CPS::SP::Ph1::VDNode</text>
</a>
</g>
</g>
<!-- Node3&#45;&gt;Node78 -->
<g id="edge40" class="edge">
<title>Node3&#45;&gt;Node78</title>
<path fill="none" stroke="midnightblue" d="M642.62,-801.75C671.56,-830.75 726.54,-880.68 784,-905.5 795.54,-910.49 808.43,-914.18 820.93,-916.91"/>
<polygon fill="midnightblue" stroke="midnightblue" points="645.01,-799.19 635.5,-794.51 640.02,-804.1 645.01,-799.19"/>
</g>
<!-- Node79 -->
<g id="node42" class="node">
<title>Node79</title>
<g id="a_node42"><a xlink:href="class_c_p_s_1_1_s_p_1_1_ph1_1_1_voltage_source_inverter.html" target="_top" xlink:title=" ">
<polygon fill="none" stroke="black" points="807,-865.5 807,-895.5 955,-895.5 955,-865.5 807,-865.5"/>
<text text-anchor="start" x="815" y="-883.5" font-family="Helvetica,sans-Serif" font-size="10.00">CPS::SP::Ph1::VoltageSource</text>
<text text-anchor="middle" x="881" y="-872.5" font-family="Helvetica,sans-Serif" font-size="10.00">Inverter</text>
</a>
</g>
</g>
<!-- Node3&#45;&gt;Node79 -->
<g id="edge41" class="edge">
<title>Node3&#45;&gt;Node79</title>
<path fill="none" stroke="midnightblue" d="M658.28,-799.26C673.26,-807.09 690.82,-815.99 707,-823.5 740.62,-839.1 748.87,-843.69 784,-855.5 794.61,-859.07 806.02,-862.43 817.14,-865.47"/>
<polygon fill="midnightblue" stroke="midnightblue" points="659.81,-796.11 649.33,-794.55 656.55,-802.3 659.81,-796.11"/>
</g>
<!-- Node5 -->
<g id="node5" class="node">
<title>Node5</title>
<g id="a_node5"><a xlink:href="class_c_p_s_1_1_base_1_1_reduced_order_synchron_generator.html" target="_top" xlink:title=" ">
<polygon fill="none" stroke="red" points="1020.5,-1198.5 1020.5,-1228.5 1199.5,-1228.5 1199.5,-1198.5 1020.5,-1198.5"/>
<text text-anchor="start" x="1028.5" y="-1216.5" font-family="Helvetica,sans-Serif" font-size="10.00">CPS::Base::ReducedOrderSynchron</text>
<text text-anchor="middle" x="1110" y="-1205.5" font-family="Helvetica,sans-Serif" font-size="10.00">Generator&lt; Complex &gt;</text>
</a>
</g>
</g>
<!-- Node4&#45;&gt;Node5 -->
<g id="edge4" class="edge">
<title>Node4&#45;&gt;Node5</title>
<path fill="none" stroke="midnightblue" d="M959.23,-688.69C966.41,-692.37 972.89,-697.2 978,-703.5 1004.84,-736.59 991.12,-1044.18 996,-1086.5 1001.33,-1132.74 983.21,-1155.49 1015,-1189.5 1018.22,-1192.95 1021.86,-1195.92 1025.79,-1198.5"/>
<polygon fill="midnightblue" stroke="midnightblue" points="960.4,-685.37 949.83,-684.61 957.61,-691.8 960.4,-685.37"/>
</g>
<!-- Node22 -->
<g id="node6" class="node">
<title>Node22</title>
<g id="a_node6"><a xlink:href="class_c_p_s_1_1_composite_power_comp.html" target="_top" xlink:title=" ">
<polygon fill="none" stroke="red" points="1037,-1149.5 1037,-1179.5 1183,-1179.5 1183,-1149.5 1037,-1149.5"/>
<text text-anchor="start" x="1045" y="-1167.5" font-family="Helvetica,sans-Serif" font-size="10.00">CPS::CompositePowerComp</text>
<text text-anchor="middle" x="1110" y="-1156.5" font-family="Helvetica,sans-Serif" font-size="10.00">&lt; Complex &gt;</text>
</a>
</g>
</g>
<!-- Node4&#45;&gt;Node22 -->
<g id="edge5" class="edge">
<title>Node4&#45;&gt;Node22</title>
<path fill="none" stroke="midnightblue" d="M959.2,-688.71C966.38,-692.39 972.87,-697.21 978,-703.5 1002.46,-733.51 990.9,-1013.12 996,-1051.5 1001.27,-1091.16 987.38,-1110.55 1015,-1139.5 1021.06,-1145.85 1028.54,-1150.66 1036.61,-1154.28"/>
<polygon fill="midnightblue" stroke="midnightblue" points="960.36,-685.4 949.79,-684.63 957.58,-691.82 960.36,-685.4"/>
</g>
<!-- Node42 -->
<g id="node7" class="node">
<title>Node42</title>
<g id="a_node7"><a xlink:href="class_c_p_s_1_1_d_p_1_1_ph1_1_1_capacitor.html" target="_top" xlink:title="Capacitor model.">
<polygon fill="none" stroke="black" points="1046.5,-1111 1046.5,-1130 1173.5,-1130 1173.5,-1111 1046.5,-1111"/>
<text text-anchor="middle" x="1110" y="-1118" font-family="Helvetica,sans-Serif" font-size="10.00">CPS::DP::Ph1::Capacitor</text>
</a>
</g>
</g>
<!-- Node4&#45;&gt;Node42 -->
<g id="edge6" class="edge">
<title>Node4&#45;&gt;Node42</title>
<path fill="none" stroke="midnightblue" d="M959.17,-688.74C966.35,-692.42 972.85,-697.23 978,-703.5 999.88,-730.18 991.35,-979.31 996,-1013.5 1001.4,-1053.15 986.52,-1073.39 1015,-1101.5 1023.53,-1109.92 1034.7,-1115.11 1046.35,-1118.21"/>
<polygon fill="midnightblue" stroke="midnightblue" points="960.32,-685.43 949.75,-684.67 957.54,-691.85 960.32,-685.43"/>
</g>
<!-- Node43 -->
<g id="node8" class="node">
<title>Node43</title>
<g id="a_node8"><a xlink:href="class_c_p_s_1_1_d_p_1_1_ph1_1_1_current_source.html" target="_top" xlink:title="Dynamic phasor ideal current source.">
<polygon fill="none" stroke="black" points="1034.5,-1073 1034.5,-1092 1185.5,-1092 1185.5,-1073 1034.5,-1073"/>
<text text-anchor="middle" x="1110" y="-1080" font-family="Helvetica,sans-Serif" font-size="10.00">CPS::DP::Ph1::CurrentSource</text>
</a>
</g>
</g>
<!-- Node4&#45;&gt;Node43 -->
<g id="edge7" class="edge">
<title>Node4&#45;&gt;Node43</title>
<path fill="none" stroke="midnightblue" d="M959.11,-688.79C966.31,-692.45 972.83,-697.25 978,-703.5 997.1,-726.58 991.93,-942.82 996,-972.5 1001.62,-1013.43 985.69,-1034.38 1015,-1063.5 1020.55,-1069.02 1027.23,-1073.15 1034.44,-1076.21"/>
<polygon fill="midnightblue" stroke="midnightblue" points="960.25,-685.47 949.68,-684.72 957.48,-691.9 960.25,-685.47"/>
</g>
<!-- Node44 -->
<g id="node9" class="node">
<title>Node44</title>
<g id="a_node9"><a xlink:href="class_c_p_s_1_1_d_p_1_1_ph1_1_1_inductor.html" target="_top" xlink:title="Inductor.">
<polygon fill="none" stroke="black" points="1048,-1035 1048,-1054 1172,-1054 1172,-1035 1048,-1035"/>
<text text-anchor="middle" x="1110" y="-1042" font-family="Helvetica,sans-Serif" font-size="10.00">CPS::DP::Ph1::Inductor</text>
</a>
</g>
</g>
<!-- Node4&#45;&gt;Node44 -->
<g id="edge8" class="edge">
<title>Node4&#45;&gt;Node44</title>
<path fill="none" stroke="midnightblue" d="M959.02,-688.86C966.23,-692.51 972.78,-697.29 978,-703.5 993.85,-722.36 992.72,-900.08 996,-924.5 1002.08,-969.77 982.92,-992.98 1015,-1025.5 1023.77,-1034.39 1035.47,-1039.7 1047.63,-1042.77"/>
<polygon fill="midnightblue" stroke="midnightblue" points="960.15,-685.54 949.58,-684.81 957.39,-691.97 960.15,-685.54"/>
</g>
<!-- Node45 -->
<g id="node10" class="node">
<title>Node45</title>
<g id="a_node10"><a xlink:href="class_c_p_s_1_1_d_p_1_1_ph1_1_1_inverter.html" target="_top" xlink:title="Single phase inverter model.">
<polygon fill="none" stroke="black" points="1048.5,-997 1048.5,-1016 1171.5,-1016 1171.5,-997 1048.5,-997"/>
<text text-anchor="middle" x="1110" y="-1004" font-family="Helvetica,sans-Serif" font-size="10.00">CPS::DP::Ph1::Inverter</text>
</a>
</g>
</g>
<!-- Node4&#45;&gt;Node45 -->
<g id="edge9" class="edge">
<title>Node4&#45;&gt;Node45</title>
<path fill="none" stroke="midnightblue" d="M959.15,-689.19C966.27,-692.79 972.77,-697.46 978,-703.5 1001.43,-730.54 991.29,-828.03 996,-863.5 1003.34,-918.77 976.52,-947.15 1015,-987.5 1023.85,-996.78 1035.88,-1002.19 1048.37,-1005.23"/>
<polygon fill="midnightblue" stroke="midnightblue" points="960.41,-685.92 949.85,-685.18 957.64,-692.35 960.41,-685.92"/>
</g>
<!-- Node46 -->
<g id="node11" class="node">
<title>Node46</title>
<g id="a_node11"><a xlink:href="class_c_p_s_1_1_d_p_1_1_ph1_1_1_profile_voltage_source.html" target="_top" xlink:title=" ">
<polygon fill="none" stroke="black" points="1035.5,-947.5 1035.5,-977.5 1184.5,-977.5 1184.5,-947.5 1035.5,-947.5"/>
<text text-anchor="start" x="1043.5" y="-965.5" font-family="Helvetica,sans-Serif" font-size="10.00">CPS::DP::Ph1::ProfileVoltage</text>
<text text-anchor="middle" x="1110" y="-954.5" font-family="Helvetica,sans-Serif" font-size="10.00">Source</text>
</a>
</g>
</g>
<!-- Node4&#45;&gt;Node46 -->
<g id="edge10" class="edge">
<title>Node4&#45;&gt;Node46</title>
<path fill="none" stroke="midnightblue" d="M959.07,-689.26C966.21,-692.85 972.72,-697.5 978,-703.5 999,-727.39 990.78,-814.12 996,-845.5 1002.85,-886.69 986.32,-907.16 1015,-937.5 1020.68,-943.51 1027.64,-948.14 1035.16,-951.69"/>
<polygon fill="midnightblue" stroke="midnightblue" points="960.32,-685.99 949.75,-685.26 957.56,-692.42 960.32,-685.99"/>
</g>
<!-- Node47 -->
<g id="node12" class="node">
<title>Node47</title>
<g id="a_node12"><a xlink:href="class_c_p_s_1_1_d_p_1_1_ph1_1_1_res_ind_series.html" target="_top" xlink:title="resistor inductor series element">
<polygon fill="none" stroke="black" points="1038,-909 1038,-928 1182,-928 1182,-909 1038,-909"/>
<text text-anchor="middle" x="1110" y="-916" font-family="Helvetica,sans-Serif" font-size="10.00">CPS::DP::Ph1::ResIndSeries</text>
</a>
</g>
</g>
<!-- Node4&#45;&gt;Node47 -->
<g id="edge11" class="edge">
<title>Node4&#45;&gt;Node47</title>
<path fill="none" stroke="midnightblue" d="M959.06,-689.72C966.14,-693.23 972.64,-697.73 978,-703.5 1008.15,-735.94 987.79,-757.98 996,-801.5 1004.23,-845.1 983.75,-868 1015,-899.5 1021.33,-905.88 1029.18,-910.42 1037.61,-913.6"/>
<polygon fill="midnightblue" stroke="midnightblue" points="960.42,-686.5 949.85,-685.79 957.67,-692.93 960.42,-686.5"/>
</g>
<!-- Node48 -->
<g id="node13" class="node">
<title>Node48</title>
<g id="a_node13"><a xlink:href="class_c_p_s_1_1_d_p_1_1_ph1_1_1_resistor.html" target="_top" xlink:title="Dynamic phasor resistor model.">
<polygon fill="none" stroke="black" points="1049.5,-871 1049.5,-890 1170.5,-890 1170.5,-871 1049.5,-871"/>
<text text-anchor="middle" x="1110" y="-878" font-family="Helvetica,sans-Serif" font-size="10.00">CPS::DP::Ph1::Resistor</text>
</a>
</g>
</g>
<!-- Node4&#45;&gt;Node48 -->
<g id="edge12" class="edge">
<title>Node4&#45;&gt;Node48</title>
<path fill="none" stroke="midnightblue" d="M958.79,-689.99C965.91,-693.45 972.5,-697.87 978,-703.5 1003.18,-729.31 989.11,-836.39 1015,-861.5 1024.32,-870.54 1036.69,-875.84 1049.38,-878.83"/>
<polygon fill="midnightblue" stroke="midnightblue" points="960.1,-686.74 949.52,-686.1 957.39,-693.2 960.1,-686.74"/>
</g>
<!-- Node49 -->
<g id="node14" class="node">
<title>Node49</title>
<g id="a_node14"><a xlink:href="class_c_p_s_1_1_d_p_1_1_ph1_1_1_s_v_c.html" target="_top" xlink:title="SVC.">
<polygon fill="none" stroke="black" points="1059.5,-833 1059.5,-852 1160.5,-852 1160.5,-833 1059.5,-833"/>
<text text-anchor="middle" x="1110" y="-840" font-family="Helvetica,sans-Serif" font-size="10.00">CPS::DP::Ph1::SVC</text>
</a>
</g>
</g>
<!-- Node4&#45;&gt;Node49 -->
<g id="edge13" class="edge">
<title>Node4&#45;&gt;Node49</title>
<path fill="none" stroke="midnightblue" d="M959.2,-690.76C966.09,-694.09 972.52,-698.26 978,-703.5 998.16,-722.79 994.31,-804.78 1015,-823.5 1026.97,-834.34 1043.37,-839.69 1059.12,-842.16"/>
<polygon fill="midnightblue" stroke="midnightblue" points="960.14,-687.36 949.56,-686.74 957.44,-693.82 960.14,-687.36"/>
</g>
<!-- Node50 -->
<g id="node15" class="node">
<title>Node50</title>
<g id="a_node15"><a xlink:href="class_c_p_s_1_1_d_p_1_1_ph1_1_1_switch.html" target="_top" xlink:title="Dynamic phasor switch.">
<polygon fill="none" stroke="black" points="1053.5,-795 1053.5,-814 1166.5,-814 1166.5,-795 1053.5,-795"/>
<text text-anchor="middle" x="1110" y="-802" font-family="Helvetica,sans-Serif" font-size="10.00">CPS::DP::Ph1::Switch</text>
</a>
</g>
</g>
<!-- Node4&#45;&gt;Node50 -->
<g id="edge14" class="edge">
<title>Node4&#45;&gt;Node50</title>
<path fill="none" stroke="midnightblue" d="M959.21,-691.79C965.99,-694.92 972.39,-698.77 978,-703.5 1008.56,-729.28 983.74,-760.57 1015,-785.5 1025.8,-794.12 1039.48,-799.14 1053.04,-802"/>
<polygon fill="midnightblue" stroke="midnightblue" points="960.36,-688.47 949.77,-687.95 957.72,-694.96 960.36,-688.47"/>
</g>
<!-- Node51 -->
<g id="node16" class="node">
<title>Node51</title>
<g id="a_node16"><a xlink:href="class_c_p_s_1_1_d_p_1_1_ph1_1_1_voltage_source.html" target="_top" xlink:title="Ideal Voltage source model.">
<polygon fill="none" stroke="black" points="1035,-757 1035,-776 1185,-776 1185,-757 1035,-757"/>
<text text-anchor="middle" x="1110" y="-764" font-family="Helvetica,sans-Serif" font-size="10.00">CPS::DP::Ph1::VoltageSource</text>
</a>
</g>
</g>
<!-- Node4&#45;&gt;Node51 -->
<g id="edge15" class="edge">
<title>Node4&#45;&gt;Node51</title>
<path fill="none" stroke="midnightblue" d="M959.39,-694.15C965.91,-696.8 972.21,-699.89 978,-703.5 999.39,-716.84 993.31,-733.65 1015,-746.5 1022.32,-750.84 1030.45,-754.24 1038.79,-756.91"/>
<polygon fill="midnightblue" stroke="midnightblue" points="960.33,-690.76 949.73,-690.58 957.9,-697.33 960.33,-690.76"/>
</g>
<!-- Node52 -->
<g id="node17" class="node">
<title>Node52</title>
<g id="a_node17"><a xlink:href="class_c_p_s_1_1_d_p_1_1_ph1_1_1_voltage_source_norton.html" target="_top" xlink:title="Resistive dynamic phasor voltage source.">
<polygon fill="none" stroke="black" points="1035,-707.5 1035,-737.5 1185,-737.5 1185,-707.5 1035,-707.5"/>
<text text-anchor="start" x="1043" y="-725.5" font-family="Helvetica,sans-Serif" font-size="10.00">CPS::DP::Ph1::VoltageSource</text>
<text text-anchor="middle" x="1110" y="-714.5" font-family="Helvetica,sans-Serif" font-size="10.00">Norton</text>
</a>
</g>
</g>
<!-- Node4&#45;&gt;Node52 -->
<g id="edge16" class="edge">
<title>Node4&#45;&gt;Node52</title>
<path fill="none" stroke="midnightblue" d="M959.7,-693.56C984,-698.27 1010.75,-703.46 1034.81,-708.12"/>
<polygon fill="midnightblue" stroke="midnightblue" points="960.28,-690.11 949.8,-691.64 958.95,-696.98 960.28,-690.11"/>
</g>
<!-- Node53 -->
<g id="node18" class="node">
<title>Node53</title>
<g id="a_node18"><a xlink:href="class_c_p_s_1_1_d_p_1_1_ph1_1_1var_res_switch.html" target="_top" xlink:title="Switch with variable resistance to avoid numerical oscillations, when an inductive current is suddenl...">
<polygon fill="none" stroke="black" points="1038,-669 1038,-688 1182,-688 1182,-669 1038,-669"/>
<text text-anchor="middle" x="1110" y="-676" font-family="Helvetica,sans-Serif" font-size="10.00">CPS::DP::Ph1::varResSwitch</text>
</a>
</g>
</g>
<!-- Node4&#45;&gt;Node53 -->
<g id="edge17" class="edge">
<title>Node4&#45;&gt;Node53</title>
<path fill="none" stroke="midnightblue" d="M960.04,-678.5C985.2,-678.5 1012.95,-678.5 1037.61,-678.5"/>
<polygon fill="midnightblue" stroke="midnightblue" points="959.8,-675 949.8,-678.5 959.8,-682 959.8,-675"/>
</g>
<!-- Node54 -->
<g id="node19" class="node">
<title>Node54</title>
<g id="a_node19"><a xlink:href="class_c_p_s_1_1_d_p_1_1_ph3_1_1_capacitor.html" target="_top" xlink:title="Capacitor model.">
<polygon fill="none" stroke="black" points="1046.5,-631 1046.5,-650 1173.5,-650 1173.5,-631 1046.5,-631"/>
<text text-anchor="middle" x="1110" y="-638" font-family="Helvetica,sans-Serif" font-size="10.00">CPS::DP::Ph3::Capacitor</text>
</a>
</g>
</g>
<!-- Node4&#45;&gt;Node54 -->
<g id="edge18" class="edge">
<title>Node4&#45;&gt;Node54</title>
<path fill="none" stroke="midnightblue" d="M959.88,-665.46C990.08,-660.41 1024.02,-654.73 1051.89,-650.06"/>
<polygon fill="midnightblue" stroke="midnightblue" points="959.08,-662.05 949.8,-667.15 960.24,-668.95 959.08,-662.05"/>
</g>
<!-- Node55 -->
<g id="node20" class="node">
<title>Node55</title>
<g id="a_node20"><a xlink:href="class_c_p_s_1_1_d_p_1_1_ph3_1_1_inductor.html" target="_top" xlink:title="Inductor.">
<polygon fill="none" stroke="black" points="1048,-593 1048,-612 1172,-612 1172,-593 1048,-593"/>
<text text-anchor="middle" x="1110" y="-600" font-family="Helvetica,sans-Serif" font-size="10.00">CPS::DP::Ph3::Inductor</text>
</a>
</g>
</g>
<!-- Node4&#45;&gt;Node55 -->
<g id="edge19" class="edge">
<title>Node4&#45;&gt;Node55</title>
<path fill="none" stroke="midnightblue" d="M921.39,-659.08C947.44,-646.88 982.64,-631.59 1015,-621.5 1026.76,-617.83 1039.58,-614.7 1051.86,-612.1"/>
<polygon fill="midnightblue" stroke="midnightblue" points="919.77,-655.98 912.23,-663.42 922.76,-662.3 919.77,-655.98"/>
</g>
<!-- Node56 -->
<g id="node21" class="node">
<title>Node56</title>
<g id="a_node21"><a xlink:href="class_c_p_s_1_1_d_p_1_1_ph3_1_1_resistor.html" target="_top" xlink:title=" ">
<polygon fill="none" stroke="black" points="1049.5,-555 1049.5,-574 1170.5,-574 1170.5,-555 1049.5,-555"/>
<text text-anchor="middle" x="1110" y="-562" font-family="Helvetica,sans-Serif" font-size="10.00">CPS::DP::Ph3::Resistor</text>
</a>
</g>
</g>
<!-- Node4&#45;&gt;Node56 -->
<g id="edge20" class="edge">
<title>Node4&#45;&gt;Node56</title>
<path fill="none" stroke="midnightblue" d="M905.8,-656.69C931.03,-634.8 972.96,-601.76 1015,-583.5 1025.69,-578.86 1037.56,-575.33 1049.17,-572.66"/>
<polygon fill="midnightblue" stroke="midnightblue" points="903.4,-654.14 898.22,-663.38 908.03,-659.39 903.4,-654.14"/>
</g>
<!-- Node57 -->
<g id="node22" class="node">
<title>Node57</title>
<g id="a_node22"><a xlink:href="class_c_p_s_1_1_d_p_1_1_ph3_1_1_series_resistor.html" target="_top" xlink:title=" ">
<polygon fill="none" stroke="black" points="1035.5,-517 1035.5,-536 1184.5,-536 1184.5,-517 1035.5,-517"/>
<text text-anchor="middle" x="1110" y="-524" font-family="Helvetica,sans-Serif" font-size="10.00">CPS::DP::Ph3::SeriesResistor</text>
</a>
</g>
</g>
<!-- Node4&#45;&gt;Node57 -->
<g id="edge21" class="edge">
<title>Node4&#45;&gt;Node57</title>
<path fill="none" stroke="midnightblue" d="M898.49,-654.96C921.11,-624.6 964.72,-572.48 1015,-545.5 1022.19,-541.64 1030.07,-538.57 1038.11,-536.11"/>
<polygon fill="midnightblue" stroke="midnightblue" points="895.49,-653.14 892.42,-663.28 901.15,-657.26 895.49,-653.14"/>
</g>
<!-- Node58 -->
<g id="node23" class="node">
<title>Node58</title>
<g id="a_node23"><a xlink:href="class_c_p_s_1_1_d_p_1_1_ph3_1_1_series_switch.html" target="_top" xlink:title="Dynamic phasor three&#45;phase switch.">
<polygon fill="none" stroke="black" points="1039.5,-479 1039.5,-498 1180.5,-498 1180.5,-479 1039.5,-479"/>
<text text-anchor="middle" x="1110" y="-486" font-family="Helvetica,sans-Serif" font-size="10.00">CPS::DP::Ph3::SeriesSwitch</text>
</a>
</g>
</g>
<!-- Node4&#45;&gt;Node58 -->
<g id="edge22" class="edge">
<title>Node4&#45;&gt;Node58</title>
<path fill="none" stroke="midnightblue" d="M893.81,-653.93C913.39,-616.02 956.3,-543.86 1015,-507.5 1022.36,-502.94 1030.61,-499.45 1039.08,-496.78"/>
<polygon fill="midnightblue" stroke="midnightblue" points="890.5,-652.71 889.13,-663.22 896.76,-655.86 890.5,-652.71"/>
</g>
<!-- Node59 -->
<g id="node24" class="node">
<title>Node59</title>
<g id="a_node24"><a xlink:href="class_c_p_s_1_1_d_p_1_1_ph3_1_1_synchron_generator_d_q.html" target="_top" xlink:title="Synchronous generator model in dq&#45;reference frame.">
<polygon fill="none" stroke="red" points="1015,-441 1015,-460 1205,-460 1205,-441 1015,-441"/>
<text text-anchor="middle" x="1110" y="-448" font-family="Helvetica,sans-Serif" font-size="10.00">CPS::DP::Ph3::SynchronGeneratorDQ</text>
</a>
</g>
</g>
<!-- Node4&#45;&gt;Node59 -->
<g id="edge23" class="edge">
<title>Node4&#45;&gt;Node59</title>
<path fill="none" stroke="midnightblue" d="M890.24,-653.99C906.53,-609.57 947.24,-516.03 1015,-469.5 1020.63,-465.64 1026.86,-462.52 1033.37,-460.02"/>
<polygon fill="midnightblue" stroke="midnightblue" points="886.94,-652.84 886.88,-663.44 893.53,-655.19 886.94,-652.84"/>
</g>
<!-- Node62 -->
<g id="node25" class="node">
<title>Node62</title>
<g id="a_node25"><a xlink:href="class_c_p_s_1_1_d_p_1_1_ph3_1_1_voltage_source.html" target="_top" xlink:title="Ideal Voltage source model.">
<polygon fill="none" stroke="black" points="1035,-403 1035,-422 1185,-422 1185,-403 1035,-403"/>
<text text-anchor="middle" x="1110" y="-410" font-family="Helvetica,sans-Serif" font-size="10.00">CPS::DP::Ph3::VoltageSource</text>
</a>
</g>
</g>
<!-- Node4&#45;&gt;Node62 -->
<g id="edge24" class="edge">
<title>Node4&#45;&gt;Node62</title>
<path fill="none" stroke="midnightblue" d="M887.85,-653.57C901.08,-603.01 938.31,-488.38 1015,-431.5 1021.02,-427.04 1027.82,-423.56 1034.96,-420.85"/>
<polygon fill="midnightblue" stroke="midnightblue" points="884.43,-652.79 885.38,-663.34 891.22,-654.5 884.43,-652.79"/>
</g>
<!-- Node63 -->
<g id="node26" class="node">
<title>Node63</title>
<g id="a_node26"><a xlink:href="class_c_p_s_1_1_s_p_1_1_ph1_1_1_capacitor.html" target="_top" xlink:title=" ">
<polygon fill="none" stroke="black" points="1047.5,-365 1047.5,-384 1172.5,-384 1172.5,-365 1047.5,-365"/>
<text text-anchor="middle" x="1110" y="-372" font-family="Helvetica,sans-Serif" font-size="10.00">CPS::SP::Ph1::Capacitor</text>
</a>
</g>
</g>
<!-- Node4&#45;&gt;Node63 -->
<g id="edge25" class="edge">
<title>Node4&#45;&gt;Node63</title>
<path fill="none" stroke="midnightblue" d="M886.04,-652.98C896.38,-596.57 929.32,-460.93 1015,-393.5 1024.29,-386.19 1035.66,-381.47 1047.23,-378.47"/>
<polygon fill="midnightblue" stroke="midnightblue" points="882.53,-652.71 884.26,-663.17 889.43,-653.92 882.53,-652.71"/>
</g>
<!-- Node64 -->
<g id="node27" class="node">
<title>Node64</title>
<g id="a_node27"><a xlink:href="class_c_p_s_1_1_s_p_1_1_ph1_1_1_inductor.html" target="_top" xlink:title="Static phasor inductor model.">
<polygon fill="none" stroke="black" points="1049,-327 1049,-346 1171,-346 1171,-327 1049,-327"/>
<text text-anchor="middle" x="1110" y="-334" font-family="Helvetica,sans-Serif" font-size="10.00">CPS::SP::Ph1::Inductor</text>
</a>
</g>
</g>
<!-- Node4&#45;&gt;Node64 -->
<g id="edge26" class="edge">
<title>Node4&#45;&gt;Node64</title>
<path fill="none" stroke="midnightblue" d="M884.45,-653.47C891.84,-592.23 919.68,-434.14 1015,-355.5 1024.63,-347.55 1036.69,-342.63 1048.92,-339.65"/>
<polygon fill="midnightblue" stroke="midnightblue" points="880.97,-653.08 883.33,-663.41 887.92,-653.87 880.97,-653.08"/>
</g>
<!-- Node65 -->
<g id="node28" class="node">
<title>Node65</title>
<g id="a_node28"><a xlink:href="class_c_p_s_1_1_s_p_1_1_ph1_1_1_resistor.html" target="_top" xlink:title="Static phasor resistor model.">
<polygon fill="none" stroke="black" points="1050.5,-289 1050.5,-308 1169.5,-308 1169.5,-289 1050.5,-289"/>
<text text-anchor="middle" x="1110" y="-296" font-family="Helvetica,sans-Serif" font-size="10.00">CPS::SP::Ph1::Resistor</text>
</a>
</g>
</g>
<!-- Node4&#45;&gt;Node65 -->
<g id="edge27" class="edge">
<title>Node4&#45;&gt;Node65</title>
<path fill="none" stroke="midnightblue" d="M883.28,-652.89C888.06,-586.37 910.49,-407.08 1015,-317.5 1024.86,-309.05 1037.44,-303.98 1050.16,-301.03"/>
<polygon fill="midnightblue" stroke="midnightblue" points="879.76,-653.06 882.61,-663.26 886.75,-653.51 879.76,-653.06"/>
</g>
<!-- Node66 -->
<g id="node29" class="node">
<title>Node66</title>
<g id="a_node29"><a xlink:href="class_c_p_s_1_1_s_p_1_1_ph1_1_1_switch.html" target="_top" xlink:title="Dynamic phasor switch.">
<polygon fill="none" stroke="black" points="1055,-251 1055,-270 1165,-270 1165,-251 1055,-251"/>
<text text-anchor="middle" x="1110" y="-258" font-family="Helvetica,sans-Serif" font-size="10.00">CPS::SP::Ph1::Switch</text>
</a>
</g>
</g>
<!-- Node4&#45;&gt;Node66 -->
<g id="edge28" class="edge">
<title>Node4&#45;&gt;Node66</title>
<path fill="none" stroke="midnightblue" d="M882.1,-652.97C883.88,-581.63 899.36,-378.89 1015,-279.5 1025.99,-270.06 1040.36,-264.84 1054.55,-262.06"/>
<polygon fill="midnightblue" stroke="midnightblue" points="878.6,-653.2 881.92,-663.26 885.6,-653.32 878.6,-653.2"/>
</g>
<!-- Node67 -->
<g id="node30" class="node">
<title>Node67</title>
<g id="a_node30"><a xlink:href="class_c_p_s_1_1_s_p_1_1_ph1_1_1_voltage_source.html" target="_top" xlink:title="Ideal Voltage source model.">
<polygon fill="none" stroke="black" points="1036,-213 1036,-232 1184,-232 1184,-213 1036,-213"/>
<text text-anchor="middle" x="1110" y="-220" font-family="Helvetica,sans-Serif" font-size="10.00">CPS::SP::Ph1::VoltageSource</text>
</a>
</g>
</g>
<!-- Node4&#45;&gt;Node67 -->
<g id="edge29" class="edge">
<title>Node4&#45;&gt;Node67</title>
<path fill="none" stroke="midnightblue" d="M881.13,-653.49C879.99,-577.99 887.74,-350.87 1015,-241.5 1021.06,-236.29 1028.15,-232.37 1035.68,-229.43"/>
<polygon fill="midnightblue" stroke="midnightblue" points="877.63,-653.57 881.35,-663.5 884.63,-653.42 877.63,-653.57"/>
</g>
<!-- Node68 -->
<g id="node31" class="node">
<title>Node68</title>
<g id="a_node31"><a xlink:href="class_c_p_s_1_1_s_p_1_1_ph1_1_1var_res_switch.html" target="_top" xlink:title="Switch with variable resistance to avoid numerical oscillations, when an inductive current is suddenl...">
<polygon fill="none" stroke="black" points="1039,-175 1039,-194 1181,-194 1181,-175 1039,-175"/>
<text text-anchor="middle" x="1110" y="-182" font-family="Helvetica,sans-Serif" font-size="10.00">CPS::SP::Ph1::varResSwitch</text>
</a>
</g>
</g>
<!-- Node4&#45;&gt;Node68 -->
<g id="edge30" class="edge">
<title>Node4&#45;&gt;Node68</title>
<path fill="none" stroke="midnightblue" d="M885.42,-652.94C897.99,-563.12 944.55,-264.05 1015,-203.5 1021.94,-197.53 1030.24,-193.25 1039,-190.21"/>
<polygon fill="midnightblue" stroke="midnightblue" points="881.93,-652.67 884.03,-663.06 888.86,-653.63 881.93,-652.67"/>
</g>
<!-- Node69 -->
<g id="node32" class="node">
<title>Node69</title>
<g id="a_node32"><a xlink:href="class_c_p_s_1_1_s_p_1_1_ph3_1_1_capacitor.html" target="_top" xlink:title="Capacitor model.">
<polygon fill="none" stroke="black" points="1047.5,-137 1047.5,-156 1172.5,-156 1172.5,-137 1047.5,-137"/>
<text text-anchor="middle" x="1110" y="-144" font-family="Helvetica,sans-Serif" font-size="10.00">CPS::SP::Ph3::Capacitor</text>
</a>
</g>
</g>
<!-- Node4&#45;&gt;Node69 -->
<g id="edge31" class="edge">
<title>Node4&#45;&gt;Node69</title>
<path fill="none" stroke="midnightblue" d="M884.82,-653.41C895.87,-559.67 939.42,-232 1015,-165.5 1024,-157.58 1035.37,-152.61 1047.07,-149.56"/>
<polygon fill="midnightblue" stroke="midnightblue" points="881.33,-653.08 883.66,-663.41 888.29,-653.88 881.33,-653.08"/>
</g>
<!-- Node70 -->
<g id="node33" class="node">
<title>Node70</title>
<g id="a_node33"><a xlink:href="class_c_p_s_1_1_s_p_1_1_ph3_1_1_inductor.html" target="_top" xlink:title="Inductor.">
<polygon fill="none" stroke="black" points="1049,-1324 1049,-1343 1171,-1343 1171,-1324 1049,-1324"/>
<text text-anchor="middle" x="1110" y="-1331" font-family="Helvetica,sans-Serif" font-size="10.00">CPS::SP::Ph3::Inductor</text>
</a>
</g>
</g>
<!-- Node4&#45;&gt;Node70 -->
<g id="edge32" class="edge">
<title>Node4&#45;&gt;Node70</title>
<path fill="none" stroke="midnightblue" d="M959.31,-688.62C966.47,-692.32 972.93,-697.17 978,-703.5 996.21,-726.24 992.38,-1198.6 996,-1227.5 1000.92,-1266.77 986.8,-1286.73 1015,-1314.5 1024.14,-1323.49 1036.28,-1328.8 1048.8,-1331.81"/>
<polygon fill="midnightblue" stroke="midnightblue" points="960.49,-685.31 949.92,-684.53 957.69,-691.73 960.49,-685.31"/>
</g>
<!-- Node71 -->
<g id="node34" class="node">
<title>Node71</title>
<g id="a_node34"><a xlink:href="class_c_p_s_1_1_s_p_1_1_ph3_1_1_resistor.html" target="_top" xlink:title=" ">
<polygon fill="none" stroke="black" points="1050.5,-1286 1050.5,-1305 1169.5,-1305 1169.5,-1286 1050.5,-1286"/>
<text text-anchor="middle" x="1110" y="-1293" font-family="Helvetica,sans-Serif" font-size="10.00">CPS::SP::Ph3::Resistor</text>
</a>
</g>
</g>
<!-- Node4&#45;&gt;Node71 -->
<g id="edge33" class="edge">
<title>Node4&#45;&gt;Node71</title>
<path fill="none" stroke="midnightblue" d="M959.29,-688.64C966.46,-692.33 972.92,-697.17 978,-703.5 994.75,-724.35 992.78,-1157.95 996,-1184.5 1001.02,-1225.95 985.41,-1247.04 1015,-1276.5 1024.44,-1285.9 1037.16,-1291.28 1050.18,-1294.23"/>
<polygon fill="midnightblue" stroke="midnightblue" points="960.46,-685.33 949.9,-684.55 957.67,-691.75 960.46,-685.33"/>
</g>
<!-- Node72 -->
<g id="node35" class="node">
<title>Node72</title>
<g id="a_node35"><a xlink:href="class_c_p_s_1_1_s_p_1_1_ph3_1_1_voltage_source.html" target="_top" xlink:title="Ideal Voltage source model.">
<polygon fill="none" stroke="black" points="1036,-1248 1036,-1267 1184,-1267 1184,-1248 1036,-1248"/>
<text text-anchor="middle" x="1110" y="-1255" font-family="Helvetica,sans-Serif" font-size="10.00">CPS::SP::Ph3::VoltageSource</text>
</a>
</g>
</g>
<!-- Node4&#45;&gt;Node72 -->
<g id="edge34" class="edge">
<title>Node4&#45;&gt;Node72</title>
<path fill="none" stroke="midnightblue" d="M959.27,-688.66C966.43,-692.35 972.91,-697.19 978,-703.5 993.05,-722.15 993.34,-1110.68 996,-1134.5 1001.22,-1181.2 982.09,-1204.97 1015,-1238.5 1020.83,-1244.44 1027.97,-1248.79 1035.68,-1251.93"/>
<polygon fill="midnightblue" stroke="midnightblue" points="960.43,-685.35 949.87,-684.57 957.64,-691.77 960.43,-685.35"/>
</g>
<!-- Node81 -->
<g id="node44" class="node">
<title>Node81</title>
<g id="a_node44"><a xlink:href="class_c_p_s_1_1_m_n_a_sim_power_comp.html" target="_top" xlink:title=" ">
<polygon fill="none" stroke="red" points="812.5,-93.5 812.5,-123.5 949.5,-123.5 949.5,-93.5 812.5,-93.5"/>
<text text-anchor="start" x="820.5" y="-111.5" font-family="Helvetica,sans-Serif" font-size="10.00">CPS::MNASimPowerComp</text>
<text text-anchor="middle" x="881" y="-100.5" font-family="Helvetica,sans-Serif" font-size="10.00">&lt; Real &gt;</text>
</a>
</g>
</g>
<!-- Node80&#45;&gt;Node81 -->
<g id="edge43" class="edge">
<title>Node80&#45;&gt;Node81</title>
<path fill="none" stroke="midnightblue" d="M633.69,-597.32C678.8,-507.79 835.59,-196.64 872.28,-123.83"/>
<polygon fill="midnightblue" stroke="midnightblue" points="630.47,-595.92 629.1,-606.42 636.72,-599.07 630.47,-595.92"/>
</g>
<!-- Node82 -->
<g id="node45" class="node">
<title>Node82</title>
<g id="a_node45"><a xlink:href="class_c_p_s_1_1_base_1_1_reduced_order_synchron_generator.html" target="_top" xlink:title=" ">
<polygon fill="none" stroke="red" points="1020.5,-49.5 1020.5,-79.5 1199.5,-79.5 1199.5,-49.5 1020.5,-49.5"/>
<text text-anchor="start" x="1028.5" y="-67.5" font-family="Helvetica,sans-Serif" font-size="10.00">CPS::Base::ReducedOrderSynchron</text>
<text text-anchor="middle" x="1110" y="-56.5" font-family="Helvetica,sans-Serif" font-size="10.00">Generator&lt; Real &gt;</text>
</a>
</g>
</g>
<!-- Node81&#45;&gt;Node82 -->
<g id="edge44" class="edge">
<title>Node81&#45;&gt;Node82</title>
<path fill="none" stroke="midnightblue" d="M959.93,-93.4C983.09,-88.9 1008.46,-83.99 1031.59,-79.5"/>
<polygon fill="midnightblue" stroke="midnightblue" points="958.95,-90.02 949.8,-95.36 960.28,-96.89 958.95,-90.02"/>
</g>
<!-- Node90 -->
<g id="node46" class="node">
<title>Node90</title>
<g id="a_node46"><a xlink:href="class_c_p_s_1_1_composite_power_comp.html" target="_top" xlink:title=" ">
<polygon fill="none" stroke="red" points="1037,-0.5 1037,-30.5 1183,-30.5 1183,-0.5 1037,-0.5"/>
<text text-anchor="start" x="1045" y="-18.5" font-family="Helvetica,sans-Serif" font-size="10.00">CPS::CompositePowerComp</text>
<text text-anchor="middle" x="1110" y="-7.5" font-family="Helvetica,sans-Serif" font-size="10.00">&lt; Real &gt;</text>
</a>
</g>
</g>
<!-- Node81&#45;&gt;Node90 -->
<g id="edge45" class="edge">
<title>Node81&#45;&gt;Node90</title>
<path fill="none" stroke="midnightblue" d="M915.5,-88.38C941.81,-73.27 979.78,-52.93 1015,-39.5 1023.66,-36.2 1032.93,-33.21 1042.16,-30.55"/>
<polygon fill="midnightblue" stroke="midnightblue" points="913.59,-85.45 906.7,-93.5 917.11,-91.5 913.59,-85.45"/>
</g>
<!-- Node100 -->
<g id="node47" class="node">
<title>Node100</title>
<g id="a_node47"><a xlink:href="class_c_p_s_1_1_e_m_t_1_1_ph1_1_1_capacitor.html" target="_top" xlink:title="Capacitor model.">
<polygon fill="none" stroke="black" points="1043.5,-99 1043.5,-118 1176.5,-118 1176.5,-99 1043.5,-99"/>
<text text-anchor="middle" x="1110" y="-106" font-family="Helvetica,sans-Serif" font-size="10.00">CPS::EMT::Ph1::Capacitor</text>
</a>
</g>
</g>
<!-- Node81&#45;&gt;Node100 -->
<g id="edge46" class="edge">
<title>Node81&#45;&gt;Node100</title>
<path fill="none" stroke="midnightblue" d="M960.06,-108.5C987.24,-108.5 1017.44,-108.5 1043.5,-108.5"/>
<polygon fill="midnightblue" stroke="midnightblue" points="959.8,-105 949.8,-108.5 959.8,-112 959.8,-105"/>
</g>
<!-- Node127&#45;&gt;Node3 -->
<g id="edge51" class="edge">
<title>Node127&#45;&gt;Node3</title>
<path fill="none" stroke="orange" stroke-dasharray="5,2" d="M441.26,-699.66C483.51,-718.58 547.27,-747.14 585.98,-764.49"/>
<polygon fill="orange" stroke="orange" points="442.62,-696.43 432.07,-695.54 439.76,-702.82 442.62,-696.43"/>
<text text-anchor="middle" x="504.5" y="-742.5" font-family="Helvetica,sans-Serif" font-size="10.00"> &lt; Complex &gt;</text>
</g>
<!-- Node127&#45;&gt;Node80 -->
<g id="edge52" class="edge">
<title>Node127&#45;&gt;Node80</title>
<path fill="none" stroke="orange" stroke-dasharray="5,2" d="M464.81,-662.8C496.2,-654.42 533.28,-644.52 563.26,-636.51"/>
<polygon fill="orange" stroke="orange" points="463.6,-659.5 454.84,-665.46 465.4,-666.26 463.6,-659.5"/>
<text text-anchor="middle" x="504.5" y="-663.5" font-family="Helvetica,sans-Serif" font-size="10.00"> &lt; Real &gt;</text>
</g>
<!-- Node128 -->
<g id="node49" class="node">
<title>Node128</title>
<g id="a_node49"><a xlink:href="class_c_p_s_1_1_m_n_a_sim_power_comp.html" target="_top" xlink:title="Base class for all MNA components that are transmitting power.">
<polygon fill="none" stroke="red" points="552,-660.5 552,-690.5 689,-690.5 689,-660.5 552,-660.5"/>
<text text-anchor="start" x="560" y="-678.5" font-family="Helvetica,sans-Serif" font-size="10.00">CPS::MNASimPowerComp</text>
<text text-anchor="middle" x="620.5" y="-667.5" font-family="Helvetica,sans-Serif" font-size="10.00">&lt; VarType &gt;</text>
</a>
</g>
</g>
<!-- Node127&#45;&gt;Node128 -->
<g id="edge48" class="edge">
<title>Node127&#45;&gt;Node128</title>
<path fill="none" stroke="midnightblue" d="M467.28,-678.94C494.25,-678.33 525.11,-677.64 551.97,-677.03"/>
<polygon fill="midnightblue" stroke="midnightblue" points="467.06,-675.45 457.14,-679.17 467.22,-682.45 467.06,-675.45"/>
</g>
<!-- Node128&#45;&gt;Node4 -->
<g id="edge49" class="edge">
<title>Node128&#45;&gt;Node4</title>
<path fill="none" stroke="orange" stroke-dasharray="5,2" d="M699.25,-675.89C720.86,-676.04 744.34,-676.24 766,-676.5 781.04,-676.68 797.2,-676.94 812.49,-677.2"/>
<polygon fill="orange" stroke="orange" points="699.16,-672.39 689.13,-675.82 699.11,-679.39 699.16,-672.39"/>
<text text-anchor="middle" x="736.5" y="-679.5" font-family="Helvetica,sans-Serif" font-size="10.00"> &lt; Complex &gt;</text>
</g>
<!-- Node128&#45;&gt;Node81 -->
<g id="edge50" class="edge">
<title>Node128&#45;&gt;Node81</title>
<path fill="none" stroke="orange" stroke-dasharray="5,2" d="M677.78,-655.06C681.87,-652.25 685.69,-649.08 689,-645.5 839.62,-482.89 872.89,-193.71 878.85,-123.95"/>
<polygon fill="orange" stroke="orange" points="675.79,-652.18 669.04,-660.35 679.41,-658.17 675.79,-652.18"/>
<text text-anchor="middle" x="736.5" y="-625.5" font-family="Helvetica,sans-Serif" font-size="10.00"> &lt; Real &gt;</text>
</g>
</g>
</svg>
        <g id="navigator" transform="translate(0 0)" fill="#404254">
                <rect fill="#f2f5e9" fill-opacity="0.5" stroke="#606060" stroke-width=".5" x="0" y="0" width="60" height="60"/>
                <use id="zoomplus" xlink:href="#zoomPlus" x="17" y="9" onmousedown="handleZoom(evt,'in')"/>
                <use id="zoomminus" xlink:href="#zoomMin" x="42" y="9" onmousedown="handleZoom(evt,'out')"/>
                <use id="reset" xlink:href="#resetDef" x="30" y="36" onmousedown="handleReset()"/>
                <g id="arrowUp" xlink:href="#dirArrow" transform="translate(30 24)" onmousedown="handlePan(0,-1)">
                  <use xlink:href="#rim" fill="#404040">
                        <set attributeName="fill" to="#808080" begin="arrowUp.mouseover" end="arrowUp.mouseout"/>
                  </use>
                  <path fill="none" stroke="white" stroke-width="1.5" d="M0,-3.0v7 M-2.5,-0.5L0,-3.0L2.5,-0.5"/>
                </g>
                <g id="arrowRight" xlink:href="#dirArrow" transform="rotate(90) translate(36 -43)" onmousedown="handlePan(1,0)">
                  <use xlink:href="#rim" fill="#404040">
                        <set attributeName="fill" to="#808080" begin="arrowRight.mouseover" end="arrowRight.mouseout"/>
                  </use>
                  <path fill="none" stroke="white" stroke-width="1.5" d="M0,-3.0v7 M-2.5,-0.5L0,-3.0L2.5,-0.5"/>
                </g>
                <g id="arrowDown" xlink:href="#dirArrow" transform="rotate(180) translate(-30 -48)" onmousedown="handlePan(0,1)">
                  <use xlink:href="#rim" fill="#404040">
                        <set attributeName="fill" to="#808080" begin="arrowDown.mouseover" end="arrowDown.mouseout"/>
                  </use>
                  <path fill="none" stroke="white" stroke-width="1.5" d="M0,-3.0v7 M-2.5,-0.5L0,-3.0L2.5,-0.5"/>
                </g>
                <g id="arrowLeft" xlink:href="#dirArrow" transform="rotate(270) translate(-36 17)" onmousedown="handlePan(-1,0)">
                  <use xlink:href="#rim" fill="#404040">
                        <set attributeName="fill" to="#808080" begin="arrowLeft.mouseover" end="arrowLeft.mouseout"/>
                  </use>
                  <path fill="none" stroke="white" stroke-width="1.5" d="M0,-3.0v7 M-2.5,-0.5L0,-3.0L2.5,-0.5"/>
                </g>
        </g>
        <svg viewBox="0 0 15 15" width="100%" height="30px" preserveAspectRatio="xMaxYMin meet">
         <g id="arrow_out" transform="scale(0.3 0.3)">
          <a xlink:href="class_c_p_s_1_1_topological_power_comp__inherit__graph_org.svg" target="_base">
           <rect id="button" ry="5" rx="5" y="6" x="6" height="38" width="38"
                fill="#f2f5e9" fill-opacity="0.5" stroke="#606060" stroke-width="1.0"/>
           <path id="arrow"
             d="M 11.500037,31.436501 C 11.940474,20.09759 22.043105,11.32322 32.158766,21.979434 L 37.068811,17.246167 C 37.068811,17.246167 37.088388,32 37.088388,32 L 22.160133,31.978069 C 22.160133,31.978069 26.997745,27.140456 26.997745,27.140456 C 18.528582,18.264221 13.291696,25.230495 11.500037,31.436501 z"
             style="fill:#404040;"/>
          </a>
         </g>
        </svg>
</svg>
