<?xml version="1.0" encoding="UTF-8" standalone="no"?>
<!DOCTYPE svg PUBLIC "-//W3C//DTD SVG 1.1//EN"
 "http://www.w3.org/Graphics/SVG/1.1/DTD/svg11.dtd">
<!-- Generated by graphviz version 2.50.0 (0)
 -->
<!-- Title: CPS::EMT::Ph3::SynchronGenerator3OrderVBR Pages: 1 -->
<svg width="1770pt" height="211pt"
 viewBox="0.00 0.00 1770.00 211.00" xmlns="http://www.w3.org/2000/svg" xmlns:xlink="http://www.w3.org/1999/xlink">
<g id="graph0" class="graph" transform="scale(1 1) rotate(0) translate(4 207)">
<title>CPS::EMT::Ph3::SynchronGenerator3OrderVBR</title>
<!-- Node1 -->
<g id="node1" class="node">
<title>Node1</title>
<g id="a_node1"><a xlink:title="Voltage&#45;Behind&#45;Reactance (VBR) implementation of 3rd order synchronous generator model.">
<polygon fill="#bfbfbf" stroke="black" points="1575,-24.5 1575,-54.5 1762,-54.5 1762,-24.5 1575,-24.5"/>
<text text-anchor="start" x="1583" y="-42.5" font-family="Helvetica,sans-Serif" font-size="10.00">CPS::EMT::Ph3::SynchronGenerator3</text>
<text text-anchor="middle" x="1668.5" y="-31.5" font-family="Helvetica,sans-Serif" font-size="10.00">OrderVBR</text>
</a>
</g>
</g>
<!-- Node2 -->
<g id="node2" class="node">
<title>Node2</title>
<g id="a_node2"><a xlink:href="class_c_p_s_1_1_e_m_t_1_1_ph3_1_1_reduced_order_synchron_generator_v_b_r.html" target="_top" xlink:title="Base class for EMT VBR simplefied synchronous generator models.">
<polygon fill="none" stroke="black" points="1364.5,-49.5 1364.5,-79.5 1522.5,-79.5 1522.5,-49.5 1364.5,-49.5"/>
<text text-anchor="start" x="1372.5" y="-67.5" font-family="Helvetica,sans-Serif" font-size="10.00">CPS::EMT::Ph3::ReducedOrder</text>
<text text-anchor="middle" x="1443.5" y="-56.5" font-family="Helvetica,sans-Serif" font-size="10.00">SynchronGeneratorVBR</text>
</a>
</g>
</g>
<!-- Node2&#45;&gt;Node1 -->
<g id="edge1" class="edge">
<title>Node2&#45;&gt;Node1</title>
<path fill="none" stroke="midnightblue" d="M1532.78,-54.6C1546.6,-53.05 1560.93,-51.45 1574.85,-49.89"/>
<polygon fill="midnightblue" stroke="midnightblue" points="1532.36,-51.13 1522.81,-55.72 1533.14,-58.09 1532.36,-51.13"/>
</g>
<!-- Node3 -->
<g id="node3" class="node">
<title>Node3</title>
<g id="a_node3"><a xlink:href="class_c_p_s_1_1_base_1_1_reduced_order_synchron_generator.html" target="_top" xlink:title=" ">
<polygon fill="none" stroke="black" points="998,-87.5 998,-117.5 1177,-117.5 1177,-87.5 998,-87.5"/>
<text text-anchor="start" x="1006" y="-105.5" font-family="Helvetica,sans-Serif" font-size="10.00">CPS::Base::ReducedOrderSynchron</text>
<text text-anchor="middle" x="1087.5" y="-94.5" font-family="Helvetica,sans-Serif" font-size="10.00">Generator&lt; Real &gt;</text>
</a>
</g>
</g>
<!-- Node3&#45;&gt;Node2 -->
<g id="edge2" class="edge">
<title>Node3&#45;&gt;Node2</title>
<path fill="none" stroke="midnightblue" d="M1187.65,-91.86C1243.56,-85.86 1312.4,-78.47 1364.44,-72.88"/>
<polygon fill="midnightblue" stroke="midnightblue" points="1186.94,-88.41 1177.37,-92.96 1187.69,-95.37 1186.94,-88.41"/>
</g>
<!-- Node4 -->
<g id="node4" class="node">
<title>Node4</title>
<g id="a_node4"><a xlink:href="class_c_p_s_1_1_m_n_a_sim_power_comp.html" target="_top" xlink:title=" ">
<polygon fill="none" stroke="black" points="765,-111.5 765,-141.5 902,-141.5 902,-111.5 765,-111.5"/>
<text text-anchor="start" x="773" y="-129.5" font-family="Helvetica,sans-Serif" font-size="10.00">CPS::MNASimPowerComp</text>
<text text-anchor="middle" x="833.5" y="-118.5" font-family="Helvetica,sans-Serif" font-size="10.00">&lt; Real &gt;</text>
</a>
</g>
</g>
<!-- Node4&#45;&gt;Node3 -->
<g id="edge3" class="edge">
<title>Node4&#45;&gt;Node3</title>
<path fill="none" stroke="midnightblue" d="M912.24,-119.1C939.35,-116.51 969.97,-113.6 997.9,-110.94"/>
<polygon fill="midnightblue" stroke="midnightblue" points="911.65,-115.64 902.03,-120.07 912.32,-122.6 911.65,-115.64"/>
</g>
<!-- Node5 -->
<g id="node5" class="node">
<title>Node5</title>
<g id="a_node5"><a xlink:href="class_c_p_s_1_1_sim_power_comp.html" target="_top" xlink:title=" ">
<polygon fill="none" stroke="black" points="541,-172.5 541,-202.5 660,-202.5 660,-172.5 541,-172.5"/>
<text text-anchor="start" x="549" y="-190.5" font-family="Helvetica,sans-Serif" font-size="10.00">CPS::SimPowerComp&lt;</text>
<text text-anchor="middle" x="600.5" y="-179.5" font-family="Helvetica,sans-Serif" font-size="10.00"> Real &gt;</text>
</a>
</g>
</g>
<!-- Node5&#45;&gt;Node4 -->
<g id="edge4" class="edge">
<title>Node5&#45;&gt;Node4</title>
<path fill="none" stroke="midnightblue" d="M668.15,-169.9C702.13,-160.93 743.02,-150.13 775.51,-141.55"/>
<polygon fill="midnightblue" stroke="midnightblue" points="667.08,-166.56 658.3,-172.5 668.87,-173.33 667.08,-166.56"/>
</g>
<!-- Node6 -->
<g id="node6" class="node">
<title>Node6</title>
<g id="a_node6"><a xlink:href="class_c_p_s_1_1_topological_power_comp.html" target="_top" xlink:title=" ">
<polygon fill="none" stroke="black" points="153,-182 153,-201 301,-201 301,-182 153,-182"/>
<text text-anchor="middle" x="227" y="-189" font-family="Helvetica,sans-Serif" font-size="10.00">CPS::TopologicalPowerComp</text>
</a>
</g>
</g>
<!-- Node6&#45;&gt;Node5 -->
<g id="edge5" class="edge">
<title>Node6&#45;&gt;Node5</title>
<path fill="none" stroke="midnightblue" d="M311.26,-194.63C368.34,-196.22 445.78,-197.29 514,-194.5 522.63,-194.15 531.74,-193.6 540.67,-192.95"/>
<polygon fill="midnightblue" stroke="midnightblue" points="311.31,-191.13 301.21,-194.33 311.1,-198.12 311.31,-191.13"/>
</g>
<!-- Node8 -->
<g id="node8" class="node">
<title>Node8</title>
<g id="a_node8"><a xlink:href="class_c_p_s_1_1_sim_power_comp.html" target="_top" xlink:title="Base class for all components that are transmitting power.">
<polygon fill="none" stroke="black" points="338,-154.5 338,-184.5 457,-184.5 457,-154.5 338,-154.5"/>
<text text-anchor="start" x="346" y="-172.5" font-family="Helvetica,sans-Serif" font-size="10.00">CPS::SimPowerComp&lt;</text>
<text text-anchor="middle" x="397.5" y="-161.5" font-family="Helvetica,sans-Serif" font-size="10.00"> VarType &gt;</text>
</a>
</g>
</g>
<!-- Node6&#45;&gt;Node8 -->
<g id="edge8" class="edge">
<title>Node6&#45;&gt;Node8</title>
<path fill="none" stroke="midnightblue" d="M311.12,-180.65C320.18,-179.47 329.25,-178.28 337.92,-177.15"/>
<polygon fill="midnightblue" stroke="midnightblue" points="310.39,-177.21 300.93,-181.98 311.3,-184.15 310.39,-177.21"/>
</g>
<!-- Node7 -->
<g id="node7" class="node">
<title>Node7</title>
<g id="a_node7"><a xlink:href="class_c_p_s_1_1_identified_object.html" target="_top" xlink:title=" ">
<polygon fill="none" stroke="black" points="0,-182 0,-201 116,-201 116,-182 0,-182"/>
<text text-anchor="middle" x="58" y="-189" font-family="Helvetica,sans-Serif" font-size="10.00">CPS::IdentifiedObject</text>
</a>
</g>
</g>
<!-- Node7&#45;&gt;Node6 -->
<g id="edge6" class="edge">
<title>Node7&#45;&gt;Node6</title>
<path fill="none" stroke="midnightblue" d="M126.13,-191.5C134.88,-191.5 143.88,-191.5 152.72,-191.5"/>
<polygon fill="midnightblue" stroke="midnightblue" points="126,-188 116,-191.5 126,-195 126,-188"/>
</g>
<!-- Node8&#45;&gt;Node5 -->
<g id="edge7" class="edge">
<title>Node8&#45;&gt;Node5</title>
<path fill="none" stroke="orange" stroke-dasharray="5,2" d="M467.24,-175.66C491.15,-177.8 517.73,-180.18 540.75,-182.24"/>
<polygon fill="orange" stroke="orange" points="467.45,-172.16 457.18,-174.75 466.83,-179.13 467.45,-172.16"/>
<text text-anchor="middle" x="494.5" y="-182.5" font-family="Helvetica,sans-Serif" font-size="10.00"> &lt; Real &gt;</text>
</g>
<!-- Node10 -->
<g id="node10" class="node">
<title>Node10</title>
<g id="a_node10"><a xlink:href="class_c_p_s_1_1_m_n_a_sim_power_comp.html" target="_top" xlink:title="Base class for all MNA components that are transmitting power.">
<polygon fill="none" stroke="black" points="532,-70.5 532,-100.5 669,-100.5 669,-70.5 532,-70.5"/>
<text text-anchor="start" x="540" y="-88.5" font-family="Helvetica,sans-Serif" font-size="10.00">CPS::MNASimPowerComp</text>
<text text-anchor="middle" x="600.5" y="-77.5" font-family="Helvetica,sans-Serif" font-size="10.00">&lt; VarType &gt;</text>
</a>
</g>
</g>
<!-- Node8&#45;&gt;Node10 -->
<g id="edge11" class="edge">
<title>Node8&#45;&gt;Node10</title>
<path fill="none" stroke="midnightblue" d="M443.79,-150.57C479.99,-135.45 530.05,-114.52 563.54,-100.53"/>
<polygon fill="midnightblue" stroke="midnightblue" points="442.31,-147.4 434.43,-154.48 445.01,-153.86 442.31,-147.4"/>
</g>
<!-- Node9 -->
<g id="node9" class="node">
<title>Node9</title>
<g id="a_node9"><a xlink:href="class_c_p_s_1_1_m_n_a_interface.html" target="_top" xlink:title="Interface to be implemented by all models used by the MNA solver.">
<polygon fill="none" stroke="black" points="344,-106 344,-125 451,-125 451,-106 344,-106"/>
<text text-anchor="middle" x="397.5" y="-113" font-family="Helvetica,sans-Serif" font-size="10.00">CPS::MNAInterface</text>
</a>
</g>
</g>
<!-- Node9&#45;&gt;Node4 -->
<g id="edge9" class="edge">
<title>Node9&#45;&gt;Node4</title>
<path fill="none" stroke="midnightblue" d="M461.31,-117.09C542.06,-119.14 681.73,-122.68 764.79,-124.78"/>
<polygon fill="midnightblue" stroke="midnightblue" points="461.37,-113.59 451.28,-116.84 461.19,-120.59 461.37,-113.59"/>
</g>
<!-- Node9&#45;&gt;Node10 -->
<g id="edge12" class="edge">
<title>Node9&#45;&gt;Node10</title>
<path fill="none" stroke="midnightblue" d="M461.12,-106.15C483.53,-102.81 508.89,-99.02 531.72,-95.62"/>
<polygon fill="midnightblue" stroke="midnightblue" points="460.42,-102.72 451.05,-107.66 461.45,-109.64 460.42,-102.72"/>
</g>
<!-- Node10&#45;&gt;Node4 -->
<g id="edge10" class="edge">
<title>Node10&#45;&gt;Node4</title>
<path fill="none" stroke="orange" stroke-dasharray="5,2" d="M679.22,-96.72C694.74,-99.14 710.91,-101.79 726,-104.5 738.64,-106.77 752.07,-109.38 765,-112"/>
<polygon fill="orange" stroke="orange" points="679.54,-93.23 669.13,-95.16 678.48,-100.15 679.54,-93.23"/>
<text text-anchor="middle" x="706.5" y="-107.5" font-family="Helvetica,sans-Serif" font-size="10.00"> &lt; Real &gt;</text>
</g>
<!-- Node11 -->
<g id="node11" class="node">
<title>Node11</title>
<g id="a_node11"><a xlink:href="class_c_p_s_1_1_base_1_1_reduced_order_synchron_generator.html" target="_top" xlink:title=" ">
<polygon fill="none" stroke="black" points="744,-60.5 744,-90.5 923,-90.5 923,-60.5 744,-60.5"/>
<text text-anchor="start" x="752" y="-78.5" font-family="Helvetica,sans-Serif" font-size="10.00">CPS::Base::ReducedOrderSynchron</text>
<text text-anchor="middle" x="833.5" y="-67.5" font-family="Helvetica,sans-Serif" font-size="10.00">Generator&lt; VarType &gt;</text>
</a>
</g>
</g>
<!-- Node10&#45;&gt;Node11 -->
<g id="edge14" class="edge">
<title>Node10&#45;&gt;Node11</title>
<path fill="none" stroke="midnightblue" d="M679.25,-82.13C699.95,-81.24 722.46,-80.26 743.7,-79.34"/>
<polygon fill="midnightblue" stroke="midnightblue" points="679.09,-78.64 669.25,-82.57 679.39,-85.63 679.09,-78.64"/>
</g>
<!-- Node11&#45;&gt;Node3 -->
<g id="edge13" class="edge">
<title>Node11&#45;&gt;Node3</title>
<path fill="none" stroke="orange" stroke-dasharray="5,2" d="M933.33,-86.09C954.53,-88.36 976.81,-90.75 997.61,-92.98"/>
<polygon fill="orange" stroke="orange" points="933.66,-82.6 923.35,-85.02 932.92,-89.56 933.66,-82.6"/>
<text text-anchor="middle" x="960.5" y="-93.5" font-family="Helvetica,sans-Serif" font-size="10.00"> &lt; Real &gt;</text>
</g>
<!-- Node12 -->
<g id="node12" class="node">
<title>Node12</title>
<g id="a_node12"><a xlink:href="class_c_p_s_1_1_m_n_a_variable_comp_interface.html" target="_top" xlink:title="MNA interface to be used by elements that require recomputing of the system matrix.">
<polygon fill="none" stroke="black" points="1002.5,-49 1002.5,-68 1172.5,-68 1172.5,-49 1002.5,-49"/>
<text text-anchor="middle" x="1087.5" y="-56" font-family="Helvetica,sans-Serif" font-size="10.00">CPS::MNAVariableCompInterface</text>
</a>
</g>
</g>
<!-- Node12&#45;&gt;Node2 -->
<g id="edge15" class="edge">
<title>Node12&#45;&gt;Node2</title>
<path fill="none" stroke="midnightblue" d="M1182.88,-60.1C1239.54,-61.06 1310.75,-62.27 1364.25,-63.17"/>
<polygon fill="midnightblue" stroke="midnightblue" points="1182.9,-56.6 1172.84,-59.93 1182.78,-63.6 1182.9,-56.6"/>
</g>
<!-- Node13 -->
<g id="node13" class="node">
<title>Node13</title>
<g id="a_node13"><a xlink:href="class_shared_factory.html" target="_top" xlink:title=" ">
<polygon fill="none" stroke="black" points="1349,-0.5 1349,-30.5 1538,-30.5 1538,-0.5 1349,-0.5"/>
<text text-anchor="start" x="1357" y="-18.5" font-family="Helvetica,sans-Serif" font-size="10.00">SharedFactory&lt; SynchronGenerator3</text>
<text text-anchor="middle" x="1443.5" y="-7.5" font-family="Helvetica,sans-Serif" font-size="10.00">OrderVBR &gt;</text>
</a>
</g>
</g>
<!-- Node13&#45;&gt;Node1 -->
<g id="edge16" class="edge">
<title>Node13&#45;&gt;Node1</title>
<path fill="none" stroke="midnightblue" d="M1548.13,-26.65C1557.05,-27.61 1566.03,-28.58 1574.85,-29.53"/>
<polygon fill="midnightblue" stroke="midnightblue" points="1548.42,-23.16 1538.1,-25.57 1547.67,-30.12 1548.42,-23.16"/>
</g>
<!-- Node14 -->
<g id="node14" class="node">
<title>Node14</title>
<g id="a_node14"><a xlink:href="class_shared_factory.html" target="_top" xlink:title=" ">
<polygon fill="none" stroke="black" points="1035,-6 1035,-25 1140,-25 1140,-6 1035,-6"/>
<text text-anchor="middle" x="1087.5" y="-13" font-family="Helvetica,sans-Serif" font-size="10.00">SharedFactory&lt; T &gt;</text>
</a>
</g>
</g>
<!-- Node14&#45;&gt;Node13 -->
<g id="edge17" class="edge">
<title>Node14&#45;&gt;Node13</title>
<path fill="none" stroke="orange" stroke-dasharray="5,2" d="M1150.62,-15.5C1205.48,-15.5 1286.24,-15.5 1348.91,-15.5"/>
<polygon fill="orange" stroke="orange" points="1150.35,-12 1140.35,-15.5 1150.35,-19 1150.35,-12"/>
<text text-anchor="start" x="1195" y="-29.5" font-family="Helvetica,sans-Serif" font-size="10.00"> &lt; SynchronGenerator3Order</text>
<text text-anchor="middle" x="1263" y="-18.5" font-family="Helvetica,sans-Serif" font-size="10.00">VBR &gt;</text>
</g>
</g>
</svg>
