<?xml version="1.0" encoding="UTF-8" standalone="no"?>
<!DOCTYPE svg PUBLIC "-//W3C//DTD SVG 1.1//EN"
 "http://www.w3.org/Graphics/SVG/1.1/DTD/svg11.dtd">
<!-- Generated by graphviz version 2.42.4 (0)
 -->
<!-- Title: CPS::DP::Ph1::Transformer Pages: 1 -->
<svg width="1786pt" height="472pt"
 viewBox="0.00 0.00 1786.00 472.00" xmlns="http://www.w3.org/2000/svg" xmlns:xlink="http://www.w3.org/1999/xlink">
<g id="graph0" class="graph" transform="scale(1 1) rotate(0) translate(4 468)">
<title>CPS::DP::Ph1::Transformer</title>
<!-- Node1 -->
<g id="node1" class="node">
<title>Node1</title>
<g id="a_node1"><a xlink:title="Transformer that includes an inductance and resistance.">
<polygon fill="#bfbfbf" stroke="black" points="1635,-79.5 1635,-98.5 1778,-98.5 1778,-79.5 1635,-79.5"/>
<text text-anchor="middle" x="1706.5" y="-86.5" font-family="Helvetica,sans-Serif" font-size="10.00">CPS::DP::Ph1::Transformer</text>
</a>
</g>
</g>
<!-- Node2 -->
<g id="node2" class="node">
<title>Node2</title>
<g id="a_node2"><a xlink:href="class_c_p_s_1_1_sim_power_comp.html" target="_top" xlink:title=" ">
<polygon fill="none" stroke="black" points="1457.5,-115 1457.5,-145 1584.5,-145 1584.5,-115 1457.5,-115"/>
<text text-anchor="start" x="1465.5" y="-133" font-family="Helvetica,sans-Serif" font-size="10.00">CPS::SimPowerComp&lt;</text>
<text text-anchor="middle" x="1521" y="-122" font-family="Helvetica,sans-Serif" font-size="10.00"> Complex &gt;</text>
</a>
</g>
</g>
<!-- Node2&#45;&gt;Node1 -->
<g id="edge1" class="edge">
<title>Node2&#45;&gt;Node1</title>
<path fill="none" stroke="midnightblue" d="M1594.43,-113.82C1617.58,-108.64 1642.45,-103.09 1662.77,-98.55"/>
<polygon fill="midnightblue" stroke="midnightblue" points="1593.63,-110.41 1584.64,-116 1595.16,-117.24 1593.63,-110.41"/>
</g>
<!-- Node3 -->
<g id="node3" class="node">
<title>Node3</title>
<g id="a_node3"><a xlink:href="class_c_p_s_1_1_topological_power_comp.html" target="_top" xlink:title=" ">
<polygon fill="none" stroke="black" points="802,-80.5 802,-99.5 957,-99.5 957,-80.5 802,-80.5"/>
<text text-anchor="middle" x="879.5" y="-87.5" font-family="Helvetica,sans-Serif" font-size="10.00">CPS::TopologicalPowerComp</text>
</a>
</g>
</g>
<!-- Node3&#45;&gt;Node2 -->
<g id="edge2" class="edge">
<title>Node3&#45;&gt;Node2</title>
<path fill="none" stroke="midnightblue" d="M967.59,-90.72C1058.62,-92.03 1205.54,-95.71 1332,-106 1373.98,-109.42 1420.98,-115.42 1457.48,-120.56"/>
<polygon fill="midnightblue" stroke="midnightblue" points="967.36,-87.22 957.32,-90.58 967.27,-94.22 967.36,-87.22"/>
</g>
<!-- Node19 -->
<g id="node19" class="node">
<title>Node19</title>
<g id="a_node19"><a xlink:href="class_c_p_s_1_1_sim_power_comp.html" target="_top" xlink:title="Base class for all components that are transmitting power.">
<polygon fill="none" stroke="black" points="1184.5,-115 1184.5,-145 1311.5,-145 1311.5,-115 1184.5,-115"/>
<text text-anchor="start" x="1192.5" y="-133" font-family="Helvetica,sans-Serif" font-size="10.00">CPS::SimPowerComp&lt;</text>
<text text-anchor="middle" x="1248" y="-122" font-family="Helvetica,sans-Serif" font-size="10.00"> VarType &gt;</text>
</a>
</g>
</g>
<!-- Node3&#45;&gt;Node19 -->
<g id="edge26" class="edge">
<title>Node3&#45;&gt;Node19</title>
<path fill="none" stroke="midnightblue" d="M967.4,-99.48C1034.08,-106.76 1124.53,-116.63 1184.27,-123.15"/>
<polygon fill="midnightblue" stroke="midnightblue" points="967.65,-95.99 957.33,-98.39 966.89,-102.95 967.65,-95.99"/>
</g>
<!-- Node4 -->
<g id="node4" class="node">
<title>Node4</title>
<g id="a_node4"><a xlink:href="class_c_p_s_1_1_identified_object.html" target="_top" xlink:title=" ">
<polygon fill="none" stroke="black" points="138,-103.5 138,-122.5 257,-122.5 257,-103.5 138,-103.5"/>
<text text-anchor="middle" x="197.5" y="-110.5" font-family="Helvetica,sans-Serif" font-size="10.00">CPS::IdentifiedObject</text>
</a>
</g>
</g>
<!-- Node4&#45;&gt;Node3 -->
<g id="edge3" class="edge">
<title>Node4&#45;&gt;Node3</title>
<path fill="none" stroke="midnightblue" d="M267.12,-110.68C394.88,-106.36 668.35,-97.11 801.92,-92.59"/>
<polygon fill="midnightblue" stroke="midnightblue" points="266.94,-107.18 257.06,-111.02 267.18,-114.18 266.94,-107.18"/>
</g>
<!-- Node7 -->
<g id="node7" class="node">
<title>Node7</title>
<g id="a_node7"><a xlink:href="class_c_p_s_1_1_topological_node.html" target="_top" xlink:title=" ">
<polygon fill="none" stroke="black" points="464,-244.5 464,-263.5 586,-263.5 586,-244.5 464,-244.5"/>
<text text-anchor="middle" x="525" y="-251.5" font-family="Helvetica,sans-Serif" font-size="10.00">CPS::TopologicalNode</text>
</a>
</g>
</g>
<!-- Node4&#45;&gt;Node7 -->
<g id="edge7" class="edge">
<title>Node4&#45;&gt;Node7</title>
<path fill="none" stroke="midnightblue" d="M216.17,-129.58C230.81,-142.36 252.76,-159.43 275,-169 338.5,-196.33 363.26,-172.75 428,-197 459.95,-208.97 493.34,-231.42 511.09,-244.29"/>
<polygon fill="midnightblue" stroke="midnightblue" points="218.22,-126.72 208.45,-122.63 213.54,-131.92 218.22,-126.72"/>
</g>
<!-- Node15 -->
<g id="node15" class="node">
<title>Node15</title>
<g id="a_node15"><a xlink:href="class_c_p_s_1_1_topological_terminal.html" target="_top" xlink:title=" ">
<polygon fill="none" stroke="black" points="456,-118.5 456,-137.5 594,-137.5 594,-118.5 456,-118.5"/>
<text text-anchor="middle" x="525" y="-125.5" font-family="Helvetica,sans-Serif" font-size="10.00">CPS::TopologicalTerminal</text>
</a>
</g>
</g>
<!-- Node4&#45;&gt;Node15 -->
<g id="edge18" class="edge">
<title>Node4&#45;&gt;Node15</title>
<path fill="none" stroke="midnightblue" d="M267.16,-116.16C322.66,-118.72 400.38,-122.3 455.76,-124.86"/>
<polygon fill="midnightblue" stroke="midnightblue" points="267.22,-112.66 257.07,-115.7 266.9,-119.66 267.22,-112.66"/>
</g>
<!-- Node5 -->
<g id="node5" class="node">
<title>Node5</title>
<g id="a_node5"><a xlink:href="class_c_p_s_1_1_attribute_list.html" target="_top" xlink:title="Base class of objects having attributes to access member variables.">
<polygon fill="none" stroke="black" points="0,-67.5 0,-86.5 101,-86.5 101,-67.5 0,-67.5"/>
<text text-anchor="middle" x="50.5" y="-74.5" font-family="Helvetica,sans-Serif" font-size="10.00">CPS::AttributeList</text>
</a>
</g>
</g>
<!-- Node5&#45;&gt;Node4 -->
<g id="edge4" class="edge">
<title>Node5&#45;&gt;Node4</title>
<path fill="none" stroke="midnightblue" d="M99.91,-89.02C118.85,-93.72 140.25,-99.04 158.1,-103.47"/>
<polygon fill="midnightblue" stroke="midnightblue" points="100.53,-85.57 89.98,-86.55 98.84,-92.36 100.53,-85.57"/>
</g>
<!-- Node20 -->
<g id="node20" class="node">
<title>Node20</title>
<g id="a_node20"><a xlink:href="class_c_p_s_1_1_m_n_a_interface.html" target="_top" xlink:title="Interface to be implemented by all models used by the MNA solver.">
<polygon fill="none" stroke="black" points="297.5,-48.5 297.5,-67.5 405.5,-67.5 405.5,-48.5 297.5,-48.5"/>
<text text-anchor="middle" x="351.5" y="-55.5" font-family="Helvetica,sans-Serif" font-size="10.00">CPS::MNAInterface</text>
</a>
</g>
</g>
<!-- Node5&#45;&gt;Node20 -->
<g id="edge28" class="edge">
<title>Node5&#45;&gt;Node20</title>
<path fill="none" stroke="midnightblue" d="M111.4,-73.19C165.78,-69.74 245.23,-64.69 297.39,-61.37"/>
<polygon fill="midnightblue" stroke="midnightblue" points="110.97,-69.71 101.21,-73.84 111.41,-76.7 110.97,-69.71"/>
</g>
<!-- Node6 -->
<g id="node6" class="node">
<title>Node6</title>
<g id="a_node6"><a xlink:href="class_c_p_s_1_1_sim_node.html" target="_top" xlink:title=" ">
<polygon fill="none" stroke="black" points="1172,-290.5 1172,-309.5 1324,-309.5 1324,-290.5 1172,-290.5"/>
<text text-anchor="middle" x="1248" y="-297.5" font-family="Helvetica,sans-Serif" font-size="10.00">CPS::SimNode&lt; Complex &gt;</text>
</a>
</g>
</g>
<!-- Node6&#45;&gt;Node2 -->
<g id="edge5" class="edge">
<title>Node6&#45;&gt;Node2</title>
<path fill="none" stroke="#9a32cd" stroke-dasharray="5,2" d="M1273.12,-284.87C1324.55,-252.6 1444.49,-177.37 1495.9,-145.12"/>
<polygon fill="#9a32cd" stroke="#9a32cd" points="1270.96,-282.09 1264.35,-290.37 1274.68,-288.02 1270.96,-282.09"/>
<text text-anchor="middle" x="1388" y="-238" font-family="Helvetica,sans-Serif" font-size="10.00"> mVirtualNodes</text>
</g>
<!-- Node7&#45;&gt;Node6 -->
<g id="edge6" class="edge">
<title>Node7&#45;&gt;Node6</title>
<path fill="none" stroke="midnightblue" d="M596.41,-255.12C682.5,-256.84 832.6,-260.92 961,-270 1032.71,-275.07 1114.24,-283.93 1171.85,-290.71"/>
<polygon fill="midnightblue" stroke="midnightblue" points="596.3,-251.62 586.23,-254.93 596.16,-258.62 596.3,-251.62"/>
</g>
<!-- Node11 -->
<g id="node11" class="node">
<title>Node11</title>
<g id="a_node11"><a xlink:href="class_c_p_s_1_1_sim_node.html" target="_top" xlink:title=" ">
<polygon fill="none" stroke="black" points="806.5,-339.5 806.5,-358.5 952.5,-358.5 952.5,-339.5 806.5,-339.5"/>
<text text-anchor="middle" x="879.5" y="-346.5" font-family="Helvetica,sans-Serif" font-size="10.00">CPS::SimNode&lt; VarType &gt;</text>
</a>
</g>
</g>
<!-- Node7&#45;&gt;Node11 -->
<g id="edge12" class="edge">
<title>Node7&#45;&gt;Node11</title>
<path fill="none" stroke="midnightblue" d="M596.09,-259.44C649.3,-265.99 722.82,-280.39 780,-312 789.9,-317.47 788.12,-324.49 798,-330 805.02,-333.92 812.83,-337.03 820.73,-339.5"/>
<polygon fill="midnightblue" stroke="midnightblue" points="596.4,-255.95 586.06,-258.27 595.59,-262.9 596.4,-255.95"/>
</g>
<!-- Node8 -->
<g id="node8" class="node">
<title>Node8</title>
<g id="a_node8"><a xlink:title=" ">
<polygon fill="none" stroke="#bfbfbf" points="817.5,-279.5 817.5,-320.5 941.5,-320.5 941.5,-279.5 817.5,-279.5"/>
<text text-anchor="start" x="825.5" y="-308.5" font-family="Helvetica,sans-Serif" font-size="10.00">std::enable_shared</text>
<text text-anchor="start" x="825.5" y="-297.5" font-family="Helvetica,sans-Serif" font-size="10.00">_from_this&lt; SimNode</text>
<text text-anchor="middle" x="879.5" y="-286.5" font-family="Helvetica,sans-Serif" font-size="10.00">&lt; Complex &gt; &gt;</text>
</a>
</g>
</g>
<!-- Node8&#45;&gt;Node6 -->
<g id="edge8" class="edge">
<title>Node8&#45;&gt;Node6</title>
<path fill="none" stroke="midnightblue" d="M952.14,-300C1015.45,-300 1107.46,-300 1171.81,-300"/>
<polygon fill="midnightblue" stroke="midnightblue" points="951.84,-296.5 941.84,-300 951.84,-303.5 951.84,-296.5"/>
</g>
<!-- Node9 -->
<g id="node9" class="node">
<title>Node9</title>
<g id="a_node9"><a xlink:href="class_shared_factory.html" target="_top" xlink:title=" ">
<polygon fill="none" stroke="black" points="630.5,-383 630.5,-413 771.5,-413 771.5,-383 630.5,-383"/>
<text text-anchor="start" x="638.5" y="-401" font-family="Helvetica,sans-Serif" font-size="10.00">SharedFactory&lt; SimNode</text>
<text text-anchor="middle" x="701" y="-390" font-family="Helvetica,sans-Serif" font-size="10.00">&lt; Complex &gt; &gt;</text>
</a>
</g>
</g>
<!-- Node9&#45;&gt;Node6 -->
<g id="edge9" class="edge">
<title>Node9&#45;&gt;Node6</title>
<path fill="none" stroke="midnightblue" d="M781.68,-397.74C871.82,-395.55 1022.19,-386.1 1146,-350 1178.31,-340.58 1212.8,-321.25 1231.95,-309.57"/>
<polygon fill="midnightblue" stroke="midnightblue" points="781.45,-394.25 771.53,-397.97 781.6,-401.25 781.45,-394.25"/>
</g>
<!-- Node10 -->
<g id="node10" class="node">
<title>Node10</title>
<g id="a_node10"><a xlink:href="class_shared_factory.html" target="_top" xlink:title=" ">
<polygon fill="none" stroke="black" points="140.5,-348.5 140.5,-367.5 254.5,-367.5 254.5,-348.5 140.5,-348.5"/>
<text text-anchor="middle" x="197.5" y="-355.5" font-family="Helvetica,sans-Serif" font-size="10.00">SharedFactory&lt; T &gt;</text>
</a>
</g>
</g>
<!-- Node10&#45;&gt;Node9 -->
<g id="edge10" class="edge">
<title>Node10&#45;&gt;Node9</title>
<path fill="none" stroke="orange" stroke-dasharray="5,2" d="M251.46,-369.34C259.32,-370.75 267.35,-372.03 275,-373 399.47,-388.79 545.74,-394.63 630.17,-396.78"/>
<polygon fill="orange" stroke="orange" points="252.1,-365.9 241.62,-367.51 250.81,-372.78 252.1,-365.9"/>
<text text-anchor="middle" x="351.5" y="-390" font-family="Helvetica,sans-Serif" font-size="10.00"> &lt; SimNode&lt; Complex &gt; &gt;</text>
</g>
<!-- Node13 -->
<g id="node13" class="node">
<title>Node13</title>
<g id="a_node13"><a xlink:href="class_shared_factory.html" target="_top" xlink:title=" ">
<polygon fill="none" stroke="black" points="454.5,-343 454.5,-373 595.5,-373 595.5,-343 454.5,-343"/>
<text text-anchor="start" x="462.5" y="-361" font-family="Helvetica,sans-Serif" font-size="10.00">SharedFactory&lt; SimNode</text>
<text text-anchor="middle" x="525" y="-350" font-family="Helvetica,sans-Serif" font-size="10.00">&lt; VarType &gt; &gt;</text>
</a>
</g>
</g>
<!-- Node10&#45;&gt;Node13 -->
<g id="edge15" class="edge">
<title>Node10&#45;&gt;Node13</title>
<path fill="none" stroke="orange" stroke-dasharray="5,2" d="M264.84,-358C319.96,-358 398.15,-358 454.21,-358"/>
<polygon fill="orange" stroke="orange" points="264.83,-354.5 254.83,-358 264.83,-361.5 264.83,-354.5"/>
<text text-anchor="middle" x="351.5" y="-361" font-family="Helvetica,sans-Serif" font-size="10.00"> &lt; SimNode&lt; VarType &gt; &gt;</text>
</g>
<!-- Node16 -->
<g id="node16" class="node">
<title>Node16</title>
<g id="a_node16"><a xlink:href="class_shared_factory.html" target="_top" xlink:title=" ">
<polygon fill="none" stroke="black" points="622,-201 622,-231 780,-231 780,-201 622,-201"/>
<text text-anchor="start" x="630" y="-219" font-family="Helvetica,sans-Serif" font-size="10.00">SharedFactory&lt; SimTerminal</text>
<text text-anchor="middle" x="701" y="-208" font-family="Helvetica,sans-Serif" font-size="10.00">&lt; Complex &gt; &gt;</text>
</a>
</g>
</g>
<!-- Node10&#45;&gt;Node16 -->
<g id="edge20" class="edge">
<title>Node10&#45;&gt;Node16</title>
<path fill="none" stroke="orange" stroke-dasharray="5,2" d="M221.18,-342.92C263.36,-315.78 357.63,-259.26 446,-235 503.57,-219.2 571.05,-214.78 621.99,-214.13"/>
<polygon fill="orange" stroke="orange" points="219.24,-340.01 212.76,-348.4 223.05,-345.88 219.24,-340.01"/>
<text text-anchor="middle" x="351.5" y="-311" font-family="Helvetica,sans-Serif" font-size="10.00"> &lt; SimTerminal&lt; Complex &gt; &gt;</text>
</g>
<!-- Node18 -->
<g id="node18" class="node">
<title>Node18</title>
<g id="a_node18"><a xlink:href="class_shared_factory.html" target="_top" xlink:title=" ">
<polygon fill="none" stroke="black" points="446,-157 446,-187 604,-187 604,-157 446,-157"/>
<text text-anchor="start" x="454" y="-175" font-family="Helvetica,sans-Serif" font-size="10.00">SharedFactory&lt; SimTerminal</text>
<text text-anchor="middle" x="525" y="-164" font-family="Helvetica,sans-Serif" font-size="10.00">&lt; VarType &gt; &gt;</text>
</a>
</g>
</g>
<!-- Node10&#45;&gt;Node18 -->
<g id="edge24" class="edge">
<title>Node10&#45;&gt;Node18</title>
<path fill="none" stroke="orange" stroke-dasharray="5,2" d="M200.53,-338.02C205.54,-300.31 222.23,-219.21 275,-183 328.07,-146.58 403.54,-148.77 457.45,-157"/>
<polygon fill="orange" stroke="orange" points="197.02,-337.89 199.32,-348.23 203.97,-338.71 197.02,-337.89"/>
<text text-anchor="middle" x="351.5" y="-186" font-family="Helvetica,sans-Serif" font-size="10.00"> &lt; SimTerminal&lt; VarType &gt; &gt;</text>
</g>
<!-- Node21 -->
<g id="node21" class="node">
<title>Node21</title>
<g id="a_node21"><a xlink:href="class_shared_factory.html" target="_top" xlink:title=" ">
<polygon fill="none" stroke="black" points="979,-423.5 979,-442.5 1146,-442.5 1146,-423.5 979,-423.5"/>
<text text-anchor="middle" x="1062.5" y="-430.5" font-family="Helvetica,sans-Serif" font-size="10.00">SharedFactory&lt; Transformer &gt;</text>
</a>
</g>
</g>
<!-- Node10&#45;&gt;Node21 -->
<g id="edge30" class="edge">
<title>Node10&#45;&gt;Node21</title>
<path fill="none" stroke="orange" stroke-dasharray="5,2" d="M219.27,-373.49C234.01,-383.57 254.7,-395.92 275,-402 525.02,-476.93 839.77,-457.31 983.49,-442.51"/>
<polygon fill="orange" stroke="orange" points="221.11,-370.51 210.92,-367.59 217.07,-376.22 221.11,-370.51"/>
<text text-anchor="middle" x="525" y="-456" font-family="Helvetica,sans-Serif" font-size="10.00"> &lt; Transformer &gt;</text>
</g>
<!-- Node11&#45;&gt;Node6 -->
<g id="edge11" class="edge">
<title>Node11&#45;&gt;Node6</title>
<path fill="none" stroke="orange" stroke-dasharray="5,2" d="M962.56,-338.33C1015.04,-331.46 1084.54,-322.31 1146,-314 1156.61,-312.56 1167.85,-311.03 1178.83,-309.51"/>
<polygon fill="orange" stroke="orange" points="962.1,-334.86 952.64,-339.62 963.01,-341.8 962.1,-334.86"/>
<text text-anchor="middle" x="1062.5" y="-338" font-family="Helvetica,sans-Serif" font-size="10.00"> &lt; Complex &gt;</text>
</g>
<!-- Node12 -->
<g id="node12" class="node">
<title>Node12</title>
<g id="a_node12"><a xlink:title=" ">
<polygon fill="none" stroke="#bfbfbf" points="463,-282.5 463,-323.5 587,-323.5 587,-282.5 463,-282.5"/>
<text text-anchor="start" x="471" y="-311.5" font-family="Helvetica,sans-Serif" font-size="10.00">std::enable_shared</text>
<text text-anchor="start" x="471" y="-300.5" font-family="Helvetica,sans-Serif" font-size="10.00">_from_this&lt; SimNode</text>
<text text-anchor="middle" x="525" y="-289.5" font-family="Helvetica,sans-Serif" font-size="10.00">&lt; VarType &gt; &gt;</text>
</a>
</g>
</g>
<!-- Node12&#45;&gt;Node11 -->
<g id="edge13" class="edge">
<title>Node12&#45;&gt;Node11</title>
<path fill="none" stroke="midnightblue" d="M597.68,-312.35C658.48,-320.29 745.29,-331.62 806.25,-339.57"/>
<polygon fill="midnightblue" stroke="midnightblue" points="597.77,-308.84 587.4,-311.01 596.86,-315.78 597.77,-308.84"/>
</g>
<!-- Node13&#45;&gt;Node11 -->
<g id="edge14" class="edge">
<title>Node13&#45;&gt;Node11</title>
<path fill="none" stroke="midnightblue" d="M605.87,-355.96C666.09,-354.42 748,-352.33 806.28,-350.84"/>
<polygon fill="midnightblue" stroke="midnightblue" points="605.55,-352.47 595.64,-356.22 605.73,-359.47 605.55,-352.47"/>
</g>
<!-- Node14 -->
<g id="node14" class="node">
<title>Node14</title>
<g id="a_node14"><a xlink:href="class_c_p_s_1_1_sim_terminal.html" target="_top" xlink:title=" ">
<polygon fill="none" stroke="black" points="1164,-164.5 1164,-183.5 1332,-183.5 1332,-164.5 1164,-164.5"/>
<text text-anchor="middle" x="1248" y="-171.5" font-family="Helvetica,sans-Serif" font-size="10.00">CPS::SimTerminal&lt; Complex &gt;</text>
</a>
</g>
</g>
<!-- Node14&#45;&gt;Node2 -->
<g id="edge16" class="edge">
<title>Node14&#45;&gt;Node2</title>
<path fill="none" stroke="#9a32cd" stroke-dasharray="5,2" d="M1317.87,-162.82C1360.71,-155.86 1415.38,-146.99 1457.06,-140.22"/>
<polygon fill="#9a32cd" stroke="#9a32cd" points="1317.11,-159.4 1307.8,-164.45 1318.23,-166.3 1317.11,-159.4"/>
<text text-anchor="middle" x="1388" y="-160" font-family="Helvetica,sans-Serif" font-size="10.00"> mTerminals</text>
</g>
<!-- Node15&#45;&gt;Node14 -->
<g id="edge17" class="edge">
<title>Node15&#45;&gt;Node14</title>
<path fill="none" stroke="midnightblue" d="M604.26,-132.75C691.35,-138.07 836.25,-146.98 961,-155 1029.28,-159.39 1106.72,-164.54 1163.78,-168.38"/>
<polygon fill="midnightblue" stroke="midnightblue" points="604.39,-129.26 594.19,-132.14 603.96,-136.24 604.39,-129.26"/>
</g>
<!-- Node17 -->
<g id="node17" class="node">
<title>Node17</title>
<g id="a_node17"><a xlink:href="class_c_p_s_1_1_sim_terminal.html" target="_top" xlink:title=" ">
<polygon fill="none" stroke="black" points="798,-164.5 798,-183.5 961,-183.5 961,-164.5 798,-164.5"/>
<text text-anchor="middle" x="879.5" y="-171.5" font-family="Helvetica,sans-Serif" font-size="10.00">CPS::SimTerminal&lt; VarType &gt;</text>
</a>
</g>
</g>
<!-- Node15&#45;&gt;Node17 -->
<g id="edge22" class="edge">
<title>Node15&#45;&gt;Node17</title>
<path fill="none" stroke="midnightblue" d="M582.86,-139.41C595.7,-141.77 609.29,-144.12 622,-146 680.6,-154.68 747.11,-161.86 797.72,-166.78"/>
<polygon fill="midnightblue" stroke="midnightblue" points="583.23,-135.91 572.75,-137.51 581.94,-142.79 583.23,-135.91"/>
</g>
<!-- Node16&#45;&gt;Node14 -->
<g id="edge19" class="edge">
<title>Node16&#45;&gt;Node14</title>
<path fill="none" stroke="midnightblue" d="M790.5,-212.88C880.25,-209.18 1023.05,-201.84 1146,-189 1159.93,-187.54 1174.88,-185.56 1188.89,-183.51"/>
<polygon fill="midnightblue" stroke="midnightblue" points="790.22,-209.39 780.37,-213.29 790.5,-216.38 790.22,-209.39"/>
</g>
<!-- Node17&#45;&gt;Node14 -->
<g id="edge21" class="edge">
<title>Node17&#45;&gt;Node14</title>
<path fill="none" stroke="orange" stroke-dasharray="5,2" d="M971.43,-174C1030.33,-174 1106.47,-174 1163.78,-174"/>
<polygon fill="orange" stroke="orange" points="971.38,-170.5 961.38,-174 971.38,-177.5 971.38,-170.5"/>
<text text-anchor="middle" x="1062.5" y="-177" font-family="Helvetica,sans-Serif" font-size="10.00"> &lt; Complex &gt;</text>
</g>
<!-- Node18&#45;&gt;Node17 -->
<g id="edge23" class="edge">
<title>Node18&#45;&gt;Node17</title>
<path fill="none" stroke="midnightblue" d="M614.54,-172.5C670.8,-172.82 743.05,-173.23 797.74,-173.54"/>
<polygon fill="midnightblue" stroke="midnightblue" points="614.25,-169 604.23,-172.44 614.21,-176 614.25,-169"/>
</g>
<!-- Node19&#45;&gt;Node2 -->
<g id="edge25" class="edge">
<title>Node19&#45;&gt;Node2</title>
<path fill="none" stroke="orange" stroke-dasharray="5,2" d="M1321.75,-130C1364.07,-130 1416.87,-130 1457.33,-130"/>
<polygon fill="orange" stroke="orange" points="1321.51,-126.5 1311.51,-130 1321.51,-133.5 1321.51,-126.5"/>
<text text-anchor="middle" x="1388" y="-133" font-family="Helvetica,sans-Serif" font-size="10.00"> &lt; Complex &gt;</text>
</g>
<!-- Node20&#45;&gt;Node1 -->
<g id="edge27" class="edge">
<title>Node20&#45;&gt;Node1</title>
<path fill="none" stroke="midnightblue" d="M416.13,-55.07C485.8,-52.12 600.83,-48 700,-48 700,-48 700,-48 1522,-48 1579.45,-48 1644.64,-67.38 1679.77,-79.49"/>
<polygon fill="midnightblue" stroke="midnightblue" points="415.61,-51.59 405.77,-55.52 415.91,-58.58 415.61,-51.59"/>
</g>
<!-- Node21&#45;&gt;Node1 -->
<g id="edge29" class="edge">
<title>Node21&#45;&gt;Node1</title>
<path fill="none" stroke="midnightblue" d="M1099.11,-419.85C1151.27,-400.15 1251.05,-360.81 1332,-319 1478.15,-243.52 1643.57,-131.67 1691.7,-98.56"/>
<polygon fill="midnightblue" stroke="midnightblue" points="1097.77,-416.62 1089.64,-423.41 1100.23,-423.17 1097.77,-416.62"/>
</g>
<!-- Node22 -->
<g id="node22" class="node">
<title>Node22</title>
<g id="a_node22"><a xlink:href="class_c_p_s_1_1_base_1_1_ph1_1_1_transformer.html" target="_top" xlink:title=" ">
<polygon fill="none" stroke="black" points="1444,-0.5 1444,-19.5 1598,-19.5 1598,-0.5 1444,-0.5"/>
<text text-anchor="middle" x="1521" y="-7.5" font-family="Helvetica,sans-Serif" font-size="10.00">CPS::Base::Ph1::Transformer</text>
</a>
</g>
</g>
<!-- Node22&#45;&gt;Node1 -->
<g id="edge31" class="edge">
<title>Node22&#45;&gt;Node1</title>
<path fill="none" stroke="midnightblue" d="M1581.67,-22.07C1593.59,-25.32 1605.87,-29.27 1617,-34 1645.97,-46.31 1676.44,-67.29 1692.99,-79.47"/>
<polygon fill="midnightblue" stroke="midnightblue" points="1582.32,-18.63 1571.77,-19.51 1580.57,-25.41 1582.32,-18.63"/>
</g>
</g>
</svg>
