<?xml version="1.0" encoding="UTF-8" standalone="no"?>
<!DOCTYPE svg PUBLIC "-//W3C//DTD SVG 1.1//EN"
 "http://www.w3.org/Graphics/SVG/1.1/DTD/svg11.dtd">
<!-- Generated by graphviz version 2.42.4 (0)
 -->
<!-- Title: CPS::Base::SynchronGenerator Pages: 1 -->
<!--zoomable 439 -->
<svg id="main" version="1.1" xmlns="http://www.w3.org/2000/svg" xmlns:xlink="http://www.w3.org/1999/xlink" xml:space="preserve" onload="init(evt)">
<style type="text/css"><![CDATA[
.edge:hover path { stroke: red; }
.edge:hover polygon { stroke: red; fill: red; }
]]></style>
<script type="text/javascript"><![CDATA[
var edges = document.getElementsByTagName('g');
if (edges && edges.length) {
  for (var i=0;i<edges.length;i++) {
    if (edges[i].id.substr(0,4)=='edge') {
      edges[i].setAttribute('class','edge');
    }
  }
}
]]></script>
        <defs>
                <circle id="rim" cx="0" cy="0" r="7"/>
                <circle id="rim2" cx="0" cy="0" r="3.5"/>
                <g id="zoomPlus">
                        <use xlink:href="#rim" fill="#404040">
                                <set attributeName="fill" to="#808080" begin="zoomplus.mouseover" end="zoomplus.mouseout"/>
                        </use>
                        <path d="M-4,0h8M0,-4v8" fill="none" stroke="white" stroke-width="1.5" pointer-events="none"/>
                </g>
                <g id="zoomMin">
                        <use xlink:href="#rim" fill="#404040">
                                <set attributeName="fill" to="#808080" begin="zoomminus.mouseover" end="zoomminus.mouseout"/>
                        </use>
                        <path d="M-4,0h8" fill="none" stroke="white" stroke-width="1.5" pointer-events="none"/>
                </g>
                <g id="dirArrow">
                        <path fill="none" stroke="white" stroke-width="1.5" d="M0,-3.0v7 M-2.5,-0.5L0,-3.0L2.5,-0.5"/>
                </g>
               <g id="resetDef">
                       <use xlink:href="#rim2" fill="#404040">
                               <set attributeName="fill" to="#808080" begin="reset.mouseover" end="reset.mouseout"/>
                       </use>
               </g>
        </defs>

<script type="text/javascript">
var viewWidth = 636;
var viewHeight = 439;
var sectionId = 'dynsection-0';
</script>
<script xlink:href="svgpan.js"/>
<svg id="graph" class="graph">
<g id="viewport">
<title>CPS::Base::SynchronGenerator</title>
<!-- Node1 -->
<g id="node1" class="node">
<title>Node1</title>
<g id="a_node1"><a xlink:title="Base synchronous generator model.">
<polygon fill="#bfbfbf" stroke="black" points="0,-214 0,-233 165,-233 165,-214 0,-214"/>
<text text-anchor="middle" x="82.5" y="-221" font-family="Helvetica,sans-Serif" font-size="10.00">CPS::Base::SynchronGenerator</text>
</a>
</g>
</g>
<!-- Node2 -->
<g id="node2" class="node">
<title>Node2</title>
<g id="a_node2"><a xlink:href="class_c_p_s_1_1_d_p_1_1_ph1_1_1_synchron_generator_tr_stab.html" target="_top" xlink:title="Synchronous generator model for transient stability analysis.">
<polygon fill="none" stroke="black" points="214.5,-400.5 214.5,-430.5 393.5,-430.5 393.5,-400.5 214.5,-400.5"/>
<text text-anchor="start" x="222.5" y="-418.5" font-family="Helvetica,sans-Serif" font-size="10.00">CPS::DP::Ph1::SynchronGenerator</text>
<text text-anchor="middle" x="304" y="-407.5" font-family="Helvetica,sans-Serif" font-size="10.00">TrStab</text>
</a>
</g>
</g>
<!-- Node1&#45;&gt;Node2 -->
<g id="edge1" class="edge">
<title>Node1&#45;&gt;Node2</title>
<path fill="none" stroke="midnightblue" d="M91.51,-242.83C107.11,-277.98 145.01,-352.28 201,-390.5 206.72,-394.41 212.99,-397.7 219.52,-400.49"/>
<polygon fill="midnightblue" stroke="midnightblue" points="94.56,-241.06 87.39,-233.26 88.13,-243.83 94.56,-241.06"/>
</g>
<!-- Node3 -->
<g id="node3" class="node">
<title>Node3</title>
<g id="a_node3"><a xlink:href="class_c_p_s_1_1_d_p_1_1_ph3_1_1_synchron_generator_d_q.html" target="_top" xlink:title="Synchronous generator model in dq&#45;reference frame.">
<polygon fill="none" stroke="black" points="207,-362 207,-381 401,-381 401,-362 207,-362"/>
<text text-anchor="middle" x="304" y="-369" font-family="Helvetica,sans-Serif" font-size="10.00">CPS::DP::Ph3::SynchronGeneratorDQ</text>
</a>
</g>
</g>
<!-- Node1&#45;&gt;Node3 -->
<g id="edge2" class="edge">
<title>Node1&#45;&gt;Node3</title>
<path fill="none" stroke="midnightblue" d="M94.55,-241.85C112.83,-270.5 152.25,-325.36 201,-352.5 207.92,-356.36 215.48,-359.45 223.25,-361.92"/>
<polygon fill="midnightblue" stroke="midnightblue" points="97.43,-239.86 89.17,-233.22 91.49,-243.56 97.43,-239.86"/>
</g>
<!-- Node6 -->
<g id="node6" class="node">
<title>Node6</title>
<g id="a_node6"><a xlink:href="class_c_p_s_1_1_d_p_1_1_ph3_1_1_synchron_generator_v_b_r.html" target="_top" xlink:title=" ">
<polygon fill="none" stroke="black" points="204.5,-324 204.5,-343 403.5,-343 403.5,-324 204.5,-324"/>
<text text-anchor="middle" x="304" y="-331" font-family="Helvetica,sans-Serif" font-size="10.00">CPS::DP::Ph3::SynchronGeneratorVBR</text>
</a>
</g>
</g>
<!-- Node1&#45;&gt;Node6 -->
<g id="edge5" class="edge">
<title>Node1&#45;&gt;Node6</title>
<path fill="none" stroke="midnightblue" d="M99.73,-240.27C120.97,-261.13 160.29,-296.24 201,-314.5 209.71,-318.41 219.19,-321.51 228.74,-323.98"/>
<polygon fill="midnightblue" stroke="midnightblue" points="102.06,-237.64 92.52,-233.03 97.1,-242.58 102.06,-237.64"/>
</g>
<!-- Node7 -->
<g id="node7" class="node">
<title>Node7</title>
<g id="a_node7"><a xlink:href="class_c_p_s_1_1_d_p_1_1_ph3_1_1_synchron_generator_v_b_r_standalone.html" target="_top" xlink:title=" ">
<polygon fill="none" stroke="black" points="214.5,-274.5 214.5,-304.5 393.5,-304.5 393.5,-274.5 214.5,-274.5"/>
<text text-anchor="start" x="222.5" y="-292.5" font-family="Helvetica,sans-Serif" font-size="10.00">CPS::DP::Ph3::SynchronGenerator</text>
<text text-anchor="middle" x="304" y="-281.5" font-family="Helvetica,sans-Serif" font-size="10.00">VBRStandalone</text>
</a>
</g>
</g>
<!-- Node1&#45;&gt;Node7 -->
<g id="edge6" class="edge">
<title>Node1&#45;&gt;Node7</title>
<path fill="none" stroke="midnightblue" d="M118.37,-236.65C141.6,-245.16 172.9,-256.18 201,-264.5 212.8,-268 225.47,-271.39 237.73,-274.48"/>
<polygon fill="midnightblue" stroke="midnightblue" points="119.54,-233.35 108.94,-233.17 117.11,-239.91 119.54,-233.35"/>
</g>
<!-- Node8 -->
<g id="node8" class="node">
<title>Node8</title>
<g id="a_node8"><a xlink:href="class_c_p_s_1_1_e_m_t_1_1_ph3_1_1_synchron_generator_d_q.html" target="_top" xlink:title="Synchronous generator model in dq&#45;reference frame.">
<polygon fill="none" stroke="black" points="204,-236 204,-255 404,-255 404,-236 204,-236"/>
<text text-anchor="middle" x="304" y="-243" font-family="Helvetica,sans-Serif" font-size="10.00">CPS::EMT::Ph3::SynchronGeneratorDQ</text>
</a>
</g>
</g>
<!-- Node1&#45;&gt;Node8 -->
<g id="edge7" class="edge">
<title>Node1&#45;&gt;Node8</title>
<path fill="none" stroke="midnightblue" d="M175.43,-232.71C186.15,-233.79 197.11,-234.89 207.87,-235.97"/>
<polygon fill="midnightblue" stroke="midnightblue" points="175.53,-229.21 165.23,-231.69 174.83,-236.17 175.53,-229.21"/>
</g>
<!-- Node11 -->
<g id="node11" class="node">
<title>Node11</title>
<g id="a_node11"><a xlink:href="class_c_p_s_1_1_e_m_t_1_1_ph3_1_1_synchron_generator_tr_stab.html" target="_top" xlink:title="Synchronous generator model for transient stability analysis.">
<polygon fill="none" stroke="black" points="211.5,-186.5 211.5,-216.5 396.5,-216.5 396.5,-186.5 211.5,-186.5"/>
<text text-anchor="start" x="219.5" y="-204.5" font-family="Helvetica,sans-Serif" font-size="10.00">CPS::EMT::Ph3::SynchronGenerator</text>
<text text-anchor="middle" x="304" y="-193.5" font-family="Helvetica,sans-Serif" font-size="10.00">TrStab</text>
</a>
</g>
</g>
<!-- Node1&#45;&gt;Node11 -->
<g id="edge10" class="edge">
<title>Node1&#45;&gt;Node11</title>
<path fill="none" stroke="midnightblue" d="M175.52,-214.28C187.33,-213.09 199.42,-211.88 211.23,-210.7"/>
<polygon fill="midnightblue" stroke="midnightblue" points="174.83,-210.83 165.23,-215.31 175.53,-217.79 174.83,-210.83"/>
</g>
<!-- Node12 -->
<g id="node12" class="node">
<title>Node12</title>
<g id="a_node12"><a xlink:href="class_c_p_s_1_1_e_m_t_1_1_ph3_1_1_synchron_generator_v_b_r.html" target="_top" xlink:title=" ">
<polygon fill="none" stroke="black" points="201,-148 201,-167 407,-167 407,-148 201,-148"/>
<text text-anchor="middle" x="304" y="-155" font-family="Helvetica,sans-Serif" font-size="10.00">CPS::EMT::Ph3::SynchronGeneratorVBR</text>
</a>
</g>
</g>
<!-- Node1&#45;&gt;Node12 -->
<g id="edge11" class="edge">
<title>Node1&#45;&gt;Node12</title>
<path fill="none" stroke="midnightblue" d="M113.24,-209.71C136.66,-199.32 170.35,-185.39 201,-176.5 213.8,-172.79 227.73,-169.63 241.05,-167.02"/>
<polygon fill="midnightblue" stroke="midnightblue" points="111.55,-206.63 103.87,-213.92 114.42,-213.02 111.55,-206.63"/>
</g>
<!-- Node13 -->
<g id="node13" class="node">
<title>Node13</title>
<g id="a_node13"><a xlink:href="class_c_p_s_1_1_e_m_t_1_1_ph3_1_1_synchron_generator_v_b_r_smpl.html" target="_top" xlink:title=" ">
<polygon fill="none" stroke="black" points="211.5,-98.5 211.5,-128.5 396.5,-128.5 396.5,-98.5 211.5,-98.5"/>
<text text-anchor="start" x="219.5" y="-116.5" font-family="Helvetica,sans-Serif" font-size="10.00">CPS::EMT::Ph3::SynchronGenerator</text>
<text text-anchor="middle" x="304" y="-105.5" font-family="Helvetica,sans-Serif" font-size="10.00">VBRSmpl</text>
</a>
</g>
</g>
<!-- Node1&#45;&gt;Node13 -->
<g id="edge12" class="edge">
<title>Node1&#45;&gt;Node13</title>
<path fill="none" stroke="midnightblue" d="M101.47,-207.04C123.38,-187.82 162.3,-156.4 201,-138.5 209.27,-134.67 218.21,-131.39 227.23,-128.58"/>
<polygon fill="midnightblue" stroke="midnightblue" points="99.07,-204.48 93.94,-213.75 103.73,-209.71 99.07,-204.48"/>
</g>
<!-- Node14 -->
<g id="node14" class="node">
<title>Node14</title>
<g id="a_node14"><a xlink:href="class_c_p_s_1_1_e_m_t_1_1_ph3_1_1_synchron_generator_v_b_r_standalone.html" target="_top" xlink:title=" ">
<polygon fill="none" stroke="black" points="211.5,-49.5 211.5,-79.5 396.5,-79.5 396.5,-49.5 211.5,-49.5"/>
<text text-anchor="start" x="219.5" y="-67.5" font-family="Helvetica,sans-Serif" font-size="10.00">CPS::EMT::Ph3::SynchronGenerator</text>
<text text-anchor="middle" x="304" y="-56.5" font-family="Helvetica,sans-Serif" font-size="10.00">VBRStandalone</text>
</a>
</g>
</g>
<!-- Node1&#45;&gt;Node14 -->
<g id="edge13" class="edge">
<title>Node1&#45;&gt;Node14</title>
<path fill="none" stroke="midnightblue" d="M94.22,-205C112.3,-175.52 151.76,-118.21 201,-88.5 206.76,-85.02 212.99,-82.05 219.43,-79.51"/>
<polygon fill="midnightblue" stroke="midnightblue" points="91.06,-203.47 88.92,-213.85 97.06,-207.06 91.06,-203.47"/>
</g>
<!-- Node15 -->
<g id="node15" class="node">
<title>Node15</title>
<g id="a_node15"><a xlink:href="class_c_p_s_1_1_s_p_1_1_ph1_1_1_synchron_generator_tr_stab.html" target="_top" xlink:title="Synchronous generator model for transient stability analysis.">
<polygon fill="none" stroke="black" points="215.5,-0.5 215.5,-30.5 392.5,-30.5 392.5,-0.5 215.5,-0.5"/>
<text text-anchor="start" x="223.5" y="-18.5" font-family="Helvetica,sans-Serif" font-size="10.00">CPS::SP::Ph1::SynchronGenerator</text>
<text text-anchor="middle" x="304" y="-7.5" font-family="Helvetica,sans-Serif" font-size="10.00">TrStab</text>
</a>
</g>
</g>
<!-- Node1&#45;&gt;Node15 -->
<g id="edge14" class="edge">
<title>Node1&#45;&gt;Node15</title>
<path fill="none" stroke="midnightblue" d="M90.31,-203.75C104.52,-165.65 141.06,-82 201,-39.5 205.9,-36.03 211.23,-33.05 216.8,-30.5"/>
<polygon fill="midnightblue" stroke="midnightblue" points="86.85,-203.03 86.76,-213.62 93.44,-205.4 86.85,-203.03"/>
</g>
<!-- Node4 -->
<g id="node4" class="node">
<title>Node4</title>
<g id="a_node4"><a xlink:href="class_c_p_s_1_1_d_p_1_1_ph3_1_1_synchron_generator_d_q_o_d_e.html" target="_top" xlink:title=" ">
<polygon fill="none" stroke="black" points="446,-380.5 446,-410.5 625,-410.5 625,-380.5 446,-380.5"/>
<text text-anchor="start" x="454" y="-398.5" font-family="Helvetica,sans-Serif" font-size="10.00">CPS::DP::Ph3::SynchronGenerator</text>
<text text-anchor="middle" x="535.5" y="-387.5" font-family="Helvetica,sans-Serif" font-size="10.00">DQODE</text>
</a>
</g>
</g>
<!-- Node3&#45;&gt;Node4 -->
<g id="edge3" class="edge">
<title>Node3&#45;&gt;Node4</title>
<path fill="none" stroke="midnightblue" d="M406.1,-382.07C419.33,-383.46 432.81,-384.87 445.82,-386.23"/>
<polygon fill="midnightblue" stroke="midnightblue" points="406.34,-378.58 396.03,-381.02 405.62,-385.54 406.34,-378.58"/>
</g>
<!-- Node5 -->
<g id="node5" class="node">
<title>Node5</title>
<g id="a_node5"><a xlink:href="class_c_p_s_1_1_d_p_1_1_ph3_1_1_synchron_generator_d_q_trapez.html" target="_top" xlink:title=" ">
<polygon fill="none" stroke="black" points="446,-331.5 446,-361.5 625,-361.5 625,-331.5 446,-331.5"/>
<text text-anchor="start" x="454" y="-349.5" font-family="Helvetica,sans-Serif" font-size="10.00">CPS::DP::Ph3::SynchronGenerator</text>
<text text-anchor="middle" x="535.5" y="-338.5" font-family="Helvetica,sans-Serif" font-size="10.00">DQTrapez</text>
</a>
</g>
</g>
<!-- Node3&#45;&gt;Node5 -->
<g id="edge4" class="edge">
<title>Node3&#45;&gt;Node5</title>
<path fill="none" stroke="midnightblue" d="M402.75,-360.85C417.05,-359.29 431.7,-357.7 445.8,-356.16"/>
<polygon fill="midnightblue" stroke="midnightblue" points="401.98,-357.41 392.42,-361.98 402.74,-364.37 401.98,-357.41"/>
</g>
<!-- Node9 -->
<g id="node9" class="node">
<title>Node9</title>
<g id="a_node9"><a xlink:href="class_c_p_s_1_1_e_m_t_1_1_ph3_1_1_synchron_generator_d_q_o_d_e.html" target="_top" xlink:title=" ">
<polygon fill="none" stroke="black" points="443,-244.5 443,-274.5 628,-274.5 628,-244.5 443,-244.5"/>
<text text-anchor="start" x="451" y="-262.5" font-family="Helvetica,sans-Serif" font-size="10.00">CPS::EMT::Ph3::SynchronGenerator</text>
<text text-anchor="middle" x="535.5" y="-251.5" font-family="Helvetica,sans-Serif" font-size="10.00">DQODE</text>
</a>
</g>
</g>
<!-- Node8&#45;&gt;Node9 -->
<g id="edge8" class="edge">
<title>Node8&#45;&gt;Node9</title>
<path fill="none" stroke="midnightblue" d="M414.6,-252.19C424.1,-252.77 433.65,-253.35 442.98,-253.92"/>
<polygon fill="midnightblue" stroke="midnightblue" points="414.52,-248.67 404.33,-251.56 414.1,-255.66 414.52,-248.67"/>
</g>
<!-- Node10 -->
<g id="node10" class="node">
<title>Node10</title>
<g id="a_node10"><a xlink:href="class_c_p_s_1_1_e_m_t_1_1_ph3_1_1_synchron_generator_d_q_trapez.html" target="_top" xlink:title=" ">
<polygon fill="none" stroke="black" points="443,-195.5 443,-225.5 628,-225.5 628,-195.5 443,-195.5"/>
<text text-anchor="start" x="451" y="-213.5" font-family="Helvetica,sans-Serif" font-size="10.00">CPS::EMT::Ph3::SynchronGenerator</text>
<text text-anchor="middle" x="535.5" y="-202.5" font-family="Helvetica,sans-Serif" font-size="10.00">DQTrapez</text>
</a>
</g>
</g>
<!-- Node8&#45;&gt;Node10 -->
<g id="edge9" class="edge">
<title>Node8&#45;&gt;Node10</title>
<path fill="none" stroke="midnightblue" d="M377.41,-234.46C398.16,-231.29 421.07,-227.8 442.82,-224.48"/>
<polygon fill="midnightblue" stroke="midnightblue" points="376.77,-231.01 367.41,-235.98 377.82,-237.93 376.77,-231.01"/>
</g>
</g>
</svg>
        <g id="navigator" transform="translate(0 0)" fill="#404254">
                <rect fill="#f2f5e9" fill-opacity="0.5" stroke="#606060" stroke-width=".5" x="0" y="0" width="60" height="60"/>
                <use id="zoomplus" xlink:href="#zoomPlus" x="17" y="9" onmousedown="handleZoom(evt,'in')"/>
                <use id="zoomminus" xlink:href="#zoomMin" x="42" y="9" onmousedown="handleZoom(evt,'out')"/>
                <use id="reset" xlink:href="#resetDef" x="30" y="36" onmousedown="handleReset()"/>
                <g id="arrowUp" xlink:href="#dirArrow" transform="translate(30 24)" onmousedown="handlePan(0,-1)">
                  <use xlink:href="#rim" fill="#404040">
                        <set attributeName="fill" to="#808080" begin="arrowUp.mouseover" end="arrowUp.mouseout"/>
                  </use>
                  <path fill="none" stroke="white" stroke-width="1.5" d="M0,-3.0v7 M-2.5,-0.5L0,-3.0L2.5,-0.5"/>
                </g>
                <g id="arrowRight" xlink:href="#dirArrow" transform="rotate(90) translate(36 -43)" onmousedown="handlePan(1,0)">
                  <use xlink:href="#rim" fill="#404040">
                        <set attributeName="fill" to="#808080" begin="arrowRight.mouseover" end="arrowRight.mouseout"/>
                  </use>
                  <path fill="none" stroke="white" stroke-width="1.5" d="M0,-3.0v7 M-2.5,-0.5L0,-3.0L2.5,-0.5"/>
                </g>
                <g id="arrowDown" xlink:href="#dirArrow" transform="rotate(180) translate(-30 -48)" onmousedown="handlePan(0,1)">
                  <use xlink:href="#rim" fill="#404040">
                        <set attributeName="fill" to="#808080" begin="arrowDown.mouseover" end="arrowDown.mouseout"/>
                  </use>
                  <path fill="none" stroke="white" stroke-width="1.5" d="M0,-3.0v7 M-2.5,-0.5L0,-3.0L2.5,-0.5"/>
                </g>
                <g id="arrowLeft" xlink:href="#dirArrow" transform="rotate(270) translate(-36 17)" onmousedown="handlePan(-1,0)">
                  <use xlink:href="#rim" fill="#404040">
                        <set attributeName="fill" to="#808080" begin="arrowLeft.mouseover" end="arrowLeft.mouseout"/>
                  </use>
                  <path fill="none" stroke="white" stroke-width="1.5" d="M0,-3.0v7 M-2.5,-0.5L0,-3.0L2.5,-0.5"/>
                </g>
        </g>
        <svg viewBox="0 0 15 15" width="100%" height="30px" preserveAspectRatio="xMaxYMin meet">
         <g id="arrow_out" transform="scale(0.3 0.3)">
          <a xlink:href="class_c_p_s_1_1_base_1_1_synchron_generator__inherit__graph_org.svg" target="_base">
           <rect id="button" ry="5" rx="5" y="6" x="6" height="38" width="38"
                fill="#f2f5e9" fill-opacity="0.5" stroke="#606060" stroke-width="1.0"/>
           <path id="arrow"
             d="M 11.500037,31.436501 C 11.940474,20.09759 22.043105,11.32322 32.158766,21.979434 L 37.068811,17.246167 C 37.068811,17.246167 37.088388,32 37.088388,32 L 22.160133,31.978069 C 22.160133,31.978069 26.997745,27.140456 26.997745,27.140456 C 18.528582,18.264221 13.291696,25.230495 11.500037,31.436501 z"
             style="fill:#404040;"/>
          </a>
         </g>
        </svg>
</svg>
