<?xml version="1.0" encoding="UTF-8" standalone="no"?>
<!DOCTYPE svg PUBLIC "-//W3C//DTD SVG 1.1//EN"
 "http://www.w3.org/Graphics/SVG/1.1/DTD/svg11.dtd">
<!-- Generated by graphviz version 2.50.0 (0)
 -->
<!-- Title: CPS::SP::Ph1::VoltageSource Pages: 1 -->
<!--zoomable 531 -->
<svg id="main" version="1.1" xmlns="http://www.w3.org/2000/svg" xmlns:xlink="http://www.w3.org/1999/xlink" xml:space="preserve" onload="init(evt)">
<style type="text/css"><![CDATA[
.edge:hover path { stroke: red; }
.edge:hover polygon { stroke: red; fill: red; }
]]></style>
<script type="text/javascript"><![CDATA[
var edges = document.getElementsByTagName('g');
if (edges && edges.length) {
  for (var i=0;i<edges.length;i++) {
    if (edges[i].id.substr(0,4)=='edge') {
      edges[i].setAttribute('class','edge');
    }
  }
}
]]></script>
        <defs>
                <circle id="rim" cx="0" cy="0" r="7"/>
                <circle id="rim2" cx="0" cy="0" r="3.5"/>
                <g id="zoomPlus">
                        <use xlink:href="#rim" fill="#404040">
                                <set attributeName="fill" to="#808080" begin="zoomplus.mouseover" end="zoomplus.mouseout"/>
                        </use>
                        <path d="M-4,0h8M0,-4v8" fill="none" stroke="white" stroke-width="1.5" pointer-events="none"/>
                </g>
                <g id="zoomMin">
                        <use xlink:href="#rim" fill="#404040">
                                <set attributeName="fill" to="#808080" begin="zoomminus.mouseover" end="zoomminus.mouseout"/>
                        </use>
                        <path d="M-4,0h8" fill="none" stroke="white" stroke-width="1.5" pointer-events="none"/>
                </g>
                <g id="dirArrow">
                        <path fill="none" stroke="white" stroke-width="1.5" d="M0,-3.0v7 M-2.5,-0.5L0,-3.0L2.5,-0.5"/>
                </g>
               <g id="resetDef">
                       <use xlink:href="#rim2" fill="#404040">
                               <set attributeName="fill" to="#808080" begin="reset.mouseover" end="reset.mouseout"/>
                       </use>
               </g>
        </defs>

<script type="text/javascript">
var viewWidth = 1967;
var viewHeight = 531;
var sectionId = 'dynsection-1';
</script>
<script xlink:href="svgpan.js"/>
<svg id="graph" class="graph">
<g id="viewport">
<title>CPS::SP::Ph1::VoltageSource</title>
<!-- Node1 -->
<g id="node1" class="node">
<title>Node1</title>
<g id="a_node1"><a xlink:title="Ideal Voltage source model.">
<polygon fill="#bfbfbf" stroke="black" points="1811,-136.5 1811,-155.5 1959,-155.5 1959,-136.5 1811,-136.5"/>
<text text-anchor="middle" x="1885" y="-143.5" font-family="Helvetica,sans-Serif" font-size="10.00">CPS::SP::Ph1::VoltageSource</text>
</a>
</g>
</g>
<!-- Node2 -->
<g id="node2" class="node">
<title>Node2</title>
<g id="a_node2"><a xlink:href="class_c_p_s_1_1_m_n_a_sim_power_comp.html" target="_top" xlink:title=" ">
<polygon fill="none" stroke="black" points="1622,-345 1622,-375 1759,-375 1759,-345 1622,-345"/>
<text text-anchor="start" x="1630" y="-363" font-family="Helvetica,sans-Serif" font-size="10.00">CPS::MNASimPowerComp</text>
<text text-anchor="middle" x="1690.5" y="-352" font-family="Helvetica,sans-Serif" font-size="10.00">&lt; Complex &gt;</text>
</a>
</g>
</g>
<!-- Node2&#45;&gt;Node1 -->
<g id="edge1" class="edge">
<title>Node2&#45;&gt;Node1</title>
<path fill="none" stroke="midnightblue" d="M1711.95,-337.26C1753.59,-290.98 1846.67,-187.5 1875.39,-155.57"/>
<polygon fill="midnightblue" stroke="midnightblue" points="1709.12,-335.18 1705.04,-344.95 1714.33,-339.86 1709.12,-335.18"/>
</g>
<!-- Node3 -->
<g id="node3" class="node">
<title>Node3</title>
<g id="a_node3"><a xlink:href="class_c_p_s_1_1_sim_power_comp.html" target="_top" xlink:title=" ">
<polygon fill="none" stroke="black" points="1357,-294 1357,-324 1476,-324 1476,-294 1357,-294"/>
<text text-anchor="start" x="1365" y="-312" font-family="Helvetica,sans-Serif" font-size="10.00">CPS::SimPowerComp&lt;</text>
<text text-anchor="middle" x="1416.5" y="-301" font-family="Helvetica,sans-Serif" font-size="10.00"> Complex &gt;</text>
</a>
</g>
</g>
<!-- Node3&#45;&gt;Node2 -->
<g id="edge2" class="edge">
<title>Node3&#45;&gt;Node2</title>
<path fill="none" stroke="midnightblue" d="M1486.22,-321.88C1527.75,-329.67 1580.47,-339.56 1621.81,-347.31"/>
<polygon fill="midnightblue" stroke="midnightblue" points="1486.66,-318.41 1476.19,-320 1485.37,-325.29 1486.66,-318.41"/>
</g>
<!-- Node4 -->
<g id="node4" class="node">
<title>Node4</title>
<g id="a_node4"><a xlink:href="class_c_p_s_1_1_topological_power_comp.html" target="_top" xlink:title=" ">
<polygon fill="none" stroke="black" points="883,-266.5 883,-285.5 1031,-285.5 1031,-266.5 883,-266.5"/>
<text text-anchor="middle" x="957" y="-273.5" font-family="Helvetica,sans-Serif" font-size="10.00">CPS::TopologicalPowerComp</text>
</a>
</g>
</g>
<!-- Node4&#45;&gt;Node3 -->
<g id="edge3" class="edge">
<title>Node4&#45;&gt;Node3</title>
<path fill="none" stroke="midnightblue" d="M1041.3,-282.01C1132.65,-288.6 1276.9,-299 1357,-304.78"/>
<polygon fill="midnightblue" stroke="midnightblue" points="1041.48,-278.51 1031.25,-281.28 1040.97,-285.49 1041.48,-278.51"/>
</g>
<!-- Node11 -->
<g id="node11" class="node">
<title>Node11</title>
<g id="a_node11"><a xlink:href="class_c_p_s_1_1_sim_power_comp.html" target="_top" xlink:title="Base class for all components that are transmitting power.">
<polygon fill="none" stroke="black" points="1134,-309 1134,-339 1253,-339 1253,-309 1134,-309"/>
<text text-anchor="start" x="1142" y="-327" font-family="Helvetica,sans-Serif" font-size="10.00">CPS::SimPowerComp&lt;</text>
<text text-anchor="middle" x="1193.5" y="-316" font-family="Helvetica,sans-Serif" font-size="10.00"> VarType &gt;</text>
</a>
</g>
</g>
<!-- Node4&#45;&gt;Node11 -->
<g id="edge12" class="edge">
<title>Node4&#45;&gt;Node11</title>
<path fill="none" stroke="midnightblue" d="M1014.5,-287.56C1050.62,-294.96 1097.38,-304.53 1133.9,-312.01"/>
<polygon fill="midnightblue" stroke="midnightblue" points="1015.11,-284.12 1004.61,-285.54 1013.71,-290.97 1015.11,-284.12"/>
</g>
<!-- Node5 -->
<g id="node5" class="node">
<title>Node5</title>
<g id="a_node5"><a xlink:href="class_c_p_s_1_1_identified_object.html" target="_top" xlink:title=" ">
<polygon fill="none" stroke="black" points="666,-263.5 666,-282.5 782,-282.5 782,-263.5 666,-263.5"/>
<text text-anchor="middle" x="724" y="-270.5" font-family="Helvetica,sans-Serif" font-size="10.00">CPS::IdentifiedObject</text>
</a>
</g>
</g>
<!-- Node5&#45;&gt;Node4 -->
<g id="edge4" class="edge">
<title>Node5&#45;&gt;Node4</title>
<path fill="none" stroke="midnightblue" d="M792.34,-273.87C820.77,-274.24 853.94,-274.67 882.96,-275.05"/>
<polygon fill="midnightblue" stroke="midnightblue" points="792.15,-270.37 782.1,-273.74 792.05,-277.37 792.15,-270.37"/>
</g>
<!-- Node6 -->
<g id="node6" class="node">
<title>Node6</title>
<g id="a_node6"><a xlink:href="class_c_p_s_1_1_attribute.html" target="_top" xlink:title=" ">
<polygon fill="none" stroke="black" points="457,-262.5 457,-281.5 584,-281.5 584,-262.5 457,-262.5"/>
<text text-anchor="middle" x="520.5" y="-269.5" font-family="Helvetica,sans-Serif" font-size="10.00">CPS::Attribute&lt; String &gt;</text>
</a>
</g>
</g>
<!-- Node6&#45;&gt;Node5 -->
<g id="edge5" class="edge">
<title>Node6&#45;&gt;Node5</title>
<path fill="none" stroke="#9a32cd" stroke-dasharray="5,2" d="M594.43,-272.36C617.95,-272.48 643.66,-272.61 665.87,-272.72"/>
<polygon fill="#9a32cd" stroke="#9a32cd" points="594.17,-268.86 584.15,-272.31 594.13,-275.86 594.17,-268.86"/>
<text text-anchor="middle" x="628" y="-286" font-family="Helvetica,sans-Serif" font-size="10.00"> mName</text>
<text text-anchor="middle" x="628" y="-275" font-family="Helvetica,sans-Serif" font-size="10.00">mUID</text>
</g>
<!-- Node7 -->
<g id="node7" class="node">
<title>Node7</title>
<g id="a_node7"><a xlink:href="class_c_p_s_1_1_attribute_base.html" target="_top" xlink:title=" ">
<polygon fill="none" stroke="black" points="5.5,-220.5 5.5,-239.5 110.5,-239.5 110.5,-220.5 5.5,-220.5"/>
<text text-anchor="middle" x="58" y="-227.5" font-family="Helvetica,sans-Serif" font-size="10.00">CPS::AttributeBase</text>
</a>
</g>
</g>
<!-- Node7&#45;&gt;Node6 -->
<g id="edge6" class="edge">
<title>Node7&#45;&gt;Node6</title>
<path fill="none" stroke="midnightblue" d="M112.34,-218.57C186.02,-204.98 322.38,-187.81 433,-219 463,-227.46 492.87,-249.56 508.44,-262.39"/>
<polygon fill="midnightblue" stroke="midnightblue" points="111.54,-215.16 102.37,-220.46 112.85,-222.04 111.54,-215.16"/>
</g>
<!-- Node9 -->
<g id="node9" class="node">
<title>Node9</title>
<g id="a_node9"><a xlink:href="class_c_p_s_1_1_attribute.html" target="_top" xlink:title=" ">
<polygon fill="none" stroke="black" points="172,-247.5 172,-266.5 276,-266.5 276,-247.5 172,-247.5"/>
<text text-anchor="middle" x="224" y="-254.5" font-family="Helvetica,sans-Serif" font-size="10.00">CPS::Attribute&lt; T &gt;</text>
</a>
</g>
</g>
<!-- Node7&#45;&gt;Node9 -->
<g id="edge9" class="edge">
<title>Node7&#45;&gt;Node9</title>
<path fill="none" stroke="midnightblue" d="M121.11,-240.23C137.81,-242.98 155.69,-245.92 171.73,-248.56"/>
<polygon fill="midnightblue" stroke="midnightblue" points="121.33,-236.71 110.89,-238.54 120.19,-243.62 121.33,-236.71"/>
</g>
<!-- Node12 -->
<g id="node12" class="node">
<title>Node12</title>
<g id="a_node12"><a xlink:href="class_c_p_s_1_1_attribute.html" target="_top" xlink:title=" ">
<polygon fill="none" stroke="black" points="452,-339 452,-369 589,-369 589,-339 452,-339"/>
<text text-anchor="start" x="460" y="-357" font-family="Helvetica,sans-Serif" font-size="10.00">CPS::Attribute&lt; MatrixVar</text>
<text text-anchor="middle" x="520.5" y="-346" font-family="Helvetica,sans-Serif" font-size="10.00">&lt; VarType &gt; &gt;</text>
</a>
</g>
</g>
<!-- Node7&#45;&gt;Node12 -->
<g id="edge14" class="edge">
<title>Node7&#45;&gt;Node12</title>
<path fill="none" stroke="midnightblue" d="M63.48,-249.67C72.93,-286 98.64,-362.93 153,-396 259.34,-460.69 312.5,-433.19 433,-402 457.61,-395.63 482.67,-380.58 499.44,-369.02"/>
<polygon fill="midnightblue" stroke="midnightblue" points="66.84,-248.67 61.06,-239.79 60.04,-250.34 66.84,-248.67"/>
</g>
<!-- Node15 -->
<g id="node15" class="node">
<title>Node15</title>
<g id="a_node15"><a xlink:href="class_c_p_s_1_1_attribute.html" target="_top" xlink:title=" ">
<polygon fill="none" stroke="black" points="456,-439.5 456,-458.5 585,-458.5 585,-439.5 456,-439.5"/>
<text text-anchor="middle" x="520.5" y="-446.5" font-family="Helvetica,sans-Serif" font-size="10.00">CPS::Attribute&lt; Matrix &gt;</text>
</a>
</g>
</g>
<!-- Node7&#45;&gt;Node15 -->
<g id="edge19" class="edge">
<title>Node7&#45;&gt;Node15</title>
<path fill="none" stroke="midnightblue" d="M61.38,-250C67.6,-292.13 88.61,-389.39 153,-429 202.05,-459.17 364.54,-456.71 455.83,-452.65"/>
<polygon fill="midnightblue" stroke="midnightblue" points="64.82,-249.33 60.02,-239.89 57.88,-250.27 64.82,-249.33"/>
</g>
<!-- Node21 -->
<g id="node21" class="node">
<title>Node21</title>
<g id="a_node21"><a xlink:href="class_c_p_s_1_1_attribute.html" target="_top" xlink:title=" ">
<polygon fill="none" stroke="black" points="461,-60.5 461,-79.5 580,-79.5 580,-60.5 461,-60.5"/>
<text text-anchor="middle" x="520.5" y="-67.5" font-family="Helvetica,sans-Serif" font-size="10.00">CPS::Attribute&lt; Real &gt;</text>
</a>
</g>
</g>
<!-- Node7&#45;&gt;Node21 -->
<g id="edge30" class="edge">
<title>Node7&#45;&gt;Node21</title>
<path fill="none" stroke="midnightblue" d="M66.19,-211.16C78.72,-181.24 107.64,-123.62 153,-98 204.12,-69.13 371.09,-67.3 460.97,-68.55"/>
<polygon fill="midnightblue" stroke="midnightblue" points="62.92,-209.91 62.44,-220.49 69.42,-212.52 62.92,-209.91"/>
</g>
<!-- Node23 -->
<g id="node23" class="node">
<title>Node23</title>
<g id="a_node23"><a xlink:href="class_c_p_s_1_1_attribute.html" target="_top" xlink:title=" ">
<polygon fill="none" stroke="black" points="451,-136.5 451,-155.5 590,-155.5 590,-136.5 451,-136.5"/>
<text text-anchor="middle" x="520.5" y="-143.5" font-family="Helvetica,sans-Serif" font-size="10.00">CPS::Attribute&lt; Complex &gt;</text>
</a>
</g>
</g>
<!-- Node7&#45;&gt;Node23 -->
<g id="edge34" class="edge">
<title>Node7&#45;&gt;Node23</title>
<path fill="none" stroke="midnightblue" d="M69.24,-211.39C84.02,-186.7 113.89,-144.25 153,-127 269.88,-75.43 428.49,-116.3 491.77,-136.44"/>
<polygon fill="midnightblue" stroke="midnightblue" points="66.13,-209.77 64.17,-220.18 72.2,-213.26 66.13,-209.77"/>
</g>
<!-- Node8 -->
<g id="node8" class="node">
<title>Node8</title>
<g id="a_node8"><a xlink:title=" ">
<polygon fill="none" stroke="#bfbfbf" points="166,-285.5 166,-326.5 282,-326.5 282,-285.5 166,-285.5"/>
<text text-anchor="start" x="174" y="-314.5" font-family="Helvetica,sans-Serif" font-size="10.00">std::enable_shared</text>
<text text-anchor="start" x="174" y="-303.5" font-family="Helvetica,sans-Serif" font-size="10.00">_from_this&lt; Attribute</text>
<text text-anchor="middle" x="224" y="-292.5" font-family="Helvetica,sans-Serif" font-size="10.00">&lt; String &gt; &gt;</text>
</a>
</g>
</g>
<!-- Node8&#45;&gt;Node6 -->
<g id="edge7" class="edge">
<title>Node8&#45;&gt;Node6</title>
<path fill="none" stroke="midnightblue" d="M292.29,-319.96C333.49,-326.04 386.96,-329.48 433,-318 461.22,-310.96 490.34,-292.8 506.56,-281.52"/>
<polygon fill="midnightblue" stroke="midnightblue" points="292.78,-316.5 282.36,-318.41 291.7,-323.41 292.78,-316.5"/>
</g>
<!-- Node9&#45;&gt;Node6 -->
<g id="edge8" class="edge">
<title>Node9&#45;&gt;Node6</title>
<path fill="none" stroke="orange" stroke-dasharray="5,2" d="M286.32,-260.12C336.25,-262.67 406.46,-266.24 456.77,-268.8"/>
<polygon fill="orange" stroke="orange" points="286.46,-256.63 276.3,-259.61 286.11,-263.62 286.46,-256.63"/>
<text text-anchor="middle" x="373" y="-270" font-family="Helvetica,sans-Serif" font-size="10.00"> &lt; String &gt;</text>
</g>
<!-- Node9&#45;&gt;Node12 -->
<g id="edge16" class="edge">
<title>Node9&#45;&gt;Node12</title>
<path fill="none" stroke="orange" stroke-dasharray="5,2" d="M271.87,-269.24C279.62,-271.4 287.56,-273.7 295,-276 303.97,-278.77 413.65,-317.03 476.32,-338.91"/>
<polygon fill="orange" stroke="orange" points="272.76,-265.85 262.19,-266.58 270.91,-272.6 272.76,-265.85"/>
<text text-anchor="middle" x="373" y="-326" font-family="Helvetica,sans-Serif" font-size="10.00"> &lt; MatrixVar&lt; VarType &gt; &gt;</text>
</g>
<!-- Node9&#45;&gt;Node15 -->
<g id="edge21" class="edge">
<title>Node9&#45;&gt;Node15</title>
<path fill="none" stroke="orange" stroke-dasharray="5,2" d="M285.3,-268.65C288.82,-270.72 292.1,-273.15 295,-276 315.47,-296.11 294.96,-315.69 313,-338 357.92,-393.54 438.3,-425.1 484.41,-439.45"/>
<polygon fill="orange" stroke="orange" points="286.67,-265.42 276.15,-264.19 283.6,-271.71 286.67,-265.42"/>
<text text-anchor="middle" x="373" y="-422" font-family="Helvetica,sans-Serif" font-size="10.00"> &lt; Matrix &gt;</text>
</g>
<!-- Node9&#45;&gt;Node21 -->
<g id="edge32" class="edge">
<title>Node9&#45;&gt;Node21</title>
<path fill="none" stroke="orange" stroke-dasharray="5,2" d="M242.11,-239.57C259.13,-222.81 286.46,-197.37 313,-179 376,-135.39 458.53,-96.76 497.42,-79.53"/>
<polygon fill="orange" stroke="orange" points="239.24,-237.49 234.64,-247.03 244.19,-242.45 239.24,-237.49"/>
<text text-anchor="middle" x="373" y="-182" font-family="Helvetica,sans-Serif" font-size="10.00"> &lt; Real &gt;</text>
</g>
<!-- Node9&#45;&gt;Node23 -->
<g id="edge36" class="edge">
<title>Node9&#45;&gt;Node23</title>
<path fill="none" stroke="orange" stroke-dasharray="5,2" d="M275.27,-244.98C318.06,-234 380.73,-216.12 433,-194 459.26,-182.89 487.83,-166 504.68,-155.51"/>
<polygon fill="orange" stroke="orange" points="274.21,-241.64 265.37,-247.49 275.93,-248.43 274.21,-241.64"/>
<text text-anchor="middle" x="373" y="-236" font-family="Helvetica,sans-Serif" font-size="10.00"> &lt; Complex &gt;</text>
</g>
<!-- Node10 -->
<g id="node10" class="node">
<title>Node10</title>
<g id="a_node10"><a xlink:title=" ">
<polygon fill="none" stroke="#bfbfbf" points="0,-457.5 0,-498.5 116,-498.5 116,-457.5 0,-457.5"/>
<text text-anchor="start" x="8" y="-486.5" font-family="Helvetica,sans-Serif" font-size="10.00">std::enable_shared</text>
<text text-anchor="start" x="8" y="-475.5" font-family="Helvetica,sans-Serif" font-size="10.00">_from_this&lt; Attribute</text>
<text text-anchor="middle" x="58" y="-464.5" font-family="Helvetica,sans-Serif" font-size="10.00">&lt; T &gt; &gt;</text>
</a>
</g>
</g>
<!-- Node10&#45;&gt;Node9 -->
<g id="edge10" class="edge">
<title>Node10&#45;&gt;Node9</title>
<path fill="none" stroke="midnightblue" d="M64.77,-447.41C74.77,-402.98 99.6,-320.99 153,-276 158.49,-271.38 165,-267.87 171.82,-265.21"/>
<polygon fill="midnightblue" stroke="midnightblue" points="61.32,-446.83 62.64,-457.34 68.16,-448.29 61.32,-446.83"/>
</g>
<!-- Node11&#45;&gt;Node3 -->
<g id="edge11" class="edge">
<title>Node11&#45;&gt;Node3</title>
<path fill="none" stroke="orange" stroke-dasharray="5,2" d="M1263.31,-310.83C1265.9,-310.52 1268.47,-310.24 1271,-310 1299.1,-307.35 1330.41,-306.84 1356.68,-307.09"/>
<polygon fill="orange" stroke="orange" points="1262.69,-307.38 1253.25,-312.18 1263.62,-314.32 1262.69,-307.38"/>
<text text-anchor="middle" x="1300.5" y="-313" font-family="Helvetica,sans-Serif" font-size="10.00"> &lt; Complex &gt;</text>
</g>
<!-- Node17 -->
<g id="node17" class="node">
<title>Node17</title>
<g id="a_node17"><a xlink:href="class_c_p_s_1_1_m_n_a_sim_power_comp.html" target="_top" xlink:title="Base class for all MNA components that are transmitting power.">
<polygon fill="none" stroke="black" points="1348,-389 1348,-419 1485,-419 1485,-389 1348,-389"/>
<text text-anchor="start" x="1356" y="-407" font-family="Helvetica,sans-Serif" font-size="10.00">CPS::MNASimPowerComp</text>
<text text-anchor="middle" x="1416.5" y="-396" font-family="Helvetica,sans-Serif" font-size="10.00">&lt; VarType &gt;</text>
</a>
</g>
</g>
<!-- Node11&#45;&gt;Node17 -->
<g id="edge23" class="edge">
<title>Node11&#45;&gt;Node17</title>
<path fill="none" stroke="midnightblue" d="M1245.64,-342.51C1284.53,-356.59 1337.38,-375.72 1373.74,-388.88"/>
<polygon fill="midnightblue" stroke="midnightblue" points="1246.66,-339.16 1236.07,-339.05 1244.28,-345.74 1246.66,-339.16"/>
</g>
<!-- Node12&#45;&gt;Node11 -->
<g id="edge13" class="edge">
<title>Node12&#45;&gt;Node11</title>
<path fill="none" stroke="#9a32cd" stroke-dasharray="5,2" d="M599.56,-350.51C735.55,-344.43 1012.97,-332.03 1133.92,-326.62"/>
<polygon fill="#9a32cd" stroke="#9a32cd" points="599.05,-347.03 589.22,-350.97 599.37,-354.02 599.05,-347.03"/>
<text text-anchor="middle" x="832.5" y="-355" font-family="Helvetica,sans-Serif" font-size="10.00"> mIntfCurrent</text>
<text text-anchor="middle" x="832.5" y="-344" font-family="Helvetica,sans-Serif" font-size="10.00">mIntfVoltage</text>
</g>
<!-- Node13 -->
<g id="node13" class="node">
<title>Node13</title>
<g id="a_node13"><a xlink:title=" ">
<polygon fill="none" stroke="#bfbfbf" points="153,-345.5 153,-386.5 295,-386.5 295,-345.5 153,-345.5"/>
<text text-anchor="start" x="161" y="-374.5" font-family="Helvetica,sans-Serif" font-size="10.00">std::enable_shared</text>
<text text-anchor="start" x="161" y="-363.5" font-family="Helvetica,sans-Serif" font-size="10.00">_from_this&lt; Attribute</text>
<text text-anchor="middle" x="224" y="-352.5" font-family="Helvetica,sans-Serif" font-size="10.00">&lt; MatrixVar&lt; VarType &gt; &gt; &gt;</text>
</a>
</g>
</g>
<!-- Node13&#45;&gt;Node12 -->
<g id="edge15" class="edge">
<title>Node13&#45;&gt;Node12</title>
<path fill="none" stroke="midnightblue" d="M305.39,-362.72C351.32,-360.85 408.28,-358.53 451.9,-356.75"/>
<polygon fill="midnightblue" stroke="midnightblue" points="305.02,-359.24 295.17,-363.14 305.3,-366.23 305.02,-359.24"/>
</g>
<!-- Node14 -->
<g id="node14" class="node">
<title>Node14</title>
<g id="a_node14"><a xlink:href="class_c_p_s_1_1_m_n_a_interface.html" target="_top" xlink:title="Interface to be implemented by all models used by the MNA solver.">
<polygon fill="none" stroke="black" points="1140,-360.5 1140,-379.5 1247,-379.5 1247,-360.5 1140,-360.5"/>
<text text-anchor="middle" x="1193.5" y="-367.5" font-family="Helvetica,sans-Serif" font-size="10.00">CPS::MNAInterface</text>
</a>
</g>
</g>
<!-- Node14&#45;&gt;Node2 -->
<g id="edge17" class="edge">
<title>Node14&#45;&gt;Node2</title>
<path fill="none" stroke="midnightblue" d="M1257.16,-368.73C1350.56,-366.85 1525.61,-363.31 1621.83,-361.37"/>
<polygon fill="midnightblue" stroke="midnightblue" points="1256.93,-365.24 1247.01,-368.94 1257.07,-372.24 1256.93,-365.24"/>
</g>
<!-- Node14&#45;&gt;Node17 -->
<g id="edge24" class="edge">
<title>Node14&#45;&gt;Node17</title>
<path fill="none" stroke="midnightblue" d="M1257.31,-379.66C1285.55,-384.01 1318.94,-389.15 1347.75,-393.58"/>
<polygon fill="midnightblue" stroke="midnightblue" points="1257.57,-376.16 1247.15,-378.1 1256.51,-383.08 1257.57,-376.16"/>
</g>
<!-- Node15&#45;&gt;Node2 -->
<g id="edge18" class="edge">
<title>Node15&#45;&gt;Node2</title>
<path fill="none" stroke="#9a32cd" stroke-dasharray="5,2" d="M595.03,-449C633.21,-449 680.61,-449 723,-449 723,-449 723,-449 1417.5,-449 1511.41,-449 1614.91,-400.49 1662.66,-375.1"/>
<polygon fill="#9a32cd" stroke="#9a32cd" points="595.03,-445.5 585.03,-449 595.03,-452.5 595.03,-445.5"/>
<text text-anchor="middle" x="1082.5" y="-452" font-family="Helvetica,sans-Serif" font-size="10.00"> mRightVector</text>
</g>
<!-- Node15&#45;&gt;Node17 -->
<g id="edge25" class="edge">
<title>Node15&#45;&gt;Node17</title>
<path fill="none" stroke="#9a32cd" stroke-dasharray="5,2" d="M561.25,-436.65C601.57,-425.22 666.01,-410 723,-410 723,-410 723,-410 1194.5,-410 1245.93,-410 1304.07,-408.36 1347.81,-406.79"/>
<polygon fill="#9a32cd" stroke="#9a32cd" points="560.16,-433.32 551.53,-439.46 562.11,-440.04 560.16,-433.32"/>
<text text-anchor="middle" x="957" y="-413" font-family="Helvetica,sans-Serif" font-size="10.00"> mRightVector</text>
</g>
<!-- Node16 -->
<g id="node16" class="node">
<title>Node16</title>
<g id="a_node16"><a xlink:title=" ">
<polygon fill="none" stroke="#bfbfbf" points="166,-481.5 166,-522.5 282,-522.5 282,-481.5 166,-481.5"/>
<text text-anchor="start" x="174" y="-510.5" font-family="Helvetica,sans-Serif" font-size="10.00">std::enable_shared</text>
<text text-anchor="start" x="174" y="-499.5" font-family="Helvetica,sans-Serif" font-size="10.00">_from_this&lt; Attribute</text>
<text text-anchor="middle" x="224" y="-488.5" font-family="Helvetica,sans-Serif" font-size="10.00">&lt; Matrix &gt; &gt;</text>
</a>
</g>
</g>
<!-- Node16&#45;&gt;Node15 -->
<g id="edge20" class="edge">
<title>Node16&#45;&gt;Node15</title>
<path fill="none" stroke="midnightblue" d="M292.14,-491.37C332.95,-484.75 386.06,-475.83 433,-467 446.72,-464.42 461.61,-461.4 475.12,-458.58"/>
<polygon fill="midnightblue" stroke="midnightblue" points="291.36,-487.96 282.05,-493.01 292.48,-494.87 291.36,-487.96"/>
</g>
<!-- Node17&#45;&gt;Node2 -->
<g id="edge22" class="edge">
<title>Node17&#45;&gt;Node2</title>
<path fill="none" stroke="orange" stroke-dasharray="5,2" d="M1495.06,-391.45C1535.04,-384.99 1583.33,-377.17 1621.79,-370.95"/>
<polygon fill="orange" stroke="orange" points="1494.4,-388.02 1485.09,-393.07 1495.52,-394.93 1494.4,-388.02"/>
<text text-anchor="middle" x="1546" y="-392" font-family="Helvetica,sans-Serif" font-size="10.00"> &lt; Complex &gt;</text>
</g>
<!-- Node18 -->
<g id="node18" class="node">
<title>Node18</title>
<g id="a_node18"><a xlink:href="class_c_p_s_1_1_d_a_e_interface.html" target="_top" xlink:title=" ">
<polygon fill="none" stroke="black" points="1639.5,-174.5 1639.5,-193.5 1741.5,-193.5 1741.5,-174.5 1639.5,-174.5"/>
<text text-anchor="middle" x="1690.5" y="-181.5" font-family="Helvetica,sans-Serif" font-size="10.00">CPS::DAEInterface</text>
</a>
</g>
</g>
<!-- Node18&#45;&gt;Node1 -->
<g id="edge26" class="edge">
<title>Node18&#45;&gt;Node1</title>
<path fill="none" stroke="midnightblue" d="M1749.95,-172.46C1777.41,-167.04 1809.74,-160.66 1835.77,-155.52"/>
<polygon fill="midnightblue" stroke="midnightblue" points="1749.21,-169.04 1740.08,-174.41 1750.56,-175.91 1749.21,-169.04"/>
</g>
<!-- Node19 -->
<g id="node19" class="node">
<title>Node19</title>
<g id="a_node19"><a xlink:href="class_shared_factory.html" target="_top" xlink:title=" ">
<polygon fill="none" stroke="black" points="1607,-98.5 1607,-117.5 1774,-117.5 1774,-98.5 1607,-98.5"/>
<text text-anchor="middle" x="1690.5" y="-105.5" font-family="Helvetica,sans-Serif" font-size="10.00">SharedFactory&lt; VoltageSource &gt;</text>
</a>
</g>
</g>
<!-- Node19&#45;&gt;Node1 -->
<g id="edge27" class="edge">
<title>Node19&#45;&gt;Node1</title>
<path fill="none" stroke="midnightblue" d="M1749.95,-119.54C1777.41,-124.96 1809.74,-131.34 1835.77,-136.48"/>
<polygon fill="midnightblue" stroke="midnightblue" points="1750.56,-116.09 1740.08,-117.59 1749.21,-122.96 1750.56,-116.09"/>
</g>
<!-- Node20 -->
<g id="node20" class="node">
<title>Node20</title>
<g id="a_node20"><a xlink:href="class_shared_factory.html" target="_top" xlink:title=" ">
<polygon fill="none" stroke="black" points="1364,-98.5 1364,-117.5 1469,-117.5 1469,-98.5 1364,-98.5"/>
<text text-anchor="middle" x="1416.5" y="-105.5" font-family="Helvetica,sans-Serif" font-size="10.00">SharedFactory&lt; T &gt;</text>
</a>
</g>
</g>
<!-- Node20&#45;&gt;Node19 -->
<g id="edge28" class="edge">
<title>Node20&#45;&gt;Node19</title>
<path fill="none" stroke="orange" stroke-dasharray="5,2" d="M1479.63,-108C1517.35,-108 1565.94,-108 1606.87,-108"/>
<polygon fill="orange" stroke="orange" points="1479.3,-104.5 1469.3,-108 1479.3,-111.5 1479.3,-104.5"/>
<text text-anchor="middle" x="1546" y="-111" font-family="Helvetica,sans-Serif" font-size="10.00"> &lt; VoltageSource &gt;</text>
</g>
<!-- Node21&#45;&gt;Node1 -->
<g id="edge29" class="edge">
<title>Node21&#45;&gt;Node1</title>
<path fill="none" stroke="#9a32cd" stroke-dasharray="5,2" d="M590.31,-70C629.25,-70 678.84,-70 723,-70 723,-70 723,-70 1691.5,-70 1763,-70 1839.66,-115.92 1870.25,-136.37"/>
<polygon fill="#9a32cd" stroke="#9a32cd" points="590.13,-66.5 580.13,-70 590.13,-73.5 590.13,-66.5"/>
<text text-anchor="middle" x="1193.5" y="-73" font-family="Helvetica,sans-Serif" font-size="10.00"> mSrcFreq</text>
</g>
<!-- Node22 -->
<g id="node22" class="node">
<title>Node22</title>
<g id="a_node22"><a xlink:title=" ">
<polygon fill="none" stroke="#bfbfbf" points="166,-0.5 166,-41.5 282,-41.5 282,-0.5 166,-0.5"/>
<text text-anchor="start" x="174" y="-29.5" font-family="Helvetica,sans-Serif" font-size="10.00">std::enable_shared</text>
<text text-anchor="start" x="174" y="-18.5" font-family="Helvetica,sans-Serif" font-size="10.00">_from_this&lt; Attribute</text>
<text text-anchor="middle" x="224" y="-7.5" font-family="Helvetica,sans-Serif" font-size="10.00">&lt; Real &gt; &gt;</text>
</a>
</g>
</g>
<!-- Node22&#45;&gt;Node21 -->
<g id="edge31" class="edge">
<title>Node22&#45;&gt;Node21</title>
<path fill="none" stroke="midnightblue" d="M292.14,-32.17C343.5,-40.72 413.56,-52.37 462.28,-60.48"/>
<polygon fill="midnightblue" stroke="midnightblue" points="292.57,-28.69 282.13,-30.51 291.42,-35.6 292.57,-28.69"/>
</g>
<!-- Node23&#45;&gt;Node1 -->
<g id="edge33" class="edge">
<title>Node23&#45;&gt;Node1</title>
<path fill="none" stroke="#9a32cd" stroke-dasharray="5,2" d="M600.33,-146C637.53,-146 682.55,-146 723,-146 723,-146 723,-146 1691.5,-146 1730.94,-146 1774.92,-146 1810.87,-146"/>
<polygon fill="#9a32cd" stroke="#9a32cd" points="600.05,-142.5 590.05,-146 600.05,-149.5 600.05,-142.5"/>
<text text-anchor="middle" x="1193.5" y="-149" font-family="Helvetica,sans-Serif" font-size="10.00"> mVoltageRef</text>
</g>
<!-- Node24 -->
<g id="node24" class="node">
<title>Node24</title>
<g id="a_node24"><a xlink:title=" ">
<polygon fill="none" stroke="#bfbfbf" points="166,-136.5 166,-177.5 282,-177.5 282,-136.5 166,-136.5"/>
<text text-anchor="start" x="174" y="-165.5" font-family="Helvetica,sans-Serif" font-size="10.00">std::enable_shared</text>
<text text-anchor="start" x="174" y="-154.5" font-family="Helvetica,sans-Serif" font-size="10.00">_from_this&lt; Attribute</text>
<text text-anchor="middle" x="224" y="-143.5" font-family="Helvetica,sans-Serif" font-size="10.00">&lt; Complex &gt; &gt;</text>
</a>
</g>
</g>
<!-- Node24&#45;&gt;Node23 -->
<g id="edge35" class="edge">
<title>Node24&#45;&gt;Node23</title>
<path fill="none" stroke="midnightblue" d="M292.31,-154.49C339.77,-152.71 403.13,-150.35 450.88,-148.56"/>
<polygon fill="midnightblue" stroke="midnightblue" points="291.99,-151 282.13,-154.87 292.26,-157.99 291.99,-151"/>
</g>
</g>
</svg>
        <g id="navigator" transform="translate(0 0)" fill="#404254">
                <rect fill="#f2f5e9" fill-opacity="0.5" stroke="#606060" stroke-width=".5" x="0" y="0" width="60" height="60"/>
                <use id="zoomplus" xlink:href="#zoomPlus" x="17" y="9" onmousedown="handleZoom(evt,'in')"/>
                <use id="zoomminus" xlink:href="#zoomMin" x="42" y="9" onmousedown="handleZoom(evt,'out')"/>
                <use id="reset" xlink:href="#resetDef" x="30" y="36" onmousedown="handleReset()"/>
                <g id="arrowUp" xlink:href="#dirArrow" transform="translate(30 24)" onmousedown="handlePan(0,-1)">
                  <use xlink:href="#rim" fill="#404040">
                        <set attributeName="fill" to="#808080" begin="arrowUp.mouseover" end="arrowUp.mouseout"/>
                  </use>
                  <path fill="none" stroke="white" stroke-width="1.5" d="M0,-3.0v7 M-2.5,-0.5L0,-3.0L2.5,-0.5"/>
                </g>
                <g id="arrowRight" xlink:href="#dirArrow" transform="rotate(90) translate(36 -43)" onmousedown="handlePan(1,0)">
                  <use xlink:href="#rim" fill="#404040">
                        <set attributeName="fill" to="#808080" begin="arrowRight.mouseover" end="arrowRight.mouseout"/>
                  </use>
                  <path fill="none" stroke="white" stroke-width="1.5" d="M0,-3.0v7 M-2.5,-0.5L0,-3.0L2.5,-0.5"/>
                </g>
                <g id="arrowDown" xlink:href="#dirArrow" transform="rotate(180) translate(-30 -48)" onmousedown="handlePan(0,1)">
                  <use xlink:href="#rim" fill="#404040">
                        <set attributeName="fill" to="#808080" begin="arrowDown.mouseover" end="arrowDown.mouseout"/>
                  </use>
                  <path fill="none" stroke="white" stroke-width="1.5" d="M0,-3.0v7 M-2.5,-0.5L0,-3.0L2.5,-0.5"/>
                </g>
                <g id="arrowLeft" xlink:href="#dirArrow" transform="rotate(270) translate(-36 17)" onmousedown="handlePan(-1,0)">
                  <use xlink:href="#rim" fill="#404040">
                        <set attributeName="fill" to="#808080" begin="arrowLeft.mouseover" end="arrowLeft.mouseout"/>
                  </use>
                  <path fill="none" stroke="white" stroke-width="1.5" d="M0,-3.0v7 M-2.5,-0.5L0,-3.0L2.5,-0.5"/>
                </g>
        </g>
        <svg viewBox="0 0 15 15" width="100%" height="30px" preserveAspectRatio="xMaxYMin meet">
         <g id="arrow_out" transform="scale(0.3 0.3)">
          <a xlink:href="class_c_p_s_1_1_s_p_1_1_ph1_1_1_voltage_source__coll__graph_org.svg" target="_base">
           <rect id="button" ry="5" rx="5" y="6" x="6" height="38" width="38"
                fill="#f2f5e9" fill-opacity="0.5" stroke="#606060" stroke-width="1.0"/>
           <path id="arrow"
             d="M 11.500037,31.436501 C 11.940474,20.09759 22.043105,11.32322 32.158766,21.979434 L 37.068811,17.246167 C 37.068811,17.246167 37.088388,32 37.088388,32 L 22.160133,31.978069 C 22.160133,31.978069 26.997745,27.140456 26.997745,27.140456 C 18.528582,18.264221 13.291696,25.230495 11.500037,31.436501 z"
             style="fill:#404040;"/>
          </a>
         </g>
        </svg>
</svg>
