<?xml version="1.0" encoding="UTF-8" standalone="no"?>
<!DOCTYPE svg PUBLIC "-//W3C//DTD SVG 1.1//EN"
 "http://www.w3.org/Graphics/SVG/1.1/DTD/svg11.dtd">
<!-- Generated by graphviz version 2.44.0 (0)
 -->
<!-- Title: CPS::Signal::Exciter Pages: 1 -->
<!--zoomable 221 -->
<svg id="main" version="1.1" xmlns="http://www.w3.org/2000/svg" xmlns:xlink="http://www.w3.org/1999/xlink" xml:space="preserve" onload="init(evt)">
<style type="text/css"><![CDATA[
.edge:hover path { stroke: red; }
.edge:hover polygon { stroke: red; fill: red; }
]]></style>
<script type="text/javascript"><![CDATA[
var edges = document.getElementsByTagName('g');
if (edges && edges.length) {
  for (var i=0;i<edges.length;i++) {
    if (edges[i].id.substr(0,4)=='edge') {
      edges[i].setAttribute('class','edge');
    }
  }
}
]]></script>
        <defs>
                <circle id="rim" cx="0" cy="0" r="7"/>
                <circle id="rim2" cx="0" cy="0" r="3.5"/>
                <g id="zoomPlus">
                        <use xlink:href="#rim" fill="#404040">
                                <set attributeName="fill" to="#808080" begin="zoomplus.mouseover" end="zoomplus.mouseout"/>
                        </use>
                        <path d="M-4,0h8M0,-4v8" fill="none" stroke="white" stroke-width="1.5" pointer-events="none"/>
                </g>
                <g id="zoomMin">
                        <use xlink:href="#rim" fill="#404040">
                                <set attributeName="fill" to="#808080" begin="zoomminus.mouseover" end="zoomminus.mouseout"/>
                        </use>
                        <path d="M-4,0h8" fill="none" stroke="white" stroke-width="1.5" pointer-events="none"/>
                </g>
                <g id="dirArrow">
                        <path fill="none" stroke="white" stroke-width="1.5" d="M0,-3.0v7 M-2.5,-0.5L0,-3.0L2.5,-0.5"/>
                </g>
               <g id="resetDef">
                       <use xlink:href="#rim2" fill="#404040">
                               <set attributeName="fill" to="#808080" begin="reset.mouseover" end="reset.mouseout"/>
                       </use>
               </g>
        </defs>

<script type="text/javascript">
var viewWidth = 1198;
var viewHeight = 221;
var sectionId = 'dynsection-1';
</script>
<script xlink:href="svgpan.js"/>
<svg id="graph" class="graph">
<g id="viewport">
<title>CPS::Signal::Exciter</title>
<!-- Node1 -->
<g id="node1" class="node">
<title>Node1</title>
<g id="a_node1"><a xlink:title="Exciter model.">
<polygon fill="#bfbfbf" stroke="black" points="1083,-97.43 1083,-116.43 1190,-116.43 1190,-97.43 1083,-97.43"/>
<text text-anchor="middle" x="1136.5" y="-104.43" font-family="Helvetica" font-size="10.00">CPS::Signal::Exciter</text>
</a>
</g>
</g>
<!-- Node2 -->
<g id="node2" class="node">
<title>Node2</title>
<g id="a_node2"><a xlink:href="class_c_p_s_1_1_sim_signal_comp.html" target="_top" xlink:title=" ">
<polygon fill="none" stroke="black" points="924.5,-135.43 924.5,-154.43 1038.5,-154.43 1038.5,-135.43 924.5,-135.43"/>
<text text-anchor="middle" x="981.5" y="-142.43" font-family="Helvetica" font-size="10.00">CPS::SimSignalComp</text>
</a>
</g>
</g>
<!-- Node2&#45;&gt;Node1 -->
<g id="edge1" class="edge">
<title>Node2&#45;&gt;Node1</title>
<path fill="none" stroke="midnightblue" d="M1030.98,-132.89C1052.35,-127.58 1077.11,-121.43 1097.17,-116.45"/>
<polygon fill="midnightblue" stroke="midnightblue" points="1029.97,-129.53 1021.11,-135.34 1031.66,-136.32 1029.97,-129.53"/>
</g>
<!-- Node3 -->
<g id="node3" class="node">
<title>Node3</title>
<g id="a_node3"><a xlink:href="class_c_p_s_1_1_topological_signal_comp.html" target="_top" xlink:title=" ">
<polygon fill="none" stroke="black" points="683,-135.43 683,-154.43 829,-154.43 829,-135.43 683,-135.43"/>
<text text-anchor="middle" x="756" y="-142.43" font-family="Helvetica" font-size="10.00">CPS::TopologicalSignalComp</text>
</a>
</g>
</g>
<!-- Node3&#45;&gt;Node2 -->
<g id="edge2" class="edge">
<title>Node3&#45;&gt;Node2</title>
<path fill="none" stroke="midnightblue" d="M839.53,-144.93C867.8,-144.93 898.75,-144.93 924.43,-144.93"/>
<polygon fill="midnightblue" stroke="midnightblue" points="839.26,-141.43 829.26,-144.93 839.26,-148.43 839.26,-141.43"/>
</g>
<!-- Node4 -->
<g id="node4" class="node">
<title>Node4</title>
<g id="a_node4"><a xlink:href="class_c_p_s_1_1_identified_object.html" target="_top" xlink:title=" ">
<polygon fill="none" stroke="black" points="534,-134.43 534,-153.43 646,-153.43 646,-134.43 534,-134.43"/>
<text text-anchor="middle" x="590" y="-141.43" font-family="Helvetica" font-size="10.00">CPS::IdentifiedObject</text>
</a>
</g>
</g>
<!-- Node4&#45;&gt;Node3 -->
<g id="edge3" class="edge">
<title>Node4&#45;&gt;Node3</title>
<path fill="none" stroke="midnightblue" d="M656.21,-144.32C664.98,-144.38 674.02,-144.43 682.89,-144.49"/>
<polygon fill="midnightblue" stroke="midnightblue" points="656.09,-140.82 646.07,-144.26 656.04,-147.82 656.09,-140.82"/>
</g>
<!-- Node5 -->
<g id="node5" class="node">
<title>Node5</title>
<g id="a_node5"><a xlink:href="class_c_p_s_1_1_attribute_list.html" target="_top" xlink:title="Base class of objects having attributes to access member variables.">
<polygon fill="none" stroke="black" points="350,-96.43 350,-115.43 446,-115.43 446,-96.43 350,-96.43"/>
<text text-anchor="middle" x="398" y="-103.43" font-family="Helvetica" font-size="10.00">CPS::AttributeList</text>
</a>
</g>
</g>
<!-- Node5&#45;&gt;Node4 -->
<g id="edge4" class="edge">
<title>Node5&#45;&gt;Node4</title>
<path fill="none" stroke="midnightblue" d="M456.6,-117.45C483.75,-122.88 515.75,-129.28 541.49,-134.43"/>
<polygon fill="midnightblue" stroke="midnightblue" points="456.95,-113.95 446.45,-115.42 455.57,-120.81 456.95,-113.95"/>
</g>
<!-- Node6 -->
<g id="node6" class="node">
<title>Node6</title>
<g id="a_node6"><a xlink:href="class_c_p_s_1_1_attribute.html" target="_top" xlink:title=" ">
<polygon fill="none" stroke="black" points="336,-134.43 336,-153.43 460,-153.43 460,-134.43 336,-134.43"/>
<text text-anchor="middle" x="398" y="-141.43" font-family="Helvetica" font-size="10.00">CPS::Attribute&lt; String &gt;</text>
</a>
</g>
</g>
<!-- Node6&#45;&gt;Node4 -->
<g id="edge5" class="edge">
<title>Node6&#45;&gt;Node4</title>
<path fill="none" stroke="#9a32cd" stroke-dasharray="5,2" d="M470.31,-143.93C491.29,-143.93 513.92,-143.93 533.74,-143.93"/>
<polygon fill="#9a32cd" stroke="#9a32cd" points="470.16,-140.43 460.16,-143.93 470.16,-147.43 470.16,-140.43"/>
<text text-anchor="middle" x="497" y="-157.93" font-family="Helvetica" font-size="10.00"> mName</text>
<text text-anchor="middle" x="497" y="-146.93" font-family="Helvetica" font-size="10.00">mUID</text>
</g>
<!-- Node7 -->
<g id="node7" class="node">
<title>Node7</title>
<g id="a_node7"><a xlink:href="class_c_p_s_1_1_attribute_base.html" target="_top" xlink:title=" ">
<polygon fill="none" stroke="black" points="2.5,-114.43 2.5,-133.43 105.5,-133.43 105.5,-114.43 2.5,-114.43"/>
<text text-anchor="middle" x="54" y="-121.43" font-family="Helvetica" font-size="10.00">CPS::AttributeBase</text>
</a>
</g>
</g>
<!-- Node7&#45;&gt;Node6 -->
<g id="edge6" class="edge">
<title>Node7&#45;&gt;Node6</title>
<path fill="none" stroke="midnightblue" d="M115.87,-127.49C177.9,-131.11 273.59,-136.71 335.76,-140.35"/>
<polygon fill="midnightblue" stroke="midnightblue" points="116.02,-123.99 105.83,-126.9 115.61,-130.98 116.02,-123.99"/>
</g>
<!-- Node9 -->
<g id="node9" class="node">
<title>Node9</title>
<g id="a_node9"><a xlink:href="class_c_p_s_1_1_attribute.html" target="_top" xlink:title=" ">
<polygon fill="none" stroke="black" points="147,-94.43 147,-113.43 251,-113.43 251,-94.43 147,-94.43"/>
<text text-anchor="middle" x="199" y="-101.43" font-family="Helvetica" font-size="10.00">CPS::Attribute&lt; T &gt;</text>
</a>
</g>
</g>
<!-- Node7&#45;&gt;Node9 -->
<g id="edge9" class="edge">
<title>Node7&#45;&gt;Node9</title>
<path fill="none" stroke="midnightblue" d="M115.98,-115.4C126.27,-113.96 136.86,-112.48 146.86,-111.08"/>
<polygon fill="midnightblue" stroke="midnightblue" points="115.24,-111.97 105.82,-116.82 116.21,-118.9 115.24,-111.97"/>
</g>
<!-- Node13 -->
<g id="node13" class="node">
<title>Node13</title>
<g id="a_node13"><a xlink:href="class_c_p_s_1_1_attribute.html" target="_top" xlink:title=" ">
<polygon fill="none" stroke="black" points="339,-39.43 339,-58.43 457,-58.43 457,-39.43 339,-39.43"/>
<text text-anchor="middle" x="398" y="-46.43" font-family="Helvetica" font-size="10.00">CPS::Attribute&lt; Real &gt;</text>
</a>
</g>
</g>
<!-- Node7&#45;&gt;Node13 -->
<g id="edge14" class="edge">
<title>Node7&#45;&gt;Node13</title>
<path fill="none" stroke="midnightblue" d="M102.56,-109.25C104.48,-107.93 106.31,-106.49 108,-104.93 137.61,-77.46 111.12,-43.92 145,-21.93 219.55,26.46 333.35,-18.32 378.04,-39.37"/>
<polygon fill="midnightblue" stroke="midnightblue" points="100.58,-106.35 93.61,-114.33 104.04,-112.44 100.58,-106.35"/>
</g>
<!-- Node8 -->
<g id="node8" class="node">
<title>Node8</title>
<g id="a_node8"><a xlink:title=" ">
<polygon fill="none" stroke="#bfbfbf" points="145,-171.43 145,-212.43 253,-212.43 253,-171.43 145,-171.43"/>
<text text-anchor="start" x="153" y="-200.43" font-family="Helvetica" font-size="10.00">std::enable_shared</text>
<text text-anchor="start" x="153" y="-189.43" font-family="Helvetica" font-size="10.00">_from_this&lt; Attribute</text>
<text text-anchor="middle" x="199" y="-178.43" font-family="Helvetica" font-size="10.00">&lt; String &gt; &gt;</text>
</a>
</g>
</g>
<!-- Node8&#45;&gt;Node6 -->
<g id="edge7" class="edge">
<title>Node8&#45;&gt;Node6</title>
<path fill="none" stroke="midnightblue" d="M262.96,-176.59C294.15,-168.99 330.82,-160.05 357.92,-153.45"/>
<polygon fill="midnightblue" stroke="midnightblue" points="261.94,-173.23 253.05,-179 263.6,-180.03 261.94,-173.23"/>
</g>
<!-- Node9&#45;&gt;Node6 -->
<g id="edge8" class="edge">
<title>Node9&#45;&gt;Node6</title>
<path fill="none" stroke="orange" stroke-dasharray="5,2" d="M261.09,-108.21C279.55,-110.29 299.76,-113.38 318,-117.93 326.33,-120.01 327.9,-122.09 336,-124.93 345.32,-128.19 355.53,-131.48 364.89,-134.38"/>
<polygon fill="orange" stroke="orange" points="261.35,-104.71 251.04,-107.15 260.62,-111.68 261.35,-104.71"/>
<text text-anchor="middle" x="294.5" y="-120.93" font-family="Helvetica" font-size="10.00"> &lt; String &gt;</text>
</g>
<!-- Node9&#45;&gt;Node13 -->
<g id="edge16" class="edge">
<title>Node9&#45;&gt;Node13</title>
<path fill="none" stroke="orange" stroke-dasharray="5,2" d="M244.03,-91.63C279.9,-81.62 329.82,-67.68 362.75,-58.49"/>
<polygon fill="orange" stroke="orange" points="243.01,-88.29 234.31,-94.35 244.89,-95.03 243.01,-88.29"/>
<text text-anchor="middle" x="294.5" y="-85.93" font-family="Helvetica" font-size="10.00"> &lt; Real &gt;</text>
</g>
<!-- Node10 -->
<g id="node10" class="node">
<title>Node10</title>
<g id="a_node10"><a xlink:title=" ">
<polygon fill="none" stroke="#bfbfbf" points="0,-54.43 0,-95.43 108,-95.43 108,-54.43 0,-54.43"/>
<text text-anchor="start" x="8" y="-83.43" font-family="Helvetica" font-size="10.00">std::enable_shared</text>
<text text-anchor="start" x="8" y="-72.43" font-family="Helvetica" font-size="10.00">_from_this&lt; Attribute</text>
<text text-anchor="middle" x="54" y="-61.43" font-family="Helvetica" font-size="10.00">&lt; T &gt; &gt;</text>
</a>
</g>
</g>
<!-- Node10&#45;&gt;Node9 -->
<g id="edge10" class="edge">
<title>Node10&#45;&gt;Node9</title>
<path fill="none" stroke="midnightblue" d="M118.21,-87.75C129.17,-89.97 140.39,-92.24 150.83,-94.36"/>
<polygon fill="midnightblue" stroke="midnightblue" points="118.74,-84.28 108.25,-85.73 117.35,-91.14 118.74,-84.28"/>
</g>
<!-- Node11 -->
<g id="node11" class="node">
<title>Node11</title>
<g id="a_node11"><a xlink:href="class_shared_factory.html" target="_top" xlink:title=" ">
<polygon fill="none" stroke="black" points="917,-97.43 917,-116.43 1046,-116.43 1046,-97.43 917,-97.43"/>
<text text-anchor="middle" x="981.5" y="-104.43" font-family="Helvetica" font-size="10.00">SharedFactory&lt; Exciter &gt;</text>
</a>
</g>
</g>
<!-- Node11&#45;&gt;Node1 -->
<g id="edge11" class="edge">
<title>Node11&#45;&gt;Node1</title>
<path fill="none" stroke="midnightblue" d="M1056.1,-106.93C1065.04,-106.93 1074.03,-106.93 1082.58,-106.93"/>
<polygon fill="midnightblue" stroke="midnightblue" points="1056.06,-103.43 1046.06,-106.93 1056.06,-110.43 1056.06,-103.43"/>
</g>
<!-- Node12 -->
<g id="node12" class="node">
<title>Node12</title>
<g id="a_node12"><a xlink:href="class_shared_factory.html" target="_top" xlink:title=" ">
<polygon fill="none" stroke="black" points="703.5,-97.43 703.5,-116.43 808.5,-116.43 808.5,-97.43 703.5,-97.43"/>
<text text-anchor="middle" x="756" y="-104.43" font-family="Helvetica" font-size="10.00">SharedFactory&lt; T &gt;</text>
</a>
</g>
</g>
<!-- Node12&#45;&gt;Node11 -->
<g id="edge12" class="edge">
<title>Node12&#45;&gt;Node11</title>
<path fill="none" stroke="orange" stroke-dasharray="5,2" d="M818.65,-106.93C849.19,-106.93 886.02,-106.93 916.82,-106.93"/>
<polygon fill="orange" stroke="orange" points="818.56,-103.43 808.56,-106.93 818.56,-110.43 818.56,-103.43"/>
<text text-anchor="middle" x="873" y="-109.93" font-family="Helvetica" font-size="10.00"> &lt; Exciter &gt;</text>
</g>
<!-- Node13&#45;&gt;Node1 -->
<g id="edge13" class="edge">
<title>Node13&#45;&gt;Node1</title>
<path fill="none" stroke="#9a32cd" stroke-dasharray="5,2" d="M467.63,-47.32C503.74,-46.61 548.76,-45.93 589,-45.93 589,-45.93 589,-45.93 982.5,-45.93 1037.4,-45.93 1096.01,-80.24 1121.89,-97.4"/>
<polygon fill="#9a32cd" stroke="#9a32cd" points="467.13,-43.83 457.21,-47.53 467.27,-50.83 467.13,-43.83"/>
<text text-anchor="middle" x="756" y="-70.93" font-family="Helvetica" font-size="10.00"> mVf</text>
<text text-anchor="middle" x="756" y="-59.93" font-family="Helvetica" font-size="10.00">mVh</text>
<text text-anchor="middle" x="756" y="-48.93" font-family="Helvetica" font-size="10.00">mVr</text>
</g>
<!-- Node14 -->
<g id="node14" class="node">
<title>Node14</title>
<g id="a_node14"><a xlink:title=" ">
<polygon fill="none" stroke="#bfbfbf" points="145,-31.43 145,-72.43 253,-72.43 253,-31.43 145,-31.43"/>
<text text-anchor="start" x="153" y="-60.43" font-family="Helvetica" font-size="10.00">std::enable_shared</text>
<text text-anchor="start" x="153" y="-49.43" font-family="Helvetica" font-size="10.00">_from_this&lt; Attribute</text>
<text text-anchor="middle" x="199" y="-38.43" font-family="Helvetica" font-size="10.00">&lt; Real &gt; &gt;</text>
</a>
</g>
</g>
<!-- Node14&#45;&gt;Node13 -->
<g id="edge15" class="edge">
<title>Node14&#45;&gt;Node13</title>
<path fill="none" stroke="midnightblue" d="M263.21,-50.96C287.42,-50.6 314.92,-50.18 338.66,-49.82"/>
<polygon fill="midnightblue" stroke="midnightblue" points="263,-47.47 253.05,-51.12 263.1,-54.47 263,-47.47"/>
</g>
</g>
</svg>
        <g id="navigator" transform="translate(0 0)" fill="#404254">
                <rect fill="#f2f5e9" fill-opacity="0.5" stroke="#606060" stroke-width=".5" x="0" y="0" width="60" height="60"/>
                <use id="zoomplus" xlink:href="#zoomPlus" x="17" y="9" onmousedown="handleZoom(evt,'in')"/>
                <use id="zoomminus" xlink:href="#zoomMin" x="42" y="9" onmousedown="handleZoom(evt,'out')"/>
                <use id="reset" xlink:href="#resetDef" x="30" y="36" onmousedown="handleReset()"/>
                <g id="arrowUp" xlink:href="#dirArrow" transform="translate(30 24)" onmousedown="handlePan(0,-1)">
                  <use xlink:href="#rim" fill="#404040">
                        <set attributeName="fill" to="#808080" begin="arrowUp.mouseover" end="arrowUp.mouseout"/>
                  </use>
                  <path fill="none" stroke="white" stroke-width="1.5" d="M0,-3.0v7 M-2.5,-0.5L0,-3.0L2.5,-0.5"/>
                </g>
                <g id="arrowRight" xlink:href="#dirArrow" transform="rotate(90) translate(36 -43)" onmousedown="handlePan(1,0)">
                  <use xlink:href="#rim" fill="#404040">
                        <set attributeName="fill" to="#808080" begin="arrowRight.mouseover" end="arrowRight.mouseout"/>
                  </use>
                  <path fill="none" stroke="white" stroke-width="1.5" d="M0,-3.0v7 M-2.5,-0.5L0,-3.0L2.5,-0.5"/>
                </g>
                <g id="arrowDown" xlink:href="#dirArrow" transform="rotate(180) translate(-30 -48)" onmousedown="handlePan(0,1)">
                  <use xlink:href="#rim" fill="#404040">
                        <set attributeName="fill" to="#808080" begin="arrowDown.mouseover" end="arrowDown.mouseout"/>
                  </use>
                  <path fill="none" stroke="white" stroke-width="1.5" d="M0,-3.0v7 M-2.5,-0.5L0,-3.0L2.5,-0.5"/>
                </g>
                <g id="arrowLeft" xlink:href="#dirArrow" transform="rotate(270) translate(-36 17)" onmousedown="handlePan(-1,0)">
                  <use xlink:href="#rim" fill="#404040">
                        <set attributeName="fill" to="#808080" begin="arrowLeft.mouseover" end="arrowLeft.mouseout"/>
                  </use>
                  <path fill="none" stroke="white" stroke-width="1.5" d="M0,-3.0v7 M-2.5,-0.5L0,-3.0L2.5,-0.5"/>
                </g>
        </g>
        <svg viewBox="0 0 15 15" width="100%" height="30px" preserveAspectRatio="xMaxYMin meet">
         <g id="arrow_out" transform="scale(0.3 0.3)">
          <a xlink:href="class_c_p_s_1_1_signal_1_1_exciter__coll__graph_org.svg" target="_base">
           <rect id="button" ry="5" rx="5" y="6" x="6" height="38" width="38"
                fill="#f2f5e9" fill-opacity="0.5" stroke="#606060" stroke-width="1.0"/>
           <path id="arrow"
             d="M 11.500037,31.436501 C 11.940474,20.09759 22.043105,11.32322 32.158766,21.979434 L 37.068811,17.246167 C 37.068811,17.246167 37.088388,32 37.088388,32 L 22.160133,31.978069 C 22.160133,31.978069 26.997745,27.140456 26.997745,27.140456 C 18.528582,18.264221 13.291696,25.230495 11.500037,31.436501 z"
             style="fill:#404040;"/>
          </a>
         </g>
        </svg>
</svg>
