<?xml version="1.0" encoding="UTF-8" standalone="no"?>
<!DOCTYPE svg PUBLIC "-//W3C//DTD SVG 1.1//EN"
 "http://www.w3.org/Graphics/SVG/1.1/DTD/svg11.dtd">
<!-- Generated by graphviz version 12.2.1 (20241206.2353)
 -->
<!-- Title: CPS::TopologicalSignalComp Pages: 1 -->
<!--zoomable 806 -->

<svg id="main" version="1.1" xmlns="http://www.w3.org/2000/svg" xmlns:xlink="http://www.w3.org/1999/xlink" xml:space="preserve" onload="init(evt)">

<style type="text/css"><![CDATA[
.node, .edge {opacity: 0.7;}
.node.selected, .edge.selected {opacity: 1;}
.edge:hover path { stroke: red; }
.edge:hover polygon { stroke: red; fill: red; }
]]></style>

<defs>
  <circle id="rim" cx="0" cy="0" r="7"/>
  <circle id="rim2" cx="0" cy="0" r="3.5"/>
  <g id="zoomPlus">
    <use xlink:href="#rim" fill="#404040"><set attributeName="fill" to="#808080" begin="zoomplus.mouseover" end="zoomplus.mouseout"/></use>
    <path d="M-4,0h8M0,-4v8" fill="none" stroke="white" stroke-width="1.5" pointer-events="none"/>
  </g>
  <g id="zoomMin">
    <use xlink:href="#rim" fill="#404040"><set attributeName="fill" to="#808080" begin="zoomminus.mouseover" end="zoomminus.mouseout"/></use>
    <path d="M-4,0h8" fill="none" stroke="white" stroke-width="1.5" pointer-events="none"/>
  </g>
  <g id="arrowUp" transform="translate(30 24)">
    <use xlink:href="#rim"/>
    <path pointer-events="none" fill="none" stroke="white" stroke-width="1.5" d="M0,-3.0v7 M-2.5,-0.5L0,-3.0L2.5,-0.5"/>
  </g>
  <g id="arrowRight" transform="rotate(90) translate(36 -43)">
    <use xlink:href="#rim"/>
    <path pointer-events="none" fill="none" stroke="white" stroke-width="1.5" d="M0,-3.0v7 M-2.5,-0.5L0,-3.0L2.5,-0.5"/>
  </g>
  <g id="arrowDown" transform="rotate(180) translate(-30 -48)">
    <use xlink:href="#rim"/>
    <path pointer-events="none" fill="none" stroke="white" stroke-width="1.5" d="M0,-3.0v7 M-2.5,-0.5L0,-3.0L2.5,-0.5"/>
  </g>
  <g id="arrowLeft" transform="rotate(270) translate(-36 17)">
    <use xlink:href="#rim"/>
    <path pointer-events="none" fill="none" stroke="white" stroke-width="1.5" d="M0,-3.0v7 M-2.5,-0.5L0,-3.0L2.5,-0.5"/>
  </g>
  <g id="resetDef">
    <use xlink:href="#rim2" fill="#404040"><set attributeName="fill" to="#808080" begin="reset.mouseover" end="reset.mouseout"/></use>
  </g>
</defs>
<script type="application/ecmascript">
var viewWidth = 851;
var viewHeight = 806;
var sectionId = 'dynsection-0';
</script>
<script type="application/ecmascript" xlink:href="svg.min.js"/>
<svg id="graph" class="graph">
<g id="viewport">
<title>CPS::TopologicalSignalComp</title>
<!-- Node1 -->
<g id="Node000001" class="node">
<title>Node1</title>
<g id="a_Node000001"><a xlink:title=" ">
<polygon fill="#999999" stroke="#666666" points="295.25,-417.38 151,-417.38 151,-395.12 295.25,-395.12 295.25,-417.38"/>
<text text-anchor="middle" x="223.12" y="-403.88" font-family="Helvetica,sans-Serif" font-size="10.00">CPS::TopologicalSignalComp</text>
</a>
</g>
</g>
<!-- Node3 -->
<g id="Node000003" class="node">
<title>Node3</title>
<g id="a_Node000003"><a xlink:href="class_c_p_s_1_1_sim_signal_comp.html" target="_top" xlink:title=" ">
<polygon fill="white" stroke="#666666" points="441,-417.38 331.25,-417.38 331.25,-395.12 441,-395.12 441,-417.38"/>
<text text-anchor="middle" x="386.12" y="-403.88" font-family="Helvetica,sans-Serif" font-size="10.00">CPS::SimSignalComp</text>
</a>
</g>
</g>
<!-- Node1&#45;&gt;Node3 -->
<g id="edge2_Node000001_Node000003" class="edge">
<title>Node1&#45;&gt;Node3</title>
<g id="a_edge2_Node000001_Node000003"><a xlink:title=" ">
<path fill="none" stroke="#63b8ff" d="M307.19,-406.25C315.33,-406.25 323.44,-406.25 331.19,-406.25"/>
<polygon fill="#63b8ff" stroke="#63b8ff" points="307.19,-402.75 297.19,-406.25 307.19,-409.75 307.19,-402.75"/>
</a>
</g>
</g>
<!-- Node2 -->
<g id="Node000002" class="node">
<title>Node2</title>
<g id="a_Node000002"><a xlink:href="class_c_p_s_1_1_identified_object.html" target="_top" xlink:title=" ">
<polygon fill="white" stroke="#666666" points="115,-417.38 0,-417.38 0,-395.12 115,-395.12 115,-417.38"/>
<text text-anchor="middle" x="57.5" y="-403.88" font-family="Helvetica,sans-Serif" font-size="10.00">CPS::IdentifiedObject</text>
</a>
</g>
</g>
<!-- Node2&#45;&gt;Node1 -->
<g id="edge1_Node000001_Node000002" class="edge">
<title>Node2&#45;&gt;Node1</title>
<g id="a_edge1_Node000001_Node000002"><a xlink:title=" ">
<path fill="none" stroke="#63b8ff" d="M126.73,-406.25C134.67,-406.25 142.78,-406.25 150.75,-406.25"/>
<polygon fill="#63b8ff" stroke="#63b8ff" points="126.78,-402.75 116.78,-406.25 126.78,-409.75 126.78,-402.75"/>
</a>
</g>
</g>
<!-- Node4 -->
<g id="Node000004" class="node">
<title>Node4</title>
<g id="a_Node000004"><a xlink:href="class_c_p_s_1_1_signal_1_1_decoupling_line.html" target="_top" xlink:title=" ">
<polygon fill="white" stroke="#bfbfbf" points="631,-798.38 486.75,-798.38 486.75,-776.12 631,-776.12 631,-798.38"/>
<text text-anchor="middle" x="558.88" y="-784.88" font-family="Helvetica,sans-Serif" font-size="10.00">CPS::Signal::DecouplingLine</text>
</a>
</g>
</g>
<!-- Node3&#45;&gt;Node4 -->
<g id="edge3_Node000003_Node000004" class="edge">
<title>Node3&#45;&gt;Node4</title>
<g id="a_edge3_Node000003_Node000004"><a xlink:title=" ">
<path fill="none" stroke="#63b8ff" d="M389.74,-429.07C398.37,-500.6 428.28,-718.6 477,-767.25 480.38,-770.62 484.23,-773.46 488.37,-775.84"/>
<polygon fill="#63b8ff" stroke="#63b8ff" points="393.24,-428.86 388.59,-419.34 386.28,-429.68 393.24,-428.86"/>
</a>
</g>
</g>
<!-- Node5 -->
<g id="Node000005" class="node">
<title>Node5</title>
<g id="a_Node000005"><a xlink:href="class_c_p_s_1_1_signal_1_1_decoupling_line_e_m_t.html" target="_top" xlink:title=" ">
<polygon fill="white" stroke="#bfbfbf" points="640.75,-758.38 477,-758.38 477,-736.12 640.75,-736.12 640.75,-758.38"/>
<text text-anchor="middle" x="558.88" y="-744.88" font-family="Helvetica,sans-Serif" font-size="10.00">CPS::Signal::DecouplingLineEMT</text>
</a>
</g>
</g>
<!-- Node3&#45;&gt;Node5 -->
<g id="edge4_Node000003_Node000005" class="edge">
<title>Node3&#45;&gt;Node5</title>
<g id="a_edge4_Node000003_Node000005"><a xlink:title=" ">
<path fill="none" stroke="#63b8ff" d="M386.28,-428.79C385.38,-487.14 391.47,-644.29 477,-727.25 480.43,-730.57 484.31,-733.37 488.48,-735.73"/>
<polygon fill="#63b8ff" stroke="#63b8ff" points="389.77,-429.21 386.52,-419.13 382.77,-429.04 389.77,-429.21"/>
</a>
</g>
</g>
<!-- Node6 -->
<g id="Node000006" class="node">
<title>Node6</title>
<g id="a_Node000006"><a xlink:href="class_c_p_s_1_1_signal_1_1_decoupling_line_e_m_t___ph3.html" target="_top" xlink:title=" ">
<polygon fill="white" stroke="#bfbfbf" points="631,-718.5 486.75,-718.5 486.75,-682 631,-682 631,-718.5"/>
<text text-anchor="start" x="494.75" y="-705" font-family="Helvetica,sans-Serif" font-size="10.00">CPS::Signal::DecouplingLine</text>
<text text-anchor="middle" x="558.88" y="-690.75" font-family="Helvetica,sans-Serif" font-size="10.00">EMT_Ph3</text>
</a>
</g>
</g>
<!-- Node3&#45;&gt;Node6 -->
<g id="edge5_Node000003_Node000006" class="edge">
<title>Node3&#45;&gt;Node6</title>
<g id="a_edge5_Node000003_Node000006"><a xlink:title=" ">
<path fill="none" stroke="#63b8ff" d="M388.2,-429.04C391.84,-480 407.73,-604.15 477,-673.25 480.14,-676.39 483.66,-679.16 487.42,-681.61"/>
<polygon fill="#63b8ff" stroke="#63b8ff" points="391.71,-429.01 387.61,-419.24 384.72,-429.44 391.71,-429.01"/>
</a>
</g>
</g>
<!-- Node7 -->
<g id="Node000007" class="node">
<title>Node7</title>
<g id="a_Node000007"><a xlink:href="class_c_p_s_1_1_signal_1_1_exciter_d_c1.html" target="_top" xlink:title=" ">
<polygon fill="white" stroke="#666666" points="620.5,-664.38 497.25,-664.38 497.25,-642.12 620.5,-642.12 620.5,-664.38"/>
<text text-anchor="middle" x="558.88" y="-650.88" font-family="Helvetica,sans-Serif" font-size="10.00">CPS::Signal::ExciterDC1</text>
</a>
</g>
</g>
<!-- Node3&#45;&gt;Node7 -->
<g id="edge6_Node000003_Node000007" class="edge">
<title>Node3&#45;&gt;Node7</title>
<g id="a_edge6_Node000003_Node000007"><a xlink:title=" ">
<path fill="none" stroke="#63b8ff" d="M389.35,-429.08C395.07,-474.98 414.56,-578.7 477,-633.25 482.77,-638.29 489.62,-642.11 496.85,-644.98"/>
<polygon fill="#63b8ff" stroke="#63b8ff" points="392.84,-428.81 388.24,-419.26 385.88,-429.59 392.84,-428.81"/>
</a>
</g>
</g>
<!-- Node8 -->
<g id="Node000008" class="node">
<title>Node8</title>
<g id="a_Node000008"><a xlink:href="class_c_p_s_1_1_signal_1_1_exciter_d_c1_simp.html" target="_top" xlink:title=" ">
<polygon fill="white" stroke="#666666" points="631.75,-624.38 486,-624.38 486,-602.12 631.75,-602.12 631.75,-624.38"/>
<text text-anchor="middle" x="558.88" y="-610.88" font-family="Helvetica,sans-Serif" font-size="10.00">CPS::Signal::ExciterDC1Simp</text>
</a>
</g>
</g>
<!-- Node3&#45;&gt;Node8 -->
<g id="edge7_Node000003_Node000008" class="edge">
<title>Node3&#45;&gt;Node8</title>
<g id="a_edge7_Node000003_Node000008"><a xlink:title=" ">
<path fill="none" stroke="#63b8ff" d="M391.45,-428.84C400.24,-468.42 424.04,-550.19 477,-593.25 481.15,-596.63 485.79,-599.44 490.7,-601.79"/>
<polygon fill="#63b8ff" stroke="#63b8ff" points="394.88,-428.13 389.41,-419.05 388.02,-429.56 394.88,-428.13"/>
</a>
</g>
</g>
<!-- Node9 -->
<g id="Node000009" class="node">
<title>Node9</title>
<g id="a_Node000009"><a xlink:href="class_c_p_s_1_1_signal_1_1_exciter_s_t1_simp.html" target="_top" xlink:title=" ">
<polygon fill="white" stroke="#666666" points="630.25,-584.38 487.5,-584.38 487.5,-562.12 630.25,-562.12 630.25,-584.38"/>
<text text-anchor="middle" x="558.88" y="-570.88" font-family="Helvetica,sans-Serif" font-size="10.00">CPS::Signal::ExciterST1Simp</text>
</a>
</g>
</g>
<!-- Node3&#45;&gt;Node9 -->
<g id="edge8_Node000003_Node000009" class="edge">
<title>Node3&#45;&gt;Node9</title>
<g id="a_edge8_Node000003_Node000009"><a xlink:title=" ">
<path fill="none" stroke="#63b8ff" d="M394.36,-428.1C406.28,-460.56 433.16,-521.13 477,-553.25 481.55,-556.58 486.59,-559.37 491.87,-561.69"/>
<polygon fill="#63b8ff" stroke="#63b8ff" points="397.77,-427.22 391.15,-418.95 391.16,-429.54 397.77,-427.22"/>
</a>
</g>
</g>
<!-- Node10 -->
<g id="Node000010" class="node">
<title>Node10</title>
<g id="a_Node000010"><a xlink:href="class_c_p_s_1_1_signal_1_1_exciter_static.html" target="_top" xlink:title=" ">
<polygon fill="white" stroke="#666666" points="623.12,-544.38 494.62,-544.38 494.62,-522.12 623.12,-522.12 623.12,-544.38"/>
<text text-anchor="middle" x="558.88" y="-530.88" font-family="Helvetica,sans-Serif" font-size="10.00">CPS::Signal::ExciterStatic</text>
</a>
</g>
</g>
<!-- Node3&#45;&gt;Node10 -->
<g id="edge9_Node000003_Node000010" class="edge">
<title>Node3&#45;&gt;Node10</title>
<g id="a_edge9_Node000003_Node000010"><a xlink:title=" ">
<path fill="none" stroke="#63b8ff" d="M399.16,-427.41C414.18,-451.88 442.21,-491.57 477,-513.25 482.4,-516.62 488.33,-519.42 494.46,-521.74"/>
<polygon fill="#63b8ff" stroke="#63b8ff" points="402.25,-425.77 394.13,-418.96 396.23,-429.34 402.25,-425.77"/>
</a>
</g>
</g>
<!-- Node11 -->
<g id="Node000011" class="node">
<title>Node11</title>
<g id="a_Node000011"><a xlink:href="class_c_p_s_1_1_signal_1_1_f_i_r_filter.html" target="_top" xlink:title=" ">
<polygon fill="white" stroke="#bfbfbf" points="614.5,-504.38 503.25,-504.38 503.25,-482.12 614.5,-482.12 614.5,-504.38"/>
<text text-anchor="middle" x="558.88" y="-490.88" font-family="Helvetica,sans-Serif" font-size="10.00">CPS::Signal::FIRFilter</text>
</a>
</g>
</g>
<!-- Node3&#45;&gt;Node11 -->
<g id="edge10_Node000003_Node000011" class="edge">
<title>Node3&#45;&gt;Node11</title>
<g id="a_edge10_Node000003_Node000011"><a xlink:title=" ">
<path fill="none" stroke="#63b8ff" d="M407.35,-425.08C424.63,-440.19 450.78,-460.86 477,-473.25 485.11,-477.08 494.03,-480.23 502.9,-482.8"/>
<polygon fill="#63b8ff" stroke="#63b8ff" points="410.09,-422.83 400.3,-418.77 405.42,-428.04 410.09,-422.83"/>
</a>
</g>
</g>
<!-- Node12 -->
<g id="Node000012" class="node">
<title>Node12</title>
<g id="a_Node000012"><a xlink:href="class_c_p_s_1_1_signal_1_1_hydro_turbine.html" target="_top" xlink:title=" ">
<polygon fill="white" stroke="#666666" points="627.25,-464.38 490.5,-464.38 490.5,-442.12 627.25,-442.12 627.25,-464.38"/>
<text text-anchor="middle" x="558.88" y="-450.88" font-family="Helvetica,sans-Serif" font-size="10.00">CPS::Signal::HydroTurbine</text>
</a>
</g>
</g>
<!-- Node3&#45;&gt;Node12 -->
<g id="edge11_Node000003_Node000012" class="edge">
<title>Node3&#45;&gt;Node12</title>
<g id="a_edge11_Node000003_Node000012"><a xlink:title=" ">
<path fill="none" stroke="#63b8ff" d="M435.17,-421.16C448.66,-425.22 463.37,-429.52 477,-433.25 487.46,-436.11 498.74,-439.02 509.45,-441.69"/>
<polygon fill="#63b8ff" stroke="#63b8ff" points="436.21,-417.82 425.62,-418.27 434.18,-424.52 436.21,-417.82"/>
</a>
</g>
</g>
<!-- Node13 -->
<g id="Node000013" class="node">
<title>Node13</title>
<g id="a_Node000013"><a xlink:href="class_c_p_s_1_1_signal_1_1_hydro_turbine_governor.html" target="_top" xlink:title=" ">
<polygon fill="white" stroke="#666666" points="627.25,-424.5 490.5,-424.5 490.5,-388 627.25,-388 627.25,-424.5"/>
<text text-anchor="start" x="498.5" y="-411" font-family="Helvetica,sans-Serif" font-size="10.00">CPS::Signal::HydroTurbine</text>
<text text-anchor="middle" x="558.88" y="-396.75" font-family="Helvetica,sans-Serif" font-size="10.00">Governor</text>
</a>
</g>
</g>
<!-- Node3&#45;&gt;Node13 -->
<g id="edge12_Node000003_Node000013" class="edge">
<title>Node3&#45;&gt;Node13</title>
<g id="a_edge12_Node000003_Node000013"><a xlink:title=" ">
<path fill="none" stroke="#63b8ff" d="M452.31,-406.25C464.67,-406.25 477.64,-406.25 490.08,-406.25"/>
<polygon fill="#63b8ff" stroke="#63b8ff" points="452.66,-402.75 442.66,-406.25 452.66,-409.75 452.66,-402.75"/>
</a>
</g>
</g>
<!-- Node14 -->
<g id="Node000014" class="node">
<title>Node14</title>
<g id="a_Node000014"><a xlink:href="class_c_p_s_1_1_signal_1_1_integrator.html" target="_top" xlink:title=" ">
<polygon fill="white" stroke="#bfbfbf" points="619.38,-370.38 498.38,-370.38 498.38,-348.12 619.38,-348.12 619.38,-370.38"/>
<text text-anchor="middle" x="558.88" y="-356.88" font-family="Helvetica,sans-Serif" font-size="10.00">CPS::Signal::Integrator</text>
</a>
</g>
</g>
<!-- Node3&#45;&gt;Node14 -->
<g id="edge13_Node000003_Node000014" class="edge">
<title>Node3&#45;&gt;Node14</title>
<g id="a_edge13_Node000003_Node000014"><a xlink:title=" ">
<path fill="none" stroke="#63b8ff" d="M435.17,-391.34C448.66,-387.28 463.37,-382.98 477,-379.25 487.46,-376.39 498.74,-373.48 509.45,-370.81"/>
<polygon fill="#63b8ff" stroke="#63b8ff" points="434.18,-387.98 425.62,-394.23 436.21,-394.68 434.18,-387.98"/>
</a>
</g>
</g>
<!-- Node15 -->
<g id="Node000015" class="node">
<title>Node15</title>
<g id="a_Node000015"><a xlink:href="class_c_p_s_1_1_signal_1_1_p_l_l.html" target="_top" xlink:title=" ">
<polygon fill="white" stroke="#bfbfbf" points="603.25,-330.38 514.5,-330.38 514.5,-308.12 603.25,-308.12 603.25,-330.38"/>
<text text-anchor="middle" x="558.88" y="-316.88" font-family="Helvetica,sans-Serif" font-size="10.00">CPS::Signal::PLL</text>
</a>
</g>
</g>
<!-- Node3&#45;&gt;Node15 -->
<g id="edge14_Node000003_Node000015" class="edge">
<title>Node3&#45;&gt;Node15</title>
<g id="a_edge14_Node000003_Node000015"><a xlink:title=" ">
<path fill="none" stroke="#63b8ff" d="M407.35,-387.42C424.63,-372.31 450.78,-351.64 477,-339.25 488.64,-333.75 501.96,-329.66 514.39,-326.66"/>
<polygon fill="#63b8ff" stroke="#63b8ff" points="405.42,-384.46 400.3,-393.73 410.09,-389.67 405.42,-384.46"/>
</a>
</g>
</g>
<!-- Node16 -->
<g id="Node000016" class="node">
<title>Node16</title>
<g id="a_Node000016"><a xlink:href="class_c_p_s_1_1_signal_1_1_p_s_s1_a.html" target="_top" xlink:title=" ">
<polygon fill="white" stroke="#666666" points="609.62,-290.38 508.12,-290.38 508.12,-268.12 609.62,-268.12 609.62,-290.38"/>
<text text-anchor="middle" x="558.88" y="-276.88" font-family="Helvetica,sans-Serif" font-size="10.00">CPS::Signal::PSS1A</text>
</a>
</g>
</g>
<!-- Node3&#45;&gt;Node16 -->
<g id="edge15_Node000003_Node000016" class="edge">
<title>Node3&#45;&gt;Node16</title>
<g id="a_edge15_Node000003_Node000016"><a xlink:title=" ">
<path fill="none" stroke="#63b8ff" d="M399.16,-385.09C414.18,-360.62 442.21,-320.93 477,-299.25 486.33,-293.44 497.25,-289.31 507.99,-286.39"/>
<polygon fill="#63b8ff" stroke="#63b8ff" points="396.23,-383.16 394.13,-393.54 402.25,-386.73 396.23,-383.16"/>
</a>
</g>
</g>
<!-- Node17 -->
<g id="Node000017" class="node">
<title>Node17</title>
<g id="a_Node000017"><a xlink:href="class_c_p_s_1_1_signal_1_1_power_controller_v_s_i.html" target="_top" xlink:title=" ">
<polygon fill="white" stroke="#bfbfbf" points="640.75,-250.38 477,-250.38 477,-228.12 640.75,-228.12 640.75,-250.38"/>
<text text-anchor="middle" x="558.88" y="-236.88" font-family="Helvetica,sans-Serif" font-size="10.00">CPS::Signal::PowerControllerVSI</text>
</a>
</g>
</g>
<!-- Node3&#45;&gt;Node17 -->
<g id="edge16_Node000003_Node000017" class="edge">
<title>Node3&#45;&gt;Node17</title>
<g id="a_edge16_Node000003_Node000017"><a xlink:title=" ">
<path fill="none" stroke="#63b8ff" d="M394.36,-384.4C406.28,-351.94 433.16,-291.37 477,-259.25 481.55,-255.92 486.59,-253.13 491.87,-250.81"/>
<polygon fill="#63b8ff" stroke="#63b8ff" points="391.16,-382.96 391.15,-393.55 397.77,-385.28 391.16,-382.96"/>
</a>
</g>
</g>
<!-- Node18 -->
<g id="Node000018" class="node">
<title>Node18</title>
<g id="a_Node000018"><a xlink:href="class_c_p_s_1_1_signal_1_1_signal_generator.html" target="_top" xlink:title="Model to generate generic signals.">
<polygon fill="white" stroke="#666666" points="632.88,-210.38 484.88,-210.38 484.88,-188.12 632.88,-188.12 632.88,-210.38"/>
<text text-anchor="middle" x="558.88" y="-196.88" font-family="Helvetica,sans-Serif" font-size="10.00">CPS::Signal::SignalGenerator</text>
</a>
</g>
</g>
<!-- Node3&#45;&gt;Node18 -->
<g id="edge17_Node000003_Node000018" class="edge">
<title>Node3&#45;&gt;Node18</title>
<g id="a_edge17_Node000003_Node000018"><a xlink:title=" ">
<path fill="none" stroke="#63b8ff" d="M391.45,-383.66C400.24,-344.08 424.04,-262.31 477,-219.25 481.15,-215.87 485.79,-213.06 490.7,-210.71"/>
<polygon fill="#63b8ff" stroke="#63b8ff" points="388.02,-382.94 389.41,-393.45 394.88,-384.37 388.02,-382.94"/>
</a>
</g>
</g>
<!-- Node23 -->
<g id="Node000023" class="node">
<title>Node23</title>
<g id="a_Node000023"><a xlink:href="class_c_p_s_1_1_signal_1_1_steam_turbine.html" target="_top" xlink:title=" ">
<polygon fill="white" stroke="#666666" points="627.62,-170.38 490.12,-170.38 490.12,-148.12 627.62,-148.12 627.62,-170.38"/>
<text text-anchor="middle" x="558.88" y="-156.88" font-family="Helvetica,sans-Serif" font-size="10.00">CPS::Signal::SteamTurbine</text>
</a>
</g>
</g>
<!-- Node3&#45;&gt;Node23 -->
<g id="edge22_Node000003_Node000023" class="edge">
<title>Node3&#45;&gt;Node23</title>
<g id="a_edge22_Node000003_Node000023"><a xlink:title=" ">
<path fill="none" stroke="#63b8ff" d="M389.35,-383.42C395.07,-337.52 414.56,-233.8 477,-179.25 480.81,-175.92 485.09,-173.13 489.64,-170.78"/>
<polygon fill="#63b8ff" stroke="#63b8ff" points="385.88,-382.91 388.24,-393.24 392.84,-383.69 385.88,-382.91"/>
</a>
</g>
</g>
<!-- Node24 -->
<g id="Node000024" class="node">
<title>Node24</title>
<g id="a_Node000024"><a xlink:href="class_c_p_s_1_1_signal_1_1_steam_turbine_governor.html" target="_top" xlink:title=" ">
<polygon fill="white" stroke="#666666" points="627.62,-130.5 490.12,-130.5 490.12,-94 627.62,-94 627.62,-130.5"/>
<text text-anchor="start" x="498.12" y="-117" font-family="Helvetica,sans-Serif" font-size="10.00">CPS::Signal::SteamTurbine</text>
<text text-anchor="middle" x="558.88" y="-102.75" font-family="Helvetica,sans-Serif" font-size="10.00">Governor</text>
</a>
</g>
</g>
<!-- Node3&#45;&gt;Node24 -->
<g id="edge23_Node000003_Node000024" class="edge">
<title>Node3&#45;&gt;Node24</title>
<g id="a_edge23_Node000003_Node000024"><a xlink:title=" ">
<path fill="none" stroke="#63b8ff" d="M388.2,-383.46C391.84,-332.5 407.73,-208.35 477,-139.25 480.77,-135.49 485.08,-132.25 489.71,-129.46"/>
<polygon fill="#63b8ff" stroke="#63b8ff" points="384.72,-383.06 387.61,-393.26 391.71,-383.49 384.72,-383.06"/>
</a>
</g>
</g>
<!-- Node25 -->
<g id="Node000025" class="node">
<title>Node25</title>
<g id="a_Node000025"><a xlink:href="class_c_p_s_1_1_signal_1_1_turbine_governor.html" target="_top" xlink:title="Turbine governor model to be used with synchronous generator.">
<polygon fill="white" stroke="#666666" points="635.88,-76.38 481.88,-76.38 481.88,-54.12 635.88,-54.12 635.88,-76.38"/>
<text text-anchor="middle" x="558.88" y="-62.88" font-family="Helvetica,sans-Serif" font-size="10.00">CPS::Signal::TurbineGovernor</text>
</a>
</g>
</g>
<!-- Node3&#45;&gt;Node25 -->
<g id="edge24_Node000003_Node000025" class="edge">
<title>Node3&#45;&gt;Node25</title>
<g id="a_edge24_Node000003_Node000025"><a xlink:title=" ">
<path fill="none" stroke="#63b8ff" d="M386.28,-383.71C385.38,-325.36 391.47,-168.21 477,-85.25 480.43,-81.93 484.31,-79.13 488.48,-76.77"/>
<polygon fill="#63b8ff" stroke="#63b8ff" points="382.77,-383.46 386.52,-393.37 389.77,-383.29 382.77,-383.46"/>
</a>
</g>
</g>
<!-- Node26 -->
<g id="Node000026" class="node">
<title>Node26</title>
<g id="a_Node000026"><a xlink:href="class_c_p_s_1_1_signal_1_1_turbine_governor_type1.html" target="_top" xlink:title=" ">
<polygon fill="white" stroke="#666666" points="635.88,-36.5 481.88,-36.5 481.88,0 635.88,0 635.88,-36.5"/>
<text text-anchor="start" x="489.88" y="-23" font-family="Helvetica,sans-Serif" font-size="10.00">CPS::Signal::TurbineGovernor</text>
<text text-anchor="middle" x="558.88" y="-8.75" font-family="Helvetica,sans-Serif" font-size="10.00">Type1</text>
</a>
</g>
</g>
<!-- Node3&#45;&gt;Node26 -->
<g id="edge25_Node000003_Node000026" class="edge">
<title>Node3&#45;&gt;Node26</title>
<g id="a_edge25_Node000003_Node000026"><a xlink:title=" ">
<path fill="none" stroke="#63b8ff" d="M389.9,-383.59C399.04,-312.53 430.26,-95.8 477,-45.25 479.91,-42.1 483.21,-39.31 486.75,-36.85"/>
<polygon fill="#63b8ff" stroke="#63b8ff" points="386.46,-382.89 388.69,-393.25 393.41,-383.76 386.46,-382.89"/>
</a>
</g>
</g>
<!-- Node19 -->
<g id="Node000019" class="node">
<title>Node19</title>
<g id="a_Node000019"><a xlink:href="class_c_p_s_1_1_signal_1_1_cosine_f_m_generator.html" target="_top" xlink:title="Model to generate signals containing a frequency ramp.">
<polygon fill="white" stroke="#666666" points="842.75,-273.38 676.75,-273.38 676.75,-251.12 842.75,-251.12 842.75,-273.38"/>
<text text-anchor="middle" x="759.75" y="-259.88" font-family="Helvetica,sans-Serif" font-size="10.00">CPS::Signal::CosineFMGenerator</text>
</a>
</g>
</g>
<!-- Node18&#45;&gt;Node19 -->
<g id="edge18_Node000018_Node000019" class="edge">
<title>Node18&#45;&gt;Node19</title>
<g id="a_edge18_Node000018_Node000019"><a xlink:title=" ">
<path fill="none" stroke="#63b8ff" d="M627.48,-214.19C632.03,-215.74 636.49,-217.42 640.75,-219.25 658.2,-226.74 659.29,-234.79 676.75,-242.25 684.43,-245.53 692.76,-248.34 701.06,-250.73"/>
<polygon fill="#63b8ff" stroke="#63b8ff" points="628.81,-210.94 618.22,-211.28 626.71,-217.61 628.81,-210.94"/>
</a>
</g>
</g>
<!-- Node20 -->
<g id="Node000020" class="node">
<title>Node20</title>
<g id="a_Node000020"><a xlink:href="class_c_p_s_1_1_signal_1_1_d_c_generator.html" target="_top" xlink:title="Model to generate sinusoidal signals.">
<polygon fill="white" stroke="#666666" points="827,-233.38 692.5,-233.38 692.5,-211.12 827,-211.12 827,-233.38"/>
<text text-anchor="middle" x="759.75" y="-219.88" font-family="Helvetica,sans-Serif" font-size="10.00">CPS::Signal::DCGenerator</text>
</a>
</g>
</g>
<!-- Node18&#45;&gt;Node20 -->
<g id="edge19_Node000018_Node000020" class="edge">
<title>Node18&#45;&gt;Node20</title>
<g id="a_edge19_Node000018_Node000020"><a xlink:title=" ">
<path fill="none" stroke="#63b8ff" d="M644.78,-209.07C660.61,-210.9 676.95,-212.79 692.14,-214.55"/>
<polygon fill="#63b8ff" stroke="#63b8ff" points="645.2,-205.59 634.87,-207.92 644.4,-212.55 645.2,-205.59"/>
</a>
</g>
</g>
<!-- Node21 -->
<g id="Node000021" class="node">
<title>Node21</title>
<g id="a_Node000021"><a xlink:href="class_c_p_s_1_1_signal_1_1_frequency_ramp_generator.html" target="_top" xlink:title="Model to generate signals containing a frequency ramp.">
<polygon fill="white" stroke="#666666" points="833.38,-193.5 686.12,-193.5 686.12,-157 833.38,-157 833.38,-193.5"/>
<text text-anchor="start" x="694.12" y="-180" font-family="Helvetica,sans-Serif" font-size="10.00">CPS::Signal::FrequencyRamp</text>
<text text-anchor="middle" x="759.75" y="-165.75" font-family="Helvetica,sans-Serif" font-size="10.00">Generator</text>
</a>
</g>
</g>
<!-- Node18&#45;&gt;Node21 -->
<g id="edge20_Node000018_Node000021" class="edge">
<title>Node18&#45;&gt;Node21</title>
<g id="a_edge20_Node000018_Node000021"><a xlink:title=" ">
<path fill="none" stroke="#63b8ff" d="M644.75,-189.01C658.45,-187.35 672.52,-185.66 685.89,-184.04"/>
<polygon fill="#63b8ff" stroke="#63b8ff" points="644.37,-185.53 634.87,-190.2 645.21,-192.48 644.37,-185.53"/>
</a>
</g>
</g>
<!-- Node22 -->
<g id="Node000022" class="node">
<title>Node22</title>
<g id="a_Node000022"><a xlink:href="class_c_p_s_1_1_signal_1_1_sine_wave_generator.html" target="_top" xlink:title="Model to generate sinusoidal signals.">
<polygon fill="white" stroke="#666666" points="842.75,-139.38 676.75,-139.38 676.75,-117.12 842.75,-117.12 842.75,-139.38"/>
<text text-anchor="middle" x="759.75" y="-125.88" font-family="Helvetica,sans-Serif" font-size="10.00">CPS::Signal::SineWaveGenerator</text>
</a>
</g>
</g>
<!-- Node18&#45;&gt;Node22 -->
<g id="edge21_Node000018_Node000022" class="edge">
<title>Node18&#45;&gt;Node22</title>
<g id="a_edge21_Node000018_Node000022"><a xlink:title=" ">
<path fill="none" stroke="#63b8ff" d="M630.74,-183.84C634.18,-182.43 637.54,-180.91 640.75,-179.25 659.51,-169.56 657.97,-157.91 676.75,-148.25 683.27,-144.9 690.36,-142.09 697.57,-139.75"/>
<polygon fill="#63b8ff" stroke="#63b8ff" points="629.83,-180.44 621.64,-187.17 632.23,-187.02 629.83,-180.44"/>
</a>
</g>
</g>
</g>
</svg>

<g id="navigator" transform="translate(0 0)" fill="#404254">
  <rect fill="#f2f5e9" fill-opacity="0.5" stroke="#606060" stroke-width=".5" x="0" y="0" width="60" height="60"/>
  <use id="zoomplus" xlink:href="#zoomPlus" x="17" y="9" onmousedown="handleZoom(evt,'in')"/>
  <use id="zoomminus" xlink:href="#zoomMin" x="42" y="9" onmousedown="handleZoom(evt,'out')"/>
  <use id="reset" xlink:href="#resetDef" x="30" y="36" onmousedown="handleReset()"/>
   <use id="arrowup" xlink:href="#arrowUp" x="0" y="0" onmousedown="handlePan(0,-1)"/>
  <use id="arrowright" xlink:href="#arrowRight" x="0" y="0" onmousedown="handlePan(1,0)"/>
  <use id="arrowdown" xlink:href="#arrowDown" x="0" y="0" onmousedown="handlePan(0,1)"/>
  <use id="arrowleft" xlink:href="#arrowLeft" x="0" y="0" onmousedown="handlePan(-1,0)"/>
</g>
<svg viewBox="0 0 15 15" width="100%" height="30px" preserveAspectRatio="xMaxYMin meet">
 <g id="arrow_out" transform="scale(0.3 0.3)">
  <a xlink:href="class_c_p_s_1_1_topological_signal_comp__inherit__graph_org.svg" target="_base">
   <rect id="button" ry="5" rx="5" y="6" x="6" height="38" width="38"
        fill="#f2f5e9" fill-opacity="0.5" stroke="#606060" stroke-width="1.0"/>
   <path id="arrow"
     d="M 11.500037,31.436501 C 11.940474,20.09759 22.043105,11.32322 32.158766,21.979434 L 37.068811,17.246167 C 37.068811,17.246167 37.088388,32 37.088388,32 L 22.160133,31.978069 C 22.160133,31.978069 26.997745,27.140456 26.997745,27.140456 C 18.528582,18.264221 13.291696,25.230495 11.500037,31.436501 z"
     style="fill:#404040;"/>
  </a>
 </g>
</svg>

<style type='text/css'>
<![CDATA[
[data-mouse-over-selected='false'] { opacity: 0.7; }
[data-mouse-over-selected='true']  { opacity: 1.0; }
]]>
</style>
<script type="application/ecmascript"><![CDATA[
document.addEventListener('DOMContentLoaded', (event) => {
  highlightEdges();
  highlightAdjacentNodes();
});
]]></script>
</svg>
