<?xml version="1.0" encoding="UTF-8" standalone="no"?>
<!DOCTYPE svg PUBLIC "-//W3C//DTD SVG 1.1//EN"
 "http://www.w3.org/Graphics/SVG/1.1/DTD/svg11.dtd">
<!-- Generated by graphviz version 2.50.0 (0)
 -->
<!-- Title: DPsim::RealTimeSimulation Pages: 1 -->
<svg width="157pt" height="277pt"
 viewBox="0.00 0.00 157.00 277.00" xmlns="http://www.w3.org/2000/svg" xmlns:xlink="http://www.w3.org/1999/xlink">
<g id="graph0" class="graph" transform="scale(1 1) rotate(0) translate(4 273)">
<title>DPsim::RealTimeSimulation</title>
<!-- Node1 -->
<g id="node1" class="node">
<title>Node1</title>
<g id="a_node1"><a xlink:title="Extending Simulation class by real&#45;time functionality.">
<polygon fill="#bfbfbf" stroke="black" points="0,-0.5 0,-19.5 142,-19.5 142,-0.5 0,-0.5"/>
<text text-anchor="middle" x="71" y="-7.5" font-family="Helvetica,sans-Serif" font-size="10.00">DPsim::RealTimeSimulation</text>
</a>
</g>
</g>
<!-- Node2 -->
<g id="node2" class="node">
<title>Node2</title>
<g id="a_node2"><a xlink:href="class_d_psim_1_1_simulation.html" target="_top" xlink:title="The Simulation holds a SystemTopology and a Solver.">
<polygon fill="none" stroke="black" points="21,-57.5 21,-76.5 121,-76.5 121,-57.5 21,-57.5"/>
<text text-anchor="middle" x="71" y="-64.5" font-family="Helvetica,sans-Serif" font-size="10.00">DPsim::Simulation</text>
</a>
</g>
</g>
<!-- Node2&#45;&gt;Node1 -->
<g id="edge1" class="edge">
<title>Node2&#45;&gt;Node1</title>
<path fill="none" stroke="midnightblue" d="M71,-47.12C71,-37.82 71,-27.06 71,-19.71"/>
<polygon fill="midnightblue" stroke="midnightblue" points="67.5,-47.41 71,-57.41 74.5,-47.41 67.5,-47.41"/>
</g>
<!-- Node3 -->
<g id="node3" class="node">
<title>Node3</title>
<g id="a_node3"><a xlink:href="class_c_p_s_1_1_attribute_list.html" target="_top" xlink:title="Base class of objects having attributes to access member variables.">
<polygon fill="none" stroke="black" points="22,-114.5 22,-133.5 120,-133.5 120,-114.5 22,-114.5"/>
<text text-anchor="middle" x="71" y="-121.5" font-family="Helvetica,sans-Serif" font-size="10.00">CPS::AttributeList</text>
</a>
</g>
</g>
<!-- Node3&#45;&gt;Node2 -->
<g id="edge2" class="edge">
<title>Node3&#45;&gt;Node2</title>
<path fill="none" stroke="midnightblue" d="M71,-104.12C71,-94.82 71,-84.06 71,-76.71"/>
<polygon fill="midnightblue" stroke="midnightblue" points="67.5,-104.41 71,-114.41 74.5,-104.41 67.5,-104.41"/>
</g>
<!-- Node4 -->
<g id="node4" class="node">
<title>Node4</title>
<g id="a_node4"><a xlink:href="class_shared_factory.html" target="_top" xlink:title=" ">
<polygon fill="none" stroke="black" points="4,-171.5 4,-201.5 138,-201.5 138,-171.5 4,-171.5"/>
<text text-anchor="start" x="12" y="-189.5" font-family="Helvetica,sans-Serif" font-size="10.00">SharedFactory&lt; Attribute</text>
<text text-anchor="middle" x="71" y="-178.5" font-family="Helvetica,sans-Serif" font-size="10.00">List &gt;</text>
</a>
</g>
</g>
<!-- Node4&#45;&gt;Node3 -->
<g id="edge3" class="edge">
<title>Node4&#45;&gt;Node3</title>
<path fill="none" stroke="midnightblue" d="M71,-161.35C71,-151.51 71,-140.78 71,-133.54"/>
<polygon fill="midnightblue" stroke="midnightblue" points="67.5,-161.47 71,-171.47 74.5,-161.47 67.5,-161.47"/>
</g>
<!-- Node5 -->
<g id="node5" class="node">
<title>Node5</title>
<g id="a_node5"><a xlink:href="class_shared_factory.html" target="_top" xlink:title=" ">
<polygon fill="none" stroke="black" points="18.5,-249.5 18.5,-268.5 123.5,-268.5 123.5,-249.5 18.5,-249.5"/>
<text text-anchor="middle" x="71" y="-256.5" font-family="Helvetica,sans-Serif" font-size="10.00">SharedFactory&lt; T &gt;</text>
</a>
</g>
</g>
<!-- Node5&#45;&gt;Node4 -->
<g id="edge4" class="edge">
<title>Node5&#45;&gt;Node4</title>
<path fill="none" stroke="orange" stroke-dasharray="5,2" d="M71,-239.24C71,-227.41 71,-212.38 71,-201.58"/>
<polygon fill="orange" stroke="orange" points="67.5,-239.36 71,-249.36 74.5,-239.36 67.5,-239.36"/>
<text text-anchor="middle" x="110" y="-223" font-family="Helvetica,sans-Serif" font-size="10.00"> &lt; AttributeList &gt;</text>
</g>
</g>
</svg>
