<?xml version="1.0" encoding="UTF-8" standalone="no"?>
<!DOCTYPE svg PUBLIC "-//W3C//DTD SVG 1.1//EN"
 "http://www.w3.org/Graphics/SVG/1.1/DTD/svg11.dtd">
<!-- Generated by graphviz version 12.2.1 (20241206.2353)
 -->
<!-- Title: CPS::Signal::TurbineGovernorType1 Pages: 1 -->
<svg width="1384pt" height="139pt"
 viewBox="0.00 0.00 1383.75 138.50" xmlns="http://www.w3.org/2000/svg" xmlns:xlink="http://www.w3.org/1999/xlink">
<g id="graph0" class="graph" transform="scale(1 1) rotate(0) translate(4 134.5)">
<title>CPS::Signal::TurbineGovernorType1</title>
<!-- Node1 -->
<g id="Node000001" class="node">
<title>Node1</title>
<g id="a_Node000001"><a xlink:title=" ">
<polygon fill="#999999" stroke="#666666" points="1375.75,-74.62 1221.75,-74.62 1221.75,-38.12 1375.75,-38.12 1375.75,-74.62"/>
<text text-anchor="start" x="1229.75" y="-61.12" font-family="Helvetica,sans-Serif" font-size="10.00">CPS::Signal::TurbineGovernor</text>
<text text-anchor="middle" x="1298.75" y="-46.88" font-family="Helvetica,sans-Serif" font-size="10.00">Type1</text>
</a>
</g>
</g>
<!-- Node2 -->
<g id="Node000002" class="node">
<title>Node2</title>
<g id="a_Node000002"><a xlink:href="class_c_p_s_1_1_sim_signal_comp.html" target="_top" xlink:title=" ">
<polygon fill="white" stroke="#666666" points="1153.25,-91.5 1043.5,-91.5 1043.5,-69.25 1153.25,-69.25 1153.25,-91.5"/>
<text text-anchor="middle" x="1098.38" y="-78" font-family="Helvetica,sans-Serif" font-size="10.00">CPS::SimSignalComp</text>
</a>
</g>
</g>
<!-- Node2&#45;&gt;Node1 -->
<g id="edge1_Node000001_Node000002" class="edge">
<title>Node2&#45;&gt;Node1</title>
<g id="a_edge1_Node000001_Node000002"><a xlink:title=" ">
<path fill="none" stroke="#63b8ff" d="M1164.88,-72.45C1182.94,-70.27 1202.68,-67.88 1221.3,-65.62"/>
<polygon fill="#63b8ff" stroke="#63b8ff" points="1164.59,-68.96 1155.08,-73.64 1165.43,-75.91 1164.59,-68.96"/>
</a>
</g>
</g>
<!-- Node3 -->
<g id="Node000003" class="node">
<title>Node3</title>
<g id="a_Node000003"><a xlink:href="class_c_p_s_1_1_topological_signal_comp.html" target="_top" xlink:title=" ">
<polygon fill="white" stroke="#666666" points="847,-91.5 702.75,-91.5 702.75,-69.25 847,-69.25 847,-91.5"/>
<text text-anchor="middle" x="774.88" y="-78" font-family="Helvetica,sans-Serif" font-size="10.00">CPS::TopologicalSignalComp</text>
</a>
</g>
</g>
<!-- Node3&#45;&gt;Node2 -->
<g id="edge2_Node000002_Node000003" class="edge">
<title>Node3&#45;&gt;Node2</title>
<g id="a_edge2_Node000002_Node000003"><a xlink:title=" ">
<path fill="none" stroke="#63b8ff" d="M858.59,-80.38C916.67,-80.38 992.71,-80.38 1043.2,-80.38"/>
<polygon fill="#63b8ff" stroke="#63b8ff" points="858.74,-76.88 848.74,-80.38 858.74,-83.88 858.74,-76.88"/>
</a>
</g>
</g>
<!-- Node4 -->
<g id="Node000004" class="node">
<title>Node4</title>
<g id="a_Node000004"><a xlink:href="class_c_p_s_1_1_identified_object.html" target="_top" xlink:title=" ">
<polygon fill="white" stroke="#666666" points="665.75,-91.5 550.75,-91.5 550.75,-69.25 665.75,-69.25 665.75,-91.5"/>
<text text-anchor="middle" x="608.25" y="-78" font-family="Helvetica,sans-Serif" font-size="10.00">CPS::IdentifiedObject</text>
</a>
</g>
</g>
<!-- Node4&#45;&gt;Node3 -->
<g id="edge3_Node000003_Node000004" class="edge">
<title>Node4&#45;&gt;Node3</title>
<g id="a_edge3_Node000003_Node000004"><a xlink:title=" ">
<path fill="none" stroke="#63b8ff" d="M677.37,-80.38C685.59,-80.38 694.01,-80.38 702.29,-80.38"/>
<polygon fill="#63b8ff" stroke="#63b8ff" points="677.42,-76.88 667.42,-80.38 677.42,-83.88 677.42,-76.88"/>
</a>
</g>
</g>
<!-- Node5 -->
<g id="Node000005" class="node">
<title>Node5</title>
<g id="a_Node000005"><a xlink:href="class_c_p_s_1_1_attribute.html" target="_top" xlink:title=" ">
<polygon fill="white" stroke="#666666" points="475.75,-91.5 349.5,-91.5 349.5,-69.25 475.75,-69.25 475.75,-91.5"/>
<text text-anchor="middle" x="412.62" y="-78" font-family="Helvetica,sans-Serif" font-size="10.00">CPS::Attribute&lt; String &gt;</text>
</a>
</g>
</g>
<!-- Node5&#45;&gt;Node4 -->
<g id="edge4_Node000004_Node000005" class="edge">
<title>Node5&#45;&gt;Node4</title>
<g id="a_edge4_Node000004_Node000005"><a xlink:title=" ">
<path fill="none" stroke="#9a32cd" stroke-dasharray="5,2" d="M487.62,-80.38C508.45,-80.38 530.78,-80.38 550.44,-80.38"/>
<polygon fill="#9a32cd" stroke="#9a32cd" points="487.74,-76.88 477.74,-80.38 487.74,-83.88 487.74,-76.88"/>
</a>
</g>
<text text-anchor="middle" x="513.25" y="-99.38" font-family="Helvetica,sans-Serif" font-size="10.00" fill="grey"> mName</text>
<text text-anchor="middle" x="513.25" y="-85.12" font-family="Helvetica,sans-Serif" font-size="10.00" fill="grey">mUID</text>
</g>
<!-- Node6 -->
<g id="Node000006" class="node">
<title>Node6</title>
<g id="a_Node000006"><a xlink:href="class_c_p_s_1_1_attribute_base.html" target="_top" xlink:title=" ">
<polygon fill="white" stroke="#666666" points="109.75,-130.5 5.25,-130.5 5.25,-108.25 109.75,-108.25 109.75,-130.5"/>
<text text-anchor="middle" x="57.5" y="-117" font-family="Helvetica,sans-Serif" font-size="10.00">CPS::AttributeBase</text>
</a>
</g>
</g>
<!-- Node6&#45;&gt;Node5 -->
<g id="edge5_Node000005_Node000006" class="edge">
<title>Node6&#45;&gt;Node5</title>
<g id="a_edge5_Node000005_Node000006"><a xlink:title=" ">
<path fill="none" stroke="#63b8ff" d="M121.49,-117.11C177.01,-114.5 259.96,-109.1 331.5,-98.38 342.5,-96.73 354.23,-94.41 365.23,-91.99"/>
<polygon fill="#63b8ff" stroke="#63b8ff" points="121.41,-113.61 111.58,-117.56 121.73,-120.6 121.41,-113.61"/>
</a>
</g>
</g>
<!-- Node8 -->
<g id="Node000008" class="node">
<title>Node8</title>
<g id="a_Node000008"><a xlink:href="class_c_p_s_1_1_attribute.html" target="_top" xlink:title=" ">
<polygon fill="white" stroke="#666666" points="261.38,-91.5 157.62,-91.5 157.62,-69.25 261.38,-69.25 261.38,-91.5"/>
<text text-anchor="middle" x="209.5" y="-78" font-family="Helvetica,sans-Serif" font-size="10.00">CPS::Attribute&lt; T &gt;</text>
</a>
</g>
</g>
<!-- Node6&#45;&gt;Node8 -->
<g id="edge8_Node000008_Node000006" class="edge">
<title>Node6&#45;&gt;Node8</title>
<g id="a_edge8_Node000008_Node000006"><a xlink:title=" ">
<path fill="none" stroke="#63b8ff" d="M114.18,-104.9C130.54,-100.64 148.23,-96.05 163.81,-91.99"/>
<polygon fill="#63b8ff" stroke="#63b8ff" points="113.36,-101.49 104.56,-107.4 115.12,-108.27 113.36,-101.49"/>
</a>
</g>
</g>
<!-- Node7 -->
<g id="Node000007" class="node">
<title>Node7</title>
<g id="a_Node000007"><a xlink:title=" ">
<polygon fill="white" stroke="#bfbfbf" points="267,-50.75 152,-50.75 152,0 267,0 267,-50.75"/>
<text text-anchor="start" x="160" y="-37.25" font-family="Helvetica,sans-Serif" font-size="10.00">std::enable_shared</text>
<text text-anchor="start" x="160" y="-23" font-family="Helvetica,sans-Serif" font-size="10.00">_from_this&lt; Attribute</text>
<text text-anchor="middle" x="209.5" y="-8.75" font-family="Helvetica,sans-Serif" font-size="10.00">&lt; String &gt; &gt;</text>
</a>
</g>
</g>
<!-- Node7&#45;&gt;Node5 -->
<g id="edge6_Node000005_Node000007" class="edge">
<title>Node7&#45;&gt;Node5</title>
<g id="a_edge6_Node000005_Node000007"><a xlink:title=" ">
<path fill="none" stroke="#63b8ff" d="M278.21,-43.89C308.35,-52.13 342.91,-61.59 369.31,-68.8"/>
<polygon fill="#63b8ff" stroke="#63b8ff" points="279.36,-40.58 268.79,-41.31 277.51,-47.33 279.36,-40.58"/>
</a>
</g>
</g>
<!-- Node8&#45;&gt;Node5 -->
<g id="edge7_Node000005_Node000008" class="edge">
<title>Node8&#45;&gt;Node5</title>
<g id="a_edge7_Node000005_Node000008"><a xlink:title=" ">
<path fill="none" stroke="orange" stroke-dasharray="5,2" d="M273.02,-80.38C297.3,-80.38 325.06,-80.38 349.32,-80.38"/>
<polygon fill="orange" stroke="orange" points="273.29,-76.88 263.29,-80.38 273.29,-83.88 273.29,-76.88"/>
</a>
</g>
<text text-anchor="middle" x="308.25" y="-85.12" font-family="Helvetica,sans-Serif" font-size="10.00" fill="grey"> &lt; String &gt;</text>
</g>
<!-- Node9 -->
<g id="Node000009" class="node">
<title>Node9</title>
<g id="a_Node000009"><a xlink:title=" ">
<polygon fill="white" stroke="#bfbfbf" points="115,-89.75 0,-89.75 0,-39 115,-39 115,-89.75"/>
<text text-anchor="start" x="8" y="-76.25" font-family="Helvetica,sans-Serif" font-size="10.00">std::enable_shared</text>
<text text-anchor="start" x="8" y="-62" font-family="Helvetica,sans-Serif" font-size="10.00">_from_this&lt; Attribute</text>
<text text-anchor="middle" x="57.5" y="-47.75" font-family="Helvetica,sans-Serif" font-size="10.00">&lt; T &gt; &gt;</text>
</a>
</g>
</g>
<!-- Node9&#45;&gt;Node8 -->
<g id="edge9_Node000008_Node000009" class="edge">
<title>Node9&#45;&gt;Node8</title>
<g id="a_edge9_Node000008_Node000009"><a xlink:title=" ">
<path fill="none" stroke="#63b8ff" d="M126.33,-71.61C136.68,-72.71 147.22,-73.84 157.14,-74.9"/>
<polygon fill="#63b8ff" stroke="#63b8ff" points="127.03,-68.16 116.71,-70.58 126.29,-75.13 127.03,-68.16"/>
</a>
</g>
</g>
<!-- Node10 -->
<g id="Node000010" class="node">
<title>Node10</title>
<g id="a_Node000010"><a xlink:href="class_shared_factory.html" target="_top" xlink:title=" ">
<polygon fill="white" stroke="#666666" points="1184.75,-51.62 1012,-51.62 1012,-15.12 1184.75,-15.12 1184.75,-51.62"/>
<text text-anchor="start" x="1020" y="-38.12" font-family="Helvetica,sans-Serif" font-size="10.00">SharedFactory&lt; TurbineGovernor</text>
<text text-anchor="middle" x="1098.38" y="-23.88" font-family="Helvetica,sans-Serif" font-size="10.00">Type1 &gt;</text>
</a>
</g>
</g>
<!-- Node10&#45;&gt;Node1 -->
<g id="edge10_Node000001_Node000010" class="edge">
<title>Node10&#45;&gt;Node1</title>
<g id="a_edge10_Node000001_Node000010"><a xlink:title=" ">
<path fill="none" stroke="#63b8ff" d="M1196.58,-44.64C1204.92,-45.61 1213.29,-46.58 1221.43,-47.53"/>
<polygon fill="#63b8ff" stroke="#63b8ff" points="1197.07,-41.18 1186.73,-43.5 1196.27,-48.13 1197.07,-41.18"/>
</a>
</g>
</g>
<!-- Node11 -->
<g id="Node000011" class="node">
<title>Node11</title>
<g id="a_Node000011"><a xlink:href="class_shared_factory.html" target="_top" xlink:title=" ">
<polygon fill="white" stroke="#666666" points="827.12,-44.5 722.62,-44.5 722.62,-22.25 827.12,-22.25 827.12,-44.5"/>
<text text-anchor="middle" x="774.88" y="-31" font-family="Helvetica,sans-Serif" font-size="10.00">SharedFactory&lt; T &gt;</text>
</a>
</g>
</g>
<!-- Node11&#45;&gt;Node10 -->
<g id="edge11_Node000010_Node000011" class="edge">
<title>Node11&#45;&gt;Node10</title>
<g id="a_edge11_Node000010_Node000011"><a xlink:title=" ">
<path fill="none" stroke="orange" stroke-dasharray="5,2" d="M838.99,-33.38C888.31,-33.38 957.36,-33.38 1011.67,-33.38"/>
<polygon fill="orange" stroke="orange" points="839.04,-29.88 829.04,-33.38 839.04,-36.88 839.04,-29.88"/>
</a>
</g>
<text text-anchor="middle" x="929.5" y="-38.12" font-family="Helvetica,sans-Serif" font-size="10.00" fill="grey"> &lt; TurbineGovernorType1 &gt;</text>
</g>
</g>
</svg>
