<?xml version="1.0" encoding="UTF-8" standalone="no"?>
<!DOCTYPE svg PUBLIC "-//W3C//DTD SVG 1.1//EN"
 "http://www.w3.org/Graphics/SVG/1.1/DTD/svg11.dtd">
<!-- Generated by graphviz version 12.2.1 (20241206.2353)
 -->
<!-- Title: CPS::DP::SSNComp Pages: 1 -->
<svg width="2346pt" height="733pt"
 viewBox="0.00 0.00 2345.50 733.25" xmlns="http://www.w3.org/2000/svg" xmlns:xlink="http://www.w3.org/1999/xlink">
<g id="graph0" class="graph" transform="scale(1 1) rotate(0) translate(4 729.25)">
<title>CPS::DP::SSNComp</title>
<!-- Node1 -->
<g id="Node000001" class="node">
<title>Node1</title>
<g id="a_Node000001"><a xlink:title="Abstract base class for DP/SFA state&#45;space nodal (SSN) components.">
<polygon fill="#999999" stroke="#666666" points="2337.5,-23.12 2233.75,-23.12 2233.75,-0.88 2337.5,-0.88 2337.5,-23.12"/>
<text text-anchor="middle" x="2285.62" y="-9.62" font-family="Helvetica,sans-Serif" font-size="10.00">CPS::DP::SSNComp</text>
</a>
</g>
</g>
<!-- Node2 -->
<g id="Node000002" class="node">
<title>Node2</title>
<g id="a_Node000002"><a xlink:href="class_c_p_s_1_1_m_n_a_sim_power_comp.html" target="_top" xlink:title=" ">
<polygon fill="white" stroke="#666666" points="2196.75,-641.25 2060.75,-641.25 2060.75,-604.75 2196.75,-604.75 2196.75,-641.25"/>
<text text-anchor="start" x="2068.75" y="-627.75" font-family="Helvetica,sans-Serif" font-size="10.00">CPS::MNASimPowerComp</text>
<text text-anchor="middle" x="2128.75" y="-613.5" font-family="Helvetica,sans-Serif" font-size="10.00">&lt; Complex &gt;</text>
</a>
</g>
</g>
<!-- Node2&#45;&gt;Node1 -->
<g id="edge1_Node000001_Node000002" class="edge">
<title>Node2&#45;&gt;Node1</title>
<g id="a_edge1_Node000001_Node000002"><a xlink:title=" ">
<path fill="none" stroke="#63b8ff" d="M2137.26,-593.39C2165.37,-482.47 2263.76,-94.32 2281.78,-23.23"/>
<polygon fill="#63b8ff" stroke="#63b8ff" points="2133.91,-592.36 2134.84,-602.91 2140.69,-594.08 2133.91,-592.36"/>
</a>
</g>
</g>
<!-- Node3 -->
<g id="Node000003" class="node">
<title>Node3</title>
<g id="a_Node000003"><a xlink:href="class_c_p_s_1_1_sim_power_comp.html" target="_top" xlink:title=" ">
<polygon fill="white" stroke="#666666" points="2023.75,-378.25 1905,-378.25 1905,-341.75 2023.75,-341.75 2023.75,-378.25"/>
<text text-anchor="start" x="1913" y="-364.75" font-family="Helvetica,sans-Serif" font-size="10.00">CPS::SimPowerComp&lt;</text>
<text text-anchor="middle" x="1964.38" y="-350.5" font-family="Helvetica,sans-Serif" font-size="10.00"> Complex &gt;</text>
</a>
</g>
</g>
<!-- Node3&#45;&gt;Node2 -->
<g id="edge2_Node000002_Node000003" class="edge">
<title>Node3&#45;&gt;Node2</title>
<g id="a_edge2_Node000002_Node000003"><a xlink:title=" ">
<path fill="none" stroke="#63b8ff" d="M1982.74,-388.12C2016.1,-442.16 2088.35,-559.18 2116.34,-604.53"/>
<polygon fill="#63b8ff" stroke="#63b8ff" points="1985.82,-386.45 1977.59,-379.78 1979.86,-390.13 1985.82,-386.45"/>
</a>
</g>
</g>
<!-- Node4 -->
<g id="Node000004" class="node">
<title>Node4</title>
<g id="a_Node000004"><a xlink:href="class_c_p_s_1_1_topological_power_comp.html" target="_top" xlink:title=" ">
<polygon fill="white" stroke="#666666" points="1218,-350.12 1070.75,-350.12 1070.75,-327.88 1218,-327.88 1218,-350.12"/>
<text text-anchor="middle" x="1144.38" y="-336.62" font-family="Helvetica,sans-Serif" font-size="10.00">CPS::TopologicalPowerComp</text>
</a>
</g>
</g>
<!-- Node4&#45;&gt;Node3 -->
<g id="edge3_Node000003_Node000004" class="edge">
<title>Node4&#45;&gt;Node3</title>
<g id="a_edge3_Node000003_Node000004"><a xlink:title=" ">
<path fill="none" stroke="#63b8ff" d="M1229.45,-341.16C1395.54,-345.42 1761.94,-354.83 1904.76,-358.5"/>
<polygon fill="#63b8ff" stroke="#63b8ff" points="1229.93,-337.67 1219.84,-340.91 1229.75,-344.67 1229.93,-337.67"/>
</a>
</g>
</g>
<!-- Node30 -->
<g id="Node000030" class="node">
<title>Node30</title>
<g id="a_Node000030"><a xlink:href="class_c_p_s_1_1_sim_power_comp.html" target="_top" xlink:title="Base class for all components that are transmitting power.">
<polygon fill="white" stroke="#666666" points="1535.75,-488.25 1417,-488.25 1417,-451.75 1535.75,-451.75 1535.75,-488.25"/>
<text text-anchor="start" x="1425" y="-474.75" font-family="Helvetica,sans-Serif" font-size="10.00">CPS::SimPowerComp&lt;</text>
<text text-anchor="middle" x="1476.38" y="-460.5" font-family="Helvetica,sans-Serif" font-size="10.00"> VarType &gt;</text>
</a>
</g>
</g>
<!-- Node4&#45;&gt;Node30 -->
<g id="edge43_Node000030_Node000004" class="edge">
<title>Node4&#45;&gt;Node30</title>
<g id="a_edge43_Node000030_Node000004"><a xlink:title=" ">
<path fill="none" stroke="#63b8ff" d="M1154.93,-360.48C1168.51,-388.11 1196.25,-435.05 1236,-456 1291.98,-485.5 1365.87,-484.91 1416.67,-479.55"/>
<polygon fill="#63b8ff" stroke="#63b8ff" points="1158.2,-359.2 1150.77,-351.64 1151.86,-362.18 1158.2,-359.2"/>
</a>
</g>
</g>
<!-- Node35 -->
<g id="Node000035" class="node">
<title>Node35</title>
<g id="a_Node000035"><a xlink:href="class_c_p_s_1_1_sim_power_comp.html" target="_top" xlink:title="Base class for all components that are transmitting power.">
<polygon fill="white" stroke="#666666" points="1535.75,-596.25 1417,-596.25 1417,-559.75 1535.75,-559.75 1535.75,-596.25"/>
<text text-anchor="start" x="1425" y="-582.75" font-family="Helvetica,sans-Serif" font-size="10.00">CPS::SimPowerComp&lt;</text>
<text text-anchor="middle" x="1476.38" y="-568.5" font-family="Helvetica,sans-Serif" font-size="10.00"> VarType &gt;</text>
</a>
</g>
</g>
<!-- Node4&#45;&gt;Node35 -->
<g id="edge52_Node000035_Node000004" class="edge">
<title>Node4&#45;&gt;Node35</title>
<g id="a_edge52_Node000035_Node000004"><a xlink:title=" ">
<path fill="none" stroke="#63b8ff" d="M1152.91,-360.89C1165.08,-392.75 1192.22,-451.35 1236,-481 1291.16,-518.36 1322.3,-482.12 1383.25,-509 1411.22,-521.34 1438.67,-543.57 1456.22,-559.47"/>
<polygon fill="#63b8ff" stroke="#63b8ff" points="1156.34,-360.07 1149.62,-351.88 1149.76,-362.47 1156.34,-360.07"/>
</a>
</g>
</g>
<!-- Node5 -->
<g id="Node000005" class="node">
<title>Node5</title>
<g id="a_Node000005"><a xlink:href="class_c_p_s_1_1_identified_object.html" target="_top" xlink:title=" ">
<polygon fill="white" stroke="#666666" points="890.38,-310.12 775.38,-310.12 775.38,-287.88 890.38,-287.88 890.38,-310.12"/>
<text text-anchor="middle" x="832.88" y="-296.62" font-family="Helvetica,sans-Serif" font-size="10.00">CPS::IdentifiedObject</text>
</a>
</g>
</g>
<!-- Node5&#45;&gt;Node4 -->
<g id="edge4_Node000004_Node000005" class="edge">
<title>Node5&#45;&gt;Node4</title>
<g id="a_edge4_Node000004_Node000005"><a xlink:title=" ">
<path fill="none" stroke="#63b8ff" d="M901.93,-310.16C908.54,-311.16 915.15,-312.12 921.5,-313 971.06,-319.86 1027.01,-326.41 1070.33,-331.22"/>
<polygon fill="#63b8ff" stroke="#63b8ff" points="902.77,-306.75 892.35,-308.69 901.71,-313.67 902.77,-306.75"/>
</a>
</g>
</g>
<!-- Node12 -->
<g id="Node000012" class="node">
<title>Node12</title>
<g id="a_Node000012"><a xlink:href="class_c_p_s_1_1_topological_terminal.html" target="_top" xlink:title=" ">
<polygon fill="white" stroke="#bfbfbf" points="1209.38,-310.12 1079.38,-310.12 1079.38,-287.88 1209.38,-287.88 1209.38,-310.12"/>
<text text-anchor="middle" x="1144.38" y="-296.62" font-family="Helvetica,sans-Serif" font-size="10.00">CPS::TopologicalTerminal</text>
</a>
</g>
</g>
<!-- Node5&#45;&gt;Node12 -->
<g id="edge13_Node000012_Node000005" class="edge">
<title>Node5&#45;&gt;Node12</title>
<g id="a_edge13_Node000012_Node000005"><a xlink:title=" ">
<path fill="none" stroke="#63b8ff" d="M901.91,-299C954.63,-299 1027.17,-299 1078.95,-299"/>
<polygon fill="#63b8ff" stroke="#63b8ff" points="902.16,-295.5 892.16,-299 902.16,-302.5 902.16,-295.5"/>
</a>
</g>
</g>
<!-- Node18 -->
<g id="Node000018" class="node">
<title>Node18</title>
<g id="a_Node000018"><a xlink:href="class_c_p_s_1_1_topological_node.html" target="_top" xlink:title=" ">
<polygon fill="white" stroke="#bfbfbf" points="1202.25,-176.12 1086.5,-176.12 1086.5,-153.88 1202.25,-153.88 1202.25,-176.12"/>
<text text-anchor="middle" x="1144.38" y="-162.62" font-family="Helvetica,sans-Serif" font-size="10.00">CPS::TopologicalNode</text>
</a>
</g>
</g>
<!-- Node5&#45;&gt;Node18 -->
<g id="edge22_Node000018_Node000005" class="edge">
<title>Node5&#45;&gt;Node18</title>
<g id="a_edge22_Node000018_Node000005"><a xlink:title=" ">
<path fill="none" stroke="#63b8ff" d="M859.53,-280.56C873.52,-269.73 890.58,-255.21 903.5,-240 913.57,-228.15 908.8,-218.97 921.5,-210 947.5,-191.63 1029.44,-178.49 1086.12,-171.31"/>
<polygon fill="#63b8ff" stroke="#63b8ff" points="857.5,-277.71 851.62,-286.52 861.71,-283.3 857.5,-277.71"/>
</a>
</g>
</g>
<!-- Node6 -->
<g id="Node000006" class="node">
<title>Node6</title>
<g id="a_Node000006"><a xlink:href="class_c_p_s_1_1_attribute.html" target="_top" xlink:title=" ">
<polygon fill="white" stroke="#666666" points="592.38,-310.12 466.12,-310.12 466.12,-287.88 592.38,-287.88 592.38,-310.12"/>
<text text-anchor="middle" x="529.25" y="-296.62" font-family="Helvetica,sans-Serif" font-size="10.00">CPS::Attribute&lt; String &gt;</text>
</a>
</g>
</g>
<!-- Node6&#45;&gt;Node5 -->
<g id="edge5_Node000005_Node000006" class="edge">
<title>Node6&#45;&gt;Node5</title>
<g id="a_edge5_Node000005_Node000006"><a xlink:title=" ">
<path fill="none" stroke="#9a32cd" stroke-dasharray="5,2" d="M604.06,-299C656.78,-299 726.66,-299 775.06,-299"/>
<polygon fill="#9a32cd" stroke="#9a32cd" points="604.26,-295.5 594.26,-299 604.26,-302.5 604.26,-295.5"/>
</a>
</g>
<text text-anchor="middle" x="684.62" y="-318" font-family="Helvetica,sans-Serif" font-size="10.00" fill="grey"> mName</text>
<text text-anchor="middle" x="684.62" y="-303.75" font-family="Helvetica,sans-Serif" font-size="10.00" fill="grey">mUID</text>
</g>
<!-- Node7 -->
<g id="Node000007" class="node">
<title>Node7</title>
<g id="a_Node000007"><a xlink:href="class_c_p_s_1_1_attribute_base.html" target="_top" xlink:title=" ">
<polygon fill="white" stroke="#666666" points="109.75,-447.12 5.25,-447.12 5.25,-424.88 109.75,-424.88 109.75,-447.12"/>
<text text-anchor="middle" x="57.5" y="-433.62" font-family="Helvetica,sans-Serif" font-size="10.00">CPS::AttributeBase</text>
</a>
</g>
</g>
<!-- Node7&#45;&gt;Node6 -->
<g id="edge6_Node000006_Node000007" class="edge">
<title>Node7&#45;&gt;Node6</title>
<g id="a_edge6_Node000006_Node000007"><a xlink:title=" ">
<path fill="none" stroke="#63b8ff" d="M71.39,-415.02C87.21,-391.3 116.37,-353.55 152,-335 252.11,-282.88 387.54,-284.55 465.64,-291.25"/>
<polygon fill="#63b8ff" stroke="#63b8ff" points="68.56,-412.95 66.09,-423.26 74.45,-416.75 68.56,-412.95"/>
</a>
</g>
</g>
<!-- Node9 -->
<g id="Node000009" class="node">
<title>Node9</title>
<g id="a_Node000009"><a xlink:href="class_c_p_s_1_1_attribute.html" target="_top" xlink:title=" ">
<polygon fill="white" stroke="#666666" points="275.25,-366.12 171.5,-366.12 171.5,-343.88 275.25,-343.88 275.25,-366.12"/>
<text text-anchor="middle" x="223.38" y="-352.62" font-family="Helvetica,sans-Serif" font-size="10.00">CPS::Attribute&lt; T &gt;</text>
</a>
</g>
</g>
<!-- Node7&#45;&gt;Node9 -->
<g id="edge9_Node000009_Node000007" class="edge">
<title>Node7&#45;&gt;Node9</title>
<g id="a_edge9_Node000009_Node000007"><a xlink:title=" ">
<path fill="none" stroke="#63b8ff" d="M82.9,-417.63C101.15,-404.57 127.15,-387.4 152,-376 159.76,-372.44 168.28,-369.3 176.63,-366.61"/>
<polygon fill="#63b8ff" stroke="#63b8ff" points="80.86,-414.79 74.83,-423.5 84.98,-420.45 80.86,-414.79"/>
</a>
</g>
</g>
<!-- Node19 -->
<g id="Node000019" class="node">
<title>Node19</title>
<g id="a_Node000019"><a xlink:href="class_c_p_s_1_1_attribute.html" target="_top" xlink:title=" ">
<polygon fill="white" stroke="#666666" points="607,-136.12 451.5,-136.12 451.5,-113.88 607,-113.88 607,-136.12"/>
<text text-anchor="middle" x="529.25" y="-122.62" font-family="Helvetica,sans-Serif" font-size="10.00">CPS::Attribute&lt; MatrixComp &gt;</text>
</a>
</g>
</g>
<!-- Node7&#45;&gt;Node19 -->
<g id="edge24_Node000019_Node000007" class="edge">
<title>Node7&#45;&gt;Node19</title>
<g id="a_edge24_Node000019_Node000007"><a xlink:title=" ">
<path fill="none" stroke="#63b8ff" d="M69.76,-414.27C82.27,-389.39 102.38,-347.15 115,-309 138.61,-237.65 94.53,-192.43 152,-144 249.02,-62.23 415.07,-93.48 489.81,-113.41"/>
<polygon fill="#63b8ff" stroke="#63b8ff" points="66.71,-412.56 65.29,-423.06 72.94,-415.73 66.71,-412.56"/>
</a>
</g>
</g>
<!-- Node26 -->
<g id="Node000026" class="node">
<title>Node26</title>
<g id="a_Node000026"><a xlink:href="class_c_p_s_1_1_attribute.html" target="_top" xlink:title=" ">
<polygon fill="white" stroke="#666666" points="1212.38,-517.25 1076.38,-517.25 1076.38,-480.75 1212.38,-480.75 1212.38,-517.25"/>
<text text-anchor="start" x="1084.38" y="-503.75" font-family="Helvetica,sans-Serif" font-size="10.00">CPS::Attribute&lt; MatrixVar</text>
<text text-anchor="middle" x="1144.38" y="-489.5" font-family="Helvetica,sans-Serif" font-size="10.00">&lt; VarType &gt; &gt;</text>
</a>
</g>
</g>
<!-- Node7&#45;&gt;Node26 -->
<g id="edge35_Node000026_Node000007" class="edge">
<title>Node7&#45;&gt;Node26</title>
<g id="a_edge35_Node000026_Node000007"><a xlink:title=" ">
<path fill="none" stroke="#63b8ff" d="M78.05,-455.06C107.03,-481.21 164.24,-525 222.38,-525 222.38,-525 222.38,-525 833.88,-525 917.45,-525 1013.28,-515.47 1075.89,-507.95"/>
<polygon fill="#63b8ff" stroke="#63b8ff" points="80.49,-452.55 70.78,-448.3 75.72,-457.67 80.49,-452.55"/>
</a>
</g>
</g>
<!-- Node28 -->
<g id="Node000028" class="node">
<title>Node28</title>
<g id="a_Node000028"><a xlink:href="class_c_p_s_1_1_attribute.html" target="_top" xlink:title=" ">
<polygon fill="white" stroke="#666666" points="597.25,-433.25 461.25,-433.25 461.25,-396.75 597.25,-396.75 597.25,-433.25"/>
<text text-anchor="start" x="469.25" y="-419.75" font-family="Helvetica,sans-Serif" font-size="10.00">CPS::Attribute&lt; MatrixVar</text>
<text text-anchor="middle" x="529.25" y="-405.5" font-family="Helvetica,sans-Serif" font-size="10.00">&lt; Complex &gt; &gt;</text>
</a>
</g>
</g>
<!-- Node7&#45;&gt;Node28 -->
<g id="edge39_Node000028_Node000007" class="edge">
<title>Node7&#45;&gt;Node28</title>
<g id="a_edge39_Node000028_Node000007"><a xlink:title=" ">
<path fill="none" stroke="#63b8ff" d="M121.31,-442.11C131.55,-442.9 142.07,-443.58 152,-444 215.39,-446.71 231.43,-447.92 294.75,-444 350.91,-440.53 414.24,-432.39 460.76,-425.62"/>
<polygon fill="#63b8ff" stroke="#63b8ff" points="121.65,-438.63 111.4,-441.31 121.08,-445.61 121.65,-438.63"/>
</a>
</g>
</g>
<!-- Node32 -->
<g id="Node000032" class="node">
<title>Node32</title>
<g id="a_Node000032"><a xlink:href="class_c_p_s_1_1_attribute.html" target="_top" xlink:title=" ">
<polygon fill="white" stroke="#666666" points="593.5,-633.12 465,-633.12 465,-610.88 593.5,-610.88 593.5,-633.12"/>
<text text-anchor="middle" x="529.25" y="-619.62" font-family="Helvetica,sans-Serif" font-size="10.00">CPS::Attribute&lt; Matrix &gt;</text>
</a>
</g>
</g>
<!-- Node7&#45;&gt;Node32 -->
<g id="edge47_Node000032_Node000007" class="edge">
<title>Node7&#45;&gt;Node32</title>
<g id="a_edge47_Node000032_Node000007"><a xlink:title=" ">
<path fill="none" stroke="#63b8ff" d="M68.13,-457.58C79.91,-481.39 102.16,-518.98 133,-539 187.11,-574.12 367.62,-601.64 464.88,-614.33"/>
<polygon fill="#63b8ff" stroke="#63b8ff" points="71.41,-456.34 63.97,-448.8 65.08,-459.33 71.41,-456.34"/>
</a>
</g>
</g>
<!-- Node8 -->
<g id="Node000008" class="node">
<title>Node8</title>
<g id="a_Node000008"><a xlink:title=" ">
<polygon fill="white" stroke="#bfbfbf" points="280.88,-272.38 165.88,-272.38 165.88,-221.62 280.88,-221.62 280.88,-272.38"/>
<text text-anchor="start" x="173.88" y="-258.88" font-family="Helvetica,sans-Serif" font-size="10.00">std::enable_shared</text>
<text text-anchor="start" x="173.88" y="-244.62" font-family="Helvetica,sans-Serif" font-size="10.00">_from_this&lt; Attribute</text>
<text text-anchor="middle" x="223.38" y="-230.38" font-family="Helvetica,sans-Serif" font-size="10.00">&lt; String &gt; &gt;</text>
</a>
</g>
</g>
<!-- Node8&#45;&gt;Node6 -->
<g id="edge7_Node000006_Node000008" class="edge">
<title>Node8&#45;&gt;Node6</title>
<g id="a_edge7_Node000006_Node000008"><a xlink:title=" ">
<path fill="none" stroke="#63b8ff" d="M292.28,-258.62C344.18,-267.5 415.18,-279.65 465.71,-288.3"/>
<polygon fill="#63b8ff" stroke="#63b8ff" points="293.11,-255.21 282.67,-256.98 291.93,-262.11 293.11,-255.21"/>
</a>
</g>
</g>
<!-- Node9&#45;&gt;Node6 -->
<g id="edge8_Node000006_Node000009" class="edge">
<title>Node9&#45;&gt;Node6</title>
<g id="a_edge8_Node000006_Node000009"><a xlink:title=" ">
<path fill="none" stroke="orange" stroke-dasharray="5,2" d="M278.06,-340.65C289.47,-337.84 301.47,-335.05 312.75,-332.75 363.96,-322.32 422.58,-313.32 465.74,-307.25"/>
<polygon fill="orange" stroke="orange" points="277.21,-337.26 268.37,-343.09 278.92,-344.04 277.21,-337.26"/>
</a>
</g>
<text text-anchor="middle" x="373.12" y="-337.5" font-family="Helvetica,sans-Serif" font-size="10.00" fill="grey"> &lt; String &gt;</text>
</g>
<!-- Node9&#45;&gt;Node19 -->
<g id="edge26_Node000019_Node000009" class="edge">
<title>Node9&#45;&gt;Node19</title>
<g id="a_edge26_Node000019_Node000009"><a xlink:title=" ">
<path fill="none" stroke="orange" stroke-dasharray="5,2" d="M248.58,-336.68C308.78,-291.11 463.95,-173.67 513.09,-136.47"/>
<polygon fill="orange" stroke="orange" points="246.51,-333.85 240.65,-342.68 250.74,-339.44 246.51,-333.85"/>
</a>
</g>
<text text-anchor="middle" x="373.12" y="-291.79" font-family="Helvetica,sans-Serif" font-size="10.00" fill="grey"> &lt; MatrixComp &gt;</text>
</g>
<!-- Node9&#45;&gt;Node26 -->
<g id="edge37_Node000026_Node000009" class="edge">
<title>Node9&#45;&gt;Node26</title>
<g id="a_edge37_Node000026_Node000009"><a xlink:title=" ">
<path fill="none" stroke="orange" stroke-dasharray="5,2" d="M286.81,-358.83C362.69,-363.83 494.55,-373.69 607,-388 739.57,-404.87 772.74,-410.4 903.5,-438 962.15,-450.38 1028.11,-467.38 1076,-480.29"/>
<polygon fill="orange" stroke="orange" points="287.29,-355.35 277.08,-358.19 286.84,-362.33 287.29,-355.35"/>
</a>
</g>
<text text-anchor="middle" x="684.62" y="-411.52" font-family="Helvetica,sans-Serif" font-size="10.00" fill="grey"> &lt; MatrixVar&lt; VarType &gt; &gt;</text>
</g>
<!-- Node9&#45;&gt;Node28 -->
<g id="edge41_Node000028_Node000009" class="edge">
<title>Node9&#45;&gt;Node28</title>
<g id="a_edge41_Node000028_Node000009"><a xlink:title=" ">
<path fill="none" stroke="orange" stroke-dasharray="5,2" d="M287,-367.21C295.64,-368.84 304.41,-370.48 312.75,-372 366.32,-381.75 380.14,-381.91 433.5,-392.75 442.36,-394.55 451.65,-396.57 460.81,-398.64"/>
<polygon fill="orange" stroke="orange" points="287.71,-363.78 277.23,-365.34 286.4,-370.66 287.71,-363.78"/>
</a>
</g>
<text text-anchor="middle" x="373.12" y="-397.5" font-family="Helvetica,sans-Serif" font-size="10.00" fill="grey"> &lt; MatrixVar&lt; Complex &gt; &gt;</text>
</g>
<!-- Node9&#45;&gt;Node32 -->
<g id="edge49_Node000032_Node000009" class="edge">
<title>Node9&#45;&gt;Node32</title>
<g id="a_edge49_Node000032_Node000009"><a xlink:title=" ">
<path fill="none" stroke="orange" stroke-dasharray="5,2" d="M286,-369.95C289.1,-371.74 292.04,-373.75 294.75,-376 308.21,-387.17 302.37,-396.92 312.75,-411 346,-456.09 474.25,-573.24 515.44,-610.47"/>
<polygon fill="orange" stroke="orange" points="287.58,-366.83 277.06,-365.59 284.51,-373.12 287.58,-366.83"/>
</a>
</g>
<text text-anchor="middle" x="373.12" y="-535.93" font-family="Helvetica,sans-Serif" font-size="10.00" fill="grey"> &lt; Matrix &gt;</text>
</g>
<!-- Node10 -->
<g id="Node000010" class="node">
<title>Node10</title>
<g id="a_Node000010"><a xlink:title=" ">
<polygon fill="white" stroke="#bfbfbf" points="115,-300.38 0,-300.38 0,-249.62 115,-249.62 115,-300.38"/>
<text text-anchor="start" x="8" y="-286.88" font-family="Helvetica,sans-Serif" font-size="10.00">std::enable_shared</text>
<text text-anchor="start" x="8" y="-272.62" font-family="Helvetica,sans-Serif" font-size="10.00">_from_this&lt; Attribute</text>
<text text-anchor="middle" x="57.5" y="-258.38" font-family="Helvetica,sans-Serif" font-size="10.00">&lt; T &gt; &gt;</text>
</a>
</g>
</g>
<!-- Node10&#45;&gt;Node9 -->
<g id="edge10_Node000009_Node000010" class="edge">
<title>Node10&#45;&gt;Node9</title>
<g id="a_edge10_Node000009_Node000010"><a xlink:title=" ">
<path fill="none" stroke="#63b8ff" d="M121.5,-305.75C148.68,-319.02 178.8,-333.73 198.99,-343.58"/>
<polygon fill="#63b8ff" stroke="#63b8ff" points="123.14,-302.66 112.61,-301.42 120.06,-308.95 123.14,-302.66"/>
</a>
</g>
</g>
<!-- Node11 -->
<g id="Node000011" class="node">
<title>Node11</title>
<g id="a_Node000011"><a xlink:href="class_c_p_s_1_1_sim_terminal.html" target="_top" xlink:title=" ">
<polygon fill="white" stroke="#bfbfbf" points="1797.75,-295.12 1646,-295.12 1646,-272.88 1797.75,-272.88 1797.75,-295.12"/>
<text text-anchor="middle" x="1721.88" y="-281.62" font-family="Helvetica,sans-Serif" font-size="10.00">CPS::SimTerminal&lt; Complex &gt;</text>
</a>
</g>
</g>
<!-- Node11&#45;&gt;Node3 -->
<g id="edge11_Node000003_Node000011" class="edge">
<title>Node11&#45;&gt;Node3</title>
<g id="a_edge11_Node000003_Node000011"><a xlink:title=" ">
<path fill="none" stroke="#9a32cd" stroke-dasharray="5,2" d="M1809.21,-292.82C1834.8,-297.1 1862.51,-303.43 1887,-312.75 1905.51,-319.79 1924.45,-331.48 1938.84,-341.46"/>
<polygon fill="#9a32cd" stroke="#9a32cd" points="1809.93,-289.39 1799.51,-291.29 1808.84,-296.3 1809.93,-289.39"/>
</a>
</g>
<text text-anchor="middle" x="1851.38" y="-317.5" font-family="Helvetica,sans-Serif" font-size="10.00" fill="grey"> mTerminals</text>
</g>
<!-- Node12&#45;&gt;Node11 -->
<g id="edge12_Node000011_Node000012" class="edge">
<title>Node12&#45;&gt;Node11</title>
<g id="a_edge12_Node000011_Node000012"><a xlink:title=" ">
<path fill="none" stroke="#63b8ff" d="M1221.29,-297.29C1316.36,-295.1 1484.24,-291.11 1628,-287 1633.72,-286.84 1639.65,-286.66 1645.6,-286.48"/>
<polygon fill="#63b8ff" stroke="#63b8ff" points="1221.21,-293.79 1211.3,-297.52 1221.37,-300.79 1221.21,-293.79"/>
</a>
</g>
</g>
<!-- Node15 -->
<g id="Node000015" class="node">
<title>Node15</title>
<g id="a_Node000015"><a xlink:href="class_c_p_s_1_1_sim_terminal.html" target="_top" xlink:title=" ">
<polygon fill="white" stroke="#bfbfbf" points="1551.5,-237.12 1401.25,-237.12 1401.25,-214.88 1551.5,-214.88 1551.5,-237.12"/>
<text text-anchor="middle" x="1476.38" y="-223.62" font-family="Helvetica,sans-Serif" font-size="10.00">CPS::SimTerminal&lt; VarType &gt;</text>
</a>
</g>
</g>
<!-- Node12&#45;&gt;Node15 -->
<g id="edge17_Node000015_Node000012" class="edge">
<title>Node12&#45;&gt;Node15</title>
<g id="a_edge17_Node000015_Node000012"><a xlink:title=" ">
<path fill="none" stroke="#63b8ff" d="M1221.23,-292.63C1268.44,-287.49 1330.08,-278.64 1383.25,-264 1407.44,-257.34 1433.78,-246.03 1452.08,-237.48"/>
<polygon fill="#63b8ff" stroke="#63b8ff" points="1220.95,-289.14 1211.37,-293.66 1221.68,-296.1 1220.95,-289.14"/>
</a>
</g>
</g>
<!-- Node13 -->
<g id="Node000013" class="node">
<title>Node13</title>
<g id="a_Node000013"><a xlink:href="class_shared_factory.html" target="_top" xlink:title=" ">
<polygon fill="white" stroke="#666666" points="1383.25,-263.25 1236,-263.25 1236,-226.75 1383.25,-226.75 1383.25,-263.25"/>
<text text-anchor="start" x="1244" y="-249.75" font-family="Helvetica,sans-Serif" font-size="10.00">SharedFactory&lt; SimTerminal</text>
<text text-anchor="middle" x="1309.62" y="-235.5" font-family="Helvetica,sans-Serif" font-size="10.00">&lt; Complex &gt; &gt;</text>
</a>
</g>
</g>
<!-- Node13&#45;&gt;Node11 -->
<g id="edge14_Node000011_Node000013" class="edge">
<title>Node13&#45;&gt;Node11</title>
<g id="a_edge14_Node000011_Node000013"><a xlink:title=" ">
<path fill="none" stroke="#63b8ff" d="M1394.58,-252.98C1468.29,-259.99 1574.55,-270.09 1645.56,-276.84"/>
<polygon fill="#63b8ff" stroke="#63b8ff" points="1395.29,-249.53 1385,-252.07 1394.63,-256.5 1395.29,-249.53"/>
</a>
</g>
</g>
<!-- Node14 -->
<g id="Node000014" class="node">
<title>Node14</title>
<g id="a_Node000014"><a xlink:href="class_shared_factory.html" target="_top" xlink:title=" ">
<polygon fill="white" stroke="#666666" points="885.12,-231.12 780.62,-231.12 780.62,-208.88 885.12,-208.88 885.12,-231.12"/>
<text text-anchor="middle" x="832.88" y="-217.62" font-family="Helvetica,sans-Serif" font-size="10.00">SharedFactory&lt; T &gt;</text>
</a>
</g>
</g>
<!-- Node14&#45;&gt;Node13 -->
<g id="edge15_Node000013_Node000014" class="edge">
<title>Node14&#45;&gt;Node13</title>
<g id="a_edge15_Node000013_Node000014"><a xlink:title=" ">
<path fill="none" stroke="orange" stroke-dasharray="5,2" d="M896.76,-232.71C905.05,-234.02 913.46,-235.18 921.5,-236 1030.51,-247.15 1157.65,-247.75 1235.63,-246.71"/>
<polygon fill="orange" stroke="orange" points="897.51,-229.29 887.07,-231.08 896.35,-236.19 897.51,-229.29"/>
</a>
</g>
<text text-anchor="middle" x="987.12" y="-249.4" font-family="Helvetica,sans-Serif" font-size="10.00" fill="grey"> &lt; SimTerminal&lt; Complex &gt; &gt;</text>
</g>
<!-- Node16 -->
<g id="Node000016" class="node">
<title>Node16</title>
<g id="a_Node000016"><a xlink:href="class_shared_factory.html" target="_top" xlink:title=" ">
<polygon fill="white" stroke="#666666" points="1218,-230.25 1070.75,-230.25 1070.75,-193.75 1218,-193.75 1218,-230.25"/>
<text text-anchor="start" x="1078.75" y="-216.75" font-family="Helvetica,sans-Serif" font-size="10.00">SharedFactory&lt; SimTerminal</text>
<text text-anchor="middle" x="1144.38" y="-202.5" font-family="Helvetica,sans-Serif" font-size="10.00">&lt; VarType &gt; &gt;</text>
</a>
</g>
</g>
<!-- Node14&#45;&gt;Node16 -->
<g id="edge19_Node000016_Node000014" class="edge">
<title>Node14&#45;&gt;Node16</title>
<g id="a_edge19_Node000016_Node000014"><a xlink:title=" ">
<path fill="none" stroke="orange" stroke-dasharray="5,2" d="M896.69,-218.38C946.97,-217.08 1017.56,-215.25 1070.35,-213.89"/>
<polygon fill="orange" stroke="orange" points="896.75,-214.87 886.84,-218.63 896.93,-221.87 896.75,-214.87"/>
</a>
</g>
<text text-anchor="middle" x="987.12" y="-222.39" font-family="Helvetica,sans-Serif" font-size="10.00" fill="grey"> &lt; SimTerminal&lt; VarType &gt; &gt;</text>
</g>
<!-- Node25 -->
<g id="Node000025" class="node">
<title>Node25</title>
<g id="a_Node000025"><a xlink:href="class_shared_factory.html" target="_top" xlink:title=" ">
<polygon fill="white" stroke="#666666" points="1210.88,-66.25 1077.88,-66.25 1077.88,-29.75 1210.88,-29.75 1210.88,-66.25"/>
<text text-anchor="start" x="1085.88" y="-52.75" font-family="Helvetica,sans-Serif" font-size="10.00">SharedFactory&lt; SimNode</text>
<text text-anchor="middle" x="1144.38" y="-38.5" font-family="Helvetica,sans-Serif" font-size="10.00">&lt; VarType &gt; &gt;</text>
</a>
</g>
</g>
<!-- Node14&#45;&gt;Node25 -->
<g id="edge33_Node000025_Node000014" class="edge">
<title>Node14&#45;&gt;Node25</title>
<g id="a_edge33_Node000025_Node000014"><a xlink:title=" ">
<path fill="none" stroke="orange" stroke-dasharray="5,2" d="M858.26,-201.93C875.59,-189.35 899.58,-172.44 921.5,-158.75 985.84,-118.58 1002.03,-108.11 1070.75,-76 1077.61,-72.8 1084.94,-69.65 1092.21,-66.7"/>
<polygon fill="orange" stroke="orange" points="856.6,-198.81 850.59,-207.54 860.73,-204.46 856.6,-198.81"/>
</a>
</g>
<text text-anchor="middle" x="987.12" y="-163.5" font-family="Helvetica,sans-Serif" font-size="10.00" fill="grey"> &lt; SimNode&lt; VarType &gt; &gt;</text>
</g>
<!-- Node15&#45;&gt;Node11 -->
<g id="edge16_Node000011_Node000015" class="edge">
<title>Node15&#45;&gt;Node11</title>
<g id="a_edge16_Node000011_Node000015"><a xlink:title=" ">
<path fill="none" stroke="orange" stroke-dasharray="5,2" d="M1563.32,-226.21C1584.74,-227.87 1607.44,-231.04 1628,-236.75 1656.06,-244.55 1685.56,-261.22 1703.59,-272.53"/>
<polygon fill="orange" stroke="orange" points="1563.64,-222.73 1553.43,-225.56 1563.18,-229.71 1563.64,-222.73"/>
</a>
</g>
<text text-anchor="middle" x="1598.75" y="-241.5" font-family="Helvetica,sans-Serif" font-size="10.00" fill="grey"> &lt; Complex &gt;</text>
</g>
<!-- Node16&#45;&gt;Node15 -->
<g id="edge18_Node000015_Node000016" class="edge">
<title>Node16&#45;&gt;Node15</title>
<g id="a_edge18_Node000015_Node000016"><a xlink:title=" ">
<path fill="none" stroke="#63b8ff" d="M1229.6,-215.57C1282.5,-217.82 1350.11,-220.69 1401.02,-222.85"/>
<polygon fill="#63b8ff" stroke="#63b8ff" points="1229.86,-212.08 1219.72,-215.15 1229.56,-219.07 1229.86,-212.08"/>
</a>
</g>
</g>
<!-- Node17 -->
<g id="Node000017" class="node">
<title>Node17</title>
<g id="a_Node000017"><a xlink:href="class_c_p_s_1_1_sim_node.html" target="_top" xlink:title=" ">
<polygon fill="white" stroke="#bfbfbf" points="1790.62,-145.12 1653.12,-145.12 1653.12,-122.88 1790.62,-122.88 1790.62,-145.12"/>
<text text-anchor="middle" x="1721.88" y="-131.62" font-family="Helvetica,sans-Serif" font-size="10.00">CPS::SimNode&lt; Complex &gt;</text>
</a>
</g>
</g>
<!-- Node17&#45;&gt;Node3 -->
<g id="edge20_Node000003_Node000017" class="edge">
<title>Node17&#45;&gt;Node3</title>
<g id="a_edge20_Node000003_Node000017"><a xlink:title=" ">
<path fill="none" stroke="#9a32cd" stroke-dasharray="5,2" d="M1746.23,-152.65C1778.78,-178.98 1839.19,-229.07 1887,-275.75 1909.04,-297.26 1932.58,-323.84 1947.61,-341.33"/>
<polygon fill="#9a32cd" stroke="#9a32cd" points="1748.6,-150.07 1738.62,-146.52 1744.21,-155.52 1748.6,-150.07"/>
</a>
</g>
<text text-anchor="middle" x="1851.38" y="-280.5" font-family="Helvetica,sans-Serif" font-size="10.00" fill="grey"> mVirtualNodes</text>
</g>
<!-- Node18&#45;&gt;Node17 -->
<g id="edge21_Node000017_Node000018" class="edge">
<title>Node18&#45;&gt;Node17</title>
<g id="a_edge21_Node000017_Node000018"><a xlink:title=" ">
<path fill="none" stroke="#63b8ff" d="M1213.74,-169.92C1294.62,-174.73 1433.22,-179.75 1551.5,-168 1594.18,-163.76 1642.03,-153.65 1675.95,-145.55"/>
<polygon fill="#63b8ff" stroke="#63b8ff" points="1214.43,-166.46 1204.23,-169.34 1214,-173.45 1214.43,-166.46"/>
</a>
</g>
</g>
<!-- Node23 -->
<g id="Node000023" class="node">
<title>Node23</title>
<g id="a_Node000023"><a xlink:href="class_c_p_s_1_1_sim_node.html" target="_top" xlink:title=" ">
<polygon fill="white" stroke="#bfbfbf" points="1544.38,-90.12 1408.38,-90.12 1408.38,-67.88 1544.38,-67.88 1544.38,-90.12"/>
<text text-anchor="middle" x="1476.38" y="-76.62" font-family="Helvetica,sans-Serif" font-size="10.00">CPS::SimNode&lt; VarType &gt;</text>
</a>
</g>
</g>
<!-- Node18&#45;&gt;Node23 -->
<g id="edge30_Node000023_Node000018" class="edge">
<title>Node18&#45;&gt;Node23</title>
<g id="a_edge30_Node000023_Node000018"><a xlink:title=" ">
<path fill="none" stroke="#63b8ff" d="M1213.64,-152.11C1261.71,-142.19 1327.21,-126.99 1383.25,-108 1391.54,-105.19 1393.02,-102.98 1401.25,-100 1410.68,-96.59 1420.95,-93.37 1430.76,-90.53"/>
<polygon fill="#63b8ff" stroke="#63b8ff" points="1213.02,-148.66 1203.92,-154.09 1214.41,-155.52 1213.02,-148.66"/>
</a>
</g>
</g>
<!-- Node19&#45;&gt;Node1 -->
<g id="edge56_Node000001_Node000019" class="edge">
<title>Node19&#45;&gt;Node1</title>
<g id="a_edge56_Node000001_Node000019"><a xlink:title=" ">
<path fill="none" stroke="#9a32cd" stroke-dasharray="5,2" d="M554.95,-106.87C604.68,-72.23 721.57,0 831.88,0 831.88,0 831.88,0 2129.75,0 2164.4,0 2203.29,-3.02 2233.43,-6.04"/>
<polygon fill="#9a32cd" stroke="#9a32cd" points="553.02,-103.95 546.89,-112.59 557.07,-109.66 553.02,-103.95"/>
</a>
</g>
<text text-anchor="middle" x="1598.75" y="-4.75" font-family="Helvetica,sans-Serif" font-size="10.00" fill="grey"> mX</text>
</g>
<!-- Node19&#45;&gt;Node18 -->
<g id="edge23_Node000018_Node000019" class="edge">
<title>Node19&#45;&gt;Node18</title>
<g id="a_edge23_Node000018_Node000019"><a xlink:title=" ">
<path fill="none" stroke="#9a32cd" stroke-dasharray="5,2" d="M618.8,-120.61C723.22,-116.99 901.69,-115.69 1052.75,-139 1054.13,-139.21 1079.8,-146.59 1103.47,-153.43"/>
<polygon fill="#9a32cd" stroke="#9a32cd" points="618.76,-117.11 608.89,-120.97 619.01,-124.11 618.76,-117.11"/>
</a>
</g>
<text text-anchor="middle" x="832.88" y="-128.18" font-family="Helvetica,sans-Serif" font-size="10.00" fill="grey"> mInitialVoltage</text>
</g>
<!-- Node20 -->
<g id="Node000020" class="node">
<title>Node20</title>
<g id="a_Node000020"><a xlink:title=" ">
<polygon fill="white" stroke="#bfbfbf" points="280.88,-203.38 165.88,-203.38 165.88,-152.62 280.88,-152.62 280.88,-203.38"/>
<text text-anchor="start" x="173.88" y="-189.88" font-family="Helvetica,sans-Serif" font-size="10.00">std::enable_shared</text>
<text text-anchor="start" x="173.88" y="-175.62" font-family="Helvetica,sans-Serif" font-size="10.00">_from_this&lt; Attribute</text>
<text text-anchor="middle" x="223.38" y="-161.38" font-family="Helvetica,sans-Serif" font-size="10.00">&lt; MatrixComp &gt; &gt;</text>
</a>
</g>
</g>
<!-- Node20&#45;&gt;Node19 -->
<g id="edge25_Node000019_Node000020" class="edge">
<title>Node20&#45;&gt;Node19</title>
<g id="a_edge25_Node000019_Node000020"><a xlink:title=" ">
<path fill="none" stroke="#63b8ff" d="M292.32,-166.15C342.85,-157.34 411.46,-145.37 461.67,-136.61"/>
<polygon fill="#63b8ff" stroke="#63b8ff" points="291.92,-162.67 282.67,-167.83 293.12,-169.56 291.92,-162.67"/>
</a>
</g>
</g>
<!-- Node21 -->
<g id="Node000021" class="node">
<title>Node21</title>
<g id="a_Node000021"><a xlink:title=" ">
<polygon fill="white" stroke="#bfbfbf" points="1533.5,-159.38 1419.25,-159.38 1419.25,-108.62 1533.5,-108.62 1533.5,-159.38"/>
<text text-anchor="start" x="1427.25" y="-145.88" font-family="Helvetica,sans-Serif" font-size="10.00">std::enable_shared</text>
<text text-anchor="start" x="1427.25" y="-131.62" font-family="Helvetica,sans-Serif" font-size="10.00">_from_this&lt; SimNode</text>
<text text-anchor="middle" x="1476.38" y="-117.38" font-family="Helvetica,sans-Serif" font-size="10.00">&lt; Complex &gt; &gt;</text>
</a>
</g>
</g>
<!-- Node21&#45;&gt;Node17 -->
<g id="edge27_Node000017_Node000021" class="edge">
<title>Node21&#45;&gt;Node17</title>
<g id="a_edge27_Node000017_Node000021"><a xlink:title=" ">
<path fill="none" stroke="#63b8ff" d="M1544.99,-134C1578.67,-134 1619.29,-134 1653.01,-134"/>
<polygon fill="#63b8ff" stroke="#63b8ff" points="1545.36,-130.5 1535.36,-134 1545.36,-137.5 1545.36,-130.5"/>
</a>
</g>
</g>
<!-- Node22 -->
<g id="Node000022" class="node">
<title>Node22</title>
<g id="a_Node000022"><a xlink:href="class_shared_factory.html" target="_top" xlink:title=" ">
<polygon fill="white" stroke="#666666" points="1528.62,-50.12 1424.12,-50.12 1424.12,-27.88 1528.62,-27.88 1528.62,-50.12"/>
<text text-anchor="middle" x="1476.38" y="-36.62" font-family="Helvetica,sans-Serif" font-size="10.00">SharedFactory&lt; T &gt;</text>
</a>
</g>
</g>
<!-- Node22&#45;&gt;Node17 -->
<g id="edge28_Node000017_Node000022" class="edge">
<title>Node22&#45;&gt;Node17</title>
<g id="a_edge28_Node000017_Node000022"><a xlink:title=" ">
<path fill="none" stroke="#63b8ff" d="M1535.75,-53.84C1541.11,-55.48 1546.43,-57.2 1551.5,-59 1605.16,-77.99 1665.59,-106.58 1697.77,-122.41"/>
<polygon fill="#63b8ff" stroke="#63b8ff" points="1536.8,-50.5 1526.22,-51.05 1534.83,-57.22 1536.8,-50.5"/>
</a>
</g>
</g>
<!-- Node23&#45;&gt;Node17 -->
<g id="edge29_Node000017_Node000023" class="edge">
<title>Node23&#45;&gt;Node17</title>
<g id="a_edge29_Node000017_Node000023"><a xlink:title=" ">
<path fill="none" stroke="orange" stroke-dasharray="5,2" d="M1539.75,-93.09C1580.01,-102.18 1631.74,-113.87 1669.6,-122.42"/>
<polygon fill="orange" stroke="orange" points="1540.72,-89.72 1530.19,-90.93 1539.18,-96.55 1540.72,-89.72"/>
</a>
</g>
<text text-anchor="middle" x="1598.75" y="-116.18" font-family="Helvetica,sans-Serif" font-size="10.00" fill="grey"> &lt; Complex &gt;</text>
</g>
<!-- Node24 -->
<g id="Node000024" class="node">
<title>Node24</title>
<g id="a_Node000024"><a xlink:title=" ">
<polygon fill="white" stroke="#bfbfbf" points="1201.5,-135.38 1087.25,-135.38 1087.25,-84.62 1201.5,-84.62 1201.5,-135.38"/>
<text text-anchor="start" x="1095.25" y="-121.88" font-family="Helvetica,sans-Serif" font-size="10.00">std::enable_shared</text>
<text text-anchor="start" x="1095.25" y="-107.62" font-family="Helvetica,sans-Serif" font-size="10.00">_from_this&lt; SimNode</text>
<text text-anchor="middle" x="1144.38" y="-93.38" font-family="Helvetica,sans-Serif" font-size="10.00">&lt; VarType &gt; &gt;</text>
</a>
</g>
</g>
<!-- Node24&#45;&gt;Node23 -->
<g id="edge31_Node000023_Node000024" class="edge">
<title>Node24&#45;&gt;Node23</title>
<g id="a_edge31_Node000023_Node000024"><a xlink:title=" ">
<path fill="none" stroke="#63b8ff" d="M1213.16,-103.63C1270.18,-98.28 1351.28,-90.66 1408.14,-85.32"/>
<polygon fill="#63b8ff" stroke="#63b8ff" points="1212.86,-100.14 1203.24,-104.56 1213.52,-107.11 1212.86,-100.14"/>
</a>
</g>
</g>
<!-- Node25&#45;&gt;Node23 -->
<g id="edge32_Node000023_Node000025" class="edge">
<title>Node25&#45;&gt;Node23</title>
<g id="a_edge32_Node000023_Node000025"><a xlink:title=" ">
<path fill="none" stroke="#63b8ff" d="M1222.7,-55.26C1278.94,-60.55 1354.33,-67.63 1408.09,-72.68"/>
<polygon fill="#63b8ff" stroke="#63b8ff" points="1223.15,-51.79 1212.87,-54.34 1222.5,-58.76 1223.15,-51.79"/>
</a>
</g>
</g>
<!-- Node26&#45;&gt;Node23 -->
<g id="edge34_Node000023_Node000026" class="edge">
<title>Node26&#45;&gt;Node23</title>
<g id="a_edge34_Node000023_Node000026"><a xlink:title=" ">
<path fill="none" stroke="#9a32cd" stroke-dasharray="5,2" d="M1187.47,-475.03C1202.51,-466.97 1219.76,-458.31 1236,-451.5 1299.41,-424.89 1341.15,-458.37 1383.25,-404 1424.69,-350.49 1358.86,-152.75 1401.25,-100 1404.27,-96.25 1407.9,-93.13 1411.92,-90.56"/>
<polygon fill="#9a32cd" stroke="#9a32cd" points="1185.89,-471.9 1178.78,-479.75 1189.23,-478.05 1185.89,-471.9"/>
</a>
</g>
<text text-anchor="middle" x="1309.62" y="-470.5" font-family="Helvetica,sans-Serif" font-size="10.00" fill="grey"> mApparentPower</text>
<text text-anchor="middle" x="1309.62" y="-456.25" font-family="Helvetica,sans-Serif" font-size="10.00" fill="grey">mVoltage</text>
</g>
<!-- Node26&#45;&gt;Node30 -->
<g id="edge44_Node000030_Node000026" class="edge">
<title>Node26&#45;&gt;Node30</title>
<g id="a_edge44_Node000030_Node000026"><a xlink:title=" ">
<path fill="none" stroke="#9a32cd" stroke-dasharray="5,2" d="M1224.16,-495.77C1270.56,-493.44 1330.34,-489.68 1383.25,-484 1394.03,-482.84 1405.47,-481.33 1416.5,-479.73"/>
<polygon fill="#9a32cd" stroke="#9a32cd" points="1224,-492.27 1214.18,-496.26 1224.34,-499.27 1224,-492.27"/>
</a>
</g>
<text text-anchor="middle" x="1309.62" y="-514.15" font-family="Helvetica,sans-Serif" font-size="10.00" fill="grey"> mIntfCurrent</text>
<text text-anchor="middle" x="1309.62" y="-499.9" font-family="Helvetica,sans-Serif" font-size="10.00" fill="grey">mIntfVoltage</text>
</g>
<!-- Node26&#45;&gt;Node35 -->
<g id="edge53_Node000035_Node000026" class="edge">
<title>Node26&#45;&gt;Node35</title>
<g id="a_edge53_Node000035_Node000026"><a xlink:title=" ">
<path fill="none" stroke="#9a32cd" stroke-dasharray="5,2" d="M1211.43,-521.01C1219.67,-523.5 1228,-525.89 1236,-528 1297.17,-544.13 1368.22,-558.42 1416.94,-567.55"/>
<polygon fill="#9a32cd" stroke="#9a32cd" points="1212.74,-517.75 1202.15,-518.15 1210.68,-524.44 1212.74,-517.75"/>
</a>
</g>
<text text-anchor="middle" x="1309.62" y="-578.99" font-family="Helvetica,sans-Serif" font-size="10.00" fill="grey"> mIntfCurrent</text>
<text text-anchor="middle" x="1309.62" y="-564.74" font-family="Helvetica,sans-Serif" font-size="10.00" fill="grey">mIntfVoltage</text>
</g>
<!-- Node27 -->
<g id="Node000027" class="node">
<title>Node27</title>
<g id="a_Node000027"><a xlink:title=" ">
<polygon fill="white" stroke="#bfbfbf" points="903.5,-497.38 762.25,-497.38 762.25,-446.62 903.5,-446.62 903.5,-497.38"/>
<text text-anchor="start" x="770.25" y="-483.88" font-family="Helvetica,sans-Serif" font-size="10.00">std::enable_shared</text>
<text text-anchor="start" x="770.25" y="-469.62" font-family="Helvetica,sans-Serif" font-size="10.00">_from_this&lt; Attribute</text>
<text text-anchor="middle" x="832.88" y="-455.38" font-family="Helvetica,sans-Serif" font-size="10.00">&lt; MatrixVar&lt; VarType &gt; &gt; &gt;</text>
</a>
</g>
</g>
<!-- Node27&#45;&gt;Node26 -->
<g id="edge36_Node000026_Node000027" class="edge">
<title>Node27&#45;&gt;Node26</title>
<g id="a_edge36_Node000026_Node000027"><a xlink:title=" ">
<path fill="none" stroke="#63b8ff" d="M915.16,-479.09C965.22,-483.46 1028.64,-488.99 1075.91,-493.11"/>
<polygon fill="#63b8ff" stroke="#63b8ff" points="915.49,-475.61 905.23,-478.22 914.88,-482.58 915.49,-475.61"/>
</a>
</g>
</g>
<!-- Node28&#45;&gt;Node3 -->
<g id="edge38_Node000003_Node000028" class="edge">
<title>Node28&#45;&gt;Node3</title>
<g id="a_edge38_Node000003_Node000028"><a xlink:title=" ">
<path fill="none" stroke="#9a32cd" stroke-dasharray="5,2" d="M608.74,-408.84C738.97,-398.91 1007.95,-379.66 1236,-371.5 1525.16,-361.15 1597.86,-375.9 1887,-365 1892.71,-364.78 1898.66,-364.5 1904.6,-364.18"/>
<polygon fill="#9a32cd" stroke="#9a32cd" points="608.55,-405.34 598.85,-409.59 609.08,-412.32 608.55,-405.34"/>
</a>
</g>
<text text-anchor="middle" x="1309.62" y="-390.5" font-family="Helvetica,sans-Serif" font-size="10.00" fill="grey"> mIntfCurrent</text>
<text text-anchor="middle" x="1309.62" y="-376.25" font-family="Helvetica,sans-Serif" font-size="10.00" fill="grey">mIntfVoltage</text>
</g>
<!-- Node29 -->
<g id="Node000029" class="node">
<title>Node29</title>
<g id="a_Node000029"><a xlink:title=" ">
<polygon fill="white" stroke="#bfbfbf" points="294.75,-435.38 152,-435.38 152,-384.62 294.75,-384.62 294.75,-435.38"/>
<text text-anchor="start" x="160" y="-421.88" font-family="Helvetica,sans-Serif" font-size="10.00">std::enable_shared</text>
<text text-anchor="start" x="160" y="-407.62" font-family="Helvetica,sans-Serif" font-size="10.00">_from_this&lt; Attribute</text>
<text text-anchor="middle" x="223.38" y="-393.38" font-family="Helvetica,sans-Serif" font-size="10.00">&lt; MatrixVar&lt; Complex &gt; &gt; &gt;</text>
</a>
</g>
</g>
<!-- Node29&#45;&gt;Node28 -->
<g id="edge40_Node000028_Node000029" class="edge">
<title>Node29&#45;&gt;Node28</title>
<g id="a_edge40_Node000028_Node000029"><a xlink:title=" ">
<path fill="none" stroke="#63b8ff" d="M306.63,-411.35C355,-412.15 415.41,-413.14 460.93,-413.89"/>
<polygon fill="#63b8ff" stroke="#63b8ff" points="306.81,-407.86 296.75,-411.19 306.69,-414.86 306.81,-407.86"/>
</a>
</g>
</g>
<!-- Node30&#45;&gt;Node3 -->
<g id="edge42_Node000003_Node000030" class="edge">
<title>Node30&#45;&gt;Node3</title>
<g id="a_edge42_Node000003_Node000030"><a xlink:title=" ">
<path fill="none" stroke="orange" stroke-dasharray="5,2" d="M1547.26,-461.68C1629.71,-450.76 1770.35,-428.68 1887,-393 1899.57,-389.16 1912.85,-383.87 1924.76,-378.66"/>
<polygon fill="orange" stroke="orange" points="1546.98,-458.18 1537.52,-462.95 1547.89,-465.12 1546.98,-458.18"/>
</a>
</g>
<text text-anchor="middle" x="1721.88" y="-451.21" font-family="Helvetica,sans-Serif" font-size="10.00" fill="grey"> &lt; Complex &gt;</text>
</g>
<!-- Node31 -->
<g id="Node000031" class="node">
<title>Node31</title>
<g id="a_Node000031"><a xlink:href="class_c_p_s_1_1_m_n_a_interface.html" target="_top" xlink:title="Interface to be implemented by all models used by the MNA solver.">
<polygon fill="white" stroke="#666666" points="1529.38,-675.12 1423.38,-675.12 1423.38,-652.88 1529.38,-652.88 1529.38,-675.12"/>
<text text-anchor="middle" x="1476.38" y="-661.62" font-family="Helvetica,sans-Serif" font-size="10.00">CPS::MNAInterface</text>
</a>
</g>
</g>
<!-- Node31&#45;&gt;Node2 -->
<g id="edge45_Node000002_Node000031" class="edge">
<title>Node31&#45;&gt;Node2</title>
<g id="a_edge45_Node000002_Node000031"><a xlink:title=" ">
<path fill="none" stroke="#63b8ff" d="M1540.86,-661.51C1567.74,-660.45 1599.4,-659.18 1628,-658 1803.9,-650.72 1848.71,-659.83 2023.75,-641 2035.68,-639.72 2048.32,-637.91 2060.52,-635.94"/>
<polygon fill="#63b8ff" stroke="#63b8ff" points="1541.02,-658.01 1531.17,-661.9 1541.3,-665 1541.02,-658.01"/>
</a>
</g>
</g>
<!-- Node34 -->
<g id="Node000034" class="node">
<title>Node34</title>
<g id="a_Node000034"><a xlink:href="class_c_p_s_1_1_m_n_a_sim_power_comp.html" target="_top" xlink:title="Base class for all MNA components that are transmitting power.">
<polygon fill="white" stroke="#666666" points="1789.88,-641.25 1653.88,-641.25 1653.88,-604.75 1789.88,-604.75 1789.88,-641.25"/>
<text text-anchor="start" x="1661.88" y="-627.75" font-family="Helvetica,sans-Serif" font-size="10.00">CPS::MNASimPowerComp</text>
<text text-anchor="middle" x="1721.88" y="-613.5" font-family="Helvetica,sans-Serif" font-size="10.00">&lt; VarType &gt;</text>
</a>
</g>
</g>
<!-- Node31&#45;&gt;Node34 -->
<g id="edge54_Node000034_Node000031" class="edge">
<title>Node31&#45;&gt;Node34</title>
<g id="a_edge54_Node000034_Node000031"><a xlink:title=" ">
<path fill="none" stroke="#63b8ff" d="M1540.55,-653.36C1575.19,-647.53 1618.14,-640.3 1653.44,-634.36"/>
<polygon fill="#63b8ff" stroke="#63b8ff" points="1540.38,-649.84 1531.1,-654.95 1541.55,-656.74 1540.38,-649.84"/>
</a>
</g>
</g>
<!-- Node32&#45;&gt;Node2 -->
<g id="edge46_Node000002_Node000032" class="edge">
<title>Node32&#45;&gt;Node2</title>
<g id="a_edge46_Node000002_Node000032"><a xlink:title=" ">
<path fill="none" stroke="#9a32cd" stroke-dasharray="5,2" d="M562.71,-638.29C617,-663.97 730.27,-711 831.88,-711 831.88,-711 831.88,-711 1965.38,-711 2023.09,-711 2079.92,-667.49 2108.57,-641.66"/>
<polygon fill="#9a32cd" stroke="#9a32cd" points="564.56,-635.29 554.03,-634.11 561.52,-641.6 564.56,-635.29"/>
</a>
</g>
<text text-anchor="middle" x="1476.38" y="-715.75" font-family="Helvetica,sans-Serif" font-size="10.00" fill="grey"> mRightVector</text>
</g>
<!-- Node32&#45;&gt;Node34 -->
<g id="edge55_Node000034_Node000032" class="edge">
<title>Node32&#45;&gt;Node34</title>
<g id="a_edge55_Node000034_Node000032"><a xlink:title=" ">
<path fill="none" stroke="#9a32cd" stroke-dasharray="5,2" d="M605.25,-622.77C666.28,-623.34 754.64,-624 831.88,-624 831.88,-624 831.88,-624 1310.62,-624 1431.53,-624 1572.47,-623.56 1653.72,-623.26"/>
<polygon fill="#9a32cd" stroke="#9a32cd" points="605.35,-619.27 595.31,-622.68 605.28,-626.27 605.35,-619.27"/>
</a>
</g>
<text text-anchor="middle" x="1144.38" y="-628.75" font-family="Helvetica,sans-Serif" font-size="10.00" fill="grey"> mRightVector</text>
</g>
<!-- Node33 -->
<g id="Node000033" class="node">
<title>Node33</title>
<g id="a_Node000033"><a xlink:title=" ">
<polygon fill="white" stroke="#bfbfbf" points="280.88,-647.38 165.88,-647.38 165.88,-596.62 280.88,-596.62 280.88,-647.38"/>
<text text-anchor="start" x="173.88" y="-633.88" font-family="Helvetica,sans-Serif" font-size="10.00">std::enable_shared</text>
<text text-anchor="start" x="173.88" y="-619.62" font-family="Helvetica,sans-Serif" font-size="10.00">_from_this&lt; Attribute</text>
<text text-anchor="middle" x="223.38" y="-605.38" font-family="Helvetica,sans-Serif" font-size="10.00">&lt; Matrix &gt; &gt;</text>
</a>
</g>
</g>
<!-- Node33&#45;&gt;Node32 -->
<g id="edge48_Node000032_Node000033" class="edge">
<title>Node33&#45;&gt;Node32</title>
<g id="a_edge48_Node000032_Node000033"><a xlink:title=" ">
<path fill="none" stroke="#63b8ff" d="M292.53,-622C344.05,-622 414.26,-622 464.64,-622"/>
<polygon fill="#63b8ff" stroke="#63b8ff" points="292.69,-618.5 282.69,-622 292.69,-625.5 292.69,-618.5"/>
</a>
</g>
</g>
<!-- Node34&#45;&gt;Node2 -->
<g id="edge50_Node000002_Node000034" class="edge">
<title>Node34&#45;&gt;Node2</title>
<g id="a_edge50_Node000002_Node000034"><a xlink:title=" ">
<path fill="none" stroke="orange" stroke-dasharray="5,2" d="M1801.47,-623C1876.7,-623 1988.99,-623 2060.28,-623"/>
<polygon fill="orange" stroke="orange" points="1801.7,-619.5 1791.7,-623 1801.7,-626.5 1801.7,-619.5"/>
</a>
</g>
<text text-anchor="middle" x="1964.38" y="-627.75" font-family="Helvetica,sans-Serif" font-size="10.00" fill="grey"> &lt; Complex &gt;</text>
</g>
<!-- Node35&#45;&gt;Node34 -->
<g id="edge51_Node000034_Node000035" class="edge">
<title>Node35&#45;&gt;Node34</title>
<g id="a_edge51_Node000034_Node000035"><a xlink:title=" ">
<path fill="none" stroke="#63b8ff" d="M1547.1,-590.89C1580.59,-597.08 1620.56,-604.46 1653.71,-610.59"/>
<polygon fill="#63b8ff" stroke="#63b8ff" points="1547.97,-587.49 1537.5,-589.11 1546.69,-594.37 1547.97,-587.49"/>
</a>
</g>
</g>
</g>
</svg>
