<?xml version="1.0" encoding="UTF-8" standalone="no"?>
<!DOCTYPE svg PUBLIC "-//W3C//DTD SVG 1.1//EN"
 "http://www.w3.org/Graphics/SVG/1.1/DTD/svg11.dtd">
<!-- Generated by graphviz version 2.44.0 (0)
 -->
<!-- Title: DPsim::MnaSolverEigenDense&lt; VarType &gt; Pages: 1 -->
<svg width="336pt" height="163pt"
 viewBox="0.00 0.00 336.00 163.00" xmlns="http://www.w3.org/2000/svg" xmlns:xlink="http://www.w3.org/1999/xlink">
<g id="graph0" class="graph" transform="scale(1 1) rotate(0) translate(4 159)">
<title>DPsim::MnaSolverEigenDense&lt; VarType &gt;</title>
<!-- Node1 -->
<g id="node1" class="node">
<title>Node1</title>
<g id="a_node1"><a xlink:title="Solver class using Modified Nodal Analysis (MNA).">
<polygon fill="#bfbfbf" stroke="black" points="70,-0.5 70,-30.5 222,-30.5 222,-0.5 70,-0.5"/>
<text text-anchor="start" x="78" y="-18.5" font-family="Helvetica" font-size="10.00">DPsim::MnaSolverEigenDense</text>
<text text-anchor="middle" x="146" y="-7.5" font-family="Helvetica" font-size="10.00">&lt; VarType &gt;</text>
</a>
</g>
</g>
<!-- Node2 -->
<g id="node2" class="node">
<title>Node2</title>
<g id="a_node2"><a xlink:href="class_d_psim_1_1_mna_solver.html" target="_top" xlink:title="Solver class using Modified Nodal Analysis (MNA).">
<polygon fill="none" stroke="black" points="70,-68.5 70,-87.5 222,-87.5 222,-68.5 70,-68.5"/>
<text text-anchor="middle" x="146" y="-75.5" font-family="Helvetica" font-size="10.00">DPsim::MnaSolver&lt; VarType &gt;</text>
</a>
</g>
</g>
<!-- Node2&#45;&gt;Node1 -->
<g id="edge1" class="edge">
<title>Node2&#45;&gt;Node1</title>
<path fill="none" stroke="midnightblue" d="M146,-58.22C146,-49.36 146,-38.96 146,-30.76"/>
<polygon fill="midnightblue" stroke="midnightblue" points="142.5,-58.33 146,-68.33 149.5,-58.33 142.5,-58.33"/>
</g>
<!-- Node3 -->
<g id="node3" class="node">
<title>Node3</title>
<g id="a_node3"><a xlink:href="class_d_psim_1_1_solver.html" target="_top" xlink:title="Base class for more specific solvers such as MNA, ODE or IDA.">
<polygon fill="none" stroke="black" points="0,-135.5 0,-154.5 80,-154.5 80,-135.5 0,-135.5"/>
<text text-anchor="middle" x="40" y="-142.5" font-family="Helvetica" font-size="10.00">DPsim::Solver</text>
</a>
</g>
</g>
<!-- Node3&#45;&gt;Node2 -->
<g id="edge2" class="edge">
<title>Node3&#45;&gt;Node2</title>
<path fill="none" stroke="midnightblue" d="M62.92,-129.94C83.92,-117.07 114.32,-98.43 131.93,-87.63"/>
<polygon fill="midnightblue" stroke="midnightblue" points="60.99,-127.02 54.3,-135.23 64.65,-132.99 60.99,-127.02"/>
</g>
<!-- Node4 -->
<g id="node4" class="node">
<title>Node4</title>
<g id="a_node4"><a xlink:href="class_c_p_s_1_1_attribute_list.html" target="_top" xlink:title="Base class of objects having attributes to access member variables.">
<polygon fill="none" stroke="black" points="98,-135.5 98,-154.5 194,-154.5 194,-135.5 98,-135.5"/>
<text text-anchor="middle" x="146" y="-142.5" font-family="Helvetica" font-size="10.00">CPS::AttributeList</text>
</a>
</g>
</g>
<!-- Node4&#45;&gt;Node2 -->
<g id="edge3" class="edge">
<title>Node4&#45;&gt;Node2</title>
<path fill="none" stroke="midnightblue" d="M146,-125.04C146,-112.67 146,-97.12 146,-87.63"/>
<polygon fill="midnightblue" stroke="midnightblue" points="142.5,-125.23 146,-135.23 149.5,-125.23 142.5,-125.23"/>
</g>
<!-- Node5 -->
<g id="node5" class="node">
<title>Node5</title>
<g id="a_node5"><a xlink:href="class_c_p_s_1_1_system_topology.html" target="_top" xlink:title=" ">
<polygon fill="none" stroke="black" points="212,-135.5 212,-154.5 328,-154.5 328,-135.5 212,-135.5"/>
<text text-anchor="middle" x="270" y="-142.5" font-family="Helvetica" font-size="10.00">CPS::SystemTopology</text>
</a>
</g>
</g>
<!-- Node5&#45;&gt;Node2 -->
<g id="edge4" class="edge">
<title>Node5&#45;&gt;Node2</title>
<path fill="none" stroke="#9a32cd" stroke-dasharray="5,2" d="M244.44,-130.6C219.89,-117.73 183.51,-98.66 162.53,-87.67"/>
<polygon fill="#9a32cd" stroke="#9a32cd" points="243.05,-133.83 253.53,-135.37 246.3,-127.63 243.05,-133.83"/>
<text text-anchor="middle" x="237.5" y="-109" font-family="Helvetica" font-size="10.00"> mSystem</text>
</g>
</g>
</svg>
