<?xml version="1.0" encoding="UTF-8" standalone="no"?>
<!DOCTYPE svg PUBLIC "-//W3C//DTD SVG 1.1//EN"
 "http://www.w3.org/Graphics/SVG/1.1/DTD/svg11.dtd">
<!-- Generated by graphviz version 2.42.4 (0)
 -->
<!-- Title: CPS::AttributeBase Pages: 1 -->
<svg width="947pt" height="267pt"
 viewBox="0.00 0.00 947.00 266.50" xmlns="http://www.w3.org/2000/svg" xmlns:xlink="http://www.w3.org/1999/xlink">
<g id="graph0" class="graph" transform="scale(1 1) rotate(0) translate(4 262.5)">
<title>CPS::AttributeBase</title>
<!-- Node1 -->
<g id="node1" class="node">
<title>Node1</title>
<g id="a_node1"><a xlink:title=" ">
<polygon fill="#bfbfbf" stroke="black" points="195,-86 195,-105 303,-105 303,-86 195,-86"/>
<text text-anchor="middle" x="249" y="-93" font-family="Helvetica,sans-Serif" font-size="10.00">CPS::AttributeBase</text>
</a>
</g>
</g>
<!-- Node3 -->
<g id="node3" class="node">
<title>Node3</title>
<g id="a_node3"><a xlink:href="class_c_p_s_1_1_attribute.html" target="_top" xlink:title=" ">
<polygon fill="none" stroke="black" points="599.5,-171 599.5,-190 749.5,-190 749.5,-171 599.5,-171"/>
<text text-anchor="middle" x="674.5" y="-178" font-family="Helvetica,sans-Serif" font-size="10.00">CPS::Attribute&lt; Complex &gt;</text>
</a>
</g>
</g>
<!-- Node1&#45;&gt;Node3 -->
<g id="edge2" class="edge">
<title>Node1&#45;&gt;Node3</title>
<path fill="none" stroke="midnightblue" d="M269.31,-111.56C305.87,-140.79 388.89,-201.66 471,-223.5 514.81,-235.15 528.59,-232.6 573,-223.5 604.05,-217.14 637.36,-200.78 656.76,-190.17"/>
<polygon fill="midnightblue" stroke="midnightblue" points="271.41,-108.76 261.44,-105.18 267,-114.2 271.41,-108.76"/>
</g>
<!-- Node5 -->
<g id="node5" class="node">
<title>Node5</title>
<g id="a_node5"><a xlink:href="class_c_p_s_1_1_attribute.html" target="_top" xlink:title=" ">
<polygon fill="none" stroke="black" points="605.5,-239 605.5,-258 743.5,-258 743.5,-239 605.5,-239"/>
<text text-anchor="middle" x="674.5" y="-246" font-family="Helvetica,sans-Serif" font-size="10.00">CPS::Attribute&lt; Matrix &gt;</text>
</a>
</g>
</g>
<!-- Node1&#45;&gt;Node5 -->
<g id="edge4" class="edge">
<title>Node1&#45;&gt;Node5</title>
<path fill="none" stroke="midnightblue" d="M260.59,-114.15C275.3,-138.36 304.19,-180.26 340,-203.5 420.01,-255.42 533.59,-259.42 605.4,-255.51"/>
<polygon fill="midnightblue" stroke="midnightblue" points="263.43,-112.08 255.34,-105.25 257.41,-115.64 263.43,-112.08"/>
</g>
<!-- Node7 -->
<g id="node7" class="node">
<title>Node7</title>
<g id="a_node7"><a xlink:href="class_c_p_s_1_1_attribute.html" target="_top" xlink:title=" ">
<polygon fill="none" stroke="black" points="591,-90 591,-109 758,-109 758,-90 591,-90"/>
<text text-anchor="middle" x="674.5" y="-97" font-family="Helvetica,sans-Serif" font-size="10.00">CPS::Attribute&lt; MatrixComp &gt;</text>
</a>
</g>
</g>
<!-- Node1&#45;&gt;Node7 -->
<g id="edge6" class="edge">
<title>Node1&#45;&gt;Node7</title>
<path fill="none" stroke="midnightblue" d="M275.25,-81.14C288.46,-74.31 305.15,-66.73 321,-62.5 429.36,-33.59 463.83,-23.84 573,-49.5 606.2,-57.3 640.97,-77.8 659.65,-89.99"/>
<polygon fill="midnightblue" stroke="midnightblue" points="273.47,-78.11 266.31,-85.92 276.77,-84.29 273.47,-78.11"/>
</g>
<!-- Node9 -->
<g id="node9" class="node">
<title>Node9</title>
<g id="a_node9"><a xlink:href="class_c_p_s_1_1_attribute.html" target="_top" xlink:title=" ">
<polygon fill="none" stroke="black" points="603,-0.5 603,-30.5 746,-30.5 746,-0.5 603,-0.5"/>
<text text-anchor="start" x="611" y="-18.5" font-family="Helvetica,sans-Serif" font-size="10.00">CPS::Attribute&lt; MatrixVar</text>
<text text-anchor="middle" x="674.5" y="-7.5" font-family="Helvetica,sans-Serif" font-size="10.00">&lt; T &gt; &gt;</text>
</a>
</g>
</g>
<!-- Node1&#45;&gt;Node9 -->
<g id="edge8" class="edge">
<title>Node1&#45;&gt;Node9</title>
<path fill="none" stroke="midnightblue" d="M266.84,-78.93C283.75,-63.5 311.35,-41.41 340,-31.5 426.69,-1.51 533.64,-2.48 602.68,-7.6"/>
<polygon fill="midnightblue" stroke="midnightblue" points="264.33,-76.5 259.44,-85.9 269.12,-81.59 264.33,-76.5"/>
</g>
<!-- Node11 -->
<g id="node11" class="node">
<title>Node11</title>
<g id="a_node11"><a xlink:href="class_c_p_s_1_1_attribute.html" target="_top" xlink:title=" ">
<polygon fill="none" stroke="black" points="610.5,-131 610.5,-150 738.5,-150 738.5,-131 610.5,-131"/>
<text text-anchor="middle" x="674.5" y="-138" font-family="Helvetica,sans-Serif" font-size="10.00">CPS::Attribute&lt; Real &gt;</text>
</a>
</g>
</g>
<!-- Node1&#45;&gt;Node11 -->
<g id="edge10" class="edge">
<title>Node1&#45;&gt;Node11</title>
<path fill="none" stroke="midnightblue" d="M313.17,-85.14C380.02,-76.86 487.48,-71.33 573,-103.5 582.75,-107.17 581.75,-113.71 591,-118.5 601.14,-123.75 612.64,-127.83 623.77,-130.97"/>
<polygon fill="midnightblue" stroke="midnightblue" points="312.67,-81.67 303.2,-86.43 313.57,-88.62 312.67,-81.67"/>
</g>
<!-- Node12 -->
<g id="node12" class="node">
<title>Node12</title>
<g id="a_node12"><a xlink:href="class_c_p_s_1_1_attribute.html" target="_top" xlink:title=" ">
<polygon fill="none" stroke="black" points="340,-120 340,-139 453,-139 453,-120 340,-120"/>
<text text-anchor="middle" x="396.5" y="-127" font-family="Helvetica,sans-Serif" font-size="10.00">CPS::Attribute&lt; T &gt;</text>
</a>
</g>
</g>
<!-- Node1&#45;&gt;Node12 -->
<g id="edge11" class="edge">
<title>Node1&#45;&gt;Node12</title>
<path fill="none" stroke="midnightblue" d="M301.01,-107.42C318.57,-111.52 337.99,-116.06 354.64,-119.95"/>
<polygon fill="midnightblue" stroke="midnightblue" points="301.45,-103.93 290.92,-105.06 299.86,-110.75 301.45,-103.93"/>
</g>
<!-- Node2 -->
<g id="node2" class="node">
<title>Node2</title>
<g id="a_node2"><a xlink:title=" ">
<polygon fill="none" stroke="#bfbfbf" points="0,-80.5 0,-110.5 158,-110.5 158,-80.5 0,-80.5"/>
<text text-anchor="start" x="8" y="-98.5" font-family="Helvetica,sans-Serif" font-size="10.00">std::enable_shared</text>
<text text-anchor="middle" x="79" y="-87.5" font-family="Helvetica,sans-Serif" font-size="10.00">_from_this&lt; AttributeBase &gt;</text>
</a>
</g>
</g>
<!-- Node2&#45;&gt;Node1 -->
<g id="edge1" class="edge">
<title>Node2&#45;&gt;Node1</title>
<path fill="none" stroke="midnightblue" d="M168.24,-95.5C177.21,-95.5 186.12,-95.5 194.56,-95.5"/>
<polygon fill="midnightblue" stroke="midnightblue" points="168.1,-92 158.1,-95.5 168.1,-99 168.1,-92"/>
</g>
<!-- Node4 -->
<g id="node4" class="node">
<title>Node4</title>
<g id="a_node4"><a xlink:href="class_c_p_s_1_1_complex_attribute.html" target="_top" xlink:title=" ">
<polygon fill="none" stroke="black" points="803,-171 803,-190 931,-190 931,-171 803,-171"/>
<text text-anchor="middle" x="867" y="-178" font-family="Helvetica,sans-Serif" font-size="10.00">CPS::ComplexAttribute</text>
</a>
</g>
</g>
<!-- Node3&#45;&gt;Node4 -->
<g id="edge3" class="edge">
<title>Node3&#45;&gt;Node4</title>
<path fill="none" stroke="midnightblue" d="M760.08,-180.5C774.44,-180.5 789.13,-180.5 802.81,-180.5"/>
<polygon fill="midnightblue" stroke="midnightblue" points="759.7,-177 749.7,-180.5 759.7,-184 759.7,-177"/>
</g>
<!-- Node6 -->
<g id="node6" class="node">
<title>Node6</title>
<g id="a_node6"><a xlink:href="class_c_p_s_1_1_matrix_real_attribute.html" target="_top" xlink:title=" ">
<polygon fill="none" stroke="black" points="798.5,-239 798.5,-258 935.5,-258 935.5,-239 798.5,-239"/>
<text text-anchor="middle" x="867" y="-246" font-family="Helvetica,sans-Serif" font-size="10.00">CPS::MatrixRealAttribute</text>
</a>
</g>
</g>
<!-- Node5&#45;&gt;Node6 -->
<g id="edge5" class="edge">
<title>Node5&#45;&gt;Node6</title>
<path fill="none" stroke="midnightblue" d="M753.83,-248.5C768.57,-248.5 783.86,-248.5 798.24,-248.5"/>
<polygon fill="midnightblue" stroke="midnightblue" points="753.74,-245 743.74,-248.5 753.74,-252 753.74,-245"/>
</g>
<!-- Node8 -->
<g id="node8" class="node">
<title>Node8</title>
<g id="a_node8"><a xlink:href="class_c_p_s_1_1_matrix_comp_attribute.html" target="_top" xlink:title=" ">
<polygon fill="none" stroke="black" points="795,-90 795,-109 939,-109 939,-90 795,-90"/>
<text text-anchor="middle" x="867" y="-97" font-family="Helvetica,sans-Serif" font-size="10.00">CPS::MatrixCompAttribute</text>
</a>
</g>
</g>
<!-- Node7&#45;&gt;Node8 -->
<g id="edge7" class="edge">
<title>Node7&#45;&gt;Node8</title>
<path fill="none" stroke="midnightblue" d="M768.32,-99.5C777.29,-99.5 786.28,-99.5 794.99,-99.5"/>
<polygon fill="midnightblue" stroke="midnightblue" points="768.22,-96 758.22,-99.5 768.22,-103 768.22,-96"/>
</g>
<!-- Node10 -->
<g id="node10" class="node">
<title>Node10</title>
<g id="a_node10"><a xlink:href="class_c_p_s_1_1_matrix_attribute.html" target="_top" xlink:title=" ">
<polygon fill="none" stroke="black" points="795,-6 795,-25 939,-25 939,-6 795,-6"/>
<text text-anchor="middle" x="867" y="-13" font-family="Helvetica,sans-Serif" font-size="10.00">CPS::MatrixAttribute&lt; T &gt;</text>
</a>
</g>
</g>
<!-- Node9&#45;&gt;Node10 -->
<g id="edge9" class="edge">
<title>Node9&#45;&gt;Node10</title>
<path fill="none" stroke="midnightblue" d="M756.33,-15.5C769.12,-15.5 782.26,-15.5 794.81,-15.5"/>
<polygon fill="midnightblue" stroke="midnightblue" points="756.16,-12 746.16,-15.5 756.16,-19 756.16,-12"/>
</g>
<!-- Node12&#45;&gt;Node3 -->
<g id="edge14" class="edge">
<title>Node12&#45;&gt;Node3</title>
<path fill="none" stroke="orange" stroke-dasharray="5,2" d="M435.47,-142.04C446.81,-145.46 459.33,-148.93 471,-151.5 513.14,-160.77 560.9,-167.77 599.44,-172.57"/>
<polygon fill="orange" stroke="orange" points="436.45,-138.68 425.86,-139.06 434.38,-145.36 436.45,-138.68"/>
<text text-anchor="middle" x="522" y="-172.5" font-family="Helvetica,sans-Serif" font-size="10.00"> &lt; Complex &gt;</text>
</g>
<!-- Node12&#45;&gt;Node5 -->
<g id="edge12" class="edge">
<title>Node12&#45;&gt;Node5</title>
<path fill="none" stroke="orange" stroke-dasharray="5,2" d="M415.74,-145.91C429.94,-157.98 450.61,-174.04 471,-184.5 522.33,-210.85 586.58,-228.9 628.77,-238.95"/>
<polygon fill="orange" stroke="orange" points="418.02,-143.25 408.17,-139.34 413.42,-148.54 418.02,-143.25"/>
<text text-anchor="middle" x="522" y="-224.5" font-family="Helvetica,sans-Serif" font-size="10.00"> &lt; Matrix &gt;</text>
</g>
<!-- Node12&#45;&gt;Node7 -->
<g id="edge15" class="edge">
<title>Node12&#45;&gt;Node7</title>
<path fill="none" stroke="orange" stroke-dasharray="5,2" d="M463.31,-118.51C465.9,-118.16 468.47,-117.82 471,-117.5 510.22,-112.56 553.88,-108.5 590.59,-105.49"/>
<polygon fill="orange" stroke="orange" points="462.62,-115.08 453.22,-119.96 463.62,-122.01 462.62,-115.08"/>
<text text-anchor="middle" x="522" y="-120.5" font-family="Helvetica,sans-Serif" font-size="10.00"> &lt; MatrixComp &gt;</text>
</g>
<!-- Node12&#45;&gt;Node9 -->
<g id="edge13" class="edge">
<title>Node12&#45;&gt;Node9</title>
<path fill="none" stroke="orange" stroke-dasharray="5,2" d="M424.32,-115.16C438.11,-108.01 455.28,-99.42 471,-92.5 524.87,-68.77 588.55,-45.28 629.92,-30.6"/>
<polygon fill="orange" stroke="orange" points="422.61,-112.11 415.38,-119.85 425.86,-118.31 422.61,-112.11"/>
<text text-anchor="middle" x="522" y="-95.5" font-family="Helvetica,sans-Serif" font-size="10.00"> &lt; MatrixVar&lt; T &gt; &gt;</text>
</g>
<!-- Node12&#45;&gt;Node11 -->
<g id="edge16" class="edge">
<title>Node12&#45;&gt;Node11</title>
<path fill="none" stroke="orange" stroke-dasharray="5,2" d="M463.17,-132.12C507.73,-133.89 566.32,-136.23 610.35,-137.98"/>
<polygon fill="orange" stroke="orange" points="463.15,-128.61 453.02,-131.71 462.87,-135.61 463.15,-128.61"/>
<text text-anchor="middle" x="522" y="-139.5" font-family="Helvetica,sans-Serif" font-size="10.00"> &lt; Real &gt;</text>
</g>
</g>
</svg>
