<?xml version="1.0" encoding="UTF-8" standalone="no"?>
<!DOCTYPE svg PUBLIC "-//W3C//DTD SVG 1.1//EN"
 "http://www.w3.org/Graphics/SVG/1.1/DTD/svg11.dtd">
<!-- Generated by graphviz version 12.2.1 (20241206.2353)
 -->
<!-- Title: CPS::Base::Ph1::Switch Pages: 1 -->
<svg width="312pt" height="270pt"
 viewBox="0.00 0.00 311.50 270.25" xmlns="http://www.w3.org/2000/svg" xmlns:xlink="http://www.w3.org/1999/xlink">
<g id="graph0" class="graph" transform="scale(1 1) rotate(0) translate(4 266.25)">
<title>CPS::Base::Ph1::Switch</title>
<!-- Node1 -->
<g id="Node000001" class="node">
<title>Node1</title>
<g id="a_Node000001"><a xlink:title="Dynamic Phasor Three&#45;Phase Switch.">
<polygon fill="#999999" stroke="#666666" points="121,-142.25 0,-142.25 0,-120 121,-120 121,-142.25"/>
<text text-anchor="middle" x="60.5" y="-128.75" font-family="Helvetica,sans-Serif" font-size="10.00">CPS::Base::Ph1::Switch</text>
</a>
</g>
</g>
<!-- Node2 -->
<g id="Node000002" class="node">
<title>Node2</title>
<g id="a_Node000002"><a xlink:href="class_c_p_s_1_1_d_p_1_1_ph1_1_1_switch.html" target="_top" xlink:title="Dynamic phasor switch.">
<polygon fill="white" stroke="#666666" points="286.25,-262.25 174.25,-262.25 174.25,-240 286.25,-240 286.25,-262.25"/>
<text text-anchor="middle" x="230.25" y="-248.75" font-family="Helvetica,sans-Serif" font-size="10.00">CPS::DP::Ph1::Switch</text>
</a>
</g>
</g>
<!-- Node1&#45;&gt;Node2 -->
<g id="edge1_Node000001_Node000002" class="edge">
<title>Node1&#45;&gt;Node2</title>
<g id="a_edge1_Node000001_Node000002"><a xlink:title=" ">
<path fill="none" stroke="#63b8ff" d="M75.82,-151.77C92.66,-174.53 122.73,-210.62 157,-231.12 162.58,-234.47 168.74,-237.27 175.04,-239.61"/>
<polygon fill="#63b8ff" stroke="#63b8ff" points="78.81,-149.93 70.12,-143.87 73.13,-154.03 78.81,-149.93"/>
</a>
</g>
</g>
<!-- Node3 -->
<g id="Node000003" class="node">
<title>Node3</title>
<g id="a_Node000003"><a xlink:href="class_c_p_s_1_1_d_p_1_1_ph1_1_1var_res_switch.html" target="_top" xlink:title="Switch with variable resistance to avoid numerical oscillations, when an inductive current is suddenl...">
<polygon fill="white" stroke="#666666" points="302,-222.25 158.5,-222.25 158.5,-200 302,-200 302,-222.25"/>
<text text-anchor="middle" x="230.25" y="-208.75" font-family="Helvetica,sans-Serif" font-size="10.00">CPS::DP::Ph1::varResSwitch</text>
</a>
</g>
</g>
<!-- Node1&#45;&gt;Node3 -->
<g id="edge2_Node000001_Node000003" class="edge">
<title>Node1&#45;&gt;Node3</title>
<g id="a_edge2_Node000001_Node000003"><a xlink:title=" ">
<path fill="none" stroke="#63b8ff" d="M85.82,-149.2C104.49,-162.36 131.34,-179.8 157,-191.12 164.26,-194.33 172.17,-197.14 180,-199.57"/>
<polygon fill="#63b8ff" stroke="#63b8ff" points="88,-146.45 77.83,-143.46 83.91,-152.14 88,-146.45"/>
</a>
</g>
</g>
<!-- Node4 -->
<g id="Node000004" class="node">
<title>Node4</title>
<g id="a_Node000004"><a xlink:href="class_c_p_s_1_1_d_p_1_1_ph3_1_1_series_switch.html" target="_top" xlink:title="Dynamic phasor three&#45;phase switch.">
<polygon fill="white" stroke="#666666" points="300.5,-182.25 160,-182.25 160,-160 300.5,-160 300.5,-182.25"/>
<text text-anchor="middle" x="230.25" y="-168.75" font-family="Helvetica,sans-Serif" font-size="10.00">CPS::DP::Ph3::SeriesSwitch</text>
</a>
</g>
</g>
<!-- Node1&#45;&gt;Node4 -->
<g id="edge3_Node000001_Node000004" class="edge">
<title>Node1&#45;&gt;Node4</title>
<g id="a_edge3_Node000001_Node000004"><a xlink:title=" ">
<path fill="none" stroke="#63b8ff" d="M121.22,-145.36C140.66,-150 162.01,-155.09 180.55,-159.51"/>
<polygon fill="#63b8ff" stroke="#63b8ff" points="122.03,-141.96 111.49,-143.05 120.41,-148.77 122.03,-141.96"/>
</a>
</g>
</g>
<!-- Node5 -->
<g id="Node000005" class="node">
<title>Node5</title>
<g id="a_Node000005"><a xlink:href="class_c_p_s_1_1_e_m_t_1_1_ph1_1_1_switch.html" target="_top" xlink:title="One phase EMT switch.">
<polygon fill="white" stroke="#666666" points="289.25,-142.25 171.25,-142.25 171.25,-120 289.25,-120 289.25,-142.25"/>
<text text-anchor="middle" x="230.25" y="-128.75" font-family="Helvetica,sans-Serif" font-size="10.00">CPS::EMT::Ph1::Switch</text>
</a>
</g>
</g>
<!-- Node1&#45;&gt;Node5 -->
<g id="edge4_Node000001_Node000005" class="edge">
<title>Node1&#45;&gt;Node5</title>
<g id="a_edge4_Node000001_Node000005"><a xlink:title=" ">
<path fill="none" stroke="#63b8ff" d="M132.3,-131.12C145.18,-131.12 158.48,-131.12 170.95,-131.12"/>
<polygon fill="#63b8ff" stroke="#63b8ff" points="132.63,-127.63 122.63,-131.13 132.63,-134.63 132.63,-127.63"/>
</a>
</g>
</g>
<!-- Node6 -->
<g id="Node000006" class="node">
<title>Node6</title>
<g id="a_Node000006"><a xlink:href="class_c_p_s_1_1_e_m_t_1_1_ph3_1_1_series_switch.html" target="_top" xlink:title="EMT three&#45;phase switch.">
<polygon fill="white" stroke="#666666" points="303.5,-102.25 157,-102.25 157,-80 303.5,-80 303.5,-102.25"/>
<text text-anchor="middle" x="230.25" y="-88.75" font-family="Helvetica,sans-Serif" font-size="10.00">CPS::EMT::Ph3::SeriesSwitch</text>
</a>
</g>
</g>
<!-- Node1&#45;&gt;Node6 -->
<g id="edge5_Node000001_Node000006" class="edge">
<title>Node1&#45;&gt;Node6</title>
<g id="a_edge5_Node000001_Node000006"><a xlink:title=" ">
<path fill="none" stroke="#63b8ff" d="M121.22,-116.89C140.66,-112.25 162.01,-107.16 180.55,-102.74"/>
<polygon fill="#63b8ff" stroke="#63b8ff" points="120.41,-113.48 111.49,-119.2 122.03,-120.29 120.41,-113.48"/>
</a>
</g>
</g>
<!-- Node7 -->
<g id="Node000007" class="node">
<title>Node7</title>
<g id="a_Node000007"><a xlink:href="class_c_p_s_1_1_s_p_1_1_ph1_1_1_switch.html" target="_top" xlink:title="Dynamic phasor switch.">
<polygon fill="white" stroke="#666666" points="285.12,-62.25 175.38,-62.25 175.38,-40 285.12,-40 285.12,-62.25"/>
<text text-anchor="middle" x="230.25" y="-48.75" font-family="Helvetica,sans-Serif" font-size="10.00">CPS::SP::Ph1::Switch</text>
</a>
</g>
</g>
<!-- Node1&#45;&gt;Node7 -->
<g id="edge6_Node000001_Node000007" class="edge">
<title>Node1&#45;&gt;Node7</title>
<g id="a_edge6_Node000001_Node000007"><a xlink:title=" ">
<path fill="none" stroke="#63b8ff" d="M85.82,-113.05C104.49,-99.89 131.34,-82.45 157,-71.12 164.26,-67.92 172.17,-65.11 180,-62.68"/>
<polygon fill="#63b8ff" stroke="#63b8ff" points="83.91,-110.11 77.83,-118.79 88,-115.8 83.91,-110.11"/>
</a>
</g>
</g>
<!-- Node8 -->
<g id="Node000008" class="node">
<title>Node8</title>
<g id="a_Node000008"><a xlink:href="class_c_p_s_1_1_s_p_1_1_ph1_1_1var_res_switch.html" target="_top" xlink:title="Switch with variable resistance to avoid numerical oscillations, when an inductive current is suddenl...">
<polygon fill="white" stroke="#666666" points="300.88,-22.25 159.62,-22.25 159.62,0 300.88,0 300.88,-22.25"/>
<text text-anchor="middle" x="230.25" y="-8.75" font-family="Helvetica,sans-Serif" font-size="10.00">CPS::SP::Ph1::varResSwitch</text>
</a>
</g>
</g>
<!-- Node1&#45;&gt;Node8 -->
<g id="edge7_Node000001_Node000008" class="edge">
<title>Node1&#45;&gt;Node8</title>
<g id="a_edge7_Node000001_Node000008"><a xlink:title=" ">
<path fill="none" stroke="#63b8ff" d="M75.82,-110.48C92.66,-87.72 122.73,-51.63 157,-31.12 162.58,-27.78 168.74,-24.98 175.04,-22.64"/>
<polygon fill="#63b8ff" stroke="#63b8ff" points="73.13,-108.22 70.12,-118.38 78.81,-112.32 73.13,-108.22"/>
</a>
</g>
</g>
</g>
</svg>
