<?xml version="1.0" encoding="UTF-8" standalone="no"?>
<!DOCTYPE svg PUBLIC "-//W3C//DTD SVG 1.1//EN"
 "http://www.w3.org/Graphics/SVG/1.1/DTD/svg11.dtd">
<!-- Generated by graphviz version 2.44.0 (0)
 -->
<!-- Title: CPS::EMT::Ph3::Switch Pages: 1 -->
<!--zoomable 459 -->
<svg id="main" version="1.1" xmlns="http://www.w3.org/2000/svg" xmlns:xlink="http://www.w3.org/1999/xlink" xml:space="preserve" onload="init(evt)">
<style type="text/css"><![CDATA[
.edge:hover path { stroke: red; }
.edge:hover polygon { stroke: red; fill: red; }
]]></style>
<script type="text/javascript"><![CDATA[
var edges = document.getElementsByTagName('g');
if (edges && edges.length) {
  for (var i=0;i<edges.length;i++) {
    if (edges[i].id.substr(0,4)=='edge') {
      edges[i].setAttribute('class','edge');
    }
  }
}
]]></script>
        <defs>
                <circle id="rim" cx="0" cy="0" r="7"/>
                <circle id="rim2" cx="0" cy="0" r="3.5"/>
                <g id="zoomPlus">
                        <use xlink:href="#rim" fill="#404040">
                                <set attributeName="fill" to="#808080" begin="zoomplus.mouseover" end="zoomplus.mouseout"/>
                        </use>
                        <path d="M-4,0h8M0,-4v8" fill="none" stroke="white" stroke-width="1.5" pointer-events="none"/>
                </g>
                <g id="zoomMin">
                        <use xlink:href="#rim" fill="#404040">
                                <set attributeName="fill" to="#808080" begin="zoomminus.mouseover" end="zoomminus.mouseout"/>
                        </use>
                        <path d="M-4,0h8" fill="none" stroke="white" stroke-width="1.5" pointer-events="none"/>
                </g>
                <g id="dirArrow">
                        <path fill="none" stroke="white" stroke-width="1.5" d="M0,-3.0v7 M-2.5,-0.5L0,-3.0L2.5,-0.5"/>
                </g>
               <g id="resetDef">
                       <use xlink:href="#rim2" fill="#404040">
                               <set attributeName="fill" to="#808080" begin="reset.mouseover" end="reset.mouseout"/>
                       </use>
               </g>
        </defs>

<script type="text/javascript">
var viewWidth = 1733;
var viewHeight = 459;
var sectionId = 'dynsection-1';
</script>
<script xlink:href="svgpan.js"/>
<svg id="graph" class="graph">
<g id="viewport">
<title>CPS::EMT::Ph3::Switch</title>
<!-- Node1 -->
<g id="node1" class="node">
<title>Node1</title>
<g id="a_node1"><a xlink:title="Dynamic phasor switch.">
<polygon fill="#bfbfbf" stroke="black" points="1602,-158.94 1602,-177.94 1725,-177.94 1725,-158.94 1602,-158.94"/>
<text text-anchor="middle" x="1663.5" y="-165.94" font-family="Helvetica" font-size="10.00">CPS::EMT::Ph3::Switch</text>
</a>
</g>
</g>
<!-- Node2 -->
<g id="node2" class="node">
<title>Node2</title>
<g id="a_node2"><a xlink:href="class_c_p_s_1_1_base_1_1_ph3_1_1_switch.html" target="_top" xlink:title="Dynamic Phasor Three&#45;Phase Switch.">
<polygon fill="none" stroke="black" points="693,-260.94 693,-279.94 818,-279.94 818,-260.94 693,-260.94"/>
<text text-anchor="middle" x="755.5" y="-267.94" font-family="Helvetica" font-size="10.00">CPS::Base::Ph3::Switch</text>
</a>
</g>
</g>
<!-- Node2&#45;&gt;Node1 -->
<g id="edge1" class="edge">
<title>Node2&#45;&gt;Node1</title>
<path fill="none" stroke="midnightblue" d="M802.35,-258.52C848.05,-247.71 920.38,-233.44 984,-233.44 984,-233.44 984,-233.44 1501.5,-233.44 1559.98,-233.44 1622.28,-196.11 1649.03,-178.03"/>
<polygon fill="midnightblue" stroke="midnightblue" points="801.36,-255.16 792.46,-260.91 803,-261.97 801.36,-255.16"/>
</g>
<!-- Node3 -->
<g id="node3" class="node">
<title>Node3</title>
<g id="a_node3"><a xlink:href="class_c_p_s_1_1_attribute.html" target="_top" xlink:title=" ">
<polygon fill="none" stroke="black" points="441.5,-337.94 441.5,-356.94 559.5,-356.94 559.5,-337.94 441.5,-337.94"/>
<text text-anchor="middle" x="500.5" y="-344.94" font-family="Helvetica" font-size="10.00">CPS::Attribute&lt; Bool &gt;</text>
</a>
</g>
</g>
<!-- Node3&#45;&gt;Node2 -->
<g id="edge2" class="edge">
<title>Node3&#45;&gt;Node2</title>
<path fill="none" stroke="#9a32cd" stroke-dasharray="5,2" d="M545.11,-335.01C580.26,-324.9 630.93,-310.12 675,-296.44 691.92,-291.19 710.77,-285.04 725.86,-280.03"/>
<polygon fill="#9a32cd" stroke="#9a32cd" points="543.82,-331.74 535.18,-337.87 545.75,-338.47 543.82,-331.74"/>
<text text-anchor="middle" x="629.5" y="-326.44" font-family="Helvetica" font-size="10.00"> mSwitchClosed</text>
</g>
<!-- Node4 -->
<g id="node4" class="node">
<title>Node4</title>
<g id="a_node4"><a xlink:href="class_c_p_s_1_1_attribute_base.html" target="_top" xlink:title=" ">
<polygon fill="none" stroke="black" points="2.5,-194.94 2.5,-213.94 105.5,-213.94 105.5,-194.94 2.5,-194.94"/>
<text text-anchor="middle" x="54" y="-201.94" font-family="Helvetica" font-size="10.00">CPS::AttributeBase</text>
</a>
</g>
</g>
<!-- Node4&#45;&gt;Node3 -->
<g id="edge3" class="edge">
<title>Node4&#45;&gt;Node3</title>
<path fill="none" stroke="midnightblue" d="M57.93,-224.22C64.91,-263.39 86.55,-350.14 145,-386.44 255.98,-455.37 424.84,-384.18 480.78,-357.02"/>
<polygon fill="midnightblue" stroke="midnightblue" points="61.38,-223.61 56.3,-214.31 54.47,-224.75 61.38,-223.61"/>
</g>
<!-- Node6 -->
<g id="node6" class="node">
<title>Node6</title>
<g id="a_node6"><a xlink:href="class_c_p_s_1_1_attribute.html" target="_top" xlink:title=" ">
<polygon fill="none" stroke="black" points="162,-235.94 162,-254.94 266,-254.94 266,-235.94 162,-235.94"/>
<text text-anchor="middle" x="214" y="-242.94" font-family="Helvetica" font-size="10.00">CPS::Attribute&lt; T &gt;</text>
</a>
</g>
</g>
<!-- Node4&#45;&gt;Node6 -->
<g id="edge6" class="edge">
<title>Node4&#45;&gt;Node6</title>
<path fill="none" stroke="midnightblue" d="M101.54,-216.52C125.39,-222.7 154.01,-230.13 176.28,-235.91"/>
<polygon fill="midnightblue" stroke="midnightblue" points="102.2,-213.07 91.65,-213.95 100.45,-219.85 102.2,-213.07"/>
</g>
<!-- Node8 -->
<g id="node8" class="node">
<title>Node8</title>
<g id="a_node8"><a xlink:href="class_c_p_s_1_1_attribute.html" target="_top" xlink:title=" ">
<polygon fill="none" stroke="black" points="438,-260.94 438,-279.94 563,-279.94 563,-260.94 438,-260.94"/>
<text text-anchor="middle" x="500.5" y="-267.94" font-family="Helvetica" font-size="10.00">CPS::Attribute&lt; Matrix &gt;</text>
</a>
</g>
</g>
<!-- Node4&#45;&gt;Node8 -->
<g id="edge9" class="edge">
<title>Node4&#45;&gt;Node8</title>
<path fill="none" stroke="midnightblue" d="M115.53,-197.4C188.74,-191 314.87,-186.79 417,-218.44 445.3,-227.21 473.46,-248.29 488.45,-260.75"/>
<polygon fill="midnightblue" stroke="midnightblue" points="115.2,-193.92 105.56,-198.32 115.84,-200.89 115.2,-193.92"/>
</g>
<!-- Node14 -->
<g id="node14" class="node">
<title>Node14</title>
<g id="a_node14"><a xlink:href="class_c_p_s_1_1_attribute.html" target="_top" xlink:title=" ">
<polygon fill="none" stroke="black" points="438.5,-70.94 438.5,-89.94 562.5,-89.94 562.5,-70.94 438.5,-70.94"/>
<text text-anchor="middle" x="500.5" y="-77.94" font-family="Helvetica" font-size="10.00">CPS::Attribute&lt; String &gt;</text>
</a>
</g>
</g>
<!-- Node4&#45;&gt;Node14 -->
<g id="edge17" class="edge">
<title>Node4&#45;&gt;Node14</title>
<path fill="none" stroke="midnightblue" d="M58.16,-184.93C65.52,-146.69 87.76,-62.55 145,-27.44 258.25,42.03 429.17,-41.24 482.8,-70.8"/>
<polygon fill="midnightblue" stroke="midnightblue" points="54.71,-184.36 56.39,-194.82 61.6,-185.59 54.71,-184.36"/>
</g>
<!-- Node17 -->
<g id="node17" class="node">
<title>Node17</title>
<g id="a_node17"><a xlink:href="class_c_p_s_1_1_attribute.html" target="_top" xlink:title=" ">
<polygon fill="none" stroke="black" points="435,-131.44 435,-161.44 566,-161.44 566,-131.44 435,-131.44"/>
<text text-anchor="start" x="443" y="-149.44" font-family="Helvetica" font-size="10.00">CPS::Attribute&lt; MatrixVar</text>
<text text-anchor="middle" x="500.5" y="-138.44" font-family="Helvetica" font-size="10.00">&lt; VarType &gt; &gt;</text>
</a>
</g>
</g>
<!-- Node4&#45;&gt;Node17 -->
<g id="edge23" class="edge">
<title>Node4&#45;&gt;Node17</title>
<path fill="none" stroke="midnightblue" d="M68.43,-186.7C84.28,-167.39 112.61,-137.64 145,-125.44 248.42,-86.49 380.81,-112.38 450.9,-131.4"/>
<polygon fill="midnightblue" stroke="midnightblue" points="65.53,-184.72 62.06,-194.73 71.01,-189.07 65.53,-184.72"/>
</g>
<!-- Node5 -->
<g id="node5" class="node">
<title>Node5</title>
<g id="a_node5"><a xlink:title=" ">
<polygon fill="none" stroke="#bfbfbf" points="160,-335.94 160,-376.94 268,-376.94 268,-335.94 160,-335.94"/>
<text text-anchor="start" x="168" y="-364.94" font-family="Helvetica" font-size="10.00">std::enable_shared</text>
<text text-anchor="start" x="168" y="-353.94" font-family="Helvetica" font-size="10.00">_from_this&lt; Attribute</text>
<text text-anchor="middle" x="214" y="-342.94" font-family="Helvetica" font-size="10.00">&lt; Bool &gt; &gt;</text>
</a>
</g>
</g>
<!-- Node5&#45;&gt;Node3 -->
<g id="edge4" class="edge">
<title>Node5&#45;&gt;Node3</title>
<path fill="none" stroke="midnightblue" d="M278.28,-354.44C326.99,-352.9 393.78,-350.78 441.19,-349.28"/>
<polygon fill="midnightblue" stroke="midnightblue" points="278.06,-350.94 268.18,-354.76 278.28,-357.94 278.06,-350.94"/>
</g>
<!-- Node6&#45;&gt;Node3 -->
<g id="edge5" class="edge">
<title>Node6&#45;&gt;Node3</title>
<path fill="none" stroke="orange" stroke-dasharray="5,2" d="M262.34,-258.12C269.39,-260.56 276.48,-263.34 283,-266.44 291.68,-270.57 292.39,-274.16 301,-278.44 355.23,-305.39 422.6,-326.4 463.26,-337.85"/>
<polygon fill="orange" stroke="orange" points="263.38,-254.78 252.79,-254.99 261.21,-261.43 263.38,-254.78"/>
<text text-anchor="middle" x="359" y="-325.44" font-family="Helvetica" font-size="10.00"> &lt; Bool &gt;</text>
</g>
<!-- Node6&#45;&gt;Node8 -->
<g id="edge11" class="edge">
<title>Node6&#45;&gt;Node8</title>
<path fill="none" stroke="orange" stroke-dasharray="5,2" d="M276.39,-250.83C324.11,-255.03 390.02,-260.82 437.82,-265.02"/>
<polygon fill="orange" stroke="orange" points="276.46,-247.33 266.19,-249.94 275.85,-254.3 276.46,-247.33"/>
<text text-anchor="middle" x="359" y="-266.44" font-family="Helvetica" font-size="10.00"> &lt; Matrix &gt;</text>
</g>
<!-- Node6&#45;&gt;Node14 -->
<g id="edge19" class="edge">
<title>Node6&#45;&gt;Node14</title>
<path fill="none" stroke="orange" stroke-dasharray="5,2" d="M233.84,-228.94C250.73,-214.6 276.56,-193.77 301,-178.44 361.39,-140.56 438.49,-106.12 476.37,-90.02"/>
<polygon fill="orange" stroke="orange" points="231.17,-226.61 225.87,-235.79 235.74,-231.92 231.17,-226.61"/>
<text text-anchor="middle" x="359" y="-181.44" font-family="Helvetica" font-size="10.00"> &lt; String &gt;</text>
</g>
<!-- Node6&#45;&gt;Node17 -->
<g id="edge25" class="edge">
<title>Node6&#45;&gt;Node17</title>
<path fill="none" stroke="orange" stroke-dasharray="5,2" d="M276.22,-238.73C318.14,-232.03 373.76,-218.9 417,-193.44 427.02,-187.54 425.47,-181.11 435,-174.44 442,-169.54 449.99,-165.22 457.91,-161.54"/>
<polygon fill="orange" stroke="orange" points="275.51,-235.29 266.14,-240.25 276.55,-242.21 275.51,-235.29"/>
<text text-anchor="middle" x="359" y="-237.44" font-family="Helvetica" font-size="10.00"> &lt; MatrixVar&lt; VarType &gt; &gt;</text>
</g>
<!-- Node7 -->
<g id="node7" class="node">
<title>Node7</title>
<g id="a_node7"><a xlink:title=" ">
<polygon fill="none" stroke="#bfbfbf" points="0,-409.94 0,-450.94 108,-450.94 108,-409.94 0,-409.94"/>
<text text-anchor="start" x="8" y="-438.94" font-family="Helvetica" font-size="10.00">std::enable_shared</text>
<text text-anchor="start" x="8" y="-427.94" font-family="Helvetica" font-size="10.00">_from_this&lt; Attribute</text>
<text text-anchor="middle" x="54" y="-416.94" font-family="Helvetica" font-size="10.00">&lt; T &gt; &gt;</text>
</a>
</g>
</g>
<!-- Node7&#45;&gt;Node6 -->
<g id="edge7" class="edge">
<title>Node7&#45;&gt;Node6</title>
<path fill="none" stroke="midnightblue" d="M63.86,-400.06C76.15,-363.2 101.87,-301.62 145,-266.44 150.94,-261.6 157.99,-257.87 165.26,-255"/>
<polygon fill="midnightblue" stroke="midnightblue" points="60.47,-399.17 60.75,-409.76 67.14,-401.31 60.47,-399.17"/>
</g>
<!-- Node8&#45;&gt;Node2 -->
<g id="edge8" class="edge">
<title>Node8&#45;&gt;Node2</title>
<path fill="none" stroke="#9a32cd" stroke-dasharray="5,2" d="M573.45,-270.44C611.07,-270.44 656.64,-270.44 692.66,-270.44"/>
<polygon fill="#9a32cd" stroke="#9a32cd" points="573.07,-266.94 563.07,-270.44 573.07,-273.94 573.07,-266.94"/>
<text text-anchor="middle" x="629.5" y="-284.44" font-family="Helvetica" font-size="10.00"> mClosedResistance</text>
<text text-anchor="middle" x="629.5" y="-273.44" font-family="Helvetica" font-size="10.00">mOpenResistance</text>
</g>
<!-- Node22 -->
<g id="node22" class="node">
<title>Node22</title>
<g id="a_node22"><a xlink:href="class_c_p_s_1_1_m_n_a_interface.html" target="_top" xlink:title="Interface to be implemented by all models used by the MNA solver.">
<polygon fill="none" stroke="black" points="703.5,-187.94 703.5,-206.94 807.5,-206.94 807.5,-187.94 703.5,-187.94"/>
<text text-anchor="middle" x="755.5" y="-194.94" font-family="Helvetica" font-size="10.00">CPS::MNAInterface</text>
</a>
</g>
</g>
<!-- Node8&#45;&gt;Node22 -->
<g id="edge31" class="edge">
<title>Node8&#45;&gt;Node22</title>
<path fill="none" stroke="#9a32cd" stroke-dasharray="5,2" d="M544.44,-258.05C594.47,-243.61 676.05,-220.07 721.42,-206.98"/>
<polygon fill="#9a32cd" stroke="#9a32cd" points="543.21,-254.76 534.58,-260.9 545.15,-261.49 543.21,-254.76"/>
<text text-anchor="middle" x="629.5" y="-248.44" font-family="Helvetica" font-size="10.00"> mRightVector</text>
</g>
<!-- Node9 -->
<g id="node9" class="node">
<title>Node9</title>
<g id="a_node9"><a xlink:title=" ">
<polygon fill="none" stroke="#bfbfbf" points="160,-275.94 160,-316.94 268,-316.94 268,-275.94 160,-275.94"/>
<text text-anchor="start" x="168" y="-304.94" font-family="Helvetica" font-size="10.00">std::enable_shared</text>
<text text-anchor="start" x="168" y="-293.94" font-family="Helvetica" font-size="10.00">_from_this&lt; Attribute</text>
<text text-anchor="middle" x="214" y="-282.94" font-family="Helvetica" font-size="10.00">&lt; Matrix &gt; &gt;</text>
</a>
</g>
</g>
<!-- Node9&#45;&gt;Node8 -->
<g id="edge10" class="edge">
<title>Node9&#45;&gt;Node8</title>
<path fill="none" stroke="midnightblue" d="M278.08,-314.51C318.38,-323.25 371.44,-329.51 417,-317.44 444.41,-310.18 472.23,-291.46 487.53,-279.95"/>
<polygon fill="midnightblue" stroke="midnightblue" points="278.65,-311.05 268.12,-312.24 277.1,-317.87 278.65,-311.05"/>
</g>
<!-- Node10 -->
<g id="node10" class="node">
<title>Node10</title>
<g id="a_node10"><a xlink:href="class_c_p_s_1_1_sim_power_comp.html" target="_top" xlink:title=" ">
<polygon fill="none" stroke="black" points="1440.5,-129.44 1440.5,-159.44 1560.5,-159.44 1560.5,-129.44 1440.5,-129.44"/>
<text text-anchor="start" x="1448.5" y="-147.44" font-family="Helvetica" font-size="10.00">CPS::SimPowerComp&lt;</text>
<text text-anchor="middle" x="1500.5" y="-136.44" font-family="Helvetica" font-size="10.00"> Real &gt;</text>
</a>
</g>
</g>
<!-- Node10&#45;&gt;Node1 -->
<g id="edge12" class="edge">
<title>Node10&#45;&gt;Node1</title>
<path fill="none" stroke="midnightblue" d="M1570.45,-154.72C1580.89,-156.27 1591.6,-157.87 1601.85,-159.4"/>
<polygon fill="midnightblue" stroke="midnightblue" points="1570.94,-151.25 1560.54,-153.24 1569.91,-158.18 1570.94,-151.25"/>
</g>
<!-- Node11 -->
<g id="node11" class="node">
<title>Node11</title>
<g id="a_node11"><a xlink:href="class_c_p_s_1_1_topological_power_comp.html" target="_top" xlink:title=" ">
<polygon fill="none" stroke="black" points="912,-98.94 912,-117.94 1058,-117.94 1058,-98.94 912,-98.94"/>
<text text-anchor="middle" x="985" y="-105.94" font-family="Helvetica" font-size="10.00">CPS::TopologicalPowerComp</text>
</a>
</g>
</g>
<!-- Node11&#45;&gt;Node10 -->
<g id="edge13" class="edge">
<title>Node11&#45;&gt;Node10</title>
<path fill="none" stroke="midnightblue" d="M1068.42,-107.83C1141.92,-108.02 1252.37,-110.14 1348,-119.44 1378.65,-122.42 1412.48,-127.8 1440.38,-132.81"/>
<polygon fill="midnightblue" stroke="midnightblue" points="1068.3,-104.33 1058.3,-107.81 1068.29,-111.33 1068.3,-104.33"/>
</g>
<!-- Node16 -->
<g id="node16" class="node">
<title>Node16</title>
<g id="a_node16"><a xlink:href="class_c_p_s_1_1_sim_power_comp.html" target="_top" xlink:title="Base class for all components that are transmitting power.">
<polygon fill="none" stroke="black" points="1228,-129.44 1228,-159.44 1348,-159.44 1348,-129.44 1228,-129.44"/>
<text text-anchor="start" x="1236" y="-147.44" font-family="Helvetica" font-size="10.00">CPS::SimPowerComp&lt;</text>
<text text-anchor="middle" x="1288" y="-136.44" font-family="Helvetica" font-size="10.00"> VarType &gt;</text>
</a>
</g>
</g>
<!-- Node11&#45;&gt;Node16 -->
<g id="edge21" class="edge">
<title>Node11&#45;&gt;Node16</title>
<path fill="none" stroke="midnightblue" d="M1068.32,-118.28C1118.74,-124.31 1182.1,-131.89 1227.62,-137.34"/>
<polygon fill="midnightblue" stroke="midnightblue" points="1068.44,-114.77 1058.1,-117.06 1067.61,-121.72 1068.44,-114.77"/>
</g>
<!-- Node12 -->
<g id="node12" class="node">
<title>Node12</title>
<g id="a_node12"><a xlink:href="class_c_p_s_1_1_identified_object.html" target="_top" xlink:title=" ">
<polygon fill="none" stroke="black" points="699.5,-98.94 699.5,-117.94 811.5,-117.94 811.5,-98.94 699.5,-98.94"/>
<text text-anchor="middle" x="755.5" y="-105.94" font-family="Helvetica" font-size="10.00">CPS::IdentifiedObject</text>
</a>
</g>
</g>
<!-- Node12&#45;&gt;Node11 -->
<g id="edge14" class="edge">
<title>Node12&#45;&gt;Node11</title>
<path fill="none" stroke="midnightblue" d="M821.71,-108.44C849.86,-108.44 882.9,-108.44 911.8,-108.44"/>
<polygon fill="midnightblue" stroke="midnightblue" points="821.57,-104.94 811.57,-108.44 821.57,-111.94 821.57,-104.94"/>
</g>
<!-- Node13 -->
<g id="node13" class="node">
<title>Node13</title>
<g id="a_node13"><a xlink:href="class_c_p_s_1_1_attribute_list.html" target="_top" xlink:title="Base class of objects having attributes to access member variables.">
<polygon fill="none" stroke="black" points="452.5,-183.94 452.5,-202.94 548.5,-202.94 548.5,-183.94 452.5,-183.94"/>
<text text-anchor="middle" x="500.5" y="-190.94" font-family="Helvetica" font-size="10.00">CPS::AttributeList</text>
</a>
</g>
</g>
<!-- Node13&#45;&gt;Node12 -->
<g id="edge15" class="edge">
<title>Node13&#45;&gt;Node12</title>
<path fill="none" stroke="midnightblue" d="M539.73,-180.6C590.89,-163.41 680.47,-133.31 726.07,-117.99"/>
<polygon fill="midnightblue" stroke="midnightblue" points="538.4,-177.35 530.03,-183.85 540.62,-183.99 538.4,-177.35"/>
</g>
<!-- Node13&#45;&gt;Node22 -->
<g id="edge30" class="edge">
<title>Node13&#45;&gt;Node22</title>
<path fill="none" stroke="midnightblue" d="M558.9,-194.35C602.27,-195.03 661.26,-195.96 703.09,-196.63"/>
<polygon fill="midnightblue" stroke="midnightblue" points="558.84,-190.84 548.79,-194.19 558.73,-197.84 558.84,-190.84"/>
</g>
<!-- Node14&#45;&gt;Node12 -->
<g id="edge16" class="edge">
<title>Node14&#45;&gt;Node12</title>
<path fill="none" stroke="#9a32cd" stroke-dasharray="5,2" d="M572.74,-88.32C612.88,-92.77 662.27,-98.23 699.42,-102.34"/>
<polygon fill="#9a32cd" stroke="#9a32cd" points="573.07,-84.84 562.74,-87.22 572.3,-91.8 573.07,-84.84"/>
<text text-anchor="middle" x="629.5" y="-113.44" font-family="Helvetica" font-size="10.00"> mName</text>
<text text-anchor="middle" x="629.5" y="-102.44" font-family="Helvetica" font-size="10.00">mUID</text>
</g>
<!-- Node15 -->
<g id="node15" class="node">
<title>Node15</title>
<g id="a_node15"><a xlink:title=" ">
<polygon fill="none" stroke="#bfbfbf" points="160,-36.94 160,-77.94 268,-77.94 268,-36.94 160,-36.94"/>
<text text-anchor="start" x="168" y="-65.94" font-family="Helvetica" font-size="10.00">std::enable_shared</text>
<text text-anchor="start" x="168" y="-54.94" font-family="Helvetica" font-size="10.00">_from_this&lt; Attribute</text>
<text text-anchor="middle" x="214" y="-43.94" font-family="Helvetica" font-size="10.00">&lt; String &gt; &gt;</text>
</a>
</g>
</g>
<!-- Node15&#45;&gt;Node14 -->
<g id="edge18" class="edge">
<title>Node15&#45;&gt;Node14</title>
<path fill="none" stroke="midnightblue" d="M278.4,-62.56C326.16,-66.42 391.25,-71.69 438.43,-75.5"/>
<polygon fill="midnightblue" stroke="midnightblue" points="278.43,-59.05 268.18,-61.74 277.86,-66.03 278.43,-59.05"/>
</g>
<!-- Node16&#45;&gt;Node10 -->
<g id="edge20" class="edge">
<title>Node16&#45;&gt;Node10</title>
<path fill="none" stroke="orange" stroke-dasharray="5,2" d="M1358.55,-144.44C1385.04,-144.44 1414.95,-144.44 1440.38,-144.44"/>
<polygon fill="orange" stroke="orange" points="1358.2,-140.94 1348.2,-144.44 1358.2,-147.94 1358.2,-140.94"/>
<text text-anchor="middle" x="1392" y="-147.44" font-family="Helvetica" font-size="10.00"> &lt; Real &gt;</text>
</g>
<!-- Node17&#45;&gt;Node16 -->
<g id="edge22" class="edge">
<title>Node17&#45;&gt;Node16</title>
<path fill="none" stroke="#9a32cd" stroke-dasharray="5,2" d="M576.52,-146.25C732.09,-145.85 1087.04,-144.95 1227.86,-144.59"/>
<polygon fill="#9a32cd" stroke="#9a32cd" points="576.11,-142.75 566.11,-146.27 576.12,-149.75 576.11,-142.75"/>
<text text-anchor="middle" x="865" y="-160.44" font-family="Helvetica" font-size="10.00"> mIntfCurrent</text>
<text text-anchor="middle" x="865" y="-149.44" font-family="Helvetica" font-size="10.00">mIntfVoltage</text>
</g>
<!-- Node18 -->
<g id="node18" class="node">
<title>Node18</title>
<g id="a_node18"><a xlink:title=" ">
<polygon fill="none" stroke="#bfbfbf" points="145,-134.94 145,-175.94 283,-175.94 283,-134.94 145,-134.94"/>
<text text-anchor="start" x="153" y="-163.94" font-family="Helvetica" font-size="10.00">std::enable_shared</text>
<text text-anchor="start" x="153" y="-152.94" font-family="Helvetica" font-size="10.00">_from_this&lt; Attribute</text>
<text text-anchor="middle" x="214" y="-141.94" font-family="Helvetica" font-size="10.00">&lt; MatrixVar&lt; VarType &gt; &gt; &gt;</text>
</a>
</g>
</g>
<!-- Node18&#45;&gt;Node17 -->
<g id="edge24" class="edge">
<title>Node18&#45;&gt;Node17</title>
<path fill="none" stroke="midnightblue" d="M293.34,-152.96C337.82,-151.55 392.84,-149.81 434.84,-148.48"/>
<polygon fill="midnightblue" stroke="midnightblue" points="293.03,-149.47 283.14,-153.28 293.25,-156.46 293.03,-149.47"/>
</g>
<!-- Node19 -->
<g id="node19" class="node">
<title>Node19</title>
<g id="a_node19"><a xlink:href="class_shared_factory.html" target="_top" xlink:title=" ">
<polygon fill="none" stroke="black" points="1436,-68.94 1436,-87.94 1565,-87.94 1565,-68.94 1436,-68.94"/>
<text text-anchor="middle" x="1500.5" y="-75.94" font-family="Helvetica" font-size="10.00">SharedFactory&lt; Switch &gt;</text>
</a>
</g>
</g>
<!-- Node19&#45;&gt;Node1 -->
<g id="edge26" class="edge">
<title>Node19&#45;&gt;Node1</title>
<path fill="none" stroke="midnightblue" d="M1527.85,-93.17C1561.08,-111.75 1617.27,-143.16 1645.39,-158.88"/>
<polygon fill="midnightblue" stroke="midnightblue" points="1529.17,-89.89 1518.73,-88.07 1525.75,-96 1529.17,-89.89"/>
</g>
<!-- Node20 -->
<g id="node20" class="node">
<title>Node20</title>
<g id="a_node20"><a xlink:href="class_shared_factory.html" target="_top" xlink:title=" ">
<polygon fill="none" stroke="black" points="1235.5,-49.94 1235.5,-68.94 1340.5,-68.94 1340.5,-49.94 1235.5,-49.94"/>
<text text-anchor="middle" x="1288" y="-56.94" font-family="Helvetica" font-size="10.00">SharedFactory&lt; T &gt;</text>
</a>
</g>
</g>
<!-- Node20&#45;&gt;Node19 -->
<g id="edge27" class="edge">
<title>Node20&#45;&gt;Node19</title>
<path fill="none" stroke="orange" stroke-dasharray="5,2" d="M1350.79,-65.02C1377.57,-67.43 1408.91,-70.26 1435.89,-72.7"/>
<polygon fill="orange" stroke="orange" points="1351.04,-61.52 1340.76,-64.11 1350.41,-68.5 1351.04,-61.52"/>
<text text-anchor="middle" x="1392" y="-74.44" font-family="Helvetica" font-size="10.00"> &lt; Switch &gt;</text>
</g>
<!-- Node21 -->
<g id="node21" class="node">
<title>Node21</title>
<g id="a_node21"><a xlink:href="class_c_p_s_1_1_m_n_a_switch_interface.html" target="_top" xlink:title="MNA interface to be used by switching devices.">
<polygon fill="none" stroke="black" points="1076,-183.94 1076,-202.94 1210,-202.94 1210,-183.94 1076,-183.94"/>
<text text-anchor="middle" x="1143" y="-190.94" font-family="Helvetica" font-size="10.00">CPS::MNASwitchInterface</text>
</a>
</g>
</g>
<!-- Node21&#45;&gt;Node1 -->
<g id="edge28" class="edge">
<title>Node21&#45;&gt;Node1</title>
<path fill="none" stroke="midnightblue" d="M1220.28,-189.76C1323.92,-184.76 1507.14,-175.93 1601.93,-171.36"/>
<polygon fill="midnightblue" stroke="midnightblue" points="1220.01,-186.27 1210.2,-190.25 1220.35,-193.26 1220.01,-186.27"/>
</g>
<!-- Node22&#45;&gt;Node21 -->
<g id="edge29" class="edge">
<title>Node22&#45;&gt;Node21</title>
<path fill="none" stroke="midnightblue" d="M817.74,-196.8C888.14,-196.07 1003.27,-194.88 1075.72,-194.13"/>
<polygon fill="midnightblue" stroke="midnightblue" points="817.65,-193.3 807.69,-196.91 817.73,-200.3 817.65,-193.3"/>
</g>
</g>
</svg>
        <g id="navigator" transform="translate(0 0)" fill="#404254">
                <rect fill="#f2f5e9" fill-opacity="0.5" stroke="#606060" stroke-width=".5" x="0" y="0" width="60" height="60"/>
                <use id="zoomplus" xlink:href="#zoomPlus" x="17" y="9" onmousedown="handleZoom(evt,'in')"/>
                <use id="zoomminus" xlink:href="#zoomMin" x="42" y="9" onmousedown="handleZoom(evt,'out')"/>
                <use id="reset" xlink:href="#resetDef" x="30" y="36" onmousedown="handleReset()"/>
                <g id="arrowUp" xlink:href="#dirArrow" transform="translate(30 24)" onmousedown="handlePan(0,-1)">
                  <use xlink:href="#rim" fill="#404040">
                        <set attributeName="fill" to="#808080" begin="arrowUp.mouseover" end="arrowUp.mouseout"/>
                  </use>
                  <path fill="none" stroke="white" stroke-width="1.5" d="M0,-3.0v7 M-2.5,-0.5L0,-3.0L2.5,-0.5"/>
                </g>
                <g id="arrowRight" xlink:href="#dirArrow" transform="rotate(90) translate(36 -43)" onmousedown="handlePan(1,0)">
                  <use xlink:href="#rim" fill="#404040">
                        <set attributeName="fill" to="#808080" begin="arrowRight.mouseover" end="arrowRight.mouseout"/>
                  </use>
                  <path fill="none" stroke="white" stroke-width="1.5" d="M0,-3.0v7 M-2.5,-0.5L0,-3.0L2.5,-0.5"/>
                </g>
                <g id="arrowDown" xlink:href="#dirArrow" transform="rotate(180) translate(-30 -48)" onmousedown="handlePan(0,1)">
                  <use xlink:href="#rim" fill="#404040">
                        <set attributeName="fill" to="#808080" begin="arrowDown.mouseover" end="arrowDown.mouseout"/>
                  </use>
                  <path fill="none" stroke="white" stroke-width="1.5" d="M0,-3.0v7 M-2.5,-0.5L0,-3.0L2.5,-0.5"/>
                </g>
                <g id="arrowLeft" xlink:href="#dirArrow" transform="rotate(270) translate(-36 17)" onmousedown="handlePan(-1,0)">
                  <use xlink:href="#rim" fill="#404040">
                        <set attributeName="fill" to="#808080" begin="arrowLeft.mouseover" end="arrowLeft.mouseout"/>
                  </use>
                  <path fill="none" stroke="white" stroke-width="1.5" d="M0,-3.0v7 M-2.5,-0.5L0,-3.0L2.5,-0.5"/>
                </g>
        </g>
        <svg viewBox="0 0 15 15" width="100%" height="30px" preserveAspectRatio="xMaxYMin meet">
         <g id="arrow_out" transform="scale(0.3 0.3)">
          <a xlink:href="class_c_p_s_1_1_e_m_t_1_1_ph3_1_1_switch__coll__graph_org.svg" target="_base">
           <rect id="button" ry="5" rx="5" y="6" x="6" height="38" width="38"
                fill="#f2f5e9" fill-opacity="0.5" stroke="#606060" stroke-width="1.0"/>
           <path id="arrow"
             d="M 11.500037,31.436501 C 11.940474,20.09759 22.043105,11.32322 32.158766,21.979434 L 37.068811,17.246167 C 37.068811,17.246167 37.088388,32 37.088388,32 L 22.160133,31.978069 C 22.160133,31.978069 26.997745,27.140456 26.997745,27.140456 C 18.528582,18.264221 13.291696,25.230495 11.500037,31.436501 z"
             style="fill:#404040;"/>
          </a>
         </g>
        </svg>
</svg>
