<?xml version="1.0" encoding="UTF-8" standalone="no"?>
<!DOCTYPE svg PUBLIC "-//W3C//DTD SVG 1.1//EN"
 "http://www.w3.org/Graphics/SVG/1.1/DTD/svg11.dtd">
<!-- Generated by graphviz version 2.50.0 (0)
 -->
<!-- Title: CPS::DP::Ph1::RXLoadSwitch Pages: 1 -->
<svg width="2199pt" height="341pt"
 viewBox="0.00 0.00 2199.00 341.00" xmlns="http://www.w3.org/2000/svg" xmlns:xlink="http://www.w3.org/1999/xlink">
<g id="graph0" class="graph" transform="scale(1 1) rotate(0) translate(4 337)">
<title>CPS::DP::Ph1::RXLoadSwitch</title>
<!-- Node1 -->
<g id="node1" class="node">
<title>Node1</title>
<g id="a_node1"><a xlink:title="Constant impedance load model consisting of RLC elements.">
<polygon fill="#bfbfbf" stroke="black" points="2044,-197.5 2044,-216.5 2191,-216.5 2191,-197.5 2044,-197.5"/>
<text text-anchor="middle" x="2117.5" y="-204.5" font-family="Helvetica,sans-Serif" font-size="10.00">CPS::DP::Ph1::RXLoadSwitch</text>
</a>
</g>
</g>
<!-- Node2 -->
<g id="node2" class="node">
<title>Node2</title>
<g id="a_node2"><a xlink:href="class_c_p_s_1_1_composite_power_comp.html" target="_top" xlink:title=" ">
<polygon fill="none" stroke="black" points="1852,-236 1852,-266 1998,-266 1998,-236 1852,-236"/>
<text text-anchor="start" x="1860" y="-254" font-family="Helvetica,sans-Serif" font-size="10.00">CPS::CompositePowerComp</text>
<text text-anchor="middle" x="1925" y="-243" font-family="Helvetica,sans-Serif" font-size="10.00">&lt; Complex &gt;</text>
</a>
</g>
</g>
<!-- Node2&#45;&gt;Node1 -->
<g id="edge1" class="edge">
<title>Node2&#45;&gt;Node1</title>
<path fill="none" stroke="midnightblue" d="M2000.98,-233.68C2026.29,-227.84 2053.61,-221.53 2075.32,-216.51"/>
<polygon fill="midnightblue" stroke="midnightblue" points="1999.98,-230.32 1991.03,-235.98 2001.56,-237.14 1999.98,-230.32"/>
</g>
<!-- Node3 -->
<g id="node3" class="node">
<title>Node3</title>
<g id="a_node3"><a xlink:href="class_c_p_s_1_1_m_n_a_sim_power_comp.html" target="_top" xlink:title=" ">
<polygon fill="none" stroke="black" points="1582.5,-200 1582.5,-230 1719.5,-230 1719.5,-200 1582.5,-200"/>
<text text-anchor="start" x="1590.5" y="-218" font-family="Helvetica,sans-Serif" font-size="10.00">CPS::MNASimPowerComp</text>
<text text-anchor="middle" x="1651" y="-207" font-family="Helvetica,sans-Serif" font-size="10.00">&lt; Complex &gt;</text>
</a>
</g>
</g>
<!-- Node3&#45;&gt;Node2 -->
<g id="edge2" class="edge">
<title>Node3&#45;&gt;Node2</title>
<path fill="none" stroke="midnightblue" d="M1729.66,-225.28C1767.98,-230.35 1813.93,-236.43 1851.52,-241.41"/>
<polygon fill="midnightblue" stroke="midnightblue" points="1729.96,-221.79 1719.59,-223.95 1729.04,-228.73 1729.96,-221.79"/>
</g>
<!-- Node4 -->
<g id="node4" class="node">
<title>Node4</title>
<g id="a_node4"><a xlink:href="class_c_p_s_1_1_sim_power_comp.html" target="_top" xlink:title=" ">
<polygon fill="none" stroke="black" points="1355,-96 1355,-126 1474,-126 1474,-96 1355,-96"/>
<text text-anchor="start" x="1363" y="-114" font-family="Helvetica,sans-Serif" font-size="10.00">CPS::SimPowerComp&lt;</text>
<text text-anchor="middle" x="1414.5" y="-103" font-family="Helvetica,sans-Serif" font-size="10.00"> Complex &gt;</text>
</a>
</g>
</g>
<!-- Node4&#45;&gt;Node3 -->
<g id="edge3" class="edge">
<title>Node4&#45;&gt;Node3</title>
<path fill="none" stroke="midnightblue" d="M1484.61,-111.67C1510.78,-115.18 1539.24,-123.34 1560,-141 1577.04,-155.49 1562.13,-172.24 1578,-188 1582.74,-192.7 1588.37,-196.6 1594.37,-199.82"/>
<polygon fill="midnightblue" stroke="midnightblue" points="1484.66,-108.15 1474.33,-110.5 1483.87,-115.11 1484.66,-108.15"/>
</g>
<!-- Node5 -->
<g id="node5" class="node">
<title>Node5</title>
<g id="a_node5"><a xlink:href="class_c_p_s_1_1_topological_power_comp.html" target="_top" xlink:title=" ">
<polygon fill="none" stroke="black" points="881,-86.5 881,-105.5 1029,-105.5 1029,-86.5 881,-86.5"/>
<text text-anchor="middle" x="955" y="-93.5" font-family="Helvetica,sans-Serif" font-size="10.00">CPS::TopologicalPowerComp</text>
</a>
</g>
</g>
<!-- Node5&#45;&gt;Node4 -->
<g id="edge4" class="edge">
<title>Node5&#45;&gt;Node4</title>
<path fill="none" stroke="midnightblue" d="M1039.3,-98.73C1130.65,-101.73 1274.9,-106.46 1355,-109.08"/>
<polygon fill="midnightblue" stroke="midnightblue" points="1039.36,-95.23 1029.25,-98.4 1039.13,-102.23 1039.36,-95.23"/>
</g>
<!-- Node12 -->
<g id="node12" class="node">
<title>Node12</title>
<g id="a_node12"><a xlink:href="class_c_p_s_1_1_sim_power_comp.html" target="_top" xlink:title="Base class for all components that are transmitting power.">
<polygon fill="none" stroke="black" points="1132,-130 1132,-160 1251,-160 1251,-130 1132,-130"/>
<text text-anchor="start" x="1140" y="-148" font-family="Helvetica,sans-Serif" font-size="10.00">CPS::SimPowerComp&lt;</text>
<text text-anchor="middle" x="1191.5" y="-137" font-family="Helvetica,sans-Serif" font-size="10.00"> VarType &gt;</text>
</a>
</g>
</g>
<!-- Node5&#45;&gt;Node12 -->
<g id="edge13" class="edge">
<title>Node5&#45;&gt;Node12</title>
<path fill="none" stroke="midnightblue" d="M1011.4,-107.58C1047.63,-115.15 1094.91,-125.02 1131.78,-132.73"/>
<polygon fill="midnightblue" stroke="midnightblue" points="1012,-104.13 1001.49,-105.51 1010.56,-110.98 1012,-104.13"/>
</g>
<!-- Node6 -->
<g id="node6" class="node">
<title>Node6</title>
<g id="a_node6"><a xlink:href="class_c_p_s_1_1_identified_object.html" target="_top" xlink:title=" ">
<polygon fill="none" stroke="black" points="664,-83.5 664,-102.5 780,-102.5 780,-83.5 664,-83.5"/>
<text text-anchor="middle" x="722" y="-90.5" font-family="Helvetica,sans-Serif" font-size="10.00">CPS::IdentifiedObject</text>
</a>
</g>
</g>
<!-- Node6&#45;&gt;Node5 -->
<g id="edge5" class="edge">
<title>Node6&#45;&gt;Node5</title>
<path fill="none" stroke="midnightblue" d="M790.34,-93.87C818.77,-94.24 851.94,-94.67 880.96,-95.05"/>
<polygon fill="midnightblue" stroke="midnightblue" points="790.15,-90.37 780.1,-93.74 790.05,-97.37 790.15,-90.37"/>
</g>
<!-- Node7 -->
<g id="node7" class="node">
<title>Node7</title>
<g id="a_node7"><a xlink:href="class_c_p_s_1_1_attribute.html" target="_top" xlink:title=" ">
<polygon fill="none" stroke="black" points="456,-71.5 456,-90.5 583,-90.5 583,-71.5 456,-71.5"/>
<text text-anchor="middle" x="519.5" y="-78.5" font-family="Helvetica,sans-Serif" font-size="10.00">CPS::Attribute&lt; String &gt;</text>
</a>
</g>
</g>
<!-- Node7&#45;&gt;Node6 -->
<g id="edge6" class="edge">
<title>Node7&#45;&gt;Node6</title>
<path fill="none" stroke="#9a32cd" stroke-dasharray="5,2" d="M593.29,-85.36C616.56,-86.75 641.98,-88.27 663.97,-89.59"/>
<polygon fill="#9a32cd" stroke="#9a32cd" points="593.31,-81.85 583.11,-84.75 592.89,-88.84 593.31,-81.85"/>
<text text-anchor="middle" x="626" y="-103" font-family="Helvetica,sans-Serif" font-size="10.00"> mName</text>
<text text-anchor="middle" x="626" y="-92" font-family="Helvetica,sans-Serif" font-size="10.00">mUID</text>
</g>
<!-- Node8 -->
<g id="node8" class="node">
<title>Node8</title>
<g id="a_node8"><a xlink:href="class_c_p_s_1_1_attribute_base.html" target="_top" xlink:title=" ">
<polygon fill="none" stroke="black" points="5.5,-118.5 5.5,-137.5 110.5,-137.5 110.5,-118.5 5.5,-118.5"/>
<text text-anchor="middle" x="58" y="-125.5" font-family="Helvetica,sans-Serif" font-size="10.00">CPS::AttributeBase</text>
</a>
</g>
</g>
<!-- Node8&#45;&gt;Node7 -->
<g id="edge7" class="edge">
<title>Node8&#45;&gt;Node7</title>
<path fill="none" stroke="midnightblue" d="M120.53,-121.7C171.97,-116.43 247.27,-108.72 313,-102 360.99,-97.09 415.27,-91.54 456,-87.38"/>
<polygon fill="midnightblue" stroke="midnightblue" points="120.16,-118.22 110.57,-122.72 120.87,-125.18 120.16,-118.22"/>
</g>
<!-- Node10 -->
<g id="node10" class="node">
<title>Node10</title>
<g id="a_node10"><a xlink:href="class_c_p_s_1_1_attribute.html" target="_top" xlink:title=" ">
<polygon fill="none" stroke="black" points="172,-155.5 172,-174.5 276,-174.5 276,-155.5 172,-155.5"/>
<text text-anchor="middle" x="224" y="-162.5" font-family="Helvetica,sans-Serif" font-size="10.00">CPS::Attribute&lt; T &gt;</text>
</a>
</g>
</g>
<!-- Node8&#45;&gt;Node10 -->
<g id="edge10" class="edge">
<title>Node8&#45;&gt;Node10</title>
<path fill="none" stroke="midnightblue" d="M111.25,-139.79C133.64,-144.84 159.45,-150.66 180.62,-155.44"/>
<polygon fill="midnightblue" stroke="midnightblue" points="111.76,-136.32 101.23,-137.53 110.22,-143.14 111.76,-136.32"/>
</g>
<!-- Node13 -->
<g id="node13" class="node">
<title>Node13</title>
<g id="a_node13"><a xlink:href="class_c_p_s_1_1_attribute.html" target="_top" xlink:title=" ">
<polygon fill="none" stroke="black" points="451,-144 451,-174 588,-174 588,-144 451,-144"/>
<text text-anchor="start" x="459" y="-162" font-family="Helvetica,sans-Serif" font-size="10.00">CPS::Attribute&lt; MatrixVar</text>
<text text-anchor="middle" x="519.5" y="-151" font-family="Helvetica,sans-Serif" font-size="10.00">&lt; VarType &gt; &gt;</text>
</a>
</g>
</g>
<!-- Node8&#45;&gt;Node13 -->
<g id="edge15" class="edge">
<title>Node8&#45;&gt;Node13</title>
<path fill="none" stroke="midnightblue" d="M120.96,-132.18C206.97,-137.98 361.99,-148.44 450.9,-154.44"/>
<polygon fill="midnightblue" stroke="midnightblue" points="121.03,-128.68 110.82,-131.5 120.56,-135.66 121.03,-128.68"/>
</g>
<!-- Node16 -->
<g id="node16" class="node">
<title>Node16</title>
<g id="a_node16"><a xlink:href="class_c_p_s_1_1_attribute.html" target="_top" xlink:title=" ">
<polygon fill="none" stroke="black" points="455,-253.5 455,-272.5 584,-272.5 584,-253.5 455,-253.5"/>
<text text-anchor="middle" x="519.5" y="-260.5" font-family="Helvetica,sans-Serif" font-size="10.00">CPS::Attribute&lt; Matrix &gt;</text>
</a>
</g>
</g>
<!-- Node8&#45;&gt;Node16 -->
<g id="edge20" class="edge">
<title>Node8&#45;&gt;Node16</title>
<path fill="none" stroke="midnightblue" d="M110.67,-142.63C112.56,-143.97 114.35,-145.42 116,-147 149.31,-178.92 115.69,-216.85 153,-244 199.49,-277.84 362.95,-273.33 454.74,-267.78"/>
<polygon fill="midnightblue" stroke="midnightblue" points="112.27,-139.52 101.86,-137.54 108.77,-145.58 112.27,-139.52"/>
</g>
<!-- Node9 -->
<g id="node9" class="node">
<title>Node9</title>
<g id="a_node9"><a xlink:title=" ">
<polygon fill="none" stroke="#bfbfbf" points="166,-0.5 166,-41.5 282,-41.5 282,-0.5 166,-0.5"/>
<text text-anchor="start" x="174" y="-29.5" font-family="Helvetica,sans-Serif" font-size="10.00">std::enable_shared</text>
<text text-anchor="start" x="174" y="-18.5" font-family="Helvetica,sans-Serif" font-size="10.00">_from_this&lt; Attribute</text>
<text text-anchor="middle" x="224" y="-7.5" font-family="Helvetica,sans-Serif" font-size="10.00">&lt; String &gt; &gt;</text>
</a>
</g>
</g>
<!-- Node9&#45;&gt;Node7 -->
<g id="edge8" class="edge">
<title>Node9&#45;&gt;Node7</title>
<path fill="none" stroke="midnightblue" d="M292.42,-30.29C333.33,-36.43 386.44,-45.32 433,-56 451.84,-60.32 472.67,-66.39 489.05,-71.46"/>
<polygon fill="midnightblue" stroke="midnightblue" points="292.7,-26.79 282.3,-28.79 291.68,-33.72 292.7,-26.79"/>
</g>
<!-- Node10&#45;&gt;Node7 -->
<g id="edge9" class="edge">
<title>Node10&#45;&gt;Node7</title>
<path fill="none" stroke="orange" stroke-dasharray="5,2" d="M268.15,-152.65C327.15,-135.76 431.77,-105.82 485.15,-90.55"/>
<polygon fill="orange" stroke="orange" points="267.03,-149.33 258.38,-155.45 268.96,-156.06 267.03,-149.33"/>
<text text-anchor="middle" x="373" y="-141" font-family="Helvetica,sans-Serif" font-size="10.00"> &lt; String &gt;</text>
</g>
<!-- Node10&#45;&gt;Node13 -->
<g id="edge17" class="edge">
<title>Node10&#45;&gt;Node13</title>
<path fill="none" stroke="orange" stroke-dasharray="5,2" d="M286.39,-163.74C334.47,-162.76 401.3,-161.4 450.9,-160.38"/>
<polygon fill="orange" stroke="orange" points="286.05,-160.25 276.12,-163.95 286.19,-167.25 286.05,-160.25"/>
<text text-anchor="middle" x="373" y="-167" font-family="Helvetica,sans-Serif" font-size="10.00"> &lt; MatrixVar&lt; VarType &gt; &gt;</text>
</g>
<!-- Node10&#45;&gt;Node16 -->
<g id="edge22" class="edge">
<title>Node10&#45;&gt;Node16</title>
<path fill="none" stroke="orange" stroke-dasharray="5,2" d="M271.88,-177.2C279.63,-179.37 287.56,-181.68 295,-184 367.88,-206.74 452.49,-238 493.57,-253.5"/>
<polygon fill="orange" stroke="orange" points="272.77,-173.82 262.2,-174.54 270.92,-180.57 272.77,-173.82"/>
<text text-anchor="middle" x="373" y="-232" font-family="Helvetica,sans-Serif" font-size="10.00"> &lt; Matrix &gt;</text>
</g>
<!-- Node11 -->
<g id="node11" class="node">
<title>Node11</title>
<g id="a_node11"><a xlink:title=" ">
<polygon fill="none" stroke="#bfbfbf" points="0,-156.5 0,-197.5 116,-197.5 116,-156.5 0,-156.5"/>
<text text-anchor="start" x="8" y="-185.5" font-family="Helvetica,sans-Serif" font-size="10.00">std::enable_shared</text>
<text text-anchor="start" x="8" y="-174.5" font-family="Helvetica,sans-Serif" font-size="10.00">_from_this&lt; Attribute</text>
<text text-anchor="middle" x="58" y="-163.5" font-family="Helvetica,sans-Serif" font-size="10.00">&lt; T &gt; &gt;</text>
</a>
</g>
</g>
<!-- Node11&#45;&gt;Node10 -->
<g id="edge11" class="edge">
<title>Node11&#45;&gt;Node10</title>
<path fill="none" stroke="midnightblue" d="M126.7,-172.05C141.84,-170.94 157.64,-169.78 171.97,-168.73"/>
<polygon fill="midnightblue" stroke="midnightblue" points="126.08,-168.58 116.36,-172.8 126.59,-175.56 126.08,-168.58"/>
</g>
<!-- Node12&#45;&gt;Node4 -->
<g id="edge12" class="edge">
<title>Node12&#45;&gt;Node4</title>
<path fill="none" stroke="orange" stroke-dasharray="5,2" d="M1261.35,-131.29C1263.93,-130.84 1266.49,-130.41 1269,-130 1297.09,-125.4 1328.4,-121.18 1354.67,-117.88"/>
<polygon fill="orange" stroke="orange" points="1260.55,-127.88 1251.32,-133.08 1261.78,-134.77 1260.55,-127.88"/>
<text text-anchor="middle" x="1298.5" y="-133" font-family="Helvetica,sans-Serif" font-size="10.00"> &lt; Complex &gt;</text>
</g>
<!-- Node18 -->
<g id="node18" class="node">
<title>Node18</title>
<g id="a_node18"><a xlink:href="class_c_p_s_1_1_m_n_a_sim_power_comp.html" target="_top" xlink:title="Base class for all MNA components that are transmitting power.">
<polygon fill="none" stroke="black" points="1346,-200 1346,-230 1483,-230 1483,-200 1346,-200"/>
<text text-anchor="start" x="1354" y="-218" font-family="Helvetica,sans-Serif" font-size="10.00">CPS::MNASimPowerComp</text>
<text text-anchor="middle" x="1414.5" y="-207" font-family="Helvetica,sans-Serif" font-size="10.00">&lt; VarType &gt;</text>
</a>
</g>
</g>
<!-- Node12&#45;&gt;Node18 -->
<g id="edge24" class="edge">
<title>Node12&#45;&gt;Node18</title>
<path fill="none" stroke="midnightblue" d="M1249.79,-163.15C1285.81,-174.56 1331.75,-189.11 1365.79,-199.89"/>
<polygon fill="midnightblue" stroke="midnightblue" points="1250.5,-159.7 1239.91,-160.02 1248.39,-166.37 1250.5,-159.7"/>
</g>
<!-- Node13&#45;&gt;Node12 -->
<g id="edge14" class="edge">
<title>Node13&#45;&gt;Node12</title>
<path fill="none" stroke="#9a32cd" stroke-dasharray="5,2" d="M598.43,-157.37C734.04,-154.54 1010.51,-148.76 1131.54,-146.23"/>
<polygon fill="#9a32cd" stroke="#9a32cd" points="598.04,-153.88 588.12,-157.59 598.19,-160.88 598.04,-153.88"/>
<text text-anchor="middle" x="830.5" y="-168" font-family="Helvetica,sans-Serif" font-size="10.00"> mIntfCurrent</text>
<text text-anchor="middle" x="830.5" y="-157" font-family="Helvetica,sans-Serif" font-size="10.00">mIntfVoltage</text>
</g>
<!-- Node14 -->
<g id="node14" class="node">
<title>Node14</title>
<g id="a_node14"><a xlink:title=" ">
<polygon fill="none" stroke="#bfbfbf" points="153,-193.5 153,-234.5 295,-234.5 295,-193.5 153,-193.5"/>
<text text-anchor="start" x="161" y="-222.5" font-family="Helvetica,sans-Serif" font-size="10.00">std::enable_shared</text>
<text text-anchor="start" x="161" y="-211.5" font-family="Helvetica,sans-Serif" font-size="10.00">_from_this&lt; Attribute</text>
<text text-anchor="middle" x="224" y="-200.5" font-family="Helvetica,sans-Serif" font-size="10.00">&lt; MatrixVar&lt; VarType &gt; &gt; &gt;</text>
</a>
</g>
</g>
<!-- Node14&#45;&gt;Node13 -->
<g id="edge16" class="edge">
<title>Node14&#45;&gt;Node13</title>
<path fill="none" stroke="midnightblue" d="M305.18,-201.72C343.91,-195.48 390.98,-187.44 433,-179 440.47,-177.5 448.29,-175.82 456.03,-174.09"/>
<polygon fill="midnightblue" stroke="midnightblue" points="304.33,-198.31 295.01,-203.35 305.44,-205.22 304.33,-198.31"/>
</g>
<!-- Node15 -->
<g id="node15" class="node">
<title>Node15</title>
<g id="a_node15"><a xlink:href="class_c_p_s_1_1_m_n_a_interface.html" target="_top" xlink:title="Interface to be implemented by all models used by the MNA solver.">
<polygon fill="none" stroke="black" points="1138,-180.5 1138,-199.5 1245,-199.5 1245,-180.5 1138,-180.5"/>
<text text-anchor="middle" x="1191.5" y="-187.5" font-family="Helvetica,sans-Serif" font-size="10.00">CPS::MNAInterface</text>
</a>
</g>
</g>
<!-- Node15&#45;&gt;Node3 -->
<g id="edge18" class="edge">
<title>Node15&#45;&gt;Node3</title>
<path fill="none" stroke="midnightblue" d="M1255.33,-187.31C1314.23,-185.43 1404.71,-184.17 1483,-190 1515.89,-192.45 1552.12,-197.57 1582.41,-202.55"/>
<polygon fill="midnightblue" stroke="midnightblue" points="1254.94,-183.82 1245.07,-187.66 1255.18,-190.82 1254.94,-183.82"/>
</g>
<!-- Node15&#45;&gt;Node18 -->
<g id="edge25" class="edge">
<title>Node15&#45;&gt;Node18</title>
<path fill="none" stroke="midnightblue" d="M1255.31,-197.11C1283.55,-200.3 1316.94,-204.08 1345.75,-207.34"/>
<polygon fill="midnightblue" stroke="midnightblue" points="1255.48,-193.6 1245.15,-195.96 1254.7,-200.56 1255.48,-193.6"/>
</g>
<!-- Node16&#45;&gt;Node3 -->
<g id="edge19" class="edge">
<title>Node16&#45;&gt;Node3</title>
<path fill="none" stroke="#9a32cd" stroke-dasharray="5,2" d="M594.57,-266.27C632.39,-267.68 679.14,-269 721,-269 721,-269 721,-269 1415.5,-269 1485.27,-269 1563.8,-246.02 1609.98,-230.04"/>
<polygon fill="#9a32cd" stroke="#9a32cd" points="594.27,-262.76 584.15,-265.88 594.01,-269.76 594.27,-262.76"/>
<text text-anchor="middle" x="1080.5" y="-272" font-family="Helvetica,sans-Serif" font-size="10.00"> mRightVector</text>
</g>
<!-- Node16&#45;&gt;Node18 -->
<g id="edge26" class="edge">
<title>Node16&#45;&gt;Node18</title>
<path fill="none" stroke="#9a32cd" stroke-dasharray="5,2" d="M566.25,-251.11C606.66,-241.65 667.34,-230 721,-230 721,-230 721,-230 1192.5,-230 1244.03,-230 1302.17,-225.89 1345.87,-221.97"/>
<polygon fill="#9a32cd" stroke="#9a32cd" points="565.34,-247.73 556.43,-253.46 566.97,-254.53 565.34,-247.73"/>
<text text-anchor="middle" x="955" y="-233" font-family="Helvetica,sans-Serif" font-size="10.00"> mRightVector</text>
</g>
<!-- Node17 -->
<g id="node17" class="node">
<title>Node17</title>
<g id="a_node17"><a xlink:title=" ">
<polygon fill="none" stroke="#bfbfbf" points="166,-291.5 166,-332.5 282,-332.5 282,-291.5 166,-291.5"/>
<text text-anchor="start" x="174" y="-320.5" font-family="Helvetica,sans-Serif" font-size="10.00">std::enable_shared</text>
<text text-anchor="start" x="174" y="-309.5" font-family="Helvetica,sans-Serif" font-size="10.00">_from_this&lt; Attribute</text>
<text text-anchor="middle" x="224" y="-298.5" font-family="Helvetica,sans-Serif" font-size="10.00">&lt; Matrix &gt; &gt;</text>
</a>
</g>
</g>
<!-- Node17&#45;&gt;Node16 -->
<g id="edge21" class="edge">
<title>Node17&#45;&gt;Node16</title>
<path fill="none" stroke="midnightblue" d="M292.25,-300.77C343.37,-292.24 412.92,-280.63 461.36,-272.54"/>
<polygon fill="midnightblue" stroke="midnightblue" points="291.57,-297.34 282.29,-302.44 292.73,-304.24 291.57,-297.34"/>
</g>
<!-- Node18&#45;&gt;Node3 -->
<g id="edge23" class="edge">
<title>Node18&#45;&gt;Node3</title>
<path fill="none" stroke="orange" stroke-dasharray="5,2" d="M1493.04,-215C1521.84,-215 1554.28,-215 1582.15,-215"/>
<polygon fill="orange" stroke="orange" points="1493.01,-211.5 1483.01,-215 1493.01,-218.5 1493.01,-211.5"/>
<text text-anchor="middle" x="1530.5" y="-218" font-family="Helvetica,sans-Serif" font-size="10.00"> &lt; Complex &gt;</text>
</g>
<!-- Node19 -->
<g id="node19" class="node">
<title>Node19</title>
<g id="a_node19"><a xlink:href="class_c_p_s_1_1_composite_power_comp.html" target="_top" xlink:title="Base class for composite power components.">
<polygon fill="none" stroke="black" points="1578,-269 1578,-299 1724,-299 1724,-269 1578,-269"/>
<text text-anchor="start" x="1586" y="-287" font-family="Helvetica,sans-Serif" font-size="10.00">CPS::CompositePowerComp</text>
<text text-anchor="middle" x="1651" y="-276" font-family="Helvetica,sans-Serif" font-size="10.00">&lt; VarType &gt;</text>
</a>
</g>
</g>
<!-- Node18&#45;&gt;Node19 -->
<g id="edge28" class="edge">
<title>Node18&#45;&gt;Node19</title>
<path fill="none" stroke="midnightblue" d="M1476.6,-232.98C1514.63,-244.17 1562.96,-258.39 1598.94,-268.98"/>
<polygon fill="midnightblue" stroke="midnightblue" points="1477.25,-229.52 1466.67,-230.06 1475.28,-236.24 1477.25,-229.52"/>
</g>
<!-- Node19&#45;&gt;Node2 -->
<g id="edge27" class="edge">
<title>Node19&#45;&gt;Node2</title>
<path fill="none" stroke="orange" stroke-dasharray="5,2" d="M1734.56,-273.98C1772,-269.44 1815.87,-264.12 1851.96,-259.74"/>
<polygon fill="orange" stroke="orange" points="1733.68,-270.56 1724.18,-275.24 1734.53,-277.51 1733.68,-270.56"/>
<text text-anchor="middle" x="1783.5" y="-275" font-family="Helvetica,sans-Serif" font-size="10.00"> &lt; Complex &gt;</text>
</g>
<!-- Node20 -->
<g id="node20" class="node">
<title>Node20</title>
<g id="a_node20"><a xlink:href="class_c_p_s_1_1_m_n_a_switch_interface.html" target="_top" xlink:title="MNA interface to be used by switching devices.">
<polygon fill="none" stroke="black" points="1857,-197.5 1857,-216.5 1993,-216.5 1993,-197.5 1857,-197.5"/>
<text text-anchor="middle" x="1925" y="-204.5" font-family="Helvetica,sans-Serif" font-size="10.00">CPS::MNASwitchInterface</text>
</a>
</g>
</g>
<!-- Node20&#45;&gt;Node1 -->
<g id="edge29" class="edge">
<title>Node20&#45;&gt;Node1</title>
<path fill="none" stroke="midnightblue" d="M2003.28,-207C2016.67,-207 2030.54,-207 2043.8,-207"/>
<polygon fill="midnightblue" stroke="midnightblue" points="2003.16,-203.5 1993.16,-207 2003.16,-210.5 2003.16,-203.5"/>
</g>
<!-- Node21 -->
<g id="node21" class="node">
<title>Node21</title>
<g id="a_node21"><a xlink:href="class_shared_factory.html" target="_top" xlink:title=" ">
<polygon fill="none" stroke="black" points="1843,-159.5 1843,-178.5 2007,-178.5 2007,-159.5 1843,-159.5"/>
<text text-anchor="middle" x="1925" y="-166.5" font-family="Helvetica,sans-Serif" font-size="10.00">SharedFactory&lt; RXLoadSwitch &gt;</text>
</a>
</g>
</g>
<!-- Node21&#45;&gt;Node1 -->
<g id="edge30" class="edge">
<title>Node21&#45;&gt;Node1</title>
<path fill="none" stroke="midnightblue" d="M1984.2,-180.61C2011.29,-186.01 2043.13,-192.36 2068.77,-197.48"/>
<polygon fill="midnightblue" stroke="midnightblue" points="1984.56,-177.11 1974.07,-178.59 1983.19,-183.98 1984.56,-177.11"/>
</g>
<!-- Node22 -->
<g id="node22" class="node">
<title>Node22</title>
<g id="a_node22"><a xlink:href="class_shared_factory.html" target="_top" xlink:title=" ">
<polygon fill="none" stroke="black" points="1598.5,-159.5 1598.5,-178.5 1703.5,-178.5 1703.5,-159.5 1598.5,-159.5"/>
<text text-anchor="middle" x="1651" y="-166.5" font-family="Helvetica,sans-Serif" font-size="10.00">SharedFactory&lt; T &gt;</text>
</a>
</g>
</g>
<!-- Node22&#45;&gt;Node21 -->
<g id="edge31" class="edge">
<title>Node22&#45;&gt;Node21</title>
<path fill="none" stroke="orange" stroke-dasharray="5,2" d="M1714.26,-169C1752.45,-169 1801.75,-169 1842.97,-169"/>
<polygon fill="orange" stroke="orange" points="1713.8,-165.5 1703.8,-169 1713.8,-172.5 1713.8,-165.5"/>
<text text-anchor="middle" x="1783.5" y="-172" font-family="Helvetica,sans-Serif" font-size="10.00"> &lt; RXLoadSwitch &gt;</text>
</g>
</g>
</svg>
