<?xml version="1.0" encoding="UTF-8" standalone="no"?>
<!DOCTYPE svg PUBLIC "-//W3C//DTD SVG 1.1//EN"
 "http://www.w3.org/Graphics/SVG/1.1/DTD/svg11.dtd">
<!-- Generated by graphviz version 12.2.1 (20241206.2353)
 -->
<!-- Title: CPS::Signal::DecouplingIdealTransformer_EMT_Ph3 Pages: 1 -->
<svg width="1378pt" height="243pt"
 viewBox="0.00 0.00 1377.75 243.18" xmlns="http://www.w3.org/2000/svg" xmlns:xlink="http://www.w3.org/1999/xlink">
<g id="graph0" class="graph" transform="scale(1 1) rotate(0) translate(4 239.18)">
<title>CPS::Signal::DecouplingIdealTransformer_EMT_Ph3</title>
<!-- Node1 -->
<g id="Node000001" class="node">
<title>Node1</title>
<g id="a_Node000001"><a xlink:title=" ">
<polygon fill="#999999" stroke="#666666" points="1369.75,-149.05 1221.75,-149.05 1221.75,-112.55 1369.75,-112.55 1369.75,-149.05"/>
<text text-anchor="start" x="1229.75" y="-135.55" font-family="Helvetica,sans-Serif" font-size="10.00">CPS::Signal::DecouplingIdeal</text>
<text text-anchor="middle" x="1295.75" y="-121.3" font-family="Helvetica,sans-Serif" font-size="10.00">Transformer_EMT_Ph3</text>
</a>
</g>
</g>
<!-- Node2 -->
<g id="Node000002" class="node">
<title>Node2</title>
<g id="a_Node000002"><a xlink:href="class_c_p_s_1_1_sim_signal_comp.html" target="_top" xlink:title=" ">
<polygon fill="white" stroke="#666666" points="1163.38,-188.93 1053.62,-188.93 1053.62,-166.68 1163.38,-166.68 1163.38,-188.93"/>
<text text-anchor="middle" x="1108.5" y="-175.43" font-family="Helvetica,sans-Serif" font-size="10.00">CPS::SimSignalComp</text>
</a>
</g>
</g>
<!-- Node2&#45;&gt;Node1 -->
<g id="edge1_Node000001_Node000002" class="edge">
<title>Node2&#45;&gt;Node1</title>
<g id="a_edge1_Node000001_Node000002"><a xlink:title=" ">
<path fill="none" stroke="#63b8ff" d="M1166.38,-163.37C1183.74,-158.96 1203.08,-154.06 1221.37,-149.42"/>
<polygon fill="#63b8ff" stroke="#63b8ff" points="1165.59,-159.96 1156.76,-165.81 1167.31,-166.74 1165.59,-159.96"/>
</a>
</g>
</g>
<!-- Node3 -->
<g id="Node000003" class="node">
<title>Node3</title>
<g id="a_Node000003"><a xlink:href="class_c_p_s_1_1_topological_signal_comp.html" target="_top" xlink:title=" ">
<polygon fill="white" stroke="#666666" points="851.5,-187.93 707.25,-187.93 707.25,-165.68 851.5,-165.68 851.5,-187.93"/>
<text text-anchor="middle" x="779.38" y="-174.43" font-family="Helvetica,sans-Serif" font-size="10.00">CPS::TopologicalSignalComp</text>
</a>
</g>
</g>
<!-- Node3&#45;&gt;Node2 -->
<g id="edge2_Node000002_Node000003" class="edge">
<title>Node3&#45;&gt;Node2</title>
<g id="a_edge2_Node000002_Node000003"><a xlink:title=" ">
<path fill="none" stroke="#63b8ff" d="M863.04,-177.05C922.66,-177.24 1001.44,-177.48 1053.25,-177.63"/>
<polygon fill="#63b8ff" stroke="#63b8ff" points="863.28,-173.55 853.27,-177.02 863.26,-180.55 863.28,-173.55"/>
</a>
</g>
</g>
<!-- Node4 -->
<g id="Node000004" class="node">
<title>Node4</title>
<g id="a_Node000004"><a xlink:href="class_c_p_s_1_1_identified_object.html" target="_top" xlink:title=" ">
<polygon fill="white" stroke="#666666" points="670.25,-180.93 555.25,-180.93 555.25,-158.68 670.25,-158.68 670.25,-180.93"/>
<text text-anchor="middle" x="612.75" y="-167.43" font-family="Helvetica,sans-Serif" font-size="10.00">CPS::IdentifiedObject</text>
</a>
</g>
</g>
<!-- Node4&#45;&gt;Node3 -->
<g id="edge3_Node000003_Node000004" class="edge">
<title>Node4&#45;&gt;Node3</title>
<g id="a_edge3_Node000003_Node000004"><a xlink:title=" ">
<path fill="none" stroke="#63b8ff" d="M681.87,-172.7C690.09,-173.05 698.51,-173.4 706.79,-173.76"/>
<polygon fill="#63b8ff" stroke="#63b8ff" points="682.06,-169.2 671.92,-172.27 681.76,-176.2 682.06,-169.2"/>
</a>
</g>
</g>
<!-- Node5 -->
<g id="Node000005" class="node">
<title>Node5</title>
<g id="a_Node000005"><a xlink:href="class_c_p_s_1_1_attribute.html" target="_top" xlink:title=" ">
<polygon fill="white" stroke="#666666" points="479.12,-168.93 352.88,-168.93 352.88,-146.68 479.12,-146.68 479.12,-168.93"/>
<text text-anchor="middle" x="416" y="-155.43" font-family="Helvetica,sans-Serif" font-size="10.00">CPS::Attribute&lt; String &gt;</text>
</a>
</g>
</g>
<!-- Node5&#45;&gt;Node4 -->
<g id="edge4_Node000004_Node000005" class="edge">
<title>Node5&#45;&gt;Node4</title>
<g id="a_edge4_Node000004_Node000005"><a xlink:title=" ">
<path fill="none" stroke="#9a32cd" stroke-dasharray="5,2" d="M490.72,-162.34C511.99,-163.65 534.88,-165.06 554.96,-166.3"/>
<polygon fill="#9a32cd" stroke="#9a32cd" points="491.13,-158.86 480.93,-161.74 490.7,-165.85 491.13,-158.86"/>
</a>
</g>
<text text-anchor="middle" x="517.75" y="-183.88" font-family="Helvetica,sans-Serif" font-size="10.00" fill="grey"> mName</text>
<text text-anchor="middle" x="517.75" y="-169.63" font-family="Helvetica,sans-Serif" font-size="10.00" fill="grey">mUID</text>
</g>
<!-- Node6 -->
<g id="Node000006" class="node">
<title>Node6</title>
<g id="a_Node000006"><a xlink:href="class_c_p_s_1_1_attribute_base.html" target="_top" xlink:title=" ">
<polygon fill="white" stroke="#666666" points="109.75,-149.93 5.25,-149.93 5.25,-127.68 109.75,-127.68 109.75,-149.93"/>
<text text-anchor="middle" x="57.5" y="-136.43" font-family="Helvetica,sans-Serif" font-size="10.00">CPS::AttributeBase</text>
</a>
</g>
</g>
<!-- Node6&#45;&gt;Node5 -->
<g id="edge5_Node000005_Node000006" class="edge">
<title>Node6&#45;&gt;Node5</title>
<g id="a_edge5_Node000005_Node000006"><a xlink:title=" ">
<path fill="none" stroke="#63b8ff" d="M121.27,-142.15C186.34,-145.61 287.46,-151 352.45,-154.47"/>
<polygon fill="#63b8ff" stroke="#63b8ff" points="121.64,-138.66 111.47,-141.62 121.27,-145.65 121.64,-138.66"/>
</a>
</g>
</g>
<!-- Node8 -->
<g id="Node000008" class="node">
<title>Node8</title>
<g id="a_Node000008"><a xlink:href="class_c_p_s_1_1_attribute.html" target="_top" xlink:title=" ">
<polygon fill="white" stroke="#666666" points="261.38,-127.93 157.62,-127.93 157.62,-105.68 261.38,-105.68 261.38,-127.93"/>
<text text-anchor="middle" x="209.5" y="-114.43" font-family="Helvetica,sans-Serif" font-size="10.00">CPS::Attribute&lt; T &gt;</text>
</a>
</g>
</g>
<!-- Node6&#45;&gt;Node8 -->
<g id="edge8_Node000008_Node000006" class="edge">
<title>Node6&#45;&gt;Node8</title>
<g id="a_edge8_Node000008_Node000006"><a xlink:title=" ">
<path fill="none" stroke="#63b8ff" d="M121.42,-129.57C133.37,-127.82 145.75,-126 157.29,-124.31"/>
<polygon fill="#63b8ff" stroke="#63b8ff" points="121.01,-126.1 111.62,-131.01 122.02,-133.02 121.01,-126.1"/>
</a>
</g>
</g>
<!-- Node12 -->
<g id="Node000012" class="node">
<title>Node12</title>
<g id="a_Node000012"><a xlink:href="class_c_p_s_1_1_attribute.html" target="_top" xlink:title=" ">
<polygon fill="white" stroke="#666666" points="480.25,-51.93 351.75,-51.93 351.75,-29.68 480.25,-29.68 480.25,-51.93"/>
<text text-anchor="middle" x="416" y="-38.43" font-family="Helvetica,sans-Serif" font-size="10.00">CPS::Attribute&lt; Matrix &gt;</text>
</a>
</g>
</g>
<!-- Node6&#45;&gt;Node12 -->
<g id="edge13_Node000012_Node000006" class="edge">
<title>Node6&#45;&gt;Node12</title>
<g id="a_edge13_Node000012_Node000006"><a xlink:title=" ">
<path fill="none" stroke="#63b8ff" d="M111.14,-121.16C112.49,-120.11 113.78,-118.99 115,-117.8 146.57,-87.05 115.48,-50.47 152,-25.8 224.76,23.36 336.32,-9.66 387.55,-29.24"/>
<polygon fill="#63b8ff" stroke="#63b8ff" points="109.36,-118.15 102.8,-126.47 113.12,-124.05 109.36,-118.15"/>
</a>
</g>
</g>
<!-- Node7 -->
<g id="Node000007" class="node">
<title>Node7</title>
<g id="a_Node000007"><a xlink:title=" ">
<polygon fill="white" stroke="#bfbfbf" points="267,-235.18 152,-235.18 152,-184.43 267,-184.43 267,-235.18"/>
<text text-anchor="start" x="160" y="-221.68" font-family="Helvetica,sans-Serif" font-size="10.00">std::enable_shared</text>
<text text-anchor="start" x="160" y="-207.43" font-family="Helvetica,sans-Serif" font-size="10.00">_from_this&lt; Attribute</text>
<text text-anchor="middle" x="209.5" y="-193.18" font-family="Helvetica,sans-Serif" font-size="10.00">&lt; String &gt; &gt;</text>
</a>
</g>
</g>
<!-- Node7&#45;&gt;Node5 -->
<g id="edge6_Node000005_Node000007" class="edge">
<title>Node7&#45;&gt;Node5</title>
<g id="a_edge6_Node000005_Node000007"><a xlink:title=" ">
<path fill="none" stroke="#63b8ff" d="M278.26,-192.57C308.17,-184.97 342.53,-176.23 369.33,-169.41"/>
<polygon fill="#63b8ff" stroke="#63b8ff" points="277.76,-189.09 268.93,-194.94 279.49,-195.87 277.76,-189.09"/>
</a>
</g>
</g>
<!-- Node8&#45;&gt;Node5 -->
<g id="edge7_Node000005_Node000008" class="edge">
<title>Node8&#45;&gt;Node5</title>
<g id="a_edge7_Node000005_Node000008"><a xlink:title=" ">
<path fill="none" stroke="orange" stroke-dasharray="5,2" d="M272.92,-119.7C292.55,-121.42 314.2,-124.17 333.75,-128.55 352.48,-132.74 372.79,-140.06 388.42,-146.32"/>
<polygon fill="orange" stroke="orange" points="273.38,-116.23 263.13,-118.92 272.82,-123.2 273.38,-116.23"/>
</a>
</g>
<text text-anchor="middle" x="309.38" y="-133.3" font-family="Helvetica,sans-Serif" font-size="10.00" fill="grey"> &lt; String &gt;</text>
</g>
<!-- Node8&#45;&gt;Node12 -->
<g id="edge15_Node000012_Node000008" class="edge">
<title>Node8&#45;&gt;Node12</title>
<g id="a_edge15_Node000012_Node000008"><a xlink:title=" ">
<path fill="none" stroke="orange" stroke-dasharray="5,2" d="M252.31,-101.26C291.39,-86.74 348.84,-65.39 383.98,-52.33"/>
<polygon fill="orange" stroke="orange" points="251.13,-97.97 242.98,-104.73 253.57,-104.53 251.13,-97.97"/>
</a>
</g>
<text text-anchor="middle" x="309.38" y="-92.59" font-family="Helvetica,sans-Serif" font-size="10.00" fill="grey"> &lt; Matrix &gt;</text>
</g>
<!-- Node9 -->
<g id="Node000009" class="node">
<title>Node9</title>
<g id="a_Node000009"><a xlink:title=" ">
<polygon fill="white" stroke="#bfbfbf" points="115,-109.18 0,-109.18 0,-58.43 115,-58.43 115,-109.18"/>
<text text-anchor="start" x="8" y="-95.68" font-family="Helvetica,sans-Serif" font-size="10.00">std::enable_shared</text>
<text text-anchor="start" x="8" y="-81.43" font-family="Helvetica,sans-Serif" font-size="10.00">_from_this&lt; Attribute</text>
<text text-anchor="middle" x="57.5" y="-67.18" font-family="Helvetica,sans-Serif" font-size="10.00">&lt; T &gt; &gt;</text>
</a>
</g>
</g>
<!-- Node9&#45;&gt;Node8 -->
<g id="edge9_Node000008_Node000009" class="edge">
<title>Node9&#45;&gt;Node8</title>
<g id="a_edge9_Node000008_Node000009"><a xlink:title=" ">
<path fill="none" stroke="#63b8ff" d="M126.33,-98.72C136.68,-101 147.22,-103.32 157.14,-105.5"/>
<polygon fill="#63b8ff" stroke="#63b8ff" points="127.21,-95.33 116.69,-96.6 125.7,-102.17 127.21,-95.33"/>
</a>
</g>
</g>
<!-- Node10 -->
<g id="Node000010" class="node">
<title>Node10</title>
<g id="a_Node000010"><a xlink:href="class_shared_factory.html" target="_top" xlink:title=" ">
<polygon fill="white" stroke="#666666" points="1184.75,-149.05 1032.25,-149.05 1032.25,-112.55 1184.75,-112.55 1184.75,-149.05"/>
<text text-anchor="start" x="1040.25" y="-135.55" font-family="Helvetica,sans-Serif" font-size="10.00">SharedFactory&lt; Decoupling</text>
<text text-anchor="middle" x="1108.5" y="-121.3" font-family="Helvetica,sans-Serif" font-size="10.00">IdealTransformer_EMT_Ph3 &gt;</text>
</a>
</g>
</g>
<!-- Node10&#45;&gt;Node1 -->
<g id="edge10_Node000001_Node000010" class="edge">
<title>Node10&#45;&gt;Node1</title>
<g id="a_edge10_Node000001_Node000010"><a xlink:title=" ">
<path fill="none" stroke="#63b8ff" d="M1196.46,-130.8C1204.83,-130.8 1213.26,-130.8 1221.47,-130.8"/>
<polygon fill="#63b8ff" stroke="#63b8ff" points="1196.63,-127.3 1186.63,-130.8 1196.63,-134.3 1196.63,-127.3"/>
</a>
</g>
</g>
<!-- Node11 -->
<g id="Node000011" class="node">
<title>Node11</title>
<g id="a_Node000011"><a xlink:href="class_shared_factory.html" target="_top" xlink:title=" ">
<polygon fill="white" stroke="#666666" points="831.62,-145.93 727.12,-145.93 727.12,-123.68 831.62,-123.68 831.62,-145.93"/>
<text text-anchor="middle" x="779.38" y="-132.43" font-family="Helvetica,sans-Serif" font-size="10.00">SharedFactory&lt; T &gt;</text>
</a>
</g>
</g>
<!-- Node11&#45;&gt;Node10 -->
<g id="edge11_Node000010_Node000011" class="edge">
<title>Node11&#45;&gt;Node10</title>
<g id="a_edge11_Node000010_Node000011"><a xlink:title=" ">
<path fill="none" stroke="orange" stroke-dasharray="5,2" d="M843.3,-134.03C897.15,-133.37 974.81,-132.42 1032.01,-131.72"/>
<polygon fill="orange" stroke="orange" points="843.32,-130.53 833.36,-134.15 843.4,-137.53 843.32,-130.53"/>
</a>
</g>
<text text-anchor="start" x="869.5" y="-152.62" font-family="Helvetica,sans-Serif" font-size="10.00" fill="grey"> &lt; DecouplingIdealTransformer</text>
<text text-anchor="middle" x="941.88" y="-138.37" font-family="Helvetica,sans-Serif" font-size="10.00" fill="grey">_EMT_Ph3 &gt;</text>
</g>
<!-- Node12&#45;&gt;Node1 -->
<g id="edge12_Node000001_Node000012" class="edge">
<title>Node12&#45;&gt;Node1</title>
<g id="a_edge12_Node000001_Node000012"><a xlink:title=" ">
<path fill="none" stroke="#9a32cd" stroke-dasharray="5,2" d="M468.34,-26.43C507.35,-16.77 562.51,-5.8 611.75,-5.8 611.75,-5.8 611.75,-5.8 1109.5,-5.8 1184.57,-5.8 1252,-77.22 1280.44,-112.09"/>
<polygon fill="#9a32cd" stroke="#9a32cd" points="467.58,-23.02 458.75,-28.87 469.3,-29.8 467.58,-23.02"/>
</a>
</g>
<text text-anchor="middle" x="779.38" y="-96.05" font-family="Helvetica,sans-Serif" font-size="10.00" fill="grey"> mSourceVoltageIntfCurrent</text>
<text text-anchor="middle" x="779.38" y="-81.8" font-family="Helvetica,sans-Serif" font-size="10.00" fill="grey">mSourceVoltageIntfVoltage</text>
<text text-anchor="middle" x="779.38" y="-67.55" font-family="Helvetica,sans-Serif" font-size="10.00" fill="grey">mSrcCurrent</text>
<text text-anchor="middle" x="779.38" y="-53.3" font-family="Helvetica,sans-Serif" font-size="10.00" fill="grey">mSrcCurrentRef</text>
<text text-anchor="middle" x="779.38" y="-39.05" font-family="Helvetica,sans-Serif" font-size="10.00" fill="grey">mSrcVoltage</text>
<text text-anchor="middle" x="779.38" y="-24.8" font-family="Helvetica,sans-Serif" font-size="10.00" fill="grey">mSrcVoltageRef</text>
<text text-anchor="middle" x="779.38" y="-10.55" font-family="Helvetica,sans-Serif" font-size="10.00" fill="grey">mStates</text>
</g>
<!-- Node13 -->
<g id="Node000013" class="node">
<title>Node13</title>
<g id="a_Node000013"><a xlink:title=" ">
<polygon fill="white" stroke="#bfbfbf" points="267,-85.18 152,-85.18 152,-34.43 267,-34.43 267,-85.18"/>
<text text-anchor="start" x="160" y="-71.68" font-family="Helvetica,sans-Serif" font-size="10.00">std::enable_shared</text>
<text text-anchor="start" x="160" y="-57.43" font-family="Helvetica,sans-Serif" font-size="10.00">_from_this&lt; Attribute</text>
<text text-anchor="middle" x="209.5" y="-43.18" font-family="Helvetica,sans-Serif" font-size="10.00">&lt; Matrix &gt; &gt;</text>
</a>
</g>
</g>
<!-- Node13&#45;&gt;Node12 -->
<g id="edge14_Node000012_Node000013" class="edge">
<title>Node13&#45;&gt;Node12</title>
<g id="a_edge14_Node000012_Node000013"><a xlink:title=" ">
<path fill="none" stroke="#63b8ff" d="M278.75,-53.46C302.24,-51.28 328.42,-48.84 351.51,-46.7"/>
<polygon fill="#63b8ff" stroke="#63b8ff" points="278.61,-49.96 268.97,-54.37 279.25,-56.93 278.61,-49.96"/>
</a>
</g>
</g>
</g>
</svg>
