<?xml version="1.0" encoding="UTF-8" standalone="no"?>
<!DOCTYPE svg PUBLIC "-//W3C//DTD SVG 1.1//EN"
 "http://www.w3.org/Graphics/SVG/1.1/DTD/svg11.dtd">
<!-- Generated by graphviz version 2.42.4 (0)
 -->
<!-- Title: CPS::DP::Ph3::SeriesSwitch Pages: 1 -->
<svg width="1238pt" height="154pt"
 viewBox="0.00 0.00 1238.00 154.00" xmlns="http://www.w3.org/2000/svg" xmlns:xlink="http://www.w3.org/1999/xlink">
<g id="graph0" class="graph" transform="scale(1 1) rotate(0) translate(4 150)">
<title>CPS::DP::Ph3::SeriesSwitch</title>
<!-- Node1 -->
<g id="node1" class="node">
<title>Node1</title>
<g id="a_node1"><a xlink:title="Dynamic phasor three&#45;phase switch.">
<polygon fill="#bfbfbf" stroke="black" points="1083,-60.5 1083,-79.5 1230,-79.5 1230,-60.5 1083,-60.5"/>
<text text-anchor="middle" x="1156.5" y="-67.5" font-family="Helvetica,sans-Serif" font-size="10.00">CPS::DP::Ph3::SeriesSwitch</text>
</a>
</g>
</g>
<!-- Node2 -->
<g id="node2" class="node">
<title>Node2</title>
<g id="a_node2"><a xlink:href="class_c_p_s_1_1_base_1_1_ph1_1_1_switch.html" target="_top" xlink:title="Dynamic Phasor Three&#45;Phase Switch.">
<polygon fill="none" stroke="black" points="897,-126.5 897,-145.5 1025,-145.5 1025,-126.5 897,-126.5"/>
<text text-anchor="middle" x="961" y="-133.5" font-family="Helvetica,sans-Serif" font-size="10.00">CPS::Base::Ph1::Switch</text>
</a>
</g>
</g>
<!-- Node2&#45;&gt;Node1 -->
<g id="edge1" class="edge">
<title>Node2&#45;&gt;Node1</title>
<path fill="none" stroke="midnightblue" d="M1021.09,-124.07C1029.52,-121.95 1038.03,-119.59 1046,-117 1078.47,-106.46 1114.57,-89.98 1136.14,-79.6"/>
<polygon fill="midnightblue" stroke="midnightblue" points="1020.17,-120.69 1011.27,-126.44 1021.81,-127.5 1020.17,-120.69"/>
</g>
<!-- Node3 -->
<g id="node3" class="node">
<title>Node3</title>
<g id="a_node3"><a xlink:href="class_c_p_s_1_1_sim_power_comp.html" target="_top" xlink:title=" ">
<polygon fill="none" stroke="black" points="897.5,-77 897.5,-107 1024.5,-107 1024.5,-77 897.5,-77"/>
<text text-anchor="start" x="905.5" y="-95" font-family="Helvetica,sans-Serif" font-size="10.00">CPS::SimPowerComp&lt;</text>
<text text-anchor="middle" x="961" y="-84" font-family="Helvetica,sans-Serif" font-size="10.00"> Complex &gt;</text>
</a>
</g>
</g>
<!-- Node3&#45;&gt;Node1 -->
<g id="edge2" class="edge">
<title>Node3&#45;&gt;Node1</title>
<path fill="none" stroke="midnightblue" d="M1034.72,-83.73C1050.42,-81.95 1067.02,-80.06 1082.72,-78.27"/>
<polygon fill="midnightblue" stroke="midnightblue" points="1034.1,-80.28 1024.56,-84.89 1034.89,-87.24 1034.1,-80.28"/>
</g>
<!-- Node4 -->
<g id="node4" class="node">
<title>Node4</title>
<g id="a_node4"><a xlink:href="class_c_p_s_1_1_topological_power_comp.html" target="_top" xlink:title=" ">
<polygon fill="none" stroke="black" points="294,-82.5 294,-101.5 449,-101.5 449,-82.5 294,-82.5"/>
<text text-anchor="middle" x="371.5" y="-89.5" font-family="Helvetica,sans-Serif" font-size="10.00">CPS::TopologicalPowerComp</text>
</a>
</g>
</g>
<!-- Node4&#45;&gt;Node3 -->
<g id="edge3" class="edge">
<title>Node4&#45;&gt;Node3</title>
<path fill="none" stroke="midnightblue" d="M442.06,-102.93C450.45,-104.06 458.91,-105.12 467,-106 639.76,-124.78 685.47,-127.81 858,-107 870.79,-105.46 884.46,-103.6 897.5,-101.72"/>
<polygon fill="midnightblue" stroke="midnightblue" points="442.28,-99.43 431.89,-101.52 441.32,-106.36 442.28,-99.43"/>
</g>
<!-- Node7 -->
<g id="node7" class="node">
<title>Node7</title>
<g id="a_node7"><a xlink:href="class_c_p_s_1_1_sim_power_comp.html" target="_top" xlink:title="Base class for all components that are transmitting power.">
<polygon fill="none" stroke="black" points="625,-77 625,-107 752,-107 752,-77 625,-77"/>
<text text-anchor="start" x="633" y="-95" font-family="Helvetica,sans-Serif" font-size="10.00">CPS::SimPowerComp&lt;</text>
<text text-anchor="middle" x="688.5" y="-84" font-family="Helvetica,sans-Serif" font-size="10.00"> VarType &gt;</text>
</a>
</g>
</g>
<!-- Node4&#45;&gt;Node7 -->
<g id="edge7" class="edge">
<title>Node4&#45;&gt;Node7</title>
<path fill="none" stroke="midnightblue" d="M459.46,-92C511.88,-92 577.46,-92 624.81,-92"/>
<polygon fill="midnightblue" stroke="midnightblue" points="459.15,-88.5 449.15,-92 459.15,-95.5 459.15,-88.5"/>
</g>
<!-- Node5 -->
<g id="node5" class="node">
<title>Node5</title>
<g id="a_node5"><a xlink:href="class_c_p_s_1_1_identified_object.html" target="_top" xlink:title=" ">
<polygon fill="none" stroke="black" points="138,-82.5 138,-101.5 257,-101.5 257,-82.5 138,-82.5"/>
<text text-anchor="middle" x="197.5" y="-89.5" font-family="Helvetica,sans-Serif" font-size="10.00">CPS::IdentifiedObject</text>
</a>
</g>
</g>
<!-- Node5&#45;&gt;Node4 -->
<g id="edge4" class="edge">
<title>Node5&#45;&gt;Node4</title>
<path fill="none" stroke="midnightblue" d="M267.31,-92C276.02,-92 284.98,-92 293.81,-92"/>
<polygon fill="midnightblue" stroke="midnightblue" points="267.21,-88.5 257.21,-92 267.21,-95.5 267.21,-88.5"/>
</g>
<!-- Node6 -->
<g id="node6" class="node">
<title>Node6</title>
<g id="a_node6"><a xlink:href="class_c_p_s_1_1_attribute_list.html" target="_top" xlink:title="Base class of objects having attributes to access member variables.">
<polygon fill="none" stroke="black" points="0,-61.5 0,-80.5 101,-80.5 101,-61.5 0,-61.5"/>
<text text-anchor="middle" x="50.5" y="-68.5" font-family="Helvetica,sans-Serif" font-size="10.00">CPS::AttributeList</text>
</a>
</g>
</g>
<!-- Node6&#45;&gt;Node5 -->
<g id="edge5" class="edge">
<title>Node6&#45;&gt;Node5</title>
<path fill="none" stroke="midnightblue" d="M111.46,-79.68C120.16,-80.94 129.1,-82.24 137.77,-83.49"/>
<polygon fill="midnightblue" stroke="midnightblue" points="111.8,-76.2 101.4,-78.23 110.8,-83.12 111.8,-76.2"/>
</g>
<!-- Node11 -->
<g id="node11" class="node">
<title>Node11</title>
<g id="a_node11"><a xlink:href="class_c_p_s_1_1_m_n_a_interface.html" target="_top" xlink:title="Interface to be implemented by all models used by the MNA solver.">
<polygon fill="none" stroke="black" points="143.5,-43.5 143.5,-62.5 251.5,-62.5 251.5,-43.5 143.5,-43.5"/>
<text text-anchor="middle" x="197.5" y="-50.5" font-family="Helvetica,sans-Serif" font-size="10.00">CPS::MNAInterface</text>
</a>
</g>
</g>
<!-- Node6&#45;&gt;Node11 -->
<g id="edge12" class="edge">
<title>Node6&#45;&gt;Node11</title>
<path fill="none" stroke="midnightblue" d="M111.33,-63.57C121.84,-62.27 132.72,-60.92 143.04,-59.64"/>
<polygon fill="midnightblue" stroke="midnightblue" points="110.89,-60.1 101.4,-64.81 111.76,-67.05 110.89,-60.1"/>
</g>
<!-- Node7&#45;&gt;Node3 -->
<g id="edge6" class="edge">
<title>Node7&#45;&gt;Node3</title>
<path fill="none" stroke="orange" stroke-dasharray="5,2" d="M762.42,-92C804.5,-92 856.88,-92 897.13,-92"/>
<polygon fill="orange" stroke="orange" points="762.24,-88.5 752.24,-92 762.24,-95.5 762.24,-88.5"/>
<text text-anchor="middle" x="814" y="-95" font-family="Helvetica,sans-Serif" font-size="10.00"> &lt; Complex &gt;</text>
</g>
<!-- Node8 -->
<g id="node8" class="node">
<title>Node8</title>
<g id="a_node8"><a xlink:href="class_shared_factory.html" target="_top" xlink:title=" ">
<polygon fill="none" stroke="black" points="876,-0.5 876,-19.5 1046,-19.5 1046,-0.5 876,-0.5"/>
<text text-anchor="middle" x="961" y="-7.5" font-family="Helvetica,sans-Serif" font-size="10.00">SharedFactory&lt; SeriesSwitch &gt;</text>
</a>
</g>
</g>
<!-- Node8&#45;&gt;Node1 -->
<g id="edge8" class="edge">
<title>Node8&#45;&gt;Node1</title>
<path fill="none" stroke="midnightblue" d="M1019.68,-21.84C1034.57,-25.33 1050.48,-29.45 1065,-34 1089.2,-41.59 1116.11,-52.64 1134.25,-60.5"/>
<polygon fill="midnightblue" stroke="midnightblue" points="1020.1,-18.34 1009.57,-19.52 1018.54,-25.17 1020.1,-18.34"/>
</g>
<!-- Node9 -->
<g id="node9" class="node">
<title>Node9</title>
<g id="a_node9"><a xlink:href="class_shared_factory.html" target="_top" xlink:title=" ">
<polygon fill="none" stroke="black" points="631.5,-0.5 631.5,-19.5 745.5,-19.5 745.5,-0.5 631.5,-0.5"/>
<text text-anchor="middle" x="688.5" y="-7.5" font-family="Helvetica,sans-Serif" font-size="10.00">SharedFactory&lt; T &gt;</text>
</a>
</g>
</g>
<!-- Node9&#45;&gt;Node8 -->
<g id="edge9" class="edge">
<title>Node9&#45;&gt;Node8</title>
<path fill="none" stroke="orange" stroke-dasharray="5,2" d="M755.97,-10C792.11,-10 837.18,-10 875.75,-10"/>
<polygon fill="orange" stroke="orange" points="755.55,-6.5 745.55,-10 755.55,-13.5 755.55,-6.5"/>
<text text-anchor="middle" x="814" y="-13" font-family="Helvetica,sans-Serif" font-size="10.00"> &lt; SeriesSwitch &gt;</text>
</g>
<!-- Node10 -->
<g id="node10" class="node">
<title>Node10</title>
<g id="a_node10"><a xlink:href="class_c_p_s_1_1_m_n_a_switch_interface.html" target="_top" xlink:title="MNA interface to be used by switching devices.">
<polygon fill="none" stroke="black" points="467,-39.5 467,-58.5 607,-58.5 607,-39.5 467,-39.5"/>
<text text-anchor="middle" x="537" y="-46.5" font-family="Helvetica,sans-Serif" font-size="10.00">CPS::MNASwitchInterface</text>
</a>
</g>
</g>
<!-- Node10&#45;&gt;Node1 -->
<g id="edge10" class="edge">
<title>Node10&#45;&gt;Node1</title>
<path fill="none" stroke="midnightblue" d="M617.31,-51.7C737.97,-55.8 965.9,-63.55 1082.62,-67.52"/>
<polygon fill="midnightblue" stroke="midnightblue" points="617.15,-48.19 607.04,-51.35 616.91,-55.19 617.15,-48.19"/>
</g>
<!-- Node11&#45;&gt;Node10 -->
<g id="edge11" class="edge">
<title>Node11&#45;&gt;Node10</title>
<path fill="none" stroke="midnightblue" d="M261.81,-52.25C320.19,-51.56 406.67,-50.53 466.84,-49.82"/>
<polygon fill="midnightblue" stroke="midnightblue" points="261.56,-48.75 251.61,-52.37 261.65,-55.75 261.56,-48.75"/>
</g>
</g>
</svg>
