<?xml version="1.0" encoding="UTF-8" standalone="no"?>
<!DOCTYPE svg PUBLIC "-//W3C//DTD SVG 1.1//EN"
 "http://www.w3.org/Graphics/SVG/1.1/DTD/svg11.dtd">
<!-- Generated by graphviz version 2.50.0 (0)
 -->
<!-- Title: CPS::Signal::DCGenerator Pages: 1 -->
<svg width="339pt" height="266pt"
 viewBox="0.00 0.00 338.50 266.00" xmlns="http://www.w3.org/2000/svg" xmlns:xlink="http://www.w3.org/1999/xlink">
<g id="graph0" class="graph" transform="scale(1 1) rotate(0) translate(4 262)">
<title>CPS::Signal::DCGenerator</title>
<!-- Node1 -->
<g id="node1" class="node">
<title>Node1</title>
<g id="a_node1"><a xlink:title="Model to generate sinusoidal signals.">
<polygon fill="#bfbfbf" stroke="black" points="93,-0.5 93,-19.5 228,-19.5 228,-0.5 93,-0.5"/>
<text text-anchor="middle" x="160.5" y="-7.5" font-family="Helvetica,sans-Serif" font-size="10.00">CPS::Signal::DCGenerator</text>
</a>
</g>
</g>
<!-- Node2 -->
<g id="node2" class="node">
<title>Node2</title>
<g id="a_node2"><a xlink:href="class_c_p_s_1_1_signal_1_1_signal_generator.html" target="_top" xlink:title="Model to generate generic signals.">
<polygon fill="none" stroke="black" points="0,-57.5 0,-76.5 149,-76.5 149,-57.5 0,-57.5"/>
<text text-anchor="middle" x="74.5" y="-64.5" font-family="Helvetica,sans-Serif" font-size="10.00">CPS::Signal::SignalGenerator</text>
</a>
</g>
</g>
<!-- Node2&#45;&gt;Node1 -->
<g id="edge1" class="edge">
<title>Node2&#45;&gt;Node1</title>
<path fill="none" stroke="midnightblue" d="M96.67,-51.82C112.64,-41.61 133.69,-28.15 147.16,-19.53"/>
<polygon fill="midnightblue" stroke="midnightblue" points="94.48,-49.07 87.94,-57.41 98.25,-54.97 94.48,-49.07"/>
</g>
<!-- Node3 -->
<g id="node3" class="node">
<title>Node3</title>
<g id="a_node3"><a xlink:href="class_c_p_s_1_1_sim_signal_comp.html" target="_top" xlink:title=" ">
<polygon fill="none" stroke="black" points="19.5,-124.5 19.5,-143.5 129.5,-143.5 129.5,-124.5 19.5,-124.5"/>
<text text-anchor="middle" x="74.5" y="-131.5" font-family="Helvetica,sans-Serif" font-size="10.00">CPS::SimSignalComp</text>
</a>
</g>
</g>
<!-- Node3&#45;&gt;Node2 -->
<g id="edge2" class="edge">
<title>Node3&#45;&gt;Node2</title>
<path fill="none" stroke="midnightblue" d="M74.5,-114.04C74.5,-101.67 74.5,-86.12 74.5,-76.63"/>
<polygon fill="midnightblue" stroke="midnightblue" points="71,-114.23 74.5,-124.23 78,-114.23 71,-114.23"/>
</g>
<!-- Node4 -->
<g id="node4" class="node">
<title>Node4</title>
<g id="a_node4"><a xlink:href="class_c_p_s_1_1_topological_signal_comp.html" target="_top" xlink:title=" ">
<polygon fill="none" stroke="black" points="2,-181.5 2,-200.5 147,-200.5 147,-181.5 2,-181.5"/>
<text text-anchor="middle" x="74.5" y="-188.5" font-family="Helvetica,sans-Serif" font-size="10.00">CPS::TopologicalSignalComp</text>
</a>
</g>
</g>
<!-- Node4&#45;&gt;Node3 -->
<g id="edge3" class="edge">
<title>Node4&#45;&gt;Node3</title>
<path fill="none" stroke="midnightblue" d="M74.5,-171.12C74.5,-161.82 74.5,-151.06 74.5,-143.71"/>
<polygon fill="midnightblue" stroke="midnightblue" points="71,-171.41 74.5,-181.41 78,-171.41 71,-171.41"/>
</g>
<!-- Node5 -->
<g id="node5" class="node">
<title>Node5</title>
<g id="a_node5"><a xlink:href="class_c_p_s_1_1_identified_object.html" target="_top" xlink:title=" ">
<polygon fill="none" stroke="black" points="16.5,-238.5 16.5,-257.5 132.5,-257.5 132.5,-238.5 16.5,-238.5"/>
<text text-anchor="middle" x="74.5" y="-245.5" font-family="Helvetica,sans-Serif" font-size="10.00">CPS::IdentifiedObject</text>
</a>
</g>
</g>
<!-- Node5&#45;&gt;Node4 -->
<g id="edge4" class="edge">
<title>Node5&#45;&gt;Node4</title>
<path fill="none" stroke="midnightblue" d="M74.5,-228.12C74.5,-218.82 74.5,-208.06 74.5,-200.71"/>
<polygon fill="midnightblue" stroke="midnightblue" points="71,-228.41 74.5,-238.41 78,-228.41 71,-228.41"/>
</g>
<!-- Node6 -->
<g id="node6" class="node">
<title>Node6</title>
<g id="a_node6"><a xlink:href="class_shared_factory.html" target="_top" xlink:title=" ">
<polygon fill="none" stroke="black" points="167.5,-57.5 167.5,-76.5 329.5,-76.5 329.5,-57.5 167.5,-57.5"/>
<text text-anchor="middle" x="248.5" y="-64.5" font-family="Helvetica,sans-Serif" font-size="10.00">SharedFactory&lt; DCGenerator &gt;</text>
</a>
</g>
</g>
<!-- Node6&#45;&gt;Node1 -->
<g id="edge5" class="edge">
<title>Node6&#45;&gt;Node1</title>
<path fill="none" stroke="midnightblue" d="M225.82,-51.82C209.47,-41.61 187.94,-28.15 174.15,-19.53"/>
<polygon fill="midnightblue" stroke="midnightblue" points="224.41,-55.07 234.75,-57.41 228.13,-49.14 224.41,-55.07"/>
</g>
<!-- Node7 -->
<g id="node7" class="node">
<title>Node7</title>
<g id="a_node7"><a xlink:href="class_shared_factory.html" target="_top" xlink:title=" ">
<polygon fill="none" stroke="black" points="196,-124.5 196,-143.5 301,-143.5 301,-124.5 196,-124.5"/>
<text text-anchor="middle" x="248.5" y="-131.5" font-family="Helvetica,sans-Serif" font-size="10.00">SharedFactory&lt; T &gt;</text>
</a>
</g>
</g>
<!-- Node7&#45;&gt;Node6 -->
<g id="edge6" class="edge">
<title>Node7&#45;&gt;Node6</title>
<path fill="none" stroke="orange" stroke-dasharray="5,2" d="M248.5,-114.04C248.5,-101.67 248.5,-86.12 248.5,-76.63"/>
<polygon fill="orange" stroke="orange" points="245,-114.23 248.5,-124.23 252,-114.23 245,-114.23"/>
<text text-anchor="middle" x="289.5" y="-98" font-family="Helvetica,sans-Serif" font-size="10.00"> &lt; DCGenerator &gt;</text>
</g>
</g>
</svg>
