<?xml version="1.0" encoding="UTF-8" standalone="no"?>
<!DOCTYPE svg PUBLIC "-//W3C//DTD SVG 1.1//EN"
 "http://www.w3.org/Graphics/SVG/1.1/DTD/svg11.dtd">
<!-- Generated by graphviz version 2.50.0 (0)
 -->
<!-- Title: CPS::Signal::TurbineGovernor Pages: 1 -->
<svg width="1372pt" height="125pt"
 viewBox="0.00 0.00 1372.00 125.00" xmlns="http://www.w3.org/2000/svg" xmlns:xlink="http://www.w3.org/1999/xlink">
<g id="graph0" class="graph" transform="scale(1 1) rotate(0) translate(4 121)">
<title>CPS::Signal::TurbineGovernor</title>
<!-- Node1 -->
<g id="node1" class="node">
<title>Node1</title>
<g id="a_node1"><a xlink:title="Turbine governor model to be used with synchronous generator.">
<polygon fill="#bfbfbf" stroke="black" points="1209,-40.5 1209,-59.5 1364,-59.5 1364,-40.5 1209,-40.5"/>
<text text-anchor="middle" x="1286.5" y="-47.5" font-family="Helvetica,sans-Serif" font-size="10.00">CPS::Signal::TurbineGovernor</text>
</a>
</g>
</g>
<!-- Node2 -->
<g id="node2" class="node">
<title>Node2</title>
<g id="a_node2"><a xlink:href="class_c_p_s_1_1_sim_signal_comp.html" target="_top" xlink:title=" ">
<polygon fill="none" stroke="black" points="1026,-60.5 1026,-79.5 1136,-79.5 1136,-60.5 1026,-60.5"/>
<text text-anchor="middle" x="1081" y="-67.5" font-family="Helvetica,sans-Serif" font-size="10.00">CPS::SimSignalComp</text>
</a>
</g>
</g>
<!-- Node2&#45;&gt;Node1 -->
<g id="edge1" class="edge">
<title>Node2&#45;&gt;Node1</title>
<path fill="none" stroke="midnightblue" d="M1146.42,-63.67C1166.24,-61.72 1188.26,-59.56 1208.83,-57.54"/>
<polygon fill="midnightblue" stroke="midnightblue" points="1145.88,-60.21 1136.27,-64.67 1146.56,-67.17 1145.88,-60.21"/>
</g>
<!-- Node3 -->
<g id="node3" class="node">
<title>Node3</title>
<g id="a_node3"><a xlink:href="class_c_p_s_1_1_topological_signal_comp.html" target="_top" xlink:title=" ">
<polygon fill="none" stroke="black" points="708,-60.5 708,-79.5 853,-79.5 853,-60.5 708,-60.5"/>
<text text-anchor="middle" x="780.5" y="-67.5" font-family="Helvetica,sans-Serif" font-size="10.00">CPS::TopologicalSignalComp</text>
</a>
</g>
</g>
<!-- Node3&#45;&gt;Node2 -->
<g id="edge2" class="edge">
<title>Node3&#45;&gt;Node2</title>
<path fill="none" stroke="midnightblue" d="M863.51,-70C915.12,-70 980.29,-70 1025.57,-70"/>
<polygon fill="midnightblue" stroke="midnightblue" points="863.38,-66.5 853.38,-70 863.38,-73.5 863.38,-66.5"/>
</g>
<!-- Node4 -->
<g id="node4" class="node">
<title>Node4</title>
<g id="a_node4"><a xlink:href="class_c_p_s_1_1_identified_object.html" target="_top" xlink:title=" ">
<polygon fill="none" stroke="black" points="555,-60.5 555,-79.5 671,-79.5 671,-60.5 555,-60.5"/>
<text text-anchor="middle" x="613" y="-67.5" font-family="Helvetica,sans-Serif" font-size="10.00">CPS::IdentifiedObject</text>
</a>
</g>
</g>
<!-- Node4&#45;&gt;Node3 -->
<g id="edge3" class="edge">
<title>Node4&#45;&gt;Node3</title>
<path fill="none" stroke="midnightblue" d="M681.5,-70C690.2,-70 699.13,-70 707.89,-70"/>
<polygon fill="midnightblue" stroke="midnightblue" points="681.42,-66.5 671.42,-70 681.42,-73.5 681.42,-66.5"/>
</g>
<!-- Node5 -->
<g id="node5" class="node">
<title>Node5</title>
<g id="a_node5"><a xlink:href="class_c_p_s_1_1_attribute.html" target="_top" xlink:title=" ">
<polygon fill="none" stroke="black" points="352,-60.5 352,-79.5 479,-79.5 479,-60.5 352,-60.5"/>
<text text-anchor="middle" x="415.5" y="-67.5" font-family="Helvetica,sans-Serif" font-size="10.00">CPS::Attribute&lt; String &gt;</text>
</a>
</g>
</g>
<!-- Node5&#45;&gt;Node4 -->
<g id="edge4" class="edge">
<title>Node5&#45;&gt;Node4</title>
<path fill="none" stroke="#9a32cd" stroke-dasharray="5,2" d="M489.32,-70C511.01,-70 534.46,-70 554.99,-70"/>
<polygon fill="#9a32cd" stroke="#9a32cd" points="489.16,-66.5 479.16,-70 489.16,-73.5 489.16,-66.5"/>
<text text-anchor="middle" x="517" y="-84" font-family="Helvetica,sans-Serif" font-size="10.00"> mName</text>
<text text-anchor="middle" x="517" y="-73" font-family="Helvetica,sans-Serif" font-size="10.00">mUID</text>
</g>
<!-- Node6 -->
<g id="node6" class="node">
<title>Node6</title>
<g id="a_node6"><a xlink:href="class_c_p_s_1_1_attribute_base.html" target="_top" xlink:title=" ">
<polygon fill="none" stroke="black" points="5.5,-97.5 5.5,-116.5 110.5,-116.5 110.5,-97.5 5.5,-97.5"/>
<text text-anchor="middle" x="58" y="-104.5" font-family="Helvetica,sans-Serif" font-size="10.00">CPS::AttributeBase</text>
</a>
</g>
</g>
<!-- Node6&#45;&gt;Node5 -->
<g id="edge5" class="edge">
<title>Node6&#45;&gt;Node5</title>
<path fill="none" stroke="midnightblue" d="M120.7,-103.91C176.57,-100.67 261.03,-94.69 334,-85 344.99,-83.54 356.76,-81.58 367.81,-79.55"/>
<polygon fill="midnightblue" stroke="midnightblue" points="120.4,-100.42 110.61,-104.48 120.8,-107.41 120.4,-100.42"/>
</g>
<!-- Node8 -->
<g id="node8" class="node">
<title>Node8</title>
<g id="a_node8"><a xlink:href="class_c_p_s_1_1_attribute.html" target="_top" xlink:title=" ">
<polygon fill="none" stroke="black" points="159,-60.5 159,-79.5 263,-79.5 263,-60.5 159,-60.5"/>
<text text-anchor="middle" x="211" y="-67.5" font-family="Helvetica,sans-Serif" font-size="10.00">CPS::Attribute&lt; T &gt;</text>
</a>
</g>
</g>
<!-- Node6&#45;&gt;Node8 -->
<g id="edge8" class="edge">
<title>Node6&#45;&gt;Node8</title>
<path fill="none" stroke="midnightblue" d="M107.67,-95.07C128.15,-90.06 151.67,-84.29 170.98,-79.56"/>
<polygon fill="midnightblue" stroke="midnightblue" points="106.77,-91.69 97.89,-97.47 108.43,-98.49 106.77,-91.69"/>
</g>
<!-- Node7 -->
<g id="node7" class="node">
<title>Node7</title>
<g id="a_node7"><a xlink:title=" ">
<polygon fill="none" stroke="#bfbfbf" points="153,-0.5 153,-41.5 269,-41.5 269,-0.5 153,-0.5"/>
<text text-anchor="start" x="161" y="-29.5" font-family="Helvetica,sans-Serif" font-size="10.00">std::enable_shared</text>
<text text-anchor="start" x="161" y="-18.5" font-family="Helvetica,sans-Serif" font-size="10.00">_from_this&lt; Attribute</text>
<text text-anchor="middle" x="211" y="-7.5" font-family="Helvetica,sans-Serif" font-size="10.00">&lt; String &gt; &gt;</text>
</a>
</g>
</g>
<!-- Node7&#45;&gt;Node5 -->
<g id="edge6" class="edge">
<title>Node7&#45;&gt;Node5</title>
<path fill="none" stroke="midnightblue" d="M279.33,-37.29C311.09,-44.98 347.89,-53.88 375.06,-60.46"/>
<polygon fill="midnightblue" stroke="midnightblue" points="279.76,-33.8 269.22,-34.84 278.11,-40.6 279.76,-33.8"/>
</g>
<!-- Node8&#45;&gt;Node5 -->
<g id="edge7" class="edge">
<title>Node8&#45;&gt;Node5</title>
<path fill="none" stroke="orange" stroke-dasharray="5,2" d="M273.15,-70C298.04,-70 326.79,-70 351.83,-70"/>
<polygon fill="orange" stroke="orange" points="273.1,-66.5 263.1,-70 273.1,-73.5 273.1,-66.5"/>
<text text-anchor="middle" x="310.5" y="-73" font-family="Helvetica,sans-Serif" font-size="10.00"> &lt; String &gt;</text>
</g>
<!-- Node9 -->
<g id="node9" class="node">
<title>Node9</title>
<g id="a_node9"><a xlink:title=" ">
<polygon fill="none" stroke="#bfbfbf" points="0,-37.5 0,-78.5 116,-78.5 116,-37.5 0,-37.5"/>
<text text-anchor="start" x="8" y="-66.5" font-family="Helvetica,sans-Serif" font-size="10.00">std::enable_shared</text>
<text text-anchor="start" x="8" y="-55.5" font-family="Helvetica,sans-Serif" font-size="10.00">_from_this&lt; Attribute</text>
<text text-anchor="middle" x="58" y="-44.5" font-family="Helvetica,sans-Serif" font-size="10.00">&lt; T &gt; &gt;</text>
</a>
</g>
</g>
<!-- Node9&#45;&gt;Node8 -->
<g id="edge9" class="edge">
<title>Node9&#45;&gt;Node8</title>
<path fill="none" stroke="midnightblue" d="M126.07,-63.33C137.05,-64.2 148.27,-65.09 158.79,-65.93"/>
<polygon fill="midnightblue" stroke="midnightblue" points="126.33,-59.84 116.09,-62.54 125.78,-66.82 126.33,-59.84"/>
</g>
<!-- Node10 -->
<g id="node10" class="node">
<title>Node10</title>
<g id="a_node10"><a xlink:href="class_shared_factory.html" target="_top" xlink:title=" ">
<polygon fill="none" stroke="black" points="990,-22.5 990,-41.5 1172,-41.5 1172,-22.5 990,-22.5"/>
<text text-anchor="middle" x="1081" y="-29.5" font-family="Helvetica,sans-Serif" font-size="10.00">SharedFactory&lt; TurbineGovernor &gt;</text>
</a>
</g>
</g>
<!-- Node10&#45;&gt;Node1 -->
<g id="edge10" class="edge">
<title>Node10&#45;&gt;Node1</title>
<path fill="none" stroke="midnightblue" d="M1182.21,-40.86C1191.15,-41.65 1200.1,-42.45 1208.79,-43.21"/>
<polygon fill="midnightblue" stroke="midnightblue" points="1182.42,-37.37 1172.15,-39.97 1181.8,-44.34 1182.42,-37.37"/>
</g>
<!-- Node11 -->
<g id="node11" class="node">
<title>Node11</title>
<g id="a_node11"><a xlink:href="class_shared_factory.html" target="_top" xlink:title=" ">
<polygon fill="none" stroke="black" points="728,-22.5 728,-41.5 833,-41.5 833,-22.5 728,-22.5"/>
<text text-anchor="middle" x="780.5" y="-29.5" font-family="Helvetica,sans-Serif" font-size="10.00">SharedFactory&lt; T &gt;</text>
</a>
</g>
</g>
<!-- Node11&#45;&gt;Node10 -->
<g id="edge11" class="edge">
<title>Node11&#45;&gt;Node10</title>
<path fill="none" stroke="orange" stroke-dasharray="5,2" d="M843.31,-32C885.64,-32 942.45,-32 989.81,-32"/>
<polygon fill="orange" stroke="orange" points="843.15,-28.5 833.15,-32 843.15,-35.5 843.15,-28.5"/>
<text text-anchor="middle" x="921.5" y="-35" font-family="Helvetica,sans-Serif" font-size="10.00"> &lt; TurbineGovernor &gt;</text>
</g>
</g>
</svg>
