<?xml version="1.0" encoding="UTF-8" standalone="no"?>
<!DOCTYPE svg PUBLIC "-//W3C//DTD SVG 1.1//EN"
 "http://www.w3.org/Graphics/SVG/1.1/DTD/svg11.dtd">
<!-- Generated by graphviz version 2.44.0 (0)
 -->
<!-- Title: CPS::SimPowerComp&lt; VarType &gt; Pages: 1 -->
<svg width="1155pt" height="1688pt"
 viewBox="0.00 0.00 1155.00 1687.50" xmlns="http://www.w3.org/2000/svg" xmlns:xlink="http://www.w3.org/1999/xlink">
<g id="graph0" class="graph" transform="scale(1 1) rotate(0) translate(4 1683.5)">
<title>CPS::SimPowerComp&lt; VarType &gt;</title>
<!-- Node1 -->
<g id="node1" class="node">
<title>Node1</title>
<g id="a_node1"><a xlink:title="Base class for all components that are transmitting power.">
<polygon fill="#bfbfbf" stroke="black" points="465,-1595 465,-1625 585,-1625 585,-1595 465,-1595"/>
<text text-anchor="start" x="473" y="-1613" font-family="Helvetica" font-size="10.00">CPS::SimPowerComp&lt;</text>
<text text-anchor="middle" x="525" y="-1602" font-family="Helvetica" font-size="10.00"> VarType &gt;</text>
</a>
</g>
</g>
<!-- Node5 -->
<g id="node5" class="node">
<title>Node5</title>
<g id="a_node5"><a xlink:href="class_c_p_s_1_1_base_1_1_reduced_order_synchron_generator.html" target="_top" xlink:title=" ">
<polygon fill="none" stroke="black" points="682,-1595 682,-1625 858,-1625 858,-1595 682,-1595"/>
<text text-anchor="start" x="690" y="-1613" font-family="Helvetica" font-size="10.00">CPS::Base::ReducedOrderSynchron</text>
<text text-anchor="middle" x="770" y="-1602" font-family="Helvetica" font-size="10.00">Generator&lt; VarType &gt;</text>
</a>
</g>
</g>
<!-- Node1&#45;&gt;Node5 -->
<g id="edge4" class="edge">
<title>Node1&#45;&gt;Node5</title>
<path fill="none" stroke="midnightblue" d="M595.25,-1610C622.24,-1610 653.47,-1610 681.95,-1610"/>
<polygon fill="midnightblue" stroke="midnightblue" points="595.13,-1606.5 585.13,-1610 595.13,-1613.5 595.13,-1606.5"/>
</g>
<!-- Node24 -->
<g id="node8" class="node">
<title>Node24</title>
<g id="a_node8"><a xlink:href="class_c_p_s_1_1_sim_power_comp.html" target="_top" xlink:title=" ">
<polygon fill="none" stroke="red" points="710,-833 710,-863 830,-863 830,-833 710,-833"/>
<text text-anchor="start" x="718" y="-851" font-family="Helvetica" font-size="10.00">CPS::SimPowerComp&lt;</text>
<text text-anchor="middle" x="770" y="-840" font-family="Helvetica" font-size="10.00"> Complex &gt;</text>
</a>
</g>
</g>
<!-- Node1&#45;&gt;Node24 -->
<g id="edge7" class="edge">
<title>Node1&#45;&gt;Node24</title>
<path fill="none" stroke="orange" stroke-dasharray="5,2" d="M533.94,-1585.1C571.86,-1466.19 733.91,-958.04 764.13,-863.26"/>
<polygon fill="orange" stroke="orange" points="530.56,-1584.19 530.85,-1594.78 537.23,-1586.31 530.56,-1584.19"/>
<text text-anchor="middle" x="633.5" y="-1367" font-family="Helvetica" font-size="10.00"> &lt; Complex &gt;</text>
</g>
<!-- Node82 -->
<g id="node49" class="node">
<title>Node82</title>
<g id="a_node49"><a xlink:href="class_c_p_s_1_1_sim_power_comp.html" target="_top" xlink:title=" ">
<polygon fill="none" stroke="red" points="710,-1649 710,-1679 830,-1679 830,-1649 710,-1649"/>
<text text-anchor="start" x="718" y="-1667" font-family="Helvetica" font-size="10.00">CPS::SimPowerComp&lt;</text>
<text text-anchor="middle" x="770" y="-1656" font-family="Helvetica" font-size="10.00"> Real &gt;</text>
</a>
</g>
</g>
<!-- Node1&#45;&gt;Node82 -->
<g id="edge49" class="edge">
<title>Node1&#45;&gt;Node82</title>
<path fill="none" stroke="orange" stroke-dasharray="5,2" d="M595.11,-1625.36C631.24,-1633.39 675.01,-1643.11 709.6,-1650.8"/>
<polygon fill="orange" stroke="orange" points="595.65,-1621.89 585.13,-1623.14 594.14,-1628.73 595.65,-1621.89"/>
<text text-anchor="middle" x="633.5" y="-1644" font-family="Helvetica" font-size="10.00"> &lt; Real &gt;</text>
</g>
<!-- Node2 -->
<g id="node2" class="node">
<title>Node2</title>
<g id="a_node2"><a xlink:href="class_c_p_s_1_1_topological_power_comp.html" target="_top" xlink:title=" ">
<polygon fill="none" stroke="black" points="282,-1600.5 282,-1619.5 428,-1619.5 428,-1600.5 282,-1600.5"/>
<text text-anchor="middle" x="355" y="-1607.5" font-family="Helvetica" font-size="10.00">CPS::TopologicalPowerComp</text>
</a>
</g>
</g>
<!-- Node2&#45;&gt;Node1 -->
<g id="edge1" class="edge">
<title>Node2&#45;&gt;Node1</title>
<path fill="none" stroke="midnightblue" d="M438.34,-1610C447.34,-1610 456.36,-1610 464.99,-1610"/>
<polygon fill="midnightblue" stroke="midnightblue" points="438.22,-1606.5 428.22,-1610 438.22,-1613.5 438.22,-1606.5"/>
</g>
<!-- Node3 -->
<g id="node3" class="node">
<title>Node3</title>
<g id="a_node3"><a xlink:href="class_c_p_s_1_1_identified_object.html" target="_top" xlink:title=" ">
<polygon fill="none" stroke="black" points="133,-1600.5 133,-1619.5 245,-1619.5 245,-1600.5 133,-1600.5"/>
<text text-anchor="middle" x="189" y="-1607.5" font-family="Helvetica" font-size="10.00">CPS::IdentifiedObject</text>
</a>
</g>
</g>
<!-- Node3&#45;&gt;Node2 -->
<g id="edge2" class="edge">
<title>Node3&#45;&gt;Node2</title>
<path fill="none" stroke="midnightblue" d="M255.21,-1610C263.98,-1610 273.02,-1610 281.89,-1610"/>
<polygon fill="midnightblue" stroke="midnightblue" points="255.07,-1606.5 245.07,-1610 255.07,-1613.5 255.07,-1606.5"/>
</g>
<!-- Node4 -->
<g id="node4" class="node">
<title>Node4</title>
<g id="a_node4"><a xlink:href="class_c_p_s_1_1_attribute_list.html" target="_top" xlink:title="Base class of objects having attributes to access member variables.">
<polygon fill="none" stroke="black" points="0,-1600.5 0,-1619.5 96,-1619.5 96,-1600.5 0,-1600.5"/>
<text text-anchor="middle" x="48" y="-1607.5" font-family="Helvetica" font-size="10.00">CPS::AttributeList</text>
</a>
</g>
</g>
<!-- Node4&#45;&gt;Node3 -->
<g id="edge3" class="edge">
<title>Node4&#45;&gt;Node3</title>
<path fill="none" stroke="midnightblue" d="M106.22,-1610C115.02,-1610 124.08,-1610 132.83,-1610"/>
<polygon fill="midnightblue" stroke="midnightblue" points="106.06,-1606.5 96.06,-1610 106.06,-1613.5 106.06,-1606.5"/>
</g>
<!-- Node6 -->
<g id="node6" class="node">
<title>Node6</title>
<g id="a_node6"><a xlink:href="class_c_p_s_1_1_base_1_1_reduced_order_synchron_generator.html" target="_top" xlink:title=" ">
<polygon fill="none" stroke="red" points="963,-1592 963,-1622 1139,-1622 1139,-1592 963,-1592"/>
<text text-anchor="start" x="971" y="-1610" font-family="Helvetica" font-size="10.00">CPS::Base::ReducedOrderSynchron</text>
<text text-anchor="middle" x="1051" y="-1599" font-family="Helvetica" font-size="10.00">Generator&lt; Complex &gt;</text>
</a>
</g>
</g>
<!-- Node5&#45;&gt;Node6 -->
<g id="edge5" class="edge">
<title>Node5&#45;&gt;Node6</title>
<path fill="none" stroke="orange" stroke-dasharray="5,2" d="M868.25,-1608.1C870.86,-1608.07 873.45,-1608.03 876,-1608 904.24,-1607.65 935.07,-1607.42 962.82,-1607.27"/>
<polygon fill="orange" stroke="orange" points="868.04,-1604.6 858.09,-1608.25 868.14,-1611.6 868.04,-1604.6"/>
<text text-anchor="middle" x="906.5" y="-1611" font-family="Helvetica" font-size="10.00"> &lt; Complex &gt;</text>
</g>
<!-- Node18 -->
<g id="node7" class="node">
<title>Node18</title>
<g id="a_node7"><a xlink:href="class_c_p_s_1_1_base_1_1_reduced_order_synchron_generator.html" target="_top" xlink:title=" ">
<polygon fill="none" stroke="red" points="963,-1647 963,-1677 1139,-1677 1139,-1647 963,-1647"/>
<text text-anchor="start" x="971" y="-1665" font-family="Helvetica" font-size="10.00">CPS::Base::ReducedOrderSynchron</text>
<text text-anchor="middle" x="1051" y="-1654" font-family="Helvetica" font-size="10.00">Generator&lt; Real &gt;</text>
</a>
</g>
</g>
<!-- Node5&#45;&gt;Node18 -->
<g id="edge6" class="edge">
<title>Node5&#45;&gt;Node18</title>
<path fill="none" stroke="orange" stroke-dasharray="5,2" d="M861.83,-1626.93C896.52,-1633.4 935.81,-1640.72 969.48,-1646.99"/>
<polygon fill="orange" stroke="orange" points="862.17,-1623.43 851.7,-1625.04 860.89,-1630.31 862.17,-1623.43"/>
<text text-anchor="middle" x="906.5" y="-1644" font-family="Helvetica" font-size="10.00"> &lt; Real &gt;</text>
</g>
<!-- Node24&#45;&gt;Node6 -->
<g id="edge8" class="edge">
<title>Node24&#45;&gt;Node6</title>
<path fill="none" stroke="midnightblue" d="M772.29,-873.13C778.29,-982.07 806.11,-1413 876,-1526 897.3,-1560.43 937.57,-1580.43 974.01,-1591.93"/>
<polygon fill="midnightblue" stroke="midnightblue" points="775.79,-872.87 771.75,-863.08 768.8,-873.25 775.79,-872.87"/>
</g>
<!-- Node25 -->
<g id="node9" class="node">
<title>Node25</title>
<g id="a_node9"><a xlink:href="class_c_p_s_1_1_d_p_1_1_ph1_1_1_av_voltage_source_inverter_d_q.html" target="_top" xlink:title=" ">
<polygon fill="none" stroke="black" points="970.5,-1352 970.5,-1382 1131.5,-1382 1131.5,-1352 970.5,-1352"/>
<text text-anchor="start" x="978.5" y="-1370" font-family="Helvetica" font-size="10.00">CPS::DP::Ph1::AvVoltageSource</text>
<text text-anchor="middle" x="1051" y="-1359" font-family="Helvetica" font-size="10.00">InverterDQ</text>
</a>
</g>
</g>
<!-- Node24&#45;&gt;Node25 -->
<g id="edge9" class="edge">
<title>Node24&#45;&gt;Node25</title>
<path fill="none" stroke="midnightblue" d="M770.99,-873.45C772.14,-945.06 783.77,-1151.82 876,-1287 898.95,-1320.65 939.78,-1340.41 976.12,-1351.87"/>
<polygon fill="midnightblue" stroke="midnightblue" points="774.48,-873.12 770.88,-863.15 767.48,-873.19 774.48,-873.12"/>
</g>
<!-- Node26 -->
<g id="node10" class="node">
<title>Node26</title>
<g id="a_node10"><a xlink:href="class_c_p_s_1_1_d_p_1_1_ph1_1_1_capacitor.html" target="_top" xlink:title="Capacitor model.">
<polygon fill="none" stroke="black" points="987,-1313.5 987,-1332.5 1115,-1332.5 1115,-1313.5 987,-1313.5"/>
<text text-anchor="middle" x="1051" y="-1320.5" font-family="Helvetica" font-size="10.00">CPS::DP::Ph1::Capacitor</text>
</a>
</g>
</g>
<!-- Node24&#45;&gt;Node26 -->
<g id="edge10" class="edge">
<title>Node24&#45;&gt;Node26</title>
<path fill="none" stroke="midnightblue" d="M771.72,-873.51C774.79,-940.95 790.94,-1127.14 876,-1249 900.49,-1284.08 915.64,-1287.23 955,-1304 964.98,-1308.25 975.96,-1311.57 986.81,-1314.15"/>
<polygon fill="midnightblue" stroke="midnightblue" points="775.21,-873.23 771.32,-863.38 768.22,-873.51 775.21,-873.23"/>
</g>
<!-- Node27 -->
<g id="node11" class="node">
<title>Node27</title>
<g id="a_node11"><a xlink:href="class_c_p_s_1_1_d_p_1_1_ph1_1_1_current_source.html" target="_top" xlink:title="Dynamic phasor ideal current source.">
<polygon fill="none" stroke="black" points="976,-1275.5 976,-1294.5 1126,-1294.5 1126,-1275.5 976,-1275.5"/>
<text text-anchor="middle" x="1051" y="-1282.5" font-family="Helvetica" font-size="10.00">CPS::DP::Ph1::CurrentSource</text>
</a>
</g>
</g>
<!-- Node24&#45;&gt;Node27 -->
<g id="edge11" class="edge">
<title>Node24&#45;&gt;Node27</title>
<path fill="none" stroke="midnightblue" d="M772.57,-873.17C777.59,-935.92 797.92,-1102.11 876,-1211 900.93,-1245.77 915.64,-1249.23 955,-1266 964.13,-1269.89 974.1,-1273 984.03,-1275.47"/>
<polygon fill="midnightblue" stroke="midnightblue" points="776.04,-872.73 771.82,-863.02 769.06,-873.25 776.04,-872.73"/>
</g>
<!-- Node28 -->
<g id="node12" class="node">
<title>Node28</title>
<g id="a_node12"><a xlink:href="class_c_p_s_1_1_d_p_1_1_ph1_1_1_inductor.html" target="_top" xlink:title="Inductor.">
<polygon fill="none" stroke="black" points="990,-1237.5 990,-1256.5 1112,-1256.5 1112,-1237.5 990,-1237.5"/>
<text text-anchor="middle" x="1051" y="-1244.5" font-family="Helvetica" font-size="10.00">CPS::DP::Ph1::Inductor</text>
</a>
</g>
</g>
<!-- Node24&#45;&gt;Node28 -->
<g id="edge12" class="edge">
<title>Node24&#45;&gt;Node28</title>
<path fill="none" stroke="midnightblue" d="M773.63,-873.26C780.78,-931.43 805.04,-1077.21 876,-1173 901.47,-1207.38 915.64,-1211.23 955,-1228 965.91,-1232.65 978.01,-1236.18 989.83,-1238.85"/>
<polygon fill="midnightblue" stroke="midnightblue" points="777.08,-872.67 772.45,-863.14 770.13,-873.48 777.08,-872.67"/>
</g>
<!-- Node29 -->
<g id="node13" class="node">
<title>Node29</title>
<g id="a_node13"><a xlink:href="class_c_p_s_1_1_d_p_1_1_ph1_1_1_inverter.html" target="_top" xlink:title="Single phase inverter model.">
<polygon fill="none" stroke="black" points="991,-1199.5 991,-1218.5 1111,-1218.5 1111,-1199.5 991,-1199.5"/>
<text text-anchor="middle" x="1051" y="-1206.5" font-family="Helvetica" font-size="10.00">CPS::DP::Ph1::Inverter</text>
</a>
</g>
</g>
<!-- Node24&#45;&gt;Node29 -->
<g id="edge13" class="edge">
<title>Node24&#45;&gt;Node29</title>
<path fill="none" stroke="midnightblue" d="M774.94,-873.19C784.3,-926.38 812.06,-1052.05 876,-1135 902.12,-1168.88 915.64,-1173.23 955,-1190 966.22,-1194.78 978.7,-1198.38 990.83,-1201.08"/>
<polygon fill="midnightblue" stroke="midnightblue" points="778.38,-872.54 773.26,-863.27 771.47,-873.71 778.38,-872.54"/>
</g>
<!-- Node30 -->
<g id="node14" class="node">
<title>Node30</title>
<g id="a_node14"><a xlink:href="class_c_p_s_1_1_d_p_1_1_ph1_1_1_network_injection.html" target="_top" xlink:title="Network injection model.">
<polygon fill="none" stroke="black" points="970.5,-1161.5 970.5,-1180.5 1131.5,-1180.5 1131.5,-1161.5 970.5,-1161.5"/>
<text text-anchor="middle" x="1051" y="-1168.5" font-family="Helvetica" font-size="10.00">CPS::DP::Ph1::NetworkInjection</text>
</a>
</g>
</g>
<!-- Node24&#45;&gt;Node30 -->
<g id="edge14" class="edge">
<title>Node24&#45;&gt;Node30</title>
<path fill="none" stroke="midnightblue" d="M776.61,-873.1C788.3,-920.94 819.03,-1026.67 876,-1097 902.93,-1130.24 915.64,-1135.23 955,-1152 964.13,-1155.89 974.1,-1159 984.03,-1161.47"/>
<polygon fill="midnightblue" stroke="midnightblue" points="779.99,-872.2 774.28,-863.28 773.18,-873.82 779.99,-872.2"/>
</g>
<!-- Node31 -->
<g id="node15" class="node">
<title>Node31</title>
<g id="a_node15"><a xlink:href="class_c_p_s_1_1_d_p_1_1_ph1_1_1_p_q_load_c_s.html" target="_top" xlink:title="PQ&#45;load represented by a current source.">
<polygon fill="none" stroke="black" points="983,-1123.5 983,-1142.5 1119,-1142.5 1119,-1123.5 983,-1123.5"/>
<text text-anchor="middle" x="1051" y="-1130.5" font-family="Helvetica" font-size="10.00">CPS::DP::Ph1::PQLoadCS</text>
</a>
</g>
</g>
<!-- Node24&#45;&gt;Node31 -->
<g id="edge15" class="edge">
<title>Node24&#45;&gt;Node31</title>
<path fill="none" stroke="midnightblue" d="M778.66,-872.86C792.6,-915.08 825.45,-1001.85 876,-1060 903.9,-1092.1 915.8,-1097.5 955,-1114 964.22,-1117.88 974.29,-1120.99 984.31,-1123.47"/>
<polygon fill="midnightblue" stroke="midnightblue" points="781.92,-871.57 775.52,-863.13 775.26,-873.72 781.92,-871.57"/>
</g>
<!-- Node32 -->
<g id="node16" class="node">
<title>Node32</title>
<g id="a_node16"><a xlink:href="class_c_p_s_1_1_d_p_1_1_ph1_1_1_pi_line.html" target="_top" xlink:title="PI&#45;line dynamic phasor model.">
<polygon fill="none" stroke="black" points="994,-1085.5 994,-1104.5 1108,-1104.5 1108,-1085.5 994,-1085.5"/>
<text text-anchor="middle" x="1051" y="-1092.5" font-family="Helvetica" font-size="10.00">CPS::DP::Ph1::PiLine</text>
</a>
</g>
</g>
<!-- Node24&#45;&gt;Node32 -->
<g id="edge16" class="edge">
<title>Node24&#45;&gt;Node32</title>
<path fill="none" stroke="midnightblue" d="M781.38,-872.3C797.63,-908.3 831.82,-976.53 876,-1023 905.13,-1053.64 915.96,-1059.76 955,-1076 967.11,-1081.04 980.66,-1084.77 993.65,-1087.52"/>
<polygon fill="midnightblue" stroke="midnightblue" points="784.53,-870.77 777.28,-863.05 778.13,-873.61 784.53,-870.77"/>
</g>
<!-- Node33 -->
<g id="node17" class="node">
<title>Node33</title>
<g id="a_node17"><a xlink:href="class_c_p_s_1_1_d_p_1_1_ph1_1_1_r_x_load.html" target="_top" xlink:title="Constant impedance load model consisting of RLC elements.">
<polygon fill="none" stroke="black" points="990,-1047.5 990,-1066.5 1112,-1066.5 1112,-1047.5 990,-1047.5"/>
<text text-anchor="middle" x="1051" y="-1054.5" font-family="Helvetica" font-size="10.00">CPS::DP::Ph1::RXLoad</text>
</a>
</g>
</g>
<!-- Node24&#45;&gt;Node33 -->
<g id="edge17" class="edge">
<title>Node24&#45;&gt;Node33</title>
<path fill="none" stroke="midnightblue" d="M785.36,-871.93C803.81,-901.35 838.01,-951.71 876,-987 906.62,-1015.44 916.27,-1022.29 955,-1038 965.99,-1042.46 978.13,-1045.9 989.95,-1048.55"/>
<polygon fill="midnightblue" stroke="midnightblue" points="788.18,-869.82 779.94,-863.15 782.22,-873.5 788.18,-869.82"/>
</g>
<!-- Node34 -->
<g id="node18" class="node">
<title>Node34</title>
<g id="a_node18"><a xlink:href="class_c_p_s_1_1_d_p_1_1_ph1_1_1_r_x_load_switch.html" target="_top" xlink:title="Constant impedance load model consisting of RLC elements.">
<polygon fill="none" stroke="black" points="975,-1009.5 975,-1028.5 1127,-1028.5 1127,-1009.5 975,-1009.5"/>
<text text-anchor="middle" x="1051" y="-1016.5" font-family="Helvetica" font-size="10.00">CPS::DP::Ph1::RXLoadSwitch</text>
</a>
</g>
</g>
<!-- Node24&#45;&gt;Node34 -->
<g id="edge18" class="edge">
<title>Node24&#45;&gt;Node34</title>
<path fill="none" stroke="midnightblue" d="M789.9,-871.3C820.33,-906.78 883.98,-973.08 955,-1000 965.14,-1003.85 976.21,-1006.96 987.08,-1009.47"/>
<polygon fill="midnightblue" stroke="midnightblue" points="792.36,-868.78 783.24,-863.39 787.01,-873.29 792.36,-868.78"/>
</g>
<!-- Node35 -->
<g id="node19" class="node">
<title>Node35</title>
<g id="a_node19"><a xlink:href="class_c_p_s_1_1_d_p_1_1_ph1_1_1_res_ind_series.html" target="_top" xlink:title="resistor inductor series element">
<polygon fill="none" stroke="black" points="978,-971.5 978,-990.5 1124,-990.5 1124,-971.5 978,-971.5"/>
<text text-anchor="middle" x="1051" y="-978.5" font-family="Helvetica" font-size="10.00">CPS::DP::Ph1::ResIndSeries</text>
</a>
</g>
</g>
<!-- Node24&#45;&gt;Node35 -->
<g id="edge19" class="edge">
<title>Node24&#45;&gt;Node35</title>
<path fill="none" stroke="midnightblue" d="M797.23,-869.45C831.31,-896.03 893.72,-940.46 955,-962 965.79,-965.79 977.55,-968.91 989.01,-971.45"/>
<polygon fill="midnightblue" stroke="midnightblue" points="799.21,-866.55 789.19,-863.1 794.87,-872.05 799.21,-866.55"/>
</g>
<!-- Node36 -->
<g id="node20" class="node">
<title>Node36</title>
<g id="a_node20"><a xlink:href="class_c_p_s_1_1_d_p_1_1_ph1_1_1_resistor.html" target="_top" xlink:title="Dynamic phasor resistor model.">
<polygon fill="none" stroke="black" points="989.5,-933.5 989.5,-952.5 1112.5,-952.5 1112.5,-933.5 989.5,-933.5"/>
<text text-anchor="middle" x="1051" y="-940.5" font-family="Helvetica" font-size="10.00">CPS::DP::Ph1::Resistor</text>
</a>
</g>
</g>
<!-- Node24&#45;&gt;Node36 -->
<g id="edge20" class="edge">
<title>Node24&#45;&gt;Node36</title>
<path fill="none" stroke="midnightblue" d="M811.24,-867.38C847.96,-884.4 904.09,-908.75 955,-924 967.25,-927.67 980.59,-930.83 993.31,-933.47"/>
<polygon fill="midnightblue" stroke="midnightblue" points="812.42,-864.07 801.88,-863.01 809.46,-870.42 812.42,-864.07"/>
</g>
<!-- Node37 -->
<g id="node21" class="node">
<title>Node37</title>
<g id="a_node21"><a xlink:href="class_c_p_s_1_1_d_p_1_1_ph1_1_1_rx_line.html" target="_top" xlink:title=" ">
<polygon fill="none" stroke="black" points="992,-895.5 992,-914.5 1110,-914.5 1110,-895.5 992,-895.5"/>
<text text-anchor="middle" x="1051" y="-902.5" font-family="Helvetica" font-size="10.00">CPS::DP::Ph1::RxLine</text>
</a>
</g>
</g>
<!-- Node24&#45;&gt;Node37 -->
<g id="edge21" class="edge">
<title>Node24&#45;&gt;Node37</title>
<path fill="none" stroke="midnightblue" d="M840.01,-864.16C851.99,-866.85 864.35,-869.56 876,-872 916.48,-880.46 962.45,-889.14 996.98,-895.47"/>
<polygon fill="midnightblue" stroke="midnightblue" points="840.58,-860.7 830.06,-861.9 839.04,-867.53 840.58,-860.7"/>
</g>
<!-- Node38 -->
<g id="node22" class="node">
<title>Node38</title>
<g id="a_node22"><a xlink:href="class_c_p_s_1_1_d_p_1_1_ph1_1_1_s_v_c.html" target="_top" xlink:title="SVC.">
<polygon fill="none" stroke="black" points="997.5,-857.5 997.5,-876.5 1104.5,-876.5 1104.5,-857.5 997.5,-857.5"/>
<text text-anchor="middle" x="1051" y="-864.5" font-family="Helvetica" font-size="10.00">CPS::DP::Ph1::SVC</text>
</a>
</g>
</g>
<!-- Node24&#45;&gt;Node38 -->
<g id="edge22" class="edge">
<title>Node24&#45;&gt;Node38</title>
<path fill="none" stroke="midnightblue" d="M840.27,-852.72C888.77,-856.02 952.59,-860.37 997.04,-863.39"/>
<polygon fill="midnightblue" stroke="midnightblue" points="840.38,-849.22 830.17,-852.03 839.91,-856.2 840.38,-849.22"/>
</g>
<!-- Node39 -->
<g id="node23" class="node">
<title>Node39</title>
<g id="a_node23"><a xlink:href="class_c_p_s_1_1_d_p_1_1_ph1_1_1_switch.html" target="_top" xlink:title="Dynamic phasor switch.">
<polygon fill="none" stroke="black" points="992.5,-819.5 992.5,-838.5 1109.5,-838.5 1109.5,-819.5 992.5,-819.5"/>
<text text-anchor="middle" x="1051" y="-826.5" font-family="Helvetica" font-size="10.00">CPS::DP::Ph1::Switch</text>
</a>
</g>
</g>
<!-- Node24&#45;&gt;Node39 -->
<g id="edge23" class="edge">
<title>Node24&#45;&gt;Node39</title>
<path fill="none" stroke="midnightblue" d="M840.23,-843.29C887.06,-840.1 948.17,-835.93 992.35,-832.93"/>
<polygon fill="midnightblue" stroke="midnightblue" points="839.91,-839.8 830.17,-843.97 840.38,-846.78 839.91,-839.8"/>
</g>
<!-- Node40 -->
<g id="node24" class="node">
<title>Node40</title>
<g id="a_node24"><a xlink:href="class_c_p_s_1_1_d_p_1_1_ph1_1_1_synchron_generator_ideal.html" target="_top" xlink:title="Ideal voltage source representing a synchronous generator.">
<polygon fill="none" stroke="black" points="965.5,-770 965.5,-800 1136.5,-800 1136.5,-770 965.5,-770"/>
<text text-anchor="start" x="973.5" y="-788" font-family="Helvetica" font-size="10.00">CPS::DP::Ph1::SynchronGenerator</text>
<text text-anchor="middle" x="1051" y="-777" font-family="Helvetica" font-size="10.00">Ideal</text>
</a>
</g>
</g>
<!-- Node24&#45;&gt;Node40 -->
<g id="edge24" class="edge">
<title>Node24&#45;&gt;Node40</title>
<path fill="none" stroke="midnightblue" d="M840.13,-832.39C883.77,-822.53 939.87,-809.87 983.08,-800.11"/>
<polygon fill="midnightblue" stroke="midnightblue" points="839.15,-829.02 830.17,-834.64 840.69,-835.85 839.15,-829.02"/>
</g>
<!-- Node41 -->
<g id="node25" class="node">
<title>Node41</title>
<g id="a_node25"><a xlink:href="class_c_p_s_1_1_d_p_1_1_ph1_1_1_synchron_generator_tr_stab.html" target="_top" xlink:title="Synchronous generator model for transient stability analysis.">
<polygon fill="none" stroke="black" points="965.5,-721 965.5,-751 1136.5,-751 1136.5,-721 965.5,-721"/>
<text text-anchor="start" x="973.5" y="-739" font-family="Helvetica" font-size="10.00">CPS::DP::Ph1::SynchronGenerator</text>
<text text-anchor="middle" x="1051" y="-728" font-family="Helvetica" font-size="10.00">TrStab</text>
</a>
</g>
</g>
<!-- Node24&#45;&gt;Node41 -->
<g id="edge25" class="edge">
<title>Node24&#45;&gt;Node41</title>
<path fill="none" stroke="midnightblue" d="M807.24,-828.01C843.7,-808.55 901.96,-779.17 955,-760 964.04,-756.73 973.72,-753.74 983.31,-751.06"/>
<polygon fill="midnightblue" stroke="midnightblue" points="805.16,-825.16 798.01,-832.98 808.47,-831.32 805.16,-825.16"/>
</g>
<!-- Node42 -->
<g id="node26" class="node">
<title>Node42</title>
<g id="a_node26"><a xlink:href="class_c_p_s_1_1_d_p_1_1_ph1_1_1_transformer.html" target="_top" xlink:title="Transformer that includes an inductance and resistance.">
<polygon fill="none" stroke="black" points="981.5,-682.5 981.5,-701.5 1120.5,-701.5 1120.5,-682.5 981.5,-682.5"/>
<text text-anchor="middle" x="1051" y="-689.5" font-family="Helvetica" font-size="10.00">CPS::DP::Ph1::Transformer</text>
</a>
</g>
</g>
<!-- Node24&#45;&gt;Node42 -->
<g id="edge26" class="edge">
<title>Node24&#45;&gt;Node42</title>
<path fill="none" stroke="midnightblue" d="M793.24,-825.53C825.68,-794.25 889.3,-738.33 955,-711 964.32,-707.12 974.49,-704.02 984.6,-701.54"/>
<polygon fill="midnightblue" stroke="midnightblue" points="790.76,-823.06 786.05,-832.56 795.65,-828.07 790.76,-823.06"/>
</g>
<!-- Node43 -->
<g id="node27" class="node">
<title>Node43</title>
<g id="a_node27"><a xlink:href="class_c_p_s_1_1_d_p_1_1_ph1_1_1_voltage_source.html" target="_top" xlink:title="Ideal Voltage source model.">
<polygon fill="none" stroke="black" points="976,-644.5 976,-663.5 1126,-663.5 1126,-644.5 976,-644.5"/>
<text text-anchor="middle" x="1051" y="-651.5" font-family="Helvetica" font-size="10.00">CPS::DP::Ph1::VoltageSource</text>
</a>
</g>
</g>
<!-- Node24&#45;&gt;Node43 -->
<g id="edge27" class="edge">
<title>Node24&#45;&gt;Node43</title>
<path fill="none" stroke="midnightblue" d="M786.23,-824.12C804.89,-796.19 838.67,-749.74 876,-718 906.79,-691.83 917.15,-687.14 955,-673 965.24,-669.17 976.41,-666.07 987.37,-663.56"/>
<polygon fill="midnightblue" stroke="midnightblue" points="783.07,-822.56 780.49,-832.83 788.91,-826.4 783.07,-822.56"/>
</g>
<!-- Node44 -->
<g id="node28" class="node">
<title>Node44</title>
<g id="a_node28"><a xlink:href="class_c_p_s_1_1_d_p_1_1_ph1_1_1_voltage_source_norton.html" target="_top" xlink:title="Resistive dynamic phasor voltage source.">
<polygon fill="none" stroke="black" points="976,-595 976,-625 1126,-625 1126,-595 976,-595"/>
<text text-anchor="start" x="984" y="-613" font-family="Helvetica" font-size="10.00">CPS::DP::Ph1::VoltageSource</text>
<text text-anchor="middle" x="1051" y="-602" font-family="Helvetica" font-size="10.00">Norton</text>
</a>
</g>
</g>
<!-- Node24&#45;&gt;Node44 -->
<g id="edge28" class="edge">
<title>Node24&#45;&gt;Node44</title>
<path fill="none" stroke="midnightblue" d="M780.84,-823.48C796.39,-787.28 829.7,-719.19 876,-676 903.52,-650.32 942.03,-634.35 975.82,-624.56"/>
<polygon fill="midnightblue" stroke="midnightblue" points="777.57,-822.22 776.93,-832.79 784.02,-824.92 777.57,-822.22"/>
</g>
<!-- Node45 -->
<g id="node29" class="node">
<title>Node45</title>
<g id="a_node29"><a xlink:href="class_c_p_s_1_1_d_p_1_1_ph1_1_1_voltage_source_ramp.html" target="_top" xlink:title=" ">
<polygon fill="none" stroke="black" points="963,-556.5 963,-575.5 1139,-575.5 1139,-556.5 963,-556.5"/>
<text text-anchor="middle" x="1051" y="-563.5" font-family="Helvetica" font-size="10.00">CPS::DP::Ph1::VoltageSourceRamp</text>
</a>
</g>
</g>
<!-- Node24&#45;&gt;Node45 -->
<g id="edge29" class="edge">
<title>Node24&#45;&gt;Node45</title>
<path fill="none" stroke="midnightblue" d="M778.31,-823.14C791.82,-780.55 824.16,-692.66 876,-635 903.78,-604.1 916.42,-600.44 955,-585 964.68,-581.12 975.25,-578.01 985.7,-575.52"/>
<polygon fill="midnightblue" stroke="midnightblue" points="774.89,-822.36 775.28,-832.95 781.57,-824.43 774.89,-822.36"/>
</g>
<!-- Node46 -->
<g id="node30" class="node">
<title>Node46</title>
<g id="a_node30"><a xlink:href="class_c_p_s_1_1_d_p_1_1_ph1_1_1var_res_switch.html" target="_top" xlink:title="Switch with variable resistance to avoid numerical oscillations, when an inductive current is suddenl...">
<polygon fill="none" stroke="black" points="977.5,-518.5 977.5,-537.5 1124.5,-537.5 1124.5,-518.5 977.5,-518.5"/>
<text text-anchor="middle" x="1051" y="-525.5" font-family="Helvetica" font-size="10.00">CPS::DP::Ph1::varResSwitch</text>
</a>
</g>
</g>
<!-- Node24&#45;&gt;Node46 -->
<g id="edge30" class="edge">
<title>Node24&#45;&gt;Node46</title>
<path fill="none" stroke="midnightblue" d="M775.23,-823C784.84,-772.97 812.59,-659.34 876,-589 901.83,-560.35 941.89,-545.16 977.07,-537.1"/>
<polygon fill="midnightblue" stroke="midnightblue" points="771.76,-822.47 773.4,-832.94 778.65,-823.74 771.76,-822.47"/>
</g>
<!-- Node47 -->
<g id="node31" class="node">
<title>Node47</title>
<g id="a_node31"><a xlink:href="class_c_p_s_1_1_d_p_1_1_ph3_1_1_capacitor.html" target="_top" xlink:title="Capacitor model.">
<polygon fill="none" stroke="black" points="987,-480.5 987,-499.5 1115,-499.5 1115,-480.5 987,-480.5"/>
<text text-anchor="middle" x="1051" y="-487.5" font-family="Helvetica" font-size="10.00">CPS::DP::Ph3::Capacitor</text>
</a>
</g>
</g>
<!-- Node24&#45;&gt;Node47 -->
<g id="edge31" class="edge">
<title>Node24&#45;&gt;Node47</title>
<path fill="none" stroke="midnightblue" d="M773.32,-822.68C779.72,-766.4 802.38,-629.43 876,-547 903.95,-515.71 949.34,-501.53 986.75,-495.14"/>
<polygon fill="midnightblue" stroke="midnightblue" points="769.82,-822.5 772.25,-832.82 776.78,-823.24 769.82,-822.5"/>
</g>
<!-- Node48 -->
<g id="node32" class="node">
<title>Node48</title>
<g id="a_node32"><a xlink:href="class_c_p_s_1_1_d_p_1_1_ph3_1_1_inductor.html" target="_top" xlink:title="Inductor.">
<polygon fill="none" stroke="black" points="990,-442.5 990,-461.5 1112,-461.5 1112,-442.5 990,-442.5"/>
<text text-anchor="middle" x="1051" y="-449.5" font-family="Helvetica" font-size="10.00">CPS::DP::Ph3::Inductor</text>
</a>
</g>
</g>
<!-- Node24&#45;&gt;Node48 -->
<g id="edge32" class="edge">
<title>Node24&#45;&gt;Node48</title>
<path fill="none" stroke="midnightblue" d="M771.84,-822.92C775.2,-761.3 792,-600.66 876,-506 904.55,-473.83 951.87,-460.6 989.97,-455.26"/>
<polygon fill="midnightblue" stroke="midnightblue" points="768.34,-822.76 771.37,-832.91 775.33,-823.09 768.34,-822.76"/>
</g>
<!-- Node49 -->
<g id="node33" class="node">
<title>Node49</title>
<g id="a_node33"><a xlink:href="class_c_p_s_1_1_d_p_1_1_ph3_1_1_resistor.html" target="_top" xlink:title=" ">
<polygon fill="none" stroke="black" points="989.5,-404.5 989.5,-423.5 1112.5,-423.5 1112.5,-404.5 989.5,-404.5"/>
<text text-anchor="middle" x="1051" y="-411.5" font-family="Helvetica" font-size="10.00">CPS::DP::Ph3::Resistor</text>
</a>
</g>
</g>
<!-- Node24&#45;&gt;Node49 -->
<g id="edge33" class="edge">
<title>Node24&#45;&gt;Node49</title>
<path fill="none" stroke="midnightblue" d="M770.73,-822.64C771.39,-755.79 782.17,-572.62 876,-466 904.22,-433.93 951.32,-421.24 989.4,-416.4"/>
<polygon fill="midnightblue" stroke="midnightblue" points="767.23,-822.68 770.71,-832.69 774.23,-822.7 767.23,-822.68"/>
</g>
<!-- Node50 -->
<g id="node34" class="node">
<title>Node50</title>
<g id="a_node34"><a xlink:href="class_c_p_s_1_1_d_p_1_1_ph3_1_1_series_resistor.html" target="_top" xlink:title=" ">
<polygon fill="none" stroke="black" points="975.5,-366.5 975.5,-385.5 1126.5,-385.5 1126.5,-366.5 975.5,-366.5"/>
<text text-anchor="middle" x="1051" y="-373.5" font-family="Helvetica" font-size="10.00">CPS::DP::Ph3::SeriesResistor</text>
</a>
</g>
</g>
<!-- Node24&#45;&gt;Node50 -->
<g id="edge34" class="edge">
<title>Node24&#45;&gt;Node50</title>
<path fill="none" stroke="midnightblue" d="M774.26,-822.48C785.16,-740.66 822.73,-486.7 876,-426 900.78,-397.77 940.34,-385 975.48,-379.41"/>
<polygon fill="midnightblue" stroke="midnightblue" points="770.73,-822.48 772.9,-832.85 777.67,-823.39 770.73,-822.48"/>
</g>
<!-- Node51 -->
<g id="node35" class="node">
<title>Node51</title>
<g id="a_node35"><a xlink:href="class_c_p_s_1_1_d_p_1_1_ph3_1_1_series_switch.html" target="_top" xlink:title="Dynamic phasor three&#45;phase switch.">
<polygon fill="none" stroke="black" points="978.5,-328.5 978.5,-347.5 1123.5,-347.5 1123.5,-328.5 978.5,-328.5"/>
<text text-anchor="middle" x="1051" y="-335.5" font-family="Helvetica" font-size="10.00">CPS::DP::Ph3::SeriesSwitch</text>
</a>
</g>
</g>
<!-- Node24&#45;&gt;Node51 -->
<g id="edge35" class="edge">
<title>Node24&#45;&gt;Node51</title>
<path fill="none" stroke="midnightblue" d="M773.53,-822.8C782.69,-736.07 816.79,-451.61 876,-385 901.46,-356.35 942.4,-344.36 978.17,-339.64"/>
<polygon fill="midnightblue" stroke="midnightblue" points="770.04,-822.5 772.49,-832.81 777,-823.22 770.04,-822.5"/>
</g>
<!-- Node52 -->
<g id="node36" class="node">
<title>Node52</title>
<g id="a_node36"><a xlink:href="class_c_p_s_1_1_d_p_1_1_ph3_1_1_synchron_generator_d_q.html" target="_top" xlink:title="Synchronous generator model in dq&#45;reference frame.">
<polygon fill="none" stroke="red" points="958,-290.5 958,-309.5 1144,-309.5 1144,-290.5 958,-290.5"/>
<text text-anchor="middle" x="1051" y="-297.5" font-family="Helvetica" font-size="10.00">CPS::DP::Ph3::SynchronGeneratorDQ</text>
</a>
</g>
</g>
<!-- Node24&#45;&gt;Node52 -->
<g id="edge36" class="edge">
<title>Node24&#45;&gt;Node52</title>
<path fill="none" stroke="midnightblue" d="M773.02,-822.77C780.81,-731.31 811.76,-418.68 876,-346 896.69,-322.59 927.77,-310.45 957.96,-304.35"/>
<polygon fill="midnightblue" stroke="midnightblue" points="769.52,-822.54 772.18,-832.8 776.5,-823.12 769.52,-822.54"/>
</g>
<!-- Node55 -->
<g id="node37" class="node">
<title>Node55</title>
<g id="a_node37"><a xlink:href="class_c_p_s_1_1_d_p_1_1_ph3_1_1_synchron_generator_v_b_r.html" target="_top" xlink:title=" ">
<polygon fill="none" stroke="black" points="955,-252.5 955,-271.5 1147,-271.5 1147,-252.5 955,-252.5"/>
<text text-anchor="middle" x="1051" y="-259.5" font-family="Helvetica" font-size="10.00">CPS::DP::Ph3::SynchronGeneratorVBR</text>
</a>
</g>
</g>
<!-- Node24&#45;&gt;Node55 -->
<g id="edge37" class="edge">
<title>Node24&#45;&gt;Node55</title>
<path fill="none" stroke="midnightblue" d="M772.54,-822.64C778.9,-726.29 806.08,-384.47 876,-306 896,-283.55 925.65,-271.77 954.83,-265.81"/>
<polygon fill="midnightblue" stroke="midnightblue" points="769.03,-822.69 771.88,-832.89 776.02,-823.14 769.03,-822.69"/>
</g>
<!-- Node56 -->
<g id="node38" class="node">
<title>Node56</title>
<g id="a_node38"><a xlink:href="class_c_p_s_1_1_d_p_1_1_ph3_1_1_synchron_generator_v_b_r_standalone.html" target="_top" xlink:title=" ">
<polygon fill="none" stroke="black" points="965.5,-203 965.5,-233 1136.5,-233 1136.5,-203 965.5,-203"/>
<text text-anchor="start" x="973.5" y="-221" font-family="Helvetica" font-size="10.00">CPS::DP::Ph3::SynchronGenerator</text>
<text text-anchor="middle" x="1051" y="-210" font-family="Helvetica" font-size="10.00">VBRStandalone</text>
</a>
</g>
</g>
<!-- Node24&#45;&gt;Node56 -->
<g id="edge38" class="edge">
<title>Node24&#45;&gt;Node56</title>
<path fill="none" stroke="midnightblue" d="M772.15,-822.76C777.22,-722.2 800.79,-351.5 876,-267 898.54,-241.68 933.02,-229.01 965.37,-222.81"/>
<polygon fill="midnightblue" stroke="midnightblue" points="768.64,-822.74 771.65,-832.9 775.64,-823.08 768.64,-822.74"/>
</g>
<!-- Node57 -->
<g id="node39" class="node">
<title>Node57</title>
<g id="a_node39"><a xlink:href="class_c_p_s_1_1_d_p_1_1_ph3_1_1_voltage_source.html" target="_top" xlink:title="Ideal Voltage source model.">
<polygon fill="none" stroke="black" points="976,-164.5 976,-183.5 1126,-183.5 1126,-164.5 976,-164.5"/>
<text text-anchor="middle" x="1051" y="-171.5" font-family="Helvetica" font-size="10.00">CPS::DP::Ph3::VoltageSource</text>
</a>
</g>
</g>
<!-- Node24&#45;&gt;Node57 -->
<g id="edge39" class="edge">
<title>Node24&#45;&gt;Node57</title>
<path fill="none" stroke="midnightblue" d="M772.15,-822.7C777.36,-718.5 801.74,-323.53 876,-228 899.59,-197.66 939.98,-183.95 975.91,-177.93"/>
<polygon fill="midnightblue" stroke="midnightblue" points="768.65,-822.75 771.66,-832.9 775.64,-823.08 768.65,-822.75"/>
</g>
<!-- Node58 -->
<g id="node40" class="node">
<title>Node58</title>
<g id="a_node40"><a xlink:href="class_c_p_s_1_1_s_p_1_1_ph1_1_1_av_voltage_source_inverter_d_q.html" target="_top" xlink:title=" ">
<polygon fill="none" stroke="black" points="970.5,-115 970.5,-145 1131.5,-145 1131.5,-115 970.5,-115"/>
<text text-anchor="start" x="978.5" y="-133" font-family="Helvetica" font-size="10.00">CPS::SP::Ph1::AvVoltageSource</text>
<text text-anchor="middle" x="1051" y="-122" font-family="Helvetica" font-size="10.00">InverterDQ</text>
</a>
</g>
</g>
<!-- Node24&#45;&gt;Node58 -->
<g id="edge40" class="edge">
<title>Node24&#45;&gt;Node58</title>
<path fill="none" stroke="midnightblue" d="M771.69,-822.95C775.18,-714.42 794.01,-285.88 876,-185 898.88,-156.85 936.1,-142.88 970.26,-136.03"/>
<polygon fill="midnightblue" stroke="midnightblue" points="768.2,-822.87 771.39,-832.97 775.19,-823.08 768.2,-822.87"/>
</g>
<!-- Node59 -->
<g id="node41" class="node">
<title>Node59</title>
<g id="a_node41"><a xlink:href="class_c_p_s_1_1_s_p_1_1_ph1_1_1_capacitor.html" target="_top" xlink:title=" ">
<polygon fill="none" stroke="black" points="987,-76.5 987,-95.5 1115,-95.5 1115,-76.5 987,-76.5"/>
<text text-anchor="middle" x="1051" y="-83.5" font-family="Helvetica" font-size="10.00">CPS::SP::Ph1::Capacitor</text>
</a>
</g>
</g>
<!-- Node24&#45;&gt;Node59 -->
<g id="edge41" class="edge">
<title>Node24&#45;&gt;Node59</title>
<path fill="none" stroke="midnightblue" d="M771.62,-822.94C774.88,-710.52 793.08,-253.32 876,-142 901.5,-107.77 948.23,-94.05 986.85,-88.74"/>
<polygon fill="midnightblue" stroke="midnightblue" points="768.12,-822.91 771.35,-833 775.12,-823.1 768.12,-822.91"/>
</g>
<!-- Node60 -->
<g id="node42" class="node">
<title>Node60</title>
<g id="a_node42"><a xlink:href="class_c_p_s_1_1_s_p_1_1_ph1_1_1_inductor.html" target="_top" xlink:title="Static phasor inductor model.">
<polygon fill="none" stroke="black" points="990,-38.5 990,-57.5 1112,-57.5 1112,-38.5 990,-38.5"/>
<text text-anchor="middle" x="1051" y="-45.5" font-family="Helvetica" font-size="10.00">CPS::SP::Ph1::Inductor</text>
</a>
</g>
</g>
<!-- Node24&#45;&gt;Node60 -->
<g id="edge42" class="edge">
<title>Node24&#45;&gt;Node60</title>
<path fill="none" stroke="midnightblue" d="M771.22,-822.77C772.7,-705.45 784.39,-214.12 876,-98 902.77,-64.07 950.98,-52.16 989.87,-48.41"/>
<polygon fill="midnightblue" stroke="midnightblue" points="767.71,-822.89 771.1,-832.93 774.71,-822.97 767.71,-822.89"/>
</g>
<!-- Node61 -->
<g id="node43" class="node">
<title>Node61</title>
<g id="a_node43"><a xlink:href="class_c_p_s_1_1_s_p_1_1_ph1_1_1_load.html" target="_top" xlink:title=" ">
<polygon fill="none" stroke="black" points="997.5,-0.5 997.5,-19.5 1104.5,-19.5 1104.5,-0.5 997.5,-0.5"/>
<text text-anchor="middle" x="1051" y="-7.5" font-family="Helvetica" font-size="10.00">CPS::SP::Ph1::Load</text>
</a>
</g>
</g>
<!-- Node24&#45;&gt;Node61 -->
<g id="edge43" class="edge">
<title>Node24&#45;&gt;Node61</title>
<path fill="none" stroke="midnightblue" d="M770.89,-822.83C770.88,-701.41 776.66,-177.19 876,-56 904.92,-20.72 957.45,-10.72 997.25,-8.64"/>
<polygon fill="midnightblue" stroke="midnightblue" points="767.39,-823 770.91,-833 774.39,-822.99 767.39,-823"/>
</g>
<!-- Node62 -->
<g id="node44" class="node">
<title>Node62</title>
<g id="a_node44"><a xlink:href="class_c_p_s_1_1_s_p_1_1_ph1_1_1_network_injection.html" target="_top" xlink:title="Network injection model.">
<polygon fill="none" stroke="black" points="971,-1553.5 971,-1572.5 1131,-1572.5 1131,-1553.5 971,-1553.5"/>
<text text-anchor="middle" x="1051" y="-1560.5" font-family="Helvetica" font-size="10.00">CPS::SP::Ph1::NetworkInjection</text>
</a>
</g>
</g>
<!-- Node24&#45;&gt;Node62 -->
<g id="edge44" class="edge">
<title>Node24&#45;&gt;Node62</title>
<path fill="none" stroke="midnightblue" d="M772.6,-873.33C779.61,-978.59 810.34,-1380.94 876,-1487 899.42,-1524.84 946.53,-1543.9 985.83,-1553.47"/>
<polygon fill="midnightblue" stroke="midnightblue" points="776.07,-872.78 771.92,-863.03 769.08,-873.24 776.07,-872.78"/>
</g>
<!-- Node63 -->
<g id="node45" class="node">
<title>Node63</title>
<g id="a_node45"><a xlink:href="class_c_p_s_1_1_s_p_1_1_ph1_1_1_p_q_node.html" target="_top" xlink:title=" ">
<polygon fill="none" stroke="black" points="989,-1515.5 989,-1534.5 1113,-1534.5 1113,-1515.5 989,-1515.5"/>
<text text-anchor="middle" x="1051" y="-1522.5" font-family="Helvetica" font-size="10.00">CPS::SP::Ph1::PQNode</text>
</a>
</g>
</g>
<!-- Node24&#45;&gt;Node63 -->
<g id="edge45" class="edge">
<title>Node24&#45;&gt;Node63</title>
<path fill="none" stroke="midnightblue" d="M772.9,-873.44C780.85,-974.91 813.97,-1349.92 876,-1449 900.23,-1487.7 949.17,-1506.77 988.99,-1516.12"/>
<polygon fill="midnightblue" stroke="midnightblue" points="776.37,-872.92 772.11,-863.22 769.39,-873.45 776.37,-872.92"/>
</g>
<!-- Node64 -->
<g id="node46" class="node">
<title>Node64</title>
<g id="a_node46"><a xlink:href="class_c_p_s_1_1_s_p_1_1_ph1_1_1_p_v_node.html" target="_top" xlink:title=" ">
<polygon fill="none" stroke="black" points="990,-1477.5 990,-1496.5 1112,-1496.5 1112,-1477.5 990,-1477.5"/>
<text text-anchor="middle" x="1051" y="-1484.5" font-family="Helvetica" font-size="10.00">CPS::SP::Ph1::PVNode</text>
</a>
</g>
</g>
<!-- Node24&#45;&gt;Node64 -->
<g id="edge46" class="edge">
<title>Node24&#45;&gt;Node64</title>
<path fill="none" stroke="midnightblue" d="M773.28,-873.28C782.4,-970.13 818.48,-1316.68 876,-1409 899.17,-1446.19 914.98,-1450.15 955,-1468 965.91,-1472.86 978.07,-1476.49 989.96,-1479.19"/>
<polygon fill="midnightblue" stroke="midnightblue" points="776.76,-872.86 772.35,-863.22 769.79,-873.51 776.76,-872.86"/>
</g>
<!-- Node65 -->
<g id="node47" class="node">
<title>Node65</title>
<g id="a_node47"><a xlink:href="class_c_p_s_1_1_s_p_1_1_ph1_1_1_pi_line.html" target="_top" xlink:title="PI&#45;line static phasor model.">
<polygon fill="none" stroke="black" points="994.5,-1439.5 994.5,-1458.5 1107.5,-1458.5 1107.5,-1439.5 994.5,-1439.5"/>
<text text-anchor="middle" x="1051" y="-1446.5" font-family="Helvetica" font-size="10.00">CPS::SP::Ph1::PiLine</text>
</a>
</g>
</g>
<!-- Node24&#45;&gt;Node65 -->
<g id="edge47" class="edge">
<title>Node24&#45;&gt;Node65</title>
<path fill="none" stroke="midnightblue" d="M773.75,-873.15C784.17,-965.16 823.3,-1282.49 876,-1368 899.42,-1406 914.46,-1411.34 955,-1430 967.22,-1435.63 981.08,-1439.59 994.37,-1442.38"/>
<polygon fill="midnightblue" stroke="midnightblue" points="777.22,-872.63 772.63,-863.08 770.26,-873.41 777.22,-872.63"/>
</g>
<!-- Node66 -->
<g id="node48" class="node">
<title>Node66</title>
<g id="a_node48"><a xlink:href="class_c_p_s_1_1_s_p_1_1_ph1_1_1_r_x_line.html" target="_top" xlink:title=" ">
<polygon fill="none" stroke="black" points="991.5,-1401.5 991.5,-1420.5 1110.5,-1420.5 1110.5,-1401.5 991.5,-1401.5"/>
<text text-anchor="middle" x="1051" y="-1408.5" font-family="Helvetica" font-size="10.00">CPS::SP::Ph1::RXLine</text>
</a>
</g>
</g>
<!-- Node24&#45;&gt;Node66 -->
<g id="edge48" class="edge">
<title>Node24&#45;&gt;Node66</title>
<path fill="none" stroke="midnightblue" d="M770.93,-873.79C771.85,-949.21 782.76,-1173.67 876,-1326 899.74,-1364.78 914.02,-1371.31 955,-1391 966.24,-1396.4 978.92,-1400.35 991.27,-1403.24"/>
<polygon fill="midnightblue" stroke="midnightblue" points="774.42,-873.36 770.85,-863.38 767.42,-873.4 774.42,-873.36"/>
</g>
<!-- Node82&#45;&gt;Node18 -->
<g id="edge50" class="edge">
<title>Node82&#45;&gt;Node18</title>
<path fill="none" stroke="midnightblue" d="M840.37,-1663.5C877.42,-1663.24 923.39,-1662.91 962.83,-1662.62"/>
<polygon fill="midnightblue" stroke="midnightblue" points="840.14,-1660 830.17,-1663.58 840.19,-1667 840.14,-1660"/>
</g>
</g>
</svg>
