<?xml version="1.0" encoding="UTF-8" standalone="no"?>
<!DOCTYPE svg PUBLIC "-//W3C//DTD SVG 1.1//EN"
 "http://www.w3.org/Graphics/SVG/1.1/DTD/svg11.dtd">
<!-- Generated by graphviz version 12.2.1 (20241206.2353)
 -->
<!-- Title: CPS::SimNode&lt; VarType &gt; Pages: 1 -->
<!--zoomable 357 -->

<svg id="main" version="1.1" xmlns="http://www.w3.org/2000/svg" xmlns:xlink="http://www.w3.org/1999/xlink" xml:space="preserve" onload="init(evt)">

<style type="text/css"><![CDATA[
.node, .edge {opacity: 0.7;}
.node.selected, .edge.selected {opacity: 1;}
.edge:hover path { stroke: red; }
.edge:hover polygon { stroke: red; fill: red; }
]]></style>

<defs>
  <circle id="rim" cx="0" cy="0" r="7"/>
  <circle id="rim2" cx="0" cy="0" r="3.5"/>
  <g id="zoomPlus">
    <use xlink:href="#rim" fill="#404040"><set attributeName="fill" to="#808080" begin="zoomplus.mouseover" end="zoomplus.mouseout"/></use>
    <path d="M-4,0h8M0,-4v8" fill="none" stroke="white" stroke-width="1.5" pointer-events="none"/>
  </g>
  <g id="zoomMin">
    <use xlink:href="#rim" fill="#404040"><set attributeName="fill" to="#808080" begin="zoomminus.mouseover" end="zoomminus.mouseout"/></use>
    <path d="M-4,0h8" fill="none" stroke="white" stroke-width="1.5" pointer-events="none"/>
  </g>
  <g id="arrowUp" transform="translate(30 24)">
    <use xlink:href="#rim"/>
    <path pointer-events="none" fill="none" stroke="white" stroke-width="1.5" d="M0,-3.0v7 M-2.5,-0.5L0,-3.0L2.5,-0.5"/>
  </g>
  <g id="arrowRight" transform="rotate(90) translate(36 -43)">
    <use xlink:href="#rim"/>
    <path pointer-events="none" fill="none" stroke="white" stroke-width="1.5" d="M0,-3.0v7 M-2.5,-0.5L0,-3.0L2.5,-0.5"/>
  </g>
  <g id="arrowDown" transform="rotate(180) translate(-30 -48)">
    <use xlink:href="#rim"/>
    <path pointer-events="none" fill="none" stroke="white" stroke-width="1.5" d="M0,-3.0v7 M-2.5,-0.5L0,-3.0L2.5,-0.5"/>
  </g>
  <g id="arrowLeft" transform="rotate(270) translate(-36 17)">
    <use xlink:href="#rim"/>
    <path pointer-events="none" fill="none" stroke="white" stroke-width="1.5" d="M0,-3.0v7 M-2.5,-0.5L0,-3.0L2.5,-0.5"/>
  </g>
  <g id="resetDef">
    <use xlink:href="#rim2" fill="#404040"><set attributeName="fill" to="#808080" begin="reset.mouseover" end="reset.mouseout"/></use>
  </g>
</defs>
<script type="application/ecmascript">
var viewWidth = 1260;
var viewHeight = 357;
var sectionId = 'dynsection-1';
</script>
<script type="application/ecmascript" xlink:href="svg.min.js"/>
<svg id="graph" class="graph">
<g id="viewport">
<title>CPS::SimNode&lt; VarType &gt;</title>
<!-- Node1 -->
<g id="Node000001" class="node">
<title>Node1</title>
<g id="a_Node000001"><a xlink:title=" ">
<polygon fill="#999999" stroke="#666666" points="1251.5,-202.5 1115.5,-202.5 1115.5,-180.25 1251.5,-180.25 1251.5,-202.5"/>
<text text-anchor="middle" x="1183.5" y="-189" font-family="Helvetica,sans-Serif" font-size="10.00">CPS::SimNode&lt; VarType &gt;</text>
</a>
</g>
</g>
<!-- Node2 -->
<g id="Node000002" class="node">
<title>Node2</title>
<g id="a_Node000002"><a xlink:href="class_c_p_s_1_1_topological_node.html" target="_top" xlink:title=" ">
<polygon fill="white" stroke="#bfbfbf" points="1069.88,-161.5 954.12,-161.5 954.12,-139.25 1069.88,-139.25 1069.88,-161.5"/>
<text text-anchor="middle" x="1012" y="-148" font-family="Helvetica,sans-Serif" font-size="10.00">CPS::TopologicalNode</text>
</a>
</g>
</g>
<!-- Node2&#45;&gt;Node1 -->
<g id="edge1_Node000001_Node000002" class="edge">
<title>Node2&#45;&gt;Node1</title>
<g id="a_edge1_Node000001_Node000002"><a xlink:title=" ">
<path fill="none" stroke="#63b8ff" d="M1071.8,-164.6C1092.32,-169.56 1115.08,-175.07 1134.6,-179.79"/>
<polygon fill="#63b8ff" stroke="#63b8ff" points="1072.68,-161.21 1062.14,-162.26 1071.03,-168.01 1072.68,-161.21"/>
</a>
</g>
</g>
<!-- Node3 -->
<g id="Node000003" class="node">
<title>Node3</title>
<g id="a_Node000003"><a xlink:href="class_c_p_s_1_1_identified_object.html" target="_top" xlink:title=" ">
<polygon fill="white" stroke="#666666" points="794,-137.5 679,-137.5 679,-115.25 794,-115.25 794,-137.5"/>
<text text-anchor="middle" x="736.5" y="-124" font-family="Helvetica,sans-Serif" font-size="10.00">CPS::IdentifiedObject</text>
</a>
</g>
</g>
<!-- Node3&#45;&gt;Node2 -->
<g id="edge2_Node000002_Node000003" class="edge">
<title>Node3&#45;&gt;Node2</title>
<g id="a_edge2_Node000002_Node000003"><a xlink:title=" ">
<path fill="none" stroke="#63b8ff" d="M805.47,-132.34C851.16,-136.35 910.71,-141.57 953.93,-145.37"/>
<polygon fill="#63b8ff" stroke="#63b8ff" points="805.94,-128.87 795.68,-131.48 805.33,-135.84 805.94,-128.87"/>
</a>
</g>
</g>
<!-- Node4 -->
<g id="Node000004" class="node">
<title>Node4</title>
<g id="a_Node000004"><a xlink:href="class_c_p_s_1_1_attribute.html" target="_top" xlink:title=" ">
<polygon fill="white" stroke="#666666" points="589.38,-101.5 463.12,-101.5 463.12,-79.25 589.38,-79.25 589.38,-101.5"/>
<text text-anchor="middle" x="526.25" y="-88" font-family="Helvetica,sans-Serif" font-size="10.00">CPS::Attribute&lt; String &gt;</text>
</a>
</g>
</g>
<!-- Node4&#45;&gt;Node3 -->
<g id="edge3_Node000003_Node000004" class="edge">
<title>Node4&#45;&gt;Node3</title>
<g id="a_edge3_Node000003_Node000004"><a xlink:title=" ">
<path fill="none" stroke="#9a32cd" stroke-dasharray="5,2" d="M600.89,-103.1C626.47,-107.53 654.74,-112.41 678.74,-116.56"/>
<polygon fill="#9a32cd" stroke="#9a32cd" points="601.67,-99.69 591.22,-101.43 600.48,-106.59 601.67,-99.69"/>
</a>
</g>
<text text-anchor="middle" x="641.5" y="-131.66" font-family="Helvetica,sans-Serif" font-size="10.00" fill="grey"> mName</text>
<text text-anchor="middle" x="641.5" y="-117.41" font-family="Helvetica,sans-Serif" font-size="10.00" fill="grey">mUID</text>
</g>
<!-- Node5 -->
<g id="Node000005" class="node">
<title>Node5</title>
<g id="a_Node000005"><a xlink:href="class_c_p_s_1_1_attribute_base.html" target="_top" xlink:title=" ">
<polygon fill="white" stroke="#666666" points="109.75,-230.5 5.25,-230.5 5.25,-208.25 109.75,-208.25 109.75,-230.5"/>
<text text-anchor="middle" x="57.5" y="-217" font-family="Helvetica,sans-Serif" font-size="10.00">CPS::AttributeBase</text>
</a>
</g>
</g>
<!-- Node5&#45;&gt;Node4 -->
<g id="edge4_Node000004_Node000005" class="edge">
<title>Node5&#45;&gt;Node4</title>
<g id="a_edge4_Node000004_Node000005"><a xlink:title=" ">
<path fill="none" stroke="#63b8ff" d="M67.77,-197.56C81.42,-168.59 109.95,-118.62 152,-97.38 204.64,-70.78 371.09,-78.46 462.91,-85.12"/>
<polygon fill="#63b8ff" stroke="#63b8ff" points="64.67,-195.94 63.75,-206.49 71.05,-198.81 64.67,-195.94"/>
</a>
</g>
</g>
<!-- Node7 -->
<g id="Node000007" class="node">
<title>Node7</title>
<g id="a_Node000007"><a xlink:href="class_c_p_s_1_1_attribute.html" target="_top" xlink:title=" ">
<polygon fill="white" stroke="#666666" points="274.5,-197.5 170.75,-197.5 170.75,-175.25 274.5,-175.25 274.5,-197.5"/>
<text text-anchor="middle" x="222.62" y="-184" font-family="Helvetica,sans-Serif" font-size="10.00">CPS::Attribute&lt; T &gt;</text>
</a>
</g>
</g>
<!-- Node5&#45;&gt;Node7 -->
<g id="edge7_Node000007_Node000005" class="edge">
<title>Node5&#45;&gt;Node7</title>
<g id="a_edge7_Node000007_Node000005"><a xlink:title=" ">
<path fill="none" stroke="#63b8ff" d="M121.17,-206.7C137.43,-203.41 154.75,-199.9 170.35,-196.75"/>
<polygon fill="#63b8ff" stroke="#63b8ff" points="120.7,-203.22 111.6,-208.63 122.09,-210.08 120.7,-203.22"/>
</a>
</g>
</g>
<!-- Node9 -->
<g id="Node000009" class="node">
<title>Node9</title>
<g id="a_Node000009"><a xlink:href="class_c_p_s_1_1_attribute.html" target="_top" xlink:title=" ">
<polygon fill="white" stroke="#666666" points="604,-184.5 448.5,-184.5 448.5,-162.25 604,-162.25 604,-184.5"/>
<text text-anchor="middle" x="526.25" y="-171" font-family="Helvetica,sans-Serif" font-size="10.00">CPS::Attribute&lt; MatrixComp &gt;</text>
</a>
</g>
</g>
<!-- Node5&#45;&gt;Node9 -->
<g id="edge10_Node000009_Node000005" class="edge">
<title>Node5&#45;&gt;Node9</title>
<g id="a_edge10_Node000009_Node000005"><a xlink:title=" ">
<path fill="none" stroke="#63b8ff" d="M121.14,-230.32C196.04,-241.14 324.57,-252.53 430.5,-225.38 461.04,-217.55 492.3,-197.6 510.18,-184.81"/>
<polygon fill="#63b8ff" stroke="#63b8ff" points="121.95,-226.9 111.54,-228.88 120.91,-233.82 121.95,-226.9"/>
</a>
</g>
</g>
<!-- Node14 -->
<g id="Node000014" class="node">
<title>Node14</title>
<g id="a_Node000014"><a xlink:href="class_c_p_s_1_1_attribute.html" target="_top" xlink:title=" ">
<polygon fill="white" stroke="#666666" points="594.25,-280.62 458.25,-280.62 458.25,-244.12 594.25,-244.12 594.25,-280.62"/>
<text text-anchor="start" x="466.25" y="-267.12" font-family="Helvetica,sans-Serif" font-size="10.00">CPS::Attribute&lt; MatrixVar</text>
<text text-anchor="middle" x="526.25" y="-252.88" font-family="Helvetica,sans-Serif" font-size="10.00">&lt; VarType &gt; &gt;</text>
</a>
</g>
</g>
<!-- Node5&#45;&gt;Node14 -->
<g id="edge17_Node000014_Node000005" class="edge">
<title>Node5&#45;&gt;Node14</title>
<g id="a_edge17_Node000014_Node000005"><a xlink:title=" ">
<path fill="none" stroke="#63b8ff" d="M94.64,-235C106.63,-239.49 120.18,-243.85 133,-246.38 245.35,-268.48 379.17,-268.46 457.89,-265.84"/>
<polygon fill="#63b8ff" stroke="#63b8ff" points="96.14,-231.82 85.55,-231.43 93.59,-238.34 96.14,-231.82"/>
</a>
</g>
</g>
<!-- Node6 -->
<g id="Node000006" class="node">
<title>Node6</title>
<g id="a_Node000006"><a xlink:title=" ">
<polygon fill="white" stroke="#bfbfbf" points="280.12,-50.75 165.12,-50.75 165.12,0 280.12,0 280.12,-50.75"/>
<text text-anchor="start" x="173.12" y="-37.25" font-family="Helvetica,sans-Serif" font-size="10.00">std::enable_shared</text>
<text text-anchor="start" x="173.12" y="-23" font-family="Helvetica,sans-Serif" font-size="10.00">_from_this&lt; Attribute</text>
<text text-anchor="middle" x="222.62" y="-8.75" font-family="Helvetica,sans-Serif" font-size="10.00">&lt; String &gt; &gt;</text>
</a>
</g>
</g>
<!-- Node6&#45;&gt;Node4 -->
<g id="edge5_Node000004_Node000006" class="edge">
<title>Node6&#45;&gt;Node4</title>
<g id="a_edge5_Node000004_Node000006"><a xlink:title=" ">
<path fill="none" stroke="#63b8ff" d="M291.61,-36.75C332.12,-43.89 384.44,-53.73 430.5,-64.38 448.78,-68.6 468.85,-73.99 485.79,-78.77"/>
<polygon fill="#63b8ff" stroke="#63b8ff" points="292.46,-33.35 282.01,-35.07 291.26,-40.24 292.46,-33.35"/>
</a>
</g>
</g>
<!-- Node7&#45;&gt;Node4 -->
<g id="edge6_Node000004_Node000007" class="edge">
<title>Node7&#45;&gt;Node4</title>
<g id="a_edge6_Node000004_Node000007"><a xlink:title=" ">
<path fill="none" stroke="orange" stroke-dasharray="5,2" d="M280.01,-171C284.55,-169.27 289.02,-167.39 293.25,-165.38 301.98,-161.21 302.5,-157.26 311.25,-153.12 362.18,-129.06 424.35,-112.08 468.53,-101.9"/>
<polygon fill="orange" stroke="orange" points="279.01,-167.64 270.75,-174.27 281.35,-174.24 279.01,-167.64"/>
</a>
</g>
<text text-anchor="middle" x="370.88" y="-157.88" font-family="Helvetica,sans-Serif" font-size="10.00" fill="grey"> &lt; String &gt;</text>
</g>
<!-- Node7&#45;&gt;Node9 -->
<g id="edge12_Node000009_Node000007" class="edge">
<title>Node7&#45;&gt;Node9</title>
<g id="a_edge12_Node000009_Node000007"><a xlink:title=" ">
<path fill="none" stroke="orange" stroke-dasharray="5,2" d="M286.25,-176.57C294.64,-175.57 303.14,-174.7 311.25,-174.12 356.65,-170.89 407.6,-170.58 448.39,-171.13"/>
<polygon fill="orange" stroke="orange" points="285.91,-173.09 276.43,-177.83 286.8,-180.03 285.91,-173.09"/>
</a>
</g>
<text text-anchor="middle" x="370.88" y="-178.88" font-family="Helvetica,sans-Serif" font-size="10.00" fill="grey"> &lt; MatrixComp &gt;</text>
</g>
<!-- Node7&#45;&gt;Node14 -->
<g id="edge19_Node000014_Node000007" class="edge">
<title>Node7&#45;&gt;Node14</title>
<g id="a_edge19_Node000014_Node000007"><a xlink:title=" ">
<path fill="none" stroke="orange" stroke-dasharray="5,2" d="M280.46,-200.7C330.89,-213.4 404.63,-231.98 457.98,-245.43"/>
<polygon fill="orange" stroke="orange" points="281.46,-197.34 270.9,-198.29 279.74,-204.12 281.46,-197.34"/>
</a>
</g>
<text text-anchor="middle" x="370.88" y="-242.54" font-family="Helvetica,sans-Serif" font-size="10.00" fill="grey"> &lt; MatrixVar&lt; VarType &gt; &gt;</text>
</g>
<!-- Node8 -->
<g id="Node000008" class="node">
<title>Node8</title>
<g id="a_Node000008"><a xlink:title=" ">
<polygon fill="white" stroke="#bfbfbf" points="115,-78.75 0,-78.75 0,-28 115,-28 115,-78.75"/>
<text text-anchor="start" x="8" y="-65.25" font-family="Helvetica,sans-Serif" font-size="10.00">std::enable_shared</text>
<text text-anchor="start" x="8" y="-51" font-family="Helvetica,sans-Serif" font-size="10.00">_from_this&lt; Attribute</text>
<text text-anchor="middle" x="57.5" y="-36.75" font-family="Helvetica,sans-Serif" font-size="10.00">&lt; T &gt; &gt;</text>
</a>
</g>
</g>
<!-- Node8&#45;&gt;Node7 -->
<g id="edge8_Node000007_Node000008" class="edge">
<title>Node8&#45;&gt;Node7</title>
<g id="a_edge8_Node000007_Node000008"><a xlink:title=" ">
<path fill="none" stroke="#63b8ff" d="M79.71,-88.36C96.46,-113.19 121.97,-145.52 152,-165.38 157.69,-169.13 164.07,-172.24 170.61,-174.81"/>
<polygon fill="#63b8ff" stroke="#63b8ff" points="82.76,-86.62 74.35,-80.17 76.9,-90.46 82.76,-86.62"/>
</a>
</g>
</g>
<!-- Node9&#45;&gt;Node2 -->
<g id="edge9_Node000002_Node000009" class="edge">
<title>Node9&#45;&gt;Node2</title>
<g id="a_edge9_Node000002_Node000009"><a xlink:title=" ">
<path fill="none" stroke="#9a32cd" stroke-dasharray="5,2" d="M615.85,-169.16C714.27,-164.48 870.27,-157.07 953.78,-153.1"/>
<polygon fill="#9a32cd" stroke="#9a32cd" points="615.77,-165.66 605.95,-169.63 616.1,-172.65 615.77,-165.66"/>
</a>
</g>
<text text-anchor="middle" x="736.5" y="-170.76" font-family="Helvetica,sans-Serif" font-size="10.00" fill="grey"> mInitialVoltage</text>
</g>
<!-- Node10 -->
<g id="Node000010" class="node">
<title>Node10</title>
<g id="a_Node000010"><a xlink:title=" ">
<polygon fill="white" stroke="#bfbfbf" points="280.12,-156.75 165.12,-156.75 165.12,-106 280.12,-106 280.12,-156.75"/>
<text text-anchor="start" x="173.12" y="-143.25" font-family="Helvetica,sans-Serif" font-size="10.00">std::enable_shared</text>
<text text-anchor="start" x="173.12" y="-129" font-family="Helvetica,sans-Serif" font-size="10.00">_from_this&lt; Attribute</text>
<text text-anchor="middle" x="222.62" y="-114.75" font-family="Helvetica,sans-Serif" font-size="10.00">&lt; MatrixComp &gt; &gt;</text>
</a>
</g>
</g>
<!-- Node10&#45;&gt;Node9 -->
<g id="edge11_Node000009_Node000010" class="edge">
<title>Node10&#45;&gt;Node9</title>
<g id="a_edge11_Node000009_Node000010"><a xlink:title=" ">
<path fill="none" stroke="#63b8ff" d="M291.59,-115.61C332.51,-108.85 385.27,-105.01 430.5,-117.38 462.02,-125.99 493.71,-148.08 511.27,-161.8"/>
<polygon fill="#63b8ff" stroke="#63b8ff" points="291.12,-112.14 281.87,-117.32 292.33,-119.03 291.12,-112.14"/>
</a>
</g>
</g>
<!-- Node11 -->
<g id="Node000011" class="node">
<title>Node11</title>
<g id="a_Node000011"><a xlink:title=" ">
<polygon fill="white" stroke="#bfbfbf" points="1069.12,-230.75 954.88,-230.75 954.88,-180 1069.12,-180 1069.12,-230.75"/>
<text text-anchor="start" x="962.88" y="-217.25" font-family="Helvetica,sans-Serif" font-size="10.00">std::enable_shared</text>
<text text-anchor="start" x="962.88" y="-203" font-family="Helvetica,sans-Serif" font-size="10.00">_from_this&lt; SimNode</text>
<text text-anchor="middle" x="1012" y="-188.75" font-family="Helvetica,sans-Serif" font-size="10.00">&lt; VarType &gt; &gt;</text>
</a>
</g>
</g>
<!-- Node11&#45;&gt;Node1 -->
<g id="edge13_Node000001_Node000011" class="edge">
<title>Node11&#45;&gt;Node1</title>
<g id="a_edge13_Node000001_Node000011"><a xlink:title=" ">
<path fill="none" stroke="#63b8ff" d="M1080.63,-199.79C1091.99,-198.85 1103.78,-197.88 1115.13,-196.94"/>
<polygon fill="#63b8ff" stroke="#63b8ff" points="1080.63,-196.28 1070.95,-200.59 1081.2,-203.25 1080.63,-196.28"/>
</a>
</g>
</g>
<!-- Node12 -->
<g id="Node000012" class="node">
<title>Node12</title>
<g id="a_Node000012"><a xlink:href="class_shared_factory.html" target="_top" xlink:title=" ">
<polygon fill="white" stroke="#666666" points="1078.5,-115.62 945.5,-115.62 945.5,-79.12 1078.5,-79.12 1078.5,-115.62"/>
<text text-anchor="start" x="953.5" y="-102.12" font-family="Helvetica,sans-Serif" font-size="10.00">SharedFactory&lt; SimNode</text>
<text text-anchor="middle" x="1012" y="-87.88" font-family="Helvetica,sans-Serif" font-size="10.00">&lt; VarType &gt; &gt;</text>
</a>
</g>
</g>
<!-- Node12&#45;&gt;Node1 -->
<g id="edge14_Node000001_Node000012" class="edge">
<title>Node12&#45;&gt;Node1</title>
<g id="a_edge14_Node000001_Node000012"><a xlink:title=" ">
<path fill="none" stroke="#63b8ff" d="M1060.9,-121.07C1066.86,-124.14 1072.84,-127.29 1078.5,-130.38 1108.65,-146.79 1142.85,-167.21 1163.54,-179.76"/>
<polygon fill="#63b8ff" stroke="#63b8ff" points="1062.81,-118.11 1052.31,-116.68 1059.63,-124.34 1062.81,-118.11"/>
</a>
</g>
</g>
<!-- Node13 -->
<g id="Node000013" class="node">
<title>Node13</title>
<g id="a_Node000013"><a xlink:href="class_shared_factory.html" target="_top" xlink:title=" ">
<polygon fill="white" stroke="#666666" points="788.75,-97.5 684.25,-97.5 684.25,-75.25 788.75,-75.25 788.75,-97.5"/>
<text text-anchor="middle" x="736.5" y="-84" font-family="Helvetica,sans-Serif" font-size="10.00">SharedFactory&lt; T &gt;</text>
</a>
</g>
</g>
<!-- Node13&#45;&gt;Node12 -->
<g id="edge15_Node000012_Node000013" class="edge">
<title>Node13&#45;&gt;Node12</title>
<g id="a_edge15_Node000012_Node000013"><a xlink:title=" ">
<path fill="none" stroke="orange" stroke-dasharray="5,2" d="M800.19,-88.9C843.51,-90.64 901.01,-92.95 945.02,-94.72"/>
<polygon fill="orange" stroke="orange" points="800.59,-85.41 790.46,-88.5 800.31,-92.4 800.59,-85.41"/>
</a>
</g>
<text text-anchor="middle" x="869.75" y="-98.57" font-family="Helvetica,sans-Serif" font-size="10.00" fill="grey"> &lt; SimNode&lt; VarType &gt; &gt;</text>
</g>
<!-- Node14&#45;&gt;Node1 -->
<g id="edge16_Node000001_Node000014" class="edge">
<title>Node14&#45;&gt;Node1</title>
<g id="a_edge16_Node000001_Node000014"><a xlink:title=" ">
<path fill="none" stroke="#9a32cd" stroke-dasharray="5,2" d="M606.05,-268.58C714.25,-274.96 914.1,-279.09 1078.5,-239.38 1109.81,-231.81 1143.14,-214.6 1163.4,-202.98"/>
<polygon fill="#9a32cd" stroke="#9a32cd" points="606.3,-265.09 596.11,-267.97 605.87,-272.07 606.3,-265.09"/>
</a>
</g>
<text text-anchor="middle" x="869.75" y="-290.5" font-family="Helvetica,sans-Serif" font-size="10.00" fill="grey"> mApparentPower</text>
<text text-anchor="middle" x="869.75" y="-276.25" font-family="Helvetica,sans-Serif" font-size="10.00" fill="grey">mVoltage</text>
</g>
<!-- Node15 -->
<g id="Node000015" class="node">
<title>Node15</title>
<g id="a_Node000015"><a xlink:title=" ">
<polygon fill="white" stroke="#bfbfbf" points="293.25,-348.75 152,-348.75 152,-298 293.25,-298 293.25,-348.75"/>
<text text-anchor="start" x="160" y="-335.25" font-family="Helvetica,sans-Serif" font-size="10.00">std::enable_shared</text>
<text text-anchor="start" x="160" y="-321" font-family="Helvetica,sans-Serif" font-size="10.00">_from_this&lt; Attribute</text>
<text text-anchor="middle" x="222.62" y="-306.75" font-family="Helvetica,sans-Serif" font-size="10.00">&lt; MatrixVar&lt; VarType &gt; &gt; &gt;</text>
</a>
</g>
</g>
<!-- Node15&#45;&gt;Node14 -->
<g id="edge18_Node000014_Node000015" class="edge">
<title>Node15&#45;&gt;Node14</title>
<g id="a_edge18_Node000014_Node000015"><a xlink:title=" ">
<path fill="none" stroke="#63b8ff" d="M304.75,-308.89C342.97,-301.86 389.16,-293.07 430.5,-284.38 439.34,-282.52 448.63,-280.47 457.78,-278.4"/>
<polygon fill="#63b8ff" stroke="#63b8ff" points="304.37,-305.4 295.16,-310.65 305.63,-312.29 304.37,-305.4"/>
</a>
</g>
</g>
</g>
</svg>

<g id="navigator" transform="translate(0 0)" fill="#404254">
  <rect fill="#f2f5e9" fill-opacity="0.5" stroke="#606060" stroke-width=".5" x="0" y="0" width="60" height="60"/>
  <use id="zoomplus" xlink:href="#zoomPlus" x="17" y="9" onmousedown="handleZoom(evt,'in')"/>
  <use id="zoomminus" xlink:href="#zoomMin" x="42" y="9" onmousedown="handleZoom(evt,'out')"/>
  <use id="reset" xlink:href="#resetDef" x="30" y="36" onmousedown="handleReset()"/>
   <use id="arrowup" xlink:href="#arrowUp" x="0" y="0" onmousedown="handlePan(0,-1)"/>
  <use id="arrowright" xlink:href="#arrowRight" x="0" y="0" onmousedown="handlePan(1,0)"/>
  <use id="arrowdown" xlink:href="#arrowDown" x="0" y="0" onmousedown="handlePan(0,1)"/>
  <use id="arrowleft" xlink:href="#arrowLeft" x="0" y="0" onmousedown="handlePan(-1,0)"/>
</g>
<svg viewBox="0 0 15 15" width="100%" height="30px" preserveAspectRatio="xMaxYMin meet">
 <g id="arrow_out" transform="scale(0.3 0.3)">
  <a xlink:href="class_c_p_s_1_1_sim_node__coll__graph_org.svg" target="_base">
   <rect id="button" ry="5" rx="5" y="6" x="6" height="38" width="38"
        fill="#f2f5e9" fill-opacity="0.5" stroke="#606060" stroke-width="1.0"/>
   <path id="arrow"
     d="M 11.500037,31.436501 C 11.940474,20.09759 22.043105,11.32322 32.158766,21.979434 L 37.068811,17.246167 C 37.068811,17.246167 37.088388,32 37.088388,32 L 22.160133,31.978069 C 22.160133,31.978069 26.997745,27.140456 26.997745,27.140456 C 18.528582,18.264221 13.291696,25.230495 11.500037,31.436501 z"
     style="fill:#404040;"/>
  </a>
 </g>
</svg>

<style type='text/css'>
<![CDATA[
[data-mouse-over-selected='false'] { opacity: 0.7; }
[data-mouse-over-selected='true']  { opacity: 1.0; }
]]>
</style>
<script type="application/ecmascript"><![CDATA[
document.addEventListener('DOMContentLoaded', (event) => {
  highlightEdges();
  highlightAdjacentNodes();
});
]]></script>
</svg>
