<?xml version="1.0" encoding="UTF-8" standalone="no"?>
<!DOCTYPE svg PUBLIC "-//W3C//DTD SVG 1.1//EN"
 "http://www.w3.org/Graphics/SVG/1.1/DTD/svg11.dtd">
<!-- Generated by graphviz version 2.44.0 (0)
 -->
<!-- Title: CPS::PFSolverInterfaceBranch Pages: 1 -->
<svg width="334pt" height="218pt"
 viewBox="0.00 0.00 334.00 218.00" xmlns="http://www.w3.org/2000/svg" xmlns:xlink="http://www.w3.org/1999/xlink">
<g id="graph0" class="graph" transform="scale(1 1) rotate(0) translate(4 214)">
<title>CPS::PFSolverInterfaceBranch</title>
<!-- Node1 -->
<g id="node1" class="node">
<title>Node1</title>
<g id="a_node1"><a xlink:title="Common base class of all Component templates.">
<polygon fill="#bfbfbf" stroke="black" points="0,-95.5 0,-114.5 152,-114.5 152,-95.5 0,-95.5"/>
<text text-anchor="middle" x="76" y="-102.5" font-family="Helvetica" font-size="10.00">CPS::PFSolverInterfaceBranch</text>
</a>
</g>
</g>
<!-- Node2 -->
<g id="node2" class="node">
<title>Node2</title>
<g id="a_node2"><a xlink:href="class_c_p_s_1_1_s_p_1_1_ph1_1_1_capacitor.html" target="_top" xlink:title=" ">
<polygon fill="none" stroke="black" points="193,-190.5 193,-209.5 321,-209.5 321,-190.5 193,-190.5"/>
<text text-anchor="middle" x="257" y="-197.5" font-family="Helvetica" font-size="10.00">CPS::SP::Ph1::Capacitor</text>
</a>
</g>
</g>
<!-- Node1&#45;&gt;Node2 -->
<g id="edge1" class="edge">
<title>Node1&#45;&gt;Node2</title>
<path fill="none" stroke="midnightblue" d="M96.12,-121.01C117.34,-138.06 153.21,-164.77 188,-181 196,-184.73 204.88,-187.87 213.51,-190.44"/>
<polygon fill="midnightblue" stroke="midnightblue" points="98.18,-118.17 88.22,-114.56 93.75,-123.6 98.18,-118.17"/>
</g>
<!-- Node3 -->
<g id="node3" class="node">
<title>Node3</title>
<g id="a_node3"><a xlink:href="class_c_p_s_1_1_s_p_1_1_ph1_1_1_pi_line.html" target="_top" xlink:title="PI&#45;line static phasor model.">
<polygon fill="none" stroke="black" points="200.5,-152.5 200.5,-171.5 313.5,-171.5 313.5,-152.5 200.5,-152.5"/>
<text text-anchor="middle" x="257" y="-159.5" font-family="Helvetica" font-size="10.00">CPS::SP::Ph1::PiLine</text>
</a>
</g>
</g>
<!-- Node1&#45;&gt;Node3 -->
<g id="edge2" class="edge">
<title>Node1&#45;&gt;Node3</title>
<path fill="none" stroke="midnightblue" d="M113.22,-117.99C134.83,-125.59 162.87,-135.19 188,-143 198.42,-146.24 209.81,-149.52 220.24,-152.42"/>
<polygon fill="midnightblue" stroke="midnightblue" points="114.37,-114.68 103.77,-114.65 112.04,-121.28 114.37,-114.68"/>
</g>
<!-- Node4 -->
<g id="node4" class="node">
<title>Node4</title>
<g id="a_node4"><a xlink:href="class_c_p_s_1_1_s_p_1_1_ph1_1_1_r_x_line.html" target="_top" xlink:title=" ">
<polygon fill="none" stroke="black" points="197.5,-114.5 197.5,-133.5 316.5,-133.5 316.5,-114.5 197.5,-114.5"/>
<text text-anchor="middle" x="257" y="-121.5" font-family="Helvetica" font-size="10.00">CPS::SP::Ph1::RXLine</text>
</a>
</g>
</g>
<!-- Node1&#45;&gt;Node4 -->
<g id="edge3" class="edge">
<title>Node1&#45;&gt;Node4</title>
<path fill="none" stroke="midnightblue" d="M162.12,-114.03C174.05,-115.3 186.09,-116.58 197.38,-117.78"/>
<polygon fill="midnightblue" stroke="midnightblue" points="162.45,-110.55 152.13,-112.98 161.71,-117.51 162.45,-110.55"/>
</g>
<!-- Node5 -->
<g id="node5" class="node">
<title>Node5</title>
<g id="a_node5"><a xlink:href="class_c_p_s_1_1_s_p_1_1_ph1_1_1_resistor.html" target="_top" xlink:title="Static phasor resistor model.">
<polygon fill="none" stroke="black" points="196,-76.5 196,-95.5 318,-95.5 318,-76.5 196,-76.5"/>
<text text-anchor="middle" x="257" y="-83.5" font-family="Helvetica" font-size="10.00">CPS::SP::Ph1::Resistor</text>
</a>
</g>
</g>
<!-- Node1&#45;&gt;Node5 -->
<g id="edge4" class="edge">
<title>Node1&#45;&gt;Node5</title>
<path fill="none" stroke="midnightblue" d="M162.08,-95.97C173.45,-94.76 184.91,-93.55 195.73,-92.4"/>
<polygon fill="midnightblue" stroke="midnightblue" points="161.71,-92.49 152.13,-97.02 162.45,-99.45 161.71,-92.49"/>
</g>
<!-- Node6 -->
<g id="node6" class="node">
<title>Node6</title>
<g id="a_node6"><a xlink:href="class_c_p_s_1_1_s_p_1_1_ph1_1_1_shunt.html" target="_top" xlink:title=" ">
<polygon fill="none" stroke="black" points="201,-38.5 201,-57.5 313,-57.5 313,-38.5 201,-38.5"/>
<text text-anchor="middle" x="257" y="-45.5" font-family="Helvetica" font-size="10.00">CPS::SP::Ph1::Shunt</text>
</a>
</g>
</g>
<!-- Node1&#45;&gt;Node6 -->
<g id="edge5" class="edge">
<title>Node1&#45;&gt;Node6</title>
<path fill="none" stroke="midnightblue" d="M113.22,-92.01C134.83,-84.41 162.87,-74.81 188,-67 198.42,-63.76 209.81,-60.48 220.24,-57.58"/>
<polygon fill="midnightblue" stroke="midnightblue" points="112.04,-88.72 103.77,-95.35 114.37,-95.32 112.04,-88.72"/>
</g>
<!-- Node7 -->
<g id="node7" class="node">
<title>Node7</title>
<g id="a_node7"><a xlink:href="class_c_p_s_1_1_s_p_1_1_ph1_1_1_transformer.html" target="_top" xlink:title="Transformer that includes an inductance and resistance.">
<polygon fill="none" stroke="black" points="188,-0.5 188,-19.5 326,-19.5 326,-0.5 188,-0.5"/>
<text text-anchor="middle" x="257" y="-7.5" font-family="Helvetica" font-size="10.00">CPS::SP::Ph1::Transformer</text>
</a>
</g>
</g>
<!-- Node1&#45;&gt;Node7 -->
<g id="edge6" class="edge">
<title>Node1&#45;&gt;Node7</title>
<path fill="none" stroke="midnightblue" d="M96.12,-88.99C117.34,-71.94 153.21,-45.23 188,-29 196,-25.27 204.88,-22.13 213.51,-19.56"/>
<polygon fill="midnightblue" stroke="midnightblue" points="93.75,-86.4 88.22,-95.44 98.18,-91.83 93.75,-86.4"/>
</g>
</g>
</svg>
