<?xml version="1.0" encoding="UTF-8" standalone="no"?>
<!DOCTYPE svg PUBLIC "-//W3C//DTD SVG 1.1//EN"
 "http://www.w3.org/Graphics/SVG/1.1/DTD/svg11.dtd">
<!-- Generated by graphviz version 12.2.1 (20241206.2353)
 -->
<!-- Title: CPS::SP::Ph1::Shunt Pages: 1 -->
<svg width="2174pt" height="654pt"
 viewBox="0.00 0.00 2174.25 654.15" xmlns="http://www.w3.org/2000/svg" xmlns:xlink="http://www.w3.org/1999/xlink">
<g id="graph0" class="graph" transform="scale(1 1) rotate(0) translate(4 650.15)">
<title>CPS::SP::Ph1::Shunt</title>
<!-- Node1 -->
<g id="Node000001" class="node">
<title>Node1</title>
<g id="a_Node000001"><a xlink:title=" ">
<polygon fill="#999999" stroke="#666666" points="2166.25,-186.9 2058.75,-186.9 2058.75,-164.65 2166.25,-164.65 2166.25,-186.9"/>
<text text-anchor="middle" x="2112.5" y="-173.4" font-family="Helvetica,sans-Serif" font-size="10.00">CPS::SP::Ph1::Shunt</text>
</a>
</g>
</g>
<!-- Node2 -->
<g id="Node000002" class="node">
<title>Node2</title>
<g id="a_Node000002"><a xlink:href="class_c_p_s_1_1_sim_power_comp.html" target="_top" xlink:title=" ">
<polygon fill="white" stroke="#666666" points="2003.38,-225.02 1884.62,-225.02 1884.62,-188.52 2003.38,-188.52 2003.38,-225.02"/>
<text text-anchor="start" x="1892.62" y="-211.52" font-family="Helvetica,sans-Serif" font-size="10.00">CPS::SimPowerComp&lt;</text>
<text text-anchor="middle" x="1944" y="-197.27" font-family="Helvetica,sans-Serif" font-size="10.00"> Complex &gt;</text>
</a>
</g>
</g>
<!-- Node2&#45;&gt;Node1 -->
<g id="edge1_Node000001_Node000002" class="edge">
<title>Node2&#45;&gt;Node1</title>
<g id="a_edge1_Node000001_Node000002"><a xlink:title=" ">
<path fill="none" stroke="#63b8ff" d="M2014.71,-193.79C2029.3,-191.08 2044.46,-188.25 2058.33,-185.67"/>
<polygon fill="#63b8ff" stroke="#63b8ff" points="2014.38,-190.29 2005.19,-195.57 2015.66,-197.18 2014.38,-190.29"/>
</a>
</g>
</g>
<!-- Node3 -->
<g id="Node000003" class="node">
<title>Node3</title>
<g id="a_Node000003"><a xlink:href="class_c_p_s_1_1_topological_power_comp.html" target="_top" xlink:title=" ">
<polygon fill="white" stroke="#666666" points="1111.5,-448.9 964.25,-448.9 964.25,-426.65 1111.5,-426.65 1111.5,-448.9"/>
<text text-anchor="middle" x="1037.88" y="-435.4" font-family="Helvetica,sans-Serif" font-size="10.00">CPS::TopologicalPowerComp</text>
</a>
</g>
</g>
<!-- Node3&#45;&gt;Node2 -->
<g id="edge2_Node000002_Node000003" class="edge">
<title>Node3&#45;&gt;Node2</title>
<g id="a_edge2_Node000002_Node000003"><a xlink:title=" ">
<path fill="none" stroke="#63b8ff" d="M1123.19,-439.1C1232.53,-438.84 1428.3,-431.54 1589.25,-388.77 1721.08,-353.74 1860.05,-264.44 1916.68,-225.45"/>
<polygon fill="#63b8ff" stroke="#63b8ff" points="1123.43,-435.6 1113.43,-439.11 1123.43,-442.6 1123.43,-435.6"/>
</a>
</g>
</g>
<!-- Node29 -->
<g id="Node000029" class="node">
<title>Node29</title>
<g id="a_Node000029"><a xlink:href="class_c_p_s_1_1_sim_power_comp.html" target="_top" xlink:title="Base class for all components that are transmitting power.">
<polygon fill="white" stroke="#666666" points="1429.25,-488.02 1310.5,-488.02 1310.5,-451.52 1429.25,-451.52 1429.25,-488.02"/>
<text text-anchor="start" x="1318.5" y="-474.52" font-family="Helvetica,sans-Serif" font-size="10.00">CPS::SimPowerComp&lt;</text>
<text text-anchor="middle" x="1369.88" y="-460.27" font-family="Helvetica,sans-Serif" font-size="10.00"> VarType &gt;</text>
</a>
</g>
</g>
<!-- Node3&#45;&gt;Node29 -->
<g id="edge42_Node000029_Node000003" class="edge">
<title>Node3&#45;&gt;Node29</title>
<g id="a_edge42_Node000029_Node000003"><a xlink:title=" ">
<path fill="none" stroke="#63b8ff" d="M1123.16,-445.95C1181.71,-451.62 1258.26,-459.05 1310.24,-464.09"/>
<polygon fill="#63b8ff" stroke="#63b8ff" points="1123.5,-442.46 1113.21,-444.98 1122.83,-449.43 1123.5,-442.46"/>
</a>
</g>
</g>
<!-- Node4 -->
<g id="Node000004" class="node">
<title>Node4</title>
<g id="a_Node000004"><a xlink:href="class_c_p_s_1_1_identified_object.html" target="_top" xlink:title=" ">
<polygon fill="white" stroke="#666666" points="797,-248.9 682,-248.9 682,-226.65 797,-226.65 797,-248.9"/>
<text text-anchor="middle" x="739.5" y="-235.4" font-family="Helvetica,sans-Serif" font-size="10.00">CPS::IdentifiedObject</text>
</a>
</g>
</g>
<!-- Node4&#45;&gt;Node3 -->
<g id="edge3_Node000003_Node000004" class="edge">
<title>Node4&#45;&gt;Node3</title>
<g id="a_edge3_Node000003_Node000004"><a xlink:title=" ">
<path fill="none" stroke="#63b8ff" d="M774.97,-254.46C782.35,-258.31 790.02,-262.52 797,-266.77 886.12,-321.02 985.53,-397.4 1022.24,-426.19"/>
<polygon fill="#63b8ff" stroke="#63b8ff" points="776.69,-251.4 766.19,-249.98 773.51,-257.64 776.69,-251.4"/>
</a>
</g>
</g>
<!-- Node11 -->
<g id="Node000011" class="node">
<title>Node11</title>
<g id="a_Node000011"><a xlink:href="class_c_p_s_1_1_topological_terminal.html" target="_top" xlink:title=" ">
<polygon fill="white" stroke="#bfbfbf" points="1102.88,-207.9 972.88,-207.9 972.88,-185.65 1102.88,-185.65 1102.88,-207.9"/>
<text text-anchor="middle" x="1037.88" y="-194.4" font-family="Helvetica,sans-Serif" font-size="10.00">CPS::TopologicalTerminal</text>
</a>
</g>
</g>
<!-- Node4&#45;&gt;Node11 -->
<g id="edge12_Node000011_Node000004" class="edge">
<title>Node4&#45;&gt;Node11</title>
<g id="a_edge12_Node000011_Node000004"><a xlink:title=" ">
<path fill="none" stroke="#63b8ff" d="M808.71,-231.61C848.86,-227.62 900.57,-221.85 946.25,-214.77 957.98,-212.95 970.5,-210.68 982.38,-208.37"/>
<polygon fill="#63b8ff" stroke="#63b8ff" points="808.55,-228.11 798.94,-232.57 809.24,-235.08 808.55,-228.11"/>
</a>
</g>
</g>
<!-- Node17 -->
<g id="Node000017" class="node">
<title>Node17</title>
<g id="a_Node000017"><a xlink:href="class_c_p_s_1_1_topological_node.html" target="_top" xlink:title=" ">
<polygon fill="white" stroke="#bfbfbf" points="1095.75,-301.9 980,-301.9 980,-279.65 1095.75,-279.65 1095.75,-301.9"/>
<text text-anchor="middle" x="1037.88" y="-288.4" font-family="Helvetica,sans-Serif" font-size="10.00">CPS::TopologicalNode</text>
</a>
</g>
</g>
<!-- Node4&#45;&gt;Node17 -->
<g id="edge21_Node000017_Node000004" class="edge">
<title>Node4&#45;&gt;Node17</title>
<g id="a_edge21_Node000017_Node000004"><a xlink:title=" ">
<path fill="none" stroke="#63b8ff" d="M808.36,-249.91C860.11,-259.16 930.57,-271.76 979.52,-280.51"/>
<polygon fill="#63b8ff" stroke="#63b8ff" points="809.24,-246.51 798.78,-248.19 808.01,-253.4 809.24,-246.51"/>
</a>
</g>
</g>
<!-- Node5 -->
<g id="Node000005" class="node">
<title>Node5</title>
<g id="a_Node000005"><a xlink:href="class_c_p_s_1_1_attribute.html" target="_top" xlink:title=" ">
<polygon fill="white" stroke="#666666" points="592.38,-226.9 466.12,-226.9 466.12,-204.65 592.38,-204.65 592.38,-226.9"/>
<text text-anchor="middle" x="529.25" y="-213.4" font-family="Helvetica,sans-Serif" font-size="10.00">CPS::Attribute&lt; String &gt;</text>
</a>
</g>
</g>
<!-- Node5&#45;&gt;Node4 -->
<g id="edge4_Node000004_Node000005" class="edge">
<title>Node5&#45;&gt;Node4</title>
<g id="a_edge4_Node000004_Node000005"><a xlink:title=" ">
<path fill="none" stroke="#9a32cd" stroke-dasharray="5,2" d="M603.89,-223.55C629.47,-226.25 657.74,-229.24 681.74,-231.78"/>
<polygon fill="#9a32cd" stroke="#9a32cd" points="604.55,-220.1 594.24,-222.53 603.81,-227.06 604.55,-220.1"/>
</a>
</g>
<text text-anchor="middle" x="644.5" y="-248.39" font-family="Helvetica,sans-Serif" font-size="10.00" fill="grey"> mName</text>
<text text-anchor="middle" x="644.5" y="-234.14" font-family="Helvetica,sans-Serif" font-size="10.00" fill="grey">mUID</text>
</g>
<!-- Node6 -->
<g id="Node000006" class="node">
<title>Node6</title>
<g id="a_Node000006"><a xlink:href="class_c_p_s_1_1_attribute_base.html" target="_top" xlink:title=" ">
<polygon fill="white" stroke="#666666" points="109.75,-327.9 5.25,-327.9 5.25,-305.65 109.75,-305.65 109.75,-327.9"/>
<text text-anchor="middle" x="57.5" y="-314.4" font-family="Helvetica,sans-Serif" font-size="10.00">CPS::AttributeBase</text>
</a>
</g>
</g>
<!-- Node6&#45;&gt;Node5 -->
<g id="edge5_Node000005_Node000006" class="edge">
<title>Node6&#45;&gt;Node5</title>
<g id="a_edge5_Node000005_Node000006"><a xlink:title=" ">
<path fill="none" stroke="#63b8ff" d="M70.88,-295.71C86.38,-271.61 115.41,-233.33 152,-216.77 261.5,-167.21 407.96,-188.38 481.69,-204.2"/>
<polygon fill="#63b8ff" stroke="#63b8ff" points="67.99,-293.73 65.7,-304.08 73.94,-297.41 67.99,-293.73"/>
</a>
</g>
</g>
<!-- Node8 -->
<g id="Node000008" class="node">
<title>Node8</title>
<g id="a_Node000008"><a xlink:href="class_c_p_s_1_1_attribute.html" target="_top" xlink:title=" ">
<polygon fill="white" stroke="#666666" points="275.25,-365.9 171.5,-365.9 171.5,-343.65 275.25,-343.65 275.25,-365.9"/>
<text text-anchor="middle" x="223.38" y="-352.4" font-family="Helvetica,sans-Serif" font-size="10.00">CPS::Attribute&lt; T &gt;</text>
</a>
</g>
</g>
<!-- Node6&#45;&gt;Node8 -->
<g id="edge8_Node000008_Node000006" class="edge">
<title>Node6&#45;&gt;Node8</title>
<g id="a_edge8_Node000008_Node000006"><a xlink:title=" ">
<path fill="none" stroke="#63b8ff" d="M119.73,-330.97C137.07,-334.99 155.74,-339.32 172.34,-343.17"/>
<polygon fill="#63b8ff" stroke="#63b8ff" points="120.56,-327.57 110.03,-328.72 118.98,-334.39 120.56,-327.57"/>
</a>
</g>
</g>
<!-- Node18 -->
<g id="Node000018" class="node">
<title>Node18</title>
<g id="a_Node000018"><a xlink:href="class_c_p_s_1_1_attribute.html" target="_top" xlink:title=" ">
<polygon fill="white" stroke="#666666" points="607,-296.9 451.5,-296.9 451.5,-274.65 607,-274.65 607,-296.9"/>
<text text-anchor="middle" x="529.25" y="-283.4" font-family="Helvetica,sans-Serif" font-size="10.00">CPS::Attribute&lt; MatrixComp &gt;</text>
</a>
</g>
</g>
<!-- Node6&#45;&gt;Node18 -->
<g id="edge23_Node000018_Node000006" class="edge">
<title>Node6&#45;&gt;Node18</title>
<g id="a_edge23_Node000018_Node000006"><a xlink:title=" ">
<path fill="none" stroke="#63b8ff" d="M121.37,-312.14C172.81,-308.39 247.48,-303.05 312.75,-298.77 358.66,-295.76 410.09,-292.65 451.19,-290.23"/>
<polygon fill="#63b8ff" stroke="#63b8ff" points="121.33,-308.63 111.62,-312.85 121.84,-315.61 121.33,-308.63"/>
</a>
</g>
</g>
<!-- Node25 -->
<g id="Node000025" class="node">
<title>Node25</title>
<g id="a_Node000025"><a xlink:href="class_c_p_s_1_1_attribute.html" target="_top" xlink:title=" ">
<polygon fill="white" stroke="#666666" points="597.25,-439.02 461.25,-439.02 461.25,-402.52 597.25,-402.52 597.25,-439.02"/>
<text text-anchor="start" x="469.25" y="-425.52" font-family="Helvetica,sans-Serif" font-size="10.00">CPS::Attribute&lt; MatrixVar</text>
<text text-anchor="middle" x="529.25" y="-411.27" font-family="Helvetica,sans-Serif" font-size="10.00">&lt; VarType &gt; &gt;</text>
</a>
</g>
</g>
<!-- Node6&#45;&gt;Node25 -->
<g id="edge34_Node000025_Node000006" class="edge">
<title>Node6&#45;&gt;Node25</title>
<g id="a_edge34_Node000025_Node000006"><a xlink:title=" ">
<path fill="none" stroke="#63b8ff" d="M82.37,-334.95C100.54,-347.92 126.66,-364.77 152,-374.77 254.38,-415.17 383.58,-422.42 460.86,-422.59"/>
<polygon fill="#63b8ff" stroke="#63b8ff" points="84.51,-332.18 74.37,-329.1 80.38,-337.83 84.51,-332.18"/>
</a>
</g>
</g>
<!-- Node27 -->
<g id="Node000027" class="node">
<title>Node27</title>
<g id="a_Node000027"><a xlink:href="class_c_p_s_1_1_attribute.html" target="_top" xlink:title=" ">
<polygon fill="white" stroke="#666666" points="597.25,-67.02 461.25,-67.02 461.25,-30.52 597.25,-30.52 597.25,-67.02"/>
<text text-anchor="start" x="469.25" y="-53.52" font-family="Helvetica,sans-Serif" font-size="10.00">CPS::Attribute&lt; MatrixVar</text>
<text text-anchor="middle" x="529.25" y="-39.27" font-family="Helvetica,sans-Serif" font-size="10.00">&lt; Complex &gt; &gt;</text>
</a>
</g>
</g>
<!-- Node6&#45;&gt;Node27 -->
<g id="edge38_Node000027_Node000006" class="edge">
<title>Node6&#45;&gt;Node27</title>
<g id="a_edge38_Node000027_Node000006"><a xlink:title=" ">
<path fill="none" stroke="#63b8ff" d="M58.16,-293.75C58.77,-239.03 68.88,-101.3 152,-41.77 248.8,27.56 398.47,-5.37 476.66,-30.1"/>
<polygon fill="#63b8ff" stroke="#63b8ff" points="54.66,-293.72 58.17,-303.72 61.66,-293.71 54.66,-293.72"/>
</a>
</g>
</g>
<!-- Node32 -->
<g id="Node000032" class="node">
<title>Node32</title>
<g id="a_Node000032"><a xlink:href="class_c_p_s_1_1_attribute.html" target="_top" xlink:title=" ">
<polygon fill="white" stroke="#666666" points="588.25,-547.9 470.25,-547.9 470.25,-525.65 588.25,-525.65 588.25,-547.9"/>
<text text-anchor="middle" x="529.25" y="-534.4" font-family="Helvetica,sans-Serif" font-size="10.00">CPS::Attribute&lt; Real &gt;</text>
</a>
</g>
</g>
<!-- Node6&#45;&gt;Node32 -->
<g id="edge48_Node000032_Node000006" class="edge">
<title>Node6&#45;&gt;Node32</title>
<g id="a_edge48_Node000032_Node000006"><a xlink:title=" ">
<path fill="none" stroke="#63b8ff" d="M58.66,-339.63C60.42,-392.16 72.97,-521.21 152,-576.77 264.31,-655.73 444.02,-579.11 506.22,-548.31"/>
<polygon fill="#63b8ff" stroke="#63b8ff" points="62.16,-339.72 58.45,-329.8 55.16,-339.87 62.16,-339.72"/>
</a>
</g>
</g>
<!-- Node7 -->
<g id="Node000007" class="node">
<title>Node7</title>
<g id="a_Node000007"><a xlink:title=" ">
<polygon fill="white" stroke="#bfbfbf" points="280.88,-170.15 165.88,-170.15 165.88,-119.4 280.88,-119.4 280.88,-170.15"/>
<text text-anchor="start" x="173.88" y="-156.65" font-family="Helvetica,sans-Serif" font-size="10.00">std::enable_shared</text>
<text text-anchor="start" x="173.88" y="-142.4" font-family="Helvetica,sans-Serif" font-size="10.00">_from_this&lt; Attribute</text>
<text text-anchor="middle" x="223.38" y="-128.15" font-family="Helvetica,sans-Serif" font-size="10.00">&lt; String &gt; &gt;</text>
</a>
</g>
</g>
<!-- Node7&#45;&gt;Node5 -->
<g id="edge6_Node000005_Node000007" class="edge">
<title>Node7&#45;&gt;Node5</title>
<g id="a_edge6_Node000005_Node000007"><a xlink:title=" ">
<path fill="none" stroke="#63b8ff" d="M292.48,-154.97C333.63,-161.75 386.95,-171.64 433.5,-183.77 455.34,-189.47 479.43,-197.63 497.86,-204.29"/>
<polygon fill="#63b8ff" stroke="#63b8ff" points="293.14,-151.53 282.71,-153.39 292.02,-158.44 293.14,-151.53"/>
</a>
</g>
</g>
<!-- Node8&#45;&gt;Node5 -->
<g id="edge7_Node000005_Node000008" class="edge">
<title>Node8&#45;&gt;Node5</title>
<g id="a_edge7_Node000005_Node000008"><a xlink:title=" ">
<path fill="none" stroke="orange" stroke-dasharray="5,2" d="M259.87,-338.53C322.06,-310.09 449.2,-251.93 503.15,-227.25"/>
<polygon fill="orange" stroke="orange" points="258.77,-335.19 251.14,-342.53 261.69,-341.55 258.77,-335.19"/>
</a>
</g>
<text text-anchor="middle" x="373.12" y="-318.45" font-family="Helvetica,sans-Serif" font-size="10.00" fill="grey"> &lt; String &gt;</text>
</g>
<!-- Node8&#45;&gt;Node18 -->
<g id="edge25_Node000018_Node000008" class="edge">
<title>Node8&#45;&gt;Node18</title>
<g id="a_edge25_Node000018_Node000008"><a xlink:title=" ">
<path fill="none" stroke="orange" stroke-dasharray="5,2" d="M287.11,-353.96C329.24,-352.01 385.59,-346.69 433.5,-332.77 461.54,-324.63 491.3,-308.47 509.82,-297.39"/>
<polygon fill="orange" stroke="orange" points="286.99,-350.46 277.14,-354.36 287.27,-357.45 286.99,-350.46"/>
</a>
</g>
<text text-anchor="middle" x="373.12" y="-356.95" font-family="Helvetica,sans-Serif" font-size="10.00" fill="grey"> &lt; MatrixComp &gt;</text>
</g>
<!-- Node8&#45;&gt;Node25 -->
<g id="edge36_Node000025_Node000008" class="edge">
<title>Node8&#45;&gt;Node25</title>
<g id="a_edge36_Node000025_Node000008"><a xlink:title=" ">
<path fill="none" stroke="orange" stroke-dasharray="5,2" d="M287,-365.71C343.34,-375.62 419.36,-389.15 433.5,-392.52 445.1,-395.29 457.39,-398.64 469.13,-402.05"/>
<polygon fill="orange" stroke="orange" points="287.61,-362.27 277.16,-363.99 286.4,-369.16 287.61,-362.27"/>
</a>
</g>
<text text-anchor="middle" x="373.12" y="-397.27" font-family="Helvetica,sans-Serif" font-size="10.00" fill="grey"> &lt; MatrixVar&lt; VarType &gt; &gt;</text>
</g>
<!-- Node8&#45;&gt;Node27 -->
<g id="edge40_Node000027_Node000008" class="edge">
<title>Node8&#45;&gt;Node27</title>
<g id="a_edge40_Node000027_Node000008"><a xlink:title=" ">
<path fill="none" stroke="orange" stroke-dasharray="5,2" d="M247.67,-335.79C262.62,-322.67 281.62,-304.15 294.75,-284.77 306.2,-267.87 300.88,-259.13 312.75,-242.52 367.02,-166.6 455.79,-98.97 500.57,-67.49"/>
<polygon fill="orange" stroke="orange" points="245.45,-333.07 240.12,-342.23 250,-338.4 245.45,-333.07"/>
</a>
</g>
<text text-anchor="middle" x="373.12" y="-247.27" font-family="Helvetica,sans-Serif" font-size="10.00" fill="grey"> &lt; MatrixVar&lt; Complex &gt; &gt;</text>
</g>
<!-- Node8&#45;&gt;Node32 -->
<g id="edge50_Node000032_Node000008" class="edge">
<title>Node8&#45;&gt;Node32</title>
<g id="a_edge50_Node000032_Node000008"><a xlink:title=" ">
<path fill="none" stroke="orange" stroke-dasharray="5,2" d="M251.72,-372.45C269.1,-383.6 292.13,-398.22 312.75,-410.77 383.82,-454.05 469.5,-503.29 507.9,-525.2"/>
<polygon fill="orange" stroke="orange" points="253.78,-369.61 243.47,-367.15 249.99,-375.5 253.78,-369.61"/>
</a>
</g>
<text text-anchor="middle" x="373.12" y="-484.8" font-family="Helvetica,sans-Serif" font-size="10.00" fill="grey"> &lt; Real &gt;</text>
</g>
<!-- Node9 -->
<g id="Node000009" class="node">
<title>Node9</title>
<g id="a_Node000009"><a xlink:title=" ">
<polygon fill="white" stroke="#bfbfbf" points="115,-646.15 0,-646.15 0,-595.4 115,-595.4 115,-646.15"/>
<text text-anchor="start" x="8" y="-632.65" font-family="Helvetica,sans-Serif" font-size="10.00">std::enable_shared</text>
<text text-anchor="start" x="8" y="-618.4" font-family="Helvetica,sans-Serif" font-size="10.00">_from_this&lt; Attribute</text>
<text text-anchor="middle" x="57.5" y="-604.15" font-family="Helvetica,sans-Serif" font-size="10.00">&lt; T &gt; &gt;</text>
</a>
</g>
</g>
<!-- Node9&#45;&gt;Node8 -->
<g id="edge9_Node000008_Node000009" class="edge">
<title>Node9&#45;&gt;Node8</title>
<g id="a_edge9_Node000008_Node000009"><a xlink:title=" ">
<path fill="none" stroke="#63b8ff" d="M74.42,-584.5C91.51,-547.02 120.49,-487.44 152,-439.77 170.6,-411.64 196.89,-382.02 211.5,-366.25"/>
<polygon fill="#63b8ff" stroke="#63b8ff" points="71.26,-582.99 70.34,-593.54 77.64,-585.87 71.26,-582.99"/>
</a>
</g>
</g>
<!-- Node10 -->
<g id="Node000010" class="node">
<title>Node10</title>
<g id="a_Node000010"><a xlink:href="class_c_p_s_1_1_sim_terminal.html" target="_top" xlink:title=" ">
<polygon fill="white" stroke="#bfbfbf" points="1759,-195.9 1607.25,-195.9 1607.25,-173.65 1759,-173.65 1759,-195.9"/>
<text text-anchor="middle" x="1683.12" y="-182.4" font-family="Helvetica,sans-Serif" font-size="10.00">CPS::SimTerminal&lt; Complex &gt;</text>
</a>
</g>
</g>
<!-- Node10&#45;&gt;Node2 -->
<g id="edge10_Node000002_Node000010" class="edge">
<title>Node10&#45;&gt;Node2</title>
<g id="a_edge10_Node000002_Node000010"><a xlink:title=" ">
<path fill="none" stroke="#9a32cd" stroke-dasharray="5,2" d="M1770.77,-192.13C1808.15,-195.31 1850.91,-198.95 1884.47,-201.8"/>
<polygon fill="#9a32cd" stroke="#9a32cd" points="1771.12,-188.65 1760.86,-191.29 1770.53,-195.63 1771.12,-188.65"/>
</a>
</g>
<text text-anchor="middle" x="1812.62" y="-203.14" font-family="Helvetica,sans-Serif" font-size="10.00" fill="grey"> mTerminals</text>
</g>
<!-- Node11&#45;&gt;Node10 -->
<g id="edge11_Node000010_Node000011" class="edge">
<title>Node11&#45;&gt;Node10</title>
<g id="a_edge11_Node000010_Node000011"><a xlink:title=" ">
<path fill="none" stroke="#63b8ff" d="M1114.44,-195.36C1238.32,-193.05 1483.18,-188.48 1606.86,-186.18"/>
<polygon fill="#63b8ff" stroke="#63b8ff" points="1114.65,-191.86 1104.71,-195.54 1114.78,-198.86 1114.65,-191.86"/>
</a>
</g>
</g>
<!-- Node14 -->
<g id="Node000014" class="node">
<title>Node14</title>
<g id="a_Node000014"><a xlink:href="class_c_p_s_1_1_sim_terminal.html" target="_top" xlink:title=" ">
<polygon fill="white" stroke="#bfbfbf" points="1445,-156.9 1294.75,-156.9 1294.75,-134.65 1445,-134.65 1445,-156.9"/>
<text text-anchor="middle" x="1369.88" y="-143.4" font-family="Helvetica,sans-Serif" font-size="10.00">CPS::SimTerminal&lt; VarType &gt;</text>
</a>
</g>
</g>
<!-- Node11&#45;&gt;Node14 -->
<g id="edge16_Node000014_Node000011" class="edge">
<title>Node11&#45;&gt;Node14</title>
<g id="a_edge16_Node000014_Node000011"><a xlink:title=" ">
<path fill="none" stroke="#63b8ff" d="M1095.74,-182.65C1106.89,-180.15 1118.53,-177.73 1129.5,-175.77 1184.45,-165.99 1247.05,-158.26 1294.44,-153.1"/>
<polygon fill="#63b8ff" stroke="#63b8ff" points="1095.23,-179.18 1086.26,-184.83 1096.79,-186 1095.23,-179.18"/>
</a>
</g>
</g>
<!-- Node12 -->
<g id="Node000012" class="node">
<title>Node12</title>
<g id="a_Node000012"><a xlink:href="class_shared_factory.html" target="_top" xlink:title=" ">
<polygon fill="white" stroke="#666666" points="1276.75,-122.02 1129.5,-122.02 1129.5,-85.52 1276.75,-85.52 1276.75,-122.02"/>
<text text-anchor="start" x="1137.5" y="-108.52" font-family="Helvetica,sans-Serif" font-size="10.00">SharedFactory&lt; SimTerminal</text>
<text text-anchor="middle" x="1203.12" y="-94.27" font-family="Helvetica,sans-Serif" font-size="10.00">&lt; Complex &gt; &gt;</text>
</a>
</g>
</g>
<!-- Node12&#45;&gt;Node10 -->
<g id="edge13_Node000010_Node000012" class="edge">
<title>Node12&#45;&gt;Node10</title>
<g id="a_edge13_Node000010_Node000012"><a xlink:title=" ">
<path fill="none" stroke="#63b8ff" d="M1288.06,-96.01C1369.19,-92.09 1493.53,-95.78 1589.25,-141.77 1599.45,-146.67 1597.63,-153.82 1607.25,-159.77 1616.11,-165.25 1626.31,-169.68 1636.27,-173.2"/>
<polygon fill="#63b8ff" stroke="#63b8ff" points="1288.22,-92.49 1278.42,-96.52 1288.6,-99.48 1288.22,-92.49"/>
</a>
</g>
</g>
<!-- Node13 -->
<g id="Node000013" class="node">
<title>Node13</title>
<g id="a_Node000013"><a xlink:href="class_shared_factory.html" target="_top" xlink:title=" ">
<polygon fill="white" stroke="#666666" points="791.75,-137.9 687.25,-137.9 687.25,-115.65 791.75,-115.65 791.75,-137.9"/>
<text text-anchor="middle" x="739.5" y="-124.4" font-family="Helvetica,sans-Serif" font-size="10.00">SharedFactory&lt; T &gt;</text>
</a>
</g>
</g>
<!-- Node13&#45;&gt;Node12 -->
<g id="edge14_Node000012_Node000013" class="edge">
<title>Node13&#45;&gt;Node12</title>
<g id="a_edge14_Node000012_Node000013"><a xlink:title=" ">
<path fill="none" stroke="orange" stroke-dasharray="5,2" d="M803.26,-115.83C807.23,-115.33 811.17,-114.89 815,-114.52 924.1,-104.09 1051.21,-102.58 1129.17,-102.87"/>
<polygon fill="orange" stroke="orange" points="803.01,-112.33 793.58,-117.16 803.96,-119.27 803.01,-112.33"/>
</a>
</g>
<text text-anchor="middle" x="880.62" y="-119.27" font-family="Helvetica,sans-Serif" font-size="10.00" fill="grey"> &lt; SimTerminal&lt; Complex &gt; &gt;</text>
</g>
<!-- Node15 -->
<g id="Node000015" class="node">
<title>Node15</title>
<g id="a_Node000015"><a xlink:href="class_shared_factory.html" target="_top" xlink:title=" ">
<polygon fill="white" stroke="#666666" points="1111.5,-168.02 964.25,-168.02 964.25,-131.52 1111.5,-131.52 1111.5,-168.02"/>
<text text-anchor="start" x="972.25" y="-154.52" font-family="Helvetica,sans-Serif" font-size="10.00">SharedFactory&lt; SimTerminal</text>
<text text-anchor="middle" x="1037.88" y="-140.27" font-family="Helvetica,sans-Serif" font-size="10.00">&lt; VarType &gt; &gt;</text>
</a>
</g>
</g>
<!-- Node13&#45;&gt;Node15 -->
<g id="edge18_Node000015_Node000013" class="edge">
<title>Node13&#45;&gt;Node15</title>
<g id="a_edge18_Node000015_Node000013"><a xlink:title=" ">
<path fill="none" stroke="orange" stroke-dasharray="5,2" d="M803.37,-131.65C850.35,-135.3 914.67,-140.29 963.92,-144.11"/>
<polygon fill="orange" stroke="orange" points="803.87,-128.18 793.63,-130.9 803.33,-135.16 803.87,-128.18"/>
</a>
</g>
<text text-anchor="middle" x="880.62" y="-147.08" font-family="Helvetica,sans-Serif" font-size="10.00" fill="grey"> &lt; SimTerminal&lt; VarType &gt; &gt;</text>
</g>
<!-- Node24 -->
<g id="Node000024" class="node">
<title>Node24</title>
<g id="a_Node000024"><a xlink:href="class_shared_factory.html" target="_top" xlink:title=" ">
<polygon fill="white" stroke="#666666" points="1104.38,-262.02 971.38,-262.02 971.38,-225.52 1104.38,-225.52 1104.38,-262.02"/>
<text text-anchor="start" x="979.38" y="-248.52" font-family="Helvetica,sans-Serif" font-size="10.00">SharedFactory&lt; SimNode</text>
<text text-anchor="middle" x="1037.88" y="-234.27" font-family="Helvetica,sans-Serif" font-size="10.00">&lt; VarType &gt; &gt;</text>
</a>
</g>
</g>
<!-- Node13&#45;&gt;Node24 -->
<g id="edge32_Node000024_Node000013" class="edge">
<title>Node13&#45;&gt;Node24</title>
<g id="a_edge32_Node000024_Node000013"><a xlink:title=" ">
<path fill="none" stroke="orange" stroke-dasharray="5,2" d="M775.24,-143.23C787.69,-148.97 801.9,-155.33 815,-160.77 880.43,-187.94 897.88,-191.98 964.25,-216.77 971.43,-219.45 979.02,-222.28 986.47,-225.05"/>
<polygon fill="orange" stroke="orange" points="776.72,-140.06 766.18,-139.02 773.77,-146.41 776.72,-140.06"/>
</a>
</g>
<text text-anchor="middle" x="880.62" y="-214.66" font-family="Helvetica,sans-Serif" font-size="10.00" fill="grey"> &lt; SimNode&lt; VarType &gt; &gt;</text>
</g>
<!-- Node30 -->
<g id="Node000030" class="node">
<title>Node30</title>
<g id="a_Node000030"><a xlink:href="class_shared_factory.html" target="_top" xlink:title=" ">
<polygon fill="white" stroke="#666666" points="1589.25,-81.9 1463,-81.9 1463,-59.65 1589.25,-59.65 1589.25,-81.9"/>
<text text-anchor="middle" x="1526.12" y="-68.4" font-family="Helvetica,sans-Serif" font-size="10.00">SharedFactory&lt; Shunt &gt;</text>
</a>
</g>
</g>
<!-- Node13&#45;&gt;Node30 -->
<g id="edge45_Node000030_Node000013" class="edge">
<title>Node13&#45;&gt;Node30</title>
<g id="a_edge45_Node000030_Node000013"><a xlink:title=" ">
<path fill="none" stroke="orange" stroke-dasharray="5,2" d="M780.76,-111.56C791.74,-107.88 803.71,-104.29 815,-101.77 880.17,-87.24 897.69,-89.92 964.25,-84.52 1144.83,-69.87 1359.08,-69.25 1462.76,-70.01"/>
<polygon fill="orange" stroke="orange" points="779.91,-108.15 771.61,-114.73 782.21,-114.76 779.91,-108.15"/>
</a>
</g>
<text text-anchor="middle" x="1037.88" y="-89.27" font-family="Helvetica,sans-Serif" font-size="10.00" fill="grey"> &lt; Shunt &gt;</text>
</g>
<!-- Node14&#45;&gt;Node10 -->
<g id="edge15_Node000010_Node000014" class="edge">
<title>Node14&#45;&gt;Node10</title>
<g id="a_edge15_Node000010_Node000014"><a xlink:title=" ">
<path fill="none" stroke="orange" stroke-dasharray="5,2" d="M1456.86,-145.14C1497.29,-146.08 1546.02,-149 1589.25,-156.52 1610.34,-160.19 1633.36,-167.17 1651.21,-173.28"/>
<polygon fill="orange" stroke="orange" points="1456.99,-141.64 1446.93,-144.95 1456.86,-148.64 1456.99,-141.64"/>
</a>
</g>
<text text-anchor="middle" x="1526.12" y="-161.27" font-family="Helvetica,sans-Serif" font-size="10.00" fill="grey"> &lt; Complex &gt;</text>
</g>
<!-- Node15&#45;&gt;Node14 -->
<g id="edge17_Node000014_Node000015" class="edge">
<title>Node15&#45;&gt;Node14</title>
<g id="a_edge17_Node000014_Node000015"><a xlink:title=" ">
<path fill="none" stroke="#63b8ff" d="M1123.1,-148.75C1176,-148.11 1243.61,-147.29 1294.52,-146.67"/>
<polygon fill="#63b8ff" stroke="#63b8ff" points="1123.17,-145.25 1113.22,-148.87 1123.26,-152.25 1123.17,-145.25"/>
</a>
</g>
</g>
<!-- Node16 -->
<g id="Node000016" class="node">
<title>Node16</title>
<g id="a_Node000016"><a xlink:href="class_c_p_s_1_1_sim_node.html" target="_top" xlink:title=" ">
<polygon fill="white" stroke="#bfbfbf" points="1751.88,-289.9 1614.38,-289.9 1614.38,-267.65 1751.88,-267.65 1751.88,-289.9"/>
<text text-anchor="middle" x="1683.12" y="-276.4" font-family="Helvetica,sans-Serif" font-size="10.00">CPS::SimNode&lt; Complex &gt;</text>
</a>
</g>
</g>
<!-- Node16&#45;&gt;Node2 -->
<g id="edge19_Node000002_Node000016" class="edge">
<title>Node16&#45;&gt;Node2</title>
<g id="a_edge19_Node000002_Node000016"><a xlink:title=" ">
<path fill="none" stroke="#9a32cd" stroke-dasharray="5,2" d="M1736.74,-264.14C1779.5,-252.25 1839.79,-235.48 1884.15,-223.14"/>
<polygon fill="#9a32cd" stroke="#9a32cd" points="1735.87,-260.75 1727.18,-266.8 1737.75,-267.49 1735.87,-260.75"/>
</a>
</g>
<text text-anchor="middle" x="1812.62" y="-256.09" font-family="Helvetica,sans-Serif" font-size="10.00" fill="grey"> mVirtualNodes</text>
</g>
<!-- Node17&#45;&gt;Node16 -->
<g id="edge20_Node000016_Node000017" class="edge">
<title>Node17&#45;&gt;Node16</title>
<g id="a_edge20_Node000016_Node000017"><a xlink:title=" ">
<path fill="none" stroke="#63b8ff" d="M1107.51,-298.28C1158.97,-303.52 1231.18,-310.04 1294.75,-312.77 1361.47,-315.63 1378.38,-317.37 1445,-312.77 1509.57,-308.32 1525.19,-302.04 1589.25,-292.77 1597.24,-291.62 1605.61,-290.38 1613.92,-289.15"/>
<polygon fill="#63b8ff" stroke="#63b8ff" points="1108.01,-294.82 1097.71,-297.27 1107.3,-301.78 1108.01,-294.82"/>
</a>
</g>
</g>
<!-- Node22 -->
<g id="Node000022" class="node">
<title>Node22</title>
<g id="a_Node000022"><a xlink:href="class_c_p_s_1_1_sim_node.html" target="_top" xlink:title=" ">
<polygon fill="white" stroke="#bfbfbf" points="1437.88,-381.9 1301.88,-381.9 1301.88,-359.65 1437.88,-359.65 1437.88,-381.9"/>
<text text-anchor="middle" x="1369.88" y="-368.4" font-family="Helvetica,sans-Serif" font-size="10.00">CPS::SimNode&lt; VarType &gt;</text>
</a>
</g>
</g>
<!-- Node17&#45;&gt;Node22 -->
<g id="edge29_Node000022_Node000017" class="edge">
<title>Node17&#45;&gt;Node22</title>
<g id="a_edge29_Node000022_Node000017"><a xlink:title=" ">
<path fill="none" stroke="#63b8ff" d="M1103.59,-307.07C1106.34,-308.51 1108.99,-310.07 1111.5,-311.77 1122.26,-319.04 1118.29,-328.23 1129.5,-334.77 1144.18,-343.33 1235.87,-355.45 1301.4,-363.21"/>
<polygon fill="#63b8ff" stroke="#63b8ff" points="1105.26,-303.99 1094.71,-303.02 1102.35,-310.36 1105.26,-303.99"/>
</a>
</g>
</g>
<!-- Node18&#45;&gt;Node17 -->
<g id="edge22_Node000017_Node000018" class="edge">
<title>Node18&#45;&gt;Node17</title>
<g id="a_edge22_Node000017_Node000018"><a xlink:title=" ">
<path fill="none" stroke="#9a32cd" stroke-dasharray="5,2" d="M618.87,-286.65C722.75,-287.67 891.86,-289.34 979.76,-290.21"/>
<polygon fill="#9a32cd" stroke="#9a32cd" points="619.02,-283.15 608.98,-286.55 618.95,-290.15 619.02,-283.15"/>
</a>
</g>
<text text-anchor="middle" x="739.5" y="-293.11" font-family="Helvetica,sans-Serif" font-size="10.00" fill="grey"> mInitialVoltage</text>
</g>
<!-- Node19 -->
<g id="Node000019" class="node">
<title>Node19</title>
<g id="a_Node000019"><a xlink:title=" ">
<polygon fill="white" stroke="#bfbfbf" points="280.88,-276.15 165.88,-276.15 165.88,-225.4 280.88,-225.4 280.88,-276.15"/>
<text text-anchor="start" x="173.88" y="-262.65" font-family="Helvetica,sans-Serif" font-size="10.00">std::enable_shared</text>
<text text-anchor="start" x="173.88" y="-248.4" font-family="Helvetica,sans-Serif" font-size="10.00">_from_this&lt; Attribute</text>
<text text-anchor="middle" x="223.38" y="-234.15" font-family="Helvetica,sans-Serif" font-size="10.00">&lt; MatrixComp &gt; &gt;</text>
</a>
</g>
</g>
<!-- Node19&#45;&gt;Node18 -->
<g id="edge24_Node000018_Node000019" class="edge">
<title>Node19&#45;&gt;Node18</title>
<g id="a_edge24_Node000018_Node000019"><a xlink:title=" ">
<path fill="none" stroke="#63b8ff" d="M292.41,-257.97C333.32,-262.37 386.42,-268.2 433.5,-273.77 439.26,-274.45 445.22,-275.17 451.21,-275.91"/>
<polygon fill="#63b8ff" stroke="#63b8ff" points="293.03,-254.52 282.71,-256.93 292.28,-261.48 293.03,-254.52"/>
</a>
</g>
</g>
<!-- Node20 -->
<g id="Node000020" class="node">
<title>Node20</title>
<g id="a_Node000020"><a xlink:title=" ">
<polygon fill="white" stroke="#bfbfbf" points="1427,-304.15 1312.75,-304.15 1312.75,-253.4 1427,-253.4 1427,-304.15"/>
<text text-anchor="start" x="1320.75" y="-290.65" font-family="Helvetica,sans-Serif" font-size="10.00">std::enable_shared</text>
<text text-anchor="start" x="1320.75" y="-276.4" font-family="Helvetica,sans-Serif" font-size="10.00">_from_this&lt; SimNode</text>
<text text-anchor="middle" x="1369.88" y="-262.15" font-family="Helvetica,sans-Serif" font-size="10.00">&lt; Complex &gt; &gt;</text>
</a>
</g>
</g>
<!-- Node20&#45;&gt;Node16 -->
<g id="edge26_Node000016_Node000020" class="edge">
<title>Node20&#45;&gt;Node16</title>
<g id="a_edge26_Node000016_Node000020"><a xlink:title=" ">
<path fill="none" stroke="#63b8ff" d="M1438.67,-278.77C1490.61,-278.77 1561.94,-278.77 1613.97,-278.77"/>
<polygon fill="#63b8ff" stroke="#63b8ff" points="1438.75,-275.27 1428.75,-278.77 1438.75,-282.27 1438.75,-275.27"/>
</a>
</g>
</g>
<!-- Node21 -->
<g id="Node000021" class="node">
<title>Node21</title>
<g id="a_Node000021"><a xlink:href="class_shared_factory.html" target="_top" xlink:title=" ">
<polygon fill="white" stroke="#666666" points="1422.12,-234.9 1317.62,-234.9 1317.62,-212.65 1422.12,-212.65 1422.12,-234.9"/>
<text text-anchor="middle" x="1369.88" y="-221.4" font-family="Helvetica,sans-Serif" font-size="10.00">SharedFactory&lt; T &gt;</text>
</a>
</g>
</g>
<!-- Node21&#45;&gt;Node16 -->
<g id="edge27_Node000016_Node000021" class="edge">
<title>Node21&#45;&gt;Node16</title>
<g id="a_edge27_Node000016_Node000021"><a xlink:title=" ">
<path fill="none" stroke="#63b8ff" d="M1433.92,-234.91C1486.99,-244.29 1562.63,-257.66 1616.44,-267.16"/>
<polygon fill="#63b8ff" stroke="#63b8ff" points="1434.57,-231.47 1424.11,-233.18 1433.35,-238.37 1434.57,-231.47"/>
</a>
</g>
</g>
<!-- Node22&#45;&gt;Node16 -->
<g id="edge28_Node000016_Node000022" class="edge">
<title>Node22&#45;&gt;Node16</title>
<g id="a_edge28_Node000016_Node000022"><a xlink:title=" ">
<path fill="none" stroke="orange" stroke-dasharray="5,2" d="M1449.39,-371.34C1492.02,-369.32 1544.92,-362.94 1589.25,-345.77 1622.07,-333.06 1653.9,-305.9 1670.43,-290.34"/>
<polygon fill="orange" stroke="orange" points="1449.3,-367.84 1439.45,-371.74 1449.58,-374.84 1449.3,-367.84"/>
</a>
</g>
<text text-anchor="middle" x="1526.12" y="-375" font-family="Helvetica,sans-Serif" font-size="10.00" fill="grey"> &lt; Complex &gt;</text>
</g>
<!-- Node23 -->
<g id="Node000023" class="node">
<title>Node23</title>
<g id="a_Node000023"><a xlink:title=" ">
<polygon fill="white" stroke="#bfbfbf" points="1095,-371.15 980.75,-371.15 980.75,-320.4 1095,-320.4 1095,-371.15"/>
<text text-anchor="start" x="988.75" y="-357.65" font-family="Helvetica,sans-Serif" font-size="10.00">std::enable_shared</text>
<text text-anchor="start" x="988.75" y="-343.4" font-family="Helvetica,sans-Serif" font-size="10.00">_from_this&lt; SimNode</text>
<text text-anchor="middle" x="1037.88" y="-329.15" font-family="Helvetica,sans-Serif" font-size="10.00">&lt; VarType &gt; &gt;</text>
</a>
</g>
</g>
<!-- Node23&#45;&gt;Node22 -->
<g id="edge30_Node000022_Node000023" class="edge">
<title>Node23&#45;&gt;Node22</title>
<g id="a_edge30_Node000022_Node000023"><a xlink:title=" ">
<path fill="none" stroke="#63b8ff" d="M1106.55,-357.04C1114.28,-358.08 1122.05,-359.03 1129.5,-359.77 1187.35,-365.55 1253.38,-368.3 1301.41,-369.6"/>
<polygon fill="#63b8ff" stroke="#63b8ff" points="1107.21,-353.6 1096.82,-355.66 1106.23,-360.53 1107.21,-353.6"/>
</a>
</g>
</g>
<!-- Node24&#45;&gt;Node22 -->
<g id="edge31_Node000022_Node000024" class="edge">
<title>Node24&#45;&gt;Node22</title>
<g id="a_edge31_Node000022_Node000024"><a xlink:title=" ">
<path fill="none" stroke="#63b8ff" d="M1103.17,-266.13C1151.25,-283.13 1218.48,-307.49 1276.75,-330.77 1299.42,-339.83 1324.85,-350.94 1343.23,-359.16"/>
<polygon fill="#63b8ff" stroke="#63b8ff" points="1104.62,-262.93 1094.02,-262.9 1102.29,-269.53 1104.62,-262.93"/>
</a>
</g>
</g>
<!-- Node25&#45;&gt;Node22 -->
<g id="edge33_Node000022_Node000025" class="edge">
<title>Node25&#45;&gt;Node22</title>
<g id="a_edge33_Node000022_Node000025"><a xlink:title=" ">
<path fill="none" stroke="#9a32cd" stroke-dasharray="5,2" d="M608.81,-416.72C744.9,-409.6 1033.28,-394.03 1276.75,-377.77 1284.75,-377.24 1293.14,-376.64 1301.46,-376.04"/>
<polygon fill="#9a32cd" stroke="#9a32cd" points="609.01,-413.2 599.21,-417.22 609.38,-420.2 609.01,-413.2"/>
</a>
</g>
<text text-anchor="middle" x="880.62" y="-424.3" font-family="Helvetica,sans-Serif" font-size="10.00" fill="grey"> mApparentPower</text>
<text text-anchor="middle" x="880.62" y="-410.05" font-family="Helvetica,sans-Serif" font-size="10.00" fill="grey">mVoltage</text>
</g>
<!-- Node25&#45;&gt;Node29 -->
<g id="edge43_Node000029_Node000025" class="edge">
<title>Node25&#45;&gt;Node29</title>
<g id="a_edge43_Node000029_Node000025"><a xlink:title=" ">
<path fill="none" stroke="#9a32cd" stroke-dasharray="5,2" d="M608.8,-428.77C695.66,-437.31 839.8,-450.59 964.25,-457.77 1037.61,-462.01 1056.05,-460.59 1129.5,-462.77 1191.21,-464.61 1261.88,-466.67 1310.34,-468.08"/>
<polygon fill="#9a32cd" stroke="#9a32cd" points="609.26,-425.3 598.96,-427.8 608.57,-432.27 609.26,-425.3"/>
</a>
</g>
<text text-anchor="middle" x="880.62" y="-475.42" font-family="Helvetica,sans-Serif" font-size="10.00" fill="grey"> mIntfCurrent</text>
<text text-anchor="middle" x="880.62" y="-461.17" font-family="Helvetica,sans-Serif" font-size="10.00" fill="grey">mIntfVoltage</text>
</g>
<!-- Node26 -->
<g id="Node000026" class="node">
<title>Node26</title>
<g id="a_Node000026"><a xlink:title=" ">
<polygon fill="white" stroke="#bfbfbf" points="294,-499.15 152.75,-499.15 152.75,-448.4 294,-448.4 294,-499.15"/>
<text text-anchor="start" x="160.75" y="-485.65" font-family="Helvetica,sans-Serif" font-size="10.00">std::enable_shared</text>
<text text-anchor="start" x="160.75" y="-471.4" font-family="Helvetica,sans-Serif" font-size="10.00">_from_this&lt; Attribute</text>
<text text-anchor="middle" x="223.38" y="-457.15" font-family="Helvetica,sans-Serif" font-size="10.00">&lt; MatrixVar&lt; VarType &gt; &gt; &gt;</text>
</a>
</g>
</g>
<!-- Node26&#45;&gt;Node25 -->
<g id="edge35_Node000025_Node000026" class="edge">
<title>Node26&#45;&gt;Node25</title>
<g id="a_edge35_Node000025_Node000026"><a xlink:title=" ">
<path fill="none" stroke="#63b8ff" d="M305.53,-480.11C344.74,-481.08 392.15,-479.17 433.5,-468.77 457.11,-462.83 481.56,-450.26 499.71,-439.47"/>
<polygon fill="#63b8ff" stroke="#63b8ff" points="305.79,-476.61 295.68,-479.79 305.56,-483.61 305.79,-476.61"/>
</a>
</g>
</g>
<!-- Node27&#45;&gt;Node2 -->
<g id="edge37_Node000002_Node000027" class="edge">
<title>Node27&#45;&gt;Node2</title>
<g id="a_edge37_Node000002_Node000027"><a xlink:title=" ">
<path fill="none" stroke="#9a32cd" stroke-dasharray="5,2" d="M608.58,-30.4C647.43,-22.82 695.19,-15.77 738.5,-15.77 738.5,-15.77 738.5,-15.77 1684.12,-15.77 1741.79,-15.77 1874.87,-140.05 1924.17,-188.11"/>
<polygon fill="#9a32cd" stroke="#9a32cd" points="607.95,-26.96 598.83,-32.36 609.33,-33.82 607.95,-26.96"/>
</a>
</g>
<text text-anchor="middle" x="1203.12" y="-34.77" font-family="Helvetica,sans-Serif" font-size="10.00" fill="grey"> mIntfCurrent</text>
<text text-anchor="middle" x="1203.12" y="-20.52" font-family="Helvetica,sans-Serif" font-size="10.00" fill="grey">mIntfVoltage</text>
</g>
<!-- Node28 -->
<g id="Node000028" class="node">
<title>Node28</title>
<g id="a_Node000028"><a xlink:title=" ">
<polygon fill="white" stroke="#bfbfbf" points="294.75,-101.15 152,-101.15 152,-50.4 294.75,-50.4 294.75,-101.15"/>
<text text-anchor="start" x="160" y="-87.65" font-family="Helvetica,sans-Serif" font-size="10.00">std::enable_shared</text>
<text text-anchor="start" x="160" y="-73.4" font-family="Helvetica,sans-Serif" font-size="10.00">_from_this&lt; Attribute</text>
<text text-anchor="middle" x="223.38" y="-59.15" font-family="Helvetica,sans-Serif" font-size="10.00">&lt; MatrixVar&lt; Complex &gt; &gt; &gt;</text>
</a>
</g>
</g>
<!-- Node28&#45;&gt;Node27 -->
<g id="edge39_Node000027_Node000028" class="edge">
<title>Node28&#45;&gt;Node27</title>
<g id="a_edge39_Node000027_Node000028"><a xlink:title=" ">
<path fill="none" stroke="#63b8ff" d="M306.63,-68.46C355,-64.17 415.41,-58.8 460.93,-54.75"/>
<polygon fill="#63b8ff" stroke="#63b8ff" points="306.4,-64.97 296.74,-69.34 307.01,-71.94 306.4,-64.97"/>
</a>
</g>
</g>
<!-- Node29&#45;&gt;Node2 -->
<g id="edge41_Node000002_Node000029" class="edge">
<title>Node29&#45;&gt;Node2</title>
<g id="a_edge41_Node000002_Node000029"><a xlink:title=" ">
<path fill="none" stroke="orange" stroke-dasharray="5,2" d="M1440.74,-486.23C1541.08,-505.57 1727.22,-524.96 1848.25,-437.77 1919.82,-386.21 1937.48,-270.66 1941.71,-225.43"/>
<polygon fill="orange" stroke="orange" points="1441.51,-482.81 1431.02,-484.29 1440.14,-489.68 1441.51,-482.81"/>
</a>
</g>
<text text-anchor="middle" x="1683.12" y="-507.43" font-family="Helvetica,sans-Serif" font-size="10.00" fill="grey"> &lt; Complex &gt;</text>
</g>
<!-- Node30&#45;&gt;Node1 -->
<g id="edge44_Node000001_Node000030" class="edge">
<title>Node30&#45;&gt;Node1</title>
<g id="a_edge44_Node000001_Node000030"><a xlink:title=" ">
<path fill="none" stroke="#63b8ff" d="M1600.87,-84.02C1720.41,-105.5 1953.66,-147.41 2058.38,-166.23"/>
<polygon fill="#63b8ff" stroke="#63b8ff" points="1601.61,-80.6 1591.15,-82.28 1600.38,-87.49 1601.61,-80.6"/>
</a>
</g>
</g>
<!-- Node31 -->
<g id="Node000031" class="node">
<title>Node31</title>
<g id="a_Node000031"><a xlink:href="class_c_p_s_1_1_p_f_solver_interface_branch.html" target="_top" xlink:title="Common base class of all Component templates.">
<polygon fill="white" stroke="#666666" points="2021.75,-117.9 1866.25,-117.9 1866.25,-95.65 2021.75,-95.65 2021.75,-117.9"/>
<text text-anchor="middle" x="1944" y="-104.4" font-family="Helvetica,sans-Serif" font-size="10.00">CPS::PFSolverInterfaceBranch</text>
</a>
</g>
</g>
<!-- Node31&#45;&gt;Node1 -->
<g id="edge46_Node000001_Node000031" class="edge">
<title>Node31&#45;&gt;Node1</title>
<g id="a_edge46_Node000001_Node000031"><a xlink:title=" ">
<path fill="none" stroke="#63b8ff" d="M2011.92,-121.48C2021.75,-124.43 2031.63,-127.85 2040.75,-131.77 2060.95,-140.45 2082.1,-154.34 2095.96,-164.18"/>
<polygon fill="#63b8ff" stroke="#63b8ff" points="2012.92,-118.12 2002.34,-118.76 2011.01,-124.86 2012.92,-118.12"/>
</a>
</g>
</g>
<!-- Node32&#45;&gt;Node1 -->
<g id="edge47_Node000001_Node000032" class="edge">
<title>Node32&#45;&gt;Node1</title>
<g id="a_edge47_Node000001_Node000032"><a xlink:title=" ">
<path fill="none" stroke="#9a32cd" stroke-dasharray="5,2" d="M599.96,-536.27C640.41,-536.02 692.33,-535.77 738.5,-535.77 738.5,-535.77 738.5,-535.77 1945,-535.77 2102.35,-535.77 2111.45,-248.96 2111.6,-187.34"/>
<polygon fill="#9a32cd" stroke="#9a32cd" points="600.09,-532.77 590.11,-536.33 600.13,-539.77 600.09,-532.77"/>
</a>
</g>
<text text-anchor="middle" x="1369.88" y="-583.27" font-family="Helvetica,sans-Serif" font-size="10.00" fill="grey"> mConductance</text>
<text text-anchor="middle" x="1369.88" y="-569.02" font-family="Helvetica,sans-Serif" font-size="10.00" fill="grey">mConductancePerUnit</text>
<text text-anchor="middle" x="1369.88" y="-554.77" font-family="Helvetica,sans-Serif" font-size="10.00" fill="grey">mSusceptance</text>
<text text-anchor="middle" x="1369.88" y="-540.52" font-family="Helvetica,sans-Serif" font-size="10.00" fill="grey">mSusceptancePerUnit</text>
</g>
<!-- Node33 -->
<g id="Node000033" class="node">
<title>Node33</title>
<g id="a_Node000033"><a xlink:title=" ">
<polygon fill="white" stroke="#bfbfbf" points="280.88,-568.15 165.88,-568.15 165.88,-517.4 280.88,-517.4 280.88,-568.15"/>
<text text-anchor="start" x="173.88" y="-554.65" font-family="Helvetica,sans-Serif" font-size="10.00">std::enable_shared</text>
<text text-anchor="start" x="173.88" y="-540.4" font-family="Helvetica,sans-Serif" font-size="10.00">_from_this&lt; Attribute</text>
<text text-anchor="middle" x="223.38" y="-526.15" font-family="Helvetica,sans-Serif" font-size="10.00">&lt; Real &gt; &gt;</text>
</a>
</g>
</g>
<!-- Node33&#45;&gt;Node32 -->
<g id="edge49_Node000032_Node000033" class="edge">
<title>Node33&#45;&gt;Node32</title>
<g id="a_edge49_Node000032_Node000033"><a xlink:title=" ">
<path fill="none" stroke="#63b8ff" d="M292.58,-541.43C345.92,-540.37 419.28,-538.92 469.92,-537.92"/>
<polygon fill="#63b8ff" stroke="#63b8ff" points="292.62,-537.92 282.69,-541.62 292.76,-544.92 292.62,-537.92"/>
</a>
</g>
</g>
</g>
</svg>
