<?xml version="1.0" encoding="UTF-8" standalone="no"?>
<!DOCTYPE svg PUBLIC "-//W3C//DTD SVG 1.1//EN"
 "http://www.w3.org/Graphics/SVG/1.1/DTD/svg11.dtd">
<!-- Generated by graphviz version 12.2.1 (20241206.2353)
 -->
<!-- Title: CPS::Signal::DecouplingIdealTransformer_EMT_Ph3 Pages: 1 -->
<svg width="374pt" height="264pt"
 viewBox="0.00 0.00 373.88 264.00" xmlns="http://www.w3.org/2000/svg" xmlns:xlink="http://www.w3.org/1999/xlink">
<g id="graph0" class="graph" transform="scale(1 1) rotate(0) translate(4 260)">
<title>CPS::Signal::DecouplingIdealTransformer_EMT_Ph3</title>
<!-- Node1 -->
<g id="Node000001" class="node">
<title>Node1</title>
<g id="a_Node000001"><a xlink:title=" ">
<polygon fill="#999999" stroke="#666666" points="220.12,-36.5 72.12,-36.5 72.12,0 220.12,0 220.12,-36.5"/>
<text text-anchor="start" x="80.12" y="-23" font-family="Helvetica,sans-Serif" font-size="10.00">CPS::Signal::DecouplingIdeal</text>
<text text-anchor="middle" x="146.12" y="-8.75" font-family="Helvetica,sans-Serif" font-size="10.00">Transformer_EMT_Ph3</text>
</a>
</g>
</g>
<!-- Node2 -->
<g id="Node000002" class="node">
<title>Node2</title>
<g id="a_Node000002"><a xlink:href="class_c_p_s_1_1_sim_signal_comp.html" target="_top" xlink:title=" ">
<polygon fill="white" stroke="#666666" points="127,-102.88 17.25,-102.88 17.25,-80.62 127,-80.62 127,-102.88"/>
<text text-anchor="middle" x="72.12" y="-89.38" font-family="Helvetica,sans-Serif" font-size="10.00">CPS::SimSignalComp</text>
</a>
</g>
</g>
<!-- Node2&#45;&gt;Node1 -->
<g id="edge1_Node000001_Node000002" class="edge">
<title>Node2&#45;&gt;Node1</title>
<g id="a_edge1_Node000001_Node000002"><a xlink:title=" ">
<path fill="none" stroke="#63b8ff" d="M91.04,-72.48C102.4,-61.5 116.77,-47.62 127.98,-36.78"/>
<polygon fill="#63b8ff" stroke="#63b8ff" points="88.89,-69.68 84.13,-79.15 93.76,-74.72 88.89,-69.68"/>
</a>
</g>
</g>
<!-- Node3 -->
<g id="Node000003" class="node">
<title>Node3</title>
<g id="a_Node000003"><a xlink:href="class_c_p_s_1_1_topological_signal_comp.html" target="_top" xlink:title=" ">
<polygon fill="white" stroke="#666666" points="144.25,-196.75 0,-196.75 0,-174.5 144.25,-174.5 144.25,-196.75"/>
<text text-anchor="middle" x="72.12" y="-183.25" font-family="Helvetica,sans-Serif" font-size="10.00">CPS::TopologicalSignalComp</text>
</a>
</g>
</g>
<!-- Node3&#45;&gt;Node2 -->
<g id="edge2_Node000002_Node000003" class="edge">
<title>Node3&#45;&gt;Node2</title>
<g id="a_edge2_Node000002_Node000003"><a xlink:title=" ">
<path fill="none" stroke="#63b8ff" d="M72.12,-162.74C72.12,-143.91 72.12,-117.57 72.12,-103.17"/>
<polygon fill="#63b8ff" stroke="#63b8ff" points="68.63,-162.57 72.13,-172.57 75.63,-162.57 68.63,-162.57"/>
</a>
</g>
</g>
<!-- Node4 -->
<g id="Node000004" class="node">
<title>Node4</title>
<g id="a_Node000004"><a xlink:href="class_c_p_s_1_1_identified_object.html" target="_top" xlink:title=" ">
<polygon fill="white" stroke="#666666" points="129.62,-256 14.62,-256 14.62,-233.75 129.62,-233.75 129.62,-256"/>
<text text-anchor="middle" x="72.12" y="-242.5" font-family="Helvetica,sans-Serif" font-size="10.00">CPS::IdentifiedObject</text>
</a>
</g>
</g>
<!-- Node4&#45;&gt;Node3 -->
<g id="edge3_Node000003_Node000004" class="edge">
<title>Node4&#45;&gt;Node3</title>
<g id="a_edge3_Node000003_Node000004"><a xlink:title=" ">
<path fill="none" stroke="#63b8ff" d="M72.12,-222.15C72.12,-213.55 72.12,-204.06 72.12,-197.06"/>
<polygon fill="#63b8ff" stroke="#63b8ff" points="68.63,-221.86 72.13,-231.86 75.63,-221.86 68.63,-221.86"/>
</a>
</g>
</g>
<!-- Node5 -->
<g id="Node000005" class="node">
<title>Node5</title>
<g id="a_Node000005"><a xlink:href="class_shared_factory.html" target="_top" xlink:title=" ">
<polygon fill="white" stroke="#666666" points="297.38,-110 144.88,-110 144.88,-73.5 297.38,-73.5 297.38,-110"/>
<text text-anchor="start" x="152.88" y="-96.5" font-family="Helvetica,sans-Serif" font-size="10.00">SharedFactory&lt; Decoupling</text>
<text text-anchor="middle" x="221.12" y="-82.25" font-family="Helvetica,sans-Serif" font-size="10.00">IdealTransformer_EMT_Ph3 &gt;</text>
</a>
</g>
</g>
<!-- Node5&#45;&gt;Node1 -->
<g id="edge4_Node000001_Node000005" class="edge">
<title>Node5&#45;&gt;Node1</title>
<g id="a_edge4_Node000001_Node000005"><a xlink:title=" ">
<path fill="none" stroke="#63b8ff" d="M194.32,-65.19C184.51,-55.85 173.64,-45.48 164.71,-36.97"/>
<polygon fill="#63b8ff" stroke="#63b8ff" points="191.84,-67.66 201.49,-72.03 196.67,-62.6 191.84,-67.66"/>
</a>
</g>
</g>
<!-- Node6 -->
<g id="Node000006" class="node">
<title>Node6</title>
<g id="a_Node000006"><a xlink:href="class_shared_factory.html" target="_top" xlink:title=" ">
<polygon fill="white" stroke="#666666" points="273.38,-196.75 168.88,-196.75 168.88,-174.5 273.38,-174.5 273.38,-196.75"/>
<text text-anchor="middle" x="221.12" y="-183.25" font-family="Helvetica,sans-Serif" font-size="10.00">SharedFactory&lt; T &gt;</text>
</a>
</g>
</g>
<!-- Node6&#45;&gt;Node5 -->
<g id="edge5_Node000005_Node000006" class="edge">
<title>Node6&#45;&gt;Node5</title>
<g id="a_edge5_Node000005_Node000006"><a xlink:title=" ">
<path fill="none" stroke="orange" stroke-dasharray="5,2" d="M221.12,-162.64C221.12,-146.64 221.12,-125.26 221.12,-110.38"/>
<polygon fill="orange" stroke="orange" points="217.63,-162.57 221.13,-172.57 224.63,-162.57 217.63,-162.57"/>
</a>
</g>
<text text-anchor="start" x="221.12" y="-147" font-family="Helvetica,sans-Serif" font-size="10.00" fill="grey"> &lt; DecouplingIdealTransformer</text>
<text text-anchor="middle" x="293.5" y="-132.75" font-family="Helvetica,sans-Serif" font-size="10.00" fill="grey">_EMT_Ph3 &gt;</text>
</g>
</g>
</svg>
