<?xml version="1.0" encoding="UTF-8" standalone="no"?>
<!DOCTYPE svg PUBLIC "-//W3C//DTD SVG 1.1//EN"
 "http://www.w3.org/Graphics/SVG/1.1/DTD/svg11.dtd">
<!-- Generated by graphviz version 2.50.0 (0)
 -->
<!-- Title: CPS::SP::Ph1::SynchronGenerator Pages: 1 -->
<!--zoomable 367 -->
<svg id="main" version="1.1" xmlns="http://www.w3.org/2000/svg" xmlns:xlink="http://www.w3.org/1999/xlink" xml:space="preserve" onload="init(evt)">
<style type="text/css"><![CDATA[
.edge:hover path { stroke: red; }
.edge:hover polygon { stroke: red; fill: red; }
]]></style>
<script type="text/javascript"><![CDATA[
var edges = document.getElementsByTagName('g');
if (edges && edges.length) {
  for (var i=0;i<edges.length;i++) {
    if (edges[i].id.substr(0,4)=='edge') {
      edges[i].setAttribute('class','edge');
    }
  }
}
]]></script>
        <defs>
                <circle id="rim" cx="0" cy="0" r="7"/>
                <circle id="rim2" cx="0" cy="0" r="3.5"/>
                <g id="zoomPlus">
                        <use xlink:href="#rim" fill="#404040">
                                <set attributeName="fill" to="#808080" begin="zoomplus.mouseover" end="zoomplus.mouseout"/>
                        </use>
                        <path d="M-4,0h8M0,-4v8" fill="none" stroke="white" stroke-width="1.5" pointer-events="none"/>
                </g>
                <g id="zoomMin">
                        <use xlink:href="#rim" fill="#404040">
                                <set attributeName="fill" to="#808080" begin="zoomminus.mouseover" end="zoomminus.mouseout"/>
                        </use>
                        <path d="M-4,0h8" fill="none" stroke="white" stroke-width="1.5" pointer-events="none"/>
                </g>
                <g id="dirArrow">
                        <path fill="none" stroke="white" stroke-width="1.5" d="M0,-3.0v7 M-2.5,-0.5L0,-3.0L2.5,-0.5"/>
                </g>
               <g id="resetDef">
                       <use xlink:href="#rim2" fill="#404040">
                               <set attributeName="fill" to="#808080" begin="reset.mouseover" end="reset.mouseout"/>
                       </use>
               </g>
        </defs>

<script type="text/javascript">
var viewWidth = 1874;
var viewHeight = 367;
var sectionId = 'dynsection-1';
</script>
<script xlink:href="svgpan.js"/>
<svg id="graph" class="graph">
<g id="viewport">
<title>CPS::SP::Ph1::SynchronGenerator</title>
<!-- Node1 -->
<g id="node1" class="node">
<title>Node1</title>
<g id="a_node1"><a xlink:title=" ">
<polygon fill="#bfbfbf" stroke="black" points="1693,-193.5 1693,-212.5 1866,-212.5 1866,-193.5 1693,-193.5"/>
<text text-anchor="middle" x="1779.5" y="-200.5" font-family="Helvetica,sans-Serif" font-size="10.00">CPS::SP::Ph1::SynchronGenerator</text>
</a>
</g>
</g>
<!-- Node2 -->
<g id="node2" class="node">
<title>Node2</title>
<g id="a_node2"><a xlink:href="class_c_p_s_1_1_sim_power_comp.html" target="_top" xlink:title=" ">
<polygon fill="none" stroke="black" points="1501,-125 1501,-155 1620,-155 1620,-125 1501,-125"/>
<text text-anchor="start" x="1509" y="-143" font-family="Helvetica,sans-Serif" font-size="10.00">CPS::SimPowerComp&lt;</text>
<text text-anchor="middle" x="1560.5" y="-132" font-family="Helvetica,sans-Serif" font-size="10.00"> Complex &gt;</text>
</a>
</g>
</g>
<!-- Node2&#45;&gt;Node1 -->
<g id="edge1" class="edge">
<title>Node2&#45;&gt;Node1</title>
<path fill="none" stroke="midnightblue" d="M1629.75,-157.69C1638.6,-160.09 1647.53,-162.57 1656,-165 1687.89,-174.16 1724.15,-185.53 1748.9,-193.43"/>
<polygon fill="midnightblue" stroke="midnightblue" points="1630.4,-154.24 1619.83,-155.02 1628.58,-161 1630.4,-154.24"/>
</g>
<!-- Node3 -->
<g id="node3" class="node">
<title>Node3</title>
<g id="a_node3"><a xlink:href="class_c_p_s_1_1_topological_power_comp.html" target="_top" xlink:title=" ">
<polygon fill="none" stroke="black" points="881,-132.5 881,-151.5 1029,-151.5 1029,-132.5 881,-132.5"/>
<text text-anchor="middle" x="955" y="-139.5" font-family="Helvetica,sans-Serif" font-size="10.00">CPS::TopologicalPowerComp</text>
</a>
</g>
</g>
<!-- Node3&#45;&gt;Node2 -->
<g id="edge2" class="edge">
<title>Node3&#45;&gt;Node2</title>
<path fill="none" stroke="midnightblue" d="M1039.29,-141.72C1163.26,-141.31 1393.21,-140.55 1500.95,-140.19"/>
<polygon fill="midnightblue" stroke="midnightblue" points="1039.08,-138.22 1029.1,-141.76 1039.11,-145.22 1039.08,-138.22"/>
</g>
<!-- Node10 -->
<g id="node10" class="node">
<title>Node10</title>
<g id="a_node10"><a xlink:href="class_c_p_s_1_1_sim_power_comp.html" target="_top" xlink:title="Base class for all components that are transmitting power.">
<polygon fill="none" stroke="black" points="1199,-83 1199,-113 1318,-113 1318,-83 1199,-83"/>
<text text-anchor="start" x="1207" y="-101" font-family="Helvetica,sans-Serif" font-size="10.00">CPS::SimPowerComp&lt;</text>
<text text-anchor="middle" x="1258.5" y="-90" font-family="Helvetica,sans-Serif" font-size="10.00"> VarType &gt;</text>
</a>
</g>
</g>
<!-- Node3&#45;&gt;Node10 -->
<g id="edge11" class="edge">
<title>Node3&#45;&gt;Node10</title>
<path fill="none" stroke="midnightblue" d="M1031.56,-130.97C1083.36,-123.41 1151.09,-113.53 1198.84,-106.56"/>
<polygon fill="midnightblue" stroke="midnightblue" points="1030.81,-127.55 1021.42,-132.45 1031.82,-134.47 1030.81,-127.55"/>
</g>
<!-- Node4 -->
<g id="node4" class="node">
<title>Node4</title>
<g id="a_node4"><a xlink:href="class_c_p_s_1_1_identified_object.html" target="_top" xlink:title=" ">
<polygon fill="none" stroke="black" points="664,-139.5 664,-158.5 780,-158.5 780,-139.5 664,-139.5"/>
<text text-anchor="middle" x="722" y="-146.5" font-family="Helvetica,sans-Serif" font-size="10.00">CPS::IdentifiedObject</text>
</a>
</g>
</g>
<!-- Node4&#45;&gt;Node3 -->
<g id="edge3" class="edge">
<title>Node4&#45;&gt;Node3</title>
<path fill="none" stroke="midnightblue" d="M790.34,-146.96C818.77,-146.1 851.94,-145.09 880.96,-144.21"/>
<polygon fill="midnightblue" stroke="midnightblue" points="789.99,-143.47 780.1,-147.27 790.2,-150.47 789.99,-143.47"/>
</g>
<!-- Node5 -->
<g id="node5" class="node">
<title>Node5</title>
<g id="a_node5"><a xlink:href="class_c_p_s_1_1_attribute.html" target="_top" xlink:title=" ">
<polygon fill="none" stroke="black" points="456,-153.5 456,-172.5 583,-172.5 583,-153.5 456,-153.5"/>
<text text-anchor="middle" x="519.5" y="-160.5" font-family="Helvetica,sans-Serif" font-size="10.00">CPS::Attribute&lt; String &gt;</text>
</a>
</g>
</g>
<!-- Node5&#45;&gt;Node4 -->
<g id="edge4" class="edge">
<title>Node5&#45;&gt;Node4</title>
<path fill="none" stroke="#9a32cd" stroke-dasharray="5,2" d="M593.29,-157.92C616.56,-156.29 641.98,-154.52 663.97,-152.98"/>
<polygon fill="#9a32cd" stroke="#9a32cd" points="592.85,-154.44 583.11,-158.63 593.33,-161.42 592.85,-154.44"/>
<text text-anchor="middle" x="626" y="-171" font-family="Helvetica,sans-Serif" font-size="10.00"> mName</text>
<text text-anchor="middle" x="626" y="-160" font-family="Helvetica,sans-Serif" font-size="10.00">mUID</text>
</g>
<!-- Node6 -->
<g id="node6" class="node">
<title>Node6</title>
<g id="a_node6"><a xlink:href="class_c_p_s_1_1_attribute_base.html" target="_top" xlink:title=" ">
<polygon fill="none" stroke="black" points="5.5,-185.5 5.5,-204.5 110.5,-204.5 110.5,-185.5 5.5,-185.5"/>
<text text-anchor="middle" x="58" y="-192.5" font-family="Helvetica,sans-Serif" font-size="10.00">CPS::AttributeBase</text>
</a>
</g>
</g>
<!-- Node6&#45;&gt;Node5 -->
<g id="edge5" class="edge">
<title>Node6&#45;&gt;Node5</title>
<path fill="none" stroke="midnightblue" d="M114.76,-206.32C188.72,-219.22 322.76,-235.24 433,-208 460.68,-201.16 489.3,-183.56 505.41,-172.51"/>
<polygon fill="midnightblue" stroke="midnightblue" points="115.19,-202.84 104.73,-204.53 113.96,-209.73 115.19,-202.84"/>
</g>
<!-- Node8 -->
<g id="node8" class="node">
<title>Node8</title>
<g id="a_node8"><a xlink:href="class_c_p_s_1_1_attribute.html" target="_top" xlink:title=" ">
<polygon fill="none" stroke="black" points="172,-104.5 172,-123.5 276,-123.5 276,-104.5 172,-104.5"/>
<text text-anchor="middle" x="224" y="-111.5" font-family="Helvetica,sans-Serif" font-size="10.00">CPS::Attribute&lt; T &gt;</text>
</a>
</g>
</g>
<!-- Node6&#45;&gt;Node8 -->
<g id="edge8" class="edge">
<title>Node6&#45;&gt;Node8</title>
<path fill="none" stroke="midnightblue" d="M78.87,-179.17C97.18,-165.26 125.59,-145.37 153,-133 161.26,-129.27 170.42,-126.13 179.3,-123.55"/>
<polygon fill="midnightblue" stroke="midnightblue" points="76.51,-176.57 70.74,-185.45 80.79,-182.11 76.51,-176.57"/>
</g>
<!-- Node11 -->
<g id="node11" class="node">
<title>Node11</title>
<g id="a_node11"><a xlink:href="class_c_p_s_1_1_attribute.html" target="_top" xlink:title=" ">
<polygon fill="none" stroke="black" points="451,-71 451,-101 588,-101 588,-71 451,-71"/>
<text text-anchor="start" x="459" y="-89" font-family="Helvetica,sans-Serif" font-size="10.00">CPS::Attribute&lt; MatrixVar</text>
<text text-anchor="middle" x="519.5" y="-78" font-family="Helvetica,sans-Serif" font-size="10.00">&lt; VarType &gt; &gt;</text>
</a>
</g>
</g>
<!-- Node6&#45;&gt;Node11 -->
<g id="edge13" class="edge">
<title>Node6&#45;&gt;Node11</title>
<path fill="none" stroke="midnightblue" d="M69.89,-176.41C85.05,-152.54 115.01,-112.14 153,-95 249.19,-51.61 374.59,-60.78 450.7,-72.54"/>
<polygon fill="midnightblue" stroke="midnightblue" points="66.72,-174.88 64.48,-185.23 72.69,-178.54 66.72,-174.88"/>
</g>
<!-- Node16 -->
<g id="node16" class="node">
<title>Node16</title>
<g id="a_node16"><a xlink:href="class_c_p_s_1_1_attribute.html" target="_top" xlink:title=" ">
<polygon fill="none" stroke="black" points="460,-250.5 460,-269.5 579,-269.5 579,-250.5 460,-250.5"/>
<text text-anchor="middle" x="519.5" y="-257.5" font-family="Helvetica,sans-Serif" font-size="10.00">CPS::Attribute&lt; Real &gt;</text>
</a>
</g>
</g>
<!-- Node6&#45;&gt;Node16 -->
<g id="edge20" class="edge">
<title>Node6&#45;&gt;Node16</title>
<path fill="none" stroke="midnightblue" d="M88.22,-208.68C106.44,-216.59 130.61,-225.93 153,-231 259.32,-255.05 386.95,-259.9 459.81,-260.48"/>
<polygon fill="midnightblue" stroke="midnightblue" points="89.57,-205.46 79.01,-204.6 86.73,-211.86 89.57,-205.46"/>
</g>
<!-- Node7 -->
<g id="node7" class="node">
<title>Node7</title>
<g id="a_node7"><a xlink:title=" ">
<polygon fill="none" stroke="#bfbfbf" points="166,-142.5 166,-183.5 282,-183.5 282,-142.5 166,-142.5"/>
<text text-anchor="start" x="174" y="-171.5" font-family="Helvetica,sans-Serif" font-size="10.00">std::enable_shared</text>
<text text-anchor="start" x="174" y="-160.5" font-family="Helvetica,sans-Serif" font-size="10.00">_from_this&lt; Attribute</text>
<text text-anchor="middle" x="224" y="-149.5" font-family="Helvetica,sans-Serif" font-size="10.00">&lt; String &gt; &gt;</text>
</a>
</g>
</g>
<!-- Node7&#45;&gt;Node5 -->
<g id="edge6" class="edge">
<title>Node7&#45;&gt;Node5</title>
<path fill="none" stroke="midnightblue" d="M292.51,-163C341.66,-163 407.76,-163 455.77,-163"/>
<polygon fill="midnightblue" stroke="midnightblue" points="292.29,-159.5 282.29,-163 292.29,-166.5 292.29,-159.5"/>
</g>
<!-- Node8&#45;&gt;Node5 -->
<g id="edge7" class="edge">
<title>Node8&#45;&gt;Node5</title>
<path fill="none" stroke="orange" stroke-dasharray="5,2" d="M286.26,-123.82C327.71,-130.51 383.67,-139.64 433,-148 443.25,-149.74 454.19,-151.63 464.7,-153.46"/>
<polygon fill="orange" stroke="orange" points="286.74,-120.35 276.32,-122.22 285.63,-127.27 286.74,-120.35"/>
<text text-anchor="middle" x="373" y="-151" font-family="Helvetica,sans-Serif" font-size="10.00"> &lt; String &gt;</text>
</g>
<!-- Node8&#45;&gt;Node11 -->
<g id="edge15" class="edge">
<title>Node8&#45;&gt;Node11</title>
<path fill="none" stroke="orange" stroke-dasharray="5,2" d="M286.2,-106.84C295.19,-105.85 304.33,-104.87 313,-104 358.97,-99.38 410.79,-94.84 450.89,-91.48"/>
<polygon fill="orange" stroke="orange" points="285.71,-103.37 276.16,-107.96 286.49,-110.33 285.71,-103.37"/>
<text text-anchor="middle" x="373" y="-107" font-family="Helvetica,sans-Serif" font-size="10.00"> &lt; MatrixVar&lt; VarType &gt; &gt;</text>
</g>
<!-- Node8&#45;&gt;Node16 -->
<g id="edge22" class="edge">
<title>Node8&#45;&gt;Node16</title>
<path fill="none" stroke="orange" stroke-dasharray="5,2" d="M285.38,-126.99C288.77,-128.75 292.01,-130.74 295,-133 307.4,-142.38 301.47,-152.56 313,-163 363.6,-208.8 439.66,-237 483.66,-250.47"/>
<polygon fill="orange" stroke="orange" points="286.68,-123.74 276.12,-122.88 283.84,-130.14 286.68,-123.74"/>
<text text-anchor="middle" x="373" y="-233" font-family="Helvetica,sans-Serif" font-size="10.00"> &lt; Real &gt;</text>
</g>
<!-- Node9 -->
<g id="node9" class="node">
<title>Node9</title>
<g id="a_node9"><a xlink:title=" ">
<polygon fill="none" stroke="#bfbfbf" points="0,-24.5 0,-65.5 116,-65.5 116,-24.5 0,-24.5"/>
<text text-anchor="start" x="8" y="-53.5" font-family="Helvetica,sans-Serif" font-size="10.00">std::enable_shared</text>
<text text-anchor="start" x="8" y="-42.5" font-family="Helvetica,sans-Serif" font-size="10.00">_from_this&lt; Attribute</text>
<text text-anchor="middle" x="58" y="-31.5" font-family="Helvetica,sans-Serif" font-size="10.00">&lt; T &gt; &gt;</text>
</a>
</g>
</g>
<!-- Node9&#45;&gt;Node8 -->
<g id="edge9" class="edge">
<title>Node9&#45;&gt;Node8</title>
<path fill="none" stroke="midnightblue" d="M117.29,-69.52C145.93,-81.57 178.79,-95.4 200.17,-104.4"/>
<polygon fill="midnightblue" stroke="midnightblue" points="118.34,-66.17 107.76,-65.52 115.62,-72.62 118.34,-66.17"/>
</g>
<!-- Node10&#45;&gt;Node2 -->
<g id="edge10" class="edge">
<title>Node10&#45;&gt;Node2</title>
<path fill="none" stroke="orange" stroke-dasharray="5,2" d="M1328.64,-103.33C1364.13,-106.49 1407.99,-111.05 1447,-117 1464.54,-119.67 1483.48,-123.27 1500.73,-126.82"/>
<polygon fill="orange" stroke="orange" points="1328.65,-99.82 1318.39,-102.44 1328.04,-106.79 1328.65,-99.82"/>
<text text-anchor="middle" x="1391.5" y="-120" font-family="Helvetica,sans-Serif" font-size="10.00"> &lt; Complex &gt;</text>
</g>
<!-- Node11&#45;&gt;Node10 -->
<g id="edge12" class="edge">
<title>Node11&#45;&gt;Node10</title>
<path fill="none" stroke="#9a32cd" stroke-dasharray="5,2" d="M598.58,-87.27C747.06,-89.69 1067.08,-94.9 1198.91,-97.05"/>
<polygon fill="#9a32cd" stroke="#9a32cd" points="598.24,-83.77 588.19,-87.1 598.13,-90.76 598.24,-83.77"/>
<text text-anchor="middle" x="830.5" y="-106" font-family="Helvetica,sans-Serif" font-size="10.00"> mIntfCurrent</text>
<text text-anchor="middle" x="830.5" y="-95" font-family="Helvetica,sans-Serif" font-size="10.00">mIntfVoltage</text>
</g>
<!-- Node12 -->
<g id="node12" class="node">
<title>Node12</title>
<g id="a_node12"><a xlink:title=" ">
<polygon fill="none" stroke="#bfbfbf" points="153,-0.5 153,-41.5 295,-41.5 295,-0.5 153,-0.5"/>
<text text-anchor="start" x="161" y="-29.5" font-family="Helvetica,sans-Serif" font-size="10.00">std::enable_shared</text>
<text text-anchor="start" x="161" y="-18.5" font-family="Helvetica,sans-Serif" font-size="10.00">_from_this&lt; Attribute</text>
<text text-anchor="middle" x="224" y="-7.5" font-family="Helvetica,sans-Serif" font-size="10.00">&lt; MatrixVar&lt; VarType &gt; &gt; &gt;</text>
</a>
</g>
</g>
<!-- Node12&#45;&gt;Node11 -->
<g id="edge14" class="edge">
<title>Node12&#45;&gt;Node11</title>
<path fill="none" stroke="midnightblue" d="M305.64,-31.29C344.47,-37.08 391.5,-45.31 433,-56 448.69,-60.04 465.6,-65.69 480.2,-70.99"/>
<polygon fill="midnightblue" stroke="midnightblue" points="305.84,-27.78 295.43,-29.8 304.82,-34.71 305.84,-27.78"/>
</g>
<!-- Node13 -->
<g id="node13" class="node">
<title>Node13</title>
<g id="a_node13"><a xlink:href="class_shared_factory.html" target="_top" xlink:title=" ">
<polygon fill="none" stroke="black" points="1465,-212.5 1465,-231.5 1656,-231.5 1656,-212.5 1465,-212.5"/>
<text text-anchor="middle" x="1560.5" y="-219.5" font-family="Helvetica,sans-Serif" font-size="10.00">SharedFactory&lt; SynchronGenerator &gt;</text>
</a>
</g>
</g>
<!-- Node13&#45;&gt;Node1 -->
<g id="edge16" class="edge">
<title>Node13&#45;&gt;Node1</title>
<path fill="none" stroke="midnightblue" d="M1666.11,-212.84C1675.05,-212.06 1684.03,-211.27 1692.8,-210.5"/>
<polygon fill="midnightblue" stroke="midnightblue" points="1665.7,-209.36 1656.05,-213.72 1666.32,-216.34 1665.7,-209.36"/>
</g>
<!-- Node14 -->
<g id="node14" class="node">
<title>Node14</title>
<g id="a_node14"><a xlink:href="class_shared_factory.html" target="_top" xlink:title=" ">
<polygon fill="none" stroke="black" points="1206,-212.5 1206,-231.5 1311,-231.5 1311,-212.5 1206,-212.5"/>
<text text-anchor="middle" x="1258.5" y="-219.5" font-family="Helvetica,sans-Serif" font-size="10.00">SharedFactory&lt; T &gt;</text>
</a>
</g>
</g>
<!-- Node14&#45;&gt;Node13 -->
<g id="edge17" class="edge">
<title>Node14&#45;&gt;Node13</title>
<path fill="none" stroke="orange" stroke-dasharray="5,2" d="M1321.27,-222C1362.63,-222 1417.86,-222 1464.73,-222"/>
<polygon fill="orange" stroke="orange" points="1321.07,-218.5 1311.07,-222 1321.07,-225.5 1321.07,-218.5"/>
<text text-anchor="middle" x="1391.5" y="-225" font-family="Helvetica,sans-Serif" font-size="10.00"> &lt; SynchronGenerator &gt;</text>
</g>
<!-- Node15 -->
<g id="node15" class="node">
<title>Node15</title>
<g id="a_node15"><a xlink:href="class_c_p_s_1_1_p_f_solver_interface_bus.html" target="_top" xlink:title="Common base class of all Component templates.">
<polygon fill="none" stroke="black" points="1490,-174.5 1490,-193.5 1631,-193.5 1631,-174.5 1490,-174.5"/>
<text text-anchor="middle" x="1560.5" y="-181.5" font-family="Helvetica,sans-Serif" font-size="10.00">CPS::PFSolverInterfaceBus</text>
</a>
</g>
</g>
<!-- Node15&#45;&gt;Node1 -->
<g id="edge18" class="edge">
<title>Node15&#45;&gt;Node1</title>
<path fill="none" stroke="midnightblue" d="M1641.38,-190.99C1658.19,-192.47 1675.98,-194.02 1692.99,-195.51"/>
<polygon fill="midnightblue" stroke="midnightblue" points="1641.32,-187.48 1631.06,-190.09 1640.71,-194.45 1641.32,-187.48"/>
</g>
<!-- Node16&#45;&gt;Node1 -->
<g id="edge19" class="edge">
<title>Node16&#45;&gt;Node1</title>
<path fill="none" stroke="#9a32cd" stroke-dasharray="5,2" d="M589.39,-260C628.07,-260 677.22,-260 721,-260 721,-260 721,-260 1561.5,-260 1635.31,-260 1718.75,-228.77 1757.12,-212.54"/>
<polygon fill="#9a32cd" stroke="#9a32cd" points="589.28,-256.5 579.28,-260 589.28,-263.5 589.28,-256.5"/>
<text text-anchor="middle" x="1114" y="-351" font-family="Helvetica,sans-Serif" font-size="10.00"> mBaseVoltage</text>
<text text-anchor="middle" x="1114" y="-340" font-family="Helvetica,sans-Serif" font-size="10.00">mSetPointActivePower</text>
<text text-anchor="start" x="1047" y="-329" font-family="Helvetica,sans-Serif" font-size="10.00">mSetPointActivePowerPer</text>
<text text-anchor="middle" x="1114" y="-318" font-family="Helvetica,sans-Serif" font-size="10.00">Unit</text>
<text text-anchor="middle" x="1114" y="-307" font-family="Helvetica,sans-Serif" font-size="10.00">mSetPointReactivePower</text>
<text text-anchor="start" x="1047" y="-296" font-family="Helvetica,sans-Serif" font-size="10.00">mSetPointReactivePowerPer</text>
<text text-anchor="middle" x="1114" y="-285" font-family="Helvetica,sans-Serif" font-size="10.00">Unit</text>
<text text-anchor="middle" x="1114" y="-274" font-family="Helvetica,sans-Serif" font-size="10.00">mSetPointVoltage</text>
<text text-anchor="middle" x="1114" y="-263" font-family="Helvetica,sans-Serif" font-size="10.00">mSetPointVoltagePerUnit</text>
</g>
<!-- Node17 -->
<g id="node17" class="node">
<title>Node17</title>
<g id="a_node17"><a xlink:title=" ">
<polygon fill="none" stroke="#bfbfbf" points="166,-288.5 166,-329.5 282,-329.5 282,-288.5 166,-288.5"/>
<text text-anchor="start" x="174" y="-317.5" font-family="Helvetica,sans-Serif" font-size="10.00">std::enable_shared</text>
<text text-anchor="start" x="174" y="-306.5" font-family="Helvetica,sans-Serif" font-size="10.00">_from_this&lt; Attribute</text>
<text text-anchor="middle" x="224" y="-295.5" font-family="Helvetica,sans-Serif" font-size="10.00">&lt; Real &gt; &gt;</text>
</a>
</g>
</g>
<!-- Node17&#45;&gt;Node16 -->
<g id="edge21" class="edge">
<title>Node17&#45;&gt;Node16</title>
<path fill="none" stroke="midnightblue" d="M292.25,-297.77C343.37,-289.24 412.92,-277.63 461.36,-269.54"/>
<polygon fill="midnightblue" stroke="midnightblue" points="291.57,-294.34 282.29,-299.44 292.73,-301.24 291.57,-294.34"/>
</g>
</g>
</svg>
        <g id="navigator" transform="translate(0 0)" fill="#404254">
                <rect fill="#f2f5e9" fill-opacity="0.5" stroke="#606060" stroke-width=".5" x="0" y="0" width="60" height="60"/>
                <use id="zoomplus" xlink:href="#zoomPlus" x="17" y="9" onmousedown="handleZoom(evt,'in')"/>
                <use id="zoomminus" xlink:href="#zoomMin" x="42" y="9" onmousedown="handleZoom(evt,'out')"/>
                <use id="reset" xlink:href="#resetDef" x="30" y="36" onmousedown="handleReset()"/>
                <g id="arrowUp" xlink:href="#dirArrow" transform="translate(30 24)" onmousedown="handlePan(0,-1)">
                  <use xlink:href="#rim" fill="#404040">
                        <set attributeName="fill" to="#808080" begin="arrowUp.mouseover" end="arrowUp.mouseout"/>
                  </use>
                  <path fill="none" stroke="white" stroke-width="1.5" d="M0,-3.0v7 M-2.5,-0.5L0,-3.0L2.5,-0.5"/>
                </g>
                <g id="arrowRight" xlink:href="#dirArrow" transform="rotate(90) translate(36 -43)" onmousedown="handlePan(1,0)">
                  <use xlink:href="#rim" fill="#404040">
                        <set attributeName="fill" to="#808080" begin="arrowRight.mouseover" end="arrowRight.mouseout"/>
                  </use>
                  <path fill="none" stroke="white" stroke-width="1.5" d="M0,-3.0v7 M-2.5,-0.5L0,-3.0L2.5,-0.5"/>
                </g>
                <g id="arrowDown" xlink:href="#dirArrow" transform="rotate(180) translate(-30 -48)" onmousedown="handlePan(0,1)">
                  <use xlink:href="#rim" fill="#404040">
                        <set attributeName="fill" to="#808080" begin="arrowDown.mouseover" end="arrowDown.mouseout"/>
                  </use>
                  <path fill="none" stroke="white" stroke-width="1.5" d="M0,-3.0v7 M-2.5,-0.5L0,-3.0L2.5,-0.5"/>
                </g>
                <g id="arrowLeft" xlink:href="#dirArrow" transform="rotate(270) translate(-36 17)" onmousedown="handlePan(-1,0)">
                  <use xlink:href="#rim" fill="#404040">
                        <set attributeName="fill" to="#808080" begin="arrowLeft.mouseover" end="arrowLeft.mouseout"/>
                  </use>
                  <path fill="none" stroke="white" stroke-width="1.5" d="M0,-3.0v7 M-2.5,-0.5L0,-3.0L2.5,-0.5"/>
                </g>
        </g>
        <svg viewBox="0 0 15 15" width="100%" height="30px" preserveAspectRatio="xMaxYMin meet">
         <g id="arrow_out" transform="scale(0.3 0.3)">
          <a xlink:href="class_c_p_s_1_1_s_p_1_1_ph1_1_1_synchron_generator__coll__graph_org.svg" target="_base">
           <rect id="button" ry="5" rx="5" y="6" x="6" height="38" width="38"
                fill="#f2f5e9" fill-opacity="0.5" stroke="#606060" stroke-width="1.0"/>
           <path id="arrow"
             d="M 11.500037,31.436501 C 11.940474,20.09759 22.043105,11.32322 32.158766,21.979434 L 37.068811,17.246167 C 37.068811,17.246167 37.088388,32 37.088388,32 L 22.160133,31.978069 C 22.160133,31.978069 26.997745,27.140456 26.997745,27.140456 C 18.528582,18.264221 13.291696,25.230495 11.500037,31.436501 z"
             style="fill:#404040;"/>
          </a>
         </g>
        </svg>
</svg>
