<?xml version="1.0" encoding="UTF-8" standalone="no"?>
<!DOCTYPE svg PUBLIC "-//W3C//DTD SVG 1.1//EN"
 "http://www.w3.org/Graphics/SVG/1.1/DTD/svg11.dtd">
<!-- Generated by graphviz version 2.44.0 (0)
 -->
<!-- Title: DPsim::ThreadScheduler Pages: 1 -->
<svg width="143pt" height="152pt"
 viewBox="0.00 0.00 143.00 152.00" xmlns="http://www.w3.org/2000/svg" xmlns:xlink="http://www.w3.org/1999/xlink">
<g id="graph0" class="graph" transform="scale(1 1) rotate(0) translate(4 148)">
<title>DPsim::ThreadScheduler</title>
<!-- Node1 -->
<g id="node1" class="node">
<title>Node1</title>
<g id="a_node1"><a xlink:title=" ">
<polygon fill="#bfbfbf" stroke="black" points="4.5,-0.5 4.5,-19.5 130.5,-19.5 130.5,-0.5 4.5,-0.5"/>
<text text-anchor="middle" x="67.5" y="-7.5" font-family="Helvetica" font-size="10.00">DPsim::ThreadScheduler</text>
</a>
</g>
</g>
<!-- Node2 -->
<g id="node2" class="node">
<title>Node2</title>
<g id="a_node2"><a xlink:href="class_d_psim_1_1_scheduler.html" target="_top" xlink:title=" ">
<polygon fill="none" stroke="black" points="19.5,-57.5 19.5,-76.5 115.5,-76.5 115.5,-57.5 19.5,-57.5"/>
<text text-anchor="middle" x="67.5" y="-64.5" font-family="Helvetica" font-size="10.00">DPsim::Scheduler</text>
</a>
</g>
</g>
<!-- Node2&#45;&gt;Node1 -->
<g id="edge1" class="edge">
<title>Node2&#45;&gt;Node1</title>
<path fill="none" stroke="midnightblue" d="M67.5,-47.12C67.5,-37.82 67.5,-27.06 67.5,-19.71"/>
<polygon fill="midnightblue" stroke="midnightblue" points="64,-47.41 67.5,-57.41 71,-47.41 64,-47.41"/>
</g>
<!-- Node3 -->
<g id="node3" class="node">
<title>Node3</title>
<g id="a_node3"><a xlink:href="class_c_p_s_1_1_attribute_pointer.html" target="_top" xlink:title=" ">
<polygon fill="none" stroke="black" points="0,-124.5 0,-143.5 135,-143.5 135,-124.5 0,-124.5"/>
<text text-anchor="middle" x="67.5" y="-131.5" font-family="Helvetica" font-size="10.00">CPS::AttributePointer&lt; T &gt;</text>
</a>
</g>
</g>
<!-- Node3&#45;&gt;Node2 -->
<g id="edge2" class="edge">
<title>Node3&#45;&gt;Node2</title>
<path fill="none" stroke="#9a32cd" stroke-dasharray="5,2" d="M67.5,-114.04C67.5,-101.67 67.5,-86.12 67.5,-76.63"/>
<polygon fill="#9a32cd" stroke="#9a32cd" points="64,-114.23 67.5,-124.23 71,-114.23 64,-114.23"/>
<text text-anchor="middle" x="86.5" y="-98" font-family="Helvetica" font-size="10.00"> external</text>
</g>
</g>
</svg>
