<?xml version="1.0" encoding="UTF-8" standalone="no"?>
<!DOCTYPE svg PUBLIC "-//W3C//DTD SVG 1.1//EN"
 "http://www.w3.org/Graphics/SVG/1.1/DTD/svg11.dtd">
<!-- Generated by graphviz version 12.2.1 (20241206.2353)
 -->
<!-- Title: CPS::Base::Ph3::Inductor Pages: 1 -->
<svg width="306pt" height="219pt"
 viewBox="0.00 0.00 305.50 219.25" xmlns="http://www.w3.org/2000/svg" xmlns:xlink="http://www.w3.org/1999/xlink">
<g id="graph0" class="graph" transform="scale(1 1) rotate(0) translate(4 215.25)">
<title>CPS::Base::Ph3::Inductor</title>
<!-- Node1 -->
<g id="Node000001" class="node">
<title>Node1</title>
<g id="a_Node000001"><a xlink:title=" ">
<polygon fill="#999999" stroke="#666666" points="132.25,-124.25 0,-124.25 0,-102 132.25,-102 132.25,-124.25"/>
<text text-anchor="middle" x="66.12" y="-110.75" font-family="Helvetica,sans-Serif" font-size="10.00">CPS::Base::Ph3::Inductor</text>
</a>
</g>
</g>
<!-- Node2 -->
<g id="Node000002" class="node">
<title>Node2</title>
<g id="a_Node000002"><a xlink:href="class_c_p_s_1_1_d_p_1_1_ph3_1_1_inductor.html" target="_top" xlink:title="Inductor.">
<polygon fill="white" stroke="#666666" points="294.5,-211.25 171.25,-211.25 171.25,-189 294.5,-189 294.5,-211.25"/>
<text text-anchor="middle" x="232.88" y="-197.75" font-family="Helvetica,sans-Serif" font-size="10.00">CPS::DP::Ph3::Inductor</text>
</a>
</g>
</g>
<!-- Node1&#45;&gt;Node2 -->
<g id="edge1_Node000001_Node000002" class="edge">
<title>Node1&#45;&gt;Node2</title>
<g id="a_edge1_Node000001_Node000002"><a xlink:title=" ">
<path fill="none" stroke="#63b8ff" d="M90.91,-131.68C110.71,-146.42 140.12,-166.71 168.25,-180.12 174.83,-183.26 182.03,-186.07 189.14,-188.52"/>
<polygon fill="#63b8ff" stroke="#63b8ff" points="93.04,-128.9 82.96,-125.66 88.82,-134.48 93.04,-128.9"/>
</a>
</g>
</g>
<!-- Node3 -->
<g id="Node000003" class="node">
<title>Node3</title>
<g id="a_Node000003"><a xlink:href="class_c_p_s_1_1_e_m_t_1_1_ph3_1_1_inductor.html" target="_top" xlink:title="Inductor.">
<polygon fill="white" stroke="#666666" points="297.5,-171.25 168.25,-171.25 168.25,-149 297.5,-149 297.5,-171.25"/>
<text text-anchor="middle" x="232.88" y="-157.75" font-family="Helvetica,sans-Serif" font-size="10.00">CPS::EMT::Ph3::Inductor</text>
</a>
</g>
</g>
<!-- Node1&#45;&gt;Node3 -->
<g id="edge2_Node000001_Node000003" class="edge">
<title>Node1&#45;&gt;Node3</title>
<g id="a_edge2_Node000001_Node000003"><a xlink:title=" ">
<path fill="none" stroke="#63b8ff" d="M118.65,-127.82C142.08,-134.51 169.4,-142.3 191.33,-148.56"/>
<polygon fill="#63b8ff" stroke="#63b8ff" points="119.88,-124.54 109.31,-125.16 117.96,-131.27 119.88,-124.54"/>
</a>
</g>
</g>
<!-- Node4 -->
<g id="Node000004" class="node">
<title>Node4</title>
<g id="a_Node000004"><a xlink:href="class_c_p_s_1_1_e_m_t_1_1_ph3_1_1_s_s_n_1_1_full___serial___r_l_c.html" target="_top" xlink:title="Full_Serial_RLC.">
<polygon fill="white" stroke="#666666" points="286.25,-131.38 179.5,-131.38 179.5,-94.88 286.25,-94.88 286.25,-131.38"/>
<text text-anchor="start" x="187.5" y="-117.88" font-family="Helvetica,sans-Serif" font-size="10.00">CPS::EMT::Ph3::SSN</text>
<text text-anchor="middle" x="232.88" y="-103.62" font-family="Helvetica,sans-Serif" font-size="10.00">::Full_Serial_RLC</text>
</a>
</g>
</g>
<!-- Node1&#45;&gt;Node4 -->
<g id="edge3_Node000001_Node000004" class="edge">
<title>Node1&#45;&gt;Node4</title>
<g id="a_edge3_Node000001_Node000004"><a xlink:title=" ">
<path fill="none" stroke="#63b8ff" d="M144.04,-113.12C155.93,-113.12 167.98,-113.12 179.18,-113.12"/>
<polygon fill="#63b8ff" stroke="#63b8ff" points="144.23,-109.63 134.23,-113.13 144.23,-116.63 144.23,-109.63"/>
</a>
</g>
</g>
<!-- Node5 -->
<g id="Node000005" class="node">
<title>Node5</title>
<g id="a_Node000005"><a xlink:href="class_c_p_s_1_1_e_m_t_1_1_ph3_1_1_s_s_n_1_1_inductor.html" target="_top" xlink:title="Inductor.">
<polygon fill="white" stroke="#666666" points="286.25,-76.38 179.5,-76.38 179.5,-39.88 286.25,-39.88 286.25,-76.38"/>
<text text-anchor="start" x="187.5" y="-62.88" font-family="Helvetica,sans-Serif" font-size="10.00">CPS::EMT::Ph3::SSN</text>
<text text-anchor="middle" x="232.88" y="-48.62" font-family="Helvetica,sans-Serif" font-size="10.00">::Inductor</text>
</a>
</g>
</g>
<!-- Node1&#45;&gt;Node5 -->
<g id="edge4_Node000001_Node000005" class="edge">
<title>Node1&#45;&gt;Node5</title>
<g id="a_edge4_Node000001_Node000005"><a xlink:title=" ">
<path fill="none" stroke="#63b8ff" d="M112.39,-98.01C133.07,-91.11 157.7,-82.89 179.21,-75.71"/>
<polygon fill="#63b8ff" stroke="#63b8ff" points="111.47,-94.63 103.1,-101.12 113.69,-101.27 111.47,-94.63"/>
</a>
</g>
</g>
<!-- Node6 -->
<g id="Node000006" class="node">
<title>Node6</title>
<g id="a_Node000006"><a xlink:href="class_c_p_s_1_1_s_p_1_1_ph3_1_1_inductor.html" target="_top" xlink:title="Inductor.">
<polygon fill="white" stroke="#666666" points="293.38,-22.25 172.38,-22.25 172.38,0 293.38,0 293.38,-22.25"/>
<text text-anchor="middle" x="232.88" y="-8.75" font-family="Helvetica,sans-Serif" font-size="10.00">CPS::SP::Ph3::Inductor</text>
</a>
</g>
</g>
<!-- Node1&#45;&gt;Node6 -->
<g id="edge5_Node000001_Node000006" class="edge">
<title>Node1&#45;&gt;Node6</title>
<g id="a_edge5_Node000001_Node000006"><a xlink:title=" ">
<path fill="none" stroke="#63b8ff" d="M86.41,-93.7C105.65,-75.29 136.79,-48.02 168.25,-31.12 174.27,-27.89 180.89,-25.09 187.52,-22.68"/>
<polygon fill="#63b8ff" stroke="#63b8ff" points="84.01,-91.15 79.3,-100.64 88.9,-96.16 84.01,-91.15"/>
</a>
</g>
</g>
</g>
</svg>
