<?xml version="1.0" encoding="UTF-8" standalone="no"?>
<!DOCTYPE svg PUBLIC "-//W3C//DTD SVG 1.1//EN"
 "http://www.w3.org/Graphics/SVG/1.1/DTD/svg11.dtd">
<!-- Generated by graphviz version 2.44.0 (0)
 -->
<!-- Title: CPS::TopologicalNode Pages: 1 -->
<svg width="228pt" height="266pt"
 viewBox="0.00 0.00 228.00 266.00" xmlns="http://www.w3.org/2000/svg" xmlns:xlink="http://www.w3.org/1999/xlink">
<g id="graph0" class="graph" transform="scale(1 1) rotate(0) translate(4 262)">
<title>CPS::TopologicalNode</title>
<!-- Node1 -->
<g id="node1" class="node">
<title>Node1</title>
<g id="a_node1"><a xlink:title=" ">
<polygon fill="#bfbfbf" stroke="black" points="8.5,-124.5 8.5,-143.5 124.5,-143.5 124.5,-124.5 8.5,-124.5"/>
<text text-anchor="middle" x="66.5" y="-131.5" font-family="Helvetica" font-size="10.00">CPS::TopologicalNode</text>
</a>
</g>
</g>
<!-- Node4 -->
<g id="node4" class="node">
<title>Node4</title>
<g id="a_node4"><a xlink:href="class_c_p_s_1_1_sim_node.html" target="_top" xlink:title=" ">
<polygon fill="none" stroke="black" points="0,-0.5 0,-19.5 141,-19.5 141,-0.5 0,-0.5"/>
<text text-anchor="middle" x="70.5" y="-7.5" font-family="Helvetica" font-size="10.00">CPS::SimNode&lt; Complex &gt;</text>
</a>
</g>
</g>
<!-- Node1&#45;&gt;Node4 -->
<g id="edge3" class="edge">
<title>Node1&#45;&gt;Node4</title>
<path fill="none" stroke="midnightblue" d="M67.12,-114.19C68,-87.4 69.57,-39.31 70.21,-19.69"/>
<polygon fill="midnightblue" stroke="midnightblue" points="63.62,-114.12 66.79,-124.23 70.61,-114.35 63.62,-114.12"/>
</g>
<!-- Node5 -->
<g id="node5" class="node">
<title>Node5</title>
<g id="a_node5"><a xlink:href="class_c_p_s_1_1_sim_node.html" target="_top" xlink:title=" ">
<polygon fill="none" stroke="black" points="83,-67.5 83,-86.5 220,-86.5 220,-67.5 83,-67.5"/>
<text text-anchor="middle" x="151.5" y="-74.5" font-family="Helvetica" font-size="10.00">CPS::SimNode&lt; VarType &gt;</text>
</a>
</g>
</g>
<!-- Node1&#45;&gt;Node5 -->
<g id="edge4" class="edge">
<title>Node1&#45;&gt;Node5</title>
<path fill="none" stroke="midnightblue" d="M88.41,-118.82C104.2,-108.61 125,-95.15 138.31,-86.53"/>
<polygon fill="midnightblue" stroke="midnightblue" points="86.28,-116.04 79.78,-124.41 90.08,-121.91 86.28,-116.04"/>
</g>
<!-- Node2 -->
<g id="node2" class="node">
<title>Node2</title>
<g id="a_node2"><a xlink:href="class_c_p_s_1_1_identified_object.html" target="_top" xlink:title=" ">
<polygon fill="none" stroke="black" points="10.5,-181.5 10.5,-200.5 122.5,-200.5 122.5,-181.5 10.5,-181.5"/>
<text text-anchor="middle" x="66.5" y="-188.5" font-family="Helvetica" font-size="10.00">CPS::IdentifiedObject</text>
</a>
</g>
</g>
<!-- Node2&#45;&gt;Node1 -->
<g id="edge1" class="edge">
<title>Node2&#45;&gt;Node1</title>
<path fill="none" stroke="midnightblue" d="M66.5,-171.12C66.5,-161.82 66.5,-151.06 66.5,-143.71"/>
<polygon fill="midnightblue" stroke="midnightblue" points="63,-171.41 66.5,-181.41 70,-171.41 63,-171.41"/>
</g>
<!-- Node3 -->
<g id="node3" class="node">
<title>Node3</title>
<g id="a_node3"><a xlink:href="class_c_p_s_1_1_attribute_list.html" target="_top" xlink:title="Base class of objects having attributes to access member variables.">
<polygon fill="none" stroke="black" points="18.5,-238.5 18.5,-257.5 114.5,-257.5 114.5,-238.5 18.5,-238.5"/>
<text text-anchor="middle" x="66.5" y="-245.5" font-family="Helvetica" font-size="10.00">CPS::AttributeList</text>
</a>
</g>
</g>
<!-- Node3&#45;&gt;Node2 -->
<g id="edge2" class="edge">
<title>Node3&#45;&gt;Node2</title>
<path fill="none" stroke="midnightblue" d="M66.5,-228.12C66.5,-218.82 66.5,-208.06 66.5,-200.71"/>
<polygon fill="midnightblue" stroke="midnightblue" points="63,-228.41 66.5,-238.41 70,-228.41 63,-228.41"/>
</g>
<!-- Node5&#45;&gt;Node4 -->
<g id="edge5" class="edge">
<title>Node5&#45;&gt;Node4</title>
<path fill="none" stroke="orange" stroke-dasharray="5,2" d="M132.45,-60.71C116.49,-47.91 94.29,-30.09 81.25,-19.63"/>
<polygon fill="orange" stroke="orange" points="130.59,-63.7 140.58,-67.23 134.97,-58.25 130.59,-63.7"/>
<text text-anchor="middle" x="146" y="-41" font-family="Helvetica" font-size="10.00"> &lt; Complex &gt;</text>
</g>
</g>
</svg>
