<?xml version="1.0" encoding="UTF-8" standalone="no"?>
<!DOCTYPE svg PUBLIC "-//W3C//DTD SVG 1.1//EN"
 "http://www.w3.org/Graphics/SVG/1.1/DTD/svg11.dtd">
<!-- Generated by graphviz version 12.2.1 (20241206.2353)
 -->
<!-- Title: CPS::Base::Ph1::Capacitor Pages: 1 -->
<svg width="426pt" height="89pt"
 viewBox="0.00 0.00 426.12 88.50" xmlns="http://www.w3.org/2000/svg" xmlns:xlink="http://www.w3.org/1999/xlink">
<g id="graph0" class="graph" transform="scale(1 1) rotate(0) translate(4 84.5)">
<title>CPS::Base::Ph1::Capacitor</title>
<!-- Node1 -->
<g id="Node000001" class="node">
<title>Node1</title>
<g id="a_Node000001"><a xlink:title=" ">
<polygon fill="#999999" stroke="#666666" points="277.75,-80.5 142.5,-80.5 142.5,-58.25 277.75,-58.25 277.75,-80.5"/>
<text text-anchor="middle" x="210.12" y="-67" font-family="Helvetica,sans-Serif" font-size="10.00">CPS::Base::Ph1::Capacitor</text>
</a>
</g>
</g>
<!-- Node2 -->
<g id="Node000002" class="node">
<title>Node2</title>
<g id="a_Node000002"><a xlink:href="class_c_p_s_1_1_d_p_1_1_ph1_1_1_capacitor.html" target="_top" xlink:title="Capacitor model.">
<polygon fill="white" stroke="#666666" points="126.25,-22.25 0,-22.25 0,0 126.25,0 126.25,-22.25"/>
<text text-anchor="middle" x="63.12" y="-8.75" font-family="Helvetica,sans-Serif" font-size="10.00">CPS::DP::Ph1::Capacitor</text>
</a>
</g>
</g>
<!-- Node1&#45;&gt;Node2 -->
<g id="edge1_Node000001_Node000002" class="edge">
<title>Node1&#45;&gt;Node2</title>
<g id="a_edge1_Node000001_Node000002"><a xlink:title=" ">
<path fill="none" stroke="#63b8ff" d="M172.06,-53.81C146.57,-44.06 113.61,-31.44 90.65,-22.66"/>
<polygon fill="#63b8ff" stroke="#63b8ff" points="170.47,-56.95 181.06,-57.25 172.97,-50.41 170.47,-56.95"/>
</a>
</g>
</g>
<!-- Node3 -->
<g id="Node000003" class="node">
<title>Node3</title>
<g id="a_Node000003"><a xlink:href="class_c_p_s_1_1_e_m_t_1_1_ph1_1_1_capacitor.html" target="_top" xlink:title="Capacitor model.">
<polygon fill="white" stroke="#666666" points="276.25,-22.25 144,-22.25 144,0 276.25,0 276.25,-22.25"/>
<text text-anchor="middle" x="210.12" y="-8.75" font-family="Helvetica,sans-Serif" font-size="10.00">CPS::EMT::Ph1::Capacitor</text>
</a>
</g>
</g>
<!-- Node1&#45;&gt;Node3 -->
<g id="edge2_Node000001_Node000003" class="edge">
<title>Node1&#45;&gt;Node3</title>
<g id="a_edge2_Node000001_Node000003"><a xlink:title=" ">
<path fill="none" stroke="#63b8ff" d="M210.12,-46.35C210.12,-38.2 210.12,-29.33 210.12,-22.66"/>
<polygon fill="#63b8ff" stroke="#63b8ff" points="206.63,-46.28 210.13,-56.28 213.63,-46.28 206.63,-46.28"/>
</a>
</g>
</g>
<!-- Node4 -->
<g id="Node000004" class="node">
<title>Node4</title>
<g id="a_Node000004"><a xlink:href="class_c_p_s_1_1_s_p_1_1_ph1_1_1_capacitor.html" target="_top" xlink:title=" ">
<polygon fill="white" stroke="#bfbfbf" points="418.12,-22.25 294.12,-22.25 294.12,0 418.12,0 418.12,-22.25"/>
<text text-anchor="middle" x="356.12" y="-8.75" font-family="Helvetica,sans-Serif" font-size="10.00">CPS::SP::Ph1::Capacitor</text>
</a>
</g>
</g>
<!-- Node1&#45;&gt;Node4 -->
<g id="edge3_Node000001_Node000004" class="edge">
<title>Node1&#45;&gt;Node4</title>
<g id="a_edge3_Node000001_Node000004"><a xlink:title=" ">
<path fill="none" stroke="#63b8ff" d="M248.27,-53.68C273.54,-43.94 306.08,-31.4 328.79,-22.66"/>
<polygon fill="#63b8ff" stroke="#63b8ff" points="247.07,-50.39 239,-57.25 249.59,-56.92 247.07,-50.39"/>
</a>
</g>
</g>
</g>
</svg>
