<?xml version="1.0" encoding="UTF-8" standalone="no"?>
<!DOCTYPE svg PUBLIC "-//W3C//DTD SVG 1.1//EN"
 "http://www.w3.org/Graphics/SVG/1.1/DTD/svg11.dtd">
<!-- Generated by graphviz version 12.2.1 (20241206.2353)
 -->
<!-- Title: CPS::Signal::SignalGenerator Pages: 1 -->
<!--zoomable 342 -->

<svg id="main" version="1.1" xmlns="http://www.w3.org/2000/svg" xmlns:xlink="http://www.w3.org/1999/xlink" xml:space="preserve" onload="init(evt)">

<style type="text/css"><![CDATA[
.node, .edge {opacity: 0.7;}
.node.selected, .edge.selected {opacity: 1;}
.edge:hover path { stroke: red; }
.edge:hover polygon { stroke: red; fill: red; }
]]></style>

<defs>
  <circle id="rim" cx="0" cy="0" r="7"/>
  <circle id="rim2" cx="0" cy="0" r="3.5"/>
  <g id="zoomPlus">
    <use xlink:href="#rim" fill="#404040"><set attributeName="fill" to="#808080" begin="zoomplus.mouseover" end="zoomplus.mouseout"/></use>
    <path d="M-4,0h8M0,-4v8" fill="none" stroke="white" stroke-width="1.5" pointer-events="none"/>
  </g>
  <g id="zoomMin">
    <use xlink:href="#rim" fill="#404040"><set attributeName="fill" to="#808080" begin="zoomminus.mouseover" end="zoomminus.mouseout"/></use>
    <path d="M-4,0h8" fill="none" stroke="white" stroke-width="1.5" pointer-events="none"/>
  </g>
  <g id="arrowUp" transform="translate(30 24)">
    <use xlink:href="#rim"/>
    <path pointer-events="none" fill="none" stroke="white" stroke-width="1.5" d="M0,-3.0v7 M-2.5,-0.5L0,-3.0L2.5,-0.5"/>
  </g>
  <g id="arrowRight" transform="rotate(90) translate(36 -43)">
    <use xlink:href="#rim"/>
    <path pointer-events="none" fill="none" stroke="white" stroke-width="1.5" d="M0,-3.0v7 M-2.5,-0.5L0,-3.0L2.5,-0.5"/>
  </g>
  <g id="arrowDown" transform="rotate(180) translate(-30 -48)">
    <use xlink:href="#rim"/>
    <path pointer-events="none" fill="none" stroke="white" stroke-width="1.5" d="M0,-3.0v7 M-2.5,-0.5L0,-3.0L2.5,-0.5"/>
  </g>
  <g id="arrowLeft" transform="rotate(270) translate(-36 17)">
    <use xlink:href="#rim"/>
    <path pointer-events="none" fill="none" stroke="white" stroke-width="1.5" d="M0,-3.0v7 M-2.5,-0.5L0,-3.0L2.5,-0.5"/>
  </g>
  <g id="resetDef">
    <use xlink:href="#rim2" fill="#404040"><set attributeName="fill" to="#808080" begin="reset.mouseover" end="reset.mouseout"/></use>
  </g>
</defs>
<script type="application/ecmascript">
var viewWidth = 1211;
var viewHeight = 342;
var sectionId = 'dynsection-1';
</script>
<script type="application/ecmascript" xlink:href="svg.min.js"/>
<svg id="graph" class="graph">
<g id="viewport">
<title>CPS::Signal::SignalGenerator</title>
<!-- Node1 -->
<g id="Node000001" class="node">
<title>Node1</title>
<g id="a_Node000001"><a xlink:title="Model to generate generic signals.">
<polygon fill="#999999" stroke="#666666" points="1202.75,-175.9 1054.75,-175.9 1054.75,-153.65 1202.75,-153.65 1202.75,-175.9"/>
<text text-anchor="middle" x="1128.75" y="-162.4" font-family="Helvetica,sans-Serif" font-size="10.00">CPS::Signal::SignalGenerator</text>
</a>
</g>
</g>
<!-- Node2 -->
<g id="Node000002" class="node">
<title>Node2</title>
<g id="a_Node000002"><a xlink:href="class_c_p_s_1_1_sim_signal_comp.html" target="_top" xlink:title=" ">
<polygon fill="white" stroke="#666666" points="1017.75,-222.9 908,-222.9 908,-200.65 1017.75,-200.65 1017.75,-222.9"/>
<text text-anchor="middle" x="962.88" y="-209.4" font-family="Helvetica,sans-Serif" font-size="10.00">CPS::SimSignalComp</text>
</a>
</g>
</g>
<!-- Node2&#45;&gt;Node1 -->
<g id="edge1_Node000001_Node000002" class="edge">
<title>Node2&#45;&gt;Node1</title>
<g id="a_edge1_Node000001_Node000002"><a xlink:title=" ">
<path fill="none" stroke="#63b8ff" d="M1015.44,-196.98C1038.68,-190.32 1065.71,-182.57 1087.42,-176.34"/>
<polygon fill="#63b8ff" stroke="#63b8ff" points="1014.49,-193.62 1005.84,-199.74 1016.42,-200.34 1014.49,-193.62"/>
</a>
</g>
</g>
<!-- Node3 -->
<g id="Node000003" class="node">
<title>Node3</title>
<g id="a_Node000003"><a xlink:href="class_c_p_s_1_1_topological_signal_comp.html" target="_top" xlink:title=" ">
<polygon fill="white" stroke="#666666" points="871,-230.9 726.75,-230.9 726.75,-208.65 871,-208.65 871,-230.9"/>
<text text-anchor="middle" x="798.88" y="-217.4" font-family="Helvetica,sans-Serif" font-size="10.00">CPS::TopologicalSignalComp</text>
</a>
</g>
</g>
<!-- Node3&#45;&gt;Node2 -->
<g id="edge2_Node000002_Node000003" class="edge">
<title>Node3&#45;&gt;Node2</title>
<g id="a_edge2_Node000002_Node000003"><a xlink:title=" ">
<path fill="none" stroke="#63b8ff" d="M882.9,-215.67C891.34,-215.26 899.75,-214.84 907.76,-214.44"/>
<polygon fill="#63b8ff" stroke="#63b8ff" points="882.73,-212.18 872.91,-216.17 883.07,-219.17 882.73,-212.18"/>
</a>
</g>
</g>
<!-- Node4 -->
<g id="Node000004" class="node">
<title>Node4</title>
<g id="a_Node000004"><a xlink:href="class_c_p_s_1_1_identified_object.html" target="_top" xlink:title=" ">
<polygon fill="white" stroke="#666666" points="689.75,-260.9 574.75,-260.9 574.75,-238.65 689.75,-238.65 689.75,-260.9"/>
<text text-anchor="middle" x="632.25" y="-247.4" font-family="Helvetica,sans-Serif" font-size="10.00">CPS::IdentifiedObject</text>
</a>
</g>
</g>
<!-- Node4&#45;&gt;Node3 -->
<g id="edge3_Node000003_Node000004" class="edge">
<title>Node4&#45;&gt;Node3</title>
<g id="a_edge3_Node000003_Node000004"><a xlink:title=" ">
<path fill="none" stroke="#63b8ff" d="M701.18,-237.39C712.15,-235.39 723.48,-233.33 734.34,-231.35"/>
<polygon fill="#63b8ff" stroke="#63b8ff" points="700.6,-233.94 691.39,-239.18 701.86,-240.83 700.6,-233.94"/>
</a>
</g>
</g>
<!-- Node5 -->
<g id="Node000005" class="node">
<title>Node5</title>
<g id="a_Node000005"><a xlink:href="class_c_p_s_1_1_attribute.html" target="_top" xlink:title=" ">
<polygon fill="white" stroke="#666666" points="493.75,-264.9 367.5,-264.9 367.5,-242.65 493.75,-242.65 493.75,-264.9"/>
<text text-anchor="middle" x="430.62" y="-251.4" font-family="Helvetica,sans-Serif" font-size="10.00">CPS::Attribute&lt; String &gt;</text>
</a>
</g>
</g>
<!-- Node5&#45;&gt;Node4 -->
<g id="edge4_Node000004_Node000005" class="edge">
<title>Node5&#45;&gt;Node4</title>
<g id="a_edge4_Node000004_Node000005"><a xlink:title=" ">
<path fill="none" stroke="#9a32cd" stroke-dasharray="5,2" d="M505.56,-252.29C528.27,-251.84 552.89,-251.34 574.28,-250.91"/>
<polygon fill="#9a32cd" stroke="#9a32cd" points="505.68,-248.79 495.75,-252.49 505.82,-255.79 505.68,-248.79"/>
</a>
</g>
<text text-anchor="middle" x="537.25" y="-271.01" font-family="Helvetica,sans-Serif" font-size="10.00" fill="grey"> mName</text>
<text text-anchor="middle" x="537.25" y="-256.76" font-family="Helvetica,sans-Serif" font-size="10.00" fill="grey">mUID</text>
</g>
<!-- Node6 -->
<g id="Node000006" class="node">
<title>Node6</title>
<g id="a_Node000006"><a xlink:href="class_c_p_s_1_1_attribute_base.html" target="_top" xlink:title=" ">
<polygon fill="white" stroke="#666666" points="109.75,-135.9 5.25,-135.9 5.25,-113.65 109.75,-113.65 109.75,-135.9"/>
<text text-anchor="middle" x="57.5" y="-122.4" font-family="Helvetica,sans-Serif" font-size="10.00">CPS::AttributeBase</text>
</a>
</g>
</g>
<!-- Node6&#45;&gt;Node5 -->
<g id="edge5_Node000005_Node000006" class="edge">
<title>Node6&#45;&gt;Node5</title>
<g id="a_edge5_Node000005_Node000006"><a xlink:title=" ">
<path fill="none" stroke="#63b8ff" d="M69.24,-146.16C83.89,-172.73 112.86,-216.98 152,-236.77 219.55,-270.93 308.46,-269.63 367.25,-263.49"/>
<polygon fill="#63b8ff" stroke="#63b8ff" points="72.5,-144.82 64.72,-137.63 66.31,-148.1 72.5,-144.82"/>
</a>
</g>
</g>
<!-- Node8 -->
<g id="Node000008" class="node">
<title>Node8</title>
<g id="a_Node000008"><a xlink:href="class_c_p_s_1_1_attribute.html" target="_top" xlink:title=" ">
<polygon fill="white" stroke="#666666" points="261.38,-158.9 157.62,-158.9 157.62,-136.65 261.38,-136.65 261.38,-158.9"/>
<text text-anchor="middle" x="209.5" y="-145.4" font-family="Helvetica,sans-Serif" font-size="10.00">CPS::Attribute&lt; T &gt;</text>
</a>
</g>
</g>
<!-- Node6&#45;&gt;Node8 -->
<g id="edge8_Node000008_Node000006" class="edge">
<title>Node6&#45;&gt;Node8</title>
<g id="a_edge8_Node000008_Node000006"><a xlink:title=" ">
<path fill="none" stroke="#63b8ff" d="M121.42,-134.42C133.37,-136.25 145.75,-138.15 157.29,-139.92"/>
<polygon fill="#63b8ff" stroke="#63b8ff" points="122.03,-130.97 111.62,-132.92 120.97,-137.89 122.03,-130.97"/>
</a>
</g>
</g>
<!-- Node10 -->
<g id="Node000010" class="node">
<title>Node10</title>
<g id="a_Node000010"><a xlink:href="class_c_p_s_1_1_attribute.html" target="_top" xlink:title=" ">
<polygon fill="white" stroke="#666666" points="499.75,-78.9 361.5,-78.9 361.5,-56.65 499.75,-56.65 499.75,-78.9"/>
<text text-anchor="middle" x="430.62" y="-65.4" font-family="Helvetica,sans-Serif" font-size="10.00">CPS::Attribute&lt; Complex &gt;</text>
</a>
</g>
</g>
<!-- Node6&#45;&gt;Node10 -->
<g id="edge11_Node000010_Node000006" class="edge">
<title>Node6&#45;&gt;Node10</title>
<g id="a_edge11_Node000010_Node000006"><a xlink:title=" ">
<path fill="none" stroke="#63b8ff" d="M69.16,-103.39C83.73,-76.88 112.61,-32.99 152,-14.77 242.19,26.93 363.41,-30.5 410.13,-56.33"/>
<polygon fill="#63b8ff" stroke="#63b8ff" points="66.24,-101.42 64.67,-111.9 72.44,-104.69 66.24,-101.42"/>
</a>
</g>
</g>
<!-- Node12 -->
<g id="Node000012" class="node">
<title>Node12</title>
<g id="a_Node000012"><a xlink:href="class_c_p_s_1_1_attribute.html" target="_top" xlink:title=" ">
<polygon fill="white" stroke="#666666" points="489.62,-175.9 371.62,-175.9 371.62,-153.65 489.62,-153.65 489.62,-175.9"/>
<text text-anchor="middle" x="430.62" y="-162.4" font-family="Helvetica,sans-Serif" font-size="10.00">CPS::Attribute&lt; Real &gt;</text>
</a>
</g>
</g>
<!-- Node6&#45;&gt;Node12 -->
<g id="edge15_Node000012_Node000006" class="edge">
<title>Node6&#45;&gt;Node12</title>
<g id="a_edge15_Node000012_Node000006"><a xlink:title=" ">
<path fill="none" stroke="#63b8ff" d="M113.72,-110.8C172.09,-98.52 266.22,-85.86 343.5,-108.77 372.74,-117.44 401.34,-139.52 417.12,-153.22"/>
<polygon fill="#63b8ff" stroke="#63b8ff" points="113.04,-107.37 104.01,-112.92 114.53,-114.21 113.04,-107.37"/>
</a>
</g>
</g>
<!-- Node7 -->
<g id="Node000007" class="node">
<title>Node7</title>
<g id="a_Node000007"><a xlink:title=" ">
<polygon fill="white" stroke="#bfbfbf" points="267,-334.15 152,-334.15 152,-283.4 267,-283.4 267,-334.15"/>
<text text-anchor="start" x="160" y="-320.65" font-family="Helvetica,sans-Serif" font-size="10.00">std::enable_shared</text>
<text text-anchor="start" x="160" y="-306.4" font-family="Helvetica,sans-Serif" font-size="10.00">_from_this&lt; Attribute</text>
<text text-anchor="middle" x="209.5" y="-292.15" font-family="Helvetica,sans-Serif" font-size="10.00">&lt; String &gt; &gt;</text>
</a>
</g>
</g>
<!-- Node7&#45;&gt;Node5 -->
<g id="edge6_Node000005_Node000007" class="edge">
<title>Node7&#45;&gt;Node5</title>
<g id="a_edge6_Node000005_Node000007"><a xlink:title=" ">
<path fill="none" stroke="#63b8ff" d="M278.07,-291.81C312.27,-283.23 352.89,-273.03 383.47,-265.36"/>
<polygon fill="#63b8ff" stroke="#63b8ff" points="277.53,-288.34 268.68,-294.17 279.23,-295.13 277.53,-288.34"/>
</a>
</g>
</g>
<!-- Node8&#45;&gt;Node5 -->
<g id="edge7_Node000005_Node000008" class="edge">
<title>Node8&#45;&gt;Node5</title>
<g id="a_edge7_Node000005_Node000008"><a xlink:title=" ">
<path fill="none" stroke="orange" stroke-dasharray="5,2" d="M254.32,-163.44C258.63,-165.16 262.92,-166.96 267,-168.77 319.68,-192.22 379.16,-225 409.49,-242.2"/>
<polygon fill="orange" stroke="orange" points="255.65,-160.2 245.06,-159.84 253.12,-166.72 255.65,-160.2"/>
</a>
</g>
<text text-anchor="middle" x="314.25" y="-208.78" font-family="Helvetica,sans-Serif" font-size="10.00" fill="grey"> &lt; String &gt;</text>
</g>
<!-- Node8&#45;&gt;Node10 -->
<g id="edge13_Node000010_Node000008" class="edge">
<title>Node8&#45;&gt;Node10</title>
<g id="a_edge13_Node000010_Node000008"><a xlink:title=" ">
<path fill="none" stroke="orange" stroke-dasharray="5,2" d="M252.44,-132.46C294.89,-116.96 359.58,-93.34 397.93,-79.34"/>
<polygon fill="orange" stroke="orange" points="251.51,-129.07 243.32,-135.79 253.91,-135.65 251.51,-129.07"/>
</a>
</g>
<text text-anchor="middle" x="314.25" y="-124.36" font-family="Helvetica,sans-Serif" font-size="10.00" fill="grey"> &lt; Complex &gt;</text>
</g>
<!-- Node8&#45;&gt;Node12 -->
<g id="edge17_Node000012_Node000008" class="edge">
<title>Node8&#45;&gt;Node12</title>
<g id="a_edge17_Node000012_Node000008"><a xlink:title=" ">
<path fill="none" stroke="orange" stroke-dasharray="5,2" d="M272.72,-152.6C303.74,-155.01 341.03,-157.9 371.48,-160.26"/>
<polygon fill="orange" stroke="orange" points="273.35,-149.14 263.11,-151.85 272.81,-156.12 273.35,-149.14"/>
</a>
</g>
<text text-anchor="middle" x="314.25" y="-162.54" font-family="Helvetica,sans-Serif" font-size="10.00" fill="grey"> &lt; Real &gt;</text>
</g>
<!-- Node9 -->
<g id="Node000009" class="node">
<title>Node9</title>
<g id="a_Node000009"><a xlink:title=" ">
<polygon fill="white" stroke="#bfbfbf" points="115,-306.15 0,-306.15 0,-255.4 115,-255.4 115,-306.15"/>
<text text-anchor="start" x="8" y="-292.65" font-family="Helvetica,sans-Serif" font-size="10.00">std::enable_shared</text>
<text text-anchor="start" x="8" y="-278.4" font-family="Helvetica,sans-Serif" font-size="10.00">_from_this&lt; Attribute</text>
<text text-anchor="middle" x="57.5" y="-264.15" font-family="Helvetica,sans-Serif" font-size="10.00">&lt; T &gt; &gt;</text>
</a>
</g>
</g>
<!-- Node9&#45;&gt;Node8 -->
<g id="edge9_Node000008_Node000009" class="edge">
<title>Node9&#45;&gt;Node8</title>
<g id="a_edge9_Node000008_Node000009"><a xlink:title=" ">
<path fill="none" stroke="#63b8ff" d="M80.41,-245.89C97.35,-221.39 122.79,-189.43 152,-168.77 157.21,-165.09 163.15,-161.96 169.17,-159.35"/>
<polygon fill="#63b8ff" stroke="#63b8ff" points="77.66,-243.7 74.97,-253.95 83.46,-247.62 77.66,-243.7"/>
</a>
</g>
</g>
<!-- Node10&#45;&gt;Node1 -->
<g id="edge10_Node000001_Node000010" class="edge">
<title>Node10&#45;&gt;Node1</title>
<g id="a_edge10_Node000001_Node000010"><a xlink:title=" ">
<path fill="none" stroke="#9a32cd" stroke-dasharray="5,2" d="M493.84,-81.52C533.06,-89.01 584.87,-96.77 631.25,-96.77 631.25,-96.77 631.25,-96.77 963.88,-96.77 1022.09,-96.77 1083.67,-133.84 1111.91,-153.24"/>
<polygon fill="#9a32cd" stroke="#9a32cd" points="494.59,-78.1 484.1,-79.61 493.24,-84.97 494.59,-78.1"/>
</a>
</g>
<text text-anchor="middle" x="798.88" y="-101.52" font-family="Helvetica,sans-Serif" font-size="10.00" fill="grey"> mSigOut</text>
</g>
<!-- Node11 -->
<g id="Node000011" class="node">
<title>Node11</title>
<g id="a_Node000011"><a xlink:title=" ">
<polygon fill="white" stroke="#bfbfbf" points="267,-74.15 152,-74.15 152,-23.4 267,-23.4 267,-74.15"/>
<text text-anchor="start" x="160" y="-60.65" font-family="Helvetica,sans-Serif" font-size="10.00">std::enable_shared</text>
<text text-anchor="start" x="160" y="-46.4" font-family="Helvetica,sans-Serif" font-size="10.00">_from_this&lt; Attribute</text>
<text text-anchor="middle" x="209.5" y="-32.15" font-family="Helvetica,sans-Serif" font-size="10.00">&lt; Complex &gt; &gt;</text>
</a>
</g>
</g>
<!-- Node11&#45;&gt;Node10 -->
<g id="edge12_Node000010_Node000011" class="edge">
<title>Node11&#45;&gt;Node10</title>
<g id="a_edge12_Node000010_Node000011"><a xlink:title=" ">
<path fill="none" stroke="#63b8ff" d="M278.59,-54.68C304.82,-56.95 334.76,-59.55 361.04,-61.82"/>
<polygon fill="#63b8ff" stroke="#63b8ff" points="278.99,-51.2 268.72,-53.82 278.38,-58.17 278.99,-51.2"/>
</a>
</g>
</g>
<!-- Node12&#45;&gt;Node1 -->
<g id="edge14_Node000001_Node000012" class="edge">
<title>Node12&#45;&gt;Node1</title>
<g id="a_edge14_Node000001_Node000012"><a xlink:title=" ">
<path fill="none" stroke="#9a32cd" stroke-dasharray="5,2" d="M500.78,-164.77C539.21,-164.77 587.88,-164.77 631.25,-164.77 631.25,-164.77 631.25,-164.77 963.88,-164.77 993.46,-164.77 1026.06,-164.77 1054.33,-164.77"/>
<polygon fill="#9a32cd" stroke="#9a32cd" points="501.23,-161.27 491.23,-164.77 501.23,-168.27 501.23,-161.27"/>
</a>
</g>
<text text-anchor="middle" x="798.88" y="-169.52" font-family="Helvetica,sans-Serif" font-size="10.00" fill="grey"> mFreq</text>
</g>
<!-- Node13 -->
<g id="Node000013" class="node">
<title>Node13</title>
<g id="a_Node000013"><a xlink:title=" ">
<polygon fill="white" stroke="#bfbfbf" points="267,-228.15 152,-228.15 152,-177.4 267,-177.4 267,-228.15"/>
<text text-anchor="start" x="160" y="-214.65" font-family="Helvetica,sans-Serif" font-size="10.00">std::enable_shared</text>
<text text-anchor="start" x="160" y="-200.4" font-family="Helvetica,sans-Serif" font-size="10.00">_from_this&lt; Attribute</text>
<text text-anchor="middle" x="209.5" y="-186.15" font-family="Helvetica,sans-Serif" font-size="10.00">&lt; Real &gt; &gt;</text>
</a>
</g>
</g>
<!-- Node13&#45;&gt;Node12 -->
<g id="edge16_Node000012_Node000013" class="edge">
<title>Node13&#45;&gt;Node12</title>
<g id="a_edge16_Node000012_Node000013"><a xlink:title=" ">
<path fill="none" stroke="#63b8ff" d="M278.42,-219.63C299.55,-222.3 322.74,-222.55 343.5,-216.77 371.77,-208.9 400.03,-188.97 416.11,-176.19"/>
<polygon fill="#63b8ff" stroke="#63b8ff" points="279.16,-216.2 268.75,-218.2 278.13,-223.13 279.16,-216.2"/>
</a>
</g>
</g>
</g>
</svg>

<g id="navigator" transform="translate(0 0)" fill="#404254">
  <rect fill="#f2f5e9" fill-opacity="0.5" stroke="#606060" stroke-width=".5" x="0" y="0" width="60" height="60"/>
  <use id="zoomplus" xlink:href="#zoomPlus" x="17" y="9" onmousedown="handleZoom(evt,'in')"/>
  <use id="zoomminus" xlink:href="#zoomMin" x="42" y="9" onmousedown="handleZoom(evt,'out')"/>
  <use id="reset" xlink:href="#resetDef" x="30" y="36" onmousedown="handleReset()"/>
   <use id="arrowup" xlink:href="#arrowUp" x="0" y="0" onmousedown="handlePan(0,-1)"/>
  <use id="arrowright" xlink:href="#arrowRight" x="0" y="0" onmousedown="handlePan(1,0)"/>
  <use id="arrowdown" xlink:href="#arrowDown" x="0" y="0" onmousedown="handlePan(0,1)"/>
  <use id="arrowleft" xlink:href="#arrowLeft" x="0" y="0" onmousedown="handlePan(-1,0)"/>
</g>
<svg viewBox="0 0 15 15" width="100%" height="30px" preserveAspectRatio="xMaxYMin meet">
 <g id="arrow_out" transform="scale(0.3 0.3)">
  <a xlink:href="class_c_p_s_1_1_signal_1_1_signal_generator__coll__graph_org.svg" target="_base">
   <rect id="button" ry="5" rx="5" y="6" x="6" height="38" width="38"
        fill="#f2f5e9" fill-opacity="0.5" stroke="#606060" stroke-width="1.0"/>
   <path id="arrow"
     d="M 11.500037,31.436501 C 11.940474,20.09759 22.043105,11.32322 32.158766,21.979434 L 37.068811,17.246167 C 37.068811,17.246167 37.088388,32 37.088388,32 L 22.160133,31.978069 C 22.160133,31.978069 26.997745,27.140456 26.997745,27.140456 C 18.528582,18.264221 13.291696,25.230495 11.500037,31.436501 z"
     style="fill:#404040;"/>
  </a>
 </g>
</svg>

<style type='text/css'>
<![CDATA[
[data-mouse-over-selected='false'] { opacity: 0.7; }
[data-mouse-over-selected='true']  { opacity: 1.0; }
]]>
</style>
<script type="application/ecmascript"><![CDATA[
document.addEventListener('DOMContentLoaded', (event) => {
  highlightEdges();
  highlightAdjacentNodes();
});
]]></script>
</svg>
