<?xml version="1.0" encoding="UTF-8" standalone="no"?>
<!DOCTYPE svg PUBLIC "-//W3C//DTD SVG 1.1//EN"
 "http://www.w3.org/Graphics/SVG/1.1/DTD/svg11.dtd">
<!-- Generated by graphviz version 12.2.1 (20241206.2353)
 -->
<!-- Title: CPS::AttributeStatic&lt; T &gt; Pages: 1 -->
<svg width="542pt" height="143pt"
 viewBox="0.00 0.00 542.25 143.38" xmlns="http://www.w3.org/2000/svg" xmlns:xlink="http://www.w3.org/1999/xlink">
<g id="graph0" class="graph" transform="scale(1 1) rotate(0) translate(4 139.38)">
<title>CPS::AttributeStatic&lt; T &gt;</title>
<!-- Node1 -->
<g id="Node000001" class="node">
<title>Node1</title>
<g id="a_Node000001"><a xlink:title=" ">
<polygon fill="#999999" stroke="#666666" points="534.25,-52.38 405.75,-52.38 405.75,-30.12 534.25,-30.12 534.25,-52.38"/>
<text text-anchor="middle" x="470" y="-38.88" font-family="Helvetica,sans-Serif" font-size="10.00">CPS::AttributeStatic&lt; T &gt;</text>
</a>
</g>
</g>
<!-- Node2 -->
<g id="Node000002" class="node">
<title>Node2</title>
<g id="a_Node000002"><a xlink:href="class_c_p_s_1_1_attribute.html" target="_top" xlink:title=" ">
<polygon fill="white" stroke="#666666" points="353.75,-80.38 250,-80.38 250,-58.12 353.75,-58.12 353.75,-80.38"/>
<text text-anchor="middle" x="301.88" y="-66.88" font-family="Helvetica,sans-Serif" font-size="10.00">CPS::Attribute&lt; T &gt;</text>
</a>
</g>
</g>
<!-- Node2&#45;&gt;Node1 -->
<g id="edge1_Node000001_Node000002" class="edge">
<title>Node2&#45;&gt;Node1</title>
<g id="a_edge1_Node000001_Node000002"><a xlink:title=" ">
<path fill="none" stroke="#63b8ff" d="M365.35,-58.72C378.43,-56.52 392.24,-54.19 405.36,-51.98"/>
<polygon fill="#63b8ff" stroke="#63b8ff" points="364.85,-55.26 355.57,-60.37 366.01,-62.16 364.85,-55.26"/>
</a>
</g>
</g>
<!-- Node3 -->
<g id="Node000003" class="node">
<title>Node3</title>
<g id="a_Node000003"><a xlink:href="class_c_p_s_1_1_attribute_base.html" target="_top" xlink:title=" ">
<polygon fill="white" stroke="#666666" points="109.75,-135.38 5.25,-135.38 5.25,-113.12 109.75,-113.12 109.75,-135.38"/>
<text text-anchor="middle" x="57.5" y="-121.88" font-family="Helvetica,sans-Serif" font-size="10.00">CPS::AttributeBase</text>
</a>
</g>
</g>
<!-- Node3&#45;&gt;Node2 -->
<g id="edge2_Node000002_Node000003" class="edge">
<title>Node3&#45;&gt;Node2</title>
<g id="a_edge2_Node000002_Node000003"><a xlink:title=" ">
<path fill="none" stroke="#63b8ff" d="M120.58,-110.16C160.66,-101.07 212.15,-89.38 249.84,-80.83"/>
<polygon fill="#63b8ff" stroke="#63b8ff" points="120.06,-106.69 111.08,-112.32 121.61,-113.52 120.06,-106.69"/>
</a>
</g>
</g>
<!-- Node4 -->
<g id="Node000004" class="node">
<title>Node4</title>
<g id="a_Node000004"><a xlink:title=" ">
<polygon fill="white" stroke="#bfbfbf" points="115,-94.62 0,-94.62 0,-43.88 115,-43.88 115,-94.62"/>
<text text-anchor="start" x="8" y="-81.12" font-family="Helvetica,sans-Serif" font-size="10.00">std::enable_shared</text>
<text text-anchor="start" x="8" y="-66.88" font-family="Helvetica,sans-Serif" font-size="10.00">_from_this&lt; Attribute</text>
<text text-anchor="middle" x="57.5" y="-52.62" font-family="Helvetica,sans-Serif" font-size="10.00">&lt; T &gt; &gt;</text>
</a>
</g>
</g>
<!-- Node4&#45;&gt;Node2 -->
<g id="edge3_Node000002_Node000004" class="edge">
<title>Node4&#45;&gt;Node2</title>
<g id="a_edge3_Node000002_Node000004"><a xlink:title=" ">
<path fill="none" stroke="#63b8ff" d="M126.61,-69.25C165.69,-69.25 213.95,-69.25 249.77,-69.25"/>
<polygon fill="#63b8ff" stroke="#63b8ff" points="126.84,-65.75 116.84,-69.25 126.84,-72.75 126.84,-65.75"/>
</a>
</g>
</g>
<!-- Node5 -->
<g id="Node000005" class="node">
<title>Node5</title>
<g id="a_Node000005"><a xlink:href="class_shared_factory.html" target="_top" xlink:title=" ">
<polygon fill="white" stroke="#666666" points="368.75,-36.5 235,-36.5 235,0 368.75,0 368.75,-36.5"/>
<text text-anchor="start" x="243" y="-23" font-family="Helvetica,sans-Serif" font-size="10.00">SharedFactory&lt; Attribute</text>
<text text-anchor="middle" x="301.88" y="-8.75" font-family="Helvetica,sans-Serif" font-size="10.00">Static&lt; T &gt; &gt;</text>
</a>
</g>
</g>
<!-- Node5&#45;&gt;Node1 -->
<g id="edge4_Node000001_Node000005" class="edge">
<title>Node5&#45;&gt;Node1</title>
<g id="a_edge4_Node000001_Node000005"><a xlink:title=" ">
<path fill="none" stroke="#63b8ff" d="M380.32,-28.97C388.67,-30.13 397.09,-31.29 405.26,-32.42"/>
<polygon fill="#63b8ff" stroke="#63b8ff" points="380.89,-25.52 370.51,-27.61 379.93,-32.45 380.89,-25.52"/>
</a>
</g>
</g>
<!-- Node6 -->
<g id="Node000006" class="node">
<title>Node6</title>
<g id="a_Node000006"><a xlink:href="class_shared_factory.html" target="_top" xlink:title=" ">
<polygon fill="white" stroke="#666666" points="109.75,-25.38 5.25,-25.38 5.25,-3.12 109.75,-3.12 109.75,-25.38"/>
<text text-anchor="middle" x="57.5" y="-11.88" font-family="Helvetica,sans-Serif" font-size="10.00">SharedFactory&lt; T &gt;</text>
</a>
</g>
</g>
<!-- Node6&#45;&gt;Node5 -->
<g id="edge5_Node000005_Node000006" class="edge">
<title>Node6&#45;&gt;Node5</title>
<g id="a_edge5_Node000005_Node000006"><a xlink:title=" ">
<path fill="none" stroke="orange" stroke-dasharray="5,2" d="M121.66,-15.29C156.49,-15.87 199.69,-16.58 234.94,-17.16"/>
<polygon fill="orange" stroke="orange" points="121.77,-11.79 111.71,-15.13 121.65,-18.79 121.77,-11.79"/>
</a>
</g>
<text text-anchor="start" x="133" y="-35.84" font-family="Helvetica,sans-Serif" font-size="10.00" fill="grey"> &lt; AttributeStatic&lt;</text>
<text text-anchor="middle" x="175" y="-21.59" font-family="Helvetica,sans-Serif" font-size="10.00" fill="grey"> T &gt; &gt;</text>
</g>
</g>
</svg>
