<?xml version="1.0" encoding="UTF-8" standalone="no"?>
<!DOCTYPE svg PUBLIC "-//W3C//DTD SVG 1.1//EN"
 "http://www.w3.org/Graphics/SVG/1.1/DTD/svg11.dtd">
<!-- Generated by graphviz version 2.44.0 (0)
 -->
<!-- Title: CPS::DP::Ph3::SynchronGeneratorDQTrapez Pages: 1 -->
<svg width="2107pt" height="461pt"
 viewBox="0.00 0.00 2107.00 461.00" xmlns="http://www.w3.org/2000/svg" xmlns:xlink="http://www.w3.org/1999/xlink">
<g id="graph0" class="graph" transform="scale(1 1) rotate(0) translate(4 457)">
<title>CPS::DP::Ph3::SynchronGeneratorDQTrapez</title>
<!-- Node1 -->
<g id="node1" class="node">
<title>Node1</title>
<g id="a_node1"><a xlink:title=" ">
<polygon fill="#bfbfbf" stroke="black" points="1928,-120 1928,-150 2099,-150 2099,-120 1928,-120"/>
<text text-anchor="start" x="1936" y="-138" font-family="Helvetica" font-size="10.00">CPS::DP::Ph3::SynchronGenerator</text>
<text text-anchor="middle" x="2013.5" y="-127" font-family="Helvetica" font-size="10.00">DQTrapez</text>
</a>
</g>
</g>
<!-- Node2 -->
<g id="node2" class="node">
<title>Node2</title>
<g id="a_node2"><a xlink:href="class_c_p_s_1_1_d_p_1_1_ph3_1_1_synchron_generator_d_q.html" target="_top" xlink:title="Synchronous generator model in dq&#45;reference frame.">
<polygon fill="none" stroke="black" points="1705,-157.5 1705,-176.5 1891,-176.5 1891,-157.5 1705,-157.5"/>
<text text-anchor="middle" x="1798" y="-164.5" font-family="Helvetica" font-size="10.00">CPS::DP::Ph3::SynchronGeneratorDQ</text>
</a>
</g>
</g>
<!-- Node2&#45;&gt;Node1 -->
<g id="edge1" class="edge">
<title>Node2&#45;&gt;Node1</title>
<path fill="none" stroke="midnightblue" d="M1872.77,-155.94C1890.55,-153.28 1909.68,-150.41 1927.91,-147.68"/>
<polygon fill="midnightblue" stroke="midnightblue" points="1871.85,-152.54 1862.48,-157.49 1872.89,-159.46 1871.85,-152.54"/>
</g>
<!-- Node3 -->
<g id="node3" class="node">
<title>Node3</title>
<g id="a_node3"><a xlink:href="class_c_p_s_1_1_base_1_1_synchron_generator.html" target="_top" xlink:title="Base synchronous generator model.">
<polygon fill="none" stroke="black" points="825,-289.5 825,-308.5 981,-308.5 981,-289.5 825,-289.5"/>
<text text-anchor="middle" x="903" y="-296.5" font-family="Helvetica" font-size="10.00">CPS::Base::SynchronGenerator</text>
</a>
</g>
</g>
<!-- Node3&#45;&gt;Node2 -->
<g id="edge2" class="edge">
<title>Node3&#45;&gt;Node2</title>
<path fill="none" stroke="midnightblue" d="M991.24,-297.49C1041.46,-296.74 1105.78,-296 1163,-296 1163,-296 1163,-296 1460,-296 1593.44,-296 1738.12,-206.7 1782.96,-176.7"/>
<polygon fill="midnightblue" stroke="midnightblue" points="991.01,-293.99 981.06,-297.64 991.11,-300.99 991.01,-293.99"/>
</g>
<!-- Node4 -->
<g id="node4" class="node">
<title>Node4</title>
<g id="a_node4"><a xlink:href="class_c_p_s_1_1_attribute.html" target="_top" xlink:title=" ">
<polygon fill="none" stroke="black" points="441.5,-302.5 441.5,-321.5 559.5,-321.5 559.5,-302.5 441.5,-302.5"/>
<text text-anchor="middle" x="500.5" y="-309.5" font-family="Helvetica" font-size="10.00">CPS::Attribute&lt; Real &gt;</text>
</a>
</g>
</g>
<!-- Node4&#45;&gt;Node3 -->
<g id="edge3" class="edge">
<title>Node4&#45;&gt;Node3</title>
<path fill="none" stroke="#9a32cd" stroke-dasharray="5,2" d="M569.88,-309.78C640.64,-307.48 750.95,-303.9 824.8,-301.51"/>
<polygon fill="#9a32cd" stroke="#9a32cd" points="569.62,-306.29 559.74,-310.11 569.84,-313.28 569.62,-306.29"/>
<text text-anchor="middle" x="630.5" y="-423" font-family="Helvetica" font-size="10.00"> mDelta</text>
<text text-anchor="middle" x="630.5" y="-412" font-family="Helvetica" font-size="10.00">mElecActivePower</text>
<text text-anchor="middle" x="630.5" y="-401" font-family="Helvetica" font-size="10.00">mElecReactivePower</text>
<text text-anchor="middle" x="630.5" y="-390" font-family="Helvetica" font-size="10.00">mElecTorque</text>
<text text-anchor="middle" x="630.5" y="-379" font-family="Helvetica" font-size="10.00">mInertia</text>
<text text-anchor="middle" x="630.5" y="-368" font-family="Helvetica" font-size="10.00">mLd</text>
<text text-anchor="middle" x="630.5" y="-357" font-family="Helvetica" font-size="10.00">mLd_s</text>
<text text-anchor="middle" x="630.5" y="-346" font-family="Helvetica" font-size="10.00">mLd_t</text>
<text text-anchor="middle" x="630.5" y="-335" font-family="Helvetica" font-size="10.00">mLl</text>
<text text-anchor="middle" x="630.5" y="-324" font-family="Helvetica" font-size="10.00">mLq</text>
<text text-anchor="middle" x="630.5" y="-313" font-family="Helvetica" font-size="10.00">...</text>
</g>
<!-- Node5 -->
<g id="node5" class="node">
<title>Node5</title>
<g id="a_node5"><a xlink:href="class_c_p_s_1_1_attribute_base.html" target="_top" xlink:title=" ">
<polygon fill="none" stroke="black" points="2.5,-196.5 2.5,-215.5 105.5,-215.5 105.5,-196.5 2.5,-196.5"/>
<text text-anchor="middle" x="54" y="-203.5" font-family="Helvetica" font-size="10.00">CPS::AttributeBase</text>
</a>
</g>
</g>
<!-- Node5&#45;&gt;Node4 -->
<g id="edge4" class="edge">
<title>Node5&#45;&gt;Node4</title>
<path fill="none" stroke="midnightblue" d="M57.93,-225.78C64.91,-264.95 86.55,-351.7 145,-388 248.13,-452.05 303.78,-406.79 417,-363 443.86,-352.61 471.64,-333.35 487.14,-321.7"/>
<polygon fill="midnightblue" stroke="midnightblue" points="61.38,-225.17 56.3,-215.88 54.47,-226.31 61.38,-225.17"/>
</g>
<!-- Node7 -->
<g id="node7" class="node">
<title>Node7</title>
<g id="a_node7"><a xlink:href="class_c_p_s_1_1_attribute.html" target="_top" xlink:title=" ">
<polygon fill="none" stroke="black" points="162,-237.5 162,-256.5 266,-256.5 266,-237.5 162,-237.5"/>
<text text-anchor="middle" x="214" y="-244.5" font-family="Helvetica" font-size="10.00">CPS::Attribute&lt; T &gt;</text>
</a>
</g>
</g>
<!-- Node5&#45;&gt;Node7 -->
<g id="edge7" class="edge">
<title>Node5&#45;&gt;Node7</title>
<path fill="none" stroke="midnightblue" d="M101.54,-218.08C125.39,-224.27 154.01,-231.69 176.28,-237.47"/>
<polygon fill="midnightblue" stroke="midnightblue" points="102.2,-214.63 91.65,-215.51 100.45,-221.41 102.2,-214.63"/>
</g>
<!-- Node11 -->
<g id="node11" class="node">
<title>Node11</title>
<g id="a_node11"><a xlink:href="class_c_p_s_1_1_attribute.html" target="_top" xlink:title=" ">
<polygon fill="none" stroke="black" points="438,-62.5 438,-81.5 563,-81.5 563,-62.5 438,-62.5"/>
<text text-anchor="middle" x="500.5" y="-69.5" font-family="Helvetica" font-size="10.00">CPS::Attribute&lt; Matrix &gt;</text>
</a>
</g>
</g>
<!-- Node5&#45;&gt;Node11 -->
<g id="edge12" class="edge">
<title>Node5&#45;&gt;Node11</title>
<path fill="none" stroke="midnightblue" d="M65.34,-187.59C79.76,-163.88 108.34,-123.53 145,-105 238.65,-57.68 363.97,-58.6 437.79,-64.6"/>
<polygon fill="midnightblue" stroke="midnightblue" points="62.24,-185.95 60.19,-196.34 68.28,-189.49 62.24,-185.95"/>
</g>
<!-- Node16 -->
<g id="node16" class="node">
<title>Node16</title>
<g id="a_node16"><a xlink:href="class_c_p_s_1_1_attribute.html" target="_top" xlink:title=" ">
<polygon fill="none" stroke="black" points="438.5,-151.5 438.5,-170.5 562.5,-170.5 562.5,-151.5 438.5,-151.5"/>
<text text-anchor="middle" x="500.5" y="-158.5" font-family="Helvetica" font-size="10.00">CPS::Attribute&lt; String &gt;</text>
</a>
</g>
</g>
<!-- Node5&#45;&gt;Node16 -->
<g id="edge20" class="edge">
<title>Node5&#45;&gt;Node16</title>
<path fill="none" stroke="midnightblue" d="M68.43,-188.26C84.28,-168.95 112.61,-139.2 145,-127 262.17,-82.87 415.78,-129.83 474.87,-151.38"/>
<polygon fill="midnightblue" stroke="midnightblue" points="65.53,-186.28 62.06,-196.29 71.01,-190.63 65.53,-186.28"/>
</g>
<!-- Node19 -->
<g id="node19" class="node">
<title>Node19</title>
<g id="a_node19"><a xlink:href="class_c_p_s_1_1_attribute.html" target="_top" xlink:title=" ">
<polygon fill="none" stroke="black" points="435,-252 435,-282 566,-282 566,-252 435,-252"/>
<text text-anchor="start" x="443" y="-270" font-family="Helvetica" font-size="10.00">CPS::Attribute&lt; MatrixVar</text>
<text text-anchor="middle" x="500.5" y="-259" font-family="Helvetica" font-size="10.00">&lt; VarType &gt; &gt;</text>
</a>
</g>
</g>
<!-- Node5&#45;&gt;Node19 -->
<g id="edge26" class="edge">
<title>Node5&#45;&gt;Node19</title>
<path fill="none" stroke="midnightblue" d="M116.06,-199.68C189.15,-194.07 314.54,-190.73 417,-220 439.98,-226.57 463.4,-240.77 479.38,-251.86"/>
<polygon fill="midnightblue" stroke="midnightblue" points="115.35,-196.22 105.66,-200.52 115.91,-203.2 115.35,-196.22"/>
</g>
<!-- Node6 -->
<g id="node6" class="node">
<title>Node6</title>
<g id="a_node6"><a xlink:title=" ">
<polygon fill="none" stroke="#bfbfbf" points="160,-337.5 160,-378.5 268,-378.5 268,-337.5 160,-337.5"/>
<text text-anchor="start" x="168" y="-366.5" font-family="Helvetica" font-size="10.00">std::enable_shared</text>
<text text-anchor="start" x="168" y="-355.5" font-family="Helvetica" font-size="10.00">_from_this&lt; Attribute</text>
<text text-anchor="middle" x="214" y="-344.5" font-family="Helvetica" font-size="10.00">&lt; Real &gt; &gt;</text>
</a>
</g>
</g>
<!-- Node6&#45;&gt;Node4 -->
<g id="edge5" class="edge">
<title>Node6&#45;&gt;Node4</title>
<path fill="none" stroke="midnightblue" d="M278.45,-356.78C318.55,-355 371.26,-350.8 417,-341 437.93,-336.52 460.83,-328.17 477.18,-321.58"/>
<polygon fill="midnightblue" stroke="midnightblue" points="278.13,-353.29 268.28,-357.2 278.41,-360.29 278.13,-353.29"/>
</g>
<!-- Node7&#45;&gt;Node4 -->
<g id="edge6" class="edge">
<title>Node7&#45;&gt;Node4</title>
<path fill="none" stroke="orange" stroke-dasharray="5,2" d="M259.74,-259.67C267.57,-262.21 275.58,-265.02 283,-268 291.3,-271.33 292.51,-274.19 301,-277 346.85,-292.15 400.95,-301.14 441.08,-306.2"/>
<polygon fill="orange" stroke="orange" points="260.57,-256.26 249.98,-256.6 258.47,-262.94 260.57,-256.26"/>
<text text-anchor="middle" x="359" y="-306" font-family="Helvetica" font-size="10.00"> &lt; Real &gt;</text>
</g>
<!-- Node7&#45;&gt;Node11 -->
<g id="edge14" class="edge">
<title>Node7&#45;&gt;Node11</title>
<path fill="none" stroke="orange" stroke-dasharray="5,2" d="M234.63,-230.61C271.68,-200.36 355.38,-135.26 435,-96 446.14,-90.5 458.88,-85.51 470.07,-81.52"/>
<polygon fill="orange" stroke="orange" points="232.14,-228.13 226.64,-237.18 236.59,-233.53 232.14,-228.13"/>
<text text-anchor="middle" x="359" y="-179" font-family="Helvetica" font-size="10.00"> &lt; Matrix &gt;</text>
</g>
<!-- Node7&#45;&gt;Node16 -->
<g id="edge22" class="edge">
<title>Node7&#45;&gt;Node16</title>
<path fill="none" stroke="orange" stroke-dasharray="5,2" d="M269.05,-235.24C310.07,-225.8 367.64,-211.44 417,-195 438.31,-187.9 461.95,-177.94 478.44,-170.63"/>
<polygon fill="orange" stroke="orange" points="268.22,-231.84 259.25,-237.48 269.78,-238.66 268.22,-231.84"/>
<text text-anchor="middle" x="359" y="-231" font-family="Helvetica" font-size="10.00"> &lt; String &gt;</text>
</g>
<!-- Node7&#45;&gt;Node19 -->
<g id="edge28" class="edge">
<title>Node7&#45;&gt;Node19</title>
<path fill="none" stroke="orange" stroke-dasharray="5,2" d="M276.2,-251.3C323,-254.59 387.38,-259.12 434.99,-262.46"/>
<polygon fill="orange" stroke="orange" points="276.41,-247.81 266.19,-250.6 275.92,-254.79 276.41,-247.81"/>
<text text-anchor="middle" x="359" y="-265" font-family="Helvetica" font-size="10.00"> &lt; MatrixVar&lt; VarType &gt; &gt;</text>
</g>
<!-- Node8 -->
<g id="node8" class="node">
<title>Node8</title>
<g id="a_node8"><a xlink:title=" ">
<polygon fill="none" stroke="#bfbfbf" points="0,-411.5 0,-452.5 108,-452.5 108,-411.5 0,-411.5"/>
<text text-anchor="start" x="8" y="-440.5" font-family="Helvetica" font-size="10.00">std::enable_shared</text>
<text text-anchor="start" x="8" y="-429.5" font-family="Helvetica" font-size="10.00">_from_this&lt; Attribute</text>
<text text-anchor="middle" x="54" y="-418.5" font-family="Helvetica" font-size="10.00">&lt; T &gt; &gt;</text>
</a>
</g>
</g>
<!-- Node8&#45;&gt;Node7 -->
<g id="edge8" class="edge">
<title>Node8&#45;&gt;Node7</title>
<path fill="none" stroke="midnightblue" d="M63.86,-401.63C76.15,-364.76 101.87,-303.18 145,-268 150.94,-263.16 157.99,-259.43 165.26,-256.56"/>
<polygon fill="midnightblue" stroke="midnightblue" points="60.47,-400.73 60.75,-411.33 67.14,-402.87 60.47,-400.73"/>
</g>
<!-- Node9 -->
<g id="node9" class="node">
<title>Node9</title>
<g id="a_node9"><a xlink:href="class_c_p_s_1_1_m_n_a_interface.html" target="_top" xlink:title="Interface to be implemented by all models used by the MNA solver.">
<polygon fill="none" stroke="black" points="699,-97.5 699,-116.5 803,-116.5 803,-97.5 699,-97.5"/>
<text text-anchor="middle" x="751" y="-104.5" font-family="Helvetica" font-size="10.00">CPS::MNAInterface</text>
</a>
</g>
</g>
<!-- Node9&#45;&gt;Node2 -->
<g id="edge9" class="edge">
<title>Node9&#45;&gt;Node2</title>
<path fill="none" stroke="midnightblue" d="M812.94,-114.93C877.05,-122.58 980.94,-133 1071,-133 1071,-133 1071,-133 1460,-133 1558.06,-133 1671.35,-147.43 1738.43,-157.48"/>
<polygon fill="midnightblue" stroke="midnightblue" points="813.35,-111.45 803,-113.73 812.51,-118.4 813.35,-111.45"/>
</g>
<!-- Node10 -->
<g id="node10" class="node">
<title>Node10</title>
<g id="a_node10"><a xlink:href="class_c_p_s_1_1_attribute_list.html" target="_top" xlink:title="Base class of objects having attributes to access member variables.">
<polygon fill="none" stroke="black" points="452.5,-105.5 452.5,-124.5 548.5,-124.5 548.5,-105.5 452.5,-105.5"/>
<text text-anchor="middle" x="500.5" y="-112.5" font-family="Helvetica" font-size="10.00">CPS::AttributeList</text>
</a>
</g>
</g>
<!-- Node10&#45;&gt;Node9 -->
<g id="edge10" class="edge">
<title>Node10&#45;&gt;Node9</title>
<path fill="none" stroke="midnightblue" d="M558.68,-113.16C600.98,-111.8 658.09,-109.96 698.88,-108.65"/>
<polygon fill="midnightblue" stroke="midnightblue" points="558.42,-109.67 548.53,-113.49 558.64,-116.66 558.42,-109.67"/>
</g>
<!-- Node15 -->
<g id="node15" class="node">
<title>Node15</title>
<g id="a_node15"><a xlink:href="class_c_p_s_1_1_identified_object.html" target="_top" xlink:title=" ">
<polygon fill="none" stroke="black" points="695,-155.5 695,-174.5 807,-174.5 807,-155.5 695,-155.5"/>
<text text-anchor="middle" x="751" y="-162.5" font-family="Helvetica" font-size="10.00">CPS::IdentifiedObject</text>
</a>
</g>
</g>
<!-- Node10&#45;&gt;Node15 -->
<g id="edge18" class="edge">
<title>Node10&#45;&gt;Node15</title>
<path fill="none" stroke="midnightblue" d="M558.43,-126.46C602.11,-135.24 661.68,-147.23 702.74,-155.49"/>
<polygon fill="midnightblue" stroke="midnightblue" points="559.03,-123 548.53,-124.46 557.65,-129.87 559.03,-123"/>
</g>
<!-- Node11&#45;&gt;Node9 -->
<g id="edge11" class="edge">
<title>Node11&#45;&gt;Node9</title>
<path fill="none" stroke="#9a32cd" stroke-dasharray="5,2" d="M573.39,-80.88C605.18,-84.95 642.99,-89.98 677,-95 684.12,-96.05 691.61,-97.22 698.98,-98.4"/>
<polygon fill="#9a32cd" stroke="#9a32cd" points="573.66,-77.39 563.3,-79.6 572.77,-84.33 573.66,-77.39"/>
<text text-anchor="middle" x="630.5" y="-98" font-family="Helvetica" font-size="10.00"> mRightVector</text>
</g>
<!-- Node12 -->
<g id="node12" class="node">
<title>Node12</title>
<g id="a_node12"><a xlink:title=" ">
<polygon fill="none" stroke="#bfbfbf" points="160,-0.5 160,-41.5 268,-41.5 268,-0.5 160,-0.5"/>
<text text-anchor="start" x="168" y="-29.5" font-family="Helvetica" font-size="10.00">std::enable_shared</text>
<text text-anchor="start" x="168" y="-18.5" font-family="Helvetica" font-size="10.00">_from_this&lt; Attribute</text>
<text text-anchor="middle" x="214" y="-7.5" font-family="Helvetica" font-size="10.00">&lt; Matrix &gt; &gt;</text>
</a>
</g>
</g>
<!-- Node12&#45;&gt;Node11 -->
<g id="edge13" class="edge">
<title>Node12&#45;&gt;Node11</title>
<path fill="none" stroke="midnightblue" d="M278.32,-31.64C318.16,-38.41 370.63,-47.49 417,-56 428.05,-58.03 439.92,-60.28 451.11,-62.45"/>
<polygon fill="midnightblue" stroke="midnightblue" points="278.66,-28.14 268.21,-29.92 277.49,-35.05 278.66,-28.14"/>
</g>
<!-- Node13 -->
<g id="node13" class="node">
<title>Node13</title>
<g id="a_node13"><a xlink:href="class_c_p_s_1_1_sim_power_comp.html" target="_top" xlink:title=" ">
<polygon fill="none" stroke="black" points="1399,-162 1399,-192 1519,-192 1519,-162 1399,-162"/>
<text text-anchor="start" x="1407" y="-180" font-family="Helvetica" font-size="10.00">CPS::SimPowerComp&lt;</text>
<text text-anchor="middle" x="1459" y="-169" font-family="Helvetica" font-size="10.00"> Complex &gt;</text>
</a>
</g>
</g>
<!-- Node13&#45;&gt;Node2 -->
<g id="edge15" class="edge">
<title>Node13&#45;&gt;Node2</title>
<path fill="none" stroke="midnightblue" d="M1529.3,-174.94C1580.06,-173.44 1649.48,-171.38 1704.9,-169.73"/>
<polygon fill="midnightblue" stroke="midnightblue" points="1528.98,-171.45 1519.09,-175.25 1529.19,-178.45 1528.98,-171.45"/>
</g>
<!-- Node14 -->
<g id="node14" class="node">
<title>Node14</title>
<g id="a_node14"><a xlink:href="class_c_p_s_1_1_topological_power_comp.html" target="_top" xlink:title=" ">
<polygon fill="none" stroke="black" points="999,-164.5 999,-183.5 1145,-183.5 1145,-164.5 999,-164.5"/>
<text text-anchor="middle" x="1072" y="-171.5" font-family="Helvetica" font-size="10.00">CPS::TopologicalPowerComp</text>
</a>
</g>
</g>
<!-- Node14&#45;&gt;Node13 -->
<g id="edge16" class="edge">
<title>Node14&#45;&gt;Node13</title>
<path fill="none" stroke="midnightblue" d="M1155.52,-174.64C1228.68,-175.21 1333.75,-176.03 1398.83,-176.54"/>
<polygon fill="midnightblue" stroke="midnightblue" points="1155.44,-171.14 1145.42,-174.56 1155.39,-178.14 1155.44,-171.14"/>
</g>
<!-- Node18 -->
<g id="node18" class="node">
<title>Node18</title>
<g id="a_node18"><a xlink:href="class_c_p_s_1_1_sim_power_comp.html" target="_top" xlink:title="Base class for all components that are transmitting power.">
<polygon fill="none" stroke="black" points="1182,-203 1182,-233 1302,-233 1302,-203 1182,-203"/>
<text text-anchor="start" x="1190" y="-221" font-family="Helvetica" font-size="10.00">CPS::SimPowerComp&lt;</text>
<text text-anchor="middle" x="1242" y="-210" font-family="Helvetica" font-size="10.00"> VarType &gt;</text>
</a>
</g>
</g>
<!-- Node14&#45;&gt;Node18 -->
<g id="edge24" class="edge">
<title>Node14&#45;&gt;Node18</title>
<path fill="none" stroke="midnightblue" d="M1119.19,-186.1C1139.06,-191.3 1162.5,-197.44 1183.48,-202.93"/>
<polygon fill="midnightblue" stroke="midnightblue" points="1120.01,-182.7 1109.45,-183.55 1118.24,-189.47 1120.01,-182.7"/>
</g>
<!-- Node15&#45;&gt;Node14 -->
<g id="edge17" class="edge">
<title>Node15&#45;&gt;Node14</title>
<path fill="none" stroke="midnightblue" d="M817.46,-166.85C870.22,-168.34 944.35,-170.43 998.83,-171.96"/>
<polygon fill="midnightblue" stroke="midnightblue" points="817.3,-163.34 807.2,-166.56 817.1,-170.34 817.3,-163.34"/>
</g>
<!-- Node16&#45;&gt;Node15 -->
<g id="edge19" class="edge">
<title>Node16&#45;&gt;Node15</title>
<path fill="none" stroke="#9a32cd" stroke-dasharray="5,2" d="M572.78,-162.15C611.51,-162.77 658.7,-163.53 694.65,-164.11"/>
<polygon fill="#9a32cd" stroke="#9a32cd" points="572.66,-158.65 562.61,-161.98 572.55,-165.64 572.66,-158.65"/>
<text text-anchor="middle" x="630.5" y="-178" font-family="Helvetica" font-size="10.00"> mName</text>
<text text-anchor="middle" x="630.5" y="-167" font-family="Helvetica" font-size="10.00">mUID</text>
</g>
<!-- Node17 -->
<g id="node17" class="node">
<title>Node17</title>
<g id="a_node17"><a xlink:title=" ">
<polygon fill="none" stroke="#bfbfbf" points="160,-136.5 160,-177.5 268,-177.5 268,-136.5 160,-136.5"/>
<text text-anchor="start" x="168" y="-165.5" font-family="Helvetica" font-size="10.00">std::enable_shared</text>
<text text-anchor="start" x="168" y="-154.5" font-family="Helvetica" font-size="10.00">_from_this&lt; Attribute</text>
<text text-anchor="middle" x="214" y="-143.5" font-family="Helvetica" font-size="10.00">&lt; String &gt; &gt;</text>
</a>
</g>
</g>
<!-- Node17&#45;&gt;Node16 -->
<g id="edge21" class="edge">
<title>Node17&#45;&gt;Node16</title>
<path fill="none" stroke="midnightblue" d="M278.4,-157.89C326.16,-158.56 391.25,-159.48 438.43,-160.14"/>
<polygon fill="midnightblue" stroke="midnightblue" points="278.23,-154.39 268.18,-157.75 278.13,-161.39 278.23,-154.39"/>
</g>
<!-- Node18&#45;&gt;Node13 -->
<g id="edge23" class="edge">
<title>Node18&#45;&gt;Node13</title>
<path fill="none" stroke="orange" stroke-dasharray="5,2" d="M1312.12,-204.82C1340.02,-199.5 1371.9,-193.42 1398.72,-188.3"/>
<polygon fill="orange" stroke="orange" points="1311.2,-201.43 1302.03,-206.74 1312.51,-208.31 1311.2,-201.43"/>
<text text-anchor="middle" x="1350.5" y="-206" font-family="Helvetica" font-size="10.00"> &lt; Complex &gt;</text>
</g>
<!-- Node19&#45;&gt;Node18 -->
<g id="edge25" class="edge">
<title>Node19&#45;&gt;Node18</title>
<path fill="none" stroke="#9a32cd" stroke-dasharray="5,2" d="M576.45,-262.03C723.75,-252.27 1048.26,-230.77 1181.8,-221.92"/>
<polygon fill="#9a32cd" stroke="#9a32cd" points="575.9,-258.56 566.15,-262.72 576.36,-265.55 575.9,-258.56"/>
<text text-anchor="middle" x="903" y="-260" font-family="Helvetica" font-size="10.00"> mIntfCurrent</text>
<text text-anchor="middle" x="903" y="-249" font-family="Helvetica" font-size="10.00">mIntfVoltage</text>
</g>
<!-- Node20 -->
<g id="node20" class="node">
<title>Node20</title>
<g id="a_node20"><a xlink:title=" ">
<polygon fill="none" stroke="#bfbfbf" points="145,-277.5 145,-318.5 283,-318.5 283,-277.5 145,-277.5"/>
<text text-anchor="start" x="153" y="-306.5" font-family="Helvetica" font-size="10.00">std::enable_shared</text>
<text text-anchor="start" x="153" y="-295.5" font-family="Helvetica" font-size="10.00">_from_this&lt; Attribute</text>
<text text-anchor="middle" x="214" y="-284.5" font-family="Helvetica" font-size="10.00">&lt; MatrixVar&lt; VarType &gt; &gt; &gt;</text>
</a>
</g>
</g>
<!-- Node20&#45;&gt;Node19 -->
<g id="edge27" class="edge">
<title>Node20&#45;&gt;Node19</title>
<path fill="none" stroke="midnightblue" d="M276.35,-321.56C318.24,-333.67 373.77,-341.65 417,-319 429.45,-312.48 424.02,-301.77 435,-293 440.28,-288.78 446.34,-285.16 452.58,-282.08"/>
<polygon fill="midnightblue" stroke="midnightblue" points="277.14,-318.14 266.55,-318.58 275.1,-324.84 277.14,-318.14"/>
</g>
<!-- Node21 -->
<g id="node21" class="node">
<title>Node21</title>
<g id="a_node21"><a xlink:href="class_shared_factory.html" target="_top" xlink:title=" ">
<polygon fill="none" stroke="black" points="1711,-99 1711,-129 1885,-129 1885,-99 1711,-99"/>
<text text-anchor="start" x="1719" y="-117" font-family="Helvetica" font-size="10.00">SharedFactory&lt; SynchronGenerator</text>
<text text-anchor="middle" x="1798" y="-106" font-family="Helvetica" font-size="10.00">DQTrapez &gt;</text>
</a>
</g>
</g>
<!-- Node21&#45;&gt;Node1 -->
<g id="edge29" class="edge">
<title>Node21&#45;&gt;Node1</title>
<path fill="none" stroke="midnightblue" d="M1895.47,-123.49C1906.22,-124.55 1917.1,-125.62 1927.69,-126.66"/>
<polygon fill="midnightblue" stroke="midnightblue" points="1895.52,-119.98 1885.22,-122.48 1894.83,-126.94 1895.52,-119.98"/>
</g>
<!-- Node22 -->
<g id="node22" class="node">
<title>Node22</title>
<g id="a_node22"><a xlink:href="class_shared_factory.html" target="_top" xlink:title=" ">
<polygon fill="none" stroke="black" points="1406.5,-85.5 1406.5,-104.5 1511.5,-104.5 1511.5,-85.5 1406.5,-85.5"/>
<text text-anchor="middle" x="1459" y="-92.5" font-family="Helvetica" font-size="10.00">SharedFactory&lt; T &gt;</text>
</a>
</g>
</g>
<!-- Node22&#45;&gt;Node21 -->
<g id="edge30" class="edge">
<title>Node22&#45;&gt;Node21</title>
<path fill="none" stroke="orange" stroke-dasharray="5,2" d="M1521.82,-98.49C1574.8,-101.47 1651.69,-105.81 1710.73,-109.14"/>
<polygon fill="orange" stroke="orange" points="1521.73,-94.97 1511.55,-97.91 1521.34,-101.96 1521.73,-94.97"/>
<text text-anchor="middle" x="1612" y="-111" font-family="Helvetica" font-size="10.00"> &lt; SynchronGeneratorDQTrapez &gt;</text>
</g>
</g>
</svg>
