<?xml version="1.0" encoding="UTF-8" standalone="no"?>
<!DOCTYPE svg PUBLIC "-//W3C//DTD SVG 1.1//EN"
 "http://www.w3.org/Graphics/SVG/1.1/DTD/svg11.dtd">
<!-- Generated by graphviz version 2.44.0 (0)
 -->
<!-- Title: CPS::DP::Ph1::Inverter Pages: 1 -->
<svg width="1082pt" height="128pt"
 viewBox="0.00 0.00 1082.00 128.09" xmlns="http://www.w3.org/2000/svg" xmlns:xlink="http://www.w3.org/1999/xlink">
<g id="graph0" class="graph" transform="scale(1 1) rotate(0) translate(4 124.09)">
<title>CPS::DP::Ph1::Inverter</title>
<!-- Node1 -->
<g id="node1" class="node">
<title>Node1</title>
<g id="a_node1"><a xlink:title="Single phase inverter model.">
<polygon fill="#bfbfbf" stroke="black" points="954,-38.5 954,-57.5 1074,-57.5 1074,-38.5 954,-38.5"/>
<text text-anchor="middle" x="1014" y="-45.5" font-family="Helvetica" font-size="10.00">CPS::DP::Ph1::Inverter</text>
</a>
</g>
</g>
<!-- Node2 -->
<g id="node2" class="node">
<title>Node2</title>
<g id="a_node2"><a xlink:href="class_c_p_s_1_1_sim_power_comp.html" target="_top" xlink:title=" ">
<polygon fill="none" stroke="black" points="791,-77 791,-107 911,-107 911,-77 791,-77"/>
<text text-anchor="start" x="799" y="-95" font-family="Helvetica" font-size="10.00">CPS::SimPowerComp&lt;</text>
<text text-anchor="middle" x="851" y="-84" font-family="Helvetica" font-size="10.00"> Complex &gt;</text>
</a>
</g>
</g>
<!-- Node2&#45;&gt;Node1 -->
<g id="edge1" class="edge">
<title>Node2&#45;&gt;Node1</title>
<path fill="none" stroke="midnightblue" d="M916.75,-74.3C937.66,-68.59 960.04,-62.47 977.95,-57.58"/>
<polygon fill="midnightblue" stroke="midnightblue" points="915.68,-70.97 906.96,-76.98 917.53,-77.72 915.68,-70.97"/>
</g>
<!-- Node3 -->
<g id="node3" class="node">
<title>Node3</title>
<g id="a_node3"><a xlink:href="class_c_p_s_1_1_topological_power_comp.html" target="_top" xlink:title=" ">
<polygon fill="none" stroke="black" points="385,-82.5 385,-101.5 531,-101.5 531,-82.5 385,-82.5"/>
<text text-anchor="middle" x="458" y="-89.5" font-family="Helvetica" font-size="10.00">CPS::TopologicalPowerComp</text>
</a>
</g>
</g>
<!-- Node3&#45;&gt;Node2 -->
<g id="edge2" class="edge">
<title>Node3&#45;&gt;Node2</title>
<path fill="none" stroke="midnightblue" d="M501.78,-104.16C521.72,-109.22 545.89,-114.5 568,-117 644.8,-125.69 733.65,-114.27 790.77,-104.17"/>
<polygon fill="midnightblue" stroke="midnightblue" points="502.62,-100.76 492.06,-101.63 500.85,-107.54 502.62,-100.76"/>
</g>
<!-- Node6 -->
<g id="node6" class="node">
<title>Node6</title>
<g id="a_node6"><a xlink:href="class_c_p_s_1_1_sim_power_comp.html" target="_top" xlink:title="Base class for all components that are transmitting power.">
<polygon fill="none" stroke="black" points="568,-77 568,-107 688,-107 688,-77 568,-77"/>
<text text-anchor="start" x="576" y="-95" font-family="Helvetica" font-size="10.00">CPS::SimPowerComp&lt;</text>
<text text-anchor="middle" x="628" y="-84" font-family="Helvetica" font-size="10.00"> VarType &gt;</text>
</a>
</g>
</g>
<!-- Node3&#45;&gt;Node6 -->
<g id="edge6" class="edge">
<title>Node3&#45;&gt;Node6</title>
<path fill="none" stroke="midnightblue" d="M541.34,-92C550.34,-92 559.36,-92 567.99,-92"/>
<polygon fill="midnightblue" stroke="midnightblue" points="541.22,-88.5 531.22,-92 541.22,-95.5 541.22,-88.5"/>
</g>
<!-- Node4 -->
<g id="node4" class="node">
<title>Node4</title>
<g id="a_node4"><a xlink:href="class_c_p_s_1_1_identified_object.html" target="_top" xlink:title=" ">
<polygon fill="none" stroke="black" points="133,-81.5 133,-100.5 245,-100.5 245,-81.5 133,-81.5"/>
<text text-anchor="middle" x="189" y="-88.5" font-family="Helvetica" font-size="10.00">CPS::IdentifiedObject</text>
</a>
</g>
</g>
<!-- Node4&#45;&gt;Node3 -->
<g id="edge3" class="edge">
<title>Node4&#45;&gt;Node3</title>
<path fill="none" stroke="midnightblue" d="M255.53,-91.25C294.6,-91.39 344.26,-91.58 384.5,-91.73"/>
<polygon fill="midnightblue" stroke="midnightblue" points="255.34,-87.74 245.32,-91.21 255.31,-94.74 255.34,-87.74"/>
</g>
<!-- Node5 -->
<g id="node5" class="node">
<title>Node5</title>
<g id="a_node5"><a xlink:href="class_c_p_s_1_1_attribute_list.html" target="_top" xlink:title="Base class of objects having attributes to access member variables.">
<polygon fill="none" stroke="black" points="0,-54.5 0,-73.5 96,-73.5 96,-54.5 0,-54.5"/>
<text text-anchor="middle" x="48" y="-61.5" font-family="Helvetica" font-size="10.00">CPS::AttributeList</text>
</a>
</g>
</g>
<!-- Node5&#45;&gt;Node4 -->
<g id="edge4" class="edge">
<title>Node5&#45;&gt;Node4</title>
<path fill="none" stroke="midnightblue" d="M105.99,-75.07C116.98,-77.2 128.39,-79.42 139.09,-81.5"/>
<polygon fill="midnightblue" stroke="midnightblue" points="106.54,-71.61 96.06,-73.14 105.21,-78.48 106.54,-71.61"/>
</g>
<!-- Node7 -->
<g id="node7" class="node">
<title>Node7</title>
<g id="a_node7"><a xlink:href="class_c_p_s_1_1_m_n_a_interface.html" target="_top" xlink:title="Interface to be implemented by all models used by the MNA solver.">
<polygon fill="none" stroke="black" points="263,-41.5 263,-60.5 367,-60.5 367,-41.5 263,-41.5"/>
<text text-anchor="middle" x="315" y="-48.5" font-family="Helvetica" font-size="10.00">CPS::MNAInterface</text>
</a>
</g>
</g>
<!-- Node5&#45;&gt;Node7 -->
<g id="edge8" class="edge">
<title>Node5&#45;&gt;Node7</title>
<path fill="none" stroke="midnightblue" d="M106.31,-61.19C152.89,-58.9 218,-55.71 262.85,-53.51"/>
<polygon fill="midnightblue" stroke="midnightblue" points="105.89,-57.7 96.07,-61.69 106.23,-64.7 105.89,-57.7"/>
</g>
<!-- Node6&#45;&gt;Node2 -->
<g id="edge5" class="edge">
<title>Node6&#45;&gt;Node2</title>
<path fill="none" stroke="orange" stroke-dasharray="5,2" d="M698.52,-92C728.23,-92 762.55,-92 791,-92"/>
<polygon fill="orange" stroke="orange" points="698.22,-88.5 688.22,-92 698.22,-95.5 698.22,-88.5"/>
<text text-anchor="middle" x="736.5" y="-95" font-family="Helvetica" font-size="10.00"> &lt; Complex &gt;</text>
</g>
<!-- Node7&#45;&gt;Node1 -->
<g id="edge7" class="edge">
<title>Node7&#45;&gt;Node1</title>
<path fill="none" stroke="midnightblue" d="M377.38,-49.78C424.36,-48.95 490.77,-48 549,-48 549,-48 549,-48 852,-48 885.68,-48 923.33,-48 953.74,-48"/>
<polygon fill="midnightblue" stroke="midnightblue" points="377.3,-46.28 367.36,-49.96 377.42,-53.28 377.3,-46.28"/>
</g>
<!-- Node8 -->
<g id="node8" class="node">
<title>Node8</title>
<g id="a_node8"><a xlink:href="class_shared_factory.html" target="_top" xlink:title=" ">
<polygon fill="none" stroke="black" points="785,-0.5 785,-19.5 917,-19.5 917,-0.5 785,-0.5"/>
<text text-anchor="middle" x="851" y="-7.5" font-family="Helvetica" font-size="10.00">SharedFactory&lt; Inverter &gt;</text>
</a>
</g>
</g>
<!-- Node8&#45;&gt;Node1 -->
<g id="edge9" class="edge">
<title>Node8&#45;&gt;Node1</title>
<path fill="none" stroke="midnightblue" d="M902.4,-21.9C925.03,-27.24 951.37,-33.45 972.67,-38.48"/>
<polygon fill="midnightblue" stroke="midnightblue" points="903.16,-18.48 892.63,-19.59 901.56,-25.29 903.16,-18.48"/>
</g>
<!-- Node9 -->
<g id="node9" class="node">
<title>Node9</title>
<g id="a_node9"><a xlink:href="class_shared_factory.html" target="_top" xlink:title=" ">
<polygon fill="none" stroke="black" points="575.5,-0.5 575.5,-19.5 680.5,-19.5 680.5,-0.5 575.5,-0.5"/>
<text text-anchor="middle" x="628" y="-7.5" font-family="Helvetica" font-size="10.00">SharedFactory&lt; T &gt;</text>
</a>
</g>
</g>
<!-- Node9&#45;&gt;Node8 -->
<g id="edge10" class="edge">
<title>Node9&#45;&gt;Node8</title>
<path fill="none" stroke="orange" stroke-dasharray="5,2" d="M690.66,-10C720.01,-10 755.11,-10 784.9,-10"/>
<polygon fill="orange" stroke="orange" points="690.54,-6.5 680.54,-10 690.54,-13.5 690.54,-6.5"/>
<text text-anchor="middle" x="736.5" y="-13" font-family="Helvetica" font-size="10.00"> &lt; Inverter &gt;</text>
</g>
</g>
</svg>
