<?xml version="1.0" encoding="UTF-8" standalone="no"?>
<!DOCTYPE svg PUBLIC "-//W3C//DTD SVG 1.1//EN"
 "http://www.w3.org/Graphics/SVG/1.1/DTD/svg11.dtd">
<!-- Generated by graphviz version 2.50.0 (0)
 -->
<!-- Title: CPS::Base::Ph1::Capacitor Pages: 1 -->
<svg width="710pt" height="125pt"
 viewBox="0.00 0.00 710.00 125.00" xmlns="http://www.w3.org/2000/svg" xmlns:xlink="http://www.w3.org/1999/xlink">
<g id="graph0" class="graph" transform="scale(1 1) rotate(0) translate(4 121)">
<title>CPS::Base::Ph1::Capacitor</title>
<!-- Node1 -->
<g id="node1" class="node">
<title>Node1</title>
<g id="a_node1"><a xlink:title=" ">
<polygon fill="#bfbfbf" stroke="black" points="566,-60.5 566,-79.5 702,-79.5 702,-60.5 566,-60.5"/>
<text text-anchor="middle" x="634" y="-67.5" font-family="Helvetica,sans-Serif" font-size="10.00">CPS::Base::Ph1::Capacitor</text>
</a>
</g>
</g>
<!-- Node2 -->
<g id="node2" class="node">
<title>Node2</title>
<g id="a_node2"><a xlink:href="class_c_p_s_1_1_attribute.html" target="_top" xlink:title=" ">
<polygon fill="none" stroke="black" points="344,-60.5 344,-79.5 463,-79.5 463,-60.5 344,-60.5"/>
<text text-anchor="middle" x="403.5" y="-67.5" font-family="Helvetica,sans-Serif" font-size="10.00">CPS::Attribute&lt; Real &gt;</text>
</a>
</g>
</g>
<!-- Node2&#45;&gt;Node1 -->
<g id="edge1" class="edge">
<title>Node2&#45;&gt;Node1</title>
<path fill="none" stroke="#9a32cd" stroke-dasharray="5,2" d="M473.19,-70C502.49,-70 536.56,-70 565.7,-70"/>
<polygon fill="#9a32cd" stroke="#9a32cd" points="473.05,-66.5 463.05,-70 473.05,-73.5 473.05,-66.5"/>
<text text-anchor="middle" x="514.5" y="-73" font-family="Helvetica,sans-Serif" font-size="10.00"> mCapacitance</text>
</g>
<!-- Node3 -->
<g id="node3" class="node">
<title>Node3</title>
<g id="a_node3"><a xlink:href="class_c_p_s_1_1_attribute_base.html" target="_top" xlink:title=" ">
<polygon fill="none" stroke="black" points="5.5,-97.5 5.5,-116.5 110.5,-116.5 110.5,-97.5 5.5,-97.5"/>
<text text-anchor="middle" x="58" y="-104.5" font-family="Helvetica,sans-Serif" font-size="10.00">CPS::AttributeBase</text>
</a>
</g>
</g>
<!-- Node3&#45;&gt;Node2 -->
<g id="edge2" class="edge">
<title>Node3&#45;&gt;Node2</title>
<path fill="none" stroke="midnightblue" d="M120.77,-103.87C175.02,-100.65 255.99,-94.72 326,-85 336.46,-83.55 347.64,-81.59 358.14,-79.57"/>
<polygon fill="midnightblue" stroke="midnightblue" points="120.4,-100.38 110.62,-104.46 120.81,-107.37 120.4,-100.38"/>
</g>
<!-- Node5 -->
<g id="node5" class="node">
<title>Node5</title>
<g id="a_node5"><a xlink:href="class_c_p_s_1_1_attribute.html" target="_top" xlink:title=" ">
<polygon fill="none" stroke="black" points="159,-60.5 159,-79.5 263,-79.5 263,-60.5 159,-60.5"/>
<text text-anchor="middle" x="211" y="-67.5" font-family="Helvetica,sans-Serif" font-size="10.00">CPS::Attribute&lt; T &gt;</text>
</a>
</g>
</g>
<!-- Node3&#45;&gt;Node5 -->
<g id="edge5" class="edge">
<title>Node3&#45;&gt;Node5</title>
<path fill="none" stroke="midnightblue" d="M107.67,-95.07C128.15,-90.06 151.67,-84.29 170.98,-79.56"/>
<polygon fill="midnightblue" stroke="midnightblue" points="106.77,-91.69 97.89,-97.47 108.43,-98.49 106.77,-91.69"/>
</g>
<!-- Node4 -->
<g id="node4" class="node">
<title>Node4</title>
<g id="a_node4"><a xlink:title=" ">
<polygon fill="none" stroke="#bfbfbf" points="153,-0.5 153,-41.5 269,-41.5 269,-0.5 153,-0.5"/>
<text text-anchor="start" x="161" y="-29.5" font-family="Helvetica,sans-Serif" font-size="10.00">std::enable_shared</text>
<text text-anchor="start" x="161" y="-18.5" font-family="Helvetica,sans-Serif" font-size="10.00">_from_this&lt; Attribute</text>
<text text-anchor="middle" x="211" y="-7.5" font-family="Helvetica,sans-Serif" font-size="10.00">&lt; Real &gt; &gt;</text>
</a>
</g>
</g>
<!-- Node4&#45;&gt;Node2 -->
<g id="edge3" class="edge">
<title>Node4&#45;&gt;Node2</title>
<path fill="none" stroke="midnightblue" d="M278.86,-38.2C307.96,-45.68 340.95,-54.17 365.53,-60.49"/>
<polygon fill="midnightblue" stroke="midnightblue" points="279.71,-34.8 269.16,-35.7 277.97,-41.58 279.71,-34.8"/>
</g>
<!-- Node5&#45;&gt;Node2 -->
<g id="edge4" class="edge">
<title>Node5&#45;&gt;Node2</title>
<path fill="none" stroke="orange" stroke-dasharray="5,2" d="M273.23,-70C295.88,-70 321.48,-70 343.89,-70"/>
<polygon fill="orange" stroke="orange" points="273.05,-66.5 263.05,-70 273.05,-73.5 273.05,-66.5"/>
<text text-anchor="middle" x="306.5" y="-73" font-family="Helvetica,sans-Serif" font-size="10.00"> &lt; Real &gt;</text>
</g>
<!-- Node6 -->
<g id="node6" class="node">
<title>Node6</title>
<g id="a_node6"><a xlink:title=" ">
<polygon fill="none" stroke="#bfbfbf" points="0,-37.5 0,-78.5 116,-78.5 116,-37.5 0,-37.5"/>
<text text-anchor="start" x="8" y="-66.5" font-family="Helvetica,sans-Serif" font-size="10.00">std::enable_shared</text>
<text text-anchor="start" x="8" y="-55.5" font-family="Helvetica,sans-Serif" font-size="10.00">_from_this&lt; Attribute</text>
<text text-anchor="middle" x="58" y="-44.5" font-family="Helvetica,sans-Serif" font-size="10.00">&lt; T &gt; &gt;</text>
</a>
</g>
</g>
<!-- Node6&#45;&gt;Node5 -->
<g id="edge6" class="edge">
<title>Node6&#45;&gt;Node5</title>
<path fill="none" stroke="midnightblue" d="M126.07,-63.33C137.05,-64.2 148.27,-65.09 158.79,-65.93"/>
<polygon fill="midnightblue" stroke="midnightblue" points="126.33,-59.84 116.09,-62.54 125.78,-66.82 126.33,-59.84"/>
</g>
</g>
</svg>
