<?xml version="1.0" encoding="UTF-8" standalone="no"?>
<!DOCTYPE svg PUBLIC "-//W3C//DTD SVG 1.1//EN"
 "http://www.w3.org/Graphics/SVG/1.1/DTD/svg11.dtd">
<!-- Generated by graphviz version 2.42.4 (0)
 -->
<!-- Title: DPsim::RealTimeSimulation Pages: 1 -->
<svg width="447pt" height="162pt"
 viewBox="0.00 0.00 446.50 162.00" xmlns="http://www.w3.org/2000/svg" xmlns:xlink="http://www.w3.org/1999/xlink">
<g id="graph0" class="graph" transform="scale(1 1) rotate(0) translate(4 158)">
<title>DPsim::RealTimeSimulation</title>
<!-- Node1 -->
<g id="node1" class="node">
<title>Node1</title>
<g id="a_node1"><a xlink:title="Extending Simulation class by real&#45;time functionality.">
<polygon fill="#bfbfbf" stroke="black" points="220,-0.5 220,-19.5 373,-19.5 373,-0.5 220,-0.5"/>
<text text-anchor="middle" x="296.5" y="-7.5" font-family="Helvetica,sans-Serif" font-size="10.00">DPsim::RealTimeSimulation</text>
</a>
</g>
</g>
<!-- Node2 -->
<g id="node2" class="node">
<title>Node2</title>
<g id="a_node2"><a xlink:href="class_d_psim_1_1_simulation.html" target="_top" xlink:title="The Simulation holds a SystemTopology and a Solver.">
<polygon fill="none" stroke="black" points="187,-67.5 187,-86.5 294,-86.5 294,-67.5 187,-67.5"/>
<text text-anchor="middle" x="240.5" y="-74.5" font-family="Helvetica,sans-Serif" font-size="10.00">DPsim::Simulation</text>
</a>
</g>
</g>
<!-- Node2&#45;&gt;Node1 -->
<g id="edge1" class="edge">
<title>Node2&#45;&gt;Node1</title>
<path fill="none" stroke="midnightblue" d="M254.6,-59.63C265.55,-46.92 280.3,-29.8 289.07,-19.63"/>
<polygon fill="midnightblue" stroke="midnightblue" points="251.93,-57.37 248.05,-67.23 257.23,-61.94 251.93,-57.37"/>
</g>
<!-- Node3 -->
<g id="node3" class="node">
<title>Node3</title>
<g id="a_node3"><a xlink:href="class_c_p_s_1_1_attribute_list.html" target="_top" xlink:title="Base class of objects having attributes to access member variables.">
<polygon fill="none" stroke="black" points="0,-134.5 0,-153.5 101,-153.5 101,-134.5 0,-134.5"/>
<text text-anchor="middle" x="50.5" y="-141.5" font-family="Helvetica,sans-Serif" font-size="10.00">CPS::AttributeList</text>
</a>
</g>
</g>
<!-- Node3&#45;&gt;Node2 -->
<g id="edge2" class="edge">
<title>Node3&#45;&gt;Node2</title>
<path fill="none" stroke="midnightblue" d="M85.28,-131.1C122.95,-118.21 182.12,-97.97 215.47,-86.56"/>
<polygon fill="midnightblue" stroke="midnightblue" points="84.06,-127.82 75.73,-134.37 86.33,-134.44 84.06,-127.82"/>
</g>
<!-- Node4 -->
<g id="node4" class="node">
<title>Node4</title>
<g id="a_node4"><a xlink:href="class_c_p_s_1_1_system_topology.html" target="_top" xlink:title=" ">
<polygon fill="none" stroke="black" points="119.5,-134.5 119.5,-153.5 241.5,-153.5 241.5,-134.5 119.5,-134.5"/>
<text text-anchor="middle" x="180.5" y="-141.5" font-family="Helvetica,sans-Serif" font-size="10.00">CPS::SystemTopology</text>
</a>
</g>
</g>
<!-- Node4&#45;&gt;Node2 -->
<g id="edge3" class="edge">
<title>Node4&#45;&gt;Node2</title>
<path fill="none" stroke="#9a32cd" stroke-dasharray="5,2" d="M195.61,-126.63C207.34,-113.92 223.15,-96.8 232.54,-86.63"/>
<polygon fill="#9a32cd" stroke="#9a32cd" points="192.8,-124.51 188.59,-134.23 197.95,-129.26 192.8,-124.51"/>
<text text-anchor="middle" x="239.5" y="-108" font-family="Helvetica,sans-Serif" font-size="10.00"> mSystem</text>
</g>
<!-- Node5 -->
<g id="node5" class="node">
<title>Node5</title>
<g id="a_node5"><a xlink:href="class_d_psim_1_1_event_queue.html" target="_top" xlink:title=" ">
<polygon fill="none" stroke="black" points="260,-134.5 260,-153.5 373,-153.5 373,-134.5 260,-134.5"/>
<text text-anchor="middle" x="316.5" y="-141.5" font-family="Helvetica,sans-Serif" font-size="10.00">DPsim::EventQueue</text>
</a>
</g>
</g>
<!-- Node5&#45;&gt;Node2 -->
<g id="edge4" class="edge">
<title>Node5&#45;&gt;Node2</title>
<path fill="none" stroke="#9a32cd" stroke-dasharray="5,2" d="M298.63,-127.71C283.65,-114.91 262.82,-97.09 250.59,-86.63"/>
<polygon fill="#9a32cd" stroke="#9a32cd" points="296.38,-130.39 306.25,-134.23 300.93,-125.07 296.38,-130.39"/>
<text text-anchor="middle" x="306.5" y="-108" font-family="Helvetica,sans-Serif" font-size="10.00"> mEvents</text>
</g>
<!-- Node6 -->
<g id="node6" class="node">
<title>Node6</title>
<g id="a_node6"><a xlink:href="class_d_psim_1_1_timer.html" target="_top" xlink:title=" ">
<polygon fill="none" stroke="black" points="342,-67.5 342,-86.5 425,-86.5 425,-67.5 342,-67.5"/>
<text text-anchor="middle" x="383.5" y="-74.5" font-family="Helvetica,sans-Serif" font-size="10.00">DPsim::Timer</text>
</a>
</g>
</g>
<!-- Node6&#45;&gt;Node1 -->
<g id="edge5" class="edge">
<title>Node6&#45;&gt;Node1</title>
<path fill="none" stroke="#9a32cd" stroke-dasharray="5,2" d="M363.51,-61.07C346.34,-48.24 322.18,-30.19 308.05,-19.63"/>
<polygon fill="#9a32cd" stroke="#9a32cd" points="361.66,-64.05 371.77,-67.23 365.85,-58.44 361.66,-64.05"/>
<text text-anchor="middle" x="366.5" y="-41" font-family="Helvetica,sans-Serif" font-size="10.00"> mTimer</text>
</g>
<!-- Node7 -->
<g id="node7" class="node">
<title>Node7</title>
<g id="a_node7"><a xlink:title=" ">
<polygon fill="none" stroke="#bfbfbf" points="391.5,-134.5 391.5,-153.5 435.5,-153.5 435.5,-134.5 391.5,-134.5"/>
<text text-anchor="middle" x="413.5" y="-141.5" font-family="Helvetica,sans-Serif" font-size="10.00">enum</text>
</a>
</g>
</g>
<!-- Node7&#45;&gt;Node6 -->
<g id="edge6" class="edge">
<title>Node7&#45;&gt;Node6</title>
<path fill="none" stroke="#9a32cd" stroke-dasharray="5,2" d="M405.1,-124.79C399.33,-112.31 391.95,-96.31 387.48,-86.63"/>
<polygon fill="#9a32cd" stroke="#9a32cd" points="402.09,-126.62 409.45,-134.23 408.44,-123.69 402.09,-126.62"/>
<text text-anchor="middle" x="419" y="-108" font-family="Helvetica,sans-Serif" font-size="10.00"> mState</text>
</g>
</g>
</svg>
