<?xml version="1.0" encoding="UTF-8" standalone="no"?>
<!DOCTYPE svg PUBLIC "-//W3C//DTD SVG 1.1//EN"
 "http://www.w3.org/Graphics/SVG/1.1/DTD/svg11.dtd">
<!-- Generated by graphviz version 2.50.0 (0)
 -->
<!-- Title: Graph Legend Pages: 1 -->
<svg width="526pt" height="159pt"
 viewBox="0.00 0.00 525.50 159.00" xmlns="http://www.w3.org/2000/svg" xmlns:xlink="http://www.w3.org/1999/xlink">
<g id="graph0" class="graph" transform="scale(1 1) rotate(0) translate(4 155)">
<title>Graph Legend</title>
<!-- Node9 -->
<g id="node1" class="node">
<title>Node9</title>
<polygon fill="#bfbfbf" stroke="black" points="303.5,-19 242.5,-19 242.5,0 303.5,0 303.5,-19"/>
<text text-anchor="middle" x="273" y="-7" font-family="Helvetica,sans-Serif" font-size="10.00">Inherited</text>
</g>
<!-- Node10 -->
<g id="node2" class="node">
<title>Node10</title>
<polygon fill="none" stroke="black" points="66,-85 0,-85 0,-66 66,-66 66,-85"/>
<text text-anchor="middle" x="33" y="-73" font-family="Helvetica,sans-Serif" font-size="10.00">PublicBase</text>
</g>
<!-- Node10&#45;&gt;Node9 -->
<g id="edge1" class="edge">
<title>Node10&#45;&gt;Node9</title>
<path fill="none" stroke="midnightblue" d="M75.11,-63.27C122.92,-50.52 199.79,-30.02 242.28,-18.69"/>
<polygon fill="midnightblue" stroke="midnightblue" points="74.13,-59.91 65.37,-65.87 75.93,-66.67 74.13,-59.91"/>
</g>
<!-- Node11 -->
<g id="node3" class="node">
<title>Node11</title>
<polygon fill="none" stroke="red" points="65,-151 1,-151 1,-132 65,-132 65,-151"/>
<text text-anchor="middle" x="33" y="-139" font-family="Helvetica,sans-Serif" font-size="10.00">Truncated</text>
</g>
<!-- Node11&#45;&gt;Node10 -->
<g id="edge2" class="edge">
<title>Node11&#45;&gt;Node10</title>
<path fill="none" stroke="midnightblue" d="M33,-121.58C33,-109.63 33,-94.72 33,-85.41"/>
<polygon fill="midnightblue" stroke="midnightblue" points="29.5,-121.87 33,-131.87 36.5,-121.87 29.5,-121.87"/>
</g>
<!-- Node13 -->
<g id="node4" class="node">
<title>Node13</title>
<polygon fill="none" stroke="black" points="169.5,-85 84.5,-85 84.5,-66 169.5,-66 169.5,-85"/>
<text text-anchor="middle" x="127" y="-73" font-family="Helvetica,sans-Serif" font-size="10.00">ProtectedBase</text>
</g>
<!-- Node13&#45;&gt;Node9 -->
<g id="edge3" class="edge">
<title>Node13&#45;&gt;Node9</title>
<path fill="none" stroke="darkgreen" d="M156.21,-61.69C184.99,-49.08 228.15,-30.16 253.16,-19.2"/>
<polygon fill="darkgreen" stroke="darkgreen" points="154.44,-58.65 146.69,-65.87 157.25,-65.06 154.44,-58.65"/>
</g>
<!-- Node14 -->
<g id="node5" class="node">
<title>Node14</title>
<polygon fill="none" stroke="black" points="260,-85 188,-85 188,-66 260,-66 260,-85"/>
<text text-anchor="middle" x="224" y="-73" font-family="Helvetica,sans-Serif" font-size="10.00">PrivateBase</text>
</g>
<!-- Node14&#45;&gt;Node9 -->
<g id="edge4" class="edge">
<title>Node14&#45;&gt;Node9</title>
<path fill="none" stroke="#8b1a1a" d="M236.81,-57.77C246.21,-45.49 258.61,-29.3 266.18,-19.41"/>
<polygon fill="#8b1a1a" stroke="#8b1a1a" points="233.91,-55.8 230.61,-65.87 239.47,-60.06 233.91,-55.8"/>
</g>
<!-- Node15 -->
<g id="node6" class="node">
<title>Node15</title>
<polygon fill="none" stroke="#bfbfbf" points="367.5,-85 278.5,-85 278.5,-66 367.5,-66 367.5,-85"/>
<text text-anchor="middle" x="323" y="-73" font-family="Helvetica,sans-Serif" font-size="10.00">Undocumented</text>
</g>
<!-- Node15&#45;&gt;Node9 -->
<g id="edge5" class="edge">
<title>Node15&#45;&gt;Node9</title>
<path fill="none" stroke="midnightblue" d="M309.93,-57.77C300.34,-45.49 287.69,-29.3 279.96,-19.41"/>
<polygon fill="midnightblue" stroke="midnightblue" points="307.34,-60.14 316.26,-65.87 312.86,-55.83 307.34,-60.14"/>
</g>
<!-- Node16 -->
<g id="node7" class="node">
<title>Node16</title>
<polygon fill="none" stroke="black" points="458.5,-85 385.5,-85 385.5,-66 458.5,-66 458.5,-85"/>
<text text-anchor="middle" x="422" y="-73" font-family="Helvetica,sans-Serif" font-size="10.00">Templ&lt; int &gt;</text>
</g>
<!-- Node16&#45;&gt;Node9 -->
<g id="edge6" class="edge">
<title>Node16&#45;&gt;Node9</title>
<path fill="none" stroke="midnightblue" d="M392.57,-61.86C363.21,-49.25 318.88,-30.21 293.25,-19.2"/>
<polygon fill="midnightblue" stroke="midnightblue" points="391.34,-65.14 401.91,-65.87 394.1,-58.71 391.34,-65.14"/>
</g>
<!-- Node17 -->
<g id="node8" class="node">
<title>Node17</title>
<polygon fill="none" stroke="black" points="455,-151 389,-151 389,-132 455,-132 455,-151"/>
<text text-anchor="middle" x="422" y="-139" font-family="Helvetica,sans-Serif" font-size="10.00">Templ&lt; T &gt;</text>
</g>
<!-- Node17&#45;&gt;Node16 -->
<g id="edge7" class="edge">
<title>Node17&#45;&gt;Node16</title>
<path fill="none" stroke="orange" stroke-dasharray="5,2" d="M422,-121.58C422,-109.63 422,-94.72 422,-85.41"/>
<polygon fill="orange" stroke="orange" points="418.5,-121.87 422,-131.87 425.5,-121.87 418.5,-121.87"/>
<text text-anchor="middle" x="436.5" y="-106" font-family="Helvetica,sans-Serif" font-size="10.00">&lt; int &gt;</text>
</g>
<!-- Node18 -->
<g id="node9" class="node">
<title>Node18</title>
<polygon fill="none" stroke="black" points="517.5,-85 476.5,-85 476.5,-66 517.5,-66 517.5,-85"/>
<text text-anchor="middle" x="497" y="-73" font-family="Helvetica,sans-Serif" font-size="10.00">Used</text>
</g>
<!-- Node18&#45;&gt;Node9 -->
<g id="edge8" class="edge">
<title>Node18&#45;&gt;Node9</title>
<path fill="none" stroke="#9a32cd" stroke-dasharray="5,2" d="M466.65,-65.63C403.26,-47.34 339.93,-29.39 303.42,-19.08"/>
<polygon fill="#9a32cd" stroke="#9a32cd" points="465.83,-69.03 476.41,-68.44 467.77,-62.31 465.83,-69.03"/>
<text text-anchor="middle" x="432.5" y="-40" font-family="Helvetica,sans-Serif" font-size="10.00">m_usedClass</text>
</g>
</g>
</svg>
