<?xml version="1.0" encoding="UTF-8" standalone="no"?>
<!DOCTYPE svg PUBLIC "-//W3C//DTD SVG 1.1//EN"
 "http://www.w3.org/Graphics/SVG/1.1/DTD/svg11.dtd">
<!-- Generated by graphviz version 2.44.0 (0)
 -->
<!-- Title: Graphical Class Hierarchy Pages: 1 -->
<svg width="383pt" height="100pt"
 viewBox="0.00 0.00 383.00 99.50" xmlns="http://www.w3.org/2000/svg" xmlns:xlink="http://www.w3.org/1999/xlink">
<g id="graph0" class="graph" transform="scale(1 1) rotate(0) translate(4 95.5)">
<title>Graphical Class Hierarchy</title>
<!-- Node0 -->
<g id="node1" class="node">
<title>Node0</title>
<g id="a_node1"><a xlink:href="class_c_p_s_1_1_attribute_update_task_base.html" target="_top" xlink:title=" ">
<polygon fill="none" stroke="black" points="8,-61 8,-91 141,-91 141,-61 8,-61"/>
<text text-anchor="start" x="16" y="-79" font-family="Helvetica" font-size="10.00">CPS::AttributeUpdateTask</text>
<text text-anchor="middle" x="74.5" y="-68" font-family="Helvetica" font-size="10.00">Base&lt; DependentType &gt;</text>
</a>
</g>
</g>
<!-- Node1 -->
<g id="node2" class="node">
<title>Node1</title>
<g id="a_node2"><a xlink:href="class_c_p_s_1_1_attribute_update_task.html" target="_top" xlink:title=" ">
<polygon fill="none" stroke="black" points="185,-33 185,-63 375,-63 375,-33 185,-33"/>
<text text-anchor="start" x="193" y="-51" font-family="Helvetica" font-size="10.00">CPS::AttributeUpdateTask</text>
<text text-anchor="middle" x="280" y="-40" font-family="Helvetica" font-size="10.00">&lt; DependentType, DependencyTypes &gt;</text>
</a>
</g>
</g>
<!-- Node0&#45;&gt;Node1 -->
<g id="edge1" class="edge">
<title>Node0&#45;&gt;Node1</title>
<path fill="none" stroke="midnightblue" d="M150.97,-65.62C161.97,-64.1 173.4,-62.53 184.72,-60.97"/>
<polygon fill="midnightblue" stroke="midnightblue" points="150.44,-62.16 141.01,-66.99 151.39,-69.09 150.44,-62.16"/>
</g>
<!-- Node244 -->
<g id="node3" class="node">
<title>Node244</title>
<g id="a_node3"><a xlink:href="class_shared_factory.html" target="_top" xlink:title=" ">
<polygon fill="none" stroke="black" points="0,-0.5 0,-41.5 149,-41.5 149,-0.5 0,-0.5"/>
<text text-anchor="start" x="8" y="-29.5" font-family="Helvetica" font-size="10.00">SharedFactory&lt; Attribute</text>
<text text-anchor="start" x="8" y="-18.5" font-family="Helvetica" font-size="10.00">UpdateTask&lt; DependentType,</text>
<text text-anchor="middle" x="74.5" y="-7.5" font-family="Helvetica" font-size="10.00"> DependencyTypes... &gt; &gt;</text>
</a>
</g>
</g>
<!-- Node244&#45;&gt;Node1 -->
<g id="edge2" class="edge">
<title>Node244&#45;&gt;Node1</title>
<path fill="none" stroke="midnightblue" d="M159.43,-32.14C167.86,-33.25 176.45,-34.39 184.97,-35.52"/>
<polygon fill="midnightblue" stroke="midnightblue" points="159.63,-28.63 149.26,-30.79 158.71,-35.57 159.63,-28.63"/>
</g>
</g>
</svg>
