<?xml version="1.0" encoding="UTF-8" standalone="no"?>
<!DOCTYPE svg PUBLIC "-//W3C//DTD SVG 1.1//EN"
 "http://www.w3.org/Graphics/SVG/1.1/DTD/svg11.dtd">
<!-- Generated by graphviz version 2.50.0 (0)
 -->
<!-- Title: Graphical Class Hierarchy Pages: 1 -->
<svg width="348pt" height="116pt"
 viewBox="0.00 0.00 348.00 115.50" xmlns="http://www.w3.org/2000/svg" xmlns:xlink="http://www.w3.org/1999/xlink">
<g id="graph0" class="graph" transform="scale(1 1) rotate(0) translate(4 111.5)">
<title>Graphical Class Hierarchy</title>
<!-- Node0 -->
<g id="node1" class="node">
<title>Node0</title>
<g id="a_node1"><a xlink:href="class_d_psim_1_1_data_logger_interface.html" target="_top" xlink:title=" ">
<polygon fill="none" stroke="black" points="2,-50 2,-69 153,-69 153,-50 2,-50"/>
<text text-anchor="middle" x="77.5" y="-57" font-family="Helvetica,sans-Serif" font-size="10.00">DPsim::DataLoggerInterface</text>
</a>
</g>
</g>
<!-- Node1 -->
<g id="node2" class="node">
<title>Node1</title>
<g id="a_node2"><a xlink:href="class_d_psim_1_1_data_logger.html" target="_top" xlink:title=" ">
<polygon fill="none" stroke="black" points="212,-69 212,-88 319,-88 319,-69 212,-69"/>
<text text-anchor="middle" x="265.5" y="-76" font-family="Helvetica,sans-Serif" font-size="10.00">DPsim::DataLogger</text>
</a>
</g>
</g>
<!-- Node0&#45;&gt;Node1 -->
<g id="edge1" class="edge">
<title>Node0&#45;&gt;Node1</title>
<path fill="none" stroke="midnightblue" d="M163.33,-68.17C179.88,-69.86 196.79,-71.58 211.92,-73.13"/>
<polygon fill="midnightblue" stroke="midnightblue" points="163.39,-64.65 153.08,-67.12 162.67,-71.62 163.39,-64.65"/>
</g>
<!-- Node2 -->
<g id="node3" class="node">
<title>Node2</title>
<g id="a_node3"><a xlink:href="class_d_psim_1_1_real_time_data_logger.html" target="_top" xlink:title=" ">
<polygon fill="none" stroke="black" points="191,-28 191,-47 340,-47 340,-28 191,-28"/>
<text text-anchor="middle" x="265.5" y="-35" font-family="Helvetica,sans-Serif" font-size="10.00">DPsim::RealTimeDataLogger</text>
</a>
</g>
</g>
<!-- Node0&#45;&gt;Node2 -->
<g id="edge2" class="edge">
<title>Node0&#45;&gt;Node2</title>
<path fill="none" stroke="midnightblue" d="M163.07,-49.5C172.33,-48.4 181.7,-47.29 190.81,-46.22"/>
<polygon fill="midnightblue" stroke="midnightblue" points="162.6,-46.03 153.08,-50.68 163.42,-52.98 162.6,-46.03"/>
</g>
<!-- Node278 -->
<g id="node4" class="node">
<title>Node278</title>
<g id="a_node4"><a xlink:href="class_shared_factory.html" target="_top" xlink:title=" ">
<polygon fill="none" stroke="black" points="0,-88 0,-107 155,-107 155,-88 0,-88"/>
<text text-anchor="middle" x="77.5" y="-95" font-family="Helvetica,sans-Serif" font-size="10.00">SharedFactory&lt; DataLogger &gt;</text>
</a>
</g>
</g>
<!-- Node278&#45;&gt;Node1 -->
<g id="edge3" class="edge">
<title>Node278&#45;&gt;Node1</title>
<path fill="none" stroke="midnightblue" d="M165.55,-88.61C181.33,-87 197.35,-85.36 211.76,-83.89"/>
<polygon fill="midnightblue" stroke="midnightblue" points="164.82,-85.16 155.23,-89.66 165.53,-92.13 164.82,-85.16"/>
</g>
<!-- Node308 -->
<g id="node5" class="node">
<title>Node308</title>
<g id="a_node5"><a xlink:href="class_shared_factory.html" target="_top" xlink:title=" ">
<polygon fill="none" stroke="black" points="0,-0.5 0,-30.5 155,-30.5 155,-0.5 0,-0.5"/>
<text text-anchor="start" x="8" y="-18.5" font-family="Helvetica,sans-Serif" font-size="10.00">SharedFactory&lt; RealTimeData</text>
<text text-anchor="middle" x="77.5" y="-7.5" font-family="Helvetica,sans-Serif" font-size="10.00">Logger &gt;</text>
</a>
</g>
</g>
<!-- Node308&#45;&gt;Node2 -->
<g id="edge4" class="edge">
<title>Node308&#45;&gt;Node2</title>
<path fill="none" stroke="midnightblue" d="M165.26,-25.76C173.85,-26.78 182.51,-27.8 190.94,-28.8"/>
<polygon fill="midnightblue" stroke="midnightblue" points="165.57,-22.27 155.23,-24.58 164.75,-29.23 165.57,-22.27"/>
</g>
</g>
</svg>
