<?xml version="1.0" encoding="UTF-8" standalone="no"?>
<!DOCTYPE svg PUBLIC "-//W3C//DTD SVG 1.1//EN"
 "http://www.w3.org/Graphics/SVG/1.1/DTD/svg11.dtd">
<!-- Generated by graphviz version 2.42.4 (0)
 -->
<!-- Title: Graphical Class Hierarchy Pages: 1 -->
<svg width="267pt" height="104pt"
 viewBox="0.00 0.00 267.00 104.00" xmlns="http://www.w3.org/2000/svg" xmlns:xlink="http://www.w3.org/1999/xlink">
<g id="graph0" class="graph" transform="scale(1 1) rotate(0) translate(4 100)">
<title>Graphical Class Hierarchy</title>
<!-- Node0 -->
<g id="node1" class="node">
<title>Node0</title>
<g id="a_node1"><a xlink:href="class_c_p_s_1_1_graph_1_1_element.html" target="_top" xlink:title=" ">
<polygon fill="none" stroke="black" points="0,-38.5 0,-57.5 117,-57.5 117,-38.5 0,-38.5"/>
<text text-anchor="middle" x="58.5" y="-45.5" font-family="Helvetica,sans-Serif" font-size="10.00">CPS::Graph::Element</text>
</a>
</g>
</g>
<!-- Node1 -->
<g id="node2" class="node">
<title>Node1</title>
<g id="a_node2"><a xlink:href="class_c_p_s_1_1_graph_1_1_edge.html" target="_top" xlink:title=" ">
<polygon fill="none" stroke="black" points="155.5,-76.5 155.5,-95.5 256.5,-95.5 256.5,-76.5 155.5,-76.5"/>
<text text-anchor="middle" x="206" y="-83.5" font-family="Helvetica,sans-Serif" font-size="10.00">CPS::Graph::Edge</text>
</a>
</g>
</g>
<!-- Node0&#45;&gt;Node1 -->
<g id="edge1" class="edge">
<title>Node0&#45;&gt;Node1</title>
<path fill="none" stroke="midnightblue" d="M106.15,-60.18C126.35,-65.46 149.65,-71.54 168.55,-76.48"/>
<polygon fill="midnightblue" stroke="midnightblue" points="106.78,-56.73 96.22,-57.59 105.01,-63.5 106.78,-56.73"/>
</g>
<!-- Node2 -->
<g id="node3" class="node">
<title>Node2</title>
<g id="a_node3"><a xlink:href="class_c_p_s_1_1_graph_1_1_graph.html" target="_top" xlink:title=" ">
<polygon fill="none" stroke="black" points="153,-38.5 153,-57.5 259,-57.5 259,-38.5 153,-38.5"/>
<text text-anchor="middle" x="206" y="-45.5" font-family="Helvetica,sans-Serif" font-size="10.00">CPS::Graph::Graph</text>
</a>
</g>
</g>
<!-- Node0&#45;&gt;Node2 -->
<g id="edge2" class="edge">
<title>Node0&#45;&gt;Node2</title>
<path fill="none" stroke="midnightblue" d="M127.03,-48C135.63,-48 144.33,-48 152.64,-48"/>
<polygon fill="midnightblue" stroke="midnightblue" points="127.01,-44.5 117.01,-48 127.01,-51.5 127.01,-44.5"/>
</g>
<!-- Node3 -->
<g id="node4" class="node">
<title>Node3</title>
<g id="a_node4"><a xlink:href="class_c_p_s_1_1_graph_1_1_node.html" target="_top" xlink:title=" ">
<polygon fill="none" stroke="black" points="155,-0.5 155,-19.5 257,-19.5 257,-0.5 155,-0.5"/>
<text text-anchor="middle" x="206" y="-7.5" font-family="Helvetica,sans-Serif" font-size="10.00">CPS::Graph::Node</text>
</a>
</g>
</g>
<!-- Node0&#45;&gt;Node3 -->
<g id="edge3" class="edge">
<title>Node0&#45;&gt;Node3</title>
<path fill="none" stroke="midnightblue" d="M106.15,-35.82C126.35,-30.54 149.65,-24.46 168.55,-19.52"/>
<polygon fill="midnightblue" stroke="midnightblue" points="105.01,-32.5 96.22,-38.41 106.78,-39.27 105.01,-32.5"/>
</g>
</g>
</svg>
