<?xml version="1.0" encoding="UTF-8" standalone="no"?>
<!DOCTYPE svg PUBLIC "-//W3C//DTD SVG 1.1//EN"
 "http://www.w3.org/Graphics/SVG/1.1/DTD/svg11.dtd">
<!-- Generated by graphviz version 2.42.4 (0)
 -->
<!-- Title: Graphical Class Hierarchy Pages: 1 -->
<svg width="513pt" height="123pt"
 viewBox="0.00 0.00 513.00 123.00" xmlns="http://www.w3.org/2000/svg" xmlns:xlink="http://www.w3.org/1999/xlink">
<g id="graph0" class="graph" transform="scale(1 1) rotate(0) translate(4 119)">
<title>Graphical Class Hierarchy</title>
<!-- Node0 -->
<g id="node1" class="node">
<title>Node0</title>
<g id="a_node1"><a xlink:href="class_d_psim_1_1_scheduler.html" target="_top" xlink:title=" ">
<polygon fill="none" stroke="black" points="0,-57.5 0,-76.5 102,-76.5 102,-57.5 0,-57.5"/>
<text text-anchor="middle" x="51" y="-64.5" font-family="Helvetica,sans-Serif" font-size="10.00">DPsim::Scheduler</text>
</a>
</g>
</g>
<!-- Node1 -->
<g id="node2" class="node">
<title>Node1</title>
<g id="a_node2"><a xlink:href="class_d_psim_1_1_open_m_p_level_scheduler.html" target="_top" xlink:title=" ">
<polygon fill="none" stroke="black" points="138,-95.5 138,-114.5 307,-114.5 307,-95.5 138,-95.5"/>
<text text-anchor="middle" x="222.5" y="-102.5" font-family="Helvetica,sans-Serif" font-size="10.00">DPsim::OpenMPLevelScheduler</text>
</a>
</g>
</g>
<!-- Node0&#45;&gt;Node1 -->
<g id="edge1" class="edge">
<title>Node0&#45;&gt;Node1</title>
<path fill="none" stroke="midnightblue" d="M104.74,-78.82C128.64,-84.18 156.52,-90.43 179.04,-95.48"/>
<polygon fill="midnightblue" stroke="midnightblue" points="105.3,-75.36 94.77,-76.59 103.76,-82.19 105.3,-75.36"/>
</g>
<!-- Node2 -->
<g id="node3" class="node">
<title>Node2</title>
<g id="a_node3"><a xlink:href="class_d_psim_1_1_sequential_scheduler.html" target="_top" xlink:title=" ">
<polygon fill="none" stroke="black" points="145.5,-57.5 145.5,-76.5 299.5,-76.5 299.5,-57.5 145.5,-57.5"/>
<text text-anchor="middle" x="222.5" y="-64.5" font-family="Helvetica,sans-Serif" font-size="10.00">DPsim::SequentialScheduler</text>
</a>
</g>
</g>
<!-- Node0&#45;&gt;Node2 -->
<g id="edge2" class="edge">
<title>Node0&#45;&gt;Node2</title>
<path fill="none" stroke="midnightblue" d="M112.4,-67C123.04,-67 134.24,-67 145.25,-67"/>
<polygon fill="midnightblue" stroke="midnightblue" points="112.4,-63.5 102.4,-67 112.4,-70.5 112.4,-63.5"/>
</g>
<!-- Node3 -->
<g id="node4" class="node">
<title>Node3</title>
<g id="a_node4"><a xlink:href="class_d_psim_1_1_thread_scheduler.html" target="_top" xlink:title=" ">
<polygon fill="none" stroke="black" points="154.5,-19.5 154.5,-38.5 290.5,-38.5 290.5,-19.5 154.5,-19.5"/>
<text text-anchor="middle" x="222.5" y="-26.5" font-family="Helvetica,sans-Serif" font-size="10.00">DPsim::ThreadScheduler</text>
</a>
</g>
</g>
<!-- Node0&#45;&gt;Node3 -->
<g id="edge3" class="edge">
<title>Node0&#45;&gt;Node3</title>
<path fill="none" stroke="midnightblue" d="M104.74,-55.18C128.64,-49.82 156.52,-43.57 179.04,-38.52"/>
<polygon fill="midnightblue" stroke="midnightblue" points="103.76,-51.81 94.77,-57.41 105.3,-58.64 103.76,-51.81"/>
</g>
<!-- Node4 -->
<g id="node5" class="node">
<title>Node4</title>
<g id="a_node5"><a xlink:href="class_d_psim_1_1_thread_level_scheduler.html" target="_top" xlink:title=" ">
<polygon fill="none" stroke="black" points="343,-38.5 343,-57.5 505,-57.5 505,-38.5 343,-38.5"/>
<text text-anchor="middle" x="424" y="-45.5" font-family="Helvetica,sans-Serif" font-size="10.00">DPsim::ThreadLevelScheduler</text>
</a>
</g>
</g>
<!-- Node3&#45;&gt;Node4 -->
<g id="edge4" class="edge">
<title>Node3&#45;&gt;Node4</title>
<path fill="none" stroke="midnightblue" d="M301.12,-36.39C314.83,-37.7 329.13,-39.06 342.91,-40.37"/>
<polygon fill="midnightblue" stroke="midnightblue" points="301.05,-32.87 290.76,-35.41 300.39,-39.84 301.05,-32.87"/>
</g>
<!-- Node5 -->
<g id="node6" class="node">
<title>Node5</title>
<g id="a_node6"><a xlink:href="class_d_psim_1_1_thread_list_scheduler.html" target="_top" xlink:title=" ">
<polygon fill="none" stroke="black" points="347.5,-0.5 347.5,-19.5 500.5,-19.5 500.5,-0.5 347.5,-0.5"/>
<text text-anchor="middle" x="424" y="-7.5" font-family="Helvetica,sans-Serif" font-size="10.00">DPsim::ThreadListScheduler</text>
</a>
</g>
</g>
<!-- Node3&#45;&gt;Node5 -->
<g id="edge5" class="edge">
<title>Node3&#45;&gt;Node5</title>
<path fill="none" stroke="midnightblue" d="M300.72,-21.65C316.06,-20.18 332.16,-18.65 347.44,-17.2"/>
<polygon fill="midnightblue" stroke="midnightblue" points="300.39,-18.16 290.76,-22.59 301.05,-25.13 300.39,-18.16"/>
</g>
</g>
</svg>
