<?xml version="1.0" encoding="UTF-8" standalone="no"?>
<!DOCTYPE svg PUBLIC "-//W3C//DTD SVG 1.1//EN"
 "http://www.w3.org/Graphics/SVG/1.1/DTD/svg11.dtd">
<!-- Generated by graphviz version 12.2.1 (20241206.2353)
 -->
<!-- Title: Graphical Class Hierarchy Pages: 1 -->
<svg width="401pt" height="114pt"
 viewBox="0.00 0.00 400.75 113.62" xmlns="http://www.w3.org/2000/svg" xmlns:xlink="http://www.w3.org/1999/xlink">
<g id="graph0" class="graph" transform="scale(1 1) rotate(0) translate(4 109.62)">
<title>Graphical Class Hierarchy</title>
<!-- Node0 -->
<g id="Node000000" class="node">
<title>Node0</title>
<g id="a_Node000000"><a xlink:href="class_c_p_s_1_1_attribute_update_task_base.html" target="_top" xlink:title=" ">
<polygon fill="white" stroke="#666666" points="146.5,-105.62 10.5,-105.62 10.5,-69.12 146.5,-69.12 146.5,-105.62"/>
<text text-anchor="start" x="18.5" y="-92.12" font-family="Helvetica,sans-Serif" font-size="10.00">CPS::AttributeUpdateTask</text>
<text text-anchor="middle" x="78.5" y="-77.88" font-family="Helvetica,sans-Serif" font-size="10.00">Base&lt; DependentType &gt;</text>
</a>
</g>
</g>
<!-- Node1 -->
<g id="Node000001" class="node">
<title>Node1</title>
<g id="a_Node000001"><a xlink:href="class_c_p_s_1_1_attribute_update_task.html" target="_top" xlink:title=" ">
<polygon fill="white" stroke="#666666" points="392.75,-74.62 193,-74.62 193,-38.12 392.75,-38.12 392.75,-74.62"/>
<text text-anchor="start" x="201" y="-61.12" font-family="Helvetica,sans-Serif" font-size="10.00">CPS::AttributeUpdateTask</text>
<text text-anchor="middle" x="292.88" y="-46.88" font-family="Helvetica,sans-Serif" font-size="10.00">&lt; DependentType, DependencyTypes &gt;</text>
</a>
</g>
</g>
<!-- Node0&#45;&gt;Node1 -->
<g id="edge443_Node000000_Node000001" class="edge">
<title>Node0&#45;&gt;Node1</title>
<g id="a_edge443_Node000000_Node000001"><a xlink:title=" ">
<path fill="none" stroke="#63b8ff" d="M158.11,-75.9C169.4,-74.25 181.14,-72.54 192.77,-70.84"/>
<polygon fill="#63b8ff" stroke="#63b8ff" points="157.88,-72.4 148.49,-77.31 158.89,-79.32 157.88,-72.4"/>
</a>
</g>
</g>
<!-- Node2 -->
<g id="Node000002" class="node">
<title>Node2</title>
<g id="a_Node000002"><a xlink:href="class_shared_factory.html" target="_top" xlink:title=" ">
<polygon fill="white" stroke="#666666" points="157,-50.75 0,-50.75 0,0 157,0 157,-50.75"/>
<text text-anchor="start" x="8" y="-37.25" font-family="Helvetica,sans-Serif" font-size="10.00">SharedFactory&lt; Attribute</text>
<text text-anchor="start" x="8" y="-23" font-family="Helvetica,sans-Serif" font-size="10.00">UpdateTask&lt; DependentType,</text>
<text text-anchor="middle" x="78.5" y="-8.75" font-family="Helvetica,sans-Serif" font-size="10.00"> DependencyTypes... &gt; &gt;</text>
</a>
</g>
</g>
<!-- Node2&#45;&gt;Node1 -->
<g id="edge444_Node000002_Node000001" class="edge">
<title>Node2&#45;&gt;Node1</title>
<g id="a_edge444_Node000002_Node000001"><a xlink:title=" ">
<path fill="none" stroke="#63b8ff" d="M168.54,-38.37C176.51,-39.54 184.61,-40.72 192.66,-41.89"/>
<polygon fill="#63b8ff" stroke="#63b8ff" points="169.27,-34.94 158.87,-36.96 168.26,-41.87 169.27,-34.94"/>
</a>
</g>
</g>
</g>
</svg>
