<?xml version="1.0" encoding="UTF-8" standalone="no"?>
<!DOCTYPE svg PUBLIC "-//W3C//DTD SVG 1.1//EN"
 "http://www.w3.org/Graphics/SVG/1.1/DTD/svg11.dtd">
<!-- Generated by graphviz version 2.44.0 (0)
 -->
<!-- Title: Graphical Class Hierarchy Pages: 1 -->
<svg width="258pt" height="104pt"
 viewBox="0.00 0.00 258.00 104.00" xmlns="http://www.w3.org/2000/svg" xmlns:xlink="http://www.w3.org/1999/xlink">
<g id="graph0" class="graph" transform="scale(1 1) rotate(0) translate(4 100)">
<title>Graphical Class Hierarchy</title>
<!-- Node0 -->
<g id="node1" class="node">
<title>Node0</title>
<g id="a_node1"><a xlink:href="class_c_p_s_1_1_graph_1_1_element.html" target="_top" xlink:title=" ">
<polygon fill="none" stroke="black" points="0,-38.5 0,-57.5 112,-57.5 112,-38.5 0,-38.5"/>
<text text-anchor="middle" x="56" y="-45.5" font-family="Helvetica" font-size="10.00">CPS::Graph::Element</text>
</a>
</g>
</g>
<!-- Node1 -->
<g id="node2" class="node">
<title>Node1</title>
<g id="a_node2"><a xlink:href="class_c_p_s_1_1_graph_1_1_edge.html" target="_top" xlink:title=" ">
<polygon fill="none" stroke="black" points="150,-76.5 150,-95.5 248,-95.5 248,-76.5 150,-76.5"/>
<text text-anchor="middle" x="199" y="-83.5" font-family="Helvetica" font-size="10.00">CPS::Graph::Edge</text>
</a>
</g>
</g>
<!-- Node0&#45;&gt;Node1 -->
<g id="edge1" class="edge">
<title>Node0&#45;&gt;Node1</title>
<path fill="none" stroke="midnightblue" d="M102.44,-60.25C121.87,-65.48 144.23,-71.51 162.43,-76.41"/>
<polygon fill="midnightblue" stroke="midnightblue" points="103.15,-56.81 92.58,-57.59 101.32,-63.57 103.15,-56.81"/>
</g>
<!-- Node2 -->
<g id="node3" class="node">
<title>Node2</title>
<g id="a_node3"><a xlink:href="class_c_p_s_1_1_graph_1_1_graph.html" target="_top" xlink:title=" ">
<polygon fill="none" stroke="black" points="148,-38.5 148,-57.5 250,-57.5 250,-38.5 148,-38.5"/>
<text text-anchor="middle" x="199" y="-45.5" font-family="Helvetica" font-size="10.00">CPS::Graph::Graph</text>
</a>
</g>
</g>
<!-- Node0&#45;&gt;Node2 -->
<g id="edge2" class="edge">
<title>Node0&#45;&gt;Node2</title>
<path fill="none" stroke="midnightblue" d="M122.33,-48C130.91,-48 139.6,-48 147.89,-48"/>
<polygon fill="midnightblue" stroke="midnightblue" points="122.32,-44.5 112.32,-48 122.32,-51.5 122.32,-44.5"/>
</g>
<!-- Node3 -->
<g id="node4" class="node">
<title>Node3</title>
<g id="a_node4"><a xlink:href="class_c_p_s_1_1_graph_1_1_node.html" target="_top" xlink:title=" ">
<polygon fill="none" stroke="black" points="149.5,-0.5 149.5,-19.5 248.5,-19.5 248.5,-0.5 149.5,-0.5"/>
<text text-anchor="middle" x="199" y="-7.5" font-family="Helvetica" font-size="10.00">CPS::Graph::Node</text>
</a>
</g>
</g>
<!-- Node0&#45;&gt;Node3 -->
<g id="edge3" class="edge">
<title>Node0&#45;&gt;Node3</title>
<path fill="none" stroke="midnightblue" d="M102.44,-35.75C121.87,-30.52 144.23,-24.49 162.43,-19.59"/>
<polygon fill="midnightblue" stroke="midnightblue" points="101.32,-32.43 92.58,-38.41 103.15,-39.19 101.32,-32.43"/>
</g>
</g>
</svg>
