<?xml version="1.0" encoding="UTF-8" standalone="no"?>
<!DOCTYPE svg PUBLIC "-//W3C//DTD SVG 1.1//EN"
 "http://www.w3.org/Graphics/SVG/1.1/DTD/svg11.dtd">
<!-- Generated by graphviz version 12.2.1 (20241206.2353)
 -->
<!-- Title: Graphical Class Hierarchy Pages: 1 -->
<svg width="814pt" height="284pt"
 viewBox="0.00 0.00 814.00 284.25" xmlns="http://www.w3.org/2000/svg" xmlns:xlink="http://www.w3.org/1999/xlink">
<g id="graph0" class="graph" transform="scale(1 1) rotate(0) translate(4 280.25)">
<title>Graphical Class Hierarchy</title>
<!-- Node0 -->
<g id="Node000000" class="node">
<title>Node0</title>
<g id="a_Node000000"><a xlink:href="class_shared_factory.html" target="_top" xlink:title=" ">
<polygon fill="white" stroke="#666666" points="133.75,-259.38 0,-259.38 0,-222.88 133.75,-222.88 133.75,-259.38"/>
<text text-anchor="start" x="8" y="-245.88" font-family="Helvetica,sans-Serif" font-size="10.00">SharedFactory&lt; Attribute</text>
<text text-anchor="middle" x="66.88" y="-231.62" font-family="Helvetica,sans-Serif" font-size="10.00">List &gt;</text>
</a>
</g>
</g>
<!-- Node1 -->
<g id="Node000001" class="node">
<title>Node1</title>
<g id="a_Node000001"><a xlink:href="class_c_p_s_1_1_attribute_list.html" target="_top" xlink:title="Base class of objects having attributes to access member variables.">
<polygon fill="white" stroke="#666666" points="267.5,-252.25 169.75,-252.25 169.75,-230 267.5,-230 267.5,-252.25"/>
<text text-anchor="middle" x="218.62" y="-238.75" font-family="Helvetica,sans-Serif" font-size="10.00">CPS::AttributeList</text>
</a>
</g>
</g>
<!-- Node0&#45;&gt;Node1 -->
<g id="edge531_Node000000_Node000001" class="edge">
<title>Node0&#45;&gt;Node1</title>
<g id="a_edge531_Node000000_Node000001"><a xlink:title=" ">
<path fill="none" stroke="#63b8ff" d="M145.49,-241.12C153.63,-241.12 161.73,-241.12 169.39,-241.12"/>
<polygon fill="#63b8ff" stroke="#63b8ff" points="145.51,-237.63 135.51,-241.13 145.51,-244.63 145.51,-237.63"/>
</a>
</g>
</g>
<!-- Node2 -->
<g id="Node000002" class="node">
<title>Node2</title>
<g id="a_Node000002"><a xlink:href="class_d_psim_1_1_diakoptics_solver.html" target="_top" xlink:title=" ">
<polygon fill="white" stroke="#666666" points="445.12,-236.38 317.38,-236.38 317.38,-199.88 445.12,-199.88 445.12,-236.38"/>
<text text-anchor="start" x="325.38" y="-222.88" font-family="Helvetica,sans-Serif" font-size="10.00">DPsim::DiakopticsSolver</text>
<text text-anchor="middle" x="381.25" y="-208.62" font-family="Helvetica,sans-Serif" font-size="10.00">&lt; VarType &gt;</text>
</a>
</g>
</g>
<!-- Node1&#45;&gt;Node2 -->
<g id="edge532_Node000001_Node000002" class="edge">
<title>Node1&#45;&gt;Node2</title>
<g id="a_edge532_Node000001_Node000002"><a xlink:title=" ">
<path fill="none" stroke="#63b8ff" d="M278.94,-232.63C291.32,-230.86 304.41,-228.99 316.92,-227.19"/>
<polygon fill="#63b8ff" stroke="#63b8ff" points="278.72,-229.13 269.32,-234.01 279.71,-236.06 278.72,-229.13"/>
</a>
</g>
</g>
<!-- Node12 -->
<g id="Node000012" class="node">
<title>Node12</title>
<g id="a_Node000012"><a xlink:href="class_d_psim_1_1_simulation.html" target="_top" xlink:title="The Simulation holds a SystemTopology and a Solver.">
<polygon fill="white" stroke="#666666" points="430.88,-276.25 331.62,-276.25 331.62,-254 430.88,-254 430.88,-276.25"/>
<text text-anchor="middle" x="381.25" y="-262.75" font-family="Helvetica,sans-Serif" font-size="10.00">DPsim::Simulation</text>
</a>
</g>
</g>
<!-- Node1&#45;&gt;Node12 -->
<g id="edge533_Node000001_Node000012" class="edge">
<title>Node1&#45;&gt;Node12</title>
<g id="a_edge533_Node000001_Node000012"><a xlink:title=" ">
<path fill="none" stroke="#63b8ff" d="M278.9,-249.98C296.13,-252.56 314.74,-255.34 331.26,-257.8"/>
<polygon fill="#63b8ff" stroke="#63b8ff" points="279.72,-246.57 269.31,-248.55 278.69,-253.49 279.72,-246.57"/>
</a>
</g>
</g>
<!-- Node13 -->
<g id="Node000013" class="node">
<title>Node13</title>
<g id="a_Node000013"><a xlink:href="class_d_psim_1_1_real_time_simulation.html" target="_top" xlink:title="Extending Simulation class by real&#45;time functionality.">
<polygon fill="white" stroke="#666666" points="638.5,-276.25 497.25,-276.25 497.25,-254 638.5,-254 638.5,-276.25"/>
<text text-anchor="middle" x="567.88" y="-262.75" font-family="Helvetica,sans-Serif" font-size="10.00">DPsim::RealTimeSimulation</text>
</a>
</g>
</g>
<!-- Node12&#45;&gt;Node13 -->
<g id="edge534_Node000012_Node000013" class="edge">
<title>Node12&#45;&gt;Node13</title>
<g id="a_edge534_Node000012_Node000013"><a xlink:title=" ">
<path fill="none" stroke="#63b8ff" d="M442.38,-265.12C459.76,-265.12 478.87,-265.12 496.8,-265.12"/>
<polygon fill="#63b8ff" stroke="#63b8ff" points="442.75,-261.63 432.75,-265.13 442.75,-268.63 442.75,-261.63"/>
</a>
</g>
</g>
<!-- Node3 -->
<g id="Node000003" class="node">
<title>Node3</title>
<g id="a_Node000003"><a xlink:href="class_d_psim_1_1_solver.html" target="_top" xlink:title="Base class for more specific solvers such as MNA, ODE or IDA.">
<polygon fill="white" stroke="#666666" points="258.88,-122.25 178.38,-122.25 178.38,-100 258.88,-100 258.88,-122.25"/>
<text text-anchor="middle" x="218.62" y="-108.75" font-family="Helvetica,sans-Serif" font-size="10.00">DPsim::Solver</text>
</a>
</g>
</g>
<!-- Node3&#45;&gt;Node2 -->
<g id="edge536_Node000003_Node000002" class="edge">
<title>Node3&#45;&gt;Node2</title>
<g id="a_edge536_Node000003_Node000002"><a xlink:title=" ">
<path fill="none" stroke="#63b8ff" d="M236.08,-131.05C251.78,-148.94 276.91,-174.82 303.5,-191.12 308.44,-194.15 313.76,-196.9 319.22,-199.39"/>
<polygon fill="#63b8ff" stroke="#63b8ff" points="238.92,-128.99 229.76,-123.67 233.6,-133.54 238.92,-128.99"/>
</a>
</g>
</g>
<!-- Node4 -->
<g id="Node000004" class="node">
<title>Node4</title>
<g id="a_Node000004"><a xlink:href="class_d_psim_1_1_d_a_e_solver.html" target="_top" xlink:title="Solver class which uses Differential Algebraic Equation(DAE) systems.">
<polygon fill="white" stroke="#666666" points="430.88,-182.25 331.62,-182.25 331.62,-160 430.88,-160 430.88,-182.25"/>
<text text-anchor="middle" x="381.25" y="-168.75" font-family="Helvetica,sans-Serif" font-size="10.00">DPsim::DAESolver</text>
</a>
</g>
</g>
<!-- Node3&#45;&gt;Node4 -->
<g id="edge535_Node000003_Node000004" class="edge">
<title>Node3&#45;&gt;Node4</title>
<g id="a_edge535_Node000003_Node000004"><a xlink:title=" ">
<path fill="none" stroke="#63b8ff" d="M250.95,-127.81C266.46,-135.62 285.65,-144.61 303.5,-151.12 312.43,-154.38 322.11,-157.34 331.51,-159.92"/>
<polygon fill="#63b8ff" stroke="#63b8ff" points="252.71,-124.78 242.21,-123.33 249.51,-131.01 252.71,-124.78"/>
</a>
</g>
</g>
<!-- Node5 -->
<g id="Node000005" class="node">
<title>Node5</title>
<g id="a_Node000005"><a xlink:href="class_d_psim_1_1_mna_solver.html" target="_top" xlink:title="Solver class using Modified Nodal Analysis (MNA).">
<polygon fill="white" stroke="#666666" points="459,-142.25 303.5,-142.25 303.5,-120 459,-120 459,-142.25"/>
<text text-anchor="middle" x="381.25" y="-128.75" font-family="Helvetica,sans-Serif" font-size="10.00">DPsim::MnaSolver&lt; VarType &gt;</text>
</a>
</g>
</g>
<!-- Node3&#45;&gt;Node5 -->
<g id="edge537_Node000003_Node000005" class="edge">
<title>Node3&#45;&gt;Node5</title>
<g id="a_edge537_Node000003_Node000005"><a xlink:title=" ">
<path fill="none" stroke="#63b8ff" d="M270.63,-117.48C280.97,-118.76 292.05,-120.14 303.06,-121.51"/>
<polygon fill="#63b8ff" stroke="#63b8ff" points="271.19,-114.02 260.83,-116.26 270.32,-120.96 271.19,-114.02"/>
</a>
</g>
</g>
<!-- Node8 -->
<g id="Node000008" class="node">
<title>Node8</title>
<g id="a_Node000008"><a xlink:href="class_d_psim_1_1_o_d_e_solver.html" target="_top" xlink:title="Solver class for ODE (Ordinary Differential Equation) systems.">
<polygon fill="white" stroke="#666666" points="431.62,-102.25 330.88,-102.25 330.88,-80 431.62,-80 431.62,-102.25"/>
<text text-anchor="middle" x="381.25" y="-88.75" font-family="Helvetica,sans-Serif" font-size="10.00">DPsim::ODESolver</text>
</a>
</g>
</g>
<!-- Node3&#45;&gt;Node8 -->
<g id="edge540_Node000003_Node000008" class="edge">
<title>Node3&#45;&gt;Node8</title>
<g id="a_edge540_Node000003_Node000008"><a xlink:title=" ">
<path fill="none" stroke="#63b8ff" d="M270.6,-104.78C289.79,-102.39 311.58,-99.68 330.65,-97.3"/>
<polygon fill="#63b8ff" stroke="#63b8ff" points="270.32,-101.29 260.83,-105.99 271.19,-108.23 270.32,-101.29"/>
</a>
</g>
</g>
<!-- Node9 -->
<g id="Node000009" class="node">
<title>Node9</title>
<g id="a_Node000009"><a xlink:href="class_d_psim_1_1_o_d_eint_solver.html" target="_top" xlink:title="Solver class which uses ODE systems.">
<polygon fill="white" stroke="#666666" points="437.62,-62.25 324.88,-62.25 324.88,-40 437.62,-40 437.62,-62.25"/>
<text text-anchor="middle" x="381.25" y="-48.75" font-family="Helvetica,sans-Serif" font-size="10.00">DPsim::ODEintSolver</text>
</a>
</g>
</g>
<!-- Node3&#45;&gt;Node9 -->
<g id="edge541_Node000003_Node000009" class="edge">
<title>Node3&#45;&gt;Node9</title>
<g id="a_edge541_Node000003_Node000009"><a xlink:title=" ">
<path fill="none" stroke="#63b8ff" d="M250.95,-94.44C266.46,-86.63 285.65,-77.64 303.5,-71.12 312.04,-68.01 321.27,-65.17 330.28,-62.67"/>
<polygon fill="#63b8ff" stroke="#63b8ff" points="249.51,-91.24 242.21,-98.92 252.71,-97.47 249.51,-91.24"/>
</a>
</g>
</g>
<!-- Node10 -->
<g id="Node000010" class="node">
<title>Node10</title>
<g id="a_Node000010"><a xlink:href="class_d_psim_1_1_p_f_solver.html" target="_top" xlink:title="Solver class using the nonlinear powerflow (PF) formulation.">
<polygon fill="white" stroke="#666666" points="427.12,-22.25 335.38,-22.25 335.38,0 427.12,0 427.12,-22.25"/>
<text text-anchor="middle" x="381.25" y="-8.75" font-family="Helvetica,sans-Serif" font-size="10.00">DPsim::PFSolver</text>
</a>
</g>
</g>
<!-- Node3&#45;&gt;Node10 -->
<g id="edge542_Node000003_Node000010" class="edge">
<title>Node3&#45;&gt;Node10</title>
<g id="a_edge542_Node000003_Node000010"><a xlink:title=" ">
<path fill="none" stroke="#63b8ff" d="M235.52,-90.98C250.98,-72.71 276.11,-46.39 303.5,-31.12 313.12,-25.76 324.23,-21.8 334.95,-18.88"/>
<polygon fill="#63b8ff" stroke="#63b8ff" points="232.96,-88.58 229.31,-98.52 238.37,-93.02 232.96,-88.58"/>
</a>
</g>
</g>
<!-- Node6 -->
<g id="Node000006" class="node">
<title>Node6</title>
<g id="a_Node000006"><a xlink:href="class_d_psim_1_1_mna_solver_direct.html" target="_top" xlink:title="Solver class using Modified Nodal Analysis (MNA).">
<polygon fill="white" stroke="#666666" points="632.12,-149.38 503.62,-149.38 503.62,-112.88 632.12,-112.88 632.12,-149.38"/>
<text text-anchor="start" x="511.62" y="-135.88" font-family="Helvetica,sans-Serif" font-size="10.00">DPsim::MnaSolverDirect</text>
<text text-anchor="middle" x="567.88" y="-121.62" font-family="Helvetica,sans-Serif" font-size="10.00">&lt; VarType &gt;</text>
</a>
</g>
</g>
<!-- Node5&#45;&gt;Node6 -->
<g id="edge538_Node000005_Node000006" class="edge">
<title>Node5&#45;&gt;Node6</title>
<g id="a_edge538_Node000005_Node000006"><a xlink:title=" ">
<path fill="none" stroke="#63b8ff" d="M470.87,-131.12C481.84,-131.12 492.89,-131.12 503.39,-131.12"/>
<polygon fill="#63b8ff" stroke="#63b8ff" points="470.99,-127.63 460.99,-131.13 470.99,-134.63 470.99,-127.63"/>
</a>
</g>
</g>
<!-- Node7 -->
<g id="Node000007" class="node">
<title>Node7</title>
<g id="a_Node000007"><a xlink:href="class_d_psim_1_1_mna_solver_plugin.html" target="_top" xlink:title=" ">
<polygon fill="white" stroke="#666666" points="806,-149.38 676.75,-149.38 676.75,-112.88 806,-112.88 806,-149.38"/>
<text text-anchor="start" x="684.75" y="-135.88" font-family="Helvetica,sans-Serif" font-size="10.00">DPsim::MnaSolverPlugin</text>
<text text-anchor="middle" x="741.38" y="-121.62" font-family="Helvetica,sans-Serif" font-size="10.00">&lt; VarType &gt;</text>
</a>
</g>
</g>
<!-- Node6&#45;&gt;Node7 -->
<g id="edge539_Node000006_Node000007" class="edge">
<title>Node6&#45;&gt;Node7</title>
<g id="a_edge539_Node000006_Node000007"><a xlink:title=" ">
<path fill="none" stroke="#63b8ff" d="M643.54,-131.12C654.49,-131.12 665.69,-131.12 676.4,-131.12"/>
<polygon fill="#63b8ff" stroke="#63b8ff" points="643.76,-127.63 633.76,-131.13 643.76,-134.63 643.76,-127.63"/>
</a>
</g>
</g>
<!-- Node11 -->
<g id="Node000011" class="node">
<title>Node11</title>
<g id="a_Node000011"><a xlink:href="class_d_psim_1_1_p_f_solver_power_polar.html" target="_top" xlink:title="Powerflow solver class considering power mismatch and voltages in polar coordinates.">
<polygon fill="white" stroke="#666666" points="640.75,-22.25 495,-22.25 495,0 640.75,0 640.75,-22.25"/>
<text text-anchor="middle" x="567.88" y="-8.75" font-family="Helvetica,sans-Serif" font-size="10.00">DPsim::PFSolverPowerPolar</text>
</a>
</g>
</g>
<!-- Node10&#45;&gt;Node11 -->
<g id="edge543_Node000010_Node000011" class="edge">
<title>Node10&#45;&gt;Node11</title>
<g id="a_edge543_Node000010_Node000011"><a xlink:title=" ">
<path fill="none" stroke="#63b8ff" d="M438.72,-11.12C456.42,-11.12 476.21,-11.12 494.84,-11.12"/>
<polygon fill="#63b8ff" stroke="#63b8ff" points="438.93,-7.63 428.93,-11.13 438.93,-14.63 438.93,-7.63"/>
</a>
</g>
</g>
</g>
</svg>
