<?xml version="1.0" encoding="UTF-8" standalone="no"?>
<!DOCTYPE svg PUBLIC "-//W3C//DTD SVG 1.1//EN"
 "http://www.w3.org/Graphics/SVG/1.1/DTD/svg11.dtd">
<!-- Generated by graphviz version 2.50.0 (0)
 -->
<!-- Title: Graphical Class Hierarchy Pages: 1 -->
<svg width="496pt" height="123pt"
 viewBox="0.00 0.00 496.00 123.00" xmlns="http://www.w3.org/2000/svg" xmlns:xlink="http://www.w3.org/1999/xlink">
<g id="graph0" class="graph" transform="scale(1 1) rotate(0) translate(4 119)">
<title>Graphical Class Hierarchy</title>
<!-- Node0 -->
<g id="node1" class="node">
<title>Node0</title>
<g id="a_node1"><a xlink:href="class_d_psim_1_1_scheduler.html" target="_top" xlink:title=" ">
<polygon fill="none" stroke="black" points="0,-57.5 0,-76.5 98,-76.5 98,-57.5 0,-57.5"/>
<text text-anchor="middle" x="49" y="-64.5" font-family="Helvetica,sans-Serif" font-size="10.00">DPsim::Scheduler</text>
</a>
</g>
</g>
<!-- Node1 -->
<g id="node2" class="node">
<title>Node1</title>
<g id="a_node2"><a xlink:href="class_d_psim_1_1_open_m_p_level_scheduler.html" target="_top" xlink:title=" ">
<polygon fill="none" stroke="black" points="134,-95.5 134,-114.5 297,-114.5 297,-95.5 134,-95.5"/>
<text text-anchor="middle" x="215.5" y="-102.5" font-family="Helvetica,sans-Serif" font-size="10.00">DPsim::OpenMPLevelScheduler</text>
</a>
</g>
</g>
<!-- Node0&#45;&gt;Node1 -->
<g id="edge1" class="edge">
<title>Node0&#45;&gt;Node1</title>
<path fill="none" stroke="midnightblue" d="M101.5,-78.9C124.62,-84.24 151.53,-90.45 173.29,-95.48"/>
<polygon fill="midnightblue" stroke="midnightblue" points="102.04,-75.43 91.51,-76.59 100.47,-82.25 102.04,-75.43"/>
</g>
<!-- Node2 -->
<g id="node3" class="node">
<title>Node2</title>
<g id="a_node3"><a xlink:href="class_d_psim_1_1_sequential_scheduler.html" target="_top" xlink:title=" ">
<polygon fill="none" stroke="black" points="142,-57.5 142,-76.5 289,-76.5 289,-57.5 142,-57.5"/>
<text text-anchor="middle" x="215.5" y="-64.5" font-family="Helvetica,sans-Serif" font-size="10.00">DPsim::SequentialScheduler</text>
</a>
</g>
</g>
<!-- Node0&#45;&gt;Node2 -->
<g id="edge2" class="edge">
<title>Node0&#45;&gt;Node2</title>
<path fill="none" stroke="midnightblue" d="M108.26,-67C119.16,-67 130.68,-67 141.95,-67"/>
<polygon fill="midnightblue" stroke="midnightblue" points="108.02,-63.5 98.02,-67 108.02,-70.5 108.02,-63.5"/>
</g>
<!-- Node3 -->
<g id="node4" class="node">
<title>Node3</title>
<g id="a_node4"><a xlink:href="class_d_psim_1_1_thread_scheduler.html" target="_top" xlink:title=" ">
<polygon fill="none" stroke="black" points="150,-19.5 150,-38.5 281,-38.5 281,-19.5 150,-19.5"/>
<text text-anchor="middle" x="215.5" y="-26.5" font-family="Helvetica,sans-Serif" font-size="10.00">DPsim::ThreadScheduler</text>
</a>
</g>
</g>
<!-- Node0&#45;&gt;Node3 -->
<g id="edge3" class="edge">
<title>Node0&#45;&gt;Node3</title>
<path fill="none" stroke="midnightblue" d="M101.5,-55.1C124.62,-49.76 151.53,-43.55 173.29,-38.52"/>
<polygon fill="midnightblue" stroke="midnightblue" points="100.47,-51.75 91.51,-57.41 102.04,-58.57 100.47,-51.75"/>
</g>
<!-- Node4 -->
<g id="node5" class="node">
<title>Node4</title>
<g id="a_node5"><a xlink:href="class_d_psim_1_1_thread_level_scheduler.html" target="_top" xlink:title=" ">
<polygon fill="none" stroke="black" points="333,-38.5 333,-57.5 488,-57.5 488,-38.5 333,-38.5"/>
<text text-anchor="middle" x="410.5" y="-45.5" font-family="Helvetica,sans-Serif" font-size="10.00">DPsim::ThreadLevelScheduler</text>
</a>
</g>
</g>
<!-- Node3&#45;&gt;Node4 -->
<g id="edge4" class="edge">
<title>Node3&#45;&gt;Node4</title>
<path fill="none" stroke="midnightblue" d="M291.34,-36.37C305,-37.71 319.27,-39.12 332.98,-40.47"/>
<polygon fill="midnightblue" stroke="midnightblue" points="291.33,-32.85 281.03,-35.35 290.64,-39.82 291.33,-32.85"/>
</g>
<!-- Node5 -->
<g id="node6" class="node">
<title>Node5</title>
<g id="a_node6"><a xlink:href="class_d_psim_1_1_thread_list_scheduler.html" target="_top" xlink:title=" ">
<polygon fill="none" stroke="black" points="337.5,-0.5 337.5,-19.5 483.5,-19.5 483.5,-0.5 337.5,-0.5"/>
<text text-anchor="middle" x="410.5" y="-7.5" font-family="Helvetica,sans-Serif" font-size="10.00">DPsim::ThreadListScheduler</text>
</a>
</g>
</g>
<!-- Node3&#45;&gt;Node5 -->
<g id="edge5" class="edge">
<title>Node3&#45;&gt;Node5</title>
<path fill="none" stroke="midnightblue" d="M291.36,-21.63C306.48,-20.14 322.35,-18.58 337.38,-17.1"/>
<polygon fill="midnightblue" stroke="midnightblue" points="290.64,-18.18 281.03,-22.65 291.33,-25.15 290.64,-18.18"/>
</g>
</g>
</svg>
