<?xml version="1.0" encoding="UTF-8" standalone="no"?>
<!DOCTYPE svg PUBLIC "-//W3C//DTD SVG 1.1//EN"
 "http://www.w3.org/Graphics/SVG/1.1/DTD/svg11.dtd">
<!-- Generated by graphviz version 2.50.0 (0)
 -->
<!-- Title: Graphical Class Hierarchy Pages: 1 -->
<svg width="326pt" height="218pt"
 viewBox="0.00 0.00 326.00 218.00" xmlns="http://www.w3.org/2000/svg" xmlns:xlink="http://www.w3.org/1999/xlink">
<g id="graph0" class="graph" transform="scale(1 1) rotate(0) translate(4 214)">
<title>Graphical Class Hierarchy</title>
<!-- Node0 -->
<g id="node1" class="node">
<title>Node0</title>
<g id="a_node1"><a xlink:href="class_d_psim_1_1_direct_linear_solver.html" target="_top" xlink:title=" ">
<polygon fill="none" stroke="black" points="0,-95.5 0,-114.5 138,-114.5 138,-95.5 0,-95.5"/>
<text text-anchor="middle" x="69" y="-102.5" font-family="Helvetica,sans-Serif" font-size="10.00">DPsim::DirectLinearSolver</text>
</a>
</g>
</g>
<!-- Node1 -->
<g id="node2" class="node">
<title>Node1</title>
<g id="a_node2"><a xlink:href="class_d_psim_1_1_dense_l_u_adapter.html" target="_top" xlink:title=" ">
<polygon fill="none" stroke="black" points="179.5,-190.5 179.5,-209.5 312.5,-209.5 312.5,-190.5 179.5,-190.5"/>
<text text-anchor="middle" x="246" y="-197.5" font-family="Helvetica,sans-Serif" font-size="10.00">DPsim::DenseLUAdapter</text>
</a>
</g>
</g>
<!-- Node0&#45;&gt;Node1 -->
<g id="edge1" class="edge">
<title>Node0&#45;&gt;Node1</title>
<path fill="none" stroke="midnightblue" d="M87.96,-121.38C107.69,-138.55 140.99,-165.21 174,-181 181.94,-184.8 190.76,-187.93 199.41,-190.48"/>
<polygon fill="midnightblue" stroke="midnightblue" points="90.18,-118.67 80.37,-114.65 85.53,-123.91 90.18,-118.67"/>
</g>
<!-- Node2 -->
<g id="node3" class="node">
<title>Node2</title>
<g id="a_node3"><a xlink:href="class_d_psim_1_1_gpu_dense_adapter.html" target="_top" xlink:title=" ">
<polygon fill="none" stroke="black" points="176,-152.5 176,-171.5 316,-171.5 316,-152.5 176,-152.5"/>
<text text-anchor="middle" x="246" y="-159.5" font-family="Helvetica,sans-Serif" font-size="10.00">DPsim::GpuDenseAdapter</text>
</a>
</g>
</g>
<!-- Node0&#45;&gt;Node2 -->
<g id="edge2" class="edge">
<title>Node0&#45;&gt;Node2</title>
<path fill="none" stroke="midnightblue" d="M103.57,-118.13C123.82,-125.83 150.21,-135.49 174,-143 184.59,-146.34 196.18,-149.61 206.87,-152.46"/>
<polygon fill="midnightblue" stroke="midnightblue" points="104.76,-114.83 94.17,-114.52 102.25,-121.37 104.76,-114.83"/>
</g>
<!-- Node3 -->
<g id="node4" class="node">
<title>Node3</title>
<g id="a_node4"><a xlink:href="class_d_psim_1_1_gpu_magma_adapter.html" target="_top" xlink:title=" ">
<polygon fill="none" stroke="black" points="174,-114.5 174,-133.5 318,-133.5 318,-114.5 174,-114.5"/>
<text text-anchor="middle" x="246" y="-121.5" font-family="Helvetica,sans-Serif" font-size="10.00">DPsim::GpuMagmaAdapter</text>
</a>
</g>
</g>
<!-- Node0&#45;&gt;Node3 -->
<g id="edge3" class="edge">
<title>Node0&#45;&gt;Node3</title>
<path fill="none" stroke="midnightblue" d="M148.14,-113.48C156.7,-114.41 165.38,-115.36 173.85,-116.27"/>
<polygon fill="midnightblue" stroke="midnightblue" points="148.48,-110 138.16,-112.4 147.72,-116.96 148.48,-110"/>
</g>
<!-- Node4 -->
<g id="node5" class="node">
<title>Node4</title>
<g id="a_node5"><a xlink:href="class_d_psim_1_1_gpu_sparse_adapter.html" target="_top" xlink:title=" ">
<polygon fill="none" stroke="black" points="175.5,-76.5 175.5,-95.5 316.5,-95.5 316.5,-76.5 175.5,-76.5"/>
<text text-anchor="middle" x="246" y="-83.5" font-family="Helvetica,sans-Serif" font-size="10.00">DPsim::GpuSparseAdapter</text>
</a>
</g>
</g>
<!-- Node0&#45;&gt;Node4 -->
<g id="edge4" class="edge">
<title>Node0&#45;&gt;Node4</title>
<path fill="none" stroke="midnightblue" d="M148.26,-96.5C157.27,-95.53 166.41,-94.53 175.3,-93.57"/>
<polygon fill="midnightblue" stroke="midnightblue" points="147.72,-93.04 138.16,-97.6 148.48,-100 147.72,-93.04"/>
</g>
<!-- Node5 -->
<g id="node6" class="node">
<title>Node5</title>
<g id="a_node6"><a xlink:href="class_d_psim_1_1_k_l_u_adapter.html" target="_top" xlink:title=" ">
<polygon fill="none" stroke="black" points="191.5,-38.5 191.5,-57.5 300.5,-57.5 300.5,-38.5 191.5,-38.5"/>
<text text-anchor="middle" x="246" y="-45.5" font-family="Helvetica,sans-Serif" font-size="10.00">DPsim::KLUAdapter</text>
</a>
</g>
</g>
<!-- Node0&#45;&gt;Node5 -->
<g id="edge5" class="edge">
<title>Node0&#45;&gt;Node5</title>
<path fill="none" stroke="midnightblue" d="M103.57,-91.87C123.82,-84.17 150.21,-74.51 174,-67 184.59,-63.66 196.18,-60.39 206.87,-57.54"/>
<polygon fill="midnightblue" stroke="midnightblue" points="102.25,-88.63 94.17,-95.48 104.76,-95.17 102.25,-88.63"/>
</g>
<!-- Node6 -->
<g id="node7" class="node">
<title>Node6</title>
<g id="a_node7"><a xlink:href="class_d_psim_1_1_sparse_l_u_adapter.html" target="_top" xlink:title=" ">
<polygon fill="none" stroke="black" points="179,-0.5 179,-19.5 313,-19.5 313,-0.5 179,-0.5"/>
<text text-anchor="middle" x="246" y="-7.5" font-family="Helvetica,sans-Serif" font-size="10.00">DPsim::SparseLUAdapter</text>
</a>
</g>
</g>
<!-- Node0&#45;&gt;Node6 -->
<g id="edge6" class="edge">
<title>Node0&#45;&gt;Node6</title>
<path fill="none" stroke="midnightblue" d="M87.96,-88.62C107.69,-71.45 140.99,-44.79 174,-29 181.94,-25.2 190.76,-22.07 199.41,-19.52"/>
<polygon fill="midnightblue" stroke="midnightblue" points="85.53,-86.09 80.37,-95.35 90.18,-91.33 85.53,-86.09"/>
</g>
</g>
</svg>
