<?xml version="1.0" encoding="UTF-8" standalone="no"?>
<!DOCTYPE svg PUBLIC "-//W3C//DTD SVG 1.1//EN"
 "http://www.w3.org/Graphics/SVG/1.1/DTD/svg11.dtd">
<!-- Generated by graphviz version 12.2.1 (20241206.2353)
 -->
<!-- Title: Graphical Class Hierarchy Pages: 1 -->
<svg width="348pt" height="124pt"
 viewBox="0.00 0.00 347.50 124.38" xmlns="http://www.w3.org/2000/svg" xmlns:xlink="http://www.w3.org/1999/xlink">
<g id="graph0" class="graph" transform="scale(1 1) rotate(0) translate(4 120.38)">
<title>Graphical Class Hierarchy</title>
<!-- Node0 -->
<g id="Node000000" class="node">
<title>Node0</title>
<g id="a_Node000000"><a xlink:href="class_d_psim_1_1_data_logger_interface.html" target="_top" xlink:title=" ">
<polygon fill="white" stroke="#666666" points="152.5,-76.38 2.25,-76.38 2.25,-54.12 152.5,-54.12 152.5,-76.38"/>
<text text-anchor="middle" x="77.38" y="-62.88" font-family="Helvetica,sans-Serif" font-size="10.00">DPsim::DataLoggerInterface</text>
</a>
</g>
</g>
<!-- Node1 -->
<g id="Node000001" class="node">
<title>Node1</title>
<g id="a_Node000001"><a xlink:href="class_d_psim_1_1_data_logger.html" target="_top" xlink:title=" ">
<polygon fill="white" stroke="#666666" points="318.5,-96.38 211.75,-96.38 211.75,-74.12 318.5,-74.12 318.5,-96.38"/>
<text text-anchor="middle" x="265.12" y="-82.88" font-family="Helvetica,sans-Serif" font-size="10.00">DPsim::DataLogger</text>
</a>
</g>
</g>
<!-- Node0&#45;&gt;Node1 -->
<g id="edge522_Node000000_Node000001" class="edge">
<title>Node0&#45;&gt;Node1</title>
<g id="a_edge522_Node000000_Node000001"><a xlink:title=" ">
<path fill="none" stroke="#63b8ff" d="M163.97,-74.47C180.12,-76.2 196.56,-77.98 211.34,-79.57"/>
<polygon fill="#63b8ff" stroke="#63b8ff" points="164.68,-71.02 154.36,-73.43 163.93,-77.98 164.68,-71.02"/>
</a>
</g>
</g>
<!-- Node3 -->
<g id="Node000003" class="node">
<title>Node3</title>
<g id="a_Node000003"><a xlink:href="class_d_psim_1_1_real_time_data_logger.html" target="_top" xlink:title=" ">
<polygon fill="white" stroke="#666666" points="339.5,-53.38 190.75,-53.38 190.75,-31.12 339.5,-31.12 339.5,-53.38"/>
<text text-anchor="middle" x="265.12" y="-39.88" font-family="Helvetica,sans-Serif" font-size="10.00">DPsim::RealTimeDataLogger</text>
</a>
</g>
</g>
<!-- Node0&#45;&gt;Node3 -->
<g id="edge523_Node000000_Node000003" class="edge">
<title>Node0&#45;&gt;Node3</title>
<g id="a_edge523_Node000000_Node000003"><a xlink:title=" ">
<path fill="none" stroke="#63b8ff" d="M164.01,-54.65C172.87,-53.55 181.82,-52.44 190.53,-51.36"/>
<polygon fill="#63b8ff" stroke="#63b8ff" points="163.85,-51.14 154.36,-55.84 164.71,-58.09 163.85,-51.14"/>
</a>
</g>
</g>
<!-- Node2 -->
<g id="Node000002" class="node">
<title>Node2</title>
<g id="a_Node000002"><a xlink:href="class_shared_factory.html" target="_top" xlink:title=" ">
<polygon fill="white" stroke="#666666" points="154.75,-116.38 0,-116.38 0,-94.12 154.75,-94.12 154.75,-116.38"/>
<text text-anchor="middle" x="77.38" y="-102.88" font-family="Helvetica,sans-Serif" font-size="10.00">SharedFactory&lt; DataLogger &gt;</text>
</a>
</g>
</g>
<!-- Node2&#45;&gt;Node1 -->
<g id="edge524_Node000002_Node000001" class="edge">
<title>Node2&#45;&gt;Node1</title>
<g id="a_edge524_Node000002_Node000001"><a xlink:title=" ">
<path fill="none" stroke="#63b8ff" d="M166.21,-95.79C181.68,-94.13 197.34,-92.44 211.46,-90.92"/>
<polygon fill="#63b8ff" stroke="#63b8ff" points="166.07,-92.29 156.5,-96.84 166.82,-99.25 166.07,-92.29"/>
</a>
</g>
</g>
<!-- Node4 -->
<g id="Node000004" class="node">
<title>Node4</title>
<g id="a_Node000004"><a xlink:href="class_shared_factory.html" target="_top" xlink:title=" ">
<polygon fill="white" stroke="#666666" points="154.75,-36.5 0,-36.5 0,0 154.75,0 154.75,-36.5"/>
<text text-anchor="start" x="8" y="-23" font-family="Helvetica,sans-Serif" font-size="10.00">SharedFactory&lt; RealTimeData</text>
<text text-anchor="middle" x="77.38" y="-8.75" font-family="Helvetica,sans-Serif" font-size="10.00">Logger &gt;</text>
</a>
</g>
</g>
<!-- Node4&#45;&gt;Node3 -->
<g id="edge525_Node000004_Node000003" class="edge">
<title>Node4&#45;&gt;Node3</title>
<g id="a_edge525_Node000004_Node000003"><a xlink:title=" ">
<path fill="none" stroke="#63b8ff" d="M166.32,-29.61C174.37,-30.65 182.46,-31.7 190.37,-32.72"/>
<polygon fill="#63b8ff" stroke="#63b8ff" points="166.87,-26.15 156.5,-28.34 165.97,-33.1 166.87,-26.15"/>
</a>
</g>
</g>
</g>
</svg>
