<?xml version="1.0" encoding="UTF-8" standalone="no"?>
<!DOCTYPE svg PUBLIC "-//W3C//DTD SVG 1.1//EN"
 "http://www.w3.org/Graphics/SVG/1.1/DTD/svg11.dtd">
<!-- Generated by graphviz version 12.2.1 (20241206.2353)
 -->
<!-- Title: Graphical Class Hierarchy Pages: 1 -->
<svg width="339pt" height="139pt"
 viewBox="0.00 0.00 339.25 138.50" xmlns="http://www.w3.org/2000/svg" xmlns:xlink="http://www.w3.org/1999/xlink">
<g id="graph0" class="graph" transform="scale(1 1) rotate(0) translate(4 134.5)">
<title>Graphical Class Hierarchy</title>
<!-- Node0 -->
<g id="Node000000" class="node">
<title>Node0</title>
<g id="a_Node000000"><a xlink:href="class_shared_factory.html" target="_top" xlink:title=" ">
<polygon fill="white" stroke="#666666" points="156.62,-130.5 1.12,-130.5 1.12,-94 156.62,-94 156.62,-130.5"/>
<text text-anchor="start" x="9.12" y="-117" font-family="Helvetica,sans-Serif" font-size="10.00">SharedFactory&lt; HydroTurbine</text>
<text text-anchor="middle" x="78.88" y="-102.75" font-family="Helvetica,sans-Serif" font-size="10.00">Parameters &gt;</text>
</a>
</g>
</g>
<!-- Node1 -->
<g id="Node000001" class="node">
<title>Node1</title>
<g id="a_Node000001"><a xlink:href="class_c_p_s_1_1_signal_1_1_hydro_turbine_parameters.html" target="_top" xlink:title=" ">
<polygon fill="white" stroke="#666666" points="330.88,-120.5 194.12,-120.5 194.12,-84 330.88,-84 330.88,-120.5"/>
<text text-anchor="start" x="202.12" y="-107" font-family="Helvetica,sans-Serif" font-size="10.00">CPS::Signal::HydroTurbine</text>
<text text-anchor="middle" x="262.5" y="-92.75" font-family="Helvetica,sans-Serif" font-size="10.00">Parameters</text>
</a>
</g>
</g>
<!-- Node0&#45;&gt;Node1 -->
<g id="edge614_Node000000_Node000001" class="edge">
<title>Node0&#45;&gt;Node1</title>
<g id="a_edge614_Node000000_Node000001"><a xlink:title=" ">
<path fill="none" stroke="#63b8ff" d="M168.19,-107.39C176.82,-106.91 185.47,-106.44 193.84,-105.98"/>
<polygon fill="#63b8ff" stroke="#63b8ff" points="168.2,-103.88 158.41,-107.93 168.59,-110.87 168.2,-103.88"/>
</a>
</g>
</g>
<!-- Node4 -->
<g id="Node000004" class="node">
<title>Node4</title>
<g id="a_Node000004"><a xlink:href="class_shared_factory.html" target="_top" xlink:title=" ">
<polygon fill="white" stroke="#666666" points="157,-36.5 0.75,-36.5 0.75,0 157,0 157,-36.5"/>
<text text-anchor="start" x="8.75" y="-23" font-family="Helvetica,sans-Serif" font-size="10.00">SharedFactory&lt; SteamTurbine</text>
<text text-anchor="middle" x="78.88" y="-8.75" font-family="Helvetica,sans-Serif" font-size="10.00">Parameters &gt;</text>
</a>
</g>
</g>
<!-- Node3 -->
<g id="Node000003" class="node">
<title>Node3</title>
<g id="a_Node000003"><a xlink:href="class_c_p_s_1_1_signal_1_1_steam_turbine_parameters.html" target="_top" xlink:title=" ">
<polygon fill="white" stroke="#666666" points="331.25,-55.5 193.75,-55.5 193.75,-19 331.25,-19 331.25,-55.5"/>
<text text-anchor="start" x="201.75" y="-42" font-family="Helvetica,sans-Serif" font-size="10.00">CPS::Signal::SteamTurbine</text>
<text text-anchor="middle" x="262.5" y="-27.75" font-family="Helvetica,sans-Serif" font-size="10.00">Parameters</text>
</a>
</g>
</g>
<!-- Node4&#45;&gt;Node3 -->
<g id="edge615_Node000004_Node000003" class="edge">
<title>Node4&#45;&gt;Node3</title>
<g id="a_edge615_Node000004_Node000003"><a xlink:title=" ">
<path fill="none" stroke="#63b8ff" d="M168.7,-27.54C177,-28.41 185.32,-29.28 193.38,-30.12"/>
<polygon fill="#63b8ff" stroke="#63b8ff" points="169.24,-24.08 158.93,-26.52 168.51,-31.04 169.24,-24.08"/>
</a>
</g>
</g>
<!-- Node2 -->
<g id="Node000002" class="node">
<title>Node2</title>
<g id="a_Node000002"><a xlink:href="class_c_p_s_1_1_base_1_1_turbine_parameters.html" target="_top" xlink:title=" ">
<polygon fill="white" stroke="#666666" points="157.75,-76.38 0,-76.38 0,-54.12 157.75,-54.12 157.75,-76.38"/>
<text text-anchor="middle" x="78.88" y="-62.88" font-family="Helvetica,sans-Serif" font-size="10.00">CPS::Base::TurbineParameters</text>
</a>
</g>
</g>
<!-- Node2&#45;&gt;Node1 -->
<g id="edge616_Node000002_Node000001" class="edge">
<title>Node2&#45;&gt;Node1</title>
<g id="a_edge616_Node000002_Node000001"><a xlink:title=" ">
<path fill="none" stroke="#63b8ff" d="M148.1,-79.15C163.09,-82.2 178.95,-85.43 193.92,-88.48"/>
<polygon fill="#63b8ff" stroke="#63b8ff" points="148.82,-75.72 138.33,-77.16 147.43,-82.58 148.82,-75.72"/>
</a>
</g>
</g>
<!-- Node2&#45;&gt;Node3 -->
<g id="edge617_Node000002_Node000003" class="edge">
<title>Node2&#45;&gt;Node3</title>
<g id="a_edge617_Node000002_Node000003"><a xlink:title=" ">
<path fill="none" stroke="#63b8ff" d="M166.14,-51.95C175.27,-50.54 184.46,-49.13 193.35,-47.76"/>
<polygon fill="#63b8ff" stroke="#63b8ff" points="165.91,-48.45 156.56,-53.43 166.97,-55.36 165.91,-48.45"/>
</a>
</g>
</g>
</g>
</svg>
