<?xml version="1.0" encoding="UTF-8" standalone="no"?>
<!DOCTYPE svg PUBLIC "-//W3C//DTD SVG 1.1//EN"
 "http://www.w3.org/Graphics/SVG/1.1/DTD/svg11.dtd">
<!-- Generated by graphviz version 2.50.0 (0)
 -->
<!-- Title: Graphical Class Hierarchy Pages: 1 -->
<svg width="606pt" height="78pt"
 viewBox="0.00 0.00 606.00 77.50" xmlns="http://www.w3.org/2000/svg" xmlns:xlink="http://www.w3.org/1999/xlink">
<g id="graph0" class="graph" transform="scale(1 1) rotate(0) translate(4 73.5)">
<title>Graphical Class Hierarchy</title>
<!-- Node0 -->
<g id="node1" class="node">
<title>Node0</title>
<g id="a_node1"><a xlink:href="class_shared_factory.html" target="_top" xlink:title=" ">
<polygon fill="none" stroke="black" points="0,-50 0,-69 143,-69 143,-50 0,-50"/>
<text text-anchor="middle" x="71.5" y="-57" font-family="Helvetica,sans-Serif" font-size="10.00">SharedFactory&lt; Interface &gt;</text>
</a>
</g>
</g>
<!-- Node1 -->
<g id="node2" class="node">
<title>Node1</title>
<g id="a_node2"><a xlink:href="class_d_psim_1_1_interface.html" target="_top" xlink:title=" ">
<polygon fill="none" stroke="black" points="199,-50 199,-69 294,-69 294,-50 199,-50"/>
<text text-anchor="middle" x="246.5" y="-57" font-family="Helvetica,sans-Serif" font-size="10.00">DPsim::Interface</text>
</a>
</g>
</g>
<!-- Node0&#45;&gt;Node1 -->
<g id="edge1" class="edge">
<title>Node0&#45;&gt;Node1</title>
<path fill="none" stroke="midnightblue" d="M153.55,-59.5C169.14,-59.5 184.96,-59.5 198.99,-59.5"/>
<polygon fill="midnightblue" stroke="midnightblue" points="153.36,-56 143.36,-59.5 153.36,-63 153.36,-56"/>
</g>
<!-- Node2 -->
<g id="node3" class="node">
<title>Node2</title>
<g id="a_node3"><a xlink:href="class_d_psim_1_1_interface_villas.html" target="_top" xlink:title="Interface type that can be used to import and export simulation attributes over any node type support...">
<polygon fill="none" stroke="black" points="350,-28 350,-47 468,-47 468,-28 350,-28"/>
<text text-anchor="middle" x="409" y="-35" font-family="Helvetica,sans-Serif" font-size="10.00">DPsim::InterfaceVillas</text>
</a>
</g>
</g>
<!-- Node1&#45;&gt;Node2 -->
<g id="edge2" class="edge">
<title>Node1&#45;&gt;Node2</title>
<path fill="none" stroke="midnightblue" d="M304.38,-51.7C319.17,-49.68 335.12,-47.49 349.97,-45.45"/>
<polygon fill="midnightblue" stroke="midnightblue" points="303.79,-48.25 294.35,-53.08 304.74,-55.19 303.79,-48.25"/>
</g>
<!-- Node3 -->
<g id="node4" class="node">
<title>Node3</title>
<g id="a_node4"><a xlink:href="class_py_interface_villas.html" target="_top" xlink:title=" ">
<polygon fill="none" stroke="black" points="504,-28 504,-47 598,-47 598,-28 504,-28"/>
<text text-anchor="middle" x="551" y="-35" font-family="Helvetica,sans-Serif" font-size="10.00">PyInterfaceVillas</text>
</a>
</g>
</g>
<!-- Node2&#45;&gt;Node3 -->
<g id="edge3" class="edge">
<title>Node2&#45;&gt;Node3</title>
<path fill="none" stroke="midnightblue" d="M478.25,-37.5C486.89,-37.5 495.57,-37.5 503.75,-37.5"/>
<polygon fill="midnightblue" stroke="midnightblue" points="478.16,-34 468.16,-37.5 478.16,-41 478.16,-34"/>
</g>
<!-- Node278 -->
<g id="node5" class="node">
<title>Node278</title>
<g id="a_node5"><a xlink:href="class_shared_factory.html" target="_top" xlink:title=" ">
<polygon fill="none" stroke="black" points="179,-0.5 179,-30.5 314,-30.5 314,-0.5 179,-0.5"/>
<text text-anchor="start" x="187" y="-18.5" font-family="Helvetica,sans-Serif" font-size="10.00">SharedFactory&lt; Interface</text>
<text text-anchor="middle" x="246.5" y="-7.5" font-family="Helvetica,sans-Serif" font-size="10.00">Villas &gt;</text>
</a>
</g>
</g>
<!-- Node278&#45;&gt;Node2 -->
<g id="edge4" class="edge">
<title>Node278&#45;&gt;Node2</title>
<path fill="none" stroke="midnightblue" d="M324.27,-26.02C332.92,-27.21 341.62,-28.4 349.97,-29.55"/>
<polygon fill="midnightblue" stroke="midnightblue" points="324.55,-22.53 314.17,-24.64 323.6,-29.46 324.55,-22.53"/>
</g>
</g>
</svg>
