<?xml version="1.0" encoding="UTF-8" standalone="no"?>
<!DOCTYPE svg PUBLIC "-//W3C//DTD SVG 1.1//EN"
 "http://www.w3.org/Graphics/SVG/1.1/DTD/svg11.dtd">
<!-- Generated by graphviz version 12.2.1 (20241206.2353)
 -->
<!-- Title: Graphical Class Hierarchy Pages: 1 -->
<svg width="359pt" height="84pt"
 viewBox="0.00 0.00 358.75 84.38" xmlns="http://www.w3.org/2000/svg" xmlns:xlink="http://www.w3.org/1999/xlink">
<g id="graph0" class="graph" transform="scale(1 1) rotate(0) translate(4 80.38)">
<title>Graphical Class Hierarchy</title>
<!-- Node0 -->
<g id="Node000000" class="node">
<title>Node0</title>
<g id="a_Node000000"><a xlink:href="class_c_p_s_1_1_base_1_1_governor_parameters.html" target="_top" xlink:title=" ">
<polygon fill="white" stroke="#666666" points="167.5,-76.38 0,-76.38 0,-54.12 167.5,-54.12 167.5,-76.38"/>
<text text-anchor="middle" x="83.75" y="-62.88" font-family="Helvetica,sans-Serif" font-size="10.00">CPS::Base::GovernorParameters</text>
</a>
</g>
</g>
<!-- Node1 -->
<g id="Node000001" class="node">
<title>Node1</title>
<g id="a_Node000001"><a xlink:href="class_c_p_s_1_1_signal_1_1_steam_governor_parameters.html" target="_top" xlink:title=" ">
<polygon fill="white" stroke="#666666" points="350.75,-59.5 203.5,-59.5 203.5,-23 350.75,-23 350.75,-59.5"/>
<text text-anchor="start" x="211.5" y="-46" font-family="Helvetica,sans-Serif" font-size="10.00">CPS::Signal::SteamGovernor</text>
<text text-anchor="middle" x="277.12" y="-31.75" font-family="Helvetica,sans-Serif" font-size="10.00">Parameters</text>
</a>
</g>
</g>
<!-- Node0&#45;&gt;Node1 -->
<g id="edge499_Node000000_Node000001" class="edge">
<title>Node0&#45;&gt;Node1</title>
<g id="a_edge499_Node000000_Node000001"><a xlink:title=" ">
<path fill="none" stroke="#63b8ff" d="M179.15,-53.41C187.17,-52.41 195.2,-51.4 203.01,-50.42"/>
<polygon fill="#63b8ff" stroke="#63b8ff" points="178.84,-49.92 169.36,-54.64 179.71,-56.87 178.84,-49.92"/>
</a>
</g>
</g>
<!-- Node2 -->
<g id="Node000002" class="node">
<title>Node2</title>
<g id="a_Node000002"><a xlink:href="class_shared_factory.html" target="_top" xlink:title=" ">
<polygon fill="white" stroke="#666666" points="166.75,-36.5 0.75,-36.5 0.75,0 166.75,0 166.75,-36.5"/>
<text text-anchor="start" x="8.75" y="-23" font-family="Helvetica,sans-Serif" font-size="10.00">SharedFactory&lt; SteamGovernor</text>
<text text-anchor="middle" x="83.75" y="-8.75" font-family="Helvetica,sans-Serif" font-size="10.00">Parameters &gt;</text>
</a>
</g>
</g>
<!-- Node2&#45;&gt;Node1 -->
<g id="edge500_Node000002_Node000001" class="edge">
<title>Node2&#45;&gt;Node1</title>
<g id="a_edge500_Node000002_Node000001"><a xlink:title=" ">
<path fill="none" stroke="#63b8ff" d="M178.38,-29.5C186.74,-30.51 195.12,-31.52 203.27,-32.49"/>
<polygon fill="#63b8ff" stroke="#63b8ff" points="178.87,-26.04 168.52,-28.32 178.03,-32.99 178.87,-26.04"/>
</a>
</g>
</g>
</g>
</svg>
