<?xml version="1.0" encoding="UTF-8" standalone="no"?>
<!DOCTYPE svg PUBLIC "-//W3C//DTD SVG 1.1//EN"
 "http://www.w3.org/Graphics/SVG/1.1/DTD/svg11.dtd">
<!-- Generated by graphviz version 2.44.0 (0)
 -->
<!-- Title: DPsim::Python::Simulation Pages: 1 -->
<svg width="338pt" height="95pt"
 viewBox="0.00 0.00 337.50 95.00" xmlns="http://www.w3.org/2000/svg" xmlns:xlink="http://www.w3.org/1999/xlink">
<g id="graph0" class="graph" transform="scale(1 1) rotate(0) translate(4 91)">
<title>DPsim::Python::Simulation</title>
<!-- Node1 -->
<g id="node1" class="node">
<title>Node1</title>
<g id="a_node1"><a xlink:title=" ">
<polygon fill="#bfbfbf" stroke="black" points="94.5,-0.5 94.5,-19.5 229.5,-19.5 229.5,-0.5 94.5,-0.5"/>
<text text-anchor="middle" x="162" y="-7.5" font-family="Helvetica" font-size="10.00">DPsim::Python::Simulation</text>
</a>
</g>
</g>
<!-- Node2 -->
<g id="node2" class="node">
<title>Node2</title>
<g id="a_node2"><a xlink:href="class_d_psim_1_1_python_1_1_event_channel.html" target="_top" xlink:title=" ">
<polygon fill="none" stroke="black" points="0,-67.5 0,-86.5 150,-86.5 150,-67.5 0,-67.5"/>
<text text-anchor="middle" x="75" y="-74.5" font-family="Helvetica" font-size="10.00">DPsim::Python::EventChannel</text>
</a>
</g>
</g>
<!-- Node2&#45;&gt;Node1 -->
<g id="edge1" class="edge">
<title>Node2&#45;&gt;Node1</title>
<path fill="none" stroke="#9a32cd" stroke-dasharray="5,2" d="M94.99,-61.07C112.16,-48.24 136.32,-30.19 150.45,-19.63"/>
<polygon fill="#9a32cd" stroke="#9a32cd" points="92.65,-58.44 86.73,-67.23 96.84,-64.05 92.65,-58.44"/>
<text text-anchor="middle" x="142.5" y="-41" font-family="Helvetica" font-size="10.00"> channel</text>
</g>
<!-- Node3 -->
<g id="node3" class="node">
<title>Node3</title>
<g id="a_node3"><a xlink:href="struct_d_psim_1_1_python_1_1_system_topology.html" target="_top" xlink:title=" ">
<polygon fill="none" stroke="black" points="168.5,-67.5 168.5,-86.5 329.5,-86.5 329.5,-67.5 168.5,-67.5"/>
<text text-anchor="middle" x="249" y="-74.5" font-family="Helvetica" font-size="10.00">DPsim::Python::SystemTopology</text>
</a>
</g>
</g>
<!-- Node3&#45;&gt;Node1 -->
<g id="edge2" class="edge">
<title>Node3&#45;&gt;Node1</title>
<path fill="none" stroke="#9a32cd" stroke-dasharray="5,2" d="M229.01,-61.07C211.84,-48.24 187.68,-30.19 173.55,-19.63"/>
<polygon fill="#9a32cd" stroke="#9a32cd" points="227.16,-64.05 237.27,-67.23 231.35,-58.44 227.16,-64.05"/>
<text text-anchor="middle" x="225.5" y="-41" font-family="Helvetica" font-size="10.00"> pySys</text>
</g>
</g>
</svg>
